<?xml version="1.0" encoding="UTF-8" standalone="no"?>
<!DOCTYPE svg PUBLIC "-//W3C//DTD SVG 1.1//EN"
 "http://www.w3.org/Graphics/SVG/1.1/DTD/svg11.dtd">
<!-- Generated by graphviz version 2.38.0 (20140413.2041)
 -->
<!-- Title: wlp::StateMachine Pages: 1 -->
<svg width="314pt" height="117pt"
 viewBox="0.00 0.00 313.50 117.00" xmlns="http://www.w3.org/2000/svg" xmlns:xlink="http://www.w3.org/1999/xlink">
<g id="graph0" class="graph" transform="scale(1 1) rotate(0) translate(4 113)">
<title>wlp::StateMachine</title>
<polygon fill="white" stroke="none" points="-4,4 -4,-113 309.5,-113 309.5,4 -4,4"/>
<!-- Node1 -->
<g id="node1" class="node"><title>Node1</title>
<polygon fill="#bfbfbf" stroke="black" points="79,-0.5 79,-19.5 176,-19.5 176,-0.5 79,-0.5"/>
<text text-anchor="middle" x="127.5" y="-7.5" font-family="Helvetica,sans-Serif" font-size="10.00">wlp::StateMachine</text>
</g>
<!-- Node2 -->
<g id="node2" class="node"><title>Node2</title>
<g id="a_node2"><a xlink:href="../../d2/dfe/classwlp_1_1_event_data.html" target="_top" xlink:title="wlp::EventData">
<polygon fill="white" stroke="black" points="0,-89.5 0,-108.5 81,-108.5 81,-89.5 0,-89.5"/>
<text text-anchor="middle" x="40.5" y="-96.5" font-family="Helvetica,sans-Serif" font-size="10.00">wlp::EventData</text>
</a>
</g>
</g>
<!-- Node2&#45;&gt;Node1 -->
<g id="edge1" class="edge"><title>Node2&#45;&gt;Node1</title>
<path fill="none" stroke="#9a32cd" stroke-dasharray="5,2" d="M42.2828,-78.8841C44.4233,-65.9017 49.1339,-49.1328 59.5,-38 67.4635,-29.4475 78.4854,-23.5551 89.3391,-19.5154"/>
<polygon fill="#9a32cd" stroke="#9a32cd" points="38.7756,-78.7196 40.9857,-89.0814 45.7196,-79.6029 38.7756,-78.7196"/>
<text text-anchor="middle" x="91.5" y="-57.5" font-family="Helvetica,sans-Serif" font-size="10.00"> m_event_data</text>
<text text-anchor="middle" x="91.5" y="-46.5" font-family="Helvetica,sans-Serif" font-size="10.00">m_dataless</text>
</g>
<!-- Node3 -->
<g id="node3" class="node"><title>Node3</title>
<polygon fill="white" stroke="#bfbfbf" points="110,-89.5 110,-108.5 145,-108.5 145,-89.5 110,-89.5"/>
<text text-anchor="middle" x="127.5" y="-96.5" font-family="Helvetica,sans-Serif" font-size="10.00">bool</text>
</g>
<!-- Node3&#45;&gt;Node1 -->
<g id="edge2" class="edge"><title>Node3&#45;&gt;Node1</title>
<path fill="none" stroke="#9a32cd" stroke-dasharray="5,2" d="M127.5,-79.1946C127.5,-60.7379 127.5,-33.412 127.5,-19.6249"/>
<polygon fill="#9a32cd" stroke="#9a32cd" points="124,-79.34 127.5,-89.34 131,-79.3401 124,-79.34"/>
<text text-anchor="middle" x="171.5" y="-52" font-family="Helvetica,sans-Serif" font-size="10.00"> m_event_generated</text>
</g>
<!-- Node4 -->
<g id="node4" class="node"><title>Node4</title>
<polygon fill="white" stroke="#bfbfbf" points="215.5,-89.5 215.5,-108.5 261.5,-108.5 261.5,-89.5 215.5,-89.5"/>
<text text-anchor="middle" x="238.5" y="-96.5" font-family="Helvetica,sans-Serif" font-size="10.00">uint8_t</text>
</g>
<!-- Node4&#45;&gt;Node1 -->
<g id="edge3" class="edge"><title>Node4&#45;&gt;Node1</title>
<path fill="none" stroke="#9a32cd" stroke-dasharray="5,2" d="M236.121,-79.3909C233.483,-66.1418 227.968,-48.8331 216.5,-38 205.467,-27.5772 190.536,-21.1683 176.058,-17.2309"/>
<polygon fill="#9a32cd" stroke="#9a32cd" points="232.677,-80.0202 237.727,-89.334 239.588,-78.9038 232.677,-80.0202"/>
<text text-anchor="middle" x="270" y="-63" font-family="Helvetica,sans-Serif" font-size="10.00"> m_new_state</text>
<text text-anchor="middle" x="270" y="-52" font-family="Helvetica,sans-Serif" font-size="10.00">m_current_state</text>
<text text-anchor="middle" x="270" y="-41" font-family="Helvetica,sans-Serif" font-size="10.00">m_max_states</text>
</g>
</g>
</svg>
