<?xml version="1.0" encoding="UTF-8" standalone="no"?>
<!DOCTYPE svg PUBLIC "-//W3C//DTD SVG 1.1//EN"
 "http://www.w3.org/Graphics/SVG/1.1/DTD/svg11.dtd">
<!-- Generated by graphviz version 2.38.0 (20140413.2041)
 -->
<!-- Title: wlp::or_&lt; B1, B2, B3, Bn... &gt; Pages: 1 -->
<svg width="125pt" height="117pt"
 viewBox="0.00 0.00 125.00 117.00" xmlns="http://www.w3.org/2000/svg" xmlns:xlink="http://www.w3.org/1999/xlink">
<g id="graph0" class="graph" transform="scale(1 1) rotate(0) translate(4 113)">
<title>wlp::or_&lt; B1, B2, B3, Bn... &gt;</title>
<polygon fill="white" stroke="none" points="-4,4 -4,-113 121,-113 121,4 -4,4"/>
<!-- Node2 -->
<g id="node1" class="node"><title>Node2</title>
<polygon fill="#bfbfbf" stroke="black" points="3.5,-0.5 3.5,-30.5 113.5,-30.5 113.5,-0.5 3.5,-0.5"/>
<text text-anchor="start" x="11.5" y="-18.5" font-family="Helvetica,sans-Serif" font-size="10.00">wlp::or_&lt; B1, B2, B3,</text>
<text text-anchor="middle" x="58.5" y="-7.5" font-family="Helvetica,sans-Serif" font-size="10.00"> Bn... &gt;</text>
</g>
<!-- Node3 -->
<g id="node2" class="node"><title>Node3</title>
<g id="a_node2"><a xlink:href="../../d8/d1b/structwlp_1_1and__.html" target="_top" xlink:title="conditional\&lt; B1::value,\l B1, or_\&lt; B2, B3, Bn...\l \&gt; \&gt;::type">
<polygon fill="white" stroke="black" points="0,-67.5 0,-108.5 117,-108.5 117,-67.5 0,-67.5"/>
<text text-anchor="start" x="8" y="-96.5" font-family="Helvetica,sans-Serif" font-size="10.00">conditional&lt; B1::value,</text>
<text text-anchor="start" x="8" y="-85.5" font-family="Helvetica,sans-Serif" font-size="10.00"> B1, or_&lt; B2, B3, Bn...</text>
<text text-anchor="middle" x="58.5" y="-74.5" font-family="Helvetica,sans-Serif" font-size="10.00"> &gt; &gt;::type</text>
</a>
</g>
</g>
<!-- Node3&#45;&gt;Node2 -->
<g id="edge1" class="edge"><title>Node3&#45;&gt;Node2</title>
<path fill="none" stroke="midnightblue" d="M58.5,-57.08C58.5,-48.0061 58.5,-38.4498 58.5,-30.8916"/>
<polygon fill="midnightblue" stroke="midnightblue" points="55.0001,-57.3618 58.5,-67.3618 62.0001,-57.3619 55.0001,-57.3618"/>
</g>
</g>
</svg>
