<?xml version="1.0" encoding="UTF-8" standalone="no"?>
<!DOCTYPE svg PUBLIC "-//W3C//DTD SVG 1.1//EN"
 "http://www.w3.org/Graphics/SVG/1.1/DTD/svg11.dtd">
<!-- Generated by graphviz version 2.36.0 (20140111.2315)
 -->
<!-- Title: wlib/stl/OpenSet.h Pages: 1 -->
<!--zoomable 588 -->
<svg id="main" version="1.1" xmlns="http://www.w3.org/2000/svg" xmlns:xlink="http://www.w3.org/1999/xlink" xml:space="preserve" onload="init(evt)">
<style type="text/css"><![CDATA[
.edge:hover path { stroke: red; }
.edge:hover polygon { stroke: red; fill: red; }
]]></style>
<script type="text/javascript"><![CDATA[
var edges = document.getElementsByTagName('g');
if (edges && edges.length) {
  for (var i=0;i<edges.length;i++) {
    if (edges[i].id.substr(0,4)=='edge') {
      edges[i].setAttribute('class','edge');
    }
  }
}
]]></script>
        <defs>
                <circle id="rim" cx="0" cy="0" r="7"/>
                <circle id="rim2" cx="0" cy="0" r="3.5"/>
                <g id="zoomPlus">
                        <use xlink:href="#rim" fill="#404040">
                                <set attributeName="fill" to="#808080" begin="zoomplus.mouseover" end="zoomplus.mouseout"/>
                        </use>
                        <path d="M-4,0h8M0,-4v8" fill="none" stroke="white" stroke-width="1.5" pointer-events="none"/>
                </g>
                <g id="zoomMin">
                        <use xlink:href="#rim" fill="#404040">
                                <set attributeName="fill" to="#808080" begin="zoomminus.mouseover" end="zoomminus.mouseout"/>
                        </use>
                        <path d="M-4,0h8" fill="none" stroke="white" stroke-width="1.5" pointer-events="none"/>
                </g>
                <g id="dirArrow">
                        <path fill="none" stroke="white" stroke-width="1.5" d="M0,-3.0v7 M-2.5,-0.5L0,-3.0L2.5,-0.5"/>
                </g>
               <g id="resetDef">
                       <use xlink:href="#rim2" fill="#404040">
                               <set attributeName="fill" to="#808080" begin="reset.mouseover" end="reset.mouseout"/>
                       </use>
               </g>
        </defs>

<script type="text/javascript">
var viewWidth = 968;
var viewHeight = 588;
var sectionId = 'dynsection-0';
</script>
<script xlink:href="../../svgpan.js"/>
<svg id="graph" class="graph">
<g id="viewport">
<title>wlib/stl/OpenSet.h</title>
<polygon fill="white" stroke="none" points="-4,4 -4,-584 964,-584 964,4 -4,4"/>
<!-- Node1 -->
<g id="node1" class="node"><title>Node1</title>
<polygon fill="#bfbfbf" stroke="black" points="594.5,-560.5 594.5,-579.5 691.5,-579.5 691.5,-560.5 594.5,-560.5"/>
<text text-anchor="middle" x="643" y="-567.5" font-family="Helvetica,sans-Serif" font-size="10.00">wlib/stl/OpenSet.h</text>
</g>
<!-- Node2 -->
<g id="node2" class="node"><title>Node2</title>
<g id="a_node2"><a xlink:href="../../d2/dc2/_equal_8h.html" target="_top" xlink:title="wlib/stl/Equal.h">
<polygon fill="white" stroke="black" points="194.5,-448.5 194.5,-467.5 277.5,-467.5 277.5,-448.5 194.5,-448.5"/>
<text text-anchor="middle" x="236" y="-455.5" font-family="Helvetica,sans-Serif" font-size="10.00">wlib/stl/Equal.h</text>
</a>
</g>
</g>
<!-- Node1&#45;&gt;Node2 -->
<g id="edge1" class="edge"><title>Node1&#45;&gt;Node2</title>
<path fill="none" stroke="midnightblue" d="M611.402,-560.46C538.594,-540.782 359.034,-492.252 277.487,-470.213"/>
<polygon fill="midnightblue" stroke="midnightblue" points="278.145,-466.765 267.578,-467.535 276.318,-473.522 278.145,-466.765"/>
</g>
<!-- Node10 -->
<g id="node10" class="node"><title>Node10</title>
<g id="a_node10"><a xlink:href="../../d4/dda/_pair_8h.html" target="_top" xlink:title="Implementation of a 2&#45;element tuple. ">
<polygon fill="white" stroke="black" points="636,-224.5 636,-243.5 712,-243.5 712,-224.5 636,-224.5"/>
<text text-anchor="middle" x="674" y="-231.5" font-family="Helvetica,sans-Serif" font-size="10.00">wlib/stl/Pair.h</text>
</a>
</g>
</g>
<!-- Node1&#45;&gt;Node10 -->
<g id="edge40" class="edge"><title>Node1&#45;&gt;Node10</title>
<path fill="none" stroke="midnightblue" d="M691.916,-562.243C744.906,-552.025 826.956,-527.104 865,-468 894.767,-421.754 746.744,-294.26 692.938,-250.208"/>
<polygon fill="midnightblue" stroke="midnightblue" points="694.843,-247.245 684.875,-243.655 690.428,-252.678 694.843,-247.245"/>
</g>
<!-- Node11 -->
<g id="node11" class="node"><title>Node11</title>
<g id="a_node11"><a xlink:href="../../db/d2a/_utility_8h.html" target="_top" xlink:title="Various helper functions. ">
<polygon fill="white" stroke="black" points="565.5,-168.5 565.5,-187.5 662.5,-187.5 662.5,-168.5 565.5,-168.5"/>
<text text-anchor="middle" x="614" y="-175.5" font-family="Helvetica,sans-Serif" font-size="10.00">wlib/utility/Utility.h</text>
</a>
</g>
</g>
<!-- Node1&#45;&gt;Node11 -->
<g id="edge46" class="edge"><title>Node1&#45;&gt;Node11</title>
<path fill="none" stroke="midnightblue" d="M647.821,-560.288C652.555,-551.403 659.678,-537.099 664,-524 706.529,-395.117 796.096,-337.049 721,-224 709.843,-207.204 691.061,-196.663 672.32,-190.053"/>
<polygon fill="midnightblue" stroke="midnightblue" points="673.154,-186.646 662.563,-186.943 671.028,-193.315 673.154,-186.646"/>
</g>
<!-- Node17 -->
<g id="node17" class="node"><title>Node17</title>
<g id="a_node17"><a xlink:href="../../d2/dad/_hash_8h.html" target="_top" xlink:title="wlib/stl/Hash.h">
<polygon fill="white" stroke="black" points="401,-448.5 401,-467.5 483,-467.5 483,-448.5 401,-448.5"/>
<text text-anchor="middle" x="442" y="-455.5" font-family="Helvetica,sans-Serif" font-size="10.00">wlib/stl/Hash.h</text>
</a>
</g>
</g>
<!-- Node1&#45;&gt;Node17 -->
<g id="edge26" class="edge"><title>Node1&#45;&gt;Node17</title>
<path fill="none" stroke="midnightblue" d="M620.609,-560.37C599.598,-551.983 567.523,-538.429 541,-524 512.494,-508.492 481.508,-487.4 461.934,-473.504"/>
<polygon fill="midnightblue" stroke="midnightblue" points="463.961,-470.65 453.794,-467.671 459.884,-476.341 463.961,-470.65"/>
</g>
<!-- Node19 -->
<g id="node19" class="node"><title>Node19</title>
<g id="a_node19"><a xlink:href="../../d8/d2e/_open_table_8h.html" target="_top" xlink:title="wlib/stl/OpenTable.h">
<polygon fill="white" stroke="black" points="550,-504.5 550,-523.5 656,-523.5 656,-504.5 550,-504.5"/>
<text text-anchor="middle" x="603" y="-511.5" font-family="Helvetica,sans-Serif" font-size="10.00">wlib/stl/OpenTable.h</text>
</a>
</g>
</g>
<!-- Node1&#45;&gt;Node19 -->
<g id="edge31" class="edge"><title>Node1&#45;&gt;Node19</title>
<path fill="none" stroke="midnightblue" d="M636.395,-560.083C630.745,-552.455 622.455,-541.264 615.549,-531.941"/>
<polygon fill="midnightblue" stroke="midnightblue" points="618.247,-529.703 609.482,-523.751 612.622,-533.87 618.247,-529.703"/>
</g>
<!-- Node22 -->
<g id="node22" class="node"><title>Node22</title>
<g id="a_node22"><a xlink:href="../../d9/d37/_table_8h.html" target="_top" xlink:title="wlib/stl/Table.h">
<polygon fill="white" stroke="black" points="848.5,-336.5 848.5,-355.5 931.5,-355.5 931.5,-336.5 848.5,-336.5"/>
<text text-anchor="middle" x="890" y="-343.5" font-family="Helvetica,sans-Serif" font-size="10.00">wlib/stl/Table.h</text>
</a>
</g>
</g>
<!-- Node1&#45;&gt;Node22 -->
<g id="edge41" class="edge"><title>Node1&#45;&gt;Node22</title>
<path fill="none" stroke="midnightblue" d="M691.591,-567.589C758.092,-564.516 872.176,-554.78 898,-524 936.343,-478.298 912,-400.259 897.943,-365.106"/>
<polygon fill="midnightblue" stroke="midnightblue" points="901.079,-363.533 893.992,-355.657 894.621,-366.233 901.079,-363.533"/>
</g>
<!-- Node3 -->
<g id="node3" class="node"><title>Node3</title>
<polygon fill="white" stroke="#bfbfbf" points="104.5,-280.5 104.5,-299.5 153.5,-299.5 153.5,-280.5 104.5,-280.5"/>
<text text-anchor="middle" x="129" y="-287.5" font-family="Helvetica,sans-Serif" font-size="10.00">string.h</text>
</g>
<!-- Node2&#45;&gt;Node3 -->
<g id="edge2" class="edge"><title>Node2&#45;&gt;Node3</title>
<path fill="none" stroke="midnightblue" d="M218.733,-448.49C191.572,-433.954 140.096,-401.447 122,-356 116.095,-341.171 118.79,-323.02 122.418,-309.671"/>
<polygon fill="midnightblue" stroke="midnightblue" points="125.872,-310.355 125.517,-299.766 119.191,-308.265 125.872,-310.355"/>
</g>
<!-- Node4 -->
<g id="node4" class="node"><title>Node4</title>
<g id="a_node4"><a xlink:href="../../d0/db6/_types_8h.html" target="_top" xlink:title="type definition of all the string types we will be using ">
<polygon fill="white" stroke="black" points="184,-56.5 184,-75.5 256,-75.5 256,-56.5 184,-56.5"/>
<text text-anchor="middle" x="220" y="-63.5" font-family="Helvetica,sans-Serif" font-size="10.00">wlib/Types.h</text>
</a>
</g>
</g>
<!-- Node2&#45;&gt;Node4 -->
<g id="edge3" class="edge"><title>Node2&#45;&gt;Node4</title>
<path fill="none" stroke="midnightblue" d="M194.351,-455.793C126.6,-451.367 0,-431.758 0,-347 0,-347 0,-347 0,-177 0,-100.144 108.741,-76.9842 173.323,-70.007"/>
<polygon fill="midnightblue" stroke="midnightblue" points="174.064,-73.451 183.671,-68.9858 173.376,-66.4849 174.064,-73.451"/>
</g>
<!-- Node6 -->
<g id="node6" class="node"><title>Node6</title>
<g id="a_node6"><a xlink:href="../../db/db5/_string_8h.html" target="_top" xlink:title="wlib/strings/String.h">
<polygon fill="white" stroke="black" points="184.5,-392.5 184.5,-411.5 287.5,-411.5 287.5,-392.5 184.5,-392.5"/>
<text text-anchor="middle" x="236" y="-399.5" font-family="Helvetica,sans-Serif" font-size="10.00">wlib/strings/String.h</text>
</a>
</g>
</g>
<!-- Node2&#45;&gt;Node6 -->
<g id="edge5" class="edge"><title>Node2&#45;&gt;Node6</title>
<path fill="none" stroke="midnightblue" d="M236,-448.083C236,-441.006 236,-430.861 236,-421.986"/>
<polygon fill="midnightblue" stroke="midnightblue" points="239.5,-421.751 236,-411.751 232.5,-421.751 239.5,-421.751"/>
</g>
<!-- Node5 -->
<g id="node5" class="node"><title>Node5</title>
<polygon fill="white" stroke="#bfbfbf" points="195.5,-0.5 195.5,-19.5 244.5,-19.5 244.5,-0.5 195.5,-0.5"/>
<text text-anchor="middle" x="220" y="-7.5" font-family="Helvetica,sans-Serif" font-size="10.00">stdint.h</text>
</g>
<!-- Node4&#45;&gt;Node5 -->
<g id="edge4" class="edge"><title>Node4&#45;&gt;Node5</title>
<path fill="none" stroke="midnightblue" d="M220,-56.083C220,-49.0059 220,-38.8611 220,-29.9865"/>
<polygon fill="midnightblue" stroke="midnightblue" points="223.5,-29.751 220,-19.7511 216.5,-29.7511 223.5,-29.751"/>
</g>
<!-- Node6&#45;&gt;Node3 -->
<g id="edge6" class="edge"><title>Node6&#45;&gt;Node3</title>
<path fill="none" stroke="midnightblue" d="M190.51,-392.482C169.498,-386.093 146.306,-375.031 133,-356 123.696,-342.693 123.572,-323.861 125.256,-309.89"/>
<polygon fill="midnightblue" stroke="midnightblue" points="128.726,-310.354 126.854,-299.926 121.815,-309.246 128.726,-310.354"/>
</g>
<!-- Node6&#45;&gt;Node4 -->
<g id="edge18" class="edge"><title>Node6&#45;&gt;Node4</title>
<path fill="none" stroke="midnightblue" d="M197.268,-392.426C149.916,-379.392 76,-349.654 76,-291 76,-291 76,-291 76,-177 76,-124.757 136.595,-94.0051 179.17,-78.846"/>
<polygon fill="midnightblue" stroke="midnightblue" points="180.415,-82.1197 188.754,-75.5847 178.16,-75.4928 180.415,-82.1197"/>
</g>
<!-- Node7 -->
<g id="node7" class="node"><title>Node7</title>
<g id="a_node7"><a xlink:href="../../de/d0b/_string_iterator_8h.html" target="_top" xlink:title="wlib/strings/StringIterator.h">
<polygon fill="white" stroke="black" points="142,-336.5 142,-355.5 276,-355.5 276,-336.5 142,-336.5"/>
<text text-anchor="middle" x="209" y="-343.5" font-family="Helvetica,sans-Serif" font-size="10.00">wlib/strings/StringIterator.h</text>
</a>
</g>
</g>
<!-- Node6&#45;&gt;Node7 -->
<g id="edge7" class="edge"><title>Node6&#45;&gt;Node7</title>
<path fill="none" stroke="midnightblue" d="M231.541,-392.083C227.846,-384.691 222.477,-373.953 217.906,-364.811"/>
<polygon fill="midnightblue" stroke="midnightblue" points="220.978,-363.13 213.376,-355.751 214.717,-366.261 220.978,-363.13"/>
</g>
<!-- Node14 -->
<g id="node14" class="node"><title>Node14</title>
<g id="a_node14"><a xlink:href="../../da/db8/_math_8h.html" target="_top" xlink:title="wlib/utility/Math.h">
<polygon fill="white" stroke="black" points="294.5,-336.5 294.5,-355.5 387.5,-355.5 387.5,-336.5 294.5,-336.5"/>
<text text-anchor="middle" x="341" y="-343.5" font-family="Helvetica,sans-Serif" font-size="10.00">wlib/utility/Math.h</text>
</a>
</g>
</g>
<!-- Node6&#45;&gt;Node14 -->
<g id="edge19" class="edge"><title>Node6&#45;&gt;Node14</title>
<path fill="none" stroke="midnightblue" d="M252.87,-392.324C269.709,-383.664 295.807,-370.242 315.238,-360.249"/>
<polygon fill="midnightblue" stroke="midnightblue" points="316.88,-363.341 324.172,-355.655 313.678,-357.116 316.88,-363.341"/>
</g>
<!-- Node15 -->
<g id="node15" class="node"><title>Node15</title>
<g id="a_node15"><a xlink:href="../../d3/de6/_memory_8h.html" target="_top" xlink:title="Memory is a class that provides dynamic fixed size memory. ">
<polygon fill="white" stroke="black" points="444.5,-336.5 444.5,-355.5 563.5,-355.5 563.5,-336.5 444.5,-336.5"/>
<text text-anchor="middle" x="504" y="-343.5" font-family="Helvetica,sans-Serif" font-size="10.00">wlib/memory/Memory.h</text>
</a>
</g>
</g>
<!-- Node6&#45;&gt;Node15 -->
<g id="edge20" class="edge"><title>Node6&#45;&gt;Node15</title>
<path fill="none" stroke="midnightblue" d="M278.465,-392.444C325.413,-382.984 401.076,-367.738 451.654,-357.547"/>
<polygon fill="midnightblue" stroke="midnightblue" points="452.622,-360.923 461.733,-355.516 451.239,-354.061 452.622,-360.923"/>
</g>
<!-- Node7&#45;&gt;Node4 -->
<g id="edge8" class="edge"><title>Node7&#45;&gt;Node4</title>
<path fill="none" stroke="midnightblue" d="M205.359,-336.338C197.989,-317.996 182,-273.738 182,-235 182,-235 182,-235 182,-177 182,-142.813 198.6,-105.764 209.857,-84.5707"/>
<polygon fill="midnightblue" stroke="midnightblue" points="212.947,-86.2151 214.716,-75.769 206.819,-82.832 212.947,-86.2151"/>
</g>
<!-- Node8 -->
<g id="node8" class="node"><title>Node8</title>
<g id="a_node8"><a xlink:href="../../d8/dd7/_concept_8h.html" target="_top" xlink:title="Concept definitions. ">
<polygon fill="white" stroke="black" points="286.5,-280.5 286.5,-299.5 381.5,-299.5 381.5,-280.5 286.5,-280.5"/>
<text text-anchor="middle" x="334" y="-287.5" font-family="Helvetica,sans-Serif" font-size="10.00">wlib/stl/Concept.h</text>
</a>
</g>
</g>
<!-- Node7&#45;&gt;Node8 -->
<g id="edge9" class="edge"><title>Node7&#45;&gt;Node8</title>
<path fill="none" stroke="midnightblue" d="M228.807,-336.444C249.287,-327.596 281.483,-313.687 304.865,-303.586"/>
<polygon fill="midnightblue" stroke="midnightblue" points="306.494,-306.695 314.286,-299.516 303.718,-300.269 306.494,-306.695"/>
</g>
<!-- Node9 -->
<g id="node9" class="node"><title>Node9</title>
<g id="a_node9"><a xlink:href="../../d2/db4/_wlib_8h.html" target="_top" xlink:title="wlib/Wlib.h">
<polygon fill="white" stroke="black" points="286.5,-224.5 286.5,-243.5 351.5,-243.5 351.5,-224.5 286.5,-224.5"/>
<text text-anchor="middle" x="319" y="-231.5" font-family="Helvetica,sans-Serif" font-size="10.00">wlib/Wlib.h</text>
</a>
</g>
</g>
<!-- Node8&#45;&gt;Node9 -->
<g id="edge10" class="edge"><title>Node8&#45;&gt;Node9</title>
<path fill="none" stroke="midnightblue" d="M331.523,-280.083C329.514,-272.849 326.614,-262.409 324.11,-253.397"/>
<polygon fill="midnightblue" stroke="midnightblue" points="327.48,-252.449 321.431,-243.751 320.735,-254.323 327.48,-252.449"/>
</g>
<!-- Node8&#45;&gt;Node10 -->
<g id="edge11" class="edge"><title>Node8&#45;&gt;Node10</title>
<path fill="none" stroke="midnightblue" d="M381.634,-281.435C446.168,-271.185 560.749,-252.987 625.651,-242.679"/>
<polygon fill="midnightblue" stroke="midnightblue" points="626.298,-246.12 635.625,-241.095 625.2,-239.207 626.298,-246.12"/>
</g>
<!-- Node12 -->
<g id="node12" class="node"><title>Node12</title>
<g id="a_node12"><a xlink:href="../../d2/d37/_tmp_8h.html" target="_top" xlink:title="Template helper types, structs, and metafunctions. ">
<polygon fill="white" stroke="black" points="491.5,-112.5 491.5,-131.5 582.5,-131.5 582.5,-112.5 491.5,-112.5"/>
<text text-anchor="middle" x="537" y="-119.5" font-family="Helvetica,sans-Serif" font-size="10.00">wlib/utility/Tmp.h</text>
</a>
</g>
</g>
<!-- Node8&#45;&gt;Node12 -->
<g id="edge17" class="edge"><title>Node8&#45;&gt;Node12</title>
<path fill="none" stroke="midnightblue" d="M339.456,-280.185C344.918,-271.22 353.432,-256.856 360,-244 376.834,-211.047 366.364,-192.608 394,-168 418.082,-146.557 452.347,-135.329 481.299,-129.452"/>
<polygon fill="midnightblue" stroke="midnightblue" points="482.103,-132.862 491.292,-127.588 480.82,-125.981 482.103,-132.862"/>
</g>
<!-- Node13 -->
<g id="node13" class="node"><title>Node13</title>
<g id="a_node13"><a xlink:href="../../d4/dd5/_type_traits_8h.html" target="_top" xlink:title="Metafunctions for types. ">
<polygon fill="white" stroke="black" points="403.5,-168.5 403.5,-187.5 508.5,-187.5 508.5,-168.5 403.5,-168.5"/>
<text text-anchor="middle" x="456" y="-175.5" font-family="Helvetica,sans-Serif" font-size="10.00">wlib/stl/TypeTraits.h</text>
</a>
</g>
</g>
<!-- Node8&#45;&gt;Node13 -->
<g id="edge15" class="edge"><title>Node8&#45;&gt;Node13</title>
<path fill="none" stroke="midnightblue" d="M346.884,-280.272C359.368,-271.601 378.618,-257.662 394,-244 411.381,-228.563 429.541,-209.065 441.681,-195.469"/>
<polygon fill="midnightblue" stroke="midnightblue" points="444.407,-197.669 448.401,-187.856 439.159,-193.037 444.407,-197.669"/>
</g>
<!-- Node10&#45;&gt;Node11 -->
<g id="edge12" class="edge"><title>Node10&#45;&gt;Node11</title>
<path fill="none" stroke="midnightblue" d="M664.36,-224.324C655.49,-216.341 642.125,-204.313 631.392,-194.653"/>
<polygon fill="midnightblue" stroke="midnightblue" points="633.59,-191.922 623.815,-187.834 628.907,-197.125 633.59,-191.922"/>
</g>
<!-- Node11&#45;&gt;Node12 -->
<g id="edge13" class="edge"><title>Node11&#45;&gt;Node12</title>
<path fill="none" stroke="midnightblue" d="M601.629,-168.324C589.842,-160.058 571.868,-147.453 557.864,-137.632"/>
<polygon fill="midnightblue" stroke="midnightblue" points="559.538,-134.531 549.341,-131.655 555.518,-140.262 559.538,-134.531"/>
</g>
<!-- Node12&#45;&gt;Node4 -->
<g id="edge14" class="edge"><title>Node12&#45;&gt;Node4</title>
<path fill="none" stroke="midnightblue" d="M491.244,-113.206C431.274,-102.99 326.656,-85.1686 266.379,-74.9005"/>
<polygon fill="midnightblue" stroke="midnightblue" points="266.825,-71.4262 256.38,-73.1972 265.65,-78.3268 266.825,-71.4262"/>
</g>
<!-- Node13&#45;&gt;Node12 -->
<g id="edge16" class="edge"><title>Node13&#45;&gt;Node12</title>
<path fill="none" stroke="midnightblue" d="M469.014,-168.324C481.532,-159.979 500.682,-147.212 515.471,-137.352"/>
<polygon fill="midnightblue" stroke="midnightblue" points="517.639,-140.114 524.018,-131.655 513.756,-134.289 517.639,-140.114"/>
</g>
<!-- Node15&#45;&gt;Node3 -->
<g id="edge21" class="edge"><title>Node15&#45;&gt;Node3</title>
<path fill="none" stroke="midnightblue" d="M444.58,-336.444C365.349,-325.034 227.67,-305.209 163.619,-295.985"/>
<polygon fill="midnightblue" stroke="midnightblue" points="164.025,-292.508 153.629,-294.547 163.028,-299.436 164.025,-292.508"/>
</g>
<!-- Node15&#45;&gt;Node4 -->
<g id="edge22" class="edge"><title>Node15&#45;&gt;Node4</title>
<path fill="none" stroke="midnightblue" d="M444.688,-336.485C381.65,-326.929 289.338,-311.29 277,-300 254.795,-279.682 258,-265.098 258,-235 258,-235 258,-235 258,-177 258,-142.813 241.4,-105.764 230.143,-84.5707"/>
<polygon fill="midnightblue" stroke="midnightblue" points="233.181,-82.832 225.284,-75.769 227.053,-86.2151 233.181,-82.832"/>
</g>
<!-- Node15&#45;&gt;Node11 -->
<g id="edge23" class="edge"><title>Node15&#45;&gt;Node11</title>
<path fill="none" stroke="midnightblue" d="M513.37,-336.257C522.37,-327.576 536.032,-313.629 546,-300 571.143,-265.622 593.982,-221.035 605.713,-196.724"/>
<polygon fill="midnightblue" stroke="midnightblue" points="608.901,-198.17 610.035,-187.636 602.58,-195.164 608.901,-198.17"/>
</g>
<!-- Node15&#45;&gt;Node12 -->
<g id="edge24" class="edge"><title>Node15&#45;&gt;Node12</title>
<path fill="none" stroke="midnightblue" d="M505.886,-336.403C507.829,-327.368 510.866,-312.729 513,-300 522.634,-242.527 531.057,-174.054 534.855,-141.701"/>
<polygon fill="midnightblue" stroke="midnightblue" points="538.362,-141.84 536.039,-131.503 531.409,-141.032 538.362,-141.84"/>
</g>
<!-- Node16 -->
<g id="node16" class="node"><title>Node16</title>
<g id="a_node16"><a xlink:href="../../d9/d8a/_new_8h.html" target="_top" xlink:title="New operators defined for Arduino boards and for other boards use the normal new. ...">
<polygon fill="white" stroke="black" points="400,-280.5 400,-299.5 504,-299.5 504,-280.5 400,-280.5"/>
<text text-anchor="middle" x="452" y="-287.5" font-family="Helvetica,sans-Serif" font-size="10.00">wlib/memory/New.h</text>
</a>
</g>
</g>
<!-- Node15&#45;&gt;Node16 -->
<g id="edge25" class="edge"><title>Node15&#45;&gt;Node16</title>
<path fill="none" stroke="midnightblue" d="M495.413,-336.083C487.841,-328.22 476.622,-316.569 467.486,-307.081"/>
<polygon fill="midnightblue" stroke="midnightblue" points="469.885,-304.527 460.427,-299.751 464.842,-309.382 469.885,-304.527"/>
</g>
<!-- Node17&#45;&gt;Node4 -->
<g id="edge27" class="edge"><title>Node17&#45;&gt;Node4</title>
<path fill="none" stroke="midnightblue" d="M439.778,-448.212C433.261,-423.092 413.549,-351.776 396,-336 349.181,-293.912 309.358,-337.782 259,-300 232.051,-279.781 220,-268.69 220,-235 220,-235 220,-235 220,-177 220,-144.948 220,-107.643 220,-85.7489"/>
<polygon fill="midnightblue" stroke="midnightblue" points="223.5,-85.5577 220,-75.5578 216.5,-85.5578 223.5,-85.5577"/>
</g>
<!-- Node17&#45;&gt;Node6 -->
<g id="edge30" class="edge"><title>Node17&#45;&gt;Node6</title>
<path fill="none" stroke="midnightblue" d="M409.359,-448.444C373.95,-439.162 317.291,-424.309 278.447,-414.127"/>
<polygon fill="midnightblue" stroke="midnightblue" points="279.049,-410.667 268.489,-411.516 277.274,-417.438 279.049,-410.667"/>
</g>
<!-- Node17&#45;&gt;Node14 -->
<g id="edge29" class="edge"><title>Node17&#45;&gt;Node14</title>
<path fill="none" stroke="midnightblue" d="M434.075,-448.368C417.186,-429.974 377.425,-386.671 355.739,-363.052"/>
<polygon fill="midnightblue" stroke="midnightblue" points="358.23,-360.59 348.888,-355.591 353.074,-365.325 358.23,-360.59"/>
</g>
<!-- Node18 -->
<g id="node18" class="node"><title>Node18</title>
<g id="a_node18"><a xlink:href="../../d2/ddf/_wlib_config_8h.html" target="_top" xlink:title="Some basic definitions for compilers. ">
<polygon fill="white" stroke="black" points="444.5,-392.5 444.5,-411.5 537.5,-411.5 537.5,-392.5 444.5,-392.5"/>
<text text-anchor="middle" x="491" y="-399.5" font-family="Helvetica,sans-Serif" font-size="10.00">wlib/WlibConfig.h</text>
</a>
</g>
</g>
<!-- Node17&#45;&gt;Node18 -->
<g id="edge28" class="edge"><title>Node17&#45;&gt;Node18</title>
<path fill="none" stroke="midnightblue" d="M450.091,-448.083C457.155,-440.298 467.588,-428.801 476.149,-419.367"/>
<polygon fill="midnightblue" stroke="midnightblue" points="478.931,-421.509 483.059,-411.751 473.747,-416.805 478.931,-421.509"/>
</g>
<!-- Node19&#45;&gt;Node2 -->
<g id="edge32" class="edge"><title>Node19&#45;&gt;Node2</title>
<path fill="none" stroke="midnightblue" d="M549.635,-505.148C479.575,-494.839 357.373,-476.859 287.999,-466.651"/>
<polygon fill="midnightblue" stroke="midnightblue" points="288.15,-463.136 277.747,-465.143 287.131,-470.061 288.15,-463.136"/>
</g>
<!-- Node19&#45;&gt;Node10 -->
<g id="edge34" class="edge"><title>Node19&#45;&gt;Node10</title>
<path fill="none" stroke="midnightblue" d="M608.979,-504.328C620.794,-486.318 646,-443.189 646,-403 646,-403 646,-403 646,-345 646,-311.79 658.134,-274.634 666.427,-253.12"/>
<polygon fill="midnightblue" stroke="midnightblue" points="669.751,-254.233 670.224,-243.649 663.254,-251.628 669.751,-254.233"/>
</g>
<!-- Node19&#45;&gt;Node11 -->
<g id="edge36" class="edge"><title>Node19&#45;&gt;Node11</title>
<path fill="none" stroke="midnightblue" d="M603.654,-504.448C605.009,-485.954 608,-440.852 608,-403 608,-403 608,-403 608,-289 608,-256.9 610.579,-219.61 612.355,-197.732"/>
<polygon fill="midnightblue" stroke="midnightblue" points="615.861,-197.808 613.216,-187.549 608.886,-197.219 615.861,-197.808"/>
</g>
<!-- Node19&#45;&gt;Node15 -->
<g id="edge35" class="edge"><title>Node19&#45;&gt;Node15</title>
<path fill="none" stroke="midnightblue" d="M599.974,-504.303C592.591,-483.718 572.314,-430.83 546,-392 538.822,-381.408 529.171,-370.88 520.93,-362.673"/>
<polygon fill="midnightblue" stroke="midnightblue" points="523.215,-360.014 513.588,-355.59 518.355,-365.052 523.215,-360.014"/>
</g>
<!-- Node19&#45;&gt;Node17 -->
<g id="edge33" class="edge"><title>Node19&#45;&gt;Node17</title>
<path fill="none" stroke="midnightblue" d="M577.489,-504.444C550.404,-495.359 507.41,-480.939 477.131,-470.783"/>
<polygon fill="midnightblue" stroke="midnightblue" points="477.986,-467.378 467.392,-467.516 475.76,-474.015 477.986,-467.378"/>
</g>
<!-- Node20 -->
<g id="node20" class="node"><title>Node20</title>
<g id="a_node20"><a xlink:href="../../d7/d2f/_exceptions_8h.html" target="_top" xlink:title="Implementation of Exceptions using C style. ">
<polygon fill="white" stroke="black" points="712,-448.5 712,-467.5 856,-467.5 856,-448.5 712,-448.5"/>
<text text-anchor="middle" x="784" y="-455.5" font-family="Helvetica,sans-Serif" font-size="10.00">wlib/exceptions/Exceptions.h</text>
</a>
</g>
</g>
<!-- Node19&#45;&gt;Node20 -->
<g id="edge37" class="edge"><title>Node19&#45;&gt;Node20</title>
<path fill="none" stroke="midnightblue" d="M631.68,-504.444C662.527,-495.241 711.728,-480.562 745.829,-470.388"/>
<polygon fill="midnightblue" stroke="midnightblue" points="746.872,-473.729 755.454,-467.516 744.871,-467.021 746.872,-473.729"/>
</g>
<!-- Node20&#45;&gt;Node4 -->
<g id="edge39" class="edge"><title>Node20&#45;&gt;Node4</title>
<path fill="none" stroke="midnightblue" d="M832.093,-448.401C884.203,-435.991 960,-407.535 960,-347 960,-347 960,-347 960,-177 960,-106.543 428.364,-76.4977 266.322,-68.9765"/>
<polygon fill="midnightblue" stroke="midnightblue" points="266.342,-65.4738 256.193,-68.5135 266.022,-72.4665 266.342,-65.4738"/>
</g>
<!-- Node21 -->
<g id="node21" class="node"><title>Node21</title>
<polygon fill="white" stroke="#bfbfbf" points="757,-392.5 757,-411.5 811,-411.5 811,-392.5 757,-392.5"/>
<text text-anchor="middle" x="784" y="-399.5" font-family="Helvetica,sans-Serif" font-size="10.00">setjmp.h</text>
</g>
<!-- Node20&#45;&gt;Node21 -->
<g id="edge38" class="edge"><title>Node20&#45;&gt;Node21</title>
<path fill="none" stroke="midnightblue" d="M784,-448.083C784,-441.006 784,-430.861 784,-421.986"/>
<polygon fill="midnightblue" stroke="midnightblue" points="787.5,-421.751 784,-411.751 780.5,-421.751 787.5,-421.751"/>
</g>
<!-- Node22&#45;&gt;Node12 -->
<g id="edge45" class="edge"><title>Node22&#45;&gt;Node12</title>
<path fill="none" stroke="midnightblue" d="M893.799,-336.324C898.93,-323.18 906.313,-297.862 896,-280 846.219,-193.779 793.896,-206.303 702,-168 665.738,-152.885 622.883,-141.374 589.937,-133.778"/>
<polygon fill="midnightblue" stroke="midnightblue" points="590.574,-130.334 580.049,-131.547 589.033,-137.163 590.574,-130.334"/>
</g>
<!-- Node23 -->
<g id="node23" class="node"><title>Node23</title>
<g id="a_node23"><a xlink:href="../../d7/d2a/_tuple_8h.html" target="_top" xlink:title="Template oriented tuple implementation. ">
<polygon fill="white" stroke="black" points="804.5,-280.5 804.5,-299.5 887.5,-299.5 887.5,-280.5 804.5,-280.5"/>
<text text-anchor="middle" x="846" y="-287.5" font-family="Helvetica,sans-Serif" font-size="10.00">wlib/stl/Tuple.h</text>
</a>
</g>
</g>
<!-- Node22&#45;&gt;Node23 -->
<g id="edge42" class="edge"><title>Node22&#45;&gt;Node23</title>
<path fill="none" stroke="midnightblue" d="M882.734,-336.083C876.455,-328.377 867.212,-317.033 859.569,-307.653"/>
<polygon fill="midnightblue" stroke="midnightblue" points="862.161,-305.293 853.131,-299.751 856.734,-309.714 862.161,-305.293"/>
</g>
<!-- Node23&#45;&gt;Node10 -->
<g id="edge43" class="edge"><title>Node23&#45;&gt;Node10</title>
<path fill="none" stroke="midnightblue" d="M818.746,-280.444C789.559,-271.28 743.079,-256.688 710.691,-246.519"/>
<polygon fill="midnightblue" stroke="midnightblue" points="711.716,-243.173 701.126,-243.516 709.619,-249.851 711.716,-243.173"/>
</g>
<!-- Node23&#45;&gt;Node12 -->
<g id="edge44" class="edge"><title>Node23&#45;&gt;Node12</title>
<path fill="none" stroke="midnightblue" d="M833.856,-280.294C816.308,-267.744 782.806,-243.89 754,-224 717.381,-198.715 710.899,-187.706 671,-168 641.929,-153.642 607.173,-142.118 580.344,-134.327"/>
<polygon fill="midnightblue" stroke="midnightblue" points="581.053,-130.89 570.477,-131.526 579.141,-137.624 581.053,-130.89"/>
</g>
</g>
</svg>
        <g id="navigator" transform="translate(0 0)" fill="#404254">
                <rect fill="#f2f5e9" fill-opacity="0.5" stroke="#606060" stroke-width=".5" x="0" y="0" width="60" height="60"/>
                <use id="zoomplus" xlink:href="#zoomPlus" x="17" y="9" onmousedown="handleZoom(evt,'in')"/>
                <use id="zoomminus" xlink:href="#zoomMin" x="42" y="9" onmousedown="handleZoom(evt,'out')"/>
                <use id="reset" xlink:href="#resetDef" x="30" y="36" onmousedown="handleReset()"/>
                <g id="arrowUp" xlink:href="#dirArrow" transform="translate(30 24)" onmousedown="handlePan(0,-1)">
                  <use xlink:href="#rim" fill="#404040">
                        <set attributeName="fill" to="#808080" begin="arrowUp.mouseover" end="arrowUp.mouseout"/>
                  </use>
                  <path fill="none" stroke="white" stroke-width="1.5" d="M0,-3.0v7 M-2.5,-0.5L0,-3.0L2.5,-0.5"/>
                </g>
                <g id="arrowRight" xlink:href="#dirArrow" transform="rotate(90) translate(36 -43)" onmousedown="handlePan(1,0)">
                  <use xlink:href="#rim" fill="#404040">
                        <set attributeName="fill" to="#808080" begin="arrowRight.mouseover" end="arrowRight.mouseout"/>
                  </use>
                  <path fill="none" stroke="white" stroke-width="1.5" d="M0,-3.0v7 M-2.5,-0.5L0,-3.0L2.5,-0.5"/>
                </g>
                <g id="arrowDown" xlink:href="#dirArrow" transform="rotate(180) translate(-30 -48)" onmousedown="handlePan(0,1)">
                  <use xlink:href="#rim" fill="#404040">
                        <set attributeName="fill" to="#808080" begin="arrowDown.mouseover" end="arrowDown.mouseout"/>
                  </use>
                  <path fill="none" stroke="white" stroke-width="1.5" d="M0,-3.0v7 M-2.5,-0.5L0,-3.0L2.5,-0.5"/>
                </g>
                <g id="arrowLeft" xlink:href="#dirArrow" transform="rotate(270) translate(-36 17)" onmousedown="handlePan(-1,0)">
                  <use xlink:href="#rim" fill="#404040">
                        <set attributeName="fill" to="#808080" begin="arrowLeft.mouseover" end="arrowLeft.mouseout"/>
                  </use>
                  <path fill="none" stroke="white" stroke-width="1.5" d="M0,-3.0v7 M-2.5,-0.5L0,-3.0L2.5,-0.5"/>
                </g>
        </g>
        <svg viewBox="0 0 15 15" width="100%" height="30px" preserveAspectRatio="xMaxYMin meet">
         <g id="arrow_out" transform="scale(0.3 0.3)">
          <a xlink:href="_open_set_8h__incl_org.svg" target="_base">
           <rect id="button" ry="5" rx="5" y="6" x="6" height="38" width="38"
                fill="#f2f5e9" fill-opacity="0.5" stroke="#606060" stroke-width="1.0"/>
           <path id="arrow"
             d="M 11.500037,31.436501 C 11.940474,20.09759 22.043105,11.32322 32.158766,21.979434 L 37.068811,17.246167 C 37.068811,17.246167 37.088388,32 37.088388,32 L 22.160133,31.978069 C 22.160133,31.978069 26.997745,27.140456 26.997745,27.140456 C 18.528582,18.264221 13.291696,25.230495 11.500037,31.436501 z"
             style="fill:#404040;"/>
          </a>
         </g>
        </svg>
</svg>
