<?xml version="1.0" encoding="UTF-8" standalone="no"?>
<!DOCTYPE svg PUBLIC "-//W3C//DTD SVG 1.1//EN"
 "http://www.w3.org/Graphics/SVG/1.1/DTD/svg11.dtd">
<!-- Generated by graphviz version 2.38.0 (20140413.2041)
 -->
<!-- Title: stl/OpenSet.h Pages: 1 -->
<!--zoomable 644 -->
<svg id="main" version="1.1" xmlns="http://www.w3.org/2000/svg" xmlns:xlink="http://www.w3.org/1999/xlink" xml:space="preserve" onload="init(evt)">
<style type="text/css"><![CDATA[
.edge:hover path { stroke: red; }
.edge:hover polygon { stroke: red; fill: red; }
]]></style>
<script type="text/javascript"><![CDATA[
var edges = document.getElementsByTagName('g');
if (edges && edges.length) {
  for (var i=0;i<edges.length;i++) {
    if (edges[i].id.substr(0,4)=='edge') {
      edges[i].setAttribute('class','edge');
    }
  }
}
]]></script>
        <defs>
                <circle id="rim" cx="0" cy="0" r="7"/>
                <circle id="rim2" cx="0" cy="0" r="3.5"/>
                <g id="zoomPlus">
                        <use xlink:href="#rim" fill="#404040">
                                <set attributeName="fill" to="#808080" begin="zoomplus.mouseover" end="zoomplus.mouseout"/>
                        </use>
                        <path d="M-4,0h8M0,-4v8" fill="none" stroke="white" stroke-width="1.5" pointer-events="none"/>
                </g>
                <g id="zoomMin">
                        <use xlink:href="#rim" fill="#404040">
                                <set attributeName="fill" to="#808080" begin="zoomminus.mouseover" end="zoomminus.mouseout"/>
                        </use>
                        <path d="M-4,0h8" fill="none" stroke="white" stroke-width="1.5" pointer-events="none"/>
                </g>
                <g id="dirArrow">
                        <path fill="none" stroke="white" stroke-width="1.5" d="M0,-3.0v7 M-2.5,-0.5L0,-3.0L2.5,-0.5"/>
                </g>
               <g id="resetDef">
                       <use xlink:href="#rim2" fill="#404040">
                               <set attributeName="fill" to="#808080" begin="reset.mouseover" end="reset.mouseout"/>
                       </use>
               </g>
        </defs>

<script type="text/javascript">
var viewWidth = 548;
var viewHeight = 644;
var sectionId = 'dynsection-0';
</script>
<script xlink:href="../../svgpan.js"/>
<svg id="graph" class="graph">
<g id="viewport">
<title>stl/OpenSet.h</title>
<polygon fill="white" stroke="none" points="-4,4 -4,-640 543.5,-640 543.5,4 -4,4"/>
<!-- Node0 -->
<g id="node1" class="node"><title>Node0</title>
<polygon fill="#bfbfbf" stroke="black" points="259.5,-616.5 259.5,-635.5 336.5,-635.5 336.5,-616.5 259.5,-616.5"/>
<text text-anchor="middle" x="298" y="-623.5" font-family="Helvetica,sans-Serif" font-size="10.00">stl/OpenSet.h</text>
</g>
<!-- Node1 -->
<g id="node2" class="node"><title>Node1</title>
<g id="a_node2"><a xlink:href="../../d2/dc2/_equal_8h.html" target="_top" xlink:title="Equal.h">
<polygon fill="white" stroke="black" points="114,-504.5 114,-523.5 164,-523.5 164,-504.5 114,-504.5"/>
<text text-anchor="middle" x="139" y="-511.5" font-family="Helvetica,sans-Serif" font-size="10.00">Equal.h</text>
</a>
</g>
</g>
<!-- Node0&#45;&gt;Node1 -->
<g id="edge1" class="edge"><title>Node0&#45;&gt;Node1</title>
<path fill="none" stroke="midnightblue" d="M285.524,-616.368C258.355,-597.573 193.592,-552.768 160.007,-529.533"/>
<polygon fill="midnightblue" stroke="midnightblue" points="161.634,-526.403 151.419,-523.591 157.651,-532.159 161.634,-526.403"/>
</g>
<!-- Node14 -->
<g id="node15" class="node"><title>Node14</title>
<g id="a_node15"><a xlink:href="../../d2/dad/_hash_8h.html" target="_top" xlink:title="Provides hash functions for basic data types. ">
<polygon fill="white" stroke="black" points="274.5,-448.5 274.5,-467.5 321.5,-467.5 321.5,-448.5 274.5,-448.5"/>
<text text-anchor="middle" x="298" y="-455.5" font-family="Helvetica,sans-Serif" font-size="10.00">Hash.h</text>
</a>
</g>
</g>
<!-- Node0&#45;&gt;Node14 -->
<g id="edge21" class="edge"><title>Node0&#45;&gt;Node14</title>
<path fill="none" stroke="midnightblue" d="M310.214,-616.236C320.354,-608.143 334.043,-595.112 340,-580 354.469,-543.291 328.701,-499.337 311.524,-475.818"/>
<polygon fill="midnightblue" stroke="midnightblue" points="314.101,-473.425 305.252,-467.597 308.535,-477.671 314.101,-473.425"/>
</g>
<!-- Node16 -->
<g id="node17" class="node"><title>Node16</title>
<g id="a_node17"><a xlink:href="../../d5/d7a/_open_map_8h.html" target="_top" xlink:title="Hash map implementation. ">
<polygon fill="white" stroke="black" points="264.5,-560.5 264.5,-579.5 331.5,-579.5 331.5,-560.5 264.5,-560.5"/>
<text text-anchor="middle" x="298" y="-567.5" font-family="Helvetica,sans-Serif" font-size="10.00">OpenMap.h</text>
</a>
</g>
</g>
<!-- Node0&#45;&gt;Node16 -->
<g id="edge26" class="edge"><title>Node0&#45;&gt;Node16</title>
<path fill="none" stroke="midnightblue" d="M298,-616.083C298,-609.006 298,-598.861 298,-589.986"/>
<polygon fill="midnightblue" stroke="midnightblue" points="301.5,-589.751 298,-579.751 294.5,-589.751 301.5,-589.751"/>
</g>
<!-- Node2 -->
<g id="node3" class="node"><title>Node2</title>
<g id="a_node3"><a xlink:href="../../db/db5/_string_8h.html" target="_top" xlink:title="string.h">
<polygon fill="white" stroke="black" points="76.5,-448.5 76.5,-467.5 125.5,-467.5 125.5,-448.5 76.5,-448.5"/>
<text text-anchor="middle" x="101" y="-455.5" font-family="Helvetica,sans-Serif" font-size="10.00">string.h</text>
</a>
</g>
</g>
<!-- Node1&#45;&gt;Node2 -->
<g id="edge2" class="edge"><title>Node1&#45;&gt;Node2</title>
<path fill="none" stroke="midnightblue" d="M132.725,-504.083C127.358,-496.455 119.482,-485.264 112.921,-475.941"/>
<polygon fill="midnightblue" stroke="midnightblue" points="115.775,-473.915 107.158,-467.751 110.051,-477.943 115.775,-473.915"/>
</g>
<!-- Node3 -->
<g id="node4" class="node"><title>Node3</title>
<g id="a_node4"><a xlink:href="../../d8/d65/_static_string_8h.html" target="_top" xlink:title="StaticString provides a String that is on stack and is of fixed size. ">
<polygon fill="white" stroke="black" points="52,-392.5 52,-411.5 160,-411.5 160,-392.5 52,-392.5"/>
<text text-anchor="middle" x="106" y="-399.5" font-family="Helvetica,sans-Serif" font-size="10.00">strings/StaticString.h</text>
</a>
</g>
</g>
<!-- Node1&#45;&gt;Node3 -->
<g id="edge20" class="edge"><title>Node1&#45;&gt;Node3</title>
<path fill="none" stroke="midnightblue" d="M139.617,-504.334C140.239,-491.63 140.344,-467.359 134,-448 130.711,-437.962 124.741,-427.878 119.156,-419.808"/>
<polygon fill="midnightblue" stroke="midnightblue" points="121.916,-417.652 113.178,-411.661 116.272,-421.794 121.916,-417.652"/>
</g>
<!-- Node5 -->
<g id="node6" class="node"><title>Node5</title>
<g id="a_node6"><a xlink:href="../../d0/db6/_types_8h.html" target="_top" xlink:title="type definition of all the string types we will be using ">
<polygon fill="white" stroke="black" points="120,-56.5 120,-75.5 180,-75.5 180,-56.5 120,-56.5"/>
<text text-anchor="middle" x="150" y="-63.5" font-family="Helvetica,sans-Serif" font-size="10.00">../Types.h</text>
</a>
</g>
</g>
<!-- Node1&#45;&gt;Node5 -->
<g id="edge19" class="edge"><title>Node1&#45;&gt;Node5</title>
<path fill="none" stroke="midnightblue" d="M113.828,-505.77C73.7722,-492.544 0,-460.394 0,-403 0,-403 0,-403 0,-177 0,-122.358 65.5282,-91.8935 109.963,-77.5165"/>
<polygon fill="midnightblue" stroke="midnightblue" points="111.123,-80.8215 119.645,-74.5271 109.058,-74.133 111.123,-80.8215"/>
</g>
<!-- Node2&#45;&gt;Node3 -->
<g id="edge3" class="edge"><title>Node2&#45;&gt;Node3</title>
<path fill="none" stroke="midnightblue" d="M96.6593,-448.083C95.8124,-440.927 96.3349,-430.635 97.8118,-421.691"/>
<polygon fill="midnightblue" stroke="midnightblue" points="101.268,-422.277 100.059,-411.751 94.44,-420.733 101.268,-422.277"/>
</g>
<!-- Node3&#45;&gt;Node2 -->
<g id="edge4" class="edge"><title>Node3&#45;&gt;Node2</title>
<path fill="none" stroke="midnightblue" d="M110.321,-411.751C111.189,-418.858 110.684,-429.136 109.222,-438.101"/>
<polygon fill="midnightblue" stroke="midnightblue" points="105.757,-437.56 106.992,-448.083 112.588,-439.087 105.757,-437.56"/>
</g>
<!-- Node4 -->
<g id="node5" class="node"><title>Node4</title>
<g id="a_node5"><a xlink:href="../../de/d0b/_string_iterator_8h.html" target="_top" xlink:title="StringIterator.h">
<polygon fill="white" stroke="black" points="66,-336.5 66,-355.5 146,-355.5 146,-336.5 66,-336.5"/>
<text text-anchor="middle" x="106" y="-343.5" font-family="Helvetica,sans-Serif" font-size="10.00">StringIterator.h</text>
</a>
</g>
</g>
<!-- Node3&#45;&gt;Node4 -->
<g id="edge5" class="edge"><title>Node3&#45;&gt;Node4</title>
<path fill="none" stroke="midnightblue" d="M106,-392.083C106,-385.006 106,-374.861 106,-365.986"/>
<polygon fill="midnightblue" stroke="midnightblue" points="109.5,-365.751 106,-355.751 102.5,-365.751 109.5,-365.751"/>
</g>
<!-- Node3&#45;&gt;Node5 -->
<g id="edge17" class="edge"><title>Node3&#45;&gt;Node5</title>
<path fill="none" stroke="midnightblue" d="M93.3343,-392.456C82.2148,-384.322 66.3902,-371.106 57,-356 41.1106,-330.438 38,-321.098 38,-291 38,-291 38,-291 38,-177 38,-130.614 87.5055,-97.2849 120.69,-80.1547"/>
<polygon fill="midnightblue" stroke="midnightblue" points="122.567,-83.131 129.977,-75.5583 119.462,-76.8574 122.567,-83.131"/>
</g>
<!-- Node13 -->
<g id="node14" class="node"><title>Node13</title>
<g id="a_node14"><a xlink:href="../../da/db8/_math_8h.html" target="_top" xlink:title="../utility/Math.h">
<polygon fill="white" stroke="black" points="164,-336.5 164,-355.5 246,-355.5 246,-336.5 164,-336.5"/>
<text text-anchor="middle" x="205" y="-343.5" font-family="Helvetica,sans-Serif" font-size="10.00">../utility/Math.h</text>
</a>
</g>
</g>
<!-- Node3&#45;&gt;Node13 -->
<g id="edge18" class="edge"><title>Node3&#45;&gt;Node13</title>
<path fill="none" stroke="midnightblue" d="M121.906,-392.324C137.638,-383.743 161.942,-370.486 180.209,-360.522"/>
<polygon fill="midnightblue" stroke="midnightblue" points="182.03,-363.516 189.133,-355.655 178.678,-357.37 182.03,-363.516"/>
</g>
<!-- Node4&#45;&gt;Node5 -->
<g id="edge6" class="edge"><title>Node4&#45;&gt;Node5</title>
<path fill="none" stroke="midnightblue" d="M101.954,-336.379C93.7654,-318.114 76,-273.996 76,-235 76,-235 76,-235 76,-177 76,-137.61 109.07,-101.726 130.996,-82.264"/>
<polygon fill="midnightblue" stroke="midnightblue" points="133.427,-84.7902 138.761,-75.6358 128.883,-79.466 133.427,-84.7902"/>
</g>
<!-- Node7 -->
<g id="node8" class="node"><title>Node7</title>
<g id="a_node8"><a xlink:href="../../d8/dd7/_concept_8h.html" target="_top" xlink:title="Concept definitions. ">
<polygon fill="white" stroke="black" points="127.5,-280.5 127.5,-299.5 210.5,-299.5 210.5,-280.5 127.5,-280.5"/>
<text text-anchor="middle" x="169" y="-287.5" font-family="Helvetica,sans-Serif" font-size="10.00">../stl/Concept.h</text>
</a>
</g>
</g>
<!-- Node4&#45;&gt;Node7 -->
<g id="edge8" class="edge"><title>Node4&#45;&gt;Node7</title>
<path fill="none" stroke="midnightblue" d="M116.122,-336.324C125.526,-328.263 139.744,-316.077 151.069,-306.369"/>
<polygon fill="midnightblue" stroke="midnightblue" points="153.379,-308.999 158.694,-299.834 148.823,-303.684 153.379,-308.999"/>
</g>
<!-- Node6 -->
<g id="node7" class="node"><title>Node6</title>
<polygon fill="white" stroke="#bfbfbf" points="125.5,-0.5 125.5,-19.5 174.5,-19.5 174.5,-0.5 125.5,-0.5"/>
<text text-anchor="middle" x="150" y="-7.5" font-family="Helvetica,sans-Serif" font-size="10.00">stdint.h</text>
</g>
<!-- Node5&#45;&gt;Node6 -->
<g id="edge7" class="edge"><title>Node5&#45;&gt;Node6</title>
<path fill="none" stroke="midnightblue" d="M150,-56.083C150,-49.0059 150,-38.8611 150,-29.9865"/>
<polygon fill="midnightblue" stroke="midnightblue" points="153.5,-29.751 150,-19.7511 146.5,-29.7511 153.5,-29.751"/>
</g>
<!-- Node8 -->
<g id="node9" class="node"><title>Node8</title>
<g id="a_node9"><a xlink:href="../../d4/dda/_pair_8h.html" target="_top" xlink:title="Implementation of a 2&#45;element tuple. ">
<polygon fill="white" stroke="black" points="253,-224.5 253,-243.5 295,-243.5 295,-224.5 253,-224.5"/>
<text text-anchor="middle" x="274" y="-231.5" font-family="Helvetica,sans-Serif" font-size="10.00">Pair.h</text>
</a>
</g>
</g>
<!-- Node7&#45;&gt;Node8 -->
<g id="edge9" class="edge"><title>Node7&#45;&gt;Node8</title>
<path fill="none" stroke="midnightblue" d="M185.87,-280.324C202.709,-271.664 228.807,-258.242 248.238,-248.249"/>
<polygon fill="midnightblue" stroke="midnightblue" points="249.88,-251.341 257.172,-243.655 246.678,-245.116 249.88,-251.341"/>
</g>
<!-- Node10 -->
<g id="node11" class="node"><title>Node10</title>
<g id="a_node11"><a xlink:href="../../d2/d37/_tmp_8h.html" target="_top" xlink:title="Template helper types, structs, and metafunctions. ">
<polygon fill="white" stroke="black" points="202,-112.5 202,-131.5 246,-131.5 246,-112.5 202,-112.5"/>
<text text-anchor="middle" x="224" y="-119.5" font-family="Helvetica,sans-Serif" font-size="10.00">Tmp.h</text>
</a>
</g>
</g>
<!-- Node7&#45;&gt;Node10 -->
<g id="edge16" class="edge"><title>Node7&#45;&gt;Node10</title>
<path fill="none" stroke="midnightblue" d="M178.016,-280.24C186.168,-271.761 197.811,-258.145 204,-244 218.883,-209.984 222.77,-166.165 223.736,-141.682"/>
<polygon fill="midnightblue" stroke="midnightblue" points="227.236,-141.711 224.007,-131.621 220.239,-141.523 227.236,-141.711"/>
</g>
<!-- Node11 -->
<g id="node12" class="node"><title>Node11</title>
<g id="a_node12"><a xlink:href="../../d4/dd5/_type_traits_8h.html" target="_top" xlink:title="Metafunctions for types. ">
<polygon fill="white" stroke="black" points="115,-168.5 115,-187.5 185,-187.5 185,-168.5 115,-168.5"/>
<text text-anchor="middle" x="150" y="-175.5" font-family="Helvetica,sans-Serif" font-size="10.00">TypeTraits.h</text>
</a>
</g>
</g>
<!-- Node7&#45;&gt;Node11 -->
<g id="edge13" class="edge"><title>Node7&#45;&gt;Node11</title>
<path fill="none" stroke="midnightblue" d="M158.838,-280.185C150.092,-271.87 138.1,-258.539 133,-244 127.462,-228.212 133.467,-209.71 139.818,-196.492"/>
<polygon fill="midnightblue" stroke="midnightblue" points="142.969,-198.021 144.557,-187.546 136.783,-194.745 142.969,-198.021"/>
</g>
<!-- Node12 -->
<g id="node13" class="node"><title>Node12</title>
<g id="a_node13"><a xlink:href="../../d2/db4/_wlib_8h.html" target="_top" xlink:title="../Wlib.h">
<polygon fill="white" stroke="black" points="142.5,-224.5 142.5,-243.5 195.5,-243.5 195.5,-224.5 142.5,-224.5"/>
<text text-anchor="middle" x="169" y="-231.5" font-family="Helvetica,sans-Serif" font-size="10.00">../Wlib.h</text>
</a>
</g>
</g>
<!-- Node7&#45;&gt;Node12 -->
<g id="edge15" class="edge"><title>Node7&#45;&gt;Node12</title>
<path fill="none" stroke="midnightblue" d="M169,-280.083C169,-273.006 169,-262.861 169,-253.986"/>
<polygon fill="midnightblue" stroke="midnightblue" points="172.5,-253.751 169,-243.751 165.5,-253.751 172.5,-253.751"/>
</g>
<!-- Node9 -->
<g id="node10" class="node"><title>Node9</title>
<g id="a_node10"><a xlink:href="../../db/d2a/_utility_8h.html" target="_top" xlink:title="Various helper functions. ">
<polygon fill="white" stroke="black" points="252.5,-168.5 252.5,-187.5 337.5,-187.5 337.5,-168.5 252.5,-168.5"/>
<text text-anchor="middle" x="295" y="-175.5" font-family="Helvetica,sans-Serif" font-size="10.00">../utility/Utility.h</text>
</a>
</g>
</g>
<!-- Node8&#45;&gt;Node9 -->
<g id="edge10" class="edge"><title>Node8&#45;&gt;Node9</title>
<path fill="none" stroke="midnightblue" d="M277.468,-224.083C280.312,-216.77 284.429,-206.181 287.96,-197.103"/>
<polygon fill="midnightblue" stroke="midnightblue" points="291.234,-198.34 291.597,-187.751 284.71,-195.803 291.234,-198.34"/>
</g>
<!-- Node9&#45;&gt;Node10 -->
<g id="edge11" class="edge"><title>Node9&#45;&gt;Node10</title>
<path fill="none" stroke="midnightblue" d="M283.593,-168.324C272.891,-160.185 256.659,-147.839 243.837,-138.087"/>
<polygon fill="midnightblue" stroke="midnightblue" points="245.693,-135.102 235.615,-131.834 241.456,-140.673 245.693,-135.102"/>
</g>
<!-- Node10&#45;&gt;Node5 -->
<g id="edge12" class="edge"><title>Node10&#45;&gt;Node5</title>
<path fill="none" stroke="midnightblue" d="M212.111,-112.324C200.85,-104.107 183.713,-91.6017 170.291,-81.8069"/>
<polygon fill="midnightblue" stroke="midnightblue" points="172.247,-78.9014 162.106,-75.8339 168.12,-84.5559 172.247,-78.9014"/>
</g>
<!-- Node11&#45;&gt;Node10 -->
<g id="edge14" class="edge"><title>Node11&#45;&gt;Node10</title>
<path fill="none" stroke="midnightblue" d="M161.889,-168.324C173.15,-160.107 190.287,-147.602 203.709,-137.807"/>
<polygon fill="midnightblue" stroke="midnightblue" points="205.88,-140.556 211.894,-131.834 201.753,-134.901 205.88,-140.556"/>
</g>
<!-- Node14&#45;&gt;Node3 -->
<g id="edge25" class="edge"><title>Node14&#45;&gt;Node3</title>
<path fill="none" stroke="midnightblue" d="M274.457,-450.379C242.56,-441.408 185.149,-425.261 146.317,-414.339"/>
<polygon fill="midnightblue" stroke="midnightblue" points="146.957,-410.884 136.383,-411.545 145.062,-417.622 146.957,-410.884"/>
</g>
<!-- Node14&#45;&gt;Node5 -->
<g id="edge22" class="edge"><title>Node14&#45;&gt;Node5</title>
<path fill="none" stroke="midnightblue" d="M310.666,-448.456C321.785,-440.322 337.61,-427.106 347,-412 362.889,-386.438 366,-377.098 366,-347 366,-347 366,-347 366,-177 366,-99.0286 252.855,-76.3013 190.343,-69.6947"/>
<polygon fill="midnightblue" stroke="midnightblue" points="190.323,-66.1767 180.034,-68.7024 189.652,-73.1445 190.323,-66.1767"/>
</g>
<!-- Node14&#45;&gt;Node13 -->
<g id="edge24" class="edge"><title>Node14&#45;&gt;Node13</title>
<path fill="none" stroke="midnightblue" d="M287.194,-448.342C276.788,-439.724 260.916,-425.822 249,-412 236.112,-397.051 223.722,-378.21 215.393,-364.667"/>
<polygon fill="midnightblue" stroke="midnightblue" points="218.254,-362.633 210.096,-355.873 212.258,-366.245 218.254,-362.633"/>
</g>
<!-- Node15 -->
<g id="node16" class="node"><title>Node15</title>
<g id="a_node16"><a xlink:href="../../d2/ddf/_wlib_config_8h.html" target="_top" xlink:title="Some basic definitions for compilers. ">
<polygon fill="white" stroke="black" points="258,-392.5 258,-411.5 338,-411.5 338,-392.5 258,-392.5"/>
<text text-anchor="middle" x="298" y="-399.5" font-family="Helvetica,sans-Serif" font-size="10.00">../WlibConfig.h</text>
</a>
</g>
</g>
<!-- Node14&#45;&gt;Node15 -->
<g id="edge23" class="edge"><title>Node14&#45;&gt;Node15</title>
<path fill="none" stroke="midnightblue" d="M298,-448.083C298,-441.006 298,-430.861 298,-421.986"/>
<polygon fill="midnightblue" stroke="midnightblue" points="301.5,-421.751 298,-411.751 294.5,-421.751 301.5,-421.751"/>
</g>
<!-- Node16&#45;&gt;Node1 -->
<g id="edge27" class="edge"><title>Node16&#45;&gt;Node1</title>
<path fill="none" stroke="midnightblue" d="M272.806,-560.444C246.057,-551.359 203.597,-536.939 173.695,-526.783"/>
<polygon fill="midnightblue" stroke="midnightblue" points="174.671,-523.418 164.076,-523.516 172.419,-530.046 174.671,-523.418"/>
</g>
<!-- Node16&#45;&gt;Node8 -->
<g id="edge29" class="edge"><title>Node16&#45;&gt;Node8</title>
<path fill="none" stroke="midnightblue" d="M294.203,-560.38C284.176,-537.058 257.198,-470.535 249,-412 247.767,-403.197 248.267,-400.859 249,-392 250.338,-375.835 252.409,-372.012 255,-356 260.868,-319.741 267.468,-277.324 271.14,-253.568"/>
<polygon fill="midnightblue" stroke="midnightblue" points="274.625,-253.93 272.691,-243.513 267.707,-252.862 274.625,-253.93"/>
</g>
<!-- Node16&#45;&gt;Node9 -->
<g id="edge35" class="edge"><title>Node16&#45;&gt;Node9</title>
<path fill="none" stroke="midnightblue" d="M316.464,-560.393C346.833,-544.812 404,-508.86 404,-459 404,-459 404,-459 404,-289 404,-243.119 355.563,-209.527 323.266,-192.228"/>
<polygon fill="midnightblue" stroke="midnightblue" points="324.73,-189.045 314.236,-187.585 321.529,-195.27 324.73,-189.045"/>
</g>
<!-- Node16&#45;&gt;Node14 -->
<g id="edge28" class="edge"><title>Node16&#45;&gt;Node14</title>
<path fill="none" stroke="midnightblue" d="M298,-560.368C298,-542.617 298,-501.666 298,-477.597"/>
<polygon fill="midnightblue" stroke="midnightblue" points="301.5,-477.591 298,-467.591 294.5,-477.591 301.5,-477.591"/>
</g>
<!-- Node17 -->
<g id="node18" class="node"><title>Node17</title>
<g id="a_node18"><a xlink:href="../../d3/de6/_memory_8h.html" target="_top" xlink:title="Memory is a class that provides dynamic fixed size memory. ">
<polygon fill="white" stroke="black" points="432.5,-224.5 432.5,-243.5 539.5,-243.5 539.5,-224.5 432.5,-224.5"/>
<text text-anchor="middle" x="486" y="-231.5" font-family="Helvetica,sans-Serif" font-size="10.00">../memory/Memory.h</text>
</a>
</g>
</g>
<!-- Node16&#45;&gt;Node17 -->
<g id="edge30" class="edge"><title>Node16&#45;&gt;Node17</title>
<path fill="none" stroke="midnightblue" d="M331.651,-564.195C358.296,-558.737 394.774,-547.344 418,-524 439.72,-502.169 442,-489.795 442,-459 442,-459 442,-459 442,-345 442,-310.04 461.396,-273.013 474.432,-252.075"/>
<polygon fill="midnightblue" stroke="midnightblue" points="477.388,-253.949 479.882,-243.651 471.511,-250.146 477.388,-253.949"/>
</g>
<!-- Node17&#45;&gt;Node5 -->
<g id="edge32" class="edge"><title>Node17&#45;&gt;Node5</title>
<path fill="none" stroke="midnightblue" d="M486.735,-224.147C487.388,-210.772 486.811,-185.158 475,-168 447.209,-127.629 425.819,-129.4 380,-112 316.17,-87.7607 237.194,-75.9635 190.356,-70.7119"/>
<polygon fill="midnightblue" stroke="midnightblue" points="190.617,-67.22 180.3,-69.6302 189.869,-74.1798 190.617,-67.22"/>
</g>
<!-- Node17&#45;&gt;Node9 -->
<g id="edge31" class="edge"><title>Node17&#45;&gt;Node9</title>
<path fill="none" stroke="midnightblue" d="M455.735,-224.444C423.045,-215.201 370.818,-200.436 334.817,-190.257"/>
<polygon fill="midnightblue" stroke="midnightblue" points="335.698,-186.869 325.123,-187.516 333.794,-193.605 335.698,-186.869"/>
</g>
<!-- Node17&#45;&gt;Node10 -->
<g id="edge33" class="edge"><title>Node17&#45;&gt;Node10</title>
<path fill="none" stroke="midnightblue" d="M468.524,-224.327C442.227,-211.404 390.787,-186.621 346,-168 315.77,-155.431 280.639,-142.662 255.861,-133.953"/>
<polygon fill="midnightblue" stroke="midnightblue" points="256.844,-130.589 246.249,-130.595 254.536,-137.197 256.844,-130.589"/>
</g>
<!-- Node18 -->
<g id="node19" class="node"><title>Node18</title>
<polygon fill="white" stroke="#bfbfbf" points="432,-168.5 432,-187.5 466,-187.5 466,-168.5 432,-168.5"/>
<text text-anchor="middle" x="449" y="-175.5" font-family="Helvetica,sans-Serif" font-size="10.00">new</text>
</g>
<!-- Node17&#45;&gt;Node18 -->
<g id="edge34" class="edge"><title>Node17&#45;&gt;Node18</title>
<path fill="none" stroke="midnightblue" d="M479.89,-224.083C474.718,-216.534 467.154,-205.495 460.806,-196.23"/>
<polygon fill="midnightblue" stroke="midnightblue" points="463.536,-194.022 454.996,-187.751 457.761,-197.979 463.536,-194.022"/>
</g>
</g>
</svg>
        <g id="navigator" transform="translate(0 0)" fill="#404254">
                <rect fill="#f2f5e9" fill-opacity="0.5" stroke="#606060" stroke-width=".5" x="0" y="0" width="60" height="60"/>
                <use id="zoomplus" xlink:href="#zoomPlus" x="17" y="9" onmousedown="handleZoom(evt,'in')"/>
                <use id="zoomminus" xlink:href="#zoomMin" x="42" y="9" onmousedown="handleZoom(evt,'out')"/>
                <use id="reset" xlink:href="#resetDef" x="30" y="36" onmousedown="handleReset()"/>
                <g id="arrowUp" xlink:href="#dirArrow" transform="translate(30 24)" onmousedown="handlePan(0,-1)">
                  <use xlink:href="#rim" fill="#404040">
                        <set attributeName="fill" to="#808080" begin="arrowUp.mouseover" end="arrowUp.mouseout"/>
                  </use>
                  <path fill="none" stroke="white" stroke-width="1.5" d="M0,-3.0v7 M-2.5,-0.5L0,-3.0L2.5,-0.5"/>
                </g>
                <g id="arrowRight" xlink:href="#dirArrow" transform="rotate(90) translate(36 -43)" onmousedown="handlePan(1,0)">
                  <use xlink:href="#rim" fill="#404040">
                        <set attributeName="fill" to="#808080" begin="arrowRight.mouseover" end="arrowRight.mouseout"/>
                  </use>
                  <path fill="none" stroke="white" stroke-width="1.5" d="M0,-3.0v7 M-2.5,-0.5L0,-3.0L2.5,-0.5"/>
                </g>
                <g id="arrowDown" xlink:href="#dirArrow" transform="rotate(180) translate(-30 -48)" onmousedown="handlePan(0,1)">
                  <use xlink:href="#rim" fill="#404040">
                        <set attributeName="fill" to="#808080" begin="arrowDown.mouseover" end="arrowDown.mouseout"/>
                  </use>
                  <path fill="none" stroke="white" stroke-width="1.5" d="M0,-3.0v7 M-2.5,-0.5L0,-3.0L2.5,-0.5"/>
                </g>
                <g id="arrowLeft" xlink:href="#dirArrow" transform="rotate(270) translate(-36 17)" onmousedown="handlePan(-1,0)">
                  <use xlink:href="#rim" fill="#404040">
                        <set attributeName="fill" to="#808080" begin="arrowLeft.mouseover" end="arrowLeft.mouseout"/>
                  </use>
                  <path fill="none" stroke="white" stroke-width="1.5" d="M0,-3.0v7 M-2.5,-0.5L0,-3.0L2.5,-0.5"/>
                </g>
        </g>
        <svg viewBox="0 0 15 15" width="100%" height="30px" preserveAspectRatio="xMaxYMin meet">
         <g id="arrow_out" transform="scale(0.3 0.3)">
          <a xlink:href="_open_set_8h__incl_org.svg" target="_base">
           <rect id="button" ry="5" rx="5" y="6" x="6" height="38" width="38"
                fill="#f2f5e9" fill-opacity="0.5" stroke="#606060" stroke-width="1.0"/>
           <path id="arrow"
             d="M 11.500037,31.436501 C 11.940474,20.09759 22.043105,11.32322 32.158766,21.979434 L 37.068811,17.246167 C 37.068811,17.246167 37.088388,32 37.088388,32 L 22.160133,31.978069 C 22.160133,31.978069 26.997745,27.140456 26.997745,27.140456 C 18.528582,18.264221 13.291696,25.230495 11.500037,31.436501 z"
             style="fill:#404040;"/>
          </a>
         </g>
        </svg>
</svg>
