<?xml version="1.0" encoding="UTF-8" standalone="no"?>
<!DOCTYPE svg PUBLIC "-//W3C//DTD SVG 1.1//EN"
 "http://www.w3.org/Graphics/SVG/1.1/DTD/svg11.dtd">
<!-- Generated by graphviz version 2.36.0 (20140111.2315)
 -->
<!-- Title: wlib/stl/OpenSet.h Pages: 1 -->
<svg width="910pt" height="588pt"
 viewBox="0.00 0.00 910.00 588.00" xmlns="http://www.w3.org/2000/svg" xmlns:xlink="http://www.w3.org/1999/xlink">
<g id="graph0" class="graph" transform="scale(1 1) rotate(0) translate(4 584)">
<title>wlib/stl/OpenSet.h</title>
<polygon fill="white" stroke="none" points="-4,4 -4,-584 906,-584 906,4 -4,4"/>
<!-- Node1 -->
<g id="node1" class="node"><title>Node1</title>
<polygon fill="#bfbfbf" stroke="black" points="539.5,-560.5 539.5,-579.5 636.5,-579.5 636.5,-560.5 539.5,-560.5"/>
<text text-anchor="middle" x="588" y="-567.5" font-family="Helvetica,sans-Serif" font-size="10.00">wlib/stl/OpenSet.h</text>
</g>
<!-- Node2 -->
<g id="node2" class="node"><title>Node2</title>
<g id="a_node2"><a xlink:href="../../d2/dc2/_equal_8h.html" target="_top" xlink:title="Equal.h">
<polygon fill="white" stroke="black" points="174,-448.5 174,-467.5 224,-467.5 224,-448.5 174,-448.5"/>
<text text-anchor="middle" x="199" y="-455.5" font-family="Helvetica,sans-Serif" font-size="10.00">Equal.h</text>
</a>
</g>
</g>
<!-- Node1&#45;&gt;Node2 -->
<g id="edge1" class="edge"><title>Node1&#45;&gt;Node2</title>
<path fill="none" stroke="midnightblue" d="M557.8,-560.46C486.875,-540.404 309.965,-490.378 234.268,-468.973"/>
<polygon fill="midnightblue" stroke="midnightblue" points="234.855,-465.502 224.28,-466.149 232.95,-472.238 234.855,-465.502"/>
</g>
<!-- Node9 -->
<g id="node9" class="node"><title>Node9</title>
<g id="a_node9"><a xlink:href="../../d4/dda/_pair_8h.html" target="_top" xlink:title="Implementation of a 2&#45;element tuple. ">
<polygon fill="white" stroke="black" points="578,-224.5 578,-243.5 620,-243.5 620,-224.5 578,-224.5"/>
<text text-anchor="middle" x="599" y="-231.5" font-family="Helvetica,sans-Serif" font-size="10.00">Pair.h</text>
</a>
</g>
</g>
<!-- Node1&#45;&gt;Node9 -->
<g id="edge40" class="edge"><title>Node1&#45;&gt;Node9</title>
<path fill="none" stroke="midnightblue" d="M636.752,-561.939C689.06,-551.477 769.645,-526.363 807,-468 866.884,-374.436 697.72,-281.408 627.75,-247.976"/>
<polygon fill="midnightblue" stroke="midnightblue" points="629.108,-244.748 618.569,-243.661 626.13,-251.082 629.108,-244.748"/>
</g>
<!-- Node10 -->
<g id="node10" class="node"><title>Node10</title>
<g id="a_node10"><a xlink:href="../../db/d2a/_utility_8h.html" target="_top" xlink:title="Various helper functions. ">
<polygon fill="white" stroke="black" points="529.5,-168.5 529.5,-187.5 626.5,-187.5 626.5,-168.5 529.5,-168.5"/>
<text text-anchor="middle" x="578" y="-175.5" font-family="Helvetica,sans-Serif" font-size="10.00">wlib/utility/Utility.h</text>
</a>
</g>
</g>
<!-- Node1&#45;&gt;Node10 -->
<g id="edge46" class="edge"><title>Node1&#45;&gt;Node10</title>
<path fill="none" stroke="midnightblue" d="M589.452,-560.5C595.732,-523.239 620.568,-370.556 628,-244 628.521,-235.126 631.616,-232.12 628,-224 622.432,-211.498 611.484,-201.012 601.249,-193.317"/>
<polygon fill="midnightblue" stroke="midnightblue" points="603.156,-190.379 592.952,-187.526 599.149,-196.119 603.156,-190.379"/>
</g>
<!-- Node17 -->
<g id="node17" class="node"><title>Node17</title>
<g id="a_node17"><a xlink:href="../../d2/dad/_hash_8h.html" target="_top" xlink:title="Hash.h">
<polygon fill="white" stroke="black" points="369,-448.5 369,-467.5 417,-467.5 417,-448.5 369,-448.5"/>
<text text-anchor="middle" x="393" y="-455.5" font-family="Helvetica,sans-Serif" font-size="10.00">Hash.h</text>
</a>
</g>
</g>
<!-- Node1&#45;&gt;Node17 -->
<g id="edge26" class="edge"><title>Node1&#45;&gt;Node17</title>
<path fill="none" stroke="midnightblue" d="M571.701,-560.343C554.91,-551.383 528.015,-536.914 505,-524 474.12,-506.673 438.844,-486.063 416.269,-472.768"/>
<polygon fill="midnightblue" stroke="midnightblue" points="417.813,-469.615 407.421,-467.549 414.256,-475.644 417.813,-469.615"/>
</g>
<!-- Node19 -->
<g id="node19" class="node"><title>Node19</title>
<g id="a_node19"><a xlink:href="../../d8/d2e/_open_table_8h.html" target="_top" xlink:title="OpenTable.h">
<polygon fill="white" stroke="black" points="514,-504.5 514,-523.5 586,-523.5 586,-504.5 514,-504.5"/>
<text text-anchor="middle" x="550" y="-511.5" font-family="Helvetica,sans-Serif" font-size="10.00">OpenTable.h</text>
</a>
</g>
</g>
<!-- Node1&#45;&gt;Node19 -->
<g id="edge31" class="edge"><title>Node1&#45;&gt;Node19</title>
<path fill="none" stroke="midnightblue" d="M581.725,-560.083C576.358,-552.455 568.482,-541.264 561.921,-531.941"/>
<polygon fill="midnightblue" stroke="midnightblue" points="564.775,-529.915 556.158,-523.751 559.051,-533.943 564.775,-529.915"/>
</g>
<!-- Node22 -->
<g id="node22" class="node"><title>Node22</title>
<g id="a_node22"><a xlink:href="../../d9/d37/_table_8h.html" target="_top" xlink:title="Table.h">
<polygon fill="white" stroke="black" points="824.5,-336.5 824.5,-355.5 873.5,-355.5 873.5,-336.5 824.5,-336.5"/>
<text text-anchor="middle" x="849" y="-343.5" font-family="Helvetica,sans-Serif" font-size="10.00">Table.h</text>
</a>
</g>
</g>
<!-- Node1&#45;&gt;Node22 -->
<g id="edge41" class="edge"><title>Node1&#45;&gt;Node22</title>
<path fill="none" stroke="midnightblue" d="M636.643,-567.277C702.231,-563.837 813.846,-553.673 840,-524 879.287,-479.427 864.426,-401.389 854.752,-365.732"/>
<polygon fill="midnightblue" stroke="midnightblue" points="858.004,-364.378 851.868,-355.741 851.278,-366.319 858.004,-364.378"/>
</g>
<!-- Node3 -->
<g id="node3" class="node"><title>Node3</title>
<polygon fill="white" stroke="#bfbfbf" points="104.5,-280.5 104.5,-299.5 153.5,-299.5 153.5,-280.5 104.5,-280.5"/>
<text text-anchor="middle" x="129" y="-287.5" font-family="Helvetica,sans-Serif" font-size="10.00">string.h</text>
</g>
<!-- Node2&#45;&gt;Node3 -->
<g id="edge2" class="edge"><title>Node2&#45;&gt;Node3</title>
<path fill="none" stroke="midnightblue" d="M181.728,-448.478C167.899,-440.787 149.047,-428.201 138,-412 117.006,-381.211 120.729,-335.193 125.034,-309.697"/>
<polygon fill="midnightblue" stroke="midnightblue" points="128.533,-310.033 126.967,-299.554 121.657,-308.723 128.533,-310.033"/>
</g>
<!-- Node4 -->
<g id="node4" class="node"><title>Node4</title>
<g id="a_node4"><a xlink:href="../../d0/db6/_types_8h.html" target="_top" xlink:title="type definition of all the string types we will be using ">
<polygon fill="white" stroke="black" points="185,-56.5 185,-75.5 257,-75.5 257,-56.5 185,-56.5"/>
<text text-anchor="middle" x="221" y="-63.5" font-family="Helvetica,sans-Serif" font-size="10.00">wlib/Types.h</text>
</a>
</g>
</g>
<!-- Node2&#45;&gt;Node4 -->
<g id="edge3" class="edge"><title>Node2&#45;&gt;Node4</title>
<path fill="none" stroke="midnightblue" d="M173.797,-454.752C120.248,-448.451 0,-425.556 0,-347 0,-347 0,-347 0,-177 0,-99.7049 109.686,-76.7233 174.511,-69.8907"/>
<polygon fill="midnightblue" stroke="midnightblue" points="174.888,-73.3706 184.506,-68.9269 174.217,-66.403 174.888,-73.3706"/>
</g>
<!-- Node6 -->
<g id="node6" class="node"><title>Node6</title>
<g id="a_node6"><a xlink:href="../../db/db5/_string_8h.html" target="_top" xlink:title="wlib/strings/String.h">
<polygon fill="white" stroke="black" points="147.5,-392.5 147.5,-411.5 250.5,-411.5 250.5,-392.5 147.5,-392.5"/>
<text text-anchor="middle" x="199" y="-399.5" font-family="Helvetica,sans-Serif" font-size="10.00">wlib/strings/String.h</text>
</a>
</g>
</g>
<!-- Node2&#45;&gt;Node6 -->
<g id="edge5" class="edge"><title>Node2&#45;&gt;Node6</title>
<path fill="none" stroke="midnightblue" d="M199,-448.083C199,-441.006 199,-430.861 199,-421.986"/>
<polygon fill="midnightblue" stroke="midnightblue" points="202.5,-421.751 199,-411.751 195.5,-421.751 202.5,-421.751"/>
</g>
<!-- Node5 -->
<g id="node5" class="node"><title>Node5</title>
<polygon fill="white" stroke="#bfbfbf" points="196.5,-0.5 196.5,-19.5 245.5,-19.5 245.5,-0.5 196.5,-0.5"/>
<text text-anchor="middle" x="221" y="-7.5" font-family="Helvetica,sans-Serif" font-size="10.00">stdint.h</text>
</g>
<!-- Node4&#45;&gt;Node5 -->
<g id="edge4" class="edge"><title>Node4&#45;&gt;Node5</title>
<path fill="none" stroke="midnightblue" d="M221,-56.083C221,-49.0059 221,-38.8611 221,-29.9865"/>
<polygon fill="midnightblue" stroke="midnightblue" points="224.5,-29.751 221,-19.7511 217.5,-29.7511 224.5,-29.751"/>
</g>
<!-- Node6&#45;&gt;Node3 -->
<g id="edge6" class="edge"><title>Node6&#45;&gt;Node3</title>
<path fill="none" stroke="midnightblue" d="M177.182,-392.362C161.975,-385.093 142.732,-373.12 133,-356 125.055,-342.025 124.702,-323.522 125.958,-309.832"/>
<polygon fill="midnightblue" stroke="midnightblue" points="129.461,-310.033 127.26,-299.67 122.517,-309.144 129.461,-310.033"/>
</g>
<!-- Node6&#45;&gt;Node4 -->
<g id="edge18" class="edge"><title>Node6&#45;&gt;Node4</title>
<path fill="none" stroke="midnightblue" d="M175.575,-392.42C139.888,-377.66 76,-343.855 76,-291 76,-291 76,-291 76,-177 76,-124.527 137.016,-93.8439 179.887,-78.7611"/>
<polygon fill="midnightblue" stroke="midnightblue" points="181.173,-82.0211 189.537,-75.5176 178.943,-75.3859 181.173,-82.0211"/>
</g>
<!-- Node7 -->
<g id="node7" class="node"><title>Node7</title>
<g id="a_node7"><a xlink:href="../../de/d0b/_string_iterator_8h.html" target="_top" xlink:title="StringIterator.h">
<polygon fill="white" stroke="black" points="142.5,-336.5 142.5,-355.5 223.5,-355.5 223.5,-336.5 142.5,-336.5"/>
<text text-anchor="middle" x="183" y="-343.5" font-family="Helvetica,sans-Serif" font-size="10.00">StringIterator.h</text>
</a>
</g>
</g>
<!-- Node6&#45;&gt;Node7 -->
<g id="edge7" class="edge"><title>Node6&#45;&gt;Node7</title>
<path fill="none" stroke="midnightblue" d="M196.358,-392.083C194.214,-384.849 191.121,-374.409 188.451,-365.397"/>
<polygon fill="midnightblue" stroke="midnightblue" points="191.79,-364.345 185.593,-355.751 185.078,-366.333 191.79,-364.345"/>
</g>
<!-- Node14 -->
<g id="node14" class="node"><title>Node14</title>
<g id="a_node14"><a xlink:href="../../da/db8/_math_8h.html" target="_top" xlink:title="wlib/utility/Math.h">
<polygon fill="white" stroke="black" points="241.5,-336.5 241.5,-355.5 334.5,-355.5 334.5,-336.5 241.5,-336.5"/>
<text text-anchor="middle" x="288" y="-343.5" font-family="Helvetica,sans-Serif" font-size="10.00">wlib/utility/Math.h</text>
</a>
</g>
</g>
<!-- Node6&#45;&gt;Node14 -->
<g id="edge19" class="edge"><title>Node6&#45;&gt;Node14</title>
<path fill="none" stroke="midnightblue" d="M213.299,-392.324C227.183,-383.9 248.492,-370.971 264.804,-361.074"/>
<polygon fill="midnightblue" stroke="midnightblue" points="267.002,-363.834 273.736,-355.655 263.371,-357.85 267.002,-363.834"/>
</g>
<!-- Node15 -->
<g id="node15" class="node"><title>Node15</title>
<g id="a_node15"><a xlink:href="../../d3/de6/_memory_8h.html" target="_top" xlink:title="Memory is a class that provides dynamic fixed size memory. ">
<polygon fill="white" stroke="black" points="391.5,-336.5 391.5,-355.5 510.5,-355.5 510.5,-336.5 391.5,-336.5"/>
<text text-anchor="middle" x="451" y="-343.5" font-family="Helvetica,sans-Serif" font-size="10.00">wlib/memory/Memory.h</text>
</a>
</g>
</g>
<!-- Node6&#45;&gt;Node15 -->
<g id="edge20" class="edge"><title>Node6&#45;&gt;Node15</title>
<path fill="none" stroke="midnightblue" d="M238.93,-392.444C282.891,-383.023 353.627,-367.866 401.183,-357.675"/>
<polygon fill="midnightblue" stroke="midnightblue" points="402.212,-361.034 411.257,-355.516 400.745,-354.189 402.212,-361.034"/>
</g>
<!-- Node7&#45;&gt;Node4 -->
<g id="edge8" class="edge"><title>Node7&#45;&gt;Node4</title>
<path fill="none" stroke="midnightblue" d="M183,-336.442C183,-317.936 183,-272.812 183,-235 183,-235 183,-235 183,-177 183,-142.813 199.6,-105.764 210.857,-84.5707"/>
<polygon fill="midnightblue" stroke="midnightblue" points="213.947,-86.2151 215.716,-75.769 207.819,-82.832 213.947,-86.2151"/>
</g>
<!-- Node8 -->
<g id="node8" class="node"><title>Node8</title>
<g id="a_node8"><a xlink:href="../../d8/dd7/_concept_8h.html" target="_top" xlink:title="Concept definitions. ">
<polygon fill="white" stroke="black" points="287.5,-280.5 287.5,-299.5 382.5,-299.5 382.5,-280.5 287.5,-280.5"/>
<text text-anchor="middle" x="335" y="-287.5" font-family="Helvetica,sans-Serif" font-size="10.00">wlib/stl/Concept.h</text>
</a>
</g>
</g>
<!-- Node7&#45;&gt;Node8 -->
<g id="edge9" class="edge"><title>Node7&#45;&gt;Node8</title>
<path fill="none" stroke="midnightblue" d="M207.085,-336.444C232.545,-327.399 272.894,-313.064 301.459,-302.916"/>
<polygon fill="midnightblue" stroke="midnightblue" points="302.777,-306.162 311.028,-299.516 300.433,-299.566 302.777,-306.162"/>
</g>
<!-- Node8&#45;&gt;Node9 -->
<g id="edge10" class="edge"><title>Node8&#45;&gt;Node9</title>
<path fill="none" stroke="midnightblue" d="M376.832,-280.444C429.953,-269.578 520.395,-251.078 567.842,-241.373"/>
<polygon fill="midnightblue" stroke="midnightblue" points="568.738,-244.762 577.834,-239.329 567.336,-237.904 568.738,-244.762"/>
</g>
<!-- Node11 -->
<g id="node11" class="node"><title>Node11</title>
<g id="a_node11"><a xlink:href="../../d2/d37/_tmp_8h.html" target="_top" xlink:title="Template helper types, structs, and metafunctions. ">
<polygon fill="white" stroke="black" points="479,-112.5 479,-131.5 523,-131.5 523,-112.5 479,-112.5"/>
<text text-anchor="middle" x="501" y="-119.5" font-family="Helvetica,sans-Serif" font-size="10.00">Tmp.h</text>
</a>
</g>
</g>
<!-- Node8&#45;&gt;Node11 -->
<g id="edge17" class="edge"><title>Node8&#45;&gt;Node11</title>
<path fill="none" stroke="midnightblue" d="M340.547,-280.231C346.08,-271.301 354.648,-256.964 361,-244 377.051,-211.241 366.26,-193.85 392,-168 412.889,-147.022 444.957,-135.386 468.91,-129.231"/>
<polygon fill="midnightblue" stroke="midnightblue" points="470.028,-132.562 478.948,-126.846 468.41,-125.752 470.028,-132.562"/>
</g>
<!-- Node12 -->
<g id="node12" class="node"><title>Node12</title>
<g id="a_node12"><a xlink:href="../../d4/dd5/_type_traits_8h.html" target="_top" xlink:title="Metafunctions for types. ">
<polygon fill="white" stroke="black" points="401.5,-168.5 401.5,-187.5 472.5,-187.5 472.5,-168.5 401.5,-168.5"/>
<text text-anchor="middle" x="437" y="-175.5" font-family="Helvetica,sans-Serif" font-size="10.00">TypeTraits.h</text>
</a>
</g>
</g>
<!-- Node8&#45;&gt;Node12 -->
<g id="edge14" class="edge"><title>Node8&#45;&gt;Node12</title>
<path fill="none" stroke="midnightblue" d="M349.221,-280.406C362.144,-272.144 381.236,-258.761 395,-244 408.419,-229.609 420.23,-210.411 427.882,-196.615"/>
<polygon fill="midnightblue" stroke="midnightblue" points="431.037,-198.137 432.681,-187.671 424.869,-194.828 431.037,-198.137"/>
</g>
<!-- Node13 -->
<g id="node13" class="node"><title>Node13</title>
<g id="a_node13"><a xlink:href="../../d2/db4/_wlib_8h.html" target="_top" xlink:title="wlib/Wlib.h">
<polygon fill="white" stroke="black" points="287.5,-224.5 287.5,-243.5 352.5,-243.5 352.5,-224.5 287.5,-224.5"/>
<text text-anchor="middle" x="320" y="-231.5" font-family="Helvetica,sans-Serif" font-size="10.00">wlib/Wlib.h</text>
</a>
</g>
</g>
<!-- Node8&#45;&gt;Node13 -->
<g id="edge16" class="edge"><title>Node8&#45;&gt;Node13</title>
<path fill="none" stroke="midnightblue" d="M332.523,-280.083C330.514,-272.849 327.614,-262.409 325.11,-253.397"/>
<polygon fill="midnightblue" stroke="midnightblue" points="328.48,-252.449 322.431,-243.751 321.735,-254.323 328.48,-252.449"/>
</g>
<!-- Node9&#45;&gt;Node10 -->
<g id="edge11" class="edge"><title>Node9&#45;&gt;Node10</title>
<path fill="none" stroke="midnightblue" d="M595.532,-224.083C592.688,-216.77 588.571,-206.181 585.04,-197.103"/>
<polygon fill="midnightblue" stroke="midnightblue" points="588.29,-195.803 581.403,-187.751 581.766,-198.34 588.29,-195.803"/>
</g>
<!-- Node10&#45;&gt;Node11 -->
<g id="edge12" class="edge"><title>Node10&#45;&gt;Node11</title>
<path fill="none" stroke="midnightblue" d="M565.629,-168.324C553.842,-160.058 535.868,-147.453 521.864,-137.632"/>
<polygon fill="midnightblue" stroke="midnightblue" points="523.538,-134.531 513.341,-131.655 519.518,-140.262 523.538,-134.531"/>
</g>
<!-- Node11&#45;&gt;Node4 -->
<g id="edge13" class="edge"><title>Node11&#45;&gt;Node4</title>
<path fill="none" stroke="midnightblue" d="M478.56,-116.672C432.925,-107.871 328.477,-87.7277 267.533,-75.9742"/>
<polygon fill="midnightblue" stroke="midnightblue" points="267.894,-72.4794 257.412,-74.0223 266.568,-79.3528 267.894,-72.4794"/>
</g>
<!-- Node12&#45;&gt;Node11 -->
<g id="edge15" class="edge"><title>Node12&#45;&gt;Node11</title>
<path fill="none" stroke="midnightblue" d="M447.283,-168.324C456.836,-160.263 471.28,-148.077 482.784,-138.369"/>
<polygon fill="midnightblue" stroke="midnightblue" points="485.144,-140.958 490.53,-131.834 480.63,-135.608 485.144,-140.958"/>
</g>
<!-- Node15&#45;&gt;Node3 -->
<g id="edge21" class="edge"><title>Node15&#45;&gt;Node3</title>
<path fill="none" stroke="midnightblue" d="M399.978,-336.444C333.868,-325.357 220.369,-306.323 163.539,-296.792"/>
<polygon fill="midnightblue" stroke="midnightblue" points="164.053,-293.33 153.612,-295.127 162.895,-300.233 164.053,-293.33"/>
</g>
<!-- Node15&#45;&gt;Node4 -->
<g id="edge23" class="edge"><title>Node15&#45;&gt;Node4</title>
<path fill="none" stroke="midnightblue" d="M394.291,-336.427C350.475,-328.705 294.591,-316.102 278,-300 256.402,-279.038 259,-265.098 259,-235 259,-235 259,-235 259,-177 259,-142.813 242.4,-105.764 231.143,-84.5707"/>
<polygon fill="midnightblue" stroke="midnightblue" points="234.181,-82.832 226.284,-75.769 228.053,-86.2151 234.181,-82.832"/>
</g>
<!-- Node15&#45;&gt;Node10 -->
<g id="edge22" class="edge"><title>Node15&#45;&gt;Node10</title>
<path fill="none" stroke="midnightblue" d="M458.708,-336.295C466.438,-327.416 478.522,-313.117 488,-300 511.399,-267.619 511.597,-255.631 536,-224 543.915,-213.741 553.754,-203.105 561.919,-194.751"/>
<polygon fill="midnightblue" stroke="midnightblue" points="564.538,-197.081 569.117,-187.527 559.579,-192.14 564.538,-197.081"/>
</g>
<!-- Node15&#45;&gt;Node11 -->
<g id="edge24" class="edge"><title>Node15&#45;&gt;Node11</title>
<path fill="none" stroke="midnightblue" d="M452.96,-336.297C460.333,-303.563 486.501,-187.375 496.796,-141.666"/>
<polygon fill="midnightblue" stroke="midnightblue" points="500.216,-142.408 498.999,-131.884 493.387,-140.87 500.216,-142.408"/>
</g>
<!-- Node16 -->
<g id="node16" class="node"><title>Node16</title>
<g id="a_node16"><a xlink:href="../../d9/d8a/_new_8h.html" target="_top" xlink:title="New operators defined for Arduino boards and for other boards use the normal new. ...">
<polygon fill="white" stroke="black" points="400.5,-280.5 400.5,-299.5 445.5,-299.5 445.5,-280.5 400.5,-280.5"/>
<text text-anchor="middle" x="423" y="-287.5" font-family="Helvetica,sans-Serif" font-size="10.00">New.h</text>
</a>
</g>
</g>
<!-- Node15&#45;&gt;Node16 -->
<g id="edge25" class="edge"><title>Node15&#45;&gt;Node16</title>
<path fill="none" stroke="midnightblue" d="M446.376,-336.083C442.544,-328.691 436.976,-317.953 432.235,-308.811"/>
<polygon fill="midnightblue" stroke="midnightblue" points="435.248,-307.018 427.538,-299.751 429.034,-310.24 435.248,-307.018"/>
</g>
<!-- Node17&#45;&gt;Node4 -->
<g id="edge27" class="edge"><title>Node17&#45;&gt;Node4</title>
<path fill="none" stroke="midnightblue" d="M390.357,-448.332C382.657,-423.54 359.729,-353.022 343,-336 314.816,-307.322 290.235,-326.508 260,-300 234.668,-277.79 221,-268.69 221,-235 221,-235 221,-235 221,-177 221,-144.948 221,-107.643 221,-85.7489"/>
<polygon fill="midnightblue" stroke="midnightblue" points="224.5,-85.5577 221,-75.5578 217.5,-85.5578 224.5,-85.5577"/>
</g>
<!-- Node17&#45;&gt;Node6 -->
<g id="edge30" class="edge"><title>Node17&#45;&gt;Node6</title>
<path fill="none" stroke="midnightblue" d="M368.822,-450.27C336.468,-441.264 278.64,-425.168 239.558,-414.289"/>
<polygon fill="midnightblue" stroke="midnightblue" points="240.134,-410.817 229.562,-411.507 238.257,-417.56 240.134,-410.817"/>
</g>
<!-- Node17&#45;&gt;Node14 -->
<g id="edge29" class="edge"><title>Node17&#45;&gt;Node14</title>
<path fill="none" stroke="midnightblue" d="M384.27,-448.475C375.127,-439.499 360.401,-424.907 348,-412 332.289,-395.648 314.741,-376.535 302.702,-363.286"/>
<polygon fill="midnightblue" stroke="midnightblue" points="304.969,-360.575 295.661,-355.514 299.781,-365.275 304.969,-360.575"/>
</g>
<!-- Node18 -->
<g id="node18" class="node"><title>Node18</title>
<g id="a_node18"><a xlink:href="../../d2/ddf/_wlib_config_8h.html" target="_top" xlink:title="Some basic definitions for compilers. ">
<polygon fill="white" stroke="black" points="390.5,-392.5 390.5,-411.5 483.5,-411.5 483.5,-392.5 390.5,-392.5"/>
<text text-anchor="middle" x="437" y="-399.5" font-family="Helvetica,sans-Serif" font-size="10.00">wlib/WlibConfig.h</text>
</a>
</g>
</g>
<!-- Node17&#45;&gt;Node18 -->
<g id="edge28" class="edge"><title>Node17&#45;&gt;Node18</title>
<path fill="none" stroke="midnightblue" d="M400.266,-448.083C406.545,-440.377 415.788,-429.033 423.431,-419.653"/>
<polygon fill="midnightblue" stroke="midnightblue" points="426.266,-421.714 429.869,-411.751 420.839,-417.293 426.266,-421.714"/>
</g>
<!-- Node19&#45;&gt;Node2 -->
<g id="edge32" class="edge"><title>Node19&#45;&gt;Node2</title>
<path fill="none" stroke="midnightblue" d="M513.759,-507.424C446.09,-497.014 301.332,-474.743 234.348,-464.438"/>
<polygon fill="midnightblue" stroke="midnightblue" points="234.705,-460.952 224.289,-462.891 233.641,-467.871 234.705,-460.952"/>
</g>
<!-- Node19&#45;&gt;Node9 -->
<g id="edge34" class="edge"><title>Node19&#45;&gt;Node9</title>
<path fill="none" stroke="midnightblue" d="M555.284,-504.231C565.725,-486.043 588,-442.601 588,-403 588,-403 588,-403 588,-345 588,-312.788 592.728,-275.532 595.985,-253.692"/>
<polygon fill="midnightblue" stroke="midnightblue" points="599.487,-253.947 597.562,-243.529 592.57,-252.874 599.487,-253.947"/>
</g>
<!-- Node19&#45;&gt;Node10 -->
<g id="edge36" class="edge"><title>Node19&#45;&gt;Node10</title>
<path fill="none" stroke="midnightblue" d="M550,-504.442C550,-485.936 550,-440.812 550,-403 550,-403 550,-403 550,-289 550,-255.79 562.134,-218.634 570.427,-197.12"/>
<polygon fill="midnightblue" stroke="midnightblue" points="573.751,-198.233 574.224,-187.649 567.254,-195.628 573.751,-198.233"/>
</g>
<!-- Node19&#45;&gt;Node15 -->
<g id="edge35" class="edge"><title>Node19&#45;&gt;Node15</title>
<path fill="none" stroke="midnightblue" d="M546.857,-504.329C539.206,-483.8 518.296,-431.024 492,-392 484.928,-381.506 475.503,-370.984 467.472,-362.756"/>
<polygon fill="midnightblue" stroke="midnightblue" points="469.881,-360.216 460.322,-355.646 464.945,-365.18 469.881,-360.216"/>
</g>
<!-- Node19&#45;&gt;Node17 -->
<g id="edge33" class="edge"><title>Node19&#45;&gt;Node17</title>
<path fill="none" stroke="midnightblue" d="M525.123,-504.444C498.555,-495.306 456.291,-480.769 426.739,-470.604"/>
<polygon fill="midnightblue" stroke="midnightblue" points="427.84,-467.282 417.245,-467.339 425.563,-473.901 427.84,-467.282"/>
</g>
<!-- Node20 -->
<g id="node20" class="node"><title>Node20</title>
<g id="a_node20"><a xlink:href="../../d7/d2f/_exceptions_8h.html" target="_top" xlink:title="Implementation of Exceptions using C style. ">
<polygon fill="white" stroke="black" points="654,-448.5 654,-467.5 798,-467.5 798,-448.5 654,-448.5"/>
<text text-anchor="middle" x="726" y="-455.5" font-family="Helvetica,sans-Serif" font-size="10.00">wlib/exceptions/Exceptions.h</text>
</a>
</g>
</g>
<!-- Node19&#45;&gt;Node20 -->
<g id="edge37" class="edge"><title>Node19&#45;&gt;Node20</title>
<path fill="none" stroke="midnightblue" d="M577.888,-504.444C607.754,-495.28 655.315,-480.688 688.456,-470.519"/>
<polygon fill="midnightblue" stroke="midnightblue" points="689.709,-473.796 698.243,-467.516 687.656,-467.104 689.709,-473.796"/>
</g>
<!-- Node20&#45;&gt;Node4 -->
<g id="edge39" class="edge"><title>Node20&#45;&gt;Node4</title>
<path fill="none" stroke="midnightblue" d="M774.093,-448.401C826.203,-435.991 902,-407.535 902,-347 902,-347 902,-347 902,-177 902,-112.537 420.31,-78.6985 267.159,-69.5686"/>
<polygon fill="midnightblue" stroke="midnightblue" points="267.321,-66.0722 257.133,-68.9784 266.91,-73.0601 267.321,-66.0722"/>
</g>
<!-- Node21 -->
<g id="node21" class="node"><title>Node21</title>
<polygon fill="white" stroke="#bfbfbf" points="699,-392.5 699,-411.5 753,-411.5 753,-392.5 699,-392.5"/>
<text text-anchor="middle" x="726" y="-399.5" font-family="Helvetica,sans-Serif" font-size="10.00">setjmp.h</text>
</g>
<!-- Node20&#45;&gt;Node21 -->
<g id="edge38" class="edge"><title>Node20&#45;&gt;Node21</title>
<path fill="none" stroke="midnightblue" d="M726,-448.083C726,-441.006 726,-430.861 726,-421.986"/>
<polygon fill="midnightblue" stroke="midnightblue" points="729.5,-421.751 726,-411.751 722.5,-421.751 729.5,-421.751"/>
</g>
<!-- Node22&#45;&gt;Node11 -->
<g id="edge45" class="edge"><title>Node22&#45;&gt;Node11</title>
<path fill="none" stroke="midnightblue" d="M849.464,-336.21C849.737,-322.917 848.54,-297.408 837,-280 787.007,-204.587 749.481,-205.194 667,-168 622.597,-147.977 567.381,-135.2 533.16,-128.565"/>
<polygon fill="midnightblue" stroke="midnightblue" points="533.724,-125.11 523.25,-126.701 532.431,-131.989 533.724,-125.11"/>
</g>
<!-- Node23 -->
<g id="node23" class="node"><title>Node23</title>
<g id="a_node23"><a xlink:href="../../d7/d2a/_tuple_8h.html" target="_top" xlink:title="Template oriented tuple implementation. ">
<polygon fill="white" stroke="black" points="779.5,-280.5 779.5,-299.5 828.5,-299.5 828.5,-280.5 779.5,-280.5"/>
<text text-anchor="middle" x="804" y="-287.5" font-family="Helvetica,sans-Serif" font-size="10.00">Tuple.h</text>
</a>
</g>
</g>
<!-- Node22&#45;&gt;Node23 -->
<g id="edge42" class="edge"><title>Node22&#45;&gt;Node23</title>
<path fill="none" stroke="midnightblue" d="M841.569,-336.083C835.147,-328.377 825.694,-317.033 817.878,-307.653"/>
<polygon fill="midnightblue" stroke="midnightblue" points="820.383,-305.193 811.293,-299.751 815.006,-309.674 820.383,-305.193"/>
</g>
<!-- Node23&#45;&gt;Node9 -->
<g id="edge43" class="edge"><title>Node23&#45;&gt;Node9</title>
<path fill="none" stroke="midnightblue" d="M779.272,-282.486C741.77,-272.608 670.574,-253.854 629.775,-243.107"/>
<polygon fill="midnightblue" stroke="midnightblue" points="630.658,-239.72 620.096,-240.557 628.875,-246.489 630.658,-239.72"/>
</g>
<!-- Node23&#45;&gt;Node11 -->
<g id="edge44" class="edge"><title>Node23&#45;&gt;Node11</title>
<path fill="none" stroke="midnightblue" d="M794.027,-280.199C768.943,-258.451 700.542,-201.514 635,-168 601.869,-151.059 560.975,-138.399 533.138,-130.893"/>
<polygon fill="midnightblue" stroke="midnightblue" points="533.712,-127.425 523.151,-128.27 531.934,-134.195 533.712,-127.425"/>
</g>
</g>
</svg>
