<?xml version="1.0" encoding="UTF-8" standalone="no"?>
<!DOCTYPE svg PUBLIC "-//W3C//DTD SVG 1.1//EN"
 "http://www.w3.org/Graphics/SVG/1.1/DTD/svg11.dtd">
<!-- Generated by graphviz version 2.38.0 (20140413.2041)
 -->
<!-- Title: memory/Allocator.cpp Pages: 1 -->
<svg width="409pt" height="532pt"
 viewBox="0.00 0.00 408.50 532.00" xmlns="http://www.w3.org/2000/svg" xmlns:xlink="http://www.w3.org/1999/xlink">
<g id="graph0" class="graph" transform="scale(1 1) rotate(0) translate(4 528)">
<title>memory/Allocator.cpp</title>
<polygon fill="white" stroke="none" points="-4,4 -4,-528 404.5,-528 404.5,4 -4,4"/>
<!-- Node0 -->
<g id="node1" class="node"><title>Node0</title>
<polygon fill="#bfbfbf" stroke="black" points="233,-504.5 233,-523.5 345,-523.5 345,-504.5 233,-504.5"/>
<text text-anchor="middle" x="289" y="-511.5" font-family="Helvetica,sans-Serif" font-size="10.00">memory/Allocator.cpp</text>
</g>
<!-- Node1 -->
<g id="node2" class="node"><title>Node1</title>
<g id="a_node2"><a xlink:href="../../db/db5/_string_8h.html" target="_top" xlink:title="string.h">
<polygon fill="white" stroke="black" points="140.5,-448.5 140.5,-467.5 189.5,-467.5 189.5,-448.5 140.5,-448.5"/>
<text text-anchor="middle" x="165" y="-455.5" font-family="Helvetica,sans-Serif" font-size="10.00">string.h</text>
</a>
</g>
</g>
<!-- Node0&#45;&gt;Node1 -->
<g id="edge1" class="edge"><title>Node0&#45;&gt;Node1</title>
<path fill="none" stroke="midnightblue" d="M269.352,-504.444C249.035,-495.596 217.097,-481.687 193.902,-471.586"/>
<polygon fill="midnightblue" stroke="midnightblue" points="195.122,-468.3 184.556,-467.516 192.327,-474.718 195.122,-468.3"/>
</g>
<!-- Node8 -->
<g id="node9" class="node"><title>Node8</title>
<g id="a_node9"><a xlink:href="../../db/d2a/_utility_8h.html" target="_top" xlink:title="Various helper functions. ">
<polygon fill="white" stroke="black" points="217.5,-168.5 217.5,-187.5 302.5,-187.5 302.5,-168.5 217.5,-168.5"/>
<text text-anchor="middle" x="260" y="-175.5" font-family="Helvetica,sans-Serif" font-size="10.00">../utility/Utility.h</text>
</a>
</g>
</g>
<!-- Node0&#45;&gt;Node8 -->
<g id="edge21" class="edge"><title>Node0&#45;&gt;Node8</title>
<path fill="none" stroke="midnightblue" d="M291.697,-504.258C297.156,-485.765 309,-441.238 309,-403 309,-403 309,-403 309,-289 309,-253.466 287.4,-216.627 272.882,-195.88"/>
<polygon fill="midnightblue" stroke="midnightblue" points="275.528,-193.568 266.813,-187.542 269.869,-197.687 275.528,-193.568"/>
</g>
<!-- Node12 -->
<g id="node13" class="node"><title>Node12</title>
<g id="a_node13"><a xlink:href="../../da/db8/_math_8h.html" target="_top" xlink:title="../utility/Math.h">
<polygon fill="white" stroke="black" points="199,-336.5 199,-355.5 281,-355.5 281,-336.5 199,-336.5"/>
<text text-anchor="middle" x="240" y="-343.5" font-family="Helvetica,sans-Serif" font-size="10.00">../utility/Math.h</text>
</a>
</g>
</g>
<!-- Node0&#45;&gt;Node12 -->
<g id="edge20" class="edge"><title>Node0&#45;&gt;Node12</title>
<path fill="none" stroke="midnightblue" d="M286.366,-504.075C278.653,-477.945 256.002,-401.211 245.484,-365.577"/>
<polygon fill="midnightblue" stroke="midnightblue" points="248.717,-364.168 242.529,-355.568 242.003,-366.15 248.717,-364.168"/>
</g>
<!-- Node13 -->
<g id="node14" class="node"><title>Node13</title>
<g id="a_node14"><a xlink:href="../../df/d4d/_allocator_8h.html" target="_top" xlink:title="Allocator is a memory management library where allocations are always of fixed size. ">
<polygon fill="white" stroke="black" points="337.5,-392.5 337.5,-411.5 400.5,-411.5 400.5,-392.5 337.5,-392.5"/>
<text text-anchor="middle" x="369" y="-399.5" font-family="Helvetica,sans-Serif" font-size="10.00">Allocator.h</text>
</a>
</g>
</g>
<!-- Node0&#45;&gt;Node13 -->
<g id="edge18" class="edge"><title>Node0&#45;&gt;Node13</title>
<path fill="none" stroke="midnightblue" d="M295.598,-504.433C302.508,-495.423 313.636,-480.804 323,-468 334.689,-452.017 347.698,-433.571 356.891,-420.421"/>
<polygon fill="midnightblue" stroke="midnightblue" points="359.988,-422.099 362.837,-411.894 354.246,-418.095 359.988,-422.099"/>
</g>
<!-- Node2 -->
<g id="node3" class="node"><title>Node2</title>
<g id="a_node3"><a xlink:href="../../d8/d65/_static_string_8h.html" target="_top" xlink:title="StaticString provides a String that is on stack and is of fixed size. ">
<polygon fill="white" stroke="black" points="111,-392.5 111,-411.5 219,-411.5 219,-392.5 111,-392.5"/>
<text text-anchor="middle" x="165" y="-399.5" font-family="Helvetica,sans-Serif" font-size="10.00">strings/StaticString.h</text>
</a>
</g>
</g>
<!-- Node1&#45;&gt;Node2 -->
<g id="edge2" class="edge"><title>Node1&#45;&gt;Node2</title>
<path fill="none" stroke="midnightblue" d="M159.834,-448.083C158.324,-440.927 157.894,-430.635 158.542,-421.691"/>
<polygon fill="midnightblue" stroke="midnightblue" points="162.015,-422.126 159.869,-411.751 155.077,-421.2 162.015,-422.126"/>
</g>
<!-- Node2&#45;&gt;Node1 -->
<g id="edge3" class="edge"><title>Node2&#45;&gt;Node1</title>
<path fill="none" stroke="midnightblue" d="M170.131,-411.751C171.657,-418.858 172.104,-429.136 171.472,-438.101"/>
<polygon fill="midnightblue" stroke="midnightblue" points="167.993,-437.713 170.166,-448.083 174.934,-438.622 167.993,-437.713"/>
</g>
<!-- Node3 -->
<g id="node4" class="node"><title>Node3</title>
<g id="a_node4"><a xlink:href="../../de/d0b/_string_iterator_8h.html" target="_top" xlink:title="StringIterator.h">
<polygon fill="white" stroke="black" points="100,-336.5 100,-355.5 180,-355.5 180,-336.5 100,-336.5"/>
<text text-anchor="middle" x="140" y="-343.5" font-family="Helvetica,sans-Serif" font-size="10.00">StringIterator.h</text>
</a>
</g>
</g>
<!-- Node2&#45;&gt;Node3 -->
<g id="edge4" class="edge"><title>Node2&#45;&gt;Node3</title>
<path fill="none" stroke="midnightblue" d="M160.872,-392.083C157.486,-384.77 152.584,-374.181 148.381,-365.103"/>
<polygon fill="midnightblue" stroke="midnightblue" points="151.429,-363.355 144.051,-355.751 145.077,-366.296 151.429,-363.355"/>
</g>
<!-- Node4 -->
<g id="node5" class="node"><title>Node4</title>
<g id="a_node5"><a xlink:href="../../d0/db6/_types_8h.html" target="_top" xlink:title="type definition of all the string types we will be using ">
<polygon fill="white" stroke="black" points="55,-56.5 55,-75.5 115,-75.5 115,-56.5 55,-56.5"/>
<text text-anchor="middle" x="85" y="-63.5" font-family="Helvetica,sans-Serif" font-size="10.00">../Types.h</text>
</a>
</g>
</g>
<!-- Node2&#45;&gt;Node4 -->
<g id="edge16" class="edge"><title>Node2&#45;&gt;Node4</title>
<path fill="none" stroke="midnightblue" d="M123.789,-392.481C74.9173,-379.686 0,-350.388 0,-291 0,-291 0,-291 0,-177 0,-135.765 37.8614,-100.574 63.0465,-81.7262"/>
<polygon fill="midnightblue" stroke="midnightblue" points="65.2692,-84.4388 71.3433,-75.758 61.1815,-78.7563 65.2692,-84.4388"/>
</g>
<!-- Node2&#45;&gt;Node12 -->
<g id="edge17" class="edge"><title>Node2&#45;&gt;Node12</title>
<path fill="none" stroke="midnightblue" d="M177.05,-392.324C188.463,-384.107 205.831,-371.602 219.435,-361.807"/>
<polygon fill="midnightblue" stroke="midnightblue" points="221.66,-364.517 227.731,-355.834 217.57,-358.837 221.66,-364.517"/>
</g>
<!-- Node3&#45;&gt;Node4 -->
<g id="edge5" class="edge"><title>Node3&#45;&gt;Node4</title>
<path fill="none" stroke="midnightblue" d="M122.697,-336.455C93.596,-320.722 38,-284.223 38,-235 38,-235 38,-235 38,-177 38,-141.702 58.7184,-104.786 72.6436,-83.9599"/>
<polygon fill="midnightblue" stroke="midnightblue" points="75.63,-85.7958 78.4649,-75.5872 69.8826,-81.7998 75.63,-85.7958"/>
</g>
<!-- Node6 -->
<g id="node7" class="node"><title>Node6</title>
<g id="a_node7"><a xlink:href="../../d8/dd7/_concept_8h.html" target="_top" xlink:title="Concept definitions. ">
<polygon fill="white" stroke="black" points="98.5,-280.5 98.5,-299.5 181.5,-299.5 181.5,-280.5 98.5,-280.5"/>
<text text-anchor="middle" x="140" y="-287.5" font-family="Helvetica,sans-Serif" font-size="10.00">../stl/Concept.h</text>
</a>
</g>
</g>
<!-- Node3&#45;&gt;Node6 -->
<g id="edge7" class="edge"><title>Node3&#45;&gt;Node6</title>
<path fill="none" stroke="midnightblue" d="M140,-336.083C140,-329.006 140,-318.861 140,-309.986"/>
<polygon fill="midnightblue" stroke="midnightblue" points="143.5,-309.751 140,-299.751 136.5,-309.751 143.5,-309.751"/>
</g>
<!-- Node5 -->
<g id="node6" class="node"><title>Node5</title>
<polygon fill="white" stroke="#bfbfbf" points="60.5,-0.5 60.5,-19.5 109.5,-19.5 109.5,-0.5 60.5,-0.5"/>
<text text-anchor="middle" x="85" y="-7.5" font-family="Helvetica,sans-Serif" font-size="10.00">stdint.h</text>
</g>
<!-- Node4&#45;&gt;Node5 -->
<g id="edge6" class="edge"><title>Node4&#45;&gt;Node5</title>
<path fill="none" stroke="midnightblue" d="M85,-56.083C85,-49.0059 85,-38.8611 85,-29.9865"/>
<polygon fill="midnightblue" stroke="midnightblue" points="88.5001,-29.751 85,-19.7511 81.5001,-29.7511 88.5001,-29.751"/>
</g>
<!-- Node7 -->
<g id="node8" class="node"><title>Node7</title>
<g id="a_node8"><a xlink:href="../../d4/dda/_pair_8h.html" target="_top" xlink:title="Implementation of a 2&#45;element tuple. ">
<polygon fill="white" stroke="black" points="239,-224.5 239,-243.5 281,-243.5 281,-224.5 239,-224.5"/>
<text text-anchor="middle" x="260" y="-231.5" font-family="Helvetica,sans-Serif" font-size="10.00">Pair.h</text>
</a>
</g>
</g>
<!-- Node6&#45;&gt;Node7 -->
<g id="edge8" class="edge"><title>Node6&#45;&gt;Node7</title>
<path fill="none" stroke="midnightblue" d="M159.014,-280.444C178.588,-271.636 209.308,-257.812 231.729,-247.722"/>
<polygon fill="midnightblue" stroke="midnightblue" points="233.392,-250.812 241.075,-243.516 230.519,-244.428 233.392,-250.812"/>
</g>
<!-- Node9 -->
<g id="node10" class="node"><title>Node9</title>
<g id="a_node10"><a xlink:href="../../d2/d37/_tmp_8h.html" target="_top" xlink:title="Template helper types, structs, and metafunctions. ">
<polygon fill="white" stroke="black" points="110,-112.5 110,-131.5 154,-131.5 154,-112.5 110,-112.5"/>
<text text-anchor="middle" x="132" y="-119.5" font-family="Helvetica,sans-Serif" font-size="10.00">Tmp.h</text>
</a>
</g>
</g>
<!-- Node6&#45;&gt;Node9 -->
<g id="edge15" class="edge"><title>Node6&#45;&gt;Node9</title>
<path fill="none" stroke="midnightblue" d="M141.413,-280.439C144.463,-260.572 150.923,-209.843 145,-168 143.732,-159.042 141.111,-149.372 138.552,-141.3"/>
<polygon fill="midnightblue" stroke="midnightblue" points="141.861,-140.157 135.344,-131.803 135.229,-142.398 141.861,-140.157"/>
</g>
<!-- Node10 -->
<g id="node11" class="node"><title>Node10</title>
<g id="a_node11"><a xlink:href="../../d4/dd5/_type_traits_8h.html" target="_top" xlink:title="Metafunctions for types. ">
<polygon fill="white" stroke="black" points="66,-168.5 66,-187.5 136,-187.5 136,-168.5 66,-168.5"/>
<text text-anchor="middle" x="101" y="-175.5" font-family="Helvetica,sans-Serif" font-size="10.00">TypeTraits.h</text>
</a>
</g>
</g>
<!-- Node6&#45;&gt;Node10 -->
<g id="edge12" class="edge"><title>Node6&#45;&gt;Node10</title>
<path fill="none" stroke="midnightblue" d="M136.94,-280.368C130.618,-262.537 115.996,-221.295 107.478,-197.272"/>
<polygon fill="midnightblue" stroke="midnightblue" points="110.687,-195.847 104.046,-187.591 104.089,-198.186 110.687,-195.847"/>
</g>
<!-- Node11 -->
<g id="node12" class="node"><title>Node11</title>
<g id="a_node12"><a xlink:href="../../d2/db4/_wlib_8h.html" target="_top" xlink:title="../Wlib.h">
<polygon fill="white" stroke="black" points="167.5,-224.5 167.5,-243.5 220.5,-243.5 220.5,-224.5 167.5,-224.5"/>
<text text-anchor="middle" x="194" y="-231.5" font-family="Helvetica,sans-Serif" font-size="10.00">../Wlib.h</text>
</a>
</g>
</g>
<!-- Node6&#45;&gt;Node11 -->
<g id="edge14" class="edge"><title>Node6&#45;&gt;Node11</title>
<path fill="none" stroke="midnightblue" d="M148.917,-280.083C156.78,-272.22 168.431,-260.569 177.919,-251.081"/>
<polygon fill="midnightblue" stroke="midnightblue" points="180.653,-253.297 185.249,-243.751 175.703,-248.347 180.653,-253.297"/>
</g>
<!-- Node7&#45;&gt;Node8 -->
<g id="edge9" class="edge"><title>Node7&#45;&gt;Node8</title>
<path fill="none" stroke="midnightblue" d="M260,-224.083C260,-217.006 260,-206.861 260,-197.986"/>
<polygon fill="midnightblue" stroke="midnightblue" points="263.5,-197.751 260,-187.751 256.5,-197.751 263.5,-197.751"/>
</g>
<!-- Node8&#45;&gt;Node9 -->
<g id="edge10" class="edge"><title>Node8&#45;&gt;Node9</title>
<path fill="none" stroke="midnightblue" d="M239.718,-168.444C218.653,-159.557 185.483,-145.563 161.514,-135.451"/>
<polygon fill="midnightblue" stroke="midnightblue" points="162.761,-132.179 152.187,-131.516 160.04,-138.628 162.761,-132.179"/>
</g>
<!-- Node9&#45;&gt;Node4 -->
<g id="edge11" class="edge"><title>Node9&#45;&gt;Node4</title>
<path fill="none" stroke="midnightblue" d="M124.239,-112.083C117.463,-104.298 107.457,-92.8015 99.2449,-83.3665"/>
<polygon fill="midnightblue" stroke="midnightblue" points="101.822,-80.9963 92.6167,-75.7511 96.5419,-85.592 101.822,-80.9963"/>
</g>
<!-- Node10&#45;&gt;Node9 -->
<g id="edge13" class="edge"><title>Node10&#45;&gt;Node9</title>
<path fill="none" stroke="midnightblue" d="M106.119,-168.083C110.408,-160.613 116.658,-149.724 121.942,-140.52"/>
<polygon fill="midnightblue" stroke="midnightblue" points="125.033,-142.166 126.976,-131.751 118.962,-138.681 125.033,-142.166"/>
</g>
<!-- Node13&#45;&gt;Node4 -->
<g id="edge19" class="edge"><title>Node13&#45;&gt;Node4</title>
<path fill="none" stroke="midnightblue" d="M367.562,-392.471C364.58,-374.022 358,-329.001 358,-291 358,-291 358,-291 358,-177 358,-127.465 201.414,-89.8671 125.422,-74.5373"/>
<polygon fill="midnightblue" stroke="midnightblue" points="125.749,-71.034 115.259,-72.5231 124.388,-77.9005 125.749,-71.034"/>
</g>
</g>
</svg>
