<?xml version="1.0" encoding="UTF-8" standalone="no"?>
<!DOCTYPE svg PUBLIC "-//W3C//DTD SVG 1.1//EN"
 "http://www.w3.org/Graphics/SVG/1.1/DTD/svg11.dtd">
<!-- Generated by graphviz version 2.36.0 (20140111.2315)
 -->
<!-- Title: wlp::hash_set::contains Pages: 1 -->
<svg width="272pt" height="66pt"
 viewBox="0.00 0.00 272.00 66.00" xmlns="http://www.w3.org/2000/svg" xmlns:xlink="http://www.w3.org/1999/xlink">
<g id="graph0" class="graph" transform="scale(1 1) rotate(0) translate(4 62)">
<title>wlp::hash_set::contains</title>
<polygon fill="white" stroke="none" points="-4,4 -4,-62 268,-62 268,4 -4,4"/>
<!-- Node1 -->
<g id="node1" class="node"><title>Node1</title>
<polygon fill="#bfbfbf" stroke="black" points="0,-19.5 0,-38.5 120,-38.5 120,-19.5 0,-19.5"/>
<text text-anchor="middle" x="60" y="-26.5" font-family="Helvetica,sans-Serif" font-size="10.00">wlp::hash_set::contains</text>
</g>
<!-- Node2 -->
<g id="node2" class="node"><title>Node2</title>
<g id="a_node2"><a xlink:href="../../dc/d42/classwlp_1_1hash__table.html#ab26b4eb82e432f79028d5192b108fa59" target="_top" xlink:title="wlp::hash_table::end">
<polygon fill="white" stroke="black" points="156.5,-38.5 156.5,-57.5 263.5,-57.5 263.5,-38.5 156.5,-38.5"/>
<text text-anchor="middle" x="210" y="-45.5" font-family="Helvetica,sans-Serif" font-size="10.00">wlp::hash_table::end</text>
</a>
</g>
</g>
<!-- Node1&#45;&gt;Node2 -->
<g id="edge1" class="edge"><title>Node1&#45;&gt;Node2</title>
<path fill="none" stroke="midnightblue" d="M120.344,-36.6185C128.899,-37.7168 137.726,-38.8499 146.343,-39.9561"/>
<polygon fill="midnightblue" stroke="midnightblue" points="145.968,-43.4367 156.332,-41.2386 146.859,-36.4937 145.968,-43.4367"/>
</g>
<!-- Node3 -->
<g id="node3" class="node"><title>Node3</title>
<g id="a_node3"><a xlink:href="../../dc/d42/classwlp_1_1hash__table.html#a46165065f33b12879cdccdf7a0dd473d" target="_top" xlink:title="wlp::hash_table::find">
<polygon fill="white" stroke="black" points="156.5,-0.5 156.5,-19.5 263.5,-19.5 263.5,-0.5 156.5,-0.5"/>
<text text-anchor="middle" x="210" y="-7.5" font-family="Helvetica,sans-Serif" font-size="10.00">wlp::hash_table::find</text>
</a>
</g>
</g>
<!-- Node1&#45;&gt;Node3 -->
<g id="edge2" class="edge"><title>Node1&#45;&gt;Node3</title>
<path fill="none" stroke="midnightblue" d="M120.344,-21.3815C128.899,-20.2832 137.726,-19.1501 146.343,-18.0439"/>
<polygon fill="midnightblue" stroke="midnightblue" points="146.859,-21.5063 156.332,-16.7614 145.968,-14.5633 146.859,-21.5063"/>
</g>
</g>
</svg>
