<?xml version="1.0" encoding="UTF-8" standalone="no"?>
<!DOCTYPE svg PUBLIC "-//W3C//DTD SVG 1.1//EN"
 "http://www.w3.org/Graphics/SVG/1.1/DTD/svg11.dtd">
<!-- Generated by graphviz version 2.36.0 (20140111.2315)
 -->
<!-- Title: wlp::state_base::invoke_state_action Pages: 1 -->
<svg width="266pt" height="38pt"
 viewBox="0.00 0.00 266.00 38.00" xmlns="http://www.w3.org/2000/svg" xmlns:xlink="http://www.w3.org/1999/xlink">
<g id="graph0" class="graph" transform="scale(1 1) rotate(0) translate(4 34)">
<title>wlp::state_base::invoke_state_action</title>
<polygon fill="white" stroke="none" points="-4,4 -4,-34 262,-34 262,4 -4,4"/>
<!-- Node1 -->
<g id="node1" class="node"><title>Node1</title>
<polygon fill="#bfbfbf" stroke="black" points="0,-0 0,-30 120,-30 120,-0 0,-0"/>
<text text-anchor="start" x="8" y="-18" font-family="Helvetica,sans-Serif" font-size="10.00">wlp::state_base::invoke</text>
<text text-anchor="middle" x="60" y="-7" font-family="Helvetica,sans-Serif" font-size="10.00">_state_action</text>
</g>
<!-- Node2 -->
<g id="node2" class="node"><title>Node2</title>
<g id="a_node2"><a xlink:href="../../d3/d91/classwlp_1_1state__machine.html#a58002966e736c4daef6ea10d8719236e" target="_top" xlink:title="wlp::state_machine\l::state_engine">
<polygon fill="white" stroke="black" points="156.5,-0 156.5,-30 257.5,-30 257.5,-0 156.5,-0"/>
<text text-anchor="start" x="164.5" y="-18" font-family="Helvetica,sans-Serif" font-size="10.00">wlp::state_machine</text>
<text text-anchor="middle" x="207" y="-7" font-family="Helvetica,sans-Serif" font-size="10.00">::state_engine</text>
</a>
</g>
</g>
<!-- Node1&#45;&gt;Node2 -->
<g id="edge1" class="edge"><title>Node1&#45;&gt;Node2</title>
<path fill="none" stroke="midnightblue" d="M130.512,-15C139.177,-15 147.899,-15 156.182,-15"/>
<polygon fill="midnightblue" stroke="midnightblue" points="130.395,-11.5001 120.395,-15 130.395,-18.5001 130.395,-11.5001"/>
</g>
</g>
</svg>
