<?xml version="1.0" encoding="UTF-8" standalone="no"?>
<!DOCTYPE svg PUBLIC "-//W3C//DTD SVG 1.1//EN"
 "http://www.w3.org/Graphics/SVG/1.1/DTD/svg11.dtd">
<!-- Generated by graphviz version 2.36.0 (20140111.2315)
 -->
<!-- Title: wlp::is_convertible&lt; From, To &gt; Pages: 1 -->
<svg width="126pt" height="108pt"
 viewBox="0.00 0.00 126.00 108.00" xmlns="http://www.w3.org/2000/svg" xmlns:xlink="http://www.w3.org/1999/xlink">
<g id="graph0" class="graph" transform="scale(1 1) rotate(0) translate(4 104)">
<title>wlp::is_convertible&lt; From, To &gt;</title>
<polygon fill="white" stroke="none" points="-4,4 -4,-104 122,-104 122,4 -4,4"/>
<!-- Node1 -->
<g id="node1" class="node"><title>Node1</title>
<polygon fill="#bfbfbf" stroke="black" points="10,-1 10,-31 108,-31 108,-1 10,-1"/>
<text text-anchor="start" x="18" y="-19" font-family="Helvetica,sans-Serif" font-size="10.00">wlp::is_convertible</text>
<text text-anchor="middle" x="59" y="-8" font-family="Helvetica,sans-Serif" font-size="10.00">&lt; From, To &gt;</text>
</g>
<!-- Node2 -->
<g id="node2" class="node"><title>Node2</title>
<polygon fill="white" stroke="#bfbfbf" points="-0.5,-69 -0.5,-99 118.5,-99 118.5,-69 -0.5,-69"/>
<text text-anchor="start" x="7.5" y="-87" font-family="Helvetica,sans-Serif" font-size="10.00">__convertible__&lt; From,</text>
<text text-anchor="middle" x="59" y="-76" font-family="Helvetica,sans-Serif" font-size="10.00"> To &gt;::type</text>
</g>
<!-- Node2&#45;&gt;Node1 -->
<g id="edge1" class="edge"><title>Node2&#45;&gt;Node1</title>
<path fill="none" stroke="midnightblue" d="M59,-58.5322C59,-49.3606 59,-39.2449 59,-31.2931"/>
<polygon fill="midnightblue" stroke="midnightblue" points="55.5001,-58.6789 59,-68.679 62.5001,-58.679 55.5001,-58.6789"/>
</g>
</g>
</svg>
