<?xml version="1.0" encoding="UTF-8" standalone="no"?>
<!DOCTYPE svg PUBLIC "-//W3C//DTD SVG 1.1//EN"
 "http://www.w3.org/Graphics/SVG/1.1/DTD/svg11.dtd">
<!-- Generated by graphviz version 2.38.0 (20140413.2041)
 -->
<!-- Title: wlp::TupleImpl&lt; IndexSequence&lt; Indices... &gt;, Types... &gt; Pages: 1 -->
<svg width="162pt" height="174pt"
 viewBox="0.00 0.00 162.00 174.00" xmlns="http://www.w3.org/2000/svg" xmlns:xlink="http://www.w3.org/1999/xlink">
<g id="graph0" class="graph" transform="scale(1 1) rotate(0) translate(4 170)">
<title>wlp::TupleImpl&lt; IndexSequence&lt; Indices... &gt;, Types... &gt;</title>
<polygon fill="white" stroke="none" points="-4,4 -4,-170 158,-170 158,4 -4,4"/>
<!-- Node2 -->
<g id="node1" class="node"><title>Node2</title>
<polygon fill="#bfbfbf" stroke="black" points="0,-0.5 0,-30.5 154,-30.5 154,-0.5 0,-0.5"/>
<text text-anchor="start" x="8" y="-18.5" font-family="Helvetica,sans-Serif" font-size="10.00">wlp::TupleImpl&lt; IndexSequence</text>
<text text-anchor="middle" x="77" y="-7.5" font-family="Helvetica,sans-Serif" font-size="10.00">&lt; Indices... &gt;, Types... &gt;</text>
</g>
<!-- Node3 -->
<g id="node2" class="node"><title>Node3</title>
<g id="a_node2"><a xlink:href="../../d1/de1/structwlp_1_1_tuple_element.html" target="_top" xlink:title="wlp::TupleElement\&lt;\l Indices, Types \&gt;">
<polygon fill="white" stroke="black" points="26,-68.5 26,-98.5 128,-98.5 128,-68.5 26,-68.5"/>
<text text-anchor="start" x="34" y="-86.5" font-family="Helvetica,sans-Serif" font-size="10.00">wlp::TupleElement&lt;</text>
<text text-anchor="middle" x="77" y="-75.5" font-family="Helvetica,sans-Serif" font-size="10.00"> Indices, Types &gt;</text>
</a>
</g>
</g>
<!-- Node3&#45;&gt;Node2 -->
<g id="edge1" class="edge"><title>Node3&#45;&gt;Node2</title>
<path fill="none" stroke="midnightblue" d="M77,-58.0322C77,-48.8606 77,-38.7449 77,-30.7931"/>
<polygon fill="midnightblue" stroke="midnightblue" points="73.5001,-58.1789 77,-68.179 80.5001,-58.179 73.5001,-58.1789"/>
</g>
<!-- Node4 -->
<g id="node3" class="node"><title>Node4</title>
<g id="a_node3"><a xlink:href="../../d6/da2/class_types.html" target="_top" xlink:title="Types">
<polygon fill="white" stroke="black" points="55.5,-146.5 55.5,-165.5 98.5,-165.5 98.5,-146.5 55.5,-146.5"/>
<text text-anchor="middle" x="77" y="-153.5" font-family="Helvetica,sans-Serif" font-size="10.00">Types</text>
</a>
</g>
</g>
<!-- Node4&#45;&gt;Node3 -->
<g id="edge2" class="edge"><title>Node4&#45;&gt;Node3</title>
<path fill="none" stroke="#9a32cd" stroke-dasharray="5,2" d="M77,-136.236C77,-124.408 77,-109.383 77,-98.5762"/>
<polygon fill="#9a32cd" stroke="#9a32cd" points="73.5001,-136.355 77,-146.355 80.5001,-136.355 73.5001,-136.355"/>
<text text-anchor="middle" x="89.5" y="-120" font-family="Helvetica,sans-Serif" font-size="10.00"> value</text>
</g>
</g>
</svg>
