<?xml version="1.0" encoding="UTF-8" standalone="no"?>
<!DOCTYPE svg PUBLIC "-//W3C//DTD SVG 1.1//EN"
 "http://www.w3.org/Graphics/SVG/1.1/DTD/svg11.dtd">
<!-- Generated by graphviz version 2.38.0 (20140413.2041)
 -->
<!-- Title: wlp::ArrayListIterator::ArrayListIterator Pages: 1 -->
<svg width="256pt" height="39pt"
 viewBox="0.00 0.00 256.00 39.00" xmlns="http://www.w3.org/2000/svg" xmlns:xlink="http://www.w3.org/1999/xlink">
<g id="graph0" class="graph" transform="scale(1 1) rotate(0) translate(4 35)">
<title>wlp::ArrayListIterator::ArrayListIterator</title>
<polygon fill="white" stroke="none" points="-4,4 -4,-35 252,-35 252,4 -4,4"/>
<!-- Node5 -->
<g id="node1" class="node"><title>Node5</title>
<polygon fill="#bfbfbf" stroke="black" points="0,-0.5 0,-30.5 106,-30.5 106,-0.5 0,-0.5"/>
<text text-anchor="start" x="8" y="-18.5" font-family="Helvetica,sans-Serif" font-size="10.00">wlp::ArrayListIterator</text>
<text text-anchor="middle" x="53" y="-7.5" font-family="Helvetica,sans-Serif" font-size="10.00">::ArrayListIterator</text>
</g>
<!-- Node6 -->
<g id="node2" class="node"><title>Node6</title>
<g id="a_node2"><a xlink:href="../../d0/d32/classwlp_1_1_array_list_iterator.html#a759d4ad8066e25307408e45d90e1a120" target="_top" xlink:title="wlp::ArrayListIterator\l::check_bounds">
<polygon fill="white" stroke="black" points="142,-0.5 142,-30.5 248,-30.5 248,-0.5 142,-0.5"/>
<text text-anchor="start" x="150" y="-18.5" font-family="Helvetica,sans-Serif" font-size="10.00">wlp::ArrayListIterator</text>
<text text-anchor="middle" x="195" y="-7.5" font-family="Helvetica,sans-Serif" font-size="10.00">::check_bounds</text>
</a>
</g>
</g>
<!-- Node5&#45;&gt;Node6 -->
<g id="edge1" class="edge"><title>Node5&#45;&gt;Node6</title>
<path fill="none" stroke="midnightblue" d="M106.131,-15.5C114.421,-15.5 123.07,-15.5 131.568,-15.5"/>
<polygon fill="midnightblue" stroke="midnightblue" points="131.826,-19.0001 141.826,-15.5 131.826,-12.0001 131.826,-19.0001"/>
</g>
</g>
</svg>
