<?xml version="1.0" encoding="UTF-8" standalone="no"?>
<!DOCTYPE svg PUBLIC "-//W3C//DTD SVG 1.1//EN"
 "http://www.w3.org/Graphics/SVG/1.1/DTD/svg11.dtd">
<!-- Generated by graphviz version 2.36.0 (20140111.2315)
 -->
<!-- Title: wlp::ArrayListIterator::operator* Pages: 1 -->
<svg width="260pt" height="38pt"
 viewBox="0.00 0.00 260.00 38.00" xmlns="http://www.w3.org/2000/svg" xmlns:xlink="http://www.w3.org/1999/xlink">
<g id="graph0" class="graph" transform="scale(1 1) rotate(0) translate(4 34)">
<title>wlp::ArrayListIterator::operator*</title>
<polygon fill="white" stroke="none" points="-4,4 -4,-34 256,-34 256,4 -4,4"/>
<!-- Node1 -->
<g id="node1" class="node"><title>Node1</title>
<polygon fill="#bfbfbf" stroke="black" points="0.5,-0 0.5,-30 107.5,-30 107.5,-0 0.5,-0"/>
<text text-anchor="start" x="8.5" y="-18" font-family="Helvetica,sans-Serif" font-size="10.00">wlp::ArrayListIterator</text>
<text text-anchor="middle" x="54" y="-7" font-family="Helvetica,sans-Serif" font-size="10.00">::operator*</text>
</g>
<!-- Node2 -->
<g id="node2" class="node"><title>Node2</title>
<g id="a_node2"><a xlink:href="../../d0/d32/classwlp_1_1_array_list_iterator.html#aeedaa5a0654ac49d4ff4a8c69e6f148c" target="_top" xlink:title="wlp::ArrayListIterator\l::operator&#45;\&gt;">
<polygon fill="white" stroke="black" points="144.5,-0 144.5,-30 251.5,-30 251.5,-0 144.5,-0"/>
<text text-anchor="start" x="152.5" y="-18" font-family="Helvetica,sans-Serif" font-size="10.00">wlp::ArrayListIterator</text>
<text text-anchor="middle" x="198" y="-7" font-family="Helvetica,sans-Serif" font-size="10.00">::operator&#45;&gt;</text>
</a>
</g>
</g>
<!-- Node1&#45;&gt;Node2 -->
<g id="edge1" class="edge"><title>Node1&#45;&gt;Node2</title>
<path fill="none" stroke="midnightblue" d="M117.994,-15C126.704,-15 135.578,-15 144.08,-15"/>
<polygon fill="midnightblue" stroke="midnightblue" points="117.876,-11.5001 107.876,-15 117.876,-18.5001 117.876,-11.5001"/>
</g>
</g>
</svg>
