<?xml version="1.0" encoding="UTF-8" standalone="no"?>
<!DOCTYPE svg PUBLIC "-//W3C//DTD SVG 1.1//EN"
 "http://www.w3.org/Graphics/SVG/1.1/DTD/svg11.dtd">
<!-- Generated by graphviz version 2.36.0 (20140111.2315)
 -->
<!-- Title: strings/String.h Pages: 1 -->
<svg width="813pt" height="252pt"
 viewBox="0.00 0.00 813.00 252.00" xmlns="http://www.w3.org/2000/svg" xmlns:xlink="http://www.w3.org/1999/xlink">
<g id="graph0" class="graph" transform="scale(1 1) rotate(0) translate(4 248)">
<title>strings/String.h</title>
<polygon fill="white" stroke="none" points="-4,4 -4,-248 809,-248 809,4 -4,4"/>
<!-- Node1 -->
<g id="node1" class="node"><title>Node1</title>
<polygon fill="#bfbfbf" stroke="black" points="454.5,-224.5 454.5,-243.5 537.5,-243.5 537.5,-224.5 454.5,-224.5"/>
<text text-anchor="middle" x="496" y="-231.5" font-family="Helvetica,sans-Serif" font-size="10.00">strings/String.h</text>
</g>
<!-- Node2 -->
<g id="node2" class="node"><title>Node2</title>
<g id="a_node2"><a xlink:href="../../de/d6d/_bitset_8h.html" target="_top" xlink:title="Bitset is a class that provides bits manipulation methods. ">
<polygon fill="white" stroke="black" points="146,-168.5 146,-187.5 210,-187.5 210,-168.5 146,-168.5"/>
<text text-anchor="middle" x="178" y="-175.5" font-family="Helvetica,sans-Serif" font-size="10.00">stl/Bitset.h</text>
</a>
</g>
</g>
<!-- Node1&#45;&gt;Node2 -->
<g id="edge1" class="edge"><title>Node1&#45;&gt;Node2</title>
<path fill="none" stroke="midnightblue" d="M444.225,-224.208C378.083,-212.976 265.583,-193.873 210.431,-184.507"/>
<polygon fill="midnightblue" stroke="midnightblue" points="443.982,-227.717 454.427,-225.94 445.154,-220.816 443.982,-227.717"/>
</g>
<!-- Node5 -->
<g id="node5" class="node"><title>Node5</title>
<g id="a_node5"><a xlink:href="../../d7/d0c/_comparator_8h.html" target="_top" xlink:title="Comparator implementation for basic types. ">
<polygon fill="white" stroke="black" points="236.5,-112.5 236.5,-131.5 325.5,-131.5 325.5,-112.5 236.5,-112.5"/>
<text text-anchor="middle" x="281" y="-119.5" font-family="Helvetica,sans-Serif" font-size="10.00">stl/Comparator.h</text>
</a>
</g>
</g>
<!-- Node1&#45;&gt;Node5 -->
<g id="edge4" class="edge"><title>Node1&#45;&gt;Node5</title>
<path fill="none" stroke="midnightblue" d="M470.073,-219.735C425.41,-196.884 335.162,-150.711 297.792,-131.591"/>
<polygon fill="midnightblue" stroke="midnightblue" points="468.633,-222.93 479.129,-224.368 471.821,-216.698 468.633,-222.93"/>
</g>
<!-- Node10 -->
<g id="node10" class="node"><title>Node10</title>
<g id="a_node10"><a xlink:href="../../d2/dc2/_equal_8h.html" target="_top" xlink:title="stl/Equal.h">
<polygon fill="white" stroke="black" points="464.5,-168.5 464.5,-187.5 527.5,-187.5 527.5,-168.5 464.5,-168.5"/>
<text text-anchor="middle" x="496" y="-175.5" font-family="Helvetica,sans-Serif" font-size="10.00">stl/Equal.h</text>
</a>
</g>
</g>
<!-- Node1&#45;&gt;Node10 -->
<g id="edge9" class="edge"><title>Node1&#45;&gt;Node10</title>
<path fill="none" stroke="midnightblue" d="M496,-213.805C496,-204.91 496,-194.78 496,-187.751"/>
<polygon fill="midnightblue" stroke="midnightblue" points="492.5,-214.083 496,-224.083 499.5,-214.083 492.5,-214.083"/>
</g>
<!-- Node17 -->
<g id="node17" class="node"><title>Node17</title>
<g id="a_node17"><a xlink:href="../../d2/dad/_hash_8h.html" target="_top" xlink:title="stl/Hash.h">
<polygon fill="white" stroke="black" points="562,-168.5 562,-187.5 624,-187.5 624,-168.5 562,-168.5"/>
<text text-anchor="middle" x="593" y="-175.5" font-family="Helvetica,sans-Serif" font-size="10.00">stl/Hash.h</text>
</a>
</g>
</g>
<!-- Node1&#45;&gt;Node17 -->
<g id="edge21" class="edge"><title>Node1&#45;&gt;Node17</title>
<path fill="none" stroke="midnightblue" d="M520.335,-219.453C538.243,-209.483 562.054,-196.228 577.454,-187.655"/>
<polygon fill="midnightblue" stroke="midnightblue" points="518.62,-216.402 511.585,-224.324 522.025,-222.518 518.62,-216.402"/>
</g>
<!-- Node18 -->
<g id="node18" class="node"><title>Node18</title>
<g id="a_node18"><a xlink:href="../../d9/dae/_string_8cpp.html" target="_top" xlink:title="strings/String.cpp">
<polygon fill="white" stroke="black" points="641.5,-168.5 641.5,-187.5 734.5,-187.5 734.5,-168.5 641.5,-168.5"/>
<text text-anchor="middle" x="688" y="-175.5" font-family="Helvetica,sans-Serif" font-size="10.00">strings/String.cpp</text>
</a>
</g>
</g>
<!-- Node1&#45;&gt;Node18 -->
<g id="edge28" class="edge"><title>Node1&#45;&gt;Node18</title>
<path fill="none" stroke="midnightblue" d="M536.183,-221.699C572.419,-211.507 624.914,-196.743 657.719,-187.516"/>
<polygon fill="midnightblue" stroke="midnightblue" points="535.102,-218.367 526.423,-224.444 536.997,-225.105 535.102,-218.367"/>
</g>
<!-- Node3 -->
<g id="node3" class="node"><title>Node3</title>
<g id="a_node3"><a xlink:href="../../de/d66/_packet_constructor_8h.html" target="_top" xlink:title="comm/PacketConstructor.h">
<polygon fill="white" stroke="black" points="43.5,-112.5 43.5,-131.5 180.5,-131.5 180.5,-112.5 43.5,-112.5"/>
<text text-anchor="middle" x="112" y="-119.5" font-family="Helvetica,sans-Serif" font-size="10.00">comm/PacketConstructor.h</text>
</a>
</g>
</g>
<!-- Node2&#45;&gt;Node3 -->
<g id="edge2" class="edge"><title>Node2&#45;&gt;Node3</title>
<path fill="none" stroke="midnightblue" d="M159.446,-161.82C147.622,-152.145 132.714,-139.948 122.797,-131.834"/>
<polygon fill="midnightblue" stroke="midnightblue" points="157.44,-164.7 167.396,-168.324 161.873,-159.283 157.44,-164.7"/>
</g>
<!-- Node4 -->
<g id="node4" class="node"><title>Node4</title>
<g id="a_node4"><a xlink:href="../../d9/dde/_packet_constructor_8cpp.html" target="_top" xlink:title="Creates a packet for sending data from the slave systems to the main computer. ">
<polygon fill="white" stroke="black" points="-0.5,-56.5 -0.5,-75.5 146.5,-75.5 146.5,-56.5 -0.5,-56.5"/>
<text text-anchor="middle" x="73" y="-63.5" font-family="Helvetica,sans-Serif" font-size="10.00">comm/PacketConstructor.cpp</text>
</a>
</g>
</g>
<!-- Node3&#45;&gt;Node4 -->
<g id="edge3" class="edge"><title>Node3&#45;&gt;Node4</title>
<path fill="none" stroke="midnightblue" d="M99.6178,-103.855C92.8646,-94.5048 84.7914,-83.3265 79.3202,-75.7511"/>
<polygon fill="midnightblue" stroke="midnightblue" points="96.8676,-106.025 105.56,-112.083 102.542,-101.927 96.8676,-106.025"/>
</g>
<!-- Node6 -->
<g id="node6" class="node"><title>Node6</title>
<g id="a_node6"><a xlink:href="../../df/d03/_array_heap_8h.html" target="_top" xlink:title="Heap manipulation and implementation. ">
<polygon fill="white" stroke="black" points="283.5,-56.5 283.5,-75.5 368.5,-75.5 368.5,-56.5 283.5,-56.5"/>
<text text-anchor="middle" x="326" y="-63.5" font-family="Helvetica,sans-Serif" font-size="10.00">stl/ArrayHeap.h</text>
</a>
</g>
</g>
<!-- Node5&#45;&gt;Node6 -->
<g id="edge5" class="edge"><title>Node5&#45;&gt;Node6</title>
<path fill="none" stroke="midnightblue" d="M295.047,-104.144C302.887,-94.7357 312.329,-83.4046 318.707,-75.7511"/>
<polygon fill="midnightblue" stroke="midnightblue" points="292.144,-102.16 288.431,-112.083 297.521,-106.641 292.144,-102.16"/>
</g>
<!-- Node7 -->
<g id="node7" class="node"><title>Node7</title>
<g id="a_node7"><a xlink:href="../../d5/d08/_red_black_tree_8h.html" target="_top" xlink:title="Red black tree implementation. ">
<polygon fill="white" stroke="black" points="164.5,-56.5 164.5,-75.5 265.5,-75.5 265.5,-56.5 164.5,-56.5"/>
<text text-anchor="middle" x="215" y="-63.5" font-family="Helvetica,sans-Serif" font-size="10.00">stl/RedBlackTree.h</text>
</a>
</g>
</g>
<!-- Node5&#45;&gt;Node7 -->
<g id="edge6" class="edge"><title>Node5&#45;&gt;Node7</title>
<path fill="none" stroke="midnightblue" d="M262.446,-105.82C250.622,-96.1452 235.714,-83.9481 225.797,-75.8339"/>
<polygon fill="midnightblue" stroke="midnightblue" points="260.44,-108.7 270.396,-112.324 264.873,-103.283 260.44,-108.7"/>
</g>
<!-- Node8 -->
<g id="node8" class="node"><title>Node8</title>
<g id="a_node8"><a xlink:href="../../df/d87/_tree_map_8h.html" target="_top" xlink:title="Map implementation using red black tree. ">
<polygon fill="white" stroke="black" points="129.5,-0.5 129.5,-19.5 206.5,-19.5 206.5,-0.5 129.5,-0.5"/>
<text text-anchor="middle" x="168" y="-7.5" font-family="Helvetica,sans-Serif" font-size="10.00">stl/TreeMap.h</text>
</a>
</g>
</g>
<!-- Node7&#45;&gt;Node8 -->
<g id="edge7" class="edge"><title>Node7&#45;&gt;Node8</title>
<path fill="none" stroke="midnightblue" d="M200.579,-48.4314C192.342,-38.9673 182.346,-27.4827 175.617,-19.7511"/>
<polygon fill="midnightblue" stroke="midnightblue" points="198.034,-50.8378 207.239,-56.083 203.314,-46.2421 198.034,-50.8378"/>
</g>
<!-- Node9 -->
<g id="node9" class="node"><title>Node9</title>
<g id="a_node9"><a xlink:href="../../dd/dba/_tree_set_8h.html" target="_top" xlink:title="Set implementation using red black tree. ">
<polygon fill="white" stroke="black" points="224.5,-0.5 224.5,-19.5 297.5,-19.5 297.5,-0.5 224.5,-0.5"/>
<text text-anchor="middle" x="261" y="-7.5" font-family="Helvetica,sans-Serif" font-size="10.00">stl/TreeSet.h</text>
</a>
</g>
</g>
<!-- Node7&#45;&gt;Node9 -->
<g id="edge8" class="edge"><title>Node7&#45;&gt;Node9</title>
<path fill="none" stroke="midnightblue" d="M229.114,-48.4314C237.176,-38.9673 246.959,-27.4827 253.545,-19.7511"/>
<polygon fill="midnightblue" stroke="midnightblue" points="226.416,-46.2009 222.596,-56.083 231.745,-50.7402 226.416,-46.2009"/>
</g>
<!-- Node10&#45;&gt;Node5 -->
<g id="edge10" class="edge"><title>Node10&#45;&gt;Node5</title>
<path fill="none" stroke="midnightblue" d="M454.42,-166.557C413.814,-156.358 352.771,-141.026 314.986,-131.536"/>
<polygon fill="midnightblue" stroke="midnightblue" points="453.725,-169.991 464.276,-169.032 455.43,-163.202 453.725,-169.991"/>
</g>
<!-- Node11 -->
<g id="node11" class="node"><title>Node11</title>
<g id="a_node11"><a xlink:href="../../dd/d0b/_hash_map_8h.html" target="_top" xlink:title="stl/HashMap.h">
<polygon fill="white" stroke="black" points="482,-56.5 482,-75.5 562,-75.5 562,-56.5 482,-56.5"/>
<text text-anchor="middle" x="522" y="-63.5" font-family="Helvetica,sans-Serif" font-size="10.00">stl/HashMap.h</text>
</a>
</g>
</g>
<!-- Node10&#45;&gt;Node11 -->
<g id="edge11" class="edge"><title>Node10&#45;&gt;Node11</title>
<path fill="none" stroke="midnightblue" d="M500.409,-158.348C506.104,-134.254 515.782,-93.3079 519.969,-75.5914"/>
<polygon fill="midnightblue" stroke="midnightblue" points="496.934,-157.832 498.04,-168.368 503.747,-159.442 496.934,-157.832"/>
</g>
<!-- Node12 -->
<g id="node12" class="node"><title>Node12</title>
<g id="a_node12"><a xlink:href="../../de/def/_hash_table_8h.html" target="_top" xlink:title="stl/HashTable.h">
<polygon fill="white" stroke="black" points="382,-112.5 382,-131.5 468,-131.5 468,-112.5 382,-112.5"/>
<text text-anchor="middle" x="425" y="-119.5" font-family="Helvetica,sans-Serif" font-size="10.00">stl/HashTable.h</text>
</a>
</g>
</g>
<!-- Node10&#45;&gt;Node12 -->
<g id="edge12" class="edge"><title>Node10&#45;&gt;Node12</title>
<path fill="none" stroke="midnightblue" d="M476.41,-162.101C463.632,-152.382 447.387,-140.027 436.615,-131.834"/>
<polygon fill="midnightblue" stroke="midnightblue" points="474.514,-165.056 484.593,-168.324 478.752,-159.484 474.514,-165.056"/>
</g>
<!-- Node13 -->
<g id="node13" class="node"><title>Node13</title>
<g id="a_node13"><a xlink:href="../../d2/dfc/_hash_set_8h.html" target="_top" xlink:title="stl/HashSet.h">
<polygon fill="white" stroke="black" points="386.5,-56.5 386.5,-75.5 463.5,-75.5 463.5,-56.5 386.5,-56.5"/>
<text text-anchor="middle" x="425" y="-63.5" font-family="Helvetica,sans-Serif" font-size="10.00">stl/HashSet.h</text>
</a>
</g>
</g>
<!-- Node10&#45;&gt;Node13 -->
<g id="edge15" class="edge"><title>Node10&#45;&gt;Node13</title>
<path fill="none" stroke="midnightblue" d="M454.521,-173.754C426.451,-169.147 391.273,-158.143 373,-132 358.263,-110.916 389.16,-87.7272 409.355,-75.5537"/>
<polygon fill="midnightblue" stroke="midnightblue" points="454.102,-177.229 464.497,-175.177 455.092,-170.299 454.102,-177.229"/>
</g>
<!-- Node14 -->
<g id="node14" class="node"><title>Node14</title>
<g id="a_node14"><a xlink:href="../../d5/d7a/_open_map_8h.html" target="_top" xlink:title="Hash map implementation. ">
<polygon fill="white" stroke="black" points="725,-56.5 725,-75.5 805,-75.5 805,-56.5 725,-56.5"/>
<text text-anchor="middle" x="765" y="-63.5" font-family="Helvetica,sans-Serif" font-size="10.00">stl/OpenMap.h</text>
</a>
</g>
</g>
<!-- Node10&#45;&gt;Node14 -->
<g id="edge16" class="edge"><title>Node10&#45;&gt;Node14</title>
<path fill="none" stroke="midnightblue" d="M537.682,-170.077C603.59,-158.991 725.249,-137.898 733,-132 751.618,-117.833 760.074,-89.9391 763.307,-75.7442"/>
<polygon fill="midnightblue" stroke="midnightblue" points="536.891,-166.661 527.608,-171.767 538.049,-173.564 536.891,-166.661"/>
</g>
<!-- Node15 -->
<g id="node15" class="node"><title>Node15</title>
<g id="a_node15"><a xlink:href="../../d8/d2e/_open_table_8h.html" target="_top" xlink:title="stl/OpenTable.h">
<polygon fill="white" stroke="black" points="638,-112.5 638,-131.5 724,-131.5 724,-112.5 638,-112.5"/>
<text text-anchor="middle" x="681" y="-119.5" font-family="Helvetica,sans-Serif" font-size="10.00">stl/OpenTable.h</text>
</a>
</g>
</g>
<!-- Node10&#45;&gt;Node15 -->
<g id="edge17" class="edge"><title>Node10&#45;&gt;Node15</title>
<path fill="none" stroke="midnightblue" d="M535.166,-165.568C570.065,-155.381 620.349,-140.703 651.823,-131.516"/>
<polygon fill="midnightblue" stroke="midnightblue" points="533.933,-162.282 525.314,-168.444 535.894,-169.001 533.933,-162.282"/>
</g>
<!-- Node16 -->
<g id="node16" class="node"><title>Node16</title>
<g id="a_node16"><a xlink:href="../../d0/de6/_open_set_8h.html" target="_top" xlink:title="Hash set implementation. ">
<polygon fill="white" stroke="black" points="629.5,-56.5 629.5,-75.5 706.5,-75.5 706.5,-56.5 629.5,-56.5"/>
<text text-anchor="middle" x="668" y="-63.5" font-family="Helvetica,sans-Serif" font-size="10.00">stl/OpenSet.h</text>
</a>
</g>
</g>
<!-- Node10&#45;&gt;Node16 -->
<g id="edge20" class="edge"><title>Node10&#45;&gt;Node16</title>
<path fill="none" stroke="midnightblue" d="M518.338,-162.714C554.582,-139.535 625.109,-94.4303 654.566,-75.5914"/>
<polygon fill="midnightblue" stroke="midnightblue" points="516.035,-160.032 509.497,-168.368 519.807,-165.929 516.035,-160.032"/>
</g>
<!-- Node12&#45;&gt;Node11 -->
<g id="edge13" class="edge"><title>Node12&#45;&gt;Node11</title>
<path fill="none" stroke="midnightblue" d="M449.335,-107.453C467.243,-97.4835 491.054,-84.2279 506.454,-75.6545"/>
<polygon fill="midnightblue" stroke="midnightblue" points="447.62,-104.402 440.585,-112.324 451.025,-110.518 447.62,-104.402"/>
</g>
<!-- Node12&#45;&gt;Node13 -->
<g id="edge14" class="edge"><title>Node12&#45;&gt;Node13</title>
<path fill="none" stroke="midnightblue" d="M425,-101.805C425,-92.9102 425,-82.7798 425,-75.7511"/>
<polygon fill="midnightblue" stroke="midnightblue" points="421.5,-102.083 425,-112.083 428.5,-102.083 421.5,-102.083"/>
</g>
<!-- Node15&#45;&gt;Node14 -->
<g id="edge18" class="edge"><title>Node15&#45;&gt;Node14</title>
<path fill="none" stroke="midnightblue" d="M702.932,-106.901C718.335,-96.9986 738.446,-84.0705 751.537,-75.6545"/>
<polygon fill="midnightblue" stroke="midnightblue" points="701.015,-103.972 694.496,-112.324 704.801,-109.86 701.015,-103.972"/>
</g>
<!-- Node15&#45;&gt;Node16 -->
<g id="edge19" class="edge"><title>Node15&#45;&gt;Node16</title>
<path fill="none" stroke="midnightblue" d="M676.45,-102.101C674.292,-93.1357 671.818,-82.8579 670.107,-75.7511"/>
<polygon fill="midnightblue" stroke="midnightblue" points="673.11,-103.18 678.853,-112.083 679.915,-101.542 673.11,-103.18"/>
</g>
<!-- Node17&#45;&gt;Node11 -->
<g id="edge22" class="edge"><title>Node17&#45;&gt;Node11</title>
<path fill="none" stroke="midnightblue" d="M582,-159.957C566.613,-136.118 539.239,-93.7088 527.545,-75.5914"/>
<polygon fill="midnightblue" stroke="midnightblue" points="579.065,-161.865 587.429,-168.368 584.946,-158.069 579.065,-161.865"/>
</g>
<!-- Node17&#45;&gt;Node12 -->
<g id="edge23" class="edge"><title>Node17&#45;&gt;Node12</title>
<path fill="none" stroke="midnightblue" d="M556.614,-165.304C524.958,-155.129 479.832,-140.625 451.496,-131.516"/>
<polygon fill="midnightblue" stroke="midnightblue" points="555.789,-168.715 566.38,-168.444 557.931,-162.051 555.789,-168.715"/>
</g>
<!-- Node17&#45;&gt;Node13 -->
<g id="edge24" class="edge"><title>Node17&#45;&gt;Node13</title>
<path fill="none" stroke="midnightblue" d="M571.181,-162.714C535.78,-139.535 466.893,-94.4303 438.121,-75.5914"/>
<polygon fill="midnightblue" stroke="midnightblue" points="569.534,-165.819 579.817,-168.368 573.368,-159.962 569.534,-165.819"/>
</g>
<!-- Node17&#45;&gt;Node14 -->
<g id="edge25" class="edge"><title>Node17&#45;&gt;Node14</title>
<path fill="none" stroke="midnightblue" d="M634.15,-167.49C677.885,-157.027 741.874,-140.563 750,-132 764.669,-116.543 766,-89.7262 765.589,-75.8646"/>
<polygon fill="midnightblue" stroke="midnightblue" points="633.256,-164.105 624.334,-169.819 634.872,-170.916 633.256,-164.105"/>
</g>
<!-- Node17&#45;&gt;Node15 -->
<g id="edge26" class="edge"><title>Node17&#45;&gt;Node15</title>
<path fill="none" stroke="midnightblue" d="M615.977,-162.901C632.113,-152.999 653.181,-140.071 666.896,-131.655"/>
<polygon fill="midnightblue" stroke="midnightblue" points="613.831,-160.111 607.139,-168.324 617.493,-166.077 613.831,-160.111"/>
</g>
<!-- Node17&#45;&gt;Node16 -->
<g id="edge27" class="edge"><title>Node17&#45;&gt;Node16</title>
<path fill="none" stroke="midnightblue" d="M634.288,-166.37C673.372,-155.892 726.96,-140.286 733,-132 749.452,-109.432 713.036,-87.3439 688.345,-75.6259"/>
<polygon fill="midnightblue" stroke="midnightblue" points="632.969,-163.098 624.202,-169.046 634.765,-169.864 632.969,-163.098"/>
</g>
</g>
</svg>
