<?xml version="1.0" encoding="UTF-8" standalone="no"?>
<!DOCTYPE svg PUBLIC "-//W3C//DTD SVG 1.1//EN"
 "http://www.w3.org/Graphics/SVG/1.1/DTD/svg11.dtd">
<!-- Generated by graphviz version 2.38.0 (20140413.2041)
 -->
<!-- Title: strings/String.h Pages: 1 -->
<svg width="629pt" height="308pt"
 viewBox="0.00 0.00 629.00 308.00" xmlns="http://www.w3.org/2000/svg" xmlns:xlink="http://www.w3.org/1999/xlink">
<g id="graph0" class="graph" transform="scale(1 1) rotate(0) translate(4 304)">
<title>strings/String.h</title>
<polygon fill="white" stroke="none" points="-4,4 -4,-304 625,-304 625,4 -4,4"/>
<!-- Node12 -->
<g id="node1" class="node"><title>Node12</title>
<polygon fill="#bfbfbf" stroke="black" points="308.5,-280.5 308.5,-299.5 391.5,-299.5 391.5,-280.5 308.5,-280.5"/>
<text text-anchor="middle" x="350" y="-287.5" font-family="Helvetica,sans-Serif" font-size="10.00">strings/String.h</text>
</g>
<!-- Node13 -->
<g id="node2" class="node"><title>Node13</title>
<g id="a_node2"><a xlink:href="../../d0/d55/_allocator_8cpp.html" target="_top" xlink:title="Implementation of Allocator. ">
<polygon fill="white" stroke="black" points="0,-224.5 0,-243.5 112,-243.5 112,-224.5 0,-224.5"/>
<text text-anchor="middle" x="56" y="-231.5" font-family="Helvetica,sans-Serif" font-size="10.00">memory/Allocator.cpp</text>
</a>
</g>
</g>
<!-- Node12&#45;&gt;Node13 -->
<g id="edge1" class="edge"><title>Node12&#45;&gt;Node13</title>
<path fill="none" stroke="midnightblue" d="M298.231,-279.491C242.846,-269.319 155.795,-253.33 102.517,-243.544"/>
<polygon fill="midnightblue" stroke="midnightblue" points="297.721,-282.956 308.189,-281.32 298.986,-276.071 297.721,-282.956"/>
</g>
<!-- Node14 -->
<g id="node3" class="node"><title>Node14</title>
<g id="a_node3"><a xlink:href="../../df/d64/_memory_8cpp.html" target="_top" xlink:title="Implementation of Memory functions. ">
<polygon fill="white" stroke="black" points="130.5,-224.5 130.5,-243.5 239.5,-243.5 239.5,-224.5 130.5,-224.5"/>
<text text-anchor="middle" x="185" y="-231.5" font-family="Helvetica,sans-Serif" font-size="10.00">memory/Memory.cpp</text>
</a>
</g>
</g>
<!-- Node12&#45;&gt;Node14 -->
<g id="edge2" class="edge"><title>Node12&#45;&gt;Node14</title>
<path fill="none" stroke="midnightblue" d="M314.264,-277.304C283.173,-267.129 238.853,-252.625 211.022,-243.516"/>
<polygon fill="midnightblue" stroke="midnightblue" points="313.263,-280.659 323.855,-280.444 315.44,-274.007 313.263,-280.659"/>
</g>
<!-- Node15 -->
<g id="node4" class="node"><title>Node15</title>
<g id="a_node4"><a xlink:href="../../d7/d0c/_comparator_8h.html" target="_top" xlink:title="Comparator implementation for basic types. ">
<polygon fill="white" stroke="black" points="387.5,-112.5 387.5,-131.5 476.5,-131.5 476.5,-112.5 387.5,-112.5"/>
<text text-anchor="middle" x="432" y="-119.5" font-family="Helvetica,sans-Serif" font-size="10.00">stl/Comparator.h</text>
</a>
</g>
</g>
<!-- Node12&#45;&gt;Node15 -->
<g id="edge3" class="edge"><title>Node12&#45;&gt;Node15</title>
<path fill="none" stroke="midnightblue" d="M378.086,-275.535C390.754,-268.018 404.704,-257.436 413,-244 435.678,-207.271 434.337,-152.707 432.81,-131.689"/>
<polygon fill="midnightblue" stroke="midnightblue" points="376.24,-272.556 369.189,-280.464 379.632,-278.679 376.24,-272.556"/>
</g>
<!-- Node20 -->
<g id="node9" class="node"><title>Node20</title>
<g id="a_node9"><a xlink:href="../../d2/dc2/_equal_8h.html" target="_top" xlink:title="stl/Equal.h">
<polygon fill="white" stroke="black" points="253.5,-168.5 253.5,-187.5 316.5,-187.5 316.5,-168.5 253.5,-168.5"/>
<text text-anchor="middle" x="285" y="-175.5" font-family="Helvetica,sans-Serif" font-size="10.00">stl/Equal.h</text>
</a>
</g>
</g>
<!-- Node12&#45;&gt;Node20 -->
<g id="edge8" class="edge"><title>Node12&#45;&gt;Node20</title>
<path fill="none" stroke="midnightblue" d="M320.634,-275.66C307.942,-268.258 294.339,-257.737 287,-244 277.318,-225.876 280.392,-200.669 282.978,-187.611"/>
<polygon fill="midnightblue" stroke="midnightblue" points="319.149,-278.836 329.612,-280.5 322.471,-272.674 319.149,-278.836"/>
</g>
<!-- Node25 -->
<g id="node14" class="node"><title>Node25</title>
<g id="a_node14"><a xlink:href="../../d8/d65/_static_string_8h.html" target="_top" xlink:title="StaticString provides a String that is on stack and is of fixed size. ">
<polygon fill="white" stroke="black" points="296,-224.5 296,-243.5 404,-243.5 404,-224.5 296,-224.5"/>
<text text-anchor="middle" x="350" y="-231.5" font-family="Helvetica,sans-Serif" font-size="10.00">strings/StaticString.h</text>
</a>
</g>
</g>
<!-- Node12&#45;&gt;Node25 -->
<g id="edge15" class="edge"><title>Node12&#45;&gt;Node25</title>
<path fill="none" stroke="midnightblue" d="M343.528,-270.101C342.896,-261.136 343.343,-250.858 344.869,-243.751"/>
<polygon fill="midnightblue" stroke="midnightblue" points="340.066,-270.622 344.834,-280.083 347.007,-269.713 340.066,-270.622"/>
</g>
<!-- Node27 -->
<g id="node16" class="node"><title>Node27</title>
<g id="a_node16"><a xlink:href="../../d6/d60/_dynamic_string_8h.html" target="_top" xlink:title="DynamicString is a class that provides dynamic strings and functions for dynamic strings. ">
<polygon fill="white" stroke="black" points="462.5,-224.5 462.5,-243.5 583.5,-243.5 583.5,-224.5 462.5,-224.5"/>
<text text-anchor="middle" x="523" y="-231.5" font-family="Helvetica,sans-Serif" font-size="10.00">strings/DynamicString.h</text>
</a>
</g>
</g>
<!-- Node12&#45;&gt;Node27 -->
<g id="edge23" class="edge"><title>Node12&#45;&gt;Node27</title>
<path fill="none" stroke="midnightblue" d="M387.047,-277.436C419.664,-267.255 466.41,-252.664 495.716,-243.516"/>
<polygon fill="midnightblue" stroke="midnightblue" points="385.915,-274.123 377.412,-280.444 388.001,-280.805 385.915,-274.123"/>
</g>
<!-- Node16 -->
<g id="node5" class="node"><title>Node16</title>
<g id="a_node5"><a xlink:href="../../df/d03/_array_heap_8h.html" target="_top" xlink:title="Heap manipulation and implementation. ">
<polygon fill="white" stroke="black" points="387,-56.5 387,-75.5 471,-75.5 471,-56.5 387,-56.5"/>
<text text-anchor="middle" x="429" y="-63.5" font-family="Helvetica,sans-Serif" font-size="10.00">stl/ArrayHeap.h</text>
</a>
</g>
</g>
<!-- Node15&#45;&gt;Node16 -->
<g id="edge4" class="edge"><title>Node15&#45;&gt;Node16</title>
<path fill="none" stroke="midnightblue" d="M430.934,-101.805C430.439,-92.9102 429.877,-82.7798 429.486,-75.7511"/>
<polygon fill="midnightblue" stroke="midnightblue" points="427.455,-102.293 431.505,-112.083 434.444,-101.904 427.455,-102.293"/>
</g>
<!-- Node17 -->
<g id="node6" class="node"><title>Node17</title>
<g id="a_node6"><a xlink:href="../../d5/d08/_red_black_tree_8h.html" target="_top" xlink:title="Red black tree implementation. ">
<polygon fill="white" stroke="black" points="489.5,-56.5 489.5,-75.5 588.5,-75.5 588.5,-56.5 489.5,-56.5"/>
<text text-anchor="middle" x="539" y="-63.5" font-family="Helvetica,sans-Serif" font-size="10.00">stl/RedBlackTree.h</text>
</a>
</g>
</g>
<!-- Node15&#45;&gt;Node17 -->
<g id="edge5" class="edge"><title>Node15&#45;&gt;Node17</title>
<path fill="none" stroke="midnightblue" d="M458.302,-107.726C478.115,-97.7271 504.707,-84.3065 521.851,-75.6545"/>
<polygon fill="midnightblue" stroke="midnightblue" points="456.542,-104.694 449.191,-112.324 459.696,-110.943 456.542,-104.694"/>
</g>
<!-- Node18 -->
<g id="node7" class="node"><title>Node18</title>
<g id="a_node7"><a xlink:href="../../df/d87/_tree_map_8h.html" target="_top" xlink:title="Map implementation using red black tree. ">
<polygon fill="white" stroke="black" points="455,-0.5 455,-19.5 531,-19.5 531,-0.5 455,-0.5"/>
<text text-anchor="middle" x="493" y="-7.5" font-family="Helvetica,sans-Serif" font-size="10.00">stl/TreeMap.h</text>
</a>
</g>
</g>
<!-- Node17&#45;&gt;Node18 -->
<g id="edge6" class="edge"><title>Node17&#45;&gt;Node18</title>
<path fill="none" stroke="midnightblue" d="M524.886,-48.4314C516.824,-38.9673 507.041,-27.4827 500.455,-19.7511"/>
<polygon fill="midnightblue" stroke="midnightblue" points="522.255,-50.7402 531.404,-56.083 527.584,-46.2009 522.255,-50.7402"/>
</g>
<!-- Node19 -->
<g id="node8" class="node"><title>Node19</title>
<g id="a_node8"><a xlink:href="../../dd/dba/_tree_set_8h.html" target="_top" xlink:title="Set implementation using red black tree. ">
<polygon fill="white" stroke="black" points="549,-0.5 549,-19.5 621,-19.5 621,-0.5 549,-0.5"/>
<text text-anchor="middle" x="585" y="-7.5" font-family="Helvetica,sans-Serif" font-size="10.00">stl/TreeSet.h</text>
</a>
</g>
</g>
<!-- Node17&#45;&gt;Node19 -->
<g id="edge7" class="edge"><title>Node17&#45;&gt;Node19</title>
<path fill="none" stroke="midnightblue" d="M553.114,-48.4314C561.176,-38.9673 570.959,-27.4827 577.545,-19.7511"/>
<polygon fill="midnightblue" stroke="midnightblue" points="550.416,-46.2009 546.596,-56.083 555.745,-50.7402 550.416,-46.2009"/>
</g>
<!-- Node20&#45;&gt;Node15 -->
<g id="edge9" class="edge"><title>Node20&#45;&gt;Node15</title>
<path fill="none" stroke="midnightblue" d="M317.923,-164.906C345.56,-154.754 384.344,-140.506 408.816,-131.516"/>
<polygon fill="midnightblue" stroke="midnightblue" points="316.472,-161.71 308.293,-168.444 318.886,-168.281 316.472,-161.71"/>
</g>
<!-- Node21 -->
<g id="node10" class="node"><title>Node21</title>
<g id="a_node10"><a xlink:href="../../d3/dbe/_chain_map_8h.html" target="_top" xlink:title="Hasher map implementation. ">
<polygon fill="white" stroke="black" points="287,-112.5 287,-131.5 369,-131.5 369,-112.5 287,-112.5"/>
<text text-anchor="middle" x="328" y="-119.5" font-family="Helvetica,sans-Serif" font-size="10.00">stl/ChainMap.h</text>
</a>
</g>
</g>
<!-- Node20&#45;&gt;Node21 -->
<g id="edge10" class="edge"><title>Node20&#45;&gt;Node21</title>
<path fill="none" stroke="midnightblue" d="M298.422,-160.144C305.914,-150.736 314.937,-139.405 321.032,-131.751"/>
<polygon fill="midnightblue" stroke="midnightblue" points="295.592,-158.08 292.101,-168.083 301.068,-162.44 295.592,-158.08"/>
</g>
<!-- Node23 -->
<g id="node12" class="node"><title>Node23</title>
<g id="a_node12"><a xlink:href="../../d5/d7a/_open_map_8h.html" target="_top" xlink:title="Hash map implementation. ">
<polygon fill="white" stroke="black" points="151,-112.5 151,-131.5 231,-131.5 231,-112.5 151,-112.5"/>
<text text-anchor="middle" x="191" y="-119.5" font-family="Helvetica,sans-Serif" font-size="10.00">stl/OpenMap.h</text>
</a>
</g>
</g>
<!-- Node20&#45;&gt;Node23 -->
<g id="edge12" class="edge"><title>Node20&#45;&gt;Node23</title>
<path fill="none" stroke="midnightblue" d="M260.938,-163.177C243.641,-153.241 220.852,-140.149 206.065,-131.655"/>
<polygon fill="midnightblue" stroke="midnightblue" points="259.483,-166.378 269.897,-168.324 262.97,-160.308 259.483,-166.378"/>
</g>
<!-- Node24 -->
<g id="node13" class="node"><title>Node24</title>
<g id="a_node13"><a xlink:href="../../d0/de6/_open_set_8h.html" target="_top" xlink:title="Hash set implementation. ">
<polygon fill="white" stroke="black" points="152.5,-56.5 152.5,-75.5 229.5,-75.5 229.5,-56.5 152.5,-56.5"/>
<text text-anchor="middle" x="191" y="-63.5" font-family="Helvetica,sans-Serif" font-size="10.00">stl/OpenSet.h</text>
</a>
</g>
</g>
<!-- Node20&#45;&gt;Node24 -->
<g id="edge14" class="edge"><title>Node20&#45;&gt;Node24</title>
<path fill="none" stroke="midnightblue" d="M274.302,-159.356C265.747,-145.824 253.06,-126.989 240,-112 228.012,-98.241 212.156,-84.3244 201.774,-75.6857"/>
<polygon fill="midnightblue" stroke="midnightblue" points="271.504,-161.485 279.748,-168.14 277.454,-157.797 271.504,-161.485"/>
</g>
<!-- Node22 -->
<g id="node11" class="node"><title>Node22</title>
<g id="a_node11"><a xlink:href="../../d6/d59/_chain_set_8h.html" target="_top" xlink:title="Hash set implementation. ">
<polygon fill="white" stroke="black" points="289,-56.5 289,-75.5 367,-75.5 367,-56.5 289,-56.5"/>
<text text-anchor="middle" x="328" y="-63.5" font-family="Helvetica,sans-Serif" font-size="10.00">stl/ChainSet.h</text>
</a>
</g>
</g>
<!-- Node21&#45;&gt;Node22 -->
<g id="edge11" class="edge"><title>Node21&#45;&gt;Node22</title>
<path fill="none" stroke="midnightblue" d="M328,-101.805C328,-92.9102 328,-82.7798 328,-75.7511"/>
<polygon fill="midnightblue" stroke="midnightblue" points="324.5,-102.083 328,-112.083 331.5,-102.083 324.5,-102.083"/>
</g>
<!-- Node23&#45;&gt;Node24 -->
<g id="edge13" class="edge"><title>Node23&#45;&gt;Node24</title>
<path fill="none" stroke="midnightblue" d="M191,-101.805C191,-92.9102 191,-82.7798 191,-75.7511"/>
<polygon fill="midnightblue" stroke="midnightblue" points="187.5,-102.083 191,-112.083 194.5,-102.083 187.5,-102.083"/>
</g>
<!-- Node25&#45;&gt;Node12 -->
<g id="edge22" class="edge"><title>Node25&#45;&gt;Node12</title>
<path fill="none" stroke="midnightblue" d="M356.458,-253.691C357.106,-262.635 356.676,-272.927 355.166,-280.083"/>
<polygon fill="midnightblue" stroke="midnightblue" points="359.923,-253.2 355.131,-243.751 352.985,-254.126 359.923,-253.2"/>
</g>
<!-- Node25&#45;&gt;Node15 -->
<g id="edge16" class="edge"><title>Node25&#45;&gt;Node15</title>
<path fill="none" stroke="midnightblue" d="M362.47,-216.272C380.195,-192.494 412.03,-149.789 425.595,-131.591"/>
<polygon fill="midnightblue" stroke="midnightblue" points="359.605,-214.259 356.434,-224.368 365.217,-218.443 359.605,-214.259"/>
</g>
<!-- Node25&#45;&gt;Node20 -->
<g id="edge17" class="edge"><title>Node25&#45;&gt;Node20</title>
<path fill="none" stroke="midnightblue" d="M331.727,-217.82C320.082,-208.145 305.401,-195.948 295.633,-187.834"/>
<polygon fill="midnightblue" stroke="midnightblue" points="329.628,-220.626 339.557,-224.324 334.101,-215.242 329.628,-220.626"/>
</g>
<!-- Node26 -->
<g id="node15" class="node"><title>Node26</title>
<g id="a_node15"><a xlink:href="../../d2/dad/_hash_8h.html" target="_top" xlink:title="Provides hash functions for basic data types. ">
<polygon fill="white" stroke="black" points="165.5,-168.5 165.5,-187.5 226.5,-187.5 226.5,-168.5 165.5,-168.5"/>
<text text-anchor="middle" x="196" y="-175.5" font-family="Helvetica,sans-Serif" font-size="10.00">stl/Hash.h</text>
</a>
</g>
</g>
<!-- Node25&#45;&gt;Node26 -->
<g id="edge18" class="edge"><title>Node25&#45;&gt;Node26</title>
<path fill="none" stroke="midnightblue" d="M315.889,-221.039C286.913,-210.879 246.038,-196.546 220.288,-187.516"/>
<polygon fill="midnightblue" stroke="midnightblue" points="315.003,-224.437 325.598,-224.444 317.32,-217.832 315.003,-224.437"/>
</g>
<!-- Node26&#45;&gt;Node21 -->
<g id="edge19" class="edge"><title>Node26&#45;&gt;Node21</title>
<path fill="none" stroke="midnightblue" d="M226.219,-164.638C250.99,-154.504 285.4,-140.427 307.182,-131.516"/>
<polygon fill="midnightblue" stroke="midnightblue" points="224.846,-161.418 216.916,-168.444 227.497,-167.897 224.846,-161.418"/>
</g>
<!-- Node26&#45;&gt;Node23 -->
<g id="edge20" class="edge"><title>Node26&#45;&gt;Node23</title>
<path fill="none" stroke="midnightblue" d="M194.25,-158.101C193.42,-149.136 192.468,-138.858 191.81,-131.751"/>
<polygon fill="midnightblue" stroke="midnightblue" points="190.767,-158.448 195.174,-168.083 197.737,-157.803 190.767,-158.448"/>
</g>
<!-- Node26&#45;&gt;Node24 -->
<g id="edge21" class="edge"><title>Node26&#45;&gt;Node24</title>
<path fill="none" stroke="midnightblue" d="M170.823,-163C159.812,-155.401 148.045,-144.906 142,-132 131.51,-109.604 158.26,-87.4529 176.237,-75.6777"/>
<polygon fill="midnightblue" stroke="midnightblue" points="169.057,-166.025 179.367,-168.464 172.828,-160.128 169.057,-166.025"/>
</g>
<!-- Node28 -->
<g id="node17" class="node"><title>Node28</title>
<g id="a_node17"><a xlink:href="../../d9/d8a/_dynamic_string_8cpp.html" target="_top" xlink:title="DynamicString is a class that provides dynamic strings and functions for dynamic strings. ">
<polygon fill="white" stroke="black" points="460.5,-168.5 460.5,-187.5 591.5,-187.5 591.5,-168.5 460.5,-168.5"/>
<text text-anchor="middle" x="526" y="-175.5" font-family="Helvetica,sans-Serif" font-size="10.00">strings/DynamicString.cpp</text>
</a>
</g>
</g>
<!-- Node27&#45;&gt;Node28 -->
<g id="edge24" class="edge"><title>Node27&#45;&gt;Node28</title>
<path fill="none" stroke="midnightblue" d="M524.066,-213.805C524.561,-204.91 525.123,-194.78 525.514,-187.751"/>
<polygon fill="midnightblue" stroke="midnightblue" points="520.556,-213.904 523.495,-224.083 527.545,-214.293 520.556,-213.904"/>
</g>
</g>
</svg>
