<?xml version="1.0" encoding="UTF-8" standalone="no"?>
<!DOCTYPE svg PUBLIC "-//W3C//DTD SVG 1.1//EN"
 "http://www.w3.org/Graphics/SVG/1.1/DTD/svg11.dtd">
<!-- Generated by graphviz version 2.36.0 (20140111.2315)
 -->
<!-- Title: wlib/strings/String.h Pages: 1 -->
<svg width="1018pt" height="252pt"
 viewBox="0.00 0.00 1018.00 252.00" xmlns="http://www.w3.org/2000/svg" xmlns:xlink="http://www.w3.org/1999/xlink">
<g id="graph0" class="graph" transform="scale(1 1) rotate(0) translate(4 248)">
<title>wlib/strings/String.h</title>
<polygon fill="white" stroke="none" points="-4,4 -4,-248 1014,-248 1014,4 -4,4"/>
<!-- Node1 -->
<g id="node1" class="node"><title>Node1</title>
<polygon fill="#bfbfbf" stroke="black" points="530.5,-224.5 530.5,-243.5 633.5,-243.5 633.5,-224.5 530.5,-224.5"/>
<text text-anchor="middle" x="582" y="-231.5" font-family="Helvetica,sans-Serif" font-size="10.00">wlib/strings/String.h</text>
</g>
<!-- Node2 -->
<g id="node2" class="node"><title>Node2</title>
<g id="a_node2"><a xlink:href="../../d2/dc2/_equal_8h.html" target="_top" xlink:title="wlib/stl/Equal.h">
<polygon fill="white" stroke="black" points="433.5,-168.5 433.5,-187.5 516.5,-187.5 516.5,-168.5 433.5,-168.5"/>
<text text-anchor="middle" x="475" y="-175.5" font-family="Helvetica,sans-Serif" font-size="10.00">wlib/stl/Equal.h</text>
</a>
</g>
</g>
<!-- Node1&#45;&gt;Node2 -->
<g id="edge1" class="edge"><title>Node1&#45;&gt;Node2</title>
<path fill="none" stroke="midnightblue" d="M555.698,-219.726C535.885,-209.727 509.293,-196.307 492.149,-187.655"/>
<polygon fill="midnightblue" stroke="midnightblue" points="554.304,-222.943 564.809,-224.324 557.458,-216.694 554.304,-222.943"/>
</g>
<!-- Node3 -->
<g id="node3" class="node"><title>Node3</title>
<g id="a_node3"><a xlink:href="../../d7/d0c/_comparator_8h.html" target="_top" xlink:title="Comparator implementation for basic types. ">
<polygon fill="white" stroke="black" points="168,-112.5 168,-131.5 278,-131.5 278,-112.5 168,-112.5"/>
<text text-anchor="middle" x="223" y="-119.5" font-family="Helvetica,sans-Serif" font-size="10.00">wlib/stl/Comparator.h</text>
</a>
</g>
</g>
<!-- Node1&#45;&gt;Node3 -->
<g id="edge17" class="edge"><title>Node1&#45;&gt;Node3</title>
<path fill="none" stroke="midnightblue" d="M540.848,-221.708C508.893,-212.837 463.521,-200.014 424,-188 360.663,-168.746 286.717,-144.329 248.609,-131.602"/>
<polygon fill="midnightblue" stroke="midnightblue" points="540.155,-225.148 550.727,-224.444 542.023,-218.402 540.155,-225.148"/>
</g>
<!-- Node14 -->
<g id="node14" class="node"><title>Node14</title>
<g id="a_node14"><a xlink:href="../../de/d6d/_bitset_8h.html" target="_top" xlink:title="Bitset is a class that provides bits manipulation methods. ">
<polygon fill="white" stroke="black" points="641,-168.5 641,-187.5 725,-187.5 725,-168.5 641,-168.5"/>
<text text-anchor="middle" x="683" y="-175.5" font-family="Helvetica,sans-Serif" font-size="10.00">wlib/stl/Bitset.h</text>
</a>
</g>
</g>
<!-- Node1&#45;&gt;Node14 -->
<g id="edge18" class="edge"><title>Node1&#45;&gt;Node14</title>
<path fill="none" stroke="midnightblue" d="M607.083,-219.59C625.757,-209.605 650.704,-196.267 666.813,-187.655"/>
<polygon fill="midnightblue" stroke="midnightblue" points="605.396,-216.522 598.227,-224.324 608.696,-222.696 605.396,-216.522"/>
</g>
<!-- Node17 -->
<g id="node17" class="node"><title>Node17</title>
<g id="a_node17"><a xlink:href="../../d2/dad/_hash_8h.html" target="_top" xlink:title="wlib/stl/Hash.h">
<polygon fill="white" stroke="black" points="541,-168.5 541,-187.5 623,-187.5 623,-168.5 541,-168.5"/>
<text text-anchor="middle" x="582" y="-175.5" font-family="Helvetica,sans-Serif" font-size="10.00">wlib/stl/Hash.h</text>
</a>
</g>
</g>
<!-- Node1&#45;&gt;Node17 -->
<g id="edge21" class="edge"><title>Node1&#45;&gt;Node17</title>
<path fill="none" stroke="midnightblue" d="M582,-213.805C582,-204.91 582,-194.78 582,-187.751"/>
<polygon fill="midnightblue" stroke="midnightblue" points="578.5,-214.083 582,-224.083 585.5,-214.083 578.5,-214.083"/>
</g>
<!-- Node18 -->
<g id="node18" class="node"><title>Node18</title>
<g id="a_node18"><a xlink:href="../../d9/dae/_string_8cpp.html" target="_top" xlink:title="wlib/strings/String.cpp">
<polygon fill="white" stroke="black" points="743.5,-168.5 743.5,-187.5 856.5,-187.5 856.5,-168.5 743.5,-168.5"/>
<text text-anchor="middle" x="800" y="-175.5" font-family="Helvetica,sans-Serif" font-size="10.00">wlib/strings/String.cpp</text>
</a>
</g>
</g>
<!-- Node1&#45;&gt;Node18 -->
<g id="edge28" class="edge"><title>Node1&#45;&gt;Node18</title>
<path fill="none" stroke="midnightblue" d="M626.312,-222.024C667.492,-211.823 727.973,-196.841 765.619,-187.516"/>
<polygon fill="midnightblue" stroke="midnightblue" points="625.408,-218.642 616.543,-224.444 627.091,-225.436 625.408,-218.642"/>
</g>
<!-- Node2&#45;&gt;Node3 -->
<g id="edge2" class="edge"><title>Node2&#45;&gt;Node3</title>
<path fill="none" stroke="midnightblue" d="M425.279,-166.346C377.656,-156.141 306.72,-140.94 262.743,-131.516"/>
<polygon fill="midnightblue" stroke="midnightblue" points="424.558,-169.77 435.07,-168.444 426.025,-162.926 424.558,-169.77"/>
</g>
<!-- Node8 -->
<g id="node8" class="node"><title>Node8</title>
<g id="a_node8"><a xlink:href="../../dd/d0b/_hash_map_8h.html" target="_top" xlink:title="wlib/stl/HashMap.h">
<polygon fill="white" stroke="black" points="442.5,-56.5 442.5,-75.5 543.5,-75.5 543.5,-56.5 442.5,-56.5"/>
<text text-anchor="middle" x="493" y="-63.5" font-family="Helvetica,sans-Serif" font-size="10.00">wlib/stl/HashMap.h</text>
</a>
</g>
</g>
<!-- Node2&#45;&gt;Node8 -->
<g id="edge7" class="edge"><title>Node2&#45;&gt;Node8</title>
<path fill="none" stroke="midnightblue" d="M478.052,-158.348C481.995,-134.254 488.695,-93.3079 491.594,-75.5914"/>
<polygon fill="midnightblue" stroke="midnightblue" points="474.573,-157.934 476.412,-168.368 481.481,-159.065 474.573,-157.934"/>
</g>
<!-- Node9 -->
<g id="node9" class="node"><title>Node9</title>
<g id="a_node9"><a xlink:href="../../de/def/_hash_table_8h.html" target="_top" xlink:title="wlib/stl/HashTable.h">
<polygon fill="white" stroke="black" points="334,-112.5 334,-131.5 440,-131.5 440,-112.5 334,-112.5"/>
<text text-anchor="middle" x="387" y="-119.5" font-family="Helvetica,sans-Serif" font-size="10.00">wlib/stl/HashTable.h</text>
</a>
</g>
</g>
<!-- Node2&#45;&gt;Node9 -->
<g id="edge8" class="edge"><title>Node2&#45;&gt;Node9</title>
<path fill="none" stroke="midnightblue" d="M452.023,-162.901C435.887,-152.999 414.819,-140.071 401.104,-131.655"/>
<polygon fill="midnightblue" stroke="midnightblue" points="450.507,-166.077 460.861,-168.324 454.169,-160.111 450.507,-166.077"/>
</g>
<!-- Node10 -->
<g id="node10" class="node"><title>Node10</title>
<g id="a_node10"><a xlink:href="../../d2/dfc/_hash_set_8h.html" target="_top" xlink:title="wlib/stl/HashSet.h">
<polygon fill="white" stroke="black" points="327.5,-56.5 327.5,-75.5 424.5,-75.5 424.5,-56.5 327.5,-56.5"/>
<text text-anchor="middle" x="376" y="-63.5" font-family="Helvetica,sans-Serif" font-size="10.00">wlib/stl/HashSet.h</text>
</a>
</g>
</g>
<!-- Node2&#45;&gt;Node10 -->
<g id="edge11" class="edge"><title>Node2&#45;&gt;Node10</title>
<path fill="none" stroke="midnightblue" d="M423.196,-176.333C389.358,-172.858 347.43,-162.146 325,-132 309.674,-111.401 340.715,-87.8295 360.774,-75.5133"/>
<polygon fill="midnightblue" stroke="midnightblue" points="423.148,-179.842 433.407,-177.193 423.736,-172.866 423.148,-179.842"/>
</g>
<!-- Node11 -->
<g id="node11" class="node"><title>Node11</title>
<g id="a_node11"><a xlink:href="../../d5/d7a/_open_map_8h.html" target="_top" xlink:title="Hash map implementation. ">
<polygon fill="white" stroke="black" points="709.5,-56.5 709.5,-75.5 810.5,-75.5 810.5,-56.5 709.5,-56.5"/>
<text text-anchor="middle" x="760" y="-63.5" font-family="Helvetica,sans-Serif" font-size="10.00">wlib/stl/OpenMap.h</text>
</a>
</g>
</g>
<!-- Node2&#45;&gt;Node11 -->
<g id="edge12" class="edge"><title>Node2&#45;&gt;Node11</title>
<path fill="none" stroke="midnightblue" d="M526.639,-168.825C597.208,-157.487 716.003,-137.732 724,-132 743.502,-118.022 753.669,-90.0426 757.771,-75.7866"/>
<polygon fill="midnightblue" stroke="midnightblue" points="525.917,-165.397 516.596,-170.435 527.024,-172.308 525.917,-165.397"/>
</g>
<!-- Node12 -->
<g id="node12" class="node"><title>Node12</title>
<g id="a_node12"><a xlink:href="../../d8/d2e/_open_table_8h.html" target="_top" xlink:title="wlib/stl/OpenTable.h">
<polygon fill="white" stroke="black" points="610,-112.5 610,-131.5 716,-131.5 716,-112.5 610,-112.5"/>
<text text-anchor="middle" x="663" y="-119.5" font-family="Helvetica,sans-Serif" font-size="10.00">wlib/stl/OpenTable.h</text>
</a>
</g>
</g>
<!-- Node2&#45;&gt;Node12 -->
<g id="edge13" class="edge"><title>Node2&#45;&gt;Node12</title>
<path fill="none" stroke="midnightblue" d="M514.801,-165.568C550.266,-155.381 601.366,-140.703 633.35,-131.516"/>
<polygon fill="midnightblue" stroke="midnightblue" points="513.434,-162.319 504.789,-168.444 515.367,-169.047 513.434,-162.319"/>
</g>
<!-- Node13 -->
<g id="node13" class="node"><title>Node13</title>
<g id="a_node13"><a xlink:href="../../d0/de6/_open_set_8h.html" target="_top" xlink:title="Hash set implementation. ">
<polygon fill="white" stroke="black" points="594.5,-56.5 594.5,-75.5 691.5,-75.5 691.5,-56.5 594.5,-56.5"/>
<text text-anchor="middle" x="643" y="-63.5" font-family="Helvetica,sans-Serif" font-size="10.00">wlib/stl/OpenSet.h</text>
</a>
</g>
</g>
<!-- Node2&#45;&gt;Node13 -->
<g id="edge16" class="edge"><title>Node2&#45;&gt;Node13</title>
<path fill="none" stroke="midnightblue" d="M496.819,-162.714C532.22,-139.535 601.107,-94.4303 629.879,-75.5914"/>
<polygon fill="midnightblue" stroke="midnightblue" points="494.632,-159.962 488.183,-168.368 498.466,-165.819 494.632,-159.962"/>
</g>
<!-- Node4 -->
<g id="node4" class="node"><title>Node4</title>
<g id="a_node4"><a xlink:href="../../df/d03/_array_heap_8h.html" target="_top" xlink:title="Heap manipulation and implementation. ">
<polygon fill="white" stroke="black" points="182.5,-56.5 182.5,-75.5 287.5,-75.5 287.5,-56.5 182.5,-56.5"/>
<text text-anchor="middle" x="235" y="-63.5" font-family="Helvetica,sans-Serif" font-size="10.00">wlib/stl/ArrayHeap.h</text>
</a>
</g>
</g>
<!-- Node3&#45;&gt;Node4 -->
<g id="edge3" class="edge"><title>Node3&#45;&gt;Node4</title>
<path fill="none" stroke="midnightblue" d="M227.2,-102.101C229.192,-93.1357 231.476,-82.8579 233.055,-75.7511"/>
<polygon fill="midnightblue" stroke="midnightblue" points="223.734,-101.562 224.982,-112.083 230.568,-103.08 223.734,-101.562"/>
</g>
<!-- Node5 -->
<g id="node5" class="node"><title>Node5</title>
<g id="a_node5"><a xlink:href="../../d5/d08/_red_black_tree_8h.html" target="_top" xlink:title="Red black tree implementation. ">
<polygon fill="white" stroke="black" points="43.5,-56.5 43.5,-75.5 164.5,-75.5 164.5,-56.5 43.5,-56.5"/>
<text text-anchor="middle" x="104" y="-63.5" font-family="Helvetica,sans-Serif" font-size="10.00">wlib/stl/RedBlackTree.h</text>
</a>
</g>
</g>
<!-- Node3&#45;&gt;Node5 -->
<g id="edge4" class="edge"><title>Node3&#45;&gt;Node5</title>
<path fill="none" stroke="midnightblue" d="M194.863,-108.232C172.604,-98.1312 142.144,-84.3091 122.768,-75.5164"/>
<polygon fill="midnightblue" stroke="midnightblue" points="193.591,-111.498 204.144,-112.444 196.484,-105.124 193.591,-111.498"/>
</g>
<!-- Node6 -->
<g id="node6" class="node"><title>Node6</title>
<g id="a_node6"><a xlink:href="../../df/d87/_tree_map_8h.html" target="_top" xlink:title="Map implementation using red black tree. ">
<polygon fill="white" stroke="black" points="-0.5,-0.5 -0.5,-19.5 96.5,-19.5 96.5,-0.5 -0.5,-0.5"/>
<text text-anchor="middle" x="48" y="-7.5" font-family="Helvetica,sans-Serif" font-size="10.00">wlib/stl/TreeMap.h</text>
</a>
</g>
</g>
<!-- Node5&#45;&gt;Node6 -->
<g id="edge5" class="edge"><title>Node5&#45;&gt;Node6</title>
<path fill="none" stroke="midnightblue" d="M87.6701,-49.2533C77.735,-39.6731 65.4125,-27.7906 57.1611,-19.8339"/>
<polygon fill="midnightblue" stroke="midnightblue" points="85.3747,-51.902 95.0026,-56.324 90.2336,-46.8631 85.3747,-51.902"/>
</g>
<!-- Node7 -->
<g id="node7" class="node"><title>Node7</title>
<g id="a_node7"><a xlink:href="../../dd/dba/_tree_set_8h.html" target="_top" xlink:title="Set implementation using red black tree. ">
<polygon fill="white" stroke="black" points="114.5,-0.5 114.5,-19.5 207.5,-19.5 207.5,-0.5 114.5,-0.5"/>
<text text-anchor="middle" x="161" y="-7.5" font-family="Helvetica,sans-Serif" font-size="10.00">wlib/stl/TreeSet.h</text>
</a>
</g>
</g>
<!-- Node5&#45;&gt;Node7 -->
<g id="edge6" class="edge"><title>Node5&#45;&gt;Node7</title>
<path fill="none" stroke="midnightblue" d="M120.621,-49.2533C130.734,-39.6731 143.277,-27.7906 151.675,-19.8339"/>
<polygon fill="midnightblue" stroke="midnightblue" points="118.01,-46.9056 113.158,-56.324 122.825,-51.9873 118.01,-46.9056"/>
</g>
<!-- Node9&#45;&gt;Node8 -->
<g id="edge9" class="edge"><title>Node9&#45;&gt;Node8</title>
<path fill="none" stroke="midnightblue" d="M413.056,-107.726C432.684,-97.7271 459.028,-84.3065 476.012,-75.6545"/>
<polygon fill="midnightblue" stroke="midnightblue" points="411.352,-104.666 404.031,-112.324 414.53,-110.903 411.352,-104.666"/>
</g>
<!-- Node9&#45;&gt;Node10 -->
<g id="edge10" class="edge"><title>Node9&#45;&gt;Node10</title>
<path fill="none" stroke="midnightblue" d="M383.15,-102.101C381.324,-93.1357 379.23,-82.8579 377.783,-75.7511"/>
<polygon fill="midnightblue" stroke="midnightblue" points="379.758,-102.983 385.184,-112.083 386.617,-101.586 379.758,-102.983"/>
</g>
<!-- Node12&#45;&gt;Node11 -->
<g id="edge14" class="edge"><title>Node12&#45;&gt;Node11</title>
<path fill="none" stroke="midnightblue" d="M687.335,-107.453C705.243,-97.4835 729.054,-84.2279 744.454,-75.6545"/>
<polygon fill="midnightblue" stroke="midnightblue" points="685.62,-104.402 678.585,-112.324 689.025,-110.518 685.62,-104.402"/>
</g>
<!-- Node12&#45;&gt;Node13 -->
<g id="edge15" class="edge"><title>Node12&#45;&gt;Node13</title>
<path fill="none" stroke="midnightblue" d="M656.218,-102.69C652.848,-93.589 648.931,-83.0141 646.241,-75.7511"/>
<polygon fill="midnightblue" stroke="midnightblue" points="652.942,-103.921 659.697,-112.083 659.506,-101.49 652.942,-103.921"/>
</g>
<!-- Node15 -->
<g id="node15" class="node"><title>Node15</title>
<g id="a_node15"><a xlink:href="../../de/d66/_packet_constructor_8h.html" target="_top" xlink:title="wlib/comm/PacketConstructor.h">
<polygon fill="white" stroke="black" points="848.5,-112.5 848.5,-131.5 1005.5,-131.5 1005.5,-112.5 848.5,-112.5"/>
<text text-anchor="middle" x="927" y="-119.5" font-family="Helvetica,sans-Serif" font-size="10.00">wlib/comm/PacketConstructor.h</text>
</a>
</g>
</g>
<!-- Node14&#45;&gt;Node15 -->
<g id="edge19" class="edge"><title>Node14&#45;&gt;Node15</title>
<path fill="none" stroke="midnightblue" d="M731.432,-166.281C777.541,-156.077 846.027,-140.92 888.518,-131.516"/>
<polygon fill="midnightblue" stroke="midnightblue" points="730.67,-162.865 721.663,-168.444 732.183,-169.7 730.67,-162.865"/>
</g>
<!-- Node16 -->
<g id="node16" class="node"><title>Node16</title>
<g id="a_node16"><a xlink:href="../../d9/dde/_packet_constructor_8cpp.html" target="_top" xlink:title="Creates a packet for sending data from the slave systems to the main computer. ">
<polygon fill="white" stroke="black" points="843.5,-56.5 843.5,-75.5 1010.5,-75.5 1010.5,-56.5 843.5,-56.5"/>
<text text-anchor="middle" x="927" y="-63.5" font-family="Helvetica,sans-Serif" font-size="10.00">wlib/comm/PacketConstructor.cpp</text>
</a>
</g>
</g>
<!-- Node15&#45;&gt;Node16 -->
<g id="edge20" class="edge"><title>Node15&#45;&gt;Node16</title>
<path fill="none" stroke="midnightblue" d="M927,-101.805C927,-92.9102 927,-82.7798 927,-75.7511"/>
<polygon fill="midnightblue" stroke="midnightblue" points="923.5,-102.083 927,-112.083 930.5,-102.083 923.5,-102.083"/>
</g>
<!-- Node17&#45;&gt;Node8 -->
<g id="edge22" class="edge"><title>Node17&#45;&gt;Node8</title>
<path fill="none" stroke="midnightblue" d="M568.719,-160.586C549.532,-136.871 514.74,-93.8691 499.951,-75.5914"/>
<polygon fill="midnightblue" stroke="midnightblue" points="566.005,-162.796 575.016,-168.368 571.447,-158.393 566.005,-162.796"/>
</g>
<!-- Node17&#45;&gt;Node9 -->
<g id="edge23" class="edge"><title>Node17&#45;&gt;Node9</title>
<path fill="none" stroke="midnightblue" d="M541.19,-165.699C504.387,-155.507 451.071,-140.743 417.754,-131.516"/>
<polygon fill="midnightblue" stroke="midnightblue" points="540.53,-169.148 551.102,-168.444 542.398,-162.402 540.53,-169.148"/>
</g>
<!-- Node17&#45;&gt;Node10 -->
<g id="edge24" class="edge"><title>Node17&#45;&gt;Node10</title>
<path fill="none" stroke="midnightblue" d="M556.889,-163.591C514.002,-140.691 427.82,-94.6708 392.089,-75.5914"/>
<polygon fill="midnightblue" stroke="midnightblue" points="555.366,-166.746 565.836,-168.368 558.663,-160.571 555.366,-166.746"/>
</g>
<!-- Node17&#45;&gt;Node11 -->
<g id="edge25" class="edge"><title>Node17&#45;&gt;Node11</title>
<path fill="none" stroke="midnightblue" d="M629.225,-166.085C673.101,-155.554 732.873,-140.058 741,-132 756.362,-116.769 759.457,-89.8535 759.982,-75.9183"/>
<polygon fill="midnightblue" stroke="midnightblue" points="628.21,-162.729 619.293,-168.45 629.832,-169.539 628.21,-162.729"/>
</g>
<!-- Node17&#45;&gt;Node12 -->
<g id="edge26" class="edge"><title>Node17&#45;&gt;Node12</title>
<path fill="none" stroke="midnightblue" d="M603.567,-162.622C618.364,-152.757 637.512,-139.992 650.018,-131.655"/>
<polygon fill="midnightblue" stroke="midnightblue" points="601.393,-159.865 595.014,-168.324 605.276,-165.689 601.393,-159.865"/>
</g>
<!-- Node17&#45;&gt;Node13 -->
<g id="edge27" class="edge"><title>Node17&#45;&gt;Node13</title>
<path fill="none" stroke="midnightblue" d="M633.125,-167.394C669.191,-159.457 712.969,-147.068 724,-132 742.213,-107.122 699.954,-86.4778 669.883,-75.5112"/>
<polygon fill="midnightblue" stroke="midnightblue" points="632.24,-164.003 623.19,-169.513 633.7,-170.849 632.24,-164.003"/>
</g>
</g>
</svg>
