<?xml version="1.0" encoding="UTF-8" standalone="no"?>
<!DOCTYPE svg PUBLIC "-//W3C//DTD SVG 1.1//EN"
 "http://www.w3.org/Graphics/SVG/1.1/DTD/svg11.dtd">
<!-- Generated by graphviz version 2.36.0 (20140111.2315)
 -->
<!-- Title: wlp::hash_map&lt; Key, Val, Hasher, Equals &gt; Pages: 1 -->
<svg width="708pt" height="259pt"
 viewBox="0.00 0.00 708.00 259.00" xmlns="http://www.w3.org/2000/svg" xmlns:xlink="http://www.w3.org/1999/xlink">
<g id="graph0" class="graph" transform="scale(1 1) rotate(0) translate(4 255)">
<title>wlp::hash_map&lt; Key, Val, Hasher, Equals &gt;</title>
<polygon fill="white" stroke="none" points="-4,4 -4,-255 704,-255 704,4 -4,4"/>
<!-- Node1 -->
<g id="node1" class="node"><title>Node1</title>
<polygon fill="#bfbfbf" stroke="black" points="584,-123 584,-153 700,-153 700,-123 584,-123"/>
<text text-anchor="start" x="592" y="-141" font-family="Helvetica,sans-Serif" font-size="10.00">wlp::hash_map&lt; Key,</text>
<text text-anchor="middle" x="642" y="-130" font-family="Helvetica,sans-Serif" font-size="10.00"> Val, Hasher, Equals &gt;</text>
</g>
<!-- Node2 -->
<g id="node2" class="node"><title>Node2</title>
<g id="a_node2"><a xlink:href="../../dc/d42/classwlp_1_1hash__table.html" target="_top" xlink:title="wlp::hash_table\&lt; tuple\l\&lt; Key, Val \&gt;, Key, Val,\l MapGetKey\&lt; Key, Val \&gt;,\l MapGetVal\&lt; Key, Val \&gt;,\l Hasher, Equals \&gt;">
<polygon fill="white" stroke="black" points="380,-106.5 380,-169.5 510,-169.5 510,-106.5 380,-106.5"/>
<text text-anchor="start" x="388" y="-157.5" font-family="Helvetica,sans-Serif" font-size="10.00">wlp::hash_table&lt; tuple</text>
<text text-anchor="start" x="388" y="-146.5" font-family="Helvetica,sans-Serif" font-size="10.00">&lt; Key, Val &gt;, Key, Val,</text>
<text text-anchor="start" x="388" y="-135.5" font-family="Helvetica,sans-Serif" font-size="10.00"> MapGetKey&lt; Key, Val &gt;,</text>
<text text-anchor="start" x="388" y="-124.5" font-family="Helvetica,sans-Serif" font-size="10.00"> MapGetVal&lt; Key, Val &gt;,</text>
<text text-anchor="middle" x="445" y="-113.5" font-family="Helvetica,sans-Serif" font-size="10.00"> Hasher, Equals &gt;</text>
</a>
</g>
</g>
<!-- Node2&#45;&gt;Node1 -->
<g id="edge1" class="edge"><title>Node2&#45;&gt;Node1</title>
<path fill="none" stroke="#9a32cd" stroke-dasharray="5,2" d="M520.302,-138C541.33,-138 563.887,-138 583.742,-138"/>
<polygon fill="#9a32cd" stroke="#9a32cd" points="520.12,-134.5 510.12,-138 520.12,-141.5 520.12,-134.5"/>
<text text-anchor="middle" x="547" y="-141" font-family="Helvetica,sans-Serif" font-size="10.00"> m_table</text>
</g>
<!-- Node3 -->
<g id="node3" class="node"><title>Node3</title>
<polygon fill="white" stroke="#bfbfbf" points="178.5,-231.5 178.5,-250.5 229.5,-250.5 229.5,-231.5 178.5,-231.5"/>
<text text-anchor="middle" x="204" y="-238.5" font-family="Helvetica,sans-Serif" font-size="10.00">uint16_t</text>
</g>
<!-- Node3&#45;&gt;Node2 -->
<g id="edge2" class="edge"><title>Node3&#45;&gt;Node2</title>
<path fill="none" stroke="#9a32cd" stroke-dasharray="5,2" d="M239.552,-237.341C272.394,-232.848 322.497,-223.306 362,-204 379.896,-195.254 397.419,-181.99 411.641,-169.642"/>
<polygon fill="#9a32cd" stroke="#9a32cd" points="239.003,-233.883 229.53,-238.629 239.895,-240.826 239.003,-233.883"/>
<text text-anchor="middle" x="323" y="-242" font-family="Helvetica,sans-Serif" font-size="10.00"> m_capacity</text>
<text text-anchor="middle" x="323" y="-231" font-family="Helvetica,sans-Serif" font-size="10.00">m_size</text>
</g>
<!-- Node4 -->
<g id="node4" class="node"><title>Node4</title>
<polygon fill="white" stroke="#bfbfbf" points="181,-193.5 181,-212.5 227,-212.5 227,-193.5 181,-193.5"/>
<text text-anchor="middle" x="204" y="-200.5" font-family="Helvetica,sans-Serif" font-size="10.00">uint8_t</text>
</g>
<!-- Node4&#45;&gt;Node2 -->
<g id="edge3" class="edge"><title>Node4&#45;&gt;Node2</title>
<path fill="none" stroke="#9a32cd" stroke-dasharray="5,2" d="M237.281,-198.182C269.321,-192.99 319.634,-183.727 362,-171 367.879,-169.234 373.922,-167.214 379.936,-165.063"/>
<polygon fill="#9a32cd" stroke="#9a32cd" points="236.484,-194.765 227.154,-199.786 237.578,-201.679 236.484,-194.765"/>
<text text-anchor="middle" x="323" y="-192" font-family="Helvetica,sans-Serif" font-size="10.00"> m_max_load</text>
</g>
<!-- Node5 -->
<g id="node5" class="node"><title>Node5</title>
<polygon fill="white" stroke="#bfbfbf" points="180,-155.5 180,-174.5 228,-174.5 228,-155.5 180,-155.5"/>
<text text-anchor="middle" x="204" y="-162.5" font-family="Helvetica,sans-Serif" font-size="10.00">Hasher</text>
</g>
<!-- Node5&#45;&gt;Node2 -->
<g id="edge4" class="edge"><title>Node5&#45;&gt;Node2</title>
<path fill="none" stroke="#9a32cd" stroke-dasharray="5,2" d="M238.459,-161.22C274.96,-157.097 334.259,-150.398 379.805,-145.252"/>
<polygon fill="#9a32cd" stroke="#9a32cd" points="237.895,-157.761 228.351,-162.362 238.681,-164.717 237.895,-157.761"/>
<text text-anchor="middle" x="323" y="-159" font-family="Helvetica,sans-Serif" font-size="10.00"> m_hash_function</text>
</g>
<!-- Node6 -->
<g id="node6" class="node"><title>Node6</title>
<g id="a_node6"><a xlink:href="../../dd/d94/structwlp_1_1_hash_table_node.html" target="_top" xlink:title="wlp::HashTableNode\l\&lt; Element \&gt;">
<polygon fill="white" stroke="black" points="150,-77 150,-107 258,-107 258,-77 150,-77"/>
<text text-anchor="start" x="158" y="-95" font-family="Helvetica,sans-Serif" font-size="10.00">wlp::HashTableNode</text>
<text text-anchor="middle" x="204" y="-84" font-family="Helvetica,sans-Serif" font-size="10.00">&lt; Element &gt;</text>
</a>
</g>
</g>
<!-- Node6&#45;&gt;Node2 -->
<g id="edge5" class="edge"><title>Node6&#45;&gt;Node2</title>
<path fill="none" stroke="#9a32cd" stroke-dasharray="5,2" d="M267.985,-104.123C302.415,-110.749 344.977,-118.941 379.623,-125.609"/>
<polygon fill="#9a32cd" stroke="#9a32cd" points="268.523,-100.662 258.042,-102.209 267.2,-107.536 268.523,-100.662"/>
<text text-anchor="middle" x="323" y="-125" font-family="Helvetica,sans-Serif" font-size="10.00"> m_buckets</text>
</g>
<!-- Node6&#45;&gt;Node6 -->
<g id="edge7" class="edge"><title>Node6&#45;&gt;Node6</title>
<path fill="none" stroke="#9a32cd" stroke-dasharray="5,2" d="M185.446,-117.598C187.981,-121.97 194.166,-125 204,-125 220.562,-125 226.773,-116.406 222.633,-107.275"/>
<polygon fill="#9a32cd" stroke="#9a32cd" points="188.944,-117.248 185.367,-107.275 181.944,-117.302 188.944,-117.248"/>
<text text-anchor="middle" x="204" y="-128" font-family="Helvetica,sans-Serif" font-size="10.00"> m_next</text>
</g>
<!-- Node7 -->
<g id="node7" class="node"><title>Node7</title>
<polygon fill="white" stroke="#bfbfbf" points="0.5,-82.5 0.5,-101.5 53.5,-101.5 53.5,-82.5 0.5,-82.5"/>
<text text-anchor="middle" x="27" y="-89.5" font-family="Helvetica,sans-Serif" font-size="10.00">Element</text>
</g>
<!-- Node7&#45;&gt;Node6 -->
<g id="edge6" class="edge"><title>Node7&#45;&gt;Node6</title>
<path fill="none" stroke="#9a32cd" stroke-dasharray="5,2" d="M63.8795,-92C88.6733,-92 122.074,-92 149.934,-92"/>
<polygon fill="#9a32cd" stroke="#9a32cd" points="63.8219,-88.5001 53.8219,-92 63.8218,-95.5001 63.8219,-88.5001"/>
<text text-anchor="middle" x="98" y="-95" font-family="Helvetica,sans-Serif" font-size="10.00"> m_element</text>
</g>
<!-- Node8 -->
<g id="node8" class="node"><title>Node8</title>
<polygon fill="white" stroke="#bfbfbf" points="180.5,-38.5 180.5,-57.5 227.5,-57.5 227.5,-38.5 180.5,-38.5"/>
<text text-anchor="middle" x="204" y="-45.5" font-family="Helvetica,sans-Serif" font-size="10.00">Equals</text>
</g>
<!-- Node8&#45;&gt;Node2 -->
<g id="edge8" class="edge"><title>Node8&#45;&gt;Node2</title>
<path fill="none" stroke="#9a32cd" stroke-dasharray="5,2" d="M237.38,-55.3963C269.599,-63.2384 320.14,-76.8543 362,-94 370.821,-97.613 379.931,-101.898 388.729,-106.353"/>
<polygon fill="#9a32cd" stroke="#9a32cd" points="238.137,-51.9788 227.597,-53.0559 236.509,-58.7866 238.137,-51.9788"/>
<text text-anchor="middle" x="323" y="-97" font-family="Helvetica,sans-Serif" font-size="10.00"> m_key_equals</text>
</g>
<!-- Node9 -->
<g id="node9" class="node"><title>Node9</title>
<polygon fill="white" stroke="#bfbfbf" points="142,-0.5 142,-19.5 266,-19.5 266,-0.5 142,-0.5"/>
<text text-anchor="middle" x="204" y="-7.5" font-family="Helvetica,sans-Serif" font-size="10.00">MapGetKey&lt; Key, Val &gt;</text>
</g>
<!-- Node9&#45;&gt;Node2 -->
<g id="edge9" class="edge"><title>Node9&#45;&gt;Node2</title>
<path fill="none" stroke="#9a32cd" stroke-dasharray="5,2" d="M275.899,-21.5984C304.044,-28.2613 335.865,-38.499 362,-54 384.612,-67.4116 405.257,-88.6362 420.175,-106.394"/>
<polygon fill="#9a32cd" stroke="#9a32cd" points="276.639,-18.1773 266.113,-19.388 275.096,-25.0053 276.639,-18.1773"/>
<text text-anchor="middle" x="323" y="-57" font-family="Helvetica,sans-Serif" font-size="10.00"> m_get_key</text>
</g>
</g>
</svg>
