<?xml version="1.0" encoding="UTF-8" standalone="no"?>
<!DOCTYPE svg PUBLIC "-//W3C//DTD SVG 1.1//EN"
 "http://www.w3.org/Graphics/SVG/1.1/DTD/svg11.dtd">
<!-- Generated by graphviz version 2.38.0 (20140413.2041)
 -->
<!-- Title: memory/DynamicAllocatorPool.h Pages: 1 -->
<svg width="167pt" height="196pt"
 viewBox="0.00 0.00 167.00 196.00" xmlns="http://www.w3.org/2000/svg" xmlns:xlink="http://www.w3.org/1999/xlink">
<g id="graph0" class="graph" transform="scale(1 1) rotate(0) translate(4 192)">
<title>memory/DynamicAllocatorPool.h</title>
<polygon fill="white" stroke="none" points="-4,4 -4,-192 163,-192 163,4 -4,4"/>
<!-- Node0 -->
<g id="node1" class="node"><title>Node0</title>
<polygon fill="#bfbfbf" stroke="black" points="0,-168.5 0,-187.5 159,-187.5 159,-168.5 0,-168.5"/>
<text text-anchor="middle" x="79.5" y="-175.5" font-family="Helvetica,sans-Serif" font-size="10.00">memory/DynamicAllocatorPool.h</text>
</g>
<!-- Node1 -->
<g id="node2" class="node"><title>Node1</title>
<g id="a_node2"><a xlink:href="../../df/d4d/_allocator_8h.html" target="_top" xlink:title="Allocator is a memory management library where allocations are always of fixed size. ">
<polygon fill="white" stroke="black" points="48,-112.5 48,-131.5 111,-131.5 111,-112.5 48,-112.5"/>
<text text-anchor="middle" x="79.5" y="-119.5" font-family="Helvetica,sans-Serif" font-size="10.00">Allocator.h</text>
</a>
</g>
</g>
<!-- Node0&#45;&gt;Node1 -->
<g id="edge1" class="edge"><title>Node0&#45;&gt;Node1</title>
<path fill="none" stroke="midnightblue" d="M79.5,-168.083C79.5,-161.006 79.5,-150.861 79.5,-141.986"/>
<polygon fill="midnightblue" stroke="midnightblue" points="83.0001,-141.751 79.5,-131.751 76.0001,-141.751 83.0001,-141.751"/>
</g>
<!-- Node2 -->
<g id="node3" class="node"><title>Node2</title>
<g id="a_node3"><a xlink:href="../../d0/db6/_types_8h.html" target="_top" xlink:title="type definition of all the string types we will be using ">
<polygon fill="white" stroke="black" points="49.5,-56.5 49.5,-75.5 109.5,-75.5 109.5,-56.5 49.5,-56.5"/>
<text text-anchor="middle" x="79.5" y="-63.5" font-family="Helvetica,sans-Serif" font-size="10.00">../Types.h</text>
</a>
</g>
</g>
<!-- Node1&#45;&gt;Node2 -->
<g id="edge2" class="edge"><title>Node1&#45;&gt;Node2</title>
<path fill="none" stroke="midnightblue" d="M79.5,-112.083C79.5,-105.006 79.5,-94.8611 79.5,-85.9865"/>
<polygon fill="midnightblue" stroke="midnightblue" points="83.0001,-85.751 79.5,-75.7511 76.0001,-85.7511 83.0001,-85.751"/>
</g>
<!-- Node3 -->
<g id="node4" class="node"><title>Node3</title>
<polygon fill="white" stroke="#bfbfbf" points="55,-0.5 55,-19.5 104,-19.5 104,-0.5 55,-0.5"/>
<text text-anchor="middle" x="79.5" y="-7.5" font-family="Helvetica,sans-Serif" font-size="10.00">stdint.h</text>
</g>
<!-- Node2&#45;&gt;Node3 -->
<g id="edge3" class="edge"><title>Node2&#45;&gt;Node3</title>
<path fill="none" stroke="midnightblue" d="M79.5,-56.083C79.5,-49.0059 79.5,-38.8611 79.5,-29.9865"/>
<polygon fill="midnightblue" stroke="midnightblue" points="83.0001,-29.751 79.5,-19.7511 76.0001,-29.7511 83.0001,-29.751"/>
</g>
</g>
</svg>
