<?xml version="1.0" encoding="UTF-8" standalone="no"?>
<!DOCTYPE svg PUBLIC "-//W3C//DTD SVG 1.1//EN"
 "http://www.w3.org/Graphics/SVG/1.1/DTD/svg11.dtd">
<!-- Generated by graphviz version 2.36.0 (20140111.2315)
 -->
<!-- Title: wlp::OpenHashSet&lt; Key, Hash, Equal &gt; Pages: 1 -->
<svg width="142pt" height="120pt"
 viewBox="0.00 0.00 142.00 120.00" xmlns="http://www.w3.org/2000/svg" xmlns:xlink="http://www.w3.org/1999/xlink">
<g id="graph0" class="graph" transform="scale(1 1) rotate(0) translate(4 116)">
<title>wlp::OpenHashSet&lt; Key, Hash, Equal &gt;</title>
<polygon fill="white" stroke="none" points="-4,4 -4,-116 138,-116 138,4 -4,4"/>
<!-- Node1 -->
<g id="node1" class="node"><title>Node1</title>
<polygon fill="#bfbfbf" stroke="black" points="3,-1 3,-31 131,-31 131,-1 3,-1"/>
<text text-anchor="start" x="11" y="-19" font-family="Helvetica,sans-Serif" font-size="10.00">wlp::OpenHashSet&lt; Key,</text>
<text text-anchor="middle" x="67" y="-8" font-family="Helvetica,sans-Serif" font-size="10.00"> Hash, Equal &gt;</text>
</g>
<!-- Node2 -->
<g id="node2" class="node"><title>Node2</title>
<polygon fill="white" stroke="#bfbfbf" points="0,-81 0,-111 134,-111 134,-81 0,-81"/>
<text text-anchor="start" x="8" y="-99" font-family="Helvetica,sans-Serif" font-size="10.00">OpenHashMap&lt; Key, Key,</text>
<text text-anchor="middle" x="67" y="-88" font-family="Helvetica,sans-Serif" font-size="10.00"> Hash, Equal &gt;</text>
</g>
<!-- Node2&#45;&gt;Node1 -->
<g id="edge1" class="edge"><title>Node2&#45;&gt;Node1</title>
<path fill="none" stroke="#9a32cd" stroke-dasharray="5,2" d="M67,-70.5644C67,-57.6243 67,-42.1862 67,-31.2157"/>
<polygon fill="#9a32cd" stroke="#9a32cd" points="63.5001,-70.6936 67,-80.6936 70.5001,-70.6936 63.5001,-70.6936"/>
<text text-anchor="middle" x="98" y="-53.5" font-family="Helvetica,sans-Serif" font-size="10.00"> m_hash_map</text>
</g>
</g>
</svg>
