<?xml version="1.0" encoding="UTF-8" standalone="no"?>
<!DOCTYPE svg PUBLIC "-//W3C//DTD SVG 1.1//EN"
 "http://www.w3.org/Graphics/SVG/1.1/DTD/svg11.dtd">
<!-- Generated by graphviz version 2.36.0 (20140111.2315)
 -->
<!-- Title: wlp::OpenHashSet&lt; Key, Hasher, Equals &gt; Pages: 1 -->
<svg width="340pt" height="60pt"
 viewBox="0.00 0.00 340.00 60.00" xmlns="http://www.w3.org/2000/svg" xmlns:xlink="http://www.w3.org/1999/xlink">
<g id="graph0" class="graph" transform="scale(1 1) rotate(0) translate(4 56)">
<title>wlp::OpenHashSet&lt; Key, Hasher, Equals &gt;</title>
<polygon fill="white" stroke="none" points="-4,4 -4,-56 336,-56 336,4 -4,4"/>
<!-- Node1 -->
<g id="node1" class="node"><title>Node1</title>
<polygon fill="#bfbfbf" stroke="black" points="204,-11 204,-41 332,-41 332,-11 204,-11"/>
<text text-anchor="start" x="212" y="-29" font-family="Helvetica,sans-Serif" font-size="10.00">wlp::OpenHashSet&lt; Key,</text>
<text text-anchor="middle" x="268" y="-18" font-family="Helvetica,sans-Serif" font-size="10.00"> Hasher, Equals &gt;</text>
</g>
<!-- Node2 -->
<g id="node2" class="node"><title>Node2</title>
<polygon fill="white" stroke="#bfbfbf" points="0.5,-0 0.5,-52 129.5,-52 129.5,-0 0.5,-0"/>
<text text-anchor="start" x="8.5" y="-40" font-family="Helvetica,sans-Serif" font-size="10.00">OpenHashTable&lt; Key,</text>
<text text-anchor="start" x="8.5" y="-29" font-family="Helvetica,sans-Serif" font-size="10.00"> Key, Key, SetGetKey</text>
<text text-anchor="start" x="8.5" y="-18" font-family="Helvetica,sans-Serif" font-size="10.00">&lt; Key &gt;, SetGetVal&lt; Key</text>
<text text-anchor="middle" x="65" y="-7" font-family="Helvetica,sans-Serif" font-size="10.00"> &gt;, Hasher, Equals &gt;</text>
</g>
<!-- Node2&#45;&gt;Node1 -->
<g id="edge1" class="edge"><title>Node2&#45;&gt;Node1</title>
<path fill="none" stroke="#9a32cd" stroke-dasharray="5,2" d="M139.764,-26C160.784,-26 183.487,-26 203.816,-26"/>
<polygon fill="#9a32cd" stroke="#9a32cd" points="139.598,-22.5001 129.598,-26 139.598,-29.5001 139.598,-22.5001"/>
<text text-anchor="middle" x="167" y="-29" font-family="Helvetica,sans-Serif" font-size="10.00"> m_table</text>
</g>
</g>
</svg>
