<?xml version="1.0" encoding="UTF-8" standalone="no"?>
<!DOCTYPE svg PUBLIC "-//W3C//DTD SVG 1.1//EN"
 "http://www.w3.org/Graphics/SVG/1.1/DTD/svg11.dtd">
<!-- Generated by graphviz version 2.36.0 (20140111.2315)
 -->
<!-- Title: wlib/stl/UniquePtr.h Pages: 1 -->
<svg width="481pt" height="308pt"
 viewBox="0.00 0.00 481.00 308.00" xmlns="http://www.w3.org/2000/svg" xmlns:xlink="http://www.w3.org/1999/xlink">
<g id="graph0" class="graph" transform="scale(1 1) rotate(0) translate(4 304)">
<title>wlib/stl/UniquePtr.h</title>
<polygon fill="white" stroke="none" points="-4,4 -4,-304 477,-304 477,4 -4,4"/>
<!-- Node1 -->
<g id="node1" class="node"><title>Node1</title>
<polygon fill="#bfbfbf" stroke="black" points="259,-280.5 259,-299.5 361,-299.5 361,-280.5 259,-280.5"/>
<text text-anchor="middle" x="310" y="-287.5" font-family="Helvetica,sans-Serif" font-size="10.00">wlib/stl/UniquePtr.h</text>
</g>
<!-- Node2 -->
<g id="node2" class="node"><title>Node2</title>
<g id="a_node2"><a xlink:href="../../d3/de6/_memory_8h.html" target="_top" xlink:title="Memory is a class that provides dynamic fixed size memory. ">
<polygon fill="white" stroke="black" points="132.5,-224.5 132.5,-243.5 251.5,-243.5 251.5,-224.5 132.5,-224.5"/>
<text text-anchor="middle" x="192" y="-231.5" font-family="Helvetica,sans-Serif" font-size="10.00">wlib/memory/Memory.h</text>
</a>
</g>
</g>
<!-- Node1&#45;&gt;Node2 -->
<g id="edge1" class="edge"><title>Node1&#45;&gt;Node2</title>
<path fill="none" stroke="midnightblue" d="M291.303,-280.444C272.056,-271.636 241.848,-257.812 219.8,-247.722"/>
<polygon fill="midnightblue" stroke="midnightblue" points="221.16,-244.495 210.61,-243.516 218.247,-250.86 221.16,-244.495"/>
</g>
<!-- Node9 -->
<g id="node9" class="node"><title>Node9</title>
<g id="a_node9"><a xlink:href="../../d7/d2f/_exceptions_8h.html" target="_top" xlink:title="Implementation of Exceptions using C style. ">
<polygon fill="white" stroke="black" points="319,-224.5 319,-243.5 463,-243.5 463,-224.5 319,-224.5"/>
<text text-anchor="middle" x="391" y="-231.5" font-family="Helvetica,sans-Serif" font-size="10.00">wlib/exceptions/Exceptions.h</text>
</a>
</g>
</g>
<!-- Node1&#45;&gt;Node9 -->
<g id="edge10" class="edge"><title>Node1&#45;&gt;Node9</title>
<path fill="none" stroke="midnightblue" d="M323.014,-280.324C335.532,-271.979 354.682,-259.212 369.471,-249.352"/>
<polygon fill="midnightblue" stroke="midnightblue" points="371.639,-252.114 378.018,-243.655 367.756,-246.289 371.639,-252.114"/>
</g>
<!-- Node3 -->
<g id="node3" class="node"><title>Node3</title>
<polygon fill="white" stroke="#bfbfbf" points="-0.5,-168.5 -0.5,-187.5 48.5,-187.5 48.5,-168.5 -0.5,-168.5"/>
<text text-anchor="middle" x="24" y="-175.5" font-family="Helvetica,sans-Serif" font-size="10.00">string.h</text>
</g>
<!-- Node2&#45;&gt;Node3 -->
<g id="edge2" class="edge"><title>Node2&#45;&gt;Node3</title>
<path fill="none" stroke="midnightblue" d="M165.38,-224.444C136.41,-215.132 89.998,-200.214 58.312,-190.029"/>
<polygon fill="midnightblue" stroke="midnightblue" points="59.1739,-186.63 48.5825,-186.902 57.0318,-193.294 59.1739,-186.63"/>
</g>
<!-- Node4 -->
<g id="node4" class="node"><title>Node4</title>
<g id="a_node4"><a xlink:href="../../d0/db6/_types_8h.html" target="_top" xlink:title="type definition of all the string types we will be using ">
<polygon fill="white" stroke="black" points="156,-56.5 156,-75.5 228,-75.5 228,-56.5 156,-56.5"/>
<text text-anchor="middle" x="192" y="-63.5" font-family="Helvetica,sans-Serif" font-size="10.00">wlib/Types.h</text>
</a>
</g>
</g>
<!-- Node2&#45;&gt;Node4 -->
<g id="edge3" class="edge"><title>Node2&#45;&gt;Node4</title>
<path fill="none" stroke="midnightblue" d="M150.529,-224.497C130.414,-218.06 108.047,-206.952 96,-188 69.6098,-146.484 130.342,-102.332 166.883,-80.6421"/>
<polygon fill="midnightblue" stroke="midnightblue" points="168.668,-83.653 175.584,-75.6269 165.172,-77.5883 168.668,-83.653"/>
</g>
<!-- Node6 -->
<g id="node6" class="node"><title>Node6</title>
<g id="a_node6"><a xlink:href="../../db/d2a/_utility_8h.html" target="_top" xlink:title="Various helper functions. ">
<polygon fill="white" stroke="black" points="105.5,-168.5 105.5,-187.5 202.5,-187.5 202.5,-168.5 105.5,-168.5"/>
<text text-anchor="middle" x="154" y="-175.5" font-family="Helvetica,sans-Serif" font-size="10.00">wlib/utility/Utility.h</text>
</a>
</g>
</g>
<!-- Node2&#45;&gt;Node6 -->
<g id="edge5" class="edge"><title>Node2&#45;&gt;Node6</title>
<path fill="none" stroke="midnightblue" d="M185.725,-224.083C180.358,-216.455 172.482,-205.264 165.921,-195.941"/>
<polygon fill="midnightblue" stroke="midnightblue" points="168.775,-193.915 160.158,-187.751 163.051,-197.943 168.775,-193.915"/>
</g>
<!-- Node7 -->
<g id="node7" class="node"><title>Node7</title>
<g id="a_node7"><a xlink:href="../../d2/d37/_tmp_8h.html" target="_top" xlink:title="Template helper types, structs, and metafunctions. ">
<polygon fill="white" stroke="black" points="146.5,-112.5 146.5,-131.5 237.5,-131.5 237.5,-112.5 146.5,-112.5"/>
<text text-anchor="middle" x="192" y="-119.5" font-family="Helvetica,sans-Serif" font-size="10.00">wlib/utility/Tmp.h</text>
</a>
</g>
</g>
<!-- Node2&#45;&gt;Node7 -->
<g id="edge8" class="edge"><title>Node2&#45;&gt;Node7</title>
<path fill="none" stroke="midnightblue" d="M196.876,-224.372C201.559,-215.552 208.308,-201.299 211,-188 214.277,-171.815 208.239,-153.824 202.121,-140.881"/>
<polygon fill="midnightblue" stroke="midnightblue" points="205.08,-138.984 197.373,-131.713 198.864,-142.203 205.08,-138.984"/>
</g>
<!-- Node8 -->
<g id="node8" class="node"><title>Node8</title>
<g id="a_node8"><a xlink:href="../../d9/d8a/_new_8h.html" target="_top" xlink:title="New operators defined for Arduino boards and for other boards use the normal new. ...">
<polygon fill="white" stroke="black" points="259,-168.5 259,-187.5 363,-187.5 363,-168.5 259,-168.5"/>
<text text-anchor="middle" x="311" y="-175.5" font-family="Helvetica,sans-Serif" font-size="10.00">wlib/memory/New.h</text>
</a>
</g>
</g>
<!-- Node2&#45;&gt;Node8 -->
<g id="edge9" class="edge"><title>Node2&#45;&gt;Node8</title>
<path fill="none" stroke="midnightblue" d="M210.856,-224.444C230.266,-215.636 260.73,-201.812 282.965,-191.722"/>
<polygon fill="midnightblue" stroke="midnightblue" points="284.572,-194.836 292.232,-187.516 281.68,-188.462 284.572,-194.836"/>
</g>
<!-- Node5 -->
<g id="node5" class="node"><title>Node5</title>
<polygon fill="white" stroke="#bfbfbf" points="167.5,-0.5 167.5,-19.5 216.5,-19.5 216.5,-0.5 167.5,-0.5"/>
<text text-anchor="middle" x="192" y="-7.5" font-family="Helvetica,sans-Serif" font-size="10.00">stdint.h</text>
</g>
<!-- Node4&#45;&gt;Node5 -->
<g id="edge4" class="edge"><title>Node4&#45;&gt;Node5</title>
<path fill="none" stroke="midnightblue" d="M192,-56.083C192,-49.0059 192,-38.8611 192,-29.9865"/>
<polygon fill="midnightblue" stroke="midnightblue" points="195.5,-29.751 192,-19.7511 188.5,-29.7511 195.5,-29.751"/>
</g>
<!-- Node6&#45;&gt;Node7 -->
<g id="edge6" class="edge"><title>Node6&#45;&gt;Node7</title>
<path fill="none" stroke="midnightblue" d="M160.275,-168.083C165.642,-160.455 173.518,-149.264 180.079,-139.941"/>
<polygon fill="midnightblue" stroke="midnightblue" points="182.949,-141.943 185.842,-131.751 177.225,-137.915 182.949,-141.943"/>
</g>
<!-- Node7&#45;&gt;Node4 -->
<g id="edge7" class="edge"><title>Node7&#45;&gt;Node4</title>
<path fill="none" stroke="midnightblue" d="M192,-112.083C192,-105.006 192,-94.8611 192,-85.9865"/>
<polygon fill="midnightblue" stroke="midnightblue" points="195.5,-85.751 192,-75.7511 188.5,-85.7511 195.5,-85.751"/>
</g>
<!-- Node9&#45;&gt;Node4 -->
<g id="edge12" class="edge"><title>Node9&#45;&gt;Node4</title>
<path fill="none" stroke="midnightblue" d="M390.532,-224.485C389.39,-211.102 385.466,-184.93 372,-168 335.32,-121.884 271.492,-93.3392 230.528,-78.8201"/>
<polygon fill="midnightblue" stroke="midnightblue" points="231.485,-75.4479 220.89,-75.5127 229.213,-82.069 231.485,-75.4479"/>
</g>
<!-- Node10 -->
<g id="node10" class="node"><title>Node10</title>
<polygon fill="white" stroke="#bfbfbf" points="419,-168.5 419,-187.5 473,-187.5 473,-168.5 419,-168.5"/>
<text text-anchor="middle" x="446" y="-175.5" font-family="Helvetica,sans-Serif" font-size="10.00">setjmp.h</text>
</g>
<!-- Node9&#45;&gt;Node10 -->
<g id="edge11" class="edge"><title>Node9&#45;&gt;Node10</title>
<path fill="none" stroke="midnightblue" d="M400.082,-224.083C408.171,-216.141 420.195,-204.335 429.91,-194.797"/>
<polygon fill="midnightblue" stroke="midnightblue" points="432.403,-197.254 437.087,-187.751 427.499,-192.26 432.403,-197.254"/>
</g>
</g>
</svg>
