<?xml version="1.0" encoding="UTF-8" standalone="no"?>
<!DOCTYPE svg PUBLIC "-//W3C//DTD SVG 1.1//EN"
 "http://www.w3.org/Graphics/SVG/1.1/DTD/svg11.dtd">
<!-- Generated by graphviz version 2.36.0 (20140111.2315)
 -->
<!-- Title: wlib/stl/UniquePtr.h Pages: 1 -->
<svg width="419pt" height="140pt"
 viewBox="0.00 0.00 419.00 140.00" xmlns="http://www.w3.org/2000/svg" xmlns:xlink="http://www.w3.org/1999/xlink">
<g id="graph0" class="graph" transform="scale(1 1) rotate(0) translate(4 136)">
<title>wlib/stl/UniquePtr.h</title>
<polygon fill="white" stroke="none" points="-4,4 -4,-136 415,-136 415,4 -4,4"/>
<!-- Node1 -->
<g id="node1" class="node"><title>Node1</title>
<polygon fill="#bfbfbf" stroke="black" points="169,-112.5 169,-131.5 271,-131.5 271,-112.5 169,-112.5"/>
<text text-anchor="middle" x="220" y="-119.5" font-family="Helvetica,sans-Serif" font-size="10.00">wlib/stl/UniquePtr.h</text>
</g>
<!-- Node2 -->
<g id="node2" class="node"><title>Node2</title>
<g id="a_node2"><a xlink:href="../../de/d35/_helper_8h.html" target="_top" xlink:title="wlib/stl/Helper.h">
<polygon fill="white" stroke="black" points="-0.5,-56.5 -0.5,-75.5 86.5,-75.5 86.5,-56.5 -0.5,-56.5"/>
<text text-anchor="middle" x="43" y="-63.5" font-family="Helvetica,sans-Serif" font-size="10.00">wlib/stl/Helper.h</text>
</a>
</g>
</g>
<!-- Node1&#45;&gt;Node2 -->
<g id="edge1" class="edge"><title>Node1&#45;&gt;Node2</title>
<path fill="none" stroke="midnightblue" d="M191.954,-112.444C161.918,-103.28 114.087,-88.6876 80.7573,-78.5192"/>
<polygon fill="midnightblue" stroke="midnightblue" points="81.5011,-75.0869 70.915,-75.5164 79.4584,-81.7822 81.5011,-75.0869"/>
</g>
<!-- Node4 -->
<g id="node4" class="node"><title>Node4</title>
<polygon fill="white" stroke="#bfbfbf" points="105,-56.5 105,-75.5 219,-75.5 219,-56.5 105,-56.5"/>
<text text-anchor="middle" x="162" y="-63.5" font-family="Helvetica,sans-Serif" font-size="10.00">wlib/tmp/Convertible.h</text>
</g>
<!-- Node1&#45;&gt;Node4 -->
<g id="edge3" class="edge"><title>Node1&#45;&gt;Node4</title>
<path fill="none" stroke="midnightblue" d="M210.681,-112.324C202.107,-104.341 189.188,-92.3128 178.812,-82.6529"/>
<polygon fill="midnightblue" stroke="midnightblue" points="181.192,-80.0865 171.488,-75.8339 176.422,-85.2098 181.192,-80.0865"/>
</g>
<!-- Node5 -->
<g id="node5" class="node"><title>Node5</title>
<polygon fill="white" stroke="#bfbfbf" points="237.5,-56.5 237.5,-75.5 320.5,-75.5 320.5,-56.5 237.5,-56.5"/>
<text text-anchor="middle" x="279" y="-63.5" font-family="Helvetica,sans-Serif" font-size="10.00">wlib/type_traits</text>
</g>
<!-- Node1&#45;&gt;Node5 -->
<g id="edge4" class="edge"><title>Node1&#45;&gt;Node5</title>
<path fill="none" stroke="midnightblue" d="M229.479,-112.324C238.201,-104.341 251.343,-92.3128 261.898,-82.6529"/>
<polygon fill="midnightblue" stroke="midnightblue" points="264.334,-85.1674 269.348,-75.8339 259.608,-80.0036 264.334,-85.1674"/>
</g>
<!-- Node6 -->
<g id="node6" class="node"><title>Node6</title>
<polygon fill="white" stroke="#bfbfbf" points="339,-56.5 339,-75.5 411,-75.5 411,-56.5 339,-56.5"/>
<text text-anchor="middle" x="375" y="-63.5" font-family="Helvetica,sans-Serif" font-size="10.00">wlib/memory</text>
</g>
<!-- Node1&#45;&gt;Node6 -->
<g id="edge5" class="edge"><title>Node1&#45;&gt;Node6</title>
<path fill="none" stroke="midnightblue" d="M244.56,-112.444C270.523,-103.399 311.668,-89.064 340.797,-78.9158"/>
<polygon fill="midnightblue" stroke="midnightblue" points="342.263,-82.1116 350.555,-75.5164 339.96,-75.5013 342.263,-82.1116"/>
</g>
<!-- Node3 -->
<g id="node3" class="node"><title>Node3</title>
<polygon fill="white" stroke="#bfbfbf" points="13,-0.5 13,-19.5 73,-19.5 73,-0.5 13,-0.5"/>
<text text-anchor="middle" x="43" y="-7.5" font-family="Helvetica,sans-Serif" font-size="10.00">wlib/utility</text>
</g>
<!-- Node2&#45;&gt;Node3 -->
<g id="edge2" class="edge"><title>Node2&#45;&gt;Node3</title>
<path fill="none" stroke="midnightblue" d="M43,-56.083C43,-49.0059 43,-38.8611 43,-29.9865"/>
<polygon fill="midnightblue" stroke="midnightblue" points="46.5001,-29.751 43,-19.7511 39.5001,-29.7511 46.5001,-29.751"/>
</g>
</g>
</svg>
