<?xml version="1.0" encoding="UTF-8" standalone="no"?>
<!DOCTYPE svg PUBLIC "-//W3C//DTD SVG 1.1//EN"
 "http://www.w3.org/Graphics/SVG/1.1/DTD/svg11.dtd">
<!-- Generated by graphviz version 2.38.0 (20140413.2041)
 -->
<!-- Title: wlp::TupleImpl&lt; IndexSequence&lt; Indices... &gt;, Types... &gt;::operator= Pages: 1 -->
<svg width="269pt" height="66pt"
 viewBox="0.00 0.00 269.00 66.00" xmlns="http://www.w3.org/2000/svg" xmlns:xlink="http://www.w3.org/1999/xlink">
<g id="graph0" class="graph" transform="scale(1 1) rotate(0) translate(4 62)">
<title>wlp::TupleImpl&lt; IndexSequence&lt; Indices... &gt;, Types... &gt;::operator=</title>
<polygon fill="white" stroke="none" points="-4,4 -4,-62 265,-62 265,4 -4,4"/>
<!-- Node5 -->
<g id="node1" class="node"><title>Node5</title>
<polygon fill="#bfbfbf" stroke="black" points="0,-8.5 0,-49.5 154,-49.5 154,-8.5 0,-8.5"/>
<text text-anchor="start" x="8" y="-37.5" font-family="Helvetica,sans-Serif" font-size="10.00">wlp::TupleImpl&lt; IndexSequence</text>
<text text-anchor="start" x="8" y="-26.5" font-family="Helvetica,sans-Serif" font-size="10.00">&lt; Indices... &gt;, Types...</text>
<text text-anchor="middle" x="77" y="-15.5" font-family="Helvetica,sans-Serif" font-size="10.00"> &gt;::operator=</text>
</g>
<!-- Node6 -->
<g id="node2" class="node"><title>Node6</title>
<g id="a_node2"><a xlink:href="../../d5/dca/namespacewlp.html#aa09e615d02daee5123e80ddaee3d2323" target="_top" xlink:title="wlp::move">
<polygon fill="white" stroke="black" points="196,-38.5 196,-57.5 255,-57.5 255,-38.5 196,-38.5"/>
<text text-anchor="middle" x="225.5" y="-45.5" font-family="Helvetica,sans-Serif" font-size="10.00">wlp::move</text>
</a>
</g>
</g>
<!-- Node5&#45;&gt;Node6 -->
<g id="edge1" class="edge"><title>Node5&#45;&gt;Node6</title>
<path fill="none" stroke="midnightblue" d="M154.254,-38.8896C165.18,-40.3066 176.017,-41.7121 185.79,-42.9796"/>
<polygon fill="midnightblue" stroke="midnightblue" points="185.564,-46.4795 195.931,-44.2949 186.465,-39.5377 185.564,-46.4795"/>
</g>
<!-- Node7 -->
<g id="node3" class="node"><title>Node7</title>
<g id="a_node3"><a xlink:href="../../d5/dca/namespacewlp.html#a23b54e60f0f6605b7e9160db190e9a18" target="_top" xlink:title="wlp::swallow">
<polygon fill="white" stroke="black" points="190,-0.5 190,-19.5 261,-19.5 261,-0.5 190,-0.5"/>
<text text-anchor="middle" x="225.5" y="-7.5" font-family="Helvetica,sans-Serif" font-size="10.00">wlp::swallow</text>
</a>
</g>
</g>
<!-- Node5&#45;&gt;Node7 -->
<g id="edge2" class="edge"><title>Node5&#45;&gt;Node7</title>
<path fill="none" stroke="midnightblue" d="M154.254,-19.1104C163.053,-17.9692 171.794,-16.8355 179.969,-15.7754"/>
<polygon fill="midnightblue" stroke="midnightblue" points="180.515,-19.234 189.982,-14.4768 179.614,-12.2921 180.515,-19.234"/>
</g>
</g>
</svg>
