<?xml version="1.0" encoding="UTF-8" standalone="no"?>
<!DOCTYPE svg PUBLIC "-//W3C//DTD SVG 1.1//EN"
 "http://www.w3.org/Graphics/SVG/1.1/DTD/svg11.dtd">
<!-- Generated by graphviz version 2.36.0 (20140111.2315)
 -->
<!-- Title: wlp::__is_integral_helper&lt; long long &gt; Pages: 1 -->
<svg width="112pt" height="166pt"
 viewBox="0.00 0.00 112.00 166.00" xmlns="http://www.w3.org/2000/svg" xmlns:xlink="http://www.w3.org/1999/xlink">
<g id="graph0" class="graph" transform="scale(1 1) rotate(0) translate(4 162)">
<title>wlp::__is_integral_helper&lt; long long &gt;</title>
<polygon fill="white" stroke="none" points="-4,4 -4,-162 108,-162 108,4 -4,4"/>
<!-- Node1 -->
<g id="node1" class="node"><title>Node1</title>
<polygon fill="#bfbfbf" stroke="black" points="-0.5,-1 -0.5,-31 104.5,-31 104.5,-1 -0.5,-1"/>
<text text-anchor="start" x="7.5" y="-19" font-family="Helvetica,sans-Serif" font-size="10.00">wlp::__is_integral</text>
<text text-anchor="middle" x="52" y="-8" font-family="Helvetica,sans-Serif" font-size="10.00">_helper&lt; long long &gt;</text>
</g>
<!-- Node2 -->
<g id="node2" class="node"><title>Node2</title>
<g id="a_node2"><a xlink:href="../../d3/d8d/structwlp_1_1integral__constant.html" target="_top" xlink:title="true_type">
<polygon fill="white" stroke="black" points="23.5,-70.5 23.5,-89.5 80.5,-89.5 80.5,-70.5 23.5,-70.5"/>
<text text-anchor="middle" x="52" y="-77.5" font-family="Helvetica,sans-Serif" font-size="10.00">true_type</text>
</a>
</g>
</g>
<!-- Node2&#45;&gt;Node1 -->
<g id="edge1" class="edge"><title>Node2&#45;&gt;Node1</title>
<path fill="none" stroke="midnightblue" d="M52,-60.1826C52,-50.8859 52,-39.8507 52,-31.263"/>
<polygon fill="midnightblue" stroke="midnightblue" points="48.5001,-60.3791 52,-70.3792 55.5001,-60.3792 48.5001,-60.3791"/>
</g>
<!-- Node3 -->
<g id="node3" class="node"><title>Node3</title>
<polygon fill="white" stroke="#bfbfbf" points="37.5,-138.5 37.5,-157.5 66.5,-157.5 66.5,-138.5 37.5,-138.5"/>
<text text-anchor="middle" x="52" y="-145.5" font-family="Helvetica,sans-Serif" font-size="10.00">T</text>
</g>
<!-- Node3&#45;&gt;Node2 -->
<g id="edge2" class="edge"><title>Node3&#45;&gt;Node2</title>
<path fill="none" stroke="#9a32cd" stroke-dasharray="5,2" d="M52,-128.041C52,-115.472 52,-99.5631 52,-89.8411"/>
<polygon fill="#9a32cd" stroke="#9a32cd" points="48.5001,-128.372 52,-138.372 55.5001,-128.372 48.5001,-128.372"/>
<text text-anchor="middle" x="65.5" y="-111.5" font-family="Helvetica,sans-Serif" font-size="10.00"> value</text>
</g>
</g>
</svg>
