<?xml version="1.0" encoding="UTF-8" standalone="no"?>
<!DOCTYPE svg PUBLIC "-//W3C//DTD SVG 1.1//EN"
 "http://www.w3.org/Graphics/SVG/1.1/DTD/svg11.dtd">
<!-- Generated by graphviz version 2.38.0 (20140413.2041)
 -->
<!-- Title: wlp::DynamicString::length Pages: 1 -->
<svg width="246pt" height="176pt"
 viewBox="0.00 0.00 246.00 176.00" xmlns="http://www.w3.org/2000/svg" xmlns:xlink="http://www.w3.org/1999/xlink">
<g id="graph0" class="graph" transform="scale(1 1) rotate(0) translate(4 172)">
<title>wlp::DynamicString::length</title>
<polygon fill="white" stroke="none" points="-4,4 -4,-172 242,-172 242,4 -4,4"/>
<!-- Node57 -->
<g id="node1" class="node"><title>Node57</title>
<polygon fill="#bfbfbf" stroke="black" points="0,-71.5 0,-101.5 101,-101.5 101,-71.5 0,-71.5"/>
<text text-anchor="start" x="8" y="-89.5" font-family="Helvetica,sans-Serif" font-size="10.00">wlp::DynamicString</text>
<text text-anchor="middle" x="50.5" y="-78.5" font-family="Helvetica,sans-Serif" font-size="10.00">::length</text>
</g>
<!-- Node58 -->
<g id="node2" class="node"><title>Node58</title>
<g id="a_node2"><a xlink:href="../../d8/db4/classwlp_1_1_dynamic_string.html#a038fe00ce86da97d7ee8e34b2b9f535e" target="_top" xlink:title="wlp::DynamicString\l::append">
<polygon fill="white" stroke="black" points="137,-137.5 137,-167.5 238,-167.5 238,-137.5 137,-137.5"/>
<text text-anchor="start" x="145" y="-155.5" font-family="Helvetica,sans-Serif" font-size="10.00">wlp::DynamicString</text>
<text text-anchor="middle" x="187.5" y="-144.5" font-family="Helvetica,sans-Serif" font-size="10.00">::append</text>
</a>
</g>
</g>
<!-- Node57&#45;&gt;Node58 -->
<g id="edge1" class="edge"><title>Node57&#45;&gt;Node58</title>
<path fill="none" stroke="midnightblue" d="M91.574,-106.092C112.084,-116.119 136.664,-128.136 155.672,-137.429"/>
<polygon fill="midnightblue" stroke="midnightblue" points="92.9928,-102.89 82.4717,-101.642 89.9183,-109.178 92.9928,-102.89"/>
</g>
<!-- Node59 -->
<g id="node3" class="node"><title>Node59</title>
<g id="a_node3"><a xlink:href="../../d5/dca/namespacewlp.html#a2ad9579f458b35f492af0bb7f0861aa6" target="_top" xlink:title="wlp::operator+">
<polygon fill="white" stroke="black" points="148.5,-99 148.5,-118 226.5,-118 226.5,-99 148.5,-99"/>
<text text-anchor="middle" x="187.5" y="-106" font-family="Helvetica,sans-Serif" font-size="10.00">wlp::operator+</text>
</a>
</g>
</g>
<!-- Node57&#45;&gt;Node59 -->
<g id="edge2" class="edge"><title>Node57&#45;&gt;Node59</title>
<path fill="none" stroke="midnightblue" d="M111.059,-96.2058C123.742,-98.2728 136.806,-100.402 148.423,-102.295"/>
<polygon fill="midnightblue" stroke="midnightblue" points="111.435,-92.7211 101.002,-94.5671 110.309,-99.63 111.435,-92.7211"/>
</g>
<!-- Node60 -->
<g id="node4" class="node"><title>Node60</title>
<g id="a_node4"><a xlink:href="../../d8/db4/classwlp_1_1_dynamic_string.html#a182b4dac7dc1b6dd93c800848d238337" target="_top" xlink:title="wlp::DynamicString\l::operator+=">
<polygon fill="white" stroke="black" points="137,-49.5 137,-79.5 238,-79.5 238,-49.5 137,-49.5"/>
<text text-anchor="start" x="145" y="-67.5" font-family="Helvetica,sans-Serif" font-size="10.00">wlp::DynamicString</text>
<text text-anchor="middle" x="187.5" y="-56.5" font-family="Helvetica,sans-Serif" font-size="10.00">::operator+=</text>
</a>
</g>
</g>
<!-- Node57&#45;&gt;Node60 -->
<g id="edge3" class="edge"><title>Node57&#45;&gt;Node60</title>
<path fill="none" stroke="midnightblue" d="M110.928,-76.8154C119.481,-75.4217 128.208,-73.9994 136.552,-72.6397"/>
<polygon fill="midnightblue" stroke="midnightblue" points="110.309,-73.37 101.002,-78.4329 111.435,-80.2789 110.309,-73.37"/>
</g>
<!-- Node61 -->
<g id="node5" class="node"><title>Node61</title>
<g id="a_node5"><a xlink:href="../../d8/db4/classwlp_1_1_dynamic_string.html#a6f3b1e263e12434ab2073b918e3907df" target="_top" xlink:title="wlp::DynamicString\l::substr">
<polygon fill="white" stroke="black" points="137,-0.5 137,-30.5 238,-30.5 238,-0.5 137,-0.5"/>
<text text-anchor="start" x="145" y="-18.5" font-family="Helvetica,sans-Serif" font-size="10.00">wlp::DynamicString</text>
<text text-anchor="middle" x="187.5" y="-7.5" font-family="Helvetica,sans-Serif" font-size="10.00">::substr</text>
</a>
</g>
</g>
<!-- Node57&#45;&gt;Node61 -->
<g id="edge4" class="edge"><title>Node57&#45;&gt;Node61</title>
<path fill="none" stroke="midnightblue" d="M88.1474,-66.5143C103.232,-58.3582 120.91,-48.8898 137,-40.5 143.232,-37.2506 149.935,-33.8215 156.333,-30.5794"/>
<polygon fill="midnightblue" stroke="midnightblue" points="86.2524,-63.5603 79.1276,-71.4017 89.5873,-69.7149 86.2524,-63.5603"/>
</g>
</g>
</svg>
