<?xml version="1.0" encoding="UTF-8" standalone="no"?>
<!DOCTYPE svg PUBLIC "-//W3C//DTD SVG 1.1//EN"
 "http://www.w3.org/Graphics/SVG/1.1/DTD/svg11.dtd">
<!-- Generated by graphviz version 2.36.0 (20140111.2315)
 -->
<!-- Title: wlp::DynamicString::set_value Pages: 1 -->
<svg width="630pt" height="109pt"
 viewBox="0.00 0.00 630.00 109.00" xmlns="http://www.w3.org/2000/svg" xmlns:xlink="http://www.w3.org/1999/xlink">
<g id="graph0" class="graph" transform="scale(1 1) rotate(0) translate(4 105)">
<title>wlp::DynamicString::set_value</title>
<polygon fill="white" stroke="none" points="-4,4 -4,-105 626,-105 626,4 -4,4"/>
<!-- Node1 -->
<g id="node1" class="node"><title>Node1</title>
<polygon fill="#bfbfbf" stroke="black" points="0,-33 0,-63 102,-63 102,-33 0,-33"/>
<text text-anchor="start" x="8" y="-51" font-family="Helvetica,sans-Serif" font-size="10.00">wlp::DynamicString</text>
<text text-anchor="middle" x="51" y="-40" font-family="Helvetica,sans-Serif" font-size="10.00">::set_value</text>
</g>
<!-- Node2 -->
<g id="node2" class="node"><title>Node2</title>
<g id="a_node2"><a xlink:href="../../d3/de6/_memory_8h.html#a137edc434b402c4f8ea23892006a38b6" target="_top" xlink:title="free">
<polygon fill="white" stroke="black" points="138.5,-38.5 138.5,-57.5 171.5,-57.5 171.5,-38.5 138.5,-38.5"/>
<text text-anchor="middle" x="155" y="-45.5" font-family="Helvetica,sans-Serif" font-size="10.00">free</text>
</a>
</g>
</g>
<!-- Node1&#45;&gt;Node2 -->
<g id="edge1" class="edge"><title>Node1&#45;&gt;Node2</title>
<path fill="none" stroke="midnightblue" d="M102.104,-48C111.109,-48 120.152,-48 128.109,-48"/>
<polygon fill="midnightblue" stroke="midnightblue" points="128.18,-51.5001 138.18,-48 128.18,-44.5001 128.18,-51.5001"/>
</g>
<!-- Node3 -->
<g id="node3" class="node"><title>Node3</title>
<g id="a_node3"><a xlink:href="../../d3/de6/_memory_8h.html#aa359f6271adac5034612761142de9195" target="_top" xlink:title="__memory_free">
<polygon fill="white" stroke="black" points="208,-38.5 208,-57.5 292,-57.5 292,-38.5 208,-38.5"/>
<text text-anchor="middle" x="250" y="-45.5" font-family="Helvetica,sans-Serif" font-size="10.00">__memory_free</text>
</a>
</g>
</g>
<!-- Node2&#45;&gt;Node3 -->
<g id="edge2" class="edge"><title>Node2&#45;&gt;Node3</title>
<path fill="none" stroke="midnightblue" d="M171.776,-48C179.083,-48 188.222,-48 197.63,-48"/>
<polygon fill="midnightblue" stroke="midnightblue" points="197.87,-51.5001 207.87,-48 197.87,-44.5001 197.87,-51.5001"/>
</g>
<!-- Node4 -->
<g id="node4" class="node"><title>Node4</title>
<g id="a_node4"><a xlink:href="../../de/d5b/classwlp_1_1_____allocator.html#aed0aab73d3ff2598dbe833a32c17321a" target="_top" xlink:title="wlp::__Allocator::deallocate">
<polygon fill="white" stroke="black" points="328.5,-76.5 328.5,-95.5 465.5,-95.5 465.5,-76.5 328.5,-76.5"/>
<text text-anchor="middle" x="397" y="-83.5" font-family="Helvetica,sans-Serif" font-size="10.00">wlp::__Allocator::deallocate</text>
</a>
</g>
</g>
<!-- Node3&#45;&gt;Node4 -->
<g id="edge3" class="edge"><title>Node3&#45;&gt;Node4</title>
<path fill="none" stroke="midnightblue" d="M287.59,-57.589C306.465,-62.5358 329.686,-68.6211 349.788,-73.8892"/>
<polygon fill="midnightblue" stroke="midnightblue" points="349.113,-77.3305 359.673,-76.4799 350.887,-70.5591 349.113,-77.3305"/>
</g>
<!-- Node6 -->
<g id="node6" class="node"><title>Node6</title>
<g id="a_node6"><a xlink:href="../../df/d64/_memory_8cpp.html#af94c4a48637bc573da1bbea9fec52d54" target="_top" xlink:title="get_block_allocator">
<polygon fill="white" stroke="black" points="346.5,-38.5 346.5,-57.5 447.5,-57.5 447.5,-38.5 346.5,-38.5"/>
<text text-anchor="middle" x="397" y="-45.5" font-family="Helvetica,sans-Serif" font-size="10.00">get_block_allocator</text>
</a>
</g>
</g>
<!-- Node3&#45;&gt;Node6 -->
<g id="edge5" class="edge"><title>Node3&#45;&gt;Node6</title>
<path fill="none" stroke="midnightblue" d="M292.163,-48C305.905,-48 321.507,-48 336.364,-48"/>
<polygon fill="midnightblue" stroke="midnightblue" points="336.498,-51.5001 346.498,-48 336.498,-44.5001 336.498,-51.5001"/>
</g>
<!-- Node7 -->
<g id="node7" class="node"><title>Node7</title>
<g id="a_node7"><a xlink:href="../../df/d64/_memory_8cpp.html#ab333f945dc0df95c1535b49820195985" target="_top" xlink:title="get_block_ptr">
<polygon fill="white" stroke="black" points="359.5,-0.5 359.5,-19.5 434.5,-19.5 434.5,-0.5 359.5,-0.5"/>
<text text-anchor="middle" x="397" y="-7.5" font-family="Helvetica,sans-Serif" font-size="10.00">get_block_ptr</text>
</a>
</g>
</g>
<!-- Node3&#45;&gt;Node7 -->
<g id="edge6" class="edge"><title>Node3&#45;&gt;Node7</title>
<path fill="none" stroke="midnightblue" d="M287.59,-38.411C306.465,-33.4642 329.686,-27.3789 349.788,-22.1108"/>
<polygon fill="midnightblue" stroke="midnightblue" points="350.887,-25.4409 359.673,-19.5201 349.113,-18.6695 350.887,-25.4409"/>
</g>
<!-- Node5 -->
<g id="node5" class="node"><title>Node5</title>
<g id="a_node5"><a xlink:href="../../de/d5b/classwlp_1_1_____allocator.html#aced9c1024626524f09caaee69cb3a1d8" target="_top" xlink:title="wlp::__Allocator::isPool\lBlock">
<polygon fill="white" stroke="black" points="502.5,-71 502.5,-101 621.5,-101 621.5,-71 502.5,-71"/>
<text text-anchor="start" x="510.5" y="-89" font-family="Helvetica,sans-Serif" font-size="10.00">wlp::__Allocator::isPool</text>
<text text-anchor="middle" x="562" y="-78" font-family="Helvetica,sans-Serif" font-size="10.00">Block</text>
</a>
</g>
</g>
<!-- Node4&#45;&gt;Node5 -->
<g id="edge4" class="edge"><title>Node4&#45;&gt;Node5</title>
<path fill="none" stroke="midnightblue" d="M465.711,-86C474.449,-86 483.406,-86 492.162,-86"/>
<polygon fill="midnightblue" stroke="midnightblue" points="492.325,-89.5001 502.325,-86 492.325,-82.5001 492.325,-89.5001"/>
</g>
</g>
</svg>
