<?xml version="1.0" encoding="UTF-8" standalone="no"?>
<!DOCTYPE svg PUBLIC "-//W3C//DTD SVG 1.1//EN"
 "http://www.w3.org/Graphics/SVG/1.1/DTD/svg11.dtd">
<!-- Generated by graphviz version 2.36.0 (20140111.2315)
 -->
<!-- Title: wlp::DynamicString::operator= Pages: 1 -->
<svg width="768pt" height="109pt"
 viewBox="0.00 0.00 768.00 109.00" xmlns="http://www.w3.org/2000/svg" xmlns:xlink="http://www.w3.org/1999/xlink">
<g id="graph0" class="graph" transform="scale(1 1) rotate(0) translate(4 105)">
<title>wlp::DynamicString::operator=</title>
<polygon fill="white" stroke="none" points="-4,4 -4,-105 764,-105 764,4 -4,4"/>
<!-- Node1 -->
<g id="node1" class="node"><title>Node1</title>
<polygon fill="#bfbfbf" stroke="black" points="0,-33 0,-63 102,-63 102,-33 0,-33"/>
<text text-anchor="start" x="8" y="-51" font-family="Helvetica,sans-Serif" font-size="10.00">wlp::DynamicString</text>
<text text-anchor="middle" x="51" y="-40" font-family="Helvetica,sans-Serif" font-size="10.00">::operator=</text>
</g>
<!-- Node2 -->
<g id="node2" class="node"><title>Node2</title>
<g id="a_node2"><a xlink:href="../../d8/db4/classwlp_1_1_dynamic_string.html#a7decbdc48439b5582da46d18e6b51041" target="_top" xlink:title="wlp::DynamicString\l::set_value">
<polygon fill="white" stroke="black" points="138,-33 138,-63 240,-63 240,-33 138,-33"/>
<text text-anchor="start" x="146" y="-51" font-family="Helvetica,sans-Serif" font-size="10.00">wlp::DynamicString</text>
<text text-anchor="middle" x="189" y="-40" font-family="Helvetica,sans-Serif" font-size="10.00">::set_value</text>
</a>
</g>
</g>
<!-- Node1&#45;&gt;Node2 -->
<g id="edge1" class="edge"><title>Node1&#45;&gt;Node2</title>
<path fill="none" stroke="midnightblue" d="M102.255,-48C110.539,-48 119.201,-48 127.701,-48"/>
<polygon fill="midnightblue" stroke="midnightblue" points="127.952,-51.5001 137.952,-48 127.952,-44.5001 127.952,-51.5001"/>
</g>
<!-- Node3 -->
<g id="node3" class="node"><title>Node3</title>
<g id="a_node3"><a xlink:href="../../d3/de6/_memory_8h.html#a137edc434b402c4f8ea23892006a38b6" target="_top" xlink:title="free">
<polygon fill="white" stroke="black" points="276.5,-38.5 276.5,-57.5 309.5,-57.5 309.5,-38.5 276.5,-38.5"/>
<text text-anchor="middle" x="293" y="-45.5" font-family="Helvetica,sans-Serif" font-size="10.00">free</text>
</a>
</g>
</g>
<!-- Node2&#45;&gt;Node3 -->
<g id="edge2" class="edge"><title>Node2&#45;&gt;Node3</title>
<path fill="none" stroke="midnightblue" d="M240.104,-48C249.109,-48 258.152,-48 266.109,-48"/>
<polygon fill="midnightblue" stroke="midnightblue" points="266.18,-51.5001 276.18,-48 266.18,-44.5001 266.18,-51.5001"/>
</g>
<!-- Node4 -->
<g id="node4" class="node"><title>Node4</title>
<g id="a_node4"><a xlink:href="../../d3/de6/_memory_8h.html#aa359f6271adac5034612761142de9195" target="_top" xlink:title="__memory_free">
<polygon fill="white" stroke="black" points="346,-38.5 346,-57.5 430,-57.5 430,-38.5 346,-38.5"/>
<text text-anchor="middle" x="388" y="-45.5" font-family="Helvetica,sans-Serif" font-size="10.00">__memory_free</text>
</a>
</g>
</g>
<!-- Node3&#45;&gt;Node4 -->
<g id="edge3" class="edge"><title>Node3&#45;&gt;Node4</title>
<path fill="none" stroke="midnightblue" d="M309.776,-48C317.083,-48 326.222,-48 335.63,-48"/>
<polygon fill="midnightblue" stroke="midnightblue" points="335.87,-51.5001 345.87,-48 335.87,-44.5001 335.87,-51.5001"/>
</g>
<!-- Node5 -->
<g id="node5" class="node"><title>Node5</title>
<g id="a_node5"><a xlink:href="../../de/d5b/classwlp_1_1_____allocator.html#aed0aab73d3ff2598dbe833a32c17321a" target="_top" xlink:title="wlp::__Allocator::deallocate">
<polygon fill="white" stroke="black" points="466.5,-76.5 466.5,-95.5 603.5,-95.5 603.5,-76.5 466.5,-76.5"/>
<text text-anchor="middle" x="535" y="-83.5" font-family="Helvetica,sans-Serif" font-size="10.00">wlp::__Allocator::deallocate</text>
</a>
</g>
</g>
<!-- Node4&#45;&gt;Node5 -->
<g id="edge4" class="edge"><title>Node4&#45;&gt;Node5</title>
<path fill="none" stroke="midnightblue" d="M425.59,-57.589C444.465,-62.5358 467.686,-68.6211 487.788,-73.8892"/>
<polygon fill="midnightblue" stroke="midnightblue" points="487.113,-77.3305 497.673,-76.4799 488.887,-70.5591 487.113,-77.3305"/>
</g>
<!-- Node7 -->
<g id="node7" class="node"><title>Node7</title>
<g id="a_node7"><a xlink:href="../../df/d64/_memory_8cpp.html#af94c4a48637bc573da1bbea9fec52d54" target="_top" xlink:title="get_block_allocator">
<polygon fill="white" stroke="black" points="484.5,-38.5 484.5,-57.5 585.5,-57.5 585.5,-38.5 484.5,-38.5"/>
<text text-anchor="middle" x="535" y="-45.5" font-family="Helvetica,sans-Serif" font-size="10.00">get_block_allocator</text>
</a>
</g>
</g>
<!-- Node4&#45;&gt;Node7 -->
<g id="edge6" class="edge"><title>Node4&#45;&gt;Node7</title>
<path fill="none" stroke="midnightblue" d="M430.163,-48C443.905,-48 459.507,-48 474.364,-48"/>
<polygon fill="midnightblue" stroke="midnightblue" points="474.498,-51.5001 484.498,-48 474.498,-44.5001 474.498,-51.5001"/>
</g>
<!-- Node8 -->
<g id="node8" class="node"><title>Node8</title>
<g id="a_node8"><a xlink:href="../../df/d64/_memory_8cpp.html#ab333f945dc0df95c1535b49820195985" target="_top" xlink:title="get_block_ptr">
<polygon fill="white" stroke="black" points="497.5,-0.5 497.5,-19.5 572.5,-19.5 572.5,-0.5 497.5,-0.5"/>
<text text-anchor="middle" x="535" y="-7.5" font-family="Helvetica,sans-Serif" font-size="10.00">get_block_ptr</text>
</a>
</g>
</g>
<!-- Node4&#45;&gt;Node8 -->
<g id="edge7" class="edge"><title>Node4&#45;&gt;Node8</title>
<path fill="none" stroke="midnightblue" d="M425.59,-38.411C444.465,-33.4642 467.686,-27.3789 487.788,-22.1108"/>
<polygon fill="midnightblue" stroke="midnightblue" points="488.887,-25.4409 497.673,-19.5201 487.113,-18.6695 488.887,-25.4409"/>
</g>
<!-- Node6 -->
<g id="node6" class="node"><title>Node6</title>
<g id="a_node6"><a xlink:href="../../de/d5b/classwlp_1_1_____allocator.html#aced9c1024626524f09caaee69cb3a1d8" target="_top" xlink:title="wlp::__Allocator::isPool\lBlock">
<polygon fill="white" stroke="black" points="640.5,-71 640.5,-101 759.5,-101 759.5,-71 640.5,-71"/>
<text text-anchor="start" x="648.5" y="-89" font-family="Helvetica,sans-Serif" font-size="10.00">wlp::__Allocator::isPool</text>
<text text-anchor="middle" x="700" y="-78" font-family="Helvetica,sans-Serif" font-size="10.00">Block</text>
</a>
</g>
</g>
<!-- Node5&#45;&gt;Node6 -->
<g id="edge5" class="edge"><title>Node5&#45;&gt;Node6</title>
<path fill="none" stroke="midnightblue" d="M603.711,-86C612.449,-86 621.406,-86 630.162,-86"/>
<polygon fill="midnightblue" stroke="midnightblue" points="630.325,-89.5001 640.325,-86 630.325,-82.5001 630.325,-89.5001"/>
</g>
</g>
</svg>
