<?xml version="1.0" encoding="UTF-8" standalone="no"?>
<!DOCTYPE svg PUBLIC "-//W3C//DTD SVG 1.1//EN"
 "http://www.w3.org/Graphics/SVG/1.1/DTD/svg11.dtd">
<!-- Generated by graphviz version 2.36.0 (20140111.2315)
 -->
<!-- Title: wlp::DynamicString::operator+= Pages: 1 -->
<svg width="248pt" height="38pt"
 viewBox="0.00 0.00 248.00 38.00" xmlns="http://www.w3.org/2000/svg" xmlns:xlink="http://www.w3.org/1999/xlink">
<g id="graph0" class="graph" transform="scale(1 1) rotate(0) translate(4 34)">
<title>wlp::DynamicString::operator+=</title>
<polygon fill="white" stroke="none" points="-4,4 -4,-34 244,-34 244,4 -4,4"/>
<!-- Node1 -->
<g id="node1" class="node"><title>Node1</title>
<polygon fill="#bfbfbf" stroke="black" points="0,-0 0,-30 102,-30 102,-0 0,-0"/>
<text text-anchor="start" x="8" y="-18" font-family="Helvetica,sans-Serif" font-size="10.00">wlp::DynamicString</text>
<text text-anchor="middle" x="51" y="-7" font-family="Helvetica,sans-Serif" font-size="10.00">::operator+=</text>
</g>
<!-- Node2 -->
<g id="node2" class="node"><title>Node2</title>
<g id="a_node2"><a xlink:href="../../d8/db4/classwlp_1_1_dynamic_string.html#ade56224be7589215ab2bb72f7ec51b77" target="_top" xlink:title="wlp::DynamicString\l::append">
<polygon fill="white" stroke="black" points="138,-0 138,-30 240,-30 240,-0 138,-0"/>
<text text-anchor="start" x="146" y="-18" font-family="Helvetica,sans-Serif" font-size="10.00">wlp::DynamicString</text>
<text text-anchor="middle" x="189" y="-7" font-family="Helvetica,sans-Serif" font-size="10.00">::append</text>
</a>
</g>
</g>
<!-- Node1&#45;&gt;Node2 -->
<g id="edge1" class="edge"><title>Node1&#45;&gt;Node2</title>
<path fill="none" stroke="midnightblue" d="M102.255,-15C110.539,-15 119.201,-15 127.701,-15"/>
<polygon fill="midnightblue" stroke="midnightblue" points="127.952,-18.5001 137.952,-15 127.952,-11.5001 127.952,-18.5001"/>
</g>
</g>
</svg>
