<?xml version="1.0" encoding="UTF-8" standalone="no"?>
<!DOCTYPE svg PUBLIC "-//W3C//DTD SVG 1.1//EN"
 "http://www.w3.org/Graphics/SVG/1.1/DTD/svg11.dtd">
<!-- Generated by graphviz version 2.36.0 (20140111.2315)
 -->
<!-- Title: stl/Tuple.h Pages: 1 -->
<svg width="128pt" height="308pt"
 viewBox="0.00 0.00 128.00 308.00" xmlns="http://www.w3.org/2000/svg" xmlns:xlink="http://www.w3.org/1999/xlink">
<g id="graph0" class="graph" transform="scale(1 1) rotate(0) translate(4 304)">
<title>stl/Tuple.h</title>
<polygon fill="white" stroke="none" points="-4,4 -4,-304 124,-304 124,4 -4,4"/>
<!-- Node1 -->
<g id="node1" class="node"><title>Node1</title>
<polygon fill="#bfbfbf" stroke="black" points="58,-280.5 58,-299.5 120,-299.5 120,-280.5 58,-280.5"/>
<text text-anchor="middle" x="89" y="-287.5" font-family="Helvetica,sans-Serif" font-size="10.00">stl/Tuple.h</text>
</g>
<!-- Node2 -->
<g id="node2" class="node"><title>Node2</title>
<g id="a_node2"><a xlink:href="../../d4/dda/_pair_8h.html" target="_top" xlink:title="Implementation of a 2&#45;element tuple. ">
<polygon fill="white" stroke="black" points="33,-224.5 33,-243.5 75,-243.5 75,-224.5 33,-224.5"/>
<text text-anchor="middle" x="54" y="-231.5" font-family="Helvetica,sans-Serif" font-size="10.00">Pair.h</text>
</a>
</g>
</g>
<!-- Node1&#45;&gt;Node2 -->
<g id="edge1" class="edge"><title>Node1&#45;&gt;Node2</title>
<path fill="none" stroke="midnightblue" d="M83.2205,-280.083C78.3276,-272.534 71.1726,-261.495 65.1674,-252.23"/>
<polygon fill="midnightblue" stroke="midnightblue" points="68.048,-250.239 59.672,-243.751 62.174,-254.046 68.048,-250.239"/>
</g>
<!-- Node4 -->
<g id="node4" class="node"><title>Node4</title>
<g id="a_node4"><a xlink:href="../../d2/d37/_tmp_8h.html" target="_top" xlink:title="Template helper types, structs, and metafunctions. ">
<polygon fill="white" stroke="black" points="56,-112.5 56,-131.5 100,-131.5 100,-112.5 56,-112.5"/>
<text text-anchor="middle" x="78" y="-119.5" font-family="Helvetica,sans-Serif" font-size="10.00">Tmp.h</text>
</a>
</g>
</g>
<!-- Node1&#45;&gt;Node4 -->
<g id="edge6" class="edge"><title>Node1&#45;&gt;Node4</title>
<path fill="none" stroke="midnightblue" d="M90.7634,-280.403C94.5641,-260.463 102.594,-209.588 95,-168 93.3124,-158.757 89.825,-148.948 86.4456,-140.855"/>
<polygon fill="midnightblue" stroke="midnightblue" points="89.6313,-139.405 82.3663,-131.693 83.2365,-142.252 89.6313,-139.405"/>
</g>
<!-- Node3 -->
<g id="node3" class="node"><title>Node3</title>
<g id="a_node3"><a xlink:href="../../db/d2a/_utility_8h.html" target="_top" xlink:title="Various helper functions. ">
<polygon fill="white" stroke="black" points="0,-168.5 0,-187.5 86,-187.5 86,-168.5 0,-168.5"/>
<text text-anchor="middle" x="43" y="-175.5" font-family="Helvetica,sans-Serif" font-size="10.00">../utility/Utility.h</text>
</a>
</g>
</g>
<!-- Node2&#45;&gt;Node3 -->
<g id="edge2" class="edge"><title>Node2&#45;&gt;Node3</title>
<path fill="none" stroke="midnightblue" d="M52.1836,-224.083C50.7259,-216.927 48.6294,-206.635 46.8075,-197.691"/>
<polygon fill="midnightblue" stroke="midnightblue" points="50.2083,-196.851 44.7826,-187.751 43.3492,-198.248 50.2083,-196.851"/>
</g>
<!-- Node3&#45;&gt;Node4 -->
<g id="edge3" class="edge"><title>Node3&#45;&gt;Node4</title>
<path fill="none" stroke="midnightblue" d="M48.7795,-168.083C53.6724,-160.534 60.8274,-149.495 66.8326,-140.23"/>
<polygon fill="midnightblue" stroke="midnightblue" points="69.826,-142.046 72.328,-131.751 63.952,-138.239 69.826,-142.046"/>
</g>
<!-- Node5 -->
<g id="node5" class="node"><title>Node5</title>
<g id="a_node5"><a xlink:href="../../d0/db6/_types_8h.html" target="_top" xlink:title="type definition of all the string types we will be using ">
<polygon fill="white" stroke="black" points="47.5,-56.5 47.5,-75.5 108.5,-75.5 108.5,-56.5 47.5,-56.5"/>
<text text-anchor="middle" x="78" y="-63.5" font-family="Helvetica,sans-Serif" font-size="10.00">../Types.h</text>
</a>
</g>
</g>
<!-- Node4&#45;&gt;Node5 -->
<g id="edge4" class="edge"><title>Node4&#45;&gt;Node5</title>
<path fill="none" stroke="midnightblue" d="M78,-112.083C78,-105.006 78,-94.8611 78,-85.9865"/>
<polygon fill="midnightblue" stroke="midnightblue" points="81.5001,-85.751 78,-75.7511 74.5001,-85.7511 81.5001,-85.751"/>
</g>
<!-- Node6 -->
<g id="node6" class="node"><title>Node6</title>
<polygon fill="white" stroke="#bfbfbf" points="53.5,-0.5 53.5,-19.5 102.5,-19.5 102.5,-0.5 53.5,-0.5"/>
<text text-anchor="middle" x="78" y="-7.5" font-family="Helvetica,sans-Serif" font-size="10.00">stdint.h</text>
</g>
<!-- Node5&#45;&gt;Node6 -->
<g id="edge5" class="edge"><title>Node5&#45;&gt;Node6</title>
<path fill="none" stroke="midnightblue" d="M78,-56.083C78,-49.0059 78,-38.8611 78,-29.9865"/>
<polygon fill="midnightblue" stroke="midnightblue" points="81.5001,-29.751 78,-19.7511 74.5001,-29.7511 81.5001,-29.751"/>
</g>
</g>
</svg>
