<?xml version="1.0" encoding="UTF-8" standalone="no"?>
<!DOCTYPE svg PUBLIC "-//W3C//DTD SVG 1.1//EN"
 "http://www.w3.org/Graphics/SVG/1.1/DTD/svg11.dtd">
<!-- Generated by graphviz version 2.38.0 (20140413.2041)
 -->
<!-- Title: stl/Tuple.h Pages: 1 -->
<svg width="128pt" height="308pt"
 viewBox="0.00 0.00 127.50 308.00" xmlns="http://www.w3.org/2000/svg" xmlns:xlink="http://www.w3.org/1999/xlink">
<g id="graph0" class="graph" transform="scale(1 1) rotate(0) translate(4 304)">
<title>stl/Tuple.h</title>
<polygon fill="white" stroke="none" points="-4,4 -4,-304 123.5,-304 123.5,4 -4,4"/>
<!-- Node0 -->
<g id="node1" class="node"><title>Node0</title>
<polygon fill="#bfbfbf" stroke="black" points="57.5,-280.5 57.5,-299.5 119.5,-299.5 119.5,-280.5 57.5,-280.5"/>
<text text-anchor="middle" x="88.5" y="-287.5" font-family="Helvetica,sans-Serif" font-size="10.00">stl/Tuple.h</text>
</g>
<!-- Node1 -->
<g id="node2" class="node"><title>Node1</title>
<g id="a_node2"><a xlink:href="../../d4/dda/_pair_8h.html" target="_top" xlink:title="Implementation of a 2&#45;element tuple. ">
<polygon fill="white" stroke="black" points="32.5,-224.5 32.5,-243.5 74.5,-243.5 74.5,-224.5 32.5,-224.5"/>
<text text-anchor="middle" x="53.5" y="-231.5" font-family="Helvetica,sans-Serif" font-size="10.00">Pair.h</text>
</a>
</g>
</g>
<!-- Node0&#45;&gt;Node1 -->
<g id="edge1" class="edge"><title>Node0&#45;&gt;Node1</title>
<path fill="none" stroke="midnightblue" d="M82.7205,-280.083C77.8276,-272.534 70.6726,-261.495 64.6674,-252.23"/>
<polygon fill="midnightblue" stroke="midnightblue" points="67.548,-250.239 59.172,-243.751 61.674,-254.046 67.548,-250.239"/>
</g>
<!-- Node3 -->
<g id="node4" class="node"><title>Node3</title>
<g id="a_node4"><a xlink:href="../../d2/d37/_tmp_8h.html" target="_top" xlink:title="Template helper types, structs, and metafunctions. ">
<polygon fill="white" stroke="black" points="55.5,-112.5 55.5,-131.5 99.5,-131.5 99.5,-112.5 55.5,-112.5"/>
<text text-anchor="middle" x="77.5" y="-119.5" font-family="Helvetica,sans-Serif" font-size="10.00">Tmp.h</text>
</a>
</g>
</g>
<!-- Node0&#45;&gt;Node3 -->
<g id="edge6" class="edge"><title>Node0&#45;&gt;Node3</title>
<path fill="none" stroke="midnightblue" d="M90.0879,-280.411C93.5042,-260.487 100.683,-209.645 93.5,-168 91.932,-158.91 88.7052,-149.222 85.5575,-141.173"/>
<polygon fill="midnightblue" stroke="midnightblue" points="88.6945,-139.602 81.6112,-131.723 82.2351,-142.299 88.6945,-139.602"/>
</g>
<!-- Node2 -->
<g id="node3" class="node"><title>Node2</title>
<g id="a_node3"><a xlink:href="../../db/d2a/_utility_8h.html" target="_top" xlink:title="Various helper functions. ">
<polygon fill="white" stroke="black" points="0,-168.5 0,-187.5 85,-187.5 85,-168.5 0,-168.5"/>
<text text-anchor="middle" x="42.5" y="-175.5" font-family="Helvetica,sans-Serif" font-size="10.00">../utility/Utility.h</text>
</a>
</g>
</g>
<!-- Node1&#45;&gt;Node2 -->
<g id="edge2" class="edge"><title>Node1&#45;&gt;Node2</title>
<path fill="none" stroke="midnightblue" d="M51.6836,-224.083C50.2259,-216.927 48.1294,-206.635 46.3075,-197.691"/>
<polygon fill="midnightblue" stroke="midnightblue" points="49.7083,-196.851 44.2826,-187.751 42.8492,-198.248 49.7083,-196.851"/>
</g>
<!-- Node2&#45;&gt;Node3 -->
<g id="edge3" class="edge"><title>Node2&#45;&gt;Node3</title>
<path fill="none" stroke="midnightblue" d="M48.2795,-168.083C53.1724,-160.534 60.3274,-149.495 66.3326,-140.23"/>
<polygon fill="midnightblue" stroke="midnightblue" points="69.326,-142.046 71.828,-131.751 63.452,-138.239 69.326,-142.046"/>
</g>
<!-- Node4 -->
<g id="node5" class="node"><title>Node4</title>
<g id="a_node5"><a xlink:href="../../d0/db6/_types_8h.html" target="_top" xlink:title="type definition of all the string types we will be using ">
<polygon fill="white" stroke="black" points="47.5,-56.5 47.5,-75.5 107.5,-75.5 107.5,-56.5 47.5,-56.5"/>
<text text-anchor="middle" x="77.5" y="-63.5" font-family="Helvetica,sans-Serif" font-size="10.00">../Types.h</text>
</a>
</g>
</g>
<!-- Node3&#45;&gt;Node4 -->
<g id="edge4" class="edge"><title>Node3&#45;&gt;Node4</title>
<path fill="none" stroke="midnightblue" d="M77.5,-112.083C77.5,-105.006 77.5,-94.8611 77.5,-85.9865"/>
<polygon fill="midnightblue" stroke="midnightblue" points="81.0001,-85.751 77.5,-75.7511 74.0001,-85.7511 81.0001,-85.751"/>
</g>
<!-- Node5 -->
<g id="node6" class="node"><title>Node5</title>
<polygon fill="white" stroke="#bfbfbf" points="53,-0.5 53,-19.5 102,-19.5 102,-0.5 53,-0.5"/>
<text text-anchor="middle" x="77.5" y="-7.5" font-family="Helvetica,sans-Serif" font-size="10.00">stdint.h</text>
</g>
<!-- Node4&#45;&gt;Node5 -->
<g id="edge5" class="edge"><title>Node4&#45;&gt;Node5</title>
<path fill="none" stroke="midnightblue" d="M77.5,-56.083C77.5,-49.0059 77.5,-38.8611 77.5,-29.9865"/>
<polygon fill="midnightblue" stroke="midnightblue" points="81.0001,-29.751 77.5,-19.7511 74.0001,-29.7511 81.0001,-29.751"/>
</g>
</g>
</svg>
