<?xml version="1.0" encoding="UTF-8" standalone="no"?>
<!DOCTYPE svg PUBLIC "-//W3C//DTD SVG 1.1//EN"
 "http://www.w3.org/Graphics/SVG/1.1/DTD/svg11.dtd">
<!-- Generated by graphviz version 2.36.0 (20140111.2315)
 -->
<!-- Title: wlp::random_access_iterator_concept&lt; C, true &gt; Pages: 1 -->
<svg width="241pt" height="130pt"
 viewBox="0.00 0.00 241.00 130.00" xmlns="http://www.w3.org/2000/svg" xmlns:xlink="http://www.w3.org/1999/xlink">
<g id="graph0" class="graph" transform="scale(1 1) rotate(0) translate(4 126)">
<title>wlp::random_access_iterator_concept&lt; C, true &gt;</title>
<polygon fill="white" stroke="none" points="-4,4 -4,-126 237,-126 237,4 -4,4"/>
<!-- Node1 -->
<g id="node1" class="node"><title>Node1</title>
<polygon fill="#bfbfbf" stroke="black" points="60.5,-0.5 60.5,-41.5 171.5,-41.5 171.5,-0.5 60.5,-0.5"/>
<text text-anchor="start" x="68.5" y="-29.5" font-family="Helvetica,sans-Serif" font-size="10.00">wlp::random_access</text>
<text text-anchor="start" x="68.5" y="-18.5" font-family="Helvetica,sans-Serif" font-size="10.00">_iterator_concept&lt; C,</text>
<text text-anchor="middle" x="116" y="-7.5" font-family="Helvetica,sans-Serif" font-size="10.00"> true &gt;</text>
</g>
<!-- Node2 -->
<g id="node2" class="node"><title>Node2</title>
<polygon fill="white" stroke="#bfbfbf" points="-0.5,-96.5 -0.5,-115.5 106.5,-115.5 106.5,-96.5 -0.5,-96.5"/>
<text text-anchor="middle" x="53" y="-103.5" font-family="Helvetica,sans-Serif" font-size="10.00">static constexpr bool</text>
</g>
<!-- Node2&#45;&gt;Node1 -->
<g id="edge1" class="edge"><title>Node2&#45;&gt;Node1</title>
<path fill="none" stroke="#9a32cd" stroke-dasharray="5,2" d="M65.8318,-88.0946C76.0546,-74.6265 90.3812,-55.7518 101.109,-41.6189"/>
<polygon fill="#9a32cd" stroke="#9a32cd" points="62.763,-86.3487 59.5048,-96.4302 68.3387,-90.5809 62.763,-86.3487"/>
<text text-anchor="middle" x="100.5" y="-63.5" font-family="Helvetica,sans-Serif" font-size="10.00"> value</text>
</g>
<!-- Node3 -->
<g id="node3" class="node"><title>Node3</title>
<polygon fill="white" stroke="#bfbfbf" points="125,-91 125,-121 233,-121 233,-91 125,-91"/>
<text text-anchor="start" x="133" y="-109" font-family="Helvetica,sans-Serif" font-size="10.00">decltype(check&lt; C &gt;</text>
<text text-anchor="middle" x="179" y="-98" font-family="Helvetica,sans-Serif" font-size="10.00">(nullptr)) typedef</text>
</g>
<!-- Node3&#45;&gt;Node1 -->
<g id="edge2" class="edge"><title>Node3&#45;&gt;Node1</title>
<path fill="none" stroke="#9a32cd" stroke-dasharray="5,2" d="M162.047,-82.6656C152.365,-69.91 140.334,-54.0589 130.998,-41.7587"/>
<polygon fill="#9a32cd" stroke="#9a32cd" points="159.479,-85.0709 168.313,-90.9202 165.055,-80.8387 159.479,-85.0709"/>
<text text-anchor="middle" x="165" y="-63.5" font-family="Helvetica,sans-Serif" font-size="10.00"> type</text>
</g>
</g>
</svg>
