<?xml version="1.0" encoding="UTF-8" standalone="no"?>
<!DOCTYPE svg PUBLIC "-//W3C//DTD SVG 1.1//EN"
 "http://www.w3.org/Graphics/SVG/1.1/DTD/svg11.dtd">
<!-- Generated by graphviz version 2.36.0 (20140111.2315)
 -->
<!-- Title: wlp::random_access_iterator_concept&lt; C, true &gt; Pages: 1 -->
<svg width="169pt" height="130pt"
 viewBox="0.00 0.00 169.00 130.00" xmlns="http://www.w3.org/2000/svg" xmlns:xlink="http://www.w3.org/1999/xlink">
<g id="graph0" class="graph" transform="scale(1 1) rotate(0) translate(4 126)">
<title>wlp::random_access_iterator_concept&lt; C, true &gt;</title>
<polygon fill="white" stroke="none" points="-4,4 -4,-126 165,-126 165,4 -4,4"/>
<!-- Node1 -->
<g id="node1" class="node"><title>Node1</title>
<polygon fill="#bfbfbf" stroke="black" points="43.5,-0.5 43.5,-41.5 154.5,-41.5 154.5,-0.5 43.5,-0.5"/>
<text text-anchor="start" x="51.5" y="-29.5" font-family="Helvetica,sans-Serif" font-size="10.00">wlp::random_access</text>
<text text-anchor="start" x="51.5" y="-18.5" font-family="Helvetica,sans-Serif" font-size="10.00">_iterator_concept&lt; C,</text>
<text text-anchor="middle" x="99" y="-7.5" font-family="Helvetica,sans-Serif" font-size="10.00"> true &gt;</text>
</g>
<!-- Node2 -->
<g id="node2" class="node"><title>Node2</title>
<polygon fill="white" stroke="#bfbfbf" points="0,-91 0,-121 108,-121 108,-91 0,-91"/>
<text text-anchor="start" x="8" y="-109" font-family="Helvetica,sans-Serif" font-size="10.00">decltype(check&lt; C &gt;</text>
<text text-anchor="middle" x="54" y="-98" font-family="Helvetica,sans-Serif" font-size="10.00">(nullptr)) typedef</text>
</g>
<!-- Node2&#45;&gt;Node1 -->
<g id="edge1" class="edge"><title>Node2&#45;&gt;Node1</title>
<path fill="none" stroke="#9a32cd" stroke-dasharray="5,2" d="M66.5098,-81.9263C73.3545,-69.3017 81.7469,-53.8224 88.2875,-41.7587"/>
<polygon fill="#9a32cd" stroke="#9a32cd" points="63.3231,-80.4609 61.6336,-90.9202 69.4768,-83.7973 63.3231,-80.4609"/>
<text text-anchor="middle" x="89" y="-63.5" font-family="Helvetica,sans-Serif" font-size="10.00"> type</text>
</g>
<!-- Node3 -->
<g id="node3" class="node"><title>Node3</title>
<polygon fill="white" stroke="#bfbfbf" points="126.5,-96.5 126.5,-115.5 161.5,-115.5 161.5,-96.5 126.5,-96.5"/>
<text text-anchor="middle" x="144" y="-103.5" font-family="Helvetica,sans-Serif" font-size="10.00">bool</text>
</g>
<!-- Node3&#45;&gt;Node1 -->
<g id="edge2" class="edge"><title>Node3&#45;&gt;Node1</title>
<path fill="none" stroke="#9a32cd" stroke-dasharray="5,2" d="M134.41,-87.3116C127.14,-73.9023 117.152,-55.48 109.637,-41.6189"/>
<polygon fill="#9a32cd" stroke="#9a32cd" points="131.511,-89.3073 139.354,-96.4302 137.664,-85.9709 131.511,-89.3073"/>
<text text-anchor="middle" x="139.5" y="-63.5" font-family="Helvetica,sans-Serif" font-size="10.00"> value</text>
</g>
</g>
</svg>
