<?xml version="1.0" encoding="UTF-8" standalone="no"?>
<!DOCTYPE svg PUBLIC "-//W3C//DTD SVG 1.1//EN"
 "http://www.w3.org/Graphics/SVG/1.1/DTD/svg11.dtd">
<!-- Generated by graphviz version 2.36.0 (20140111.2315)
 -->
<!-- Title: wlp::initializer_list&lt; val_t &gt; Pages: 1 -->
<svg width="147pt" height="108pt"
 viewBox="0.00 0.00 147.00 108.00" xmlns="http://www.w3.org/2000/svg" xmlns:xlink="http://www.w3.org/1999/xlink">
<g id="graph0" class="graph" transform="scale(1 1) rotate(0) translate(4 104)">
<title>wlp::initializer_list&lt; val_t &gt;</title>
<polygon fill="white" stroke="none" points="-4,4 -4,-104 143,-104 143,4 -4,4"/>
<!-- Node1 -->
<g id="node1" class="node"><title>Node1</title>
<polygon fill="#bfbfbf" stroke="black" points="27,-1 27,-31 121,-31 121,-1 27,-1"/>
<text text-anchor="start" x="35" y="-19" font-family="Helvetica,sans-Serif" font-size="10.00">wlp::initializer_list</text>
<text text-anchor="middle" x="74" y="-8" font-family="Helvetica,sans-Serif" font-size="10.00">&lt; val_t &gt;</text>
</g>
<!-- Node2 -->
<g id="node2" class="node"><title>Node2</title>
<polygon fill="white" stroke="#bfbfbf" points="-0.5,-80.5 -0.5,-99.5 70.5,-99.5 70.5,-80.5 -0.5,-80.5"/>
<text text-anchor="middle" x="35" y="-87.5" font-family="Helvetica,sans-Serif" font-size="10.00">const val_t *</text>
</g>
<!-- Node2&#45;&gt;Node1 -->
<g id="edge1" class="edge"><title>Node2&#45;&gt;Node1</title>
<path fill="none" stroke="#9a32cd" stroke-dasharray="5,2" d="M44.44,-71.5723C51.1386,-59.2058 60.0182,-42.8125 66.2912,-31.2316"/>
<polygon fill="#9a32cd" stroke="#9a32cd" points="41.3123,-69.998 39.627,-80.4579 47.4674,-73.332 41.3123,-69.998"/>
<text text-anchor="middle" x="70" y="-53.5" font-family="Helvetica,sans-Serif" font-size="10.00"> m_arr</text>
</g>
<!-- Node3 -->
<g id="node3" class="node"><title>Node3</title>
<polygon fill="white" stroke="#bfbfbf" points="88.5,-80.5 88.5,-99.5 139.5,-99.5 139.5,-80.5 88.5,-80.5"/>
<text text-anchor="middle" x="114" y="-87.5" font-family="Helvetica,sans-Serif" font-size="10.00">uint16_t</text>
</g>
<!-- Node3&#45;&gt;Node1 -->
<g id="edge2" class="edge"><title>Node3&#45;&gt;Node1</title>
<path fill="none" stroke="#9a32cd" stroke-dasharray="5,2" d="M104.318,-71.5723C97.4476,-59.2058 88.3403,-42.8125 81.9064,-31.2316"/>
<polygon fill="#9a32cd" stroke="#9a32cd" points="101.338,-73.4161 109.254,-80.4579 107.457,-70.0166 101.338,-73.4161"/>
<text text-anchor="middle" x="113" y="-53.5" font-family="Helvetica,sans-Serif" font-size="10.00"> m_len</text>
</g>
</g>
</svg>
