<?xml version="1.0" encoding="UTF-8" standalone="no"?>
<!DOCTYPE svg PUBLIC "-//W3C//DTD SVG 1.1//EN"
 "http://www.w3.org/Graphics/SVG/1.1/DTD/svg11.dtd">
<!-- Generated by graphviz version 2.36.0 (20140111.2315)
 -->
<!-- Title: wlp::initializer_list&lt; val_t &gt; Pages: 1 -->
<svg width="139pt" height="108pt"
 viewBox="0.00 0.00 139.00 108.00" xmlns="http://www.w3.org/2000/svg" xmlns:xlink="http://www.w3.org/1999/xlink">
<g id="graph0" class="graph" transform="scale(1 1) rotate(0) translate(4 104)">
<title>wlp::initializer_list&lt; val_t &gt;</title>
<polygon fill="white" stroke="none" points="-4,4 -4,-104 135,-104 135,4 -4,4"/>
<!-- Node1 -->
<g id="node1" class="node"><title>Node1</title>
<polygon fill="#bfbfbf" stroke="black" points="25,-1 25,-31 119,-31 119,-1 25,-1"/>
<text text-anchor="start" x="33" y="-19" font-family="Helvetica,sans-Serif" font-size="10.00">wlp::initializer_list</text>
<text text-anchor="middle" x="72" y="-8" font-family="Helvetica,sans-Serif" font-size="10.00">&lt; val_t &gt;</text>
</g>
<!-- Node2 -->
<g id="node2" class="node"><title>Node2</title>
<polygon fill="white" stroke="#bfbfbf" points="-0.5,-80.5 -0.5,-99.5 70.5,-99.5 70.5,-80.5 -0.5,-80.5"/>
<text text-anchor="middle" x="35" y="-87.5" font-family="Helvetica,sans-Serif" font-size="10.00">const val_t *</text>
</g>
<!-- Node2&#45;&gt;Node1 -->
<g id="edge1" class="edge"><title>Node2&#45;&gt;Node1</title>
<path fill="none" stroke="#9a32cd" stroke-dasharray="5,2" d="M44.1453,-71.2038C50.4775,-58.8816 58.7942,-42.6978 64.6865,-31.2316"/>
<polygon fill="#9a32cd" stroke="#9a32cd" points="40.8474,-69.9638 39.3897,-80.4579 47.0734,-73.1634 40.8474,-69.9638"/>
<text text-anchor="middle" x="69" y="-53.5" font-family="Helvetica,sans-Serif" font-size="10.00"> m_arr</text>
</g>
<!-- Node3 -->
<g id="node3" class="node"><title>Node3</title>
<polygon fill="white" stroke="#bfbfbf" points="88.5,-80.5 88.5,-99.5 131.5,-99.5 131.5,-80.5 88.5,-80.5"/>
<text text-anchor="middle" x="110" y="-87.5" font-family="Helvetica,sans-Serif" font-size="10.00">size_t</text>
</g>
<!-- Node3&#45;&gt;Node1 -->
<g id="edge2" class="edge"><title>Node3&#45;&gt;Node1</title>
<path fill="none" stroke="#9a32cd" stroke-dasharray="5,2" d="M100.802,-71.5723C94.2753,-59.2058 85.6233,-42.8125 79.5111,-31.2316"/>
<polygon fill="#9a32cd" stroke="#9a32cd" points="97.7287,-73.2477 105.492,-80.4579 103.919,-69.9804 97.7287,-73.2477"/>
<text text-anchor="middle" x="110" y="-53.5" font-family="Helvetica,sans-Serif" font-size="10.00"> m_len</text>
</g>
</g>
</svg>
