<?xml version="1.0" encoding="UTF-8" standalone="no"?>
<!DOCTYPE svg PUBLIC "-//W3C//DTD SVG 1.1//EN"
 "http://www.w3.org/Graphics/SVG/1.1/DTD/svg11.dtd">
<!-- Generated by graphviz version 2.36.0 (20140111.2315)
 -->
<!-- Title: wlib Pages: 1 -->
<svg width="256pt" height="364pt"
 viewBox="0.00 0.00 256.00 364.00" xmlns="http://www.w3.org/2000/svg" xmlns:xlink="http://www.w3.org/1999/xlink">
<g id="graph0" class="graph" transform="scale(1 1) rotate(0) translate(4 360)">
<title>wlib</title>
<polygon fill="white" stroke="none" points="-4,4 -4,-360 252,-360 252,4 -4,4"/>
<g id="clust1" class="cluster"><title>clusterdir_22fc7acad71c9021e217a1a2f7fbab65</title>
<g id="a_clust1"><a xlink:href="dir_22fc7acad71c9021e217a1a2f7fbab65.html" target="_top">
<polygon fill="#eeeeff" stroke="black" points="8,-8 8,-348 240,-348 240,-8 8,-8"/>
</a>
</g>
</g>
<!-- dir_22fc7acad71c9021e217a1a2f7fbab65 -->
<g id="node1" class="node"><title>dir_22fc7acad71c9021e217a1a2f7fbab65</title>
<text text-anchor="middle" x="205" y="-319.5" font-family="Helvetica,sans-Serif" font-size="10.00">wlib</text>
</g>
<!-- dir_6790d4ca83056b5922328e32f116e3db -->
<g id="node2" class="node"><title>dir_6790d4ca83056b5922328e32f116e3db</title>
<g id="a_node2"><a xlink:href="dir_6790d4ca83056b5922328e32f116e3db.html" target="_top" xlink:title="comm">
<polygon fill="white" stroke="black" points="160,-340 106,-340 106,-304 160,-304 160,-340"/>
<text text-anchor="middle" x="133" y="-319.5" font-family="Helvetica,sans-Serif" font-size="10.00">comm</text>
</a>
</g>
</g>
<!-- dir_77dbef541250b97d434142b4de945562 -->
<g id="node6" class="node"><title>dir_77dbef541250b97d434142b4de945562</title>
<g id="a_node6"><a xlink:href="dir_77dbef541250b97d434142b4de945562.html" target="_top" xlink:title="stl">
<polygon fill="white" stroke="black" points="189,-268 135,-268 135,-232 189,-232 189,-268"/>
<text text-anchor="middle" x="162" y="-247.5" font-family="Helvetica,sans-Serif" font-size="10.00">stl</text>
</a>
</g>
</g>
<!-- dir_6790d4ca83056b5922328e32f116e3db&#45;&gt;dir_77dbef541250b97d434142b4de945562 -->
<g id="edge13" class="edge"><title>dir_6790d4ca83056b5922328e32f116e3db&#45;&gt;dir_77dbef541250b97d434142b4de945562</title>
<path fill="none" stroke="black" d="M140.169,-303.697C143.435,-295.813 147.374,-286.304 151.002,-277.546"/>
<polygon fill="black" stroke="black" points="154.32,-278.683 154.914,-268.104 147.853,-276.003 154.32,-278.683"/>
<g id="a_edge13&#45;headlabel"><a xlink:href="dir_000001_000005.html" target="_top" xlink:title="1">
<text text-anchor="middle" x="155.567" y="-280.59" font-family="Helvetica,sans-Serif" font-size="10.00">1</text>
</a>
</g>
</g>
<!-- dir_a436dbeb8a7aa26d51326cf59c388c6e -->
<g id="node3" class="node"><title>dir_a436dbeb8a7aa26d51326cf59c388c6e</title>
<g id="a_node3"><a xlink:href="dir_a436dbeb8a7aa26d51326cf59c388c6e.html" target="_top" xlink:title="exceptions">
<polygon fill="white" stroke="black" points="120,-196 56,-196 56,-160 120,-160 120,-196"/>
<text text-anchor="middle" x="88" y="-175.5" font-family="Helvetica,sans-Serif" font-size="10.00">exceptions</text>
</a>
</g>
</g>
<!-- dir_1363f2cf5a4e816a1c4a90bf1a8cd04f -->
<g id="node5" class="node"><title>dir_1363f2cf5a4e816a1c4a90bf1a8cd04f</title>
<g id="a_node5"><a xlink:href="dir_1363f2cf5a4e816a1c4a90bf1a8cd04f.html" target="_top" xlink:title="memory">
<polygon fill="white" stroke="black" points="166,-124 112,-124 112,-88 166,-88 166,-124"/>
<text text-anchor="middle" x="139" y="-103.5" font-family="Helvetica,sans-Serif" font-size="10.00">memory</text>
</a>
</g>
</g>
<!-- dir_a436dbeb8a7aa26d51326cf59c388c6e&#45;&gt;dir_1363f2cf5a4e816a1c4a90bf1a8cd04f -->
<g id="edge4" class="edge"><title>dir_a436dbeb8a7aa26d51326cf59c388c6e&#45;&gt;dir_1363f2cf5a4e816a1c4a90bf1a8cd04f</title>
<path fill="none" stroke="black" d="M100.607,-159.697C106.597,-151.474 113.876,-141.483 120.479,-132.421"/>
<polygon fill="black" stroke="black" points="123.478,-134.248 126.538,-124.104 117.821,-130.126 123.478,-134.248"/>
<g id="a_edge4&#45;headlabel"><a xlink:href="dir_000002_000004.html" target="_top" xlink:title="1">
<text text-anchor="middle" x="123.657" y="-136.325" font-family="Helvetica,sans-Serif" font-size="10.00">1</text>
</a>
</g>
</g>
<!-- dir_78a7cbe2b9539c64c067bb86672c8479 -->
<g id="node4" class="node"><title>dir_78a7cbe2b9539c64c067bb86672c8479</title>
<g id="a_node4"><a xlink:href="dir_78a7cbe2b9539c64c067bb86672c8479.html" target="_top" xlink:title="fsm">
<polygon fill="white" stroke="black" points="70,-268 16,-268 16,-232 70,-232 70,-268"/>
<text text-anchor="middle" x="43" y="-247.5" font-family="Helvetica,sans-Serif" font-size="10.00">fsm</text>
</a>
</g>
</g>
<!-- dir_78a7cbe2b9539c64c067bb86672c8479&#45;&gt;dir_a436dbeb8a7aa26d51326cf59c388c6e -->
<g id="edge10" class="edge"><title>dir_78a7cbe2b9539c64c067bb86672c8479&#45;&gt;dir_a436dbeb8a7aa26d51326cf59c388c6e</title>
<path fill="none" stroke="black" d="M54.1236,-231.697C59.355,-223.559 65.6999,-213.689 71.4778,-204.701"/>
<polygon fill="black" stroke="black" points="74.5409,-206.409 77.0044,-196.104 68.6526,-202.623 74.5409,-206.409"/>
<g id="a_edge10&#45;headlabel"><a xlink:href="dir_000003_000002.html" target="_top" xlink:title="1">
<text text-anchor="middle" x="74.9854" y="-208.468" font-family="Helvetica,sans-Serif" font-size="10.00">1</text>
</a>
</g>
</g>
<!-- dir_78a7cbe2b9539c64c067bb86672c8479&#45;&gt;dir_1363f2cf5a4e816a1c4a90bf1a8cd04f -->
<g id="edge11" class="edge"><title>dir_78a7cbe2b9539c64c067bb86672c8479&#45;&gt;dir_1363f2cf5a4e816a1c4a90bf1a8cd04f</title>
<path fill="none" stroke="black" d="M39.1877,-231.868C35.9356,-212.845 33.6559,-181.935 47,-160 59.2671,-139.835 82.2794,-126.583 102.219,-118.373"/>
<polygon fill="black" stroke="black" points="103.615,-121.586 111.7,-114.739 101.11,-115.05 103.615,-121.586"/>
<g id="a_edge11&#45;headlabel"><a xlink:href="dir_000003_000004.html" target="_top" xlink:title="1">
<text text-anchor="middle" x="101.274" y="-123.024" font-family="Helvetica,sans-Serif" font-size="10.00">1</text>
</a>
</g>
</g>
<!-- dir_02251a17349bccc1c5077a63762f4b59 -->
<g id="node8" class="node"><title>dir_02251a17349bccc1c5077a63762f4b59</title>
<g id="a_node8"><a xlink:href="dir_02251a17349bccc1c5077a63762f4b59.html" target="_top" xlink:title="utility">
<polygon fill="white" stroke="black" points="189,-52 135,-52 135,-16 189,-16 189,-52"/>
<text text-anchor="middle" x="162" y="-31.5" font-family="Helvetica,sans-Serif" font-size="10.00">utility</text>
</a>
</g>
</g>
<!-- dir_78a7cbe2b9539c64c067bb86672c8479&#45;&gt;dir_02251a17349bccc1c5077a63762f4b59 -->
<g id="edge12" class="edge"><title>dir_78a7cbe2b9539c64c067bb86672c8479&#45;&gt;dir_02251a17349bccc1c5077a63762f4b59</title>
<path fill="none" stroke="black" d="M36.6692,-231.935C30.8684,-213.512 24.5041,-183.633 34,-160 51.9422,-115.346 95.0505,-78.9573 126.291,-57.1852"/>
<polygon fill="black" stroke="black" points="128.45,-59.95 134.758,-51.4372 124.518,-54.1587 128.45,-59.95"/>
<g id="a_edge12&#45;headlabel"><a xlink:href="dir_000003_000007.html" target="_top" xlink:title="1">
<text text-anchor="middle" x="127.071" y="-61.8181" font-family="Helvetica,sans-Serif" font-size="10.00">1</text>
</a>
</g>
</g>
<!-- dir_1363f2cf5a4e816a1c4a90bf1a8cd04f&#45;&gt;dir_02251a17349bccc1c5077a63762f4b59 -->
<g id="edge5" class="edge"><title>dir_1363f2cf5a4e816a1c4a90bf1a8cd04f&#45;&gt;dir_02251a17349bccc1c5077a63762f4b59</title>
<path fill="none" stroke="black" d="M144.685,-87.6966C147.248,-79.8979 150.333,-70.5085 153.185,-61.8292"/>
<polygon fill="black" stroke="black" points="156.584,-62.6972 156.38,-52.1043 149.933,-60.5121 156.584,-62.6972"/>
<g id="a_edge5&#45;headlabel"><a xlink:href="dir_000004_000007.html" target="_top" xlink:title="5">
<text text-anchor="middle" x="158.159" y="-64.4985" font-family="Helvetica,sans-Serif" font-size="10.00">5</text>
</a>
</g>
</g>
<!-- dir_77dbef541250b97d434142b4de945562&#45;&gt;dir_a436dbeb8a7aa26d51326cf59c388c6e -->
<g id="edge7" class="edge"><title>dir_77dbef541250b97d434142b4de945562&#45;&gt;dir_a436dbeb8a7aa26d51326cf59c388c6e</title>
<path fill="none" stroke="black" d="M143.708,-231.697C134.567,-223.05 123.36,-212.449 113.4,-203.027"/>
<polygon fill="black" stroke="black" points="115.752,-200.434 106.082,-196.104 110.941,-205.519 115.752,-200.434"/>
<g id="a_edge7&#45;headlabel"><a xlink:href="dir_000005_000002.html" target="_top" xlink:title="7">
<text text-anchor="middle" x="120.314" y="-198.341" font-family="Helvetica,sans-Serif" font-size="10.00">7</text>
</a>
</g>
</g>
<!-- dir_77dbef541250b97d434142b4de945562&#45;&gt;dir_1363f2cf5a4e816a1c4a90bf1a8cd04f -->
<g id="edge8" class="edge"><title>dir_77dbef541250b97d434142b4de945562&#45;&gt;dir_1363f2cf5a4e816a1c4a90bf1a8cd04f</title>
<path fill="none" stroke="black" d="M157.221,-231.933C154.478,-221.603 151.159,-208.126 149,-196 145.343,-175.464 142.773,-152.01 141.155,-134.336"/>
<polygon fill="black" stroke="black" points="144.622,-133.815 140.269,-124.156 137.649,-134.422 144.622,-133.815"/>
<g id="a_edge8&#45;headlabel"><a xlink:href="dir_000005_000004.html" target="_top" xlink:title="5">
<text text-anchor="middle" x="147.763" y="-134.65" font-family="Helvetica,sans-Serif" font-size="10.00">5</text>
</a>
</g>
</g>
<!-- dir_ebba939d40c68163c516181d98ea4107 -->
<g id="node7" class="node"><title>dir_ebba939d40c68163c516181d98ea4107</title>
<g id="a_node7"><a xlink:href="dir_ebba939d40c68163c516181d98ea4107.html" target="_top" xlink:title="strings">
<polygon fill="white" stroke="black" points="212,-196 158,-196 158,-160 212,-160 212,-196"/>
<text text-anchor="middle" x="185" y="-175.5" font-family="Helvetica,sans-Serif" font-size="10.00">strings</text>
</a>
</g>
</g>
<!-- dir_77dbef541250b97d434142b4de945562&#45;&gt;dir_ebba939d40c68163c516181d98ea4107 -->
<g id="edge6" class="edge"><title>dir_77dbef541250b97d434142b4de945562&#45;&gt;dir_ebba939d40c68163c516181d98ea4107</title>
<path fill="none" stroke="black" d="M161.77,-231.697C163.547,-223.813 166.452,-214.304 169.706,-205.546"/>
<polygon fill="black" stroke="black" points="173.018,-206.689 173.485,-196.104 166.52,-204.088 173.018,-206.689"/>
<g id="a_edge6&#45;headlabel"><a xlink:href="dir_000005_000006.html" target="_top" xlink:title="4">
<text text-anchor="middle" x="174.319" y="-208.581" font-family="Helvetica,sans-Serif" font-size="10.00">4</text>
</a>
</g>
</g>
<!-- dir_77dbef541250b97d434142b4de945562&#45;&gt;dir_02251a17349bccc1c5077a63762f4b59 -->
<g id="edge9" class="edge"><title>dir_77dbef541250b97d434142b4de945562&#45;&gt;dir_02251a17349bccc1c5077a63762f4b59</title>
<path fill="none" stroke="black" d="M189.181,-232.337C201.331,-223.259 214.383,-210.839 221,-196 227.516,-181.387 224.499,-175.613 221,-160 212.855,-123.664 192.907,-85.4502 178.456,-60.9861"/>
<polygon fill="black" stroke="black" points="181.387,-59.0688 173.224,-52.3158 175.394,-62.6859 181.387,-59.0688"/>
<g id="a_edge9&#45;headlabel"><a xlink:href="dir_000005_000007.html" target="_top" xlink:title="16">
<text text-anchor="middle" x="185.676" y="-58.1793" font-family="Helvetica,sans-Serif" font-size="10.00">16</text>
</a>
</g>
</g>
<!-- dir_ebba939d40c68163c516181d98ea4107&#45;&gt;dir_1363f2cf5a4e816a1c4a90bf1a8cd04f -->
<g id="edge1" class="edge"><title>dir_ebba939d40c68163c516181d98ea4107&#45;&gt;dir_1363f2cf5a4e816a1c4a90bf1a8cd04f</title>
<path fill="none" stroke="black" d="M173.629,-159.697C168.282,-151.559 161.796,-141.689 155.889,-132.701"/>
<polygon fill="black" stroke="black" points="158.657,-130.539 150.24,-124.104 152.807,-134.384 158.657,-130.539"/>
<g id="a_edge1&#45;headlabel"><a xlink:href="dir_000006_000004.html" target="_top" xlink:title="1">
<text text-anchor="middle" x="163.004" y="-129.484" font-family="Helvetica,sans-Serif" font-size="10.00">1</text>
</a>
</g>
</g>
<!-- dir_ebba939d40c68163c516181d98ea4107&#45;&gt;dir_77dbef541250b97d434142b4de945562 -->
<g id="edge2" class="edge"><title>dir_ebba939d40c68163c516181d98ea4107&#45;&gt;dir_77dbef541250b97d434142b4de945562</title>
<path fill="none" stroke="black" d="M185.275,-196.104C183.517,-203.96 180.624,-213.462 177.376,-222.232"/>
<polygon fill="black" stroke="black" points="174.055,-221.112 173.601,-231.697 180.557,-223.705 174.055,-221.112"/>
<g id="a_edge2&#45;headlabel"><a xlink:href="dir_000006_000005.html" target="_top" xlink:title="1">
<text text-anchor="middle" x="172.75" y="-214.221" font-family="Helvetica,sans-Serif" font-size="10.00">1</text>
</a>
</g>
</g>
<!-- dir_ebba939d40c68163c516181d98ea4107&#45;&gt;dir_02251a17349bccc1c5077a63762f4b59 -->
<g id="edge3" class="edge"><title>dir_ebba939d40c68163c516181d98ea4107&#45;&gt;dir_02251a17349bccc1c5077a63762f4b59</title>
<path fill="none" stroke="black" d="M183.731,-159.844C182.247,-141.852 179.416,-112.799 175,-88 173.482,-79.4741 171.391,-70.2798 169.329,-61.9813"/>
<polygon fill="black" stroke="black" points="172.659,-60.8795 166.779,-52.0667 165.88,-62.6234 172.659,-60.8795"/>
<g id="a_edge3&#45;headlabel"><a xlink:href="dir_000006_000007.html" target="_top" xlink:title="1">
<text text-anchor="middle" x="176.305" y="-61.1535" font-family="Helvetica,sans-Serif" font-size="10.00">1</text>
</a>
</g>
</g>
</g>
</svg>
