<?xml version="1.0" encoding="UTF-8" standalone="no"?>
<!DOCTYPE svg PUBLIC "-//W3C//DTD SVG 1.1//EN"
 "http://www.w3.org/Graphics/SVG/1.1/DTD/svg11.dtd">
<!-- Generated by graphviz version 2.38.0 (20140413.2041)
 -->
<!-- Title: stl Pages: 1 -->
<svg width="131pt" height="260pt"
 viewBox="0.00 0.00 131.46 260.00" xmlns="http://www.w3.org/2000/svg" xmlns:xlink="http://www.w3.org/1999/xlink">
<g id="graph0" class="graph" transform="scale(1 1) rotate(0) translate(4 256)">
<title>stl</title>
<polygon fill="white" stroke="none" points="-4,4 -4,-256 127.458,-256 127.458,4 -4,4"/>
<!-- dir_0e0af3a1c9cce4f0051efc3f8b7869d1 -->
<g id="node1" class="node"><title>dir_0e0af3a1c9cce4f0051efc3f8b7869d1</title>
<g id="a_node1"><a xlink:href="dir_0e0af3a1c9cce4f0051efc3f8b7869d1.html" target="_top" xlink:title="stl">
<polygon fill="#eeeeff" stroke="black" points="118,-252 64,-252 64,-216 118,-216 118,-252"/>
<text text-anchor="middle" x="91" y="-231.5" font-family="Helvetica,sans-Serif" font-size="10.00">stl</text>
</a>
</g>
</g>
<!-- dir_267116d250309cbe7bd39c0026ee016a -->
<g id="node2" class="node"><title>dir_267116d250309cbe7bd39c0026ee016a</title>
<g id="a_node2"><a xlink:href="dir_267116d250309cbe7bd39c0026ee016a.html" target="_top" xlink:title="memory">
<polygon fill="none" stroke="black" points="54,-180 0,-180 0,-144 54,-144 54,-180"/>
<text text-anchor="middle" x="27" y="-159.5" font-family="Helvetica,sans-Serif" font-size="10.00">memory</text>
</a>
</g>
</g>
<!-- dir_0e0af3a1c9cce4f0051efc3f8b7869d1&#45;&gt;dir_267116d250309cbe7bd39c0026ee016a -->
<g id="edge3" class="edge"><title>dir_0e0af3a1c9cce4f0051efc3f8b7869d1&#45;&gt;dir_267116d250309cbe7bd39c0026ee016a</title>
<path fill="none" stroke="black" d="M75.1798,-215.697C67.4295,-207.22 57.961,-196.864 49.4755,-187.583"/>
<polygon fill="black" stroke="black" points="51.9691,-185.123 42.6382,-180.104 46.8029,-189.846 51.9691,-185.123"/>
<g id="a_edge3&#45;headlabel"><a xlink:href="dir_000002_000001.html" target="_top" xlink:title="7">
<text text-anchor="middle" x="56.49" y="-183.36" font-family="Helvetica,sans-Serif" font-size="10.00">7</text>
</a>
</g>
</g>
<!-- dir_64e73385a8b7738563c26ce10415b58d -->
<g id="node3" class="node"><title>dir_64e73385a8b7738563c26ce10415b58d</title>
<g id="a_node3"><a xlink:href="dir_64e73385a8b7738563c26ce10415b58d.html" target="_top" xlink:title="utility">
<polygon fill="none" stroke="black" points="109,-36 55,-36 55,-0 109,-0 109,-36"/>
<text text-anchor="middle" x="82" y="-15.5" font-family="Helvetica,sans-Serif" font-size="10.00">utility</text>
</a>
</g>
</g>
<!-- dir_0e0af3a1c9cce4f0051efc3f8b7869d1&#45;&gt;dir_64e73385a8b7738563c26ce10415b58d -->
<g id="edge4" class="edge"><title>dir_0e0af3a1c9cce4f0051efc3f8b7869d1&#45;&gt;dir_64e73385a8b7738563c26ce10415b58d</title>
<path fill="none" stroke="black" d="M99.018,-215.736C111.759,-185.884 133.661,-122.929 118,-72 114.991,-62.2153 109.493,-52.6161 103.684,-44.3336"/>
<polygon fill="black" stroke="black" points="106.407,-42.1306 97.6099,-36.2264 100.805,-46.3279 106.407,-42.1306"/>
<g id="a_edge4&#45;headlabel"><a xlink:href="dir_000002_000004.html" target="_top" xlink:title="14">
<text text-anchor="middle" x="110.835" y="-40.8048" font-family="Helvetica,sans-Serif" font-size="10.00">14</text>
</a>
</g>
</g>
<!-- dir_73a3cc5065b223eb41b02873c0e19f0e -->
<g id="node4" class="node"><title>dir_73a3cc5065b223eb41b02873c0e19f0e</title>
<g id="a_node4"><a xlink:href="dir_73a3cc5065b223eb41b02873c0e19f0e.html" target="_top" xlink:title="strings">
<polygon fill="none" stroke="black" points="109,-108 55,-108 55,-72 109,-72 109,-108"/>
<text text-anchor="middle" x="82" y="-87.5" font-family="Helvetica,sans-Serif" font-size="10.00">strings</text>
</a>
</g>
</g>
<!-- dir_0e0af3a1c9cce4f0051efc3f8b7869d1&#45;&gt;dir_73a3cc5065b223eb41b02873c0e19f0e -->
<g id="edge5" class="edge"><title>dir_0e0af3a1c9cce4f0051efc3f8b7869d1&#45;&gt;dir_73a3cc5065b223eb41b02873c0e19f0e</title>
<path fill="none" stroke="black" d="M85.3299,-215.871C81.2377,-191.67 78.1283,-147.211 78.2772,-118.393"/>
<polygon fill="black" stroke="black" points="81.7808,-118.263 78.4986,-108.189 74.7824,-118.111 81.7808,-118.263"/>
<g id="a_edge5&#45;headlabel"><a xlink:href="dir_000002_000003.html" target="_top" xlink:title="5">
<text text-anchor="middle" x="84.5415" y="-119.418" font-family="Helvetica,sans-Serif" font-size="10.00">5</text>
</a>
</g>
</g>
<!-- dir_267116d250309cbe7bd39c0026ee016a&#45;&gt;dir_64e73385a8b7738563c26ce10415b58d -->
<g id="edge1" class="edge"><title>dir_267116d250309cbe7bd39c0026ee016a&#45;&gt;dir_64e73385a8b7738563c26ce10415b58d</title>
<path fill="none" stroke="black" d="M28.6972,-143.674C30.9505,-125.29 35.8884,-95.6852 46,-72 50.0842,-62.4333 55.9884,-52.7836 61.8379,-44.3881"/>
<polygon fill="black" stroke="black" points="64.7797,-46.2938 67.8353,-36.1492 59.1203,-42.1741 64.7797,-46.2938"/>
<g id="a_edge1&#45;headlabel"><a xlink:href="dir_000001_000004.html" target="_top" xlink:title="5">
<text text-anchor="middle" x="64.9597" y="-48.371" font-family="Helvetica,sans-Serif" font-size="10.00">5</text>
</a>
</g>
</g>
<!-- dir_267116d250309cbe7bd39c0026ee016a&#45;&gt;dir_73a3cc5065b223eb41b02873c0e19f0e -->
<g id="edge2" class="edge"><title>dir_267116d250309cbe7bd39c0026ee016a&#45;&gt;dir_73a3cc5065b223eb41b02873c0e19f0e</title>
<path fill="none" stroke="black" d="M34.6798,-143.697C40.4079,-135.305 48.257,-125.07 55.9744,-115.861"/>
<polygon fill="black" stroke="black" points="58.7842,-117.962 62.6658,-108.104 53.4838,-113.39 58.7842,-117.962"/>
<g id="a_edge2&#45;headlabel"><a xlink:href="dir_000001_000003.html" target="_top" xlink:title="2">
<text text-anchor="middle" x="58.5861" y="-120.039" font-family="Helvetica,sans-Serif" font-size="10.00">2</text>
</a>
</g>
</g>
<!-- dir_73a3cc5065b223eb41b02873c0e19f0e&#45;&gt;dir_0e0af3a1c9cce4f0051efc3f8b7869d1 -->
<g id="edge8" class="edge"><title>dir_73a3cc5065b223eb41b02873c0e19f0e&#45;&gt;dir_0e0af3a1c9cce4f0051efc3f8b7869d1</title>
<path fill="none" stroke="black" d="M87.6804,-108.189C91.771,-132.424 94.8768,-176.888 94.7224,-205.679"/>
<polygon fill="black" stroke="black" points="91.2191,-205.797 94.4989,-215.871 98.2174,-205.951 91.2191,-205.797"/>
<g id="a_edge8&#45;headlabel"><a xlink:href="dir_000003_000002.html" target="_top" xlink:title="1">
<text text-anchor="middle" x="88.4592" y="-199.641" font-family="Helvetica,sans-Serif" font-size="10.00">1</text>
</a>
</g>
</g>
<!-- dir_73a3cc5065b223eb41b02873c0e19f0e&#45;&gt;dir_267116d250309cbe7bd39c0026ee016a -->
<g id="edge6" class="edge"><title>dir_73a3cc5065b223eb41b02873c0e19f0e&#45;&gt;dir_267116d250309cbe7bd39c0026ee016a</title>
<path fill="none" stroke="black" d="M74.4559,-108.104C68.7615,-116.467 60.9284,-126.694 53.209,-135.92"/>
<polygon fill="black" stroke="black" points="50.385,-133.835 46.5112,-143.697 55.6891,-138.403 50.385,-133.835"/>
<g id="a_edge6&#45;headlabel"><a xlink:href="dir_000003_000001.html" target="_top" xlink:title="1">
<text text-anchor="middle" x="50.5793" y="-126.759" font-family="Helvetica,sans-Serif" font-size="10.00">1</text>
</a>
</g>
</g>
<!-- dir_73a3cc5065b223eb41b02873c0e19f0e&#45;&gt;dir_64e73385a8b7738563c26ce10415b58d -->
<g id="edge7" class="edge"><title>dir_73a3cc5065b223eb41b02873c0e19f0e&#45;&gt;dir_64e73385a8b7738563c26ce10415b58d</title>
<path fill="none" stroke="black" d="M82,-71.6966C82,-63.9827 82,-54.7125 82,-46.1124"/>
<polygon fill="black" stroke="black" points="85.5001,-46.1043 82,-36.1043 78.5001,-46.1044 85.5001,-46.1043"/>
<g id="a_edge7&#45;headlabel"><a xlink:href="dir_000003_000004.html" target="_top" xlink:title="1">
<text text-anchor="middle" x="88.3393" y="-47.199" font-family="Helvetica,sans-Serif" font-size="10.00">1</text>
</a>
</g>
</g>
</g>
</svg>
