<?xml version="1.0" encoding="UTF-8" standalone="no"?>
<!DOCTYPE svg PUBLIC "-//W3C//DTD SVG 1.1//EN"
 "http://www.w3.org/Graphics/SVG/1.1/DTD/svg11.dtd">
<!-- Generated by graphviz version 2.36.0 (20140111.2315)
 -->
<!-- Title: wlib/stl Pages: 1 -->
<svg width="185pt" height="295pt"
 viewBox="0.00 0.00 185.00 295.00" xmlns="http://www.w3.org/2000/svg" xmlns:xlink="http://www.w3.org/1999/xlink">
<g id="graph0" class="graph" transform="scale(1 1) rotate(0) translate(4 291)">
<title>wlib/stl</title>
<polygon fill="white" stroke="none" points="-4,4 -4,-291 181,-291 181,4 -4,4"/>
<g id="clust1" class="cluster"><title>clusterdir_22fc7acad71c9021e217a1a2f7fbab65</title>
<g id="a_clust1"><a xlink:href="dir_22fc7acad71c9021e217a1a2f7fbab65.html" target="_top" xlink:title="wlib">
<polygon fill="#ddddee" stroke="black" points="99,-208 99,-279 169,-279 169,-208 99,-208"/>
<text text-anchor="middle" x="134" y="-267" font-family="Helvetica,sans-Serif" font-size="10.00">wlib</text>
</a>
</g>
</g>
<!-- dir_77dbef541250b97d434142b4de945562 -->
<g id="node1" class="node"><title>dir_77dbef541250b97d434142b4de945562</title>
<g id="a_node1"><a xlink:href="dir_77dbef541250b97d434142b4de945562.html" target="_top" xlink:title="stl">
<polygon fill="#eeeeff" stroke="black" points="161,-252 107,-252 107,-216 161,-216 161,-252"/>
<text text-anchor="middle" x="134" y="-231.5" font-family="Helvetica,sans-Serif" font-size="10.00">stl</text>
</a>
</g>
</g>
<!-- dir_ebba939d40c68163c516181d98ea4107 -->
<g id="node2" class="node"><title>dir_ebba939d40c68163c516181d98ea4107</title>
<g id="a_node2"><a xlink:href="dir_ebba939d40c68163c516181d98ea4107.html" target="_top" xlink:title="strings">
<polygon fill="none" stroke="black" points="54,-180 0,-180 0,-144 54,-144 54,-180"/>
<text text-anchor="middle" x="27" y="-159.5" font-family="Helvetica,sans-Serif" font-size="10.00">strings</text>
</a>
</g>
</g>
<!-- dir_77dbef541250b97d434142b4de945562&#45;&gt;dir_ebba939d40c68163c516181d98ea4107 -->
<g id="edge5" class="edge"><title>dir_77dbef541250b97d434142b4de945562&#45;&gt;dir_ebba939d40c68163c516181d98ea4107</title>
<path fill="none" stroke="black" d="M106.798,-218.834C91.126,-209.396 71.5644,-196.78 55.6682,-185.929"/>
<polygon fill="black" stroke="black" points="57.4772,-182.924 47.2621,-180.113 53.4944,-188.681 57.4772,-182.924"/>
<g id="a_edge5&#45;headlabel"><a xlink:href="dir_000004_000005.html" target="_top" xlink:title="4">
<text text-anchor="middle" x="62.0487" y="-180.134" font-family="Helvetica,sans-Serif" font-size="10.00">4</text>
</a>
</g>
</g>
<!-- dir_a436dbeb8a7aa26d51326cf59c388c6e -->
<g id="node3" class="node"><title>dir_a436dbeb8a7aa26d51326cf59c388c6e</title>
<g id="a_node3"><a xlink:href="dir_a436dbeb8a7aa26d51326cf59c388c6e.html" target="_top" xlink:title="exceptions">
<polygon fill="none" stroke="black" points="136,-180 72,-180 72,-144 136,-144 136,-180"/>
<text text-anchor="middle" x="104" y="-159.5" font-family="Helvetica,sans-Serif" font-size="10.00">exceptions</text>
</a>
</g>
</g>
<!-- dir_77dbef541250b97d434142b4de945562&#45;&gt;dir_a436dbeb8a7aa26d51326cf59c388c6e -->
<g id="edge6" class="edge"><title>dir_77dbef541250b97d434142b4de945562&#45;&gt;dir_a436dbeb8a7aa26d51326cf59c388c6e</title>
<path fill="none" stroke="black" d="M126.584,-215.697C123.206,-207.813 119.13,-198.304 115.377,-189.546"/>
<polygon fill="black" stroke="black" points="118.487,-187.917 111.33,-180.104 112.053,-190.675 118.487,-187.917"/>
<g id="a_edge6&#45;headlabel"><a xlink:href="dir_000004_000001.html" target="_top" xlink:title="7">
<text text-anchor="middle" x="122.512" y="-187.603" font-family="Helvetica,sans-Serif" font-size="10.00">7</text>
</a>
</g>
</g>
<!-- dir_d0503fa6e0a4c9088fbaf847cb896fe2 -->
<g id="node4" class="node"><title>dir_d0503fa6e0a4c9088fbaf847cb896fe2</title>
<g id="a_node4"><a xlink:href="dir_d0503fa6e0a4c9088fbaf847cb896fe2.html" target="_top" xlink:title="util">
<polygon fill="none" stroke="black" points="131,-36 77,-36 77,-0 131,-0 131,-36"/>
<text text-anchor="middle" x="104" y="-15.5" font-family="Helvetica,sans-Serif" font-size="10.00">util</text>
</a>
</g>
</g>
<!-- dir_77dbef541250b97d434142b4de945562&#45;&gt;dir_d0503fa6e0a4c9088fbaf847cb896fe2 -->
<g id="edge7" class="edge"><title>dir_77dbef541250b97d434142b4de945562&#45;&gt;dir_d0503fa6e0a4c9088fbaf847cb896fe2</title>
<path fill="none" stroke="black" d="M145.467,-215.667C151.375,-205.689 157.963,-192.652 161,-180 164.735,-164.442 163.263,-159.839 161,-144 156.286,-111.002 154.205,-102.155 140,-72 135.567,-62.5897 129.569,-52.9822 123.741,-44.5772"/>
<polygon fill="black" stroke="black" points="126.479,-42.3903 117.801,-36.3122 120.795,-46.4754 126.479,-42.3903"/>
<g id="a_edge7&#45;headlabel"><a xlink:href="dir_000004_000006.html" target="_top" xlink:title="19">
<text text-anchor="middle" x="130.883" y="-41.1524" font-family="Helvetica,sans-Serif" font-size="10.00">19</text>
</a>
</g>
</g>
<!-- dir_f055c5e7b7c2bff98a6152d8d6f01b06 -->
<g id="node5" class="node"><title>dir_f055c5e7b7c2bff98a6152d8d6f01b06</title>
<g id="a_node5"><a xlink:href="dir_f055c5e7b7c2bff98a6152d8d6f01b06.html" target="_top" xlink:title="mem">
<polygon fill="none" stroke="black" points="131,-108 77,-108 77,-72 131,-72 131,-108"/>
<text text-anchor="middle" x="104" y="-87.5" font-family="Helvetica,sans-Serif" font-size="10.00">mem</text>
</a>
</g>
</g>
<!-- dir_77dbef541250b97d434142b4de945562&#45;&gt;dir_f055c5e7b7c2bff98a6152d8d6f01b06 -->
<g id="edge8" class="edge"><title>dir_77dbef541250b97d434142b4de945562&#45;&gt;dir_f055c5e7b7c2bff98a6152d8d6f01b06</title>
<path fill="none" stroke="black" d="M140.549,-215.805C146.502,-197.53 153.204,-168.015 145,-144 141.559,-133.927 135.34,-124.284 128.768,-116.05"/>
<polygon fill="black" stroke="black" points="131.324,-113.654 122.169,-108.323 126.001,-118.2 131.324,-113.654"/>
<g id="a_edge8&#45;headlabel"><a xlink:href="dir_000004_000003.html" target="_top" xlink:title="5">
<text text-anchor="middle" x="135.818" y="-112.044" font-family="Helvetica,sans-Serif" font-size="10.00">5</text>
</a>
</g>
</g>
<!-- dir_ebba939d40c68163c516181d98ea4107&#45;&gt;dir_77dbef541250b97d434142b4de945562 -->
<g id="edge1" class="edge"><title>dir_ebba939d40c68163c516181d98ea4107&#45;&gt;dir_77dbef541250b97d434142b4de945562</title>
<path fill="none" stroke="black" d="M54.1306,-177.123C69.8063,-186.56 89.3901,-199.189 105.306,-210.054"/>
<polygon fill="black" stroke="black" points="103.507,-213.065 113.722,-215.876 107.489,-207.308 103.507,-213.065"/>
<g id="a_edge1&#45;headlabel"><a xlink:href="dir_000005_000004.html" target="_top" xlink:title="1">
<text text-anchor="middle" x="98.9353" y="-210.855" font-family="Helvetica,sans-Serif" font-size="10.00">1</text>
</a>
</g>
</g>
<!-- dir_ebba939d40c68163c516181d98ea4107&#45;&gt;dir_d0503fa6e0a4c9088fbaf847cb896fe2 -->
<g id="edge2" class="edge"><title>dir_ebba939d40c68163c516181d98ea4107&#45;&gt;dir_d0503fa6e0a4c9088fbaf847cb896fe2</title>
<path fill="none" stroke="black" d="M33.9018,-143.856C41.4693,-125.624 54.362,-96.1442 68,-72 73.1971,-62.7992 79.4946,-53.1285 85.36,-44.6036"/>
<polygon fill="black" stroke="black" points="88.3756,-46.3993 91.2518,-36.2024 82.6445,-42.3801 88.3756,-46.3993"/>
<g id="a_edge2&#45;headlabel"><a xlink:href="dir_000005_000006.html" target="_top" xlink:title="1">
<text text-anchor="middle" x="88.6363" y="-48.4726" font-family="Helvetica,sans-Serif" font-size="10.00">1</text>
</a>
</g>
</g>
<!-- dir_ebba939d40c68163c516181d98ea4107&#45;&gt;dir_f055c5e7b7c2bff98a6152d8d6f01b06 -->
<g id="edge3" class="edge"><title>dir_ebba939d40c68163c516181d98ea4107&#45;&gt;dir_f055c5e7b7c2bff98a6152d8d6f01b06</title>
<path fill="none" stroke="black" d="M46.0337,-143.697C55.5447,-135.05 67.2066,-124.449 77.5703,-115.027"/>
<polygon fill="black" stroke="black" points="80.1402,-117.421 85.1852,-108.104 75.4314,-112.241 80.1402,-117.421"/>
<g id="a_edge3&#45;headlabel"><a xlink:href="dir_000005_000003.html" target="_top" xlink:title="1">
<text text-anchor="middle" x="79.3903" y="-119.44" font-family="Helvetica,sans-Serif" font-size="10.00">1</text>
</a>
</g>
</g>
<!-- dir_a436dbeb8a7aa26d51326cf59c388c6e&#45;&gt;dir_f055c5e7b7c2bff98a6152d8d6f01b06 -->
<g id="edge4" class="edge"><title>dir_a436dbeb8a7aa26d51326cf59c388c6e&#45;&gt;dir_f055c5e7b7c2bff98a6152d8d6f01b06</title>
<path fill="none" stroke="black" d="M104,-143.697C104,-135.983 104,-126.712 104,-118.112"/>
<polygon fill="black" stroke="black" points="107.5,-118.104 104,-108.104 100.5,-118.104 107.5,-118.104"/>
<g id="a_edge4&#45;headlabel"><a xlink:href="dir_000001_000003.html" target="_top" xlink:title="1">
<text text-anchor="middle" x="110.339" y="-119.199" font-family="Helvetica,sans-Serif" font-size="10.00">1</text>
</a>
</g>
</g>
<!-- dir_f055c5e7b7c2bff98a6152d8d6f01b06&#45;&gt;dir_d0503fa6e0a4c9088fbaf847cb896fe2 -->
<g id="edge9" class="edge"><title>dir_f055c5e7b7c2bff98a6152d8d6f01b06&#45;&gt;dir_d0503fa6e0a4c9088fbaf847cb896fe2</title>
<path fill="none" stroke="black" d="M104,-71.6966C104,-63.9827 104,-54.7125 104,-46.1124"/>
<polygon fill="black" stroke="black" points="107.5,-46.1043 104,-36.1043 100.5,-46.1044 107.5,-46.1043"/>
<g id="a_edge9&#45;headlabel"><a xlink:href="dir_000003_000006.html" target="_top" xlink:title="5">
<text text-anchor="middle" x="110.339" y="-47.199" font-family="Helvetica,sans-Serif" font-size="10.00">5</text>
</a>
</g>
</g>
</g>
</svg>
