<?xml version="1.0" encoding="UTF-8" standalone="no"?>
<!DOCTYPE svg PUBLIC "-//W3C//DTD SVG 1.1//EN"
 "http://www.w3.org/Graphics/SVG/1.1/DTD/svg11.dtd">
<!-- Generated by graphviz version 2.36.0 (20140111.2315)
 -->
<!-- Title: fsm Pages: 1 -->
<svg width="110pt" height="260pt"
 viewBox="0.00 0.00 109.88 260.00" xmlns="http://www.w3.org/2000/svg" xmlns:xlink="http://www.w3.org/1999/xlink">
<g id="graph0" class="graph" transform="scale(1 1) rotate(0) translate(4 256)">
<title>fsm</title>
<polygon fill="white" stroke="none" points="-4,4 -4,-256 105.88,-256 105.88,4 -4,4"/>
<!-- dir_fb2b0e4f924a18bd27afdbdeb3578ffd -->
<g id="node1" class="node"><title>dir_fb2b0e4f924a18bd27afdbdeb3578ffd</title>
<g id="a_node1"><a xlink:href="dir_fb2b0e4f924a18bd27afdbdeb3578ffd.html" target="_top" xlink:title="fsm">
<polygon fill="#eeeeff" stroke="black" points="71.8796,-252 17.8796,-252 17.8796,-216 71.8796,-216 71.8796,-252"/>
<text text-anchor="middle" x="44.8796" y="-231.5" font-family="Helvetica,sans-Serif" font-size="10.00">fsm</text>
</a>
</g>
</g>
<!-- dir_267116d250309cbe7bd39c0026ee016a -->
<g id="node2" class="node"><title>dir_267116d250309cbe7bd39c0026ee016a</title>
<g id="a_node2"><a xlink:href="dir_267116d250309cbe7bd39c0026ee016a.html" target="_top" xlink:title="memory">
<polygon fill="none" stroke="black" points="71.8796,-108 17.8796,-108 17.8796,-72 71.8796,-72 71.8796,-108"/>
<text text-anchor="middle" x="44.8796" y="-87.5" font-family="Helvetica,sans-Serif" font-size="10.00">memory</text>
</a>
</g>
</g>
<!-- dir_fb2b0e4f924a18bd27afdbdeb3578ffd&#45;&gt;dir_267116d250309cbe7bd39c0026ee016a -->
<g id="edge3" class="edge"><title>dir_fb2b0e4f924a18bd27afdbdeb3578ffd&#45;&gt;dir_267116d250309cbe7bd39c0026ee016a</title>
<path fill="none" stroke="black" d="M26.7107,-215.677C17.9947,-206.097 8.468,-193.43 3.87958,-180 -1.29319,-164.859 -1.29319,-159.141 3.87958,-144 7.3209,-133.927 13.54,-124.284 20.1115,-116.05"/>
<polygon fill="black" stroke="black" points="22.8783,-118.2 26.7107,-108.323 17.5551,-113.654 22.8783,-118.2"/>
<g id="a_edge3&#45;headlabel"><a xlink:href="dir_000002_000003.html" target="_top" xlink:title="1">
<text text-anchor="middle" x="22.7031" y="-120.277" font-family="Helvetica,sans-Serif" font-size="10.00">1</text>
</a>
</g>
</g>
<!-- dir_fceced95d8215eeebebd9df6aa39e1a5 -->
<g id="node3" class="node"><title>dir_fceced95d8215eeebebd9df6aa39e1a5</title>
<g id="a_node3"><a xlink:href="dir_fceced95d8215eeebebd9df6aa39e1a5.html" target="_top" xlink:title="exceptions">
<polygon fill="none" stroke="black" points="76.8796,-180 12.8796,-180 12.8796,-144 76.8796,-144 76.8796,-180"/>
<text text-anchor="middle" x="44.8796" y="-159.5" font-family="Helvetica,sans-Serif" font-size="10.00">exceptions</text>
</a>
</g>
</g>
<!-- dir_fb2b0e4f924a18bd27afdbdeb3578ffd&#45;&gt;dir_fceced95d8215eeebebd9df6aa39e1a5 -->
<g id="edge4" class="edge"><title>dir_fb2b0e4f924a18bd27afdbdeb3578ffd&#45;&gt;dir_fceced95d8215eeebebd9df6aa39e1a5</title>
<path fill="none" stroke="black" d="M44.8796,-215.697C44.8796,-207.983 44.8796,-198.712 44.8796,-190.112"/>
<polygon fill="black" stroke="black" points="48.3797,-190.104 44.8796,-180.104 41.3797,-190.104 48.3797,-190.104"/>
<g id="a_edge4&#45;headlabel"><a xlink:href="dir_000002_000001.html" target="_top" xlink:title="1">
<text text-anchor="middle" x="51.2189" y="-191.199" font-family="Helvetica,sans-Serif" font-size="10.00">1</text>
</a>
</g>
</g>
<!-- dir_64e73385a8b7738563c26ce10415b58d -->
<g id="node4" class="node"><title>dir_64e73385a8b7738563c26ce10415b58d</title>
<g id="a_node4"><a xlink:href="dir_64e73385a8b7738563c26ce10415b58d.html" target="_top" xlink:title="utility">
<polygon fill="none" stroke="black" points="101.88,-36 47.8796,-36 47.8796,-0 101.88,-0 101.88,-36"/>
<text text-anchor="middle" x="74.8796" y="-15.5" font-family="Helvetica,sans-Serif" font-size="10.00">utility</text>
</a>
</g>
</g>
<!-- dir_fb2b0e4f924a18bd27afdbdeb3578ffd&#45;&gt;dir_64e73385a8b7738563c26ce10415b58d -->
<g id="edge5" class="edge"><title>dir_fb2b0e4f924a18bd27afdbdeb3578ffd&#45;&gt;dir_64e73385a8b7738563c26ce10415b58d</title>
<path fill="none" stroke="black" d="M63.0484,-215.677C71.7645,-206.097 81.2912,-193.43 85.8796,-180 101.327,-134.786 91.3109,-78.3616 82.9025,-45.7293"/>
<polygon fill="black" stroke="black" points="86.2627,-44.7474 80.2634,-36.0148 79.5076,-46.5827 86.2627,-44.7474"/>
<g id="a_edge5&#45;headlabel"><a xlink:href="dir_000002_000006.html" target="_top" xlink:title="1">
<text text-anchor="middle" x="89.945" y="-44.972" font-family="Helvetica,sans-Serif" font-size="10.00">1</text>
</a>
</g>
</g>
<!-- dir_267116d250309cbe7bd39c0026ee016a&#45;&gt;dir_64e73385a8b7738563c26ce10415b58d -->
<g id="edge1" class="edge"><title>dir_267116d250309cbe7bd39c0026ee016a&#45;&gt;dir_64e73385a8b7738563c26ce10415b58d</title>
<path fill="none" stroke="black" d="M52.2953,-71.6966C55.6739,-63.8132 59.7492,-54.3042 63.5026,-45.5464"/>
<polygon fill="black" stroke="black" points="66.8269,-46.6745 67.5491,-36.1043 60.3929,-43.9171 66.8269,-46.6745"/>
<g id="a_edge1&#45;headlabel"><a xlink:href="dir_000003_000006.html" target="_top" xlink:title="5">
<text text-anchor="middle" x="68.0207" y="-48.5969" font-family="Helvetica,sans-Serif" font-size="10.00">5</text>
</a>
</g>
</g>
<!-- dir_fceced95d8215eeebebd9df6aa39e1a5&#45;&gt;dir_267116d250309cbe7bd39c0026ee016a -->
<g id="edge2" class="edge"><title>dir_fceced95d8215eeebebd9df6aa39e1a5&#45;&gt;dir_267116d250309cbe7bd39c0026ee016a</title>
<path fill="none" stroke="black" d="M44.8796,-143.697C44.8796,-135.983 44.8796,-126.712 44.8796,-118.112"/>
<polygon fill="black" stroke="black" points="48.3797,-118.104 44.8796,-108.104 41.3797,-118.104 48.3797,-118.104"/>
<g id="a_edge2&#45;headlabel"><a xlink:href="dir_000001_000003.html" target="_top" xlink:title="1">
<text text-anchor="middle" x="51.2189" y="-119.199" font-family="Helvetica,sans-Serif" font-size="10.00">1</text>
</a>
</g>
</g>
</g>
</svg>
