<?xml version="1.0" encoding="UTF-8" standalone="no"?>
<!DOCTYPE svg PUBLIC "-//W3C//DTD SVG 1.1//EN"
 "http://www.w3.org/Graphics/SVG/1.1/DTD/svg11.dtd">
<!-- Generated by graphviz version 2.36.0 (20140111.2315)
 -->
<!-- Title: wlib Pages: 1 -->
<svg width="256pt" height="292pt"
 viewBox="0.00 0.00 256.00 292.00" xmlns="http://www.w3.org/2000/svg" xmlns:xlink="http://www.w3.org/1999/xlink">
<g id="graph0" class="graph" transform="scale(1 1) rotate(0) translate(4 288)">
<title>wlib</title>
<polygon fill="white" stroke="none" points="-4,4 -4,-288 252,-288 252,4 -4,4"/>
<g id="clust1" class="cluster"><title>clusterdir_22fc7acad71c9021e217a1a2f7fbab65</title>
<g id="a_clust1"><a xlink:href="dir_22fc7acad71c9021e217a1a2f7fbab65.html" target="_top">
<polygon fill="#eeeeff" stroke="black" points="8,-8 8,-276 240,-276 240,-8 8,-8"/>
</a>
</g>
</g>
<!-- dir_22fc7acad71c9021e217a1a2f7fbab65 -->
<g id="node1" class="node"><title>dir_22fc7acad71c9021e217a1a2f7fbab65</title>
<text text-anchor="middle" x="205" y="-247.5" font-family="Helvetica,sans-Serif" font-size="10.00">wlib</text>
</g>
<!-- dir_a436dbeb8a7aa26d51326cf59c388c6e -->
<g id="node2" class="node"><title>dir_a436dbeb8a7aa26d51326cf59c388c6e</title>
<g id="a_node2"><a xlink:href="dir_a436dbeb8a7aa26d51326cf59c388c6e.html" target="_top" xlink:title="exceptions">
<polygon fill="white" stroke="black" points="192,-196 128,-196 128,-160 192,-160 192,-196"/>
<text text-anchor="middle" x="160" y="-175.5" font-family="Helvetica,sans-Serif" font-size="10.00">exceptions</text>
</a>
</g>
</g>
<!-- dir_f055c5e7b7c2bff98a6152d8d6f01b06 -->
<g id="node4" class="node"><title>dir_f055c5e7b7c2bff98a6152d8d6f01b06</title>
<g id="a_node4"><a xlink:href="dir_f055c5e7b7c2bff98a6152d8d6f01b06.html" target="_top" xlink:title="mem">
<polygon fill="white" stroke="black" points="136,-124 82,-124 82,-88 136,-88 136,-124"/>
<text text-anchor="middle" x="109" y="-103.5" font-family="Helvetica,sans-Serif" font-size="10.00">mem</text>
</a>
</g>
</g>
<!-- dir_a436dbeb8a7aa26d51326cf59c388c6e&#45;&gt;dir_f055c5e7b7c2bff98a6152d8d6f01b06 -->
<g id="edge4" class="edge"><title>dir_a436dbeb8a7aa26d51326cf59c388c6e&#45;&gt;dir_f055c5e7b7c2bff98a6152d8d6f01b06</title>
<path fill="none" stroke="black" d="M147.393,-159.697C141.403,-151.474 134.124,-141.483 127.521,-132.421"/>
<polygon fill="black" stroke="black" points="130.179,-130.126 121.462,-124.104 124.522,-134.248 130.179,-130.126"/>
<g id="a_edge4&#45;headlabel"><a xlink:href="dir_000001_000003.html" target="_top" xlink:title="1">
<text text-anchor="middle" x="134.591" y="-128.859" font-family="Helvetica,sans-Serif" font-size="10.00">1</text>
</a>
</g>
</g>
<!-- dir_78a7cbe2b9539c64c067bb86672c8479 -->
<g id="node3" class="node"><title>dir_78a7cbe2b9539c64c067bb86672c8479</title>
<g id="a_node3"><a xlink:href="dir_78a7cbe2b9539c64c067bb86672c8479.html" target="_top" xlink:title="fsm">
<polygon fill="white" stroke="black" points="160,-268 106,-268 106,-232 160,-232 160,-268"/>
<text text-anchor="middle" x="133" y="-247.5" font-family="Helvetica,sans-Serif" font-size="10.00">fsm</text>
</a>
</g>
</g>
<!-- dir_78a7cbe2b9539c64c067bb86672c8479&#45;&gt;dir_a436dbeb8a7aa26d51326cf59c388c6e -->
<g id="edge10" class="edge"><title>dir_78a7cbe2b9539c64c067bb86672c8479&#45;&gt;dir_a436dbeb8a7aa26d51326cf59c388c6e</title>
<path fill="none" stroke="black" d="M139.674,-231.697C142.715,-223.813 146.383,-214.304 149.761,-205.546"/>
<polygon fill="black" stroke="black" points="153.069,-206.694 153.403,-196.104 146.538,-204.175 153.069,-206.694"/>
<g id="a_edge10&#45;headlabel"><a xlink:href="dir_000002_000001.html" target="_top" xlink:title="1">
<text text-anchor="middle" x="154.425" y="-208.569" font-family="Helvetica,sans-Serif" font-size="10.00">1</text>
</a>
</g>
</g>
<!-- dir_78a7cbe2b9539c64c067bb86672c8479&#45;&gt;dir_f055c5e7b7c2bff98a6152d8d6f01b06 -->
<g id="edge12" class="edge"><title>dir_78a7cbe2b9539c64c067bb86672c8479&#45;&gt;dir_f055c5e7b7c2bff98a6152d8d6f01b06</title>
<path fill="none" stroke="black" d="M160.345,-235.62C175.325,-226.672 192.526,-213.349 201,-196 208.022,-181.623 209.007,-173.853 201,-160 189.11,-139.428 165.867,-126.135 145.719,-118.007"/>
<polygon fill="black" stroke="black" points="146.733,-114.649 136.141,-114.423 144.28,-121.205 146.733,-114.649"/>
<g id="a_edge12&#45;headlabel"><a xlink:href="dir_000002_000003.html" target="_top" xlink:title="1">
<text text-anchor="middle" x="151.095" y="-110.75" font-family="Helvetica,sans-Serif" font-size="10.00">1</text>
</a>
</g>
</g>
<!-- dir_d0503fa6e0a4c9088fbaf847cb896fe2 -->
<g id="node7" class="node"><title>dir_d0503fa6e0a4c9088fbaf847cb896fe2</title>
<g id="a_node7"><a xlink:href="dir_d0503fa6e0a4c9088fbaf847cb896fe2.html" target="_top" xlink:title="util">
<polygon fill="white" stroke="black" points="113,-52 59,-52 59,-16 113,-16 113,-52"/>
<text text-anchor="middle" x="86" y="-31.5" font-family="Helvetica,sans-Serif" font-size="10.00">util</text>
</a>
</g>
</g>
<!-- dir_78a7cbe2b9539c64c067bb86672c8479&#45;&gt;dir_d0503fa6e0a4c9088fbaf847cb896fe2 -->
<g id="edge11" class="edge"><title>dir_78a7cbe2b9539c64c067bb86672c8479&#45;&gt;dir_d0503fa6e0a4c9088fbaf847cb896fe2</title>
<path fill="none" stroke="black" d="M160.075,-233.538C179.329,-221.905 202.685,-206.265 208,-196 215.357,-181.792 213.628,-174.978 208,-160 191.643,-116.466 151.1,-80.2312 121.22,-58.1739"/>
<polygon fill="black" stroke="black" points="122.879,-55.0566 112.716,-52.063 118.794,-60.741 122.879,-55.0566"/>
<g id="a_edge11&#45;headlabel"><a xlink:href="dir_000002_000006.html" target="_top" xlink:title="1">
<text text-anchor="middle" x="127.455" y="-52.3486" font-family="Helvetica,sans-Serif" font-size="10.00">1</text>
</a>
</g>
</g>
<!-- dir_f055c5e7b7c2bff98a6152d8d6f01b06&#45;&gt;dir_d0503fa6e0a4c9088fbaf847cb896fe2 -->
<g id="edge9" class="edge"><title>dir_f055c5e7b7c2bff98a6152d8d6f01b06&#45;&gt;dir_d0503fa6e0a4c9088fbaf847cb896fe2</title>
<path fill="none" stroke="black" d="M103.315,-87.6966C100.752,-79.8979 97.6671,-70.5085 94.8153,-61.8292"/>
<polygon fill="black" stroke="black" points="98.0667,-60.5121 91.62,-52.1043 91.4165,-62.6972 98.0667,-60.5121"/>
<g id="a_edge9&#45;headlabel"><a xlink:href="dir_000003_000006.html" target="_top" xlink:title="5">
<text text-anchor="middle" x="101.886" y="-60.5408" font-family="Helvetica,sans-Serif" font-size="10.00">5</text>
</a>
</g>
</g>
<!-- dir_77dbef541250b97d434142b4de945562 -->
<g id="node5" class="node"><title>dir_77dbef541250b97d434142b4de945562</title>
<g id="a_node5"><a xlink:href="dir_77dbef541250b97d434142b4de945562.html" target="_top" xlink:title="stl">
<polygon fill="white" stroke="black" points="88,-268 34,-268 34,-232 88,-232 88,-268"/>
<text text-anchor="middle" x="61" y="-247.5" font-family="Helvetica,sans-Serif" font-size="10.00">stl</text>
</a>
</g>
</g>
<!-- dir_77dbef541250b97d434142b4de945562&#45;&gt;dir_a436dbeb8a7aa26d51326cf59c388c6e -->
<g id="edge6" class="edge"><title>dir_77dbef541250b97d434142b4de945562&#45;&gt;dir_a436dbeb8a7aa26d51326cf59c388c6e</title>
<path fill="none" stroke="black" d="M85.2181,-231.876C97.9227,-222.893 113.664,-211.763 127.423,-202.034"/>
<polygon fill="black" stroke="black" points="129.544,-204.821 135.689,-196.19 125.503,-199.105 129.544,-204.821"/>
<g id="a_edge6&#45;headlabel"><a xlink:href="dir_000004_000001.html" target="_top" xlink:title="7">
<text text-anchor="middle" x="128.248" y="-206.714" font-family="Helvetica,sans-Serif" font-size="10.00">7</text>
</a>
</g>
</g>
<!-- dir_77dbef541250b97d434142b4de945562&#45;&gt;dir_f055c5e7b7c2bff98a6152d8d6f01b06 -->
<g id="edge8" class="edge"><title>dir_77dbef541250b97d434142b4de945562&#45;&gt;dir_f055c5e7b7c2bff98a6152d8d6f01b06</title>
<path fill="none" stroke="black" d="M76.8728,-231.711C84.89,-221.949 93.963,-209.105 99,-196 106.566,-176.317 108.922,-152.51 109.465,-134.474"/>
<polygon fill="black" stroke="black" points="112.966,-134.382 109.6,-124.337 105.967,-134.289 112.966,-134.382"/>
<g id="a_edge8&#45;headlabel"><a xlink:href="dir_000004_000003.html" target="_top" xlink:title="5">
<text text-anchor="middle" x="115.757" y="-135.515" font-family="Helvetica,sans-Serif" font-size="10.00">5</text>
</a>
</g>
</g>
<!-- dir_ebba939d40c68163c516181d98ea4107 -->
<g id="node6" class="node"><title>dir_ebba939d40c68163c516181d98ea4107</title>
<g id="a_node6"><a xlink:href="dir_ebba939d40c68163c516181d98ea4107.html" target="_top" xlink:title="strings">
<polygon fill="white" stroke="black" points="90,-196 36,-196 36,-160 90,-160 90,-196"/>
<text text-anchor="middle" x="63" y="-175.5" font-family="Helvetica,sans-Serif" font-size="10.00">strings</text>
</a>
</g>
</g>
<!-- dir_77dbef541250b97d434142b4de945562&#45;&gt;dir_ebba939d40c68163c516181d98ea4107 -->
<g id="edge5" class="edge"><title>dir_77dbef541250b97d434142b4de945562&#45;&gt;dir_ebba939d40c68163c516181d98ea4107</title>
<path fill="none" stroke="black" d="M55.5787,-231.697C55.0034,-223.983 55.0417,-214.712 55.6301,-206.112"/>
<polygon fill="black" stroke="black" points="59.1187,-206.399 56.6163,-196.104 52.1524,-205.713 59.1187,-206.399"/>
<g id="a_edge5&#45;headlabel"><a xlink:href="dir_000004_000005.html" target="_top" xlink:title="4">
<text text-anchor="middle" x="61.5918" y="-207.755" font-family="Helvetica,sans-Serif" font-size="10.00">4</text>
</a>
</g>
</g>
<!-- dir_77dbef541250b97d434142b4de945562&#45;&gt;dir_d0503fa6e0a4c9088fbaf847cb896fe2 -->
<g id="edge7" class="edge"><title>dir_77dbef541250b97d434142b4de945562&#45;&gt;dir_d0503fa6e0a4c9088fbaf847cb896fe2</title>
<path fill="none" stroke="black" d="M46.2453,-231.634C38.91,-221.849 30.8138,-209.008 27,-196 22.4985,-180.646 23.5005,-175.613 27,-160 35.1446,-123.664 55.0934,-85.4502 69.5436,-60.9861"/>
<polygon fill="black" stroke="black" points="72.6057,-62.6859 74.7765,-52.3158 66.6126,-59.0688 72.6057,-62.6859"/>
<g id="a_edge7&#45;headlabel"><a xlink:href="dir_000004_000006.html" target="_top" xlink:title="19">
<text text-anchor="middle" x="73.1792" y="-64.7305" font-family="Helvetica,sans-Serif" font-size="10.00">19</text>
</a>
</g>
</g>
<!-- dir_ebba939d40c68163c516181d98ea4107&#45;&gt;dir_f055c5e7b7c2bff98a6152d8d6f01b06 -->
<g id="edge3" class="edge"><title>dir_ebba939d40c68163c516181d98ea4107&#45;&gt;dir_f055c5e7b7c2bff98a6152d8d6f01b06</title>
<path fill="none" stroke="black" d="M74.3708,-159.697C79.7185,-151.559 86.2043,-141.689 92.1106,-132.701"/>
<polygon fill="black" stroke="black" points="95.1932,-134.384 97.76,-124.104 89.3432,-130.539 95.1932,-134.384"/>
<g id="a_edge3&#45;headlabel"><a xlink:href="dir_000005_000003.html" target="_top" xlink:title="1">
<text text-anchor="middle" x="95.5919" y="-136.447" font-family="Helvetica,sans-Serif" font-size="10.00">1</text>
</a>
</g>
</g>
<!-- dir_ebba939d40c68163c516181d98ea4107&#45;&gt;dir_77dbef541250b97d434142b4de945562 -->
<g id="edge1" class="edge"><title>dir_ebba939d40c68163c516181d98ea4107&#45;&gt;dir_77dbef541250b97d434142b4de945562</title>
<path fill="none" stroke="black" d="M68.4063,-196.104C68.9922,-203.791 68.9639,-213.054 68.385,-221.665"/>
<polygon fill="black" stroke="black" points="64.8939,-221.405 67.4101,-231.697 71.8611,-222.082 64.8939,-221.405"/>
<g id="a_edge1&#45;headlabel"><a xlink:href="dir_000005_000004.html" target="_top" xlink:title="1">
<text text-anchor="middle" x="62.4155" y="-215.053" font-family="Helvetica,sans-Serif" font-size="10.00">1</text>
</a>
</g>
</g>
<!-- dir_ebba939d40c68163c516181d98ea4107&#45;&gt;dir_d0503fa6e0a4c9088fbaf847cb896fe2 -->
<g id="edge2" class="edge"><title>dir_ebba939d40c68163c516181d98ea4107&#45;&gt;dir_d0503fa6e0a4c9088fbaf847cb896fe2</title>
<path fill="none" stroke="black" d="M64.2686,-159.844C65.7528,-141.852 68.5844,-112.799 73,-88 74.5181,-79.4741 76.6095,-70.2798 78.6712,-61.9813"/>
<polygon fill="black" stroke="black" points="82.1199,-62.6234 81.2214,-52.0667 75.3406,-60.8795 82.1199,-62.6234"/>
<g id="a_edge2&#45;headlabel"><a xlink:href="dir_000005_000006.html" target="_top" xlink:title="1">
<text text-anchor="middle" x="83.9743" y="-64.3119" font-family="Helvetica,sans-Serif" font-size="10.00">1</text>
</a>
</g>
</g>
</g>
</svg>
