<?xml version="1.0" encoding="UTF-8" standalone="no"?>
<!DOCTYPE svg PUBLIC "-//W3C//DTD SVG 1.1//EN"
 "http://www.w3.org/Graphics/SVG/1.1/DTD/svg11.dtd">
<!-- Generated by graphviz version 2.36.0 (20140111.2315)
 -->
<!-- Title: wlib/fsm Pages: 1 -->
<svg width="143pt" height="295pt"
 viewBox="0.00 0.00 143.00 295.00" xmlns="http://www.w3.org/2000/svg" xmlns:xlink="http://www.w3.org/1999/xlink">
<g id="graph0" class="graph" transform="scale(1 1) rotate(0) translate(4 291)">
<title>wlib/fsm</title>
<polygon fill="white" stroke="none" points="-4,4 -4,-291 139,-291 139,4 -4,4"/>
<g id="clust1" class="cluster"><title>clusterdir_22fc7acad71c9021e217a1a2f7fbab65</title>
<g id="a_clust1"><a xlink:href="dir_22fc7acad71c9021e217a1a2f7fbab65.html" target="_top" xlink:title="wlib">
<polygon fill="#ddddee" stroke="black" points="57,-208 57,-279 127,-279 127,-208 57,-208"/>
<text text-anchor="middle" x="92" y="-267" font-family="Helvetica,sans-Serif" font-size="10.00">wlib</text>
</a>
</g>
</g>
<!-- dir_78a7cbe2b9539c64c067bb86672c8479 -->
<g id="node1" class="node"><title>dir_78a7cbe2b9539c64c067bb86672c8479</title>
<g id="a_node1"><a xlink:href="dir_78a7cbe2b9539c64c067bb86672c8479.html" target="_top" xlink:title="fsm">
<polygon fill="#eeeeff" stroke="black" points="119,-252 65,-252 65,-216 119,-216 119,-252"/>
<text text-anchor="middle" x="92" y="-231.5" font-family="Helvetica,sans-Serif" font-size="10.00">fsm</text>
</a>
</g>
</g>
<!-- dir_a436dbeb8a7aa26d51326cf59c388c6e -->
<g id="node2" class="node"><title>dir_a436dbeb8a7aa26d51326cf59c388c6e</title>
<g id="a_node2"><a xlink:href="dir_a436dbeb8a7aa26d51326cf59c388c6e.html" target="_top" xlink:title="exceptions">
<polygon fill="none" stroke="black" points="64,-180 0,-180 0,-144 64,-144 64,-180"/>
<text text-anchor="middle" x="32" y="-159.5" font-family="Helvetica,sans-Serif" font-size="10.00">exceptions</text>
</a>
</g>
</g>
<!-- dir_78a7cbe2b9539c64c067bb86672c8479&#45;&gt;dir_a436dbeb8a7aa26d51326cf59c388c6e -->
<g id="edge3" class="edge"><title>dir_78a7cbe2b9539c64c067bb86672c8479&#45;&gt;dir_a436dbeb8a7aa26d51326cf59c388c6e</title>
<path fill="none" stroke="black" d="M77.1685,-215.697C69.9753,-207.305 61.2033,-197.07 53.3097,-187.861"/>
<polygon fill="black" stroke="black" points="55.8262,-185.419 46.6609,-180.104 50.5114,-189.975 55.8262,-185.419"/>
<g id="a_edge3&#45;headlabel"><a xlink:href="dir_000003_000002.html" target="_top" xlink:title="1">
<text text-anchor="middle" x="60.3213" y="-183.801" font-family="Helvetica,sans-Serif" font-size="10.00">1</text>
</a>
</g>
</g>
<!-- dir_1363f2cf5a4e816a1c4a90bf1a8cd04f -->
<g id="node3" class="node"><title>dir_1363f2cf5a4e816a1c4a90bf1a8cd04f</title>
<g id="a_node3"><a xlink:href="dir_1363f2cf5a4e816a1c4a90bf1a8cd04f.html" target="_top" xlink:title="memory">
<polygon fill="none" stroke="black" points="102,-108 48,-108 48,-72 102,-72 102,-108"/>
<text text-anchor="middle" x="75" y="-87.5" font-family="Helvetica,sans-Serif" font-size="10.00">memory</text>
</a>
</g>
</g>
<!-- dir_78a7cbe2b9539c64c067bb86672c8479&#45;&gt;dir_1363f2cf5a4e816a1c4a90bf1a8cd04f -->
<g id="edge4" class="edge"><title>dir_78a7cbe2b9539c64c067bb86672c8479&#45;&gt;dir_1363f2cf5a4e816a1c4a90bf1a8cd04f</title>
<path fill="none" stroke="black" d="M89.9494,-215.871C87.0521,-191.67 81.7295,-147.211 78.2795,-118.393"/>
<polygon fill="black" stroke="black" points="81.7218,-117.702 77.0579,-108.189 74.7715,-118.534 81.7218,-117.702"/>
<g id="a_edge4&#45;headlabel"><a xlink:href="dir_000003_000004.html" target="_top" xlink:title="1">
<text text-anchor="middle" x="84.9682" y="-118.434" font-family="Helvetica,sans-Serif" font-size="10.00">1</text>
</a>
</g>
</g>
<!-- dir_02251a17349bccc1c5077a63762f4b59 -->
<g id="node4" class="node"><title>dir_02251a17349bccc1c5077a63762f4b59</title>
<g id="a_node4"><a xlink:href="dir_02251a17349bccc1c5077a63762f4b59.html" target="_top" xlink:title="utility">
<polygon fill="none" stroke="black" points="129,-36 75,-36 75,-0 129,-0 129,-36"/>
<text text-anchor="middle" x="102" y="-15.5" font-family="Helvetica,sans-Serif" font-size="10.00">utility</text>
</a>
</g>
</g>
<!-- dir_78a7cbe2b9539c64c067bb86672c8479&#45;&gt;dir_02251a17349bccc1c5077a63762f4b59 -->
<g id="edge5" class="edge"><title>dir_78a7cbe2b9539c64c067bb86672c8479&#45;&gt;dir_02251a17349bccc1c5077a63762f4b59</title>
<path fill="none" stroke="black" d="M96.3604,-215.647C103.245,-186.179 115.421,-124.446 111,-72 110.283,-63.4991 108.931,-54.3119 107.488,-46.0122"/>
<polygon fill="black" stroke="black" points="110.914,-45.2892 105.654,-36.0925 104.031,-46.5623 110.914,-45.2892"/>
<g id="a_edge5&#45;headlabel"><a xlink:href="dir_000003_000007.html" target="_top" xlink:title="1">
<text text-anchor="middle" x="114.36" y="-45.8075" font-family="Helvetica,sans-Serif" font-size="10.00">1</text>
</a>
</g>
</g>
<!-- dir_a436dbeb8a7aa26d51326cf59c388c6e&#45;&gt;dir_1363f2cf5a4e816a1c4a90bf1a8cd04f -->
<g id="edge1" class="edge"><title>dir_a436dbeb8a7aa26d51326cf59c388c6e&#45;&gt;dir_1363f2cf5a4e816a1c4a90bf1a8cd04f</title>
<path fill="none" stroke="black" d="M42.6292,-143.697C47.6281,-135.559 53.691,-125.689 59.2121,-116.701"/>
<polygon fill="black" stroke="black" points="62.2411,-118.457 64.4931,-108.104 56.2766,-114.793 62.2411,-118.457"/>
<g id="a_edge1&#45;headlabel"><a xlink:href="dir_000002_000004.html" target="_top" xlink:title="1">
<text text-anchor="middle" x="62.7789" y="-120.506" font-family="Helvetica,sans-Serif" font-size="10.00">1</text>
</a>
</g>
</g>
<!-- dir_1363f2cf5a4e816a1c4a90bf1a8cd04f&#45;&gt;dir_02251a17349bccc1c5077a63762f4b59 -->
<g id="edge2" class="edge"><title>dir_1363f2cf5a4e816a1c4a90bf1a8cd04f&#45;&gt;dir_02251a17349bccc1c5077a63762f4b59</title>
<path fill="none" stroke="black" d="M81.6742,-71.6966C84.7149,-63.8132 88.3827,-54.3042 91.7607,-45.5464"/>
<polygon fill="black" stroke="black" points="95.0693,-46.6939 95.4026,-36.1043 88.5383,-44.1748 95.0693,-46.6939"/>
<g id="a_edge2&#45;headlabel"><a xlink:href="dir_000004_000007.html" target="_top" xlink:title="5">
<text text-anchor="middle" x="96.4248" y="-48.5695" font-family="Helvetica,sans-Serif" font-size="10.00">5</text>
</a>
</g>
</g>
</g>
</svg>
