<?xml version="1.0" encoding="UTF-8" standalone="no"?>
<!DOCTYPE svg PUBLIC "-//W3C//DTD SVG 1.1//EN"
 "http://www.w3.org/Graphics/SVG/1.1/DTD/svg11.dtd">
<!-- Generated by graphviz version 2.36.0 (20140111.2315)
 -->
<!-- Title: Graphical Class Hierarchy Pages: 1 -->
<svg width="214pt" height="142pt"
 viewBox="0.00 0.00 214.00 142.00" xmlns="http://www.w3.org/2000/svg" xmlns:xlink="http://www.w3.org/1999/xlink">
<g id="graph0" class="graph" transform="scale(1 1) rotate(0) translate(4 138)">
<title>Graphical Class Hierarchy</title>
<polygon fill="white" stroke="none" points="-4,4 -4,-138 210,-138 210,4 -4,4"/>
<!-- Node1 -->
<g id="node1" class="node"><title>Node1</title>
<polygon fill="white" stroke="#bfbfbf" points="0.5,-57.5 0.5,-76.5 35.5,-76.5 35.5,-57.5 0.5,-57.5"/>
<text text-anchor="middle" x="18" y="-64.5" font-family="Helvetica,sans-Serif" font-size="10.00">type</text>
</g>
<!-- Node2 -->
<g id="node2" class="node"><title>Node2</title>
<g id="a_node2"><a xlink:href="d7/d2b/structwlp_1_1is__arithmetic.html" target="_top" xlink:title="wlp::is_arithmetic\&lt; T \&gt;">
<polygon fill="white" stroke="black" points="80.5,-114.5 80.5,-133.5 197.5,-133.5 197.5,-114.5 80.5,-114.5"/>
<text text-anchor="middle" x="139" y="-121.5" font-family="Helvetica,sans-Serif" font-size="10.00">wlp::is_arithmetic&lt; T &gt;</text>
</a>
</g>
</g>
<!-- Node1&#45;&gt;Node2 -->
<g id="edge1" class="edge"><title>Node1&#45;&gt;Node2</title>
<path fill="none" stroke="midnightblue" d="M38.1408,-83.1617C47.7963,-90.6597 59.9863,-99.1795 72,-105 79.726,-108.743 88.3269,-111.884 96.6993,-114.465"/>
<polygon fill="midnightblue" stroke="midnightblue" points="40.0509,-80.2066 30.0637,-76.6699 35.6655,-85.6627 40.0509,-80.2066"/>
</g>
<!-- Node3 -->
<g id="node3" class="node"><title>Node3</title>
<g id="a_node3"><a xlink:href="d3/d80/structwlp_1_1is__fundamental.html" target="_top" xlink:title="wlp::is_fundamental\&lt; T \&gt;">
<polygon fill="white" stroke="black" points="75,-76.5 75,-95.5 203,-95.5 203,-76.5 75,-76.5"/>
<text text-anchor="middle" x="139" y="-83.5" font-family="Helvetica,sans-Serif" font-size="10.00">wlp::is_fundamental&lt; T &gt;</text>
</a>
</g>
</g>
<!-- Node1&#45;&gt;Node3 -->
<g id="edge2" class="edge"><title>Node1&#45;&gt;Node3</title>
<path fill="none" stroke="midnightblue" d="M45.7222,-71.2666C55.4551,-72.8206 66.889,-74.6461 78.3311,-76.473"/>
<polygon fill="midnightblue" stroke="midnightblue" points="45.9732,-67.7624 35.5464,-69.6419 44.8695,-74.6748 45.9732,-67.7624"/>
</g>
<!-- Node4 -->
<g id="node4" class="node"><title>Node4</title>
<g id="a_node4"><a xlink:href="de/d2c/structwlp_1_1is__reference.html" target="_top" xlink:title="wlp::is_reference\&lt; T \&gt;">
<polygon fill="white" stroke="black" points="81.5,-38.5 81.5,-57.5 196.5,-57.5 196.5,-38.5 81.5,-38.5"/>
<text text-anchor="middle" x="139" y="-45.5" font-family="Helvetica,sans-Serif" font-size="10.00">wlp::is_reference&lt; T &gt;</text>
</a>
</g>
</g>
<!-- Node1&#45;&gt;Node4 -->
<g id="edge3" class="edge"><title>Node1&#45;&gt;Node4</title>
<path fill="none" stroke="midnightblue" d="M45.7382,-62.7309C56.3003,-61.0445 68.8637,-59.0386 81.2664,-57.0583"/>
<polygon fill="midnightblue" stroke="midnightblue" points="44.8695,-59.3252 35.5464,-64.3581 45.9732,-66.2376 44.8695,-59.3252"/>
</g>
<!-- Node5 -->
<g id="node5" class="node"><title>Node5</title>
<g id="a_node5"><a xlink:href="df/d29/structwlp_1_1is__referenceable.html" target="_top" xlink:title="wlp::is_referenceable\&lt; T \&gt;">
<polygon fill="white" stroke="black" points="72.5,-0.5 72.5,-19.5 205.5,-19.5 205.5,-0.5 72.5,-0.5"/>
<text text-anchor="middle" x="139" y="-7.5" font-family="Helvetica,sans-Serif" font-size="10.00">wlp::is_referenceable&lt; T &gt;</text>
</a>
</g>
</g>
<!-- Node1&#45;&gt;Node5 -->
<g id="edge4" class="edge"><title>Node1&#45;&gt;Node5</title>
<path fill="none" stroke="midnightblue" d="M38.1408,-50.8383C47.7963,-43.3403 59.9863,-34.8205 72,-29 79.726,-25.2568 88.3269,-22.1162 96.6993,-19.5354"/>
<polygon fill="midnightblue" stroke="midnightblue" points="35.6655,-48.3373 30.0637,-57.3301 40.0509,-53.7934 35.6655,-48.3373"/>
</g>
</g>
</svg>
