<?xml version="1.0" encoding="UTF-8" standalone="no"?>
<!DOCTYPE svg PUBLIC "-//W3C//DTD SVG 1.1//EN"
 "http://www.w3.org/Graphics/SVG/1.1/DTD/svg11.dtd">
<!-- Generated by graphviz version 2.36.0 (20140111.2315)
 -->
<!-- Title: Graphical Class Hierarchy Pages: 1 -->
<svg width="218pt" height="142pt"
 viewBox="0.00 0.00 218.00 142.00" xmlns="http://www.w3.org/2000/svg" xmlns:xlink="http://www.w3.org/1999/xlink">
<g id="graph0" class="graph" transform="scale(1 1) rotate(0) translate(4 138)">
<title>Graphical Class Hierarchy</title>
<polygon fill="white" stroke="none" points="-4,4 -4,-138 214,-138 214,4 -4,4"/>
<!-- Node1 -->
<g id="node1" class="node"><title>Node1</title>
<g id="a_node1"><a xlink:href="df/d70/class_exception.html" target="_top" xlink:title="Exception">
<polygon fill="white" stroke="black" points="0,-57.5 0,-76.5 60,-76.5 60,-57.5 0,-57.5"/>
<text text-anchor="middle" x="30" y="-64.5" font-family="Helvetica,sans-Serif" font-size="10.00">Exception</text>
</a>
</g>
</g>
<!-- Node2 -->
<g id="node2" class="node"><title>Node2</title>
<g id="a_node2"><a xlink:href="d7/da3/class_bad_alloc_exception.html" target="_top" xlink:title="BadAllocException">
<polygon fill="white" stroke="black" points="103.5,-114.5 103.5,-133.5 202.5,-133.5 202.5,-114.5 103.5,-114.5"/>
<text text-anchor="middle" x="153" y="-121.5" font-family="Helvetica,sans-Serif" font-size="10.00">BadAllocException</text>
</a>
</g>
</g>
<!-- Node1&#45;&gt;Node2 -->
<g id="edge1" class="edge"><title>Node1&#45;&gt;Node2</title>
<path fill="none" stroke="midnightblue" d="M54.1209,-82.0562C66.2706,-89.5676 81.5956,-98.4275 96,-105 103.659,-108.495 112.157,-111.7 120.171,-114.443"/>
<polygon fill="midnightblue" stroke="midnightblue" points="55.8432,-79.0046 45.5167,-76.6352 52.1117,-84.9272 55.8432,-79.0046"/>
</g>
<!-- Node3 -->
<g id="node3" class="node"><title>Node3</title>
<g id="a_node3"><a xlink:href="d3/d89/class_logic_failure_exception.html" target="_top" xlink:title="LogicFailureException">
<polygon fill="white" stroke="black" points="96.5,-76.5 96.5,-95.5 209.5,-95.5 209.5,-76.5 96.5,-76.5"/>
<text text-anchor="middle" x="153" y="-83.5" font-family="Helvetica,sans-Serif" font-size="10.00">LogicFailureException</text>
</a>
</g>
</g>
<!-- Node1&#45;&gt;Node3 -->
<g id="edge2" class="edge"><title>Node1&#45;&gt;Node3</title>
<path fill="none" stroke="midnightblue" d="M70.4451,-73.1939C78.7623,-74.4999 87.6859,-75.9011 96.469,-77.2803"/>
<polygon fill="midnightblue" stroke="midnightblue" points="70.7126,-69.6931 60.2907,-71.5994 69.6267,-76.6083 70.7126,-69.6931"/>
</g>
<!-- Node4 -->
<g id="node4" class="node"><title>Node4</title>
<g id="a_node4"><a xlink:href="dc/d56/class_null_ptr_exception.html" target="_top" xlink:title="NullPtrException">
<polygon fill="white" stroke="black" points="108,-38.5 108,-57.5 198,-57.5 198,-38.5 108,-38.5"/>
<text text-anchor="middle" x="153" y="-45.5" font-family="Helvetica,sans-Serif" font-size="10.00">NullPtrException</text>
</a>
</g>
</g>
<!-- Node1&#45;&gt;Node4 -->
<g id="edge3" class="edge"><title>Node1&#45;&gt;Node4</title>
<path fill="none" stroke="midnightblue" d="M70.4238,-60.8095C82.3862,-58.9311 95.6049,-56.8554 107.856,-54.9317"/>
<polygon fill="midnightblue" stroke="midnightblue" points="69.6267,-57.3917 60.2907,-62.4006 70.7126,-64.3069 69.6267,-57.3917"/>
</g>
<!-- Node5 -->
<g id="node5" class="node"><title>Node5</title>
<g id="a_node5"><a xlink:href="d9/da8/class_runtime_exception.html" target="_top" xlink:title="RuntimeException">
<polygon fill="white" stroke="black" points="104.5,-0.5 104.5,-19.5 201.5,-19.5 201.5,-0.5 104.5,-0.5"/>
<text text-anchor="middle" x="153" y="-7.5" font-family="Helvetica,sans-Serif" font-size="10.00">RuntimeException</text>
</a>
</g>
</g>
<!-- Node1&#45;&gt;Node5 -->
<g id="edge4" class="edge"><title>Node1&#45;&gt;Node5</title>
<path fill="none" stroke="midnightblue" d="M54.1209,-51.9438C66.2706,-44.4324 81.5956,-35.5725 96,-29 103.659,-25.5054 112.157,-22.3001 120.171,-19.5573"/>
<polygon fill="midnightblue" stroke="midnightblue" points="52.1117,-49.0728 45.5167,-57.3648 55.8432,-54.9954 52.1117,-49.0728"/>
</g>
</g>
</svg>
