<?xml version="1.0" encoding="UTF-8" standalone="no"?>
<!DOCTYPE svg PUBLIC "-//W3C//DTD SVG 1.1//EN"
 "http://www.w3.org/Graphics/SVG/1.1/DTD/svg11.dtd">
<!-- Generated by graphviz version 2.38.0 (20140413.2041)
 -->
<!-- Title: Graphical Class Hierarchy Pages: 1 -->
<svg width="236pt" height="88pt"
 viewBox="0.00 0.00 236.00 88.00" xmlns="http://www.w3.org/2000/svg" xmlns:xlink="http://www.w3.org/1999/xlink">
<g id="graph0" class="graph" transform="scale(1 1) rotate(0) translate(4 84)">
<title>Graphical Class Hierarchy</title>
<polygon fill="white" stroke="none" points="-4,4 -4,-84 232,-84 232,4 -4,4"/>
<!-- Node0 -->
<g id="node1" class="node"><title>Node0</title>
<g id="a_node1"><a xlink:href="d8/d1b/structwlp_1_1and__.html" target="_top" xlink:title="wlp::and_\&lt;... \&gt;">
<polygon fill="white" stroke="black" points="0,-30 0,-49 82,-49 82,-30 0,-30"/>
<text text-anchor="middle" x="41" y="-37" font-family="Helvetica,sans-Serif" font-size="10.00">wlp::and_&lt;... &gt;</text>
</a>
</g>
</g>
<!-- Node1 -->
<g id="node2" class="node"><title>Node1</title>
<g id="a_node2"><a xlink:href="d5/dc8/structwlp_1_1and___3_01_b1_00_01_b2_00_01_b3_00_01_bn_8_8_8_01_4.html" target="_top" xlink:title="wlp::and_\&lt; B1, B2,\l B3, Bn... \&gt;">
<polygon fill="white" stroke="black" points="123,-49.5 123,-79.5 223,-79.5 223,-49.5 123,-49.5"/>
<text text-anchor="start" x="131" y="-67.5" font-family="Helvetica,sans-Serif" font-size="10.00">wlp::and_&lt; B1, B2,</text>
<text text-anchor="middle" x="173" y="-56.5" font-family="Helvetica,sans-Serif" font-size="10.00"> B3, Bn... &gt;</text>
</a>
</g>
</g>
<!-- Node0&#45;&gt;Node1 -->
<g id="edge1" class="edge"><title>Node0&#45;&gt;Node1</title>
<path fill="none" stroke="midnightblue" d="M91.9368,-49.1032C102.018,-51.0419 112.61,-53.0789 122.67,-55.0135"/>
<polygon fill="midnightblue" stroke="midnightblue" points="92.5461,-45.6563 82.065,-47.2048 91.2241,-52.5304 92.5461,-45.6563"/>
</g>
<!-- Node2 -->
<g id="node3" class="node"><title>Node2</title>
<g id="a_node3"><a xlink:href="dc/d4e/structwlp_1_1or___3_01_b1_00_01_b2_00_01_b3_00_01_bn_8_8_8_01_4.html" target="_top" xlink:title="wlp::or_\&lt; B1, B2, B3,\l Bn... \&gt;">
<polygon fill="white" stroke="black" points="118,-0.5 118,-30.5 228,-30.5 228,-0.5 118,-0.5"/>
<text text-anchor="start" x="126" y="-18.5" font-family="Helvetica,sans-Serif" font-size="10.00">wlp::or_&lt; B1, B2, B3,</text>
<text text-anchor="middle" x="173" y="-7.5" font-family="Helvetica,sans-Serif" font-size="10.00"> Bn... &gt;</text>
</a>
</g>
</g>
<!-- Node0&#45;&gt;Node2 -->
<g id="edge2" class="edge"><title>Node0&#45;&gt;Node2</title>
<path fill="none" stroke="midnightblue" d="M92.1566,-30.2403C100.608,-28.6801 109.412,-27.0547 117.957,-25.4773"/>
<polygon fill="midnightblue" stroke="midnightblue" points="91.2634,-26.846 82.065,-32.1034 92.5343,-33.7297 91.2634,-26.846"/>
</g>
</g>
</svg>
