<?xml version="1.0" encoding="UTF-8" standalone="no"?>
<!DOCTYPE svg PUBLIC "-//W3C//DTD SVG 1.1//EN"
 "http://www.w3.org/Graphics/SVG/1.1/DTD/svg11.dtd">
<!-- Generated by graphviz version 2.36.0 (20140111.2315)
 -->
<!-- Title: Graphical Class Hierarchy Pages: 1 -->
<svg width="194pt" height="165pt"
 viewBox="0.00 0.00 194.00 165.00" xmlns="http://www.w3.org/2000/svg" xmlns:xlink="http://www.w3.org/1999/xlink">
<g id="graph0" class="graph" transform="scale(1 1) rotate(0) translate(4 161)">
<title>Graphical Class Hierarchy</title>
<polygon fill="white" stroke="none" points="-4,4 -4,-161 190,-161 190,4 -4,4"/>
<!-- Node1 -->
<g id="node1" class="node"><title>Node1</title>
<polygon fill="white" stroke="#bfbfbf" points="0.5,-71.5 0.5,-90.5 35.5,-90.5 35.5,-71.5 0.5,-71.5"/>
<text text-anchor="middle" x="18" y="-78.5" font-family="Helvetica,sans-Serif" font-size="10.00">type</text>
</g>
<!-- Node2 -->
<g id="node2" class="node"><title>Node2</title>
<g id="a_node2"><a xlink:href="d2/df9/structwlp_1_1and___3_01_q1_00_01_q2_01_4.html" target="_top" xlink:title="wlp::and_\&lt; Q1, Q2 \&gt;">
<polygon fill="white" stroke="black" points="75,-137.5 75,-156.5 183,-156.5 183,-137.5 75,-137.5"/>
<text text-anchor="middle" x="129" y="-144.5" font-family="Helvetica,sans-Serif" font-size="10.00">wlp::and_&lt; Q1, Q2 &gt;</text>
</a>
</g>
</g>
<!-- Node1&#45;&gt;Node2 -->
<g id="edge1" class="edge"><title>Node1&#45;&gt;Node2</title>
<path fill="none" stroke="midnightblue" d="M35.0773,-97.7846C44.9947,-107.378 58.3879,-119.044 72,-127 79.0413,-131.115 87.0696,-134.595 94.8053,-137.44"/>
<polygon fill="midnightblue" stroke="midnightblue" points="37.4797,-95.2372 27.9312,-90.6462 32.5326,-100.19 37.4797,-95.2372"/>
</g>
<!-- Node3 -->
<g id="node3" class="node"><title>Node3</title>
<g id="a_node3"><a xlink:href="de/d0f/structwlp_1_1and___3_01_q1_00_01_q2_00_01_q3_00_01_qn_8_8_8_4.html" target="_top" xlink:title="wlp::and_\&lt; Q1, Q2,\l Q3, Qn...\&gt;">
<polygon fill="white" stroke="black" points="78,-88 78,-118 180,-118 180,-88 78,-88"/>
<text text-anchor="start" x="86" y="-106" font-family="Helvetica,sans-Serif" font-size="10.00">wlp::and_&lt; Q1, Q2,</text>
<text text-anchor="middle" x="129" y="-95" font-family="Helvetica,sans-Serif" font-size="10.00"> Q3, Qn...&gt;</text>
</a>
</g>
</g>
<!-- Node1&#45;&gt;Node3 -->
<g id="edge2" class="edge"><title>Node1&#45;&gt;Node3</title>
<path fill="none" stroke="midnightblue" d="M45.3994,-86.3283C55.1521,-88.2968 66.5575,-90.5988 77.7249,-92.8527"/>
<polygon fill="midnightblue" stroke="midnightblue" points="46.0496,-82.889 35.5548,-84.3413 44.6646,-89.7507 46.0496,-82.889"/>
</g>
<!-- Node4 -->
<g id="node4" class="node"><title>Node4</title>
<g id="a_node4"><a xlink:href="d6/d55/structwlp_1_1or___3_01_q1_00_01_q2_01_4.html" target="_top" xlink:title="wlp::or_\&lt; Q1, Q2 \&gt;">
<polygon fill="white" stroke="black" points="78.5,-49.5 78.5,-68.5 179.5,-68.5 179.5,-49.5 78.5,-49.5"/>
<text text-anchor="middle" x="129" y="-56.5" font-family="Helvetica,sans-Serif" font-size="10.00">wlp::or_&lt; Q1, Q2 &gt;</text>
</a>
</g>
</g>
<!-- Node1&#45;&gt;Node4 -->
<g id="edge3" class="edge"><title>Node1&#45;&gt;Node4</title>
<path fill="none" stroke="midnightblue" d="M45.406,-75.6704C55.9961,-73.5329 68.534,-71.0023 80.5997,-68.567"/>
<polygon fill="midnightblue" stroke="midnightblue" points="44.6646,-72.2493 35.5548,-77.6587 46.0496,-79.111 44.6646,-72.2493"/>
</g>
<!-- Node5 -->
<g id="node5" class="node"><title>Node5</title>
<g id="a_node5"><a xlink:href="d9/d03/structwlp_1_1or___3_01_q1_00_01_q2_00_01_q3_00_01_qn_8_8_8_4.html" target="_top" xlink:title="wlp::or_\&lt; Q1, Q2, Q3,\l Qn...\&gt;">
<polygon fill="white" stroke="black" points="72.5,-0 72.5,-30 185.5,-30 185.5,-0 72.5,-0"/>
<text text-anchor="start" x="80.5" y="-18" font-family="Helvetica,sans-Serif" font-size="10.00">wlp::or_&lt; Q1, Q2, Q3,</text>
<text text-anchor="middle" x="129" y="-7" font-family="Helvetica,sans-Serif" font-size="10.00"> Qn...&gt;</text>
</a>
</g>
</g>
<!-- Node1&#45;&gt;Node5 -->
<g id="edge4" class="edge"><title>Node1&#45;&gt;Node5</title>
<path fill="none" stroke="midnightblue" d="M37.6779,-64.7804C47.4906,-56.7274 59.9549,-47.2063 72,-40 77.9389,-36.4469 84.4721,-33.0864 90.9151,-30.0498"/>
<polygon fill="midnightblue" stroke="midnightblue" points="35.2212,-62.273 29.8144,-71.3844 39.7231,-67.6334 35.2212,-62.273"/>
</g>
</g>
</svg>
