<?xml version="1.0" encoding="UTF-8" standalone="no"?>
<!DOCTYPE svg PUBLIC "-//W3C//DTD SVG 1.1//EN"
 "http://www.w3.org/Graphics/SVG/1.1/DTD/svg11.dtd">
<!-- Generated by graphviz version 2.38.0 (20140413.2041)
 -->
<!-- Title: Graphical Class Hierarchy Pages: 1 -->
<svg width="210pt" height="142pt"
 viewBox="0.00 0.00 210.00 142.00" xmlns="http://www.w3.org/2000/svg" xmlns:xlink="http://www.w3.org/1999/xlink">
<g id="graph0" class="graph" transform="scale(1 1) rotate(0) translate(4 138)">
<title>Graphical Class Hierarchy</title>
<polygon fill="white" stroke="none" points="-4,4 -4,-138 206,-138 206,4 -4,4"/>
<!-- Node23 -->
<g id="node1" class="node"><title>Node23</title>
<polygon fill="white" stroke="#bfbfbf" points="0,-57.5 0,-76.5 35,-76.5 35,-57.5 0,-57.5"/>
<text text-anchor="middle" x="17.5" y="-64.5" font-family="Helvetica,sans-Serif" font-size="10.00">type</text>
</g>
<!-- Node0 -->
<g id="node2" class="node"><title>Node0</title>
<g id="a_node2"><a xlink:href="d7/d2b/structwlp_1_1is__arithmetic.html" target="_top" xlink:title="wlp::is_arithmetic\&lt; T \&gt;">
<polygon fill="white" stroke="black" points="78.5,-114.5 78.5,-133.5 194.5,-133.5 194.5,-114.5 78.5,-114.5"/>
<text text-anchor="middle" x="136.5" y="-121.5" font-family="Helvetica,sans-Serif" font-size="10.00">wlp::is_arithmetic&lt; T &gt;</text>
</a>
</g>
</g>
<!-- Node23&#45;&gt;Node0 -->
<g id="edge1" class="edge"><title>Node23&#45;&gt;Node0</title>
<path fill="none" stroke="midnightblue" d="M37.4536,-83.1378C47.0165,-90.6301 59.0921,-99.1521 71,-105 78.5444,-108.705 86.9471,-111.829 95.1285,-114.405"/>
<polygon fill="midnightblue" stroke="midnightblue" points="39.4267,-80.2318 29.4546,-76.6529 35.0183,-85.6693 39.4267,-80.2318"/>
</g>
<!-- Node25 -->
<g id="node3" class="node"><title>Node25</title>
<g id="a_node3"><a xlink:href="d3/d80/structwlp_1_1is__fundamental.html" target="_top" xlink:title="wlp::is_fundamental\&lt; T \&gt;">
<polygon fill="white" stroke="black" points="74,-76.5 74,-95.5 199,-95.5 199,-76.5 74,-76.5"/>
<text text-anchor="middle" x="136.5" y="-83.5" font-family="Helvetica,sans-Serif" font-size="10.00">wlp::is_fundamental&lt; T &gt;</text>
</a>
</g>
</g>
<!-- Node23&#45;&gt;Node25 -->
<g id="edge2" class="edge"><title>Node23&#45;&gt;Node25</title>
<path fill="none" stroke="midnightblue" d="M44.9765,-71.2996C54.4909,-72.8447 65.6387,-74.655 76.7965,-76.4669"/>
<polygon fill="midnightblue" stroke="midnightblue" points="45.4468,-67.8302 35.0151,-69.6819 44.3247,-74.7397 45.4468,-67.8302"/>
</g>
<!-- Node26 -->
<g id="node4" class="node"><title>Node26</title>
<g id="a_node4"><a xlink:href="de/d2c/structwlp_1_1is__reference.html" target="_top" xlink:title="wlp::is_reference\&lt; T \&gt;">
<polygon fill="white" stroke="black" points="80,-38.5 80,-57.5 193,-57.5 193,-38.5 80,-38.5"/>
<text text-anchor="middle" x="136.5" y="-45.5" font-family="Helvetica,sans-Serif" font-size="10.00">wlp::is_reference&lt; T &gt;</text>
</a>
</g>
</g>
<!-- Node23&#45;&gt;Node26 -->
<g id="edge3" class="edge"><title>Node23&#45;&gt;Node26</title>
<path fill="none" stroke="midnightblue" d="M45.0533,-62.6879C55.4445,-61.0005 67.7754,-58.998 79.9366,-57.0231"/>
<polygon fill="midnightblue" stroke="midnightblue" points="44.3247,-59.2603 35.0151,-64.3181 45.4468,-66.1698 44.3247,-59.2603"/>
</g>
<!-- Node27 -->
<g id="node5" class="node"><title>Node27</title>
<g id="a_node5"><a xlink:href="df/d29/structwlp_1_1is__referenceable.html" target="_top" xlink:title="wlp::is_referenceable\&lt; T \&gt;">
<polygon fill="white" stroke="black" points="71,-0.5 71,-19.5 202,-19.5 202,-0.5 71,-0.5"/>
<text text-anchor="middle" x="136.5" y="-7.5" font-family="Helvetica,sans-Serif" font-size="10.00">wlp::is_referenceable&lt; T &gt;</text>
</a>
</g>
</g>
<!-- Node23&#45;&gt;Node27 -->
<g id="edge4" class="edge"><title>Node23&#45;&gt;Node27</title>
<path fill="none" stroke="midnightblue" d="M37.4536,-50.8622C47.0165,-43.3699 59.0921,-34.8479 71,-29 78.5444,-25.295 86.9471,-22.1711 95.1285,-19.5946"/>
<polygon fill="midnightblue" stroke="midnightblue" points="35.0183,-48.3307 29.4546,-57.3471 39.4267,-53.7682 35.0183,-48.3307"/>
</g>
</g>
</svg>
