<?xml version="1.0" encoding="UTF-8" standalone="no"?>
<!DOCTYPE svg PUBLIC "-//W3C//DTD SVG 1.1//EN"
 "http://www.w3.org/Graphics/SVG/1.1/DTD/svg11.dtd">
<!-- Generated by graphviz version 2.36.0 (20140111.2315)
 -->
<!-- Title: Graphical Class Hierarchy Pages: 1 -->
<svg width="286pt" height="48pt"
 viewBox="0.00 0.00 286.00 48.00" xmlns="http://www.w3.org/2000/svg" xmlns:xlink="http://www.w3.org/1999/xlink">
<g id="graph0" class="graph" transform="scale(1 1) rotate(0) translate(4 44)">
<title>Graphical Class Hierarchy</title>
<polygon fill="white" stroke="none" points="-4,4 -4,-44 282,-44 282,4 -4,4"/>
<!-- Node1 -->
<g id="node1" class="node"><title>Node1</title>
<g id="a_node1"><a xlink:href="d1/d00/structwlp_1_1_tuple_impl.html" target="_top" xlink:title="wlp::TupleImpl\&lt; MakeIndex\lSequence\&lt; sizeof...(Types)\l\&gt;::type, Types...\&gt;">
<polygon fill="white" stroke="black" points="0.5,0.5 0.5,-40.5 137.5,-40.5 137.5,0.5 0.5,0.5"/>
<text text-anchor="start" x="8.5" y="-28.5" font-family="Helvetica,sans-Serif" font-size="10.00">wlp::TupleImpl&lt; MakeIndex</text>
<text text-anchor="start" x="8.5" y="-17.5" font-family="Helvetica,sans-Serif" font-size="10.00">Sequence&lt; sizeof...(Types)</text>
<text text-anchor="middle" x="69" y="-6.5" font-family="Helvetica,sans-Serif" font-size="10.00">&gt;::type, Types...&gt;</text>
</a>
</g>
</g>
<!-- Node2 -->
<g id="node2" class="node"><title>Node2</title>
<g id="a_node2"><a xlink:href="de/dab/classwlp_1_1tuple.html" target="_top" xlink:title="wlp::tuple\&lt; Types \&gt;">
<polygon fill="white" stroke="black" points="174,-10.5 174,-29.5 278,-29.5 278,-10.5 174,-10.5"/>
<text text-anchor="middle" x="226" y="-17.5" font-family="Helvetica,sans-Serif" font-size="10.00">wlp::tuple&lt; Types &gt;</text>
</a>
</g>
</g>
<!-- Node1&#45;&gt;Node2 -->
<g id="edge1" class="edge"><title>Node1&#45;&gt;Node2</title>
<path fill="none" stroke="midnightblue" d="M147.773,-20C156.516,-20 165.254,-20 173.542,-20"/>
<polygon fill="midnightblue" stroke="midnightblue" points="147.534,-16.5001 137.534,-20 147.534,-23.5001 147.534,-16.5001"/>
</g>
</g>
</svg>
