<?xml version="1.0" encoding="UTF-8" standalone="no"?>
<!DOCTYPE svg PUBLIC "-//W3C//DTD SVG 1.1//EN"
 "http://www.w3.org/Graphics/SVG/1.1/DTD/svg11.dtd">
<!-- Generated by graphviz version 2.36.0 (20140111.2315)
 -->
<!-- Title: wlp::TreeMap&lt; Key, Val, Cmp &gt; Pages: 1 -->
<svg width="670pt" height="205pt"
 viewBox="0.00 0.00 670.00 205.00" xmlns="http://www.w3.org/2000/svg" xmlns:xlink="http://www.w3.org/1999/xlink">
<g id="graph0" class="graph" transform="scale(1 1) rotate(0) translate(4 201)">
<title>wlp::TreeMap&lt; Key, Val, Cmp &gt;</title>
<polygon fill="white" stroke="none" points="-4,4 -4,-201 666,-201 666,4 -4,4"/>
<!-- Node1 -->
<g id="node1" class="node"><title>Node1</title>
<polygon fill="#bfbfbf" stroke="black" points="556.5,-101 556.5,-131 661.5,-131 661.5,-101 556.5,-101"/>
<text text-anchor="start" x="564.5" y="-119" font-family="Helvetica,sans-Serif" font-size="10.00">wlp::TreeMap&lt; Key,</text>
<text text-anchor="middle" x="609" y="-108" font-family="Helvetica,sans-Serif" font-size="10.00"> Val, Cmp &gt;</text>
</g>
<!-- Node2 -->
<g id="node2" class="node"><title>Node2</title>
<g id="a_node2"><a xlink:href="../../d3/def/classwlp_1_1_red_black_tree.html" target="_top" xlink:title="wlp::RedBlackTree\&lt;\l Tuple\&lt; Key, Val \&gt;,\l Key, Val, MapGetKey\l\&lt; Key, Val \&gt;, MapGetVal\l\&lt; Key, Val \&gt;, Cmp \&gt;">
<polygon fill="white" stroke="black" points="354.5,-84.5 354.5,-147.5 481.5,-147.5 481.5,-84.5 354.5,-84.5"/>
<text text-anchor="start" x="362.5" y="-135.5" font-family="Helvetica,sans-Serif" font-size="10.00">wlp::RedBlackTree&lt;</text>
<text text-anchor="start" x="362.5" y="-124.5" font-family="Helvetica,sans-Serif" font-size="10.00"> Tuple&lt; Key, Val &gt;,</text>
<text text-anchor="start" x="362.5" y="-113.5" font-family="Helvetica,sans-Serif" font-size="10.00"> Key, Val, MapGetKey</text>
<text text-anchor="start" x="362.5" y="-102.5" font-family="Helvetica,sans-Serif" font-size="10.00">&lt; Key, Val &gt;, MapGetVal</text>
<text text-anchor="middle" x="418" y="-91.5" font-family="Helvetica,sans-Serif" font-size="10.00">&lt; Key, Val &gt;, Cmp &gt;</text>
</a>
</g>
</g>
<!-- Node2&#45;&gt;Node1 -->
<g id="edge1" class="edge"><title>Node2&#45;&gt;Node1</title>
<path fill="none" stroke="#9a32cd" stroke-dasharray="5,2" d="M491.746,-116C513.24,-116 536.322,-116 556.209,-116"/>
<polygon fill="#9a32cd" stroke="#9a32cd" points="491.672,-112.5 481.672,-116 491.672,-119.5 491.672,-112.5"/>
<text text-anchor="middle" x="519" y="-119" font-family="Helvetica,sans-Serif" font-size="10.00"> m_table</text>
</g>
<!-- Node3 -->
<g id="node3" class="node"><title>Node3</title>
<polygon fill="white" stroke="#bfbfbf" points="185,-177.5 185,-196.5 223,-196.5 223,-177.5 185,-177.5"/>
<text text-anchor="middle" x="204" y="-184.5" font-family="Helvetica,sans-Serif" font-size="10.00">Cmp</text>
</g>
<!-- Node3&#45;&gt;Node2 -->
<g id="edge2" class="edge"><title>Node3&#45;&gt;Node2</title>
<path fill="none" stroke="#9a32cd" stroke-dasharray="5,2" d="M232.876,-180.54C259.635,-174.057 301.034,-163.291 336,-151 341.925,-148.917 348.031,-146.604 354.106,-144.187"/>
<polygon fill="#9a32cd" stroke="#9a32cd" points="231.956,-177.161 223.042,-182.888 233.582,-183.969 231.956,-177.161"/>
<text text-anchor="middle" x="310" y="-169" font-family="Helvetica,sans-Serif" font-size="10.00"> m_cmp</text>
</g>
<!-- Node4 -->
<g id="node4" class="node"><title>Node4</title>
<polygon fill="white" stroke="#bfbfbf" points="178.5,-139.5 178.5,-158.5 229.5,-158.5 229.5,-139.5 178.5,-139.5"/>
<text text-anchor="middle" x="204" y="-146.5" font-family="Helvetica,sans-Serif" font-size="10.00">uint16_t</text>
</g>
<!-- Node4&#45;&gt;Node2 -->
<g id="edge3" class="edge"><title>Node4&#45;&gt;Node2</title>
<path fill="none" stroke="#9a32cd" stroke-dasharray="5,2" d="M239.639,-143.608C270.671,-138.778 316.937,-131.576 354.435,-125.739"/>
<polygon fill="#9a32cd" stroke="#9a32cd" points="239.077,-140.153 229.734,-145.15 240.153,-147.07 239.077,-140.153"/>
<text text-anchor="middle" x="310" y="-139" font-family="Helvetica,sans-Serif" font-size="10.00"> m_size</text>
</g>
<!-- Node5 -->
<g id="node5" class="node"><title>Node5</title>
<g id="a_node5"><a xlink:href="../../d9/d53/structwlp_1_1_red_black_tree_node.html" target="_top" xlink:title="wlp::RedBlackTreeNode\l\&lt; Element \&gt;">
<polygon fill="white" stroke="black" points="142.5,-39 142.5,-69 265.5,-69 265.5,-39 142.5,-39"/>
<text text-anchor="start" x="150.5" y="-57" font-family="Helvetica,sans-Serif" font-size="10.00">wlp::RedBlackTreeNode</text>
<text text-anchor="middle" x="204" y="-46" font-family="Helvetica,sans-Serif" font-size="10.00">&lt; Element &gt;</text>
</a>
</g>
</g>
<!-- Node5&#45;&gt;Node2 -->
<g id="edge4" class="edge"><title>Node5&#45;&gt;Node2</title>
<path fill="none" stroke="#9a32cd" stroke-dasharray="5,2" d="M266.271,-71.919C293.946,-80.0124 326.601,-89.5624 354.428,-97.7006"/>
<polygon fill="#9a32cd" stroke="#9a32cd" points="266.9,-68.4562 256.319,-69.0085 264.935,-75.1748 266.9,-68.4562"/>
<text text-anchor="middle" x="310" y="-94" font-family="Helvetica,sans-Serif" font-size="10.00"> m_header</text>
</g>
<!-- Node5&#45;&gt;Node5 -->
<g id="edge7" class="edge"><title>Node5&#45;&gt;Node5</title>
<path fill="none" stroke="#9a32cd" stroke-dasharray="5,2" d="M185.446,-79.5975C187.981,-83.9704 194.166,-87 204,-87 220.562,-87 226.773,-78.4062 222.633,-69.2754"/>
<polygon fill="#9a32cd" stroke="#9a32cd" points="188.944,-79.2483 185.367,-69.2754 181.944,-79.3019 188.944,-79.2483"/>
<text text-anchor="middle" x="204" y="-112" font-family="Helvetica,sans-Serif" font-size="10.00"> m_left</text>
<text text-anchor="middle" x="204" y="-101" font-family="Helvetica,sans-Serif" font-size="10.00">m_parent</text>
<text text-anchor="middle" x="204" y="-90" font-family="Helvetica,sans-Serif" font-size="10.00">m_right</text>
</g>
<!-- Node6 -->
<g id="node6" class="node"><title>Node6</title>
<polygon fill="white" stroke="#bfbfbf" points="0.5,-63.5 0.5,-82.5 53.5,-82.5 53.5,-63.5 0.5,-63.5"/>
<text text-anchor="middle" x="27" y="-70.5" font-family="Helvetica,sans-Serif" font-size="10.00">Element</text>
</g>
<!-- Node6&#45;&gt;Node5 -->
<g id="edge5" class="edge"><title>Node6&#45;&gt;Node5</title>
<path fill="none" stroke="#9a32cd" stroke-dasharray="5,2" d="M63.9548,-69.0963C86.4938,-66.6492 116.124,-63.4323 142.239,-60.597"/>
<polygon fill="#9a32cd" stroke="#9a32cd" points="63.3856,-65.6375 53.8219,-70.1965 64.1412,-72.5966 63.3856,-65.6375"/>
<text text-anchor="middle" x="98" y="-71" font-family="Helvetica,sans-Serif" font-size="10.00"> m_element</text>
</g>
<!-- Node7 -->
<g id="node7" class="node"><title>Node7</title>
<polygon fill="white" stroke="#bfbfbf" points="9.5,-25.5 9.5,-44.5 44.5,-44.5 44.5,-25.5 9.5,-25.5"/>
<text text-anchor="middle" x="27" y="-32.5" font-family="Helvetica,sans-Serif" font-size="10.00">type</text>
</g>
<!-- Node7&#45;&gt;Node5 -->
<g id="edge6" class="edge"><title>Node7&#45;&gt;Node5</title>
<path fill="none" stroke="#9a32cd" stroke-dasharray="5,2" d="M54.9042,-37.921C78.1161,-40.4412 112.507,-44.175 142.306,-47.4103"/>
<polygon fill="#9a32cd" stroke="#9a32cd" points="55.0991,-34.4217 44.7797,-36.8218 54.3435,-41.3808 55.0991,-34.4217"/>
<text text-anchor="middle" x="98" y="-49" font-family="Helvetica,sans-Serif" font-size="10.00"> m_color</text>
</g>
<!-- Node8 -->
<g id="node8" class="node"><title>Node8</title>
<polygon fill="white" stroke="#bfbfbf" points="142,-0.5 142,-19.5 266,-19.5 266,-0.5 142,-0.5"/>
<text text-anchor="middle" x="204" y="-7.5" font-family="Helvetica,sans-Serif" font-size="10.00">MapGetKey&lt; Key, Val &gt;</text>
</g>
<!-- Node8&#45;&gt;Node2 -->
<g id="edge8" class="edge"><title>Node8&#45;&gt;Node2</title>
<path fill="none" stroke="#9a32cd" stroke-dasharray="5,2" d="M248.662,-22.7218C254.538,-24.6891 260.45,-26.8023 266,-29 298.157,-41.7342 305.913,-45.9413 336,-63 347.549,-69.548 359.684,-77.1019 370.943,-84.4172"/>
<polygon fill="#9a32cd" stroke="#9a32cd" points="249.467,-19.3039 238.875,-19.5598 247.315,-25.9649 249.467,-19.3039"/>
<text text-anchor="middle" x="310" y="-66" font-family="Helvetica,sans-Serif" font-size="10.00"> m_get_key</text>
</g>
</g>
</svg>
