<?xml version="1.0" encoding="UTF-8" standalone="no"?>
<!DOCTYPE svg PUBLIC "-//W3C//DTD SVG 1.1//EN"
 "http://www.w3.org/Graphics/SVG/1.1/DTD/svg11.dtd">
<!-- Generated by graphviz version 2.36.0 (20140111.2315)
 -->
<!-- Title: fsm/StateMachine.h Pages: 1 -->
<svg width="344pt" height="308pt"
 viewBox="0.00 0.00 344.44 308.00" xmlns="http://www.w3.org/2000/svg" xmlns:xlink="http://www.w3.org/1999/xlink">
<g id="graph0" class="graph" transform="scale(1 1) rotate(0) translate(4 304)">
<title>fsm/StateMachine.h</title>
<polygon fill="white" stroke="none" points="-4,4 -4,-304 340.438,-304 340.438,4 -4,4"/>
<!-- Node1 -->
<g id="node1" class="node"><title>Node1</title>
<polygon fill="#bfbfbf" stroke="black" points="83,-280.5 83,-299.5 187,-299.5 187,-280.5 83,-280.5"/>
<text text-anchor="middle" x="135" y="-287.5" font-family="Helvetica,sans-Serif" font-size="10.00">fsm/StateMachine.h</text>
</g>
<!-- Node2 -->
<g id="node2" class="node"><title>Node2</title>
<g id="a_node2"><a xlink:href="../../d2/db4/_wlib_8h.html" target="_top" xlink:title="../Wlib.h">
<polygon fill="white" stroke="black" points="-0.5,-224.5 -0.5,-243.5 52.5,-243.5 52.5,-224.5 -0.5,-224.5"/>
<text text-anchor="middle" x="26" y="-231.5" font-family="Helvetica,sans-Serif" font-size="10.00">../Wlib.h</text>
</a>
</g>
</g>
<!-- Node1&#45;&gt;Node2 -->
<g id="edge1" class="edge"><title>Node1&#45;&gt;Node2</title>
<path fill="none" stroke="midnightblue" d="M117.487,-280.324C99.9276,-271.625 72.6686,-258.12 52.4688,-248.113"/>
<polygon fill="midnightblue" stroke="midnightblue" points="53.9837,-244.958 43.4693,-243.655 50.8762,-251.23 53.9837,-244.958"/>
</g>
<!-- Node3 -->
<g id="node3" class="node"><title>Node3</title>
<g id="a_node3"><a xlink:href="../../d0/db6/_types_8h.html" target="_top" xlink:title="type definition of all the string types we will be using ">
<polygon fill="white" stroke="black" points="88.5,-56.5 88.5,-75.5 149.5,-75.5 149.5,-56.5 88.5,-56.5"/>
<text text-anchor="middle" x="119" y="-63.5" font-family="Helvetica,sans-Serif" font-size="10.00">../Types.h</text>
</a>
</g>
</g>
<!-- Node1&#45;&gt;Node3 -->
<g id="edge2" class="edge"><title>Node1&#45;&gt;Node3</title>
<path fill="none" stroke="midnightblue" d="M133.016,-280.193C127.424,-254.421 112.122,-176.878 115,-112 115.383,-103.372 116.176,-93.8414 116.956,-85.7805"/>
<polygon fill="midnightblue" stroke="midnightblue" points="120.461,-85.9182 118.006,-75.6117 113.498,-85.1994 120.461,-85.9182"/>
</g>
<!-- Node5 -->
<g id="node5" class="node"><title>Node5</title>
<g id="a_node5"><a xlink:href="../../d3/de6/_memory_8h.html" target="_top" xlink:title="Memory is a class that provides dynamic fixed size memory. ">
<polygon fill="white" stroke="black" points="136.5,-224.5 136.5,-243.5 243.5,-243.5 243.5,-224.5 136.5,-224.5"/>
<text text-anchor="middle" x="190" y="-231.5" font-family="Helvetica,sans-Serif" font-size="10.00">../memory/Memory.h</text>
</a>
</g>
</g>
<!-- Node1&#45;&gt;Node5 -->
<g id="edge4" class="edge"><title>Node1&#45;&gt;Node5</title>
<path fill="none" stroke="midnightblue" d="M144.082,-280.083C152.171,-272.141 164.195,-260.335 173.91,-250.797"/>
<polygon fill="midnightblue" stroke="midnightblue" points="176.403,-253.254 181.087,-243.751 171.499,-248.26 176.403,-253.254"/>
</g>
<!-- Node7 -->
<g id="node7" class="node"><title>Node7</title>
<g id="a_node7"><a xlink:href="../../d2/d37/_tmp_8h.html" target="_top" xlink:title="Template helper types, structs, and metafunctions. ">
<polygon fill="white" stroke="black" points="203,-112.5 203,-131.5 247,-131.5 247,-112.5 203,-112.5"/>
<text text-anchor="middle" x="225" y="-119.5" font-family="Helvetica,sans-Serif" font-size="10.00">Tmp.h</text>
</a>
</g>
</g>
<!-- Node1&#45;&gt;Node7 -->
<g id="edge11" class="edge"><title>Node1&#45;&gt;Node7</title>
<path fill="none" stroke="midnightblue" d="M184.191,-280.435C232.832,-268.945 304.059,-243.193 333,-188 350.557,-154.518 295.234,-136.624 257.4,-128.528"/>
<polygon fill="midnightblue" stroke="midnightblue" points="257.76,-125.031 247.268,-126.499 256.386,-131.894 257.76,-125.031"/>
</g>
<!-- Node4 -->
<g id="node4" class="node"><title>Node4</title>
<polygon fill="white" stroke="#bfbfbf" points="94.5,-0.5 94.5,-19.5 143.5,-19.5 143.5,-0.5 94.5,-0.5"/>
<text text-anchor="middle" x="119" y="-7.5" font-family="Helvetica,sans-Serif" font-size="10.00">stdint.h</text>
</g>
<!-- Node3&#45;&gt;Node4 -->
<g id="edge3" class="edge"><title>Node3&#45;&gt;Node4</title>
<path fill="none" stroke="midnightblue" d="M119,-56.083C119,-49.0059 119,-38.8611 119,-29.9865"/>
<polygon fill="midnightblue" stroke="midnightblue" points="122.5,-29.751 119,-19.7511 115.5,-29.7511 122.5,-29.751"/>
</g>
<!-- Node5&#45;&gt;Node3 -->
<g id="edge8" class="edge"><title>Node5&#45;&gt;Node3</title>
<path fill="none" stroke="midnightblue" d="M175.106,-224.298C163.048,-216.417 146.689,-203.659 138,-188 119.919,-155.415 117.689,-110.74 118.082,-85.7975"/>
<polygon fill="midnightblue" stroke="midnightblue" points="121.588,-85.6659 118.413,-75.558 114.591,-85.4396 121.588,-85.6659"/>
</g>
<!-- Node6 -->
<g id="node6" class="node"><title>Node6</title>
<g id="a_node6"><a xlink:href="../../db/d2a/_utility_8h.html" target="_top" xlink:title="Various helper functions. ">
<polygon fill="white" stroke="black" points="147,-168.5 147,-187.5 233,-187.5 233,-168.5 147,-168.5"/>
<text text-anchor="middle" x="190" y="-175.5" font-family="Helvetica,sans-Serif" font-size="10.00">../utility/Utility.h</text>
</a>
</g>
</g>
<!-- Node5&#45;&gt;Node6 -->
<g id="edge5" class="edge"><title>Node5&#45;&gt;Node6</title>
<path fill="none" stroke="midnightblue" d="M190,-224.083C190,-217.006 190,-206.861 190,-197.986"/>
<polygon fill="midnightblue" stroke="midnightblue" points="193.5,-197.751 190,-187.751 186.5,-197.751 193.5,-197.751"/>
</g>
<!-- Node5&#45;&gt;Node7 -->
<g id="edge9" class="edge"><title>Node5&#45;&gt;Node7</title>
<path fill="none" stroke="midnightblue" d="M205.783,-224.467C218.203,-216.769 234.605,-204.179 242,-188 248.955,-172.783 242.779,-154.212 236.004,-140.823"/>
<polygon fill="midnightblue" stroke="midnightblue" points="238.854,-138.75 230.913,-131.736 232.747,-142.171 238.854,-138.75"/>
</g>
<!-- Node8 -->
<g id="node8" class="node"><title>Node8</title>
<polygon fill="white" stroke="#bfbfbf" points="289.5,-168.5 289.5,-187.5 324.5,-187.5 324.5,-168.5 289.5,-168.5"/>
<text text-anchor="middle" x="307" y="-175.5" font-family="Helvetica,sans-Serif" font-size="10.00">new</text>
</g>
<!-- Node5&#45;&gt;Node8 -->
<g id="edge10" class="edge"><title>Node5&#45;&gt;Node8</title>
<path fill="none" stroke="midnightblue" d="M208.539,-224.444C227.847,-215.532 258.281,-201.486 280.204,-191.367"/>
<polygon fill="midnightblue" stroke="midnightblue" points="281.701,-194.531 289.314,-187.163 278.767,-188.176 281.701,-194.531"/>
</g>
<!-- Node6&#45;&gt;Node7 -->
<g id="edge6" class="edge"><title>Node6&#45;&gt;Node7</title>
<path fill="none" stroke="midnightblue" d="M195.78,-168.083C200.672,-160.534 207.827,-149.495 213.833,-140.23"/>
<polygon fill="midnightblue" stroke="midnightblue" points="216.826,-142.046 219.328,-131.751 210.952,-138.239 216.826,-142.046"/>
</g>
<!-- Node7&#45;&gt;Node3 -->
<g id="edge7" class="edge"><title>Node7&#45;&gt;Node3</title>
<path fill="none" stroke="midnightblue" d="M207.969,-112.324C190.97,-103.664 164.624,-90.2424 145.007,-80.249"/>
<polygon fill="midnightblue" stroke="midnightblue" points="146.488,-77.0752 135.988,-75.6545 143.31,-83.3125 146.488,-77.0752"/>
</g>
</g>
</svg>
