<?xml version="1.0" encoding="UTF-8" standalone="no"?>
<!DOCTYPE svg PUBLIC "-//W3C//DTD SVG 1.1//EN"
 "http://www.w3.org/Graphics/SVG/1.1/DTD/svg11.dtd">
<!-- Generated by graphviz version 2.36.0 (20140111.2315)
 -->
<!-- Title: fsm/StateMachine.h Pages: 1 -->
<svg width="600pt" height="308pt"
 viewBox="0.00 0.00 600.00 308.00" xmlns="http://www.w3.org/2000/svg" xmlns:xlink="http://www.w3.org/1999/xlink">
<g id="graph0" class="graph" transform="scale(1 1) rotate(0) translate(4 304)">
<title>fsm/StateMachine.h</title>
<polygon fill="white" stroke="none" points="-4,4 -4,-304 596,-304 596,4 -4,4"/>
<!-- Node1 -->
<g id="node1" class="node"><title>Node1</title>
<polygon fill="#bfbfbf" stroke="black" points="206,-280.5 206,-299.5 310,-299.5 310,-280.5 206,-280.5"/>
<text text-anchor="middle" x="258" y="-287.5" font-family="Helvetica,sans-Serif" font-size="10.00">fsm/StateMachine.h</text>
</g>
<!-- Node2 -->
<g id="node2" class="node"><title>Node2</title>
<g id="a_node2"><a xlink:href="../../d2/db4/_wlib_8h.html" target="_top" xlink:title="../Wlib.h">
<polygon fill="white" stroke="black" points="-0.5,-224.5 -0.5,-243.5 52.5,-243.5 52.5,-224.5 -0.5,-224.5"/>
<text text-anchor="middle" x="26" y="-231.5" font-family="Helvetica,sans-Serif" font-size="10.00">../Wlib.h</text>
</a>
</g>
</g>
<!-- Node1&#45;&gt;Node2 -->
<g id="edge1" class="edge"><title>Node1&#45;&gt;Node2</title>
<path fill="none" stroke="midnightblue" d="M221.239,-280.444C177.828,-270.339 106.056,-253.634 62.6803,-243.538"/>
<polygon fill="midnightblue" stroke="midnightblue" points="63.358,-240.102 52.8249,-241.244 61.7711,-246.92 63.358,-240.102"/>
</g>
<!-- Node3 -->
<g id="node3" class="node"><title>Node3</title>
<g id="a_node3"><a xlink:href="../../d0/db6/_types_8h.html" target="_top" xlink:title="type definition of all the string types we will be using ">
<polygon fill="white" stroke="black" points="175.5,-56.5 175.5,-75.5 236.5,-75.5 236.5,-56.5 175.5,-56.5"/>
<text text-anchor="middle" x="206" y="-63.5" font-family="Helvetica,sans-Serif" font-size="10.00">../Types.h</text>
</a>
</g>
</g>
<!-- Node1&#45;&gt;Node3 -->
<g id="edge2" class="edge"><title>Node1&#45;&gt;Node3</title>
<path fill="none" stroke="midnightblue" d="M237.51,-280.469C206.85,-266.416 150.261,-235.171 128,-188 119.322,-169.612 130.617,-124.611 139,-112 148.138,-98.2523 163.056,-87.6276 176.497,-80.1631"/>
<polygon fill="midnightblue" stroke="midnightblue" points="178.216,-83.2147 185.478,-75.5007 174.99,-77.002 178.216,-83.2147"/>
</g>
<!-- Node5 -->
<g id="node5" class="node"><title>Node5</title>
<g id="a_node5"><a xlink:href="../../d3/de6/_memory_8h.html" target="_top" xlink:title="Memory is a class that provides dynamic fixed size memory. ">
<polygon fill="white" stroke="black" points="204.5,-224.5 204.5,-243.5 311.5,-243.5 311.5,-224.5 204.5,-224.5"/>
<text text-anchor="middle" x="258" y="-231.5" font-family="Helvetica,sans-Serif" font-size="10.00">../memory/Memory.h</text>
</a>
</g>
</g>
<!-- Node1&#45;&gt;Node5 -->
<g id="edge4" class="edge"><title>Node1&#45;&gt;Node5</title>
<path fill="none" stroke="midnightblue" d="M258,-280.083C258,-273.006 258,-262.861 258,-253.986"/>
<polygon fill="midnightblue" stroke="midnightblue" points="261.5,-253.751 258,-243.751 254.5,-253.751 261.5,-253.751"/>
</g>
<!-- Node8 -->
<g id="node8" class="node"><title>Node8</title>
<g id="a_node8"><a xlink:href="../../d2/d37/_tmp_8h.html" target="_top" xlink:title="Template helper types, structs, and metafunctions. ">
<polygon fill="white" stroke="black" points="271,-112.5 271,-131.5 315,-131.5 315,-112.5 271,-112.5"/>
<text text-anchor="middle" x="293" y="-119.5" font-family="Helvetica,sans-Serif" font-size="10.00">Tmp.h</text>
</a>
</g>
</g>
<!-- Node1&#45;&gt;Node8 -->
<g id="edge12" class="edge"><title>Node1&#45;&gt;Node8</title>
<path fill="none" stroke="midnightblue" d="M284.479,-280.479C320.671,-267.231 384.154,-237.89 411,-188 430.668,-151.45 366.365,-134.339 325.058,-127.279"/>
<polygon fill="midnightblue" stroke="midnightblue" points="325.543,-123.813 315.117,-125.696 324.442,-130.725 325.543,-123.813"/>
</g>
<!-- Node10 -->
<g id="node10" class="node"><title>Node10</title>
<g id="a_node10"><a xlink:href="../../d7/d2f/_exceptions_8h.html" target="_top" xlink:title="Implementation of Exceptions using C style. ">
<polygon fill="white" stroke="black" points="459.5,-224.5 459.5,-243.5 592.5,-243.5 592.5,-224.5 459.5,-224.5"/>
<text text-anchor="middle" x="526" y="-231.5" font-family="Helvetica,sans-Serif" font-size="10.00">../exceptions/Exceptions.h</text>
</a>
</g>
</g>
<!-- Node1&#45;&gt;Node10 -->
<g id="edge13" class="edge"><title>Node1&#45;&gt;Node10</title>
<path fill="none" stroke="midnightblue" d="M300.465,-280.444C347.413,-270.984 423.076,-255.738 473.654,-245.547"/>
<polygon fill="midnightblue" stroke="midnightblue" points="474.622,-248.923 483.733,-243.516 473.239,-242.061 474.622,-248.923"/>
</g>
<!-- Node4 -->
<g id="node4" class="node"><title>Node4</title>
<polygon fill="white" stroke="#bfbfbf" points="181.5,-0.5 181.5,-19.5 230.5,-19.5 230.5,-0.5 181.5,-0.5"/>
<text text-anchor="middle" x="206" y="-7.5" font-family="Helvetica,sans-Serif" font-size="10.00">stdint.h</text>
</g>
<!-- Node3&#45;&gt;Node4 -->
<g id="edge3" class="edge"><title>Node3&#45;&gt;Node4</title>
<path fill="none" stroke="midnightblue" d="M206,-56.083C206,-49.0059 206,-38.8611 206,-29.9865"/>
<polygon fill="midnightblue" stroke="midnightblue" points="209.5,-29.751 206,-19.7511 202.5,-29.7511 209.5,-29.751"/>
</g>
<!-- Node5&#45;&gt;Node3 -->
<g id="edge9" class="edge"><title>Node5&#45;&gt;Node3</title>
<path fill="none" stroke="midnightblue" d="M204.33,-226.755C179.845,-220.922 153.018,-209.671 138,-188 112.874,-151.743 158.454,-105.466 186.467,-82.0401"/>
<polygon fill="midnightblue" stroke="midnightblue" points="188.927,-84.5515 194.499,-75.5398 184.523,-79.1102 188.927,-84.5515"/>
</g>
<!-- Node6 -->
<g id="node6" class="node"><title>Node6</title>
<polygon fill="white" stroke="#bfbfbf" points="147.5,-168.5 147.5,-187.5 196.5,-187.5 196.5,-168.5 147.5,-168.5"/>
<text text-anchor="middle" x="172" y="-175.5" font-family="Helvetica,sans-Serif" font-size="10.00">string.h</text>
</g>
<!-- Node5&#45;&gt;Node6 -->
<g id="edge5" class="edge"><title>Node5&#45;&gt;Node6</title>
<path fill="none" stroke="midnightblue" d="M244.183,-224.324C230.767,-215.9 210.176,-202.971 194.414,-193.074"/>
<polygon fill="midnightblue" stroke="midnightblue" points="196.113,-190.008 185.783,-187.655 192.391,-195.936 196.113,-190.008"/>
</g>
<!-- Node7 -->
<g id="node7" class="node"><title>Node7</title>
<g id="a_node7"><a xlink:href="../../db/d2a/_utility_8h.html" target="_top" xlink:title="Various helper functions. ">
<polygon fill="white" stroke="black" points="215,-168.5 215,-187.5 301,-187.5 301,-168.5 215,-168.5"/>
<text text-anchor="middle" x="258" y="-175.5" font-family="Helvetica,sans-Serif" font-size="10.00">../utility/Utility.h</text>
</a>
</g>
</g>
<!-- Node5&#45;&gt;Node7 -->
<g id="edge6" class="edge"><title>Node5&#45;&gt;Node7</title>
<path fill="none" stroke="midnightblue" d="M258,-224.083C258,-217.006 258,-206.861 258,-197.986"/>
<polygon fill="midnightblue" stroke="midnightblue" points="261.5,-197.751 258,-187.751 254.5,-197.751 261.5,-197.751"/>
</g>
<!-- Node5&#45;&gt;Node8 -->
<g id="edge10" class="edge"><title>Node5&#45;&gt;Node8</title>
<path fill="none" stroke="midnightblue" d="M273.783,-224.467C286.203,-216.769 302.605,-204.179 310,-188 316.955,-172.783 310.779,-154.212 304.004,-140.823"/>
<polygon fill="midnightblue" stroke="midnightblue" points="306.854,-138.75 298.913,-131.736 300.747,-142.171 306.854,-138.75"/>
</g>
<!-- Node9 -->
<g id="node9" class="node"><title>Node9</title>
<g id="a_node9"><a xlink:href="../../d9/d8a/_new_8h.html" target="_top" xlink:title="New operators defined for Arduino boards and for other boards use the normal new. ...">
<polygon fill="white" stroke="black" points="357.5,-168.5 357.5,-187.5 402.5,-187.5 402.5,-168.5 357.5,-168.5"/>
<text text-anchor="middle" x="380" y="-175.5" font-family="Helvetica,sans-Serif" font-size="10.00">New.h</text>
</a>
</g>
</g>
<!-- Node5&#45;&gt;Node9 -->
<g id="edge11" class="edge"><title>Node5&#45;&gt;Node9</title>
<path fill="none" stroke="midnightblue" d="M277.331,-224.444C297.32,-215.596 328.743,-201.687 351.564,-191.586"/>
<polygon fill="midnightblue" stroke="midnightblue" points="353.032,-194.764 360.759,-187.516 350.198,-188.363 353.032,-194.764"/>
</g>
<!-- Node7&#45;&gt;Node8 -->
<g id="edge7" class="edge"><title>Node7&#45;&gt;Node8</title>
<path fill="none" stroke="midnightblue" d="M263.78,-168.083C268.672,-160.534 275.827,-149.495 281.833,-140.23"/>
<polygon fill="midnightblue" stroke="midnightblue" points="284.826,-142.046 287.328,-131.751 278.952,-138.239 284.826,-142.046"/>
</g>
<!-- Node8&#45;&gt;Node3 -->
<g id="edge8" class="edge"><title>Node8&#45;&gt;Node3</title>
<path fill="none" stroke="midnightblue" d="M279.022,-112.324C265.45,-103.9 244.62,-90.9709 228.675,-81.0741"/>
<polygon fill="midnightblue" stroke="midnightblue" points="230.286,-77.9544 219.943,-75.6545 226.594,-83.9019 230.286,-77.9544"/>
</g>
<!-- Node10&#45;&gt;Node3 -->
<g id="edge15" class="edge"><title>Node10&#45;&gt;Node3</title>
<path fill="none" stroke="midnightblue" d="M513.571,-224.47C494.856,-211.73 458.2,-187.178 426,-168 381.233,-141.336 370.307,-133.844 323,-112 295.857,-99.4667 264.153,-87.4264 240.6,-78.9591"/>
<polygon fill="midnightblue" stroke="midnightblue" points="241.636,-75.6129 231.042,-75.5579 239.29,-82.2079 241.636,-75.6129"/>
</g>
<!-- Node11 -->
<g id="node11" class="node"><title>Node11</title>
<polygon fill="white" stroke="#bfbfbf" points="499,-168.5 499,-187.5 553,-187.5 553,-168.5 499,-168.5"/>
<text text-anchor="middle" x="526" y="-175.5" font-family="Helvetica,sans-Serif" font-size="10.00">setjmp.h</text>
</g>
<!-- Node10&#45;&gt;Node11 -->
<g id="edge14" class="edge"><title>Node10&#45;&gt;Node11</title>
<path fill="none" stroke="midnightblue" d="M526,-224.083C526,-217.006 526,-206.861 526,-197.986"/>
<polygon fill="midnightblue" stroke="midnightblue" points="529.5,-197.751 526,-187.751 522.5,-197.751 529.5,-197.751"/>
</g>
</g>
</svg>
