<?xml version="1.0" encoding="UTF-8" standalone="no"?>
<!DOCTYPE svg PUBLIC "-//W3C//DTD SVG 1.1//EN"
 "http://www.w3.org/Graphics/SVG/1.1/DTD/svg11.dtd">
<!-- Generated by graphviz version 2.36.0 (20140111.2315)
 -->
<!-- Title: wlib/fsm/StateMachine.h Pages: 1 -->
<svg width="634pt" height="308pt"
 viewBox="0.00 0.00 634.00 308.00" xmlns="http://www.w3.org/2000/svg" xmlns:xlink="http://www.w3.org/1999/xlink">
<g id="graph0" class="graph" transform="scale(1 1) rotate(0) translate(4 304)">
<title>wlib/fsm/StateMachine.h</title>
<polygon fill="white" stroke="none" points="-4,4 -4,-304 630,-304 630,4 -4,4"/>
<!-- Node1 -->
<g id="node1" class="node"><title>Node1</title>
<polygon fill="#bfbfbf" stroke="black" points="212.5,-280.5 212.5,-299.5 337.5,-299.5 337.5,-280.5 212.5,-280.5"/>
<text text-anchor="middle" x="275" y="-287.5" font-family="Helvetica,sans-Serif" font-size="10.00">wlib/fsm/StateMachine.h</text>
</g>
<!-- Node2 -->
<g id="node2" class="node"><title>Node2</title>
<g id="a_node2"><a xlink:href="../../d2/db4/_wlib_8h.html" target="_top" xlink:title="wlib/Wlib.h">
<polygon fill="white" stroke="black" points="-0.5,-224.5 -0.5,-243.5 64.5,-243.5 64.5,-224.5 -0.5,-224.5"/>
<text text-anchor="middle" x="32" y="-231.5" font-family="Helvetica,sans-Serif" font-size="10.00">wlib/Wlib.h</text>
</a>
</g>
</g>
<!-- Node1&#45;&gt;Node2 -->
<g id="edge1" class="edge"><title>Node1&#45;&gt;Node2</title>
<path fill="none" stroke="midnightblue" d="M236.496,-280.444C192.452,-270.656 120.536,-254.675 74.7786,-244.506"/>
<polygon fill="midnightblue" stroke="midnightblue" points="75.3899,-241.057 64.8688,-242.304 73.8714,-247.89 75.3899,-241.057"/>
</g>
<!-- Node3 -->
<g id="node3" class="node"><title>Node3</title>
<g id="a_node3"><a xlink:href="../../d0/db6/_types_8h.html" target="_top" xlink:title="type definition of all the string types we will be using ">
<polygon fill="white" stroke="black" points="186,-56.5 186,-75.5 258,-75.5 258,-56.5 186,-56.5"/>
<text text-anchor="middle" x="222" y="-63.5" font-family="Helvetica,sans-Serif" font-size="10.00">wlib/Types.h</text>
</a>
</g>
</g>
<!-- Node1&#45;&gt;Node3 -->
<g id="edge2" class="edge"><title>Node1&#45;&gt;Node3</title>
<path fill="none" stroke="midnightblue" d="M252.625,-280.49C220.194,-266.745 161.543,-236.223 139,-188 129.788,-168.294 144.864,-122.128 152,-112 161.736,-98.1819 177.194,-87.5949 191.11,-80.1719"/>
<polygon fill="midnightblue" stroke="midnightblue" points="193.02,-83.1307 200.409,-75.5375 189.898,-76.8656 193.02,-83.1307"/>
</g>
<!-- Node5 -->
<g id="node5" class="node"><title>Node5</title>
<g id="a_node5"><a xlink:href="../../d3/de6/_memory_8h.html" target="_top" xlink:title="Memory is a class that provides dynamic fixed size memory. ">
<polygon fill="white" stroke="black" points="215.5,-224.5 215.5,-243.5 334.5,-243.5 334.5,-224.5 215.5,-224.5"/>
<text text-anchor="middle" x="275" y="-231.5" font-family="Helvetica,sans-Serif" font-size="10.00">wlib/memory/Memory.h</text>
</a>
</g>
</g>
<!-- Node1&#45;&gt;Node5 -->
<g id="edge4" class="edge"><title>Node1&#45;&gt;Node5</title>
<path fill="none" stroke="midnightblue" d="M275,-280.083C275,-273.006 275,-262.861 275,-253.986"/>
<polygon fill="midnightblue" stroke="midnightblue" points="278.5,-253.751 275,-243.751 271.5,-253.751 278.5,-253.751"/>
</g>
<!-- Node8 -->
<g id="node8" class="node"><title>Node8</title>
<g id="a_node8"><a xlink:href="../../d2/d37/_tmp_8h.html" target="_top" xlink:title="Template helper types, structs, and metafunctions. ">
<polygon fill="white" stroke="black" points="291,-112.5 291,-131.5 335,-131.5 335,-112.5 291,-112.5"/>
<text text-anchor="middle" x="313" y="-119.5" font-family="Helvetica,sans-Serif" font-size="10.00">Tmp.h</text>
</a>
</g>
</g>
<!-- Node1&#45;&gt;Node8 -->
<g id="edge12" class="edge"><title>Node1&#45;&gt;Node8</title>
<path fill="none" stroke="midnightblue" d="M303.436,-280.464C341.156,-267.429 406.204,-238.586 434,-188 454.528,-150.641 387.388,-133.762 345.004,-126.978"/>
<polygon fill="midnightblue" stroke="midnightblue" points="345.495,-123.513 335.088,-125.5 344.463,-130.436 345.495,-123.513"/>
</g>
<!-- Node10 -->
<g id="node10" class="node"><title>Node10</title>
<g id="a_node10"><a xlink:href="../../d7/d2f/_exceptions_8h.html" target="_top" xlink:title="Implementation of Exceptions using C style. ">
<polygon fill="white" stroke="black" points="482,-224.5 482,-243.5 626,-243.5 626,-224.5 482,-224.5"/>
<text text-anchor="middle" x="554" y="-231.5" font-family="Helvetica,sans-Serif" font-size="10.00">wlib/exceptions/Exceptions.h</text>
</a>
</g>
</g>
<!-- Node1&#45;&gt;Node10 -->
<g id="edge13" class="edge"><title>Node1&#45;&gt;Node10</title>
<path fill="none" stroke="midnightblue" d="M319.208,-280.444C368.287,-270.944 447.51,-255.611 500.164,-245.42"/>
<polygon fill="midnightblue" stroke="midnightblue" points="500.846,-248.853 509.998,-243.516 499.516,-241.98 500.846,-248.853"/>
</g>
<!-- Node4 -->
<g id="node4" class="node"><title>Node4</title>
<polygon fill="white" stroke="#bfbfbf" points="197.5,-0.5 197.5,-19.5 246.5,-19.5 246.5,-0.5 197.5,-0.5"/>
<text text-anchor="middle" x="222" y="-7.5" font-family="Helvetica,sans-Serif" font-size="10.00">stdint.h</text>
</g>
<!-- Node3&#45;&gt;Node4 -->
<g id="edge3" class="edge"><title>Node3&#45;&gt;Node4</title>
<path fill="none" stroke="midnightblue" d="M222,-56.083C222,-49.0059 222,-38.8611 222,-29.9865"/>
<polygon fill="midnightblue" stroke="midnightblue" points="225.5,-29.751 222,-19.7511 218.5,-29.7511 225.5,-29.751"/>
</g>
<!-- Node5&#45;&gt;Node3 -->
<g id="edge9" class="edge"><title>Node5&#45;&gt;Node3</title>
<path fill="none" stroke="midnightblue" d="M215.267,-226.444C190.867,-220.49 164.92,-209.229 150,-188 124.286,-151.413 172.092,-105.326 201.472,-82.0002"/>
<polygon fill="midnightblue" stroke="midnightblue" points="203.754,-84.6607 209.546,-75.789 199.486,-79.1125 203.754,-84.6607"/>
</g>
<!-- Node6 -->
<g id="node6" class="node"><title>Node6</title>
<polygon fill="white" stroke="#bfbfbf" points="159.5,-168.5 159.5,-187.5 208.5,-187.5 208.5,-168.5 159.5,-168.5"/>
<text text-anchor="middle" x="184" y="-175.5" font-family="Helvetica,sans-Serif" font-size="10.00">string.h</text>
</g>
<!-- Node5&#45;&gt;Node6 -->
<g id="edge5" class="edge"><title>Node5&#45;&gt;Node6</title>
<path fill="none" stroke="midnightblue" d="M260.379,-224.324C246.051,-215.822 223.987,-202.729 207.251,-192.797"/>
<polygon fill="midnightblue" stroke="midnightblue" points="208.97,-189.748 198.584,-187.655 205.398,-195.768 208.97,-189.748"/>
</g>
<!-- Node7 -->
<g id="node7" class="node"><title>Node7</title>
<g id="a_node7"><a xlink:href="../../db/d2a/_utility_8h.html" target="_top" xlink:title="Various helper functions. ">
<polygon fill="white" stroke="black" points="226.5,-168.5 226.5,-187.5 323.5,-187.5 323.5,-168.5 226.5,-168.5"/>
<text text-anchor="middle" x="275" y="-175.5" font-family="Helvetica,sans-Serif" font-size="10.00">wlib/utility/Utility.h</text>
</a>
</g>
</g>
<!-- Node5&#45;&gt;Node7 -->
<g id="edge6" class="edge"><title>Node5&#45;&gt;Node7</title>
<path fill="none" stroke="midnightblue" d="M275,-224.083C275,-217.006 275,-206.861 275,-197.986"/>
<polygon fill="midnightblue" stroke="midnightblue" points="278.5,-197.751 275,-187.751 271.5,-197.751 278.5,-197.751"/>
</g>
<!-- Node5&#45;&gt;Node8 -->
<g id="edge10" class="edge"><title>Node5&#45;&gt;Node8</title>
<path fill="none" stroke="midnightblue" d="M293.082,-224.39C306.562,-216.872 323.972,-204.565 332,-188 339.426,-172.675 332.367,-153.884 324.836,-140.454"/>
<polygon fill="midnightblue" stroke="midnightblue" points="327.697,-138.425 319.47,-131.749 321.738,-142.099 327.697,-138.425"/>
</g>
<!-- Node9 -->
<g id="node9" class="node"><title>Node9</title>
<g id="a_node9"><a xlink:href="../../d9/d8a/_new_8h.html" target="_top" xlink:title="New operators defined for Arduino boards and for other boards use the normal new. ...">
<polygon fill="white" stroke="black" points="380.5,-168.5 380.5,-187.5 425.5,-187.5 425.5,-168.5 380.5,-168.5"/>
<text text-anchor="middle" x="403" y="-175.5" font-family="Helvetica,sans-Serif" font-size="10.00">New.h</text>
</a>
</g>
</g>
<!-- Node5&#45;&gt;Node9 -->
<g id="edge11" class="edge"><title>Node5&#45;&gt;Node9</title>
<path fill="none" stroke="midnightblue" d="M295.282,-224.444C316.347,-215.557 349.517,-201.563 373.486,-191.451"/>
<polygon fill="midnightblue" stroke="midnightblue" points="374.96,-194.628 382.813,-187.516 372.239,-188.179 374.96,-194.628"/>
</g>
<!-- Node7&#45;&gt;Node8 -->
<g id="edge7" class="edge"><title>Node7&#45;&gt;Node8</title>
<path fill="none" stroke="midnightblue" d="M281.275,-168.083C286.642,-160.455 294.518,-149.264 301.079,-139.941"/>
<polygon fill="midnightblue" stroke="midnightblue" points="303.949,-141.943 306.842,-131.751 298.225,-137.915 303.949,-141.943"/>
</g>
<!-- Node8&#45;&gt;Node3 -->
<g id="edge8" class="edge"><title>Node8&#45;&gt;Node3</title>
<path fill="none" stroke="midnightblue" d="M298.379,-112.324C284.051,-103.822 261.987,-90.7288 245.251,-80.7975"/>
<polygon fill="midnightblue" stroke="midnightblue" points="246.97,-77.7478 236.584,-75.6545 243.398,-83.7677 246.97,-77.7478"/>
</g>
<!-- Node10&#45;&gt;Node3 -->
<g id="edge15" class="edge"><title>Node10&#45;&gt;Node3</title>
<path fill="none" stroke="midnightblue" d="M540.914,-224.498C521.219,-211.794 482.673,-187.287 449,-168 402.766,-141.518 391.628,-133.777 343,-112 314.774,-99.3599 281.822,-87.272 257.438,-78.8134"/>
<polygon fill="midnightblue" stroke="midnightblue" points="258.478,-75.4697 247.883,-75.532 256.204,-82.0902 258.478,-75.4697"/>
</g>
<!-- Node11 -->
<g id="node11" class="node"><title>Node11</title>
<polygon fill="white" stroke="#bfbfbf" points="527,-168.5 527,-187.5 581,-187.5 581,-168.5 527,-168.5"/>
<text text-anchor="middle" x="554" y="-175.5" font-family="Helvetica,sans-Serif" font-size="10.00">setjmp.h</text>
</g>
<!-- Node10&#45;&gt;Node11 -->
<g id="edge14" class="edge"><title>Node10&#45;&gt;Node11</title>
<path fill="none" stroke="midnightblue" d="M554,-224.083C554,-217.006 554,-206.861 554,-197.986"/>
<polygon fill="midnightblue" stroke="midnightblue" points="557.5,-197.751 554,-187.751 550.5,-197.751 557.5,-197.751"/>
</g>
</g>
</svg>
