<?xml version="1.0" encoding="UTF-8" standalone="no"?>
<!DOCTYPE svg PUBLIC "-//W3C//DTD SVG 1.1//EN"
 "http://www.w3.org/Graphics/SVG/1.1/DTD/svg11.dtd">
<!-- Generated by graphviz version 2.38.0 (20140413.2041)
 -->
<!-- Title: wlp::ArrayHeap::push Pages: 1 -->
<svg width="414pt" height="142pt"
 viewBox="0.00 0.00 414.00 142.00" xmlns="http://www.w3.org/2000/svg" xmlns:xlink="http://www.w3.org/1999/xlink">
<g id="graph0" class="graph" transform="scale(1 1) rotate(0) translate(4 138)">
<title>wlp::ArrayHeap::push</title>
<polygon fill="white" stroke="none" points="-4,4 -4,-138 410,-138 410,4 -4,4"/>
<!-- Node28 -->
<g id="node1" class="node"><title>Node28</title>
<polygon fill="#bfbfbf" stroke="black" points="0,-57.5 0,-76.5 110,-76.5 110,-57.5 0,-57.5"/>
<text text-anchor="middle" x="55" y="-64.5" font-family="Helvetica,sans-Serif" font-size="10.00">wlp::ArrayHeap::push</text>
</g>
<!-- Node29 -->
<g id="node2" class="node"><title>Node29</title>
<g id="a_node2"><a xlink:href="../../db/d49/classwlp_1_1_array_list.html#add99d571d49332abfa8036a727eb8958" target="_top" xlink:title="wlp::ArrayList::begin">
<polygon fill="white" stroke="black" points="158,-114.5 158,-133.5 263,-133.5 263,-114.5 158,-114.5"/>
<text text-anchor="middle" x="210.5" y="-121.5" font-family="Helvetica,sans-Serif" font-size="10.00">wlp::ArrayList::begin</text>
</a>
</g>
</g>
<!-- Node28&#45;&gt;Node29 -->
<g id="edge1" class="edge"><title>Node28&#45;&gt;Node29</title>
<path fill="none" stroke="midnightblue" d="M76.8385,-76.5612C94.9177,-84.6717 121.9,-96.3356 146,-105 152.111,-107.197 158.614,-109.349 165.039,-111.369"/>
<polygon fill="midnightblue" stroke="midnightblue" points="164.417,-114.839 175.004,-114.421 166.468,-108.146 164.417,-114.839"/>
</g>
<!-- Node30 -->
<g id="node3" class="node"><title>Node30</title>
<g id="a_node3"><a xlink:href="../../db/d49/classwlp_1_1_array_list.html#af08d43457fe9ce1437543fc458198b57" target="_top" xlink:title="wlp::ArrayList::end">
<polygon fill="white" stroke="black" points="161.5,-76.5 161.5,-95.5 259.5,-95.5 259.5,-76.5 161.5,-76.5"/>
<text text-anchor="middle" x="210.5" y="-83.5" font-family="Helvetica,sans-Serif" font-size="10.00">wlp::ArrayList::end</text>
</a>
</g>
</g>
<!-- Node28&#45;&gt;Node30 -->
<g id="edge2" class="edge"><title>Node28&#45;&gt;Node30</title>
<path fill="none" stroke="midnightblue" d="M110.118,-73.6987C123.462,-75.3504 137.808,-77.1261 151.335,-78.8004"/>
<polygon fill="midnightblue" stroke="midnightblue" points="151.135,-82.3023 161.489,-80.0573 151.995,-75.3553 151.135,-82.3023"/>
</g>
<!-- Node31 -->
<g id="node4" class="node"><title>Node31</title>
<g id="a_node4"><a xlink:href="../../db/d49/classwlp_1_1_array_list.html#a31f9d1be8b631e9516f0cfce7b765480" target="_top" xlink:title="wlp::ArrayList::push_back">
<polygon fill="white" stroke="black" points="146,-38.5 146,-57.5 275,-57.5 275,-38.5 146,-38.5"/>
<text text-anchor="middle" x="210.5" y="-45.5" font-family="Helvetica,sans-Serif" font-size="10.00">wlp::ArrayList::push_back</text>
</a>
</g>
</g>
<!-- Node28&#45;&gt;Node31 -->
<g id="edge3" class="edge"><title>Node28&#45;&gt;Node31</title>
<path fill="none" stroke="midnightblue" d="M110.118,-60.3013C118.432,-59.2723 127.134,-58.1951 135.785,-57.1244"/>
<polygon fill="midnightblue" stroke="midnightblue" points="136.396,-60.5755 145.89,-55.8735 135.536,-53.6286 136.396,-60.5755"/>
</g>
<!-- Node32 -->
<g id="node5" class="node"><title>Node32</title>
<g id="a_node5"><a xlink:href="../../d5/dca/namespacewlp.html#a4de8c4529d37369503a720d251f3f802" target="_top" xlink:title="wlp::push_heap">
<polygon fill="white" stroke="black" points="168.5,-0.5 168.5,-19.5 252.5,-19.5 252.5,-0.5 168.5,-0.5"/>
<text text-anchor="middle" x="210.5" y="-7.5" font-family="Helvetica,sans-Serif" font-size="10.00">wlp::push_heap</text>
</a>
</g>
</g>
<!-- Node28&#45;&gt;Node32 -->
<g id="edge4" class="edge"><title>Node28&#45;&gt;Node32</title>
<path fill="none" stroke="midnightblue" d="M76.8385,-57.4388C94.9177,-49.3283 121.9,-37.6644 146,-29 152.111,-26.8029 158.614,-24.651 165.039,-22.6313"/>
<polygon fill="midnightblue" stroke="midnightblue" points="166.468,-25.8544 175.004,-19.5787 164.417,-19.1614 166.468,-25.8544"/>
</g>
<!-- Node33 -->
<g id="node6" class="node"><title>Node33</title>
<g id="a_node6"><a xlink:href="../../d5/dca/namespacewlp.html#a903253da340cffc0160b9887f2b80b8c" target="_top" xlink:title="wlp::__push_heap">
<polygon fill="white" stroke="black" points="311,-0.5 311,-19.5 406,-19.5 406,-0.5 311,-0.5"/>
<text text-anchor="middle" x="358.5" y="-7.5" font-family="Helvetica,sans-Serif" font-size="10.00">wlp::__push_heap</text>
</a>
</g>
</g>
<!-- Node32&#45;&gt;Node33 -->
<g id="edge5" class="edge"><title>Node32&#45;&gt;Node33</title>
<path fill="none" stroke="midnightblue" d="M252.558,-10C267.433,-10 284.512,-10 300.512,-10"/>
<polygon fill="midnightblue" stroke="midnightblue" points="300.837,-13.5001 310.837,-10 300.837,-6.5001 300.837,-13.5001"/>
</g>
</g>
</svg>
