<?xml version="1.0" encoding="UTF-8" standalone="no"?>
<!DOCTYPE svg PUBLIC "-//W3C//DTD SVG 1.1//EN"
 "http://www.w3.org/Graphics/SVG/1.1/DTD/svg11.dtd">
<!-- Generated by graphviz version 2.36.0 (20140111.2315)
 -->
<!-- Title: wlp::hash_map::insert_or_assign Pages: 1 -->
<svg width="274pt" height="154pt"
 viewBox="0.00 0.00 274.00 154.00" xmlns="http://www.w3.org/2000/svg" xmlns:xlink="http://www.w3.org/1999/xlink">
<g id="graph0" class="graph" transform="scale(1 1) rotate(0) translate(4 150)">
<title>wlp::hash_map::insert_or_assign</title>
<polygon fill="white" stroke="none" points="-4,4 -4,-150 270,-150 270,4 -4,4"/>
<!-- Node1 -->
<g id="node1" class="node"><title>Node1</title>
<polygon fill="#bfbfbf" stroke="black" points="0.5,-61 0.5,-91 113.5,-91 113.5,-61 0.5,-61"/>
<text text-anchor="start" x="8.5" y="-79" font-family="Helvetica,sans-Serif" font-size="10.00">wlp::hash_map::insert</text>
<text text-anchor="middle" x="57" y="-68" font-family="Helvetica,sans-Serif" font-size="10.00">_or_assign</text>
</g>
<!-- Node2 -->
<g id="node2" class="node"><title>Node2</title>
<g id="a_node2"><a xlink:href="../../dc/d42/classwlp_1_1hash__table.html#ab26b4eb82e432f79028d5192b108fa59" target="_top" xlink:title="wlp::hash_table::end">
<polygon fill="white" stroke="black" points="154.5,-126.5 154.5,-145.5 261.5,-145.5 261.5,-126.5 154.5,-126.5"/>
<text text-anchor="middle" x="208" y="-133.5" font-family="Helvetica,sans-Serif" font-size="10.00">wlp::hash_table::end</text>
</a>
</g>
</g>
<!-- Node1&#45;&gt;Node2 -->
<g id="edge1" class="edge"><title>Node1&#45;&gt;Node2</title>
<path fill="none" stroke="midnightblue" d="M89.6109,-91.0034C107.213,-99.1251 129.625,-109.086 150,-117 155.482,-119.129 161.313,-121.242 167.075,-123.242"/>
<polygon fill="midnightblue" stroke="midnightblue" points="166.036,-126.586 176.631,-126.486 168.286,-119.957 166.036,-126.586"/>
</g>
<!-- Node3 -->
<g id="node3" class="node"><title>Node3</title>
<g id="a_node3"><a xlink:href="../../dc/d42/classwlp_1_1hash__table.html#a46165065f33b12879cdccdf7a0dd473d" target="_top" xlink:title="wlp::hash_table::find">
<polygon fill="white" stroke="black" points="154.5,-88.5 154.5,-107.5 261.5,-107.5 261.5,-88.5 154.5,-88.5"/>
<text text-anchor="middle" x="208" y="-95.5" font-family="Helvetica,sans-Serif" font-size="10.00">wlp::hash_table::find</text>
</a>
</g>
</g>
<!-- Node1&#45;&gt;Node3 -->
<g id="edge2" class="edge"><title>Node1&#45;&gt;Node3</title>
<path fill="none" stroke="midnightblue" d="M113.906,-84.2546C123.815,-85.7177 134.193,-87.25 144.276,-88.7388"/>
<polygon fill="midnightblue" stroke="midnightblue" points="143.828,-92.2105 154.232,-90.2088 144.851,-85.2856 143.828,-92.2105"/>
</g>
<!-- Node4 -->
<g id="node4" class="node"><title>Node4</title>
<g id="a_node4"><a xlink:href="../../dc/d42/classwlp_1_1hash__table.html#aa4bf84585a9bd272943c491eb9ed058c" target="_top" xlink:title="wlp::hash_table::insert\l_unique">
<polygon fill="white" stroke="black" points="150.5,-39 150.5,-69 265.5,-69 265.5,-39 150.5,-39"/>
<text text-anchor="start" x="158.5" y="-57" font-family="Helvetica,sans-Serif" font-size="10.00">wlp::hash_table::insert</text>
<text text-anchor="middle" x="208" y="-46" font-family="Helvetica,sans-Serif" font-size="10.00">_unique</text>
</a>
</g>
</g>
<!-- Node1&#45;&gt;Node4 -->
<g id="edge3" class="edge"><title>Node1&#45;&gt;Node4</title>
<path fill="none" stroke="midnightblue" d="M113.906,-67.7454C122.546,-66.4698 131.542,-65.1415 140.388,-63.8354"/>
<polygon fill="midnightblue" stroke="midnightblue" points="140.903,-67.2973 150.284,-62.3741 139.88,-60.3724 140.903,-67.2973"/>
</g>
<!-- Node5 -->
<g id="node5" class="node"><title>Node5</title>
<g id="a_node5"><a xlink:href="../../d5/dca/namespacewlp.html#a8eaea6f842c348064997526348b90eeb" target="_top" xlink:title="wlp::make_tuple">
<polygon fill="white" stroke="black" points="164,-0.5 164,-19.5 252,-19.5 252,-0.5 164,-0.5"/>
<text text-anchor="middle" x="208" y="-7.5" font-family="Helvetica,sans-Serif" font-size="10.00">wlp::make_tuple</text>
</a>
</g>
</g>
<!-- Node1&#45;&gt;Node5 -->
<g id="edge4" class="edge"><title>Node1&#45;&gt;Node5</title>
<path fill="none" stroke="midnightblue" d="M85.7548,-60.9732C103.791,-51.4966 127.965,-39.3306 150,-30 155.63,-27.6161 161.651,-25.2807 167.595,-23.0955"/>
<polygon fill="midnightblue" stroke="midnightblue" points="169.2,-26.2386 177.439,-19.5775 166.844,-19.6469 169.2,-26.2386"/>
</g>
</g>
</svg>
