<?xml version="1.0" encoding="UTF-8" standalone="no"?>
<!DOCTYPE svg PUBLIC "-//W3C//DTD SVG 1.1//EN"
 "http://www.w3.org/Graphics/SVG/1.1/DTD/svg11.dtd">
<!-- Generated by graphviz version 2.36.0 (20140111.2315)
 -->
<!-- Title: wlp::unique_ptr::swap Pages: 1 -->
<svg width="368pt" height="28pt"
 viewBox="0.00 0.00 368.00 28.00" xmlns="http://www.w3.org/2000/svg" xmlns:xlink="http://www.w3.org/1999/xlink">
<g id="graph0" class="graph" transform="scale(1 1) rotate(0) translate(4 24)">
<title>wlp::unique_ptr::swap</title>
<polygon fill="white" stroke="none" points="-4,4 -4,-24 364,-24 364,4 -4,4"/>
<!-- Node1 -->
<g id="node1" class="node"><title>Node1</title>
<polygon fill="#bfbfbf" stroke="black" points="0,-0.5 0,-19.5 112,-19.5 112,-0.5 0,-0.5"/>
<text text-anchor="middle" x="56" y="-7.5" font-family="Helvetica,sans-Serif" font-size="10.00">wlp::unique_ptr::swap</text>
</g>
<!-- Node2 -->
<g id="node2" class="node"><title>Node2</title>
<g id="a_node2"><a xlink:href="../../d5/dca/namespacewlp.html#affc570df80dc7fb7037885105bf78c64" target="_top" xlink:title="wlp::swap">
<polygon fill="white" stroke="black" points="148.5,-0.5 148.5,-19.5 209.5,-19.5 209.5,-0.5 148.5,-0.5"/>
<text text-anchor="middle" x="179" y="-7.5" font-family="Helvetica,sans-Serif" font-size="10.00">wlp::swap</text>
</a>
</g>
</g>
<!-- Node1&#45;&gt;Node2 -->
<g id="edge1" class="edge"><title>Node1&#45;&gt;Node2</title>
<path fill="none" stroke="midnightblue" d="M112.189,-10C120.954,-10 129.869,-10 138.19,-10"/>
<polygon fill="midnightblue" stroke="midnightblue" points="138.357,-13.5001 148.357,-10 138.356,-6.5001 138.357,-13.5001"/>
</g>
<!-- Node3 -->
<g id="node3" class="node"><title>Node3</title>
<g id="a_node3"><a xlink:href="../../da/dbb/classwlp_1_1shared__ptr.html#a77b0da4c03bbc1c75404d097bb7cc7d4" target="_top" xlink:title="wlp::shared_ptr::swap">
<polygon fill="white" stroke="black" points="246.5,-0.5 246.5,-19.5 359.5,-19.5 359.5,-0.5 246.5,-0.5"/>
<text text-anchor="middle" x="303" y="-7.5" font-family="Helvetica,sans-Serif" font-size="10.00">wlp::shared_ptr::swap</text>
</a>
</g>
</g>
<!-- Node2&#45;&gt;Node3 -->
<g id="edge2" class="edge"><title>Node2&#45;&gt;Node3</title>
<path fill="none" stroke="midnightblue" d="M209.533,-10C217.715,-10 226.938,-10 236.309,-10"/>
<polygon fill="midnightblue" stroke="midnightblue" points="236.494,-13.5001 246.494,-10 236.494,-6.5001 236.494,-13.5001"/>
</g>
</g>
</svg>
