<?xml version="1.0" encoding="UTF-8" standalone="no"?>
<!DOCTYPE svg PUBLIC "-//W3C//DTD SVG 1.1//EN"
 "http://www.w3.org/Graphics/SVG/1.1/DTD/svg11.dtd">
<!-- Generated by graphviz version 2.36.0 (20140111.2315)
 -->
<!-- Title: memory/New.h Pages: 1 -->
<svg width="1295pt" height="364pt"
 viewBox="0.00 0.00 1295.00 364.00" xmlns="http://www.w3.org/2000/svg" xmlns:xlink="http://www.w3.org/1999/xlink">
<g id="graph0" class="graph" transform="scale(1 1) rotate(0) translate(4 360)">
<title>memory/New.h</title>
<polygon fill="white" stroke="none" points="-4,4 -4,-360 1291,-360 1291,4 -4,4"/>
<!-- Node1 -->
<g id="node1" class="node"><title>Node1</title>
<polygon fill="#bfbfbf" stroke="black" points="813.5,-336.5 813.5,-355.5 896.5,-355.5 896.5,-336.5 813.5,-336.5"/>
<text text-anchor="middle" x="855" y="-343.5" font-family="Helvetica,sans-Serif" font-size="10.00">memory/New.h</text>
</g>
<!-- Node2 -->
<g id="node2" class="node"><title>Node2</title>
<g id="a_node2"><a xlink:href="../../d3/de6/_memory_8h.html" target="_top" xlink:title="Memory is a class that provides dynamic fixed size memory. ">
<polygon fill="white" stroke="black" points="749,-280.5 749,-299.5 847,-299.5 847,-280.5 749,-280.5"/>
<text text-anchor="middle" x="798" y="-287.5" font-family="Helvetica,sans-Serif" font-size="10.00">memory/Memory.h</text>
</a>
</g>
</g>
<!-- Node1&#45;&gt;Node2 -->
<g id="edge1" class="edge"><title>Node1&#45;&gt;Node2</title>
<path fill="none" stroke="midnightblue" d="M838.379,-329.253C828.266,-319.673 815.723,-307.791 807.325,-299.834"/>
<polygon fill="midnightblue" stroke="midnightblue" points="836.175,-331.987 845.842,-336.324 840.99,-326.906 836.175,-331.987"/>
</g>
<!-- Node27 -->
<g id="node27" class="node"><title>Node27</title>
<g id="a_node27"><a xlink:href="../../d5/d07/_new_8cpp.html" target="_top" xlink:title="memory/New.cpp">
<polygon fill="white" stroke="black" points="865,-280.5 865,-299.5 959,-299.5 959,-280.5 865,-280.5"/>
<text text-anchor="middle" x="912" y="-287.5" font-family="Helvetica,sans-Serif" font-size="10.00">memory/New.cpp</text>
</a>
</g>
</g>
<!-- Node1&#45;&gt;Node27 -->
<g id="edge37" class="edge"><title>Node1&#45;&gt;Node27</title>
<path fill="none" stroke="midnightblue" d="M871.621,-329.253C881.734,-319.673 894.277,-307.791 902.675,-299.834"/>
<polygon fill="midnightblue" stroke="midnightblue" points="869.01,-326.906 864.158,-336.324 873.825,-331.987 869.01,-326.906"/>
</g>
<!-- Node3 -->
<g id="node3" class="node"><title>Node3</title>
<g id="a_node3"><a xlink:href="../../db/db5/_string_8h.html" target="_top" xlink:title="strings/String.h">
<polygon fill="white" stroke="black" points="394.5,-224.5 394.5,-243.5 477.5,-243.5 477.5,-224.5 394.5,-224.5"/>
<text text-anchor="middle" x="436" y="-231.5" font-family="Helvetica,sans-Serif" font-size="10.00">strings/String.h</text>
</a>
</g>
</g>
<!-- Node2&#45;&gt;Node3 -->
<g id="edge2" class="edge"><title>Node2&#45;&gt;Node3</title>
<path fill="none" stroke="midnightblue" d="M738.769,-280.164C665.232,-269.195 541.686,-250.765 477.513,-241.193"/>
<polygon fill="midnightblue" stroke="midnightblue" points="738.395,-283.647 748.802,-281.661 739.428,-276.724 738.395,-283.647"/>
</g>
<!-- Node9 -->
<g id="node9" class="node"><title>Node9</title>
<g id="a_node9"><a xlink:href="../../d5/d08/_red_black_tree_8h.html" target="_top" xlink:title="Red black tree implementation. ">
<polygon fill="white" stroke="black" points="549.5,-56.5 549.5,-75.5 650.5,-75.5 650.5,-56.5 549.5,-56.5"/>
<text text-anchor="middle" x="600" y="-63.5" font-family="Helvetica,sans-Serif" font-size="10.00">stl/RedBlackTree.h</text>
</a>
</g>
</g>
<!-- Node2&#45;&gt;Node9 -->
<g id="edge34" class="edge"><title>Node2&#45;&gt;Node9</title>
<path fill="none" stroke="midnightblue" d="M738.8,-283.527C709.736,-277.911 676.273,-266.623 654,-244 611.082,-200.408 633.342,-170.359 615,-112 611,-99.2729 606.056,-84.6332 602.964,-75.5982"/>
<polygon fill="midnightblue" stroke="midnightblue" points="738.418,-287.013 748.871,-285.286 739.622,-280.117 738.418,-287.013"/>
</g>
<!-- Node13 -->
<g id="node13" class="node"><title>Node13</title>
<g id="a_node13"><a xlink:href="../../d3/dbe/_chain_map_8h.html" target="_top" xlink:title="Hasher map implementation. ">
<polygon fill="white" stroke="black" points="416.5,-112.5 416.5,-131.5 499.5,-131.5 499.5,-112.5 416.5,-112.5"/>
<text text-anchor="middle" x="458" y="-119.5" font-family="Helvetica,sans-Serif" font-size="10.00">stl/ChainMap.h</text>
</a>
</g>
</g>
<!-- Node2&#45;&gt;Node13 -->
<g id="edge31" class="edge"><title>Node2&#45;&gt;Node13</title>
<path fill="none" stroke="midnightblue" d="M738.387,-281.43C702.708,-275.098 657.378,-263.788 621,-244 577.35,-220.256 579.231,-197.165 539,-168 518.812,-153.365 493.376,-139.955 476.449,-131.652"/>
<polygon fill="midnightblue" stroke="midnightblue" points="738.21,-284.95 748.653,-283.163 739.375,-278.047 738.21,-284.95"/>
</g>
<!-- Node16 -->
<g id="node16" class="node"><title>Node16</title>
<g id="a_node16"><a xlink:href="../../d8/d2e/_open_table_8h.html" target="_top" xlink:title="stl/OpenTable.h">
<polygon fill="white" stroke="black" points="198,-112.5 198,-131.5 284,-131.5 284,-112.5 198,-112.5"/>
<text text-anchor="middle" x="241" y="-119.5" font-family="Helvetica,sans-Serif" font-size="10.00">stl/OpenTable.h</text>
</a>
</g>
</g>
<!-- Node2&#45;&gt;Node16 -->
<g id="edge33" class="edge"><title>Node2&#45;&gt;Node16</title>
<path fill="none" stroke="midnightblue" d="M738.954,-288.712C657.723,-286.941 507.624,-278.706 385,-244 329.143,-228.191 306.743,-230.312 267,-188 251.689,-171.7 244.956,-145.252 242.38,-131.664"/>
<polygon fill="midnightblue" stroke="midnightblue" points="738.926,-292.212 748.992,-288.905 739.061,-285.213 738.926,-292.212"/>
</g>
<!-- Node20 -->
<g id="node20" class="node"><title>Node20</title>
<g id="a_node20"><a xlink:href="../../d7/d9e/_exceptions_8cpp.html" target="_top" xlink:title="Implementation of Exceptions using C style. ">
<polygon fill="white" stroke="black" points="663,-224.5 663,-243.5 797,-243.5 797,-224.5 663,-224.5"/>
<text text-anchor="middle" x="730" y="-231.5" font-family="Helvetica,sans-Serif" font-size="10.00">exceptions/Exceptions.cpp</text>
</a>
</g>
</g>
<!-- Node2&#45;&gt;Node20 -->
<g id="edge26" class="edge"><title>Node2&#45;&gt;Node20</title>
<path fill="none" stroke="midnightblue" d="M779.238,-274.101C767,-264.382 751.441,-252.027 741.124,-243.834"/>
<polygon fill="midnightblue" stroke="midnightblue" points="777.067,-276.846 787.075,-280.324 781.42,-271.364 777.067,-276.846"/>
</g>
<!-- Node21 -->
<g id="node21" class="node"><title>Node21</title>
<g id="a_node21"><a xlink:href="../../df/dcf/_state_machine_8h.html" target="_top" xlink:title="fsm/StateMachine.h">
<polygon fill="white" stroke="black" points="815,-224.5 815,-243.5 919,-243.5 919,-224.5 815,-224.5"/>
<text text-anchor="middle" x="867" y="-231.5" font-family="Helvetica,sans-Serif" font-size="10.00">fsm/StateMachine.h</text>
</a>
</g>
</g>
<!-- Node2&#45;&gt;Node21 -->
<g id="edge27" class="edge"><title>Node2&#45;&gt;Node21</title>
<path fill="none" stroke="midnightblue" d="M817.038,-274.101C829.456,-264.382 845.243,-252.027 855.712,-243.834"/>
<polygon fill="midnightblue" stroke="midnightblue" points="814.804,-271.405 809.086,-280.324 819.118,-276.917 814.804,-271.405"/>
</g>
<!-- Node22 -->
<g id="node22" class="node"><title>Node22</title>
<g id="a_node22"><a xlink:href="../../df/d64/_memory_8cpp.html" target="_top" xlink:title="Implementation of Memory functions. ">
<polygon fill="white" stroke="black" points="937.5,-224.5 937.5,-243.5 1046.5,-243.5 1046.5,-224.5 937.5,-224.5"/>
<text text-anchor="middle" x="992" y="-231.5" font-family="Helvetica,sans-Serif" font-size="10.00">memory/Memory.cpp</text>
</a>
</g>
</g>
<!-- Node2&#45;&gt;Node22 -->
<g id="edge28" class="edge"><title>Node2&#45;&gt;Node22</title>
<path fill="none" stroke="midnightblue" d="M838.601,-277.699C875.215,-267.507 928.257,-252.743 961.404,-243.516"/>
<polygon fill="midnightblue" stroke="midnightblue" points="837.435,-274.39 828.74,-280.444 839.312,-281.134 837.435,-274.39"/>
</g>
<!-- Node23 -->
<g id="node23" class="node"><title>Node23</title>
<g id="a_node23"><a xlink:href="../../d2/db9/_array_list_8h.html" target="_top" xlink:title="List implementation using an array. ">
<polygon fill="white" stroke="black" points="945.5,-112.5 945.5,-131.5 1022.5,-131.5 1022.5,-112.5 945.5,-112.5"/>
<text text-anchor="middle" x="984" y="-119.5" font-family="Helvetica,sans-Serif" font-size="10.00">stl/ArrayList.h</text>
</a>
</g>
</g>
<!-- Node2&#45;&gt;Node23 -->
<g id="edge29" class="edge"><title>Node2&#45;&gt;Node23</title>
<path fill="none" stroke="midnightblue" d="M857.313,-279.577C932.213,-267.54 1051.8,-247.804 1055,-244 1086.8,-206.143 1023.52,-152.24 995.959,-131.544"/>
<polygon fill="midnightblue" stroke="midnightblue" points="856.377,-276.182 847.057,-281.222 857.485,-283.094 856.377,-276.182"/>
</g>
<!-- Node24 -->
<g id="node24" class="node"><title>Node24</title>
<g id="a_node24"><a xlink:href="../../de/dc6/_linked_list_8h.html" target="_top" xlink:title="stl/LinkedList.h">
<polygon fill="white" stroke="black" points="1103.5,-224.5 1103.5,-243.5 1186.5,-243.5 1186.5,-224.5 1103.5,-224.5"/>
<text text-anchor="middle" x="1145" y="-231.5" font-family="Helvetica,sans-Serif" font-size="10.00">stl/LinkedList.h</text>
</a>
</g>
</g>
<!-- Node2&#45;&gt;Node24 -->
<g id="edge32" class="edge"><title>Node2&#45;&gt;Node24</title>
<path fill="none" stroke="midnightblue" d="M857.031,-279.842C961.192,-263.734 988.627,-259.82 1089,-244 1093.67,-243.264 1098.56,-242.488 1103.41,-241.712"/>
<polygon fill="midnightblue" stroke="midnightblue" points="856.394,-276.399 847.047,-281.387 857.465,-283.316 856.394,-276.399"/>
</g>
<!-- Node25 -->
<g id="node25" class="node"><title>Node25</title>
<g id="a_node25"><a xlink:href="../../d8/df6/_unique_ptr_8h.html" target="_top" xlink:title="Unique pointer implementation. ">
<polygon fill="white" stroke="black" points="1205,-224.5 1205,-243.5 1287,-243.5 1287,-224.5 1205,-224.5"/>
<text text-anchor="middle" x="1246" y="-231.5" font-family="Helvetica,sans-Serif" font-size="10.00">stl/UniquePtr.h</text>
</a>
</g>
</g>
<!-- Node2&#45;&gt;Node25 -->
<g id="edge35" class="edge"><title>Node2&#45;&gt;Node25</title>
<path fill="none" stroke="midnightblue" d="M857.121,-279.915C1007.95,-260.572 1048.2,-264.723 1195,-244 1198.2,-243.548 1201.52,-243.044 1204.84,-242.514"/>
<polygon fill="midnightblue" stroke="midnightblue" points="856.491,-276.467 847.024,-281.223 857.391,-283.409 856.491,-276.467"/>
</g>
<!-- Node4 -->
<g id="node4" class="node"><title>Node4</title>
<g id="a_node4"><a xlink:href="../../de/d6d/_bitset_8h.html" target="_top" xlink:title="Bitset is a class that provides bits manipulation methods. ">
<polygon fill="white" stroke="black" points="95,-168.5 95,-187.5 159,-187.5 159,-168.5 95,-168.5"/>
<text text-anchor="middle" x="127" y="-175.5" font-family="Helvetica,sans-Serif" font-size="10.00">stl/Bitset.h</text>
</a>
</g>
</g>
<!-- Node3&#45;&gt;Node4 -->
<g id="edge3" class="edge"><title>Node3&#45;&gt;Node4</title>
<path fill="none" stroke="midnightblue" d="M384.412,-223.985C320.218,-212.766 212.55,-193.951 159.106,-184.611"/>
<polygon fill="midnightblue" stroke="midnightblue" points="383.874,-227.444 394.327,-225.717 385.079,-220.548 383.874,-227.444"/>
</g>
<!-- Node7 -->
<g id="node7" class="node"><title>Node7</title>
<g id="a_node7"><a xlink:href="../../d7/d0c/_comparator_8h.html" target="_top" xlink:title="Comparator implementation for basic types. ">
<polygon fill="white" stroke="black" points="517.5,-112.5 517.5,-131.5 606.5,-131.5 606.5,-112.5 517.5,-112.5"/>
<text text-anchor="middle" x="562" y="-119.5" font-family="Helvetica,sans-Serif" font-size="10.00">stl/Comparator.h</text>
</a>
</g>
</g>
<!-- Node3&#45;&gt;Node7 -->
<g id="edge6" class="edge"><title>Node3&#45;&gt;Node7</title>
<path fill="none" stroke="midnightblue" d="M483.611,-221.264C503.002,-214.381 524.272,-203.825 539,-188 554.005,-171.877 559.322,-145.352 561.126,-131.707"/>
<polygon fill="midnightblue" stroke="midnightblue" points="482.38,-217.985 473.983,-224.446 484.577,-224.631 482.38,-217.985"/>
</g>
<!-- Node12 -->
<g id="node12" class="node"><title>Node12</title>
<g id="a_node12"><a xlink:href="../../d2/dc2/_equal_8h.html" target="_top" xlink:title="stl/Equal.h">
<polygon fill="white" stroke="black" points="356.5,-168.5 356.5,-187.5 419.5,-187.5 419.5,-168.5 356.5,-168.5"/>
<text text-anchor="middle" x="388" y="-175.5" font-family="Helvetica,sans-Serif" font-size="10.00">stl/Equal.h</text>
</a>
</g>
</g>
<!-- Node3&#45;&gt;Node12 -->
<g id="edge11" class="edge"><title>Node3&#45;&gt;Node12</title>
<path fill="none" stroke="midnightblue" d="M421.272,-216.431C412.86,-206.967 402.651,-195.483 395.779,-187.751"/>
<polygon fill="midnightblue" stroke="midnightblue" points="418.814,-218.934 428.074,-224.083 424.046,-214.284 418.814,-218.934"/>
</g>
<!-- Node18 -->
<g id="node18" class="node"><title>Node18</title>
<g id="a_node18"><a xlink:href="../../d2/dad/_hash_8h.html" target="_top" xlink:title="stl/Hash.h">
<polygon fill="white" stroke="black" points="276,-168.5 276,-187.5 338,-187.5 338,-168.5 276,-168.5"/>
<text text-anchor="middle" x="307" y="-175.5" font-family="Helvetica,sans-Serif" font-size="10.00">stl/Hash.h</text>
</a>
</g>
</g>
<!-- Node3&#45;&gt;Node18 -->
<g id="edge20" class="edge"><title>Node3&#45;&gt;Node18</title>
<path fill="none" stroke="midnightblue" d="M406.146,-220.503C381.962,-210.38 348.538,-196.388 327.345,-187.516"/>
<polygon fill="midnightblue" stroke="midnightblue" points="404.984,-223.811 415.56,-224.444 407.687,-217.354 404.984,-223.811"/>
</g>
<!-- Node19 -->
<g id="node19" class="node"><title>Node19</title>
<g id="a_node19"><a xlink:href="../../d9/dae/_string_8cpp.html" target="_top" xlink:title="strings/String.cpp">
<polygon fill="white" stroke="black" points="437.5,-168.5 437.5,-187.5 530.5,-187.5 530.5,-168.5 437.5,-168.5"/>
<text text-anchor="middle" x="484" y="-175.5" font-family="Helvetica,sans-Serif" font-size="10.00">strings/String.cpp</text>
</a>
</g>
</g>
<!-- Node3&#45;&gt;Node19 -->
<g id="edge25" class="edge"><title>Node3&#45;&gt;Node19</title>
<path fill="none" stroke="midnightblue" d="M450.728,-216.431C459.14,-206.967 469.349,-195.483 476.221,-187.751"/>
<polygon fill="midnightblue" stroke="midnightblue" points="447.954,-214.284 443.926,-224.083 453.186,-218.934 447.954,-214.284"/>
</g>
<!-- Node5 -->
<g id="node5" class="node"><title>Node5</title>
<g id="a_node5"><a xlink:href="../../de/d66/_packet_constructor_8h.html" target="_top" xlink:title="comm/PacketConstructor.h">
<polygon fill="white" stroke="black" points="4.5,-112.5 4.5,-131.5 141.5,-131.5 141.5,-112.5 4.5,-112.5"/>
<text text-anchor="middle" x="73" y="-119.5" font-family="Helvetica,sans-Serif" font-size="10.00">comm/PacketConstructor.h</text>
</a>
</g>
</g>
<!-- Node4&#45;&gt;Node5 -->
<g id="edge4" class="edge"><title>Node4&#45;&gt;Node5</title>
<path fill="none" stroke="midnightblue" d="M111.002,-161.002C101.433,-151.433 89.6389,-139.639 81.7511,-131.751"/>
<polygon fill="midnightblue" stroke="midnightblue" points="108.537,-163.487 118.083,-168.083 113.487,-158.537 108.537,-163.487"/>
</g>
<!-- Node6 -->
<g id="node6" class="node"><title>Node6</title>
<g id="a_node6"><a xlink:href="../../d9/dde/_packet_constructor_8cpp.html" target="_top" xlink:title="Creates a packet for sending data from the slave systems to the main computer. ">
<polygon fill="white" stroke="black" points="-0.5,-56.5 -0.5,-75.5 146.5,-75.5 146.5,-56.5 -0.5,-56.5"/>
<text text-anchor="middle" x="73" y="-63.5" font-family="Helvetica,sans-Serif" font-size="10.00">comm/PacketConstructor.cpp</text>
</a>
</g>
</g>
<!-- Node5&#45;&gt;Node6 -->
<g id="edge5" class="edge"><title>Node5&#45;&gt;Node6</title>
<path fill="none" stroke="midnightblue" d="M73,-101.805C73,-92.9102 73,-82.7798 73,-75.7511"/>
<polygon fill="midnightblue" stroke="midnightblue" points="69.5001,-102.083 73,-112.083 76.5001,-102.083 69.5001,-102.083"/>
</g>
<!-- Node8 -->
<g id="node8" class="node"><title>Node8</title>
<g id="a_node8"><a xlink:href="../../df/d03/_array_heap_8h.html" target="_top" xlink:title="Heap manipulation and implementation. ">
<polygon fill="white" stroke="black" points="850.5,-56.5 850.5,-75.5 935.5,-75.5 935.5,-56.5 850.5,-56.5"/>
<text text-anchor="middle" x="893" y="-63.5" font-family="Helvetica,sans-Serif" font-size="10.00">stl/ArrayHeap.h</text>
</a>
</g>
</g>
<!-- Node7&#45;&gt;Node8 -->
<g id="edge7" class="edge"><title>Node7&#45;&gt;Node8</title>
<path fill="none" stroke="midnightblue" d="M616.781,-112.063C682.344,-101.367 790.732,-83.6842 850.375,-73.954"/>
<polygon fill="midnightblue" stroke="midnightblue" points="615.946,-108.653 606.64,-113.717 617.073,-115.561 615.946,-108.653"/>
</g>
<!-- Node7&#45;&gt;Node9 -->
<g id="edge8" class="edge"><title>Node7&#45;&gt;Node9</title>
<path fill="none" stroke="midnightblue" d="M574.065,-103.855C580.645,-94.5048 588.511,-83.3265 593.842,-75.7511"/>
<polygon fill="midnightblue" stroke="midnightblue" points="571.168,-101.891 568.275,-112.083 576.892,-105.919 571.168,-101.891"/>
</g>
<!-- Node10 -->
<g id="node10" class="node"><title>Node10</title>
<g id="a_node10"><a xlink:href="../../df/d87/_tree_map_8h.html" target="_top" xlink:title="Map implementation using red black tree. ">
<polygon fill="white" stroke="black" points="515.5,-0.5 515.5,-19.5 592.5,-19.5 592.5,-0.5 515.5,-0.5"/>
<text text-anchor="middle" x="554" y="-7.5" font-family="Helvetica,sans-Serif" font-size="10.00">stl/TreeMap.h</text>
</a>
</g>
</g>
<!-- Node9&#45;&gt;Node10 -->
<g id="edge9" class="edge"><title>Node9&#45;&gt;Node10</title>
<path fill="none" stroke="midnightblue" d="M585.886,-48.4314C577.824,-38.9673 568.041,-27.4827 561.455,-19.7511"/>
<polygon fill="midnightblue" stroke="midnightblue" points="583.255,-50.7402 592.404,-56.083 588.584,-46.2009 583.255,-50.7402"/>
</g>
<!-- Node11 -->
<g id="node11" class="node"><title>Node11</title>
<g id="a_node11"><a xlink:href="../../dd/dba/_tree_set_8h.html" target="_top" xlink:title="Set implementation using red black tree. ">
<polygon fill="white" stroke="black" points="610.5,-0.5 610.5,-19.5 683.5,-19.5 683.5,-0.5 610.5,-0.5"/>
<text text-anchor="middle" x="647" y="-7.5" font-family="Helvetica,sans-Serif" font-size="10.00">stl/TreeSet.h</text>
</a>
</g>
</g>
<!-- Node9&#45;&gt;Node11 -->
<g id="edge10" class="edge"><title>Node9&#45;&gt;Node11</title>
<path fill="none" stroke="midnightblue" d="M614.421,-48.4314C622.658,-38.9673 632.654,-27.4827 639.383,-19.7511"/>
<polygon fill="midnightblue" stroke="midnightblue" points="611.686,-46.2421 607.761,-56.083 616.966,-50.8378 611.686,-46.2421"/>
</g>
<!-- Node12&#45;&gt;Node7 -->
<g id="edge12" class="edge"><title>Node12&#45;&gt;Node7</title>
<path fill="none" stroke="midnightblue" d="M425.261,-165.436C458.067,-155.255 505.083,-140.664 534.558,-131.516"/>
<polygon fill="midnightblue" stroke="midnightblue" points="424.084,-162.137 415.571,-168.444 426.159,-168.822 424.084,-162.137"/>
</g>
<!-- Node12&#45;&gt;Node13 -->
<g id="edge13" class="edge"><title>Node12&#45;&gt;Node13</title>
<path fill="none" stroke="midnightblue" d="M407.314,-162.101C419.912,-152.382 435.928,-140.027 446.549,-131.834"/>
<polygon fill="midnightblue" stroke="midnightblue" points="405.027,-159.445 399.247,-168.324 409.302,-164.987 405.027,-159.445"/>
</g>
<!-- Node15 -->
<g id="node15" class="node"><title>Node15</title>
<g id="a_node15"><a xlink:href="../../d5/d7a/_open_map_8h.html" target="_top" xlink:title="Hash map implementation. ">
<polygon fill="white" stroke="black" points="310,-56.5 310,-75.5 390,-75.5 390,-56.5 310,-56.5"/>
<text text-anchor="middle" x="350" y="-63.5" font-family="Helvetica,sans-Serif" font-size="10.00">stl/OpenMap.h</text>
</a>
</g>
</g>
<!-- Node12&#45;&gt;Node15 -->
<g id="edge15" class="edge"><title>Node12&#45;&gt;Node15</title>
<path fill="none" stroke="midnightblue" d="M381.669,-158.674C373.361,-134.625 359.116,-93.3881 352.968,-75.5914"/>
<polygon fill="midnightblue" stroke="midnightblue" points="378.445,-160.059 385.018,-168.368 385.061,-157.774 378.445,-160.059"/>
</g>
<!-- Node12&#45;&gt;Node16 -->
<g id="edge16" class="edge"><title>Node12&#45;&gt;Node16</title>
<path fill="none" stroke="midnightblue" d="M355.077,-164.906C327.44,-154.754 288.656,-140.506 264.184,-131.516"/>
<polygon fill="midnightblue" stroke="midnightblue" points="354.114,-168.281 364.707,-168.444 356.528,-161.71 354.114,-168.281"/>
</g>
<!-- Node17 -->
<g id="node17" class="node"><title>Node17</title>
<g id="a_node17"><a xlink:href="../../d0/de6/_open_set_8h.html" target="_top" xlink:title="Hash set implementation. ">
<polygon fill="white" stroke="black" points="202.5,-56.5 202.5,-75.5 279.5,-75.5 279.5,-56.5 202.5,-56.5"/>
<text text-anchor="middle" x="241" y="-63.5" font-family="Helvetica,sans-Serif" font-size="10.00">stl/OpenSet.h</text>
</a>
</g>
</g>
<!-- Node12&#45;&gt;Node17 -->
<g id="edge19" class="edge"><title>Node12&#45;&gt;Node17</title>
<path fill="none" stroke="midnightblue" d="M368.112,-162.118C336.909,-138.769 277.443,-94.2699 252.481,-75.5914"/>
<polygon fill="midnightblue" stroke="midnightblue" points="366.362,-165.179 376.465,-168.368 370.556,-159.575 366.362,-165.179"/>
</g>
<!-- Node14 -->
<g id="node14" class="node"><title>Node14</title>
<g id="a_node14"><a xlink:href="../../d6/d59/_chain_set_8h.html" target="_top" xlink:title="Hash set implementation. ">
<polygon fill="white" stroke="black" points="418.5,-56.5 418.5,-75.5 497.5,-75.5 497.5,-56.5 418.5,-56.5"/>
<text text-anchor="middle" x="458" y="-63.5" font-family="Helvetica,sans-Serif" font-size="10.00">stl/ChainSet.h</text>
</a>
</g>
</g>
<!-- Node13&#45;&gt;Node14 -->
<g id="edge14" class="edge"><title>Node13&#45;&gt;Node14</title>
<path fill="none" stroke="midnightblue" d="M458,-101.805C458,-92.9102 458,-82.7798 458,-75.7511"/>
<polygon fill="midnightblue" stroke="midnightblue" points="454.5,-102.083 458,-112.083 461.5,-102.083 454.5,-102.083"/>
</g>
<!-- Node16&#45;&gt;Node15 -->
<g id="edge17" class="edge"><title>Node16&#45;&gt;Node15</title>
<path fill="none" stroke="midnightblue" d="M267.519,-107.862C287.73,-97.8492 314.987,-84.3458 332.531,-75.6545"/>
<polygon fill="midnightblue" stroke="midnightblue" points="265.92,-104.748 258.513,-112.324 269.027,-111.021 265.92,-104.748"/>
</g>
<!-- Node16&#45;&gt;Node17 -->
<g id="edge18" class="edge"><title>Node16&#45;&gt;Node17</title>
<path fill="none" stroke="midnightblue" d="M241,-101.805C241,-92.9102 241,-82.7798 241,-75.7511"/>
<polygon fill="midnightblue" stroke="midnightblue" points="237.5,-102.083 241,-112.083 244.5,-102.083 237.5,-102.083"/>
</g>
<!-- Node18&#45;&gt;Node13 -->
<g id="edge21" class="edge"><title>Node18&#45;&gt;Node13</title>
<path fill="none" stroke="midnightblue" d="M340.446,-165.039C368.858,-154.879 408.937,-140.546 434.186,-131.516"/>
<polygon fill="midnightblue" stroke="midnightblue" points="339.164,-161.781 330.926,-168.444 341.521,-168.372 339.164,-161.781"/>
</g>
<!-- Node18&#45;&gt;Node15 -->
<g id="edge22" class="edge"><title>Node18&#45;&gt;Node15</title>
<path fill="none" stroke="midnightblue" d="M314.037,-158.998C323.419,-134.997 339.653,-93.4683 346.642,-75.5914"/>
<polygon fill="midnightblue" stroke="midnightblue" points="310.755,-157.78 310.374,-168.368 317.275,-160.329 310.755,-157.78"/>
</g>
<!-- Node18&#45;&gt;Node16 -->
<g id="edge23" class="edge"><title>Node18&#45;&gt;Node16</title>
<path fill="none" stroke="midnightblue" d="M288.446,-161.82C276.622,-152.145 261.714,-139.948 251.797,-131.834"/>
<polygon fill="midnightblue" stroke="midnightblue" points="286.44,-164.7 296.396,-168.324 290.873,-159.283 286.44,-164.7"/>
</g>
<!-- Node18&#45;&gt;Node17 -->
<g id="edge24" class="edge"><title>Node18&#45;&gt;Node17</title>
<path fill="none" stroke="midnightblue" d="M266.031,-173.048C239.27,-168.099 206.206,-156.976 189,-132 174.407,-110.816 205.247,-87.6664 225.395,-75.5259"/>
<polygon fill="midnightblue" stroke="midnightblue" points="265.501,-176.508 275.933,-174.659 266.625,-169.599 265.501,-176.508"/>
</g>
<!-- Node23&#45;&gt;Node8 -->
<g id="edge30" class="edge"><title>Node23&#45;&gt;Node8</title>
<path fill="none" stroke="midnightblue" d="M960.706,-107.177C943.961,-97.2407 921.9,-84.1492 907.584,-75.6545"/>
<polygon fill="midnightblue" stroke="midnightblue" points="958.993,-110.231 969.379,-112.324 962.566,-104.211 958.993,-110.231"/>
</g>
<!-- Node26 -->
<g id="node26" class="node"><title>Node26</title>
<g id="a_node26"><a xlink:href="../../d1/d13/_shared_ptr_8h.html" target="_top" xlink:title="Shared pointer implementation. ">
<polygon fill="white" stroke="black" points="1205,-168.5 1205,-187.5 1287,-187.5 1287,-168.5 1205,-168.5"/>
<text text-anchor="middle" x="1246" y="-175.5" font-family="Helvetica,sans-Serif" font-size="10.00">stl/SharedPtr.h</text>
</a>
</g>
</g>
<!-- Node25&#45;&gt;Node26 -->
<g id="edge36" class="edge"><title>Node25&#45;&gt;Node26</title>
<path fill="none" stroke="midnightblue" d="M1246,-213.805C1246,-204.91 1246,-194.78 1246,-187.751"/>
<polygon fill="midnightblue" stroke="midnightblue" points="1242.5,-214.083 1246,-224.083 1249.5,-214.083 1242.5,-214.083"/>
</g>
</g>
</svg>
