<?xml version="1.0" encoding="UTF-8" standalone="no"?>
<!DOCTYPE svg PUBLIC "-//W3C//DTD SVG 1.1//EN"
 "http://www.w3.org/Graphics/SVG/1.1/DTD/svg11.dtd">
<!-- Generated by graphviz version 2.36.0 (20140111.2315)
 -->
<!-- Title: memory/New.h Pages: 1 -->
<svg width="1173pt" height="364pt"
 viewBox="0.00 0.00 1173.00 364.00" xmlns="http://www.w3.org/2000/svg" xmlns:xlink="http://www.w3.org/1999/xlink">
<g id="graph0" class="graph" transform="scale(1 1) rotate(0) translate(4 360)">
<title>memory/New.h</title>
<polygon fill="white" stroke="none" points="-4,4 -4,-360 1169,-360 1169,4 -4,4"/>
<!-- Node1 -->
<g id="node1" class="node"><title>Node1</title>
<polygon fill="#bfbfbf" stroke="black" points="557.5,-336.5 557.5,-355.5 640.5,-355.5 640.5,-336.5 557.5,-336.5"/>
<text text-anchor="middle" x="599" y="-343.5" font-family="Helvetica,sans-Serif" font-size="10.00">memory/New.h</text>
</g>
<!-- Node2 -->
<g id="node2" class="node"><title>Node2</title>
<g id="a_node2"><a xlink:href="../../d3/de6/_memory_8h.html" target="_top" xlink:title="Memory is a class that provides dynamic fixed size memory. ">
<polygon fill="white" stroke="black" points="550,-280.5 550,-299.5 648,-299.5 648,-280.5 550,-280.5"/>
<text text-anchor="middle" x="599" y="-287.5" font-family="Helvetica,sans-Serif" font-size="10.00">memory/Memory.h</text>
</a>
</g>
</g>
<!-- Node1&#45;&gt;Node2 -->
<g id="edge1" class="edge"><title>Node1&#45;&gt;Node2</title>
<path fill="none" stroke="midnightblue" d="M599,-325.805C599,-316.91 599,-306.78 599,-299.751"/>
<polygon fill="midnightblue" stroke="midnightblue" points="595.5,-326.083 599,-336.083 602.5,-326.083 595.5,-326.083"/>
</g>
<!-- Node3 -->
<g id="node3" class="node"><title>Node3</title>
<g id="a_node3"><a xlink:href="../../db/db5/_string_8h.html" target="_top" xlink:title="strings/String.h">
<polygon fill="white" stroke="black" points="326.5,-224.5 326.5,-243.5 409.5,-243.5 409.5,-224.5 326.5,-224.5"/>
<text text-anchor="middle" x="368" y="-231.5" font-family="Helvetica,sans-Serif" font-size="10.00">strings/String.h</text>
</a>
</g>
</g>
<!-- Node2&#45;&gt;Node3 -->
<g id="edge2" class="edge"><title>Node2&#45;&gt;Node3</title>
<path fill="none" stroke="midnightblue" d="M552.598,-278.153C508.953,-267.95 444.49,-252.881 404.431,-243.516"/>
<polygon fill="midnightblue" stroke="midnightblue" points="551.863,-281.575 562.397,-280.444 553.457,-274.759 551.863,-281.575"/>
</g>
<!-- Node9 -->
<g id="node9" class="node"><title>Node9</title>
<g id="a_node9"><a xlink:href="../../d5/d08/_red_black_tree_8h.html" target="_top" xlink:title="Red black tree implementation. ">
<polygon fill="white" stroke="black" points="112.5,-56.5 112.5,-75.5 213.5,-75.5 213.5,-56.5 112.5,-56.5"/>
<text text-anchor="middle" x="163" y="-63.5" font-family="Helvetica,sans-Serif" font-size="10.00">stl/RedBlackTree.h</text>
</a>
</g>
</g>
<!-- Node2&#45;&gt;Node9 -->
<g id="edge31" class="edge"><title>Node2&#45;&gt;Node9</title>
<path fill="none" stroke="midnightblue" d="M539.776,-289.271C450.708,-286.796 280.72,-270.56 168,-188 136.512,-164.937 110.359,-148.569 124,-112 129.564,-97.0832 142.547,-83.8287 152.01,-75.6346"/>
<polygon fill="midnightblue" stroke="midnightblue" points="539.889,-292.775 549.967,-289.504 540.049,-285.776 539.889,-292.775"/>
</g>
<!-- Node13 -->
<g id="node13" class="node"><title>Node13</title>
<g id="a_node13"><a xlink:href="../../d3/dbe/_chain_map_8h.html" target="_top" xlink:title="Hasher map implementation. ">
<polygon fill="white" stroke="black" points="570.5,-112.5 570.5,-131.5 653.5,-131.5 653.5,-112.5 570.5,-112.5"/>
<text text-anchor="middle" x="612" y="-119.5" font-family="Helvetica,sans-Serif" font-size="10.00">stl/ChainMap.h</text>
</a>
</g>
</g>
<!-- Node2&#45;&gt;Node13 -->
<g id="edge28" class="edge"><title>Node2&#45;&gt;Node13</title>
<path fill="none" stroke="midnightblue" d="M585.49,-272.301C579.832,-264.253 573.902,-254.156 571,-244 568.558,-235.453 569.297,-232.724 571,-224 578.035,-187.967 597.953,-148.544 607.188,-131.562"/>
<polygon fill="midnightblue" stroke="midnightblue" points="582.781,-274.521 591.588,-280.411 588.376,-270.315 582.781,-274.521"/>
</g>
<!-- Node15 -->
<g id="node15" class="node"><title>Node15</title>
<g id="a_node15"><a xlink:href="../../d5/d7a/_open_map_8h.html" target="_top" xlink:title="Hash map implementation. ">
<polygon fill="white" stroke="black" points="434,-112.5 434,-131.5 514,-131.5 514,-112.5 434,-112.5"/>
<text text-anchor="middle" x="474" y="-119.5" font-family="Helvetica,sans-Serif" font-size="10.00">stl/OpenMap.h</text>
</a>
</g>
</g>
<!-- Node2&#45;&gt;Node15 -->
<g id="edge30" class="edge"><title>Node2&#45;&gt;Node15</title>
<path fill="none" stroke="midnightblue" d="M578.049,-274.435C554.071,-256.698 515.254,-224.545 493,-188 481.871,-169.724 476.963,-144.581 475.055,-131.572"/>
<polygon fill="midnightblue" stroke="midnightblue" points="576,-277.272 586.153,-280.299 580.103,-271.601 576,-277.272"/>
</g>
<!-- Node19 -->
<g id="node19" class="node"><title>Node19</title>
<g id="a_node19"><a xlink:href="../../d7/d9e/_exceptions_8cpp.html" target="_top" xlink:title="Implementation of Exceptions using C style. ">
<polygon fill="white" stroke="black" points="580,-224.5 580,-243.5 714,-243.5 714,-224.5 580,-224.5"/>
<text text-anchor="middle" x="647" y="-231.5" font-family="Helvetica,sans-Serif" font-size="10.00">exceptions/Exceptions.cpp</text>
</a>
</g>
</g>
<!-- Node2&#45;&gt;Node19 -->
<g id="edge23" class="edge"><title>Node2&#45;&gt;Node19</title>
<path fill="none" stroke="midnightblue" d="M613.728,-272.431C622.14,-262.967 632.349,-251.483 639.221,-243.751"/>
<polygon fill="midnightblue" stroke="midnightblue" points="610.954,-270.284 606.926,-280.083 616.186,-274.934 610.954,-270.284"/>
</g>
<!-- Node20 -->
<g id="node20" class="node"><title>Node20</title>
<g id="a_node20"><a xlink:href="../../df/dcf/_state_machine_8h.html" target="_top" xlink:title="fsm/StateMachine.h">
<polygon fill="white" stroke="black" points="732,-224.5 732,-243.5 836,-243.5 836,-224.5 732,-224.5"/>
<text text-anchor="middle" x="784" y="-231.5" font-family="Helvetica,sans-Serif" font-size="10.00">fsm/StateMachine.h</text>
</a>
</g>
</g>
<!-- Node2&#45;&gt;Node20 -->
<g id="edge24" class="edge"><title>Node2&#45;&gt;Node20</title>
<path fill="none" stroke="midnightblue" d="M638.166,-277.568C673.065,-267.381 723.349,-252.703 754.823,-243.516"/>
<polygon fill="midnightblue" stroke="midnightblue" points="636.933,-274.282 628.314,-280.444 638.894,-281.001 636.933,-274.282"/>
</g>
<!-- Node21 -->
<g id="node21" class="node"><title>Node21</title>
<g id="a_node21"><a xlink:href="../../df/d64/_memory_8cpp.html" target="_top" xlink:title="Implementation of Memory functions. ">
<polygon fill="white" stroke="black" points="854.5,-224.5 854.5,-243.5 963.5,-243.5 963.5,-224.5 854.5,-224.5"/>
<text text-anchor="middle" x="909" y="-231.5" font-family="Helvetica,sans-Serif" font-size="10.00">memory/Memory.cpp</text>
</a>
</g>
</g>
<!-- Node2&#45;&gt;Node21 -->
<g id="edge25" class="edge"><title>Node2&#45;&gt;Node21</title>
<path fill="none" stroke="midnightblue" d="M658.335,-278.664C716.92,-268.459 805.445,-253.039 860.109,-243.516"/>
<polygon fill="midnightblue" stroke="midnightblue" points="657.371,-275.279 648.12,-280.444 658.573,-282.175 657.371,-275.279"/>
</g>
<!-- Node22 -->
<g id="node22" class="node"><title>Node22</title>
<g id="a_node22"><a xlink:href="../../d2/db9/_array_list_8h.html" target="_top" xlink:title="List implementation using an array. ">
<polygon fill="white" stroke="black" points="-0.5,-112.5 -0.5,-131.5 76.5,-131.5 76.5,-112.5 -0.5,-112.5"/>
<text text-anchor="middle" x="38" y="-119.5" font-family="Helvetica,sans-Serif" font-size="10.00">stl/ArrayList.h</text>
</a>
</g>
</g>
<!-- Node2&#45;&gt;Node22 -->
<g id="edge26" class="edge"><title>Node2&#45;&gt;Node22</title>
<path fill="none" stroke="midnightblue" d="M539.343,-287.101C412.928,-282.596 126.709,-269.663 91,-244 52.45,-216.295 41.5899,-154.281 38.8449,-131.557"/>
<polygon fill="midnightblue" stroke="midnightblue" points="539.5,-290.609 549.617,-287.461 539.746,-283.613 539.5,-290.609"/>
</g>
<!-- Node23 -->
<g id="node23" class="node"><title>Node23</title>
<g id="a_node23"><a xlink:href="../../de/dc6/_linked_list_8h.html" target="_top" xlink:title="stl/LinkedList.h">
<polygon fill="white" stroke="black" points="981.5,-224.5 981.5,-243.5 1064.5,-243.5 1064.5,-224.5 981.5,-224.5"/>
<text text-anchor="middle" x="1023" y="-231.5" font-family="Helvetica,sans-Serif" font-size="10.00">stl/LinkedList.h</text>
</a>
</g>
</g>
<!-- Node2&#45;&gt;Node23 -->
<g id="edge29" class="edge"><title>Node2&#45;&gt;Node23</title>
<path fill="none" stroke="midnightblue" d="M658.312,-282.855C732.01,-274.988 861.544,-260.397 972,-244 975.024,-243.551 978.144,-243.063 981.282,-242.553"/>
<polygon fill="midnightblue" stroke="midnightblue" points="657.865,-279.383 648.291,-283.92 658.605,-286.344 657.865,-279.383"/>
</g>
<!-- Node24 -->
<g id="node24" class="node"><title>Node24</title>
<g id="a_node24"><a xlink:href="../../d8/df6/_unique_ptr_8h.html" target="_top" xlink:title="Unique pointer implementation. ">
<polygon fill="white" stroke="black" points="1083,-224.5 1083,-243.5 1165,-243.5 1165,-224.5 1083,-224.5"/>
<text text-anchor="middle" x="1124" y="-231.5" font-family="Helvetica,sans-Serif" font-size="10.00">stl/UniquePtr.h</text>
</a>
</g>
</g>
<!-- Node2&#45;&gt;Node24 -->
<g id="edge32" class="edge"><title>Node2&#45;&gt;Node24</title>
<path fill="none" stroke="midnightblue" d="M658.284,-284.903C748.198,-278.344 924.323,-264.143 1073,-244 1076.21,-243.565 1079.52,-243.075 1082.85,-242.553"/>
<polygon fill="midnightblue" stroke="midnightblue" points="658,-281.414 648.279,-285.627 658.506,-288.396 658,-281.414"/>
</g>
<!-- Node4 -->
<g id="node4" class="node"><title>Node4</title>
<g id="a_node4"><a xlink:href="../../de/d6d/_bitset_8h.html" target="_top" xlink:title="Bitset is a class that provides bits manipulation methods. ">
<polygon fill="white" stroke="black" points="300,-168.5 300,-187.5 364,-187.5 364,-168.5 300,-168.5"/>
<text text-anchor="middle" x="332" y="-175.5" font-family="Helvetica,sans-Serif" font-size="10.00">stl/Bitset.h</text>
</a>
</g>
</g>
<!-- Node3&#45;&gt;Node4 -->
<g id="edge3" class="edge"><title>Node3&#45;&gt;Node4</title>
<path fill="none" stroke="midnightblue" d="M356.377,-215.566C350.183,-206.275 342.832,-195.248 337.834,-187.751"/>
<polygon fill="midnightblue" stroke="midnightblue" points="353.596,-217.704 362.055,-224.083 359.42,-213.821 353.596,-217.704"/>
</g>
<!-- Node7 -->
<g id="node7" class="node"><title>Node7</title>
<g id="a_node7"><a xlink:href="../../d7/d0c/_comparator_8h.html" target="_top" xlink:title="Comparator implementation for basic types. ">
<polygon fill="white" stroke="black" points="133.5,-112.5 133.5,-131.5 222.5,-131.5 222.5,-112.5 133.5,-112.5"/>
<text text-anchor="middle" x="178" y="-119.5" font-family="Helvetica,sans-Serif" font-size="10.00">stl/Comparator.h</text>
</a>
</g>
</g>
<!-- Node3&#45;&gt;Node7 -->
<g id="edge6" class="edge"><title>Node3&#45;&gt;Node7</title>
<path fill="none" stroke="midnightblue" d="M316.176,-227.747C266.291,-221.503 195.984,-209.166 179,-188 166.003,-171.803 171.173,-145.31 175.109,-131.689"/>
<polygon fill="midnightblue" stroke="midnightblue" points="315.824,-231.23 326.171,-228.952 316.662,-224.281 315.824,-231.23"/>
</g>
<!-- Node12 -->
<g id="node12" class="node"><title>Node12</title>
<g id="a_node12"><a xlink:href="../../d2/dc2/_equal_8h.html" target="_top" xlink:title="stl/Equal.h">
<polygon fill="white" stroke="black" points="382.5,-168.5 382.5,-187.5 445.5,-187.5 445.5,-168.5 382.5,-168.5"/>
<text text-anchor="middle" x="414" y="-175.5" font-family="Helvetica,sans-Serif" font-size="10.00">stl/Equal.h</text>
</a>
</g>
</g>
<!-- Node3&#45;&gt;Node12 -->
<g id="edge11" class="edge"><title>Node3&#45;&gt;Node12</title>
<path fill="none" stroke="midnightblue" d="M382.114,-216.431C390.176,-206.967 399.959,-195.483 406.545,-187.751"/>
<polygon fill="midnightblue" stroke="midnightblue" points="379.416,-214.201 375.596,-224.083 384.745,-218.74 379.416,-214.201"/>
</g>
<!-- Node17 -->
<g id="node17" class="node"><title>Node17</title>
<g id="a_node17"><a xlink:href="../../d2/dad/_hash_8h.html" target="_top" xlink:title="stl/Hash.h">
<polygon fill="white" stroke="black" points="502,-168.5 502,-187.5 564,-187.5 564,-168.5 502,-168.5"/>
<text text-anchor="middle" x="533" y="-175.5" font-family="Helvetica,sans-Serif" font-size="10.00">stl/Hash.h</text>
</a>
</g>
</g>
<!-- Node3&#45;&gt;Node17 -->
<g id="edge18" class="edge"><title>Node3&#45;&gt;Node17</title>
<path fill="none" stroke="midnightblue" d="M403.736,-221.304C434.827,-211.129 479.147,-196.625 506.978,-187.516"/>
<polygon fill="midnightblue" stroke="midnightblue" points="402.56,-218.007 394.145,-224.444 404.737,-224.659 402.56,-218.007"/>
</g>
<!-- Node18 -->
<g id="node18" class="node"><title>Node18</title>
<g id="a_node18"><a xlink:href="../../d9/dae/_string_8cpp.html" target="_top" xlink:title="strings/String.cpp">
<polygon fill="white" stroke="black" points="188.5,-168.5 188.5,-187.5 281.5,-187.5 281.5,-168.5 188.5,-168.5"/>
<text text-anchor="middle" x="235" y="-175.5" font-family="Helvetica,sans-Serif" font-size="10.00">strings/String.cpp</text>
</a>
</g>
</g>
<!-- Node3&#45;&gt;Node18 -->
<g id="edge22" class="edge"><title>Node3&#45;&gt;Node18</title>
<path fill="none" stroke="midnightblue" d="M337.552,-220.638C312.593,-210.504 277.923,-196.427 255.976,-187.516"/>
<polygon fill="midnightblue" stroke="midnightblue" points="336.344,-223.924 346.926,-224.444 338.977,-217.439 336.344,-223.924"/>
</g>
<!-- Node5 -->
<g id="node5" class="node"><title>Node5</title>
<g id="a_node5"><a xlink:href="../../de/d66/_packet_constructor_8h.html" target="_top" xlink:title="comm/PacketConstructor.h">
<polygon fill="white" stroke="black" points="240.5,-112.5 240.5,-131.5 377.5,-131.5 377.5,-112.5 240.5,-112.5"/>
<text text-anchor="middle" x="309" y="-119.5" font-family="Helvetica,sans-Serif" font-size="10.00">comm/PacketConstructor.h</text>
</a>
</g>
</g>
<!-- Node4&#45;&gt;Node5 -->
<g id="edge4" class="edge"><title>Node4&#45;&gt;Node5</title>
<path fill="none" stroke="midnightblue" d="M324.201,-158.69C320.325,-149.589 315.821,-139.014 312.727,-131.751"/>
<polygon fill="midnightblue" stroke="midnightblue" points="321.063,-160.254 328.202,-168.083 327.503,-157.511 321.063,-160.254"/>
</g>
<!-- Node6 -->
<g id="node6" class="node"><title>Node6</title>
<g id="a_node6"><a xlink:href="../../d9/dde/_packet_constructor_8cpp.html" target="_top" xlink:title="Creates a packet for sending data from the slave systems to the main computer. ">
<polygon fill="white" stroke="black" points="235.5,-56.5 235.5,-75.5 382.5,-75.5 382.5,-56.5 235.5,-56.5"/>
<text text-anchor="middle" x="309" y="-63.5" font-family="Helvetica,sans-Serif" font-size="10.00">comm/PacketConstructor.cpp</text>
</a>
</g>
</g>
<!-- Node5&#45;&gt;Node6 -->
<g id="edge5" class="edge"><title>Node5&#45;&gt;Node6</title>
<path fill="none" stroke="midnightblue" d="M309,-101.805C309,-92.9102 309,-82.7798 309,-75.7511"/>
<polygon fill="midnightblue" stroke="midnightblue" points="305.5,-102.083 309,-112.083 312.5,-102.083 305.5,-102.083"/>
</g>
<!-- Node8 -->
<g id="node8" class="node"><title>Node8</title>
<g id="a_node8"><a xlink:href="../../df/d03/_array_heap_8h.html" target="_top" xlink:title="Heap manipulation and implementation. ">
<polygon fill="white" stroke="black" points="0.5,-56.5 0.5,-75.5 85.5,-75.5 85.5,-56.5 0.5,-56.5"/>
<text text-anchor="middle" x="43" y="-63.5" font-family="Helvetica,sans-Serif" font-size="10.00">stl/ArrayHeap.h</text>
</a>
</g>
</g>
<!-- Node7&#45;&gt;Node8 -->
<g id="edge7" class="edge"><title>Node7&#45;&gt;Node8</title>
<path fill="none" stroke="midnightblue" d="M147.094,-108.638C121.76,-98.504 86.5686,-84.4274 64.2911,-75.5164"/>
<polygon fill="midnightblue" stroke="midnightblue" points="146.024,-111.979 156.609,-112.444 148.624,-105.48 146.024,-111.979"/>
</g>
<!-- Node7&#45;&gt;Node9 -->
<g id="edge8" class="edge"><title>Node7&#45;&gt;Node9</title>
<path fill="none" stroke="midnightblue" d="M172.832,-102.396C170.323,-93.362 167.427,-82.936 165.431,-75.7511"/>
<polygon fill="midnightblue" stroke="midnightblue" points="169.474,-103.385 175.523,-112.083 176.219,-101.511 169.474,-103.385"/>
</g>
<!-- Node10 -->
<g id="node10" class="node"><title>Node10</title>
<g id="a_node10"><a xlink:href="../../df/d87/_tree_map_8h.html" target="_top" xlink:title="Map implementation using red black tree. ">
<polygon fill="white" stroke="black" points="77.5,-0.5 77.5,-19.5 154.5,-19.5 154.5,-0.5 77.5,-0.5"/>
<text text-anchor="middle" x="116" y="-7.5" font-family="Helvetica,sans-Serif" font-size="10.00">stl/TreeMap.h</text>
</a>
</g>
</g>
<!-- Node9&#45;&gt;Node10 -->
<g id="edge9" class="edge"><title>Node9&#45;&gt;Node10</title>
<path fill="none" stroke="midnightblue" d="M148.579,-48.4314C140.342,-38.9673 130.346,-27.4827 123.617,-19.7511"/>
<polygon fill="midnightblue" stroke="midnightblue" points="146.034,-50.8378 155.239,-56.083 151.314,-46.2421 146.034,-50.8378"/>
</g>
<!-- Node11 -->
<g id="node11" class="node"><title>Node11</title>
<g id="a_node11"><a xlink:href="../../dd/dba/_tree_set_8h.html" target="_top" xlink:title="Set implementation using red black tree. ">
<polygon fill="white" stroke="black" points="172.5,-0.5 172.5,-19.5 245.5,-19.5 245.5,-0.5 172.5,-0.5"/>
<text text-anchor="middle" x="209" y="-7.5" font-family="Helvetica,sans-Serif" font-size="10.00">stl/TreeSet.h</text>
</a>
</g>
</g>
<!-- Node9&#45;&gt;Node11 -->
<g id="edge10" class="edge"><title>Node9&#45;&gt;Node11</title>
<path fill="none" stroke="midnightblue" d="M177.114,-48.4314C185.176,-38.9673 194.959,-27.4827 201.545,-19.7511"/>
<polygon fill="midnightblue" stroke="midnightblue" points="174.416,-46.2009 170.596,-56.083 179.745,-50.7402 174.416,-46.2009"/>
</g>
<!-- Node12&#45;&gt;Node7 -->
<g id="edge12" class="edge"><title>Node12&#45;&gt;Node7</title>
<path fill="none" stroke="midnightblue" d="M372.281,-167.454C327.884,-157.295 258.274,-141.368 215.542,-131.59"/>
<polygon fill="midnightblue" stroke="midnightblue" points="371.643,-170.899 382.172,-169.717 373.205,-164.075 371.643,-170.899"/>
</g>
<!-- Node12&#45;&gt;Node13 -->
<g id="edge13" class="edge"><title>Node12&#45;&gt;Node13</title>
<path fill="none" stroke="midnightblue" d="M455.438,-165.699C492.807,-155.507 546.943,-140.743 580.773,-131.516"/>
<polygon fill="midnightblue" stroke="midnightblue" points="454.1,-162.436 445.374,-168.444 455.942,-169.189 454.1,-162.436"/>
</g>
<!-- Node12&#45;&gt;Node15 -->
<g id="edge15" class="edge"><title>Node12&#45;&gt;Node15</title>
<path fill="none" stroke="midnightblue" d="M431.181,-161.537C441.879,-151.909 455.256,-139.869 464.185,-131.834"/>
<polygon fill="midnightblue" stroke="midnightblue" points="428.732,-159.033 423.64,-168.324 433.414,-164.236 428.732,-159.033"/>
</g>
<!-- Node16 -->
<g id="node16" class="node"><title>Node16</title>
<g id="a_node16"><a xlink:href="../../d0/de6/_open_set_8h.html" target="_top" xlink:title="Hash set implementation. ">
<polygon fill="white" stroke="black" points="435.5,-56.5 435.5,-75.5 512.5,-75.5 512.5,-56.5 435.5,-56.5"/>
<text text-anchor="middle" x="474" y="-63.5" font-family="Helvetica,sans-Serif" font-size="10.00">stl/OpenSet.h</text>
</a>
</g>
</g>
<!-- Node12&#45;&gt;Node16 -->
<g id="edge17" class="edge"><title>Node12&#45;&gt;Node16</title>
<path fill="none" stroke="midnightblue" d="M413.982,-158.36C414.698,-144.766 417.23,-126.299 425,-112 433.383,-96.5745 449.085,-83.6025 460.46,-75.6086"/>
<polygon fill="midnightblue" stroke="midnightblue" points="410.481,-158.351 413.733,-168.434 417.479,-158.524 410.481,-158.351"/>
</g>
<!-- Node14 -->
<g id="node14" class="node"><title>Node14</title>
<g id="a_node14"><a xlink:href="../../d6/d59/_chain_set_8h.html" target="_top" xlink:title="Hash set implementation. ">
<polygon fill="white" stroke="black" points="572.5,-56.5 572.5,-75.5 651.5,-75.5 651.5,-56.5 572.5,-56.5"/>
<text text-anchor="middle" x="612" y="-63.5" font-family="Helvetica,sans-Serif" font-size="10.00">stl/ChainSet.h</text>
</a>
</g>
</g>
<!-- Node13&#45;&gt;Node14 -->
<g id="edge14" class="edge"><title>Node13&#45;&gt;Node14</title>
<path fill="none" stroke="midnightblue" d="M612,-101.805C612,-92.9102 612,-82.7798 612,-75.7511"/>
<polygon fill="midnightblue" stroke="midnightblue" points="608.5,-102.083 612,-112.083 615.5,-102.083 608.5,-102.083"/>
</g>
<!-- Node15&#45;&gt;Node16 -->
<g id="edge16" class="edge"><title>Node15&#45;&gt;Node16</title>
<path fill="none" stroke="midnightblue" d="M474,-101.805C474,-92.9102 474,-82.7798 474,-75.7511"/>
<polygon fill="midnightblue" stroke="midnightblue" points="470.5,-102.083 474,-112.083 477.5,-102.083 470.5,-102.083"/>
</g>
<!-- Node17&#45;&gt;Node13 -->
<g id="edge19" class="edge"><title>Node17&#45;&gt;Node13</title>
<path fill="none" stroke="midnightblue" d="M554.034,-162.622C568.466,-152.757 587.141,-139.992 599.339,-131.655"/>
<polygon fill="midnightblue" stroke="midnightblue" points="551.973,-159.791 545.693,-168.324 555.923,-165.57 551.973,-159.791"/>
</g>
<!-- Node17&#45;&gt;Node15 -->
<g id="edge20" class="edge"><title>Node17&#45;&gt;Node15</title>
<path fill="none" stroke="midnightblue" d="M516.105,-161.537C505.585,-151.909 492.431,-139.869 483.652,-131.834"/>
<polygon fill="midnightblue" stroke="midnightblue" points="513.781,-164.154 523.521,-168.324 518.507,-158.99 513.781,-164.154"/>
</g>
<!-- Node17&#45;&gt;Node16 -->
<g id="edge21" class="edge"><title>Node17&#45;&gt;Node16</title>
<path fill="none" stroke="midnightblue" d="M533.361,-158.373C532.882,-144.786 530.644,-126.322 523,-112 514.733,-96.5121 499.009,-83.5518 487.597,-75.5777"/>
<polygon fill="midnightblue" stroke="midnightblue" points="529.861,-158.466 533.429,-168.442 536.861,-158.418 529.861,-158.466"/>
</g>
<!-- Node22&#45;&gt;Node8 -->
<g id="edge27" class="edge"><title>Node22&#45;&gt;Node8</title>
<path fill="none" stroke="midnightblue" d="M39.75,-102.101C40.58,-93.1357 41.5317,-82.8579 42.1897,-75.7511"/>
<polygon fill="midnightblue" stroke="midnightblue" points="36.2626,-101.803 38.8256,-112.083 43.2328,-102.448 36.2626,-101.803"/>
</g>
<!-- Node25 -->
<g id="node25" class="node"><title>Node25</title>
<g id="a_node25"><a xlink:href="../../d1/d13/_shared_ptr_8h.html" target="_top" xlink:title="Shared pointer implementation. ">
<polygon fill="white" stroke="black" points="1083,-168.5 1083,-187.5 1165,-187.5 1165,-168.5 1083,-168.5"/>
<text text-anchor="middle" x="1124" y="-175.5" font-family="Helvetica,sans-Serif" font-size="10.00">stl/SharedPtr.h</text>
</a>
</g>
</g>
<!-- Node24&#45;&gt;Node25 -->
<g id="edge33" class="edge"><title>Node24&#45;&gt;Node25</title>
<path fill="none" stroke="midnightblue" d="M1124,-213.805C1124,-204.91 1124,-194.78 1124,-187.751"/>
<polygon fill="midnightblue" stroke="midnightblue" points="1120.5,-214.083 1124,-224.083 1127.5,-214.083 1120.5,-214.083"/>
</g>
</g>
</svg>
