<?xml version="1.0" encoding="UTF-8" standalone="no"?>
<!DOCTYPE svg PUBLIC "-//W3C//DTD SVG 1.1//EN"
 "http://www.w3.org/Graphics/SVG/1.1/DTD/svg11.dtd">
<!-- Generated by graphviz version 2.36.0 (20140111.2315)
 -->
<!-- Title: memory/New.h Pages: 1 -->
<!--zoomable 364 -->
<svg id="main" version="1.1" xmlns="http://www.w3.org/2000/svg" xmlns:xlink="http://www.w3.org/1999/xlink" xml:space="preserve" onload="init(evt)">
<style type="text/css"><![CDATA[
.edge:hover path { stroke: red; }
.edge:hover polygon { stroke: red; fill: red; }
]]></style>
<script type="text/javascript"><![CDATA[
var edges = document.getElementsByTagName('g');
if (edges && edges.length) {
  for (var i=0;i<edges.length;i++) {
    if (edges[i].id.substr(0,4)=='edge') {
      edges[i].setAttribute('class','edge');
    }
  }
}
]]></script>
        <defs>
                <circle id="rim" cx="0" cy="0" r="7"/>
                <circle id="rim2" cx="0" cy="0" r="3.5"/>
                <g id="zoomPlus">
                        <use xlink:href="#rim" fill="#404040">
                                <set attributeName="fill" to="#808080" begin="zoomplus.mouseover" end="zoomplus.mouseout"/>
                        </use>
                        <path d="M-4,0h8M0,-4v8" fill="none" stroke="white" stroke-width="1.5" pointer-events="none"/>
                </g>
                <g id="zoomMin">
                        <use xlink:href="#rim" fill="#404040">
                                <set attributeName="fill" to="#808080" begin="zoomminus.mouseover" end="zoomminus.mouseout"/>
                        </use>
                        <path d="M-4,0h8" fill="none" stroke="white" stroke-width="1.5" pointer-events="none"/>
                </g>
                <g id="dirArrow">
                        <path fill="none" stroke="white" stroke-width="1.5" d="M0,-3.0v7 M-2.5,-0.5L0,-3.0L2.5,-0.5"/>
                </g>
               <g id="resetDef">
                       <use xlink:href="#rim2" fill="#404040">
                               <set attributeName="fill" to="#808080" begin="reset.mouseover" end="reset.mouseout"/>
                       </use>
               </g>
        </defs>

<script type="text/javascript">
var viewWidth = 1309;
var viewHeight = 364;
var sectionId = 'dynsection-0';
</script>
<script xlink:href="../../svgpan.js"/>
<svg id="graph" class="graph">
<g id="viewport">
<title>memory/New.h</title>
<polygon fill="white" stroke="none" points="-4,4 -4,-360 1305,-360 1305,4 -4,4"/>
<!-- Node1 -->
<g id="node1" class="node"><title>Node1</title>
<polygon fill="#bfbfbf" stroke="black" points="798.5,-336.5 798.5,-355.5 881.5,-355.5 881.5,-336.5 798.5,-336.5"/>
<text text-anchor="middle" x="840" y="-343.5" font-family="Helvetica,sans-Serif" font-size="10.00">memory/New.h</text>
</g>
<!-- Node2 -->
<g id="node2" class="node"><title>Node2</title>
<g id="a_node2"><a xlink:href="../../d3/de6/_memory_8h.html" target="_top" xlink:title="Memory is a class that provides dynamic fixed size memory. ">
<polygon fill="white" stroke="black" points="734,-280.5 734,-299.5 832,-299.5 832,-280.5 734,-280.5"/>
<text text-anchor="middle" x="783" y="-287.5" font-family="Helvetica,sans-Serif" font-size="10.00">memory/Memory.h</text>
</a>
</g>
</g>
<!-- Node1&#45;&gt;Node2 -->
<g id="edge1" class="edge"><title>Node1&#45;&gt;Node2</title>
<path fill="none" stroke="midnightblue" d="M823.379,-329.253C813.266,-319.673 800.723,-307.791 792.325,-299.834"/>
<polygon fill="midnightblue" stroke="midnightblue" points="821.175,-331.987 830.842,-336.324 825.99,-326.906 821.175,-331.987"/>
</g>
<!-- Node28 -->
<g id="node28" class="node"><title>Node28</title>
<g id="a_node28"><a xlink:href="../../d5/d07/_new_8cpp.html" target="_top" xlink:title="memory/New.cpp">
<polygon fill="white" stroke="black" points="850,-280.5 850,-299.5 944,-299.5 944,-280.5 850,-280.5"/>
<text text-anchor="middle" x="897" y="-287.5" font-family="Helvetica,sans-Serif" font-size="10.00">memory/New.cpp</text>
</a>
</g>
</g>
<!-- Node1&#45;&gt;Node28 -->
<g id="edge41" class="edge"><title>Node1&#45;&gt;Node28</title>
<path fill="none" stroke="midnightblue" d="M856.621,-329.253C866.734,-319.673 879.277,-307.791 887.675,-299.834"/>
<polygon fill="midnightblue" stroke="midnightblue" points="854.01,-326.906 849.158,-336.324 858.825,-331.987 854.01,-326.906"/>
</g>
<!-- Node3 -->
<g id="node3" class="node"><title>Node3</title>
<g id="a_node3"><a xlink:href="../../db/db5/_string_8h.html" target="_top" xlink:title="strings/String.h">
<polygon fill="white" stroke="black" points="444.5,-224.5 444.5,-243.5 527.5,-243.5 527.5,-224.5 444.5,-224.5"/>
<text text-anchor="middle" x="486" y="-231.5" font-family="Helvetica,sans-Serif" font-size="10.00">strings/String.h</text>
</a>
</g>
</g>
<!-- Node2&#45;&gt;Node3 -->
<g id="edge2" class="edge"><title>Node2&#45;&gt;Node3</title>
<path fill="none" stroke="midnightblue" d="M725.826,-278.605C667.767,-268.049 579.264,-251.957 527.569,-242.558"/>
<polygon fill="midnightblue" stroke="midnightblue" points="725.475,-282.098 735.939,-280.444 726.727,-275.211 725.475,-282.098"/>
</g>
<!-- Node9 -->
<g id="node9" class="node"><title>Node9</title>
<g id="a_node9"><a xlink:href="../../d5/d08/_red_black_tree_8h.html" target="_top" xlink:title="Red black tree implementation. ">
<polygon fill="white" stroke="black" points="112.5,-56.5 112.5,-75.5 213.5,-75.5 213.5,-56.5 112.5,-56.5"/>
<text text-anchor="middle" x="163" y="-63.5" font-family="Helvetica,sans-Serif" font-size="10.00">stl/RedBlackTree.h</text>
</a>
</g>
</g>
<!-- Node2&#45;&gt;Node9 -->
<g id="edge38" class="edge"><title>Node2&#45;&gt;Node9</title>
<path fill="none" stroke="midnightblue" d="M723.524,-284.351C653.827,-278.204 535.125,-265.552 435,-244 291.377,-213.085 204.235,-255.068 124,-132 111.063,-112.156 135.6,-88.0829 151.308,-75.5381"/>
<polygon fill="midnightblue" stroke="midnightblue" points="723.597,-287.871 733.862,-285.247 724.201,-280.897 723.597,-287.871"/>
</g>
<!-- Node17 -->
<g id="node17" class="node"><title>Node17</title>
<g id="a_node17"><a xlink:href="../../d8/d2e/_open_table_8h.html" target="_top" xlink:title="stl/OpenTable.h">
<polygon fill="white" stroke="black" points="766,-112.5 766,-131.5 852,-131.5 852,-112.5 766,-112.5"/>
<text text-anchor="middle" x="809" y="-119.5" font-family="Helvetica,sans-Serif" font-size="10.00">stl/OpenTable.h</text>
</a>
</g>
</g>
<!-- Node2&#45;&gt;Node17 -->
<g id="edge37" class="edge"><title>Node2&#45;&gt;Node17</title>
<path fill="none" stroke="midnightblue" d="M745.484,-276.226C730.765,-269.162 715.41,-258.753 707,-244 702.598,-236.278 703.578,-232.204 707,-224 724.94,-180.989 771.096,-146.923 794.674,-131.683"/>
<polygon fill="midnightblue" stroke="midnightblue" points="744.421,-279.582 754.985,-280.397 747.235,-273.173 744.421,-279.582"/>
</g>
<!-- Node21 -->
<g id="node21" class="node"><title>Node21</title>
<g id="a_node21"><a xlink:href="../../d7/d9e/_exceptions_8cpp.html" target="_top" xlink:title="Implementation of Exceptions using C style. ">
<polygon fill="white" stroke="black" points="716,-224.5 716,-243.5 850,-243.5 850,-224.5 716,-224.5"/>
<text text-anchor="middle" x="783" y="-231.5" font-family="Helvetica,sans-Serif" font-size="10.00">exceptions/Exceptions.cpp</text>
</a>
</g>
</g>
<!-- Node2&#45;&gt;Node21 -->
<g id="edge31" class="edge"><title>Node2&#45;&gt;Node21</title>
<path fill="none" stroke="midnightblue" d="M783,-269.805C783,-260.91 783,-250.78 783,-243.751"/>
<polygon fill="midnightblue" stroke="midnightblue" points="779.5,-270.083 783,-280.083 786.5,-270.083 779.5,-270.083"/>
</g>
<!-- Node22 -->
<g id="node22" class="node"><title>Node22</title>
<g id="a_node22"><a xlink:href="../../df/dcf/_state_machine_8h.html" target="_top" xlink:title="fsm/StateMachine.h">
<polygon fill="white" stroke="black" points="868,-224.5 868,-243.5 972,-243.5 972,-224.5 868,-224.5"/>
<text text-anchor="middle" x="920" y="-231.5" font-family="Helvetica,sans-Serif" font-size="10.00">fsm/StateMachine.h</text>
</a>
</g>
</g>
<!-- Node2&#45;&gt;Node22 -->
<g id="edge32" class="edge"><title>Node2&#45;&gt;Node22</title>
<path fill="none" stroke="midnightblue" d="M814.023,-276.772C839.757,-266.629 875.686,-252.467 898.394,-243.516"/>
<polygon fill="midnightblue" stroke="midnightblue" points="812.728,-273.52 804.708,-280.444 815.295,-280.033 812.728,-273.52"/>
</g>
<!-- Node23 -->
<g id="node23" class="node"><title>Node23</title>
<g id="a_node23"><a xlink:href="../../df/d64/_memory_8cpp.html" target="_top" xlink:title="Implementation of Memory functions. ">
<polygon fill="white" stroke="black" points="990.5,-224.5 990.5,-243.5 1099.5,-243.5 1099.5,-224.5 990.5,-224.5"/>
<text text-anchor="middle" x="1045" y="-231.5" font-family="Helvetica,sans-Serif" font-size="10.00">memory/Memory.cpp</text>
</a>
</g>
</g>
<!-- Node2&#45;&gt;Node23 -->
<g id="edge33" class="edge"><title>Node2&#45;&gt;Node23</title>
<path fill="none" stroke="midnightblue" d="M834.383,-278.41C883.898,-268.204 957.862,-252.96 1003.68,-243.516"/>
<polygon fill="midnightblue" stroke="midnightblue" points="833.602,-274.997 824.515,-280.444 835.015,-281.853 833.602,-274.997"/>
</g>
<!-- Node24 -->
<g id="node24" class="node"><title>Node24</title>
<g id="a_node24"><a xlink:href="../../d2/db9/_array_list_8h.html" target="_top" xlink:title="List implementation using an array. ">
<polygon fill="white" stroke="black" points="-0.5,-112.5 -0.5,-131.5 76.5,-131.5 76.5,-112.5 -0.5,-112.5"/>
<text text-anchor="middle" x="38" y="-119.5" font-family="Helvetica,sans-Serif" font-size="10.00">stl/ArrayList.h</text>
</a>
</g>
</g>
<!-- Node2&#45;&gt;Node24 -->
<g id="edge34" class="edge"><title>Node2&#45;&gt;Node24</title>
<path fill="none" stroke="midnightblue" d="M723.839,-288.631C565.786,-287.162 142.185,-279.884 91,-244 52.1283,-216.748 41.4668,-154.455 38.8095,-131.607"/>
<polygon fill="midnightblue" stroke="midnightblue" points="723.828,-292.131 733.859,-288.72 723.89,-285.131 723.828,-292.131"/>
</g>
<!-- Node25 -->
<g id="node25" class="node"><title>Node25</title>
<g id="a_node25"><a xlink:href="../../de/dc6/_linked_list_8h.html" target="_top" xlink:title="stl/LinkedList.h">
<polygon fill="white" stroke="black" points="1117.5,-224.5 1117.5,-243.5 1200.5,-243.5 1200.5,-224.5 1117.5,-224.5"/>
<text text-anchor="middle" x="1159" y="-231.5" font-family="Helvetica,sans-Serif" font-size="10.00">stl/LinkedList.h</text>
</a>
</g>
</g>
<!-- Node2&#45;&gt;Node25 -->
<g id="edge36" class="edge"><title>Node2&#45;&gt;Node25</title>
<path fill="none" stroke="midnightblue" d="M842.279,-279.843C961.218,-262.783 992.918,-261.905 1108,-244 1111.02,-243.53 1114.14,-243.026 1117.27,-242.506"/>
<polygon fill="midnightblue" stroke="midnightblue" points="841.435,-276.428 832.037,-281.32 842.435,-283.356 841.435,-276.428"/>
</g>
<!-- Node26 -->
<g id="node26" class="node"><title>Node26</title>
<g id="a_node26"><a xlink:href="../../d8/df6/_unique_ptr_8h.html" target="_top" xlink:title="Unique pointer implementation. ">
<polygon fill="white" stroke="black" points="1219,-224.5 1219,-243.5 1301,-243.5 1301,-224.5 1219,-224.5"/>
<text text-anchor="middle" x="1260" y="-231.5" font-family="Helvetica,sans-Serif" font-size="10.00">stl/UniquePtr.h</text>
</a>
</g>
</g>
<!-- Node2&#45;&gt;Node26 -->
<g id="edge39" class="edge"><title>Node2&#45;&gt;Node26</title>
<path fill="none" stroke="midnightblue" d="M841.953,-279.949C1005.73,-259.651 1049.36,-265.861 1209,-244 1212.21,-243.561 1215.52,-243.067 1218.85,-242.543"/>
<polygon fill="midnightblue" stroke="midnightblue" points="841.507,-276.478 832.02,-281.194 842.378,-283.423 841.507,-276.478"/>
</g>
<!-- Node4 -->
<g id="node4" class="node"><title>Node4</title>
<g id="a_node4"><a xlink:href="../../de/d6d/_bitset_8h.html" target="_top" xlink:title="Bitset is a class that provides bits manipulation methods. ">
<polygon fill="white" stroke="black" points="303,-168.5 303,-187.5 367,-187.5 367,-168.5 303,-168.5"/>
<text text-anchor="middle" x="335" y="-175.5" font-family="Helvetica,sans-Serif" font-size="10.00">stl/Bitset.h</text>
</a>
</g>
</g>
<!-- Node3&#45;&gt;Node4 -->
<g id="edge3" class="edge"><title>Node3&#45;&gt;Node4</title>
<path fill="none" stroke="midnightblue" d="M452.554,-221.039C424.142,-210.879 384.063,-196.546 358.814,-187.516"/>
<polygon fill="midnightblue" stroke="midnightblue" points="451.479,-224.372 462.074,-224.444 453.836,-217.781 451.479,-224.372"/>
</g>
<!-- Node7 -->
<g id="node7" class="node"><title>Node7</title>
<g id="a_node7"><a xlink:href="../../d7/d0c/_comparator_8h.html" target="_top" xlink:title="Comparator implementation for basic types. ">
<polygon fill="white" stroke="black" points="133.5,-112.5 133.5,-131.5 222.5,-131.5 222.5,-112.5 133.5,-112.5"/>
<text text-anchor="middle" x="178" y="-119.5" font-family="Helvetica,sans-Serif" font-size="10.00">stl/Comparator.h</text>
</a>
</g>
</g>
<!-- Node3&#45;&gt;Node7 -->
<g id="edge6" class="edge"><title>Node3&#45;&gt;Node7</title>
<path fill="none" stroke="midnightblue" d="M434.269,-224.942C394.937,-217.852 339.945,-205.846 294,-188 254.19,-172.537 211.339,-145.478 190.632,-131.658"/>
<polygon fill="midnightblue" stroke="midnightblue" points="433.713,-228.398 444.168,-226.682 434.925,-221.504 433.713,-228.398"/>
</g>
<!-- Node12 -->
<g id="node12" class="node"><title>Node12</title>
<g id="a_node12"><a xlink:href="../../d2/dc2/_equal_8h.html" target="_top" xlink:title="stl/Equal.h">
<polygon fill="white" stroke="black" points="406.5,-168.5 406.5,-187.5 469.5,-187.5 469.5,-168.5 406.5,-168.5"/>
<text text-anchor="middle" x="438" y="-175.5" font-family="Helvetica,sans-Serif" font-size="10.00">stl/Equal.h</text>
</a>
</g>
</g>
<!-- Node3&#45;&gt;Node12 -->
<g id="edge11" class="edge"><title>Node3&#45;&gt;Node12</title>
<path fill="none" stroke="midnightblue" d="M471.272,-216.431C462.86,-206.967 452.651,-195.483 445.779,-187.751"/>
<polygon fill="midnightblue" stroke="midnightblue" points="468.814,-218.934 478.074,-224.083 474.046,-214.284 468.814,-218.934"/>
</g>
<!-- Node19 -->
<g id="node19" class="node"><title>Node19</title>
<g id="a_node19"><a xlink:href="../../d2/dad/_hash_8h.html" target="_top" xlink:title="stl/Hash.h">
<polygon fill="white" stroke="black" points="598,-168.5 598,-187.5 660,-187.5 660,-168.5 598,-168.5"/>
<text text-anchor="middle" x="629" y="-175.5" font-family="Helvetica,sans-Serif" font-size="10.00">stl/Hash.h</text>
</a>
</g>
</g>
<!-- Node3&#45;&gt;Node19 -->
<g id="edge23" class="edge"><title>Node3&#45;&gt;Node19</title>
<path fill="none" stroke="midnightblue" d="M518.027,-220.906C544.912,-210.754 582.641,-196.506 606.447,-187.516"/>
<polygon fill="midnightblue" stroke="midnightblue" points="516.778,-217.636 508.659,-224.444 519.25,-224.185 516.778,-217.636"/>
</g>
<!-- Node20 -->
<g id="node20" class="node"><title>Node20</title>
<g id="a_node20"><a xlink:href="../../d9/dae/_string_8cpp.html" target="_top" xlink:title="strings/String.cpp">
<polygon fill="white" stroke="black" points="487.5,-168.5 487.5,-187.5 580.5,-187.5 580.5,-168.5 487.5,-168.5"/>
<text text-anchor="middle" x="534" y="-175.5" font-family="Helvetica,sans-Serif" font-size="10.00">strings/String.cpp</text>
</a>
</g>
</g>
<!-- Node3&#45;&gt;Node20 -->
<g id="edge30" class="edge"><title>Node3&#45;&gt;Node20</title>
<path fill="none" stroke="midnightblue" d="M500.728,-216.431C509.14,-206.967 519.349,-195.483 526.221,-187.751"/>
<polygon fill="midnightblue" stroke="midnightblue" points="497.954,-214.284 493.926,-224.083 503.186,-218.934 497.954,-214.284"/>
</g>
<!-- Node5 -->
<g id="node5" class="node"><title>Node5</title>
<g id="a_node5"><a xlink:href="../../de/d66/_packet_constructor_8h.html" target="_top" xlink:title="comm/PacketConstructor.h">
<polygon fill="white" stroke="black" points="240.5,-112.5 240.5,-131.5 377.5,-131.5 377.5,-112.5 240.5,-112.5"/>
<text text-anchor="middle" x="309" y="-119.5" font-family="Helvetica,sans-Serif" font-size="10.00">comm/PacketConstructor.h</text>
</a>
</g>
</g>
<!-- Node4&#45;&gt;Node5 -->
<g id="edge4" class="edge"><title>Node4&#45;&gt;Node5</title>
<path fill="none" stroke="midnightblue" d="M326.325,-158.983C321.912,-149.817 316.748,-139.092 313.213,-131.751"/>
<polygon fill="midnightblue" stroke="midnightblue" points="323.215,-160.591 330.707,-168.083 329.522,-157.555 323.215,-160.591"/>
</g>
<!-- Node6 -->
<g id="node6" class="node"><title>Node6</title>
<g id="a_node6"><a xlink:href="../../d9/dde/_packet_constructor_8cpp.html" target="_top" xlink:title="Creates a packet for sending data from the slave systems to the main computer. ">
<polygon fill="white" stroke="black" points="235.5,-56.5 235.5,-75.5 382.5,-75.5 382.5,-56.5 235.5,-56.5"/>
<text text-anchor="middle" x="309" y="-63.5" font-family="Helvetica,sans-Serif" font-size="10.00">comm/PacketConstructor.cpp</text>
</a>
</g>
</g>
<!-- Node5&#45;&gt;Node6 -->
<g id="edge5" class="edge"><title>Node5&#45;&gt;Node6</title>
<path fill="none" stroke="midnightblue" d="M309,-101.805C309,-92.9102 309,-82.7798 309,-75.7511"/>
<polygon fill="midnightblue" stroke="midnightblue" points="305.5,-102.083 309,-112.083 312.5,-102.083 305.5,-102.083"/>
</g>
<!-- Node8 -->
<g id="node8" class="node"><title>Node8</title>
<g id="a_node8"><a xlink:href="../../df/d03/_array_heap_8h.html" target="_top" xlink:title="Heap manipulation and implementation. ">
<polygon fill="white" stroke="black" points="0.5,-56.5 0.5,-75.5 85.5,-75.5 85.5,-56.5 0.5,-56.5"/>
<text text-anchor="middle" x="43" y="-63.5" font-family="Helvetica,sans-Serif" font-size="10.00">stl/ArrayHeap.h</text>
</a>
</g>
</g>
<!-- Node7&#45;&gt;Node8 -->
<g id="edge7" class="edge"><title>Node7&#45;&gt;Node8</title>
<path fill="none" stroke="midnightblue" d="M147.094,-108.638C121.76,-98.504 86.5686,-84.4274 64.2911,-75.5164"/>
<polygon fill="midnightblue" stroke="midnightblue" points="146.024,-111.979 156.609,-112.444 148.624,-105.48 146.024,-111.979"/>
</g>
<!-- Node7&#45;&gt;Node9 -->
<g id="edge8" class="edge"><title>Node7&#45;&gt;Node9</title>
<path fill="none" stroke="midnightblue" d="M172.832,-102.396C170.323,-93.362 167.427,-82.936 165.431,-75.7511"/>
<polygon fill="midnightblue" stroke="midnightblue" points="169.474,-103.385 175.523,-112.083 176.219,-101.511 169.474,-103.385"/>
</g>
<!-- Node10 -->
<g id="node10" class="node"><title>Node10</title>
<g id="a_node10"><a xlink:href="../../df/d87/_tree_map_8h.html" target="_top" xlink:title="Map implementation using red black tree. ">
<polygon fill="white" stroke="black" points="77.5,-0.5 77.5,-19.5 154.5,-19.5 154.5,-0.5 77.5,-0.5"/>
<text text-anchor="middle" x="116" y="-7.5" font-family="Helvetica,sans-Serif" font-size="10.00">stl/TreeMap.h</text>
</a>
</g>
</g>
<!-- Node9&#45;&gt;Node10 -->
<g id="edge9" class="edge"><title>Node9&#45;&gt;Node10</title>
<path fill="none" stroke="midnightblue" d="M148.579,-48.4314C140.342,-38.9673 130.346,-27.4827 123.617,-19.7511"/>
<polygon fill="midnightblue" stroke="midnightblue" points="146.034,-50.8378 155.239,-56.083 151.314,-46.2421 146.034,-50.8378"/>
</g>
<!-- Node11 -->
<g id="node11" class="node"><title>Node11</title>
<g id="a_node11"><a xlink:href="../../dd/dba/_tree_set_8h.html" target="_top" xlink:title="Set implementation using red black tree. ">
<polygon fill="white" stroke="black" points="172.5,-0.5 172.5,-19.5 245.5,-19.5 245.5,-0.5 172.5,-0.5"/>
<text text-anchor="middle" x="209" y="-7.5" font-family="Helvetica,sans-Serif" font-size="10.00">stl/TreeSet.h</text>
</a>
</g>
</g>
<!-- Node9&#45;&gt;Node11 -->
<g id="edge10" class="edge"><title>Node9&#45;&gt;Node11</title>
<path fill="none" stroke="midnightblue" d="M177.114,-48.4314C185.176,-38.9673 194.959,-27.4827 201.545,-19.7511"/>
<polygon fill="midnightblue" stroke="midnightblue" points="174.416,-46.2009 170.596,-56.083 179.745,-50.7402 174.416,-46.2009"/>
</g>
<!-- Node12&#45;&gt;Node7 -->
<g id="edge12" class="edge"><title>Node12&#45;&gt;Node7</title>
<path fill="none" stroke="midnightblue" d="M396.5,-168.381C347.863,-158.279 267.76,-141.642 219.236,-131.564"/>
<polygon fill="midnightblue" stroke="midnightblue" points="395.876,-171.826 406.379,-170.433 397.3,-164.972 395.876,-171.826"/>
</g>
<!-- Node13 -->
<g id="node13" class="node"><title>Node13</title>
<g id="a_node13"><a xlink:href="../../dd/d0b/_hash_map_8h.html" target="_top" xlink:title="stl/HashMap.h">
<polygon fill="white" stroke="black" points="429,-56.5 429,-75.5 509,-75.5 509,-56.5 429,-56.5"/>
<text text-anchor="middle" x="469" y="-63.5" font-family="Helvetica,sans-Serif" font-size="10.00">stl/HashMap.h</text>
</a>
</g>
</g>
<!-- Node12&#45;&gt;Node13 -->
<g id="edge13" class="edge"><title>Node12&#45;&gt;Node13</title>
<path fill="none" stroke="midnightblue" d="M431.185,-158.421C427.377,-145.117 424.412,-126.981 430,-112 435.564,-97.0832 448.547,-83.8287 458.01,-75.6346"/>
<polygon fill="midnightblue" stroke="midnightblue" points="427.976,-159.869 434.412,-168.285 434.629,-157.693 427.976,-159.869"/>
</g>
<!-- Node14 -->
<g id="node14" class="node"><title>Node14</title>
<g id="a_node14"><a xlink:href="../../de/def/_hash_table_8h.html" target="_top" xlink:title="stl/HashTable.h">
<polygon fill="white" stroke="black" points="510,-112.5 510,-131.5 596,-131.5 596,-112.5 510,-112.5"/>
<text text-anchor="middle" x="553" y="-119.5" font-family="Helvetica,sans-Serif" font-size="10.00">stl/HashTable.h</text>
</a>
</g>
</g>
<!-- Node12&#45;&gt;Node14 -->
<g id="edge14" class="edge"><title>Node12&#45;&gt;Node14</title>
<path fill="none" stroke="midnightblue" d="M465.481,-164.096C486.966,-154.007 516.222,-140.27 534.863,-131.516"/>
<polygon fill="midnightblue" stroke="midnightblue" points="463.786,-161.025 456.222,-168.444 466.762,-167.361 463.786,-161.025"/>
</g>
<!-- Node15 -->
<g id="node15" class="node"><title>Node15</title>
<g id="a_node15"><a xlink:href="../../d2/dfc/_hash_set_8h.html" target="_top" xlink:title="stl/HashSet.h">
<polygon fill="white" stroke="black" points="527.5,-56.5 527.5,-75.5 604.5,-75.5 604.5,-56.5 527.5,-56.5"/>
<text text-anchor="middle" x="566" y="-63.5" font-family="Helvetica,sans-Serif" font-size="10.00">stl/HashSet.h</text>
</a>
</g>
</g>
<!-- Node12&#45;&gt;Node15 -->
<g id="edge17" class="edge"><title>Node12&#45;&gt;Node15</title>
<path fill="none" stroke="midnightblue" d="M452.035,-160.834C464.304,-147.13 482.934,-127.318 501,-112 517.54,-97.9753 538.423,-84.1209 551.988,-75.5689"/>
<polygon fill="midnightblue" stroke="midnightblue" points="449.276,-158.671 445.28,-168.483 454.523,-163.304 449.276,-158.671"/>
</g>
<!-- Node16 -->
<g id="node16" class="node"><title>Node16</title>
<g id="a_node16"><a xlink:href="../../d5/d7a/_open_map_8h.html" target="_top" xlink:title="Hash map implementation. ">
<polygon fill="white" stroke="black" points="782,-56.5 782,-75.5 862,-75.5 862,-56.5 782,-56.5"/>
<text text-anchor="middle" x="822" y="-63.5" font-family="Helvetica,sans-Serif" font-size="10.00">stl/OpenMap.h</text>
</a>
</g>
</g>
<!-- Node12&#45;&gt;Node16 -->
<g id="edge18" class="edge"><title>Node12&#45;&gt;Node16</title>
<path fill="none" stroke="midnightblue" d="M479.872,-167.61C551.72,-151.912 572.178,-151.565 640,-132 699.156,-114.935 767.017,-88.9376 800.71,-75.581"/>
<polygon fill="midnightblue" stroke="midnightblue" points="478.884,-164.244 469.875,-169.82 480.395,-171.079 478.884,-164.244"/>
</g>
<!-- Node12&#45;&gt;Node17 -->
<g id="edge19" class="edge"><title>Node12&#45;&gt;Node17</title>
<path fill="none" stroke="midnightblue" d="M479.928,-167.77C588.063,-148.609 704.558,-134.55 765.967,-127.65"/>
<polygon fill="midnightblue" stroke="midnightblue" points="479.053,-164.371 469.826,-169.579 480.287,-171.261 479.053,-164.371"/>
</g>
<!-- Node18 -->
<g id="node18" class="node"><title>Node18</title>
<g id="a_node18"><a xlink:href="../../d0/de6/_open_set_8h.html" target="_top" xlink:title="Hash set implementation. ">
<polygon fill="white" stroke="black" points="686.5,-56.5 686.5,-75.5 763.5,-75.5 763.5,-56.5 686.5,-56.5"/>
<text text-anchor="middle" x="725" y="-63.5" font-family="Helvetica,sans-Serif" font-size="10.00">stl/OpenSet.h</text>
</a>
</g>
</g>
<!-- Node12&#45;&gt;Node18 -->
<g id="edge22" class="edge"><title>Node12&#45;&gt;Node18</title>
<path fill="none" stroke="midnightblue" d="M479.419,-167.014C521.089,-156.757 582.329,-141.05 605,-132 645.489,-115.837 689.767,-89.3292 711.471,-75.6971"/>
<polygon fill="midnightblue" stroke="midnightblue" points="478.423,-163.654 469.543,-169.433 480.089,-170.453 478.423,-163.654"/>
</g>
<!-- Node14&#45;&gt;Node13 -->
<g id="edge15" class="edge"><title>Node14&#45;&gt;Node13</title>
<path fill="none" stroke="midnightblue" d="M531.068,-106.901C515.665,-96.9986 495.554,-84.0705 482.463,-75.6545"/>
<polygon fill="midnightblue" stroke="midnightblue" points="529.199,-109.86 539.504,-112.324 532.985,-103.972 529.199,-109.86"/>
</g>
<!-- Node14&#45;&gt;Node15 -->
<g id="edge16" class="edge"><title>Node14&#45;&gt;Node15</title>
<path fill="none" stroke="midnightblue" d="M557.55,-102.101C559.708,-93.1357 562.182,-82.8579 563.893,-75.7511"/>
<polygon fill="midnightblue" stroke="midnightblue" points="554.085,-101.542 555.147,-112.083 560.89,-103.18 554.085,-101.542"/>
</g>
<!-- Node17&#45;&gt;Node16 -->
<g id="edge20" class="edge"><title>Node17&#45;&gt;Node16</title>
<path fill="none" stroke="midnightblue" d="M813.55,-102.101C815.708,-93.1357 818.182,-82.8579 819.893,-75.7511"/>
<polygon fill="midnightblue" stroke="midnightblue" points="810.085,-101.542 811.147,-112.083 816.89,-103.18 810.085,-101.542"/>
</g>
<!-- Node17&#45;&gt;Node18 -->
<g id="edge21" class="edge"><title>Node17&#45;&gt;Node18</title>
<path fill="none" stroke="midnightblue" d="M787.068,-106.901C771.665,-96.9986 751.554,-84.0705 738.463,-75.6545"/>
<polygon fill="midnightblue" stroke="midnightblue" points="785.199,-109.86 795.504,-112.324 788.985,-103.972 785.199,-109.86"/>
</g>
<!-- Node19&#45;&gt;Node13 -->
<g id="edge24" class="edge"><title>Node19&#45;&gt;Node13</title>
<path fill="none" stroke="midnightblue" d="M588.125,-166.271C555.881,-157.156 514.214,-143.723 501,-132 483.688,-116.641 474.731,-89.7812 471.062,-75.8878"/>
<polygon fill="midnightblue" stroke="midnightblue" points="587.215,-169.651 597.787,-168.955 589.088,-162.906 587.215,-169.651"/>
</g>
<!-- Node19&#45;&gt;Node14 -->
<g id="edge25" class="edge"><title>Node19&#45;&gt;Node14</title>
<path fill="none" stroke="midnightblue" d="M608.424,-162.38C594.688,-152.62 577.075,-140.106 565.433,-131.834"/>
<polygon fill="midnightblue" stroke="midnightblue" points="606.61,-165.385 616.789,-168.324 610.665,-159.679 606.61,-165.385"/>
</g>
<!-- Node19&#45;&gt;Node15 -->
<g id="edge26" class="edge"><title>Node19&#45;&gt;Node15</title>
<path fill="none" stroke="midnightblue" d="M624.015,-158.166C620.001,-144.739 613.609,-126.562 605,-112 596.688,-97.9388 583.78,-84.093 575.116,-75.5529"/>
<polygon fill="midnightblue" stroke="midnightblue" points="620.745,-159.466 626.824,-168.144 627.483,-157.569 620.745,-159.466"/>
</g>
<!-- Node19&#45;&gt;Node16 -->
<g id="edge27" class="edge"><title>Node19&#45;&gt;Node16</title>
<path fill="none" stroke="midnightblue" d="M670.394,-175.089C730.482,-171.35 837.298,-160.741 861,-132 876.239,-113.522 850.098,-88.464 833.712,-75.5217"/>
<polygon fill="midnightblue" stroke="midnightblue" points="669.883,-171.613 660.104,-175.691 670.291,-178.601 669.883,-171.613"/>
</g>
<!-- Node19&#45;&gt;Node17 -->
<g id="edge28" class="edge"><title>Node19&#45;&gt;Node17</title>
<path fill="none" stroke="midnightblue" d="M667.108,-165.568C701.063,-155.381 749.989,-140.703 780.612,-131.516"/>
<polygon fill="midnightblue" stroke="midnightblue" points="666.094,-162.218 657.522,-168.444 668.106,-168.922 666.094,-162.218"/>
</g>
<!-- Node19&#45;&gt;Node18 -->
<g id="edge29" class="edge"><title>Node19&#45;&gt;Node18</title>
<path fill="none" stroke="midnightblue" d="M646.235,-161.746C655.422,-153.312 666.713,-142.449 676,-132 692.898,-112.986 710.258,-88.5755 719.076,-75.7575"/>
<polygon fill="midnightblue" stroke="midnightblue" points="643.877,-159.159 638.806,-168.461 648.571,-164.352 643.877,-159.159"/>
</g>
<!-- Node24&#45;&gt;Node8 -->
<g id="edge35" class="edge"><title>Node24&#45;&gt;Node8</title>
<path fill="none" stroke="midnightblue" d="M39.75,-102.101C40.58,-93.1357 41.5317,-82.8579 42.1897,-75.7511"/>
<polygon fill="midnightblue" stroke="midnightblue" points="36.2626,-101.803 38.8256,-112.083 43.2328,-102.448 36.2626,-101.803"/>
</g>
<!-- Node27 -->
<g id="node27" class="node"><title>Node27</title>
<g id="a_node27"><a xlink:href="../../d1/d13/_shared_ptr_8h.html" target="_top" xlink:title="Shared pointer implementation. ">
<polygon fill="white" stroke="black" points="1219,-168.5 1219,-187.5 1301,-187.5 1301,-168.5 1219,-168.5"/>
<text text-anchor="middle" x="1260" y="-175.5" font-family="Helvetica,sans-Serif" font-size="10.00">stl/SharedPtr.h</text>
</a>
</g>
</g>
<!-- Node26&#45;&gt;Node27 -->
<g id="edge40" class="edge"><title>Node26&#45;&gt;Node27</title>
<path fill="none" stroke="midnightblue" d="M1260,-213.805C1260,-204.91 1260,-194.78 1260,-187.751"/>
<polygon fill="midnightblue" stroke="midnightblue" points="1256.5,-214.083 1260,-224.083 1263.5,-214.083 1256.5,-214.083"/>
</g>
</g>
</svg>
        <g id="navigator" transform="translate(0 0)" fill="#404254">
                <rect fill="#f2f5e9" fill-opacity="0.5" stroke="#606060" stroke-width=".5" x="0" y="0" width="60" height="60"/>
                <use id="zoomplus" xlink:href="#zoomPlus" x="17" y="9" onmousedown="handleZoom(evt,'in')"/>
                <use id="zoomminus" xlink:href="#zoomMin" x="42" y="9" onmousedown="handleZoom(evt,'out')"/>
                <use id="reset" xlink:href="#resetDef" x="30" y="36" onmousedown="handleReset()"/>
                <g id="arrowUp" xlink:href="#dirArrow" transform="translate(30 24)" onmousedown="handlePan(0,-1)">
                  <use xlink:href="#rim" fill="#404040">
                        <set attributeName="fill" to="#808080" begin="arrowUp.mouseover" end="arrowUp.mouseout"/>
                  </use>
                  <path fill="none" stroke="white" stroke-width="1.5" d="M0,-3.0v7 M-2.5,-0.5L0,-3.0L2.5,-0.5"/>
                </g>
                <g id="arrowRight" xlink:href="#dirArrow" transform="rotate(90) translate(36 -43)" onmousedown="handlePan(1,0)">
                  <use xlink:href="#rim" fill="#404040">
                        <set attributeName="fill" to="#808080" begin="arrowRight.mouseover" end="arrowRight.mouseout"/>
                  </use>
                  <path fill="none" stroke="white" stroke-width="1.5" d="M0,-3.0v7 M-2.5,-0.5L0,-3.0L2.5,-0.5"/>
                </g>
                <g id="arrowDown" xlink:href="#dirArrow" transform="rotate(180) translate(-30 -48)" onmousedown="handlePan(0,1)">
                  <use xlink:href="#rim" fill="#404040">
                        <set attributeName="fill" to="#808080" begin="arrowDown.mouseover" end="arrowDown.mouseout"/>
                  </use>
                  <path fill="none" stroke="white" stroke-width="1.5" d="M0,-3.0v7 M-2.5,-0.5L0,-3.0L2.5,-0.5"/>
                </g>
                <g id="arrowLeft" xlink:href="#dirArrow" transform="rotate(270) translate(-36 17)" onmousedown="handlePan(-1,0)">
                  <use xlink:href="#rim" fill="#404040">
                        <set attributeName="fill" to="#808080" begin="arrowLeft.mouseover" end="arrowLeft.mouseout"/>
                  </use>
                  <path fill="none" stroke="white" stroke-width="1.5" d="M0,-3.0v7 M-2.5,-0.5L0,-3.0L2.5,-0.5"/>
                </g>
        </g>
        <svg viewBox="0 0 15 15" width="100%" height="30px" preserveAspectRatio="xMaxYMin meet">
         <g id="arrow_out" transform="scale(0.3 0.3)">
          <a xlink:href="_new_8h__dep__incl_org.svg" target="_base">
           <rect id="button" ry="5" rx="5" y="6" x="6" height="38" width="38"
                fill="#f2f5e9" fill-opacity="0.5" stroke="#606060" stroke-width="1.0"/>
           <path id="arrow"
             d="M 11.500037,31.436501 C 11.940474,20.09759 22.043105,11.32322 32.158766,21.979434 L 37.068811,17.246167 C 37.068811,17.246167 37.088388,32 37.088388,32 L 22.160133,31.978069 C 22.160133,31.978069 26.997745,27.140456 26.997745,27.140456 C 18.528582,18.264221 13.291696,25.230495 11.500037,31.436501 z"
             style="fill:#404040;"/>
          </a>
         </g>
        </svg>
</svg>
