<?xml version="1.0" encoding="UTF-8" standalone="no"?>
<!DOCTYPE svg PUBLIC "-//W3C//DTD SVG 1.1//EN"
 "http://www.w3.org/Graphics/SVG/1.1/DTD/svg11.dtd">
<!-- Generated by graphviz version 2.36.0 (20140111.2315)
 -->
<!-- Title: wlp::array2d::x Pages: 1 -->
<!--zoomable 170 -->
<svg id="main" version="1.1" xmlns="http://www.w3.org/2000/svg" xmlns:xlink="http://www.w3.org/1999/xlink" xml:space="preserve" onload="init(evt)">
<style type="text/css"><![CDATA[
.edge:hover path { stroke: red; }
.edge:hover polygon { stroke: red; fill: red; }
]]></style>
<script type="text/javascript"><![CDATA[
var edges = document.getElementsByTagName('g');
if (edges && edges.length) {
  for (var i=0;i<edges.length;i++) {
    if (edges[i].id.substr(0,4)=='edge') {
      edges[i].setAttribute('class','edge');
    }
  }
}
]]></script>
        <defs>
                <circle id="rim" cx="0" cy="0" r="7"/>
                <circle id="rim2" cx="0" cy="0" r="3.5"/>
                <g id="zoomPlus">
                        <use xlink:href="#rim" fill="#404040">
                                <set attributeName="fill" to="#808080" begin="zoomplus.mouseover" end="zoomplus.mouseout"/>
                        </use>
                        <path d="M-4,0h8M0,-4v8" fill="none" stroke="white" stroke-width="1.5" pointer-events="none"/>
                </g>
                <g id="zoomMin">
                        <use xlink:href="#rim" fill="#404040">
                                <set attributeName="fill" to="#808080" begin="zoomminus.mouseover" end="zoomminus.mouseout"/>
                        </use>
                        <path d="M-4,0h8" fill="none" stroke="white" stroke-width="1.5" pointer-events="none"/>
                </g>
                <g id="dirArrow">
                        <path fill="none" stroke="white" stroke-width="1.5" d="M0,-3.0v7 M-2.5,-0.5L0,-3.0L2.5,-0.5"/>
                </g>
               <g id="resetDef">
                       <use xlink:href="#rim2" fill="#404040">
                               <set attributeName="fill" to="#808080" begin="reset.mouseover" end="reset.mouseout"/>
                       </use>
               </g>
        </defs>

<script type="text/javascript">
var viewWidth = 538;
var viewHeight = 170;
var sectionId = 'dynsection-9';
</script>
<script xlink:href="../../svgpan.js"/>
<svg id="graph" class="graph">
<g id="viewport">
<title>wlp::array2d::x</title>
<polygon fill="white" stroke="none" points="-4,4 -4,-166 534,-166 534,4 -4,4"/>
<!-- Node1 -->
<g id="node1" class="node"><title>Node1</title>
<polygon fill="#bfbfbf" stroke="black" points="0.5,-71.5 0.5,-90.5 81.5,-90.5 81.5,-71.5 0.5,-71.5"/>
<text text-anchor="middle" x="41" y="-78.5" font-family="Helvetica,sans-Serif" font-size="10.00">wlp::array2d::x</text>
</g>
<!-- Node2 -->
<g id="node2" class="node"><title>Node2</title>
<g id="a_node2"><a xlink:href="../../d9/d22/classwlp_1_1array2d.html#aa0a5271b03835f084f66439078ea9d14" target="_top" xlink:title="wlp::array2d::delete\l_array">
<polygon fill="white" stroke="black" points="126,-88 126,-118 228,-118 228,-88 126,-88"/>
<text text-anchor="start" x="134" y="-106" font-family="Helvetica,sans-Serif" font-size="10.00">wlp::array2d::delete</text>
<text text-anchor="middle" x="177" y="-95" font-family="Helvetica,sans-Serif" font-size="10.00">_array</text>
</a>
</g>
</g>
<!-- Node1&#45;&gt;Node2 -->
<g id="edge1" class="edge"><title>Node1&#45;&gt;Node2</title>
<path fill="none" stroke="midnightblue" d="M91.7613,-89.1698C102.809,-90.9836 114.528,-92.9076 125.601,-94.7256"/>
<polygon fill="midnightblue" stroke="midnightblue" points="92.2766,-85.7076 81.8416,-87.5412 91.1424,-92.6151 92.2766,-85.7076"/>
</g>
<!-- Node3 -->
<g id="node3" class="node"><title>Node3</title>
<g id="a_node3"><a xlink:href="../../d9/d22/classwlp_1_1array2d.html#a85ce47d7bd4eca47962e5972ec655838" target="_top" xlink:title="wlp::array2d::make\l_array">
<polygon fill="white" stroke="black" points="279,-132 279,-162 379,-162 379,-132 279,-132"/>
<text text-anchor="start" x="287" y="-150" font-family="Helvetica,sans-Serif" font-size="10.00">wlp::array2d::make</text>
<text text-anchor="middle" x="329" y="-139" font-family="Helvetica,sans-Serif" font-size="10.00">_array</text>
</a>
</g>
</g>
<!-- Node1&#45;&gt;Node3 -->
<g id="edge5" class="edge"><title>Node1&#45;&gt;Node3</title>
<path fill="none" stroke="midnightblue" d="M62.3207,-96.7933C76.9536,-107.258 97.6293,-120.258 118,-127 171.022,-144.548 235.394,-148.287 278.779,-148.441"/>
<polygon fill="midnightblue" stroke="midnightblue" points="64.1708,-93.8087 54.0473,-90.6837 60.0125,-99.4397 64.1708,-93.8087"/>
</g>
<!-- Node6 -->
<g id="node6" class="node"><title>Node6</title>
<g id="a_node6"><a xlink:href="../../d9/d22/classwlp_1_1array2d.html#a3336613e9cdddeefdb03e3b5cbfcc557" target="_top" xlink:title="wlp::array2d::operator[]">
<polygon fill="white" stroke="black" points="118.5,-49.5 118.5,-68.5 235.5,-68.5 235.5,-49.5 118.5,-49.5"/>
<text text-anchor="middle" x="177" y="-56.5" font-family="Helvetica,sans-Serif" font-size="10.00">wlp::array2d::operator[]</text>
</a>
</g>
</g>
<!-- Node1&#45;&gt;Node6 -->
<g id="edge6" class="edge"><title>Node1&#45;&gt;Node6</title>
<path fill="none" stroke="midnightblue" d="M91.7385,-72.834C100.361,-71.4183 109.393,-69.9354 118.209,-68.4881"/>
<polygon fill="midnightblue" stroke="midnightblue" points="91.1424,-69.3849 81.8416,-74.4588 92.2766,-76.2924 91.1424,-69.3849"/>
</g>
<!-- Node7 -->
<g id="node7" class="node"><title>Node7</title>
<g id="a_node7"><a xlink:href="../../d9/d22/classwlp_1_1array2d.html#a009daf652bd5de7d47841970c4c45488" target="_top" xlink:title="wlp::array2d::zero\l_clear">
<polygon fill="white" stroke="black" points="129.5,-0 129.5,-30 224.5,-30 224.5,-0 129.5,-0"/>
<text text-anchor="start" x="137.5" y="-18" font-family="Helvetica,sans-Serif" font-size="10.00">wlp::array2d::zero</text>
<text text-anchor="middle" x="177" y="-7" font-family="Helvetica,sans-Serif" font-size="10.00">_clear</text>
</a>
</g>
</g>
<!-- Node1&#45;&gt;Node7 -->
<g id="edge7" class="edge"><title>Node1&#45;&gt;Node7</title>
<path fill="none" stroke="midnightblue" d="M67.6233,-66.4504C82.2238,-58.3441 100.953,-48.2523 118,-40 124.909,-36.6556 132.376,-33.2709 139.579,-30.1181"/>
<polygon fill="midnightblue" stroke="midnightblue" points="65.7024,-63.5144 58.6841,-71.4513 69.1201,-69.6234 65.7024,-63.5144"/>
</g>
<!-- Node2&#45;&gt;Node3 -->
<g id="edge2" class="edge"><title>Node2&#45;&gt;Node3</title>
<path fill="none" stroke="midnightblue" d="M238.062,-120.618C251.58,-124.584 265.773,-128.747 278.786,-132.564"/>
<polygon fill="midnightblue" stroke="midnightblue" points="238.946,-117.23 228.365,-117.774 236.976,-123.947 238.946,-117.23"/>
</g>
<!-- Node5 -->
<g id="node5" class="node"><title>Node5</title>
<g id="a_node5"><a xlink:href="../../d9/d22/classwlp_1_1array2d.html#a13fb203bc703d01c1f4f316413f4106d" target="_top" xlink:title="wlp::array2d::~array2d">
<polygon fill="white" stroke="black" points="272,-93.5 272,-112.5 386,-112.5 386,-93.5 272,-93.5"/>
<text text-anchor="middle" x="329" y="-100.5" font-family="Helvetica,sans-Serif" font-size="10.00">wlp::array2d::~array2d</text>
</a>
</g>
</g>
<!-- Node2&#45;&gt;Node5 -->
<g id="edge4" class="edge"><title>Node2&#45;&gt;Node5</title>
<path fill="none" stroke="midnightblue" d="M238.7,-103C249.647,-103 261.017,-103 271.829,-103"/>
<polygon fill="midnightblue" stroke="midnightblue" points="238.365,-99.5001 228.365,-103 238.365,-106.5 238.365,-99.5001"/>
</g>
<!-- Node4 -->
<g id="node4" class="node"><title>Node4</title>
<g id="a_node4"><a xlink:href="../../d9/d22/classwlp_1_1array2d.html#a61c51b8fa388107b57973864568f0f5b" target="_top" xlink:title="wlp::array2d::array2d">
<polygon fill="white" stroke="black" points="422,-137.5 422,-156.5 530,-156.5 530,-137.5 422,-137.5"/>
<text text-anchor="middle" x="476" y="-144.5" font-family="Helvetica,sans-Serif" font-size="10.00">wlp::array2d::array2d</text>
</a>
</g>
</g>
<!-- Node3&#45;&gt;Node4 -->
<g id="edge3" class="edge"><title>Node3&#45;&gt;Node4</title>
<path fill="none" stroke="midnightblue" d="M389.309,-147C400.132,-147 411.36,-147 421.985,-147"/>
<polygon fill="midnightblue" stroke="midnightblue" points="389.09,-143.5 379.09,-147 389.09,-150.5 389.09,-143.5"/>
</g>
</g>
</svg>
        <g id="navigator" transform="translate(0 0)" fill="#404254">
                <rect fill="#f2f5e9" fill-opacity="0.5" stroke="#606060" stroke-width=".5" x="0" y="0" width="60" height="60"/>
                <use id="zoomplus" xlink:href="#zoomPlus" x="17" y="9" onmousedown="handleZoom(evt,'in')"/>
                <use id="zoomminus" xlink:href="#zoomMin" x="42" y="9" onmousedown="handleZoom(evt,'out')"/>
                <use id="reset" xlink:href="#resetDef" x="30" y="36" onmousedown="handleReset()"/>
                <g id="arrowUp" xlink:href="#dirArrow" transform="translate(30 24)" onmousedown="handlePan(0,-1)">
                  <use xlink:href="#rim" fill="#404040">
                        <set attributeName="fill" to="#808080" begin="arrowUp.mouseover" end="arrowUp.mouseout"/>
                  </use>
                  <path fill="none" stroke="white" stroke-width="1.5" d="M0,-3.0v7 M-2.5,-0.5L0,-3.0L2.5,-0.5"/>
                </g>
                <g id="arrowRight" xlink:href="#dirArrow" transform="rotate(90) translate(36 -43)" onmousedown="handlePan(1,0)">
                  <use xlink:href="#rim" fill="#404040">
                        <set attributeName="fill" to="#808080" begin="arrowRight.mouseover" end="arrowRight.mouseout"/>
                  </use>
                  <path fill="none" stroke="white" stroke-width="1.5" d="M0,-3.0v7 M-2.5,-0.5L0,-3.0L2.5,-0.5"/>
                </g>
                <g id="arrowDown" xlink:href="#dirArrow" transform="rotate(180) translate(-30 -48)" onmousedown="handlePan(0,1)">
                  <use xlink:href="#rim" fill="#404040">
                        <set attributeName="fill" to="#808080" begin="arrowDown.mouseover" end="arrowDown.mouseout"/>
                  </use>
                  <path fill="none" stroke="white" stroke-width="1.5" d="M0,-3.0v7 M-2.5,-0.5L0,-3.0L2.5,-0.5"/>
                </g>
                <g id="arrowLeft" xlink:href="#dirArrow" transform="rotate(270) translate(-36 17)" onmousedown="handlePan(-1,0)">
                  <use xlink:href="#rim" fill="#404040">
                        <set attributeName="fill" to="#808080" begin="arrowLeft.mouseover" end="arrowLeft.mouseout"/>
                  </use>
                  <path fill="none" stroke="white" stroke-width="1.5" d="M0,-3.0v7 M-2.5,-0.5L0,-3.0L2.5,-0.5"/>
                </g>
        </g>
        <svg viewBox="0 0 15 15" width="100%" height="30px" preserveAspectRatio="xMaxYMin meet">
         <g id="arrow_out" transform="scale(0.3 0.3)">
          <a xlink:href="classwlp_1_1array2d_abd91b733345379599070fe1ed9f49316_icgraph_org.svg" target="_base">
           <rect id="button" ry="5" rx="5" y="6" x="6" height="38" width="38"
                fill="#f2f5e9" fill-opacity="0.5" stroke="#606060" stroke-width="1.0"/>
           <path id="arrow"
             d="M 11.500037,31.436501 C 11.940474,20.09759 22.043105,11.32322 32.158766,21.979434 L 37.068811,17.246167 C 37.068811,17.246167 37.088388,32 37.088388,32 L 22.160133,31.978069 C 22.160133,31.978069 26.997745,27.140456 26.997745,27.140456 C 18.528582,18.264221 13.291696,25.230495 11.500037,31.436501 z"
             style="fill:#404040;"/>
          </a>
         </g>
        </svg>
</svg>
