<?xml version="1.0" encoding="UTF-8" standalone="no"?>
<!DOCTYPE svg PUBLIC "-//W3C//DTD SVG 1.1//EN"
 "http://www.w3.org/Graphics/SVG/1.1/DTD/svg11.dtd">
<!-- Generated by graphviz version 2.36.0 (20140111.2315)
 -->
<!-- Title: wlp::array2d::y Pages: 1 -->
<svg width="370pt" height="38pt"
 viewBox="0.00 0.00 370.00 38.00" xmlns="http://www.w3.org/2000/svg" xmlns:xlink="http://www.w3.org/1999/xlink">
<g id="graph0" class="graph" transform="scale(1 1) rotate(0) translate(4 34)">
<title>wlp::array2d::y</title>
<polygon fill="white" stroke="none" points="-4,4 -4,-34 366,-34 366,4 -4,4"/>
<!-- Node1 -->
<g id="node1" class="node"><title>Node1</title>
<polygon fill="#bfbfbf" stroke="black" points="0.5,-5.5 0.5,-24.5 81.5,-24.5 81.5,-5.5 0.5,-5.5"/>
<text text-anchor="middle" x="41" y="-12.5" font-family="Helvetica,sans-Serif" font-size="10.00">wlp::array2d::y</text>
</g>
<!-- Node2 -->
<g id="node2" class="node"><title>Node2</title>
<g id="a_node2"><a xlink:href="../../d9/d22/classwlp_1_1array2d.html#a85ce47d7bd4eca47962e5972ec655838" target="_top" xlink:title="wlp::array2d::make\l_array">
<polygon fill="white" stroke="black" points="118,-0 118,-30 218,-30 218,-0 118,-0"/>
<text text-anchor="start" x="126" y="-18" font-family="Helvetica,sans-Serif" font-size="10.00">wlp::array2d::make</text>
<text text-anchor="middle" x="168" y="-7" font-family="Helvetica,sans-Serif" font-size="10.00">_array</text>
</a>
</g>
</g>
<!-- Node1&#45;&gt;Node2 -->
<g id="edge1" class="edge"><title>Node1&#45;&gt;Node2</title>
<path fill="none" stroke="midnightblue" d="M91.7288,-15C100.244,-15 109.09,-15 117.597,-15"/>
<polygon fill="midnightblue" stroke="midnightblue" points="91.5508,-11.5001 81.5508,-15 91.5507,-18.5001 91.5508,-11.5001"/>
</g>
<!-- Node3 -->
<g id="node3" class="node"><title>Node3</title>
<g id="a_node3"><a xlink:href="../../d9/d22/classwlp_1_1array2d.html#a61c51b8fa388107b57973864568f0f5b" target="_top" xlink:title="wlp::array2d::array2d">
<polygon fill="white" stroke="black" points="254,-5.5 254,-24.5 362,-24.5 362,-5.5 254,-5.5"/>
<text text-anchor="middle" x="308" y="-12.5" font-family="Helvetica,sans-Serif" font-size="10.00">wlp::array2d::array2d</text>
</a>
</g>
</g>
<!-- Node2&#45;&gt;Node3 -->
<g id="edge2" class="edge"><title>Node2&#45;&gt;Node3</title>
<path fill="none" stroke="midnightblue" d="M228.291,-15C236.804,-15 245.518,-15 253.902,-15"/>
<polygon fill="midnightblue" stroke="midnightblue" points="228.042,-11.5001 218.042,-15 228.042,-18.5001 228.042,-11.5001"/>
</g>
</g>
</svg>
