<?xml version="1.0" encoding="UTF-8" standalone="no"?>
<!DOCTYPE svg PUBLIC "-//W3C//DTD SVG 1.1//EN"
 "http://www.w3.org/Graphics/SVG/1.1/DTD/svg11.dtd">
<!-- Generated by graphviz version 2.36.0 (20140111.2315)
 -->
<!-- Title: wlp::array2d::~array2d Pages: 1 -->
<svg width="378pt" height="38pt"
 viewBox="0.00 0.00 378.00 38.00" xmlns="http://www.w3.org/2000/svg" xmlns:xlink="http://www.w3.org/1999/xlink">
<g id="graph0" class="graph" transform="scale(1 1) rotate(0) translate(4 34)">
<title>wlp::array2d::~array2d</title>
<polygon fill="white" stroke="none" points="-4,4 -4,-34 374,-34 374,4 -4,4"/>
<!-- Node1 -->
<g id="node1" class="node"><title>Node1</title>
<polygon fill="#bfbfbf" stroke="black" points="0,-5.5 0,-24.5 114,-24.5 114,-5.5 0,-5.5"/>
<text text-anchor="middle" x="57" y="-12.5" font-family="Helvetica,sans-Serif" font-size="10.00">wlp::array2d::~array2d</text>
</g>
<!-- Node2 -->
<g id="node2" class="node"><title>Node2</title>
<g id="a_node2"><a xlink:href="../../d9/d22/classwlp_1_1array2d.html#aa0a5271b03835f084f66439078ea9d14" target="_top" xlink:title="wlp::array2d::delete\l_array">
<polygon fill="white" stroke="black" points="150,-0 150,-30 252,-30 252,-0 150,-0"/>
<text text-anchor="start" x="158" y="-18" font-family="Helvetica,sans-Serif" font-size="10.00">wlp::array2d::delete</text>
<text text-anchor="middle" x="201" y="-7" font-family="Helvetica,sans-Serif" font-size="10.00">_array</text>
</a>
</g>
</g>
<!-- Node1&#45;&gt;Node2 -->
<g id="edge1" class="edge"><title>Node1&#45;&gt;Node2</title>
<path fill="none" stroke="midnightblue" d="M114.122,-15C122.499,-15 131.166,-15 139.627,-15"/>
<polygon fill="midnightblue" stroke="midnightblue" points="139.811,-18.5001 149.811,-15 139.811,-11.5001 139.811,-18.5001"/>
</g>
<!-- Node3 -->
<g id="node3" class="node"><title>Node3</title>
<g id="a_node3"><a xlink:href="../../d9/d22/classwlp_1_1array2d.html#abd91b733345379599070fe1ed9f49316" target="_top" xlink:title="wlp::array2d::x">
<polygon fill="white" stroke="black" points="288.5,-5.5 288.5,-24.5 369.5,-24.5 369.5,-5.5 288.5,-5.5"/>
<text text-anchor="middle" x="329" y="-12.5" font-family="Helvetica,sans-Serif" font-size="10.00">wlp::array2d::x</text>
</a>
</g>
</g>
<!-- Node2&#45;&gt;Node3 -->
<g id="edge2" class="edge"><title>Node2&#45;&gt;Node3</title>
<path fill="none" stroke="midnightblue" d="M252.161,-15C260.748,-15 269.667,-15 278.243,-15"/>
<polygon fill="midnightblue" stroke="midnightblue" points="278.489,-18.5001 288.489,-15 278.489,-11.5001 278.489,-18.5001"/>
</g>
</g>
</svg>
