<?xml version="1.0" encoding="UTF-8" standalone="no"?>
<!DOCTYPE svg PUBLIC "-//W3C//DTD SVG 1.1//EN"
 "http://www.w3.org/Graphics/SVG/1.1/DTD/svg11.dtd">
<!-- Generated by graphviz version 2.36.0 (20140111.2315)
 -->
<!-- Title: wlp::array2d::delete_array Pages: 1 -->
<svg width="404pt" height="77pt"
 viewBox="0.00 0.00 404.00 77.00" xmlns="http://www.w3.org/2000/svg" xmlns:xlink="http://www.w3.org/1999/xlink">
<g id="graph0" class="graph" transform="scale(1 1) rotate(0) translate(4 73)">
<title>wlp::array2d::delete_array</title>
<polygon fill="white" stroke="none" points="-4,4 -4,-73 400,-73 400,4 -4,4"/>
<!-- Node1 -->
<g id="node1" class="node"><title>Node1</title>
<polygon fill="#bfbfbf" stroke="black" points="0,-17 0,-47 102,-47 102,-17 0,-17"/>
<text text-anchor="start" x="8" y="-35" font-family="Helvetica,sans-Serif" font-size="10.00">wlp::array2d::delete</text>
<text text-anchor="middle" x="51" y="-24" font-family="Helvetica,sans-Serif" font-size="10.00">_array</text>
</g>
<!-- Node2 -->
<g id="node2" class="node"><title>Node2</title>
<g id="a_node2"><a xlink:href="../../d9/d22/classwlp_1_1array2d.html#a85ce47d7bd4eca47962e5972ec655838" target="_top" xlink:title="wlp::array2d::make\l_array">
<polygon fill="white" stroke="black" points="145,-39 145,-69 245,-69 245,-39 145,-39"/>
<text text-anchor="start" x="153" y="-57" font-family="Helvetica,sans-Serif" font-size="10.00">wlp::array2d::make</text>
<text text-anchor="middle" x="195" y="-46" font-family="Helvetica,sans-Serif" font-size="10.00">_array</text>
</a>
</g>
</g>
<!-- Node1&#45;&gt;Node2 -->
<g id="edge1" class="edge"><title>Node1&#45;&gt;Node2</title>
<path fill="none" stroke="midnightblue" d="M111.996,-41.2951C122.953,-42.9928 134.27,-44.746 144.866,-46.3877"/>
<polygon fill="midnightblue" stroke="midnightblue" points="112.482,-37.8288 102.064,-39.7564 111.41,-44.7462 112.482,-37.8288"/>
</g>
<!-- Node4 -->
<g id="node4" class="node"><title>Node4</title>
<g id="a_node4"><a xlink:href="../../d9/d22/classwlp_1_1array2d.html#a13fb203bc703d01c1f4f316413f4106d" target="_top" xlink:title="wlp::array2d::~array2d">
<polygon fill="white" stroke="black" points="138,-0.5 138,-19.5 252,-19.5 252,-0.5 138,-0.5"/>
<text text-anchor="middle" x="195" y="-7.5" font-family="Helvetica,sans-Serif" font-size="10.00">wlp::array2d::~array2d</text>
</a>
</g>
</g>
<!-- Node1&#45;&gt;Node4 -->
<g id="edge3" class="edge"><title>Node1&#45;&gt;Node4</title>
<path fill="none" stroke="midnightblue" d="M112.204,-22.6727C120.628,-21.3675 129.26,-20.0301 137.61,-18.7365"/>
<polygon fill="midnightblue" stroke="midnightblue" points="111.41,-19.2538 102.064,-24.2436 112.482,-26.1712 111.41,-19.2538"/>
</g>
<!-- Node3 -->
<g id="node3" class="node"><title>Node3</title>
<g id="a_node3"><a xlink:href="../../d9/d22/classwlp_1_1array2d.html#a61c51b8fa388107b57973864568f0f5b" target="_top" xlink:title="wlp::array2d::array2d">
<polygon fill="white" stroke="black" points="288,-44.5 288,-63.5 396,-63.5 396,-44.5 288,-44.5"/>
<text text-anchor="middle" x="342" y="-51.5" font-family="Helvetica,sans-Serif" font-size="10.00">wlp::array2d::array2d</text>
</a>
</g>
</g>
<!-- Node2&#45;&gt;Node3 -->
<g id="edge2" class="edge"><title>Node2&#45;&gt;Node3</title>
<path fill="none" stroke="midnightblue" d="M255.309,-54C266.132,-54 277.36,-54 287.985,-54"/>
<polygon fill="midnightblue" stroke="midnightblue" points="255.09,-50.5001 245.09,-54 255.09,-57.5001 255.09,-50.5001"/>
</g>
</g>
</svg>
