<?xml version="1.0" encoding="UTF-8" standalone="no"?>
<!DOCTYPE svg PUBLIC "-//W3C//DTD SVG 1.1//EN"
 "http://www.w3.org/Graphics/SVG/1.1/DTD/svg11.dtd">
<!-- Generated by graphviz version 2.36.0 (20140111.2315)
 -->
<!-- Title: wlp::TreeMap::insert_or_assign Pages: 1 -->
<svg width="256pt" height="77pt"
 viewBox="0.00 0.00 256.00 77.00" xmlns="http://www.w3.org/2000/svg" xmlns:xlink="http://www.w3.org/1999/xlink">
<g id="graph0" class="graph" transform="scale(1 1) rotate(0) translate(4 73)">
<title>wlp::TreeMap::insert_or_assign</title>
<polygon fill="white" stroke="none" points="-4,4 -4,-73 252,-73 252,4 -4,4"/>
<!-- Node1 -->
<g id="node1" class="node"><title>Node1</title>
<polygon fill="#bfbfbf" stroke="black" points="0,-17 0,-47 106,-47 106,-17 0,-17"/>
<text text-anchor="start" x="8" y="-35" font-family="Helvetica,sans-Serif" font-size="10.00">wlp::TreeMap::insert</text>
<text text-anchor="middle" x="53" y="-24" font-family="Helvetica,sans-Serif" font-size="10.00">_or_assign</text>
</g>
<!-- Node2 -->
<g id="node2" class="node"><title>Node2</title>
<g id="a_node2"><a xlink:href="../../d3/def/classwlp_1_1_red_black_tree.html#a362fc1a0c7350cb50453e43ef6ed9788" target="_top" xlink:title="wlp::RedBlackTree::\linsert_unique">
<polygon fill="white" stroke="black" points="142,-39 142,-69 248,-69 248,-39 142,-39"/>
<text text-anchor="start" x="150" y="-57" font-family="Helvetica,sans-Serif" font-size="10.00">wlp::RedBlackTree::</text>
<text text-anchor="middle" x="195" y="-46" font-family="Helvetica,sans-Serif" font-size="10.00">insert_unique</text>
</a>
</g>
</g>
<!-- Node1&#45;&gt;Node2 -->
<g id="edge1" class="edge"><title>Node1&#45;&gt;Node2</title>
<path fill="none" stroke="midnightblue" d="M106.131,-40.192C114.512,-41.5091 123.26,-42.8838 131.849,-44.2333"/>
<polygon fill="midnightblue" stroke="midnightblue" points="131.403,-47.7063 141.826,-45.8012 132.49,-40.7911 131.403,-47.7063"/>
</g>
<!-- Node3 -->
<g id="node3" class="node"><title>Node3</title>
<g id="a_node3"><a xlink:href="../../d5/dca/namespacewlp.html#a94b93d689170305bf7c08b5a6545bb6f" target="_top" xlink:title="wlp::make_tuple">
<polygon fill="white" stroke="black" points="151,-0.5 151,-19.5 239,-19.5 239,-0.5 151,-0.5"/>
<text text-anchor="middle" x="195" y="-7.5" font-family="Helvetica,sans-Serif" font-size="10.00">wlp::make_tuple</text>
</a>
</g>
</g>
<!-- Node1&#45;&gt;Node3 -->
<g id="edge2" class="edge"><title>Node1&#45;&gt;Node3</title>
<path fill="none" stroke="midnightblue" d="M106.131,-23.808C117.44,-22.0309 129.416,-20.1489 140.767,-18.3652"/>
<polygon fill="midnightblue" stroke="midnightblue" points="141.643,-21.7706 150.978,-16.7605 140.556,-14.8554 141.643,-21.7706"/>
</g>
</g>
</svg>
