<?xml version="1.0" encoding="UTF-8" standalone="no"?>
<!DOCTYPE svg PUBLIC "-//W3C//DTD SVG 1.1//EN"
 "http://www.w3.org/Graphics/SVG/1.1/DTD/svg11.dtd">
<!-- Generated by graphviz version 2.38.0 (20140413.2041)
 -->
<!-- Title: memory/Allocator.h Pages: 1 -->
<svg width="564pt" height="140pt"
 viewBox="0.00 0.00 563.50 140.00" xmlns="http://www.w3.org/2000/svg" xmlns:xlink="http://www.w3.org/1999/xlink">
<g id="graph0" class="graph" transform="scale(1 1) rotate(0) translate(4 136)">
<title>memory/Allocator.h</title>
<polygon fill="white" stroke="none" points="-4,4 -4,-136 559.5,-136 559.5,4 -4,4"/>
<!-- Node3 -->
<g id="node1" class="node"><title>Node3</title>
<polygon fill="#bfbfbf" stroke="black" points="244.5,-112.5 244.5,-131.5 345.5,-131.5 345.5,-112.5 244.5,-112.5"/>
<text text-anchor="middle" x="295" y="-119.5" font-family="Helvetica,sans-Serif" font-size="10.00">memory/Allocator.h</text>
</g>
<!-- Node4 -->
<g id="node2" class="node"><title>Node4</title>
<g id="a_node2"><a xlink:href="../../d0/d55/_allocator_8cpp.html" target="_top" xlink:title="Implementation of Allocator. ">
<polygon fill="white" stroke="black" points="0,-56.5 0,-75.5 112,-75.5 112,-56.5 0,-56.5"/>
<text text-anchor="middle" x="56" y="-63.5" font-family="Helvetica,sans-Serif" font-size="10.00">memory/Allocator.cpp</text>
</a>
</g>
</g>
<!-- Node3&#45;&gt;Node4 -->
<g id="edge1" class="edge"><title>Node3&#45;&gt;Node4</title>
<path fill="none" stroke="midnightblue" d="M247.276,-110.217C202.115,-100.013 135.227,-84.9006 93.6931,-75.5164"/>
<polygon fill="midnightblue" stroke="midnightblue" points="246.604,-113.654 257.13,-112.444 248.147,-106.826 246.604,-113.654"/>
</g>
<!-- Node5 -->
<g id="node3" class="node"><title>Node5</title>
<g id="a_node3"><a xlink:href="../../de/dbd/_dynamic_allocator_pool_8h.html" target="_top" xlink:title="Template class to create Dynamic memory pools. ">
<polygon fill="white" stroke="black" points="130.5,-56.5 130.5,-75.5 289.5,-75.5 289.5,-56.5 130.5,-56.5"/>
<text text-anchor="middle" x="210" y="-63.5" font-family="Helvetica,sans-Serif" font-size="10.00">memory/DynamicAllocatorPool.h</text>
</a>
</g>
</g>
<!-- Node3&#45;&gt;Node5 -->
<g id="edge2" class="edge"><title>Node3&#45;&gt;Node5</title>
<path fill="none" stroke="midnightblue" d="M272.806,-106.901C257.22,-96.9986 236.87,-84.0705 223.623,-75.6545"/>
<polygon fill="midnightblue" stroke="midnightblue" points="271.026,-109.916 281.343,-112.324 274.779,-104.007 271.026,-109.916"/>
</g>
<!-- Node7 -->
<g id="node5" class="node"><title>Node7</title>
<g id="a_node5"><a xlink:href="../../de/d41/_static_allocator_pool_8h.html" target="_top" xlink:title="Template class to create static memory pools. ">
<polygon fill="white" stroke="black" points="308,-56.5 308,-75.5 454,-75.5 454,-56.5 308,-56.5"/>
<text text-anchor="middle" x="381" y="-63.5" font-family="Helvetica,sans-Serif" font-size="10.00">memory/StaticAllocatorPool.h</text>
</a>
</g>
</g>
<!-- Node3&#45;&gt;Node7 -->
<g id="edge4" class="edge"><title>Node3&#45;&gt;Node7</title>
<path fill="none" stroke="midnightblue" d="M317.455,-106.901C333.224,-96.9986 353.814,-84.0705 367.217,-75.6545"/>
<polygon fill="midnightblue" stroke="midnightblue" points="315.425,-104.042 308.817,-112.324 319.148,-109.97 315.425,-104.042"/>
</g>
<!-- Node8 -->
<g id="node6" class="node"><title>Node8</title>
<g id="a_node6"><a xlink:href="../../de/dc6/_linked_list_8h.html" target="_top" xlink:title="stl/LinkedList.h">
<polygon fill="white" stroke="black" points="472.5,-56.5 472.5,-75.5 555.5,-75.5 555.5,-56.5 472.5,-56.5"/>
<text text-anchor="middle" x="514" y="-63.5" font-family="Helvetica,sans-Serif" font-size="10.00">stl/LinkedList.h</text>
</a>
</g>
</g>
<!-- Node3&#45;&gt;Node8 -->
<g id="edge6" class="edge"><title>Node3&#45;&gt;Node8</title>
<path fill="none" stroke="midnightblue" d="M339.515,-110.024C380.884,-99.8232 441.643,-84.8414 479.461,-75.5164"/>
<polygon fill="midnightblue" stroke="midnightblue" points="338.572,-106.651 329.701,-112.444 340.248,-113.448 338.572,-106.651"/>
</g>
<!-- Node6 -->
<g id="node4" class="node"><title>Node6</title>
<g id="a_node4"><a xlink:href="../../df/d64/_memory_8cpp.html" target="_top" xlink:title="Implementation of Memory functions. ">
<polygon fill="white" stroke="black" points="240.5,-0.5 240.5,-19.5 349.5,-19.5 349.5,-0.5 240.5,-0.5"/>
<text text-anchor="middle" x="295" y="-7.5" font-family="Helvetica,sans-Serif" font-size="10.00">memory/Memory.cpp</text>
</a>
</g>
</g>
<!-- Node5&#45;&gt;Node6 -->
<g id="edge3" class="edge"><title>Node5&#45;&gt;Node6</title>
<path fill="none" stroke="midnightblue" d="M232.194,-50.9005C247.78,-40.9986 268.13,-28.0705 281.377,-19.6545"/>
<polygon fill="midnightblue" stroke="midnightblue" points="230.221,-48.0073 223.657,-56.324 233.974,-53.9158 230.221,-48.0073"/>
</g>
<!-- Node7&#45;&gt;Node6 -->
<g id="edge5" class="edge"><title>Node7&#45;&gt;Node6</title>
<path fill="none" stroke="midnightblue" d="M358.545,-50.9005C342.776,-40.9986 322.186,-28.0705 308.783,-19.6545"/>
<polygon fill="midnightblue" stroke="midnightblue" points="356.852,-53.9704 367.183,-56.324 360.575,-48.0421 356.852,-53.9704"/>
</g>
</g>
</svg>
