<?xml version="1.0" encoding="UTF-8" standalone="no"?>
<!DOCTYPE svg PUBLIC "-//W3C//DTD SVG 1.1//EN"
 "http://www.w3.org/Graphics/SVG/1.1/DTD/svg11.dtd">
<!-- Generated by graphviz version 2.36.0 (20140111.2315)
 -->
<!-- Title: wlib/memory/Allocator.h Pages: 1 -->
<svg width="467pt" height="152pt"
 viewBox="0.00 0.00 467.00 152.00" xmlns="http://www.w3.org/2000/svg" xmlns:xlink="http://www.w3.org/1999/xlink">
<g id="graph0" class="graph" transform="scale(1 1) rotate(0) translate(4 148)">
<title>wlib/memory/Allocator.h</title>
<polygon fill="white" stroke="none" points="-4,4 -4,-148 463,-148 463,4 -4,4"/>
<!-- Node1 -->
<g id="node1" class="node"><title>Node1</title>
<polygon fill="#bfbfbf" stroke="black" points="165,-124.5 165,-143.5 287,-143.5 287,-124.5 165,-124.5"/>
<text text-anchor="middle" x="226" y="-131.5" font-family="Helvetica,sans-Serif" font-size="10.00">wlib/memory/Allocator.h</text>
</g>
<!-- Node2 -->
<g id="node2" class="node"><title>Node2</title>
<g id="a_node2"><a xlink:href="../../d0/d55/_allocator_8cpp.html" target="_top" xlink:title="Implementation of Allocator. ">
<polygon fill="white" stroke="black" points="0,-62.5 0,-81.5 132,-81.5 132,-62.5 0,-62.5"/>
<text text-anchor="middle" x="66" y="-69.5" font-family="Helvetica,sans-Serif" font-size="10.00">wlib/memory/Allocator.cpp</text>
</a>
</g>
</g>
<!-- Node1&#45;&gt;Node2 -->
<g id="edge1" class="edge"><title>Node1&#45;&gt;Node2</title>
<path fill="none" stroke="midnightblue" d="M193.551,-120.831C162.453,-109.17 116.308,-91.8655 88.8816,-81.5806"/>
<polygon fill="midnightblue" stroke="midnightblue" points="192.484,-124.169 203.076,-124.403 194.942,-117.615 192.484,-124.169"/>
</g>
<!-- Node3 -->
<g id="node3" class="node"><title>Node3</title>
<g id="a_node3"><a xlink:href="../../de/dbd/_dynamic_allocator_pool_8h.html" target="_top" xlink:title="Template class to create Dynamic memory pools. ">
<polygon fill="white" stroke="black" points="150,-57 150,-87 302,-87 302,-57 150,-57"/>
<text text-anchor="start" x="158" y="-75" font-family="Helvetica,sans-Serif" font-size="10.00">wlib/memory/DynamicAllocator</text>
<text text-anchor="middle" x="226" y="-64" font-family="Helvetica,sans-Serif" font-size="10.00">Pool.h</text>
</a>
</g>
</g>
<!-- Node1&#45;&gt;Node3 -->
<g id="edge2" class="edge"><title>Node1&#45;&gt;Node3</title>
<path fill="none" stroke="midnightblue" d="M226,-114.371C226,-105.585 226,-95.2721 226,-87.1408"/>
<polygon fill="midnightblue" stroke="midnightblue" points="222.5,-114.403 226,-124.403 229.5,-114.403 222.5,-114.403"/>
</g>
<!-- Node5 -->
<g id="node5" class="node"><title>Node5</title>
<g id="a_node5"><a xlink:href="../../de/d41/_static_allocator_pool_8h.html" target="_top" xlink:title="Template class to create static memory pools. ">
<polygon fill="white" stroke="black" points="320.5,-57 320.5,-87 459.5,-87 459.5,-57 320.5,-57"/>
<text text-anchor="start" x="328.5" y="-75" font-family="Helvetica,sans-Serif" font-size="10.00">wlib/memory/StaticAllocator</text>
<text text-anchor="middle" x="390" y="-64" font-family="Helvetica,sans-Serif" font-size="10.00">Pool.h</text>
</a>
</g>
</g>
<!-- Node1&#45;&gt;Node5 -->
<g id="edge4" class="edge"><title>Node1&#45;&gt;Node5</title>
<path fill="none" stroke="midnightblue" d="M259.177,-120.862C285.94,-111.071 323.614,-97.2876 351.664,-87.0253"/>
<polygon fill="midnightblue" stroke="midnightblue" points="257.686,-117.681 249.497,-124.403 260.091,-124.255 257.686,-117.681"/>
</g>
<!-- Node4 -->
<g id="node4" class="node"><title>Node4</title>
<g id="a_node4"><a xlink:href="../../df/d64/_memory_8cpp.html" target="_top" xlink:title="Implementation of Memory functions. ">
<polygon fill="white" stroke="black" points="243.5,-0.5 243.5,-19.5 372.5,-19.5 372.5,-0.5 243.5,-0.5"/>
<text text-anchor="middle" x="308" y="-7.5" font-family="Helvetica,sans-Serif" font-size="10.00">wlib/memory/Memory.cpp</text>
</a>
</g>
</g>
<!-- Node3&#45;&gt;Node4 -->
<g id="edge3" class="edge"><title>Node3&#45;&gt;Node4</title>
<path fill="none" stroke="midnightblue" d="M253.586,-50.8148C268.032,-40.245 284.974,-27.8485 296.068,-19.7305"/>
<polygon fill="midnightblue" stroke="midnightblue" points="251.436,-48.0511 245.433,-56.7808 255.57,-53.7003 251.436,-48.0511"/>
</g>
<!-- Node5&#45;&gt;Node4 -->
<g id="edge5" class="edge"><title>Node5&#45;&gt;Node4</title>
<path fill="none" stroke="midnightblue" d="M362.414,-50.8148C347.968,-40.245 331.026,-27.8485 319.932,-19.7305"/>
<polygon fill="midnightblue" stroke="midnightblue" points="360.43,-53.7003 370.567,-56.7808 364.564,-48.0511 360.43,-53.7003"/>
</g>
</g>
</svg>
