<?xml version="1.0" encoding="UTF-8" standalone="no"?>
<!DOCTYPE svg PUBLIC "-//W3C//DTD SVG 1.1//EN"
 "http://www.w3.org/Graphics/SVG/1.1/DTD/svg11.dtd">
<!-- Generated by graphviz version 2.36.0 (20140111.2315)
 -->
<!-- Title: wlp::LinkedList::insert Pages: 1 -->
<svg width="292pt" height="66pt"
 viewBox="0.00 0.00 292.00 66.00" xmlns="http://www.w3.org/2000/svg" xmlns:xlink="http://www.w3.org/1999/xlink">
<g id="graph0" class="graph" transform="scale(1 1) rotate(0) translate(4 62)">
<title>wlp::LinkedList::insert</title>
<polygon fill="white" stroke="none" points="-4,4 -4,-62 288,-62 288,4 -4,4"/>
<!-- Node1 -->
<g id="node1" class="node"><title>Node1</title>
<polygon fill="#bfbfbf" stroke="black" points="0,-19.5 0,-38.5 112,-38.5 112,-19.5 0,-19.5"/>
<text text-anchor="middle" x="56" y="-26.5" font-family="Helvetica,sans-Serif" font-size="10.00">wlp::LinkedList::insert</text>
</g>
<!-- Node2 -->
<g id="node2" class="node"><title>Node2</title>
<g id="a_node2"><a xlink:href="../../d6/d0e/classwlp_1_1_linked_list.html#a811cd04e8376ea5e54adaa090d92d788" target="_top" xlink:title="wlp::LinkedList::end">
<polygon fill="white" stroke="black" points="164,-38.5 164,-57.5 268,-57.5 268,-38.5 164,-38.5"/>
<text text-anchor="middle" x="216" y="-45.5" font-family="Helvetica,sans-Serif" font-size="10.00">wlp::LinkedList::end</text>
</a>
</g>
</g>
<!-- Node1&#45;&gt;Node2 -->
<g id="edge1" class="edge"><title>Node1&#45;&gt;Node2</title>
<path fill="none" stroke="midnightblue" d="M112.261,-35.6453C125.592,-37.2485 139.919,-38.9712 153.516,-40.6063"/>
<polygon fill="midnightblue" stroke="midnightblue" points="153.396,-44.1171 163.743,-41.8362 154.232,-37.1672 153.396,-44.1171"/>
</g>
<!-- Node3 -->
<g id="node3" class="node"><title>Node3</title>
<g id="a_node3"><a xlink:href="../../d6/d0e/classwlp_1_1_linked_list.html#ac1df30c7ac06cb7b3643edb20aebc185" target="_top" xlink:title="wlp::LinkedList::push_back">
<polygon fill="white" stroke="black" points="148.5,-0.5 148.5,-19.5 283.5,-19.5 283.5,-0.5 148.5,-0.5"/>
<text text-anchor="middle" x="216" y="-7.5" font-family="Helvetica,sans-Serif" font-size="10.00">wlp::LinkedList::push_back</text>
</a>
</g>
</g>
<!-- Node1&#45;&gt;Node3 -->
<g id="edge2" class="edge"><title>Node1&#45;&gt;Node3</title>
<path fill="none" stroke="midnightblue" d="M112.261,-22.3547C120.731,-21.3362 129.602,-20.2694 138.433,-19.2074"/>
<polygon fill="midnightblue" stroke="midnightblue" points="138.852,-22.6824 148.362,-18.0134 138.016,-15.7324 138.852,-22.6824"/>
</g>
</g>
</svg>
