<?xml version="1.0" encoding="UTF-8" standalone="no"?>
<!DOCTYPE svg PUBLIC "-//W3C//DTD SVG 1.1//EN"
 "http://www.w3.org/Graphics/SVG/1.1/DTD/svg11.dtd">
<!-- Generated by graphviz version 2.36.0 (20140111.2315)
 -->
<!-- Title: wlp::HashMap::contains Pages: 1 -->
<svg width="274pt" height="66pt"
 viewBox="0.00 0.00 274.00 66.00" xmlns="http://www.w3.org/2000/svg" xmlns:xlink="http://www.w3.org/1999/xlink">
<g id="graph0" class="graph" transform="scale(1 1) rotate(0) translate(4 62)">
<title>wlp::HashMap::contains</title>
<polygon fill="white" stroke="none" points="-4,4 -4,-62 270,-62 270,4 -4,4"/>
<!-- Node1 -->
<g id="node1" class="node"><title>Node1</title>
<polygon fill="#bfbfbf" stroke="black" points="0,-19.5 0,-38.5 122,-38.5 122,-19.5 0,-19.5"/>
<text text-anchor="middle" x="61" y="-26.5" font-family="Helvetica,sans-Serif" font-size="10.00">wlp::HashMap::contains</text>
</g>
<!-- Node2 -->
<g id="node2" class="node"><title>Node2</title>
<g id="a_node2"><a xlink:href="../../d8/de2/classwlp_1_1_hash_table.html#a15b03db538dd0dce10c56f89a1897eab" target="_top" xlink:title="wlp::HashTable::end">
<polygon fill="white" stroke="black" points="158.5,-38.5 158.5,-57.5 265.5,-57.5 265.5,-38.5 158.5,-38.5"/>
<text text-anchor="middle" x="212" y="-45.5" font-family="Helvetica,sans-Serif" font-size="10.00">wlp::HashTable::end</text>
</a>
</g>
</g>
<!-- Node1&#45;&gt;Node2 -->
<g id="edge1" class="edge"><title>Node1&#45;&gt;Node2</title>
<path fill="none" stroke="midnightblue" d="M122.175,-36.6733C130.766,-37.7688 139.622,-38.8981 148.261,-39.9998"/>
<polygon fill="midnightblue" stroke="midnightblue" points="147.912,-43.4835 158.275,-41.2767 148.798,-36.5398 147.912,-43.4835"/>
</g>
<!-- Node3 -->
<g id="node3" class="node"><title>Node3</title>
<g id="a_node3"><a xlink:href="../../d8/de2/classwlp_1_1_hash_table.html#add1d56ee69a210633f07aafde579cb9c" target="_top" xlink:title="wlp::HashTable::find">
<polygon fill="white" stroke="black" points="158.5,-0.5 158.5,-19.5 265.5,-19.5 265.5,-0.5 158.5,-0.5"/>
<text text-anchor="middle" x="212" y="-7.5" font-family="Helvetica,sans-Serif" font-size="10.00">wlp::HashTable::find</text>
</a>
</g>
</g>
<!-- Node1&#45;&gt;Node3 -->
<g id="edge2" class="edge"><title>Node1&#45;&gt;Node3</title>
<path fill="none" stroke="midnightblue" d="M122.175,-21.3267C130.766,-20.2312 139.622,-19.1019 148.261,-18.0002"/>
<polygon fill="midnightblue" stroke="midnightblue" points="148.798,-21.4602 158.275,-16.7233 147.912,-14.5165 148.798,-21.4602"/>
</g>
</g>
</svg>
