<?xml version="1.0" encoding="UTF-8" standalone="no"?>
<!DOCTYPE svg PUBLIC "-//W3C//DTD SVG 1.1//EN"
 "http://www.w3.org/Graphics/SVG/1.1/DTD/svg11.dtd">
<!-- Generated by graphviz version 2.36.0 (20140111.2315)
 -->
<!-- Title: wlp::UniquePtr::get Pages: 1 -->
<svg width="232pt" height="180pt"
 viewBox="0.00 0.00 232.00 180.00" xmlns="http://www.w3.org/2000/svg" xmlns:xlink="http://www.w3.org/1999/xlink">
<g id="graph0" class="graph" transform="scale(1 1) rotate(0) translate(4 176)">
<title>wlp::UniquePtr::get</title>
<polygon fill="white" stroke="none" points="-4,4 -4,-176 228,-176 228,4 -4,4"/>
<!-- Node1 -->
<g id="node1" class="node"><title>Node1</title>
<polygon fill="#bfbfbf" stroke="black" points="0.5,-76.5 0.5,-95.5 101.5,-95.5 101.5,-76.5 0.5,-76.5"/>
<text text-anchor="middle" x="51" y="-83.5" font-family="Helvetica,sans-Serif" font-size="10.00">wlp::UniquePtr::get</text>
</g>
<!-- Node2 -->
<g id="node2" class="node"><title>Node2</title>
<g id="a_node2"><a xlink:href="../../d5/dca/namespacewlp.html#a6ef19ef879404ede3824dd03e5063040" target="_top" xlink:title="wlp::operator!=">
<polygon fill="white" stroke="black" points="140,-152.5 140,-171.5 222,-171.5 222,-152.5 140,-152.5"/>
<text text-anchor="middle" x="181" y="-159.5" font-family="Helvetica,sans-Serif" font-size="10.00">wlp::operator!=</text>
</a>
</g>
</g>
<!-- Node1&#45;&gt;Node2 -->
<g id="edge1" class="edge"><title>Node1&#45;&gt;Node2</title>
<path fill="none" stroke="midnightblue" d="M73.1488,-101.403C90.2009,-113.478 115.04,-130.305 138,-143 144.023,-146.33 150.74,-149.567 157.003,-152.398"/>
<polygon fill="midnightblue" stroke="midnightblue" points="75.1623,-98.5398 64.9927,-95.5684 71.0896,-104.233 75.1623,-98.5398"/>
</g>
<!-- Node3 -->
<g id="node3" class="node"><title>Node3</title>
<g id="a_node3"><a xlink:href="../../d5/dca/namespacewlp.html#a4ab1e68b205edf75e2cc5c2c4b0b19fb" target="_top" xlink:title="wlp::operator\&lt;">
<polygon fill="white" stroke="black" points="141.5,-114.5 141.5,-133.5 220.5,-133.5 220.5,-114.5 141.5,-114.5"/>
<text text-anchor="middle" x="181" y="-121.5" font-family="Helvetica,sans-Serif" font-size="10.00">wlp::operator&lt;</text>
</a>
</g>
</g>
<!-- Node1&#45;&gt;Node3 -->
<g id="edge2" class="edge"><title>Node1&#45;&gt;Node3</title>
<path fill="none" stroke="midnightblue" d="M94.2242,-98.5353C111.637,-103.705 131.492,-109.599 147.711,-114.414"/>
<polygon fill="midnightblue" stroke="midnightblue" points="94.8824,-95.0798 84.2998,-95.589 92.8902,-101.79 94.8824,-95.0798"/>
</g>
<!-- Node4 -->
<g id="node4" class="node"><title>Node4</title>
<g id="a_node4"><a xlink:href="../../d5/dca/namespacewlp.html#ab37f878e1fc5a2d458cbb4139f66d290" target="_top" xlink:title="wlp::operator==">
<polygon fill="white" stroke="black" points="138.5,-76.5 138.5,-95.5 223.5,-95.5 223.5,-76.5 138.5,-76.5"/>
<text text-anchor="middle" x="181" y="-83.5" font-family="Helvetica,sans-Serif" font-size="10.00">wlp::operator==</text>
</a>
</g>
</g>
<!-- Node1&#45;&gt;Node4 -->
<g id="edge3" class="edge"><title>Node1&#45;&gt;Node4</title>
<path fill="none" stroke="midnightblue" d="M111.88,-86C120.833,-86 129.895,-86 138.359,-86"/>
<polygon fill="midnightblue" stroke="midnightblue" points="111.855,-82.5001 101.855,-86 111.855,-89.5001 111.855,-82.5001"/>
</g>
<!-- Node5 -->
<g id="node5" class="node"><title>Node5</title>
<g id="a_node5"><a xlink:href="../../d5/dca/namespacewlp.html#a69c51dbde0afdd8120e358ce45b7a12f" target="_top" xlink:title="wlp::operator\&gt;">
<polygon fill="white" stroke="black" points="141.5,-38.5 141.5,-57.5 220.5,-57.5 220.5,-38.5 141.5,-38.5"/>
<text text-anchor="middle" x="181" y="-45.5" font-family="Helvetica,sans-Serif" font-size="10.00">wlp::operator&gt;</text>
</a>
</g>
</g>
<!-- Node1&#45;&gt;Node5 -->
<g id="edge4" class="edge"><title>Node1&#45;&gt;Node5</title>
<path fill="none" stroke="midnightblue" d="M94.2242,-73.4647C111.637,-68.2952 131.492,-62.4009 147.711,-57.5859"/>
<polygon fill="midnightblue" stroke="midnightblue" points="92.8902,-70.2097 84.2998,-76.411 94.8824,-76.9202 92.8902,-70.2097"/>
</g>
<!-- Node6 -->
<g id="node6" class="node"><title>Node6</title>
<g id="a_node6"><a xlink:href="../../d5/dca/namespacewlp.html#a000d6257ac9fb0a560b22e539c9f6dc5" target="_top" xlink:title="wlp::operator\&gt;=">
<polygon fill="white" stroke="black" points="138.5,-0.5 138.5,-19.5 223.5,-19.5 223.5,-0.5 138.5,-0.5"/>
<text text-anchor="middle" x="181" y="-7.5" font-family="Helvetica,sans-Serif" font-size="10.00">wlp::operator&gt;=</text>
</a>
</g>
</g>
<!-- Node1&#45;&gt;Node6 -->
<g id="edge5" class="edge"><title>Node1&#45;&gt;Node6</title>
<path fill="none" stroke="midnightblue" d="M73.1488,-70.5972C90.2009,-58.5219 115.04,-41.6948 138,-29 144.023,-25.6697 150.74,-22.4327 157.003,-19.6022"/>
<polygon fill="midnightblue" stroke="midnightblue" points="71.0896,-67.7669 64.9927,-76.4316 75.1623,-73.4602 71.0896,-67.7669"/>
</g>
</g>
</svg>
