<?xml version="1.0" encoding="UTF-8" standalone="no"?>
<!DOCTYPE svg PUBLIC "-//W3C//DTD SVG 1.1//EN"
 "http://www.w3.org/Graphics/SVG/1.1/DTD/svg11.dtd">
<!-- Generated by graphviz version 2.38.0 (20140413.2041)
 -->
<!-- Title: wlp::UniquePtr::reset Pages: 1 -->
<!--zoomable 237 -->
<svg id="main" version="1.1" xmlns="http://www.w3.org/2000/svg" xmlns:xlink="http://www.w3.org/1999/xlink" xml:space="preserve" onload="init(evt)">
<style type="text/css"><![CDATA[
.edge:hover path { stroke: red; }
.edge:hover polygon { stroke: red; fill: red; }
]]></style>
<script type="text/javascript"><![CDATA[
var edges = document.getElementsByTagName('g');
if (edges && edges.length) {
  for (var i=0;i<edges.length;i++) {
    if (edges[i].id.substr(0,4)=='edge') {
      edges[i].setAttribute('class','edge');
    }
  }
}
]]></script>
        <defs>
                <circle id="rim" cx="0" cy="0" r="7"/>
                <circle id="rim2" cx="0" cy="0" r="3.5"/>
                <g id="zoomPlus">
                        <use xlink:href="#rim" fill="#404040">
                                <set attributeName="fill" to="#808080" begin="zoomplus.mouseover" end="zoomplus.mouseout"/>
                        </use>
                        <path d="M-4,0h8M0,-4v8" fill="none" stroke="white" stroke-width="1.5" pointer-events="none"/>
                </g>
                <g id="zoomMin">
                        <use xlink:href="#rim" fill="#404040">
                                <set attributeName="fill" to="#808080" begin="zoomminus.mouseover" end="zoomminus.mouseout"/>
                        </use>
                        <path d="M-4,0h8" fill="none" stroke="white" stroke-width="1.5" pointer-events="none"/>
                </g>
                <g id="dirArrow">
                        <path fill="none" stroke="white" stroke-width="1.5" d="M0,-3.0v7 M-2.5,-0.5L0,-3.0L2.5,-0.5"/>
                </g>
               <g id="resetDef">
                       <use xlink:href="#rim2" fill="#404040">
                               <set attributeName="fill" to="#808080" begin="reset.mouseover" end="reset.mouseout"/>
                       </use>
               </g>
        </defs>

<script type="text/javascript">
var viewWidth = 524;
var viewHeight = 237;
var sectionId = 'dynsection-8';
</script>
<script xlink:href="../../svgpan.js"/>
<svg id="graph" class="graph">
<g id="viewport">
<title>wlp::UniquePtr::reset</title>
<polygon fill="white" stroke="none" points="-4,4 -4,-232.5 520,-232.5 520,4 -4,4"/>
<!-- Node50 -->
<g id="node1" class="node"><title>Node50</title>
<polygon fill="#bfbfbf" stroke="black" points="0,-94 0,-113 107,-113 107,-94 0,-94"/>
<text text-anchor="middle" x="53.5" y="-101" font-family="Helvetica,sans-Serif" font-size="10.00">wlp::UniquePtr::reset</text>
</g>
<!-- Node51 -->
<g id="node2" class="node"><title>Node51</title>
<g id="a_node2"><a xlink:href="../../df/d24/classwlp_1_1_unique_ptr.html#a3bc3cd6a7d5253b54a72d7f11f65950c" target="_top" xlink:title="wlp::UniquePtr::operator=">
<polygon fill="white" stroke="black" points="146.5,-187 146.5,-206 273.5,-206 273.5,-187 146.5,-187"/>
<text text-anchor="middle" x="210" y="-194" font-family="Helvetica,sans-Serif" font-size="10.00">wlp::UniquePtr::operator=</text>
</a>
</g>
</g>
<!-- Node50&#45;&gt;Node51 -->
<g id="edge1" class="edge"><title>Node50&#45;&gt;Node51</title>
<path fill="none" stroke="midnightblue" d="M70.6121,-120.62C87.2591,-137.367 114.729,-162.48 143,-177.5 150.16,-181.304 158.173,-184.428 166.081,-186.964"/>
<polygon fill="midnightblue" stroke="midnightblue" points="72.8329,-117.884 63.3532,-113.152 67.8134,-122.763 72.8329,-117.884"/>
</g>
<!-- Node55 -->
<g id="node6" class="node"><title>Node55</title>
<g id="a_node6"><a xlink:href="../../dd/d28/classwlp_1_1_unique_ptr_3_01_t[]_4.html#a0e66c7b26c8fcbd14aba96bd91d00112" target="_top" xlink:title="wlp::UniquePtr\&lt; T[]\l\&gt;::operator=">
<polygon fill="white" stroke="black" points="160,-137.5 160,-167.5 260,-167.5 260,-137.5 160,-137.5"/>
<text text-anchor="start" x="168" y="-155.5" font-family="Helvetica,sans-Serif" font-size="10.00">wlp::UniquePtr&lt; T[]</text>
<text text-anchor="middle" x="210" y="-144.5" font-family="Helvetica,sans-Serif" font-size="10.00">&gt;::operator=</text>
</a>
</g>
</g>
<!-- Node50&#45;&gt;Node55 -->
<g id="edge5" class="edge"><title>Node50&#45;&gt;Node55</title>
<path fill="none" stroke="midnightblue" d="M94.3274,-116.131C114.864,-122.645 140.053,-130.633 161.588,-137.463"/>
<polygon fill="midnightblue" stroke="midnightblue" points="95.2461,-112.751 84.6559,-113.064 93.1299,-119.423 95.2461,-112.751"/>
</g>
<!-- Node56 -->
<g id="node7" class="node"><title>Node56</title>
<g id="a_node7"><a xlink:href="../../dd/d28/classwlp_1_1_unique_ptr_3_01_t[]_4.html#a4d94b32bec217cc5c50d8a4947b319bc" target="_top" xlink:title="wlp::UniquePtr\&lt; T[]\l\&gt;::reset">
<polygon fill="white" stroke="black" points="160,-88.5 160,-118.5 260,-118.5 260,-88.5 160,-88.5"/>
<text text-anchor="start" x="168" y="-106.5" font-family="Helvetica,sans-Serif" font-size="10.00">wlp::UniquePtr&lt; T[]</text>
<text text-anchor="middle" x="210" y="-95.5" font-family="Helvetica,sans-Serif" font-size="10.00">&gt;::reset</text>
</a>
</g>
</g>
<!-- Node50&#45;&gt;Node56 -->
<g id="edge6" class="edge"><title>Node50&#45;&gt;Node56</title>
<path fill="none" stroke="midnightblue" d="M117.401,-103.5C131.559,-103.5 146.383,-103.5 159.881,-103.5"/>
<polygon fill="midnightblue" stroke="midnightblue" points="117.238,-100 107.238,-103.5 117.238,-107 117.238,-100"/>
</g>
<!-- Node57 -->
<g id="node8" class="node"><title>Node57</title>
<g id="a_node8"><a xlink:href="../../df/d24/classwlp_1_1_unique_ptr.html#ac972f5f7ae3e17a58140cfe3a694667d" target="_top" xlink:title="wlp::UniquePtr::~UniquePtr">
<polygon fill="white" stroke="black" points="143,-50 143,-69 277,-69 277,-50 143,-50"/>
<text text-anchor="middle" x="210" y="-57" font-family="Helvetica,sans-Serif" font-size="10.00">wlp::UniquePtr::~UniquePtr</text>
</a>
</g>
</g>
<!-- Node50&#45;&gt;Node57 -->
<g id="edge7" class="edge"><title>Node50&#45;&gt;Node57</title>
<path fill="none" stroke="midnightblue" d="M97.8344,-91.1588C122.442,-84.1507 152.779,-75.5112 175.541,-69.0287"/>
<polygon fill="midnightblue" stroke="midnightblue" points="96.6831,-87.8474 88.0242,-93.9527 98.6005,-94.5798 96.6831,-87.8474"/>
</g>
<!-- Node58 -->
<g id="node9" class="node"><title>Node58</title>
<g id="a_node9"><a xlink:href="../../dd/d28/classwlp_1_1_unique_ptr_3_01_t[]_4.html#a9e589243e6070266b6b4a9ac5e0e0ac0" target="_top" xlink:title="wlp::UniquePtr\&lt; T[]\l\&gt;::~UniquePtr">
<polygon fill="white" stroke="black" points="160,-0.5 160,-30.5 260,-30.5 260,-0.5 160,-0.5"/>
<text text-anchor="start" x="168" y="-18.5" font-family="Helvetica,sans-Serif" font-size="10.00">wlp::UniquePtr&lt; T[]</text>
<text text-anchor="middle" x="210" y="-7.5" font-family="Helvetica,sans-Serif" font-size="10.00">&gt;::~UniquePtr</text>
</a>
</g>
</g>
<!-- Node50&#45;&gt;Node58 -->
<g id="edge8" class="edge"><title>Node50&#45;&gt;Node58</title>
<path fill="none" stroke="midnightblue" d="M74.0739,-87.3253C91.3998,-73.5702 117.781,-53.9633 143,-40.5 149.81,-36.8646 157.265,-33.5045 164.635,-30.5043"/>
<polygon fill="midnightblue" stroke="midnightblue" points="71.481,-84.9199 65.8932,-93.9214 75.8748,-90.3692 71.481,-84.9199"/>
</g>
<!-- Node52 -->
<g id="node3" class="node"><title>Node52</title>
<g id="a_node3"><a xlink:href="../../df/d24/classwlp_1_1_unique_ptr.html#aa903b0743277e9ff139b00ae22ca4f36" target="_top" xlink:title="wlp::UniquePtr::swap">
<polygon fill="white" stroke="black" points="313,-209 313,-228 421,-228 421,-209 313,-209"/>
<text text-anchor="middle" x="367" y="-216" font-family="Helvetica,sans-Serif" font-size="10.00">wlp::UniquePtr::swap</text>
</a>
</g>
</g>
<!-- Node51&#45;&gt;Node52 -->
<g id="edge2" class="edge"><title>Node51&#45;&gt;Node52</title>
<path fill="none" stroke="midnightblue" d="M283.694,-206.818C293.443,-208.202 303.293,-209.6 312.626,-210.924"/>
<polygon fill="midnightblue" stroke="midnightblue" points="283.99,-203.325 273.598,-205.385 283.007,-210.255 283.99,-203.325"/>
</g>
<!-- Node54 -->
<g id="node5" class="node"><title>Node54</title>
<g id="a_node5"><a xlink:href="../../dd/d28/classwlp_1_1_unique_ptr_3_01_t[]_4.html#afd506c1c471dd2a3589437308d104343" target="_top" xlink:title="wlp::UniquePtr\&lt; T[]\l\&gt;::swap">
<polygon fill="white" stroke="black" points="317,-159.5 317,-189.5 417,-189.5 417,-159.5 317,-159.5"/>
<text text-anchor="start" x="325" y="-177.5" font-family="Helvetica,sans-Serif" font-size="10.00">wlp::UniquePtr&lt; T[]</text>
<text text-anchor="middle" x="367" y="-166.5" font-family="Helvetica,sans-Serif" font-size="10.00">&gt;::swap</text>
</a>
</g>
</g>
<!-- Node51&#45;&gt;Node54 -->
<g id="edge4" class="edge"><title>Node51&#45;&gt;Node54</title>
<path fill="none" stroke="midnightblue" d="M283.506,-186.209C294.851,-184.599 306.34,-182.968 316.994,-181.456"/>
<polygon fill="midnightblue" stroke="midnightblue" points="283.007,-182.745 273.598,-187.615 283.99,-189.675 283.007,-182.745"/>
</g>
<!-- Node53 -->
<g id="node4" class="node"><title>Node53</title>
<g id="a_node4"><a xlink:href="../../d5/dca/namespacewlp.html#a0ced7f385d1e9c4e0cb5e429ba21e8ee" target="_top" xlink:title="wlp::swap">
<polygon fill="white" stroke="black" points="457,-209 457,-228 516,-228 516,-209 457,-209"/>
<text text-anchor="middle" x="486.5" y="-216" font-family="Helvetica,sans-Serif" font-size="10.00">wlp::swap</text>
</a>
</g>
</g>
<!-- Node52&#45;&gt;Node53 -->
<g id="edge3" class="edge"><title>Node52&#45;&gt;Node53</title>
<path fill="none" stroke="midnightblue" d="M431.339,-218.5C440.261,-218.5 449.042,-218.5 456.85,-218.5"/>
<polygon fill="midnightblue" stroke="midnightblue" points="431.249,-215 421.249,-218.5 431.249,-222 431.249,-215"/>
</g>
</g>
</svg>
        <g id="navigator" transform="translate(0 0)" fill="#404254">
                <rect fill="#f2f5e9" fill-opacity="0.5" stroke="#606060" stroke-width=".5" x="0" y="0" width="60" height="60"/>
                <use id="zoomplus" xlink:href="#zoomPlus" x="17" y="9" onmousedown="handleZoom(evt,'in')"/>
                <use id="zoomminus" xlink:href="#zoomMin" x="42" y="9" onmousedown="handleZoom(evt,'out')"/>
                <use id="reset" xlink:href="#resetDef" x="30" y="36" onmousedown="handleReset()"/>
                <g id="arrowUp" xlink:href="#dirArrow" transform="translate(30 24)" onmousedown="handlePan(0,-1)">
                  <use xlink:href="#rim" fill="#404040">
                        <set attributeName="fill" to="#808080" begin="arrowUp.mouseover" end="arrowUp.mouseout"/>
                  </use>
                  <path fill="none" stroke="white" stroke-width="1.5" d="M0,-3.0v7 M-2.5,-0.5L0,-3.0L2.5,-0.5"/>
                </g>
                <g id="arrowRight" xlink:href="#dirArrow" transform="rotate(90) translate(36 -43)" onmousedown="handlePan(1,0)">
                  <use xlink:href="#rim" fill="#404040">
                        <set attributeName="fill" to="#808080" begin="arrowRight.mouseover" end="arrowRight.mouseout"/>
                  </use>
                  <path fill="none" stroke="white" stroke-width="1.5" d="M0,-3.0v7 M-2.5,-0.5L0,-3.0L2.5,-0.5"/>
                </g>
                <g id="arrowDown" xlink:href="#dirArrow" transform="rotate(180) translate(-30 -48)" onmousedown="handlePan(0,1)">
                  <use xlink:href="#rim" fill="#404040">
                        <set attributeName="fill" to="#808080" begin="arrowDown.mouseover" end="arrowDown.mouseout"/>
                  </use>
                  <path fill="none" stroke="white" stroke-width="1.5" d="M0,-3.0v7 M-2.5,-0.5L0,-3.0L2.5,-0.5"/>
                </g>
                <g id="arrowLeft" xlink:href="#dirArrow" transform="rotate(270) translate(-36 17)" onmousedown="handlePan(-1,0)">
                  <use xlink:href="#rim" fill="#404040">
                        <set attributeName="fill" to="#808080" begin="arrowLeft.mouseover" end="arrowLeft.mouseout"/>
                  </use>
                  <path fill="none" stroke="white" stroke-width="1.5" d="M0,-3.0v7 M-2.5,-0.5L0,-3.0L2.5,-0.5"/>
                </g>
        </g>
        <svg viewBox="0 0 15 15" width="100%" height="30px" preserveAspectRatio="xMaxYMin meet">
         <g id="arrow_out" transform="scale(0.3 0.3)">
          <a xlink:href="classwlp_1_1_unique_ptr_ae00b309e112269490c58c5db1d32966f_icgraph_org.svg" target="_base">
           <rect id="button" ry="5" rx="5" y="6" x="6" height="38" width="38"
                fill="#f2f5e9" fill-opacity="0.5" stroke="#606060" stroke-width="1.0"/>
           <path id="arrow"
             d="M 11.500037,31.436501 C 11.940474,20.09759 22.043105,11.32322 32.158766,21.979434 L 37.068811,17.246167 C 37.068811,17.246167 37.088388,32 37.088388,32 L 22.160133,31.978069 C 22.160133,31.978069 26.997745,27.140456 26.997745,27.140456 C 18.528582,18.264221 13.291696,25.230495 11.500037,31.436501 z"
             style="fill:#404040;"/>
          </a>
         </g>
        </svg>
</svg>
