<?xml version="1.0" encoding="UTF-8" standalone="no"?>
<!DOCTYPE svg PUBLIC "-//W3C//DTD SVG 1.1//EN"
 "http://www.w3.org/Graphics/SVG/1.1/DTD/svg11.dtd">
<!-- Generated by graphviz version 2.38.0 (20140413.2041)
 -->
<!-- Title: wlp::UniquePtr::swap Pages: 1 -->
<svg width="583pt" height="104pt"
 viewBox="0.00 0.00 583.00 104.00" xmlns="http://www.w3.org/2000/svg" xmlns:xlink="http://www.w3.org/1999/xlink">
<g id="graph0" class="graph" transform="scale(1 1) rotate(0) translate(4 100)">
<title>wlp::UniquePtr::swap</title>
<polygon fill="white" stroke="none" points="-4,4 -4,-100 579,-100 579,4 -4,4"/>
<!-- Node59 -->
<g id="node1" class="node"><title>Node59</title>
<polygon fill="#bfbfbf" stroke="black" points="0,-38.5 0,-57.5 108,-57.5 108,-38.5 0,-38.5"/>
<text text-anchor="middle" x="54" y="-45.5" font-family="Helvetica,sans-Serif" font-size="10.00">wlp::UniquePtr::swap</text>
</g>
<!-- Node60 -->
<g id="node2" class="node"><title>Node60</title>
<g id="a_node2"><a xlink:href="../../df/d24/classwlp_1_1_unique_ptr.html#a3bc3cd6a7d5253b54a72d7f11f65950c" target="_top" xlink:title="wlp::UniquePtr::operator=">
<polygon fill="white" stroke="black" points="144.5,-76.5 144.5,-95.5 271.5,-95.5 271.5,-76.5 144.5,-76.5"/>
<text text-anchor="middle" x="208" y="-83.5" font-family="Helvetica,sans-Serif" font-size="10.00">wlp::UniquePtr::operator=</text>
</a>
</g>
</g>
<!-- Node59&#45;&gt;Node60 -->
<g id="edge1" class="edge"><title>Node59&#45;&gt;Node60</title>
<path fill="none" stroke="midnightblue" d="M93.356,-57.589C113.324,-62.5809 137.93,-68.7324 159.133,-74.0334"/>
<polygon fill="midnightblue" stroke="midnightblue" points="158.369,-77.45 168.92,-76.4799 160.067,-70.659 158.369,-77.45"/>
</g>
<!-- Node62 -->
<g id="node4" class="node"><title>Node62</title>
<g id="a_node4"><a xlink:href="../../d5/dca/namespacewlp.html#a14fbfebbc21b2593185c686b26a9d8fb" target="_top" xlink:title="wlp::swap">
<polygon fill="white" stroke="black" points="178.5,-38.5 178.5,-57.5 237.5,-57.5 237.5,-38.5 178.5,-38.5"/>
<text text-anchor="middle" x="208" y="-45.5" font-family="Helvetica,sans-Serif" font-size="10.00">wlp::swap</text>
</a>
</g>
</g>
<!-- Node59&#45;&gt;Node62 -->
<g id="edge3" class="edge"><title>Node59&#45;&gt;Node62</title>
<path fill="none" stroke="midnightblue" d="M108.162,-48C127.914,-48 149.935,-48 168.169,-48"/>
<polygon fill="midnightblue" stroke="midnightblue" points="168.421,-51.5001 178.421,-48 168.421,-44.5001 168.421,-51.5001"/>
</g>
<!-- Node65 -->
<g id="node7" class="node"><title>Node65</title>
<g id="a_node7"><a xlink:href="../../df/d24/classwlp_1_1_unique_ptr.html#ac39e7cdc995e53ef2d8eca44f5bf7ee0" target="_top" xlink:title="wlp::UniquePtr::UniquePtr">
<polygon fill="white" stroke="black" points="144,-0.5 144,-19.5 272,-19.5 272,-0.5 144,-0.5"/>
<text text-anchor="middle" x="208" y="-7.5" font-family="Helvetica,sans-Serif" font-size="10.00">wlp::UniquePtr::UniquePtr</text>
</a>
</g>
</g>
<!-- Node59&#45;&gt;Node65 -->
<g id="edge7" class="edge"><title>Node59&#45;&gt;Node65</title>
<path fill="none" stroke="midnightblue" d="M93.356,-38.411C113.324,-33.4191 137.93,-27.2676 159.133,-21.9666"/>
<polygon fill="midnightblue" stroke="midnightblue" points="160.067,-25.341 168.92,-19.5201 158.369,-18.55 160.067,-25.341"/>
</g>
<!-- Node61 -->
<g id="node3" class="node"><title>Node61</title>
<g id="a_node3"><a xlink:href="../../df/d24/classwlp_1_1_unique_ptr.html#ae00b309e112269490c58c5db1d32966f" target="_top" xlink:title="wlp::UniquePtr::reset">
<polygon fill="white" stroke="black" points="309,-76.5 309,-95.5 416,-95.5 416,-76.5 309,-76.5"/>
<text text-anchor="middle" x="362.5" y="-83.5" font-family="Helvetica,sans-Serif" font-size="10.00">wlp::UniquePtr::reset</text>
</a>
</g>
</g>
<!-- Node60&#45;&gt;Node61 -->
<g id="edge2" class="edge"><title>Node60&#45;&gt;Node61</title>
<path fill="none" stroke="midnightblue" d="M271.908,-86C280.754,-86 289.847,-86 298.69,-86"/>
<polygon fill="midnightblue" stroke="midnightblue" points="298.928,-89.5001 308.928,-86 298.928,-82.5001 298.928,-89.5001"/>
</g>
<!-- Node63 -->
<g id="node5" class="node"><title>Node63</title>
<g id="a_node5"><a xlink:href="../../d1/d52/classwlp_1_1_shared_ptr.html#aeb4cc93940627a04b0414bad11b4c020" target="_top" xlink:title="wlp::SharedPtr::swap">
<polygon fill="white" stroke="black" points="308,-38.5 308,-57.5 417,-57.5 417,-38.5 308,-38.5"/>
<text text-anchor="middle" x="362.5" y="-45.5" font-family="Helvetica,sans-Serif" font-size="10.00">wlp::SharedPtr::swap</text>
</a>
</g>
</g>
<!-- Node62&#45;&gt;Node63 -->
<g id="edge4" class="edge"><title>Node62&#45;&gt;Node63</title>
<path fill="none" stroke="midnightblue" d="M237.684,-42.5885C254.664,-41.4753 276.883,-41.0565 297.805,-41.332"/>
<polygon fill="midnightblue" stroke="midnightblue" points="297.879,-44.8339 307.944,-41.523 298.011,-37.8352 297.879,-44.8339"/>
</g>
<!-- Node63&#45;&gt;Node62 -->
<g id="edge6" class="edge"><title>Node63&#45;&gt;Node62</title>
<path fill="none" stroke="midnightblue" d="M307.944,-54.477C288.083,-54.9683 265.961,-54.7965 247.681,-53.9615"/>
<polygon fill="midnightblue" stroke="midnightblue" points="247.861,-50.4662 237.684,-53.4115 247.477,-57.4557 247.861,-50.4662"/>
</g>
<!-- Node64 -->
<g id="node6" class="node"><title>Node64</title>
<g id="a_node6"><a xlink:href="../../da/dbb/classwlp_1_1_shared_count.html#ad9de7cb486018b547abbf4416fb31029" target="_top" xlink:title="wlp::SharedCount::swap">
<polygon fill="white" stroke="black" points="453,-38.5 453,-57.5 575,-57.5 575,-38.5 453,-38.5"/>
<text text-anchor="middle" x="514" y="-45.5" font-family="Helvetica,sans-Serif" font-size="10.00">wlp::SharedCount::swap</text>
</a>
</g>
</g>
<!-- Node63&#45;&gt;Node64 -->
<g id="edge5" class="edge"><title>Node63&#45;&gt;Node64</title>
<path fill="none" stroke="midnightblue" d="M417.051,-48C425.421,-48 434.178,-48 442.853,-48"/>
<polygon fill="midnightblue" stroke="midnightblue" points="442.969,-51.5001 452.969,-48 442.969,-44.5001 442.969,-51.5001"/>
</g>
</g>
</svg>
