<?xml version="1.0" encoding="UTF-8" standalone="no"?>
<!DOCTYPE svg PUBLIC "-//W3C//DTD SVG 1.1//EN"
 "http://www.w3.org/Graphics/SVG/1.1/DTD/svg11.dtd">
<!-- Generated by graphviz version 2.36.0 (20140111.2315)
 -->
<!-- Title: wlp::dynamic_string::append Pages: 1 -->
<svg width="252pt" height="136pt"
 viewBox="0.00 0.00 252.00 136.00" xmlns="http://www.w3.org/2000/svg" xmlns:xlink="http://www.w3.org/1999/xlink">
<g id="graph0" class="graph" transform="scale(1 1) rotate(0) translate(4 132)">
<title>wlp::dynamic_string::append</title>
<polygon fill="white" stroke="none" points="-4,4 -4,-132 248,-132 248,4 -4,4"/>
<!-- Node1 -->
<g id="node1" class="node"><title>Node1</title>
<polygon fill="#bfbfbf" stroke="black" points="0,-49 0,-79 104,-79 104,-49 0,-49"/>
<text text-anchor="start" x="8" y="-67" font-family="Helvetica,sans-Serif" font-size="10.00">wlp::dynamic_string</text>
<text text-anchor="middle" x="52" y="-56" font-family="Helvetica,sans-Serif" font-size="10.00">::append</text>
</g>
<!-- Node2 -->
<g id="node2" class="node"><title>Node2</title>
<g id="a_node2"><a xlink:href="../../da/db5/classwlp_1_1dynamic__string.html#a8f6b7a8fccf98de4f85e81c80bc220a6" target="_top" xlink:title="wlp::dynamic_string\l::append">
<polygon fill="white" stroke="black" points="140,-98 140,-128 244,-128 244,-98 140,-98"/>
<text text-anchor="start" x="148" y="-116" font-family="Helvetica,sans-Serif" font-size="10.00">wlp::dynamic_string</text>
<text text-anchor="middle" x="192" y="-105" font-family="Helvetica,sans-Serif" font-size="10.00">::append</text>
</a>
</g>
</g>
<!-- Node1&#45;&gt;Node2 -->
<g id="edge1" class="edge"><title>Node1&#45;&gt;Node2</title>
<path fill="none" stroke="midnightblue" d="M105.202,-82.5355C119.454,-87.5959 134.723,-93.0177 148.372,-97.8641"/>
<polygon fill="midnightblue" stroke="midnightblue" points="106.125,-79.1493 95.5306,-79.1014 103.783,-85.7458 106.125,-79.1493"/>
</g>
<!-- Node3 -->
<g id="node3" class="node"><title>Node3</title>
<g id="a_node3"><a xlink:href="../../da/db5/classwlp_1_1dynamic__string.html#a83dad111540e516b458ff6c908ee84b0" target="_top" xlink:title="wlp::dynamic_string\l::operator+=">
<polygon fill="white" stroke="black" points="140,-49 140,-79 244,-79 244,-49 140,-49"/>
<text text-anchor="start" x="148" y="-67" font-family="Helvetica,sans-Serif" font-size="10.00">wlp::dynamic_string</text>
<text text-anchor="middle" x="192" y="-56" font-family="Helvetica,sans-Serif" font-size="10.00">::operator+=</text>
</a>
</g>
</g>
<!-- Node1&#45;&gt;Node3 -->
<g id="edge2" class="edge"><title>Node1&#45;&gt;Node3</title>
<path fill="none" stroke="midnightblue" d="M114.496,-64C122.872,-64 131.398,-64 139.571,-64"/>
<polygon fill="midnightblue" stroke="midnightblue" points="114.386,-60.5001 104.386,-64 114.386,-67.5001 114.386,-60.5001"/>
</g>
<!-- Node4 -->
<g id="node4" class="node"><title>Node4</title>
<g id="a_node4"><a xlink:href="../../da/db5/classwlp_1_1dynamic__string.html#a99c166daef53e8bd8402e793cf6dd580" target="_top" xlink:title="wlp::dynamic_string\l::push_back">
<polygon fill="white" stroke="black" points="140,-0 140,-30 244,-30 244,-0 140,-0"/>
<text text-anchor="start" x="148" y="-18" font-family="Helvetica,sans-Serif" font-size="10.00">wlp::dynamic_string</text>
<text text-anchor="middle" x="192" y="-7" font-family="Helvetica,sans-Serif" font-size="10.00">::push_back</text>
</a>
</g>
</g>
<!-- Node1&#45;&gt;Node4 -->
<g id="edge3" class="edge"><title>Node1&#45;&gt;Node4</title>
<path fill="none" stroke="midnightblue" d="M105.202,-45.4645C119.454,-40.4041 134.723,-34.9823 148.372,-30.1359"/>
<polygon fill="midnightblue" stroke="midnightblue" points="103.783,-42.2542 95.5306,-48.8986 106.125,-48.8507 103.783,-42.2542"/>
</g>
</g>
</svg>
