<?xml version="1.0" encoding="UTF-8" standalone="no"?>
<!DOCTYPE svg PUBLIC "-//W3C//DTD SVG 1.1//EN"
 "http://www.w3.org/Graphics/SVG/1.1/DTD/svg11.dtd">
<!-- Generated by graphviz version 2.36.0 (20140111.2315)
 -->
<!-- Title: wlp::HashSet&lt; Key, Hasher, Equals &gt; Pages: 1 -->
<svg width="682pt" height="259pt"
 viewBox="0.00 0.00 682.00 259.00" xmlns="http://www.w3.org/2000/svg" xmlns:xlink="http://www.w3.org/1999/xlink">
<g id="graph0" class="graph" transform="scale(1 1) rotate(0) translate(4 255)">
<title>wlp::HashSet&lt; Key, Hasher, Equals &gt;</title>
<polygon fill="white" stroke="none" points="-4,4 -4,-255 678,-255 678,4 -4,4"/>
<!-- Node1 -->
<g id="node1" class="node"><title>Node1</title>
<polygon fill="#bfbfbf" stroke="black" points="568.5,-131 568.5,-161 673.5,-161 673.5,-131 568.5,-131"/>
<text text-anchor="start" x="576.5" y="-149" font-family="Helvetica,sans-Serif" font-size="10.00">wlp::HashSet&lt; Key,</text>
<text text-anchor="middle" x="621" y="-138" font-family="Helvetica,sans-Serif" font-size="10.00"> Hasher, Equals &gt;</text>
</g>
<!-- Node2 -->
<g id="node2" class="node"><title>Node2</title>
<g id="a_node2"><a xlink:href="../../d8/de2/classwlp_1_1_hash_table.html" target="_top" xlink:title="wlp::HashTable\&lt; Key,\l Key, Key, SetGetKey\l\&lt; Key \&gt;, SetGetVal\&lt; Key\l \&gt;, Hasher, Equals \&gt;">
<polygon fill="white" stroke="black" points="364.5,-120 364.5,-172 493.5,-172 493.5,-120 364.5,-120"/>
<text text-anchor="start" x="372.5" y="-160" font-family="Helvetica,sans-Serif" font-size="10.00">wlp::HashTable&lt; Key,</text>
<text text-anchor="start" x="372.5" y="-149" font-family="Helvetica,sans-Serif" font-size="10.00"> Key, Key, SetGetKey</text>
<text text-anchor="start" x="372.5" y="-138" font-family="Helvetica,sans-Serif" font-size="10.00">&lt; Key &gt;, SetGetVal&lt; Key</text>
<text text-anchor="middle" x="429" y="-127" font-family="Helvetica,sans-Serif" font-size="10.00"> &gt;, Hasher, Equals &gt;</text>
</a>
</g>
</g>
<!-- Node2&#45;&gt;Node1 -->
<g id="edge1" class="edge"><title>Node2&#45;&gt;Node1</title>
<path fill="none" stroke="#9a32cd" stroke-dasharray="5,2" d="M503.641,-146C525.206,-146 548.318,-146 568.217,-146"/>
<polygon fill="#9a32cd" stroke="#9a32cd" points="503.531,-142.5 493.531,-146 503.531,-149.5 503.531,-142.5"/>
<text text-anchor="middle" x="531" y="-149" font-family="Helvetica,sans-Serif" font-size="10.00"> m_table</text>
</g>
<!-- Node3 -->
<g id="node3" class="node"><title>Node3</title>
<polygon fill="white" stroke="#bfbfbf" points="170.5,-231.5 170.5,-250.5 221.5,-250.5 221.5,-231.5 170.5,-231.5"/>
<text text-anchor="middle" x="196" y="-238.5" font-family="Helvetica,sans-Serif" font-size="10.00">uint16_t</text>
</g>
<!-- Node3&#45;&gt;Node2 -->
<g id="edge2" class="edge"><title>Node3&#45;&gt;Node2</title>
<path fill="none" stroke="#9a32cd" stroke-dasharray="5,2" d="M231.597,-236.517C262.621,-231.608 308.843,-222.058 346,-205 364.489,-196.512 383.059,-183.602 397.84,-172.021"/>
<polygon fill="#9a32cd" stroke="#9a32cd" points="231.06,-233.059 221.693,-238.009 232.103,-239.981 231.06,-233.059"/>
<text text-anchor="middle" x="307" y="-243" font-family="Helvetica,sans-Serif" font-size="10.00"> m_capacity</text>
<text text-anchor="middle" x="307" y="-232" font-family="Helvetica,sans-Serif" font-size="10.00">m_size</text>
</g>
<!-- Node4 -->
<g id="node4" class="node"><title>Node4</title>
<polygon fill="white" stroke="#bfbfbf" points="146,-193.5 146,-212.5 246,-212.5 246,-193.5 146,-193.5"/>
<text text-anchor="middle" x="196" y="-200.5" font-family="Helvetica,sans-Serif" font-size="10.00">SetGetKey&lt; Key &gt;</text>
</g>
<!-- Node4&#45;&gt;Node2 -->
<g id="edge3" class="edge"><title>Node4&#45;&gt;Node2</title>
<path fill="none" stroke="#9a32cd" stroke-dasharray="5,2" d="M255.92,-193.45C283.482,-188.494 316.632,-181.833 346,-174 351.959,-172.411 358.113,-170.612 364.246,-168.712"/>
<polygon fill="#9a32cd" stroke="#9a32cd" points="255.273,-190.01 246.035,-195.197 256.492,-196.903 255.273,-190.01"/>
<text text-anchor="middle" x="307" y="-193" font-family="Helvetica,sans-Serif" font-size="10.00"> m_get_key</text>
</g>
<!-- Node5 -->
<g id="node5" class="node"><title>Node5</title>
<polygon fill="white" stroke="#bfbfbf" points="173,-155.5 173,-174.5 219,-174.5 219,-155.5 173,-155.5"/>
<text text-anchor="middle" x="196" y="-162.5" font-family="Helvetica,sans-Serif" font-size="10.00">uint8_t</text>
</g>
<!-- Node5&#45;&gt;Node2 -->
<g id="edge4" class="edge"><title>Node5&#45;&gt;Node2</title>
<path fill="none" stroke="#9a32cd" stroke-dasharray="5,2" d="M229.222,-162.35C264.03,-159.487 320.385,-154.851 364.217,-151.246"/>
<polygon fill="#9a32cd" stroke="#9a32cd" points="228.829,-158.87 219.149,-163.178 229.403,-165.847 228.829,-158.87"/>
<text text-anchor="middle" x="307" y="-162" font-family="Helvetica,sans-Serif" font-size="10.00"> m_max_load</text>
</g>
<!-- Node6 -->
<g id="node6" class="node"><title>Node6</title>
<polygon fill="white" stroke="#bfbfbf" points="172,-117.5 172,-136.5 220,-136.5 220,-117.5 172,-117.5"/>
<text text-anchor="middle" x="196" y="-124.5" font-family="Helvetica,sans-Serif" font-size="10.00">Hasher</text>
</g>
<!-- Node6&#45;&gt;Node2 -->
<g id="edge5" class="edge"><title>Node6&#45;&gt;Node2</title>
<path fill="none" stroke="#9a32cd" stroke-dasharray="5,2" d="M230.227,-129.63C260.425,-132.031 306.207,-135.699 346,-139 351.98,-139.496 358.206,-140.018 364.434,-140.543"/>
<polygon fill="#9a32cd" stroke="#9a32cd" points="230.476,-126.139 220.231,-128.836 229.922,-133.117 230.476,-126.139"/>
<text text-anchor="middle" x="307" y="-142" font-family="Helvetica,sans-Serif" font-size="10.00"> m_hash_function</text>
</g>
<!-- Node7 -->
<g id="node7" class="node"><title>Node7</title>
<g id="a_node7"><a xlink:href="../../dd/d94/structwlp_1_1_hash_table_node.html" target="_top" xlink:title="wlp::HashTableNode\l\&lt; Element \&gt;">
<polygon fill="white" stroke="black" points="142,-39 142,-69 250,-69 250,-39 142,-39"/>
<text text-anchor="start" x="150" y="-57" font-family="Helvetica,sans-Serif" font-size="10.00">wlp::HashTableNode</text>
<text text-anchor="middle" x="196" y="-46" font-family="Helvetica,sans-Serif" font-size="10.00">&lt; Element &gt;</text>
</a>
</g>
</g>
<!-- Node7&#45;&gt;Node2 -->
<g id="edge6" class="edge"><title>Node7&#45;&gt;Node2</title>
<path fill="none" stroke="#9a32cd" stroke-dasharray="5,2" d="M244.303,-72.8394C278.956,-86.6404 326.368,-105.523 364.344,-120.648"/>
<polygon fill="#9a32cd" stroke="#9a32cd" points="245.472,-69.5374 234.886,-69.0889 242.882,-76.0406 245.472,-69.5374"/>
<text text-anchor="middle" x="307" y="-114" font-family="Helvetica,sans-Serif" font-size="10.00"> m_buckets</text>
</g>
<!-- Node7&#45;&gt;Node7 -->
<g id="edge8" class="edge"><title>Node7&#45;&gt;Node7</title>
<path fill="none" stroke="#9a32cd" stroke-dasharray="5,2" d="M178.846,-79.5975C181.19,-83.9704 186.908,-87 196,-87 211.312,-87 217.055,-78.4062 213.227,-69.2754"/>
<polygon fill="#9a32cd" stroke="#9a32cd" points="182.344,-79.2504 178.773,-69.2754 175.344,-79.2999 182.344,-79.2504"/>
<text text-anchor="middle" x="196" y="-90" font-family="Helvetica,sans-Serif" font-size="10.00"> m_next</text>
</g>
<!-- Node8 -->
<g id="node8" class="node"><title>Node8</title>
<polygon fill="white" stroke="#bfbfbf" points="0.5,-44.5 0.5,-63.5 53.5,-63.5 53.5,-44.5 0.5,-44.5"/>
<text text-anchor="middle" x="27" y="-51.5" font-family="Helvetica,sans-Serif" font-size="10.00">Element</text>
</g>
<!-- Node8&#45;&gt;Node7 -->
<g id="edge7" class="edge"><title>Node8&#45;&gt;Node7</title>
<path fill="none" stroke="#9a32cd" stroke-dasharray="5,2" d="M63.9563,-54C86.698,-54 116.496,-54 141.931,-54"/>
<polygon fill="#9a32cd" stroke="#9a32cd" points="63.7278,-50.5001 53.7278,-54 63.7277,-57.5001 63.7278,-50.5001"/>
<text text-anchor="middle" x="98" y="-57" font-family="Helvetica,sans-Serif" font-size="10.00"> m_element</text>
</g>
<!-- Node9 -->
<g id="node9" class="node"><title>Node9</title>
<polygon fill="white" stroke="#bfbfbf" points="172.5,-0.5 172.5,-19.5 219.5,-19.5 219.5,-0.5 172.5,-0.5"/>
<text text-anchor="middle" x="196" y="-7.5" font-family="Helvetica,sans-Serif" font-size="10.00">Equals</text>
</g>
<!-- Node9&#45;&gt;Node2 -->
<g id="edge9" class="edge"><title>Node9&#45;&gt;Node2</title>
<path fill="none" stroke="#9a32cd" stroke-dasharray="5,2" d="M229.262,-21.2718C236.131,-23.7536 243.325,-26.4147 250,-29 293.103,-45.6933 307.195,-43.8869 346,-69 367.969,-83.2177 389.406,-103.648 404.849,-119.892"/>
<polygon fill="#9a32cd" stroke="#9a32cd" points="230.124,-17.8629 219.529,-17.7934 227.768,-24.4546 230.124,-17.8629"/>
<text text-anchor="middle" x="307" y="-72" font-family="Helvetica,sans-Serif" font-size="10.00"> m_key_equals</text>
</g>
</g>
</svg>
