<?xml version="1.0" encoding="UTF-8" standalone="no"?>
<!DOCTYPE svg PUBLIC "-//W3C//DTD SVG 1.1//EN"
 "http://www.w3.org/Graphics/SVG/1.1/DTD/svg11.dtd">
<!-- Generated by graphviz version 2.36.0 (20140111.2315)
 -->
<!-- Title: wlp::SharedPtr::get Pages: 1 -->
<svg width="286pt" height="142pt"
 viewBox="0.00 0.00 286.00 142.00" xmlns="http://www.w3.org/2000/svg" xmlns:xlink="http://www.w3.org/1999/xlink">
<g id="graph0" class="graph" transform="scale(1 1) rotate(0) translate(4 138)">
<title>wlp::SharedPtr::get</title>
<polygon fill="white" stroke="none" points="-4,4 -4,-138 282,-138 282,4 -4,4"/>
<!-- Node1 -->
<g id="node1" class="node"><title>Node1</title>
<polygon fill="#bfbfbf" stroke="black" points="0.5,-57.5 0.5,-76.5 101.5,-76.5 101.5,-57.5 0.5,-57.5"/>
<text text-anchor="middle" x="51" y="-64.5" font-family="Helvetica,sans-Serif" font-size="10.00">wlp::SharedPtr::get</text>
</g>
<!-- Node2 -->
<g id="node2" class="node"><title>Node2</title>
<g id="a_node2"><a xlink:href="../../d5/dca/namespacewlp.html#a4c881c67717271a9381fa3983effb7a8" target="_top" xlink:title="wlp::const_pointer_cast">
<polygon fill="white" stroke="black" points="148,-114.5 148,-133.5 268,-133.5 268,-114.5 148,-114.5"/>
<text text-anchor="middle" x="208" y="-121.5" font-family="Helvetica,sans-Serif" font-size="10.00">wlp::const_pointer_cast</text>
</a>
</g>
</g>
<!-- Node1&#45;&gt;Node2 -->
<g id="edge1" class="edge"><title>Node1&#45;&gt;Node2</title>
<path fill="none" stroke="midnightblue" d="M80.6044,-80.9095C97.134,-88.6243 118.463,-98.0367 138,-105 147.714,-108.462 158.382,-111.677 168.365,-114.44"/>
<polygon fill="midnightblue" stroke="midnightblue" points="82.0132,-77.7041 71.4766,-76.5946 79.0215,-84.0326 82.0132,-77.7041"/>
</g>
<!-- Node3 -->
<g id="node3" class="node"><title>Node3</title>
<g id="a_node3"><a xlink:href="../../d5/dca/namespacewlp.html#ace303ef51ee04dec12d07ef0940710a4" target="_top" xlink:title="wlp::dynamic_pointer_cast">
<polygon fill="white" stroke="black" points="141.5,-76.5 141.5,-95.5 274.5,-95.5 274.5,-76.5 141.5,-76.5"/>
<text text-anchor="middle" x="208" y="-83.5" font-family="Helvetica,sans-Serif" font-size="10.00">wlp::dynamic_pointer_cast</text>
</a>
</g>
</g>
<!-- Node1&#45;&gt;Node3 -->
<g id="edge2" class="edge"><title>Node1&#45;&gt;Node3</title>
<path fill="none" stroke="midnightblue" d="M112.116,-74.3691C121.698,-75.5436 131.653,-76.7639 141.354,-77.953"/>
<polygon fill="midnightblue" stroke="midnightblue" points="112.248,-70.8591 101.896,-73.1163 111.396,-77.8071 112.248,-70.8591"/>
</g>
<!-- Node4 -->
<g id="node4" class="node"><title>Node4</title>
<g id="a_node4"><a xlink:href="../../d5/dca/namespacewlp.html#aff63b603fd67f7c33f0bebaf6c713d34" target="_top" xlink:title="wlp::reinterpret_pointer_cast">
<polygon fill="white" stroke="black" points="138,-38.5 138,-57.5 278,-57.5 278,-38.5 138,-38.5"/>
<text text-anchor="middle" x="208" y="-45.5" font-family="Helvetica,sans-Serif" font-size="10.00">wlp::reinterpret_pointer_cast</text>
</a>
</g>
</g>
<!-- Node1&#45;&gt;Node4 -->
<g id="edge3" class="edge"><title>Node1&#45;&gt;Node4</title>
<path fill="none" stroke="midnightblue" d="M112.078,-59.6356C120.568,-58.5948 129.353,-57.518 137.996,-56.4586"/>
<polygon fill="midnightblue" stroke="midnightblue" points="111.396,-56.1929 101.896,-60.8837 112.248,-63.1409 111.396,-56.1929"/>
</g>
<!-- Node5 -->
<g id="node5" class="node"><title>Node5</title>
<g id="a_node5"><a xlink:href="../../d5/dca/namespacewlp.html#ac9c5165e6eaf9a600cf094c5f131b249" target="_top" xlink:title="wlp::static_pointer_cast">
<polygon fill="white" stroke="black" points="148,-0.5 148,-19.5 268,-19.5 268,-0.5 148,-0.5"/>
<text text-anchor="middle" x="208" y="-7.5" font-family="Helvetica,sans-Serif" font-size="10.00">wlp::static_pointer_cast</text>
</a>
</g>
</g>
<!-- Node1&#45;&gt;Node5 -->
<g id="edge4" class="edge"><title>Node1&#45;&gt;Node5</title>
<path fill="none" stroke="midnightblue" d="M80.6044,-53.0905C97.134,-45.3757 118.463,-35.9633 138,-29 147.714,-25.5377 158.382,-22.3232 168.365,-19.5598"/>
<polygon fill="midnightblue" stroke="midnightblue" points="79.0215,-49.9674 71.4766,-57.4054 82.0132,-56.2959 79.0215,-49.9674"/>
</g>
</g>
</svg>
