<?xml version="1.0" encoding="UTF-8" standalone="no"?>
<!DOCTYPE svg PUBLIC "-//W3C//DTD SVG 1.1//EN"
 "http://www.w3.org/Graphics/SVG/1.1/DTD/svg11.dtd">
<!-- Generated by graphviz version 2.36.0 (20140111.2315)
 -->
<!-- Title: wlp::SharedPtr::operator= Pages: 1 -->
<svg width="304pt" height="66pt"
 viewBox="0.00 0.00 304.00 66.00" xmlns="http://www.w3.org/2000/svg" xmlns:xlink="http://www.w3.org/1999/xlink">
<g id="graph0" class="graph" transform="scale(1 1) rotate(0) translate(4 62)">
<title>wlp::SharedPtr::operator=</title>
<polygon fill="white" stroke="none" points="-4,4 -4,-62 300,-62 300,4 -4,4"/>
<!-- Node1 -->
<g id="node1" class="node"><title>Node1</title>
<polygon fill="#bfbfbf" stroke="black" points="0,-19.5 0,-38.5 128,-38.5 128,-19.5 0,-19.5"/>
<text text-anchor="middle" x="64" y="-26.5" font-family="Helvetica,sans-Serif" font-size="10.00">wlp::SharedPtr::operator=</text>
</g>
<!-- Node2 -->
<g id="node2" class="node"><title>Node2</title>
<g id="a_node2"><a xlink:href="../../d5/dca/namespacewlp.html#aa09e615d02daee5123e80ddaee3d2323" target="_top" xlink:title="wlp::move">
<polygon fill="white" stroke="black" points="199,-38.5 199,-57.5 261,-57.5 261,-38.5 199,-38.5"/>
<text text-anchor="middle" x="230" y="-45.5" font-family="Helvetica,sans-Serif" font-size="10.00">wlp::move</text>
</a>
</g>
</g>
<!-- Node1&#45;&gt;Node2 -->
<g id="edge1" class="edge"><title>Node1&#45;&gt;Node2</title>
<path fill="none" stroke="midnightblue" d="M128.407,-36.3459C148.694,-38.6963 170.585,-41.2324 188.748,-43.3367"/>
<polygon fill="midnightblue" stroke="midnightblue" points="188.359,-46.815 198.696,-44.4892 189.165,-39.8615 188.359,-46.815"/>
</g>
<!-- Node3 -->
<g id="node3" class="node"><title>Node3</title>
<g id="a_node3"><a xlink:href="../../d1/d52/classwlp_1_1_shared_ptr.html#ae6618830c629400e5e41666a8e547f06" target="_top" xlink:title="wlp::SharedPtr::SharedPtr">
<polygon fill="white" stroke="black" points="164.5,-0.5 164.5,-19.5 295.5,-19.5 295.5,-0.5 164.5,-0.5"/>
<text text-anchor="middle" x="230" y="-7.5" font-family="Helvetica,sans-Serif" font-size="10.00">wlp::SharedPtr::SharedPtr</text>
</a>
</g>
</g>
<!-- Node1&#45;&gt;Node3 -->
<g id="edge2" class="edge"><title>Node1&#45;&gt;Node3</title>
<path fill="none" stroke="midnightblue" d="M128.407,-21.6541C136.894,-20.6709 145.661,-19.6551 154.319,-18.6521"/>
<polygon fill="midnightblue" stroke="midnightblue" points="154.877,-22.1109 164.408,-17.4832 154.072,-15.1574 154.877,-22.1109"/>
</g>
</g>
</svg>
