<?xml version="1.0" encoding="UTF-8" standalone="no"?>
<!DOCTYPE svg PUBLIC "-//W3C//DTD SVG 1.1//EN"
 "http://www.w3.org/Graphics/SVG/1.1/DTD/svg11.dtd">
<!-- Generated by graphviz version 2.38.0 (20140413.2041)
 -->
<!-- Title: wlp::SharedPtr::swap Pages: 1 -->
<svg width="275pt" height="66pt"
 viewBox="0.00 0.00 275.00 66.00" xmlns="http://www.w3.org/2000/svg" xmlns:xlink="http://www.w3.org/1999/xlink">
<g id="graph0" class="graph" transform="scale(1 1) rotate(0) translate(4 62)">
<title>wlp::SharedPtr::swap</title>
<polygon fill="white" stroke="none" points="-4,4 -4,-62 271,-62 271,4 -4,4"/>
<!-- Node73 -->
<g id="node1" class="node"><title>Node73</title>
<polygon fill="#bfbfbf" stroke="black" points="0,-0.5 0,-19.5 109,-19.5 109,-0.5 0,-0.5"/>
<text text-anchor="middle" x="54.5" y="-7.5" font-family="Helvetica,sans-Serif" font-size="10.00">wlp::SharedPtr::swap</text>
</g>
<!-- Node74 -->
<g id="node2" class="node"><title>Node74</title>
<g id="a_node2"><a xlink:href="../../da/dbb/classwlp_1_1_shared_count.html#ad9de7cb486018b547abbf4416fb31029" target="_top" xlink:title="wlp::SharedCount::swap">
<polygon fill="white" stroke="black" points="145,-38.5 145,-57.5 267,-57.5 267,-38.5 145,-38.5"/>
<text text-anchor="middle" x="206" y="-45.5" font-family="Helvetica,sans-Serif" font-size="10.00">wlp::SharedCount::swap</text>
</a>
</g>
</g>
<!-- Node73&#45;&gt;Node74 -->
<g id="edge1" class="edge"><title>Node73&#45;&gt;Node74</title>
<path fill="none" stroke="midnightblue" d="M93.2252,-19.589C112.776,-24.5583 136.847,-30.6767 157.637,-35.9613"/>
<polygon fill="midnightblue" stroke="midnightblue" points="156.992,-39.4085 167.546,-38.4799 158.717,-32.6243 156.992,-39.4085"/>
</g>
<!-- Node75 -->
<g id="node3" class="node"><title>Node75</title>
<g id="a_node3"><a xlink:href="../../d5/dca/namespacewlp.html#a14fbfebbc21b2593185c686b26a9d8fb" target="_top" xlink:title="wlp::swap">
<polygon fill="white" stroke="black" points="176.5,-0.5 176.5,-19.5 235.5,-19.5 235.5,-0.5 176.5,-0.5"/>
<text text-anchor="middle" x="206" y="-7.5" font-family="Helvetica,sans-Serif" font-size="10.00">wlp::swap</text>
</a>
</g>
</g>
<!-- Node73&#45;&gt;Node75 -->
<g id="edge2" class="edge"><title>Node73&#45;&gt;Node75</title>
<path fill="none" stroke="midnightblue" d="M109.051,-3.4973C127.784,-3.04915 148.454,-3.2101 165.797,-3.98013"/>
<polygon fill="midnightblue" stroke="midnightblue" points="165.944,-7.49309 176.118,-4.5383 166.322,-0.503304 165.944,-7.49309"/>
</g>
<!-- Node75&#45;&gt;Node73 -->
<g id="edge3" class="edge"><title>Node75&#45;&gt;Node73</title>
<path fill="none" stroke="midnightblue" d="M176.118,-15.4617C159.938,-16.5135 139.084,-16.9213 119.281,-16.685"/>
<polygon fill="midnightblue" stroke="midnightblue" points="119.111,-13.1815 109.051,-16.5027 118.987,-20.1804 119.111,-13.1815"/>
</g>
</g>
</svg>
