<?xml version="1.0" encoding="UTF-8" standalone="no"?>
<!DOCTYPE svg PUBLIC "-//W3C//DTD SVG 1.1//EN"
 "http://www.w3.org/Graphics/SVG/1.1/DTD/svg11.dtd">
<!-- Generated by graphviz version 2.36.0 (20140111.2315)
 -->
<!-- Title: wlp::SharedPtr::SharedPtr Pages: 1 -->
<svg width="304pt" height="66pt"
 viewBox="0.00 0.00 304.00 66.00" xmlns="http://www.w3.org/2000/svg" xmlns:xlink="http://www.w3.org/1999/xlink">
<g id="graph0" class="graph" transform="scale(1 1) rotate(0) translate(4 62)">
<title>wlp::SharedPtr::SharedPtr</title>
<polygon fill="white" stroke="none" points="-4,4 -4,-62 300,-62 300,4 -4,4"/>
<!-- Node1 -->
<g id="node1" class="node"><title>Node1</title>
<polygon fill="#bfbfbf" stroke="black" points="0.5,-19.5 0.5,-38.5 131.5,-38.5 131.5,-19.5 0.5,-19.5"/>
<text text-anchor="middle" x="66" y="-26.5" font-family="Helvetica,sans-Serif" font-size="10.00">wlp::SharedPtr::SharedPtr</text>
</g>
<!-- Node2 -->
<g id="node2" class="node"><title>Node2</title>
<g id="a_node2"><a xlink:href="../../d1/d52/classwlp_1_1_shared_ptr.html#a43186bad71ccd431666d8520a65b1195" target="_top" xlink:title="wlp::SharedPtr::operator=">
<polygon fill="white" stroke="black" points="168,-38.5 168,-57.5 296,-57.5 296,-38.5 168,-38.5"/>
<text text-anchor="middle" x="232" y="-45.5" font-family="Helvetica,sans-Serif" font-size="10.00">wlp::SharedPtr::operator=</text>
</a>
</g>
</g>
<!-- Node1&#45;&gt;Node2 -->
<g id="edge1" class="edge"><title>Node1&#45;&gt;Node2</title>
<path fill="none" stroke="midnightblue" d="M141.961,-37.6845C150.664,-38.6927 159.473,-39.7133 167.993,-40.7004"/>
<polygon fill="midnightblue" stroke="midnightblue" points="142.154,-34.1835 131.817,-36.5093 141.348,-41.137 142.154,-34.1835"/>
</g>
<!-- Node3 -->
<g id="node3" class="node"><title>Node3</title>
<g id="a_node3"><a xlink:href="../../d1/d52/classwlp_1_1_shared_ptr.html#ab23c41a2677f24cb64110096b0cb397a" target="_top" xlink:title="wlp::SharedPtr::reset">
<polygon fill="white" stroke="black" points="177.5,-0.5 177.5,-19.5 286.5,-19.5 286.5,-0.5 177.5,-0.5"/>
<text text-anchor="middle" x="232" y="-7.5" font-family="Helvetica,sans-Serif" font-size="10.00">wlp::SharedPtr::reset</text>
</a>
</g>
</g>
<!-- Node1&#45;&gt;Node3 -->
<g id="edge2" class="edge"><title>Node1&#45;&gt;Node3</title>
<path fill="none" stroke="midnightblue" d="M141.841,-20.3294C153.86,-18.937 166.085,-17.5206 177.474,-16.2012"/>
<polygon fill="midnightblue" stroke="midnightblue" points="141.348,-16.863 131.817,-21.4907 142.154,-23.8165 141.348,-16.863"/>
</g>
</g>
</svg>
