<?xml version="1.0" encoding="UTF-8" standalone="no"?>
<!DOCTYPE svg PUBLIC "-//W3C//DTD SVG 1.1//EN"
 "http://www.w3.org/Graphics/SVG/1.1/DTD/svg11.dtd">
<!-- Generated by graphviz version 2.36.0 (20140111.2315)
 -->
<!-- Title: wlp::StringIterator&lt; String, Ref, Ptr &gt; Pages: 1 -->
<svg width="178pt" height="108pt"
 viewBox="0.00 0.00 178.00 108.00" xmlns="http://www.w3.org/2000/svg" xmlns:xlink="http://www.w3.org/1999/xlink">
<g id="graph0" class="graph" transform="scale(1 1) rotate(0) translate(4 104)">
<title>wlp::StringIterator&lt; String, Ref, Ptr &gt;</title>
<polygon fill="white" stroke="none" points="-4,4 -4,-104 174,-104 174,4 -4,4"/>
<!-- Node1 -->
<g id="node1" class="node"><title>Node1</title>
<polygon fill="#bfbfbf" stroke="black" points="21.5,-1 21.5,-31 122.5,-31 122.5,-1 21.5,-1"/>
<text text-anchor="start" x="29.5" y="-19" font-family="Helvetica,sans-Serif" font-size="10.00">wlp::StringIterator</text>
<text text-anchor="middle" x="72" y="-8" font-family="Helvetica,sans-Serif" font-size="10.00">&lt; String, Ref, Ptr &gt;</text>
</g>
<!-- Node2 -->
<g id="node2" class="node"><title>Node2</title>
<polygon fill="white" stroke="#bfbfbf" points="-0.5,-80.5 -0.5,-99.5 50.5,-99.5 50.5,-80.5 -0.5,-80.5"/>
<text text-anchor="middle" x="25" y="-87.5" font-family="Helvetica,sans-Serif" font-size="10.00">uint16_t</text>
</g>
<!-- Node2&#45;&gt;Node1 -->
<g id="edge1" class="edge"><title>Node2&#45;&gt;Node1</title>
<path fill="none" stroke="#9a32cd" stroke-dasharray="5,2" d="M36.1374,-71.9385C44.2368,-59.5308 55.0753,-42.9271 62.7099,-31.2316"/>
<polygon fill="#9a32cd" stroke="#9a32cd" points="33.1115,-70.1709 30.5761,-80.4579 38.9732,-73.9973 33.1115,-70.1709"/>
<text text-anchor="middle" x="59.5" y="-53.5" font-family="Helvetica,sans-Serif" font-size="10.00"> m_i</text>
</g>
<!-- Node3 -->
<g id="node3" class="node"><title>Node3</title>
<g id="a_node3"><a xlink:href="../../d8/db4/classwlp_1_1_dynamic_string.html" target="_top" xlink:title="wlp::DynamicString">
<polygon fill="white" stroke="black" points="68,-80.5 68,-99.5 170,-99.5 170,-80.5 68,-80.5"/>
<text text-anchor="middle" x="119" y="-87.5" font-family="Helvetica,sans-Serif" font-size="10.00">wlp::DynamicString</text>
</a>
</g>
</g>
<!-- Node3&#45;&gt;Node1 -->
<g id="edge2" class="edge"><title>Node3&#45;&gt;Node1</title>
<path fill="none" stroke="#9a32cd" stroke-dasharray="5,2" d="M107.863,-71.9385C99.7632,-59.5308 88.9247,-42.9271 81.2901,-31.2316"/>
<polygon fill="#9a32cd" stroke="#9a32cd" points="105.027,-73.9973 113.424,-80.4579 110.888,-70.1709 105.027,-73.9973"/>
<text text-anchor="middle" x="121.5" y="-53.5" font-family="Helvetica,sans-Serif" font-size="10.00"> m_string</text>
</g>
</g>
</svg>
