<?xml version="1.0" encoding="UTF-8" standalone="no"?>
<!DOCTYPE svg PUBLIC "-//W3C//DTD SVG 1.1//EN"
 "http://www.w3.org/Graphics/SVG/1.1/DTD/svg11.dtd">
<!-- Generated by graphviz version 2.36.0 (20140111.2315)
 -->
<!-- Title: wlp::StringIterator&lt; String, Ref, Ptr &gt; Pages: 1 -->
<svg width="147pt" height="108pt"
 viewBox="0.00 0.00 147.00 108.00" xmlns="http://www.w3.org/2000/svg" xmlns:xlink="http://www.w3.org/1999/xlink">
<g id="graph0" class="graph" transform="scale(1 1) rotate(0) translate(4 104)">
<title>wlp::StringIterator&lt; String, Ref, Ptr &gt;</title>
<polygon fill="white" stroke="none" points="-4,4 -4,-104 143,-104 143,4 -4,4"/>
<!-- Node1 -->
<g id="node1" class="node"><title>Node1</title>
<polygon fill="#bfbfbf" stroke="black" points="13.5,-1 13.5,-31 114.5,-31 114.5,-1 13.5,-1"/>
<text text-anchor="start" x="21.5" y="-19" font-family="Helvetica,sans-Serif" font-size="10.00">wlp::StringIterator</text>
<text text-anchor="middle" x="64" y="-8" font-family="Helvetica,sans-Serif" font-size="10.00">&lt; String, Ref, Ptr &gt;</text>
</g>
<!-- Node2 -->
<g id="node2" class="node"><title>Node2</title>
<polygon fill="white" stroke="#bfbfbf" points="-0.5,-80.5 -0.5,-99.5 50.5,-99.5 50.5,-80.5 -0.5,-80.5"/>
<text text-anchor="middle" x="25" y="-87.5" font-family="Helvetica,sans-Serif" font-size="10.00">uint16_t</text>
</g>
<!-- Node2&#45;&gt;Node1 -->
<g id="edge1" class="edge"><title>Node2&#45;&gt;Node1</title>
<path fill="none" stroke="#9a32cd" stroke-dasharray="5,2" d="M34.44,-71.5723C41.1386,-59.2058 50.0182,-42.8125 56.2912,-31.2316"/>
<polygon fill="#9a32cd" stroke="#9a32cd" points="31.3123,-69.998 29.627,-80.4579 37.4674,-73.332 31.3123,-69.998"/>
<text text-anchor="middle" x="55.5" y="-53.5" font-family="Helvetica,sans-Serif" font-size="10.00"> m_i</text>
</g>
<!-- Node3 -->
<g id="node3" class="node"><title>Node3</title>
<polygon fill="white" stroke="#bfbfbf" points="68.5,-80.5 68.5,-99.5 139.5,-99.5 139.5,-80.5 68.5,-80.5"/>
<text text-anchor="middle" x="104" y="-87.5" font-family="Helvetica,sans-Serif" font-size="10.00">string_type *</text>
</g>
<!-- Node3&#45;&gt;Node1 -->
<g id="edge2" class="edge"><title>Node3&#45;&gt;Node1</title>
<path fill="none" stroke="#9a32cd" stroke-dasharray="5,2" d="M94.318,-71.5723C87.4476,-59.2058 78.3403,-42.8125 71.9064,-31.2316"/>
<polygon fill="#9a32cd" stroke="#9a32cd" points="91.3384,-73.4161 99.2544,-80.4579 97.4575,-70.0166 91.3384,-73.4161"/>
<text text-anchor="middle" x="108.5" y="-53.5" font-family="Helvetica,sans-Serif" font-size="10.00"> m_string</text>
</g>
</g>
</svg>
