<?xml version="1.0" encoding="UTF-8" standalone="no"?>
<!DOCTYPE svg PUBLIC "-//W3C//DTD SVG 1.1//EN"
 "http://www.w3.org/Graphics/SVG/1.1/DTD/svg11.dtd">
<!-- Generated by graphviz version 2.38.0 (20140413.2041)
 -->
<!-- Title: wlp::list_concept&lt; C, true &gt; Pages: 1 -->
<svg width="240pt" height="117pt"
 viewBox="0.00 0.00 240.00 117.00" xmlns="http://www.w3.org/2000/svg" xmlns:xlink="http://www.w3.org/1999/xlink">
<g id="graph0" class="graph" transform="scale(1 1) rotate(0) translate(4 113)">
<title>wlp::list_concept&lt; C, true &gt;</title>
<polygon fill="white" stroke="none" points="-4,4 -4,-113 236,-113 236,4 -4,4"/>
<!-- Node1 -->
<g id="node1" class="node"><title>Node1</title>
<polygon fill="#bfbfbf" stroke="black" points="68,-0.5 68,-30.5 163,-30.5 163,-0.5 68,-0.5"/>
<text text-anchor="start" x="76" y="-18.5" font-family="Helvetica,sans-Serif" font-size="10.00">wlp::list_concept&lt;</text>
<text text-anchor="middle" x="115.5" y="-7.5" font-family="Helvetica,sans-Serif" font-size="10.00"> C, true &gt;</text>
</g>
<!-- Node2 -->
<g id="node2" class="node"><title>Node2</title>
<polygon fill="white" stroke="#bfbfbf" points="0,-84 0,-103 107,-103 107,-84 0,-84"/>
<text text-anchor="middle" x="53.5" y="-91" font-family="Helvetica,sans-Serif" font-size="10.00">static constexpr bool</text>
</g>
<!-- Node2&#45;&gt;Node1 -->
<g id="edge1" class="edge"><title>Node2&#45;&gt;Node1</title>
<path fill="none" stroke="#9a32cd" stroke-dasharray="5,2" d="M67.1608,-75.7545C78.2274,-62.189 93.6397,-43.2964 104.063,-30.5198"/>
<polygon fill="#9a32cd" stroke="#9a32cd" points="64.2215,-73.8207 60.6122,-83.7818 69.6455,-78.2456 64.2215,-73.8207"/>
<text text-anchor="middle" x="101" y="-52" font-family="Helvetica,sans-Serif" font-size="10.00"> value</text>
</g>
<!-- Node3 -->
<g id="node3" class="node"><title>Node3</title>
<polygon fill="white" stroke="#bfbfbf" points="125,-78.5 125,-108.5 232,-108.5 232,-78.5 125,-78.5"/>
<text text-anchor="start" x="133" y="-96.5" font-family="Helvetica,sans-Serif" font-size="10.00">decltype(check&lt; C &gt;</text>
<text text-anchor="middle" x="178.5" y="-85.5" font-family="Helvetica,sans-Serif" font-size="10.00">(nullptr)) typedef</text>
</g>
<!-- Node3&#45;&gt;Node1 -->
<g id="edge2" class="edge"><title>Node3&#45;&gt;Node1</title>
<path fill="none" stroke="#9a32cd" stroke-dasharray="5,2" d="M160.103,-70.3065C149.514,-57.5329 136.522,-41.8596 127.297,-30.7309"/>
<polygon fill="#9a32cd" stroke="#9a32cd" points="157.574,-72.7398 166.65,-78.205 162.963,-68.2725 157.574,-72.7398"/>
<text text-anchor="middle" x="161.5" y="-52" font-family="Helvetica,sans-Serif" font-size="10.00"> type</text>
</g>
</g>
</svg>
