<?xml version="1.0" encoding="UTF-8" standalone="no"?>
<!DOCTYPE svg PUBLIC "-//W3C//DTD SVG 1.1//EN"
 "http://www.w3.org/Graphics/SVG/1.1/DTD/svg11.dtd">
<!-- Generated by graphviz version 2.36.0 (20140111.2315)
 -->
<!-- Title: wlp::list_concept&lt; C, true &gt; Pages: 1 -->
<svg width="241pt" height="120pt"
 viewBox="0.00 0.00 241.00 120.00" xmlns="http://www.w3.org/2000/svg" xmlns:xlink="http://www.w3.org/1999/xlink">
<g id="graph0" class="graph" transform="scale(1 1) rotate(0) translate(4 116)">
<title>wlp::list_concept&lt; C, true &gt;</title>
<polygon fill="white" stroke="none" points="-4,4 -4,-116 237,-116 237,4 -4,4"/>
<!-- Node1 -->
<g id="node1" class="node"><title>Node1</title>
<polygon fill="#bfbfbf" stroke="black" points="68,-1 68,-31 164,-31 164,-1 68,-1"/>
<text text-anchor="start" x="76" y="-19" font-family="Helvetica,sans-Serif" font-size="10.00">wlp::list_concept&lt;</text>
<text text-anchor="middle" x="116" y="-8" font-family="Helvetica,sans-Serif" font-size="10.00"> C, true &gt;</text>
</g>
<!-- Node2 -->
<g id="node2" class="node"><title>Node2</title>
<polygon fill="white" stroke="#bfbfbf" points="-0.5,-86.5 -0.5,-105.5 106.5,-105.5 106.5,-86.5 -0.5,-86.5"/>
<text text-anchor="middle" x="53" y="-93.5" font-family="Helvetica,sans-Serif" font-size="10.00">static constexpr bool</text>
</g>
<!-- Node2&#45;&gt;Node1 -->
<g id="edge1" class="edge"><title>Node2&#45;&gt;Node1</title>
<path fill="none" stroke="#9a32cd" stroke-dasharray="5,2" d="M66.3289,-78.4975C77.6544,-64.4755 93.7424,-44.557 104.509,-31.227"/>
<polygon fill="#9a32cd" stroke="#9a32cd" points="63.5434,-76.376 59.9828,-86.3546 68.989,-80.7744 63.5434,-76.376"/>
<text text-anchor="middle" x="102.5" y="-53.5" font-family="Helvetica,sans-Serif" font-size="10.00"> value</text>
</g>
<!-- Node3 -->
<g id="node3" class="node"><title>Node3</title>
<polygon fill="white" stroke="#bfbfbf" points="125,-81 125,-111 233,-111 233,-81 125,-81"/>
<text text-anchor="start" x="133" y="-99" font-family="Helvetica,sans-Serif" font-size="10.00">decltype(check&lt; C &gt;</text>
<text text-anchor="middle" x="179" y="-88" font-family="Helvetica,sans-Serif" font-size="10.00">(nullptr)) typedef</text>
</g>
<!-- Node3&#45;&gt;Node1 -->
<g id="edge2" class="edge"><title>Node3&#45;&gt;Node1</title>
<path fill="none" stroke="#9a32cd" stroke-dasharray="5,2" d="M161.122,-72.8651C150.321,-59.493 136.874,-42.8445 127.482,-31.2157"/>
<polygon fill="#9a32cd" stroke="#9a32cd" points="158.439,-75.1134 167.445,-80.6936 163.884,-70.715 158.439,-75.1134"/>
<text text-anchor="middle" x="163" y="-53.5" font-family="Helvetica,sans-Serif" font-size="10.00"> type</text>
</g>
</g>
</svg>
