<?xml version="1.0" encoding="UTF-8" standalone="no"?>
<!DOCTYPE svg PUBLIC "-//W3C//DTD SVG 1.1//EN"
 "http://www.w3.org/Graphics/SVG/1.1/DTD/svg11.dtd">
<!-- Generated by graphviz version 2.36.0 (20140111.2315)
 -->
<!-- Title: wlp::isnt_any_of&lt; comp_t, target, head &gt; Pages: 1 -->
<svg width="128pt" height="108pt"
 viewBox="0.00 0.00 128.00 108.00" xmlns="http://www.w3.org/2000/svg" xmlns:xlink="http://www.w3.org/1999/xlink">
<g id="graph0" class="graph" transform="scale(1 1) rotate(0) translate(4 104)">
<title>wlp::isnt_any_of&lt; comp_t, target, head &gt;</title>
<polygon fill="white" stroke="none" points="-4,4 -4,-104 124,-104 124,4 -4,4"/>
<!-- Node1 -->
<g id="node1" class="node"><title>Node1</title>
<polygon fill="#bfbfbf" stroke="black" points="-0.5,-1 -0.5,-31 120.5,-31 120.5,-1 -0.5,-1"/>
<text text-anchor="start" x="7.5" y="-19" font-family="Helvetica,sans-Serif" font-size="10.00">wlp::isnt_any_of&lt; comp</text>
<text text-anchor="middle" x="60" y="-8" font-family="Helvetica,sans-Serif" font-size="10.00">_t, target, head &gt;</text>
</g>
<!-- Node2 -->
<g id="node2" class="node"><title>Node2</title>
<polygon fill="white" stroke="#bfbfbf" points="15.5,-80.5 15.5,-99.5 104.5,-99.5 104.5,-80.5 15.5,-80.5"/>
<text text-anchor="middle" x="60" y="-87.5" font-family="Helvetica,sans-Serif" font-size="10.00">static const bool</text>
</g>
<!-- Node2&#45;&gt;Node1 -->
<g id="edge1" class="edge"><title>Node2&#45;&gt;Node1</title>
<path fill="none" stroke="#9a32cd" stroke-dasharray="5,2" d="M60,-70.0846C60,-57.9148 60,-42.3538 60,-31.2316"/>
<polygon fill="#9a32cd" stroke="#9a32cd" points="56.5001,-70.4579 60,-80.4579 63.5001,-70.4579 56.5001,-70.4579"/>
<text text-anchor="middle" x="73.5" y="-53.5" font-family="Helvetica,sans-Serif" font-size="10.00"> value</text>
</g>
</g>
</svg>
