<?xml version="1.0" encoding="UTF-8" standalone="no"?>
<!DOCTYPE svg PUBLIC "-//W3C//DTD SVG 1.1//EN"
 "http://www.w3.org/Graphics/SVG/1.1/DTD/svg11.dtd">
<!-- Generated by graphviz version 2.36.0 (20140111.2315)
 -->
<!-- Title: wlib/stl/Table.h Pages: 1 -->
<svg width="683pt" height="84pt"
 viewBox="0.00 0.00 683.00 84.00" xmlns="http://www.w3.org/2000/svg" xmlns:xlink="http://www.w3.org/1999/xlink">
<g id="graph0" class="graph" transform="scale(1 1) rotate(0) translate(4 80)">
<title>wlib/stl/Table.h</title>
<polygon fill="white" stroke="none" points="-4,4 -4,-80 679,-80 679,4 -4,4"/>
<!-- Node1 -->
<g id="node1" class="node"><title>Node1</title>
<polygon fill="#bfbfbf" stroke="black" points="300.5,-56.5 300.5,-75.5 383.5,-75.5 383.5,-56.5 300.5,-56.5"/>
<text text-anchor="middle" x="342" y="-63.5" font-family="Helvetica,sans-Serif" font-size="10.00">wlib/stl/Table.h</text>
</g>
<!-- Node2 -->
<g id="node2" class="node"><title>Node2</title>
<g id="a_node2"><a xlink:href="../../dd/d0b/_hash_map_8h.html" target="_top" xlink:title="wlib/stl/HashMap.h">
<polygon fill="white" stroke="black" points="-0.5,-0.5 -0.5,-19.5 100.5,-19.5 100.5,-0.5 -0.5,-0.5"/>
<text text-anchor="middle" x="50" y="-7.5" font-family="Helvetica,sans-Serif" font-size="10.00">wlib/stl/HashMap.h</text>
</a>
</g>
</g>
<!-- Node1&#45;&gt;Node2 -->
<g id="edge1" class="edge"><title>Node1&#45;&gt;Node2</title>
<path fill="none" stroke="midnightblue" d="M290.583,-55.4915C235.575,-45.3186 149.116,-29.3297 96.2009,-19.544"/>
<polygon fill="midnightblue" stroke="midnightblue" points="290.004,-58.9435 300.474,-57.3205 291.277,-52.0603 290.004,-58.9435"/>
</g>
<!-- Node3 -->
<g id="node3" class="node"><title>Node3</title>
<g id="a_node3"><a xlink:href="../../d2/dfc/_hash_set_8h.html" target="_top" xlink:title="wlib/stl/HashSet.h">
<polygon fill="white" stroke="black" points="118.5,-0.5 118.5,-19.5 215.5,-19.5 215.5,-0.5 118.5,-0.5"/>
<text text-anchor="middle" x="167" y="-7.5" font-family="Helvetica,sans-Serif" font-size="10.00">wlib/stl/HashSet.h</text>
</a>
</g>
</g>
<!-- Node1&#45;&gt;Node3 -->
<g id="edge2" class="edge"><title>Node1&#45;&gt;Node3</title>
<path fill="none" stroke="midnightblue" d="M304.525,-53.4363C271.53,-43.2551 224.244,-28.664 194.6,-19.5164"/>
<polygon fill="midnightblue" stroke="midnightblue" points="303.683,-56.8393 314.271,-56.4435 305.747,-50.1505 303.683,-56.8393"/>
</g>
<!-- Node4 -->
<g id="node4" class="node"><title>Node4</title>
<g id="a_node4"><a xlink:href="../../d5/d7a/_open_map_8h.html" target="_top" xlink:title="Hash map implementation. ">
<polygon fill="white" stroke="black" points="233.5,-0.5 233.5,-19.5 334.5,-19.5 334.5,-0.5 233.5,-0.5"/>
<text text-anchor="middle" x="284" y="-7.5" font-family="Helvetica,sans-Serif" font-size="10.00">wlib/stl/OpenMap.h</text>
</a>
</g>
</g>
<!-- Node1&#45;&gt;Node4 -->
<g id="edge3" class="edge"><title>Node1&#45;&gt;Node4</title>
<path fill="none" stroke="midnightblue" d="M325.087,-49.2533C314.797,-39.6731 302.034,-27.7906 293.488,-19.8339"/>
<polygon fill="midnightblue" stroke="midnightblue" points="322.977,-52.0714 332.681,-56.324 327.747,-46.9481 322.977,-52.0714"/>
</g>
<!-- Node5 -->
<g id="node5" class="node"><title>Node5</title>
<g id="a_node5"><a xlink:href="../../d0/de6/_open_set_8h.html" target="_top" xlink:title="Hash set implementation. ">
<polygon fill="white" stroke="black" points="352.5,-0.5 352.5,-19.5 449.5,-19.5 449.5,-0.5 352.5,-0.5"/>
<text text-anchor="middle" x="401" y="-7.5" font-family="Helvetica,sans-Serif" font-size="10.00">wlib/stl/OpenSet.h</text>
</a>
</g>
</g>
<!-- Node1&#45;&gt;Node5 -->
<g id="edge4" class="edge"><title>Node1&#45;&gt;Node5</title>
<path fill="none" stroke="midnightblue" d="M358.895,-49.5372C369.415,-39.9087 382.569,-27.8694 391.348,-19.8339"/>
<polygon fill="midnightblue" stroke="midnightblue" points="356.493,-46.9905 351.479,-56.324 361.219,-52.1542 356.493,-46.9905"/>
</g>
<!-- Node6 -->
<g id="node6" class="node"><title>Node6</title>
<g id="a_node6"><a xlink:href="../../df/d87/_tree_map_8h.html" target="_top" xlink:title="Map implementation using red black tree. ">
<polygon fill="white" stroke="black" points="467.5,-0.5 467.5,-19.5 564.5,-19.5 564.5,-0.5 467.5,-0.5"/>
<text text-anchor="middle" x="516" y="-7.5" font-family="Helvetica,sans-Serif" font-size="10.00">wlib/stl/TreeMap.h</text>
</a>
</g>
</g>
<!-- Node1&#45;&gt;Node6 -->
<g id="edge5" class="edge"><title>Node1&#45;&gt;Node6</title>
<path fill="none" stroke="midnightblue" d="M379.261,-53.4363C412.067,-43.2551 459.083,-28.664 488.558,-19.5164"/>
<polygon fill="midnightblue" stroke="midnightblue" points="378.084,-50.1368 369.571,-56.4435 380.159,-56.8222 378.084,-50.1368"/>
</g>
<!-- Node7 -->
<g id="node7" class="node"><title>Node7</title>
<g id="a_node7"><a xlink:href="../../dd/dba/_tree_set_8h.html" target="_top" xlink:title="Set implementation using red black tree. ">
<polygon fill="white" stroke="black" points="582.5,-0.5 582.5,-19.5 675.5,-19.5 675.5,-0.5 582.5,-0.5"/>
<text text-anchor="middle" x="629" y="-7.5" font-family="Helvetica,sans-Serif" font-size="10.00">wlib/stl/TreeSet.h</text>
</a>
</g>
</g>
<!-- Node1&#45;&gt;Node7 -->
<g id="edge6" class="edge"><title>Node1&#45;&gt;Node7</title>
<path fill="none" stroke="midnightblue" d="M393.796,-55.2545C447.856,-45.0828 531.801,-29.2883 583.422,-19.5756"/>
<polygon fill="midnightblue" stroke="midnightblue" points="392.913,-51.8591 383.732,-57.1479 394.207,-58.7384 392.913,-51.8591"/>
</g>
</g>
</svg>
