<?xml version="1.0" encoding="UTF-8" standalone="no"?>
<!DOCTYPE svg PUBLIC "-//W3C//DTD SVG 1.1//EN"
 "http://www.w3.org/Graphics/SVG/1.1/DTD/svg11.dtd">
<!-- Generated by graphviz version 2.36.0 (20140111.2315)
 -->
<!-- Title: wlib/stl/Table.h Pages: 1 -->
<svg width="564pt" height="84pt"
 viewBox="0.00 0.00 564.00 84.00" xmlns="http://www.w3.org/2000/svg" xmlns:xlink="http://www.w3.org/1999/xlink">
<g id="graph0" class="graph" transform="scale(1 1) rotate(0) translate(4 80)">
<title>wlib/stl/Table.h</title>
<polygon fill="white" stroke="none" points="-4,4 -4,-80 560,-80 560,4 -4,4"/>
<!-- Node1 -->
<g id="node1" class="node"><title>Node1</title>
<polygon fill="#bfbfbf" stroke="black" points="240.5,-56.5 240.5,-75.5 323.5,-75.5 323.5,-56.5 240.5,-56.5"/>
<text text-anchor="middle" x="282" y="-63.5" font-family="Helvetica,sans-Serif" font-size="10.00">wlib/stl/Table.h</text>
</g>
<!-- Node2 -->
<g id="node2" class="node"><title>Node2</title>
<g id="a_node2"><a xlink:href="../../dd/d0b/_hash_map_8h.html" target="_top" xlink:title="wlib/stl/HashMap.h">
<polygon fill="white" stroke="black" points="-0.5,-0.5 -0.5,-19.5 100.5,-19.5 100.5,-0.5 -0.5,-0.5"/>
<text text-anchor="middle" x="50" y="-7.5" font-family="Helvetica,sans-Serif" font-size="10.00">wlib/stl/HashMap.h</text>
</a>
</g>
</g>
<!-- Node1&#45;&gt;Node2 -->
<g id="edge1" class="edge"><title>Node1&#45;&gt;Node2</title>
<path fill="none" stroke="midnightblue" d="M235.397,-54.1529C191.563,-43.95 126.822,-28.8809 86.5891,-19.5164"/>
<polygon fill="midnightblue" stroke="midnightblue" points="234.706,-57.5854 245.239,-56.4435 236.293,-50.7676 234.706,-57.5854"/>
</g>
<!-- Node3 -->
<g id="node3" class="node"><title>Node3</title>
<g id="a_node3"><a xlink:href="../../d2/dfc/_hash_set_8h.html" target="_top" xlink:title="wlib/stl/HashSet.h">
<polygon fill="white" stroke="black" points="118.5,-0.5 118.5,-19.5 215.5,-19.5 215.5,-0.5 118.5,-0.5"/>
<text text-anchor="middle" x="167" y="-7.5" font-family="Helvetica,sans-Serif" font-size="10.00">wlib/stl/HashSet.h</text>
</a>
</g>
</g>
<!-- Node1&#45;&gt;Node3 -->
<g id="edge2" class="edge"><title>Node1&#45;&gt;Node3</title>
<path fill="none" stroke="midnightblue" d="M254.519,-52.096C233.034,-42.0073 203.778,-28.2697 185.137,-19.5164"/>
<polygon fill="midnightblue" stroke="midnightblue" points="253.238,-55.3612 263.778,-56.4435 256.214,-49.025 253.238,-55.3612"/>
</g>
<!-- Node4 -->
<g id="node4" class="node"><title>Node4</title>
<g id="a_node4"><a xlink:href="../../d0/de6/_open_set_8h.html" target="_top" xlink:title="Hash set implementation. ">
<polygon fill="white" stroke="black" points="233.5,-0.5 233.5,-19.5 330.5,-19.5 330.5,-0.5 233.5,-0.5"/>
<text text-anchor="middle" x="282" y="-7.5" font-family="Helvetica,sans-Serif" font-size="10.00">wlib/stl/OpenSet.h</text>
</a>
</g>
</g>
<!-- Node1&#45;&gt;Node4 -->
<g id="edge3" class="edge"><title>Node1&#45;&gt;Node4</title>
<path fill="none" stroke="midnightblue" d="M282,-45.8045C282,-36.9102 282,-26.7798 282,-19.7511"/>
<polygon fill="midnightblue" stroke="midnightblue" points="278.5,-46.083 282,-56.083 285.5,-46.083 278.5,-46.083"/>
</g>
<!-- Node5 -->
<g id="node5" class="node"><title>Node5</title>
<g id="a_node5"><a xlink:href="../../df/d87/_tree_map_8h.html" target="_top" xlink:title="Map implementation using red black tree. ">
<polygon fill="white" stroke="black" points="348.5,-0.5 348.5,-19.5 445.5,-19.5 445.5,-0.5 348.5,-0.5"/>
<text text-anchor="middle" x="397" y="-7.5" font-family="Helvetica,sans-Serif" font-size="10.00">wlib/stl/TreeMap.h</text>
</a>
</g>
</g>
<!-- Node1&#45;&gt;Node5 -->
<g id="edge4" class="edge"><title>Node1&#45;&gt;Node5</title>
<path fill="none" stroke="midnightblue" d="M309.481,-52.096C330.966,-42.0073 360.222,-28.2697 378.863,-19.5164"/>
<polygon fill="midnightblue" stroke="midnightblue" points="307.786,-49.025 300.222,-56.4435 310.762,-55.3612 307.786,-49.025"/>
</g>
<!-- Node6 -->
<g id="node6" class="node"><title>Node6</title>
<g id="a_node6"><a xlink:href="../../dd/dba/_tree_set_8h.html" target="_top" xlink:title="Set implementation using red black tree. ">
<polygon fill="white" stroke="black" points="463.5,-0.5 463.5,-19.5 556.5,-19.5 556.5,-0.5 463.5,-0.5"/>
<text text-anchor="middle" x="510" y="-7.5" font-family="Helvetica,sans-Serif" font-size="10.00">wlib/stl/TreeSet.h</text>
</a>
</g>
</g>
<!-- Node1&#45;&gt;Node6 -->
<g id="edge5" class="edge"><title>Node1&#45;&gt;Node6</title>
<path fill="none" stroke="midnightblue" d="M328.071,-54.0884C371.146,-43.8865 434.586,-28.8612 474.042,-19.5164"/>
<polygon fill="midnightblue" stroke="midnightblue" points="327.051,-50.733 318.127,-56.4435 328.665,-57.5446 327.051,-50.733"/>
</g>
</g>
</svg>
