<?xml version="1.0" encoding="UTF-8" standalone="no"?>
<!DOCTYPE svg PUBLIC "-//W3C//DTD SVG 1.1//EN"
 "http://www.w3.org/Graphics/SVG/1.1/DTD/svg11.dtd">
<!-- Generated by graphviz version 2.36.0 (20140111.2315)
 -->
<!-- Title: stl/ChainSet.h Pages: 1 -->
<!--zoomable 588 -->
<svg id="main" version="1.1" xmlns="http://www.w3.org/2000/svg" xmlns:xlink="http://www.w3.org/1999/xlink" xml:space="preserve" onload="init(evt)">
<style type="text/css"><![CDATA[
.edge:hover path { stroke: red; }
.edge:hover polygon { stroke: red; fill: red; }
]]></style>
<script type="text/javascript"><![CDATA[
var edges = document.getElementsByTagName('g');
if (edges && edges.length) {
  for (var i=0;i<edges.length;i++) {
    if (edges[i].id.substr(0,4)=='edge') {
      edges[i].setAttribute('class','edge');
    }
  }
}
]]></script>
        <defs>
                <circle id="rim" cx="0" cy="0" r="7"/>
                <circle id="rim2" cx="0" cy="0" r="3.5"/>
                <g id="zoomPlus">
                        <use xlink:href="#rim" fill="#404040">
                                <set attributeName="fill" to="#808080" begin="zoomplus.mouseover" end="zoomplus.mouseout"/>
                        </use>
                        <path d="M-4,0h8M0,-4v8" fill="none" stroke="white" stroke-width="1.5" pointer-events="none"/>
                </g>
                <g id="zoomMin">
                        <use xlink:href="#rim" fill="#404040">
                                <set attributeName="fill" to="#808080" begin="zoomminus.mouseover" end="zoomminus.mouseout"/>
                        </use>
                        <path d="M-4,0h8" fill="none" stroke="white" stroke-width="1.5" pointer-events="none"/>
                </g>
                <g id="dirArrow">
                        <path fill="none" stroke="white" stroke-width="1.5" d="M0,-3.0v7 M-2.5,-0.5L0,-3.0L2.5,-0.5"/>
                </g>
               <g id="resetDef">
                       <use xlink:href="#rim2" fill="#404040">
                               <set attributeName="fill" to="#808080" begin="reset.mouseover" end="reset.mouseout"/>
                       </use>
               </g>
        </defs>

<script type="text/javascript">
var viewWidth = 755;
var viewHeight = 588;
var sectionId = 'dynsection-0';
</script>
<script xlink:href="../../svgpan.js"/>
<svg id="graph" class="graph">
<g id="viewport">
<title>stl/ChainSet.h</title>
<polygon fill="white" stroke="none" points="-4,4 -4,-584 751,-584 751,4 -4,4"/>
<!-- Node1 -->
<g id="node1" class="node"><title>Node1</title>
<polygon fill="#bfbfbf" stroke="black" points="176.5,-560.5 176.5,-579.5 255.5,-579.5 255.5,-560.5 176.5,-560.5"/>
<text text-anchor="middle" x="216" y="-567.5" font-family="Helvetica,sans-Serif" font-size="10.00">stl/ChainSet.h</text>
</g>
<!-- Node2 -->
<g id="node2" class="node"><title>Node2</title>
<g id="a_node2"><a xlink:href="../../d3/dbe/_chain_map_8h.html" target="_top" xlink:title="Hasher map implementation. ">
<polygon fill="white" stroke="black" points="181.5,-504.5 181.5,-523.5 250.5,-523.5 250.5,-504.5 181.5,-504.5"/>
<text text-anchor="middle" x="216" y="-511.5" font-family="Helvetica,sans-Serif" font-size="10.00">ChainMap.h</text>
</a>
</g>
</g>
<!-- Node1&#45;&gt;Node2 -->
<g id="edge1" class="edge"><title>Node1&#45;&gt;Node2</title>
<path fill="none" stroke="midnightblue" d="M216,-560.083C216,-553.006 216,-542.861 216,-533.986"/>
<polygon fill="midnightblue" stroke="midnightblue" points="219.5,-533.751 216,-523.751 212.5,-533.751 219.5,-533.751"/>
</g>
<!-- Node3 -->
<g id="node3" class="node"><title>Node3</title>
<g id="a_node3"><a xlink:href="../../d2/dc2/_equal_8h.html" target="_top" xlink:title="Equal.h">
<polygon fill="white" stroke="black" points="275,-448.5 275,-467.5 325,-467.5 325,-448.5 275,-448.5"/>
<text text-anchor="middle" x="300" y="-455.5" font-family="Helvetica,sans-Serif" font-size="10.00">Equal.h</text>
</a>
</g>
</g>
<!-- Node2&#45;&gt;Node3 -->
<g id="edge2" class="edge"><title>Node2&#45;&gt;Node3</title>
<path fill="none" stroke="midnightblue" d="M229.496,-504.324C242.6,-495.9 262.712,-482.971 278.107,-473.074"/>
<polygon fill="midnightblue" stroke="midnightblue" points="280.018,-476.006 286.537,-467.655 276.233,-470.118 280.018,-476.006"/>
</g>
<!-- Node10 -->
<g id="node10" class="node"><title>Node10</title>
<g id="a_node10"><a xlink:href="../../d4/dda/_pair_8h.html" target="_top" xlink:title="Implementation of a 2&#45;element tuple. ">
<polygon fill="white" stroke="black" points="205,-224.5 205,-243.5 247,-243.5 247,-224.5 205,-224.5"/>
<text text-anchor="middle" x="226" y="-231.5" font-family="Helvetica,sans-Serif" font-size="10.00">Pair.h</text>
</a>
</g>
</g>
<!-- Node2&#45;&gt;Node10 -->
<g id="edge33" class="edge"><title>Node2&#45;&gt;Node10</title>
<path fill="none" stroke="midnightblue" d="M216,-504.442C216,-485.936 216,-440.812 216,-403 216,-403 216,-403 216,-345 216,-312.816 220.298,-275.552 223.259,-253.702"/>
<polygon fill="midnightblue" stroke="midnightblue" points="226.762,-253.925 224.693,-243.534 219.831,-252.947 226.762,-253.925"/>
</g>
<!-- Node11 -->
<g id="node11" class="node"><title>Node11</title>
<g id="a_node11"><a xlink:href="../../db/d2a/_utility_8h.html" target="_top" xlink:title="Various helper functions. ">
<polygon fill="white" stroke="black" points="148,-168.5 148,-187.5 234,-187.5 234,-168.5 148,-168.5"/>
<text text-anchor="middle" x="191" y="-175.5" font-family="Helvetica,sans-Serif" font-size="10.00">../utility/Utility.h</text>
</a>
</g>
</g>
<!-- Node2&#45;&gt;Node11 -->
<g id="edge35" class="edge"><title>Node2&#45;&gt;Node11</title>
<path fill="none" stroke="midnightblue" d="M181.257,-507.569C129.456,-497.275 38,-469.661 38,-403 38,-403 38,-403 38,-289 38,-235.205 101.124,-205.134 146.281,-190.505"/>
<polygon fill="midnightblue" stroke="midnightblue" points="147.379,-193.829 155.899,-187.53 145.311,-187.141 147.379,-193.829"/>
</g>
<!-- Node16 -->
<g id="node16" class="node"><title>Node16</title>
<g id="a_node16"><a xlink:href="../../d3/de6/_memory_8h.html" target="_top" xlink:title="Memory is a class that provides dynamic fixed size memory. ">
<polygon fill="white" stroke="black" points="80.5,-336.5 80.5,-355.5 187.5,-355.5 187.5,-336.5 80.5,-336.5"/>
<text text-anchor="middle" x="134" y="-343.5" font-family="Helvetica,sans-Serif" font-size="10.00">../memory/Memory.h</text>
</a>
</g>
</g>
<!-- Node2&#45;&gt;Node16 -->
<g id="edge34" class="edge"><title>Node2&#45;&gt;Node16</title>
<path fill="none" stroke="midnightblue" d="M211.591,-504.075C198.572,-477.719 160.12,-399.878 142.724,-364.661"/>
<polygon fill="midnightblue" stroke="midnightblue" points="145.799,-362.984 138.232,-355.568 139.523,-366.084 145.799,-362.984"/>
</g>
<!-- Node19 -->
<g id="node19" class="node"><title>Node19</title>
<g id="a_node19"><a xlink:href="../../d2/dad/_hash_8h.html" target="_top" xlink:title="Hash.h">
<polygon fill="white" stroke="black" points="544,-448.5 544,-467.5 592,-467.5 592,-448.5 544,-448.5"/>
<text text-anchor="middle" x="568" y="-455.5" font-family="Helvetica,sans-Serif" font-size="10.00">Hash.h</text>
</a>
</g>
</g>
<!-- Node2&#45;&gt;Node19 -->
<g id="edge28" class="edge"><title>Node2&#45;&gt;Node19</title>
<path fill="none" stroke="midnightblue" d="M250.714,-507.674C318.216,-497.319 466.42,-474.583 533.639,-464.271"/>
<polygon fill="midnightblue" stroke="midnightblue" points="534.353,-467.703 543.707,-462.727 533.292,-460.784 534.353,-467.703"/>
</g>
<!-- Node4 -->
<g id="node4" class="node"><title>Node4</title>
<polygon fill="white" stroke="#bfbfbf" points="244.5,-280.5 244.5,-299.5 293.5,-299.5 293.5,-280.5 244.5,-280.5"/>
<text text-anchor="middle" x="269" y="-287.5" font-family="Helvetica,sans-Serif" font-size="10.00">string.h</text>
</g>
<!-- Node3&#45;&gt;Node4 -->
<g id="edge3" class="edge"><title>Node3&#45;&gt;Node4</title>
<path fill="none" stroke="midnightblue" d="M298.333,-448.075C293.454,-421.945 279.124,-345.211 272.469,-309.577"/>
<polygon fill="midnightblue" stroke="midnightblue" points="275.876,-308.756 270.6,-299.568 268.995,-310.041 275.876,-308.756"/>
</g>
<!-- Node5 -->
<g id="node5" class="node"><title>Node5</title>
<g id="a_node5"><a xlink:href="../../d0/db6/_types_8h.html" target="_top" xlink:title="type definition of all the string types we will be using ">
<polygon fill="white" stroke="black" points="411.5,-56.5 411.5,-75.5 472.5,-75.5 472.5,-56.5 411.5,-56.5"/>
<text text-anchor="middle" x="442" y="-63.5" font-family="Helvetica,sans-Serif" font-size="10.00">../Types.h</text>
</a>
</g>
</g>
<!-- Node3&#45;&gt;Node5 -->
<g id="edge4" class="edge"><title>Node3&#45;&gt;Node5</title>
<path fill="none" stroke="midnightblue" d="M305.714,-448.362C327.073,-416.064 401.101,-304.038 403,-300 415.862,-272.648 423,-265.225 423,-235 423,-235 423,-235 423,-177 423,-144.489 431.159,-107.35 436.784,-85.6103"/>
<polygon fill="midnightblue" stroke="midnightblue" points="440.218,-86.3175 439.438,-75.7514 433.459,-84.498 440.218,-86.3175"/>
</g>
<!-- Node7 -->
<g id="node7" class="node"><title>Node7</title>
<g id="a_node7"><a xlink:href="../../db/db5/_string_8h.html" target="_top" xlink:title="../strings/String.h">
<polygon fill="white" stroke="black" points="384,-392.5 384,-411.5 476,-411.5 476,-392.5 384,-392.5"/>
<text text-anchor="middle" x="430" y="-399.5" font-family="Helvetica,sans-Serif" font-size="10.00">../strings/String.h</text>
</a>
</g>
</g>
<!-- Node3&#45;&gt;Node7 -->
<g id="edge6" class="edge"><title>Node3&#45;&gt;Node7</title>
<path fill="none" stroke="midnightblue" d="M320.599,-448.444C341.993,-439.557 375.681,-425.563 400.024,-415.451"/>
<polygon fill="midnightblue" stroke="midnightblue" points="401.605,-418.585 409.497,-411.516 398.92,-412.12 401.605,-418.585"/>
</g>
<!-- Node6 -->
<g id="node6" class="node"><title>Node6</title>
<polygon fill="white" stroke="#bfbfbf" points="417.5,-0.5 417.5,-19.5 466.5,-19.5 466.5,-0.5 417.5,-0.5"/>
<text text-anchor="middle" x="442" y="-7.5" font-family="Helvetica,sans-Serif" font-size="10.00">stdint.h</text>
</g>
<!-- Node5&#45;&gt;Node6 -->
<g id="edge5" class="edge"><title>Node5&#45;&gt;Node6</title>
<path fill="none" stroke="midnightblue" d="M442,-56.083C442,-49.0059 442,-38.8611 442,-29.9865"/>
<polygon fill="midnightblue" stroke="midnightblue" points="445.5,-29.751 442,-19.7511 438.5,-29.7511 445.5,-29.751"/>
</g>
<!-- Node7&#45;&gt;Node4 -->
<g id="edge7" class="edge"><title>Node7&#45;&gt;Node4</title>
<path fill="none" stroke="midnightblue" d="M417.367,-392.368C389.739,-373.492 323.718,-328.385 289.837,-305.237"/>
<polygon fill="midnightblue" stroke="midnightblue" points="291.806,-302.343 281.575,-299.591 287.857,-308.123 291.806,-302.343"/>
</g>
<!-- Node7&#45;&gt;Node5 -->
<g id="edge19" class="edge"><title>Node7&#45;&gt;Node5</title>
<path fill="none" stroke="midnightblue" d="M442.615,-392.424C453.7,-384.269 469.503,-371.04 479,-356 495.138,-330.443 499,-321.225 499,-291 499,-291 499,-291 499,-177 499,-140.3 473.679,-103.657 456.79,-83.2973"/>
<polygon fill="midnightblue" stroke="midnightblue" points="459.348,-80.9037 450.167,-75.6161 454.046,-85.475 459.348,-80.9037"/>
</g>
<!-- Node8 -->
<g id="node8" class="node"><title>Node8</title>
<g id="a_node8"><a xlink:href="../../de/d0b/_string_iterator_8h.html" target="_top" xlink:title="StringIterator.h">
<polygon fill="white" stroke="black" points="389.5,-336.5 389.5,-355.5 470.5,-355.5 470.5,-336.5 389.5,-336.5"/>
<text text-anchor="middle" x="430" y="-343.5" font-family="Helvetica,sans-Serif" font-size="10.00">StringIterator.h</text>
</a>
</g>
</g>
<!-- Node7&#45;&gt;Node8 -->
<g id="edge8" class="edge"><title>Node7&#45;&gt;Node8</title>
<path fill="none" stroke="midnightblue" d="M430,-392.083C430,-385.006 430,-374.861 430,-365.986"/>
<polygon fill="midnightblue" stroke="midnightblue" points="433.5,-365.751 430,-355.751 426.5,-365.751 433.5,-365.751"/>
</g>
<!-- Node15 -->
<g id="node15" class="node"><title>Node15</title>
<g id="a_node15"><a xlink:href="../../da/db8/_math_8h.html" target="_top" xlink:title="../utility/Math.h">
<polygon fill="white" stroke="black" points="527,-336.5 527,-355.5 609,-355.5 609,-336.5 527,-336.5"/>
<text text-anchor="middle" x="568" y="-343.5" font-family="Helvetica,sans-Serif" font-size="10.00">../utility/Math.h</text>
</a>
</g>
</g>
<!-- Node7&#45;&gt;Node15 -->
<g id="edge20" class="edge"><title>Node7&#45;&gt;Node15</title>
<path fill="none" stroke="midnightblue" d="M451.867,-392.444C474.779,-383.478 510.975,-369.314 536.866,-359.183"/>
<polygon fill="midnightblue" stroke="midnightblue" points="538.199,-362.42 546.236,-355.516 535.648,-355.901 538.199,-362.42"/>
</g>
<!-- Node7&#45;&gt;Node16 -->
<g id="edge21" class="edge"><title>Node7&#45;&gt;Node16</title>
<path fill="none" stroke="midnightblue" d="M383.75,-392.562C331.706,-383.068 247.127,-367.638 191.031,-357.404"/>
<polygon fill="midnightblue" stroke="midnightblue" points="191.368,-353.908 180.902,-355.556 190.112,-360.794 191.368,-353.908"/>
</g>
<!-- Node8&#45;&gt;Node5 -->
<g id="edge9" class="edge"><title>Node8&#45;&gt;Node5</title>
<path fill="none" stroke="midnightblue" d="M434.181,-336.393C442.642,-318.156 461,-274.087 461,-235 461,-235 461,-235 461,-177 461,-144.489 452.841,-107.35 447.216,-85.6103"/>
<polygon fill="midnightblue" stroke="midnightblue" points="450.541,-84.498 444.562,-75.7514 443.782,-86.3175 450.541,-84.498"/>
</g>
<!-- Node9 -->
<g id="node9" class="node"><title>Node9</title>
<g id="a_node9"><a xlink:href="../../d8/dd7/_concept_8h.html" target="_top" xlink:title="Concept definitions. ">
<polygon fill="white" stroke="black" points="311,-280.5 311,-299.5 395,-299.5 395,-280.5 311,-280.5"/>
<text text-anchor="middle" x="353" y="-287.5" font-family="Helvetica,sans-Serif" font-size="10.00">../stl/Concept.h</text>
</a>
</g>
</g>
<!-- Node8&#45;&gt;Node9 -->
<g id="edge10" class="edge"><title>Node8&#45;&gt;Node9</title>
<path fill="none" stroke="midnightblue" d="M417.629,-336.324C405.842,-328.058 387.868,-315.453 373.864,-305.632"/>
<polygon fill="midnightblue" stroke="midnightblue" points="375.538,-302.531 365.341,-299.655 371.518,-308.262 375.538,-302.531"/>
</g>
<!-- Node9&#45;&gt;Node10 -->
<g id="edge11" class="edge"><title>Node9&#45;&gt;Node10</title>
<path fill="none" stroke="midnightblue" d="M332.876,-280.444C311.976,-271.557 279.065,-257.563 255.284,-247.451"/>
<polygon fill="midnightblue" stroke="midnightblue" points="256.602,-244.208 246.029,-243.516 253.862,-250.65 256.602,-244.208"/>
</g>
<!-- Node12 -->
<g id="node12" class="node"><title>Node12</title>
<g id="a_node12"><a xlink:href="../../d2/d37/_tmp_8h.html" target="_top" xlink:title="Template helper types, structs, and metafunctions. ">
<polygon fill="white" stroke="black" points="253,-112.5 253,-131.5 297,-131.5 297,-112.5 253,-112.5"/>
<text text-anchor="middle" x="275" y="-119.5" font-family="Helvetica,sans-Serif" font-size="10.00">Tmp.h</text>
</a>
</g>
</g>
<!-- Node9&#45;&gt;Node12 -->
<g id="edge18" class="edge"><title>Node9&#45;&gt;Node12</title>
<path fill="none" stroke="midnightblue" d="M347.036,-280.464C335.428,-263.529 309.578,-224.185 294,-188 287.462,-172.814 282.374,-154.698 279.115,-141.454"/>
<polygon fill="midnightblue" stroke="midnightblue" points="282.506,-140.583 276.817,-131.645 275.691,-142.18 282.506,-140.583"/>
</g>
<!-- Node13 -->
<g id="node13" class="node"><title>Node13</title>
<g id="a_node13"><a xlink:href="../../d4/dd5/_type_traits_8h.html" target="_top" xlink:title="Metafunctions for types. ">
<polygon fill="white" stroke="black" points="303.5,-168.5 303.5,-187.5 374.5,-187.5 374.5,-168.5 303.5,-168.5"/>
<text text-anchor="middle" x="339" y="-175.5" font-family="Helvetica,sans-Serif" font-size="10.00">TypeTraits.h</text>
</a>
</g>
</g>
<!-- Node9&#45;&gt;Node13 -->
<g id="edge15" class="edge"><title>Node9&#45;&gt;Node13</title>
<path fill="none" stroke="midnightblue" d="M347.616,-280.443C342.444,-271.678 334.988,-257.467 332,-244 328.543,-228.418 330.996,-210.341 333.91,-197.212"/>
<polygon fill="midnightblue" stroke="midnightblue" points="337.305,-198.063 336.346,-187.511 330.516,-196.358 337.305,-198.063"/>
</g>
<!-- Node14 -->
<g id="node14" class="node"><title>Node14</title>
<g id="a_node14"><a xlink:href="../../d2/db4/_wlib_8h.html" target="_top" xlink:title="../Wlib.h">
<polygon fill="white" stroke="black" points="341.5,-224.5 341.5,-243.5 394.5,-243.5 394.5,-224.5 341.5,-224.5"/>
<text text-anchor="middle" x="368" y="-231.5" font-family="Helvetica,sans-Serif" font-size="10.00">../Wlib.h</text>
</a>
</g>
</g>
<!-- Node9&#45;&gt;Node14 -->
<g id="edge17" class="edge"><title>Node9&#45;&gt;Node14</title>
<path fill="none" stroke="midnightblue" d="M355.477,-280.083C357.486,-272.849 360.386,-262.409 362.89,-253.397"/>
<polygon fill="midnightblue" stroke="midnightblue" points="366.265,-254.323 365.569,-243.751 359.52,-252.449 366.265,-254.323"/>
</g>
<!-- Node10&#45;&gt;Node11 -->
<g id="edge12" class="edge"><title>Node10&#45;&gt;Node11</title>
<path fill="none" stroke="midnightblue" d="M220.22,-224.083C215.328,-216.534 208.173,-205.495 202.167,-196.23"/>
<polygon fill="midnightblue" stroke="midnightblue" points="205.048,-194.239 196.672,-187.751 199.174,-198.046 205.048,-194.239"/>
</g>
<!-- Node11&#45;&gt;Node12 -->
<g id="edge13" class="edge"><title>Node11&#45;&gt;Node12</title>
<path fill="none" stroke="midnightblue" d="M204.496,-168.324C217.6,-159.9 237.712,-146.971 253.107,-137.074"/>
<polygon fill="midnightblue" stroke="midnightblue" points="255.018,-140.006 261.537,-131.655 251.233,-134.118 255.018,-140.006"/>
</g>
<!-- Node12&#45;&gt;Node5 -->
<g id="edge14" class="edge"><title>Node12&#45;&gt;Node5</title>
<path fill="none" stroke="midnightblue" d="M297.176,-113.829C324.917,-104.859 372.782,-89.3817 405.85,-78.6893"/>
<polygon fill="midnightblue" stroke="midnightblue" points="407.16,-81.9441 415.598,-75.5371 405.006,-75.2837 407.16,-81.9441"/>
</g>
<!-- Node13&#45;&gt;Node12 -->
<g id="edge16" class="edge"><title>Node13&#45;&gt;Node12</title>
<path fill="none" stroke="midnightblue" d="M328.717,-168.324C319.164,-160.263 304.72,-148.077 293.216,-138.369"/>
<polygon fill="midnightblue" stroke="midnightblue" points="295.37,-135.608 285.47,-131.834 290.856,-140.958 295.37,-135.608"/>
</g>
<!-- Node16&#45;&gt;Node4 -->
<g id="edge22" class="edge"><title>Node16&#45;&gt;Node4</title>
<path fill="none" stroke="midnightblue" d="M155.391,-336.444C177.707,-327.517 212.903,-313.439 238.208,-303.317"/>
<polygon fill="midnightblue" stroke="midnightblue" points="239.724,-306.48 247.709,-299.516 237.124,-299.981 239.724,-306.48"/>
</g>
<!-- Node16&#45;&gt;Node5 -->
<g id="edge24" class="edge"><title>Node16&#45;&gt;Node5</title>
<path fill="none" stroke="midnightblue" d="M106.883,-336.471C67.7279,-322.267 0,-289.779 0,-235 0,-235 0,-235 0,-177 0,-94.7447 291.899,-73.5349 401.272,-68.4748"/>
<polygon fill="midnightblue" stroke="midnightblue" points="401.434,-71.9711 411.27,-68.034 401.126,-64.9779 401.434,-71.9711"/>
</g>
<!-- Node16&#45;&gt;Node11 -->
<g id="edge23" class="edge"><title>Node16&#45;&gt;Node11</title>
<path fill="none" stroke="midnightblue" d="M139.387,-336.316C144.703,-327.453 152.77,-313.166 158,-300 171.948,-264.886 182.149,-221.783 187.274,-197.653"/>
<polygon fill="midnightblue" stroke="midnightblue" points="190.73,-198.224 189.322,-187.723 183.874,-196.81 190.73,-198.224"/>
</g>
<!-- Node16&#45;&gt;Node12 -->
<g id="edge25" class="edge"><title>Node16&#45;&gt;Node12</title>
<path fill="none" stroke="midnightblue" d="M123.01,-336.365C113.547,-328.171 100.564,-314.917 95,-300 89.6164,-285.568 92.323,-245.117 100,-224 110.363,-195.495 114.691,-186.137 139,-168 169.89,-144.952 213.218,-133.318 242.606,-127.725"/>
<polygon fill="midnightblue" stroke="midnightblue" points="243.518,-131.118 252.754,-125.928 242.297,-124.226 243.518,-131.118"/>
</g>
<!-- Node17 -->
<g id="node17" class="node"><title>Node17</title>
<g id="a_node17"><a xlink:href="../../d9/d8a/_new_8h.html" target="_top" xlink:title="New operators defined for Arduino boards and for other boards use the normal new. ...">
<polygon fill="white" stroke="black" points="104.5,-280.5 104.5,-299.5 149.5,-299.5 149.5,-280.5 104.5,-280.5"/>
<text text-anchor="middle" x="127" y="-287.5" font-family="Helvetica,sans-Serif" font-size="10.00">New.h</text>
</a>
</g>
</g>
<!-- Node16&#45;&gt;Node17 -->
<g id="edge26" class="edge"><title>Node16&#45;&gt;Node17</title>
<path fill="none" stroke="midnightblue" d="M132.844,-336.083C131.916,-328.927 130.582,-318.635 129.423,-309.691"/>
<polygon fill="midnightblue" stroke="midnightblue" points="132.891,-309.218 128.134,-299.751 125.949,-310.118 132.891,-309.218"/>
</g>
<!-- Node18 -->
<g id="node18" class="node"><title>Node18</title>
<polygon fill="white" stroke="#bfbfbf" points="109.5,-224.5 109.5,-243.5 144.5,-243.5 144.5,-224.5 109.5,-224.5"/>
<text text-anchor="middle" x="127" y="-231.5" font-family="Helvetica,sans-Serif" font-size="10.00">new</text>
</g>
<!-- Node17&#45;&gt;Node18 -->
<g id="edge27" class="edge"><title>Node17&#45;&gt;Node18</title>
<path fill="none" stroke="midnightblue" d="M127,-280.083C127,-273.006 127,-262.861 127,-253.986"/>
<polygon fill="midnightblue" stroke="midnightblue" points="130.5,-253.751 127,-243.751 123.5,-253.751 130.5,-253.751"/>
</g>
<!-- Node19&#45;&gt;Node5 -->
<g id="edge29" class="edge"><title>Node19&#45;&gt;Node5</title>
<path fill="none" stroke="midnightblue" d="M578.181,-448.465C597.375,-431.355 637,-390.734 637,-347 637,-347 637,-347 637,-177 637,-106.927 540.296,-80.9959 483.088,-71.7864"/>
<polygon fill="midnightblue" stroke="midnightblue" points="483.308,-68.2801 472.898,-70.2545 482.267,-75.2023 483.308,-68.2801"/>
</g>
<!-- Node19&#45;&gt;Node7 -->
<g id="edge32" class="edge"><title>Node19&#45;&gt;Node7</title>
<path fill="none" stroke="midnightblue" d="M546.133,-448.444C523.221,-439.478 487.025,-425.314 461.134,-415.183"/>
<polygon fill="midnightblue" stroke="midnightblue" points="462.352,-411.901 451.764,-411.516 459.801,-418.42 462.352,-411.901"/>
</g>
<!-- Node19&#45;&gt;Node15 -->
<g id="edge31" class="edge"><title>Node19&#45;&gt;Node15</title>
<path fill="none" stroke="midnightblue" d="M568,-448.368C568,-430.617 568,-389.666 568,-365.597"/>
<polygon fill="midnightblue" stroke="midnightblue" points="571.5,-365.591 568,-355.591 564.5,-365.591 571.5,-365.591"/>
</g>
<!-- Node20 -->
<g id="node20" class="node"><title>Node20</title>
<g id="a_node20"><a xlink:href="../../d2/ddf/_wlib_config_8h.html" target="_top" xlink:title="Some basic definitions for compilers. ">
<polygon fill="white" stroke="black" points="665,-392.5 665,-411.5 747,-411.5 747,-392.5 665,-392.5"/>
<text text-anchor="middle" x="706" y="-399.5" font-family="Helvetica,sans-Serif" font-size="10.00">../WlibConfig.h</text>
</a>
</g>
</g>
<!-- Node19&#45;&gt;Node20 -->
<g id="edge30" class="edge"><title>Node19&#45;&gt;Node20</title>
<path fill="none" stroke="midnightblue" d="M589.867,-448.444C612.779,-439.478 648.975,-425.314 674.866,-415.183"/>
<polygon fill="midnightblue" stroke="midnightblue" points="676.199,-418.42 684.236,-411.516 673.648,-411.901 676.199,-418.42"/>
</g>
</g>
</svg>
        <g id="navigator" transform="translate(0 0)" fill="#404254">
                <rect fill="#f2f5e9" fill-opacity="0.5" stroke="#606060" stroke-width=".5" x="0" y="0" width="60" height="60"/>
                <use id="zoomplus" xlink:href="#zoomPlus" x="17" y="9" onmousedown="handleZoom(evt,'in')"/>
                <use id="zoomminus" xlink:href="#zoomMin" x="42" y="9" onmousedown="handleZoom(evt,'out')"/>
                <use id="reset" xlink:href="#resetDef" x="30" y="36" onmousedown="handleReset()"/>
                <g id="arrowUp" xlink:href="#dirArrow" transform="translate(30 24)" onmousedown="handlePan(0,-1)">
                  <use xlink:href="#rim" fill="#404040">
                        <set attributeName="fill" to="#808080" begin="arrowUp.mouseover" end="arrowUp.mouseout"/>
                  </use>
                  <path fill="none" stroke="white" stroke-width="1.5" d="M0,-3.0v7 M-2.5,-0.5L0,-3.0L2.5,-0.5"/>
                </g>
                <g id="arrowRight" xlink:href="#dirArrow" transform="rotate(90) translate(36 -43)" onmousedown="handlePan(1,0)">
                  <use xlink:href="#rim" fill="#404040">
                        <set attributeName="fill" to="#808080" begin="arrowRight.mouseover" end="arrowRight.mouseout"/>
                  </use>
                  <path fill="none" stroke="white" stroke-width="1.5" d="M0,-3.0v7 M-2.5,-0.5L0,-3.0L2.5,-0.5"/>
                </g>
                <g id="arrowDown" xlink:href="#dirArrow" transform="rotate(180) translate(-30 -48)" onmousedown="handlePan(0,1)">
                  <use xlink:href="#rim" fill="#404040">
                        <set attributeName="fill" to="#808080" begin="arrowDown.mouseover" end="arrowDown.mouseout"/>
                  </use>
                  <path fill="none" stroke="white" stroke-width="1.5" d="M0,-3.0v7 M-2.5,-0.5L0,-3.0L2.5,-0.5"/>
                </g>
                <g id="arrowLeft" xlink:href="#dirArrow" transform="rotate(270) translate(-36 17)" onmousedown="handlePan(-1,0)">
                  <use xlink:href="#rim" fill="#404040">
                        <set attributeName="fill" to="#808080" begin="arrowLeft.mouseover" end="arrowLeft.mouseout"/>
                  </use>
                  <path fill="none" stroke="white" stroke-width="1.5" d="M0,-3.0v7 M-2.5,-0.5L0,-3.0L2.5,-0.5"/>
                </g>
        </g>
        <svg viewBox="0 0 15 15" width="100%" height="30px" preserveAspectRatio="xMaxYMin meet">
         <g id="arrow_out" transform="scale(0.3 0.3)">
          <a xlink:href="_chain_set_8h__incl_org.svg" target="_base">
           <rect id="button" ry="5" rx="5" y="6" x="6" height="38" width="38"
                fill="#f2f5e9" fill-opacity="0.5" stroke="#606060" stroke-width="1.0"/>
           <path id="arrow"
             d="M 11.500037,31.436501 C 11.940474,20.09759 22.043105,11.32322 32.158766,21.979434 L 37.068811,17.246167 C 37.068811,17.246167 37.088388,32 37.088388,32 L 22.160133,31.978069 C 22.160133,31.978069 26.997745,27.140456 26.997745,27.140456 C 18.528582,18.264221 13.291696,25.230495 11.500037,31.436501 z"
             style="fill:#404040;"/>
          </a>
         </g>
        </svg>
</svg>
