<?xml version="1.0" encoding="UTF-8" standalone="no"?>
<!DOCTYPE svg PUBLIC "-//W3C//DTD SVG 1.1//EN"
 "http://www.w3.org/Graphics/SVG/1.1/DTD/svg11.dtd">
<!-- Generated by graphviz version 2.36.0 (20140111.2315)
 -->
<!-- Title: wlib/stl/HashTable.h Pages: 1 -->
<svg width="526pt" height="252pt"
 viewBox="0.00 0.00 526.44 252.00" xmlns="http://www.w3.org/2000/svg" xmlns:xlink="http://www.w3.org/1999/xlink">
<g id="graph0" class="graph" transform="scale(1 1) rotate(0) translate(4 248)">
<title>wlib/stl/HashTable.h</title>
<polygon fill="white" stroke="none" points="-4,4 -4,-248 522.439,-248 522.439,4 -4,4"/>
<!-- Node1 -->
<g id="node1" class="node"><title>Node1</title>
<polygon fill="#bfbfbf" stroke="black" points="178,-224.5 178,-243.5 284,-243.5 284,-224.5 178,-224.5"/>
<text text-anchor="middle" x="231" y="-231.5" font-family="Helvetica,sans-Serif" font-size="10.00">wlib/stl/HashTable.h</text>
</g>
<!-- Node2 -->
<g id="node2" class="node"><title>Node2</title>
<g id="a_node2"><a xlink:href="../../d2/dc2/_equal_8h.html" target="_top" xlink:title="wlib/stl/Equal.h">
<polygon fill="white" stroke="black" points="88.5,-168.5 88.5,-187.5 171.5,-187.5 171.5,-168.5 88.5,-168.5"/>
<text text-anchor="middle" x="130" y="-175.5" font-family="Helvetica,sans-Serif" font-size="10.00">wlib/stl/Equal.h</text>
</a>
</g>
</g>
<!-- Node1&#45;&gt;Node2 -->
<g id="edge1" class="edge"><title>Node1&#45;&gt;Node2</title>
<path fill="none" stroke="midnightblue" d="M214.773,-224.324C198.649,-215.703 173.7,-202.364 155.036,-192.386"/>
<polygon fill="midnightblue" stroke="midnightblue" points="156.656,-189.283 146.187,-187.655 153.356,-195.456 156.656,-189.283"/>
</g>
<!-- Node3 -->
<g id="node3" class="node"><title>Node3</title>
<polygon fill="white" stroke="#bfbfbf" points="-0.5,-56.5 -0.5,-75.5 48.5,-75.5 48.5,-56.5 -0.5,-56.5"/>
<text text-anchor="middle" x="24" y="-63.5" font-family="Helvetica,sans-Serif" font-size="10.00">string.h</text>
</g>
<!-- Node1&#45;&gt;Node3 -->
<g id="edge16" class="edge"><title>Node1&#45;&gt;Node3</title>
<path fill="none" stroke="midnightblue" d="M177.852,-228.338C145.963,-223.064 106.407,-211.845 79,-188 47.7729,-160.832 33.3038,-112.33 27.4397,-85.7299"/>
<polygon fill="midnightblue" stroke="midnightblue" points="30.8436,-84.9037 25.4296,-75.7965 23.9826,-86.2921 30.8436,-84.9037"/>
</g>
<!-- Node11 -->
<g id="node11" class="node"><title>Node11</title>
<g id="a_node11"><a xlink:href="../../d2/dad/_hash_8h.html" target="_top" xlink:title="wlib/stl/Hash.h">
<polygon fill="white" stroke="black" points="190,-168.5 190,-187.5 272,-187.5 272,-168.5 190,-168.5"/>
<text text-anchor="middle" x="231" y="-175.5" font-family="Helvetica,sans-Serif" font-size="10.00">wlib/stl/Hash.h</text>
</a>
</g>
</g>
<!-- Node1&#45;&gt;Node11 -->
<g id="edge11" class="edge"><title>Node1&#45;&gt;Node11</title>
<path fill="none" stroke="midnightblue" d="M231,-224.083C231,-217.006 231,-206.861 231,-197.986"/>
<polygon fill="midnightblue" stroke="midnightblue" points="234.5,-197.751 231,-187.751 227.5,-197.751 234.5,-197.751"/>
</g>
<!-- Node12 -->
<g id="node12" class="node"><title>Node12</title>
<g id="a_node12"><a xlink:href="../../d4/dda/_pair_8h.html" target="_top" xlink:title="Implementation of a 2&#45;element tuple. ">
<polygon fill="white" stroke="black" points="417,-112.5 417,-131.5 493,-131.5 493,-112.5 417,-112.5"/>
<text text-anchor="middle" x="455" y="-119.5" font-family="Helvetica,sans-Serif" font-size="10.00">wlib/stl/Pair.h</text>
</a>
</g>
</g>
<!-- Node1&#45;&gt;Node12 -->
<g id="edge13" class="edge"><title>Node1&#45;&gt;Node12</title>
<path fill="none" stroke="midnightblue" d="M240.603,-224.281C256.083,-210.62 287.967,-184.072 319,-168 347.59,-153.193 382.044,-141.854 409.12,-134.262"/>
<polygon fill="midnightblue" stroke="midnightblue" points="410.382,-137.545 419.108,-131.536 408.54,-130.792 410.382,-137.545"/>
</g>
<!-- Node13 -->
<g id="node13" class="node"><title>Node13</title>
<polygon fill="white" stroke="#bfbfbf" points="328,-168.5 328,-187.5 400,-187.5 400,-168.5 328,-168.5"/>
<text text-anchor="middle" x="364" y="-175.5" font-family="Helvetica,sans-Serif" font-size="10.00">wlib/memory</text>
</g>
<!-- Node1&#45;&gt;Node13 -->
<g id="edge15" class="edge"><title>Node1&#45;&gt;Node13</title>
<path fill="none" stroke="midnightblue" d="M252.074,-224.444C274.06,-215.517 308.734,-201.439 333.664,-191.317"/>
<polygon fill="midnightblue" stroke="midnightblue" points="335.076,-194.521 343.024,-187.516 332.442,-188.035 335.076,-194.521"/>
</g>
<!-- Node2&#45;&gt;Node3 -->
<g id="edge2" class="edge"><title>Node2&#45;&gt;Node3</title>
<path fill="none" stroke="midnightblue" d="M121.682,-168.368C103.957,-149.974 62.2286,-106.671 39.4682,-83.0519"/>
<polygon fill="midnightblue" stroke="midnightblue" points="41.7382,-80.3636 32.279,-75.5914 36.6977,-85.2209 41.7382,-80.3636"/>
</g>
<!-- Node4 -->
<g id="node4" class="node"><title>Node4</title>
<g id="a_node4"><a xlink:href="../../db/db5/_string_8h.html" target="_top" xlink:title="wlib/strings/String.h">
<polygon fill="white" stroke="black" points="179.5,-112.5 179.5,-131.5 282.5,-131.5 282.5,-112.5 179.5,-112.5"/>
<text text-anchor="middle" x="231" y="-119.5" font-family="Helvetica,sans-Serif" font-size="10.00">wlib/strings/String.h</text>
</a>
</g>
</g>
<!-- Node2&#45;&gt;Node4 -->
<g id="edge3" class="edge"><title>Node2&#45;&gt;Node4</title>
<path fill="none" stroke="midnightblue" d="M146.227,-168.324C162.351,-159.703 187.3,-146.364 205.964,-136.386"/>
<polygon fill="midnightblue" stroke="midnightblue" points="207.644,-139.456 214.813,-131.655 204.344,-133.283 207.644,-139.456"/>
</g>
<!-- Node4&#45;&gt;Node3 -->
<g id="edge10" class="edge"><title>Node4&#45;&gt;Node3</title>
<path fill="none" stroke="midnightblue" d="M198.146,-112.499C165.31,-103.993 113.116,-90.4451 58.3917,-76.0943"/>
<polygon fill="midnightblue" stroke="midnightblue" points="59.0716,-72.6543 48.5107,-73.5016 57.2949,-79.4251 59.0716,-72.6543"/>
</g>
<!-- Node5 -->
<g id="node5" class="node"><title>Node5</title>
<g id="a_node5"><a xlink:href="../../de/d0b/_string_iterator_8h.html" target="_top" xlink:title="wlib/strings/StringIterator.h">
<polygon fill="white" stroke="black" points="67,-56.5 67,-75.5 201,-75.5 201,-56.5 67,-56.5"/>
<text text-anchor="middle" x="134" y="-63.5" font-family="Helvetica,sans-Serif" font-size="10.00">wlib/strings/StringIterator.h</text>
</a>
</g>
</g>
<!-- Node4&#45;&gt;Node5 -->
<g id="edge4" class="edge"><title>Node4&#45;&gt;Node5</title>
<path fill="none" stroke="midnightblue" d="M215.415,-112.324C200.001,-103.743 176.188,-90.486 158.29,-80.5224"/>
<polygon fill="midnightblue" stroke="midnightblue" points="159.986,-77.4606 149.546,-75.6545 156.581,-83.5767 159.986,-77.4606"/>
</g>
<!-- Node7 -->
<g id="node7" class="node"><title>Node7</title>
<polygon fill="white" stroke="#bfbfbf" points="391.5,-56.5 391.5,-75.5 506.5,-75.5 506.5,-56.5 391.5,-56.5"/>
<text text-anchor="middle" x="449" y="-63.5" font-family="Helvetica,sans-Serif" font-size="10.00">wlib/tmp/NullptrType.h</text>
</g>
<!-- Node4&#45;&gt;Node7 -->
<g id="edge6" class="edge"><title>Node4&#45;&gt;Node7</title>
<path fill="none" stroke="midnightblue" d="M265.543,-112.444C303.253,-103.102 363.74,-88.1194 404.865,-77.9326"/>
<polygon fill="midnightblue" stroke="midnightblue" points="405.754,-81.3182 414.619,-75.5164 404.071,-74.5236 405.754,-81.3182"/>
</g>
<!-- Node8 -->
<g id="node8" class="node"><title>Node8</title>
<g id="a_node8"><a xlink:href="../../de/d35/_helper_8h.html" target="_top" xlink:title="wlib/stl/Helper.h">
<polygon fill="white" stroke="black" points="286.5,-56.5 286.5,-75.5 373.5,-75.5 373.5,-56.5 286.5,-56.5"/>
<text text-anchor="middle" x="330" y="-63.5" font-family="Helvetica,sans-Serif" font-size="10.00">wlib/stl/Helper.h</text>
</a>
</g>
</g>
<!-- Node4&#45;&gt;Node8 -->
<g id="edge7" class="edge"><title>Node4&#45;&gt;Node8</title>
<path fill="none" stroke="midnightblue" d="M246.906,-112.324C262.638,-103.743 286.942,-90.486 305.209,-80.5224"/>
<polygon fill="midnightblue" stroke="midnightblue" points="307.03,-83.5157 314.133,-75.6545 303.678,-77.3704 307.03,-83.5157"/>
</g>
<!-- Node10 -->
<g id="node10" class="node"><title>Node10</title>
<polygon fill="white" stroke="#bfbfbf" points="219.5,-56.5 219.5,-75.5 268.5,-75.5 268.5,-56.5 219.5,-56.5"/>
<text text-anchor="middle" x="244" y="-63.5" font-family="Helvetica,sans-Serif" font-size="10.00">stdint.h</text>
</g>
<!-- Node4&#45;&gt;Node10 -->
<g id="edge9" class="edge"><title>Node4&#45;&gt;Node10</title>
<path fill="none" stroke="midnightblue" d="M233.147,-112.083C234.869,-104.927 237.347,-94.6353 239.5,-85.6911"/>
<polygon fill="midnightblue" stroke="midnightblue" points="242.955,-86.2925 241.893,-75.7511 236.15,-84.6541 242.955,-86.2925"/>
</g>
<!-- Node6 -->
<g id="node6" class="node"><title>Node6</title>
<polygon fill="white" stroke="#bfbfbf" points="108,-0.5 108,-19.5 160,-19.5 160,-0.5 108,-0.5"/>
<text text-anchor="middle" x="134" y="-7.5" font-family="Helvetica,sans-Serif" font-size="10.00">stddef.h</text>
</g>
<!-- Node5&#45;&gt;Node6 -->
<g id="edge5" class="edge"><title>Node5&#45;&gt;Node6</title>
<path fill="none" stroke="midnightblue" d="M134,-56.083C134,-49.0059 134,-38.8611 134,-29.9865"/>
<polygon fill="midnightblue" stroke="midnightblue" points="137.5,-29.751 134,-19.7511 130.5,-29.7511 137.5,-29.751"/>
</g>
<!-- Node9 -->
<g id="node9" class="node"><title>Node9</title>
<polygon fill="white" stroke="#bfbfbf" points="402,-0.5 402,-19.5 462,-19.5 462,-0.5 402,-0.5"/>
<text text-anchor="middle" x="432" y="-7.5" font-family="Helvetica,sans-Serif" font-size="10.00">wlib/utility</text>
</g>
<!-- Node8&#45;&gt;Node9 -->
<g id="edge8" class="edge"><title>Node8&#45;&gt;Node9</title>
<path fill="none" stroke="midnightblue" d="M346.388,-56.324C362.671,-47.7034 387.867,-34.3643 406.716,-24.3855"/>
<polygon fill="midnightblue" stroke="midnightblue" points="408.452,-27.4267 415.653,-19.6545 405.177,-21.2402 408.452,-27.4267"/>
</g>
<!-- Node11&#45;&gt;Node4 -->
<g id="edge12" class="edge"><title>Node11&#45;&gt;Node4</title>
<path fill="none" stroke="midnightblue" d="M231,-168.083C231,-161.006 231,-150.861 231,-141.986"/>
<polygon fill="midnightblue" stroke="midnightblue" points="234.5,-141.751 231,-131.751 227.5,-141.751 234.5,-141.751"/>
</g>
<!-- Node12&#45;&gt;Node9 -->
<g id="edge14" class="edge"><title>Node12&#45;&gt;Node9</title>
<path fill="none" stroke="midnightblue" d="M473.732,-112.333C496.039,-100.738 528.67,-78.9609 515,-56 505.467,-39.988 488.032,-29.3228 471.594,-22.4133"/>
<polygon fill="midnightblue" stroke="midnightblue" points="472.687,-19.0842 462.097,-18.7671 470.178,-25.619 472.687,-19.0842"/>
</g>
</g>
</svg>
