<?xml version="1.0" encoding="UTF-8" standalone="no"?>
<!DOCTYPE svg PUBLIC "-//W3C//DTD SVG 1.1//EN"
 "http://www.w3.org/Graphics/SVG/1.1/DTD/svg11.dtd">
<!-- Generated by graphviz version 2.36.0 (20140111.2315)
 -->
<!-- Title: utility/Tmp.h Pages: 1 -->
<!--zoomable 532 -->
<svg id="main" version="1.1" xmlns="http://www.w3.org/2000/svg" xmlns:xlink="http://www.w3.org/1999/xlink" xml:space="preserve" onload="init(evt)">
<style type="text/css"><![CDATA[
.edge:hover path { stroke: red; }
.edge:hover polygon { stroke: red; fill: red; }
]]></style>
<script type="text/javascript"><![CDATA[
var edges = document.getElementsByTagName('g');
if (edges && edges.length) {
  for (var i=0;i<edges.length;i++) {
    if (edges[i].id.substr(0,4)=='edge') {
      edges[i].setAttribute('class','edge');
    }
  }
}
]]></script>
        <defs>
                <circle id="rim" cx="0" cy="0" r="7"/>
                <circle id="rim2" cx="0" cy="0" r="3.5"/>
                <g id="zoomPlus">
                        <use xlink:href="#rim" fill="#404040">
                                <set attributeName="fill" to="#808080" begin="zoomplus.mouseover" end="zoomplus.mouseout"/>
                        </use>
                        <path d="M-4,0h8M0,-4v8" fill="none" stroke="white" stroke-width="1.5" pointer-events="none"/>
                </g>
                <g id="zoomMin">
                        <use xlink:href="#rim" fill="#404040">
                                <set attributeName="fill" to="#808080" begin="zoomminus.mouseover" end="zoomminus.mouseout"/>
                        </use>
                        <path d="M-4,0h8" fill="none" stroke="white" stroke-width="1.5" pointer-events="none"/>
                </g>
                <g id="dirArrow">
                        <path fill="none" stroke="white" stroke-width="1.5" d="M0,-3.0v7 M-2.5,-0.5L0,-3.0L2.5,-0.5"/>
                </g>
               <g id="resetDef">
                       <use xlink:href="#rim2" fill="#404040">
                               <set attributeName="fill" to="#808080" begin="reset.mouseover" end="reset.mouseout"/>
                       </use>
               </g>
        </defs>

<script type="text/javascript">
var viewWidth = 1257;
var viewHeight = 532;
var sectionId = 'dynsection-1';
</script>
<script xlink:href="../../svgpan.js"/>
<svg id="graph" class="graph">
<g id="viewport">
<title>utility/Tmp.h</title>
<polygon fill="white" stroke="none" points="-4,4 -4,-528 1253,-528 1253,4 -4,4"/>
<!-- Node1 -->
<g id="node1" class="node"><title>Node1</title>
<polygon fill="#bfbfbf" stroke="black" points="730.5,-504.5 730.5,-523.5 801.5,-523.5 801.5,-504.5 730.5,-504.5"/>
<text text-anchor="middle" x="766" y="-511.5" font-family="Helvetica,sans-Serif" font-size="10.00">utility/Tmp.h</text>
</g>
<!-- Node2 -->
<g id="node2" class="node"><title>Node2</title>
<g id="a_node2"><a xlink:href="../../db/d2a/_utility_8h.html" target="_top" xlink:title="Various helper functions. ">
<polygon fill="white" stroke="black" points="660.5,-448.5 660.5,-467.5 737.5,-467.5 737.5,-448.5 660.5,-448.5"/>
<text text-anchor="middle" x="699" y="-455.5" font-family="Helvetica,sans-Serif" font-size="10.00">utility/Utility.h</text>
</a>
</g>
</g>
<!-- Node1&#45;&gt;Node2 -->
<g id="edge1" class="edge"><title>Node1&#45;&gt;Node2</title>
<path fill="none" stroke="midnightblue" d="M747.165,-497.82C735.162,-488.145 720.028,-475.948 709.961,-467.834"/>
<polygon fill="midnightblue" stroke="midnightblue" points="745.253,-500.774 755.235,-504.324 749.646,-495.324 745.253,-500.774"/>
</g>
<!-- Node3 -->
<g id="node3" class="node"><title>Node3</title>
<g id="a_node3"><a xlink:href="../../d3/de6/_memory_8h.html" target="_top" xlink:title="Memory is a class that provides dynamic fixed size memory. ">
<polygon fill="white" stroke="black" points="457,-392.5 457,-411.5 555,-411.5 555,-392.5 457,-392.5"/>
<text text-anchor="middle" x="506" y="-399.5" font-family="Helvetica,sans-Serif" font-size="10.00">memory/Memory.h</text>
</a>
</g>
</g>
<!-- Node1&#45;&gt;Node3 -->
<g id="edge51" class="edge"><title>Node1&#45;&gt;Node3</title>
<path fill="none" stroke="midnightblue" d="M733.301,-500.688C710.193,-491.87 678.555,-479.559 651,-468 605.209,-448.791 552.126,-424.459 524.643,-411.706"/>
<polygon fill="midnightblue" stroke="midnightblue" points="732.367,-504.078 742.958,-504.36 734.855,-497.535 732.367,-504.078"/>
</g>
<!-- Node4 -->
<g id="node4" class="node"><title>Node4</title>
<g id="a_node4"><a xlink:href="../../df/dcf/_state_machine_8h.html" target="_top" xlink:title="fsm/StateMachine.h">
<polygon fill="white" stroke="black" points="658,-336.5 658,-355.5 762,-355.5 762,-336.5 658,-336.5"/>
<text text-anchor="middle" x="710" y="-343.5" font-family="Helvetica,sans-Serif" font-size="10.00">fsm/StateMachine.h</text>
</a>
</g>
</g>
<!-- Node1&#45;&gt;Node4 -->
<g id="edge52" class="edge"><title>Node1&#45;&gt;Node4</title>
<path fill="none" stroke="midnightblue" d="M760.531,-494.457C756.626,-481.417 751.172,-463.583 746,-448 734.566,-413.548 719.663,-372.98 713.21,-355.603"/>
<polygon fill="midnightblue" stroke="midnightblue" points="757.201,-495.541 763.405,-504.13 763.911,-493.547 757.201,-495.541"/>
</g>
<!-- Node17 -->
<g id="node17" class="node"><title>Node17</title>
<g id="a_node17"><a xlink:href="../../d1/d13/_shared_ptr_8h.html" target="_top" xlink:title="Shared pointer implementation. ">
<polygon fill="white" stroke="black" points="0,-280.5 0,-299.5 82,-299.5 82,-280.5 0,-280.5"/>
<text text-anchor="middle" x="41" y="-287.5" font-family="Helvetica,sans-Serif" font-size="10.00">stl/SharedPtr.h</text>
</a>
</g>
</g>
<!-- Node1&#45;&gt;Node17 -->
<g id="edge57" class="edge"><title>Node1&#45;&gt;Node17</title>
<path fill="none" stroke="midnightblue" d="M720.211,-511.952C582.556,-507.953 175.639,-489.674 73,-412 37.1334,-384.857 38.3475,-322.497 40.1262,-299.619"/>
<polygon fill="midnightblue" stroke="midnightblue" points="720.318,-515.456 730.412,-512.236 720.513,-508.459 720.318,-515.456"/>
</g>
<!-- Node22 -->
<g id="node22" class="node"><title>Node22</title>
<g id="a_node22"><a xlink:href="../../d8/dd7/_concept_8h.html" target="_top" xlink:title="Concept definitions. ">
<polygon fill="white" stroke="black" points="1107.5,-336.5 1107.5,-355.5 1182.5,-355.5 1182.5,-336.5 1107.5,-336.5"/>
<text text-anchor="middle" x="1145" y="-343.5" font-family="Helvetica,sans-Serif" font-size="10.00">stl/Concept.h</text>
</a>
</g>
</g>
<!-- Node1&#45;&gt;Node22 -->
<g id="edge56" class="edge"><title>Node1&#45;&gt;Node22</title>
<path fill="none" stroke="midnightblue" d="M796.822,-500.561C818.707,-491.659 848.745,-479.3 875,-468 970.073,-427.082 1082.76,-375.613 1126.43,-355.554"/>
<polygon fill="midnightblue" stroke="midnightblue" points="795.332,-497.388 787.383,-504.392 797.965,-503.874 795.332,-497.388"/>
</g>
<!-- Node29 -->
<g id="node29" class="node"><title>Node29</title>
<g id="a_node29"><a xlink:href="../../d7/d2a/_tuple_8h.html" target="_top" xlink:title="Template oriented tuple implementation. ">
<polygon fill="white" stroke="black" points="1028,-336.5 1028,-355.5 1090,-355.5 1090,-336.5 1028,-336.5"/>
<text text-anchor="middle" x="1059" y="-343.5" font-family="Helvetica,sans-Serif" font-size="10.00">stl/Tuple.h</text>
</a>
</g>
</g>
<!-- Node1&#45;&gt;Node29 -->
<g id="edge58" class="edge"><title>Node1&#45;&gt;Node29</title>
<path fill="none" stroke="midnightblue" d="M790.242,-499.265C848.689,-466.152 996.06,-382.659 1043.81,-355.605"/>
<polygon fill="midnightblue" stroke="midnightblue" points="788.316,-496.334 781.34,-504.309 791.766,-502.425 788.316,-496.334"/>
</g>
<!-- Node30 -->
<g id="node30" class="node"><title>Node30</title>
<g id="a_node30"><a xlink:href="../../d4/dd5/_type_traits_8h.html" target="_top" xlink:title="Metafunctions for types. ">
<polygon fill="white" stroke="black" points="1149.5,-392.5 1149.5,-411.5 1234.5,-411.5 1234.5,-392.5 1149.5,-392.5"/>
<text text-anchor="middle" x="1192" y="-399.5" font-family="Helvetica,sans-Serif" font-size="10.00">stl/TypeTraits.h</text>
</a>
</g>
</g>
<!-- Node1&#45;&gt;Node30 -->
<g id="edge53" class="edge"><title>Node1&#45;&gt;Node30</title>
<path fill="none" stroke="midnightblue" d="M811.782,-511.462C897.806,-507.919 1079.88,-497.125 1135,-468 1159.95,-454.817 1178.99,-425.942 1187.35,-411.532"/>
<polygon fill="midnightblue" stroke="midnightblue" points="811.389,-507.975 801.535,-511.869 811.666,-514.97 811.389,-507.975"/>
</g>
<!-- Node2&#45;&gt;Node3 -->
<g id="edge2" class="edge"><title>Node2&#45;&gt;Node3</title>
<path fill="none" stroke="midnightblue" d="M658.608,-445.699C622.183,-435.507 569.414,-420.743 536.438,-411.516"/>
<polygon fill="midnightblue" stroke="midnightblue" points="657.845,-449.12 668.419,-448.444 659.731,-442.378 657.845,-449.12"/>
</g>
<!-- Node6 -->
<g id="node6" class="node"><title>Node6</title>
<g id="a_node6"><a xlink:href="../../d2/db9/_array_list_8h.html" target="_top" xlink:title="List implementation using an array. ">
<polygon fill="white" stroke="black" points="932.5,-336.5 932.5,-355.5 1009.5,-355.5 1009.5,-336.5 932.5,-336.5"/>
<text text-anchor="middle" x="971" y="-343.5" font-family="Helvetica,sans-Serif" font-size="10.00">stl/ArrayList.h</text>
</a>
</g>
</g>
<!-- Node2&#45;&gt;Node6 -->
<g id="edge20" class="edge"><title>Node2&#45;&gt;Node6</title>
<path fill="none" stroke="midnightblue" d="M748.02,-456.214C794.795,-453.42 865.686,-443.694 918,-412 941.163,-397.967 958.646,-370.013 966.475,-355.774"/>
<polygon fill="midnightblue" stroke="midnightblue" points="747.648,-452.728 737.84,-456.735 748.006,-459.719 747.648,-452.728"/>
</g>
<!-- Node7 -->
<g id="node7" class="node"><title>Node7</title>
<g id="a_node7"><a xlink:href="../../df/d03/_array_heap_8h.html" target="_top" xlink:title="Heap manipulation and implementation. ">
<polygon fill="white" stroke="black" points="1102.5,-56.5 1102.5,-75.5 1187.5,-75.5 1187.5,-56.5 1102.5,-56.5"/>
<text text-anchor="middle" x="1145" y="-63.5" font-family="Helvetica,sans-Serif" font-size="10.00">stl/ArrayHeap.h</text>
</a>
</g>
</g>
<!-- Node2&#45;&gt;Node7 -->
<g id="edge45" class="edge"><title>Node2&#45;&gt;Node7</title>
<path fill="none" stroke="midnightblue" d="M748.044,-453.304C859.399,-443.938 1126.66,-415.659 1191,-356 1213.16,-335.45 1211,-321.225 1211,-291 1211,-291 1211,-291 1211,-177 1211,-133.794 1173.1,-92.9014 1154.74,-75.6282"/>
<polygon fill="midnightblue" stroke="midnightblue" points="747.444,-449.841 737.766,-454.152 748.02,-456.818 747.444,-449.841"/>
</g>
<!-- Node8 -->
<g id="node8" class="node"><title>Node8</title>
<g id="a_node8"><a xlink:href="../../d3/dbe/_chain_map_8h.html" target="_top" xlink:title="Hasher map implementation. ">
<polygon fill="white" stroke="black" points="390.5,-112.5 390.5,-131.5 473.5,-131.5 473.5,-112.5 390.5,-112.5"/>
<text text-anchor="middle" x="432" y="-119.5" font-family="Helvetica,sans-Serif" font-size="10.00">stl/ChainMap.h</text>
</a>
</g>
</g>
<!-- Node2&#45;&gt;Node8 -->
<g id="edge46" class="edge"><title>Node2&#45;&gt;Node8</title>
<path fill="none" stroke="midnightblue" d="M650.057,-455.373C533.281,-450.165 248,-429.047 248,-347 248,-347 248,-347 248,-233 248,-167.125 335.96,-139.758 390.248,-129.141"/>
<polygon fill="midnightblue" stroke="midnightblue" points="650.018,-458.875 660.158,-455.803 650.315,-451.881 650.018,-458.875"/>
</g>
<!-- Node10 -->
<g id="node10" class="node"><title>Node10</title>
<g id="a_node10"><a xlink:href="../../de/dc6/_linked_list_8h.html" target="_top" xlink:title="stl/LinkedList.h">
<polygon fill="white" stroke="black" points="556.5,-336.5 556.5,-355.5 639.5,-355.5 639.5,-336.5 556.5,-336.5"/>
<text text-anchor="middle" x="598" y="-343.5" font-family="Helvetica,sans-Serif" font-size="10.00">stl/LinkedList.h</text>
</a>
</g>
</g>
<!-- Node2&#45;&gt;Node10 -->
<g id="edge47" class="edge"><title>Node2&#45;&gt;Node10</title>
<path fill="none" stroke="midnightblue" d="M701.939,-438.128C703.077,-424.166 702.326,-405.337 693,-392 679.927,-373.305 656.971,-362.138 636.9,-355.605"/>
<polygon fill="midnightblue" stroke="midnightblue" points="698.461,-437.739 700.749,-448.083 705.411,-438.57 698.461,-437.739"/>
</g>
<!-- Node11 -->
<g id="node11" class="node"><title>Node11</title>
<g id="a_node11"><a xlink:href="../../d5/d7a/_open_map_8h.html" target="_top" xlink:title="Hash map implementation. ">
<polygon fill="white" stroke="black" points="849,-112.5 849,-131.5 929,-131.5 929,-112.5 849,-112.5"/>
<text text-anchor="middle" x="889" y="-119.5" font-family="Helvetica,sans-Serif" font-size="10.00">stl/OpenMap.h</text>
</a>
</g>
</g>
<!-- Node2&#45;&gt;Node11 -->
<g id="edge48" class="edge"><title>Node2&#45;&gt;Node11</title>
<path fill="none" stroke="midnightblue" d="M747.56,-450.365C793.128,-443.138 856.782,-430.138 874,-412 943.852,-338.417 909.047,-289.062 918,-188 918.784,-179.146 920.51,-176.527 918,-168 913.854,-153.912 903.779,-140.073 896.673,-131.541"/>
<polygon fill="midnightblue" stroke="midnightblue" points="746.91,-446.923 737.559,-451.905 747.976,-453.842 746.91,-446.923"/>
</g>
<!-- Node13 -->
<g id="node13" class="node"><title>Node13</title>
<g id="a_node13"><a xlink:href="../../d5/d08/_red_black_tree_8h.html" target="_top" xlink:title="Red black tree implementation. ">
<polygon fill="white" stroke="black" points="254.5,-56.5 254.5,-75.5 355.5,-75.5 355.5,-56.5 254.5,-56.5"/>
<text text-anchor="middle" x="305" y="-63.5" font-family="Helvetica,sans-Serif" font-size="10.00">stl/RedBlackTree.h</text>
</a>
</g>
</g>
<!-- Node2&#45;&gt;Node13 -->
<g id="edge49" class="edge"><title>Node2&#45;&gt;Node13</title>
<path fill="none" stroke="midnightblue" d="M650.285,-455.526C571.945,-452.311 413.528,-442.323 283,-412 202.994,-393.414 110,-429.137 110,-347 110,-347 110,-347 110,-177 110,-110.728 196.497,-83.939 254.275,-73.4371"/>
<polygon fill="midnightblue" stroke="midnightblue" points="650.214,-459.025 660.343,-455.919 650.487,-452.031 650.214,-459.025"/>
</g>
<!-- Node2&#45;&gt;Node17 -->
<g id="edge50" class="edge"><title>Node2&#45;&gt;Node17</title>
<path fill="none" stroke="midnightblue" d="M650.141,-456.183C514.619,-453.525 140.991,-443.4 96,-412 56.8305,-384.663 45.0451,-322.422 41.9685,-299.597"/>
<polygon fill="midnightblue" stroke="midnightblue" points="650.173,-459.684 660.238,-456.376 650.306,-452.685 650.173,-459.684"/>
</g>
<!-- Node20 -->
<g id="node20" class="node"><title>Node20</title>
<g id="a_node20"><a xlink:href="../../d0/d55/_allocator_8cpp.html" target="_top" xlink:title="Implementation of Allocator. ">
<polygon fill="white" stroke="black" points="573,-392.5 573,-411.5 685,-411.5 685,-392.5 573,-392.5"/>
<text text-anchor="middle" x="629" y="-399.5" font-family="Helvetica,sans-Serif" font-size="10.00">memory/Allocator.cpp</text>
</a>
</g>
</g>
<!-- Node2&#45;&gt;Node20 -->
<g id="edge19" class="edge"><title>Node2&#45;&gt;Node20</title>
<path fill="none" stroke="midnightblue" d="M679.686,-442.101C667.088,-432.382 651.072,-420.027 640.451,-411.834"/>
<polygon fill="midnightblue" stroke="midnightblue" points="677.698,-444.987 687.753,-448.324 681.973,-439.445 677.698,-444.987"/>
</g>
<!-- Node21 -->
<g id="node21" class="node"><title>Node21</title>
<g id="a_node21"><a xlink:href="../../d4/dda/_pair_8h.html" target="_top" xlink:title="Implementation of a 2&#45;element tuple. ">
<polygon fill="white" stroke="black" points="810,-392.5 810,-411.5 866,-411.5 866,-392.5 810,-392.5"/>
<text text-anchor="middle" x="838" y="-399.5" font-family="Helvetica,sans-Serif" font-size="10.00">stl/Pair.h</text>
</a>
</g>
</g>
<!-- Node2&#45;&gt;Node21 -->
<g id="edge21" class="edge"><title>Node2&#45;&gt;Node21</title>
<path fill="none" stroke="midnightblue" d="M730.476,-444.772C756.585,-434.629 793.039,-420.467 816.078,-411.516"/>
<polygon fill="midnightblue" stroke="midnightblue" points="729.079,-441.56 721.025,-448.444 731.614,-448.085 729.079,-441.56"/>
</g>
<!-- Node3&#45;&gt;Node4 -->
<g id="edge3" class="edge"><title>Node3&#45;&gt;Node4</title>
<path fill="none" stroke="midnightblue" d="M548.201,-389.829C586.718,-379.633 642.822,-364.782 677.827,-355.516"/>
<polygon fill="midnightblue" stroke="midnightblue" points="547.096,-386.501 538.324,-392.444 548.887,-393.268 547.096,-386.501"/>
</g>
<!-- Node5 -->
<g id="node5" class="node"><title>Node5</title>
<g id="a_node5"><a xlink:href="../../df/d64/_memory_8cpp.html" target="_top" xlink:title="Implementation of Memory functions. ">
<polygon fill="white" stroke="black" points="314.5,-336.5 314.5,-355.5 423.5,-355.5 423.5,-336.5 314.5,-336.5"/>
<text text-anchor="middle" x="369" y="-343.5" font-family="Helvetica,sans-Serif" font-size="10.00">memory/Memory.cpp</text>
</a>
</g>
</g>
<!-- Node3&#45;&gt;Node5 -->
<g id="edge4" class="edge"><title>Node3&#45;&gt;Node5</title>
<path fill="none" stroke="midnightblue" d="M474.977,-388.772C449.243,-378.629 413.314,-364.467 390.606,-355.516"/>
<polygon fill="midnightblue" stroke="midnightblue" points="473.705,-392.033 484.292,-392.444 476.272,-385.52 473.705,-392.033"/>
</g>
<!-- Node3&#45;&gt;Node6 -->
<g id="edge5" class="edge"><title>Node3&#45;&gt;Node6</title>
<path fill="none" stroke="midnightblue" d="M565.185,-391.894C706.629,-373.295 861.865,-357.58 932.494,-350.69"/>
<polygon fill="midnightblue" stroke="midnightblue" points="564.48,-388.457 555.026,-393.238 565.399,-395.396 564.48,-388.457"/>
</g>
<!-- Node3&#45;&gt;Node8 -->
<g id="edge7" class="edge"><title>Node3&#45;&gt;Node8</title>
<path fill="none" stroke="midnightblue" d="M488.28,-385.48C457.641,-358.563 397.753,-305.546 395,-300 368.853,-247.33 363.199,-222.202 386,-168 392.498,-152.553 407.174,-139.759 418.213,-131.811"/>
<polygon fill="midnightblue" stroke="midnightblue" points="486.249,-388.355 496.074,-392.319 490.866,-383.093 486.249,-388.355"/>
</g>
<!-- Node3&#45;&gt;Node10 -->
<g id="edge9" class="edge"><title>Node3&#45;&gt;Node10</title>
<path fill="none" stroke="midnightblue" d="M529.55,-387.177C546.479,-377.241 568.783,-364.149 583.255,-355.655"/>
<polygon fill="midnightblue" stroke="midnightblue" points="527.634,-384.243 520.781,-392.324 531.177,-390.28 527.634,-384.243"/>
</g>
<!-- Node3&#45;&gt;Node11 -->
<g id="edge10" class="edge"><title>Node3&#45;&gt;Node11</title>
<path fill="none" stroke="midnightblue" d="M512.594,-382.897C519.025,-367.904 530.295,-347.292 547,-336 620.74,-286.156 664.076,-339.168 744,-300 810.983,-267.174 828.788,-250.827 869,-188 880.584,-169.901 885.806,-144.684 887.856,-131.617"/>
<polygon fill="midnightblue" stroke="midnightblue" points="509.34,-381.609 508.908,-392.195 515.847,-384.189 509.34,-381.609"/>
</g>
<!-- Node3&#45;&gt;Node13 -->
<g id="edge12" class="edge"><title>Node3&#45;&gt;Node13</title>
<path fill="none" stroke="midnightblue" d="M446.891,-394.45C395.196,-387.557 325.296,-375.035 305,-356 283.046,-335.411 286,-321.098 286,-291 286,-291 286,-291 286,-177 286,-138.821 297.251,-94.2624 302.438,-75.7514"/>
<polygon fill="midnightblue" stroke="midnightblue" points="446.6,-397.941 456.966,-395.754 447.498,-390.999 446.6,-397.941"/>
</g>
<!-- Node16 -->
<g id="node16" class="node"><title>Node16</title>
<g id="a_node16"><a xlink:href="../../d8/df6/_unique_ptr_8h.html" target="_top" xlink:title="Unique pointer implementation. ">
<polygon fill="white" stroke="black" points="138,-336.5 138,-355.5 220,-355.5 220,-336.5 138,-336.5"/>
<text text-anchor="middle" x="179" y="-343.5" font-family="Helvetica,sans-Serif" font-size="10.00">stl/UniquePtr.h</text>
</a>
</g>
</g>
<!-- Node3&#45;&gt;Node16 -->
<g id="edge15" class="edge"><title>Node3&#45;&gt;Node16</title>
<path fill="none" stroke="midnightblue" d="M446.526,-391.179C381.076,-380.37 277.59,-363.281 220.406,-353.838"/>
<polygon fill="midnightblue" stroke="midnightblue" points="446.254,-394.681 456.691,-392.857 447.395,-387.775 446.254,-394.681"/>
</g>
<!-- Node18 -->
<g id="node18" class="node"><title>Node18</title>
<g id="a_node18"><a xlink:href="../../d6/d60/_dynamic_string_8h.html" target="_top" xlink:title="DynamicString is a class that provides dynamic strings and functions for dynamic strings. ">
<polygon fill="white" stroke="black" points="433,-224.5 433,-243.5 555,-243.5 555,-224.5 433,-224.5"/>
<text text-anchor="middle" x="494" y="-231.5" font-family="Helvetica,sans-Serif" font-size="10.00">strings/DynamicString.h</text>
</a>
</g>
</g>
<!-- Node3&#45;&gt;Node18 -->
<g id="edge17" class="edge"><title>Node3&#45;&gt;Node18</title>
<path fill="none" stroke="midnightblue" d="M504.621,-381.93C502.018,-345.92 496.475,-269.231 494.619,-243.568"/>
<polygon fill="midnightblue" stroke="midnightblue" points="501.143,-382.354 505.355,-392.075 508.125,-381.849 501.143,-382.354"/>
</g>
<!-- Node6&#45;&gt;Node7 -->
<g id="edge6" class="edge"><title>Node6&#45;&gt;Node7</title>
<path fill="none" stroke="midnightblue" d="M992.305,-330.51C1017.19,-311.675 1055,-276.269 1055,-235 1055,-235 1055,-235 1055,-177 1055,-129.871 1105.1,-91.8352 1130.54,-75.5584"/>
<polygon fill="midnightblue" stroke="midnightblue" points="990.151,-327.749 984.125,-336.463 994.27,-333.408 990.151,-327.749"/>
</g>
<!-- Node9 -->
<g id="node9" class="node"><title>Node9</title>
<g id="a_node9"><a xlink:href="../../d6/d59/_chain_set_8h.html" target="_top" xlink:title="Hash set implementation. ">
<polygon fill="white" stroke="black" points="392.5,-56.5 392.5,-75.5 471.5,-75.5 471.5,-56.5 392.5,-56.5"/>
<text text-anchor="middle" x="432" y="-63.5" font-family="Helvetica,sans-Serif" font-size="10.00">stl/ChainSet.h</text>
</a>
</g>
</g>
<!-- Node8&#45;&gt;Node9 -->
<g id="edge8" class="edge"><title>Node8&#45;&gt;Node9</title>
<path fill="none" stroke="midnightblue" d="M432,-101.805C432,-92.9102 432,-82.7798 432,-75.7511"/>
<polygon fill="midnightblue" stroke="midnightblue" points="428.5,-102.083 432,-112.083 435.5,-102.083 428.5,-102.083"/>
</g>
<!-- Node12 -->
<g id="node12" class="node"><title>Node12</title>
<g id="a_node12"><a xlink:href="../../d0/de6/_open_set_8h.html" target="_top" xlink:title="Hash set implementation. ">
<polygon fill="white" stroke="black" points="782.5,-56.5 782.5,-75.5 859.5,-75.5 859.5,-56.5 782.5,-56.5"/>
<text text-anchor="middle" x="821" y="-63.5" font-family="Helvetica,sans-Serif" font-size="10.00">stl/OpenSet.h</text>
</a>
</g>
</g>
<!-- Node11&#45;&gt;Node12 -->
<g id="edge11" class="edge"><title>Node11&#45;&gt;Node12</title>
<path fill="none" stroke="midnightblue" d="M870.238,-106.101C858,-96.3824 842.441,-84.0269 832.124,-75.8339"/>
<polygon fill="midnightblue" stroke="midnightblue" points="868.067,-108.846 878.075,-112.324 872.42,-103.364 868.067,-108.846"/>
</g>
<!-- Node14 -->
<g id="node14" class="node"><title>Node14</title>
<g id="a_node14"><a xlink:href="../../df/d87/_tree_map_8h.html" target="_top" xlink:title="Map implementation using red black tree. ">
<polygon fill="white" stroke="black" points="220.5,-0.5 220.5,-19.5 297.5,-19.5 297.5,-0.5 220.5,-0.5"/>
<text text-anchor="middle" x="259" y="-7.5" font-family="Helvetica,sans-Serif" font-size="10.00">stl/TreeMap.h</text>
</a>
</g>
</g>
<!-- Node13&#45;&gt;Node14 -->
<g id="edge13" class="edge"><title>Node13&#45;&gt;Node14</title>
<path fill="none" stroke="midnightblue" d="M290.886,-48.4314C282.824,-38.9673 273.041,-27.4827 266.455,-19.7511"/>
<polygon fill="midnightblue" stroke="midnightblue" points="288.255,-50.7402 297.404,-56.083 293.584,-46.2009 288.255,-50.7402"/>
</g>
<!-- Node15 -->
<g id="node15" class="node"><title>Node15</title>
<g id="a_node15"><a xlink:href="../../dd/dba/_tree_set_8h.html" target="_top" xlink:title="Set implementation using red black tree. ">
<polygon fill="white" stroke="black" points="315.5,-0.5 315.5,-19.5 388.5,-19.5 388.5,-0.5 315.5,-0.5"/>
<text text-anchor="middle" x="352" y="-7.5" font-family="Helvetica,sans-Serif" font-size="10.00">stl/TreeSet.h</text>
</a>
</g>
</g>
<!-- Node13&#45;&gt;Node15 -->
<g id="edge14" class="edge"><title>Node13&#45;&gt;Node15</title>
<path fill="none" stroke="midnightblue" d="M319.421,-48.4314C327.658,-38.9673 337.654,-27.4827 344.383,-19.7511"/>
<polygon fill="midnightblue" stroke="midnightblue" points="316.686,-46.2421 312.761,-56.083 321.966,-50.8378 316.686,-46.2421"/>
</g>
<!-- Node16&#45;&gt;Node17 -->
<g id="edge16" class="edge"><title>Node16&#45;&gt;Node17</title>
<path fill="none" stroke="midnightblue" d="M147.751,-332.772C121.829,-322.629 85.6375,-308.467 62.7642,-299.516"/>
<polygon fill="midnightblue" stroke="midnightblue" points="146.546,-336.059 157.133,-336.444 149.096,-329.54 146.546,-336.059"/>
</g>
<!-- Node19 -->
<g id="node19" class="node"><title>Node19</title>
<g id="a_node19"><a xlink:href="../../d9/d8a/_dynamic_string_8cpp.html" target="_top" xlink:title="DynamicString is a class that provides dynamic strings and functions for dynamic strings. ">
<polygon fill="white" stroke="black" points="428,-168.5 428,-187.5 560,-187.5 560,-168.5 428,-168.5"/>
<text text-anchor="middle" x="494" y="-175.5" font-family="Helvetica,sans-Serif" font-size="10.00">strings/DynamicString.cpp</text>
</a>
</g>
</g>
<!-- Node18&#45;&gt;Node19 -->
<g id="edge18" class="edge"><title>Node18&#45;&gt;Node19</title>
<path fill="none" stroke="midnightblue" d="M494,-213.805C494,-204.91 494,-194.78 494,-187.751"/>
<polygon fill="midnightblue" stroke="midnightblue" points="490.5,-214.083 494,-224.083 497.5,-214.083 490.5,-214.083"/>
</g>
<!-- Node21&#45;&gt;Node8 -->
<g id="edge41" class="edge"><title>Node21&#45;&gt;Node8</title>
<path fill="none" stroke="midnightblue" d="M833.203,-382.547C828.345,-367.644 819.316,-347.346 804,-336 734.587,-284.58 696.965,-320.297 613,-300 527.843,-279.415 479.489,-311.797 424,-244 396.665,-210.602 418.239,-153.102 427.919,-131.517"/>
<polygon fill="midnightblue" stroke="midnightblue" points="829.871,-383.623 836.033,-392.241 836.59,-381.661 829.871,-383.623"/>
</g>
<!-- Node21&#45;&gt;Node11 -->
<g id="edge42" class="edge"><title>Node21&#45;&gt;Node11</title>
<path fill="none" stroke="midnightblue" d="M845.658,-382.59C860.331,-346.201 891.936,-262.161 903,-188 904.312,-179.208 904.335,-176.788 903,-168 901.033,-155.058 896.056,-140.715 892.6,-131.778"/>
<polygon fill="midnightblue" stroke="midnightblue" points="842.237,-381.709 841.689,-392.29 848.715,-384.36 842.237,-381.709"/>
</g>
<!-- Node21&#45;&gt;Node13 -->
<g id="edge43" class="edge"><title>Node21&#45;&gt;Node13</title>
<path fill="none" stroke="midnightblue" d="M826.036,-384.302C814.013,-368.939 794.003,-346.933 771,-336 647.321,-277.217 587.96,-360.272 465,-300 367.183,-252.052 318.695,-112.045 307.541,-75.7008"/>
<polygon fill="midnightblue" stroke="midnightblue" points="823.35,-386.553 832.154,-392.446 828.946,-382.349 823.35,-386.553"/>
</g>
<!-- Node21&#45;&gt;Node22 -->
<g id="edge22" class="edge"><title>Node21&#45;&gt;Node22</title>
<path fill="none" stroke="midnightblue" d="M876.293,-394.592C927.035,-386.05 1019.32,-370.341 1098,-356 1101.02,-355.449 1104.16,-354.869 1107.3,-354.28"/>
<polygon fill="midnightblue" stroke="midnightblue" points="875.397,-391.193 866.116,-396.303 876.557,-398.096 875.397,-391.193"/>
</g>
<!-- Node21&#45;&gt;Node29 -->
<g id="edge44" class="edge"><title>Node21&#45;&gt;Node29</title>
<path fill="none" stroke="midnightblue" d="M876.237,-391.657C919.167,-381.167 988.016,-364.344 1027.82,-354.618"/>
<polygon fill="midnightblue" stroke="midnightblue" points="875.323,-388.277 866.439,-394.051 876.984,-395.077 875.323,-388.277"/>
</g>
<!-- Node22&#45;&gt;Node7 -->
<g id="edge23" class="edge"><title>Node22&#45;&gt;Node7</title>
<path fill="none" stroke="midnightblue" d="M1145,-326.251C1145,-304.357 1145,-267.052 1145,-235 1145,-235 1145,-235 1145,-177 1145,-139.188 1145,-94.0636 1145,-75.5578"/>
<polygon fill="midnightblue" stroke="midnightblue" points="1141.5,-326.442 1145,-336.442 1148.5,-326.442 1141.5,-326.442"/>
</g>
<!-- Node23 -->
<g id="node23" class="node"><title>Node23</title>
<g id="a_node23"><a xlink:href="../../de/d0b/_string_iterator_8h.html" target="_top" xlink:title="strings/StringIterator.h">
<polygon fill="white" stroke="black" points="622.5,-280.5 622.5,-299.5 735.5,-299.5 735.5,-280.5 622.5,-280.5"/>
<text text-anchor="middle" x="679" y="-287.5" font-family="Helvetica,sans-Serif" font-size="10.00">strings/StringIterator.h</text>
</a>
</g>
</g>
<!-- Node22&#45;&gt;Node23 -->
<g id="edge24" class="edge"><title>Node22&#45;&gt;Node23</title>
<path fill="none" stroke="midnightblue" d="M1097.18,-335.997C961.614,-316.066 814.543,-302.327 735.778,-295.606"/>
<polygon fill="midnightblue" stroke="midnightblue" points="1096.93,-339.499 1107.34,-337.505 1097.96,-332.574 1096.93,-339.499"/>
</g>
<!-- Node23&#45;&gt;Node18 -->
<g id="edge40" class="edge"><title>Node23&#45;&gt;Node18</title>
<path fill="none" stroke="midnightblue" d="M639.834,-277.568C604.935,-267.381 554.651,-252.703 523.177,-243.516"/>
<polygon fill="midnightblue" stroke="midnightblue" points="639.106,-281.001 649.686,-280.444 641.067,-274.282 639.106,-281.001"/>
</g>
<!-- Node24 -->
<g id="node24" class="node"><title>Node24</title>
<g id="a_node24"><a xlink:href="../../d8/d65/_static_string_8h.html" target="_top" xlink:title="StaticString provides a String that is on stack and is of fixed size. ">
<polygon fill="white" stroke="black" points="625,-224.5 625,-243.5 733,-243.5 733,-224.5 625,-224.5"/>
<text text-anchor="middle" x="679" y="-231.5" font-family="Helvetica,sans-Serif" font-size="10.00">strings/StaticString.h</text>
</a>
</g>
</g>
<!-- Node23&#45;&gt;Node24 -->
<g id="edge25" class="edge"><title>Node23&#45;&gt;Node24</title>
<path fill="none" stroke="midnightblue" d="M679,-269.805C679,-260.91 679,-250.78 679,-243.751"/>
<polygon fill="midnightblue" stroke="midnightblue" points="675.5,-270.083 679,-280.083 682.5,-270.083 675.5,-270.083"/>
</g>
<!-- Node25 -->
<g id="node25" class="node"><title>Node25</title>
<g id="a_node25"><a xlink:href="../../d7/d0c/_comparator_8h.html" target="_top" xlink:title="Comparator implementation for basic types. ">
<polygon fill="white" stroke="black" points="613.5,-112.5 613.5,-131.5 702.5,-131.5 702.5,-112.5 613.5,-112.5"/>
<text text-anchor="middle" x="658" y="-119.5" font-family="Helvetica,sans-Serif" font-size="10.00">stl/Comparator.h</text>
</a>
</g>
</g>
<!-- Node24&#45;&gt;Node25 -->
<g id="edge26" class="edge"><title>Node24&#45;&gt;Node25</title>
<path fill="none" stroke="midnightblue" d="M644.336,-220.239C630.103,-213.082 615.089,-202.595 607,-188 594.762,-165.92 623.457,-143.477 642.586,-131.607"/>
<polygon fill="midnightblue" stroke="midnightblue" points="642.95,-223.454 653.496,-224.472 645.886,-217.1 642.95,-223.454"/>
</g>
<!-- Node26 -->
<g id="node26" class="node"><title>Node26</title>
<g id="a_node26"><a xlink:href="../../d2/dc2/_equal_8h.html" target="_top" xlink:title="stl/Equal.h">
<polygon fill="white" stroke="black" points="717.5,-168.5 717.5,-187.5 780.5,-187.5 780.5,-168.5 717.5,-168.5"/>
<text text-anchor="middle" x="749" y="-175.5" font-family="Helvetica,sans-Serif" font-size="10.00">stl/Equal.h</text>
</a>
</g>
</g>
<!-- Node24&#45;&gt;Node26 -->
<g id="edge29" class="edge"><title>Node24&#45;&gt;Node26</title>
<path fill="none" stroke="midnightblue" d="M698.314,-218.101C710.912,-208.382 726.928,-196.027 737.549,-187.834"/>
<polygon fill="midnightblue" stroke="midnightblue" points="696.027,-215.445 690.247,-224.324 700.302,-220.987 696.027,-215.445"/>
</g>
<!-- Node27 -->
<g id="node27" class="node"><title>Node27</title>
<g id="a_node27"><a xlink:href="../../d2/dad/_hash_8h.html" target="_top" xlink:title="stl/Hash.h">
<polygon fill="white" stroke="black" points="799,-168.5 799,-187.5 861,-187.5 861,-168.5 799,-168.5"/>
<text text-anchor="middle" x="830" y="-175.5" font-family="Helvetica,sans-Serif" font-size="10.00">stl/Hash.h</text>
</a>
</g>
</g>
<!-- Node24&#45;&gt;Node27 -->
<g id="edge34" class="edge"><title>Node24&#45;&gt;Node27</title>
<path fill="none" stroke="midnightblue" d="M712.446,-221.039C740.858,-210.879 780.937,-196.546 806.186,-187.516"/>
<polygon fill="midnightblue" stroke="midnightblue" points="711.164,-217.781 702.926,-224.444 713.521,-224.372 711.164,-217.781"/>
</g>
<!-- Node28 -->
<g id="node28" class="node"><title>Node28</title>
<g id="a_node28"><a xlink:href="../../db/db5/_string_8h.html" target="_top" xlink:title="strings/String.h">
<polygon fill="white" stroke="black" points="616.5,-168.5 616.5,-187.5 699.5,-187.5 699.5,-168.5 616.5,-168.5"/>
<text text-anchor="middle" x="658" y="-175.5" font-family="Helvetica,sans-Serif" font-size="10.00">strings/String.h</text>
</a>
</g>
</g>
<!-- Node24&#45;&gt;Node28 -->
<g id="edge38" class="edge"><title>Node24&#45;&gt;Node28</title>
<path fill="none" stroke="midnightblue" d="M671.879,-214.69C668.34,-205.589 664.228,-195.014 661.403,-187.751"/>
<polygon fill="midnightblue" stroke="midnightblue" points="668.646,-216.032 675.532,-224.083 675.17,-213.494 668.646,-216.032"/>
</g>
<!-- Node25&#45;&gt;Node7 -->
<g id="edge27" class="edge"><title>Node25&#45;&gt;Node7</title>
<path fill="none" stroke="midnightblue" d="M712.484,-114.959C810.261,-104.117 1013.56,-81.5745 1102.17,-71.7495"/>
<polygon fill="midnightblue" stroke="midnightblue" points="712.062,-111.484 702.509,-116.065 712.834,-118.441 712.062,-111.484"/>
</g>
<!-- Node25&#45;&gt;Node13 -->
<g id="edge28" class="edge"><title>Node25&#45;&gt;Node13</title>
<path fill="none" stroke="midnightblue" d="M603.251,-112.625C535.573,-102.272 421.318,-84.7936 355.609,-74.7418"/>
<polygon fill="midnightblue" stroke="midnightblue" points="602.878,-116.108 613.292,-114.161 603.937,-109.189 602.878,-116.108"/>
</g>
<!-- Node26&#45;&gt;Node8 -->
<g id="edge31" class="edge"><title>Node26&#45;&gt;Node8</title>
<path fill="none" stroke="midnightblue" d="M707.261,-167.947C618.285,-151.108 525.944,-136.847 473.74,-129.081"/>
<polygon fill="midnightblue" stroke="midnightblue" points="706.772,-171.417 717.251,-169.852 708.083,-164.541 706.772,-171.417"/>
</g>
<!-- Node26&#45;&gt;Node11 -->
<g id="edge32" class="edge"><title>Node26&#45;&gt;Node11</title>
<path fill="none" stroke="midnightblue" d="M780.702,-164.772C807,-154.629 843.716,-140.467 866.92,-131.516"/>
<polygon fill="midnightblue" stroke="midnightblue" points="779.254,-161.579 771.183,-168.444 781.773,-168.11 779.254,-161.579"/>
</g>
<!-- Node26&#45;&gt;Node12 -->
<g id="edge33" class="edge"><title>Node26&#45;&gt;Node12</title>
<path fill="none" stroke="midnightblue" d="M760.155,-159.957C775.759,-136.118 803.518,-93.7088 815.377,-75.5914"/>
<polygon fill="midnightblue" stroke="midnightblue" points="757.198,-158.085 754.65,-168.368 763.055,-161.918 757.198,-158.085"/>
</g>
<!-- Node26&#45;&gt;Node25 -->
<g id="edge30" class="edge"><title>Node26&#45;&gt;Node25</title>
<path fill="none" stroke="midnightblue" d="M725.706,-163.177C708.961,-153.241 686.9,-140.149 672.584,-131.655"/>
<polygon fill="midnightblue" stroke="midnightblue" points="723.993,-166.231 734.379,-168.324 727.566,-160.211 723.993,-166.231"/>
</g>
<!-- Node27&#45;&gt;Node8 -->
<g id="edge35" class="edge"><title>Node27&#45;&gt;Node8</title>
<path fill="none" stroke="midnightblue" d="M788.591,-168.088C668.237,-147.645 538.664,-133.544 473.681,-127.015"/>
<polygon fill="midnightblue" stroke="midnightblue" points="788.27,-171.584 798.718,-169.827 789.455,-164.685 788.27,-171.584"/>
</g>
<!-- Node27&#45;&gt;Node11 -->
<g id="edge36" class="edge"><title>Node27&#45;&gt;Node11</title>
<path fill="none" stroke="midnightblue" d="M846.895,-161.537C857.415,-151.909 870.569,-139.869 879.348,-131.834"/>
<polygon fill="midnightblue" stroke="midnightblue" points="844.493,-158.99 839.479,-168.324 849.219,-164.154 844.493,-158.99"/>
</g>
<!-- Node27&#45;&gt;Node12 -->
<g id="edge37" class="edge"><title>Node27&#45;&gt;Node12</title>
<path fill="none" stroke="midnightblue" d="M828.474,-158.348C826.503,-134.254 823.152,-93.3079 821.703,-75.5914"/>
<polygon fill="midnightblue" stroke="midnightblue" points="824.99,-158.687 829.294,-168.368 831.967,-158.116 824.99,-158.687"/>
</g>
<!-- Node28&#45;&gt;Node25 -->
<g id="edge39" class="edge"><title>Node28&#45;&gt;Node25</title>
<path fill="none" stroke="midnightblue" d="M658,-157.805C658,-148.91 658,-138.78 658,-131.751"/>
<polygon fill="midnightblue" stroke="midnightblue" points="654.5,-158.083 658,-168.083 661.5,-158.083 654.5,-158.083"/>
</g>
<!-- Node30&#45;&gt;Node7 -->
<g id="edge55" class="edge"><title>Node30&#45;&gt;Node7</title>
<path fill="none" stroke="midnightblue" d="M1206.79,-384.703C1223.68,-364.343 1249,-327.7 1249,-291 1249,-291 1249,-291 1249,-177 1249,-146.205 1244.98,-135.433 1225,-112 1210.32,-94.7815 1187.31,-82.8193 1169.73,-75.5799"/>
<polygon fill="midnightblue" stroke="midnightblue" points="1204.05,-382.525 1200.17,-392.384 1209.35,-387.096 1204.05,-382.525"/>
</g>
<!-- Node30&#45;&gt;Node22 -->
<g id="edge54" class="edge"><title>Node30&#45;&gt;Node22</title>
<path fill="none" stroke="midnightblue" d="M1177.58,-384.431C1169.34,-374.967 1159.35,-363.483 1152.62,-355.751"/>
<polygon fill="midnightblue" stroke="midnightblue" points="1175.03,-386.838 1184.24,-392.083 1180.31,-382.242 1175.03,-386.838"/>
</g>
</g>
</svg>
        <g id="navigator" transform="translate(0 0)" fill="#404254">
                <rect fill="#f2f5e9" fill-opacity="0.5" stroke="#606060" stroke-width=".5" x="0" y="0" width="60" height="60"/>
                <use id="zoomplus" xlink:href="#zoomPlus" x="17" y="9" onmousedown="handleZoom(evt,'in')"/>
                <use id="zoomminus" xlink:href="#zoomMin" x="42" y="9" onmousedown="handleZoom(evt,'out')"/>
                <use id="reset" xlink:href="#resetDef" x="30" y="36" onmousedown="handleReset()"/>
                <g id="arrowUp" xlink:href="#dirArrow" transform="translate(30 24)" onmousedown="handlePan(0,-1)">
                  <use xlink:href="#rim" fill="#404040">
                        <set attributeName="fill" to="#808080" begin="arrowUp.mouseover" end="arrowUp.mouseout"/>
                  </use>
                  <path fill="none" stroke="white" stroke-width="1.5" d="M0,-3.0v7 M-2.5,-0.5L0,-3.0L2.5,-0.5"/>
                </g>
                <g id="arrowRight" xlink:href="#dirArrow" transform="rotate(90) translate(36 -43)" onmousedown="handlePan(1,0)">
                  <use xlink:href="#rim" fill="#404040">
                        <set attributeName="fill" to="#808080" begin="arrowRight.mouseover" end="arrowRight.mouseout"/>
                  </use>
                  <path fill="none" stroke="white" stroke-width="1.5" d="M0,-3.0v7 M-2.5,-0.5L0,-3.0L2.5,-0.5"/>
                </g>
                <g id="arrowDown" xlink:href="#dirArrow" transform="rotate(180) translate(-30 -48)" onmousedown="handlePan(0,1)">
                  <use xlink:href="#rim" fill="#404040">
                        <set attributeName="fill" to="#808080" begin="arrowDown.mouseover" end="arrowDown.mouseout"/>
                  </use>
                  <path fill="none" stroke="white" stroke-width="1.5" d="M0,-3.0v7 M-2.5,-0.5L0,-3.0L2.5,-0.5"/>
                </g>
                <g id="arrowLeft" xlink:href="#dirArrow" transform="rotate(270) translate(-36 17)" onmousedown="handlePan(-1,0)">
                  <use xlink:href="#rim" fill="#404040">
                        <set attributeName="fill" to="#808080" begin="arrowLeft.mouseover" end="arrowLeft.mouseout"/>
                  </use>
                  <path fill="none" stroke="white" stroke-width="1.5" d="M0,-3.0v7 M-2.5,-0.5L0,-3.0L2.5,-0.5"/>
                </g>
        </g>
        <svg viewBox="0 0 15 15" width="100%" height="30px" preserveAspectRatio="xMaxYMin meet">
         <g id="arrow_out" transform="scale(0.3 0.3)">
          <a xlink:href="_tmp_8h__dep__incl_org.svg" target="_base">
           <rect id="button" ry="5" rx="5" y="6" x="6" height="38" width="38"
                fill="#f2f5e9" fill-opacity="0.5" stroke="#606060" stroke-width="1.0"/>
           <path id="arrow"
             d="M 11.500037,31.436501 C 11.940474,20.09759 22.043105,11.32322 32.158766,21.979434 L 37.068811,17.246167 C 37.068811,17.246167 37.088388,32 37.088388,32 L 22.160133,31.978069 C 22.160133,31.978069 26.997745,27.140456 26.997745,27.140456 C 18.528582,18.264221 13.291696,25.230495 11.500037,31.436501 z"
             style="fill:#404040;"/>
          </a>
         </g>
        </svg>
</svg>
