<?xml version="1.0" encoding="UTF-8" standalone="no"?>
<!DOCTYPE svg PUBLIC "-//W3C//DTD SVG 1.1//EN"
 "http://www.w3.org/Graphics/SVG/1.1/DTD/svg11.dtd">
<!-- Generated by graphviz version 2.36.0 (20140111.2315)
 -->
<!-- Title: wlib/utility/Tmp.h Pages: 1 -->
<svg width="1992pt" height="532pt"
 viewBox="0.00 0.00 1992.00 532.00" xmlns="http://www.w3.org/2000/svg" xmlns:xlink="http://www.w3.org/1999/xlink">
<g id="graph0" class="graph" transform="scale(1 1) rotate(0) translate(4 528)">
<title>wlib/utility/Tmp.h</title>
<polygon fill="white" stroke="none" points="-4,4 -4,-528 1988,-528 1988,4 -4,4"/>
<!-- Node1 -->
<g id="node1" class="node"><title>Node1</title>
<polygon fill="#bfbfbf" stroke="black" points="747.5,-504.5 747.5,-523.5 838.5,-523.5 838.5,-504.5 747.5,-504.5"/>
<text text-anchor="middle" x="793" y="-511.5" font-family="Helvetica,sans-Serif" font-size="10.00">wlib/utility/Tmp.h</text>
</g>
<!-- Node2 -->
<g id="node2" class="node"><title>Node2</title>
<g id="a_node2"><a xlink:href="../../d3/de6/_memory_8h.html" target="_top" xlink:title="Memory is a class that provides dynamic fixed size memory. ">
<polygon fill="white" stroke="black" points="733.5,-392.5 733.5,-411.5 852.5,-411.5 852.5,-392.5 733.5,-392.5"/>
<text text-anchor="middle" x="793" y="-399.5" font-family="Helvetica,sans-Serif" font-size="10.00">wlib/memory/Memory.h</text>
</a>
</g>
</g>
<!-- Node1&#45;&gt;Node2 -->
<g id="edge1" class="edge"><title>Node1&#45;&gt;Node2</title>
<path fill="none" stroke="midnightblue" d="M793,-494.348C793,-470.254 793,-429.308 793,-411.591"/>
<polygon fill="midnightblue" stroke="midnightblue" points="789.5,-494.368 793,-504.368 796.5,-494.369 789.5,-494.368"/>
</g>
<!-- Node4 -->
<g id="node4" class="node"><title>Node4</title>
<g id="a_node4"><a xlink:href="../../df/dcf/_state_machine_8h.html" target="_top" xlink:title="wlib/fsm/StateMachine.h">
<polygon fill="white" stroke="black" points="180.5,-336.5 180.5,-355.5 305.5,-355.5 305.5,-336.5 180.5,-336.5"/>
<text text-anchor="middle" x="243" y="-343.5" font-family="Helvetica,sans-Serif" font-size="10.00">wlib/fsm/StateMachine.h</text>
</a>
</g>
</g>
<!-- Node1&#45;&gt;Node4 -->
<g id="edge39" class="edge"><title>Node1&#45;&gt;Node4</title>
<path fill="none" stroke="midnightblue" d="M754.794,-501.469C650.502,-469.991 362.645,-383.111 271.242,-355.524"/>
<polygon fill="midnightblue" stroke="midnightblue" points="754.003,-504.886 764.588,-504.425 756.026,-498.184 754.003,-504.886"/>
</g>
<!-- Node16 -->
<g id="node16" class="node"><title>Node16</title>
<g id="a_node16"><a xlink:href="../../d1/d13/_shared_ptr_8h.html" target="_top" xlink:title="Shared pointer implementation. ">
<polygon fill="white" stroke="black" points="28,-280.5 28,-299.5 130,-299.5 130,-280.5 28,-280.5"/>
<text text-anchor="middle" x="79" y="-287.5" font-family="Helvetica,sans-Serif" font-size="10.00">wlib/stl/SharedPtr.h</text>
</a>
</g>
</g>
<!-- Node1&#45;&gt;Node16 -->
<g id="edge77" class="edge"><title>Node1&#45;&gt;Node16</title>
<path fill="none" stroke="midnightblue" d="M737.109,-513.386C580.499,-513.919 145.81,-511.434 100,-468 51.7197,-422.224 69.7231,-328.493 76.7282,-299.643"/>
<polygon fill="midnightblue" stroke="midnightblue" points="737.47,-516.885 747.456,-513.345 737.442,-509.885 737.47,-516.885"/>
</g>
<!-- Node26 -->
<g id="node26" class="node"><title>Node26</title>
<g id="a_node26"><a xlink:href="../../db/d2a/_utility_8h.html" target="_top" xlink:title="Various helper functions. ">
<polygon fill="white" stroke="black" points="1196.5,-448.5 1196.5,-467.5 1293.5,-467.5 1293.5,-448.5 1196.5,-448.5"/>
<text text-anchor="middle" x="1245" y="-455.5" font-family="Helvetica,sans-Serif" font-size="10.00">wlib/utility/Utility.h</text>
</a>
</g>
</g>
<!-- Node1&#45;&gt;Node26 -->
<g id="edge40" class="edge"><title>Node1&#45;&gt;Node26</title>
<path fill="none" stroke="midnightblue" d="M848.768,-506.337C938.079,-495.668 1111.72,-474.922 1196.32,-464.815"/>
<polygon fill="midnightblue" stroke="midnightblue" points="848.342,-502.863 838.828,-507.525 849.172,-509.814 848.342,-502.863"/>
</g>
<!-- Node30 -->
<g id="node30" class="node"><title>Node30</title>
<g id="a_node30"><a xlink:href="../../d8/dd7/_concept_8h.html" target="_top" xlink:title="Concept definitions. ">
<polygon fill="white" stroke="black" points="1808.5,-336.5 1808.5,-355.5 1903.5,-355.5 1903.5,-336.5 1808.5,-336.5"/>
<text text-anchor="middle" x="1856" y="-343.5" font-family="Helvetica,sans-Serif" font-size="10.00">wlib/stl/Concept.h</text>
</a>
</g>
</g>
<!-- Node1&#45;&gt;Node30 -->
<g id="edge76" class="edge"><title>Node1&#45;&gt;Node30</title>
<path fill="none" stroke="midnightblue" d="M848.711,-512.49C1033.77,-510.011 1625.8,-495.579 1794,-412 1820.26,-398.953 1841.39,-370.014 1850.76,-355.561"/>
<polygon fill="midnightblue" stroke="midnightblue" points="848.611,-508.99 838.657,-512.618 848.701,-515.99 848.611,-508.99"/>
</g>
<!-- Node32 -->
<g id="node32" class="node"><title>Node32</title>
<g id="a_node32"><a xlink:href="../../d7/d2a/_tuple_8h.html" target="_top" xlink:title="Template oriented tuple implementation. ">
<polygon fill="white" stroke="black" points="448.5,-168.5 448.5,-187.5 531.5,-187.5 531.5,-168.5 448.5,-168.5"/>
<text text-anchor="middle" x="490" y="-175.5" font-family="Helvetica,sans-Serif" font-size="10.00">wlib/stl/Tuple.h</text>
</a>
</g>
</g>
<!-- Node1&#45;&gt;Node32 -->
<g id="edge79" class="edge"><title>Node1&#45;&gt;Node32</title>
<path fill="none" stroke="midnightblue" d="M736.993,-511.38C579.874,-506.566 142.454,-491.221 82,-468 38.5869,-451.325 0,-449.506 0,-403 0,-403 0,-403 0,-289 0,-197.454 329.727,-182.08 448.223,-179.511"/>
<polygon fill="midnightblue" stroke="midnightblue" points="737.27,-514.89 747.371,-511.695 737.482,-507.893 737.27,-514.89"/>
</g>
<!-- Node33 -->
<g id="node33" class="node"><title>Node33</title>
<g id="a_node33"><a xlink:href="../../d9/d37/_table_8h.html" target="_top" xlink:title="wlib/stl/Table.h">
<polygon fill="white" stroke="black" points="556.5,-112.5 556.5,-131.5 639.5,-131.5 639.5,-112.5 556.5,-112.5"/>
<text text-anchor="middle" x="598" y="-119.5" font-family="Helvetica,sans-Serif" font-size="10.00">wlib/stl/Table.h</text>
</a>
</g>
</g>
<!-- Node1&#45;&gt;Node33 -->
<g id="edge78" class="edge"><title>Node1&#45;&gt;Node33</title>
<path fill="none" stroke="midnightblue" d="M737.425,-508.345C593.071,-494.983 212.293,-451.205 138,-356 78.4355,-279.67 459.954,-242.469 540,-188 563.007,-172.344 582.904,-145.615 592.277,-131.817"/>
<polygon fill="midnightblue" stroke="midnightblue" points="737.125,-511.832 747.402,-509.255 737.761,-504.861 737.125,-511.832"/>
</g>
<!-- Node34 -->
<g id="node34" class="node"><title>Node34</title>
<g id="a_node34"><a xlink:href="../../d4/dd5/_type_traits_8h.html" target="_top" xlink:title="Metafunctions for types. ">
<polygon fill="white" stroke="black" points="1846.5,-392.5 1846.5,-411.5 1951.5,-411.5 1951.5,-392.5 1846.5,-392.5"/>
<text text-anchor="middle" x="1899" y="-399.5" font-family="Helvetica,sans-Serif" font-size="10.00">wlib/stl/TypeTraits.h</text>
</a>
</g>
</g>
<!-- Node1&#45;&gt;Node34 -->
<g id="edge80" class="edge"><title>Node1&#45;&gt;Node34</title>
<path fill="none" stroke="midnightblue" d="M848.677,-512.894C1051.2,-512.194 1741.59,-506.946 1832,-468 1859.98,-455.946 1883,-426.541 1893.25,-411.771"/>
<polygon fill="midnightblue" stroke="midnightblue" points="848.55,-509.394 838.561,-512.927 848.572,-516.394 848.55,-509.394"/>
</g>
<!-- Node35 -->
<g id="node35" class="node"><title>Node35</title>
<g id="a_node35"><a xlink:href="../../d1/dae/_vector2_d_8h.html" target="_top" xlink:title="wlib/stl/Vector2D.h">
<polygon fill="white" stroke="black" points="1884,-448.5 1884,-467.5 1984,-467.5 1984,-448.5 1884,-448.5"/>
<text text-anchor="middle" x="1934" y="-455.5" font-family="Helvetica,sans-Serif" font-size="10.00">wlib/stl/Vector2D.h</text>
</a>
</g>
</g>
<!-- Node1&#45;&gt;Node35 -->
<g id="edge83" class="edge"><title>Node1&#45;&gt;Node35</title>
<path fill="none" stroke="midnightblue" d="M848.547,-512.597C1007.87,-511.027 1479.96,-503.487 1870,-468 1874.47,-467.593 1879.11,-467.094 1883.75,-466.541"/>
<polygon fill="midnightblue" stroke="midnightblue" points="848.476,-509.097 838.509,-512.692 848.542,-516.097 848.476,-509.097"/>
</g>
<!-- Node3 -->
<g id="node3" class="node"><title>Node3</title>
<g id="a_node3"><a xlink:href="../../d7/d9e/_exceptions_8cpp.html" target="_top" xlink:title="Implementation of Exceptions using C style. ">
<polygon fill="white" stroke="black" points="323.5,-336.5 323.5,-355.5 478.5,-355.5 478.5,-336.5 323.5,-336.5"/>
<text text-anchor="middle" x="401" y="-343.5" font-family="Helvetica,sans-Serif" font-size="10.00">wlib/exceptions/Exceptions.cpp</text>
</a>
</g>
</g>
<!-- Node2&#45;&gt;Node3 -->
<g id="edge2" class="edge"><title>Node2&#45;&gt;Node3</title>
<path fill="none" stroke="midnightblue" d="M723.311,-391.4C649.327,-381.208 533.513,-365.254 462.717,-355.502"/>
<polygon fill="midnightblue" stroke="midnightblue" points="723.08,-394.901 733.464,-392.799 724.035,-387.967 723.08,-394.901"/>
</g>
<!-- Node2&#45;&gt;Node4 -->
<g id="edge3" class="edge"><title>Node2&#45;&gt;Node4</title>
<path fill="none" stroke="midnightblue" d="M723.027,-395.142C629.664,-387.162 459.241,-372.023 314,-356 311.283,-355.7 308.509,-355.386 305.707,-355.061"/>
<polygon fill="midnightblue" stroke="midnightblue" points="722.935,-398.647 733.196,-396.009 723.529,-391.672 722.935,-398.647"/>
</g>
<!-- Node5 -->
<g id="node5" class="node"><title>Node5</title>
<g id="a_node5"><a xlink:href="../../df/d64/_memory_8cpp.html" target="_top" xlink:title="Implementation of Memory functions. ">
<polygon fill="white" stroke="black" points="496.5,-336.5 496.5,-355.5 625.5,-355.5 625.5,-336.5 496.5,-336.5"/>
<text text-anchor="middle" x="561" y="-343.5" font-family="Helvetica,sans-Serif" font-size="10.00">wlib/memory/Memory.cpp</text>
</a>
</g>
</g>
<!-- Node2&#45;&gt;Node5 -->
<g id="edge4" class="edge"><title>Node2&#45;&gt;Node5</title>
<path fill="none" stroke="midnightblue" d="M746.397,-390.153C702.563,-379.95 637.822,-364.881 597.589,-355.516"/>
<polygon fill="midnightblue" stroke="midnightblue" points="745.706,-393.585 756.239,-392.444 747.293,-386.768 745.706,-393.585"/>
</g>
<!-- Node6 -->
<g id="node6" class="node"><title>Node6</title>
<g id="a_node6"><a xlink:href="../../d2/db9/_array_list_8h.html" target="_top" xlink:title="List implementation using an array. ">
<polygon fill="white" stroke="black" points="1579,-336.5 1579,-355.5 1677,-355.5 1677,-336.5 1579,-336.5"/>
<text text-anchor="middle" x="1628" y="-343.5" font-family="Helvetica,sans-Serif" font-size="10.00">wlib/stl/ArrayList.h</text>
</a>
</g>
</g>
<!-- Node2&#45;&gt;Node6 -->
<g id="edge5" class="edge"><title>Node2&#45;&gt;Node6</title>
<path fill="none" stroke="midnightblue" d="M862.733,-396.49C1027.42,-385.84 1437.24,-359.337 1578.9,-350.175"/>
<polygon fill="midnightblue" stroke="midnightblue" points="862.469,-393 852.716,-397.138 862.921,-399.985 862.469,-393"/>
</g>
<!-- Node8 -->
<g id="node8" class="node"><title>Node8</title>
<g id="a_node8"><a xlink:href="../../de/dc6/_linked_list_8h.html" target="_top" xlink:title="wlib/stl/LinkedList.h">
<polygon fill="white" stroke="black" points="916.5,-336.5 916.5,-355.5 1019.5,-355.5 1019.5,-336.5 916.5,-336.5"/>
<text text-anchor="middle" x="968" y="-343.5" font-family="Helvetica,sans-Serif" font-size="10.00">wlib/stl/LinkedList.h</text>
</a>
</g>
</g>
<!-- Node2&#45;&gt;Node8 -->
<g id="edge7" class="edge"><title>Node2&#45;&gt;Node8</title>
<path fill="none" stroke="midnightblue" d="M830.475,-389.436C863.47,-379.255 910.756,-364.664 940.4,-355.516"/>
<polygon fill="midnightblue" stroke="midnightblue" points="829.253,-386.151 820.729,-392.444 831.317,-392.839 829.253,-386.151"/>
</g>
<!-- Node9 -->
<g id="node9" class="node"><title>Node9</title>
<g id="a_node9"><a xlink:href="../../d8/d2e/_open_table_8h.html" target="_top" xlink:title="wlib/stl/OpenTable.h">
<polygon fill="white" stroke="black" points="886,-112.5 886,-131.5 992,-131.5 992,-112.5 886,-112.5"/>
<text text-anchor="middle" x="939" y="-119.5" font-family="Helvetica,sans-Serif" font-size="10.00">wlib/stl/OpenTable.h</text>
</a>
</g>
</g>
<!-- Node2&#45;&gt;Node9 -->
<g id="edge8" class="edge"><title>Node2&#45;&gt;Node9</title>
<path fill="none" stroke="midnightblue" d="M798.216,-382.39C803.841,-360.65 812,-323.511 812,-291 812,-291 812,-291 812,-233 812,-179.474 877.252,-146.165 914.212,-131.591"/>
<polygon fill="midnightblue" stroke="midnightblue" points="794.782,-381.683 795.562,-392.249 801.541,-383.502 794.782,-381.683"/>
</g>
<!-- Node12 -->
<g id="node12" class="node"><title>Node12</title>
<g id="a_node12"><a xlink:href="../../d5/d08/_red_black_tree_8h.html" target="_top" xlink:title="Red black tree implementation. ">
<polygon fill="white" stroke="black" points="1492.5,-56.5 1492.5,-75.5 1613.5,-75.5 1613.5,-56.5 1492.5,-56.5"/>
<text text-anchor="middle" x="1553" y="-63.5" font-family="Helvetica,sans-Serif" font-size="10.00">wlib/stl/RedBlackTree.h</text>
</a>
</g>
</g>
<!-- Node2&#45;&gt;Node12 -->
<g id="edge11" class="edge"><title>Node2&#45;&gt;Node12</title>
<path fill="none" stroke="midnightblue" d="M787.784,-382.39C782.159,-360.65 774,-323.511 774,-291 774,-291 774,-291 774,-233 774,-162.377 813.537,-142.986 877,-112 883.883,-108.64 1327.44,-80.9354 1492.23,-70.7439"/>
<polygon fill="midnightblue" stroke="midnightblue" points="784.459,-383.502 790.438,-392.249 791.218,-381.683 784.459,-383.502"/>
</g>
<!-- Node15 -->
<g id="node15" class="node"><title>Node15</title>
<g id="a_node15"><a xlink:href="../../d8/df6/_unique_ptr_8h.html" target="_top" xlink:title="Unique pointer implementation. ">
<polygon fill="white" stroke="black" points="644,-336.5 644,-355.5 746,-355.5 746,-336.5 644,-336.5"/>
<text text-anchor="middle" x="695" y="-343.5" font-family="Helvetica,sans-Serif" font-size="10.00">wlib/stl/UniquePtr.h</text>
</a>
</g>
</g>
<!-- Node2&#45;&gt;Node15 -->
<g id="edge14" class="edge"><title>Node2&#45;&gt;Node15</title>
<path fill="none" stroke="midnightblue" d="M768.414,-387.453C750.322,-377.483 726.265,-364.228 710.706,-355.655"/>
<polygon fill="midnightblue" stroke="midnightblue" points="766.807,-390.563 777.255,-392.324 770.185,-384.432 766.807,-390.563"/>
</g>
<!-- Node17 -->
<g id="node17" class="node"><title>Node17</title>
<g id="a_node17"><a xlink:href="../../db/db5/_string_8h.html" target="_top" xlink:title="wlib/strings/String.h">
<polygon fill="white" stroke="black" points="1199.5,-224.5 1199.5,-243.5 1302.5,-243.5 1302.5,-224.5 1199.5,-224.5"/>
<text text-anchor="middle" x="1251" y="-231.5" font-family="Helvetica,sans-Serif" font-size="10.00">wlib/strings/String.h</text>
</a>
</g>
</g>
<!-- Node2&#45;&gt;Node17 -->
<g id="edge16" class="edge"><title>Node2&#45;&gt;Node17</title>
<path fill="none" stroke="midnightblue" d="M814.499,-386.717C836.856,-372.358 873.242,-350.348 907,-336 1013.12,-290.897 1145.79,-258.182 1211.02,-243.544"/>
<polygon fill="midnightblue" stroke="midnightblue" points="812.3,-383.972 805.825,-392.359 816.116,-389.841 812.3,-383.972"/>
</g>
<!-- Node7 -->
<g id="node7" class="node"><title>Node7</title>
<g id="a_node7"><a xlink:href="../../df/d03/_array_heap_8h.html" target="_top" xlink:title="Heap manipulation and implementation. ">
<polygon fill="white" stroke="black" points="1840.5,-56.5 1840.5,-75.5 1945.5,-75.5 1945.5,-56.5 1840.5,-56.5"/>
<text text-anchor="middle" x="1893" y="-63.5" font-family="Helvetica,sans-Serif" font-size="10.00">wlib/stl/ArrayHeap.h</text>
</a>
</g>
</g>
<!-- Node6&#45;&gt;Node7 -->
<g id="edge6" class="edge"><title>Node6&#45;&gt;Node7</title>
<path fill="none" stroke="midnightblue" d="M1643.14,-328.771C1655.46,-315.596 1673.31,-296.555 1689,-280 1764.39,-200.481 1856.29,-105.065 1884.42,-75.8973"/>
<polygon fill="midnightblue" stroke="midnightblue" points="1640.53,-326.445 1636.26,-336.142 1645.64,-331.223 1640.53,-326.445"/>
</g>
<!-- Node10 -->
<g id="node10" class="node"><title>Node10</title>
<g id="a_node10"><a xlink:href="../../d5/d7a/_open_map_8h.html" target="_top" xlink:title="Hash map implementation. ">
<polygon fill="white" stroke="black" points="709.5,-56.5 709.5,-75.5 810.5,-75.5 810.5,-56.5 709.5,-56.5"/>
<text text-anchor="middle" x="760" y="-63.5" font-family="Helvetica,sans-Serif" font-size="10.00">wlib/stl/OpenMap.h</text>
</a>
</g>
</g>
<!-- Node9&#45;&gt;Node10 -->
<g id="edge9" class="edge"><title>Node9&#45;&gt;Node10</title>
<path fill="none" stroke="midnightblue" d="M900.669,-109.436C866.92,-99.2551 818.553,-84.664 788.23,-75.5164"/>
<polygon fill="midnightblue" stroke="midnightblue" points="900.052,-112.906 910.637,-112.444 902.074,-106.204 900.052,-112.906"/>
</g>
<!-- Node11 -->
<g id="node11" class="node"><title>Node11</title>
<g id="a_node11"><a xlink:href="../../d0/de6/_open_set_8h.html" target="_top" xlink:title="Hash set implementation. ">
<polygon fill="white" stroke="black" points="1300.5,-56.5 1300.5,-75.5 1397.5,-75.5 1397.5,-56.5 1300.5,-56.5"/>
<text text-anchor="middle" x="1349" y="-63.5" font-family="Helvetica,sans-Serif" font-size="10.00">wlib/stl/OpenSet.h</text>
</a>
</g>
</g>
<!-- Node9&#45;&gt;Node11 -->
<g id="edge10" class="edge"><title>Node9&#45;&gt;Node11</title>
<path fill="none" stroke="midnightblue" d="M1002.14,-112.684C1084.29,-101.864 1226.09,-83.1881 1300.38,-73.403"/>
<polygon fill="midnightblue" stroke="midnightblue" points="1001.64,-109.22 992.18,-113.996 1002.55,-116.16 1001.64,-109.22"/>
</g>
<!-- Node13 -->
<g id="node13" class="node"><title>Node13</title>
<g id="a_node13"><a xlink:href="../../df/d87/_tree_map_8h.html" target="_top" xlink:title="Map implementation using red black tree. ">
<polygon fill="white" stroke="black" points="549.5,-0.5 549.5,-19.5 646.5,-19.5 646.5,-0.5 549.5,-0.5"/>
<text text-anchor="middle" x="598" y="-7.5" font-family="Helvetica,sans-Serif" font-size="10.00">wlib/stl/TreeMap.h</text>
</a>
</g>
</g>
<!-- Node12&#45;&gt;Node13 -->
<g id="edge12" class="edge"><title>Node12&#45;&gt;Node13</title>
<path fill="none" stroke="midnightblue" d="M1482.07,-60.5779C1457.93,-59.0943 1430.79,-57.4493 1406,-56 1118.13,-39.1713 772.467,-20.401 646.733,-13.6202"/>
<polygon fill="midnightblue" stroke="midnightblue" points="1482.02,-64.0813 1492.21,-61.2029 1482.45,-57.0946 1482.02,-64.0813"/>
</g>
<!-- Node14 -->
<g id="node14" class="node"><title>Node14</title>
<g id="a_node14"><a xlink:href="../../dd/dba/_tree_set_8h.html" target="_top" xlink:title="Set implementation using red black tree. ">
<polygon fill="white" stroke="black" points="1085.5,-0.5 1085.5,-19.5 1178.5,-19.5 1178.5,-0.5 1085.5,-0.5"/>
<text text-anchor="middle" x="1132" y="-7.5" font-family="Helvetica,sans-Serif" font-size="10.00">wlib/stl/TreeSet.h</text>
</a>
</g>
</g>
<!-- Node12&#45;&gt;Node14 -->
<g id="edge13" class="edge"><title>Node12&#45;&gt;Node14</title>
<path fill="none" stroke="midnightblue" d="M1482.26,-55.926C1395.94,-44.854 1252.42,-26.4457 1178.76,-16.9981"/>
<polygon fill="midnightblue" stroke="midnightblue" points="1481.87,-59.4048 1492.23,-57.2056 1482.76,-52.4617 1481.87,-59.4048"/>
</g>
<!-- Node15&#45;&gt;Node16 -->
<g id="edge15" class="edge"><title>Node15&#45;&gt;Node16</title>
<path fill="none" stroke="midnightblue" d="M633.775,-336.057C441.605,-314.385 226.786,-299.979 130.375,-294.036"/>
<polygon fill="midnightblue" stroke="midnightblue" points="633.446,-339.542 643.777,-337.194 634.236,-332.587 633.446,-339.542"/>
</g>
<!-- Node18 -->
<g id="node18" class="node"><title>Node18</title>
<g id="a_node18"><a xlink:href="../../de/d6d/_bitset_8h.html" target="_top" xlink:title="Bitset is a class that provides bits manipulation methods. ">
<polygon fill="white" stroke="black" points="1092,-168.5 1092,-187.5 1176,-187.5 1176,-168.5 1092,-168.5"/>
<text text-anchor="middle" x="1134" y="-175.5" font-family="Helvetica,sans-Serif" font-size="10.00">wlib/stl/Bitset.h</text>
</a>
</g>
</g>
<!-- Node17&#45;&gt;Node18 -->
<g id="edge17" class="edge"><title>Node17&#45;&gt;Node18</title>
<path fill="none" stroke="midnightblue" d="M1223.34,-220.232C1201.45,-210.131 1171.5,-196.309 1152.45,-187.516"/>
<polygon fill="midnightblue" stroke="midnightblue" points="1221.91,-223.431 1232.46,-224.444 1224.85,-217.075 1221.91,-223.431"/>
</g>
<!-- Node19 -->
<g id="node19" class="node"><title>Node19</title>
<g id="a_node19"><a xlink:href="../../d7/d0c/_comparator_8h.html" target="_top" xlink:title="Comparator implementation for basic types. ">
<polygon fill="white" stroke="black" points="1514,-112.5 1514,-131.5 1624,-131.5 1624,-112.5 1514,-112.5"/>
<text text-anchor="middle" x="1569" y="-119.5" font-family="Helvetica,sans-Serif" font-size="10.00">wlib/stl/Comparator.h</text>
</a>
</g>
</g>
<!-- Node17&#45;&gt;Node19 -->
<g id="edge18" class="edge"><title>Node17&#45;&gt;Node19</title>
<path fill="none" stroke="midnightblue" d="M1298.35,-222.029C1331.86,-213.816 1377.64,-201.678 1417,-188 1466.61,-170.762 1522.97,-144.954 1551.07,-131.637"/>
<polygon fill="midnightblue" stroke="midnightblue" points="1297.27,-218.691 1288.37,-224.449 1298.91,-225.494 1297.27,-218.691"/>
</g>
<!-- Node20 -->
<g id="node20" class="node"><title>Node20</title>
<g id="a_node20"><a xlink:href="../../d2/dc2/_equal_8h.html" target="_top" xlink:title="wlib/stl/Equal.h">
<polygon fill="white" stroke="black" points="1325.5,-168.5 1325.5,-187.5 1408.5,-187.5 1408.5,-168.5 1325.5,-168.5"/>
<text text-anchor="middle" x="1367" y="-175.5" font-family="Helvetica,sans-Serif" font-size="10.00">wlib/stl/Equal.h</text>
</a>
</g>
</g>
<!-- Node17&#45;&gt;Node20 -->
<g id="edge21" class="edge"><title>Node17&#45;&gt;Node20</title>
<path fill="none" stroke="midnightblue" d="M1278.72,-220.096C1300.39,-210.007 1329.9,-196.27 1348.71,-187.516"/>
<polygon fill="midnightblue" stroke="midnightblue" points="1276.97,-217.05 1269.38,-224.444 1279.92,-223.396 1276.97,-217.05"/>
</g>
<!-- Node24 -->
<g id="node24" class="node"><title>Node24</title>
<g id="a_node24"><a xlink:href="../../d2/dad/_hash_8h.html" target="_top" xlink:title="wlib/stl/Hash.h">
<polygon fill="white" stroke="black" points="992,-168.5 992,-187.5 1074,-187.5 1074,-168.5 992,-168.5"/>
<text text-anchor="middle" x="1033" y="-175.5" font-family="Helvetica,sans-Serif" font-size="10.00">wlib/stl/Hash.h</text>
</a>
</g>
</g>
<!-- Node17&#45;&gt;Node24 -->
<g id="edge31" class="edge"><title>Node17&#45;&gt;Node24</title>
<path fill="none" stroke="midnightblue" d="M1206.69,-222.024C1165.51,-211.823 1105.03,-196.841 1067.38,-187.516"/>
<polygon fill="midnightblue" stroke="midnightblue" points="1205.91,-225.436 1216.46,-224.444 1207.59,-218.642 1205.91,-225.436"/>
</g>
<!-- Node25 -->
<g id="node25" class="node"><title>Node25</title>
<g id="a_node25"><a xlink:href="../../d9/dae/_string_8cpp.html" target="_top" xlink:title="wlib/strings/String.cpp">
<polygon fill="white" stroke="black" points="1194.5,-168.5 1194.5,-187.5 1307.5,-187.5 1307.5,-168.5 1194.5,-168.5"/>
<text text-anchor="middle" x="1251" y="-175.5" font-family="Helvetica,sans-Serif" font-size="10.00">wlib/strings/String.cpp</text>
</a>
</g>
</g>
<!-- Node17&#45;&gt;Node25 -->
<g id="edge38" class="edge"><title>Node17&#45;&gt;Node25</title>
<path fill="none" stroke="midnightblue" d="M1251,-213.805C1251,-204.91 1251,-194.78 1251,-187.751"/>
<polygon fill="midnightblue" stroke="midnightblue" points="1247.5,-214.083 1251,-224.083 1254.5,-214.083 1247.5,-214.083"/>
</g>
<!-- Node19&#45;&gt;Node7 -->
<g id="edge19" class="edge"><title>Node19&#45;&gt;Node7</title>
<path fill="none" stroke="midnightblue" d="M1630.26,-110.791C1691.48,-100.587 1784.53,-85.078 1841.9,-75.5164"/>
<polygon fill="midnightblue" stroke="midnightblue" points="1629.63,-107.347 1620.34,-112.444 1630.78,-114.252 1629.63,-107.347"/>
</g>
<!-- Node19&#45;&gt;Node12 -->
<g id="edge20" class="edge"><title>Node19&#45;&gt;Node12</title>
<path fill="none" stroke="midnightblue" d="M1563.49,-102.396C1560.81,-93.362 1557.72,-82.936 1555.59,-75.7511"/>
<polygon fill="midnightblue" stroke="midnightblue" points="1560.16,-103.489 1566.36,-112.083 1566.87,-101.501 1560.16,-103.489"/>
</g>
<!-- Node20&#45;&gt;Node9 -->
<g id="edge30" class="edge"><title>Node20&#45;&gt;Node9</title>
<path fill="none" stroke="midnightblue" d="M1315.06,-167.937C1193.54,-150.178 1063.31,-135.835 992.193,-128.402"/>
<polygon fill="midnightblue" stroke="midnightblue" points="1314.88,-171.448 1325.28,-169.442 1315.9,-164.523 1314.88,-171.448"/>
</g>
<!-- Node20&#45;&gt;Node10 -->
<g id="edge28" class="edge"><title>Node20&#45;&gt;Node10</title>
<path fill="none" stroke="midnightblue" d="M1315.31,-167.951C1207.77,-151.098 1177.32,-158.396 1076,-132 1051.64,-125.653 1047.3,-118.598 1023,-112 1002.91,-106.545 881.371,-86.5649 810.751,-75.1466"/>
<polygon fill="midnightblue" stroke="midnightblue" points="1314.84,-171.42 1325.27,-169.545 1315.95,-164.508 1314.84,-171.42"/>
</g>
<!-- Node20&#45;&gt;Node11 -->
<g id="edge29" class="edge"><title>Node20&#45;&gt;Node11</title>
<path fill="none" stroke="midnightblue" d="M1378.09,-159.559C1385.04,-146.367 1391.69,-127.875 1386,-112 1380.75,-97.337 1368.42,-84.0309 1359.44,-75.7555"/>
<polygon fill="midnightblue" stroke="midnightblue" points="1374.9,-158.076 1372.92,-168.483 1380.96,-161.586 1374.9,-158.076"/>
</g>
<!-- Node20&#45;&gt;Node19 -->
<g id="edge22" class="edge"><title>Node20&#45;&gt;Node19</title>
<path fill="none" stroke="midnightblue" d="M1408.79,-165.829C1446.93,-155.633 1502.48,-140.782 1537.14,-131.516"/>
<polygon fill="midnightblue" stroke="midnightblue" points="1407.76,-162.48 1399.01,-168.444 1409.57,-169.242 1407.76,-162.48"/>
</g>
<!-- Node21 -->
<g id="node21" class="node"><title>Node21</title>
<g id="a_node21"><a xlink:href="../../dd/d0b/_hash_map_8h.html" target="_top" xlink:title="wlib/stl/HashMap.h">
<polygon fill="white" stroke="black" points="828.5,-56.5 828.5,-75.5 929.5,-75.5 929.5,-56.5 828.5,-56.5"/>
<text text-anchor="middle" x="879" y="-63.5" font-family="Helvetica,sans-Serif" font-size="10.00">wlib/stl/HashMap.h</text>
</a>
</g>
</g>
<!-- Node20&#45;&gt;Node21 -->
<g id="edge23" class="edge"><title>Node20&#45;&gt;Node21</title>
<path fill="none" stroke="midnightblue" d="M1319.3,-166.249C1222.51,-144.43 1004.76,-95.3473 916.862,-75.5345"/>
<polygon fill="midnightblue" stroke="midnightblue" points="1318.59,-169.675 1329.11,-168.46 1320.13,-162.847 1318.59,-169.675"/>
</g>
<!-- Node22 -->
<g id="node22" class="node"><title>Node22</title>
<g id="a_node22"><a xlink:href="../../d2/dfc/_hash_set_8h.html" target="_top" xlink:title="wlib/stl/HashSet.h">
<polygon fill="white" stroke="black" points="1154.5,-56.5 1154.5,-75.5 1251.5,-75.5 1251.5,-56.5 1154.5,-56.5"/>
<text text-anchor="middle" x="1203" y="-63.5" font-family="Helvetica,sans-Serif" font-size="10.00">wlib/stl/HashSet.h</text>
</a>
</g>
</g>
<!-- Node20&#45;&gt;Node22 -->
<g id="edge24" class="edge"><title>Node20&#45;&gt;Node22</title>
<path fill="none" stroke="midnightblue" d="M1367.46,-157.908C1366.77,-143.537 1363.49,-124.278 1352,-112 1326.34,-84.5723 1284.62,-73.6627 1251.84,-69.4197"/>
<polygon fill="midnightblue" stroke="midnightblue" points="1363.96,-158.196 1367.56,-168.16 1370.96,-158.125 1363.96,-158.196"/>
</g>
<!-- Node23 -->
<g id="node23" class="node"><title>Node23</title>
<g id="a_node23"><a xlink:href="../../de/def/_hash_table_8h.html" target="_top" xlink:title="wlib/stl/HashTable.h">
<polygon fill="white" stroke="black" points="1238,-112.5 1238,-131.5 1344,-131.5 1344,-112.5 1238,-112.5"/>
<text text-anchor="middle" x="1291" y="-119.5" font-family="Helvetica,sans-Serif" font-size="10.00">wlib/stl/HashTable.h</text>
</a>
</g>
</g>
<!-- Node20&#45;&gt;Node23 -->
<g id="edge25" class="edge"><title>Node20&#45;&gt;Node23</title>
<path fill="none" stroke="midnightblue" d="M1346.42,-162.38C1332.69,-152.62 1315.07,-140.106 1303.43,-131.834"/>
<polygon fill="midnightblue" stroke="midnightblue" points="1344.61,-165.385 1354.79,-168.324 1348.66,-159.679 1344.61,-165.385"/>
</g>
<!-- Node23&#45;&gt;Node21 -->
<g id="edge26" class="edge"><title>Node23&#45;&gt;Node21</title>
<path fill="none" stroke="midnightblue" d="M1228.06,-112.75C1146.2,-102.022 1004.81,-83.4901 929.556,-73.6262"/>
<polygon fill="midnightblue" stroke="midnightblue" points="1227.61,-116.222 1237.98,-114.051 1228.52,-109.281 1227.61,-116.222"/>
</g>
<!-- Node23&#45;&gt;Node22 -->
<g id="edge27" class="edge"><title>Node23&#45;&gt;Node22</title>
<path fill="none" stroke="midnightblue" d="M1268.02,-106.901C1251.89,-96.9986 1230.82,-84.0705 1217.1,-75.6545"/>
<polygon fill="midnightblue" stroke="midnightblue" points="1266.51,-110.077 1276.86,-112.324 1270.17,-104.111 1266.51,-110.077"/>
</g>
<!-- Node24&#45;&gt;Node9 -->
<g id="edge37" class="edge"><title>Node24&#45;&gt;Node9</title>
<path fill="none" stroke="midnightblue" d="M1008.94,-163.177C991.641,-153.241 968.852,-140.149 954.065,-131.655"/>
<polygon fill="midnightblue" stroke="midnightblue" points="1007.48,-166.378 1017.9,-168.324 1010.97,-160.308 1007.48,-166.378"/>
</g>
<!-- Node24&#45;&gt;Node10 -->
<g id="edge35" class="edge"><title>Node24&#45;&gt;Node10</title>
<path fill="none" stroke="midnightblue" d="M1028.49,-158.554C1023.87,-143.655 1015.16,-123.36 1000,-112 992.431,-106.327 878.734,-86.6872 810.588,-75.3157"/>
<polygon fill="midnightblue" stroke="midnightblue" points="1025.14,-159.538 1031.17,-168.245 1031.88,-157.674 1025.14,-159.538"/>
</g>
<!-- Node24&#45;&gt;Node11 -->
<g id="edge36" class="edge"><title>Node24&#45;&gt;Node11</title>
<path fill="none" stroke="midnightblue" d="M1067.17,-165.104C1131.29,-142.786 1268.19,-95.1318 1324.26,-75.6104"/>
<polygon fill="midnightblue" stroke="midnightblue" points="1065.83,-161.867 1057.53,-168.46 1068.13,-168.478 1065.83,-161.867"/>
</g>
<!-- Node24&#45;&gt;Node21 -->
<g id="edge32" class="edge"><title>Node24&#45;&gt;Node21</title>
<path fill="none" stroke="midnightblue" d="M1038.93,-158.372C1042.2,-144.25 1043.84,-125.103 1034,-112 1021.34,-95.1393 969.993,-82.5504 929.825,-75.0379"/>
<polygon fill="midnightblue" stroke="midnightblue" points="1035.45,-157.836 1036.15,-168.408 1042.19,-159.704 1035.45,-157.836"/>
</g>
<!-- Node24&#45;&gt;Node22 -->
<g id="edge33" class="edge"><title>Node24&#45;&gt;Node22</title>
<path fill="none" stroke="midnightblue" d="M1055.08,-162.714C1090.9,-139.535 1160.61,-94.4303 1189.72,-75.5914"/>
<polygon fill="midnightblue" stroke="midnightblue" points="1052.83,-159.997 1046.34,-168.368 1056.64,-165.874 1052.83,-159.997"/>
</g>
<!-- Node24&#45;&gt;Node23 -->
<g id="edge34" class="edge"><title>Node24&#45;&gt;Node23</title>
<path fill="none" stroke="midnightblue" d="M1083.9,-166.346C1132.66,-156.141 1205.29,-140.94 1250.31,-131.516"/>
<polygon fill="midnightblue" stroke="midnightblue" points="1082.95,-162.969 1073.88,-168.444 1084.39,-169.821 1082.95,-162.969"/>
</g>
<!-- Node26&#45;&gt;Node2 -->
<g id="edge41" class="edge"><title>Node26&#45;&gt;Node2</title>
<path fill="none" stroke="midnightblue" d="M1186.04,-449.956C1099.62,-439.632 939.451,-420.496 852.648,-410.126"/>
<polygon fill="midnightblue" stroke="midnightblue" points="1185.85,-453.459 1196.2,-451.17 1186.68,-446.508 1185.85,-453.459"/>
</g>
<!-- Node26&#45;&gt;Node6 -->
<g id="edge45" class="edge"><title>Node26&#45;&gt;Node6</title>
<path fill="none" stroke="midnightblue" d="M1303.83,-454.67C1409.95,-449.857 1624.55,-437.109 1647,-412 1661.42,-395.875 1645.3,-369.351 1635.09,-355.706"/>
<polygon fill="midnightblue" stroke="midnightblue" points="1303.43,-451.184 1293.6,-455.124 1303.75,-458.177 1303.43,-451.184"/>
</g>
<!-- Node26&#45;&gt;Node7 -->
<g id="edge44" class="edge"><title>Node26&#45;&gt;Node7</title>
<path fill="none" stroke="midnightblue" d="M1304.14,-454.496C1407.65,-449.529 1617.2,-436.712 1686,-412 1743.31,-391.415 1747.17,-366.278 1800,-336 1831.73,-317.815 1850.4,-327.945 1874,-300 1893.42,-277.003 1893,-265.098 1893,-235 1893,-235 1893,-235 1893,-177 1893,-139.188 1893,-94.0636 1893,-75.5578"/>
<polygon fill="midnightblue" stroke="midnightblue" points="1303.69,-451.013 1293.86,-454.98 1304.02,-458.005 1303.69,-451.013"/>
</g>
<!-- Node26&#45;&gt;Node8 -->
<g id="edge48" class="edge"><title>Node26&#45;&gt;Node8</title>
<path fill="none" stroke="midnightblue" d="M1186.26,-453.36C1142.14,-448.582 1081.42,-437.536 1034,-412 1007.66,-397.818 984.756,-369.931 974.198,-355.741"/>
<polygon fill="midnightblue" stroke="midnightblue" points="1185.96,-456.847 1196.26,-454.367 1186.66,-449.882 1185.96,-456.847"/>
</g>
<!-- Node26&#45;&gt;Node9 -->
<g id="edge51" class="edge"><title>Node26&#45;&gt;Node9</title>
<path fill="none" stroke="midnightblue" d="M1223.79,-442.516C1171.79,-405.942 1036.82,-304.439 963,-188 951.277,-169.51 944.092,-144.457 940.918,-131.519"/>
<polygon fill="midnightblue" stroke="midnightblue" points="1222.02,-445.549 1232.23,-448.39 1226.02,-439.804 1222.02,-445.549"/>
</g>
<!-- Node26&#45;&gt;Node10 -->
<g id="edge49" class="edge"><title>Node26&#45;&gt;Node10</title>
<path fill="none" stroke="midnightblue" d="M1186.08,-456C971.325,-451.753 239.496,-431.783 171,-356 165.04,-349.406 165.919,-343.294 171,-336 204.718,-287.597 364.794,-264.785 420,-244 485.041,-219.512 503.787,-218.976 566,-188 638.134,-152.085 717.855,-97.0441 747.773,-75.7932"/>
<polygon fill="midnightblue" stroke="midnightblue" points="1186.14,-459.502 1196.21,-456.196 1186.28,-452.503 1186.14,-459.502"/>
</g>
<!-- Node26&#45;&gt;Node11 -->
<g id="edge50" class="edge"><title>Node26&#45;&gt;Node11</title>
<path fill="none" stroke="midnightblue" d="M1275.35,-444.363C1295.79,-435.67 1323.25,-423.635 1347,-412 1363.79,-403.776 1366.77,-399.249 1384,-392 1433.76,-371.066 1459.11,-391.237 1500,-356 1520.93,-337.964 1520.85,-326.937 1527,-300 1534.52,-267.071 1539.12,-255.53 1527,-224 1502.96,-161.433 1478,-154.3 1426,-112 1407.5,-96.9522 1383.4,-83.7243 1367.12,-75.5722"/>
<polygon fill="midnightblue" stroke="midnightblue" points="1273.78,-441.228 1265.93,-448.345 1276.51,-447.676 1273.78,-441.228"/>
</g>
<!-- Node26&#45;&gt;Node12 -->
<g id="edge74" class="edge"><title>Node26&#45;&gt;Node12</title>
<path fill="none" stroke="midnightblue" d="M1303.94,-454.075C1412.63,-448.19 1636.13,-433.605 1664,-412 1716.74,-371.113 1693.03,-163.828 1651,-112 1635.91,-93.3872 1611.41,-82.1372 1590.68,-75.5404"/>
<polygon fill="midnightblue" stroke="midnightblue" points="1303.59,-450.589 1293.79,-454.618 1303.96,-457.579 1303.59,-450.589"/>
</g>
<!-- Node26&#45;&gt;Node16 -->
<g id="edge75" class="edge"><title>Node26&#45;&gt;Node16</title>
<path fill="none" stroke="midnightblue" d="M1186.08,-457.347C975.25,-458.203 266.15,-457.63 176,-412 126.275,-386.831 93.5436,-323.252 82.8355,-299.836"/>
<polygon fill="midnightblue" stroke="midnightblue" points="1186.34,-460.846 1196.32,-457.302 1186.31,-453.846 1186.34,-460.846"/>
</g>
<!-- Node26&#45;&gt;Node21 -->
<g id="edge46" class="edge"><title>Node26&#45;&gt;Node21</title>
<path fill="none" stroke="midnightblue" d="M1216.13,-444.172C1197.92,-435.731 1174.12,-424.048 1154,-412 1045.7,-347.161 1014.72,-332.791 925,-244 879.808,-199.277 856.947,-192.031 836,-132 833.071,-123.607 832.692,-120.25 836,-112 842.113,-96.755 856.126,-83.7492 866.503,-75.698"/>
<polygon fill="midnightblue" stroke="midnightblue" points="1214.8,-447.414 1225.35,-448.393 1217.71,-441.049 1214.8,-447.414"/>
</g>
<!-- Node26&#45;&gt;Node23 -->
<g id="edge47" class="edge"><title>Node26&#45;&gt;Node23</title>
<path fill="none" stroke="midnightblue" d="M1265.64,-442.586C1286.49,-428.448 1319.98,-406.9 1351,-392 1427.48,-355.262 1513,-375.847 1513,-291 1513,-291 1513,-291 1513,-233 1513,-157.941 1409.85,-134.099 1344.17,-126.526"/>
<polygon fill="midnightblue" stroke="midnightblue" points="1263.52,-439.79 1257.26,-448.331 1267.48,-445.563 1263.52,-439.79"/>
</g>
<!-- Node27 -->
<g id="node27" class="node"><title>Node27</title>
<g id="a_node27"><a xlink:href="../../d0/d55/_allocator_8cpp.html" target="_top" xlink:title="Implementation of Allocator. ">
<polygon fill="white" stroke="black" points="1393,-392.5 1393,-411.5 1525,-411.5 1525,-392.5 1393,-392.5"/>
<text text-anchor="middle" x="1459" y="-399.5" font-family="Helvetica,sans-Serif" font-size="10.00">wlib/memory/Allocator.cpp</text>
</a>
</g>
</g>
<!-- Node26&#45;&gt;Node27 -->
<g id="edge42" class="edge"><title>Node26&#45;&gt;Node27</title>
<path fill="none" stroke="midnightblue" d="M1288.76,-445.959C1329.17,-435.76 1388.37,-420.822 1425.25,-411.516"/>
<polygon fill="midnightblue" stroke="midnightblue" points="1287.75,-442.603 1278.91,-448.444 1289.46,-449.39 1287.75,-442.603"/>
</g>
<!-- Node28 -->
<g id="node28" class="node"><title>Node28</title>
<g id="a_node28"><a xlink:href="../../d1/d65/_array2_d_8h.html" target="_top" xlink:title="wlib/stl/Array2D.h">
<polygon fill="white" stroke="black" points="1543.5,-392.5 1543.5,-411.5 1638.5,-411.5 1638.5,-392.5 1543.5,-392.5"/>
<text text-anchor="middle" x="1591" y="-399.5" font-family="Helvetica,sans-Serif" font-size="10.00">wlib/stl/Array2D.h</text>
</a>
</g>
</g>
<!-- Node26&#45;&gt;Node28 -->
<g id="edge43" class="edge"><title>Node26&#45;&gt;Node28</title>
<path fill="none" stroke="midnightblue" d="M1303.73,-447.893C1362.12,-438.829 1454.26,-424.503 1534,-412 1537.07,-411.519 1540.23,-411.022 1543.42,-410.521"/>
<polygon fill="midnightblue" stroke="midnightblue" points="1302.93,-444.475 1293.58,-449.468 1304,-451.393 1302.93,-444.475"/>
</g>
<!-- Node29 -->
<g id="node29" class="node"><title>Node29</title>
<g id="a_node29"><a xlink:href="../../d4/dda/_pair_8h.html" target="_top" xlink:title="Implementation of a 2&#45;element tuple. ">
<polygon fill="white" stroke="black" points="1207,-392.5 1207,-411.5 1283,-411.5 1283,-392.5 1207,-392.5"/>
<text text-anchor="middle" x="1245" y="-399.5" font-family="Helvetica,sans-Serif" font-size="10.00">wlib/stl/Pair.h</text>
</a>
</g>
</g>
<!-- Node26&#45;&gt;Node29 -->
<g id="edge52" class="edge"><title>Node26&#45;&gt;Node29</title>
<path fill="none" stroke="midnightblue" d="M1245,-437.805C1245,-428.91 1245,-418.78 1245,-411.751"/>
<polygon fill="midnightblue" stroke="midnightblue" points="1241.5,-438.083 1245,-448.083 1248.5,-438.083 1241.5,-438.083"/>
</g>
<!-- Node29&#45;&gt;Node9 -->
<g id="edge61" class="edge"><title>Node29&#45;&gt;Node9</title>
<path fill="none" stroke="midnightblue" d="M1229.11,-385.149C1215.39,-371.684 1194.86,-352.045 1176,-336 1093.66,-265.961 1057.14,-266.661 983,-188 965.989,-169.952 950.926,-144.713 943.64,-131.63"/>
<polygon fill="midnightblue" stroke="midnightblue" points="1226.76,-387.751 1236.33,-392.29 1231.68,-382.772 1226.76,-387.751"/>
</g>
<!-- Node29&#45;&gt;Node10 -->
<g id="edge59" class="edge"><title>Node29&#45;&gt;Node10</title>
<path fill="none" stroke="midnightblue" d="M1206.13,-389.321C1181.23,-381.253 1148.54,-369.556 1121,-356 959.654,-276.578 804.273,-114.879 767.949,-75.6951"/>
<polygon fill="midnightblue" stroke="midnightblue" points="1205.36,-392.747 1215.95,-392.445 1207.48,-386.077 1205.36,-392.747"/>
</g>
<!-- Node29&#45;&gt;Node11 -->
<g id="edge60" class="edge"><title>Node29&#45;&gt;Node11</title>
<path fill="none" stroke="midnightblue" d="M1271.75,-387.705C1286.92,-379.56 1305.84,-368.347 1321,-356 1390.59,-299.34 1415.62,-276.04 1433,-188 1442.7,-138.826 1388.31,-94.0217 1362.28,-75.7209"/>
<polygon fill="midnightblue" stroke="midnightblue" points="1270.09,-384.622 1262.86,-392.362 1273.34,-390.823 1270.09,-384.622"/>
</g>
<!-- Node29&#45;&gt;Node12 -->
<g id="edge62" class="edge"><title>Node29&#45;&gt;Node12</title>
<path fill="none" stroke="midnightblue" d="M1278.65,-388.759C1347.74,-362.126 1507.15,-292.773 1603,-188 1627.51,-161.206 1651.33,-143.347 1633,-112 1622.3,-93.7051 1601.13,-82.2737 1583.25,-75.5122"/>
<polygon fill="midnightblue" stroke="midnightblue" points="1277.23,-385.553 1269.13,-392.378 1279.72,-392.097 1277.23,-385.553"/>
</g>
<!-- Node29&#45;&gt;Node21 -->
<g id="edge57" class="edge"><title>Node29&#45;&gt;Node21</title>
<path fill="none" stroke="midnightblue" d="M1218.29,-387.838C1169.47,-363.162 1063.64,-306.739 985,-244 930.945,-200.874 902.881,-196.125 877,-132 869.394,-113.155 873.473,-88.6757 876.565,-75.8021"/>
<polygon fill="midnightblue" stroke="midnightblue" points="1216.76,-390.987 1227.26,-392.343 1219.9,-384.73 1216.76,-390.987"/>
</g>
<!-- Node29&#45;&gt;Node23 -->
<g id="edge58" class="edge"><title>Node29&#45;&gt;Node23</title>
<path fill="none" stroke="midnightblue" d="M1263.71,-385.938C1301.49,-354.161 1385.94,-275.911 1417,-188 1429.3,-153.188 1383.93,-136.855 1344.24,-129.298"/>
<polygon fill="midnightblue" stroke="midnightblue" points="1261.45,-383.262 1255.98,-392.335 1265.91,-388.655 1261.45,-383.262"/>
</g>
<!-- Node29&#45;&gt;Node30 -->
<g id="edge53" class="edge"><title>Node29&#45;&gt;Node30</title>
<path fill="none" stroke="midnightblue" d="M1293.44,-396.719C1408,-386.594 1694.53,-361.27 1808.33,-351.213"/>
<polygon fill="midnightblue" stroke="midnightblue" points="1292.87,-393.255 1283.22,-397.622 1293.49,-400.228 1292.87,-393.255"/>
</g>
<!-- Node29&#45;&gt;Node32 -->
<g id="edge63" class="edge"><title>Node29&#45;&gt;Node32</title>
<path fill="none" stroke="midnightblue" d="M1196.68,-398.652C1130.34,-394.512 1007.82,-383.564 907,-356 743.515,-311.302 559.777,-216.431 505.733,-187.532"/>
<polygon fill="midnightblue" stroke="midnightblue" points="1196.64,-402.156 1206.83,-399.26 1197.06,-395.169 1196.64,-402.156"/>
</g>
<!-- Node30&#45;&gt;Node7 -->
<g id="edge54" class="edge"><title>Node30&#45;&gt;Node7</title>
<path fill="none" stroke="midnightblue" d="M1877.03,-330.352C1887.22,-322.362 1898.97,-311.719 1907,-300 1924.41,-274.597 1931,-265.795 1931,-235 1931,-235 1931,-235 1931,-177 1931,-137.399 1908.73,-93.957 1898.28,-75.769"/>
<polygon fill="midnightblue" stroke="midnightblue" points="1874.85,-327.61 1868.94,-336.405 1879.04,-333.214 1874.85,-327.61"/>
</g>
<!-- Node31 -->
<g id="node31" class="node"><title>Node31</title>
<g id="a_node31"><a xlink:href="../../de/d0b/_string_iterator_8h.html" target="_top" xlink:title="wlib/strings/StringIterator.h">
<polygon fill="white" stroke="black" points="1731,-280.5 1731,-299.5 1865,-299.5 1865,-280.5 1731,-280.5"/>
<text text-anchor="middle" x="1798" y="-287.5" font-family="Helvetica,sans-Serif" font-size="10.00">wlib/strings/StringIterator.h</text>
</a>
</g>
</g>
<!-- Node30&#45;&gt;Node31 -->
<g id="edge55" class="edge"><title>Node30&#45;&gt;Node31</title>
<path fill="none" stroke="midnightblue" d="M1839.09,-329.253C1828.8,-319.673 1816.03,-307.791 1807.49,-299.834"/>
<polygon fill="midnightblue" stroke="midnightblue" points="1836.98,-332.071 1846.68,-336.324 1841.75,-326.948 1836.98,-332.071"/>
</g>
<!-- Node31&#45;&gt;Node17 -->
<g id="edge56" class="edge"><title>Node31&#45;&gt;Node17</title>
<path fill="none" stroke="midnightblue" d="M1720.94,-281.393C1607.7,-270.214 1399.35,-249.645 1302.72,-240.106"/>
<polygon fill="midnightblue" stroke="midnightblue" points="1720.63,-284.879 1730.93,-282.379 1721.32,-277.913 1720.63,-284.879"/>
</g>
<!-- Node32&#45;&gt;Node10 -->
<g id="edge65" class="edge"><title>Node32&#45;&gt;Node10</title>
<path fill="none" stroke="midnightblue" d="M500.715,-159.41C510.783,-144.436 527.236,-123.568 547,-112 597.233,-82.5985 664.109,-72.2862 709.427,-68.7361"/>
<polygon fill="midnightblue" stroke="midnightblue" points="497.504,-157.934 495.05,-168.241 503.396,-161.714 497.504,-157.934"/>
</g>
<!-- Node32&#45;&gt;Node13 -->
<g id="edge73" class="edge"><title>Node32&#45;&gt;Node13</title>
<path fill="none" stroke="midnightblue" d="M497.102,-158.798C502.617,-145.448 510.848,-127.095 520,-112 542.167,-75.4357 575.244,-36.5977 590.181,-19.6965"/>
<polygon fill="midnightblue" stroke="midnightblue" points="493.776,-157.689 493.296,-168.273 500.271,-160.299 493.776,-157.689"/>
</g>
<!-- Node32&#45;&gt;Node21 -->
<g id="edge64" class="edge"><title>Node32&#45;&gt;Node21</title>
<path fill="none" stroke="midnightblue" d="M530.151,-165.646C608.33,-143.539 779.391,-95.167 848.819,-75.5345"/>
<polygon fill="midnightblue" stroke="midnightblue" points="528.871,-162.371 520.2,-168.46 530.776,-169.107 528.871,-162.371"/>
</g>
<!-- Node32&#45;&gt;Node33 -->
<g id="edge66" class="edge"><title>Node32&#45;&gt;Node33</title>
<path fill="none" stroke="midnightblue" d="M516.548,-163.726C536.546,-153.727 563.387,-140.307 580.691,-131.655"/>
<polygon fill="midnightblue" stroke="midnightblue" points="514.731,-160.721 507.352,-168.324 517.862,-166.982 514.731,-160.721"/>
</g>
<!-- Node33&#45;&gt;Node10 -->
<g id="edge69" class="edge"><title>Node33&#45;&gt;Node10</title>
<path fill="none" stroke="midnightblue" d="M633.484,-109.172C663.988,-99.0039 707.245,-84.5852 734.451,-75.5164"/>
<polygon fill="midnightblue" stroke="midnightblue" points="632.049,-105.961 623.669,-112.444 634.263,-112.602 632.049,-105.961"/>
</g>
<!-- Node33&#45;&gt;Node11 -->
<g id="edge70" class="edge"><title>Node33&#45;&gt;Node11</title>
<path fill="none" stroke="midnightblue" d="M650.181,-118.039C762.032,-111.562 1033.15,-95.1746 1260,-76 1273,-74.9012 1287.05,-73.5545 1300.06,-72.2409"/>
<polygon fill="midnightblue" stroke="midnightblue" points="649.643,-114.564 639.861,-118.634 650.046,-121.552 649.643,-114.564"/>
</g>
<!-- Node33&#45;&gt;Node13 -->
<g id="edge71" class="edge"><title>Node33&#45;&gt;Node13</title>
<path fill="none" stroke="midnightblue" d="M598,-102.348C598,-78.2538 598,-37.3079 598,-19.5914"/>
<polygon fill="midnightblue" stroke="midnightblue" points="594.5,-102.368 598,-112.368 601.5,-102.369 594.5,-102.368"/>
</g>
<!-- Node33&#45;&gt;Node14 -->
<g id="edge72" class="edge"><title>Node33&#45;&gt;Node14</title>
<path fill="none" stroke="midnightblue" d="M615.797,-105.969C635.155,-90.5501 667.676,-67.2737 700,-56 770.221,-31.5092 988.701,-18.0434 1085.28,-13.1527"/>
<polygon fill="midnightblue" stroke="midnightblue" points="613.414,-103.397 607.877,-112.43 617.838,-108.821 613.414,-103.397"/>
</g>
<!-- Node33&#45;&gt;Node21 -->
<g id="edge67" class="edge"><title>Node33&#45;&gt;Node21</title>
<path fill="none" stroke="midnightblue" d="M649.652,-111.074C702.72,-100.876 784.466,-85.1667 834.684,-75.5162"/>
<polygon fill="midnightblue" stroke="midnightblue" points="648.925,-107.65 639.765,-112.974 650.246,-114.524 648.925,-107.65"/>
</g>
<!-- Node33&#45;&gt;Node22 -->
<g id="edge68" class="edge"><title>Node33&#45;&gt;Node22</title>
<path fill="none" stroke="midnightblue" d="M649.571,-116.397C764.859,-106.107 1042.13,-81.3586 1154.49,-71.3299"/>
<polygon fill="midnightblue" stroke="midnightblue" points="649.233,-112.913 639.584,-117.288 649.856,-119.885 649.233,-112.913"/>
</g>
<!-- Node34&#45;&gt;Node7 -->
<g id="edge81" class="edge"><title>Node34&#45;&gt;Node7</title>
<path fill="none" stroke="midnightblue" d="M1916.93,-385.566C1937.67,-365.896 1969,-329.768 1969,-291 1969,-291 1969,-291 1969,-177 1969,-132.201 1925.8,-92.4292 1904.54,-75.5672"/>
<polygon fill="midnightblue" stroke="midnightblue" points="1914.36,-383.173 1909.33,-392.496 1919.08,-388.345 1914.36,-383.173"/>
</g>
<!-- Node34&#45;&gt;Node30 -->
<g id="edge82" class="edge"><title>Node34&#45;&gt;Node30</title>
<path fill="none" stroke="midnightblue" d="M1885.58,-384.144C1878.09,-374.736 1869.06,-363.405 1862.97,-355.751"/>
<polygon fill="midnightblue" stroke="midnightblue" points="1882.93,-386.44 1891.9,-392.083 1888.41,-382.08 1882.93,-386.44"/>
</g>
</g>
</svg>
