<?xml version="1.0" encoding="UTF-8" standalone="no"?>
<!DOCTYPE svg PUBLIC "-//W3C//DTD SVG 1.1//EN"
 "http://www.w3.org/Graphics/SVG/1.1/DTD/svg11.dtd">
<!-- Generated by graphviz version 2.36.0 (20140111.2315)
 -->
<!-- Title: utility/Tmp.h Pages: 1 -->
<svg width="1520pt" height="532pt"
 viewBox="0.00 0.00 1519.81 532.00" xmlns="http://www.w3.org/2000/svg" xmlns:xlink="http://www.w3.org/1999/xlink">
<g id="graph0" class="graph" transform="scale(1 1) rotate(0) translate(4 528)">
<title>utility/Tmp.h</title>
<polygon fill="white" stroke="none" points="-4,4 -4,-528 1515.81,-528 1515.81,4 -4,4"/>
<!-- Node1 -->
<g id="node1" class="node"><title>Node1</title>
<polygon fill="#bfbfbf" stroke="black" points="571.312,-504.5 571.312,-523.5 642.312,-523.5 642.312,-504.5 571.312,-504.5"/>
<text text-anchor="middle" x="606.812" y="-511.5" font-family="Helvetica,sans-Serif" font-size="10.00">utility/Tmp.h</text>
</g>
<!-- Node2 -->
<g id="node2" class="node"><title>Node2</title>
<g id="a_node2"><a xlink:href="../../db/d2a/_utility_8h.html" target="_top" xlink:title="Various helper functions. ">
<polygon fill="white" stroke="black" points="413.312,-448.5 413.312,-467.5 490.312,-467.5 490.312,-448.5 413.312,-448.5"/>
<text text-anchor="middle" x="451.812" y="-455.5" font-family="Helvetica,sans-Serif" font-size="10.00">utility/Utility.h</text>
</a>
</g>
</g>
<!-- Node1&#45;&gt;Node2 -->
<g id="edge1" class="edge"><title>Node1&#45;&gt;Node2</title>
<path fill="none" stroke="midnightblue" d="M572.48,-501.039C543.315,-490.879 502.175,-476.546 476.257,-467.516"/>
<polygon fill="midnightblue" stroke="midnightblue" points="571.657,-504.459 582.252,-504.444 573.96,-497.848 571.657,-504.459"/>
</g>
<!-- Node4 -->
<g id="node4" class="node"><title>Node4</title>
<g id="a_node4"><a xlink:href="../../d8/dd7/_concept_8h.html" target="_top" xlink:title="Concept definitions. ">
<polygon fill="white" stroke="black" points="1408.31,-336.5 1408.31,-355.5 1483.31,-355.5 1483.31,-336.5 1408.31,-336.5"/>
<text text-anchor="middle" x="1445.81" y="-343.5" font-family="Helvetica,sans-Serif" font-size="10.00">stl/Concept.h</text>
</a>
</g>
</g>
<!-- Node1&#45;&gt;Node4 -->
<g id="edge74" class="edge"><title>Node1&#45;&gt;Node4</title>
<path fill="none" stroke="midnightblue" d="M652.555,-510.557C731.079,-505.835 896.347,-493.582 1033.81,-468 1127.93,-450.484 1149.96,-438.984 1241.81,-412 1306.36,-393.037 1381.61,-368.396 1420.16,-355.585"/>
<polygon fill="midnightblue" stroke="midnightblue" points="652.291,-507.066 642.514,-511.148 652.702,-514.054 652.291,-507.066"/>
</g>
<!-- Node24 -->
<g id="node24" class="node"><title>Node24</title>
<g id="a_node24"><a xlink:href="../../d7/d2a/_tuple_8h.html" target="_top" xlink:title="Template oriented tuple implementation. ">
<polygon fill="white" stroke="black" points="67.8119,-168.5 67.8119,-187.5 129.812,-187.5 129.812,-168.5 67.8119,-168.5"/>
<text text-anchor="middle" x="98.8119" y="-175.5" font-family="Helvetica,sans-Serif" font-size="10.00">stl/Tuple.h</text>
</a>
</g>
</g>
<!-- Node1&#45;&gt;Node24 -->
<g id="edge77" class="edge"><title>Node1&#45;&gt;Node24</title>
<path fill="none" stroke="midnightblue" d="M560.547,-512.856C431.209,-511.977 73.0116,-506.093 37.8119,-468 -39.9685,-383.825 64.5578,-226.349 92.3513,-187.721"/>
<polygon fill="midnightblue" stroke="midnightblue" points="560.879,-516.358 570.9,-512.919 560.922,-509.359 560.879,-516.358"/>
</g>
<!-- Node25 -->
<g id="node25" class="node"><title>Node25</title>
<g id="a_node25"><a xlink:href="../../d9/d37/_table_8h.html" target="_top" xlink:title="stl/Table.h">
<polygon fill="white" stroke="black" points="223.812,-112.5 223.812,-131.5 285.812,-131.5 285.812,-112.5 223.812,-112.5"/>
<text text-anchor="middle" x="254.812" y="-119.5" font-family="Helvetica,sans-Serif" font-size="10.00">stl/Table.h</text>
</a>
</g>
</g>
<!-- Node1&#45;&gt;Node25 -->
<g id="edge78" class="edge"><title>Node1&#45;&gt;Node25</title>
<path fill="none" stroke="midnightblue" d="M560.838,-510.83C448.639,-504.474 165.812,-481.721 108.812,-412 29.6475,-315.168 198.382,-168.345 243.899,-131.577"/>
<polygon fill="midnightblue" stroke="midnightblue" points="560.973,-514.342 571.15,-511.395 561.356,-507.353 560.973,-514.342"/>
</g>
<!-- Node26 -->
<g id="node26" class="node"><title>Node26</title>
<g id="a_node26"><a xlink:href="../../d3/de6/_memory_8h.html" target="_top" xlink:title="Memory is a class that provides dynamic fixed size memory. ">
<polygon fill="white" stroke="black" points="756.812,-392.5 756.812,-411.5 854.812,-411.5 854.812,-392.5 756.812,-392.5"/>
<text text-anchor="middle" x="805.812" y="-399.5" font-family="Helvetica,sans-Serif" font-size="10.00">memory/Memory.h</text>
</a>
</g>
</g>
<!-- Node1&#45;&gt;Node26 -->
<g id="edge75" class="edge"><title>Node1&#45;&gt;Node26</title>
<path fill="none" stroke="midnightblue" d="M631.332,-499.446C672.849,-476.497 755.826,-430.631 790.269,-411.591"/>
<polygon fill="midnightblue" stroke="midnightblue" points="629.486,-496.468 622.427,-504.368 632.872,-502.594 629.486,-496.468"/>
</g>
<!-- Node28 -->
<g id="node28" class="node"><title>Node28</title>
<g id="a_node28"><a xlink:href="../../df/dcf/_state_machine_8h.html" target="_top" xlink:title="fsm/StateMachine.h">
<polygon fill="white" stroke="black" points="1285.81,-336.5 1285.81,-355.5 1389.81,-355.5 1389.81,-336.5 1285.81,-336.5"/>
<text text-anchor="middle" x="1337.81" y="-343.5" font-family="Helvetica,sans-Serif" font-size="10.00">fsm/StateMachine.h</text>
</a>
</g>
</g>
<!-- Node1&#45;&gt;Node28 -->
<g id="edge76" class="edge"><title>Node1&#45;&gt;Node28</title>
<path fill="none" stroke="midnightblue" d="M652.762,-509.628C754.157,-501.24 1003.85,-475.358 1202.81,-412 1248.91,-397.319 1299.29,-369.658 1323.39,-355.629"/>
<polygon fill="midnightblue" stroke="midnightblue" points="652.248,-506.158 642.563,-510.454 652.813,-513.135 652.248,-506.158"/>
</g>
<!-- Node33 -->
<g id="node33" class="node"><title>Node33</title>
<g id="a_node33"><a xlink:href="../../d1/d13/_shared_ptr_8h.html" target="_top" xlink:title="Shared pointer implementation. ">
<polygon fill="white" stroke="black" points="486.812,-280.5 486.812,-299.5 568.812,-299.5 568.812,-280.5 486.812,-280.5"/>
<text text-anchor="middle" x="527.812" y="-287.5" font-family="Helvetica,sans-Serif" font-size="10.00">stl/SharedPtr.h</text>
</a>
</g>
</g>
<!-- Node1&#45;&gt;Node33 -->
<g id="edge79" class="edge"><title>Node1&#45;&gt;Node33</title>
<path fill="none" stroke="midnightblue" d="M599.378,-494.974C587.535,-465.959 563.975,-406.984 546.812,-356 540.135,-336.166 533.558,-312.489 530.169,-299.902"/>
<polygon fill="midnightblue" stroke="midnightblue" points="596.144,-496.314 603.177,-504.238 602.621,-493.658 596.144,-496.314"/>
</g>
<!-- Node35 -->
<g id="node35" class="node"><title>Node35</title>
<g id="a_node35"><a xlink:href="../../d4/dd5/_type_traits_8h.html" target="_top" xlink:title="Metafunctions for types. ">
<polygon fill="white" stroke="black" points="1403.31,-392.5 1403.31,-411.5 1488.31,-411.5 1488.31,-392.5 1403.31,-392.5"/>
<text text-anchor="middle" x="1445.81" y="-399.5" font-family="Helvetica,sans-Serif" font-size="10.00">stl/TypeTraits.h</text>
</a>
</g>
</g>
<!-- Node1&#45;&gt;Node35 -->
<g id="edge71" class="edge"><title>Node1&#45;&gt;Node35</title>
<path fill="none" stroke="midnightblue" d="M652.845,-511.95C807.356,-508.197 1301.5,-494.248 1367.81,-468 1398.63,-455.803 1426.25,-426.466 1438.75,-411.74"/>
<polygon fill="midnightblue" stroke="midnightblue" points="652.655,-508.454 642.742,-512.193 652.823,-515.452 652.655,-508.454"/>
</g>
<!-- Node3 -->
<g id="node3" class="node"><title>Node3</title>
<g id="a_node3"><a xlink:href="../../d4/dda/_pair_8h.html" target="_top" xlink:title="Implementation of a 2&#45;element tuple. ">
<polygon fill="white" stroke="black" points="289.812,-392.5 289.812,-411.5 345.812,-411.5 345.812,-392.5 289.812,-392.5"/>
<text text-anchor="middle" x="317.812" y="-399.5" font-family="Helvetica,sans-Serif" font-size="10.00">stl/Pair.h</text>
</a>
</g>
</g>
<!-- Node2&#45;&gt;Node3 -->
<g id="edge2" class="edge"><title>Node2&#45;&gt;Node3</title>
<path fill="none" stroke="midnightblue" d="M421.135,-444.638C395.989,-434.504 361.058,-420.427 338.945,-411.516"/>
<polygon fill="midnightblue" stroke="midnightblue" points="419.996,-447.952 430.579,-448.444 422.612,-441.459 419.996,-447.952"/>
</g>
<!-- Node11 -->
<g id="node11" class="node"><title>Node11</title>
<g id="a_node11"><a xlink:href="../../df/d03/_array_heap_8h.html" target="_top" xlink:title="Heap manipulation and implementation. ">
<polygon fill="white" stroke="black" points="1186.31,-56.5 1186.31,-75.5 1271.31,-75.5 1271.31,-56.5 1186.31,-56.5"/>
<text text-anchor="middle" x="1228.81" y="-63.5" font-family="Helvetica,sans-Serif" font-size="10.00">stl/ArrayHeap.h</text>
</a>
</g>
</g>
<!-- Node2&#45;&gt;Node11 -->
<g id="edge63" class="edge"><title>Node2&#45;&gt;Node11</title>
<path fill="none" stroke="midnightblue" d="M500.611,-455.157C637.595,-449.146 1022.29,-426.261 1123.81,-356 1172.54,-322.276 1179.81,-294.258 1179.81,-235 1179.81,-235 1179.81,-235 1179.81,-177 1179.81,-136.024 1208.53,-93.3124 1222,-75.5423"/>
<polygon fill="midnightblue" stroke="midnightblue" points="500.26,-451.669 490.419,-455.593 500.559,-458.663 500.26,-451.669"/>
</g>
<!-- Node12 -->
<g id="node12" class="node"><title>Node12</title>
<g id="a_node12"><a xlink:href="../../d5/d08/_red_black_tree_8h.html" target="_top" xlink:title="Red black tree implementation. ">
<polygon fill="white" stroke="black" points="12.3119,-56.5 12.3119,-75.5 113.312,-75.5 113.312,-56.5 12.3119,-56.5"/>
<text text-anchor="middle" x="62.8119" y="-63.5" font-family="Helvetica,sans-Serif" font-size="10.00">stl/RedBlackTree.h</text>
</a>
</g>
</g>
<!-- Node2&#45;&gt;Node12 -->
<g id="edge69" class="edge"><title>Node2&#45;&gt;Node12</title>
<path fill="none" stroke="midnightblue" d="M402.86,-455.742C315.854,-452.734 138.475,-442.897 85.8119,-412 -32.4955,-342.59 42.0703,-122.228 59.4555,-75.6851"/>
<polygon fill="midnightblue" stroke="midnightblue" points="402.898,-459.245 413.008,-456.076 403.128,-452.249 402.898,-459.245"/>
</g>
<!-- Node16 -->
<g id="node16" class="node"><title>Node16</title>
<g id="a_node16"><a xlink:href="../../dd/d0b/_hash_map_8h.html" target="_top" xlink:title="stl/HashMap.h">
<polygon fill="white" stroke="black" points="131.812,-56.5 131.812,-75.5 211.812,-75.5 211.812,-56.5 131.812,-56.5"/>
<text text-anchor="middle" x="171.812" y="-63.5" font-family="Helvetica,sans-Serif" font-size="10.00">stl/HashMap.h</text>
</a>
</g>
</g>
<!-- Node2&#45;&gt;Node16 -->
<g id="edge65" class="edge"><title>Node2&#45;&gt;Node16</title>
<path fill="none" stroke="midnightblue" d="M403.025,-457.243C318.737,-456.616 150.824,-450.424 108.812,-412 27.1259,-337.291 13.6022,-269.045 58.8119,-168 78.7996,-123.327 129.395,-90.2522 155.569,-75.5046"/>
<polygon fill="midnightblue" stroke="midnightblue" points="403.103,-460.744 413.12,-457.295 403.138,-453.744 403.103,-460.744"/>
</g>
<!-- Node17 -->
<g id="node17" class="node"><title>Node17</title>
<g id="a_node17"><a xlink:href="../../de/def/_hash_table_8h.html" target="_top" xlink:title="stl/HashTable.h">
<polygon fill="white" stroke="black" points="379.812,-112.5 379.812,-131.5 465.812,-131.5 465.812,-112.5 379.812,-112.5"/>
<text text-anchor="middle" x="422.812" y="-119.5" font-family="Helvetica,sans-Serif" font-size="10.00">stl/HashTable.h</text>
</a>
</g>
</g>
<!-- Node2&#45;&gt;Node17 -->
<g id="edge64" class="edge"><title>Node2&#45;&gt;Node17</title>
<path fill="none" stroke="midnightblue" d="M445.484,-438.924C442.815,-430.776 439.859,-420.986 437.812,-412 415.464,-313.883 412.165,-288.361 404.812,-188 404.162,-179.135 403.131,-176.729 404.812,-168 407.358,-154.78 413.753,-140.507 418.191,-131.661"/>
<polygon fill="midnightblue" stroke="midnightblue" points="442.199,-440.136 448.726,-448.481 448.828,-437.887 442.199,-440.136"/>
</g>
<!-- Node20 -->
<g id="node20" class="node"><title>Node20</title>
<g id="a_node20"><a xlink:href="../../d8/d2e/_open_table_8h.html" target="_top" xlink:title="stl/OpenTable.h">
<polygon fill="white" stroke="black" points="597.812,-112.5 597.812,-131.5 683.812,-131.5 683.812,-112.5 597.812,-112.5"/>
<text text-anchor="middle" x="640.812" y="-119.5" font-family="Helvetica,sans-Serif" font-size="10.00">stl/OpenTable.h</text>
</a>
</g>
</g>
<!-- Node2&#45;&gt;Node20 -->
<g id="edge67" class="edge"><title>Node2&#45;&gt;Node20</title>
<path fill="none" stroke="midnightblue" d="M450.717,-438.045C449.579,-404.286 450.875,-332.38 477.812,-280 514.109,-209.419 594.612,-152.473 626.959,-131.589"/>
<polygon fill="midnightblue" stroke="midnightblue" points="447.233,-438.47 451.183,-448.3 454.226,-438.152 447.233,-438.47"/>
</g>
<!-- Node21 -->
<g id="node21" class="node"><title>Node21</title>
<g id="a_node21"><a xlink:href="../../d0/de6/_open_set_8h.html" target="_top" xlink:title="Hash set implementation. ">
<polygon fill="white" stroke="black" points="334.312,-56.5 334.312,-75.5 411.312,-75.5 411.312,-56.5 334.312,-56.5"/>
<text text-anchor="middle" x="372.812" y="-63.5" font-family="Helvetica,sans-Serif" font-size="10.00">stl/OpenSet.h</text>
</a>
</g>
</g>
<!-- Node2&#45;&gt;Node21 -->
<g id="edge68" class="edge"><title>Node2&#45;&gt;Node21</title>
<path fill="none" stroke="midnightblue" d="M403.163,-450.836C358.05,-444.003 295.71,-431.326 280.812,-412 195.279,-301.046 332.466,-117.117 365.794,-75.532"/>
<polygon fill="midnightblue" stroke="midnightblue" points="402.674,-454.302 413.075,-452.286 403.687,-447.375 402.674,-454.302"/>
</g>
<!-- Node2&#45;&gt;Node26 -->
<g id="edge49" class="edge"><title>Node2&#45;&gt;Node26</title>
<path fill="none" stroke="midnightblue" d="M500.301,-449.603C567.642,-439.331 688.822,-420.846 756.565,-410.512"/>
<polygon fill="midnightblue" stroke="midnightblue" points="499.728,-446.15 490.37,-451.118 500.783,-453.07 499.728,-446.15"/>
</g>
<!-- Node30 -->
<g id="node30" class="node"><title>Node30</title>
<g id="a_node30"><a xlink:href="../../d2/db9/_array_list_8h.html" target="_top" xlink:title="List implementation using an array. ">
<polygon fill="white" stroke="black" points="1190.31,-336.5 1190.31,-355.5 1267.31,-355.5 1267.31,-336.5 1190.31,-336.5"/>
<text text-anchor="middle" x="1228.81" y="-343.5" font-family="Helvetica,sans-Serif" font-size="10.00">stl/ArrayList.h</text>
</a>
</g>
</g>
<!-- Node2&#45;&gt;Node30 -->
<g id="edge62" class="edge"><title>Node2&#45;&gt;Node30</title>
<path fill="none" stroke="midnightblue" d="M500.431,-456.224C653.055,-453.479 1116.06,-442.685 1175.81,-412 1200.16,-399.495 1217.33,-370.302 1224.73,-355.675"/>
<polygon fill="midnightblue" stroke="midnightblue" points="500.348,-452.725 490.411,-456.401 500.471,-459.724 500.348,-452.725"/>
</g>
<!-- Node31 -->
<g id="node31" class="node"><title>Node31</title>
<g id="a_node31"><a xlink:href="../../de/dc6/_linked_list_8h.html" target="_top" xlink:title="stl/LinkedList.h">
<polygon fill="white" stroke="black" points="556.312,-336.5 556.312,-355.5 639.312,-355.5 639.312,-336.5 556.312,-336.5"/>
<text text-anchor="middle" x="597.812" y="-343.5" font-family="Helvetica,sans-Serif" font-size="10.00">stl/LinkedList.h</text>
</a>
</g>
</g>
<!-- Node2&#45;&gt;Node31 -->
<g id="edge66" class="edge"><title>Node2&#45;&gt;Node31</title>
<path fill="none" stroke="midnightblue" d="M471.565,-442.118C502.555,-418.769 561.617,-374.27 586.409,-355.591"/>
<polygon fill="midnightblue" stroke="midnightblue" points="469.149,-439.556 463.268,-448.368 473.361,-445.146 469.149,-439.556"/>
</g>
<!-- Node2&#45;&gt;Node33 -->
<g id="edge70" class="edge"><title>Node2&#45;&gt;Node33</title>
<path fill="none" stroke="midnightblue" d="M460.119,-438.856C476.419,-403.252 512.038,-325.453 523.889,-299.568"/>
<polygon fill="midnightblue" stroke="midnightblue" points="456.878,-437.526 455.898,-448.075 463.243,-440.44 456.878,-437.526"/>
</g>
<!-- Node34 -->
<g id="node34" class="node"><title>Node34</title>
<g id="a_node34"><a xlink:href="../../d0/d55/_allocator_8cpp.html" target="_top" xlink:title="Implementation of Allocator. ">
<polygon fill="white" stroke="black" points="117.812,-392.5 117.812,-411.5 229.812,-411.5 229.812,-392.5 117.812,-392.5"/>
<text text-anchor="middle" x="173.812" y="-399.5" font-family="Helvetica,sans-Serif" font-size="10.00">memory/Allocator.cpp</text>
</a>
</g>
</g>
<!-- Node2&#45;&gt;Node34 -->
<g id="edge61" class="edge"><title>Node2&#45;&gt;Node34</title>
<path fill="none" stroke="midnightblue" d="M403.095,-447.537C350.678,-437.355 268.07,-421.309 217.632,-411.512"/>
<polygon fill="midnightblue" stroke="midnightblue" points="402.673,-451.02 413.157,-449.492 404.008,-444.149 402.673,-451.02"/>
</g>
<!-- Node3&#45;&gt;Node4 -->
<g id="edge3" class="edge"><title>Node3&#45;&gt;Node4</title>
<path fill="none" stroke="midnightblue" d="M356.218,-400.163C523.636,-396.395 1190.57,-380.139 1398.81,-356 1401.87,-355.646 1405.02,-355.206 1408.18,-354.713"/>
<polygon fill="midnightblue" stroke="midnightblue" points="356.064,-396.665 346.145,-400.388 356.221,-403.663 356.064,-396.665"/>
</g>
<!-- Node3&#45;&gt;Node12 -->
<g id="edge48" class="edge"><title>Node3&#45;&gt;Node12</title>
<path fill="none" stroke="midnightblue" d="M279.866,-392.784C254.168,-385.923 220.371,-374.266 194.812,-356 116.654,-300.143 90.8722,-278.558 58.8119,-188 44.6425,-147.977 55.3247,-95.7783 60.4617,-75.5378"/>
<polygon fill="midnightblue" stroke="midnightblue" points="279.079,-396.196 289.633,-395.268 280.804,-389.412 279.079,-396.196"/>
</g>
<!-- Node3&#45;&gt;Node16 -->
<g id="edge36" class="edge"><title>Node3&#45;&gt;Node16</title>
<path fill="none" stroke="midnightblue" d="M308.469,-383.316C286.262,-340.837 229.374,-229.341 191.812,-132 184.161,-112.173 177.381,-88.0925 174.03,-75.5424"/>
<polygon fill="midnightblue" stroke="midnightblue" points="305.476,-385.144 313.225,-392.37 311.673,-381.889 305.476,-385.144"/>
</g>
<!-- Node3&#45;&gt;Node17 -->
<g id="edge35" class="edge"><title>Node3&#45;&gt;Node17</title>
<path fill="none" stroke="midnightblue" d="M318.348,-382.212C320.309,-340.667 329.429,-239.063 371.812,-168 381.006,-152.585 397.261,-139.611 408.952,-131.614"/>
<polygon fill="midnightblue" stroke="midnightblue" points="314.849,-382.135 317.963,-392.262 321.843,-382.403 314.849,-382.135"/>
</g>
<!-- Node3&#45;&gt;Node20 -->
<g id="edge46" class="edge"><title>Node3&#45;&gt;Node20</title>
<path fill="none" stroke="midnightblue" d="M329.167,-383.673C357.729,-341.311 436.815,-231.346 527.812,-168 552.421,-150.868 584.497,-138.897 608.185,-131.632"/>
<polygon fill="midnightblue" stroke="midnightblue" points="326.201,-381.812 323.57,-392.075 332.027,-385.693 326.201,-381.812"/>
</g>
<!-- Node3&#45;&gt;Node21 -->
<g id="edge47" class="edge"><title>Node3&#45;&gt;Node21</title>
<path fill="none" stroke="midnightblue" d="M316.75,-382.116C316.209,-369.134 315.846,-351.508 316.812,-336 323.303,-231.733 359.671,-108.999 370.047,-75.6992"/>
<polygon fill="midnightblue" stroke="midnightblue" points="313.256,-382.342 317.242,-392.158 320.248,-381.999 313.256,-382.342"/>
</g>
<!-- Node3&#45;&gt;Node24 -->
<g id="edge37" class="edge"><title>Node3&#45;&gt;Node24</title>
<path fill="none" stroke="midnightblue" d="M280.283,-389.24C260.795,-381.851 237.439,-370.872 219.812,-356 158.928,-304.634 115.281,-215.459 102.598,-187.582"/>
<polygon fill="midnightblue" stroke="midnightblue" points="279.189,-392.566 289.784,-392.679 281.572,-385.984 279.189,-392.566"/>
</g>
<!-- Node5 -->
<g id="node5" class="node"><title>Node5</title>
<g id="a_node5"><a xlink:href="../../de/d0b/_string_iterator_8h.html" target="_top" xlink:title="strings/StringIterator.h">
<polygon fill="white" stroke="black" points="1038.31,-280.5 1038.31,-299.5 1151.31,-299.5 1151.31,-280.5 1038.31,-280.5"/>
<text text-anchor="middle" x="1094.81" y="-287.5" font-family="Helvetica,sans-Serif" font-size="10.00">strings/StringIterator.h</text>
</a>
</g>
</g>
<!-- Node4&#45;&gt;Node5 -->
<g id="edge4" class="edge"><title>Node4&#45;&gt;Node5</title>
<path fill="none" stroke="midnightblue" d="M1398.06,-335.934C1305.82,-320.408 1210.51,-306.802 1151.51,-298.664"/>
<polygon fill="midnightblue" stroke="midnightblue" points="1397.68,-339.42 1408.13,-337.639 1398.85,-332.519 1397.68,-339.42"/>
</g>
<!-- Node4&#45;&gt;Node11 -->
<g id="edge34" class="edge"><title>Node4&#45;&gt;Node11</title>
<path fill="none" stroke="midnightblue" d="M1423.17,-330.761C1396.8,-312.221 1356.81,-277.154 1356.81,-235 1356.81,-235 1356.81,-235 1356.81,-177 1356.81,-123.233 1291.05,-90.0284 1253.8,-75.5333"/>
<polygon fill="midnightblue" stroke="midnightblue" points="1421.27,-333.7 1431.51,-336.401 1425.19,-327.901 1421.27,-333.7"/>
</g>
<!-- Node6 -->
<g id="node6" class="node"><title>Node6</title>
<g id="a_node6"><a xlink:href="../../db/db5/_string_8h.html" target="_top" xlink:title="strings/String.h">
<polygon fill="white" stroke="black" points="932.312,-224.5 932.312,-243.5 1015.31,-243.5 1015.31,-224.5 932.312,-224.5"/>
<text text-anchor="middle" x="973.812" y="-231.5" font-family="Helvetica,sans-Serif" font-size="10.00">strings/String.h</text>
</a>
</g>
</g>
<!-- Node5&#45;&gt;Node6 -->
<g id="edge5" class="edge"><title>Node5&#45;&gt;Node6</title>
<path fill="none" stroke="midnightblue" d="M1066.51,-276.368C1043.85,-266.255 1012.69,-252.349 992.895,-243.516"/>
<polygon fill="midnightblue" stroke="midnightblue" points="1065.08,-279.564 1075.64,-280.444 1067.93,-273.172 1065.08,-279.564"/>
</g>
<!-- Node7 -->
<g id="node7" class="node"><title>Node7</title>
<g id="a_node7"><a xlink:href="../../de/d6d/_bitset_8h.html" target="_top" xlink:title="Bitset is a class that provides bits manipulation methods. ">
<polygon fill="white" stroke="black" points="1038.81,-168.5 1038.81,-187.5 1102.81,-187.5 1102.81,-168.5 1038.81,-168.5"/>
<text text-anchor="middle" x="1070.81" y="-175.5" font-family="Helvetica,sans-Serif" font-size="10.00">stl/Bitset.h</text>
</a>
</g>
</g>
<!-- Node6&#45;&gt;Node7 -->
<g id="edge6" class="edge"><title>Node6&#45;&gt;Node7</title>
<path fill="none" stroke="midnightblue" d="M998.147,-219.453C1016.05,-209.483 1039.87,-196.228 1055.27,-187.655"/>
<polygon fill="midnightblue" stroke="midnightblue" points="996.432,-216.402 989.397,-224.324 999.836,-222.518 996.432,-216.402"/>
</g>
<!-- Node10 -->
<g id="node10" class="node"><title>Node10</title>
<g id="a_node10"><a xlink:href="../../d7/d0c/_comparator_8h.html" target="_top" xlink:title="Comparator implementation for basic types. ">
<polygon fill="white" stroke="black" points="854.312,-112.5 854.312,-131.5 943.312,-131.5 943.312,-112.5 854.312,-112.5"/>
<text text-anchor="middle" x="898.812" y="-119.5" font-family="Helvetica,sans-Serif" font-size="10.00">stl/Comparator.h</text>
</a>
</g>
</g>
<!-- Node6&#45;&gt;Node10 -->
<g id="edge9" class="edge"><title>Node6&#45;&gt;Node10</title>
<path fill="none" stroke="midnightblue" d="M949.991,-218.762C938.771,-210.958 926.069,-200.355 917.812,-188 905.923,-170.21 901.335,-144.862 899.677,-131.694"/>
<polygon fill="midnightblue" stroke="midnightblue" points="948.282,-221.827 958.559,-224.402 952.13,-215.98 948.282,-221.827"/>
</g>
<!-- Node15 -->
<g id="node15" class="node"><title>Node15</title>
<g id="a_node15"><a xlink:href="../../d2/dc2/_equal_8h.html" target="_top" xlink:title="stl/Equal.h">
<polygon fill="white" stroke="black" points="794.312,-168.5 794.312,-187.5 857.312,-187.5 857.312,-168.5 794.312,-168.5"/>
<text text-anchor="middle" x="825.812" y="-175.5" font-family="Helvetica,sans-Serif" font-size="10.00">stl/Equal.h</text>
</a>
</g>
</g>
<!-- Node6&#45;&gt;Node15 -->
<g id="edge14" class="edge"><title>Node6&#45;&gt;Node15</title>
<path fill="none" stroke="midnightblue" d="M940.665,-220.906C912.84,-210.754 873.792,-196.506 849.153,-187.516"/>
<polygon fill="midnightblue" stroke="midnightblue" points="939.767,-224.304 950.361,-224.444 942.166,-217.728 939.767,-224.304"/>
</g>
<!-- Node22 -->
<g id="node22" class="node"><title>Node22</title>
<g id="a_node22"><a xlink:href="../../d2/dad/_hash_8h.html" target="_top" xlink:title="stl/Hash.h">
<polygon fill="white" stroke="black" points="413.812,-168.5 413.812,-187.5 475.812,-187.5 475.812,-168.5 413.812,-168.5"/>
<text text-anchor="middle" x="444.812" y="-175.5" font-family="Helvetica,sans-Serif" font-size="10.00">stl/Hash.h</text>
</a>
</g>
</g>
<!-- Node6&#45;&gt;Node22 -->
<g id="edge26" class="edge"><title>Node6&#45;&gt;Node22</title>
<path fill="none" stroke="midnightblue" d="M922.227,-227.734C813.46,-216.631 563.423,-191.108 475.819,-182.165"/>
<polygon fill="midnightblue" stroke="midnightblue" points="921.998,-231.229 932.302,-228.763 922.709,-224.265 921.998,-231.229"/>
</g>
<!-- Node23 -->
<g id="node23" class="node"><title>Node23</title>
<g id="a_node23"><a xlink:href="../../d9/dae/_string_8cpp.html" target="_top" xlink:title="strings/String.cpp">
<polygon fill="white" stroke="black" points="927.312,-168.5 927.312,-187.5 1020.31,-187.5 1020.31,-168.5 927.312,-168.5"/>
<text text-anchor="middle" x="973.812" y="-175.5" font-family="Helvetica,sans-Serif" font-size="10.00">strings/String.cpp</text>
</a>
</g>
</g>
<!-- Node6&#45;&gt;Node23 -->
<g id="edge33" class="edge"><title>Node6&#45;&gt;Node23</title>
<path fill="none" stroke="midnightblue" d="M973.812,-213.805C973.812,-204.91 973.812,-194.78 973.812,-187.751"/>
<polygon fill="midnightblue" stroke="midnightblue" points="970.312,-214.083 973.812,-224.083 977.312,-214.083 970.312,-214.083"/>
</g>
<!-- Node8 -->
<g id="node8" class="node"><title>Node8</title>
<g id="a_node8"><a xlink:href="../../de/d66/_packet_constructor_8h.html" target="_top" xlink:title="comm/PacketConstructor.h">
<polygon fill="white" stroke="black" points="1002.31,-112.5 1002.31,-131.5 1139.31,-131.5 1139.31,-112.5 1002.31,-112.5"/>
<text text-anchor="middle" x="1070.81" y="-119.5" font-family="Helvetica,sans-Serif" font-size="10.00">comm/PacketConstructor.h</text>
</a>
</g>
</g>
<!-- Node7&#45;&gt;Node8 -->
<g id="edge7" class="edge"><title>Node7&#45;&gt;Node8</title>
<path fill="none" stroke="midnightblue" d="M1070.81,-157.805C1070.81,-148.91 1070.81,-138.78 1070.81,-131.751"/>
<polygon fill="midnightblue" stroke="midnightblue" points="1067.31,-158.083 1070.81,-168.083 1074.31,-158.083 1067.31,-158.083"/>
</g>
<!-- Node9 -->
<g id="node9" class="node"><title>Node9</title>
<g id="a_node9"><a xlink:href="../../d9/dde/_packet_constructor_8cpp.html" target="_top" xlink:title="Creates a packet for sending data from the slave systems to the main computer. ">
<polygon fill="white" stroke="black" points="997.312,-56.5 997.312,-75.5 1144.31,-75.5 1144.31,-56.5 997.312,-56.5"/>
<text text-anchor="middle" x="1070.81" y="-63.5" font-family="Helvetica,sans-Serif" font-size="10.00">comm/PacketConstructor.cpp</text>
</a>
</g>
</g>
<!-- Node8&#45;&gt;Node9 -->
<g id="edge8" class="edge"><title>Node8&#45;&gt;Node9</title>
<path fill="none" stroke="midnightblue" d="M1070.81,-101.805C1070.81,-92.9102 1070.81,-82.7798 1070.81,-75.7511"/>
<polygon fill="midnightblue" stroke="midnightblue" points="1067.31,-102.083 1070.81,-112.083 1074.31,-102.083 1067.31,-102.083"/>
</g>
<!-- Node10&#45;&gt;Node11 -->
<g id="edge10" class="edge"><title>Node10&#45;&gt;Node11</title>
<path fill="none" stroke="midnightblue" d="M953.413,-112.065C1018.68,-101.385 1126.53,-83.7363 1186.06,-73.9964"/>
<polygon fill="midnightblue" stroke="midnightblue" points="952.621,-108.648 943.317,-113.717 953.751,-115.556 952.621,-108.648"/>
</g>
<!-- Node10&#45;&gt;Node12 -->
<g id="edge11" class="edge"><title>Node10&#45;&gt;Node12</title>
<path fill="none" stroke="midnightblue" d="M844.019,-118.473C691.326,-111.328 263.046,-90.5531 122.812,-76 119.774,-75.6847 116.654,-75.3253 113.51,-74.9359"/>
<polygon fill="midnightblue" stroke="midnightblue" points="843.949,-121.974 854.101,-118.944 844.275,-114.981 843.949,-121.974"/>
</g>
<!-- Node13 -->
<g id="node13" class="node"><title>Node13</title>
<g id="a_node13"><a xlink:href="../../df/d87/_tree_map_8h.html" target="_top" xlink:title="Map implementation using red black tree. ">
<polygon fill="white" stroke="black" points="24.3119,-0.5 24.3119,-19.5 101.312,-19.5 101.312,-0.5 24.3119,-0.5"/>
<text text-anchor="middle" x="62.8119" y="-7.5" font-family="Helvetica,sans-Serif" font-size="10.00">stl/TreeMap.h</text>
</a>
</g>
</g>
<!-- Node12&#45;&gt;Node13 -->
<g id="edge12" class="edge"><title>Node12&#45;&gt;Node13</title>
<path fill="none" stroke="midnightblue" d="M62.8119,-45.8045C62.8119,-36.9102 62.8119,-26.7798 62.8119,-19.7511"/>
<polygon fill="midnightblue" stroke="midnightblue" points="59.312,-46.083 62.8119,-56.083 66.312,-46.083 59.312,-46.083"/>
</g>
<!-- Node14 -->
<g id="node14" class="node"><title>Node14</title>
<g id="a_node14"><a xlink:href="../../dd/dba/_tree_set_8h.html" target="_top" xlink:title="Set implementation using red black tree. ">
<polygon fill="white" stroke="black" points="180.312,-0.5 180.312,-19.5 253.312,-19.5 253.312,-0.5 180.312,-0.5"/>
<text text-anchor="middle" x="216.812" y="-7.5" font-family="Helvetica,sans-Serif" font-size="10.00">stl/TreeSet.h</text>
</a>
</g>
</g>
<!-- Node12&#45;&gt;Node14 -->
<g id="edge13" class="edge"><title>Node12&#45;&gt;Node14</title>
<path fill="none" stroke="midnightblue" d="M96.9224,-53.0392C125.899,-42.8786 166.774,-28.5457 192.524,-19.5164"/>
<polygon fill="midnightblue" stroke="midnightblue" points="95.4922,-49.8317 87.2137,-56.4435 97.8085,-56.4373 95.4922,-49.8317"/>
</g>
<!-- Node15&#45;&gt;Node10 -->
<g id="edge15" class="edge"><title>Node15&#45;&gt;Node10</title>
<path fill="none" stroke="midnightblue" d="M845.953,-162.101C859.091,-152.382 875.794,-140.027 886.87,-131.834"/>
<polygon fill="midnightblue" stroke="midnightblue" points="843.499,-159.563 837.541,-168.324 847.662,-165.191 843.499,-159.563"/>
</g>
<!-- Node15&#45;&gt;Node16 -->
<g id="edge16" class="edge"><title>Node15&#45;&gt;Node16</title>
<path fill="none" stroke="midnightblue" d="M795.504,-164.505C775.435,-155.954 748.694,-144.025 725.812,-132 710.631,-124.022 709.115,-117.322 692.812,-112 647.501,-97.2098 325.941,-76.4037 211.843,-69.4041"/>
<polygon fill="midnightblue" stroke="midnightblue" points="794.2,-167.754 804.774,-168.417 796.922,-161.304 794.2,-167.754"/>
</g>
<!-- Node15&#45;&gt;Node17 -->
<g id="edge17" class="edge"><title>Node15&#45;&gt;Node17</title>
<path fill="none" stroke="midnightblue" d="M783.916,-171.386C706.933,-161.071 543.741,-139.204 465.886,-128.772"/>
<polygon fill="midnightblue" stroke="midnightblue" points="783.813,-174.904 794.189,-172.763 784.743,-167.966 783.813,-174.904"/>
</g>
<!-- Node18 -->
<g id="node18" class="node"><title>Node18</title>
<g id="a_node18"><a xlink:href="../../d2/dfc/_hash_set_8h.html" target="_top" xlink:title="stl/HashSet.h">
<polygon fill="white" stroke="black" points="451.312,-56.5 451.312,-75.5 528.312,-75.5 528.312,-56.5 451.312,-56.5"/>
<text text-anchor="middle" x="489.812" y="-63.5" font-family="Helvetica,sans-Serif" font-size="10.00">stl/HashSet.h</text>
</a>
</g>
</g>
<!-- Node15&#45;&gt;Node18 -->
<g id="edge20" class="edge"><title>Node15&#45;&gt;Node18</title>
<path fill="none" stroke="midnightblue" d="M814.248,-159.617C803.179,-144.468 785.053,-123.218 763.812,-112 723.636,-90.7818 594.068,-76.4127 528.535,-70.3103"/>
<polygon fill="midnightblue" stroke="midnightblue" points="811.594,-161.928 820.193,-168.116 817.33,-157.916 811.594,-161.928"/>
</g>
<!-- Node19 -->
<g id="node19" class="node"><title>Node19</title>
<g id="a_node19"><a xlink:href="../../d5/d7a/_open_map_8h.html" target="_top" xlink:title="Hash map implementation. ">
<polygon fill="white" stroke="black" points="600.812,-56.5 600.812,-75.5 680.812,-75.5 680.812,-56.5 600.812,-56.5"/>
<text text-anchor="middle" x="640.812" y="-63.5" font-family="Helvetica,sans-Serif" font-size="10.00">stl/OpenMap.h</text>
</a>
</g>
</g>
<!-- Node15&#45;&gt;Node19 -->
<g id="edge21" class="edge"><title>Node15&#45;&gt;Node19</title>
<path fill="none" stroke="midnightblue" d="M823.602,-158.563C820.895,-143.966 814.921,-124.086 801.812,-112 768.845,-81.6056 717.029,-71.5078 681.123,-68.2786"/>
<polygon fill="midnightblue" stroke="midnightblue" points="820.146,-159.115 825.1,-168.48 827.067,-158.069 820.146,-159.115"/>
</g>
<!-- Node15&#45;&gt;Node20 -->
<g id="edge22" class="edge"><title>Node15&#45;&gt;Node20</title>
<path fill="none" stroke="midnightblue" d="M786.646,-165.568C751.747,-155.381 701.463,-140.703 669.989,-131.516"/>
<polygon fill="midnightblue" stroke="midnightblue" points="785.918,-169.001 796.498,-168.444 787.879,-162.282 785.918,-169.001"/>
</g>
<!-- Node15&#45;&gt;Node21 -->
<g id="edge25" class="edge"><title>Node15&#45;&gt;Node21</title>
<path fill="none" stroke="midnightblue" d="M805.615,-162.317C781.531,-145.09 742.448,-118.096 725.812,-112 606.347,-68.2252 568.005,-92.2281 441.812,-76 431.987,-74.7365 421.376,-73.359 411.492,-72.0702"/>
<polygon fill="midnightblue" stroke="midnightblue" points="803.872,-165.375 814.033,-168.377 807.962,-159.694 803.872,-165.375"/>
</g>
<!-- Node17&#45;&gt;Node16 -->
<g id="edge18" class="edge"><title>Node17&#45;&gt;Node16</title>
<path fill="none" stroke="midnightblue" d="M372.991,-110.281C325.558,-100.077 255.108,-84.9203 211.398,-75.5164"/>
<polygon fill="midnightblue" stroke="midnightblue" points="372.528,-113.762 383.04,-112.444 374,-106.918 372.528,-113.762"/>
</g>
<!-- Node17&#45;&gt;Node18 -->
<g id="edge19" class="edge"><title>Node17&#45;&gt;Node18</title>
<path fill="none" stroke="midnightblue" d="M441.647,-105.82C453.65,-96.1452 468.784,-83.9481 478.851,-75.8339"/>
<polygon fill="midnightblue" stroke="midnightblue" points="439.166,-103.324 433.577,-112.324 443.559,-108.774 439.166,-103.324"/>
</g>
<!-- Node20&#45;&gt;Node19 -->
<g id="edge23" class="edge"><title>Node20&#45;&gt;Node19</title>
<path fill="none" stroke="midnightblue" d="M640.812,-101.805C640.812,-92.9102 640.812,-82.7798 640.812,-75.7511"/>
<polygon fill="midnightblue" stroke="midnightblue" points="637.312,-102.083 640.812,-112.083 644.312,-102.083 637.312,-102.083"/>
</g>
<!-- Node20&#45;&gt;Node21 -->
<g id="edge24" class="edge"><title>Node20&#45;&gt;Node21</title>
<path fill="none" stroke="midnightblue" d="M588.33,-110.425C536.408,-99.9633 458.147,-84.1945 411.598,-74.8151"/>
<polygon fill="midnightblue" stroke="midnightblue" points="587.852,-113.899 598.347,-112.444 589.235,-107.037 587.852,-113.899"/>
</g>
<!-- Node22&#45;&gt;Node16 -->
<g id="edge27" class="edge"><title>Node22&#45;&gt;Node16</title>
<path fill="none" stroke="midnightblue" d="M403.445,-172.77C345.845,-166.237 245.133,-152.292 214.812,-132 193.897,-118.003 180.675,-90.0322 175.007,-75.7824"/>
<polygon fill="midnightblue" stroke="midnightblue" points="403.347,-176.28 413.672,-173.903 404.118,-169.323 403.347,-176.28"/>
</g>
<!-- Node22&#45;&gt;Node17 -->
<g id="edge28" class="edge"><title>Node22&#45;&gt;Node17</title>
<path fill="none" stroke="midnightblue" d="M437.352,-158.69C433.644,-149.589 429.336,-139.014 426.377,-131.751"/>
<polygon fill="midnightblue" stroke="midnightblue" points="434.165,-160.143 441.179,-168.083 440.647,-157.502 434.165,-160.143"/>
</g>
<!-- Node22&#45;&gt;Node18 -->
<g id="edge29" class="edge"><title>Node22&#45;&gt;Node18</title>
<path fill="none" stroke="midnightblue" d="M474.634,-163.606C487.291,-156.234 500.735,-145.753 507.812,-132 517.456,-113.259 504.639,-88.7376 496.179,-75.8296"/>
<polygon fill="midnightblue" stroke="midnightblue" points="472.813,-160.611 465.659,-168.427 476.125,-166.778 472.813,-160.611"/>
</g>
<!-- Node22&#45;&gt;Node19 -->
<g id="edge30" class="edge"><title>Node22&#45;&gt;Node19</title>
<path fill="none" stroke="midnightblue" d="M468.962,-163.446C509.853,-140.497 591.579,-94.6307 625.504,-75.5914"/>
<polygon fill="midnightblue" stroke="midnightblue" points="467.199,-160.422 460.192,-168.368 470.625,-166.526 467.199,-160.422"/>
</g>
<!-- Node22&#45;&gt;Node20 -->
<g id="edge31" class="edge"><title>Node22&#45;&gt;Node20</title>
<path fill="none" stroke="midnightblue" d="M485.832,-165.699C522.823,-155.507 576.412,-140.743 609.9,-131.516"/>
<polygon fill="midnightblue" stroke="midnightblue" points="484.58,-162.413 475.869,-168.444 486.439,-169.162 484.58,-162.413"/>
</g>
<!-- Node22&#45;&gt;Node21 -->
<g id="edge32" class="edge"><title>Node22&#45;&gt;Node21</title>
<path fill="none" stroke="midnightblue" d="M461.439,-160.574C473.092,-147.004 484.928,-127.521 474.812,-112 460.808,-90.5155 433.976,-79.2159 411.346,-73.3137"/>
<polygon fill="midnightblue" stroke="midnightblue" points="458.631,-158.455 454.404,-168.171 463.767,-163.211 458.631,-158.455"/>
</g>
<!-- Node24&#45;&gt;Node13 -->
<g id="edge45" class="edge"><title>Node24&#45;&gt;Node13</title>
<path fill="none" stroke="midnightblue" d="M77.3793,-162.377C53.9558,-144.955 17.771,-113.452 2.81191,-76 -0.485258,-67.7452 -1.16332,-63.9505 2.81191,-56 11.2554,-39.113 29.383,-26.9191 43.5155,-19.5195"/>
<polygon fill="midnightblue" stroke="midnightblue" points="75.5023,-165.338 85.6609,-168.347 79.5959,-159.66 75.5023,-165.338"/>
</g>
<!-- Node24&#45;&gt;Node16 -->
<g id="edge44" class="edge"><title>Node24&#45;&gt;Node16</title>
<path fill="none" stroke="midnightblue" d="M110.122,-159.957C125.942,-136.118 154.087,-93.7088 166.11,-75.5914"/>
<polygon fill="midnightblue" stroke="midnightblue" points="107.153,-158.101 104.54,-168.368 112.986,-161.972 107.153,-158.101"/>
</g>
<!-- Node24&#45;&gt;Node25 -->
<g id="edge38" class="edge"><title>Node24&#45;&gt;Node25</title>
<path fill="none" stroke="midnightblue" d="M132.982,-165.172C162.356,-155.004 204.01,-140.585 230.209,-131.516"/>
<polygon fill="midnightblue" stroke="midnightblue" points="131.836,-161.865 123.531,-168.444 134.125,-168.48 131.836,-161.865"/>
</g>
<!-- Node25&#45;&gt;Node13 -->
<g id="edge42" class="edge"><title>Node25&#45;&gt;Node13</title>
<path fill="none" stroke="midnightblue" d="M249.592,-102.473C244.537,-87.8225 235.452,-67.9155 220.812,-56 186.635,-28.1837 136.163,-17.5522 101.512,-13.4944"/>
<polygon fill="midnightblue" stroke="midnightblue" points="246.379,-103.927 252.697,-112.432 253.061,-101.843 246.379,-103.927"/>
</g>
<!-- Node25&#45;&gt;Node14 -->
<g id="edge43" class="edge"><title>Node25&#45;&gt;Node14</title>
<path fill="none" stroke="midnightblue" d="M257.757,-101.97C259.047,-88.6807 259.226,-70.7502 253.812,-56 248.445,-41.3778 236.146,-28.0635 227.197,-19.7749"/>
<polygon fill="midnightblue" stroke="midnightblue" points="254.239,-101.896 256.451,-112.258 261.183,-102.778 254.239,-101.896"/>
</g>
<!-- Node25&#45;&gt;Node16 -->
<g id="edge39" class="edge"><title>Node25&#45;&gt;Node16</title>
<path fill="none" stroke="midnightblue" d="M232.713,-106.622C217.55,-96.7574 197.929,-83.9919 185.114,-75.6545"/>
<polygon fill="midnightblue" stroke="midnightblue" points="231.186,-109.804 241.477,-112.324 235.003,-103.937 231.186,-109.804"/>
</g>
<!-- Node25&#45;&gt;Node18 -->
<g id="edge40" class="edge"><title>Node25&#45;&gt;Node18</title>
<path fill="none" stroke="midnightblue" d="M295.872,-111.565C340.137,-101.393 409.974,-85.3458 452.66,-75.5371"/>
<polygon fill="midnightblue" stroke="midnightblue" points="294.98,-108.179 286.018,-113.829 296.548,-115.001 294.98,-108.179"/>
</g>
<!-- Node25&#45;&gt;Node21 -->
<g id="edge41" class="edge"><title>Node25&#45;&gt;Node21</title>
<path fill="none" stroke="midnightblue" d="M282.712,-108.232C304.784,-98.1312 334.988,-84.3091 354.202,-75.5164"/>
<polygon fill="midnightblue" stroke="midnightblue" points="281.146,-105.1 273.509,-112.444 284.059,-111.465 281.146,-105.1"/>
</g>
<!-- Node26&#45;&gt;Node6 -->
<g id="edge50" class="edge"><title>Node26&#45;&gt;Node6</title>
<path fill="none" stroke="midnightblue" d="M865.054,-400.812C942.995,-399.159 1073.64,-391.065 1103.81,-356 1140.63,-313.208 1073.94,-334.879 1028.81,-300 1007.29,-283.366 988.294,-257.064 979.31,-243.585"/>
<polygon fill="midnightblue" stroke="midnightblue" points="864.823,-397.316 854.888,-400.997 864.951,-404.314 864.823,-397.316"/>
</g>
<!-- Node26&#45;&gt;Node12 -->
<g id="edge58" class="edge"><title>Node26&#45;&gt;Node12</title>
<path fill="none" stroke="midnightblue" d="M794.332,-383.615C783.963,-369.11 767.497,-348.81 748.812,-336 531.369,-186.927 433.713,-236.824 191.812,-132 149.932,-113.852 102.4,-88.6552 78.419,-75.6046"/>
<polygon fill="midnightblue" stroke="midnightblue" points="791.672,-385.923 800.227,-392.173 797.436,-381.952 791.672,-385.923"/>
</g>
<!-- Node26&#45;&gt;Node20 -->
<g id="edge57" class="edge"><title>Node26&#45;&gt;Node20</title>
<path fill="none" stroke="midnightblue" d="M803.054,-382.212C798.892,-357.614 789.54,-313.669 771.812,-280 737.907,-215.607 674.299,-153.667 650.301,-131.544"/>
<polygon fill="midnightblue" stroke="midnightblue" points="799.634,-382.995 804.653,-392.326 806.548,-381.902 799.634,-382.995"/>
</g>
<!-- Node27 -->
<g id="node27" class="node"><title>Node27</title>
<g id="a_node27"><a xlink:href="../../d7/d9e/_exceptions_8cpp.html" target="_top" xlink:title="Implementation of Exceptions using C style. ">
<polygon fill="white" stroke="black" points="833.812,-336.5 833.812,-355.5 967.812,-355.5 967.812,-336.5 833.812,-336.5"/>
<text text-anchor="middle" x="900.812" y="-343.5" font-family="Helvetica,sans-Serif" font-size="10.00">exceptions/Exceptions.cpp</text>
</a>
</g>
</g>
<!-- Node26&#45;&gt;Node27 -->
<g id="edge51" class="edge"><title>Node26&#45;&gt;Node27</title>
<path fill="none" stroke="midnightblue" d="M830.13,-387.177C847.611,-377.241 870.642,-364.149 885.586,-355.655"/>
<polygon fill="midnightblue" stroke="midnightblue" points="828.039,-384.339 821.075,-392.324 831.499,-390.425 828.039,-384.339"/>
</g>
<!-- Node26&#45;&gt;Node28 -->
<g id="edge52" class="edge"><title>Node26&#45;&gt;Node28</title>
<path fill="none" stroke="midnightblue" d="M865.148,-396.252C954.397,-388.899 1128.44,-373.74 1275.81,-356 1279.05,-355.61 1282.38,-355.188 1285.74,-354.746"/>
<polygon fill="midnightblue" stroke="midnightblue" points="864.633,-392.782 854.953,-397.088 865.205,-399.759 864.633,-392.782"/>
</g>
<!-- Node29 -->
<g id="node29" class="node"><title>Node29</title>
<g id="a_node29"><a xlink:href="../../df/d64/_memory_8cpp.html" target="_top" xlink:title="Implementation of Memory functions. ">
<polygon fill="white" stroke="black" points="986.312,-336.5 986.312,-355.5 1095.31,-355.5 1095.31,-336.5 986.312,-336.5"/>
<text text-anchor="middle" x="1040.81" y="-343.5" font-family="Helvetica,sans-Serif" font-size="10.00">memory/Memory.cpp</text>
</a>
</g>
</g>
<!-- Node26&#45;&gt;Node29 -->
<g id="edge53" class="edge"><title>Node26&#45;&gt;Node29</title>
<path fill="none" stroke="midnightblue" d="M853.017,-390.153C897.419,-379.95 962.997,-364.881 1003.75,-355.516"/>
<polygon fill="midnightblue" stroke="midnightblue" points="852.011,-386.793 843.048,-392.444 853.578,-393.615 852.011,-386.793"/>
</g>
<!-- Node26&#45;&gt;Node30 -->
<g id="edge54" class="edge"><title>Node26&#45;&gt;Node30</title>
<path fill="none" stroke="midnightblue" d="M865.258,-393.411C953.279,-382.174 1115.85,-361.421 1190.05,-351.948"/>
<polygon fill="midnightblue" stroke="midnightblue" points="864.639,-389.962 855.163,-394.7 865.526,-396.905 864.639,-389.962"/>
</g>
<!-- Node26&#45;&gt;Node31 -->
<g id="edge56" class="edge"><title>Node26&#45;&gt;Node31</title>
<path fill="none" stroke="midnightblue" d="M763.034,-389.894C723.754,-379.697 666.383,-364.802 630.616,-355.516"/>
<polygon fill="midnightblue" stroke="midnightblue" points="762.295,-393.318 772.854,-392.444 764.054,-386.543 762.295,-393.318"/>
</g>
<!-- Node32 -->
<g id="node32" class="node"><title>Node32</title>
<g id="a_node32"><a xlink:href="../../d8/df6/_unique_ptr_8h.html" target="_top" xlink:title="Unique pointer implementation. ">
<polygon fill="white" stroke="black" points="657.812,-336.5 657.812,-355.5 739.812,-355.5 739.812,-336.5 657.812,-336.5"/>
<text text-anchor="middle" x="698.812" y="-343.5" font-family="Helvetica,sans-Serif" font-size="10.00">stl/UniquePtr.h</text>
</a>
</g>
</g>
<!-- Node26&#45;&gt;Node32 -->
<g id="edge59" class="edge"><title>Node26&#45;&gt;Node32</title>
<path fill="none" stroke="midnightblue" d="M779.51,-387.726C759.697,-377.727 733.104,-364.307 715.961,-355.655"/>
<polygon fill="midnightblue" stroke="midnightblue" points="778.116,-390.943 788.621,-392.324 781.27,-384.694 778.116,-390.943"/>
</g>
<!-- Node30&#45;&gt;Node11 -->
<g id="edge55" class="edge"><title>Node30&#45;&gt;Node11</title>
<path fill="none" stroke="midnightblue" d="M1228.81,-326.251C1228.81,-304.357 1228.81,-267.052 1228.81,-235 1228.81,-235 1228.81,-235 1228.81,-177 1228.81,-139.188 1228.81,-94.0636 1228.81,-75.5578"/>
<polygon fill="midnightblue" stroke="midnightblue" points="1225.31,-326.442 1228.81,-336.442 1232.31,-326.442 1225.31,-326.442"/>
</g>
<!-- Node32&#45;&gt;Node33 -->
<g id="edge60" class="edge"><title>Node32&#45;&gt;Node33</title>
<path fill="none" stroke="midnightblue" d="M661.776,-333.304C629.555,-323.129 583.623,-308.625 554.781,-299.516"/>
<polygon fill="midnightblue" stroke="midnightblue" points="661.127,-336.77 671.716,-336.444 663.235,-330.095 661.127,-336.77"/>
</g>
<!-- Node35&#45;&gt;Node4 -->
<g id="edge72" class="edge"><title>Node35&#45;&gt;Node4</title>
<path fill="none" stroke="midnightblue" d="M1445.81,-381.805C1445.81,-372.91 1445.81,-362.78 1445.81,-355.751"/>
<polygon fill="midnightblue" stroke="midnightblue" points="1442.31,-382.083 1445.81,-392.083 1449.31,-382.083 1442.31,-382.083"/>
</g>
<!-- Node35&#45;&gt;Node11 -->
<g id="edge73" class="edge"><title>Node35&#45;&gt;Node11</title>
<path fill="none" stroke="midnightblue" d="M1465.54,-385.663C1474.66,-377.68 1484.96,-367.247 1491.81,-356 1507.54,-330.192 1511.81,-321.225 1511.81,-291 1511.81,-291 1511.81,-291 1511.81,-177 1511.81,-126.066 1350.54,-89.3472 1271.49,-74.4065"/>
<polygon fill="midnightblue" stroke="midnightblue" points="1463.07,-383.164 1457.64,-392.258 1467.56,-388.54 1463.07,-383.164"/>
</g>
</g>
</svg>
