<?xml version="1.0" encoding="UTF-8" standalone="no"?>
<!DOCTYPE svg PUBLIC "-//W3C//DTD SVG 1.1//EN"
 "http://www.w3.org/Graphics/SVG/1.1/DTD/svg11.dtd">
<!-- Generated by graphviz version 2.36.0 (20140111.2315)
 -->
<!-- Title: utility/Tmp.h Pages: 1 -->
<!--zoomable 532 -->
<svg id="main" version="1.1" xmlns="http://www.w3.org/2000/svg" xmlns:xlink="http://www.w3.org/1999/xlink" xml:space="preserve" onload="init(evt)">
<style type="text/css"><![CDATA[
.edge:hover path { stroke: red; }
.edge:hover polygon { stroke: red; fill: red; }
]]></style>
<script type="text/javascript"><![CDATA[
var edges = document.getElementsByTagName('g');
if (edges && edges.length) {
  for (var i=0;i<edges.length;i++) {
    if (edges[i].id.substr(0,4)=='edge') {
      edges[i].setAttribute('class','edge');
    }
  }
}
]]></script>
        <defs>
                <circle id="rim" cx="0" cy="0" r="7"/>
                <circle id="rim2" cx="0" cy="0" r="3.5"/>
                <g id="zoomPlus">
                        <use xlink:href="#rim" fill="#404040">
                                <set attributeName="fill" to="#808080" begin="zoomplus.mouseover" end="zoomplus.mouseout"/>
                        </use>
                        <path d="M-4,0h8M0,-4v8" fill="none" stroke="white" stroke-width="1.5" pointer-events="none"/>
                </g>
                <g id="zoomMin">
                        <use xlink:href="#rim" fill="#404040">
                                <set attributeName="fill" to="#808080" begin="zoomminus.mouseover" end="zoomminus.mouseout"/>
                        </use>
                        <path d="M-4,0h8" fill="none" stroke="white" stroke-width="1.5" pointer-events="none"/>
                </g>
                <g id="dirArrow">
                        <path fill="none" stroke="white" stroke-width="1.5" d="M0,-3.0v7 M-2.5,-0.5L0,-3.0L2.5,-0.5"/>
                </g>
               <g id="resetDef">
                       <use xlink:href="#rim2" fill="#404040">
                               <set attributeName="fill" to="#808080" begin="reset.mouseover" end="reset.mouseout"/>
                       </use>
               </g>
        </defs>

<script type="text/javascript">
var viewWidth = 1538;
var viewHeight = 532;
var sectionId = 'dynsection-1';
</script>
<script xlink:href="../../svgpan.js"/>
<svg id="graph" class="graph">
<g id="viewport">
<title>utility/Tmp.h</title>
<polygon fill="white" stroke="none" points="-4,4 -4,-528 1534,-528 1534,4 -4,4"/>
<!-- Node1 -->
<g id="node1" class="node"><title>Node1</title>
<polygon fill="#bfbfbf" stroke="black" points="579.5,-504.5 579.5,-523.5 650.5,-523.5 650.5,-504.5 579.5,-504.5"/>
<text text-anchor="middle" x="615" y="-511.5" font-family="Helvetica,sans-Serif" font-size="10.00">utility/Tmp.h</text>
</g>
<!-- Node2 -->
<g id="node2" class="node"><title>Node2</title>
<g id="a_node2"><a xlink:href="../../db/d2a/_utility_8h.html" target="_top" xlink:title="Various helper functions. ">
<polygon fill="white" stroke="black" points="412.5,-448.5 412.5,-467.5 489.5,-467.5 489.5,-448.5 412.5,-448.5"/>
<text text-anchor="middle" x="451" y="-455.5" font-family="Helvetica,sans-Serif" font-size="10.00">utility/Utility.h</text>
</a>
</g>
</g>
<!-- Node1&#45;&gt;Node2 -->
<g id="edge1" class="edge"><title>Node1&#45;&gt;Node2</title>
<path fill="none" stroke="midnightblue" d="M579.48,-501.304C548.578,-491.129 504.527,-476.625 476.865,-467.516"/>
<polygon fill="midnightblue" stroke="midnightblue" points="578.421,-504.64 589.014,-504.444 580.61,-497.992 578.421,-504.64"/>
</g>
<!-- Node4 -->
<g id="node4" class="node"><title>Node4</title>
<g id="a_node4"><a xlink:href="../../d8/dd7/_concept_8h.html" target="_top" xlink:title="Concept definitions. ">
<polygon fill="white" stroke="black" points="1426.5,-336.5 1426.5,-355.5 1501.5,-355.5 1501.5,-336.5 1426.5,-336.5"/>
<text text-anchor="middle" x="1464" y="-343.5" font-family="Helvetica,sans-Serif" font-size="10.00">stl/Concept.h</text>
</a>
</g>
</g>
<!-- Node1&#45;&gt;Node4 -->
<g id="edge65" class="edge"><title>Node1&#45;&gt;Node4</title>
<path fill="none" stroke="midnightblue" d="M660.916,-510.799C741.34,-506.39 912.68,-494.529 1055,-468 1147.85,-450.692 1169.43,-438.787 1260,-412 1324.52,-392.919 1399.78,-368.326 1438.34,-355.555"/>
<polygon fill="midnightblue" stroke="midnightblue" points="660.443,-507.319 650.644,-511.348 660.817,-514.309 660.443,-507.319"/>
</g>
<!-- Node23 -->
<g id="node23" class="node"><title>Node23</title>
<g id="a_node23"><a xlink:href="../../d7/d2a/_tuple_8h.html" target="_top" xlink:title="Template oriented tuple implementation. ">
<polygon fill="white" stroke="black" points="28,-224.5 28,-243.5 90,-243.5 90,-224.5 28,-224.5"/>
<text text-anchor="middle" x="59" y="-231.5" font-family="Helvetica,sans-Serif" font-size="10.00">stl/Tuple.h</text>
</a>
</g>
</g>
<!-- Node1&#45;&gt;Node23 -->
<g id="edge68" class="edge"><title>Node1&#45;&gt;Node23</title>
<path fill="none" stroke="midnightblue" d="M569.323,-512.068C444.108,-509.127 102.022,-498.371 62,-468 37.4685,-449.384 38,-433.795 38,-403 38,-403 38,-403 38,-345 38,-306.699 50.4357,-262.206 56.1678,-243.732"/>
<polygon fill="midnightblue" stroke="midnightblue" points="569.281,-515.568 579.358,-512.297 569.441,-508.569 569.281,-515.568"/>
</g>
<!-- Node24 -->
<g id="node24" class="node"><title>Node24</title>
<g id="a_node24"><a xlink:href="../../d9/d37/_table_8h.html" target="_top" xlink:title="stl/Table.h">
<polygon fill="white" stroke="black" points="76,-112.5 76,-131.5 138,-131.5 138,-112.5 76,-112.5"/>
<text text-anchor="middle" x="107" y="-119.5" font-family="Helvetica,sans-Serif" font-size="10.00">stl/Table.h</text>
</a>
</g>
</g>
<!-- Node1&#45;&gt;Node24 -->
<g id="edge69" class="edge"><title>Node1&#45;&gt;Node24</title>
<path fill="none" stroke="midnightblue" d="M569.086,-509.021C464.663,-499.041 213.864,-469.531 155,-412 113.716,-371.651 107.906,-175.626 107.119,-131.732"/>
<polygon fill="midnightblue" stroke="midnightblue" points="569.03,-512.531 579.313,-509.98 569.684,-505.561 569.03,-512.531"/>
</g>
<!-- Node25 -->
<g id="node25" class="node"><title>Node25</title>
<g id="a_node25"><a xlink:href="../../d3/de6/_memory_8h.html" target="_top" xlink:title="Memory is a class that provides dynamic fixed size memory. ">
<polygon fill="white" stroke="black" points="756,-392.5 756,-411.5 854,-411.5 854,-392.5 756,-392.5"/>
<text text-anchor="middle" x="805" y="-399.5" font-family="Helvetica,sans-Serif" font-size="10.00">memory/Memory.h</text>
</a>
</g>
</g>
<!-- Node1&#45;&gt;Node25 -->
<g id="edge66" class="edge"><title>Node1&#45;&gt;Node25</title>
<path fill="none" stroke="midnightblue" d="M638.662,-499.301C678.383,-476.304 757.344,-430.591 790.16,-411.591"/>
<polygon fill="midnightblue" stroke="midnightblue" points="636.81,-496.329 629.909,-504.368 640.317,-502.387 636.81,-496.329"/>
</g>
<!-- Node27 -->
<g id="node27" class="node"><title>Node27</title>
<g id="a_node27"><a xlink:href="../../df/dcf/_state_machine_8h.html" target="_top" xlink:title="fsm/StateMachine.h">
<polygon fill="white" stroke="black" points="1304,-336.5 1304,-355.5 1408,-355.5 1408,-336.5 1304,-336.5"/>
<text text-anchor="middle" x="1356" y="-343.5" font-family="Helvetica,sans-Serif" font-size="10.00">fsm/StateMachine.h</text>
</a>
</g>
</g>
<!-- Node1&#45;&gt;Node27 -->
<g id="edge67" class="edge"><title>Node1&#45;&gt;Node27</title>
<path fill="none" stroke="midnightblue" d="M660.663,-509.825C763.072,-501.753 1018.01,-476.337 1221,-412 1267.12,-397.381 1317.49,-369.692 1341.58,-355.643"/>
<polygon fill="midnightblue" stroke="midnightblue" points="660.361,-506.338 650.66,-510.596 660.899,-513.317 660.361,-506.338"/>
</g>
<!-- Node32 -->
<g id="node32" class="node"><title>Node32</title>
<g id="a_node32"><a xlink:href="../../d1/d13/_shared_ptr_8h.html" target="_top" xlink:title="Shared pointer implementation. ">
<polygon fill="white" stroke="black" points="467,-280.5 467,-299.5 549,-299.5 549,-280.5 467,-280.5"/>
<text text-anchor="middle" x="508" y="-287.5" font-family="Helvetica,sans-Serif" font-size="10.00">stl/SharedPtr.h</text>
</a>
</g>
</g>
<!-- Node1&#45;&gt;Node32 -->
<g id="edge70" class="edge"><title>Node1&#45;&gt;Node32</title>
<path fill="none" stroke="midnightblue" d="M603.398,-495.434C585.09,-467.096 549.297,-409.087 527,-356 518.805,-336.489 512.741,-312.28 509.863,-299.626"/>
<polygon fill="midnightblue" stroke="midnightblue" points="600.698,-497.701 609.093,-504.164 606.56,-493.876 600.698,-497.701"/>
</g>
<!-- Node34 -->
<g id="node34" class="node"><title>Node34</title>
<g id="a_node34"><a xlink:href="../../d4/dd5/_type_traits_8h.html" target="_top" xlink:title="Metafunctions for types. ">
<polygon fill="white" stroke="black" points="1421.5,-392.5 1421.5,-411.5 1506.5,-411.5 1506.5,-392.5 1421.5,-392.5"/>
<text text-anchor="middle" x="1464" y="-399.5" font-family="Helvetica,sans-Serif" font-size="10.00">stl/TypeTraits.h</text>
</a>
</g>
</g>
<!-- Node1&#45;&gt;Node34 -->
<g id="edge62" class="edge"><title>Node1&#45;&gt;Node34</title>
<path fill="none" stroke="midnightblue" d="M661.106,-511.987C817.042,-508.329 1318.73,-494.596 1386,-468 1416.82,-455.815 1444.44,-426.472 1456.94,-411.743"/>
<polygon fill="midnightblue" stroke="midnightblue" points="660.831,-508.492 650.915,-512.223 660.993,-515.49 660.831,-508.492"/>
</g>
<!-- Node3 -->
<g id="node3" class="node"><title>Node3</title>
<g id="a_node3"><a xlink:href="../../d4/dda/_pair_8h.html" target="_top" xlink:title="Implementation of a 2&#45;element tuple. ">
<polygon fill="white" stroke="black" points="310,-392.5 310,-411.5 366,-411.5 366,-392.5 310,-392.5"/>
<text text-anchor="middle" x="338" y="-399.5" font-family="Helvetica,sans-Serif" font-size="10.00">stl/Pair.h</text>
</a>
</g>
</g>
<!-- Node2&#45;&gt;Node3 -->
<g id="edge2" class="edge"><title>Node2&#45;&gt;Node3</title>
<path fill="none" stroke="midnightblue" d="M423.997,-444.096C402.886,-434.007 374.138,-420.27 355.821,-411.516"/>
<polygon fill="midnightblue" stroke="midnightblue" points="422.563,-447.29 433.095,-448.444 425.581,-440.974 422.563,-447.29"/>
</g>
<!-- Node11 -->
<g id="node11" class="node"><title>Node11</title>
<g id="a_node11"><a xlink:href="../../df/d03/_array_heap_8h.html" target="_top" xlink:title="Heap manipulation and implementation. ">
<polygon fill="white" stroke="black" points="1307.5,-56.5 1307.5,-75.5 1392.5,-75.5 1392.5,-56.5 1307.5,-56.5"/>
<text text-anchor="middle" x="1350" y="-63.5" font-family="Helvetica,sans-Serif" font-size="10.00">stl/ArrayHeap.h</text>
</a>
</g>
</g>
<!-- Node2&#45;&gt;Node11 -->
<g id="edge55" class="edge"><title>Node2&#45;&gt;Node11</title>
<path fill="none" stroke="midnightblue" d="M499.923,-454.791C663.328,-446.772 1180,-415.963 1180,-347 1180,-347 1180,-347 1180,-177 1180,-116.536 1256.74,-87.6646 1307.1,-75.2278"/>
<polygon fill="midnightblue" stroke="midnightblue" points="499.499,-451.308 489.679,-455.287 499.837,-458.3 499.499,-451.308"/>
</g>
<!-- Node12 -->
<g id="node12" class="node"><title>Node12</title>
<g id="a_node12"><a xlink:href="../../d5/d08/_red_black_tree_8h.html" target="_top" xlink:title="Red black tree implementation. ">
<polygon fill="white" stroke="black" points="146.5,-56.5 146.5,-75.5 247.5,-75.5 247.5,-56.5 146.5,-56.5"/>
<text text-anchor="middle" x="197" y="-63.5" font-family="Helvetica,sans-Serif" font-size="10.00">stl/RedBlackTree.h</text>
</a>
</g>
</g>
<!-- Node2&#45;&gt;Node12 -->
<g id="edge60" class="edge"><title>Node2&#45;&gt;Node12</title>
<path fill="none" stroke="midnightblue" d="M402.126,-453.64C329.351,-447.96 196.602,-434.793 155,-412 63.2956,-361.756 0,-339.566 0,-235 0,-235 0,-235 0,-177 0,-110.016 87.8979,-83.4384 146.268,-73.1738"/>
<polygon fill="midnightblue" stroke="midnightblue" points="402.173,-457.154 412.41,-454.424 402.705,-450.174 402.173,-457.154"/>
</g>
<!-- Node16 -->
<g id="node16" class="node"><title>Node16</title>
<g id="a_node16"><a xlink:href="../../d3/dbe/_chain_map_8h.html" target="_top" xlink:title="Hasher map implementation. ">
<polygon fill="white" stroke="black" points="672.5,-112.5 672.5,-131.5 755.5,-131.5 755.5,-112.5 672.5,-112.5"/>
<text text-anchor="middle" x="714" y="-119.5" font-family="Helvetica,sans-Serif" font-size="10.00">stl/ChainMap.h</text>
</a>
</g>
</g>
<!-- Node2&#45;&gt;Node16 -->
<g id="edge56" class="edge"><title>Node2&#45;&gt;Node16</title>
<path fill="none" stroke="midnightblue" d="M445.865,-438.586C437.408,-404.078 424.604,-328.769 458,-280 465.254,-269.407 660.119,-196.198 670,-188 689.297,-171.99 703.585,-145.415 710.096,-131.733"/>
<polygon fill="midnightblue" stroke="midnightblue" points="442.481,-439.479 448.394,-448.271 449.254,-437.711 442.481,-439.479"/>
</g>
<!-- Node19 -->
<g id="node19" class="node"><title>Node19</title>
<g id="a_node19"><a xlink:href="../../d8/d2e/_open_table_8h.html" target="_top" xlink:title="stl/OpenTable.h">
<polygon fill="white" stroke="black" points="308,-112.5 308,-131.5 394,-131.5 394,-112.5 308,-112.5"/>
<text text-anchor="middle" x="351" y="-119.5" font-family="Helvetica,sans-Serif" font-size="10.00">stl/OpenTable.h</text>
</a>
</g>
</g>
<!-- Node2&#45;&gt;Node19 -->
<g id="edge58" class="edge"><title>Node2&#45;&gt;Node19</title>
<path fill="none" stroke="midnightblue" d="M434.231,-441.074C406.958,-413.363 356,-353.257 356,-291 356,-291 356,-291 356,-233 356,-195.148 353.009,-150.046 351.654,-131.552"/>
<polygon fill="midnightblue" stroke="midnightblue" points="431.972,-443.762 441.544,-448.304 436.894,-438.785 431.972,-443.762"/>
</g>
<!-- Node20 -->
<g id="node20" class="node"><title>Node20</title>
<g id="a_node20"><a xlink:href="../../d0/de6/_open_set_8h.html" target="_top" xlink:title="Hash set implementation. ">
<polygon fill="white" stroke="black" points="289.5,-56.5 289.5,-75.5 366.5,-75.5 366.5,-56.5 289.5,-56.5"/>
<text text-anchor="middle" x="328" y="-63.5" font-family="Helvetica,sans-Serif" font-size="10.00">stl/OpenSet.h</text>
</a>
</g>
</g>
<!-- Node2&#45;&gt;Node20 -->
<g id="edge59" class="edge"><title>Node2&#45;&gt;Node20</title>
<path fill="none" stroke="midnightblue" d="M402.244,-456.459C330.065,-454.508 200.143,-446.2 171,-412 74.7548,-299.052 269.885,-117.396 317.747,-75.7147"/>
<polygon fill="midnightblue" stroke="midnightblue" points="402.375,-459.963 412.456,-456.703 402.543,-452.965 402.375,-459.963"/>
</g>
<!-- Node2&#45;&gt;Node25 -->
<g id="edge40" class="edge"><title>Node2&#45;&gt;Node25</title>
<path fill="none" stroke="midnightblue" d="M499.489,-449.603C566.831,-439.331 688.01,-420.846 755.753,-410.512"/>
<polygon fill="midnightblue" stroke="midnightblue" points="498.916,-446.15 489.558,-451.118 499.972,-453.07 498.916,-446.15"/>
</g>
<!-- Node29 -->
<g id="node29" class="node"><title>Node29</title>
<g id="a_node29"><a xlink:href="../../d2/db9/_array_list_8h.html" target="_top" xlink:title="List implementation using an array. ">
<polygon fill="white" stroke="black" points="1208.5,-336.5 1208.5,-355.5 1285.5,-355.5 1285.5,-336.5 1208.5,-336.5"/>
<text text-anchor="middle" x="1247" y="-343.5" font-family="Helvetica,sans-Serif" font-size="10.00">stl/ArrayList.h</text>
</a>
</g>
</g>
<!-- Node2&#45;&gt;Node29 -->
<g id="edge54" class="edge"><title>Node2&#45;&gt;Node29</title>
<path fill="none" stroke="midnightblue" d="M499.822,-456.304C655.338,-453.777 1132.52,-443.51 1194,-412 1218.36,-399.515 1235.52,-370.312 1242.92,-355.679"/>
<polygon fill="midnightblue" stroke="midnightblue" points="499.564,-452.808 489.621,-456.466 499.675,-459.807 499.564,-452.808"/>
</g>
<!-- Node30 -->
<g id="node30" class="node"><title>Node30</title>
<g id="a_node30"><a xlink:href="../../de/dc6/_linked_list_8h.html" target="_top" xlink:title="stl/LinkedList.h">
<polygon fill="white" stroke="black" points="536.5,-336.5 536.5,-355.5 619.5,-355.5 619.5,-336.5 536.5,-336.5"/>
<text text-anchor="middle" x="578" y="-343.5" font-family="Helvetica,sans-Serif" font-size="10.00">stl/LinkedList.h</text>
</a>
</g>
</g>
<!-- Node2&#45;&gt;Node30 -->
<g id="edge57" class="edge"><title>Node2&#45;&gt;Node30</title>
<path fill="none" stroke="midnightblue" d="M468.531,-441.816C495.58,-418.387 546.608,-374.19 568.081,-355.591"/>
<polygon fill="midnightblue" stroke="midnightblue" points="466.233,-439.176 460.965,-448.368 470.816,-444.467 466.233,-439.176"/>
</g>
<!-- Node2&#45;&gt;Node32 -->
<g id="edge61" class="edge"><title>Node2&#45;&gt;Node32</title>
<path fill="none" stroke="midnightblue" d="M457.389,-438.395C469.685,-402.585 496.208,-325.342 505.058,-299.568"/>
<polygon fill="midnightblue" stroke="midnightblue" points="454.002,-437.48 454.065,-448.075 460.623,-439.754 454.002,-437.48"/>
</g>
<!-- Node33 -->
<g id="node33" class="node"><title>Node33</title>
<g id="a_node33"><a xlink:href="../../d0/d55/_allocator_8cpp.html" target="_top" xlink:title="Implementation of Allocator. ">
<polygon fill="white" stroke="black" points="180,-392.5 180,-411.5 292,-411.5 292,-392.5 180,-392.5"/>
<text text-anchor="middle" x="236" y="-399.5" font-family="Helvetica,sans-Serif" font-size="10.00">memory/Allocator.cpp</text>
</a>
</g>
</g>
<!-- Node2&#45;&gt;Node33 -->
<g id="edge53" class="edge"><title>Node2&#45;&gt;Node33</title>
<path fill="none" stroke="midnightblue" d="M407.04,-445.959C366.433,-435.76 306.957,-420.822 269.908,-411.516"/>
<polygon fill="midnightblue" stroke="midnightblue" points="406.381,-449.402 416.933,-448.444 408.086,-442.613 406.381,-449.402"/>
</g>
<!-- Node3&#45;&gt;Node4 -->
<g id="edge3" class="edge"><title>Node3&#45;&gt;Node4</title>
<path fill="none" stroke="midnightblue" d="M376.335,-400.161C543.444,-396.385 1209.14,-380.102 1417,-356 1420.05,-355.646 1423.21,-355.206 1426.37,-354.713"/>
<polygon fill="midnightblue" stroke="midnightblue" points="376.199,-396.663 366.281,-400.386 376.357,-403.661 376.199,-396.663"/>
</g>
<!-- Node3&#45;&gt;Node12 -->
<g id="edge39" class="edge"><title>Node3&#45;&gt;Node12</title>
<path fill="none" stroke="midnightblue" d="M318.308,-385.731C308.51,-377.553 296.893,-366.93 288,-356 233.443,-288.95 212.56,-271.446 190,-188 178.962,-147.171 189.572,-95.8635 194.641,-75.7017"/>
<polygon fill="midnightblue" stroke="midnightblue" points="316.362,-388.659 326.336,-392.234 320.769,-383.22 316.362,-388.659"/>
</g>
<!-- Node3&#45;&gt;Node16 -->
<g id="edge30" class="edge"><title>Node3&#45;&gt;Node16</title>
<path fill="none" stroke="midnightblue" d="M346.293,-383.416C359.299,-357.536 386.793,-309.114 423,-280 505.593,-213.586 553.698,-245.075 643,-188 668.91,-171.44 694.253,-145.106 706.459,-131.603"/>
<polygon fill="midnightblue" stroke="midnightblue" points="343.133,-381.911 341.893,-392.433 349.424,-384.981 343.133,-381.911"/>
</g>
<!-- Node3&#45;&gt;Node19 -->
<g id="edge31" class="edge"><title>Node3&#45;&gt;Node19</title>
<path fill="none" stroke="midnightblue" d="M332.509,-382.408C326.588,-360.685 318,-323.562 318,-291 318,-291 318,-291 318,-233 318,-193.722 337.542,-149.756 346.549,-131.576"/>
<polygon fill="midnightblue" stroke="midnightblue" points="329.207,-383.592 335.303,-392.258 335.942,-381.683 329.207,-383.592"/>
</g>
<!-- Node3&#45;&gt;Node20 -->
<g id="edge32" class="edge"><title>Node3&#45;&gt;Node20</title>
<path fill="none" stroke="midnightblue" d="M322.95,-384.749C305.765,-364.435 280,-327.837 280,-291 280,-291 280,-291 280,-177 280,-136.161 308.137,-93.3767 321.326,-75.565"/>
<polygon fill="midnightblue" stroke="midnightblue" points="320.457,-387.214 329.69,-392.411 325.713,-382.59 320.457,-387.214"/>
</g>
<!-- Node3&#45;&gt;Node23 -->
<g id="edge33" class="edge"><title>Node3&#45;&gt;Node23</title>
<path fill="none" stroke="midnightblue" d="M300.233,-390.69C274.954,-382.984 241.419,-371.174 214,-356 153.067,-322.278 90.8194,-265.464 68.0455,-243.775"/>
<polygon fill="midnightblue" stroke="midnightblue" points="299.247,-394.048 309.829,-393.54 301.24,-387.338 299.247,-394.048"/>
</g>
<!-- Node5 -->
<g id="node5" class="node"><title>Node5</title>
<g id="a_node5"><a xlink:href="../../de/d0b/_string_iterator_8h.html" target="_top" xlink:title="strings/StringIterator.h">
<polygon fill="white" stroke="black" points="1208.5,-280.5 1208.5,-299.5 1321.5,-299.5 1321.5,-280.5 1208.5,-280.5"/>
<text text-anchor="middle" x="1265" y="-287.5" font-family="Helvetica,sans-Serif" font-size="10.00">strings/StringIterator.h</text>
</a>
</g>
</g>
<!-- Node4&#45;&gt;Node5 -->
<g id="edge4" class="edge"><title>Node4&#45;&gt;Node5</title>
<path fill="none" stroke="midnightblue" d="M1422.35,-333.699C1384.79,-323.507 1330.39,-308.743 1296.38,-299.516"/>
<polygon fill="midnightblue" stroke="midnightblue" points="1421.9,-337.202 1432.47,-336.444 1423.73,-330.447 1421.9,-337.202"/>
</g>
<!-- Node4&#45;&gt;Node11 -->
<g id="edge29" class="edge"><title>Node4&#45;&gt;Node11</title>
<path fill="none" stroke="midnightblue" d="M1453.86,-327.429C1442.6,-306.236 1426,-269.187 1426,-235 1426,-235 1426,-235 1426,-177 1426,-132.201 1382.8,-92.4292 1361.54,-75.5672"/>
<polygon fill="midnightblue" stroke="midnightblue" points="1450.82,-329.168 1458.72,-336.231 1456.95,-325.785 1450.82,-329.168"/>
</g>
<!-- Node6 -->
<g id="node6" class="node"><title>Node6</title>
<g id="a_node6"><a xlink:href="../../db/db5/_string_8h.html" target="_top" xlink:title="strings/String.h">
<polygon fill="white" stroke="black" points="755.5,-224.5 755.5,-243.5 838.5,-243.5 838.5,-224.5 755.5,-224.5"/>
<text text-anchor="middle" x="797" y="-231.5" font-family="Helvetica,sans-Serif" font-size="10.00">strings/String.h</text>
</a>
</g>
</g>
<!-- Node5&#45;&gt;Node6 -->
<g id="edge5" class="edge"><title>Node5&#45;&gt;Node6</title>
<path fill="none" stroke="midnightblue" d="M1197.98,-281.267C1099.86,-269.945 919.963,-249.188 838.744,-239.817"/>
<polygon fill="midnightblue" stroke="midnightblue" points="1197.75,-284.763 1208.08,-282.433 1198.55,-277.809 1197.75,-284.763"/>
</g>
<!-- Node7 -->
<g id="node7" class="node"><title>Node7</title>
<g id="a_node7"><a xlink:href="../../de/d6d/_bitset_8h.html" target="_top" xlink:title="Bitset is a class that provides bits manipulation methods. ">
<polygon fill="white" stroke="black" points="1088,-168.5 1088,-187.5 1152,-187.5 1152,-168.5 1088,-168.5"/>
<text text-anchor="middle" x="1120" y="-175.5" font-family="Helvetica,sans-Serif" font-size="10.00">stl/Bitset.h</text>
</a>
</g>
</g>
<!-- Node6&#45;&gt;Node7 -->
<g id="edge6" class="edge"><title>Node6&#45;&gt;Node7</title>
<path fill="none" stroke="midnightblue" d="M848.538,-224.384C915.883,-213.125 1031.81,-193.744 1087.83,-184.378"/>
<polygon fill="midnightblue" stroke="midnightblue" points="847.851,-220.95 838.565,-226.051 849.006,-227.854 847.851,-220.95"/>
</g>
<!-- Node10 -->
<g id="node10" class="node"><title>Node10</title>
<g id="a_node10"><a xlink:href="../../d7/d0c/_comparator_8h.html" target="_top" xlink:title="Comparator implementation for basic types. ">
<polygon fill="white" stroke="black" points="412.5,-112.5 412.5,-131.5 501.5,-131.5 501.5,-112.5 412.5,-112.5"/>
<text text-anchor="middle" x="457" y="-119.5" font-family="Helvetica,sans-Serif" font-size="10.00">stl/Comparator.h</text>
</a>
</g>
</g>
<!-- Node6&#45;&gt;Node10 -->
<g id="edge9" class="edge"><title>Node6&#45;&gt;Node10</title>
<path fill="none" stroke="midnightblue" d="M745.069,-231.817C666.316,-229.012 521.643,-219.586 482,-188 464.412,-173.986 459.184,-146.023 457.64,-131.779"/>
<polygon fill="midnightblue" stroke="midnightblue" points="745.151,-235.321 755.262,-232.156 745.384,-228.325 745.151,-235.321"/>
</g>
<!-- Node15 -->
<g id="node15" class="node"><title>Node15</title>
<g id="a_node15"><a xlink:href="../../d2/dc2/_equal_8h.html" target="_top" xlink:title="stl/Equal.h">
<polygon fill="white" stroke="black" points="491.5,-168.5 491.5,-187.5 554.5,-187.5 554.5,-168.5 491.5,-168.5"/>
<text text-anchor="middle" x="523" y="-175.5" font-family="Helvetica,sans-Serif" font-size="10.00">stl/Equal.h</text>
</a>
</g>
</g>
<!-- Node6&#45;&gt;Node15 -->
<g id="edge14" class="edge"><title>Node6&#45;&gt;Node15</title>
<path fill="none" stroke="midnightblue" d="M745.273,-223.398C698.007,-214.532 626.213,-200.834 564,-188 561.002,-187.382 557.885,-186.724 554.767,-186.056"/>
<polygon fill="midnightblue" stroke="midnightblue" points="744.795,-226.869 755.268,-225.27 746.083,-219.989 744.795,-226.869"/>
</g>
<!-- Node21 -->
<g id="node21" class="node"><title>Node21</title>
<g id="a_node21"><a xlink:href="../../d2/dad/_hash_8h.html" target="_top" xlink:title="stl/Hash.h">
<polygon fill="white" stroke="black" points="573,-168.5 573,-187.5 635,-187.5 635,-168.5 573,-168.5"/>
<text text-anchor="middle" x="604" y="-175.5" font-family="Helvetica,sans-Serif" font-size="10.00">stl/Hash.h</text>
</a>
</g>
</g>
<!-- Node6&#45;&gt;Node21 -->
<g id="edge23" class="edge"><title>Node6&#45;&gt;Node21</title>
<path fill="none" stroke="midnightblue" d="M756.608,-221.699C720.183,-211.507 667.414,-196.743 634.438,-187.516"/>
<polygon fill="midnightblue" stroke="midnightblue" points="755.845,-225.12 766.419,-224.444 757.731,-218.378 755.845,-225.12"/>
</g>
<!-- Node22 -->
<g id="node22" class="node"><title>Node22</title>
<g id="a_node22"><a xlink:href="../../d9/dae/_string_8cpp.html" target="_top" xlink:title="strings/String.cpp">
<polygon fill="white" stroke="black" points="750.5,-168.5 750.5,-187.5 843.5,-187.5 843.5,-168.5 750.5,-168.5"/>
<text text-anchor="middle" x="797" y="-175.5" font-family="Helvetica,sans-Serif" font-size="10.00">strings/String.cpp</text>
</a>
</g>
</g>
<!-- Node6&#45;&gt;Node22 -->
<g id="edge28" class="edge"><title>Node6&#45;&gt;Node22</title>
<path fill="none" stroke="midnightblue" d="M797,-213.805C797,-204.91 797,-194.78 797,-187.751"/>
<polygon fill="midnightblue" stroke="midnightblue" points="793.5,-214.083 797,-224.083 800.5,-214.083 793.5,-214.083"/>
</g>
<!-- Node8 -->
<g id="node8" class="node"><title>Node8</title>
<g id="a_node8"><a xlink:href="../../de/d66/_packet_constructor_8h.html" target="_top" xlink:title="comm/PacketConstructor.h">
<polygon fill="white" stroke="black" points="1014.5,-112.5 1014.5,-131.5 1151.5,-131.5 1151.5,-112.5 1014.5,-112.5"/>
<text text-anchor="middle" x="1083" y="-119.5" font-family="Helvetica,sans-Serif" font-size="10.00">comm/PacketConstructor.h</text>
</a>
</g>
</g>
<!-- Node7&#45;&gt;Node8 -->
<g id="edge7" class="edge"><title>Node7&#45;&gt;Node8</title>
<path fill="none" stroke="midnightblue" d="M1108.05,-159.566C1101.69,-150.275 1094.13,-139.248 1089,-131.751"/>
<polygon fill="midnightblue" stroke="midnightblue" points="1105.35,-161.812 1113.89,-168.083 1111.13,-157.855 1105.35,-161.812"/>
</g>
<!-- Node9 -->
<g id="node9" class="node"><title>Node9</title>
<g id="a_node9"><a xlink:href="../../d9/dde/_packet_constructor_8cpp.html" target="_top" xlink:title="Creates a packet for sending data from the slave systems to the main computer. ">
<polygon fill="white" stroke="black" points="1009.5,-56.5 1009.5,-75.5 1156.5,-75.5 1156.5,-56.5 1009.5,-56.5"/>
<text text-anchor="middle" x="1083" y="-63.5" font-family="Helvetica,sans-Serif" font-size="10.00">comm/PacketConstructor.cpp</text>
</a>
</g>
</g>
<!-- Node8&#45;&gt;Node9 -->
<g id="edge8" class="edge"><title>Node8&#45;&gt;Node9</title>
<path fill="none" stroke="midnightblue" d="M1083,-101.805C1083,-92.9102 1083,-82.7798 1083,-75.7511"/>
<polygon fill="midnightblue" stroke="midnightblue" points="1079.5,-102.083 1083,-112.083 1086.5,-102.083 1079.5,-102.083"/>
</g>
<!-- Node10&#45;&gt;Node11 -->
<g id="edge10" class="edge"><title>Node10&#45;&gt;Node11</title>
<path fill="none" stroke="midnightblue" d="M511.93,-117.678C676.055,-107.754 1160.49,-78.4598 1307.33,-69.5803"/>
<polygon fill="midnightblue" stroke="midnightblue" points="511.36,-114.206 501.59,-118.304 511.783,-121.194 511.36,-114.206"/>
</g>
<!-- Node10&#45;&gt;Node12 -->
<g id="edge11" class="edge"><title>Node10&#45;&gt;Node12</title>
<path fill="none" stroke="midnightblue" d="M406.009,-110.41C356.872,-100.204 283.473,-84.9597 238.005,-75.5164"/>
<polygon fill="midnightblue" stroke="midnightblue" points="405.299,-113.837 415.802,-112.444 406.723,-106.983 405.299,-113.837"/>
</g>
<!-- Node13 -->
<g id="node13" class="node"><title>Node13</title>
<g id="a_node13"><a xlink:href="../../df/d87/_tree_map_8h.html" target="_top" xlink:title="Map implementation using red black tree. ">
<polygon fill="white" stroke="black" points="41.5,-0.5 41.5,-19.5 118.5,-19.5 118.5,-0.5 41.5,-0.5"/>
<text text-anchor="middle" x="80" y="-7.5" font-family="Helvetica,sans-Serif" font-size="10.00">stl/TreeMap.h</text>
</a>
</g>
</g>
<!-- Node12&#45;&gt;Node13 -->
<g id="edge12" class="edge"><title>Node12&#45;&gt;Node13</title>
<path fill="none" stroke="midnightblue" d="M169.336,-52.2321C147.451,-42.1312 117.503,-28.3091 98.4523,-19.5164"/>
<polygon fill="midnightblue" stroke="midnightblue" points="167.915,-55.4308 178.461,-56.4435 170.848,-49.075 167.915,-55.4308"/>
</g>
<!-- Node14 -->
<g id="node14" class="node"><title>Node14</title>
<g id="a_node14"><a xlink:href="../../dd/dba/_tree_set_8h.html" target="_top" xlink:title="Set implementation using red black tree. ">
<polygon fill="white" stroke="black" points="148.5,-0.5 148.5,-19.5 221.5,-19.5 221.5,-0.5 148.5,-0.5"/>
<text text-anchor="middle" x="185" y="-7.5" font-family="Helvetica,sans-Serif" font-size="10.00">stl/TreeSet.h</text>
</a>
</g>
</g>
<!-- Node12&#45;&gt;Node14 -->
<g id="edge13" class="edge"><title>Node12&#45;&gt;Node14</title>
<path fill="none" stroke="midnightblue" d="M192.8,-46.1005C190.808,-37.1357 188.524,-26.8579 186.945,-19.7511"/>
<polygon fill="midnightblue" stroke="midnightblue" points="189.432,-47.0804 195.018,-56.083 196.266,-45.5618 189.432,-47.0804"/>
</g>
<!-- Node15&#45;&gt;Node10 -->
<g id="edge15" class="edge"><title>Node15&#45;&gt;Node10</title>
<path fill="none" stroke="midnightblue" d="M504.446,-161.82C492.622,-152.145 477.714,-139.948 467.797,-131.834"/>
<polygon fill="midnightblue" stroke="midnightblue" points="502.44,-164.7 512.396,-168.324 506.873,-159.283 502.44,-164.7"/>
</g>
<!-- Node15&#45;&gt;Node16 -->
<g id="edge16" class="edge"><title>Node15&#45;&gt;Node16</title>
<path fill="none" stroke="midnightblue" d="M562.973,-165.699C599.021,-155.507 651.243,-140.743 683.877,-131.516"/>
<polygon fill="midnightblue" stroke="midnightblue" points="561.935,-162.355 553.265,-168.444 563.84,-169.091 561.935,-162.355"/>
</g>
<!-- Node18 -->
<g id="node18" class="node"><title>Node18</title>
<g id="a_node18"><a xlink:href="../../d5/d7a/_open_map_8h.html" target="_top" xlink:title="Hash map implementation. ">
<polygon fill="white" stroke="black" points="566,-56.5 566,-75.5 646,-75.5 646,-56.5 566,-56.5"/>
<text text-anchor="middle" x="606" y="-63.5" font-family="Helvetica,sans-Serif" font-size="10.00">stl/OpenMap.h</text>
</a>
</g>
</g>
<!-- Node15&#45;&gt;Node18 -->
<g id="edge18" class="edge"><title>Node15&#45;&gt;Node18</title>
<path fill="none" stroke="midnightblue" d="M535.622,-160.272C553.563,-136.494 585.787,-93.7889 599.517,-75.5914"/>
<polygon fill="midnightblue" stroke="midnightblue" points="532.742,-158.278 529.513,-168.368 538.33,-162.494 532.742,-158.278"/>
</g>
<!-- Node15&#45;&gt;Node19 -->
<g id="edge19" class="edge"><title>Node15&#45;&gt;Node19</title>
<path fill="none" stroke="midnightblue" d="M486.168,-165.436C453.738,-155.255 407.263,-140.664 378.126,-131.516"/>
<polygon fill="midnightblue" stroke="midnightblue" points="485.157,-168.787 495.746,-168.444 487.254,-162.109 485.157,-168.787"/>
</g>
<!-- Node15&#45;&gt;Node20 -->
<g id="edge22" class="edge"><title>Node15&#45;&gt;Node20</title>
<path fill="none" stroke="midnightblue" d="M524.291,-157.796C524.177,-143.363 521.546,-124.077 510,-112 490.545,-91.6488 414.269,-78.2529 366.853,-71.7058"/>
<polygon fill="midnightblue" stroke="midnightblue" points="520.783,-157.994 523.966,-168.1 527.78,-158.215 520.783,-157.994"/>
</g>
<!-- Node17 -->
<g id="node17" class="node"><title>Node17</title>
<g id="a_node17"><a xlink:href="../../d6/d59/_chain_set_8h.html" target="_top" xlink:title="Hash set implementation. ">
<polygon fill="white" stroke="black" points="674.5,-56.5 674.5,-75.5 753.5,-75.5 753.5,-56.5 674.5,-56.5"/>
<text text-anchor="middle" x="714" y="-63.5" font-family="Helvetica,sans-Serif" font-size="10.00">stl/ChainSet.h</text>
</a>
</g>
</g>
<!-- Node16&#45;&gt;Node17 -->
<g id="edge17" class="edge"><title>Node16&#45;&gt;Node17</title>
<path fill="none" stroke="midnightblue" d="M714,-101.805C714,-92.9102 714,-82.7798 714,-75.7511"/>
<polygon fill="midnightblue" stroke="midnightblue" points="710.5,-102.083 714,-112.083 717.5,-102.083 710.5,-102.083"/>
</g>
<!-- Node19&#45;&gt;Node18 -->
<g id="edge20" class="edge"><title>Node19&#45;&gt;Node18</title>
<path fill="none" stroke="midnightblue" d="M401.312,-110.346C449.503,-100.141 521.283,-84.94 565.784,-75.5164"/>
<polygon fill="midnightblue" stroke="midnightblue" points="400.463,-106.948 391.406,-112.444 401.914,-113.796 400.463,-106.948"/>
</g>
<!-- Node19&#45;&gt;Node20 -->
<g id="edge21" class="edge"><title>Node19&#45;&gt;Node20</title>
<path fill="none" stroke="midnightblue" d="M343.201,-102.69C339.325,-93.589 334.821,-83.0141 331.727,-75.7511"/>
<polygon fill="midnightblue" stroke="midnightblue" points="340.063,-104.254 347.202,-112.083 346.503,-101.511 340.063,-104.254"/>
</g>
<!-- Node21&#45;&gt;Node16 -->
<g id="edge24" class="edge"><title>Node21&#45;&gt;Node16</title>
<path fill="none" stroke="midnightblue" d="M630.762,-163.862C651.159,-153.849 678.666,-140.346 696.37,-131.655"/>
<polygon fill="midnightblue" stroke="midnightblue" points="629.108,-160.775 621.673,-168.324 632.192,-167.059 629.108,-160.775"/>
</g>
<!-- Node21&#45;&gt;Node18 -->
<g id="edge25" class="edge"><title>Node21&#45;&gt;Node18</title>
<path fill="none" stroke="midnightblue" d="M612.057,-158.827C615.205,-150.778 618.432,-141.09 620,-132 623.493,-111.752 615.36,-88.2362 610.08,-75.7863"/>
<polygon fill="midnightblue" stroke="midnightblue" points="608.735,-157.701 608.111,-168.277 615.194,-160.398 608.735,-157.701"/>
</g>
<!-- Node21&#45;&gt;Node19 -->
<g id="edge26" class="edge"><title>Node21&#45;&gt;Node19</title>
<path fill="none" stroke="midnightblue" d="M562.526,-167.91C496.737,-153.725 432.265,-140.095 391.66,-131.543"/>
<polygon fill="midnightblue" stroke="midnightblue" points="562.152,-171.41 572.666,-170.098 563.629,-164.567 562.152,-171.41"/>
</g>
<!-- Node21&#45;&gt;Node20 -->
<g id="edge27" class="edge"><title>Node21&#45;&gt;Node20</title>
<path fill="none" stroke="midnightblue" d="M590.082,-160.793C576.327,-145.833 553.926,-124.153 530,-112 477.304,-85.2346 408.924,-74.2862 366.774,-69.879"/>
<polygon fill="midnightblue" stroke="midnightblue" points="587.519,-163.177 596.788,-168.309 592.742,-158.517 587.519,-163.177"/>
</g>
<!-- Node23&#45;&gt;Node13 -->
<g id="edge38" class="edge"><title>Node23&#45;&gt;Node13</title>
<path fill="none" stroke="midnightblue" d="M59.8705,-214.412C61.0664,-190.634 63.4776,-148.194 67,-112 70.3393,-77.6873 76.1342,-37.0461 78.7062,-19.6262"/>
<polygon fill="midnightblue" stroke="midnightblue" points="56.371,-214.319 59.3815,-224.477 63.3628,-214.658 56.371,-214.319"/>
</g>
<!-- Node23&#45;&gt;Node24 -->
<g id="edge34" class="edge"><title>Node23&#45;&gt;Node24</title>
<path fill="none" stroke="midnightblue" d="M66.8554,-214.998C77.3287,-190.997 95.4502,-149.468 103.251,-131.591"/>
<polygon fill="midnightblue" stroke="midnightblue" points="63.5581,-213.803 62.7665,-224.368 69.9739,-216.603 63.5581,-213.803"/>
</g>
<!-- Node24&#45;&gt;Node13 -->
<g id="edge36" class="edge"><title>Node24&#45;&gt;Node13</title>
<path fill="none" stroke="midnightblue" d="M102.422,-102.348C96.5077,-78.2538 86.4574,-37.3079 82.1088,-19.5914"/>
<polygon fill="midnightblue" stroke="midnightblue" points="99.0984,-103.491 104.881,-112.368 105.897,-101.822 99.0984,-103.491"/>
</g>
<!-- Node24&#45;&gt;Node14 -->
<g id="edge37" class="edge"><title>Node24&#45;&gt;Node14</title>
<path fill="none" stroke="midnightblue" d="M113.231,-102.785C118.389,-89.1642 126.556,-70.4744 137,-56 147.427,-41.5493 162.97,-28.0002 173.522,-19.6199"/>
<polygon fill="midnightblue" stroke="midnightblue" points="109.848,-101.85 109.753,-112.445 116.434,-104.221 109.848,-101.85"/>
</g>
<!-- Node24&#45;&gt;Node20 -->
<g id="edge35" class="edge"><title>Node24&#45;&gt;Node20</title>
<path fill="none" stroke="midnightblue" d="M148.026,-110.976C189.704,-100.792 253.568,-85.1871 292.952,-75.5637"/>
<polygon fill="midnightblue" stroke="midnightblue" points="147.079,-107.604 138.195,-113.378 148.74,-114.404 147.079,-107.604"/>
</g>
<!-- Node25&#45;&gt;Node6 -->
<g id="edge41" class="edge"><title>Node25&#45;&gt;Node6</title>
<path fill="none" stroke="midnightblue" d="M804.379,-382.434C803.55,-358.679 801.958,-316.264 800,-280 799.316,-267.334 798.296,-252.678 797.64,-243.623"/>
<polygon fill="midnightblue" stroke="midnightblue" points="800.883,-382.613 804.722,-392.488 807.878,-382.374 800.883,-382.613"/>
</g>
<!-- Node25&#45;&gt;Node12 -->
<g id="edge50" class="edge"><title>Node25&#45;&gt;Node12</title>
<path fill="none" stroke="midnightblue" d="M788.978,-385.074C774.249,-370.997 751.37,-350.505 729,-336 640.259,-278.459 391.553,-183.185 299,-132 265.557,-113.505 228.111,-88.4543 209.258,-75.5175"/>
<polygon fill="midnightblue" stroke="midnightblue" points="786.655,-387.697 796.266,-392.156 791.533,-382.677 786.655,-387.697"/>
</g>
<!-- Node25&#45;&gt;Node16 -->
<g id="edge47" class="edge"><title>Node25&#45;&gt;Node16</title>
<path fill="none" stroke="midnightblue" d="M864.477,-401.437C946.874,-400.627 1089.33,-393.639 1122,-356 1127.83,-349.287 1126.32,-343.77 1122,-336 1045.17,-197.698 843.116,-145.914 755.507,-129.549"/>
<polygon fill="midnightblue" stroke="midnightblue" points="864.223,-397.938 854.248,-401.509 864.272,-404.938 864.223,-397.938"/>
</g>
<!-- Node25&#45;&gt;Node19 -->
<g id="edge49" class="edge"><title>Node25&#45;&gt;Node19</title>
<path fill="none" stroke="midnightblue" d="M795.822,-383.169C788.076,-369.254 776.025,-349.999 762,-336 657.335,-231.533 596.187,-254.294 464,-188 427.181,-169.534 385.6,-144.471 364.638,-131.525"/>
<polygon fill="midnightblue" stroke="midnightblue" points="792.857,-385.048 800.667,-392.207 799.027,-381.74 792.857,-385.048"/>
</g>
<!-- Node26 -->
<g id="node26" class="node"><title>Node26</title>
<g id="a_node26"><a xlink:href="../../d7/d9e/_exceptions_8cpp.html" target="_top" xlink:title="Implementation of Exceptions using C style. ">
<polygon fill="white" stroke="black" points="852,-336.5 852,-355.5 986,-355.5 986,-336.5 852,-336.5"/>
<text text-anchor="middle" x="919" y="-343.5" font-family="Helvetica,sans-Serif" font-size="10.00">exceptions/Exceptions.cpp</text>
</a>
</g>
</g>
<!-- Node25&#45;&gt;Node26 -->
<g id="edge42" class="edge"><title>Node25&#45;&gt;Node26</title>
<path fill="none" stroke="midnightblue" d="M832.242,-388.096C853.54,-378.007 882.542,-364.27 901.021,-355.516"/>
<polygon fill="midnightblue" stroke="midnightblue" points="830.603,-385 823.064,-392.444 833.599,-391.326 830.603,-385"/>
</g>
<!-- Node25&#45;&gt;Node27 -->
<g id="edge43" class="edge"><title>Node25&#45;&gt;Node27</title>
<path fill="none" stroke="midnightblue" d="M864.256,-396.554C956.345,-389.418 1139.32,-374.332 1294,-356 1297.24,-355.616 1300.57,-355.198 1303.93,-354.76"/>
<polygon fill="midnightblue" stroke="midnightblue" points="863.722,-393.085 854.021,-397.344 864.261,-400.064 863.722,-393.085"/>
</g>
<!-- Node28 -->
<g id="node28" class="node"><title>Node28</title>
<g id="a_node28"><a xlink:href="../../df/d64/_memory_8cpp.html" target="_top" xlink:title="Implementation of Memory functions. ">
<polygon fill="white" stroke="black" points="1004.5,-336.5 1004.5,-355.5 1113.5,-355.5 1113.5,-336.5 1004.5,-336.5"/>
<text text-anchor="middle" x="1059" y="-343.5" font-family="Helvetica,sans-Serif" font-size="10.00">memory/Memory.cpp</text>
</a>
</g>
</g>
<!-- Node25&#45;&gt;Node28 -->
<g id="edge44" class="edge"><title>Node25&#45;&gt;Node28</title>
<path fill="none" stroke="midnightblue" d="M855.115,-390.346C903.117,-380.141 974.615,-364.94 1018.94,-355.516"/>
<polygon fill="midnightblue" stroke="midnightblue" points="854.301,-386.94 845.247,-392.444 855.756,-393.787 854.301,-386.94"/>
</g>
<!-- Node25&#45;&gt;Node29 -->
<g id="edge45" class="edge"><title>Node25&#45;&gt;Node29</title>
<path fill="none" stroke="midnightblue" d="M864.404,-393.743C956.38,-382.506 1130.71,-361.207 1208.2,-351.741"/>
<polygon fill="midnightblue" stroke="midnightblue" points="863.918,-390.276 854.416,-394.963 864.767,-397.224 863.918,-390.276"/>
</g>
<!-- Node25&#45;&gt;Node30 -->
<g id="edge48" class="edge"><title>Node25&#45;&gt;Node30</title>
<path fill="none" stroke="midnightblue" d="M759.131,-390.088C716.245,-379.887 653.083,-364.861 613.801,-355.516"/>
<polygon fill="midnightblue" stroke="midnightblue" points="758.493,-393.534 769.031,-392.444 760.113,-386.724 758.493,-393.534"/>
</g>
<!-- Node31 -->
<g id="node31" class="node"><title>Node31</title>
<g id="a_node31"><a xlink:href="../../d8/df6/_unique_ptr_8h.html" target="_top" xlink:title="Unique pointer implementation. ">
<polygon fill="white" stroke="black" points="638,-336.5 638,-355.5 720,-355.5 720,-336.5 638,-336.5"/>
<text text-anchor="middle" x="679" y="-343.5" font-family="Helvetica,sans-Serif" font-size="10.00">stl/UniquePtr.h</text>
</a>
</g>
</g>
<!-- Node25&#45;&gt;Node31 -->
<g id="edge51" class="edge"><title>Node25&#45;&gt;Node31</title>
<path fill="none" stroke="midnightblue" d="M775.84,-388.503C752.219,-378.38 719.572,-364.388 698.872,-355.516"/>
<polygon fill="midnightblue" stroke="midnightblue" points="774.465,-391.721 785.035,-392.444 777.222,-385.287 774.465,-391.721"/>
</g>
<!-- Node29&#45;&gt;Node11 -->
<g id="edge46" class="edge"><title>Node29&#45;&gt;Node11</title>
<path fill="none" stroke="midnightblue" d="M1283.43,-332.579C1299.72,-325.364 1317.93,-314.735 1330,-300 1349.15,-276.617 1350,-265.225 1350,-235 1350,-235 1350,-235 1350,-177 1350,-139.188 1350,-94.0636 1350,-75.5578"/>
<polygon fill="midnightblue" stroke="midnightblue" points="1282.01,-329.376 1274.12,-336.439 1284.7,-335.843 1282.01,-329.376"/>
</g>
<!-- Node31&#45;&gt;Node32 -->
<g id="edge52" class="edge"><title>Node31&#45;&gt;Node32</title>
<path fill="none" stroke="midnightblue" d="M641.964,-333.304C609.743,-323.129 563.811,-308.625 534.969,-299.516"/>
<polygon fill="midnightblue" stroke="midnightblue" points="641.315,-336.77 651.905,-336.444 643.423,-330.095 641.315,-336.77"/>
</g>
<!-- Node34&#45;&gt;Node4 -->
<g id="edge63" class="edge"><title>Node34&#45;&gt;Node4</title>
<path fill="none" stroke="midnightblue" d="M1464,-381.805C1464,-372.91 1464,-362.78 1464,-355.751"/>
<polygon fill="midnightblue" stroke="midnightblue" points="1460.5,-382.083 1464,-392.083 1467.5,-382.083 1460.5,-382.083"/>
</g>
<!-- Node34&#45;&gt;Node11 -->
<g id="edge64" class="edge"><title>Node34&#45;&gt;Node11</title>
<path fill="none" stroke="midnightblue" d="M1483.73,-385.663C1492.85,-377.68 1503.14,-367.247 1510,-356 1525.73,-330.192 1530,-321.225 1530,-291 1530,-291 1530,-291 1530,-177 1530,-112.909 1445.89,-85.0395 1392.66,-73.8195"/>
<polygon fill="midnightblue" stroke="midnightblue" points="1481.26,-383.164 1475.82,-392.258 1485.74,-388.54 1481.26,-383.164"/>
</g>
</g>
</svg>
        <g id="navigator" transform="translate(0 0)" fill="#404254">
                <rect fill="#f2f5e9" fill-opacity="0.5" stroke="#606060" stroke-width=".5" x="0" y="0" width="60" height="60"/>
                <use id="zoomplus" xlink:href="#zoomPlus" x="17" y="9" onmousedown="handleZoom(evt,'in')"/>
                <use id="zoomminus" xlink:href="#zoomMin" x="42" y="9" onmousedown="handleZoom(evt,'out')"/>
                <use id="reset" xlink:href="#resetDef" x="30" y="36" onmousedown="handleReset()"/>
                <g id="arrowUp" xlink:href="#dirArrow" transform="translate(30 24)" onmousedown="handlePan(0,-1)">
                  <use xlink:href="#rim" fill="#404040">
                        <set attributeName="fill" to="#808080" begin="arrowUp.mouseover" end="arrowUp.mouseout"/>
                  </use>
                  <path fill="none" stroke="white" stroke-width="1.5" d="M0,-3.0v7 M-2.5,-0.5L0,-3.0L2.5,-0.5"/>
                </g>
                <g id="arrowRight" xlink:href="#dirArrow" transform="rotate(90) translate(36 -43)" onmousedown="handlePan(1,0)">
                  <use xlink:href="#rim" fill="#404040">
                        <set attributeName="fill" to="#808080" begin="arrowRight.mouseover" end="arrowRight.mouseout"/>
                  </use>
                  <path fill="none" stroke="white" stroke-width="1.5" d="M0,-3.0v7 M-2.5,-0.5L0,-3.0L2.5,-0.5"/>
                </g>
                <g id="arrowDown" xlink:href="#dirArrow" transform="rotate(180) translate(-30 -48)" onmousedown="handlePan(0,1)">
                  <use xlink:href="#rim" fill="#404040">
                        <set attributeName="fill" to="#808080" begin="arrowDown.mouseover" end="arrowDown.mouseout"/>
                  </use>
                  <path fill="none" stroke="white" stroke-width="1.5" d="M0,-3.0v7 M-2.5,-0.5L0,-3.0L2.5,-0.5"/>
                </g>
                <g id="arrowLeft" xlink:href="#dirArrow" transform="rotate(270) translate(-36 17)" onmousedown="handlePan(-1,0)">
                  <use xlink:href="#rim" fill="#404040">
                        <set attributeName="fill" to="#808080" begin="arrowLeft.mouseover" end="arrowLeft.mouseout"/>
                  </use>
                  <path fill="none" stroke="white" stroke-width="1.5" d="M0,-3.0v7 M-2.5,-0.5L0,-3.0L2.5,-0.5"/>
                </g>
        </g>
        <svg viewBox="0 0 15 15" width="100%" height="30px" preserveAspectRatio="xMaxYMin meet">
         <g id="arrow_out" transform="scale(0.3 0.3)">
          <a xlink:href="_tmp_8h__dep__incl_org.svg" target="_base">
           <rect id="button" ry="5" rx="5" y="6" x="6" height="38" width="38"
                fill="#f2f5e9" fill-opacity="0.5" stroke="#606060" stroke-width="1.0"/>
           <path id="arrow"
             d="M 11.500037,31.436501 C 11.940474,20.09759 22.043105,11.32322 32.158766,21.979434 L 37.068811,17.246167 C 37.068811,17.246167 37.088388,32 37.088388,32 L 22.160133,31.978069 C 22.160133,31.978069 26.997745,27.140456 26.997745,27.140456 C 18.528582,18.264221 13.291696,25.230495 11.500037,31.436501 z"
             style="fill:#404040;"/>
          </a>
         </g>
        </svg>
</svg>
