<?xml version="1.0" encoding="UTF-8" standalone="no"?>
<!DOCTYPE svg PUBLIC "-//W3C//DTD SVG 1.1//EN"
 "http://www.w3.org/Graphics/SVG/1.1/DTD/svg11.dtd">
<!-- Generated by graphviz version 2.36.0 (20140111.2315)
 -->
<!-- Title: wlib/utility/Tmp.h Pages: 1 -->
<svg width="2061pt" height="532pt"
 viewBox="0.00 0.00 2061.00 532.00" xmlns="http://www.w3.org/2000/svg" xmlns:xlink="http://www.w3.org/1999/xlink">
<g id="graph0" class="graph" transform="scale(1 1) rotate(0) translate(4 528)">
<title>wlib/utility/Tmp.h</title>
<polygon fill="white" stroke="none" points="-4,4 -4,-528 2057,-528 2057,4 -4,4"/>
<!-- Node1 -->
<g id="node1" class="node"><title>Node1</title>
<polygon fill="#bfbfbf" stroke="black" points="1140.5,-504.5 1140.5,-523.5 1231.5,-523.5 1231.5,-504.5 1140.5,-504.5"/>
<text text-anchor="middle" x="1186" y="-511.5" font-family="Helvetica,sans-Serif" font-size="10.00">wlib/utility/Tmp.h</text>
</g>
<!-- Node2 -->
<g id="node2" class="node"><title>Node2</title>
<g id="a_node2"><a xlink:href="../../df/dcf/_state_machine_8h.html" target="_top" xlink:title="wlib/fsm/StateMachine.h">
<polygon fill="white" stroke="black" points="158.5,-336.5 158.5,-355.5 283.5,-355.5 283.5,-336.5 158.5,-336.5"/>
<text text-anchor="middle" x="221" y="-343.5" font-family="Helvetica,sans-Serif" font-size="10.00">wlib/fsm/StateMachine.h</text>
</a>
</g>
</g>
<!-- Node1&#45;&gt;Node2 -->
<g id="edge1" class="edge"><title>Node1&#45;&gt;Node2</title>
<path fill="none" stroke="midnightblue" d="M1130.56,-503.464C958.401,-473.848 434.686,-383.758 270.664,-355.543"/>
<polygon fill="midnightblue" stroke="midnightblue" points="1129.98,-506.915 1140.43,-505.161 1131.17,-500.016 1129.98,-506.915"/>
</g>
<!-- Node3 -->
<g id="node3" class="node"><title>Node3</title>
<g id="a_node3"><a xlink:href="../../d3/de6/_memory_8h.html" target="_top" xlink:title="Memory is a class that provides dynamic fixed size memory. ">
<polygon fill="white" stroke="black" points="707.5,-392.5 707.5,-411.5 826.5,-411.5 826.5,-392.5 707.5,-392.5"/>
<text text-anchor="middle" x="767" y="-399.5" font-family="Helvetica,sans-Serif" font-size="10.00">wlib/memory/Memory.h</text>
</a>
</g>
</g>
<!-- Node1&#45;&gt;Node3 -->
<g id="edge2" class="edge"><title>Node1&#45;&gt;Node3</title>
<path fill="none" stroke="midnightblue" d="M1143.78,-501.916C1060.05,-479.934 874.596,-431.247 799.509,-411.535"/>
<polygon fill="midnightblue" stroke="midnightblue" points="1142.91,-505.306 1153.47,-504.46 1144.69,-498.535 1142.91,-505.306"/>
</g>
<!-- Node16 -->
<g id="node16" class="node"><title>Node16</title>
<g id="a_node16"><a xlink:href="../../d1/d13/_shared_ptr_8h.html" target="_top" xlink:title="Shared pointer implementation. ">
<polygon fill="white" stroke="black" points="0,-280.5 0,-299.5 102,-299.5 102,-280.5 0,-280.5"/>
<text text-anchor="middle" x="51" y="-287.5" font-family="Helvetica,sans-Serif" font-size="10.00">wlib/stl/SharedPtr.h</text>
</a>
</g>
</g>
<!-- Node1&#45;&gt;Node16 -->
<g id="edge59" class="edge"><title>Node1&#45;&gt;Node16</title>
<path fill="none" stroke="midnightblue" d="M1130.14,-513.21C936.771,-513.099 298.079,-505.506 120,-412 75.4664,-388.616 57.7491,-323.352 52.6708,-299.7"/>
<polygon fill="midnightblue" stroke="midnightblue" points="1130.35,-516.71 1140.35,-513.209 1130.35,-509.71 1130.35,-516.71"/>
</g>
<!-- Node28 -->
<g id="node28" class="node"><title>Node28</title>
<g id="a_node28"><a xlink:href="../../d4/dd5/_type_traits_8h.html" target="_top" xlink:title="Metafunctions for types. ">
<polygon fill="white" stroke="black" points="883.5,-392.5 883.5,-411.5 988.5,-411.5 988.5,-392.5 883.5,-392.5"/>
<text text-anchor="middle" x="936" y="-399.5" font-family="Helvetica,sans-Serif" font-size="10.00">wlib/stl/TypeTraits.h</text>
</a>
</g>
</g>
<!-- Node1&#45;&gt;Node28 -->
<g id="edge42" class="edge"><title>Node1&#45;&gt;Node28</title>
<path fill="none" stroke="midnightblue" d="M1157.15,-500.305C1105.68,-477.66 999.344,-430.871 955.526,-411.591"/>
<polygon fill="midnightblue" stroke="midnightblue" points="1155.82,-503.545 1166.38,-504.368 1158.64,-497.137 1155.82,-503.545"/>
</g>
<!-- Node29 -->
<g id="node29" class="node"><title>Node29</title>
<g id="a_node29"><a xlink:href="../../d8/dd7/_concept_8h.html" target="_top" xlink:title="Concept definitions. ">
<polygon fill="white" stroke="black" points="1133.5,-336.5 1133.5,-355.5 1228.5,-355.5 1228.5,-336.5 1133.5,-336.5"/>
<text text-anchor="middle" x="1181" y="-343.5" font-family="Helvetica,sans-Serif" font-size="10.00">wlib/stl/Concept.h</text>
</a>
</g>
</g>
<!-- Node1&#45;&gt;Node29 -->
<g id="edge48" class="edge"><title>Node1&#45;&gt;Node29</title>
<path fill="none" stroke="midnightblue" d="M1212.67,-499.221C1224.25,-491.697 1236.6,-481.2 1243,-468 1246.88,-460.001 1244.79,-456.707 1243,-448 1237.56,-421.475 1233.22,-415.041 1219,-392 1210.51,-378.253 1198.03,-364.333 1189.71,-355.691"/>
<polygon fill="midnightblue" stroke="midnightblue" points="1210.84,-496.235 1204.08,-504.39 1214.45,-502.232 1210.84,-496.235"/>
</g>
<!-- Node31 -->
<g id="node31" class="node"><title>Node31</title>
<g id="a_node31"><a xlink:href="../../d7/d2a/_tuple_8h.html" target="_top" xlink:title="Template oriented tuple implementation. ">
<polygon fill="white" stroke="black" points="1827.5,-168.5 1827.5,-187.5 1910.5,-187.5 1910.5,-168.5 1827.5,-168.5"/>
<text text-anchor="middle" x="1869" y="-175.5" font-family="Helvetica,sans-Serif" font-size="10.00">wlib/stl/Tuple.h</text>
</a>
</g>
</g>
<!-- Node1&#45;&gt;Node31 -->
<g id="edge49" class="edge"><title>Node1&#45;&gt;Node31</title>
<path fill="none" stroke="midnightblue" d="M1241.99,-512.846C1392.98,-511.924 1805.9,-505.905 1936,-468 1993.11,-451.36 2053,-462.486 2053,-403 2053,-403 2053,-403 2053,-345 2053,-259.814 1942.93,-207.098 1893.05,-187.584"/>
<polygon fill="midnightblue" stroke="midnightblue" points="1241.56,-509.349 1231.58,-512.904 1241.6,-516.349 1241.56,-509.349"/>
</g>
<!-- Node32 -->
<g id="node32" class="node"><title>Node32</title>
<g id="a_node32"><a xlink:href="../../d9/d37/_table_8h.html" target="_top" xlink:title="wlib/stl/Table.h">
<polygon fill="white" stroke="black" points="1751.5,-112.5 1751.5,-131.5 1834.5,-131.5 1834.5,-112.5 1751.5,-112.5"/>
<text text-anchor="middle" x="1793" y="-119.5" font-family="Helvetica,sans-Serif" font-size="10.00">wlib/stl/Table.h</text>
</a>
</g>
</g>
<!-- Node1&#45;&gt;Node32 -->
<g id="edge58" class="edge"><title>Node1&#45;&gt;Node32</title>
<path fill="none" stroke="midnightblue" d="M1241.57,-508.858C1392.53,-496.867 1799,-459.349 1799,-403 1799,-403 1799,-403 1799,-233 1799,-195.131 1795.41,-150.038 1793.78,-131.549"/>
<polygon fill="midnightblue" stroke="midnightblue" points="1241.27,-505.371 1231.57,-509.644 1241.82,-512.349 1241.27,-505.371"/>
</g>
<!-- Node33 -->
<g id="node33" class="node"><title>Node33</title>
<g id="a_node33"><a xlink:href="../../d1/dae/_vector2_d_8h.html" target="_top" xlink:title="wlib/stl/Vector2D.h">
<polygon fill="white" stroke="black" points="1827,-448.5 1827,-467.5 1927,-467.5 1927,-448.5 1827,-448.5"/>
<text text-anchor="middle" x="1877" y="-455.5" font-family="Helvetica,sans-Serif" font-size="10.00">wlib/stl/Vector2D.h</text>
</a>
</g>
</g>
<!-- Node1&#45;&gt;Node33 -->
<g id="edge60" class="edge"><title>Node1&#45;&gt;Node33</title>
<path fill="none" stroke="midnightblue" d="M1241.89,-510.268C1351.59,-504.623 1602.73,-490.304 1813,-468 1817.46,-467.527 1822.09,-466.981 1826.73,-466.398"/>
<polygon fill="midnightblue" stroke="midnightblue" points="1241.53,-506.782 1231.72,-510.787 1241.89,-513.773 1241.53,-506.782"/>
</g>
<!-- Node34 -->
<g id="node34" class="node"><title>Node34</title>
<g id="a_node34"><a xlink:href="../../db/d2a/_utility_8h.html" target="_top" xlink:title="Various helper functions. ">
<polygon fill="white" stroke="black" points="1137.5,-448.5 1137.5,-467.5 1234.5,-467.5 1234.5,-448.5 1137.5,-448.5"/>
<text text-anchor="middle" x="1186" y="-455.5" font-family="Helvetica,sans-Serif" font-size="10.00">wlib/utility/Utility.h</text>
</a>
</g>
</g>
<!-- Node1&#45;&gt;Node34 -->
<g id="edge61" class="edge"><title>Node1&#45;&gt;Node34</title>
<path fill="none" stroke="midnightblue" d="M1186,-493.805C1186,-484.91 1186,-474.78 1186,-467.751"/>
<polygon fill="midnightblue" stroke="midnightblue" points="1182.5,-494.083 1186,-504.083 1189.5,-494.083 1182.5,-494.083"/>
</g>
<!-- Node3&#45;&gt;Node2 -->
<g id="edge4" class="edge"><title>Node3&#45;&gt;Node2</title>
<path fill="none" stroke="midnightblue" d="M697.229,-395.086C604.566,-387.072 435.834,-371.925 292,-356 289.283,-355.699 286.509,-355.384 283.707,-355.058"/>
<polygon fill="midnightblue" stroke="midnightblue" points="697.06,-398.584 707.324,-395.957 697.662,-391.61 697.06,-398.584"/>
</g>
<!-- Node4 -->
<g id="node4" class="node"><title>Node4</title>
<g id="a_node4"><a xlink:href="../../d7/d9e/_exceptions_8cpp.html" target="_top" xlink:title="Implementation of Exceptions using C style. ">
<polygon fill="white" stroke="black" points="301.5,-336.5 301.5,-355.5 456.5,-355.5 456.5,-336.5 301.5,-336.5"/>
<text text-anchor="middle" x="379" y="-343.5" font-family="Helvetica,sans-Serif" font-size="10.00">wlib/exceptions/Exceptions.cpp</text>
</a>
</g>
</g>
<!-- Node3&#45;&gt;Node4 -->
<g id="edge3" class="edge"><title>Node3&#45;&gt;Node4</title>
<path fill="none" stroke="midnightblue" d="M697.168,-391.281C623.918,-381.086 509.93,-365.222 440.124,-355.507"/>
<polygon fill="midnightblue" stroke="midnightblue" points="696.838,-394.769 707.225,-392.681 697.803,-387.836 696.838,-394.769"/>
</g>
<!-- Node5 -->
<g id="node5" class="node"><title>Node5</title>
<g id="a_node5"><a xlink:href="../../df/d64/_memory_8cpp.html" target="_top" xlink:title="Implementation of Memory functions. ">
<polygon fill="white" stroke="black" points="595.5,-336.5 595.5,-355.5 724.5,-355.5 724.5,-336.5 595.5,-336.5"/>
<text text-anchor="middle" x="660" y="-343.5" font-family="Helvetica,sans-Serif" font-size="10.00">wlib/memory/Memory.cpp</text>
</a>
</g>
</g>
<!-- Node3&#45;&gt;Node5 -->
<g id="edge5" class="edge"><title>Node3&#45;&gt;Node5</title>
<path fill="none" stroke="midnightblue" d="M740.698,-387.726C720.885,-377.727 694.293,-364.307 677.149,-355.655"/>
<polygon fill="midnightblue" stroke="midnightblue" points="739.304,-390.943 749.809,-392.324 742.458,-384.694 739.304,-390.943"/>
</g>
<!-- Node6 -->
<g id="node6" class="node"><title>Node6</title>
<g id="a_node6"><a xlink:href="../../d2/db9/_array_list_8h.html" target="_top" xlink:title="List implementation using an array. ">
<polygon fill="white" stroke="black" points="781,-336.5 781,-355.5 879,-355.5 879,-336.5 781,-336.5"/>
<text text-anchor="middle" x="830" y="-343.5" font-family="Helvetica,sans-Serif" font-size="10.00">wlib/stl/ArrayList.h</text>
</a>
</g>
</g>
<!-- Node3&#45;&gt;Node6 -->
<g id="edge6" class="edge"><title>Node3&#45;&gt;Node6</title>
<path fill="none" stroke="midnightblue" d="M785.04,-385.537C796.273,-375.909 810.319,-363.869 819.694,-355.834"/>
<polygon fill="midnightblue" stroke="midnightblue" points="782.437,-383.159 777.122,-392.324 786.992,-388.473 782.437,-383.159"/>
</g>
<!-- Node8 -->
<g id="node8" class="node"><title>Node8</title>
<g id="a_node8"><a xlink:href="../../de/dc6/_linked_list_8h.html" target="_top" xlink:title="wlib/stl/LinkedList.h">
<polygon fill="white" stroke="black" points="935.5,-336.5 935.5,-355.5 1038.5,-355.5 1038.5,-336.5 935.5,-336.5"/>
<text text-anchor="middle" x="987" y="-343.5" font-family="Helvetica,sans-Serif" font-size="10.00">wlib/stl/LinkedList.h</text>
</a>
</g>
</g>
<!-- Node3&#45;&gt;Node8 -->
<g id="edge8" class="edge"><title>Node3&#45;&gt;Node8</title>
<path fill="none" stroke="midnightblue" d="M811.718,-390.024C853.276,-379.823 914.313,-364.841 952.303,-355.516"/>
<polygon fill="midnightblue" stroke="midnightblue" points="810.737,-386.661 801.86,-392.444 812.406,-393.459 810.737,-386.661"/>
</g>
<!-- Node9 -->
<g id="node9" class="node"><title>Node9</title>
<g id="a_node9"><a xlink:href="../../d8/d2e/_open_table_8h.html" target="_top" xlink:title="wlib/stl/OpenTable.h">
<polygon fill="white" stroke="black" points="919,-112.5 919,-131.5 1025,-131.5 1025,-112.5 919,-112.5"/>
<text text-anchor="middle" x="972" y="-119.5" font-family="Helvetica,sans-Serif" font-size="10.00">wlib/stl/OpenTable.h</text>
</a>
</g>
</g>
<!-- Node3&#45;&gt;Node9 -->
<g id="edge9" class="edge"><title>Node3&#45;&gt;Node9</title>
<path fill="none" stroke="midnightblue" d="M763.219,-382.644C759.073,-360.879 753,-323.459 753,-291 753,-291 753,-291 753,-233 753,-193.985 778.82,-188.524 812,-168 844.516,-147.887 886.234,-136.539 918.919,-130.271"/>
<polygon fill="midnightblue" stroke="midnightblue" points="759.793,-383.36 765.17,-392.489 766.66,-382 759.793,-383.36"/>
</g>
<!-- Node12 -->
<g id="node12" class="node"><title>Node12</title>
<g id="a_node12"><a xlink:href="../../d5/d08/_red_black_tree_8h.html" target="_top" xlink:title="Red black tree implementation. ">
<polygon fill="white" stroke="black" points="1929.5,-56.5 1929.5,-75.5 2050.5,-75.5 2050.5,-56.5 1929.5,-56.5"/>
<text text-anchor="middle" x="1990" y="-63.5" font-family="Helvetica,sans-Serif" font-size="10.00">wlib/stl/RedBlackTree.h</text>
</a>
</g>
</g>
<!-- Node3&#45;&gt;Node12 -->
<g id="edge12" class="edge"><title>Node3&#45;&gt;Node12</title>
<path fill="none" stroke="midnightblue" d="M837.027,-394.865C958.405,-384.146 1198.62,-362.528 1237,-356 1544.75,-303.651 1668.76,-374.638 1919,-188 1959.22,-158.002 1980.68,-97.932 1987.54,-75.6114"/>
<polygon fill="midnightblue" stroke="midnightblue" points="836.379,-391.408 826.725,-395.774 836.994,-398.381 836.379,-391.408"/>
</g>
<!-- Node15 -->
<g id="node15" class="node"><title>Node15</title>
<g id="a_node15"><a xlink:href="../../d8/df6/_unique_ptr_8h.html" target="_top" xlink:title="Unique pointer implementation. ">
<polygon fill="white" stroke="black" points="475,-336.5 475,-355.5 577,-355.5 577,-336.5 475,-336.5"/>
<text text-anchor="middle" x="526" y="-343.5" font-family="Helvetica,sans-Serif" font-size="10.00">wlib/stl/UniquePtr.h</text>
</a>
</g>
</g>
<!-- Node3&#45;&gt;Node15 -->
<g id="edge15" class="edge"><title>Node3&#45;&gt;Node15</title>
<path fill="none" stroke="midnightblue" d="M718.877,-390.217C673.338,-380.013 605.89,-364.901 564.009,-355.516"/>
<polygon fill="midnightblue" stroke="midnightblue" points="718.29,-393.672 728.813,-392.444 719.82,-386.842 718.29,-393.672"/>
</g>
<!-- Node17 -->
<g id="node17" class="node"><title>Node17</title>
<g id="a_node17"><a xlink:href="../../db/db5/_string_8h.html" target="_top" xlink:title="wlib/strings/String.h">
<polygon fill="white" stroke="black" points="1046.5,-224.5 1046.5,-243.5 1149.5,-243.5 1149.5,-224.5 1046.5,-224.5"/>
<text text-anchor="middle" x="1098" y="-231.5" font-family="Helvetica,sans-Serif" font-size="10.00">wlib/strings/String.h</text>
</a>
</g>
</g>
<!-- Node3&#45;&gt;Node17 -->
<g id="edge17" class="edge"><title>Node3&#45;&gt;Node17</title>
<path fill="none" stroke="midnightblue" d="M803.21,-389.14C827.354,-380.817 859.572,-368.903 887,-356 927.026,-337.17 1042.85,-268.124 1083.61,-243.663"/>
<polygon fill="midnightblue" stroke="midnightblue" points="802.063,-385.833 793.725,-392.369 804.319,-392.46 802.063,-385.833"/>
</g>
<!-- Node7 -->
<g id="node7" class="node"><title>Node7</title>
<g id="a_node7"><a xlink:href="../../df/d03/_array_heap_8h.html" target="_top" xlink:title="Heap manipulation and implementation. ">
<polygon fill="white" stroke="black" points="619.5,-56.5 619.5,-75.5 724.5,-75.5 724.5,-56.5 619.5,-56.5"/>
<text text-anchor="middle" x="672" y="-63.5" font-family="Helvetica,sans-Serif" font-size="10.00">wlib/stl/ArrayHeap.h</text>
</a>
</g>
</g>
<!-- Node6&#45;&gt;Node7 -->
<g id="edge7" class="edge"><title>Node6&#45;&gt;Node7</title>
<path fill="none" stroke="midnightblue" d="M770.942,-336.321C714.84,-324.34 639,-296.728 639,-235 639,-235 639,-235 639,-177 639,-137.722 658.542,-93.7557 667.549,-75.5762"/>
<polygon fill="midnightblue" stroke="midnightblue" points="770.318,-339.765 780.813,-338.314 771.703,-332.904 770.318,-339.765"/>
</g>
<!-- Node10 -->
<g id="node10" class="node"><title>Node10</title>
<g id="a_node10"><a xlink:href="../../d5/d7a/_open_map_8h.html" target="_top" xlink:title="Hash map implementation. ">
<polygon fill="white" stroke="black" points="1130.5,-56.5 1130.5,-75.5 1231.5,-75.5 1231.5,-56.5 1130.5,-56.5"/>
<text text-anchor="middle" x="1181" y="-63.5" font-family="Helvetica,sans-Serif" font-size="10.00">wlib/stl/OpenMap.h</text>
</a>
</g>
</g>
<!-- Node9&#45;&gt;Node10 -->
<g id="edge10" class="edge"><title>Node9&#45;&gt;Node10</title>
<path fill="none" stroke="midnightblue" d="M1014.98,-109.894C1054.45,-99.6966 1112.1,-84.802 1148.04,-75.5164"/>
<polygon fill="midnightblue" stroke="midnightblue" points="1013.92,-106.553 1005.12,-112.444 1015.67,-113.331 1013.92,-106.553"/>
</g>
<!-- Node11 -->
<g id="node11" class="node"><title>Node11</title>
<g id="a_node11"><a xlink:href="../../d0/de6/_open_set_8h.html" target="_top" xlink:title="Hash set implementation. ">
<polygon fill="white" stroke="black" points="1285.5,-56.5 1285.5,-75.5 1382.5,-75.5 1382.5,-56.5 1285.5,-56.5"/>
<text text-anchor="middle" x="1334" y="-63.5" font-family="Helvetica,sans-Serif" font-size="10.00">wlib/stl/OpenSet.h</text>
</a>
</g>
</g>
<!-- Node9&#45;&gt;Node11 -->
<g id="edge11" class="edge"><title>Node9&#45;&gt;Node11</title>
<path fill="none" stroke="midnightblue" d="M1035.22,-111.569C1106.5,-100.936 1220.87,-83.8759 1285.47,-74.2392"/>
<polygon fill="midnightblue" stroke="midnightblue" points="1034.4,-108.153 1025.03,-113.09 1035.43,-115.076 1034.4,-108.153"/>
</g>
<!-- Node13 -->
<g id="node13" class="node"><title>Node13</title>
<g id="a_node13"><a xlink:href="../../df/d87/_tree_map_8h.html" target="_top" xlink:title="Map implementation using red black tree. ">
<polygon fill="white" stroke="black" points="1857.5,-0.5 1857.5,-19.5 1954.5,-19.5 1954.5,-0.5 1857.5,-0.5"/>
<text text-anchor="middle" x="1906" y="-7.5" font-family="Helvetica,sans-Serif" font-size="10.00">wlib/stl/TreeMap.h</text>
</a>
</g>
</g>
<!-- Node12&#45;&gt;Node13 -->
<g id="edge13" class="edge"><title>Node12&#45;&gt;Node13</title>
<path fill="none" stroke="midnightblue" d="M1968.07,-50.9005C1952.66,-40.9986 1932.55,-28.0705 1919.46,-19.6545"/>
<polygon fill="midnightblue" stroke="midnightblue" points="1966.2,-53.8605 1976.5,-56.324 1969.98,-47.9722 1966.2,-53.8605"/>
</g>
<!-- Node14 -->
<g id="node14" class="node"><title>Node14</title>
<g id="a_node14"><a xlink:href="../../dd/dba/_tree_set_8h.html" target="_top" xlink:title="Set implementation using red black tree. ">
<polygon fill="white" stroke="black" points="1746.5,-0.5 1746.5,-19.5 1839.5,-19.5 1839.5,-0.5 1746.5,-0.5"/>
<text text-anchor="middle" x="1793" y="-7.5" font-family="Helvetica,sans-Serif" font-size="10.00">wlib/stl/TreeSet.h</text>
</a>
</g>
</g>
<!-- Node12&#45;&gt;Node14 -->
<g id="edge14" class="edge"><title>Node12&#45;&gt;Node14</title>
<path fill="none" stroke="midnightblue" d="M1948.77,-53.6986C1911.59,-43.507 1857.73,-28.7429 1824.07,-19.5164"/>
<polygon fill="midnightblue" stroke="midnightblue" points="1948.22,-57.1754 1958.78,-56.4435 1950.07,-50.4244 1948.22,-57.1754"/>
</g>
<!-- Node15&#45;&gt;Node16 -->
<g id="edge16" class="edge"><title>Node15&#45;&gt;Node16</title>
<path fill="none" stroke="midnightblue" d="M464.467,-335.981C327,-318.523 178.386,-303.405 102.062,-295.916"/>
<polygon fill="midnightblue" stroke="midnightblue" points="464.402,-339.501 474.765,-337.296 465.288,-332.557 464.402,-339.501"/>
</g>
<!-- Node18 -->
<g id="node18" class="node"><title>Node18</title>
<g id="a_node18"><a xlink:href="../../d2/dc2/_equal_8h.html" target="_top" xlink:title="wlib/stl/Equal.h">
<polygon fill="white" stroke="black" points="1164.5,-168.5 1164.5,-187.5 1247.5,-187.5 1247.5,-168.5 1164.5,-168.5"/>
<text text-anchor="middle" x="1206" y="-175.5" font-family="Helvetica,sans-Serif" font-size="10.00">wlib/stl/Equal.h</text>
</a>
</g>
</g>
<!-- Node17&#45;&gt;Node18 -->
<g id="edge18" class="edge"><title>Node17&#45;&gt;Node18</title>
<path fill="none" stroke="midnightblue" d="M1124.55,-219.726C1144.55,-209.727 1171.39,-196.307 1188.69,-187.655"/>
<polygon fill="midnightblue" stroke="midnightblue" points="1122.73,-216.721 1115.35,-224.324 1125.86,-222.982 1122.73,-216.721"/>
</g>
<!-- Node19 -->
<g id="node19" class="node"><title>Node19</title>
<g id="a_node19"><a xlink:href="../../d7/d0c/_comparator_8h.html" target="_top" xlink:title="Comparator implementation for basic types. ">
<polygon fill="white" stroke="black" points="1043,-112.5 1043,-131.5 1153,-131.5 1153,-112.5 1043,-112.5"/>
<text text-anchor="middle" x="1098" y="-119.5" font-family="Helvetica,sans-Serif" font-size="10.00">wlib/stl/Comparator.h</text>
</a>
</g>
</g>
<!-- Node17&#45;&gt;Node19 -->
<g id="edge30" class="edge"><title>Node17&#45;&gt;Node19</title>
<path fill="none" stroke="midnightblue" d="M1098,-214.348C1098,-190.254 1098,-149.308 1098,-131.591"/>
<polygon fill="midnightblue" stroke="midnightblue" points="1094.5,-214.368 1098,-224.368 1101.5,-214.369 1094.5,-214.368"/>
</g>
<!-- Node23 -->
<g id="node23" class="node"><title>Node23</title>
<g id="a_node23"><a xlink:href="../../de/d6d/_bitset_8h.html" target="_top" xlink:title="Bitset is a class that provides bits manipulation methods. ">
<polygon fill="white" stroke="black" points="854,-168.5 854,-187.5 938,-187.5 938,-168.5 854,-168.5"/>
<text text-anchor="middle" x="896" y="-175.5" font-family="Helvetica,sans-Serif" font-size="10.00">wlib/stl/Bitset.h</text>
</a>
</g>
</g>
<!-- Node17&#45;&gt;Node23 -->
<g id="edge31" class="edge"><title>Node17&#45;&gt;Node23</title>
<path fill="none" stroke="midnightblue" d="M1056.21,-221.829C1018.07,-211.633 962.519,-196.782 927.858,-187.516"/>
<polygon fill="midnightblue" stroke="midnightblue" points="1055.43,-225.242 1065.99,-224.444 1057.24,-218.48 1055.43,-225.242"/>
</g>
<!-- Node26 -->
<g id="node26" class="node"><title>Node26</title>
<g id="a_node26"><a xlink:href="../../d2/dad/_hash_8h.html" target="_top" xlink:title="wlib/stl/Hash.h">
<polygon fill="white" stroke="black" points="1266,-168.5 1266,-187.5 1348,-187.5 1348,-168.5 1266,-168.5"/>
<text text-anchor="middle" x="1307" y="-175.5" font-family="Helvetica,sans-Serif" font-size="10.00">wlib/stl/Hash.h</text>
</a>
</g>
</g>
<!-- Node17&#45;&gt;Node26 -->
<g id="edge34" class="edge"><title>Node17&#45;&gt;Node26</title>
<path fill="none" stroke="midnightblue" d="M1140.98,-221.894C1180.45,-211.697 1238.1,-196.802 1274.04,-187.516"/>
<polygon fill="midnightblue" stroke="midnightblue" points="1139.92,-218.553 1131.12,-224.444 1141.67,-225.331 1139.92,-218.553"/>
</g>
<!-- Node27 -->
<g id="node27" class="node"><title>Node27</title>
<g id="a_node27"><a xlink:href="../../d9/dae/_string_8cpp.html" target="_top" xlink:title="wlib/strings/String.cpp">
<polygon fill="white" stroke="black" points="956.5,-168.5 956.5,-187.5 1069.5,-187.5 1069.5,-168.5 956.5,-168.5"/>
<text text-anchor="middle" x="1013" y="-175.5" font-family="Helvetica,sans-Serif" font-size="10.00">wlib/strings/String.cpp</text>
</a>
</g>
</g>
<!-- Node17&#45;&gt;Node27 -->
<g id="edge41" class="edge"><title>Node17&#45;&gt;Node27</title>
<path fill="none" stroke="midnightblue" d="M1075.81,-218.901C1060.22,-208.999 1039.87,-196.071 1026.62,-187.655"/>
<polygon fill="midnightblue" stroke="midnightblue" points="1074.03,-221.916 1084.34,-224.324 1077.78,-216.007 1074.03,-221.916"/>
</g>
<!-- Node18&#45;&gt;Node9 -->
<g id="edge28" class="edge"><title>Node18&#45;&gt;Node9</title>
<path fill="none" stroke="midnightblue" d="M1159,-166.153C1114.78,-155.95 1049.48,-140.881 1008.9,-131.516"/>
<polygon fill="midnightblue" stroke="midnightblue" points="1158.39,-169.605 1168.92,-168.444 1159.97,-162.784 1158.39,-169.605"/>
</g>
<!-- Node18&#45;&gt;Node10 -->
<g id="edge27" class="edge"><title>Node18&#45;&gt;Node10</title>
<path fill="none" stroke="midnightblue" d="M1201.76,-158.348C1196.28,-134.254 1186.98,-93.3079 1182.95,-75.5914"/>
<polygon fill="midnightblue" stroke="midnightblue" points="1198.41,-159.393 1204.04,-168.368 1205.23,-157.841 1198.41,-159.393"/>
</g>
<!-- Node18&#45;&gt;Node11 -->
<g id="edge29" class="edge"><title>Node18&#45;&gt;Node11</title>
<path fill="none" stroke="midnightblue" d="M1223.67,-161.816C1250.93,-138.387 1302.36,-94.1898 1324,-75.5914"/>
<polygon fill="midnightblue" stroke="midnightblue" points="1221.35,-159.196 1216.04,-168.368 1225.91,-164.505 1221.35,-159.196"/>
</g>
<!-- Node18&#45;&gt;Node19 -->
<g id="edge19" class="edge"><title>Node18&#45;&gt;Node19</title>
<path fill="none" stroke="midnightblue" d="M1179.45,-163.726C1159.45,-153.727 1132.61,-140.307 1115.31,-131.655"/>
<polygon fill="midnightblue" stroke="midnightblue" points="1178.14,-166.982 1188.65,-168.324 1181.27,-160.721 1178.14,-166.982"/>
</g>
<!-- Node20 -->
<g id="node20" class="node"><title>Node20</title>
<g id="a_node20"><a xlink:href="../../dd/d0b/_hash_map_8h.html" target="_top" xlink:title="wlib/stl/HashMap.h">
<polygon fill="white" stroke="black" points="1634.5,-56.5 1634.5,-75.5 1735.5,-75.5 1735.5,-56.5 1634.5,-56.5"/>
<text text-anchor="middle" x="1685" y="-63.5" font-family="Helvetica,sans-Serif" font-size="10.00">wlib/stl/HashMap.h</text>
</a>
</g>
</g>
<!-- Node18&#45;&gt;Node20 -->
<g id="edge22" class="edge"><title>Node18&#45;&gt;Node20</title>
<path fill="none" stroke="midnightblue" d="M1247.12,-165.825C1297.39,-152.324 1385.15,-129.274 1461,-112 1522.3,-98.0394 1593.56,-84.1159 1638.95,-75.5351"/>
<polygon fill="midnightblue" stroke="midnightblue" points="1246.03,-162.495 1237.28,-168.475 1247.85,-169.254 1246.03,-162.495"/>
</g>
<!-- Node21 -->
<g id="node21" class="node"><title>Node21</title>
<g id="a_node21"><a xlink:href="../../de/def/_hash_table_8h.html" target="_top" xlink:title="wlib/stl/HashTable.h">
<polygon fill="white" stroke="black" points="1513,-112.5 1513,-131.5 1619,-131.5 1619,-112.5 1513,-112.5"/>
<text text-anchor="middle" x="1566" y="-119.5" font-family="Helvetica,sans-Serif" font-size="10.00">wlib/stl/HashTable.h</text>
</a>
</g>
</g>
<!-- Node18&#45;&gt;Node21 -->
<g id="edge23" class="edge"><title>Node18&#45;&gt;Node21</title>
<path fill="none" stroke="midnightblue" d="M1257.89,-167.898C1353.75,-152.56 1453.37,-138.464 1512.89,-130.24"/>
<polygon fill="midnightblue" stroke="midnightblue" points="1257.05,-164.488 1247.73,-169.53 1258.16,-171.399 1257.05,-164.488"/>
</g>
<!-- Node22 -->
<g id="node22" class="node"><title>Node22</title>
<g id="a_node22"><a xlink:href="../../d2/dfc/_hash_set_8h.html" target="_top" xlink:title="wlib/stl/HashSet.h">
<polygon fill="white" stroke="black" points="1458.5,-56.5 1458.5,-75.5 1555.5,-75.5 1555.5,-56.5 1458.5,-56.5"/>
<text text-anchor="middle" x="1507" y="-63.5" font-family="Helvetica,sans-Serif" font-size="10.00">wlib/stl/HashSet.h</text>
</a>
</g>
</g>
<!-- Node18&#45;&gt;Node22 -->
<g id="edge26" class="edge"><title>Node18&#45;&gt;Node22</title>
<path fill="none" stroke="midnightblue" d="M1239.21,-164.865C1300.57,-142.44 1430.3,-95.0315 1483.49,-75.5914"/>
<polygon fill="midnightblue" stroke="midnightblue" points="1237.81,-161.649 1229.62,-168.368 1240.21,-168.223 1237.81,-161.649"/>
</g>
<!-- Node19&#45;&gt;Node7 -->
<g id="edge20" class="edge"><title>Node19&#45;&gt;Node7</title>
<path fill="none" stroke="midnightblue" d="M1032.42,-111.949C898.112,-94.7319 862.855,-93.3675 733,-76 730.241,-75.631 727.414,-75.2442 724.56,-74.8469"/>
<polygon fill="midnightblue" stroke="midnightblue" points="1032.33,-115.466 1042.69,-113.272 1033.22,-108.524 1032.33,-115.466"/>
</g>
<!-- Node19&#45;&gt;Node12 -->
<g id="edge21" class="edge"><title>Node19&#45;&gt;Node12</title>
<path fill="none" stroke="midnightblue" d="M1163.21,-117.052C1329.62,-106.978 1768.22,-80.426 1929.43,-70.6665"/>
<polygon fill="midnightblue" stroke="midnightblue" points="1162.9,-113.565 1153.13,-117.663 1163.32,-120.552 1162.9,-113.565"/>
</g>
<!-- Node21&#45;&gt;Node20 -->
<g id="edge24" class="edge"><title>Node21&#45;&gt;Node20</title>
<path fill="none" stroke="midnightblue" d="M1594.14,-108.232C1616.4,-98.1312 1646.86,-84.3091 1666.23,-75.5164"/>
<polygon fill="midnightblue" stroke="midnightblue" points="1592.52,-105.124 1584.86,-112.444 1595.41,-111.498 1592.52,-105.124"/>
</g>
<!-- Node21&#45;&gt;Node22 -->
<g id="edge25" class="edge"><title>Node21&#45;&gt;Node22</title>
<path fill="none" stroke="midnightblue" d="M1549.11,-105.537C1538.59,-95.9087 1525.43,-83.8694 1516.65,-75.8339"/>
<polygon fill="midnightblue" stroke="midnightblue" points="1546.78,-108.154 1556.52,-112.324 1551.51,-102.99 1546.78,-108.154"/>
</g>
<!-- Node24 -->
<g id="node24" class="node"><title>Node24</title>
<g id="a_node24"><a xlink:href="../../de/d66/_packet_constructor_8h.html" target="_top" xlink:title="wlib/comm/PacketConstructor.h">
<polygon fill="white" stroke="black" points="743.5,-112.5 743.5,-131.5 900.5,-131.5 900.5,-112.5 743.5,-112.5"/>
<text text-anchor="middle" x="822" y="-119.5" font-family="Helvetica,sans-Serif" font-size="10.00">wlib/comm/PacketConstructor.h</text>
</a>
</g>
</g>
<!-- Node23&#45;&gt;Node24 -->
<g id="edge32" class="edge"><title>Node23&#45;&gt;Node24</title>
<path fill="none" stroke="midnightblue" d="M875.966,-162.38C862.591,-152.62 845.441,-140.106 834.106,-131.834"/>
<polygon fill="midnightblue" stroke="midnightblue" points="873.97,-165.257 884.111,-168.324 878.096,-159.602 873.97,-165.257"/>
</g>
<!-- Node25 -->
<g id="node25" class="node"><title>Node25</title>
<g id="a_node25"><a xlink:href="../../d9/dde/_packet_constructor_8cpp.html" target="_top" xlink:title="Creates a packet for sending data from the slave systems to the main computer. ">
<polygon fill="white" stroke="black" points="742.5,-56.5 742.5,-75.5 909.5,-75.5 909.5,-56.5 742.5,-56.5"/>
<text text-anchor="middle" x="826" y="-63.5" font-family="Helvetica,sans-Serif" font-size="10.00">wlib/comm/PacketConstructor.cpp</text>
</a>
</g>
</g>
<!-- Node24&#45;&gt;Node25 -->
<g id="edge33" class="edge"><title>Node24&#45;&gt;Node25</title>
<path fill="none" stroke="midnightblue" d="M823.4,-102.101C824.064,-93.1357 824.825,-82.8579 825.352,-75.7511"/>
<polygon fill="midnightblue" stroke="midnightblue" points="819.909,-101.852 822.661,-112.083 826.89,-102.369 819.909,-101.852"/>
</g>
<!-- Node26&#45;&gt;Node9 -->
<g id="edge39" class="edge"><title>Node26&#45;&gt;Node9</title>
<path fill="none" stroke="midnightblue" d="M1255.76,-167.987C1168.74,-153.466 1080.15,-139.621 1025.17,-131.141"/>
<polygon fill="midnightblue" stroke="midnightblue" points="1255.37,-171.47 1265.81,-169.668 1256.53,-164.566 1255.37,-171.47"/>
</g>
<!-- Node26&#45;&gt;Node10 -->
<g id="edge38" class="edge"><title>Node26&#45;&gt;Node10</title>
<path fill="none" stroke="midnightblue" d="M1289.26,-161.512C1262.34,-138.007 1212.05,-94.1096 1190.84,-75.5914"/>
<polygon fill="midnightblue" stroke="midnightblue" points="1287.28,-164.428 1297.11,-168.368 1291.88,-159.155 1287.28,-164.428"/>
</g>
<!-- Node26&#45;&gt;Node11 -->
<g id="edge40" class="edge"><title>Node26&#45;&gt;Node11</title>
<path fill="none" stroke="midnightblue" d="M1311.58,-158.348C1317.49,-134.254 1327.54,-93.3079 1331.89,-75.5914"/>
<polygon fill="midnightblue" stroke="midnightblue" points="1308.1,-157.822 1309.12,-168.368 1314.9,-159.491 1308.1,-157.822"/>
</g>
<!-- Node26&#45;&gt;Node20 -->
<g id="edge35" class="edge"><title>Node26&#45;&gt;Node20</title>
<path fill="none" stroke="midnightblue" d="M1351.42,-165.929C1382.5,-157.721 1424.77,-145.629 1461,-132 1480.73,-124.579 1484.13,-119.019 1504,-112 1549.65,-95.8785 1603.71,-83.2397 1640.79,-75.514"/>
<polygon fill="midnightblue" stroke="midnightblue" points="1350.53,-162.542 1341.74,-168.455 1352.3,-169.316 1350.53,-162.542"/>
</g>
<!-- Node26&#45;&gt;Node21 -->
<g id="edge36" class="edge"><title>Node26&#45;&gt;Node21</title>
<path fill="none" stroke="midnightblue" d="M1358.1,-166.346C1407.05,-156.141 1479.95,-140.94 1525.15,-131.516"/>
<polygon fill="midnightblue" stroke="midnightblue" points="1357.11,-162.976 1348.04,-168.444 1358.54,-169.829 1357.11,-162.976"/>
</g>
<!-- Node26&#45;&gt;Node22 -->
<g id="edge37" class="edge"><title>Node26&#45;&gt;Node22</title>
<path fill="none" stroke="midnightblue" d="M1331.64,-163.446C1373.37,-140.497 1456.76,-94.6307 1491.38,-75.5914"/>
<polygon fill="midnightblue" stroke="midnightblue" points="1329.77,-160.482 1322.69,-168.368 1333.14,-166.616 1329.77,-160.482"/>
</g>
<!-- Node28&#45;&gt;Node7 -->
<g id="edge47" class="edge"><title>Node28&#45;&gt;Node7</title>
<path fill="none" stroke="midnightblue" d="M992.557,-389.921C1027.53,-380.17 1062.96,-363.199 1047,-336 1044.87,-332.364 785.53,-190.305 782,-188 747.468,-165.446 735.022,-163.16 708,-132 692.618,-114.263 680.912,-88.8925 675.429,-75.7075"/>
<polygon fill="midnightblue" stroke="midnightblue" points="991.538,-386.569 982.747,-392.482 993.307,-393.342 991.538,-386.569"/>
</g>
<!-- Node28&#45;&gt;Node29 -->
<g id="edge43" class="edge"><title>Node28&#45;&gt;Node29</title>
<path fill="none" stroke="midnightblue" d="M984.63,-390.281C1030.93,-380.077 1099.69,-364.92 1142.36,-355.516"/>
<polygon fill="midnightblue" stroke="midnightblue" points="983.833,-386.873 974.821,-392.444 985.34,-393.709 983.833,-386.873"/>
</g>
<!-- Node29&#45;&gt;Node7 -->
<g id="edge44" class="edge"><title>Node29&#45;&gt;Node7</title>
<path fill="none" stroke="midnightblue" d="M1143.62,-333.319C1118.03,-324.944 1083.52,-312.9 1054,-300 906.81,-235.678 862.241,-228.729 734,-132 711.34,-114.908 689.563,-89.2657 678.866,-75.8693"/>
<polygon fill="midnightblue" stroke="midnightblue" points="1142.72,-336.705 1153.31,-336.454 1144.87,-330.045 1142.72,-336.705"/>
</g>
<!-- Node30 -->
<g id="node30" class="node"><title>Node30</title>
<g id="a_node30"><a xlink:href="../../de/d0b/_string_iterator_8h.html" target="_top" xlink:title="wlib/strings/StringIterator.h">
<polygon fill="white" stroke="black" points="1063,-280.5 1063,-299.5 1197,-299.5 1197,-280.5 1063,-280.5"/>
<text text-anchor="middle" x="1130" y="-287.5" font-family="Helvetica,sans-Serif" font-size="10.00">wlib/strings/StringIterator.h</text>
</a>
</g>
</g>
<!-- Node29&#45;&gt;Node30 -->
<g id="edge45" class="edge"><title>Node29&#45;&gt;Node30</title>
<path fill="none" stroke="midnightblue" d="M1165.62,-328.718C1156.63,-319.2 1145.64,-307.561 1138.26,-299.751"/>
<polygon fill="midnightblue" stroke="midnightblue" points="1163.17,-331.216 1172.58,-336.083 1168.26,-326.41 1163.17,-331.216"/>
</g>
<!-- Node30&#45;&gt;Node17 -->
<g id="edge46" class="edge"><title>Node30&#45;&gt;Node17</title>
<path fill="none" stroke="midnightblue" d="M1119.5,-271.275C1114.03,-262.045 1107.58,-251.17 1103.19,-243.751"/>
<polygon fill="midnightblue" stroke="midnightblue" points="1116.61,-273.264 1124.72,-280.083 1122.63,-269.696 1116.61,-273.264"/>
</g>
<!-- Node31&#45;&gt;Node13 -->
<g id="edge57" class="edge"><title>Node31&#45;&gt;Node13</title>
<path fill="none" stroke="midnightblue" d="M1873.25,-157.93C1881.28,-121.92 1898.37,-45.2312 1904.09,-19.5681"/>
<polygon fill="midnightblue" stroke="midnightblue" points="1869.75,-157.553 1870.99,-168.075 1876.58,-159.076 1869.75,-157.553"/>
</g>
<!-- Node31&#45;&gt;Node20 -->
<g id="edge56" class="edge"><title>Node31&#45;&gt;Node20</title>
<path fill="none" stroke="midnightblue" d="M1866.17,-158.552C1862.98,-143.949 1856.38,-124.065 1843,-112 1813.67,-85.5433 1769.83,-74.5422 1735.76,-70.017"/>
<polygon fill="midnightblue" stroke="midnightblue" points="1862.74,-159.274 1868,-168.474 1869.63,-158.005 1862.74,-159.274"/>
</g>
<!-- Node31&#45;&gt;Node32 -->
<g id="edge50" class="edge"><title>Node31&#45;&gt;Node32</title>
<path fill="none" stroke="midnightblue" d="M1848.42,-162.38C1834.69,-152.62 1817.07,-140.106 1805.43,-131.834"/>
<polygon fill="midnightblue" stroke="midnightblue" points="1846.61,-165.385 1856.79,-168.324 1850.66,-159.679 1846.61,-165.385"/>
</g>
<!-- Node32&#45;&gt;Node11 -->
<g id="edge53" class="edge"><title>Node32&#45;&gt;Node11</title>
<path fill="none" stroke="midnightblue" d="M1741.29,-114.917C1651.93,-104.403 1469.81,-82.9779 1382.63,-72.7212"/>
<polygon fill="midnightblue" stroke="midnightblue" points="1741.12,-118.42 1751.46,-116.113 1741.93,-111.468 1741.12,-118.42"/>
</g>
<!-- Node32&#45;&gt;Node13 -->
<g id="edge54" class="edge"><title>Node32&#45;&gt;Node13</title>
<path fill="none" stroke="midnightblue" d="M1809.23,-105.205C1833.45,-81.6272 1878.23,-38.0294 1897.17,-19.5914"/>
<polygon fill="midnightblue" stroke="midnightblue" points="1806.59,-102.885 1801.87,-112.368 1811.47,-107.901 1806.59,-102.885"/>
</g>
<!-- Node32&#45;&gt;Node14 -->
<g id="edge55" class="edge"><title>Node32&#45;&gt;Node14</title>
<path fill="none" stroke="midnightblue" d="M1793,-102.348C1793,-78.2538 1793,-37.3079 1793,-19.5914"/>
<polygon fill="midnightblue" stroke="midnightblue" points="1789.5,-102.368 1793,-112.368 1796.5,-102.369 1789.5,-102.368"/>
</g>
<!-- Node32&#45;&gt;Node20 -->
<g id="edge51" class="edge"><title>Node32&#45;&gt;Node20</title>
<path fill="none" stroke="midnightblue" d="M1766.45,-107.726C1746.45,-97.7271 1719.61,-84.3065 1702.31,-75.6545"/>
<polygon fill="midnightblue" stroke="midnightblue" points="1765.14,-110.982 1775.65,-112.324 1768.27,-104.721 1765.14,-110.982"/>
</g>
<!-- Node32&#45;&gt;Node22 -->
<g id="edge52" class="edge"><title>Node32&#45;&gt;Node22</title>
<path fill="none" stroke="midnightblue" d="M1741.38,-111.254C1687.51,-101.083 1603.86,-85.2883 1552.42,-75.5756"/>
<polygon fill="midnightblue" stroke="midnightblue" points="1740.94,-114.732 1751.41,-113.148 1742.24,-107.853 1740.94,-114.732"/>
</g>
<!-- Node34&#45;&gt;Node3 -->
<g id="edge63" class="edge"><title>Node34&#45;&gt;Node3</title>
<path fill="none" stroke="midnightblue" d="M1126.78,-449.367C1047.19,-439.11 906.508,-420.98 826.684,-410.692"/>
<polygon fill="midnightblue" stroke="midnightblue" points="1126.75,-452.893 1137.12,-450.7 1127.64,-445.95 1126.75,-452.893"/>
</g>
<!-- Node34&#45;&gt;Node6 -->
<g id="edge64" class="edge"><title>Node34&#45;&gt;Node6</title>
<path fill="none" stroke="midnightblue" d="M1127,-454.137C1048.56,-449.384 915.061,-437.713 874,-412 852.518,-398.547 839.025,-370.33 833.252,-355.905"/>
<polygon fill="midnightblue" stroke="midnightblue" points="1127.03,-457.645 1137.22,-454.736 1127.44,-450.657 1127.03,-457.645"/>
</g>
<!-- Node34&#45;&gt;Node7 -->
<g id="edge73" class="edge"><title>Node34&#45;&gt;Node7</title>
<path fill="none" stroke="midnightblue" d="M1126.95,-451.741C1035.17,-443.525 852.724,-427.025 698,-412 441.099,-387.053 130,-549.109 130,-291 130,-291 130,-291 130,-177 130,-77.8639 482.663,-67.0886 619.044,-66.6281"/>
<polygon fill="midnightblue" stroke="midnightblue" points="1126.88,-455.249 1137.15,-452.654 1127.5,-448.277 1126.88,-455.249"/>
</g>
<!-- Node34&#45;&gt;Node8 -->
<g id="edge76" class="edge"><title>Node34&#45;&gt;Node8</title>
<path fill="none" stroke="midnightblue" d="M1179.8,-438.86C1173.86,-424.146 1163.49,-403.951 1148,-392 1116.52,-367.711 1072.62,-356.531 1038.62,-351.386"/>
<polygon fill="midnightblue" stroke="midnightblue" points="1176.58,-440.257 1183.35,-448.409 1183.14,-437.817 1176.58,-440.257"/>
</g>
<!-- Node34&#45;&gt;Node9 -->
<g id="edge77" class="edge"><title>Node34&#45;&gt;Node9</title>
<path fill="none" stroke="midnightblue" d="M1185.41,-437.833C1184.13,-423.975 1180.56,-405.41 1171,-392 1146.2,-357.204 865.704,-225.379 845,-188 840.693,-180.224 839.871,-175.26 845,-168 855.461,-153.194 899.812,-139.821 933.179,-131.573"/>
<polygon fill="midnightblue" stroke="midnightblue" points="1181.94,-438.378 1186.03,-448.149 1188.92,-437.956 1181.94,-438.378"/>
</g>
<!-- Node34&#45;&gt;Node11 -->
<g id="edge78" class="edge"><title>Node34&#45;&gt;Node11</title>
<path fill="none" stroke="midnightblue" d="M1201.13,-440.816C1236.84,-401.382 1325.68,-295.647 1357,-188 1369.01,-146.731 1347.98,-95.6744 1338.39,-75.6408"/>
<polygon fill="midnightblue" stroke="midnightblue" points="1198.54,-438.465 1194.36,-448.201 1203.7,-443.197 1198.54,-438.465"/>
</g>
<!-- Node34&#45;&gt;Node12 -->
<g id="edge79" class="edge"><title>Node34&#45;&gt;Node12</title>
<path fill="none" stroke="midnightblue" d="M1244.8,-455.387C1434.04,-449.425 2015,-424.785 2015,-347 2015,-347 2015,-347 2015,-177 2015,-138.419 2000.2,-94.077 1993.37,-75.6873"/>
<polygon fill="midnightblue" stroke="midnightblue" points="1244.65,-451.89 1234.76,-455.697 1244.87,-458.887 1244.65,-451.89"/>
</g>
<!-- Node34&#45;&gt;Node16 -->
<g id="edge80" class="edge"><title>Node34&#45;&gt;Node16</title>
<path fill="none" stroke="midnightblue" d="M1127.23,-457.212C921.047,-457.579 238.337,-455.466 151,-412 100.252,-386.744 65.954,-322.65 54.8762,-299.503"/>
<polygon fill="midnightblue" stroke="midnightblue" points="1127.27,-460.712 1137.26,-457.192 1127.25,-453.712 1127.27,-460.712"/>
</g>
<!-- Node34&#45;&gt;Node20 -->
<g id="edge75" class="edge"><title>Node34&#45;&gt;Node20</title>
<path fill="none" stroke="midnightblue" d="M1244.56,-454.628C1363.11,-449.363 1623.08,-435.29 1656,-412 1683.9,-392.256 1723,-267.894 1723,-235 1723,-235 1723,-235 1723,-177 1723,-137.399 1700.73,-93.957 1690.28,-75.769"/>
<polygon fill="midnightblue" stroke="midnightblue" points="1244.4,-451.131 1234.56,-455.066 1244.71,-458.125 1244.4,-451.131"/>
</g>
<!-- Node34&#45;&gt;Node21 -->
<g id="edge74" class="edge"><title>Node34&#45;&gt;Node21</title>
<path fill="none" stroke="midnightblue" d="M1244.61,-446.809C1328.55,-430.523 1473,-395.456 1473,-347 1473,-347 1473,-347 1473,-233 1473,-185.485 1524.23,-147.907 1550.64,-131.69"/>
<polygon fill="midnightblue" stroke="midnightblue" points="1243.85,-443.39 1234.69,-448.702 1245.16,-450.266 1243.85,-443.39"/>
</g>
<!-- Node35 -->
<g id="node35" class="node"><title>Node35</title>
<g id="a_node35"><a xlink:href="../../d0/d55/_allocator_8cpp.html" target="_top" xlink:title="Implementation of Allocator. ">
<polygon fill="white" stroke="black" points="1007,-392.5 1007,-411.5 1139,-411.5 1139,-392.5 1007,-392.5"/>
<text text-anchor="middle" x="1073" y="-399.5" font-family="Helvetica,sans-Serif" font-size="10.00">wlib/memory/Allocator.cpp</text>
</a>
</g>
</g>
<!-- Node34&#45;&gt;Node35 -->
<g id="edge62" class="edge"><title>Node34&#45;&gt;Node35</title>
<path fill="none" stroke="midnightblue" d="M1159,-444.096C1137.89,-434.007 1109.14,-420.27 1090.82,-411.516"/>
<polygon fill="midnightblue" stroke="midnightblue" points="1157.56,-447.29 1168.09,-448.444 1160.58,-440.974 1157.56,-447.29"/>
</g>
<!-- Node36 -->
<g id="node36" class="node"><title>Node36</title>
<g id="a_node36"><a xlink:href="../../d4/dda/_pair_8h.html" target="_top" xlink:title="Implementation of a 2&#45;element tuple. ">
<polygon fill="white" stroke="black" points="1571,-392.5 1571,-411.5 1647,-411.5 1647,-392.5 1571,-392.5"/>
<text text-anchor="middle" x="1609" y="-399.5" font-family="Helvetica,sans-Serif" font-size="10.00">wlib/stl/Pair.h</text>
</a>
</g>
</g>
<!-- Node34&#45;&gt;Node36 -->
<g id="edge65" class="edge"><title>Node34&#45;&gt;Node36</title>
<path fill="none" stroke="midnightblue" d="M1244.62,-449.516C1332.73,-438.269 1496.84,-417.318 1570.95,-407.858"/>
<polygon fill="midnightblue" stroke="midnightblue" points="1244,-446.067 1234.52,-450.806 1244.89,-453.011 1244,-446.067"/>
</g>
<!-- Node36&#45;&gt;Node9 -->
<g id="edge70" class="edge"><title>Node36&#45;&gt;Node9</title>
<path fill="none" stroke="midnightblue" d="M1580.39,-388.301C1500.86,-353.033 1270.34,-251.024 1078,-168 1048.26,-155.165 1013.71,-140.554 992.352,-131.554"/>
<polygon fill="midnightblue" stroke="midnightblue" points="1579.19,-391.597 1589.75,-392.453 1582.03,-385.199 1579.19,-391.597"/>
</g>
<!-- Node36&#45;&gt;Node11 -->
<g id="edge71" class="edge"><title>Node36&#45;&gt;Node11</title>
<path fill="none" stroke="midnightblue" d="M1619.14,-383.429C1630.4,-362.236 1647,-325.187 1647,-291 1647,-291 1647,-291 1647,-177 1647,-146.775 1649.88,-131.756 1627,-112 1608.82,-96.2954 1461.24,-79.5564 1382.73,-71.6495"/>
<polygon fill="midnightblue" stroke="midnightblue" points="1616.05,-381.785 1614.28,-392.231 1622.18,-385.168 1616.05,-381.785"/>
</g>
<!-- Node36&#45;&gt;Node12 -->
<g id="edge72" class="edge"><title>Node36&#45;&gt;Node12</title>
<path fill="none" stroke="midnightblue" d="M1657.49,-396.747C1757.41,-386.641 1977,-356.932 1977,-291 1977,-291 1977,-291 1977,-177 1977,-138.924 1984.78,-93.9444 1988.3,-75.5172"/>
<polygon fill="midnightblue" stroke="midnightblue" points="1656.95,-393.283 1647.34,-397.747 1657.64,-400.249 1656.95,-393.283"/>
</g>
<!-- Node36&#45;&gt;Node20 -->
<g id="edge68" class="edge"><title>Node36&#45;&gt;Node20</title>
<path fill="none" stroke="midnightblue" d="M1630.45,-386.429C1640.85,-378.458 1652.82,-367.81 1661,-356 1678.53,-330.681 1685,-321.795 1685,-291 1685,-291 1685,-291 1685,-177 1685,-139.188 1685,-94.0636 1685,-75.5578"/>
<polygon fill="midnightblue" stroke="midnightblue" points="1628.21,-383.731 1622.2,-392.46 1632.34,-389.381 1628.21,-383.731"/>
</g>
<!-- Node36&#45;&gt;Node21 -->
<g id="edge67" class="edge"><title>Node36&#45;&gt;Node21</title>
<path fill="none" stroke="midnightblue" d="M1606.12,-382.393C1597.69,-327.884 1573.27,-169.991 1567.32,-131.524"/>
<polygon fill="midnightblue" stroke="midnightblue" points="1602.68,-383.028 1607.67,-392.375 1609.6,-381.958 1602.68,-383.028"/>
</g>
<!-- Node36&#45;&gt;Node29 -->
<g id="edge66" class="edge"><title>Node36&#45;&gt;Node29</title>
<path fill="none" stroke="midnightblue" d="M1560.52,-394.883C1477.92,-384.462 1310.9,-363.389 1228.78,-353.028"/>
<polygon fill="midnightblue" stroke="midnightblue" points="1560.28,-398.381 1570.64,-396.16 1561.16,-391.436 1560.28,-398.381"/>
</g>
<!-- Node36&#45;&gt;Node31 -->
<g id="edge69" class="edge"><title>Node36&#45;&gt;Node31</title>
<path fill="none" stroke="midnightblue" d="M1640.75,-388.332C1658.7,-380.402 1681.08,-369.195 1699,-356 1772.08,-302.196 1841.24,-215.392 1862.41,-187.75"/>
<polygon fill="midnightblue" stroke="midnightblue" points="1639.09,-385.233 1631.28,-392.392 1641.85,-391.666 1639.09,-385.233"/>
</g>
</g>
</svg>
