<?xml version="1.0" encoding="UTF-8" standalone="no"?>
<!DOCTYPE svg PUBLIC "-//W3C//DTD SVG 1.1//EN"
 "http://www.w3.org/Graphics/SVG/1.1/DTD/svg11.dtd">
<!-- Generated by graphviz version 2.38.0 (20140413.2041)
 -->
<!-- Title: utility/Tmp.h Pages: 1 -->
<svg width="1169pt" height="588pt"
 viewBox="0.00 0.00 1169.00 588.00" xmlns="http://www.w3.org/2000/svg" xmlns:xlink="http://www.w3.org/1999/xlink">
<g id="graph0" class="graph" transform="scale(1 1) rotate(0) translate(4 584)">
<title>utility/Tmp.h</title>
<polygon fill="white" stroke="none" points="-4,4 -4,-584 1165,-584 1165,4 -4,4"/>
<!-- Node3 -->
<g id="node1" class="node"><title>Node3</title>
<polygon fill="#bfbfbf" stroke="black" points="726,-560.5 726,-579.5 796,-579.5 796,-560.5 726,-560.5"/>
<text text-anchor="middle" x="761" y="-567.5" font-family="Helvetica,sans-Serif" font-size="10.00">utility/Tmp.h</text>
</g>
<!-- Node4 -->
<g id="node2" class="node"><title>Node4</title>
<g id="a_node2"><a xlink:href="../../db/d2a/_utility_8h.html" target="_top" xlink:title="Various helper functions. ">
<polygon fill="white" stroke="black" points="589,-504.5 589,-523.5 665,-523.5 665,-504.5 589,-504.5"/>
<text text-anchor="middle" x="627" y="-511.5" font-family="Helvetica,sans-Serif" font-size="10.00">utility/Utility.h</text>
</a>
</g>
</g>
<!-- Node3&#45;&gt;Node4 -->
<g id="edge1" class="edge"><title>Node3&#45;&gt;Node4</title>
<path fill="none" stroke="midnightblue" d="M730.323,-556.638C705.177,-546.504 670.246,-532.427 648.133,-523.516"/>
<polygon fill="midnightblue" stroke="midnightblue" points="729.184,-559.952 739.767,-560.444 731.8,-553.459 729.184,-559.952"/>
</g>
<!-- Node5 -->
<g id="node3" class="node"><title>Node5</title>
<g id="a_node3"><a xlink:href="../../d3/de6/_memory_8h.html" target="_top" xlink:title="Memory is a class that provides dynamic fixed size memory. ">
<polygon fill="white" stroke="black" points="332,-448.5 332,-467.5 430,-467.5 430,-448.5 332,-448.5"/>
<text text-anchor="middle" x="381" y="-455.5" font-family="Helvetica,sans-Serif" font-size="10.00">memory/Memory.h</text>
</a>
</g>
</g>
<!-- Node3&#45;&gt;Node5 -->
<g id="edge56" class="edge"><title>Node3&#45;&gt;Node5</title>
<path fill="none" stroke="midnightblue" d="M715.849,-558.728C679.086,-550.136 625.943,-537.196 580,-524 516.423,-505.739 442.663,-480.59 405.334,-467.576"/>
<polygon fill="midnightblue" stroke="midnightblue" points="715.231,-562.178 725.764,-561.033 716.816,-555.36 715.231,-562.178"/>
</g>
<!-- Node6 -->
<g id="node4" class="node"><title>Node6</title>
<g id="a_node4"><a xlink:href="../../df/dcf/_state_machine_8h.html" target="_top" xlink:title="fsm/StateMachine.h">
<polygon fill="white" stroke="black" points="66,-392.5 66,-411.5 170,-411.5 170,-392.5 66,-392.5"/>
<text text-anchor="middle" x="118" y="-399.5" font-family="Helvetica,sans-Serif" font-size="10.00">fsm/StateMachine.h</text>
</a>
</g>
</g>
<!-- Node3&#45;&gt;Node6 -->
<g id="edge57" class="edge"><title>Node3&#45;&gt;Node6</title>
<path fill="none" stroke="midnightblue" d="M715.842,-562.106C666.468,-554.243 585.155,-540.34 516,-524 429.078,-503.462 408.465,-493.944 323,-468 258.513,-448.424 183.05,-424.14 144.148,-411.518"/>
<polygon fill="midnightblue" stroke="midnightblue" points="715.454,-565.588 725.878,-563.691 716.546,-558.673 715.454,-565.588"/>
</g>
<!-- Node19 -->
<g id="node17" class="node"><title>Node19</title>
<g id="a_node17"><a xlink:href="../../d1/d13/_shared_ptr_8h.html" target="_top" xlink:title="Shared pointer implementation. ">
<polygon fill="white" stroke="black" points="509,-336.5 509,-355.5 591,-355.5 591,-336.5 509,-336.5"/>
<text text-anchor="middle" x="550" y="-343.5" font-family="Helvetica,sans-Serif" font-size="10.00">stl/SharedPtr.h</text>
</a>
</g>
</g>
<!-- Node3&#45;&gt;Node19 -->
<g id="edge62" class="edge"><title>Node3&#45;&gt;Node19</title>
<path fill="none" stroke="midnightblue" d="M765.151,-550.283C771.86,-514.653 780.643,-436.659 741,-392 731.049,-380.79 644.503,-363.724 591.384,-354.153"/>
<polygon fill="midnightblue" stroke="midnightblue" points="761.684,-549.769 763.109,-560.267 768.542,-551.171 761.684,-549.769"/>
</g>
<!-- Node24 -->
<g id="node22" class="node"><title>Node24</title>
<g id="a_node22"><a xlink:href="../../d8/dd7/_concept_8h.html" target="_top" xlink:title="Concept definitions. ">
<polygon fill="white" stroke="black" points="865,-392.5 865,-411.5 939,-411.5 939,-392.5 865,-392.5"/>
<text text-anchor="middle" x="902" y="-399.5" font-family="Helvetica,sans-Serif" font-size="10.00">stl/Concept.h</text>
</a>
</g>
</g>
<!-- Node3&#45;&gt;Node24 -->
<g id="edge61" class="edge"><title>Node3&#45;&gt;Node24</title>
<path fill="none" stroke="midnightblue" d="M783.141,-554.428C808.596,-536.684 850.182,-504.525 876,-468 888.768,-449.937 896.523,-424.704 899.939,-411.626"/>
<polygon fill="midnightblue" stroke="midnightblue" points="780.835,-551.764 774.551,-560.294 784.783,-557.544 780.835,-551.764"/>
</g>
<!-- Node31 -->
<g id="node29" class="node"><title>Node31</title>
<g id="a_node29"><a xlink:href="../../d7/d2a/_tuple_8h.html" target="_top" xlink:title="Template oriented tuple implementation. ">
<polygon fill="white" stroke="black" points="1071,-392.5 1071,-411.5 1133,-411.5 1133,-392.5 1071,-392.5"/>
<text text-anchor="middle" x="1102" y="-399.5" font-family="Helvetica,sans-Serif" font-size="10.00">stl/Tuple.h</text>
</a>
</g>
</g>
<!-- Node3&#45;&gt;Node31 -->
<g id="edge63" class="edge"><title>Node3&#45;&gt;Node31</title>
<path fill="none" stroke="midnightblue" d="M806.451,-568.694C877.02,-565.6 1012.26,-548.732 1084,-468 1098.31,-451.894 1101.35,-425.361 1101.93,-411.711"/>
<polygon fill="midnightblue" stroke="midnightblue" points="805.979,-565.209 796.112,-569.069 806.232,-572.204 805.979,-565.209"/>
</g>
<!-- Node32 -->
<g id="node30" class="node"><title>Node32</title>
<g id="a_node30"><a xlink:href="../../d4/dd5/_type_traits_8h.html" target="_top" xlink:title="Metafunctions for types. ">
<polygon fill="white" stroke="black" points="992.5,-448.5 992.5,-467.5 1075.5,-467.5 1075.5,-448.5 992.5,-448.5"/>
<text text-anchor="middle" x="1034" y="-455.5" font-family="Helvetica,sans-Serif" font-size="10.00">stl/TypeTraits.h</text>
</a>
</g>
</g>
<!-- Node3&#45;&gt;Node32 -->
<g id="edge58" class="edge"><title>Node3&#45;&gt;Node32</title>
<path fill="none" stroke="midnightblue" d="M806.069,-558.098C836.518,-550.122 877.329,-538.235 912,-524 952.85,-507.229 998.003,-480.987 1020.17,-467.553"/>
<polygon fill="midnightblue" stroke="midnightblue" points="804.975,-554.765 796.165,-560.65 806.722,-561.544 804.975,-554.765"/>
</g>
<!-- Node4&#45;&gt;Node5 -->
<g id="edge2" class="edge"><title>Node4&#45;&gt;Node5</title>
<path fill="none" stroke="midnightblue" d="M579.011,-502.466C532.618,-492.282 463.19,-477.042 420.071,-467.577"/>
<polygon fill="midnightblue" stroke="midnightblue" points="578.315,-505.896 588.832,-504.622 579.815,-499.059 578.315,-505.896"/>
</g>
<!-- Node8 -->
<g id="node6" class="node"><title>Node8</title>
<g id="a_node6"><a xlink:href="../../d2/db9/_array_list_8h.html" target="_top" xlink:title="List implementation using an array. ">
<polygon fill="white" stroke="black" points="655.5,-392.5 655.5,-411.5 732.5,-411.5 732.5,-392.5 655.5,-392.5"/>
<text text-anchor="middle" x="694" y="-399.5" font-family="Helvetica,sans-Serif" font-size="10.00">stl/ArrayList.h</text>
</a>
</g>
</g>
<!-- Node4&#45;&gt;Node8 -->
<g id="edge20" class="edge"><title>Node4&#45;&gt;Node8</title>
<path fill="none" stroke="midnightblue" d="M637.574,-495.64C652.129,-471.744 677.781,-429.629 688.767,-411.591"/>
<polygon fill="midnightblue" stroke="midnightblue" points="634.47,-494.007 632.257,-504.368 640.449,-497.649 634.47,-494.007"/>
</g>
<!-- Node9 -->
<g id="node7" class="node"><title>Node9</title>
<g id="a_node7"><a xlink:href="../../df/d03/_array_heap_8h.html" target="_top" xlink:title="Heap manipulation and implementation. ">
<polygon fill="white" stroke="black" points="864,-56.5 864,-75.5 948,-75.5 948,-56.5 864,-56.5"/>
<text text-anchor="middle" x="906" y="-63.5" font-family="Helvetica,sans-Serif" font-size="10.00">stl/ArrayHeap.h</text>
</a>
</g>
</g>
<!-- Node4&#45;&gt;Node9 -->
<g id="edge50" class="edge"><title>Node4&#45;&gt;Node9</title>
<path fill="none" stroke="midnightblue" d="M675.581,-511.073C727.289,-507.485 810.514,-497.238 876,-468 913.018,-451.473 930.189,-448.417 948,-412 1007.65,-290.044 930.002,-115.96 910.322,-75.5867"/>
<polygon fill="midnightblue" stroke="midnightblue" points="675.116,-507.595 665.359,-511.724 675.561,-514.581 675.116,-507.595"/>
</g>
<!-- Node10 -->
<g id="node8" class="node"><title>Node10</title>
<g id="a_node8"><a xlink:href="../../d3/dbe/_chain_map_8h.html" target="_top" xlink:title="Hasher map implementation. ">
<polygon fill="white" stroke="black" points="199,-112.5 199,-131.5 281,-131.5 281,-112.5 199,-112.5"/>
<text text-anchor="middle" x="240" y="-119.5" font-family="Helvetica,sans-Serif" font-size="10.00">stl/ChainMap.h</text>
</a>
</g>
</g>
<!-- Node4&#45;&gt;Node10 -->
<g id="edge51" class="edge"><title>Node4&#45;&gt;Node10</title>
<path fill="none" stroke="midnightblue" d="M578.544,-512.167C452.993,-508.87 122.363,-492.557 57,-412 14.624,-359.774 190.488,-173.731 231.582,-131.548"/>
<polygon fill="midnightblue" stroke="midnightblue" points="578.552,-515.668 588.635,-512.415 578.725,-508.67 578.552,-515.668"/>
</g>
<!-- Node12 -->
<g id="node10" class="node"><title>Node12</title>
<g id="a_node10"><a xlink:href="../../de/dc6/_linked_list_8h.html" target="_top" xlink:title="stl/LinkedList.h">
<polygon fill="white" stroke="black" points="439.5,-392.5 439.5,-411.5 522.5,-411.5 522.5,-392.5 439.5,-392.5"/>
<text text-anchor="middle" x="481" y="-399.5" font-family="Helvetica,sans-Serif" font-size="10.00">stl/LinkedList.h</text>
</a>
</g>
</g>
<!-- Node4&#45;&gt;Node12 -->
<g id="edge52" class="edge"><title>Node4&#45;&gt;Node12</title>
<path fill="none" stroke="midnightblue" d="M594.26,-500.383C576.342,-492.587 554.328,-481.494 537,-468 515.376,-451.161 495.907,-424.949 486.666,-411.537"/>
<polygon fill="midnightblue" stroke="midnightblue" points="593.163,-503.718 603.738,-504.369 595.877,-497.266 593.163,-503.718"/>
</g>
<!-- Node13 -->
<g id="node11" class="node"><title>Node13</title>
<g id="a_node11"><a xlink:href="../../d5/d7a/_open_map_8h.html" target="_top" xlink:title="Hash map implementation. ">
<polygon fill="white" stroke="black" points="38,-112.5 38,-131.5 118,-131.5 118,-112.5 38,-112.5"/>
<text text-anchor="middle" x="78" y="-119.5" font-family="Helvetica,sans-Serif" font-size="10.00">stl/OpenMap.h</text>
</a>
</g>
</g>
<!-- Node4&#45;&gt;Node13 -->
<g id="edge53" class="edge"><title>Node4&#45;&gt;Node13</title>
<path fill="none" stroke="midnightblue" d="M578.735,-511.561C467.426,-507.801 195.654,-495.967 109,-468 55.3221,-450.676 0,-459.404 0,-403 0,-403 0,-403 0,-233 0,-188.051 43.875,-148.65 65.8125,-131.759"/>
<polygon fill="midnightblue" stroke="midnightblue" points="578.884,-515.068 588.994,-511.9 579.115,-508.072 578.884,-515.068"/>
</g>
<!-- Node15 -->
<g id="node13" class="node"><title>Node15</title>
<g id="a_node13"><a xlink:href="../../d5/d08/_red_black_tree_8h.html" target="_top" xlink:title="Red black tree implementation. ">
<polygon fill="white" stroke="black" points="989.5,-56.5 989.5,-75.5 1088.5,-75.5 1088.5,-56.5 989.5,-56.5"/>
<text text-anchor="middle" x="1039" y="-63.5" font-family="Helvetica,sans-Serif" font-size="10.00">stl/RedBlackTree.h</text>
</a>
</g>
</g>
<!-- Node4&#45;&gt;Node15 -->
<g id="edge54" class="edge"><title>Node4&#45;&gt;Node15</title>
<path fill="none" stroke="midnightblue" d="M675.601,-513.235C807.264,-512.57 1161,-501.61 1161,-403 1161,-403 1161,-403 1161,-177 1161,-124.24 1097.29,-90.2893 1061.95,-75.5154"/>
<polygon fill="midnightblue" stroke="midnightblue" points="675.393,-509.735 665.404,-513.267 675.415,-516.735 675.393,-509.735"/>
</g>
<!-- Node4&#45;&gt;Node19 -->
<g id="edge55" class="edge"><title>Node4&#45;&gt;Node19</title>
<path fill="none" stroke="midnightblue" d="M618.584,-494.856C602.069,-459.252 565.981,-381.453 553.974,-355.568"/>
<polygon fill="midnightblue" stroke="midnightblue" points="615.477,-496.476 622.86,-504.075 621.827,-493.531 615.477,-496.476"/>
</g>
<!-- Node22 -->
<g id="node20" class="node"><title>Node22</title>
<g id="a_node20"><a xlink:href="../../d0/d55/_allocator_8cpp.html" target="_top" xlink:title="Implementation of Allocator. ">
<polygon fill="white" stroke="black" points="430,-168.5 430,-187.5 542,-187.5 542,-168.5 430,-168.5"/>
<text text-anchor="middle" x="486" y="-175.5" font-family="Helvetica,sans-Serif" font-size="10.00">memory/Allocator.cpp</text>
</a>
</g>
</g>
<!-- Node4&#45;&gt;Node22 -->
<g id="edge19" class="edge"><title>Node4&#45;&gt;Node22</title>
<path fill="none" stroke="midnightblue" d="M614.235,-496.483C596.034,-473.031 561.452,-428.836 531,-392 517.547,-375.726 508.124,-375.489 500,-356 474.858,-295.681 481.756,-213.88 484.87,-187.543"/>
<polygon fill="midnightblue" stroke="midnightblue" points="611.475,-498.635 620.366,-504.397 617.009,-494.348 611.475,-498.635"/>
</g>
<!-- Node23 -->
<g id="node21" class="node"><title>Node23</title>
<g id="a_node21"><a xlink:href="../../d4/dda/_pair_8h.html" target="_top" xlink:title="Implementation of a 2&#45;element tuple. ">
<polygon fill="white" stroke="black" points="811,-448.5 811,-467.5 867,-467.5 867,-448.5 811,-448.5"/>
<text text-anchor="middle" x="839" y="-455.5" font-family="Helvetica,sans-Serif" font-size="10.00">stl/Pair.h</text>
</a>
</g>
</g>
<!-- Node4&#45;&gt;Node23 -->
<g id="edge21" class="edge"><title>Node4&#45;&gt;Node23</title>
<path fill="none" stroke="midnightblue" d="M670.292,-501.973C712.378,-491.253 775.054,-475.288 810.981,-466.137"/>
<polygon fill="midnightblue" stroke="midnightblue" points="669.419,-498.583 660.592,-504.444 671.147,-505.367 669.419,-498.583"/>
</g>
<!-- Node5&#45;&gt;Node6 -->
<g id="edge3" class="edge"><title>Node5&#45;&gt;Node6</title>
<path fill="none" stroke="midnightblue" d="M329.421,-446.41C279.717,-436.204 205.471,-420.96 159.478,-411.516"/>
<polygon fill="midnightblue" stroke="midnightblue" points="328.827,-449.861 339.327,-448.444 330.235,-443.004 328.827,-449.861"/>
</g>
<!-- Node7 -->
<g id="node5" class="node"><title>Node7</title>
<g id="a_node5"><a xlink:href="../../df/d64/_memory_8cpp.html" target="_top" xlink:title="Implementation of Memory functions. ">
<polygon fill="white" stroke="black" points="302.5,-168.5 302.5,-187.5 411.5,-187.5 411.5,-168.5 302.5,-168.5"/>
<text text-anchor="middle" x="357" y="-175.5" font-family="Helvetica,sans-Serif" font-size="10.00">memory/Memory.cpp</text>
</a>
</g>
</g>
<!-- Node5&#45;&gt;Node7 -->
<g id="edge4" class="edge"><title>Node5&#45;&gt;Node7</title>
<path fill="none" stroke="midnightblue" d="M345.631,-444.589C329.246,-437.298 310.65,-426.603 298,-412 277.837,-388.723 274,-377.795 274,-347 274,-347 274,-347 274,-289 274,-243.066 320.688,-204.158 344.031,-187.575"/>
<polygon fill="midnightblue" stroke="midnightblue" points="344.385,-447.861 354.962,-448.492 347.087,-441.404 344.385,-447.861"/>
</g>
<!-- Node5&#45;&gt;Node8 -->
<g id="edge5" class="edge"><title>Node5&#45;&gt;Node8</title>
<path fill="none" stroke="midnightblue" d="M440.461,-446.742C503.619,-435.845 601.608,-418.94 655.398,-409.66"/>
<polygon fill="midnightblue" stroke="midnightblue" points="439.51,-443.354 430.251,-448.503 440.7,-450.252 439.51,-443.354"/>
</g>
<!-- Node5&#45;&gt;Node10 -->
<g id="edge7" class="edge"><title>Node5&#45;&gt;Node10</title>
<path fill="none" stroke="midnightblue" d="M339.887,-445.239C297.016,-430.156 236,-399.473 236,-347 236,-347 236,-347 236,-233 236,-195.163 238.393,-150.052 239.477,-131.554"/>
<polygon fill="midnightblue" stroke="midnightblue" points="338.943,-448.614 349.537,-448.482 341.173,-441.979 338.943,-448.614"/>
</g>
<!-- Node5&#45;&gt;Node12 -->
<g id="edge9" class="edge"><title>Node5&#45;&gt;Node12</title>
<path fill="none" stroke="midnightblue" d="M406.088,-443.453C424.549,-433.483 449.097,-420.228 464.973,-411.655"/>
<polygon fill="midnightblue" stroke="midnightblue" points="404.203,-440.493 397.067,-448.324 407.529,-446.652 404.203,-440.493"/>
</g>
<!-- Node5&#45;&gt;Node13 -->
<g id="edge10" class="edge"><title>Node5&#45;&gt;Node13</title>
<path fill="none" stroke="midnightblue" d="M327.782,-445.875C302.666,-438.904 273.191,-428.106 250,-412 144.179,-338.51 109.431,-309.296 66,-188 59.0369,-168.553 67.7983,-144.318 73.614,-131.643"/>
<polygon fill="midnightblue" stroke="midnightblue" points="326.967,-449.279 337.529,-448.452 328.756,-442.512 326.967,-449.279"/>
</g>
<!-- Node5&#45;&gt;Node15 -->
<g id="edge12" class="edge"><title>Node5&#45;&gt;Node15</title>
<path fill="none" stroke="midnightblue" d="M424.805,-445.963C477.3,-432.804 567.956,-410.295 646,-392 717.387,-375.266 744.767,-394.772 807,-356 929.597,-279.619 1015.59,-114.949 1034.9,-75.5807"/>
<polygon fill="midnightblue" stroke="midnightblue" points="423.678,-442.637 414.83,-448.466 425.382,-449.427 423.678,-442.637"/>
</g>
<!-- Node18 -->
<g id="node16" class="node"><title>Node18</title>
<g id="a_node16"><a xlink:href="../../d8/df6/_unique_ptr_8h.html" target="_top" xlink:title="Unique pointer implementation. ">
<polygon fill="white" stroke="black" points="340.5,-392.5 340.5,-411.5 421.5,-411.5 421.5,-392.5 340.5,-392.5"/>
<text text-anchor="middle" x="381" y="-399.5" font-family="Helvetica,sans-Serif" font-size="10.00">stl/UniquePtr.h</text>
</a>
</g>
</g>
<!-- Node5&#45;&gt;Node18 -->
<g id="edge15" class="edge"><title>Node5&#45;&gt;Node18</title>
<path fill="none" stroke="midnightblue" d="M381,-437.805C381,-428.91 381,-418.78 381,-411.751"/>
<polygon fill="midnightblue" stroke="midnightblue" points="377.5,-438.083 381,-448.083 384.5,-438.083 377.5,-438.083"/>
</g>
<!-- Node20 -->
<g id="node18" class="node"><title>Node20</title>
<g id="a_node18"><a xlink:href="../../d6/d60/_dynamic_string_8h.html" target="_top" xlink:title="DynamicString is a class that provides dynamic strings and functions for dynamic strings. ">
<polygon fill="white" stroke="black" points="718.5,-168.5 718.5,-187.5 839.5,-187.5 839.5,-168.5 718.5,-168.5"/>
<text text-anchor="middle" x="779" y="-175.5" font-family="Helvetica,sans-Serif" font-size="10.00">strings/DynamicString.h</text>
</a>
</g>
</g>
<!-- Node5&#45;&gt;Node20 -->
<g id="edge17" class="edge"><title>Node5&#45;&gt;Node20</title>
<path fill="none" stroke="midnightblue" d="M357.278,-442.646C338.775,-429.6 318.192,-409.737 331,-392 425.664,-260.906 544.909,-384.128 683,-300 730.175,-271.26 763.59,-210.423 774.843,-187.755"/>
<polygon fill="midnightblue" stroke="midnightblue" points="355.507,-445.672 365.771,-448.296 359.384,-439.844 355.507,-445.672"/>
</g>
<!-- Node8&#45;&gt;Node9 -->
<g id="edge6" class="edge"><title>Node8&#45;&gt;Node9</title>
<path fill="none" stroke="midnightblue" d="M742.357,-391.532C764.639,-384.941 789.876,-373.984 807,-356 848.51,-312.406 894.245,-118.891 904.075,-75.6074"/>
<polygon fill="midnightblue" stroke="midnightblue" points="741.414,-388.162 732.695,-394.18 743.264,-394.913 741.414,-388.162"/>
</g>
<!-- Node11 -->
<g id="node9" class="node"><title>Node11</title>
<g id="a_node9"><a xlink:href="../../d6/d59/_chain_set_8h.html" target="_top" xlink:title="Hash set implementation. ">
<polygon fill="white" stroke="black" points="202,-56.5 202,-75.5 280,-75.5 280,-56.5 202,-56.5"/>
<text text-anchor="middle" x="241" y="-63.5" font-family="Helvetica,sans-Serif" font-size="10.00">stl/ChainSet.h</text>
</a>
</g>
</g>
<!-- Node10&#45;&gt;Node11 -->
<g id="edge8" class="edge"><title>Node10&#45;&gt;Node11</title>
<path fill="none" stroke="midnightblue" d="M240.355,-101.805C240.52,-92.9102 240.708,-82.7798 240.838,-75.7511"/>
<polygon fill="midnightblue" stroke="midnightblue" points="236.851,-102.02 240.165,-112.083 243.85,-102.15 236.851,-102.02"/>
</g>
<!-- Node14 -->
<g id="node12" class="node"><title>Node14</title>
<g id="a_node12"><a xlink:href="../../d0/de6/_open_set_8h.html" target="_top" xlink:title="Hash set implementation. ">
<polygon fill="white" stroke="black" points="106.5,-56.5 106.5,-75.5 183.5,-75.5 183.5,-56.5 106.5,-56.5"/>
<text text-anchor="middle" x="145" y="-63.5" font-family="Helvetica,sans-Serif" font-size="10.00">stl/OpenSet.h</text>
</a>
</g>
</g>
<!-- Node13&#45;&gt;Node14 -->
<g id="edge11" class="edge"><title>Node13&#45;&gt;Node14</title>
<path fill="none" stroke="midnightblue" d="M96.8348,-105.82C108.838,-96.1452 123.972,-83.9481 134.039,-75.8339"/>
<polygon fill="midnightblue" stroke="midnightblue" points="94.3543,-103.324 88.7647,-112.324 98.747,-108.774 94.3543,-103.324"/>
</g>
<!-- Node16 -->
<g id="node14" class="node"><title>Node16</title>
<g id="a_node14"><a xlink:href="../../df/d87/_tree_map_8h.html" target="_top" xlink:title="Map implementation using red black tree. ">
<polygon fill="white" stroke="black" points="955,-0.5 955,-19.5 1031,-19.5 1031,-0.5 955,-0.5"/>
<text text-anchor="middle" x="993" y="-7.5" font-family="Helvetica,sans-Serif" font-size="10.00">stl/TreeMap.h</text>
</a>
</g>
</g>
<!-- Node15&#45;&gt;Node16 -->
<g id="edge13" class="edge"><title>Node15&#45;&gt;Node16</title>
<path fill="none" stroke="midnightblue" d="M1024.89,-48.4314C1016.82,-38.9673 1007.04,-27.4827 1000.45,-19.7511"/>
<polygon fill="midnightblue" stroke="midnightblue" points="1022.25,-50.7402 1031.4,-56.083 1027.58,-46.2009 1022.25,-50.7402"/>
</g>
<!-- Node17 -->
<g id="node15" class="node"><title>Node17</title>
<g id="a_node15"><a xlink:href="../../dd/dba/_tree_set_8h.html" target="_top" xlink:title="Set implementation using red black tree. ">
<polygon fill="white" stroke="black" points="1049,-0.5 1049,-19.5 1121,-19.5 1121,-0.5 1049,-0.5"/>
<text text-anchor="middle" x="1085" y="-7.5" font-family="Helvetica,sans-Serif" font-size="10.00">stl/TreeSet.h</text>
</a>
</g>
</g>
<!-- Node15&#45;&gt;Node17 -->
<g id="edge14" class="edge"><title>Node15&#45;&gt;Node17</title>
<path fill="none" stroke="midnightblue" d="M1053.11,-48.4314C1061.18,-38.9673 1070.96,-27.4827 1077.55,-19.7511"/>
<polygon fill="midnightblue" stroke="midnightblue" points="1050.42,-46.2009 1046.6,-56.083 1055.75,-50.7402 1050.42,-46.2009"/>
</g>
<!-- Node18&#45;&gt;Node19 -->
<g id="edge16" class="edge"><title>Node18&#45;&gt;Node19</title>
<path fill="none" stroke="midnightblue" d="M417.603,-389.304C449.447,-379.129 494.842,-364.625 523.347,-355.516"/>
<polygon fill="midnightblue" stroke="midnightblue" points="416.239,-386.066 407.779,-392.444 418.369,-392.734 416.239,-386.066"/>
</g>
<!-- Node21 -->
<g id="node19" class="node"><title>Node21</title>
<g id="a_node19"><a xlink:href="../../d9/d8a/_dynamic_string_8cpp.html" target="_top" xlink:title="DynamicString is a class that provides dynamic strings and functions for dynamic strings. ">
<polygon fill="white" stroke="black" points="708.5,-112.5 708.5,-131.5 839.5,-131.5 839.5,-112.5 708.5,-112.5"/>
<text text-anchor="middle" x="774" y="-119.5" font-family="Helvetica,sans-Serif" font-size="10.00">strings/DynamicString.cpp</text>
</a>
</g>
</g>
<!-- Node20&#45;&gt;Node21 -->
<g id="edge18" class="edge"><title>Node20&#45;&gt;Node21</title>
<path fill="none" stroke="midnightblue" d="M777.25,-158.101C776.42,-149.136 775.468,-138.858 774.81,-131.751"/>
<polygon fill="midnightblue" stroke="midnightblue" points="773.767,-158.448 778.174,-168.083 780.737,-157.803 773.767,-158.448"/>
</g>
<!-- Node23&#45;&gt;Node10 -->
<g id="edge46" class="edge"><title>Node23&#45;&gt;Node10</title>
<path fill="none" stroke="midnightblue" d="M836.234,-438.479C833.083,-423.833 826.5,-403.928 813,-392 765.82,-350.316 735.222,-377.36 676,-356 656.173,-348.849 652.22,-344.651 633,-336 482.716,-268.354 424.334,-287.562 293,-188 271.65,-171.815 253.611,-145.317 245.152,-131.692"/>
<polygon fill="midnightblue" stroke="midnightblue" points="832.81,-439.216 838.031,-448.435 839.699,-437.973 832.81,-439.216"/>
</g>
<!-- Node23&#45;&gt;Node13 -->
<g id="edge47" class="edge"><title>Node23&#45;&gt;Node13</title>
<path fill="none" stroke="midnightblue" d="M824.235,-441.101C809.719,-426.364 786.268,-404.839 762,-392 709.386,-364.164 687.626,-379.645 633,-356 617.261,-349.187 615.725,-342.845 600,-336 546.207,-312.585 529.325,-316.416 473,-300 306.415,-251.449 223.007,-309.366 99,-188 83.4053,-172.737 79.3793,-145.836 78.3483,-131.911"/>
<polygon fill="midnightblue" stroke="midnightblue" points="821.879,-443.7 831.328,-448.491 826.929,-438.853 821.879,-443.7"/>
</g>
<!-- Node23&#45;&gt;Node15 -->
<g id="edge48" class="edge"><title>Node23&#45;&gt;Node15</title>
<path fill="none" stroke="midnightblue" d="M877.115,-447.08C939.851,-428.19 1058,-380.708 1058,-291 1058,-291 1058,-291 1058,-177 1058,-138.821 1046.75,-94.2624 1041.56,-75.7514"/>
<polygon fill="midnightblue" stroke="midnightblue" points="875.805,-443.816 867.182,-449.971 877.762,-450.537 875.805,-443.816"/>
</g>
<!-- Node23&#45;&gt;Node24 -->
<g id="edge22" class="edge"><title>Node23&#45;&gt;Node24</title>
<path fill="none" stroke="midnightblue" d="M857.04,-441.537C868.273,-431.909 882.319,-419.869 891.694,-411.834"/>
<polygon fill="midnightblue" stroke="midnightblue" points="854.437,-439.159 849.122,-448.324 858.992,-444.473 854.437,-439.159"/>
</g>
<!-- Node23&#45;&gt;Node31 -->
<g id="edge49" class="edge"><title>Node23&#45;&gt;Node31</title>
<path fill="none" stroke="midnightblue" d="M877.033,-449.191C929.316,-438.456 1022.4,-419.343 1070.81,-409.403"/>
<polygon fill="midnightblue" stroke="midnightblue" points="876.237,-445.781 867.146,-451.221 877.645,-452.638 876.237,-445.781"/>
</g>
<!-- Node24&#45;&gt;Node9 -->
<g id="edge23" class="edge"><title>Node24&#45;&gt;Node9</title>
<path fill="none" stroke="midnightblue" d="M902.227,-382.049C902.979,-319.229 905.373,-119.334 905.898,-75.5351"/>
<polygon fill="midnightblue" stroke="midnightblue" points="898.723,-382.367 902.103,-392.408 905.722,-382.451 898.723,-382.367"/>
</g>
<!-- Node25 -->
<g id="node23" class="node"><title>Node25</title>
<g id="a_node23"><a xlink:href="../../de/d0b/_string_iterator_8h.html" target="_top" xlink:title="strings/StringIterator.h">
<polygon fill="white" stroke="black" points="685.5,-336.5 685.5,-355.5 798.5,-355.5 798.5,-336.5 685.5,-336.5"/>
<text text-anchor="middle" x="742" y="-343.5" font-family="Helvetica,sans-Serif" font-size="10.00">strings/StringIterator.h</text>
</a>
</g>
</g>
<!-- Node24&#45;&gt;Node25 -->
<g id="edge24" class="edge"><title>Node24&#45;&gt;Node25</title>
<path fill="none" stroke="midnightblue" d="M866.954,-389.172C836.826,-379.004 794.104,-364.585 767.234,-355.516"/>
<polygon fill="midnightblue" stroke="midnightblue" points="866.053,-392.562 876.648,-392.444 868.292,-385.929 866.053,-392.562"/>
</g>
<!-- Node25&#45;&gt;Node20 -->
<g id="edge45" class="edge"><title>Node25&#45;&gt;Node20</title>
<path fill="none" stroke="midnightblue" d="M746.251,-325.93C754.277,-289.92 771.37,-213.231 777.09,-187.568"/>
<polygon fill="midnightblue" stroke="midnightblue" points="742.749,-325.553 743.989,-336.075 749.581,-327.076 742.749,-325.553"/>
</g>
<!-- Node26 -->
<g id="node24" class="node"><title>Node26</title>
<g id="a_node24"><a xlink:href="../../d8/d65/_static_string_8h.html" target="_top" xlink:title="StaticString provides a String that is on stack and is of fixed size. ">
<polygon fill="white" stroke="black" points="566,-280.5 566,-299.5 674,-299.5 674,-280.5 566,-280.5"/>
<text text-anchor="middle" x="620" y="-287.5" font-family="Helvetica,sans-Serif" font-size="10.00">strings/StaticString.h</text>
</a>
</g>
</g>
<!-- Node25&#45;&gt;Node26 -->
<g id="edge25" class="edge"><title>Node25&#45;&gt;Node26</title>
<path fill="none" stroke="midnightblue" d="M713.461,-332.368C690.614,-322.255 659.195,-308.349 639.241,-299.516"/>
<polygon fill="midnightblue" stroke="midnightblue" points="712.108,-335.597 722.669,-336.444 714.941,-329.196 712.108,-335.597"/>
</g>
<!-- Node27 -->
<g id="node25" class="node"><title>Node27</title>
<g id="a_node25"><a xlink:href="../../d7/d0c/_comparator_8h.html" target="_top" xlink:title="Comparator implementation for basic types. ">
<polygon fill="white" stroke="black" points="601.5,-112.5 601.5,-131.5 690.5,-131.5 690.5,-112.5 601.5,-112.5"/>
<text text-anchor="middle" x="646" y="-119.5" font-family="Helvetica,sans-Serif" font-size="10.00">stl/Comparator.h</text>
</a>
</g>
</g>
<!-- Node26&#45;&gt;Node27 -->
<g id="edge26" class="edge"><title>Node26&#45;&gt;Node27</title>
<path fill="none" stroke="midnightblue" d="M643.249,-274.683C653.484,-266.988 664.432,-256.502 670,-244 687.6,-204.481 662.482,-151.991 651.102,-131.605"/>
<polygon fill="midnightblue" stroke="midnightblue" points="641.149,-271.881 634.952,-280.474 645.156,-277.621 641.149,-271.881"/>
</g>
<!-- Node28 -->
<g id="node26" class="node"><title>Node28</title>
<g id="a_node26"><a xlink:href="../../d2/dc2/_equal_8h.html" target="_top" xlink:title="stl/Equal.h">
<polygon fill="white" stroke="black" points="560.5,-168.5 560.5,-187.5 623.5,-187.5 623.5,-168.5 560.5,-168.5"/>
<text text-anchor="middle" x="592" y="-175.5" font-family="Helvetica,sans-Serif" font-size="10.00">stl/Equal.h</text>
</a>
</g>
</g>
<!-- Node26&#45;&gt;Node28 -->
<g id="edge29" class="edge"><title>Node26&#45;&gt;Node28</title>
<path fill="none" stroke="midnightblue" d="M595.879,-274.473C585.563,-266.828 574.616,-256.445 569,-244 560.137,-224.36 575.109,-200.204 584.779,-187.592"/>
<polygon fill="midnightblue" stroke="midnightblue" points="594.042,-277.457 604.266,-280.236 598.006,-271.688 594.042,-277.457"/>
</g>
<!-- Node29 -->
<g id="node27" class="node"><title>Node29</title>
<g id="a_node27"><a xlink:href="../../d2/dad/_hash_8h.html" target="_top" xlink:title="Provides hash functions for basic data types. ">
<polygon fill="white" stroke="black" points="108.5,-168.5 108.5,-187.5 169.5,-187.5 169.5,-168.5 108.5,-168.5"/>
<text text-anchor="middle" x="139" y="-175.5" font-family="Helvetica,sans-Serif" font-size="10.00">stl/Hash.h</text>
</a>
</g>
</g>
<!-- Node26&#45;&gt;Node29 -->
<g id="edge34" class="edge"><title>Node26&#45;&gt;Node29</title>
<path fill="none" stroke="midnightblue" d="M572.725,-278.189C474.63,-255.755 251.317,-204.686 169.648,-186.009"/>
<polygon fill="midnightblue" stroke="midnightblue" points="572.128,-281.643 582.657,-280.46 573.689,-274.819 572.128,-281.643"/>
</g>
<!-- Node30 -->
<g id="node28" class="node"><title>Node30</title>
<g id="a_node28"><a xlink:href="../../db/db5/_string_8h.html" target="_top" xlink:title="strings/String.h">
<polygon fill="white" stroke="black" points="578.5,-224.5 578.5,-243.5 661.5,-243.5 661.5,-224.5 578.5,-224.5"/>
<text text-anchor="middle" x="620" y="-231.5" font-family="Helvetica,sans-Serif" font-size="10.00">strings/String.h</text>
</a>
</g>
</g>
<!-- Node26&#45;&gt;Node30 -->
<g id="edge38" class="edge"><title>Node26&#45;&gt;Node30</title>
<path fill="none" stroke="midnightblue" d="M613.528,-270.101C612.896,-261.136 613.343,-250.858 614.869,-243.751"/>
<polygon fill="midnightblue" stroke="midnightblue" points="610.066,-270.622 614.834,-280.083 617.007,-269.713 610.066,-270.622"/>
</g>
<!-- Node27&#45;&gt;Node9 -->
<g id="edge27" class="edge"><title>Node27&#45;&gt;Node9</title>
<path fill="none" stroke="midnightblue" d="M696.991,-110.41C746.128,-100.204 819.527,-84.9597 864.995,-75.5164"/>
<polygon fill="midnightblue" stroke="midnightblue" points="696.277,-106.983 687.198,-112.444 697.701,-113.837 696.277,-106.983"/>
</g>
<!-- Node27&#45;&gt;Node15 -->
<g id="edge28" class="edge"><title>Node27&#45;&gt;Node15</title>
<path fill="none" stroke="midnightblue" d="M700.666,-111.791C809.31,-95.5185 925.088,-80.8782 989.369,-72.9909"/>
<polygon fill="midnightblue" stroke="midnightblue" points="699.881,-108.369 690.514,-113.319 700.924,-115.291 699.881,-108.369"/>
</g>
<!-- Node28&#45;&gt;Node10 -->
<g id="edge31" class="edge"><title>Node28&#45;&gt;Node10</title>
<path fill="none" stroke="midnightblue" d="M550.363,-168.001C447.864,-149.595 339.286,-135.255 281.406,-128.022"/>
<polygon fill="midnightblue" stroke="midnightblue" points="549.798,-171.456 560.262,-169.795 551.046,-164.568 549.798,-171.456"/>
</g>
<!-- Node28&#45;&gt;Node13 -->
<g id="edge32" class="edge"><title>Node28&#45;&gt;Node13</title>
<path fill="none" stroke="midnightblue" d="M550.269,-168.116C450.896,-153.562 213.503,-133.861 118.33,-126.203"/>
<polygon fill="midnightblue" stroke="midnightblue" points="549.875,-171.596 560.288,-169.641 550.928,-164.676 549.875,-171.596"/>
</g>
<!-- Node28&#45;&gt;Node14 -->
<g id="edge33" class="edge"><title>Node28&#45;&gt;Node14</title>
<path fill="none" stroke="midnightblue" d="M550.358,-166.752C462.752,-145.194 260.804,-95.4975 179.672,-75.5322"/>
<polygon fill="midnightblue" stroke="midnightblue" points="549.665,-170.186 560.211,-169.177 551.337,-163.389 549.665,-170.186"/>
</g>
<!-- Node28&#45;&gt;Node27 -->
<g id="edge30" class="edge"><title>Node28&#45;&gt;Node27</title>
<path fill="none" stroke="midnightblue" d="M607.998,-161.002C617.567,-151.433 629.361,-139.639 637.249,-131.751"/>
<polygon fill="midnightblue" stroke="midnightblue" points="605.513,-158.537 600.917,-168.083 610.463,-163.487 605.513,-158.537"/>
</g>
<!-- Node29&#45;&gt;Node10 -->
<g id="edge35" class="edge"><title>Node29&#45;&gt;Node10</title>
<path fill="none" stroke="midnightblue" d="M164.083,-163.59C182.757,-153.605 207.704,-140.267 223.813,-131.655"/>
<polygon fill="midnightblue" stroke="midnightblue" points="162.396,-160.522 155.227,-168.324 165.696,-166.696 162.396,-160.522"/>
</g>
<!-- Node29&#45;&gt;Node13 -->
<g id="edge36" class="edge"><title>Node29&#45;&gt;Node13</title>
<path fill="none" stroke="midnightblue" d="M121.533,-161.537C110.656,-151.909 97.0561,-139.869 87.979,-131.834"/>
<polygon fill="midnightblue" stroke="midnightblue" points="119.392,-164.316 129.199,-168.324 124.032,-159.075 119.392,-164.316"/>
</g>
<!-- Node29&#45;&gt;Node14 -->
<g id="edge37" class="edge"><title>Node29&#45;&gt;Node14</title>
<path fill="none" stroke="midnightblue" d="M140.017,-158.348C141.332,-134.254 143.565,-93.3079 144.531,-75.5914"/>
<polygon fill="midnightblue" stroke="midnightblue" points="136.521,-158.193 139.471,-168.368 143.51,-158.574 136.521,-158.193"/>
</g>
<!-- Node30&#45;&gt;Node7 -->
<g id="edge40" class="edge"><title>Node30&#45;&gt;Node7</title>
<path fill="none" stroke="midnightblue" d="M568.421,-222.41C518.717,-212.204 444.471,-196.96 398.478,-187.516"/>
<polygon fill="midnightblue" stroke="midnightblue" points="567.827,-225.861 578.327,-224.444 569.235,-219.004 567.827,-225.861"/>
</g>
<!-- Node30&#45;&gt;Node20 -->
<g id="edge44" class="edge"><title>Node30&#45;&gt;Node20</title>
<path fill="none" stroke="midnightblue" d="M654.827,-221.172C684.766,-211.004 727.221,-196.585 753.924,-187.516"/>
<polygon fill="midnightblue" stroke="midnightblue" points="653.537,-217.914 645.194,-224.444 655.788,-224.542 653.537,-217.914"/>
</g>
<!-- Node30&#45;&gt;Node22 -->
<g id="edge39" class="edge"><title>Node30&#45;&gt;Node22</title>
<path fill="none" stroke="midnightblue" d="M589.323,-220.638C564.177,-210.504 529.246,-196.427 507.133,-187.516"/>
<polygon fill="midnightblue" stroke="midnightblue" points="588.184,-223.952 598.767,-224.444 590.8,-217.459 588.184,-223.952"/>
</g>
<!-- Node30&#45;&gt;Node26 -->
<g id="edge43" class="edge"><title>Node30&#45;&gt;Node26</title>
<path fill="none" stroke="midnightblue" d="M626.458,-253.691C627.106,-262.635 626.676,-272.927 625.166,-280.083"/>
<polygon fill="midnightblue" stroke="midnightblue" points="629.923,-253.2 625.131,-243.751 622.985,-254.126 629.923,-253.2"/>
</g>
<!-- Node30&#45;&gt;Node27 -->
<g id="edge41" class="edge"><title>Node30&#45;&gt;Node27</title>
<path fill="none" stroke="midnightblue" d="M625.143,-214.524C627.346,-206.409 629.891,-196.755 632,-188 636.812,-168.024 641.701,-144.402 644.233,-131.862"/>
<polygon fill="midnightblue" stroke="midnightblue" points="621.703,-213.835 622.425,-224.405 628.452,-215.691 621.703,-213.835"/>
</g>
<!-- Node30&#45;&gt;Node28 -->
<g id="edge42" class="edge"><title>Node30&#45;&gt;Node28</title>
<path fill="none" stroke="midnightblue" d="M610.658,-214.983C605.905,-205.817 600.344,-195.092 596.538,-187.751"/>
<polygon fill="midnightblue" stroke="midnightblue" points="607.666,-216.817 615.376,-224.083 613.88,-213.594 607.666,-216.817"/>
</g>
<!-- Node32&#45;&gt;Node9 -->
<g id="edge60" class="edge"><title>Node32&#45;&gt;Node9</title>
<path fill="none" stroke="midnightblue" d="M1031.39,-438.285C1027.34,-407.59 1020,-344.599 1020,-291 1020,-291 1020,-291 1020,-233 1020,-161.33 946.897,-97.9964 917.771,-75.6063"/>
<polygon fill="midnightblue" stroke="midnightblue" points="1027.95,-438.942 1032.76,-448.381 1034.88,-438.001 1027.95,-438.942"/>
</g>
<!-- Node32&#45;&gt;Node24 -->
<g id="edge59" class="edge"><title>Node32&#45;&gt;Node24</title>
<path fill="none" stroke="midnightblue" d="M1003.78,-444.638C979.01,-434.504 944.6,-420.427 922.818,-411.516"/>
<polygon fill="midnightblue" stroke="midnightblue" points="1002.5,-447.897 1013.08,-448.444 1005.15,-441.418 1002.5,-447.897"/>
</g>
</g>
</svg>
