<?xml version="1.0" encoding="UTF-8" standalone="no"?>
<!DOCTYPE svg PUBLIC "-//W3C//DTD SVG 1.1//EN"
 "http://www.w3.org/Graphics/SVG/1.1/DTD/svg11.dtd">
<!-- Generated by graphviz version 2.36.0 (20140111.2315)
 -->
<!-- Title: wlp::RedBlackTreeNode&lt; Element &gt; Pages: 1 -->
<svg width="191pt" height="109pt"
 viewBox="0.00 0.00 191.00 108.50" xmlns="http://www.w3.org/2000/svg" xmlns:xlink="http://www.w3.org/1999/xlink">
<g id="graph0" class="graph" transform="scale(1 1) rotate(0) translate(4 104.5)">
<title>wlp::RedBlackTreeNode&lt; Element &gt;</title>
<polygon fill="white" stroke="none" points="-4,4 -4,-104.5 187,-104.5 187,4 -4,4"/>
<!-- Node1 -->
<g id="node1" class="node"><title>Node1</title>
<polygon fill="#bfbfbf" stroke="black" points="1.5,-1.5 1.5,-31.5 124.5,-31.5 124.5,-1.5 1.5,-1.5"/>
<text text-anchor="start" x="9.5" y="-19.5" font-family="Helvetica,sans-Serif" font-size="10.00">wlp::RedBlackTreeNode</text>
<text text-anchor="middle" x="63" y="-8.5" font-family="Helvetica,sans-Serif" font-size="10.00">&lt; Element &gt;</text>
</g>
<!-- Node1&#45;&gt;Node1 -->
<g id="edge3" class="edge"><title>Node1&#45;&gt;Node1</title>
<path fill="none" stroke="#9a32cd" stroke-dasharray="5,2" d="M134.634,-21.8048C139.226,-20.5632 142,-18.7949 142,-16.5 142,-12.8281 134.899,-10.5045 124.608,-9.52917"/>
<polygon fill="#9a32cd" stroke="#9a32cd" points="133.899,-18.3787 124.608,-23.4708 135.047,-25.284 133.899,-18.3787"/>
<text text-anchor="middle" x="162.5" y="-25" font-family="Helvetica,sans-Serif" font-size="10.00"> m_left</text>
<text text-anchor="middle" x="162.5" y="-14" font-family="Helvetica,sans-Serif" font-size="10.00">m_parent</text>
<text text-anchor="middle" x="162.5" y="-3" font-family="Helvetica,sans-Serif" font-size="10.00">m_right</text>
</g>
<!-- Node2 -->
<g id="node2" class="node"><title>Node2</title>
<polygon fill="white" stroke="#bfbfbf" points="-0.5,-81 -0.5,-100 52.5,-100 52.5,-81 -0.5,-81"/>
<text text-anchor="middle" x="26" y="-88" font-family="Helvetica,sans-Serif" font-size="10.00">Element</text>
</g>
<!-- Node2&#45;&gt;Node1 -->
<g id="edge1" class="edge"><title>Node2&#45;&gt;Node1</title>
<path fill="none" stroke="#9a32cd" stroke-dasharray="5,2" d="M23.5348,-70.5583C23.4279,-63.9545 24.1953,-56.6604 27,-50.5 30.3024,-43.2466 36.0334,-36.8706 41.9642,-31.7056"/>
<polygon fill="#9a32cd" stroke="#9a32cd" points="20.059,-71.0045 24.3344,-80.6983 27.0373,-70.4541 20.059,-71.0045"/>
<text text-anchor="middle" x="53" y="-54" font-family="Helvetica,sans-Serif" font-size="10.00"> m_element</text>
</g>
<!-- Node3 -->
<g id="node3" class="node"><title>Node3</title>
<polygon fill="white" stroke="#bfbfbf" points="83.5,-81 83.5,-100 118.5,-100 118.5,-81 83.5,-81"/>
<text text-anchor="middle" x="101" y="-88" font-family="Helvetica,sans-Serif" font-size="10.00">type</text>
</g>
<!-- Node3&#45;&gt;Node1 -->
<g id="edge2" class="edge"><title>Node3&#45;&gt;Node1</title>
<path fill="none" stroke="#9a32cd" stroke-dasharray="5,2" d="M91.8021,-72.0723C85.2753,-59.7058 76.6233,-43.3125 70.5111,-31.7316"/>
<polygon fill="#9a32cd" stroke="#9a32cd" points="88.7287,-73.7477 96.4917,-80.9579 94.9194,-70.4804 88.7287,-73.7477"/>
<text text-anchor="middle" x="105" y="-54" font-family="Helvetica,sans-Serif" font-size="10.00"> m_color</text>
</g>
</g>
</svg>
