<?xml version="1.0" encoding="UTF-8" standalone="no"?>
<!DOCTYPE svg PUBLIC "-//W3C//DTD SVG 1.1//EN"
 "http://www.w3.org/Graphics/SVG/1.1/DTD/svg11.dtd">
<!-- Generated by graphviz version 2.36.0 (20140111.2315)
 -->
<!-- Title: wlib/stl/InitializerList.h Pages: 1 -->
<svg width="221pt" height="84pt"
 viewBox="0.00 0.00 221.00 84.00" xmlns="http://www.w3.org/2000/svg" xmlns:xlink="http://www.w3.org/1999/xlink">
<g id="graph0" class="graph" transform="scale(1 1) rotate(0) translate(4 80)">
<title>wlib/stl/InitializerList.h</title>
<polygon fill="white" stroke="none" points="-4,4 -4,-80 217,-80 217,4 -4,4"/>
<!-- Node1 -->
<g id="node1" class="node"><title>Node1</title>
<polygon fill="#bfbfbf" stroke="black" points="48.5,-56.5 48.5,-75.5 161.5,-75.5 161.5,-56.5 48.5,-56.5"/>
<text text-anchor="middle" x="105" y="-63.5" font-family="Helvetica,sans-Serif" font-size="10.00">wlib/stl/InitializerList.h</text>
</g>
<!-- Node2 -->
<g id="node2" class="node"><title>Node2</title>
<g id="a_node2"><a xlink:href="../../d1/d65/_array2_d_8h.html" target="_top" xlink:title="wlib/stl/Array2D.h">
<polygon fill="white" stroke="black" points="-0.5,-0.5 -0.5,-19.5 94.5,-19.5 94.5,-0.5 -0.5,-0.5"/>
<text text-anchor="middle" x="47" y="-7.5" font-family="Helvetica,sans-Serif" font-size="10.00">wlib/stl/Array2D.h</text>
</a>
</g>
</g>
<!-- Node1&#45;&gt;Node2 -->
<g id="edge1" class="edge"><title>Node1&#45;&gt;Node2</title>
<path fill="none" stroke="midnightblue" d="M88.0869,-49.2533C77.797,-39.6731 65.0343,-27.7906 56.4883,-19.8339"/>
<polygon fill="midnightblue" stroke="midnightblue" points="85.9774,-52.0714 95.6813,-56.324 90.7473,-46.9481 85.9774,-52.0714"/>
</g>
<!-- Node3 -->
<g id="node3" class="node"><title>Node3</title>
<g id="a_node3"><a xlink:href="../../d1/dae/_vector2_d_8h.html" target="_top" xlink:title="wlib/stl/Vector2D.h">
<polygon fill="white" stroke="black" points="113,-0.5 113,-19.5 213,-19.5 213,-0.5 113,-0.5"/>
<text text-anchor="middle" x="163" y="-7.5" font-family="Helvetica,sans-Serif" font-size="10.00">wlib/stl/Vector2D.h</text>
</a>
</g>
</g>
<!-- Node1&#45;&gt;Node3 -->
<g id="edge2" class="edge"><title>Node1&#45;&gt;Node3</title>
<path fill="none" stroke="midnightblue" d="M121.913,-49.2533C132.203,-39.6731 144.966,-27.7906 153.512,-19.8339"/>
<polygon fill="midnightblue" stroke="midnightblue" points="119.253,-46.9481 114.319,-56.324 124.023,-52.0714 119.253,-46.9481"/>
</g>
</g>
</svg>
