<?xml version="1.0" encoding="UTF-8" standalone="no"?>
<!DOCTYPE svg PUBLIC "-//W3C//DTD SVG 1.1//EN"
 "http://www.w3.org/Graphics/SVG/1.1/DTD/svg11.dtd">
<!-- Generated by graphviz version 2.36.0 (20140111.2315)
 -->
<!-- Title: stl/TreeMap.h Pages: 1 -->
<svg width="676pt" height="644pt"
 viewBox="0.00 0.00 676.00 644.00" xmlns="http://www.w3.org/2000/svg" xmlns:xlink="http://www.w3.org/1999/xlink">
<g id="graph0" class="graph" transform="scale(1 1) rotate(0) translate(4 640)">
<title>stl/TreeMap.h</title>
<polygon fill="white" stroke="none" points="-4,4 -4,-640 672,-640 672,4 -4,4"/>
<!-- Node1 -->
<g id="node1" class="node"><title>Node1</title>
<polygon fill="#bfbfbf" stroke="black" points="44.5,-616.5 44.5,-635.5 121.5,-635.5 121.5,-616.5 44.5,-616.5"/>
<text text-anchor="middle" x="83" y="-623.5" font-family="Helvetica,sans-Serif" font-size="10.00">stl/TreeMap.h</text>
</g>
<!-- Node2 -->
<g id="node2" class="node"><title>Node2</title>
<g id="a_node2"><a xlink:href="../../d0/db6/_types_8h.html" target="_top" xlink:title="type definition of all the string types we will be using ">
<polygon fill="white" stroke="black" points="407.5,-56.5 407.5,-75.5 468.5,-75.5 468.5,-56.5 407.5,-56.5"/>
<text text-anchor="middle" x="438" y="-63.5" font-family="Helvetica,sans-Serif" font-size="10.00">../Types.h</text>
</a>
</g>
</g>
<!-- Node1&#45;&gt;Node2 -->
<g id="edge1" class="edge"><title>Node1&#45;&gt;Node2</title>
<path fill="none" stroke="midnightblue" d="M70.0312,-616.425C46.6875,-599.842 0,-560.934 0,-515 0,-515 0,-515 0,-177 0,-132.553 35.337,-129.945 76,-112 132.825,-86.9223 315.096,-73.8555 397.214,-69.1165"/>
<polygon fill="midnightblue" stroke="midnightblue" points="397.629,-72.5988 407.416,-68.5411 397.235,-65.6099 397.629,-72.5988"/>
</g>
<!-- Node4 -->
<g id="node4" class="node"><title>Node4</title>
<g id="a_node4"><a xlink:href="../../d5/d08/_red_black_tree_8h.html" target="_top" xlink:title="Red black tree implementation. ">
<polygon fill="white" stroke="black" points="122.5,-560.5 122.5,-579.5 209.5,-579.5 209.5,-560.5 122.5,-560.5"/>
<text text-anchor="middle" x="166" y="-567.5" font-family="Helvetica,sans-Serif" font-size="10.00">RedBlackTree.h</text>
</a>
</g>
</g>
<!-- Node1&#45;&gt;Node4 -->
<g id="edge3" class="edge"><title>Node1&#45;&gt;Node4</title>
<path fill="none" stroke="midnightblue" d="M96.3354,-616.324C109.162,-607.979 128.785,-595.212 143.94,-585.352"/>
<polygon fill="midnightblue" stroke="midnightblue" points="146.224,-588.042 152.698,-579.655 142.407,-582.174 146.224,-588.042"/>
</g>
<!-- Node3 -->
<g id="node3" class="node"><title>Node3</title>
<polygon fill="white" stroke="#bfbfbf" points="413.5,-0.5 413.5,-19.5 462.5,-19.5 462.5,-0.5 413.5,-0.5"/>
<text text-anchor="middle" x="438" y="-7.5" font-family="Helvetica,sans-Serif" font-size="10.00">stdint.h</text>
</g>
<!-- Node2&#45;&gt;Node3 -->
<g id="edge2" class="edge"><title>Node2&#45;&gt;Node3</title>
<path fill="none" stroke="midnightblue" d="M438,-56.083C438,-49.0059 438,-38.8611 438,-29.9865"/>
<polygon fill="midnightblue" stroke="midnightblue" points="441.5,-29.751 438,-19.7511 434.5,-29.7511 441.5,-29.751"/>
</g>
<!-- Node4&#45;&gt;Node2 -->
<g id="edge34" class="edge"><title>Node4&#45;&gt;Node2</title>
<path fill="none" stroke="midnightblue" d="M209.671,-568.681C331.805,-566.62 668,-552.459 668,-459 668,-459 668,-459 668,-177 668,-94.0211 544.657,-73.5842 478.621,-68.5888"/>
<polygon fill="midnightblue" stroke="midnightblue" points="478.754,-65.0899 468.542,-67.9124 478.285,-72.0742 478.754,-65.0899"/>
</g>
<!-- Node5 -->
<g id="node5" class="node"><title>Node5</title>
<g id="a_node5"><a xlink:href="../../d7/d0c/_comparator_8h.html" target="_top" xlink:title="Comparator implementation for basic types. ">
<polygon fill="white" stroke="black" points="300,-504.5 300,-523.5 376,-523.5 376,-504.5 300,-504.5"/>
<text text-anchor="middle" x="338" y="-511.5" font-family="Helvetica,sans-Serif" font-size="10.00">Comparator.h</text>
</a>
</g>
</g>
<!-- Node4&#45;&gt;Node5 -->
<g id="edge4" class="edge"><title>Node4&#45;&gt;Node5</title>
<path fill="none" stroke="midnightblue" d="M193.254,-560.444C222.441,-551.28 268.921,-536.688 301.309,-526.519"/>
<polygon fill="midnightblue" stroke="midnightblue" points="302.381,-529.851 310.874,-523.516 300.284,-523.173 302.381,-529.851"/>
</g>
<!-- Node11 -->
<g id="node11" class="node"><title>Node11</title>
<g id="a_node11"><a xlink:href="../../d4/dda/_pair_8h.html" target="_top" xlink:title="Implementation of a 2&#45;element tuple. ">
<polygon fill="white" stroke="black" points="284,-224.5 284,-243.5 326,-243.5 326,-224.5 284,-224.5"/>
<text text-anchor="middle" x="305" y="-231.5" font-family="Helvetica,sans-Serif" font-size="10.00">Pair.h</text>
</a>
</g>
</g>
<!-- Node4&#45;&gt;Node11 -->
<g id="edge33" class="edge"><title>Node4&#45;&gt;Node11</title>
<path fill="none" stroke="midnightblue" d="M169.576,-560.408C187.935,-516.292 271.746,-314.906 297.469,-253.095"/>
<polygon fill="midnightblue" stroke="midnightblue" points="300.837,-254.112 301.448,-243.535 294.374,-251.423 300.837,-254.112"/>
</g>
<!-- Node12 -->
<g id="node12" class="node"><title>Node12</title>
<g id="a_node12"><a xlink:href="../../db/d2a/_utility_8h.html" target="_top" xlink:title="Various helper functions. ">
<polygon fill="white" stroke="black" points="142,-168.5 142,-187.5 228,-187.5 228,-168.5 142,-168.5"/>
<text text-anchor="middle" x="185" y="-175.5" font-family="Helvetica,sans-Serif" font-size="10.00">../utility/Utility.h</text>
</a>
</g>
</g>
<!-- Node4&#45;&gt;Node12 -->
<g id="edge36" class="edge"><title>Node4&#45;&gt;Node12</title>
<path fill="none" stroke="midnightblue" d="M151.54,-560.442C126.099,-544.165 76,-506.129 76,-459 76,-459 76,-459 76,-345 76,-285.554 97.079,-271.366 133,-224 141.68,-212.555 153.686,-201.928 163.976,-193.879"/>
<polygon fill="midnightblue" stroke="midnightblue" points="166.218,-196.571 172.104,-187.762 162.009,-190.978 166.218,-196.571"/>
</g>
<!-- Node17 -->
<g id="node17" class="node"><title>Node17</title>
<g id="a_node17"><a xlink:href="../../d3/de6/_memory_8h.html" target="_top" xlink:title="Memory is a class that provides dynamic fixed size memory. ">
<polygon fill="white" stroke="black" points="104.5,-336.5 104.5,-355.5 211.5,-355.5 211.5,-336.5 104.5,-336.5"/>
<text text-anchor="middle" x="158" y="-343.5" font-family="Helvetica,sans-Serif" font-size="10.00">../memory/Memory.h</text>
</a>
</g>
</g>
<!-- Node4&#45;&gt;Node17 -->
<g id="edge35" class="edge"><title>Node4&#45;&gt;Node17</title>
<path fill="none" stroke="midnightblue" d="M165.686,-560.297C164.509,-527.633 160.338,-411.866 158.683,-365.957"/>
<polygon fill="midnightblue" stroke="midnightblue" points="162.178,-365.751 158.32,-355.884 155.183,-366.003 162.178,-365.751"/>
</g>
<!-- Node5&#45;&gt;Node2 -->
<g id="edge6" class="edge"><title>Node5&#45;&gt;Node2</title>
<path fill="none" stroke="midnightblue" d="M376.174,-506.878C455.324,-493.104 630,-456.631 630,-403 630,-403 630,-403 630,-177 630,-107.924 535.28,-81.6162 478.898,-72.0752"/>
<polygon fill="midnightblue" stroke="midnightblue" points="479.273,-68.5909 468.848,-70.4823 478.177,-75.5046 479.273,-68.5909"/>
</g>
<!-- Node6 -->
<g id="node6" class="node"><title>Node6</title>
<polygon fill="white" stroke="#bfbfbf" points="322.5,-280.5 322.5,-299.5 371.5,-299.5 371.5,-280.5 322.5,-280.5"/>
<text text-anchor="middle" x="347" y="-287.5" font-family="Helvetica,sans-Serif" font-size="10.00">string.h</text>
</g>
<!-- Node5&#45;&gt;Node6 -->
<g id="edge5" class="edge"><title>Node5&#45;&gt;Node6</title>
<path fill="none" stroke="midnightblue" d="M337.298,-504.483C335.777,-484.71 332.504,-434.163 335,-392 336.709,-363.132 341.142,-329.865 344.115,-309.642"/>
<polygon fill="midnightblue" stroke="midnightblue" points="347.597,-310.026 345.627,-299.616 340.675,-308.982 347.597,-310.026"/>
</g>
<!-- Node7 -->
<g id="node7" class="node"><title>Node7</title>
<g id="a_node7"><a xlink:href="../../d2/dc2/_equal_8h.html" target="_top" xlink:title="stl/Equal.h">
<polygon fill="white" stroke="black" points="246.5,-448.5 246.5,-467.5 309.5,-467.5 309.5,-448.5 246.5,-448.5"/>
<text text-anchor="middle" x="278" y="-455.5" font-family="Helvetica,sans-Serif" font-size="10.00">stl/Equal.h</text>
</a>
</g>
</g>
<!-- Node5&#45;&gt;Node7 -->
<g id="edge7" class="edge"><title>Node5&#45;&gt;Node7</title>
<path fill="none" stroke="midnightblue" d="M328.36,-504.324C319.49,-496.341 306.125,-484.313 295.392,-474.653"/>
<polygon fill="midnightblue" stroke="midnightblue" points="297.59,-471.922 287.815,-467.834 292.907,-477.125 297.59,-471.922"/>
</g>
<!-- Node8 -->
<g id="node8" class="node"><title>Node8</title>
<g id="a_node8"><a xlink:href="../../db/db5/_string_8h.html" target="_top" xlink:title="../strings/String.h">
<polygon fill="white" stroke="black" points="344,-392.5 344,-411.5 436,-411.5 436,-392.5 344,-392.5"/>
<text text-anchor="middle" x="390" y="-399.5" font-family="Helvetica,sans-Serif" font-size="10.00">../strings/String.h</text>
</a>
</g>
</g>
<!-- Node5&#45;&gt;Node8 -->
<g id="edge32" class="edge"><title>Node5&#45;&gt;Node8</title>
<path fill="none" stroke="midnightblue" d="M342.08,-504.368C350.548,-486.456 370.182,-444.923 381.515,-420.948"/>
<polygon fill="midnightblue" stroke="midnightblue" points="384.829,-422.128 385.939,-411.591 378.5,-419.136 384.829,-422.128"/>
</g>
<!-- Node7&#45;&gt;Node2 -->
<g id="edge9" class="edge"><title>Node7&#45;&gt;Node2</title>
<path fill="none" stroke="midnightblue" d="M246.13,-450.631C180.845,-435.531 38,-391.058 38,-291 38,-291 38,-291 38,-177 38,-103.092 295.093,-76.9883 397.053,-69.5421"/>
<polygon fill="midnightblue" stroke="midnightblue" points="397.548,-73.0159 407.277,-68.8203 397.055,-66.0333 397.548,-73.0159"/>
</g>
<!-- Node7&#45;&gt;Node6 -->
<g id="edge8" class="edge"><title>Node7&#45;&gt;Node6</title>
<path fill="none" stroke="midnightblue" d="M278.032,-448.213C278.458,-427.435 281.617,-374.158 302,-336 308.138,-324.51 318.167,-314.058 327.202,-306.125"/>
<polygon fill="midnightblue" stroke="midnightblue" points="329.617,-308.67 335.079,-299.591 325.148,-303.282 329.617,-308.67"/>
</g>
<!-- Node7&#45;&gt;Node8 -->
<g id="edge10" class="edge"><title>Node7&#45;&gt;Node8</title>
<path fill="none" stroke="midnightblue" d="M295.995,-448.324C314.038,-439.625 342.047,-426.12 362.803,-416.113"/>
<polygon fill="midnightblue" stroke="midnightblue" points="364.562,-419.15 372.05,-411.655 361.522,-412.845 364.562,-419.15"/>
</g>
<!-- Node8&#45;&gt;Node2 -->
<g id="edge23" class="edge"><title>Node8&#45;&gt;Node2</title>
<path fill="none" stroke="midnightblue" d="M436.107,-394.846C483.367,-387.647 552.605,-374.336 572,-356 593.964,-335.235 592,-321.225 592,-291 592,-291 592,-291 592,-177 592,-121.137 524.07,-90.9558 478.442,-76.9847"/>
<polygon fill="midnightblue" stroke="midnightblue" points="479.374,-73.6108 468.794,-74.1673 477.412,-80.3302 479.374,-73.6108"/>
</g>
<!-- Node8&#45;&gt;Node6 -->
<g id="edge11" class="edge"><title>Node8&#45;&gt;Node6</title>
<path fill="none" stroke="midnightblue" d="M386.626,-392.368C379.624,-374.456 363.388,-332.923 354.016,-308.948"/>
<polygon fill="midnightblue" stroke="midnightblue" points="357.259,-307.631 350.358,-299.591 350.74,-310.179 357.259,-307.631"/>
</g>
<!-- Node9 -->
<g id="node9" class="node"><title>Node9</title>
<g id="a_node9"><a xlink:href="../../de/d0b/_string_iterator_8h.html" target="_top" xlink:title="StringIterator.h">
<polygon fill="white" stroke="black" points="482.5,-336.5 482.5,-355.5 563.5,-355.5 563.5,-336.5 482.5,-336.5"/>
<text text-anchor="middle" x="523" y="-343.5" font-family="Helvetica,sans-Serif" font-size="10.00">StringIterator.h</text>
</a>
</g>
</g>
<!-- Node8&#45;&gt;Node9 -->
<g id="edge12" class="edge"><title>Node8&#45;&gt;Node9</title>
<path fill="none" stroke="midnightblue" d="M411.074,-392.444C433.06,-383.517 467.734,-369.439 492.664,-359.317"/>
<polygon fill="midnightblue" stroke="midnightblue" points="494.076,-362.521 502.024,-355.516 491.442,-356.035 494.076,-362.521"/>
</g>
<!-- Node16 -->
<g id="node16" class="node"><title>Node16</title>
<g id="a_node16"><a xlink:href="../../da/db8/_math_8h.html" target="_top" xlink:title="../utility/Math.h">
<polygon fill="white" stroke="black" points="382,-336.5 382,-355.5 464,-355.5 464,-336.5 382,-336.5"/>
<text text-anchor="middle" x="423" y="-343.5" font-family="Helvetica,sans-Serif" font-size="10.00">../utility/Math.h</text>
</a>
</g>
</g>
<!-- Node8&#45;&gt;Node16 -->
<g id="edge24" class="edge"><title>Node8&#45;&gt;Node16</title>
<path fill="none" stroke="midnightblue" d="M395.449,-392.083C400.014,-384.613 406.668,-373.724 412.293,-364.52"/>
<polygon fill="midnightblue" stroke="midnightblue" points="415.424,-366.109 417.652,-355.751 409.451,-362.459 415.424,-366.109"/>
</g>
<!-- Node8&#45;&gt;Node17 -->
<g id="edge25" class="edge"><title>Node8&#45;&gt;Node17</title>
<path fill="none" stroke="midnightblue" d="M353.239,-392.444C312.937,-383.063 248.191,-367.993 204.415,-357.804"/>
<polygon fill="midnightblue" stroke="midnightblue" points="205.122,-354.375 194.589,-355.516 203.535,-361.192 205.122,-354.375"/>
</g>
<!-- Node9&#45;&gt;Node2 -->
<g id="edge13" class="edge"><title>Node9&#45;&gt;Node2</title>
<path fill="none" stroke="midnightblue" d="M523,-336.442C523,-317.936 523,-272.812 523,-235 523,-235 523,-235 523,-177 523,-135.765 485.139,-100.574 459.953,-81.7262"/>
<polygon fill="midnightblue" stroke="midnightblue" points="461.818,-78.7563 451.657,-75.758 457.731,-84.4388 461.818,-78.7563"/>
</g>
<!-- Node10 -->
<g id="node10" class="node"><title>Node10</title>
<g id="a_node10"><a xlink:href="../../d8/dd7/_concept_8h.html" target="_top" xlink:title="Concept definitions. ">
<polygon fill="white" stroke="black" points="389,-280.5 389,-299.5 473,-299.5 473,-280.5 389,-280.5"/>
<text text-anchor="middle" x="431" y="-287.5" font-family="Helvetica,sans-Serif" font-size="10.00">../stl/Concept.h</text>
</a>
</g>
</g>
<!-- Node9&#45;&gt;Node10 -->
<g id="edge14" class="edge"><title>Node9&#45;&gt;Node10</title>
<path fill="none" stroke="midnightblue" d="M508.219,-336.324C493.733,-327.822 471.427,-314.729 454.507,-304.797"/>
<polygon fill="midnightblue" stroke="midnightblue" points="456.141,-301.698 445.745,-299.655 452.597,-307.735 456.141,-301.698"/>
</g>
<!-- Node10&#45;&gt;Node11 -->
<g id="edge15" class="edge"><title>Node10&#45;&gt;Node11</title>
<path fill="none" stroke="midnightblue" d="M411.035,-280.444C390.391,-271.596 357.937,-257.687 334.368,-247.586"/>
<polygon fill="midnightblue" stroke="midnightblue" points="335.442,-244.239 324.872,-243.516 332.684,-250.673 335.442,-244.239"/>
</g>
<!-- Node13 -->
<g id="node13" class="node"><title>Node13</title>
<g id="a_node13"><a xlink:href="../../d2/d37/_tmp_8h.html" target="_top" xlink:title="Template helper types, structs, and metafunctions. ">
<polygon fill="white" stroke="black" points="332,-112.5 332,-131.5 376,-131.5 376,-112.5 332,-112.5"/>
<text text-anchor="middle" x="354" y="-119.5" font-family="Helvetica,sans-Serif" font-size="10.00">Tmp.h</text>
</a>
</g>
</g>
<!-- Node10&#45;&gt;Node13 -->
<g id="edge22" class="edge"><title>Node10&#45;&gt;Node13</title>
<path fill="none" stroke="midnightblue" d="M425.148,-280.447C413.757,-263.482 388.378,-224.087 373,-188 366.519,-172.79 361.425,-154.677 358.15,-141.439"/>
<polygon fill="midnightblue" stroke="midnightblue" points="361.54,-140.566 355.836,-131.637 354.727,-142.174 361.54,-140.566"/>
</g>
<!-- Node14 -->
<g id="node14" class="node"><title>Node14</title>
<g id="a_node14"><a xlink:href="../../d4/dd5/_type_traits_8h.html" target="_top" xlink:title="Metafunctions for types. ">
<polygon fill="white" stroke="black" points="382.5,-168.5 382.5,-187.5 453.5,-187.5 453.5,-168.5 382.5,-168.5"/>
<text text-anchor="middle" x="418" y="-175.5" font-family="Helvetica,sans-Serif" font-size="10.00">TypeTraits.h</text>
</a>
</g>
</g>
<!-- Node10&#45;&gt;Node14 -->
<g id="edge19" class="edge"><title>Node10&#45;&gt;Node14</title>
<path fill="none" stroke="midnightblue" d="M429.98,-280.368C427.882,-262.617 423.042,-221.666 420.198,-197.597"/>
<polygon fill="midnightblue" stroke="midnightblue" points="423.665,-197.112 419.015,-187.591 416.713,-197.933 423.665,-197.112"/>
</g>
<!-- Node15 -->
<g id="node15" class="node"><title>Node15</title>
<g id="a_node15"><a xlink:href="../../d2/db4/_wlib_8h.html" target="_top" xlink:title="../Wlib.h">
<polygon fill="white" stroke="black" points="441.5,-224.5 441.5,-243.5 494.5,-243.5 494.5,-224.5 441.5,-224.5"/>
<text text-anchor="middle" x="468" y="-231.5" font-family="Helvetica,sans-Serif" font-size="10.00">../Wlib.h</text>
</a>
</g>
</g>
<!-- Node10&#45;&gt;Node15 -->
<g id="edge21" class="edge"><title>Node10&#45;&gt;Node15</title>
<path fill="none" stroke="midnightblue" d="M437.11,-280.083C442.282,-272.534 449.846,-261.495 456.194,-252.23"/>
<polygon fill="midnightblue" stroke="midnightblue" points="459.239,-253.979 462.004,-243.751 453.464,-250.022 459.239,-253.979"/>
</g>
<!-- Node11&#45;&gt;Node12 -->
<g id="edge16" class="edge"><title>Node11&#45;&gt;Node12</title>
<path fill="none" stroke="midnightblue" d="M285.986,-224.444C266.412,-215.636 235.692,-201.812 213.271,-191.722"/>
<polygon fill="midnightblue" stroke="midnightblue" points="214.481,-188.428 203.925,-187.516 211.608,-194.812 214.481,-188.428"/>
</g>
<!-- Node12&#45;&gt;Node13 -->
<g id="edge17" class="edge"><title>Node12&#45;&gt;Node13</title>
<path fill="none" stroke="midnightblue" d="M211.779,-168.444C241.761,-158.863 290.315,-143.349 322.202,-133.16"/>
<polygon fill="midnightblue" stroke="midnightblue" points="323.464,-136.431 331.924,-130.054 321.334,-129.764 323.464,-136.431"/>
</g>
<!-- Node13&#45;&gt;Node2 -->
<g id="edge18" class="edge"><title>Node13&#45;&gt;Node2</title>
<path fill="none" stroke="midnightblue" d="M367.496,-112.324C380.6,-103.9 400.712,-90.9709 416.107,-81.0741"/>
<polygon fill="midnightblue" stroke="midnightblue" points="418.018,-84.0063 424.537,-75.6545 414.233,-78.118 418.018,-84.0063"/>
</g>
<!-- Node14&#45;&gt;Node13 -->
<g id="edge20" class="edge"><title>Node14&#45;&gt;Node13</title>
<path fill="none" stroke="midnightblue" d="M407.717,-168.324C398.164,-160.263 383.72,-148.077 372.216,-138.369"/>
<polygon fill="midnightblue" stroke="midnightblue" points="374.37,-135.608 364.47,-131.834 369.856,-140.958 374.37,-135.608"/>
</g>
<!-- Node17&#45;&gt;Node2 -->
<g id="edge28" class="edge"><title>Node17&#45;&gt;Node2</title>
<path fill="none" stroke="midnightblue" d="M151.686,-336.218C145.832,-327.509 137.514,-313.541 134,-300 130.545,-286.687 130.94,-170.853 133,-168 194.071,-83.4436 328.66,-68.5264 396.778,-66.6282"/>
<polygon fill="midnightblue" stroke="midnightblue" points="397.189,-70.1209 407.119,-66.4266 397.052,-63.1223 397.189,-70.1209"/>
</g>
<!-- Node17&#45;&gt;Node6 -->
<g id="edge26" class="edge"><title>Node17&#45;&gt;Node6</title>
<path fill="none" stroke="midnightblue" d="M187.948,-336.444C221.768,-326.78 276.72,-311.08 312.361,-300.897"/>
<polygon fill="midnightblue" stroke="midnightblue" points="313.658,-304.166 322.312,-298.054 311.735,-297.436 313.658,-304.166"/>
</g>
<!-- Node17&#45;&gt;Node12 -->
<g id="edge27" class="edge"><title>Node17&#45;&gt;Node12</title>
<path fill="none" stroke="midnightblue" d="M168.864,-336.317C178.241,-328.09 191.17,-314.815 197,-300 210.541,-265.59 199.932,-221.616 191.883,-197.279"/>
<polygon fill="midnightblue" stroke="midnightblue" points="195.09,-195.848 188.461,-187.584 188.489,-198.178 195.09,-195.848"/>
</g>
<!-- Node17&#45;&gt;Node13 -->
<g id="edge29" class="edge"><title>Node17&#45;&gt;Node13</title>
<path fill="none" stroke="midnightblue" d="M170.234,-336.415C182.041,-327.851 200.119,-313.988 214,-300 221.117,-292.827 307.701,-182.244 341.035,-139.597"/>
<polygon fill="midnightblue" stroke="midnightblue" points="343.893,-141.625 347.292,-131.59 338.377,-137.315 343.893,-141.625"/>
</g>
<!-- Node18 -->
<g id="node18" class="node"><title>Node18</title>
<g id="a_node18"><a xlink:href="../../d9/d8a/_new_8h.html" target="_top" xlink:title="New operators defined for Arduino boards and for other boards use the normal new. ...">
<polygon fill="white" stroke="black" points="143.5,-280.5 143.5,-299.5 188.5,-299.5 188.5,-280.5 143.5,-280.5"/>
<text text-anchor="middle" x="166" y="-287.5" font-family="Helvetica,sans-Serif" font-size="10.00">New.h</text>
</a>
</g>
</g>
<!-- Node17&#45;&gt;Node18 -->
<g id="edge30" class="edge"><title>Node17&#45;&gt;Node18</title>
<path fill="none" stroke="midnightblue" d="M159.321,-336.083C160.381,-328.927 161.906,-318.635 163.231,-309.691"/>
<polygon fill="midnightblue" stroke="midnightblue" points="166.7,-310.156 164.704,-299.751 159.776,-309.13 166.7,-310.156"/>
</g>
<!-- Node19 -->
<g id="node19" class="node"><title>Node19</title>
<polygon fill="white" stroke="#bfbfbf" points="142,-224.5 142,-243.5 190,-243.5 190,-224.5 142,-224.5"/>
<text text-anchor="middle" x="166" y="-231.5" font-family="Helvetica,sans-Serif" font-size="10.00">stdlib.h</text>
</g>
<!-- Node18&#45;&gt;Node19 -->
<g id="edge31" class="edge"><title>Node18&#45;&gt;Node19</title>
<path fill="none" stroke="midnightblue" d="M166,-280.083C166,-273.006 166,-262.861 166,-253.986"/>
<polygon fill="midnightblue" stroke="midnightblue" points="169.5,-253.751 166,-243.751 162.5,-253.751 169.5,-253.751"/>
</g>
</g>
</svg>
