<?xml version="1.0" encoding="UTF-8" standalone="no"?>
<!DOCTYPE svg PUBLIC "-//W3C//DTD SVG 1.1//EN"
 "http://www.w3.org/Graphics/SVG/1.1/DTD/svg11.dtd">
<!-- Generated by graphviz version 2.36.0 (20140111.2315)
 -->
<!-- Title: stl/TreeMap.h Pages: 1 -->
<!--zoomable 644 -->
<svg id="main" version="1.1" xmlns="http://www.w3.org/2000/svg" xmlns:xlink="http://www.w3.org/1999/xlink" xml:space="preserve" onload="init(evt)">
<style type="text/css"><![CDATA[
.edge:hover path { stroke: red; }
.edge:hover polygon { stroke: red; fill: red; }
]]></style>
<script type="text/javascript"><![CDATA[
var edges = document.getElementsByTagName('g');
if (edges && edges.length) {
  for (var i=0;i<edges.length;i++) {
    if (edges[i].id.substr(0,4)=='edge') {
      edges[i].setAttribute('class','edge');
    }
  }
}
]]></script>
        <defs>
                <circle id="rim" cx="0" cy="0" r="7"/>
                <circle id="rim2" cx="0" cy="0" r="3.5"/>
                <g id="zoomPlus">
                        <use xlink:href="#rim" fill="#404040">
                                <set attributeName="fill" to="#808080" begin="zoomplus.mouseover" end="zoomplus.mouseout"/>
                        </use>
                        <path d="M-4,0h8M0,-4v8" fill="none" stroke="white" stroke-width="1.5" pointer-events="none"/>
                </g>
                <g id="zoomMin">
                        <use xlink:href="#rim" fill="#404040">
                                <set attributeName="fill" to="#808080" begin="zoomminus.mouseover" end="zoomminus.mouseout"/>
                        </use>
                        <path d="M-4,0h8" fill="none" stroke="white" stroke-width="1.5" pointer-events="none"/>
                </g>
                <g id="dirArrow">
                        <path fill="none" stroke="white" stroke-width="1.5" d="M0,-3.0v7 M-2.5,-0.5L0,-3.0L2.5,-0.5"/>
                </g>
               <g id="resetDef">
                       <use xlink:href="#rim2" fill="#404040">
                               <set attributeName="fill" to="#808080" begin="reset.mouseover" end="reset.mouseout"/>
                       </use>
               </g>
        </defs>

<script type="text/javascript">
var viewWidth = 669;
var viewHeight = 644;
var sectionId = 'dynsection-0';
</script>
<script xlink:href="../../svgpan.js"/>
<svg id="graph" class="graph">
<g id="viewport">
<title>stl/TreeMap.h</title>
<polygon fill="white" stroke="none" points="-4,4 -4,-640 665,-640 665,4 -4,4"/>
<!-- Node1 -->
<g id="node1" class="node"><title>Node1</title>
<polygon fill="#bfbfbf" stroke="black" points="132.5,-616.5 132.5,-635.5 209.5,-635.5 209.5,-616.5 132.5,-616.5"/>
<text text-anchor="middle" x="171" y="-623.5" font-family="Helvetica,sans-Serif" font-size="10.00">stl/TreeMap.h</text>
</g>
<!-- Node2 -->
<g id="node2" class="node"><title>Node2</title>
<g id="a_node2"><a xlink:href="../../d0/db6/_types_8h.html" target="_top" xlink:title="type definition of all the string types we will be using ">
<polygon fill="white" stroke="black" points="170.5,-56.5 170.5,-75.5 231.5,-75.5 231.5,-56.5 170.5,-56.5"/>
<text text-anchor="middle" x="201" y="-63.5" font-family="Helvetica,sans-Serif" font-size="10.00">../Types.h</text>
</a>
</g>
</g>
<!-- Node1&#45;&gt;Node2 -->
<g id="edge1" class="edge"><title>Node1&#45;&gt;Node2</title>
<path fill="none" stroke="midnightblue" d="M132.197,-617.889C81.7453,-606.147 0,-577.48 0,-515 0,-515 0,-515 0,-177 0,-104.574 101.668,-79.528 160.391,-71.1023"/>
<polygon fill="midnightblue" stroke="midnightblue" points="161.023,-74.5491 170.472,-69.7577 160.097,-67.6105 161.023,-74.5491"/>
</g>
<!-- Node4 -->
<g id="node4" class="node"><title>Node4</title>
<g id="a_node4"><a xlink:href="../../d5/d08/_red_black_tree_8h.html" target="_top" xlink:title="Red black tree implementation. ">
<polygon fill="white" stroke="black" points="299.5,-560.5 299.5,-579.5 386.5,-579.5 386.5,-560.5 299.5,-560.5"/>
<text text-anchor="middle" x="343" y="-567.5" font-family="Helvetica,sans-Serif" font-size="10.00">RedBlackTree.h</text>
</a>
</g>
</g>
<!-- Node1&#45;&gt;Node4 -->
<g id="edge3" class="edge"><title>Node1&#45;&gt;Node4</title>
<path fill="none" stroke="midnightblue" d="M198.254,-616.444C227.441,-607.28 273.921,-592.688 306.309,-582.519"/>
<polygon fill="midnightblue" stroke="midnightblue" points="307.381,-585.851 315.874,-579.516 305.284,-579.173 307.381,-585.851"/>
</g>
<!-- Node3 -->
<g id="node3" class="node"><title>Node3</title>
<polygon fill="white" stroke="#bfbfbf" points="176.5,-0.5 176.5,-19.5 225.5,-19.5 225.5,-0.5 176.5,-0.5"/>
<text text-anchor="middle" x="201" y="-7.5" font-family="Helvetica,sans-Serif" font-size="10.00">stdint.h</text>
</g>
<!-- Node2&#45;&gt;Node3 -->
<g id="edge2" class="edge"><title>Node2&#45;&gt;Node3</title>
<path fill="none" stroke="midnightblue" d="M201,-56.083C201,-49.0059 201,-38.8611 201,-29.9865"/>
<polygon fill="midnightblue" stroke="midnightblue" points="204.5,-29.751 201,-19.7511 197.5,-29.7511 204.5,-29.751"/>
</g>
<!-- Node4&#45;&gt;Node2 -->
<g id="edge32" class="edge"><title>Node4&#45;&gt;Node2</title>
<path fill="none" stroke="midnightblue" d="M299.301,-562.588C214.966,-548.979 38,-513.883 38,-459 38,-459 38,-459 38,-177 38,-118.036 112.194,-88.5647 160.469,-75.6297"/>
<polygon fill="midnightblue" stroke="midnightblue" points="161.514,-78.9754 170.341,-73.1158 159.786,-72.1918 161.514,-78.9754"/>
</g>
<!-- Node5 -->
<g id="node5" class="node"><title>Node5</title>
<g id="a_node5"><a xlink:href="../../d7/d0c/_comparator_8h.html" target="_top" xlink:title="Comparator implementation for basic types. ">
<polygon fill="white" stroke="black" points="152,-504.5 152,-523.5 228,-523.5 228,-504.5 152,-504.5"/>
<text text-anchor="middle" x="190" y="-511.5" font-family="Helvetica,sans-Serif" font-size="10.00">Comparator.h</text>
</a>
</g>
</g>
<!-- Node4&#45;&gt;Node5 -->
<g id="edge4" class="edge"><title>Node4&#45;&gt;Node5</title>
<path fill="none" stroke="midnightblue" d="M318.757,-560.444C293.129,-551.399 252.515,-537.064 223.762,-526.916"/>
<polygon fill="midnightblue" stroke="midnightblue" points="224.725,-523.544 214.13,-523.516 222.395,-530.145 224.725,-523.544"/>
</g>
<!-- Node11 -->
<g id="node11" class="node"><title>Node11</title>
<g id="a_node11"><a xlink:href="../../d4/dda/_pair_8h.html" target="_top" xlink:title="Implementation of a 2&#45;element tuple. ">
<polygon fill="white" stroke="black" points="456,-224.5 456,-243.5 498,-243.5 498,-224.5 456,-224.5"/>
<text text-anchor="middle" x="477" y="-231.5" font-family="Helvetica,sans-Serif" font-size="10.00">Pair.h</text>
</a>
</g>
</g>
<!-- Node4&#45;&gt;Node11 -->
<g id="edge31" class="edge"><title>Node4&#45;&gt;Node11</title>
<path fill="none" stroke="midnightblue" d="M378.101,-560.47C423.272,-547.151 496,-516.742 496,-459 496,-459 496,-459 496,-345 496,-312.489 487.841,-275.35 482.216,-253.61"/>
<polygon fill="midnightblue" stroke="midnightblue" points="485.541,-252.498 479.562,-243.751 478.782,-254.317 485.541,-252.498"/>
</g>
<!-- Node12 -->
<g id="node12" class="node"><title>Node12</title>
<g id="a_node12"><a xlink:href="../../db/d2a/_utility_8h.html" target="_top" xlink:title="Various helper functions. ">
<polygon fill="white" stroke="black" points="435,-168.5 435,-187.5 521,-187.5 521,-168.5 435,-168.5"/>
<text text-anchor="middle" x="478" y="-175.5" font-family="Helvetica,sans-Serif" font-size="10.00">../utility/Utility.h</text>
</a>
</g>
</g>
<!-- Node4&#45;&gt;Node12 -->
<g id="edge34" class="edge"><title>Node4&#45;&gt;Node12</title>
<path fill="none" stroke="midnightblue" d="M386.819,-563.304C443.209,-553.236 534,-526.539 534,-459 534,-459 534,-459 534,-345 534,-289.801 527.088,-275.012 506,-224 501.965,-214.238 495.918,-204.183 490.475,-196.059"/>
<polygon fill="midnightblue" stroke="midnightblue" points="493.322,-194.022 484.726,-187.828 487.583,-198.031 493.322,-194.022"/>
</g>
<!-- Node17 -->
<g id="node17" class="node"><title>Node17</title>
<g id="a_node17"><a xlink:href="../../d3/de6/_memory_8h.html" target="_top" xlink:title="Memory is a class that provides dynamic fixed size memory. ">
<polygon fill="white" stroke="black" points="554.5,-224.5 554.5,-243.5 661.5,-243.5 661.5,-224.5 554.5,-224.5"/>
<text text-anchor="middle" x="608" y="-231.5" font-family="Helvetica,sans-Serif" font-size="10.00">../memory/Memory.h</text>
</a>
</g>
</g>
<!-- Node4&#45;&gt;Node17 -->
<g id="edge33" class="edge"><title>Node4&#45;&gt;Node17</title>
<path fill="none" stroke="midnightblue" d="M386.802,-563.937C439.353,-557.099 523.456,-543.482 548,-524 573.069,-504.101 579,-491.006 579,-459 579,-459 579,-459 579,-345 579,-311.716 591.568,-274.584 600.156,-253.094"/>
<polygon fill="midnightblue" stroke="midnightblue" points="603.482,-254.213 604.089,-243.635 597.018,-251.525 603.482,-254.213"/>
</g>
<!-- Node5&#45;&gt;Node2 -->
<g id="edge6" class="edge"><title>Node5&#45;&gt;Node2</title>
<path fill="none" stroke="midnightblue" d="M169.355,-504.421C136.504,-489.231 76,-454.293 76,-403 76,-403 76,-403 76,-177 76,-128.173 130.415,-95.8917 167.441,-79.5781"/>
<polygon fill="midnightblue" stroke="midnightblue" points="169.046,-82.6995 176.899,-75.5868 166.325,-76.2502 169.046,-82.6995"/>
</g>
<!-- Node6 -->
<g id="node6" class="node"><title>Node6</title>
<polygon fill="white" stroke="#bfbfbf" points="104.5,-336.5 104.5,-355.5 153.5,-355.5 153.5,-336.5 104.5,-336.5"/>
<text text-anchor="middle" x="129" y="-343.5" font-family="Helvetica,sans-Serif" font-size="10.00">string.h</text>
</g>
<!-- Node5&#45;&gt;Node6 -->
<g id="edge5" class="edge"><title>Node5&#45;&gt;Node6</title>
<path fill="none" stroke="midnightblue" d="M179.041,-504.237C169.494,-495.956 156.1,-482.646 149,-468 132.804,-434.589 129.393,-390.551 128.864,-365.867"/>
<polygon fill="midnightblue" stroke="midnightblue" points="132.363,-365.688 128.79,-355.714 125.363,-365.739 132.363,-365.688"/>
</g>
<!-- Node7 -->
<g id="node7" class="node"><title>Node7</title>
<g id="a_node7"><a xlink:href="../../d2/dc2/_equal_8h.html" target="_top" xlink:title="stl/Equal.h">
<polygon fill="white" stroke="black" points="158.5,-448.5 158.5,-467.5 221.5,-467.5 221.5,-448.5 158.5,-448.5"/>
<text text-anchor="middle" x="190" y="-455.5" font-family="Helvetica,sans-Serif" font-size="10.00">stl/Equal.h</text>
</a>
</g>
</g>
<!-- Node5&#45;&gt;Node7 -->
<g id="edge7" class="edge"><title>Node5&#45;&gt;Node7</title>
<path fill="none" stroke="midnightblue" d="M190,-504.083C190,-497.006 190,-486.861 190,-477.986"/>
<polygon fill="midnightblue" stroke="midnightblue" points="193.5,-477.751 190,-467.751 186.5,-477.751 193.5,-477.751"/>
</g>
<!-- Node8 -->
<g id="node8" class="node"><title>Node8</title>
<g id="a_node8"><a xlink:href="../../db/db5/_string_8h.html" target="_top" xlink:title="../strings/String.h">
<polygon fill="white" stroke="black" points="218,-392.5 218,-411.5 310,-411.5 310,-392.5 218,-392.5"/>
<text text-anchor="middle" x="264" y="-399.5" font-family="Helvetica,sans-Serif" font-size="10.00">../strings/String.h</text>
</a>
</g>
</g>
<!-- Node5&#45;&gt;Node8 -->
<g id="edge30" class="edge"><title>Node5&#45;&gt;Node8</title>
<path fill="none" stroke="midnightblue" d="M198.972,-504.24C207.579,-495.547 220.616,-481.591 230,-468 240.379,-452.968 249.801,-434.375 256.08,-420.93"/>
<polygon fill="midnightblue" stroke="midnightblue" points="259.28,-422.349 260.233,-411.797 252.908,-419.452 259.28,-422.349"/>
</g>
<!-- Node7&#45;&gt;Node2 -->
<g id="edge9" class="edge"><title>Node7&#45;&gt;Node2</title>
<path fill="none" stroke="midnightblue" d="M189.29,-448.366C187.332,-423.785 182,-351.303 182,-291 182,-291 182,-291 182,-177 182,-144.489 190.159,-107.35 195.784,-85.6103"/>
<polygon fill="midnightblue" stroke="midnightblue" points="199.218,-86.3175 198.438,-75.7514 192.459,-84.498 199.218,-86.3175"/>
</g>
<!-- Node7&#45;&gt;Node6 -->
<g id="edge8" class="edge"><title>Node7&#45;&gt;Node6</title>
<path fill="none" stroke="midnightblue" d="M185.213,-448.368C175.236,-430.376 152.042,-388.55 138.775,-364.627"/>
<polygon fill="midnightblue" stroke="midnightblue" points="141.675,-362.639 133.764,-355.591 135.553,-366.034 141.675,-362.639"/>
</g>
<!-- Node7&#45;&gt;Node8 -->
<g id="edge10" class="edge"><title>Node7&#45;&gt;Node8</title>
<path fill="none" stroke="midnightblue" d="M201.889,-448.324C213.15,-440.107 230.287,-427.602 243.709,-417.807"/>
<polygon fill="midnightblue" stroke="midnightblue" points="245.88,-420.556 251.894,-411.834 241.753,-414.901 245.88,-420.556"/>
</g>
<!-- Node8&#45;&gt;Node2 -->
<g id="edge23" class="edge"><title>Node8&#45;&gt;Node2</title>
<path fill="none" stroke="midnightblue" d="M257.882,-392.349C245.792,-374.377 220,-331.314 220,-291 220,-291 220,-291 220,-177 220,-144.489 211.841,-107.35 206.216,-85.6103"/>
<polygon fill="midnightblue" stroke="midnightblue" points="209.541,-84.498 203.562,-75.7514 202.782,-86.3175 209.541,-84.498"/>
</g>
<!-- Node8&#45;&gt;Node6 -->
<g id="edge11" class="edge"><title>Node8&#45;&gt;Node6</title>
<path fill="none" stroke="midnightblue" d="M242.609,-392.444C220.293,-383.517 185.097,-369.439 159.792,-359.317"/>
<polygon fill="midnightblue" stroke="midnightblue" points="160.876,-355.981 150.291,-355.516 158.276,-362.48 160.876,-355.981"/>
</g>
<!-- Node9 -->
<g id="node9" class="node"><title>Node9</title>
<g id="a_node9"><a xlink:href="../../de/d0b/_string_iterator_8h.html" target="_top" xlink:title="StringIterator.h">
<polygon fill="white" stroke="black" points="248.5,-336.5 248.5,-355.5 329.5,-355.5 329.5,-336.5 248.5,-336.5"/>
<text text-anchor="middle" x="289" y="-343.5" font-family="Helvetica,sans-Serif" font-size="10.00">StringIterator.h</text>
</a>
</g>
</g>
<!-- Node8&#45;&gt;Node9 -->
<g id="edge12" class="edge"><title>Node8&#45;&gt;Node9</title>
<path fill="none" stroke="midnightblue" d="M268.128,-392.083C271.514,-384.77 276.416,-374.181 280.619,-365.103"/>
<polygon fill="midnightblue" stroke="midnightblue" points="283.923,-366.296 284.949,-355.751 277.571,-363.355 283.923,-366.296"/>
</g>
<!-- Node16 -->
<g id="node16" class="node"><title>Node16</title>
<g id="a_node16"><a xlink:href="../../da/db8/_math_8h.html" target="_top" xlink:title="../utility/Math.h">
<polygon fill="white" stroke="black" points="348,-336.5 348,-355.5 430,-355.5 430,-336.5 348,-336.5"/>
<text text-anchor="middle" x="389" y="-343.5" font-family="Helvetica,sans-Serif" font-size="10.00">../utility/Math.h</text>
</a>
</g>
</g>
<!-- Node8&#45;&gt;Node16 -->
<g id="edge24" class="edge"><title>Node8&#45;&gt;Node16</title>
<path fill="none" stroke="midnightblue" d="M283.807,-392.444C304.287,-383.596 336.483,-369.687 359.865,-359.586"/>
<polygon fill="midnightblue" stroke="midnightblue" points="361.494,-362.695 369.286,-355.516 358.718,-356.269 361.494,-362.695"/>
</g>
<!-- Node8&#45;&gt;Node17 -->
<g id="edge25" class="edge"><title>Node8&#45;&gt;Node17</title>
<path fill="none" stroke="midnightblue" d="M310.175,-393.941C346.411,-387.278 397.494,-375.364 439,-356 500.015,-327.534 561.863,-276.287 590.919,-250.587"/>
<polygon fill="midnightblue" stroke="midnightblue" points="593.417,-253.048 598.532,-243.769 588.748,-247.833 593.417,-253.048"/>
</g>
<!-- Node9&#45;&gt;Node2 -->
<g id="edge13" class="edge"><title>Node9&#45;&gt;Node2</title>
<path fill="none" stroke="midnightblue" d="M285.763,-336.301C279.212,-317.889 265,-273.507 265,-235 265,-235 265,-235 265,-177 265,-139.327 236.608,-103.04 217.646,-83.0052"/>
<polygon fill="midnightblue" stroke="midnightblue" points="219.953,-80.3599 210.443,-75.6885 214.964,-85.2705 219.953,-80.3599"/>
</g>
<!-- Node10 -->
<g id="node10" class="node"><title>Node10</title>
<g id="a_node10"><a xlink:href="../../d8/dd7/_concept_8h.html" target="_top" xlink:title="Concept definitions. ">
<polygon fill="white" stroke="black" points="314,-280.5 314,-299.5 398,-299.5 398,-280.5 314,-280.5"/>
<text text-anchor="middle" x="356" y="-287.5" font-family="Helvetica,sans-Serif" font-size="10.00">../stl/Concept.h</text>
</a>
</g>
</g>
<!-- Node9&#45;&gt;Node10 -->
<g id="edge14" class="edge"><title>Node9&#45;&gt;Node10</title>
<path fill="none" stroke="midnightblue" d="M299.765,-336.324C309.766,-328.263 324.887,-316.077 336.93,-306.369"/>
<polygon fill="midnightblue" stroke="midnightblue" points="339.45,-308.834 345.039,-299.834 335.057,-303.384 339.45,-308.834"/>
</g>
<!-- Node10&#45;&gt;Node11 -->
<g id="edge15" class="edge"><title>Node10&#45;&gt;Node11</title>
<path fill="none" stroke="midnightblue" d="M375.173,-280.444C394.909,-271.636 425.885,-257.812 448.493,-247.722"/>
<polygon fill="midnightblue" stroke="midnightblue" points="450.211,-250.788 457.917,-243.516 447.359,-244.396 450.211,-250.788"/>
</g>
<!-- Node13 -->
<g id="node13" class="node"><title>Node13</title>
<g id="a_node13"><a xlink:href="../../d2/d37/_tmp_8h.html" target="_top" xlink:title="Template helper types, structs, and metafunctions. ">
<polygon fill="white" stroke="black" points="359,-112.5 359,-131.5 403,-131.5 403,-112.5 359,-112.5"/>
<text text-anchor="middle" x="381" y="-119.5" font-family="Helvetica,sans-Serif" font-size="10.00">Tmp.h</text>
</a>
</g>
</g>
<!-- Node10&#45;&gt;Node13 -->
<g id="edge22" class="edge"><title>Node10&#45;&gt;Node13</title>
<path fill="none" stroke="midnightblue" d="M351.509,-280.424C341.509,-260.101 319.541,-207.736 336,-168 340.92,-156.121 350.667,-145.743 359.834,-137.956"/>
<polygon fill="midnightblue" stroke="midnightblue" points="362.253,-140.506 367.936,-131.564 357.917,-135.01 362.253,-140.506"/>
</g>
<!-- Node14 -->
<g id="node14" class="node"><title>Node14</title>
<g id="a_node14"><a xlink:href="../../d4/dd5/_type_traits_8h.html" target="_top" xlink:title="Metafunctions for types. ">
<polygon fill="white" stroke="black" points="345.5,-168.5 345.5,-187.5 416.5,-187.5 416.5,-168.5 345.5,-168.5"/>
<text text-anchor="middle" x="381" y="-175.5" font-family="Helvetica,sans-Serif" font-size="10.00">TypeTraits.h</text>
</a>
</g>
</g>
<!-- Node10&#45;&gt;Node14 -->
<g id="edge19" class="edge"><title>Node10&#45;&gt;Node14</title>
<path fill="none" stroke="midnightblue" d="M357.962,-280.368C361.996,-262.617 371.303,-221.666 376.773,-197.597"/>
<polygon fill="midnightblue" stroke="midnightblue" points="380.244,-198.118 379.047,-187.591 373.418,-196.567 380.244,-198.118"/>
</g>
<!-- Node15 -->
<g id="node15" class="node"><title>Node15</title>
<g id="a_node15"><a xlink:href="../../d2/db4/_wlib_8h.html" target="_top" xlink:title="../Wlib.h">
<polygon fill="white" stroke="black" points="384.5,-224.5 384.5,-243.5 437.5,-243.5 437.5,-224.5 384.5,-224.5"/>
<text text-anchor="middle" x="411" y="-231.5" font-family="Helvetica,sans-Serif" font-size="10.00">../Wlib.h</text>
</a>
</g>
</g>
<!-- Node10&#45;&gt;Node15 -->
<g id="edge21" class="edge"><title>Node10&#45;&gt;Node15</title>
<path fill="none" stroke="midnightblue" d="M365.082,-280.083C373.171,-272.141 385.195,-260.335 394.91,-250.797"/>
<polygon fill="midnightblue" stroke="midnightblue" points="397.403,-253.254 402.087,-243.751 392.499,-248.26 397.403,-253.254"/>
</g>
<!-- Node11&#45;&gt;Node12 -->
<g id="edge16" class="edge"><title>Node11&#45;&gt;Node12</title>
<path fill="none" stroke="midnightblue" d="M477.165,-224.083C477.296,-217.006 477.484,-206.861 477.648,-197.986"/>
<polygon fill="midnightblue" stroke="midnightblue" points="481.152,-197.814 477.838,-187.751 474.153,-197.685 481.152,-197.814"/>
</g>
<!-- Node12&#45;&gt;Node13 -->
<g id="edge17" class="edge"><title>Node12&#45;&gt;Node13</title>
<path fill="none" stroke="midnightblue" d="M462.415,-168.324C447.001,-159.743 423.188,-146.486 405.29,-136.522"/>
<polygon fill="midnightblue" stroke="midnightblue" points="406.986,-133.461 396.546,-131.655 403.581,-139.577 406.986,-133.461"/>
</g>
<!-- Node13&#45;&gt;Node2 -->
<g id="edge18" class="edge"><title>Node13&#45;&gt;Node2</title>
<path fill="none" stroke="midnightblue" d="M358.928,-114.379C329.152,-105.446 275.66,-89.3981 239.263,-78.4789"/>
<polygon fill="midnightblue" stroke="midnightblue" points="240.068,-75.0664 229.484,-75.5453 238.057,-81.7712 240.068,-75.0664"/>
</g>
<!-- Node14&#45;&gt;Node13 -->
<g id="edge20" class="edge"><title>Node14&#45;&gt;Node13</title>
<path fill="none" stroke="midnightblue" d="M381,-168.083C381,-161.006 381,-150.861 381,-141.986"/>
<polygon fill="midnightblue" stroke="midnightblue" points="384.5,-141.751 381,-131.751 377.5,-141.751 384.5,-141.751"/>
</g>
<!-- Node17&#45;&gt;Node2 -->
<g id="edge27" class="edge"><title>Node17&#45;&gt;Node2</title>
<path fill="none" stroke="midnightblue" d="M603.206,-224.187C595.291,-210.396 578.234,-183.674 557,-168 459.655,-96.1436 312.866,-75.3501 242.067,-69.3781"/>
<polygon fill="midnightblue" stroke="midnightblue" points="242.024,-65.8641 231.781,-68.5707 241.476,-72.8426 242.024,-65.8641"/>
</g>
<!-- Node17&#45;&gt;Node12 -->
<g id="edge26" class="edge"><title>Node17&#45;&gt;Node12</title>
<path fill="none" stroke="midnightblue" d="M587.401,-224.444C566.007,-215.557 532.319,-201.563 507.976,-191.451"/>
<polygon fill="midnightblue" stroke="midnightblue" points="509.08,-188.12 498.503,-187.516 506.395,-194.585 509.08,-188.12"/>
</g>
<!-- Node17&#45;&gt;Node13 -->
<g id="edge28" class="edge"><title>Node17&#45;&gt;Node13</title>
<path fill="none" stroke="midnightblue" d="M599.737,-224.117C586.358,-210.23 558.556,-183.379 530,-168 492.273,-147.682 444.114,-135.269 412.923,-128.764"/>
<polygon fill="midnightblue" stroke="midnightblue" points="413.528,-125.315 403.035,-126.781 412.152,-132.179 413.528,-125.315"/>
</g>
<!-- Node18 -->
<g id="node18" class="node"><title>Node18</title>
<polygon fill="white" stroke="#bfbfbf" points="615.5,-168.5 615.5,-187.5 650.5,-187.5 650.5,-168.5 615.5,-168.5"/>
<text text-anchor="middle" x="633" y="-175.5" font-family="Helvetica,sans-Serif" font-size="10.00">new</text>
</g>
<!-- Node17&#45;&gt;Node18 -->
<g id="edge29" class="edge"><title>Node17&#45;&gt;Node18</title>
<path fill="none" stroke="midnightblue" d="M612.128,-224.083C615.514,-216.77 620.416,-206.181 624.619,-197.103"/>
<polygon fill="midnightblue" stroke="midnightblue" points="627.923,-198.296 628.949,-187.751 621.571,-195.355 627.923,-198.296"/>
</g>
</g>
</svg>
        <g id="navigator" transform="translate(0 0)" fill="#404254">
                <rect fill="#f2f5e9" fill-opacity="0.5" stroke="#606060" stroke-width=".5" x="0" y="0" width="60" height="60"/>
                <use id="zoomplus" xlink:href="#zoomPlus" x="17" y="9" onmousedown="handleZoom(evt,'in')"/>
                <use id="zoomminus" xlink:href="#zoomMin" x="42" y="9" onmousedown="handleZoom(evt,'out')"/>
                <use id="reset" xlink:href="#resetDef" x="30" y="36" onmousedown="handleReset()"/>
                <g id="arrowUp" xlink:href="#dirArrow" transform="translate(30 24)" onmousedown="handlePan(0,-1)">
                  <use xlink:href="#rim" fill="#404040">
                        <set attributeName="fill" to="#808080" begin="arrowUp.mouseover" end="arrowUp.mouseout"/>
                  </use>
                  <path fill="none" stroke="white" stroke-width="1.5" d="M0,-3.0v7 M-2.5,-0.5L0,-3.0L2.5,-0.5"/>
                </g>
                <g id="arrowRight" xlink:href="#dirArrow" transform="rotate(90) translate(36 -43)" onmousedown="handlePan(1,0)">
                  <use xlink:href="#rim" fill="#404040">
                        <set attributeName="fill" to="#808080" begin="arrowRight.mouseover" end="arrowRight.mouseout"/>
                  </use>
                  <path fill="none" stroke="white" stroke-width="1.5" d="M0,-3.0v7 M-2.5,-0.5L0,-3.0L2.5,-0.5"/>
                </g>
                <g id="arrowDown" xlink:href="#dirArrow" transform="rotate(180) translate(-30 -48)" onmousedown="handlePan(0,1)">
                  <use xlink:href="#rim" fill="#404040">
                        <set attributeName="fill" to="#808080" begin="arrowDown.mouseover" end="arrowDown.mouseout"/>
                  </use>
                  <path fill="none" stroke="white" stroke-width="1.5" d="M0,-3.0v7 M-2.5,-0.5L0,-3.0L2.5,-0.5"/>
                </g>
                <g id="arrowLeft" xlink:href="#dirArrow" transform="rotate(270) translate(-36 17)" onmousedown="handlePan(-1,0)">
                  <use xlink:href="#rim" fill="#404040">
                        <set attributeName="fill" to="#808080" begin="arrowLeft.mouseover" end="arrowLeft.mouseout"/>
                  </use>
                  <path fill="none" stroke="white" stroke-width="1.5" d="M0,-3.0v7 M-2.5,-0.5L0,-3.0L2.5,-0.5"/>
                </g>
        </g>
        <svg viewBox="0 0 15 15" width="100%" height="30px" preserveAspectRatio="xMaxYMin meet">
         <g id="arrow_out" transform="scale(0.3 0.3)">
          <a xlink:href="_tree_map_8h__incl_org.svg" target="_base">
           <rect id="button" ry="5" rx="5" y="6" x="6" height="38" width="38"
                fill="#f2f5e9" fill-opacity="0.5" stroke="#606060" stroke-width="1.0"/>
           <path id="arrow"
             d="M 11.500037,31.436501 C 11.940474,20.09759 22.043105,11.32322 32.158766,21.979434 L 37.068811,17.246167 C 37.068811,17.246167 37.088388,32 37.088388,32 L 22.160133,31.978069 C 22.160133,31.978069 26.997745,27.140456 26.997745,27.140456 C 18.528582,18.264221 13.291696,25.230495 11.500037,31.436501 z"
             style="fill:#404040;"/>
          </a>
         </g>
        </svg>
</svg>
