<?xml version="1.0" encoding="UTF-8" standalone="no"?>
<!DOCTYPE svg PUBLIC "-//W3C//DTD SVG 1.1//EN"
 "http://www.w3.org/Graphics/SVG/1.1/DTD/svg11.dtd">
<!-- Generated by graphviz version 2.36.0 (20140111.2315)
 -->
<!-- Title: stl/TreeMap.h Pages: 1 -->
<!--zoomable 644 -->
<svg id="main" version="1.1" xmlns="http://www.w3.org/2000/svg" xmlns:xlink="http://www.w3.org/1999/xlink" xml:space="preserve" onload="init(evt)">
<style type="text/css"><![CDATA[
.edge:hover path { stroke: red; }
.edge:hover polygon { stroke: red; fill: red; }
]]></style>
<script type="text/javascript"><![CDATA[
var edges = document.getElementsByTagName('g');
if (edges && edges.length) {
  for (var i=0;i<edges.length;i++) {
    if (edges[i].id.substr(0,4)=='edge') {
      edges[i].setAttribute('class','edge');
    }
  }
}
]]></script>
        <defs>
                <circle id="rim" cx="0" cy="0" r="7"/>
                <circle id="rim2" cx="0" cy="0" r="3.5"/>
                <g id="zoomPlus">
                        <use xlink:href="#rim" fill="#404040">
                                <set attributeName="fill" to="#808080" begin="zoomplus.mouseover" end="zoomplus.mouseout"/>
                        </use>
                        <path d="M-4,0h8M0,-4v8" fill="none" stroke="white" stroke-width="1.5" pointer-events="none"/>
                </g>
                <g id="zoomMin">
                        <use xlink:href="#rim" fill="#404040">
                                <set attributeName="fill" to="#808080" begin="zoomminus.mouseover" end="zoomminus.mouseout"/>
                        </use>
                        <path d="M-4,0h8" fill="none" stroke="white" stroke-width="1.5" pointer-events="none"/>
                </g>
                <g id="dirArrow">
                        <path fill="none" stroke="white" stroke-width="1.5" d="M0,-3.0v7 M-2.5,-0.5L0,-3.0L2.5,-0.5"/>
                </g>
               <g id="resetDef">
                       <use xlink:href="#rim2" fill="#404040">
                               <set attributeName="fill" to="#808080" begin="reset.mouseover" end="reset.mouseout"/>
                       </use>
               </g>
        </defs>

<script type="text/javascript">
var viewWidth = 828;
var viewHeight = 644;
var sectionId = 'dynsection-0';
</script>
<script xlink:href="../../svgpan.js"/>
<svg id="graph" class="graph">
<g id="viewport">
<title>stl/TreeMap.h</title>
<polygon fill="white" stroke="none" points="-4,4 -4,-640 824,-640 824,4 -4,4"/>
<!-- Node1 -->
<g id="node1" class="node"><title>Node1</title>
<polygon fill="#bfbfbf" stroke="black" points="75.5,-616.5 75.5,-635.5 152.5,-635.5 152.5,-616.5 75.5,-616.5"/>
<text text-anchor="middle" x="114" y="-623.5" font-family="Helvetica,sans-Serif" font-size="10.00">stl/TreeMap.h</text>
</g>
<!-- Node2 -->
<g id="node2" class="node"><title>Node2</title>
<g id="a_node2"><a xlink:href="../../d0/db6/_types_8h.html" target="_top" xlink:title="type definition of all the string types we will be using ">
<polygon fill="white" stroke="black" points="396.5,-56.5 396.5,-75.5 457.5,-75.5 457.5,-56.5 396.5,-56.5"/>
<text text-anchor="middle" x="427" y="-63.5" font-family="Helvetica,sans-Serif" font-size="10.00">../Types.h</text>
</a>
</g>
</g>
<!-- Node1&#45;&gt;Node2 -->
<g id="edge1" class="edge"><title>Node1&#45;&gt;Node2</title>
<path fill="none" stroke="midnightblue" d="M93.3555,-616.421C60.5038,-601.231 0,-566.293 0,-515 0,-515 0,-515 0,-177 0,-97.7288 279.462,-74.7255 386.218,-68.8301"/>
<polygon fill="midnightblue" stroke="midnightblue" points="386.49,-72.3207 396.291,-68.2967 386.12,-65.3305 386.49,-72.3207"/>
</g>
<!-- Node4 -->
<g id="node4" class="node"><title>Node4</title>
<g id="a_node4"><a xlink:href="../../d5/d08/_red_black_tree_8h.html" target="_top" xlink:title="Red black tree implementation. ">
<polygon fill="white" stroke="black" points="184.5,-560.5 184.5,-579.5 271.5,-579.5 271.5,-560.5 184.5,-560.5"/>
<text text-anchor="middle" x="228" y="-567.5" font-family="Helvetica,sans-Serif" font-size="10.00">RedBlackTree.h</text>
</a>
</g>
</g>
<!-- Node1&#45;&gt;Node4 -->
<g id="edge3" class="edge"><title>Node1&#45;&gt;Node4</title>
<path fill="none" stroke="midnightblue" d="M132.064,-616.444C150.575,-607.675 179.581,-593.935 200.855,-583.858"/>
<polygon fill="midnightblue" stroke="midnightblue" points="202.482,-586.96 210.021,-579.516 199.485,-580.634 202.482,-586.96"/>
</g>
<!-- Node3 -->
<g id="node3" class="node"><title>Node3</title>
<polygon fill="white" stroke="#bfbfbf" points="402.5,-0.5 402.5,-19.5 451.5,-19.5 451.5,-0.5 402.5,-0.5"/>
<text text-anchor="middle" x="427" y="-7.5" font-family="Helvetica,sans-Serif" font-size="10.00">stdint.h</text>
</g>
<!-- Node2&#45;&gt;Node3 -->
<g id="edge2" class="edge"><title>Node2&#45;&gt;Node3</title>
<path fill="none" stroke="midnightblue" d="M427,-56.083C427,-49.0059 427,-38.8611 427,-29.9865"/>
<polygon fill="midnightblue" stroke="midnightblue" points="430.5,-29.751 427,-19.7511 423.5,-29.7511 430.5,-29.751"/>
</g>
<!-- Node4&#45;&gt;Node2 -->
<g id="edge33" class="edge"><title>Node4&#45;&gt;Node2</title>
<path fill="none" stroke="midnightblue" d="M271.531,-565.525C408.246,-554.035 820,-514.797 820,-459 820,-459 820,-459 820,-177 820,-128.376 776.948,-130.546 732,-112 642.849,-75.2149 528.102,-67.9188 467.953,-66.8237"/>
<polygon fill="midnightblue" stroke="midnightblue" points="467.772,-63.3211 457.726,-66.6884 467.679,-70.3205 467.772,-63.3211"/>
</g>
<!-- Node5 -->
<g id="node5" class="node"><title>Node5</title>
<g id="a_node5"><a xlink:href="../../d7/d0c/_comparator_8h.html" target="_top" xlink:title="Comparator implementation for basic types. ">
<polygon fill="white" stroke="black" points="430,-504.5 430,-523.5 506,-523.5 506,-504.5 430,-504.5"/>
<text text-anchor="middle" x="468" y="-511.5" font-family="Helvetica,sans-Serif" font-size="10.00">Comparator.h</text>
</a>
</g>
</g>
<!-- Node4&#45;&gt;Node5 -->
<g id="edge4" class="edge"><title>Node4&#45;&gt;Node5</title>
<path fill="none" stroke="midnightblue" d="M266.029,-560.444C307.808,-551.043 374.982,-535.929 420.27,-525.739"/>
<polygon fill="midnightblue" stroke="midnightblue" points="421.161,-529.126 430.149,-523.516 419.625,-522.297 421.161,-529.126"/>
</g>
<!-- Node11 -->
<g id="node11" class="node"><title>Node11</title>
<g id="a_node11"><a xlink:href="../../d4/dda/_pair_8h.html" target="_top" xlink:title="Implementation of a 2&#45;element tuple. ">
<polygon fill="white" stroke="black" points="338,-224.5 338,-243.5 380,-243.5 380,-224.5 338,-224.5"/>
<text text-anchor="middle" x="359" y="-231.5" font-family="Helvetica,sans-Serif" font-size="10.00">Pair.h</text>
</a>
</g>
</g>
<!-- Node4&#45;&gt;Node11 -->
<g id="edge32" class="edge"><title>Node4&#45;&gt;Node11</title>
<path fill="none" stroke="midnightblue" d="M228,-560.442C228,-541.936 228,-496.812 228,-459 228,-459 228,-459 228,-345 228,-292.931 289.449,-260.587 328.175,-245.373"/>
<polygon fill="midnightblue" stroke="midnightblue" points="329.82,-248.494 337.953,-241.703 327.36,-241.94 329.82,-248.494"/>
</g>
<!-- Node12 -->
<g id="node12" class="node"><title>Node12</title>
<g id="a_node12"><a xlink:href="../../db/d2a/_utility_8h.html" target="_top" xlink:title="Various helper functions. ">
<polygon fill="white" stroke="black" points="294,-168.5 294,-187.5 380,-187.5 380,-168.5 294,-168.5"/>
<text text-anchor="middle" x="337" y="-175.5" font-family="Helvetica,sans-Serif" font-size="10.00">../utility/Utility.h</text>
</a>
</g>
</g>
<!-- Node4&#45;&gt;Node12 -->
<g id="edge35" class="edge"><title>Node4&#45;&gt;Node12</title>
<path fill="none" stroke="midnightblue" d="M222.716,-560.231C212.275,-542.043 190,-498.601 190,-459 190,-459 190,-459 190,-289 190,-236.252 251.426,-205.734 294.863,-190.748"/>
<polygon fill="midnightblue" stroke="midnightblue" points="295.975,-194.067 304.376,-187.611 293.783,-187.419 295.975,-194.067"/>
</g>
<!-- Node17 -->
<g id="node17" class="node"><title>Node17</title>
<g id="a_node17"><a xlink:href="../../d3/de6/_memory_8h.html" target="_top" xlink:title="Memory is a class that provides dynamic fixed size memory. ">
<polygon fill="white" stroke="black" points="294.5,-336.5 294.5,-355.5 401.5,-355.5 401.5,-336.5 294.5,-336.5"/>
<text text-anchor="middle" x="348" y="-343.5" font-family="Helvetica,sans-Serif" font-size="10.00">../memory/Memory.h</text>
</a>
</g>
</g>
<!-- Node4&#45;&gt;Node17 -->
<g id="edge34" class="edge"><title>Node4&#45;&gt;Node17</title>
<path fill="none" stroke="midnightblue" d="M232.704,-560.297C250.51,-527.356 314.001,-409.898 338.376,-364.805"/>
<polygon fill="midnightblue" stroke="midnightblue" points="341.522,-366.345 343.198,-355.884 335.364,-363.016 341.522,-366.345"/>
</g>
<!-- Node19 -->
<g id="node19" class="node"><title>Node19</title>
<g id="a_node19"><a xlink:href="../../d7/d2f/_exceptions_8h.html" target="_top" xlink:title="Implementation of Exceptions using C style. ">
<polygon fill="white" stroke="black" points="28.5,-504.5 28.5,-523.5 161.5,-523.5 161.5,-504.5 28.5,-504.5"/>
<text text-anchor="middle" x="95" y="-511.5" font-family="Helvetica,sans-Serif" font-size="10.00">../exceptions/Exceptions.h</text>
</a>
</g>
</g>
<!-- Node4&#45;&gt;Node19 -->
<g id="edge36" class="edge"><title>Node4&#45;&gt;Node19</title>
<path fill="none" stroke="midnightblue" d="M206.926,-560.444C184.94,-551.517 150.266,-537.439 125.336,-527.317"/>
<polygon fill="midnightblue" stroke="midnightblue" points="126.558,-524.035 115.976,-523.516 123.924,-530.521 126.558,-524.035"/>
</g>
<!-- Node5&#45;&gt;Node2 -->
<g id="edge6" class="edge"><title>Node5&#45;&gt;Node2</title>
<path fill="none" stroke="midnightblue" d="M506.189,-507.85C589.87,-495.496 782,-460.834 782,-403 782,-403 782,-403 782,-177 782,-111.843 561.044,-81.0293 467.77,-70.9246"/>
<polygon fill="midnightblue" stroke="midnightblue" points="467.887,-67.4175 457.574,-69.8478 467.151,-74.3788 467.887,-67.4175"/>
</g>
<!-- Node6 -->
<g id="node6" class="node"><title>Node6</title>
<polygon fill="white" stroke="#bfbfbf" points="434.5,-280.5 434.5,-299.5 483.5,-299.5 483.5,-280.5 434.5,-280.5"/>
<text text-anchor="middle" x="459" y="-287.5" font-family="Helvetica,sans-Serif" font-size="10.00">string.h</text>
</g>
<!-- Node5&#45;&gt;Node6 -->
<g id="edge5" class="edge"><title>Node5&#45;&gt;Node6</title>
<path fill="none" stroke="midnightblue" d="M456.459,-504.49C446.521,-496.379 432.878,-483.178 427,-468 405.53,-412.557 433.696,-341.679 449.542,-308.992"/>
<polygon fill="midnightblue" stroke="midnightblue" points="452.805,-310.295 454.176,-299.789 446.552,-307.147 452.805,-310.295"/>
</g>
<!-- Node7 -->
<g id="node7" class="node"><title>Node7</title>
<g id="a_node7"><a xlink:href="../../d2/dc2/_equal_8h.html" target="_top" xlink:title="stl/Equal.h">
<polygon fill="white" stroke="black" points="436.5,-448.5 436.5,-467.5 499.5,-467.5 499.5,-448.5 436.5,-448.5"/>
<text text-anchor="middle" x="468" y="-455.5" font-family="Helvetica,sans-Serif" font-size="10.00">stl/Equal.h</text>
</a>
</g>
</g>
<!-- Node5&#45;&gt;Node7 -->
<g id="edge7" class="edge"><title>Node5&#45;&gt;Node7</title>
<path fill="none" stroke="midnightblue" d="M468,-504.083C468,-497.006 468,-486.861 468,-477.986"/>
<polygon fill="midnightblue" stroke="midnightblue" points="471.5,-477.751 468,-467.751 464.5,-477.751 471.5,-477.751"/>
</g>
<!-- Node8 -->
<g id="node8" class="node"><title>Node8</title>
<g id="a_node8"><a xlink:href="../../db/db5/_string_8h.html" target="_top" xlink:title="../strings/String.h">
<polygon fill="white" stroke="black" points="496,-392.5 496,-411.5 588,-411.5 588,-392.5 496,-392.5"/>
<text text-anchor="middle" x="542" y="-399.5" font-family="Helvetica,sans-Serif" font-size="10.00">../strings/String.h</text>
</a>
</g>
</g>
<!-- Node5&#45;&gt;Node8 -->
<g id="edge31" class="edge"><title>Node5&#45;&gt;Node8</title>
<path fill="none" stroke="midnightblue" d="M476.972,-504.24C485.579,-495.547 498.616,-481.591 508,-468 518.379,-452.968 527.801,-434.375 534.08,-420.93"/>
<polygon fill="midnightblue" stroke="midnightblue" points="537.28,-422.349 538.233,-411.797 530.908,-419.452 537.28,-422.349"/>
</g>
<!-- Node7&#45;&gt;Node2 -->
<g id="edge9" class="edge"><title>Node7&#45;&gt;Node2</title>
<path fill="none" stroke="midnightblue" d="M436.254,-450.642C356.121,-432.556 152,-372.948 152,-235 152,-235 152,-235 152,-177 152,-127.214 309.345,-89.8077 385.999,-74.5385"/>
<polygon fill="midnightblue" stroke="midnightblue" points="387.113,-77.887 396.254,-72.5319 385.768,-71.0173 387.113,-77.887"/>
</g>
<!-- Node7&#45;&gt;Node6 -->
<g id="edge8" class="edge"><title>Node7&#45;&gt;Node6</title>
<path fill="none" stroke="midnightblue" d="M467.516,-448.075C466.099,-421.945 461.939,-345.211 460.007,-309.577"/>
<polygon fill="midnightblue" stroke="midnightblue" points="463.501,-309.364 459.465,-299.568 456.511,-309.743 463.501,-309.364"/>
</g>
<!-- Node7&#45;&gt;Node8 -->
<g id="edge10" class="edge"><title>Node7&#45;&gt;Node8</title>
<path fill="none" stroke="midnightblue" d="M479.889,-448.324C491.15,-440.107 508.287,-427.602 521.709,-417.807"/>
<polygon fill="midnightblue" stroke="midnightblue" points="523.88,-420.556 529.894,-411.834 519.753,-414.901 523.88,-420.556"/>
</g>
<!-- Node8&#45;&gt;Node2 -->
<g id="edge23" class="edge"><title>Node8&#45;&gt;Node2</title>
<path fill="none" stroke="midnightblue" d="M570.022,-392.4C588.094,-385.425 610.639,-373.788 624,-356 657.092,-311.943 651,-290.1 651,-235 651,-235 651,-235 651,-177 651,-96.356 532.577,-74.8303 467.942,-69.0875"/>
<polygon fill="midnightblue" stroke="midnightblue" points="467.924,-65.575 457.677,-68.2677 467.366,-72.5528 467.924,-65.575"/>
</g>
<!-- Node8&#45;&gt;Node6 -->
<g id="edge11" class="edge"><title>Node8&#45;&gt;Node6</title>
<path fill="none" stroke="midnightblue" d="M535.487,-392.368C521.729,-374.135 489.503,-331.426 471.582,-307.675"/>
<polygon fill="midnightblue" stroke="midnightblue" points="474.3,-305.466 465.483,-299.591 468.712,-309.682 474.3,-305.466"/>
</g>
<!-- Node9 -->
<g id="node9" class="node"><title>Node9</title>
<g id="a_node9"><a xlink:href="../../de/d0b/_string_iterator_8h.html" target="_top" xlink:title="StringIterator.h">
<polygon fill="white" stroke="black" points="534.5,-336.5 534.5,-355.5 615.5,-355.5 615.5,-336.5 534.5,-336.5"/>
<text text-anchor="middle" x="575" y="-343.5" font-family="Helvetica,sans-Serif" font-size="10.00">StringIterator.h</text>
</a>
</g>
</g>
<!-- Node8&#45;&gt;Node9 -->
<g id="edge12" class="edge"><title>Node8&#45;&gt;Node9</title>
<path fill="none" stroke="midnightblue" d="M547.449,-392.083C552.014,-384.613 558.668,-373.724 564.293,-364.52"/>
<polygon fill="midnightblue" stroke="midnightblue" points="567.424,-366.109 569.652,-355.751 561.451,-362.459 567.424,-366.109"/>
</g>
<!-- Node16 -->
<g id="node16" class="node"><title>Node16</title>
<g id="a_node16"><a xlink:href="../../da/db8/_math_8h.html" target="_top" xlink:title="../utility/Math.h">
<polygon fill="white" stroke="black" points="672,-336.5 672,-355.5 754,-355.5 754,-336.5 672,-336.5"/>
<text text-anchor="middle" x="713" y="-343.5" font-family="Helvetica,sans-Serif" font-size="10.00">../utility/Math.h</text>
</a>
</g>
</g>
<!-- Node8&#45;&gt;Node16 -->
<g id="edge24" class="edge"><title>Node8&#45;&gt;Node16</title>
<path fill="none" stroke="midnightblue" d="M569.095,-392.444C597.988,-383.32 643.925,-368.813 676.105,-358.651"/>
<polygon fill="midnightblue" stroke="midnightblue" points="677.549,-361.865 686.031,-355.516 675.441,-355.19 677.549,-361.865"/>
</g>
<!-- Node8&#45;&gt;Node17 -->
<g id="edge25" class="edge"><title>Node8&#45;&gt;Node17</title>
<path fill="none" stroke="midnightblue" d="M511.26,-392.444C478.056,-383.201 425.009,-368.436 388.443,-358.257"/>
<polygon fill="midnightblue" stroke="midnightblue" points="389.168,-354.826 378.596,-355.516 387.291,-361.57 389.168,-354.826"/>
</g>
<!-- Node9&#45;&gt;Node2 -->
<g id="edge13" class="edge"><title>Node9&#45;&gt;Node2</title>
<path fill="none" stroke="midnightblue" d="M580.284,-336.231C590.725,-318.043 613,-274.601 613,-235 613,-235 613,-235 613,-177 613,-110.035 522.575,-82.9755 467.822,-72.7287"/>
<polygon fill="midnightblue" stroke="midnightblue" points="468.169,-69.2361 457.714,-70.9508 466.957,-76.1303 468.169,-69.2361"/>
</g>
<!-- Node10 -->
<g id="node10" class="node"><title>Node10</title>
<g id="a_node10"><a xlink:href="../../d8/dd7/_concept_8h.html" target="_top" xlink:title="Concept definitions. ">
<polygon fill="white" stroke="black" points="501,-280.5 501,-299.5 585,-299.5 585,-280.5 501,-280.5"/>
<text text-anchor="middle" x="543" y="-287.5" font-family="Helvetica,sans-Serif" font-size="10.00">../stl/Concept.h</text>
</a>
</g>
</g>
<!-- Node9&#45;&gt;Node10 -->
<g id="edge14" class="edge"><title>Node9&#45;&gt;Node10</title>
<path fill="none" stroke="midnightblue" d="M569.716,-336.083C565.289,-328.613 558.837,-317.724 553.382,-308.52"/>
<polygon fill="midnightblue" stroke="midnightblue" points="556.295,-306.57 548.186,-299.751 550.273,-310.138 556.295,-306.57"/>
</g>
<!-- Node10&#45;&gt;Node11 -->
<g id="edge15" class="edge"><title>Node10&#45;&gt;Node11</title>
<path fill="none" stroke="midnightblue" d="M513.845,-280.444C480.05,-270.525 424.583,-254.247 390.016,-244.103"/>
<polygon fill="midnightblue" stroke="midnightblue" points="390.587,-240.623 380.006,-241.165 388.616,-247.339 390.587,-240.623"/>
</g>
<!-- Node13 -->
<g id="node13" class="node"><title>Node13</title>
<g id="a_node13"><a xlink:href="../../d2/d37/_tmp_8h.html" target="_top" xlink:title="Template helper types, structs, and metafunctions. ">
<polygon fill="white" stroke="black" points="405,-112.5 405,-131.5 449,-131.5 449,-112.5 405,-112.5"/>
<text text-anchor="middle" x="427" y="-119.5" font-family="Helvetica,sans-Serif" font-size="10.00">Tmp.h</text>
</a>
</g>
</g>
<!-- Node10&#45;&gt;Node13 -->
<g id="edge22" class="edge"><title>Node10&#45;&gt;Node13</title>
<path fill="none" stroke="midnightblue" d="M535.719,-280.368C521.434,-263.263 489.031,-223.635 465,-188 454.517,-172.455 443.851,-153.924 436.499,-140.633"/>
<polygon fill="midnightblue" stroke="midnightblue" points="439.446,-138.726 431.58,-131.627 433.302,-142.081 439.446,-138.726"/>
</g>
<!-- Node14 -->
<g id="node14" class="node"><title>Node14</title>
<g id="a_node14"><a xlink:href="../../d4/dd5/_type_traits_8h.html" target="_top" xlink:title="Metafunctions for types. ">
<polygon fill="white" stroke="black" points="474.5,-168.5 474.5,-187.5 545.5,-187.5 545.5,-168.5 474.5,-168.5"/>
<text text-anchor="middle" x="510" y="-175.5" font-family="Helvetica,sans-Serif" font-size="10.00">TypeTraits.h</text>
</a>
</g>
</g>
<!-- Node10&#45;&gt;Node14 -->
<g id="edge19" class="edge"><title>Node10&#45;&gt;Node14</title>
<path fill="none" stroke="midnightblue" d="M538.128,-280.304C533.355,-271.432 526.203,-257.138 522,-244 517.133,-228.784 514.01,-210.894 512.175,-197.739"/>
<polygon fill="midnightblue" stroke="midnightblue" points="515.617,-197.061 510.881,-187.583 508.673,-197.945 515.617,-197.061"/>
</g>
<!-- Node15 -->
<g id="node15" class="node"><title>Node15</title>
<g id="a_node15"><a xlink:href="../../d2/db4/_wlib_8h.html" target="_top" xlink:title="../Wlib.h">
<polygon fill="white" stroke="black" points="531.5,-224.5 531.5,-243.5 584.5,-243.5 584.5,-224.5 531.5,-224.5"/>
<text text-anchor="middle" x="558" y="-231.5" font-family="Helvetica,sans-Serif" font-size="10.00">../Wlib.h</text>
</a>
</g>
</g>
<!-- Node10&#45;&gt;Node15 -->
<g id="edge21" class="edge"><title>Node10&#45;&gt;Node15</title>
<path fill="none" stroke="midnightblue" d="M545.477,-280.083C547.486,-272.849 550.386,-262.409 552.89,-253.397"/>
<polygon fill="midnightblue" stroke="midnightblue" points="556.265,-254.323 555.569,-243.751 549.52,-252.449 556.265,-254.323"/>
</g>
<!-- Node11&#45;&gt;Node12 -->
<g id="edge16" class="edge"><title>Node11&#45;&gt;Node12</title>
<path fill="none" stroke="midnightblue" d="M355.367,-224.083C352.388,-216.77 348.074,-206.181 344.375,-197.103"/>
<polygon fill="midnightblue" stroke="midnightblue" points="347.58,-195.691 340.565,-187.751 341.097,-198.333 347.58,-195.691"/>
</g>
<!-- Node12&#45;&gt;Node13 -->
<g id="edge17" class="edge"><title>Node12&#45;&gt;Node13</title>
<path fill="none" stroke="midnightblue" d="M351.46,-168.324C365.5,-159.9 387.048,-146.971 403.543,-137.074"/>
<polygon fill="midnightblue" stroke="midnightblue" points="405.802,-139.801 412.576,-131.655 402.2,-133.798 405.802,-139.801"/>
</g>
<!-- Node13&#45;&gt;Node2 -->
<g id="edge18" class="edge"><title>Node13&#45;&gt;Node2</title>
<path fill="none" stroke="midnightblue" d="M427,-112.083C427,-105.006 427,-94.8611 427,-85.9865"/>
<polygon fill="midnightblue" stroke="midnightblue" points="430.5,-85.751 427,-75.7511 423.5,-85.7511 430.5,-85.751"/>
</g>
<!-- Node14&#45;&gt;Node13 -->
<g id="edge20" class="edge"><title>Node14&#45;&gt;Node13</title>
<path fill="none" stroke="midnightblue" d="M496.665,-168.324C483.838,-159.979 464.215,-147.212 449.06,-137.352"/>
<polygon fill="midnightblue" stroke="midnightblue" points="450.593,-134.174 440.302,-131.655 446.776,-140.042 450.593,-134.174"/>
</g>
<!-- Node17&#45;&gt;Node2 -->
<g id="edge28" class="edge"><title>Node17&#45;&gt;Node2</title>
<path fill="none" stroke="midnightblue" d="M329.972,-336.391C315.774,-328.726 296.517,-316.22 285,-300 267.574,-275.46 266,-265.098 266,-235 266,-235 266,-235 266,-177 266,-118.69 338.888,-89.0479 386.579,-75.8938"/>
<polygon fill="midnightblue" stroke="midnightblue" points="387.554,-79.2565 396.338,-73.3327 385.777,-72.4858 387.554,-79.2565"/>
</g>
<!-- Node17&#45;&gt;Node6 -->
<g id="edge26" class="edge"><title>Node17&#45;&gt;Node6</title>
<path fill="none" stroke="midnightblue" d="M365.834,-336.324C383.716,-327.625 411.475,-314.12 432.046,-304.113"/>
<polygon fill="midnightblue" stroke="midnightblue" points="433.749,-307.177 441.21,-299.655 430.687,-300.882 433.749,-307.177"/>
</g>
<!-- Node17&#45;&gt;Node12 -->
<g id="edge27" class="edge"><title>Node17&#45;&gt;Node12</title>
<path fill="none" stroke="midnightblue" d="M349.291,-336.428C350.9,-323.842 352.884,-299.717 348,-280 343.65,-262.439 333.35,-261.561 329,-244 326.863,-235.372 328.219,-232.855 329,-224 329.776,-215.197 331.391,-205.536 332.969,-197.43"/>
<polygon fill="midnightblue" stroke="midnightblue" points="336.41,-198.069 335.013,-187.567 329.556,-196.648 336.41,-198.069"/>
</g>
<!-- Node17&#45;&gt;Node13 -->
<g id="edge29" class="edge"><title>Node17&#45;&gt;Node13</title>
<path fill="none" stroke="midnightblue" d="M351.616,-336.426C358.873,-319.099 375.582,-278.616 388,-244 400.932,-207.952 414.251,-165.181 421.491,-141.362"/>
<polygon fill="midnightblue" stroke="midnightblue" points="424.906,-142.158 424.447,-131.573 418.205,-140.134 424.906,-142.158"/>
</g>
<!-- Node18 -->
<g id="node18" class="node"><title>Node18</title>
<g id="a_node18"><a xlink:href="../../d9/d8a/_new_8h.html" target="_top" xlink:title="New operators defined for Arduino boards and for other boards use the normal new. ...">
<polygon fill="white" stroke="black" points="294.5,-280.5 294.5,-299.5 339.5,-299.5 339.5,-280.5 294.5,-280.5"/>
<text text-anchor="middle" x="317" y="-287.5" font-family="Helvetica,sans-Serif" font-size="10.00">New.h</text>
</a>
</g>
</g>
<!-- Node17&#45;&gt;Node18 -->
<g id="edge30" class="edge"><title>Node17&#45;&gt;Node18</title>
<path fill="none" stroke="midnightblue" d="M342.881,-336.083C338.592,-328.613 332.342,-317.724 327.058,-308.52"/>
<polygon fill="midnightblue" stroke="midnightblue" points="330.038,-306.681 322.024,-299.751 323.967,-310.166 330.038,-306.681"/>
</g>
<!-- Node19&#45;&gt;Node2 -->
<g id="edge38" class="edge"><title>Node19&#45;&gt;Node2</title>
<path fill="none" stroke="midnightblue" d="M93.039,-504.496C88.9731,-486.095 80,-441.162 80,-403 80,-403 80,-403 80,-177 80,-113.409 294.435,-81.8206 386.166,-71.2168"/>
<polygon fill="midnightblue" stroke="midnightblue" points="386.662,-74.6832 396.206,-70.0837 385.877,-67.7273 386.662,-74.6832"/>
</g>
<!-- Node20 -->
<g id="node20" class="node"><title>Node20</title>
<polygon fill="white" stroke="#bfbfbf" points="108,-448.5 108,-467.5 162,-467.5 162,-448.5 108,-448.5"/>
<text text-anchor="middle" x="135" y="-455.5" font-family="Helvetica,sans-Serif" font-size="10.00">setjmp.h</text>
</g>
<!-- Node19&#45;&gt;Node20 -->
<g id="edge37" class="edge"><title>Node19&#45;&gt;Node20</title>
<path fill="none" stroke="midnightblue" d="M101.605,-504.083C107.255,-496.455 115.545,-485.264 122.451,-475.941"/>
<polygon fill="midnightblue" stroke="midnightblue" points="125.378,-477.87 128.518,-467.751 119.753,-473.703 125.378,-477.87"/>
</g>
</g>
</svg>
        <g id="navigator" transform="translate(0 0)" fill="#404254">
                <rect fill="#f2f5e9" fill-opacity="0.5" stroke="#606060" stroke-width=".5" x="0" y="0" width="60" height="60"/>
                <use id="zoomplus" xlink:href="#zoomPlus" x="17" y="9" onmousedown="handleZoom(evt,'in')"/>
                <use id="zoomminus" xlink:href="#zoomMin" x="42" y="9" onmousedown="handleZoom(evt,'out')"/>
                <use id="reset" xlink:href="#resetDef" x="30" y="36" onmousedown="handleReset()"/>
                <g id="arrowUp" xlink:href="#dirArrow" transform="translate(30 24)" onmousedown="handlePan(0,-1)">
                  <use xlink:href="#rim" fill="#404040">
                        <set attributeName="fill" to="#808080" begin="arrowUp.mouseover" end="arrowUp.mouseout"/>
                  </use>
                  <path fill="none" stroke="white" stroke-width="1.5" d="M0,-3.0v7 M-2.5,-0.5L0,-3.0L2.5,-0.5"/>
                </g>
                <g id="arrowRight" xlink:href="#dirArrow" transform="rotate(90) translate(36 -43)" onmousedown="handlePan(1,0)">
                  <use xlink:href="#rim" fill="#404040">
                        <set attributeName="fill" to="#808080" begin="arrowRight.mouseover" end="arrowRight.mouseout"/>
                  </use>
                  <path fill="none" stroke="white" stroke-width="1.5" d="M0,-3.0v7 M-2.5,-0.5L0,-3.0L2.5,-0.5"/>
                </g>
                <g id="arrowDown" xlink:href="#dirArrow" transform="rotate(180) translate(-30 -48)" onmousedown="handlePan(0,1)">
                  <use xlink:href="#rim" fill="#404040">
                        <set attributeName="fill" to="#808080" begin="arrowDown.mouseover" end="arrowDown.mouseout"/>
                  </use>
                  <path fill="none" stroke="white" stroke-width="1.5" d="M0,-3.0v7 M-2.5,-0.5L0,-3.0L2.5,-0.5"/>
                </g>
                <g id="arrowLeft" xlink:href="#dirArrow" transform="rotate(270) translate(-36 17)" onmousedown="handlePan(-1,0)">
                  <use xlink:href="#rim" fill="#404040">
                        <set attributeName="fill" to="#808080" begin="arrowLeft.mouseover" end="arrowLeft.mouseout"/>
                  </use>
                  <path fill="none" stroke="white" stroke-width="1.5" d="M0,-3.0v7 M-2.5,-0.5L0,-3.0L2.5,-0.5"/>
                </g>
        </g>
        <svg viewBox="0 0 15 15" width="100%" height="30px" preserveAspectRatio="xMaxYMin meet">
         <g id="arrow_out" transform="scale(0.3 0.3)">
          <a xlink:href="_tree_map_8h__incl_org.svg" target="_base">
           <rect id="button" ry="5" rx="5" y="6" x="6" height="38" width="38"
                fill="#f2f5e9" fill-opacity="0.5" stroke="#606060" stroke-width="1.0"/>
           <path id="arrow"
             d="M 11.500037,31.436501 C 11.940474,20.09759 22.043105,11.32322 32.158766,21.979434 L 37.068811,17.246167 C 37.068811,17.246167 37.088388,32 37.088388,32 L 22.160133,31.978069 C 22.160133,31.978069 26.997745,27.140456 26.997745,27.140456 C 18.528582,18.264221 13.291696,25.230495 11.500037,31.436501 z"
             style="fill:#404040;"/>
          </a>
         </g>
        </svg>
</svg>
