<?xml version="1.0" encoding="UTF-8" standalone="no"?>
<!DOCTYPE svg PUBLIC "-//W3C//DTD SVG 1.1//EN"
 "http://www.w3.org/Graphics/SVG/1.1/DTD/svg11.dtd">
<!-- Generated by graphviz version 2.36.0 (20140111.2315)
 -->
<!-- Title: stl/TreeMap.h Pages: 1 -->
<!--zoomable 644 -->
<svg id="main" version="1.1" xmlns="http://www.w3.org/2000/svg" xmlns:xlink="http://www.w3.org/1999/xlink" xml:space="preserve" onload="init(evt)">
<style type="text/css"><![CDATA[
.edge:hover path { stroke: red; }
.edge:hover polygon { stroke: red; fill: red; }
]]></style>
<script type="text/javascript"><![CDATA[
var edges = document.getElementsByTagName('g');
if (edges && edges.length) {
  for (var i=0;i<edges.length;i++) {
    if (edges[i].id.substr(0,4)=='edge') {
      edges[i].setAttribute('class','edge');
    }
  }
}
]]></script>
        <defs>
                <circle id="rim" cx="0" cy="0" r="7"/>
                <circle id="rim2" cx="0" cy="0" r="3.5"/>
                <g id="zoomPlus">
                        <use xlink:href="#rim" fill="#404040">
                                <set attributeName="fill" to="#808080" begin="zoomplus.mouseover" end="zoomplus.mouseout"/>
                        </use>
                        <path d="M-4,0h8M0,-4v8" fill="none" stroke="white" stroke-width="1.5" pointer-events="none"/>
                </g>
                <g id="zoomMin">
                        <use xlink:href="#rim" fill="#404040">
                                <set attributeName="fill" to="#808080" begin="zoomminus.mouseover" end="zoomminus.mouseout"/>
                        </use>
                        <path d="M-4,0h8" fill="none" stroke="white" stroke-width="1.5" pointer-events="none"/>
                </g>
                <g id="dirArrow">
                        <path fill="none" stroke="white" stroke-width="1.5" d="M0,-3.0v7 M-2.5,-0.5L0,-3.0L2.5,-0.5"/>
                </g>
               <g id="resetDef">
                       <use xlink:href="#rim2" fill="#404040">
                               <set attributeName="fill" to="#808080" begin="reset.mouseover" end="reset.mouseout"/>
                       </use>
               </g>
        </defs>

<script type="text/javascript">
var viewWidth = 641;
var viewHeight = 644;
var sectionId = 'dynsection-0';
</script>
<script xlink:href="../../svgpan.js"/>
<svg id="graph" class="graph">
<g id="viewport">
<title>stl/TreeMap.h</title>
<polygon fill="white" stroke="none" points="-4,4 -4,-640 637,-640 637,4 -4,4"/>
<!-- Node1 -->
<g id="node1" class="node"><title>Node1</title>
<polygon fill="#bfbfbf" stroke="black" points="180.5,-616.5 180.5,-635.5 257.5,-635.5 257.5,-616.5 180.5,-616.5"/>
<text text-anchor="middle" x="219" y="-623.5" font-family="Helvetica,sans-Serif" font-size="10.00">stl/TreeMap.h</text>
</g>
<!-- Node2 -->
<g id="node2" class="node"><title>Node2</title>
<g id="a_node2"><a xlink:href="../../d0/db6/_types_8h.html" target="_top" xlink:title="type definition of all the string types we will be using ">
<polygon fill="white" stroke="black" points="173.5,-56.5 173.5,-75.5 234.5,-75.5 234.5,-56.5 173.5,-56.5"/>
<text text-anchor="middle" x="204" y="-63.5" font-family="Helvetica,sans-Serif" font-size="10.00">../Types.h</text>
</a>
</g>
</g>
<!-- Node1&#45;&gt;Node2 -->
<g id="edge1" class="edge"><title>Node1&#45;&gt;Node2</title>
<path fill="none" stroke="midnightblue" d="M180.351,-622.723C117.481,-616.701 0,-594.777 0,-515 0,-515 0,-515 0,-177 0,-103.551 103.721,-78.9191 163.247,-70.8308"/>
<polygon fill="midnightblue" stroke="midnightblue" points="163.974,-74.2669 173.459,-69.5458 163.1,-67.3217 163.974,-74.2669"/>
</g>
<!-- Node4 -->
<g id="node4" class="node"><title>Node4</title>
<g id="a_node4"><a xlink:href="../../d5/d08/_red_black_tree_8h.html" target="_top" xlink:title="Red black tree implementation. ">
<polygon fill="white" stroke="black" points="406.5,-560.5 406.5,-579.5 493.5,-579.5 493.5,-560.5 406.5,-560.5"/>
<text text-anchor="middle" x="450" y="-567.5" font-family="Helvetica,sans-Serif" font-size="10.00">RedBlackTree.h</text>
</a>
</g>
</g>
<!-- Node1&#45;&gt;Node4 -->
<g id="edge3" class="edge"><title>Node1&#45;&gt;Node4</title>
<path fill="none" stroke="midnightblue" d="M255.603,-616.444C295.731,-607.063 360.198,-591.993 403.785,-581.804"/>
<polygon fill="midnightblue" stroke="midnightblue" points="404.628,-585.201 413.569,-579.516 403.034,-578.385 404.628,-585.201"/>
</g>
<!-- Node3 -->
<g id="node3" class="node"><title>Node3</title>
<polygon fill="white" stroke="#bfbfbf" points="179.5,-0.5 179.5,-19.5 228.5,-19.5 228.5,-0.5 179.5,-0.5"/>
<text text-anchor="middle" x="204" y="-7.5" font-family="Helvetica,sans-Serif" font-size="10.00">stdint.h</text>
</g>
<!-- Node2&#45;&gt;Node3 -->
<g id="edge2" class="edge"><title>Node2&#45;&gt;Node3</title>
<path fill="none" stroke="midnightblue" d="M204,-56.083C204,-49.0059 204,-38.8611 204,-29.9865"/>
<polygon fill="midnightblue" stroke="midnightblue" points="207.5,-29.751 204,-19.7511 200.5,-29.7511 207.5,-29.751"/>
</g>
<!-- Node4&#45;&gt;Node2 -->
<g id="edge29" class="edge"><title>Node4&#45;&gt;Node2</title>
<path fill="none" stroke="midnightblue" d="M493.833,-562.32C547.972,-551.296 633,-523.685 633,-459 633,-459 633,-459 633,-177 633,-97.2875 351.573,-74.5393 244.598,-68.7718"/>
<polygon fill="midnightblue" stroke="midnightblue" points="244.676,-65.2712 234.509,-68.2506 244.315,-72.2619 244.676,-65.2712"/>
</g>
<!-- Node5 -->
<g id="node5" class="node"><title>Node5</title>
<g id="a_node5"><a xlink:href="../../d7/d0c/_comparator_8h.html" target="_top" xlink:title="Comparator implementation for basic types. ">
<polygon fill="white" stroke="black" points="136,-504.5 136,-523.5 212,-523.5 212,-504.5 136,-504.5"/>
<text text-anchor="middle" x="174" y="-511.5" font-family="Helvetica,sans-Serif" font-size="10.00">Comparator.h</text>
</a>
</g>
</g>
<!-- Node4&#45;&gt;Node5 -->
<g id="edge4" class="edge"><title>Node4&#45;&gt;Node5</title>
<path fill="none" stroke="midnightblue" d="M406.267,-560.444C356.107,-550.63 274.118,-534.588 222.167,-524.424"/>
<polygon fill="midnightblue" stroke="midnightblue" points="222.681,-520.958 212.195,-522.473 221.337,-527.828 222.681,-520.958"/>
</g>
<!-- Node11 -->
<g id="node11" class="node"><title>Node11</title>
<g id="a_node11"><a xlink:href="../../d4/dda/_pair_8h.html" target="_top" xlink:title="Implementation of a 2&#45;element tuple. ">
<polygon fill="white" stroke="black" points="399,-224.5 399,-243.5 441,-243.5 441,-224.5 399,-224.5"/>
<text text-anchor="middle" x="420" y="-231.5" font-family="Helvetica,sans-Serif" font-size="10.00">Pair.h</text>
</a>
</g>
</g>
<!-- Node4&#45;&gt;Node11 -->
<g id="edge28" class="edge"><title>Node4&#45;&gt;Node11</title>
<path fill="none" stroke="midnightblue" d="M447.438,-560.249C442.251,-541.738 431,-497.179 431,-459 431,-459 431,-459 431,-345 431,-312.788 426.272,-275.532 423.015,-253.692"/>
<polygon fill="midnightblue" stroke="midnightblue" points="426.43,-252.874 421.438,-243.529 419.513,-253.947 426.43,-252.874"/>
</g>
<!-- Node12 -->
<g id="node12" class="node"><title>Node12</title>
<g id="a_node12"><a xlink:href="../../db/d2a/_utility_8h.html" target="_top" xlink:title="Various helper functions. ">
<polygon fill="white" stroke="black" points="379,-168.5 379,-187.5 465,-187.5 465,-168.5 379,-168.5"/>
<text text-anchor="middle" x="422" y="-175.5" font-family="Helvetica,sans-Serif" font-size="10.00">../utility/Utility.h</text>
</a>
</g>
</g>
<!-- Node4&#45;&gt;Node12 -->
<g id="edge35" class="edge"><title>Node4&#45;&gt;Node12</title>
<path fill="none" stroke="midnightblue" d="M452.562,-560.249C457.749,-541.738 469,-497.179 469,-459 469,-459 469,-459 469,-289 469,-253.702 448.282,-216.786 434.356,-195.96"/>
<polygon fill="midnightblue" stroke="midnightblue" points="437.117,-193.8 428.535,-187.587 431.37,-197.796 437.117,-193.8"/>
</g>
<!-- Node18 -->
<g id="node18" class="node"><title>Node18</title>
<g id="a_node18"><a xlink:href="../../d3/de6/_memory_8h.html" target="_top" xlink:title="Memory is a class that provides dynamic fixed size memory. ">
<polygon fill="white" stroke="black" points="497.5,-224.5 497.5,-243.5 604.5,-243.5 604.5,-224.5 497.5,-224.5"/>
<text text-anchor="middle" x="551" y="-231.5" font-family="Helvetica,sans-Serif" font-size="10.00">../memory/Memory.h</text>
</a>
</g>
</g>
<!-- Node4&#45;&gt;Node18 -->
<g id="edge30" class="edge"><title>Node4&#45;&gt;Node18</title>
<path fill="none" stroke="midnightblue" d="M462.344,-560.277C484.562,-543.446 529,-504.143 529,-459 529,-459 529,-459 529,-345 529,-312.328 538.447,-275.24 544.96,-253.553"/>
<polygon fill="midnightblue" stroke="midnightblue" points="548.391,-254.31 548.033,-243.721 541.709,-252.222 548.391,-254.31"/>
</g>
<!-- Node5&#45;&gt;Node2 -->
<g id="edge6" class="edge"><title>Node5&#45;&gt;Node2</title>
<path fill="none" stroke="midnightblue" d="M146.15,-504.478C106.362,-490.372 38,-458.117 38,-403 38,-403 38,-403 38,-177 38,-117.001 114.286,-87.7984 163.429,-75.2107"/>
<polygon fill="midnightblue" stroke="midnightblue" points="164.277,-78.6066 173.166,-72.841 162.622,-71.8051 164.277,-78.6066"/>
</g>
<!-- Node6 -->
<g id="node6" class="node"><title>Node6</title>
<polygon fill="white" stroke="#bfbfbf" points="115.5,-336.5 115.5,-355.5 164.5,-355.5 164.5,-336.5 115.5,-336.5"/>
<text text-anchor="middle" x="140" y="-343.5" font-family="Helvetica,sans-Serif" font-size="10.00">string.h</text>
</g>
<!-- Node5&#45;&gt;Node6 -->
<g id="edge5" class="edge"><title>Node5&#45;&gt;Node6</title>
<path fill="none" stroke="midnightblue" d="M148.839,-504.378C132.581,-497.343 112.707,-485.645 103,-468 84.0345,-433.526 109.722,-388.058 126.861,-363.857"/>
<polygon fill="midnightblue" stroke="midnightblue" points="129.769,-365.812 132.901,-355.691 124.14,-361.65 129.769,-365.812"/>
</g>
<!-- Node7 -->
<g id="node7" class="node"><title>Node7</title>
<g id="a_node7"><a xlink:href="../../d2/dc2/_equal_8h.html" target="_top" xlink:title="stl/Equal.h">
<polygon fill="white" stroke="black" points="112.5,-448.5 112.5,-467.5 175.5,-467.5 175.5,-448.5 112.5,-448.5"/>
<text text-anchor="middle" x="144" y="-455.5" font-family="Helvetica,sans-Serif" font-size="10.00">stl/Equal.h</text>
</a>
</g>
</g>
<!-- Node5&#45;&gt;Node7 -->
<g id="edge7" class="edge"><title>Node5&#45;&gt;Node7</title>
<path fill="none" stroke="midnightblue" d="M169.046,-504.083C164.896,-496.613 158.847,-485.724 153.733,-476.52"/>
<polygon fill="midnightblue" stroke="midnightblue" points="156.778,-474.793 148.862,-467.751 150.659,-478.192 156.778,-474.793"/>
</g>
<!-- Node8 -->
<g id="node8" class="node"><title>Node8</title>
<g id="a_node8"><a xlink:href="../../d8/d65/_static_string_8h.html" target="_top" xlink:title="StaticString provides a String that is on stack and is of fixed size. ">
<polygon fill="white" stroke="black" points="180.5,-392.5 180.5,-411.5 297.5,-411.5 297.5,-392.5 180.5,-392.5"/>
<text text-anchor="middle" x="239" y="-399.5" font-family="Helvetica,sans-Serif" font-size="10.00">../strings/StaticString.h</text>
</a>
</g>
</g>
<!-- Node5&#45;&gt;Node8 -->
<g id="edge27" class="edge"><title>Node5&#45;&gt;Node8</title>
<path fill="none" stroke="midnightblue" d="M179.1,-504.368C189.78,-486.296 214.668,-444.176 228.773,-420.307"/>
<polygon fill="midnightblue" stroke="midnightblue" points="231.849,-421.981 233.923,-411.591 225.823,-418.42 231.849,-421.981"/>
</g>
<!-- Node17 -->
<g id="node17" class="node"><title>Node17</title>
<g id="a_node17"><a xlink:href="../../db/db5/_string_8h.html" target="_top" xlink:title="strings/String.h">
<polygon fill="white" stroke="black" points="232.5,-448.5 232.5,-467.5 315.5,-467.5 315.5,-448.5 232.5,-448.5"/>
<text text-anchor="middle" x="274" y="-455.5" font-family="Helvetica,sans-Serif" font-size="10.00">strings/String.h</text>
</a>
</g>
</g>
<!-- Node5&#45;&gt;Node17 -->
<g id="edge25" class="edge"><title>Node5&#45;&gt;Node17</title>
<path fill="none" stroke="midnightblue" d="M190.067,-504.324C205.958,-495.743 230.507,-482.486 248.958,-472.522"/>
<polygon fill="midnightblue" stroke="midnightblue" points="250.837,-475.486 257.973,-467.655 247.511,-469.326 250.837,-475.486"/>
</g>
<!-- Node7&#45;&gt;Node2 -->
<g id="edge9" class="edge"><title>Node7&#45;&gt;Node2</title>
<path fill="none" stroke="midnightblue" d="M138.74,-448.365C124.629,-424.353 87,-354.38 87,-291 87,-291 87,-291 87,-177 87,-129.599 138.604,-96.6419 173.269,-79.85"/>
<polygon fill="midnightblue" stroke="midnightblue" points="174.945,-82.9307 182.54,-75.5439 171.997,-76.5821 174.945,-82.9307"/>
</g>
<!-- Node7&#45;&gt;Node6 -->
<g id="edge8" class="edge"><title>Node7&#45;&gt;Node6</title>
<path fill="none" stroke="midnightblue" d="M143.686,-448.368C143.041,-430.617 141.552,-389.666 140.676,-365.597"/>
<polygon fill="midnightblue" stroke="midnightblue" points="144.174,-365.458 140.312,-355.591 137.178,-365.712 144.174,-365.458"/>
</g>
<!-- Node7&#45;&gt;Node8 -->
<g id="edge10" class="edge"><title>Node7&#45;&gt;Node8</title>
<path fill="none" stroke="midnightblue" d="M159.263,-448.324C174.221,-439.822 197.255,-426.729 214.727,-416.797"/>
<polygon fill="midnightblue" stroke="midnightblue" points="216.81,-419.639 223.774,-411.655 213.351,-413.553 216.81,-419.639"/>
</g>
<!-- Node8&#45;&gt;Node2 -->
<g id="edge23" class="edge"><title>Node8&#45;&gt;Node2</title>
<path fill="none" stroke="midnightblue" d="M232.738,-392.473C226.602,-383.731 217.407,-369.538 212,-356 191.563,-304.83 185,-290.1 185,-235 185,-235 185,-235 185,-177 185,-144.489 193.159,-107.35 198.784,-85.6103"/>
<polygon fill="midnightblue" stroke="midnightblue" points="202.218,-86.3175 201.438,-75.7514 195.459,-84.498 202.218,-86.3175"/>
</g>
<!-- Node8&#45;&gt;Node6 -->
<g id="edge11" class="edge"><title>Node8&#45;&gt;Node6</title>
<path fill="none" stroke="midnightblue" d="M223.094,-392.324C207.362,-383.743 183.058,-370.486 164.791,-360.522"/>
<polygon fill="midnightblue" stroke="midnightblue" points="166.322,-357.37 155.867,-355.655 162.97,-363.516 166.322,-357.37"/>
</g>
<!-- Node9 -->
<g id="node9" class="node"><title>Node9</title>
<g id="a_node9"><a xlink:href="../../de/d0b/_string_iterator_8h.html" target="_top" xlink:title="StringIterator.h">
<polygon fill="white" stroke="black" points="221.5,-336.5 221.5,-355.5 302.5,-355.5 302.5,-336.5 221.5,-336.5"/>
<text text-anchor="middle" x="262" y="-343.5" font-family="Helvetica,sans-Serif" font-size="10.00">StringIterator.h</text>
</a>
</g>
</g>
<!-- Node8&#45;&gt;Node9 -->
<g id="edge12" class="edge"><title>Node8&#45;&gt;Node9</title>
<path fill="none" stroke="midnightblue" d="M242.798,-392.083C245.913,-384.77 250.423,-374.181 254.289,-365.103"/>
<polygon fill="midnightblue" stroke="midnightblue" points="257.574,-366.323 258.273,-355.751 251.134,-363.58 257.574,-366.323"/>
</g>
<!-- Node16 -->
<g id="node16" class="node"><title>Node16</title>
<g id="a_node16"><a xlink:href="../../da/db8/_math_8h.html" target="_top" xlink:title="../utility/Math.h">
<polygon fill="white" stroke="black" points="321,-336.5 321,-355.5 403,-355.5 403,-336.5 321,-336.5"/>
<text text-anchor="middle" x="362" y="-343.5" font-family="Helvetica,sans-Serif" font-size="10.00">../utility/Math.h</text>
</a>
</g>
</g>
<!-- Node8&#45;&gt;Node16 -->
<g id="edge24" class="edge"><title>Node8&#45;&gt;Node16</title>
<path fill="none" stroke="midnightblue" d="M258.49,-392.444C278.642,-383.596 310.323,-369.687 333.331,-359.586"/>
<polygon fill="midnightblue" stroke="midnightblue" points="334.852,-362.741 342.601,-355.516 332.038,-356.332 334.852,-362.741"/>
</g>
<!-- Node9&#45;&gt;Node2 -->
<g id="edge13" class="edge"><title>Node9&#45;&gt;Node2</title>
<path fill="none" stroke="midnightblue" d="M256.577,-336.25C245.861,-318.096 223,-274.713 223,-235 223,-235 223,-235 223,-177 223,-144.489 214.841,-107.35 209.216,-85.6103"/>
<polygon fill="midnightblue" stroke="midnightblue" points="212.541,-84.498 206.562,-75.7514 205.782,-86.3175 212.541,-84.498"/>
</g>
<!-- Node10 -->
<g id="node10" class="node"><title>Node10</title>
<g id="a_node10"><a xlink:href="../../d8/dd7/_concept_8h.html" target="_top" xlink:title="Concept definitions. ">
<polygon fill="white" stroke="black" points="257,-280.5 257,-299.5 341,-299.5 341,-280.5 257,-280.5"/>
<text text-anchor="middle" x="299" y="-287.5" font-family="Helvetica,sans-Serif" font-size="10.00">../stl/Concept.h</text>
</a>
</g>
</g>
<!-- Node9&#45;&gt;Node10 -->
<g id="edge14" class="edge"><title>Node9&#45;&gt;Node10</title>
<path fill="none" stroke="midnightblue" d="M268.11,-336.083C273.282,-328.534 280.846,-317.495 287.194,-308.23"/>
<polygon fill="midnightblue" stroke="midnightblue" points="290.239,-309.979 293.004,-299.751 284.464,-306.022 290.239,-309.979"/>
</g>
<!-- Node10&#45;&gt;Node11 -->
<g id="edge15" class="edge"><title>Node10&#45;&gt;Node11</title>
<path fill="none" stroke="midnightblue" d="M318.173,-280.444C337.909,-271.636 368.885,-257.812 391.493,-247.722"/>
<polygon fill="midnightblue" stroke="midnightblue" points="393.211,-250.788 400.917,-243.516 390.359,-244.396 393.211,-250.788"/>
</g>
<!-- Node13 -->
<g id="node13" class="node"><title>Node13</title>
<g id="a_node13"><a xlink:href="../../d2/d37/_tmp_8h.html" target="_top" xlink:title="Template helper types, structs, and metafunctions. ">
<polygon fill="white" stroke="black" points="303,-112.5 303,-131.5 347,-131.5 347,-112.5 303,-112.5"/>
<text text-anchor="middle" x="325" y="-119.5" font-family="Helvetica,sans-Serif" font-size="10.00">Tmp.h</text>
</a>
</g>
</g>
<!-- Node10&#45;&gt;Node13 -->
<g id="edge22" class="edge"><title>Node10&#45;&gt;Node13</title>
<path fill="none" stroke="midnightblue" d="M294.626,-280.417C284.895,-260.079 263.562,-207.684 280,-168 284.92,-156.121 294.667,-145.743 303.834,-137.956"/>
<polygon fill="midnightblue" stroke="midnightblue" points="306.253,-140.506 311.936,-131.564 301.917,-135.01 306.253,-140.506"/>
</g>
<!-- Node14 -->
<g id="node14" class="node"><title>Node14</title>
<g id="a_node14"><a xlink:href="../../d4/dd5/_type_traits_8h.html" target="_top" xlink:title="Metafunctions for types. ">
<polygon fill="white" stroke="black" points="289.5,-168.5 289.5,-187.5 360.5,-187.5 360.5,-168.5 289.5,-168.5"/>
<text text-anchor="middle" x="325" y="-175.5" font-family="Helvetica,sans-Serif" font-size="10.00">TypeTraits.h</text>
</a>
</g>
</g>
<!-- Node10&#45;&gt;Node14 -->
<g id="edge19" class="edge"><title>Node10&#45;&gt;Node14</title>
<path fill="none" stroke="midnightblue" d="M301.04,-280.368C305.236,-262.617 314.915,-221.666 320.604,-197.597"/>
<polygon fill="midnightblue" stroke="midnightblue" points="324.075,-198.128 322.969,-187.591 317.263,-196.518 324.075,-198.128"/>
</g>
<!-- Node15 -->
<g id="node15" class="node"><title>Node15</title>
<g id="a_node15"><a xlink:href="../../d2/db4/_wlib_8h.html" target="_top" xlink:title="../Wlib.h">
<polygon fill="white" stroke="black" points="327.5,-224.5 327.5,-243.5 380.5,-243.5 380.5,-224.5 327.5,-224.5"/>
<text text-anchor="middle" x="354" y="-231.5" font-family="Helvetica,sans-Serif" font-size="10.00">../Wlib.h</text>
</a>
</g>
</g>
<!-- Node10&#45;&gt;Node15 -->
<g id="edge21" class="edge"><title>Node10&#45;&gt;Node15</title>
<path fill="none" stroke="midnightblue" d="M308.082,-280.083C316.171,-272.141 328.195,-260.335 337.91,-250.797"/>
<polygon fill="midnightblue" stroke="midnightblue" points="340.403,-253.254 345.087,-243.751 335.499,-248.26 340.403,-253.254"/>
</g>
<!-- Node11&#45;&gt;Node12 -->
<g id="edge16" class="edge"><title>Node11&#45;&gt;Node12</title>
<path fill="none" stroke="midnightblue" d="M420.33,-224.083C420.592,-217.006 420.968,-206.861 421.297,-197.986"/>
<polygon fill="midnightblue" stroke="midnightblue" points="424.803,-197.874 421.676,-187.751 417.808,-197.615 424.803,-197.874"/>
</g>
<!-- Node12&#45;&gt;Node13 -->
<g id="edge17" class="edge"><title>Node12&#45;&gt;Node13</title>
<path fill="none" stroke="midnightblue" d="M406.415,-168.324C391.001,-159.743 367.188,-146.486 349.29,-136.522"/>
<polygon fill="midnightblue" stroke="midnightblue" points="350.986,-133.461 340.546,-131.655 347.581,-139.577 350.986,-133.461"/>
</g>
<!-- Node13&#45;&gt;Node2 -->
<g id="edge18" class="edge"><title>Node13&#45;&gt;Node2</title>
<path fill="none" stroke="midnightblue" d="M305.827,-112.444C286.091,-103.636 255.115,-89.8116 232.507,-79.722"/>
<polygon fill="midnightblue" stroke="midnightblue" points="233.641,-76.3957 223.083,-75.5164 230.789,-82.788 233.641,-76.3957"/>
</g>
<!-- Node14&#45;&gt;Node13 -->
<g id="edge20" class="edge"><title>Node14&#45;&gt;Node13</title>
<path fill="none" stroke="midnightblue" d="M325,-168.083C325,-161.006 325,-150.861 325,-141.986"/>
<polygon fill="midnightblue" stroke="midnightblue" points="328.5,-141.751 325,-131.751 321.5,-141.751 328.5,-141.751"/>
</g>
<!-- Node17&#45;&gt;Node8 -->
<g id="edge26" class="edge"><title>Node17&#45;&gt;Node8</title>
<path fill="none" stroke="midnightblue" d="M268.22,-448.083C263.328,-440.534 256.173,-429.495 250.167,-420.23"/>
<polygon fill="midnightblue" stroke="midnightblue" points="253.048,-418.239 244.672,-411.751 247.174,-422.046 253.048,-418.239"/>
</g>
<!-- Node18&#45;&gt;Node2 -->
<g id="edge32" class="edge"><title>Node18&#45;&gt;Node2</title>
<path fill="none" stroke="midnightblue" d="M553.468,-224.347C556.771,-210.775 560.837,-184.348 548,-168 510.169,-119.821 327.151,-86.0214 244.572,-72.971"/>
<polygon fill="midnightblue" stroke="midnightblue" points="244.966,-69.4903 234.546,-71.4109 243.889,-76.407 244.966,-69.4903"/>
</g>
<!-- Node18&#45;&gt;Node12 -->
<g id="edge31" class="edge"><title>Node18&#45;&gt;Node12</title>
<path fill="none" stroke="midnightblue" d="M530.56,-224.444C509.33,-215.557 475.901,-201.563 451.745,-191.451"/>
<polygon fill="midnightblue" stroke="midnightblue" points="452.921,-188.149 442.345,-187.516 450.218,-194.606 452.921,-188.149"/>
</g>
<!-- Node18&#45;&gt;Node13 -->
<g id="edge33" class="edge"><title>Node18&#45;&gt;Node13</title>
<path fill="none" stroke="midnightblue" d="M550.377,-224.38C548.884,-210.364 543.849,-182.722 527,-168 501.994,-146.15 407.779,-132.392 357.341,-126.432"/>
<polygon fill="midnightblue" stroke="midnightblue" points="357.617,-122.941 347.283,-125.279 356.819,-129.896 357.617,-122.941"/>
</g>
<!-- Node19 -->
<g id="node19" class="node"><title>Node19</title>
<polygon fill="white" stroke="#bfbfbf" points="483.5,-168.5 483.5,-187.5 518.5,-187.5 518.5,-168.5 483.5,-168.5"/>
<text text-anchor="middle" x="501" y="-175.5" font-family="Helvetica,sans-Serif" font-size="10.00">new</text>
</g>
<!-- Node18&#45;&gt;Node19 -->
<g id="edge34" class="edge"><title>Node18&#45;&gt;Node19</title>
<path fill="none" stroke="midnightblue" d="M542.744,-224.083C535.535,-216.298 524.89,-204.801 516.154,-195.367"/>
<polygon fill="midnightblue" stroke="midnightblue" points="518.465,-192.711 509.103,-187.751 513.329,-197.467 518.465,-192.711"/>
</g>
</g>
</svg>
        <g id="navigator" transform="translate(0 0)" fill="#404254">
                <rect fill="#f2f5e9" fill-opacity="0.5" stroke="#606060" stroke-width=".5" x="0" y="0" width="60" height="60"/>
                <use id="zoomplus" xlink:href="#zoomPlus" x="17" y="9" onmousedown="handleZoom(evt,'in')"/>
                <use id="zoomminus" xlink:href="#zoomMin" x="42" y="9" onmousedown="handleZoom(evt,'out')"/>
                <use id="reset" xlink:href="#resetDef" x="30" y="36" onmousedown="handleReset()"/>
                <g id="arrowUp" xlink:href="#dirArrow" transform="translate(30 24)" onmousedown="handlePan(0,-1)">
                  <use xlink:href="#rim" fill="#404040">
                        <set attributeName="fill" to="#808080" begin="arrowUp.mouseover" end="arrowUp.mouseout"/>
                  </use>
                  <path fill="none" stroke="white" stroke-width="1.5" d="M0,-3.0v7 M-2.5,-0.5L0,-3.0L2.5,-0.5"/>
                </g>
                <g id="arrowRight" xlink:href="#dirArrow" transform="rotate(90) translate(36 -43)" onmousedown="handlePan(1,0)">
                  <use xlink:href="#rim" fill="#404040">
                        <set attributeName="fill" to="#808080" begin="arrowRight.mouseover" end="arrowRight.mouseout"/>
                  </use>
                  <path fill="none" stroke="white" stroke-width="1.5" d="M0,-3.0v7 M-2.5,-0.5L0,-3.0L2.5,-0.5"/>
                </g>
                <g id="arrowDown" xlink:href="#dirArrow" transform="rotate(180) translate(-30 -48)" onmousedown="handlePan(0,1)">
                  <use xlink:href="#rim" fill="#404040">
                        <set attributeName="fill" to="#808080" begin="arrowDown.mouseover" end="arrowDown.mouseout"/>
                  </use>
                  <path fill="none" stroke="white" stroke-width="1.5" d="M0,-3.0v7 M-2.5,-0.5L0,-3.0L2.5,-0.5"/>
                </g>
                <g id="arrowLeft" xlink:href="#dirArrow" transform="rotate(270) translate(-36 17)" onmousedown="handlePan(-1,0)">
                  <use xlink:href="#rim" fill="#404040">
                        <set attributeName="fill" to="#808080" begin="arrowLeft.mouseover" end="arrowLeft.mouseout"/>
                  </use>
                  <path fill="none" stroke="white" stroke-width="1.5" d="M0,-3.0v7 M-2.5,-0.5L0,-3.0L2.5,-0.5"/>
                </g>
        </g>
        <svg viewBox="0 0 15 15" width="100%" height="30px" preserveAspectRatio="xMaxYMin meet">
         <g id="arrow_out" transform="scale(0.3 0.3)">
          <a xlink:href="_tree_map_8h__incl_org.svg" target="_base">
           <rect id="button" ry="5" rx="5" y="6" x="6" height="38" width="38"
                fill="#f2f5e9" fill-opacity="0.5" stroke="#606060" stroke-width="1.0"/>
           <path id="arrow"
             d="M 11.500037,31.436501 C 11.940474,20.09759 22.043105,11.32322 32.158766,21.979434 L 37.068811,17.246167 C 37.068811,17.246167 37.088388,32 37.088388,32 L 22.160133,31.978069 C 22.160133,31.978069 26.997745,27.140456 26.997745,27.140456 C 18.528582,18.264221 13.291696,25.230495 11.500037,31.436501 z"
             style="fill:#404040;"/>
          </a>
         </g>
        </svg>
</svg>
