<?xml version="1.0" encoding="UTF-8" standalone="no"?>
<!DOCTYPE svg PUBLIC "-//W3C//DTD SVG 1.1//EN"
 "http://www.w3.org/Graphics/SVG/1.1/DTD/svg11.dtd">
<!-- Generated by graphviz version 2.36.0 (20140111.2315)
 -->
<!-- Title: stl/TreeMap.h Pages: 1 -->
<!--zoomable 644 -->
<svg id="main" version="1.1" xmlns="http://www.w3.org/2000/svg" xmlns:xlink="http://www.w3.org/1999/xlink" xml:space="preserve" onload="init(evt)">
<style type="text/css"><![CDATA[
.edge:hover path { stroke: red; }
.edge:hover polygon { stroke: red; fill: red; }
]]></style>
<script type="text/javascript"><![CDATA[
var edges = document.getElementsByTagName('g');
if (edges && edges.length) {
  for (var i=0;i<edges.length;i++) {
    if (edges[i].id.substr(0,4)=='edge') {
      edges[i].setAttribute('class','edge');
    }
  }
}
]]></script>
        <defs>
                <circle id="rim" cx="0" cy="0" r="7"/>
                <circle id="rim2" cx="0" cy="0" r="3.5"/>
                <g id="zoomPlus">
                        <use xlink:href="#rim" fill="#404040">
                                <set attributeName="fill" to="#808080" begin="zoomplus.mouseover" end="zoomplus.mouseout"/>
                        </use>
                        <path d="M-4,0h8M0,-4v8" fill="none" stroke="white" stroke-width="1.5" pointer-events="none"/>
                </g>
                <g id="zoomMin">
                        <use xlink:href="#rim" fill="#404040">
                                <set attributeName="fill" to="#808080" begin="zoomminus.mouseover" end="zoomminus.mouseout"/>
                        </use>
                        <path d="M-4,0h8" fill="none" stroke="white" stroke-width="1.5" pointer-events="none"/>
                </g>
                <g id="dirArrow">
                        <path fill="none" stroke="white" stroke-width="1.5" d="M0,-3.0v7 M-2.5,-0.5L0,-3.0L2.5,-0.5"/>
                </g>
               <g id="resetDef">
                       <use xlink:href="#rim2" fill="#404040">
                               <set attributeName="fill" to="#808080" begin="reset.mouseover" end="reset.mouseout"/>
                       </use>
               </g>
        </defs>

<script type="text/javascript">
var viewWidth = 676;
var viewHeight = 644;
var sectionId = 'dynsection-0';
</script>
<script xlink:href="../../svgpan.js"/>
<svg id="graph" class="graph">
<g id="viewport">
<title>stl/TreeMap.h</title>
<polygon fill="white" stroke="none" points="-4,4 -4,-640 672,-640 672,4 -4,4"/>
<!-- Node1 -->
<g id="node1" class="node"><title>Node1</title>
<polygon fill="#bfbfbf" stroke="black" points="44.5,-616.5 44.5,-635.5 121.5,-635.5 121.5,-616.5 44.5,-616.5"/>
<text text-anchor="middle" x="83" y="-623.5" font-family="Helvetica,sans-Serif" font-size="10.00">stl/TreeMap.h</text>
</g>
<!-- Node2 -->
<g id="node2" class="node"><title>Node2</title>
<g id="a_node2"><a xlink:href="../../d0/db6/_types_8h.html" target="_top" xlink:title="type definition of all the string types we will be using ">
<polygon fill="white" stroke="black" points="406.5,-56.5 406.5,-75.5 467.5,-75.5 467.5,-56.5 406.5,-56.5"/>
<text text-anchor="middle" x="437" y="-63.5" font-family="Helvetica,sans-Serif" font-size="10.00">../Types.h</text>
</a>
</g>
</g>
<!-- Node1&#45;&gt;Node2 -->
<g id="edge1" class="edge"><title>Node1&#45;&gt;Node2</title>
<path fill="none" stroke="midnightblue" d="M70.0312,-616.425C46.6875,-599.842 0,-560.934 0,-515 0,-515 0,-515 0,-177 0,-132.553 35.3401,-129.952 76,-112 132.597,-87.0115 313.991,-73.9149 396.026,-69.1436"/>
<polygon fill="midnightblue" stroke="midnightblue" points="396.436,-72.626 406.222,-68.5639 396.039,-65.6373 396.436,-72.626"/>
</g>
<!-- Node4 -->
<g id="node4" class="node"><title>Node4</title>
<g id="a_node4"><a xlink:href="../../d5/d08/_red_black_tree_8h.html" target="_top" xlink:title="Red black tree implementation. ">
<polygon fill="white" stroke="black" points="122.5,-560.5 122.5,-579.5 209.5,-579.5 209.5,-560.5 122.5,-560.5"/>
<text text-anchor="middle" x="166" y="-567.5" font-family="Helvetica,sans-Serif" font-size="10.00">RedBlackTree.h</text>
</a>
</g>
</g>
<!-- Node1&#45;&gt;Node4 -->
<g id="edge3" class="edge"><title>Node1&#45;&gt;Node4</title>
<path fill="none" stroke="midnightblue" d="M96.3354,-616.324C109.162,-607.979 128.785,-595.212 143.94,-585.352"/>
<polygon fill="midnightblue" stroke="midnightblue" points="146.224,-588.042 152.698,-579.655 142.407,-582.174 146.224,-588.042"/>
</g>
<!-- Node3 -->
<g id="node3" class="node"><title>Node3</title>
<polygon fill="white" stroke="#bfbfbf" points="412.5,-0.5 412.5,-19.5 461.5,-19.5 461.5,-0.5 412.5,-0.5"/>
<text text-anchor="middle" x="437" y="-7.5" font-family="Helvetica,sans-Serif" font-size="10.00">stdint.h</text>
</g>
<!-- Node2&#45;&gt;Node3 -->
<g id="edge2" class="edge"><title>Node2&#45;&gt;Node3</title>
<path fill="none" stroke="midnightblue" d="M437,-56.083C437,-49.0059 437,-38.8611 437,-29.9865"/>
<polygon fill="midnightblue" stroke="midnightblue" points="440.5,-29.751 437,-19.7511 433.5,-29.7511 440.5,-29.751"/>
</g>
<!-- Node4&#45;&gt;Node2 -->
<g id="edge34" class="edge"><title>Node4&#45;&gt;Node2</title>
<path fill="none" stroke="midnightblue" d="M209.671,-568.681C331.805,-566.62 668,-552.459 668,-459 668,-459 668,-459 668,-177 668,-93.7274 544.121,-73.4269 477.798,-68.5256"/>
<polygon fill="midnightblue" stroke="midnightblue" points="477.882,-65.0238 467.675,-67.8639 477.425,-72.0088 477.882,-65.0238"/>
</g>
<!-- Node5 -->
<g id="node5" class="node"><title>Node5</title>
<g id="a_node5"><a xlink:href="../../d7/d0c/_comparator_8h.html" target="_top" xlink:title="Comparator implementation for basic types. ">
<polygon fill="white" stroke="black" points="300,-504.5 300,-523.5 376,-523.5 376,-504.5 300,-504.5"/>
<text text-anchor="middle" x="338" y="-511.5" font-family="Helvetica,sans-Serif" font-size="10.00">Comparator.h</text>
</a>
</g>
</g>
<!-- Node4&#45;&gt;Node5 -->
<g id="edge4" class="edge"><title>Node4&#45;&gt;Node5</title>
<path fill="none" stroke="midnightblue" d="M193.254,-560.444C222.441,-551.28 268.921,-536.688 301.309,-526.519"/>
<polygon fill="midnightblue" stroke="midnightblue" points="302.381,-529.851 310.874,-523.516 300.284,-523.173 302.381,-529.851"/>
</g>
<!-- Node11 -->
<g id="node11" class="node"><title>Node11</title>
<g id="a_node11"><a xlink:href="../../d4/dda/_pair_8h.html" target="_top" xlink:title="Implementation of a 2&#45;element tuple. ">
<polygon fill="white" stroke="black" points="282,-224.5 282,-243.5 324,-243.5 324,-224.5 282,-224.5"/>
<text text-anchor="middle" x="303" y="-231.5" font-family="Helvetica,sans-Serif" font-size="10.00">Pair.h</text>
</a>
</g>
</g>
<!-- Node4&#45;&gt;Node11 -->
<g id="edge33" class="edge"><title>Node4&#45;&gt;Node11</title>
<path fill="none" stroke="midnightblue" d="M169.524,-560.408C187.62,-516.292 270.224,-314.906 295.578,-253.095"/>
<polygon fill="midnightblue" stroke="midnightblue" points="298.942,-254.115 299.499,-243.535 292.466,-251.459 298.942,-254.115"/>
</g>
<!-- Node12 -->
<g id="node12" class="node"><title>Node12</title>
<g id="a_node12"><a xlink:href="../../db/d2a/_utility_8h.html" target="_top" xlink:title="Various helper functions. ">
<polygon fill="white" stroke="black" points="140,-168.5 140,-187.5 226,-187.5 226,-168.5 140,-168.5"/>
<text text-anchor="middle" x="183" y="-175.5" font-family="Helvetica,sans-Serif" font-size="10.00">../utility/Utility.h</text>
</a>
</g>
</g>
<!-- Node4&#45;&gt;Node12 -->
<g id="edge36" class="edge"><title>Node4&#45;&gt;Node12</title>
<path fill="none" stroke="midnightblue" d="M151.54,-560.442C126.099,-544.165 76,-506.129 76,-459 76,-459 76,-459 76,-345 76,-280.751 133.328,-221.62 164.059,-194.537"/>
<polygon fill="midnightblue" stroke="midnightblue" points="166.638,-196.936 171.952,-187.771 162.082,-191.622 166.638,-196.936"/>
</g>
<!-- Node17 -->
<g id="node17" class="node"><title>Node17</title>
<g id="a_node17"><a xlink:href="../../d3/de6/_memory_8h.html" target="_top" xlink:title="Memory is a class that provides dynamic fixed size memory. ">
<polygon fill="white" stroke="black" points="104.5,-336.5 104.5,-355.5 211.5,-355.5 211.5,-336.5 104.5,-336.5"/>
<text text-anchor="middle" x="158" y="-343.5" font-family="Helvetica,sans-Serif" font-size="10.00">../memory/Memory.h</text>
</a>
</g>
</g>
<!-- Node4&#45;&gt;Node17 -->
<g id="edge35" class="edge"><title>Node4&#45;&gt;Node17</title>
<path fill="none" stroke="midnightblue" d="M165.686,-560.297C164.509,-527.633 160.338,-411.866 158.683,-365.957"/>
<polygon fill="midnightblue" stroke="midnightblue" points="162.178,-365.751 158.32,-355.884 155.183,-366.003 162.178,-365.751"/>
</g>
<!-- Node5&#45;&gt;Node2 -->
<g id="edge6" class="edge"><title>Node5&#45;&gt;Node2</title>
<path fill="none" stroke="midnightblue" d="M376.174,-506.878C455.324,-493.104 630,-456.631 630,-403 630,-403 630,-403 630,-177 630,-107.472 534.287,-81.318 477.667,-71.9293"/>
<polygon fill="midnightblue" stroke="midnightblue" points="478,-68.4391 467.581,-70.3646 476.927,-75.3564 478,-68.4391"/>
</g>
<!-- Node6 -->
<g id="node6" class="node"><title>Node6</title>
<polygon fill="white" stroke="#bfbfbf" points="320.5,-280.5 320.5,-299.5 369.5,-299.5 369.5,-280.5 320.5,-280.5"/>
<text text-anchor="middle" x="345" y="-287.5" font-family="Helvetica,sans-Serif" font-size="10.00">string.h</text>
</g>
<!-- Node5&#45;&gt;Node6 -->
<g id="edge5" class="edge"><title>Node5&#45;&gt;Node6</title>
<path fill="none" stroke="midnightblue" d="M337.356,-504.486C335.954,-484.72 332.917,-434.186 335,-392 336.423,-363.178 340.118,-329.898 342.596,-309.66"/>
<polygon fill="midnightblue" stroke="midnightblue" points="346.082,-309.984 343.856,-299.625 339.137,-309.111 346.082,-309.984"/>
</g>
<!-- Node7 -->
<g id="node7" class="node"><title>Node7</title>
<g id="a_node7"><a xlink:href="../../d2/dc2/_equal_8h.html" target="_top" xlink:title="stl/Equal.h">
<polygon fill="white" stroke="black" points="246.5,-448.5 246.5,-467.5 309.5,-467.5 309.5,-448.5 246.5,-448.5"/>
<text text-anchor="middle" x="278" y="-455.5" font-family="Helvetica,sans-Serif" font-size="10.00">stl/Equal.h</text>
</a>
</g>
</g>
<!-- Node5&#45;&gt;Node7 -->
<g id="edge7" class="edge"><title>Node5&#45;&gt;Node7</title>
<path fill="none" stroke="midnightblue" d="M328.36,-504.324C319.49,-496.341 306.125,-484.313 295.392,-474.653"/>
<polygon fill="midnightblue" stroke="midnightblue" points="297.59,-471.922 287.815,-467.834 292.907,-477.125 297.59,-471.922"/>
</g>
<!-- Node8 -->
<g id="node8" class="node"><title>Node8</title>
<g id="a_node8"><a xlink:href="../../db/db5/_string_8h.html" target="_top" xlink:title="../strings/String.h">
<polygon fill="white" stroke="black" points="344,-392.5 344,-411.5 436,-411.5 436,-392.5 344,-392.5"/>
<text text-anchor="middle" x="390" y="-399.5" font-family="Helvetica,sans-Serif" font-size="10.00">../strings/String.h</text>
</a>
</g>
</g>
<!-- Node5&#45;&gt;Node8 -->
<g id="edge32" class="edge"><title>Node5&#45;&gt;Node8</title>
<path fill="none" stroke="midnightblue" d="M342.08,-504.368C350.548,-486.456 370.182,-444.923 381.515,-420.948"/>
<polygon fill="midnightblue" stroke="midnightblue" points="384.829,-422.128 385.939,-411.591 378.5,-419.136 384.829,-422.128"/>
</g>
<!-- Node7&#45;&gt;Node2 -->
<g id="edge9" class="edge"><title>Node7&#45;&gt;Node2</title>
<path fill="none" stroke="midnightblue" d="M246.13,-450.631C180.845,-435.531 38,-391.058 38,-291 38,-291 38,-291 38,-177 38,-103.263 294.45,-77.0564 396.155,-69.5623"/>
<polygon fill="midnightblue" stroke="midnightblue" points="396.628,-73.0377 406.354,-68.8357 396.13,-66.0554 396.628,-73.0377"/>
</g>
<!-- Node7&#45;&gt;Node6 -->
<g id="edge8" class="edge"><title>Node7&#45;&gt;Node6</title>
<path fill="none" stroke="midnightblue" d="M278.09,-448.244C278.642,-427.532 282.052,-374.387 302,-336 307.815,-324.81 317.264,-314.47 325.826,-306.532"/>
<polygon fill="midnightblue" stroke="midnightblue" points="328.401,-308.929 333.615,-299.706 323.787,-303.664 328.401,-308.929"/>
</g>
<!-- Node7&#45;&gt;Node8 -->
<g id="edge10" class="edge"><title>Node7&#45;&gt;Node8</title>
<path fill="none" stroke="midnightblue" d="M295.995,-448.324C314.038,-439.625 342.047,-426.12 362.803,-416.113"/>
<polygon fill="midnightblue" stroke="midnightblue" points="364.562,-419.15 372.05,-411.655 361.522,-412.845 364.562,-419.15"/>
</g>
<!-- Node8&#45;&gt;Node2 -->
<g id="edge23" class="edge"><title>Node8&#45;&gt;Node2</title>
<path fill="none" stroke="midnightblue" d="M436.107,-394.846C483.367,-387.647 552.605,-374.336 572,-356 593.964,-335.235 592,-321.225 592,-291 592,-291 592,-291 592,-177 592,-120.742 523.253,-90.6296 477.328,-76.7895"/>
<polygon fill="midnightblue" stroke="midnightblue" points="478.201,-73.3988 467.623,-74.0019 476.268,-80.1267 478.201,-73.3988"/>
</g>
<!-- Node8&#45;&gt;Node6 -->
<g id="edge11" class="edge"><title>Node8&#45;&gt;Node6</title>
<path fill="none" stroke="midnightblue" d="M386.469,-392.368C379.141,-374.456 362.15,-332.923 352.342,-308.948"/>
<polygon fill="midnightblue" stroke="midnightblue" points="355.54,-307.522 348.515,-299.591 349.062,-310.172 355.54,-307.522"/>
</g>
<!-- Node9 -->
<g id="node9" class="node"><title>Node9</title>
<g id="a_node9"><a xlink:href="../../de/d0b/_string_iterator_8h.html" target="_top" xlink:title="StringIterator.h">
<polygon fill="white" stroke="black" points="482.5,-336.5 482.5,-355.5 563.5,-355.5 563.5,-336.5 482.5,-336.5"/>
<text text-anchor="middle" x="523" y="-343.5" font-family="Helvetica,sans-Serif" font-size="10.00">StringIterator.h</text>
</a>
</g>
</g>
<!-- Node8&#45;&gt;Node9 -->
<g id="edge12" class="edge"><title>Node8&#45;&gt;Node9</title>
<path fill="none" stroke="midnightblue" d="M411.074,-392.444C433.06,-383.517 467.734,-369.439 492.664,-359.317"/>
<polygon fill="midnightblue" stroke="midnightblue" points="494.076,-362.521 502.024,-355.516 491.442,-356.035 494.076,-362.521"/>
</g>
<!-- Node16 -->
<g id="node16" class="node"><title>Node16</title>
<g id="a_node16"><a xlink:href="../../da/db8/_math_8h.html" target="_top" xlink:title="../utility/Math.h">
<polygon fill="white" stroke="black" points="382,-336.5 382,-355.5 464,-355.5 464,-336.5 382,-336.5"/>
<text text-anchor="middle" x="423" y="-343.5" font-family="Helvetica,sans-Serif" font-size="10.00">../utility/Math.h</text>
</a>
</g>
</g>
<!-- Node8&#45;&gt;Node16 -->
<g id="edge24" class="edge"><title>Node8&#45;&gt;Node16</title>
<path fill="none" stroke="midnightblue" d="M395.449,-392.083C400.014,-384.613 406.668,-373.724 412.293,-364.52"/>
<polygon fill="midnightblue" stroke="midnightblue" points="415.424,-366.109 417.652,-355.751 409.451,-362.459 415.424,-366.109"/>
</g>
<!-- Node8&#45;&gt;Node17 -->
<g id="edge25" class="edge"><title>Node8&#45;&gt;Node17</title>
<path fill="none" stroke="midnightblue" d="M353.239,-392.444C312.937,-383.063 248.191,-367.993 204.415,-357.804"/>
<polygon fill="midnightblue" stroke="midnightblue" points="205.122,-354.375 194.589,-355.516 203.535,-361.192 205.122,-354.375"/>
</g>
<!-- Node9&#45;&gt;Node2 -->
<g id="edge13" class="edge"><title>Node9&#45;&gt;Node2</title>
<path fill="none" stroke="midnightblue" d="M523,-336.442C523,-317.936 523,-272.812 523,-235 523,-235 523,-235 523,-177 523,-135.583 484.693,-100.453 459.212,-81.6658"/>
<polygon fill="midnightblue" stroke="midnightblue" points="461,-78.6436 450.817,-75.7187 456.954,-84.3555 461,-78.6436"/>
</g>
<!-- Node10 -->
<g id="node10" class="node"><title>Node10</title>
<g id="a_node10"><a xlink:href="../../d8/dd7/_concept_8h.html" target="_top" xlink:title="Concept definitions. ">
<polygon fill="white" stroke="black" points="387,-280.5 387,-299.5 471,-299.5 471,-280.5 387,-280.5"/>
<text text-anchor="middle" x="429" y="-287.5" font-family="Helvetica,sans-Serif" font-size="10.00">../stl/Concept.h</text>
</a>
</g>
</g>
<!-- Node9&#45;&gt;Node10 -->
<g id="edge14" class="edge"><title>Node9&#45;&gt;Node10</title>
<path fill="none" stroke="midnightblue" d="M507.897,-336.324C493.097,-327.822 470.306,-314.729 453.018,-304.797"/>
<polygon fill="midnightblue" stroke="midnightblue" points="454.48,-301.601 444.065,-299.655 450.993,-307.671 454.48,-301.601"/>
</g>
<!-- Node10&#45;&gt;Node11 -->
<g id="edge15" class="edge"><title>Node10&#45;&gt;Node11</title>
<path fill="none" stroke="midnightblue" d="M409.035,-280.444C388.391,-271.596 355.937,-257.687 332.368,-247.586"/>
<polygon fill="midnightblue" stroke="midnightblue" points="333.442,-244.239 322.872,-243.516 330.684,-250.673 333.442,-244.239"/>
</g>
<!-- Node13 -->
<g id="node13" class="node"><title>Node13</title>
<g id="a_node13"><a xlink:href="../../d2/d37/_tmp_8h.html" target="_top" xlink:title="Template helper types, structs, and metafunctions. ">
<polygon fill="white" stroke="black" points="330,-112.5 330,-131.5 374,-131.5 374,-112.5 330,-112.5"/>
<text text-anchor="middle" x="352" y="-119.5" font-family="Helvetica,sans-Serif" font-size="10.00">Tmp.h</text>
</a>
</g>
</g>
<!-- Node10&#45;&gt;Node13 -->
<g id="edge22" class="edge"><title>Node10&#45;&gt;Node13</title>
<path fill="none" stroke="midnightblue" d="M423.148,-280.447C411.757,-263.482 386.378,-224.087 371,-188 364.519,-172.79 359.425,-154.677 356.15,-141.439"/>
<polygon fill="midnightblue" stroke="midnightblue" points="359.54,-140.566 353.836,-131.637 352.727,-142.174 359.54,-140.566"/>
</g>
<!-- Node14 -->
<g id="node14" class="node"><title>Node14</title>
<g id="a_node14"><a xlink:href="../../d4/dd5/_type_traits_8h.html" target="_top" xlink:title="Metafunctions for types. ">
<polygon fill="white" stroke="black" points="380.5,-168.5 380.5,-187.5 451.5,-187.5 451.5,-168.5 380.5,-168.5"/>
<text text-anchor="middle" x="416" y="-175.5" font-family="Helvetica,sans-Serif" font-size="10.00">TypeTraits.h</text>
</a>
</g>
</g>
<!-- Node10&#45;&gt;Node14 -->
<g id="edge19" class="edge"><title>Node10&#45;&gt;Node14</title>
<path fill="none" stroke="midnightblue" d="M427.98,-280.368C425.882,-262.617 421.042,-221.666 418.198,-197.597"/>
<polygon fill="midnightblue" stroke="midnightblue" points="421.665,-197.112 417.015,-187.591 414.713,-197.933 421.665,-197.112"/>
</g>
<!-- Node15 -->
<g id="node15" class="node"><title>Node15</title>
<g id="a_node15"><a xlink:href="../../d2/db4/_wlib_8h.html" target="_top" xlink:title="../Wlib.h">
<polygon fill="white" stroke="black" points="441.5,-224.5 441.5,-243.5 494.5,-243.5 494.5,-224.5 441.5,-224.5"/>
<text text-anchor="middle" x="468" y="-231.5" font-family="Helvetica,sans-Serif" font-size="10.00">../Wlib.h</text>
</a>
</g>
</g>
<!-- Node10&#45;&gt;Node15 -->
<g id="edge21" class="edge"><title>Node10&#45;&gt;Node15</title>
<path fill="none" stroke="midnightblue" d="M435.44,-280.083C440.949,-272.455 449.031,-261.264 455.765,-251.941"/>
<polygon fill="midnightblue" stroke="midnightblue" points="458.662,-253.907 461.68,-243.751 452.987,-249.809 458.662,-253.907"/>
</g>
<!-- Node11&#45;&gt;Node12 -->
<g id="edge16" class="edge"><title>Node11&#45;&gt;Node12</title>
<path fill="none" stroke="midnightblue" d="M283.986,-224.444C264.412,-215.636 233.692,-201.812 211.271,-191.722"/>
<polygon fill="midnightblue" stroke="midnightblue" points="212.481,-188.428 201.925,-187.516 209.608,-194.812 212.481,-188.428"/>
</g>
<!-- Node12&#45;&gt;Node13 -->
<g id="edge17" class="edge"><title>Node12&#45;&gt;Node13</title>
<path fill="none" stroke="midnightblue" d="M209.779,-168.444C239.761,-158.863 288.315,-143.349 320.202,-133.16"/>
<polygon fill="midnightblue" stroke="midnightblue" points="321.464,-136.431 329.924,-130.054 319.334,-129.764 321.464,-136.431"/>
</g>
<!-- Node13&#45;&gt;Node2 -->
<g id="edge18" class="edge"><title>Node13&#45;&gt;Node2</title>
<path fill="none" stroke="midnightblue" d="M365.657,-112.324C378.916,-103.9 399.268,-90.9709 414.846,-81.0741"/>
<polygon fill="midnightblue" stroke="midnightblue" points="416.813,-83.9711 423.377,-75.6545 413.06,-78.0626 416.813,-83.9711"/>
</g>
<!-- Node14&#45;&gt;Node13 -->
<g id="edge20" class="edge"><title>Node14&#45;&gt;Node13</title>
<path fill="none" stroke="midnightblue" d="M405.717,-168.324C396.164,-160.263 381.72,-148.077 370.216,-138.369"/>
<polygon fill="midnightblue" stroke="midnightblue" points="372.37,-135.608 362.47,-131.834 367.856,-140.958 372.37,-135.608"/>
</g>
<!-- Node17&#45;&gt;Node2 -->
<g id="edge28" class="edge"><title>Node17&#45;&gt;Node2</title>
<path fill="none" stroke="midnightblue" d="M151.425,-336.261C145.328,-327.582 136.664,-313.637 133,-300 117.776,-243.336 96.623,-215.548 131,-168 192.293,-83.2236 327.313,-68.4078 395.648,-66.5802"/>
<polygon fill="midnightblue" stroke="midnightblue" points="396.087,-70.0728 406.021,-66.3897 395.958,-63.074 396.087,-70.0728"/>
</g>
<!-- Node17&#45;&gt;Node6 -->
<g id="edge26" class="edge"><title>Node17&#45;&gt;Node6</title>
<path fill="none" stroke="midnightblue" d="M187.631,-336.444C221,-326.808 275.159,-311.168 310.431,-300.983"/>
<polygon fill="midnightblue" stroke="midnightblue" points="311.649,-304.274 320.285,-298.137 309.707,-297.549 311.649,-304.274"/>
</g>
<!-- Node17&#45;&gt;Node12 -->
<g id="edge27" class="edge"><title>Node17&#45;&gt;Node12</title>
<path fill="none" stroke="midnightblue" d="M168.714,-336.305C177.938,-328.069 190.591,-314.789 196,-300 208.713,-265.242 197.941,-221.397 189.871,-197.175"/>
<polygon fill="midnightblue" stroke="midnightblue" points="193.091,-195.783 186.448,-187.53 186.495,-198.125 193.091,-195.783"/>
</g>
<!-- Node17&#45;&gt;Node13 -->
<g id="edge29" class="edge"><title>Node17&#45;&gt;Node13</title>
<path fill="none" stroke="midnightblue" d="M170.01,-336.385C181.602,-327.8 199.355,-313.921 213,-300 214.767,-298.197 304.347,-183.852 338.745,-139.928"/>
<polygon fill="midnightblue" stroke="midnightblue" points="341.612,-141.944 345.022,-131.913 336.101,-137.628 341.612,-141.944"/>
</g>
<!-- Node18 -->
<g id="node18" class="node"><title>Node18</title>
<g id="a_node18"><a xlink:href="../../d9/d8a/_new_8h.html" target="_top" xlink:title="New operators defined for Arduino boards and for other boards use the normal new. ...">
<polygon fill="white" stroke="black" points="142.5,-280.5 142.5,-299.5 187.5,-299.5 187.5,-280.5 142.5,-280.5"/>
<text text-anchor="middle" x="165" y="-287.5" font-family="Helvetica,sans-Serif" font-size="10.00">New.h</text>
</a>
</g>
</g>
<!-- Node17&#45;&gt;Node18 -->
<g id="edge30" class="edge"><title>Node17&#45;&gt;Node18</title>
<path fill="none" stroke="midnightblue" d="M159.156,-336.083C160.084,-328.927 161.418,-318.635 162.577,-309.691"/>
<polygon fill="midnightblue" stroke="midnightblue" points="166.051,-310.118 163.866,-299.751 159.109,-309.218 166.051,-310.118"/>
</g>
<!-- Node19 -->
<g id="node19" class="node"><title>Node19</title>
<polygon fill="white" stroke="#bfbfbf" points="152.5,-224.5 152.5,-243.5 187.5,-243.5 187.5,-224.5 152.5,-224.5"/>
<text text-anchor="middle" x="170" y="-231.5" font-family="Helvetica,sans-Serif" font-size="10.00">new</text>
</g>
<!-- Node18&#45;&gt;Node19 -->
<g id="edge31" class="edge"><title>Node18&#45;&gt;Node19</title>
<path fill="none" stroke="midnightblue" d="M165.826,-280.083C166.481,-273.006 167.42,-262.861 168.242,-253.986"/>
<polygon fill="midnightblue" stroke="midnightblue" points="171.753,-254.031 169.19,-243.751 164.783,-253.386 171.753,-254.031"/>
</g>
</g>
</svg>
        <g id="navigator" transform="translate(0 0)" fill="#404254">
                <rect fill="#f2f5e9" fill-opacity="0.5" stroke="#606060" stroke-width=".5" x="0" y="0" width="60" height="60"/>
                <use id="zoomplus" xlink:href="#zoomPlus" x="17" y="9" onmousedown="handleZoom(evt,'in')"/>
                <use id="zoomminus" xlink:href="#zoomMin" x="42" y="9" onmousedown="handleZoom(evt,'out')"/>
                <use id="reset" xlink:href="#resetDef" x="30" y="36" onmousedown="handleReset()"/>
                <g id="arrowUp" xlink:href="#dirArrow" transform="translate(30 24)" onmousedown="handlePan(0,-1)">
                  <use xlink:href="#rim" fill="#404040">
                        <set attributeName="fill" to="#808080" begin="arrowUp.mouseover" end="arrowUp.mouseout"/>
                  </use>
                  <path fill="none" stroke="white" stroke-width="1.5" d="M0,-3.0v7 M-2.5,-0.5L0,-3.0L2.5,-0.5"/>
                </g>
                <g id="arrowRight" xlink:href="#dirArrow" transform="rotate(90) translate(36 -43)" onmousedown="handlePan(1,0)">
                  <use xlink:href="#rim" fill="#404040">
                        <set attributeName="fill" to="#808080" begin="arrowRight.mouseover" end="arrowRight.mouseout"/>
                  </use>
                  <path fill="none" stroke="white" stroke-width="1.5" d="M0,-3.0v7 M-2.5,-0.5L0,-3.0L2.5,-0.5"/>
                </g>
                <g id="arrowDown" xlink:href="#dirArrow" transform="rotate(180) translate(-30 -48)" onmousedown="handlePan(0,1)">
                  <use xlink:href="#rim" fill="#404040">
                        <set attributeName="fill" to="#808080" begin="arrowDown.mouseover" end="arrowDown.mouseout"/>
                  </use>
                  <path fill="none" stroke="white" stroke-width="1.5" d="M0,-3.0v7 M-2.5,-0.5L0,-3.0L2.5,-0.5"/>
                </g>
                <g id="arrowLeft" xlink:href="#dirArrow" transform="rotate(270) translate(-36 17)" onmousedown="handlePan(-1,0)">
                  <use xlink:href="#rim" fill="#404040">
                        <set attributeName="fill" to="#808080" begin="arrowLeft.mouseover" end="arrowLeft.mouseout"/>
                  </use>
                  <path fill="none" stroke="white" stroke-width="1.5" d="M0,-3.0v7 M-2.5,-0.5L0,-3.0L2.5,-0.5"/>
                </g>
        </g>
        <svg viewBox="0 0 15 15" width="100%" height="30px" preserveAspectRatio="xMaxYMin meet">
         <g id="arrow_out" transform="scale(0.3 0.3)">
          <a xlink:href="_tree_map_8h__incl_org.svg" target="_base">
           <rect id="button" ry="5" rx="5" y="6" x="6" height="38" width="38"
                fill="#f2f5e9" fill-opacity="0.5" stroke="#606060" stroke-width="1.0"/>
           <path id="arrow"
             d="M 11.500037,31.436501 C 11.940474,20.09759 22.043105,11.32322 32.158766,21.979434 L 37.068811,17.246167 C 37.068811,17.246167 37.088388,32 37.088388,32 L 22.160133,31.978069 C 22.160133,31.978069 26.997745,27.140456 26.997745,27.140456 C 18.528582,18.264221 13.291696,25.230495 11.500037,31.436501 z"
             style="fill:#404040;"/>
          </a>
         </g>
        </svg>
</svg>
