<?xml version="1.0" encoding="UTF-8" standalone="no"?>
<!DOCTYPE svg PUBLIC "-//W3C//DTD SVG 1.1//EN"
 "http://www.w3.org/Graphics/SVG/1.1/DTD/svg11.dtd">
<!-- Generated by graphviz version 2.38.0 (20140413.2041)
 -->
<!-- Title: stl/TreeMap.h Pages: 1 -->
<svg width="708pt" height="700pt"
 viewBox="0.00 0.00 708.00 700.00" xmlns="http://www.w3.org/2000/svg" xmlns:xlink="http://www.w3.org/1999/xlink">
<g id="graph0" class="graph" transform="scale(1 1) rotate(0) translate(4 696)">
<title>stl/TreeMap.h</title>
<polygon fill="white" stroke="none" points="-4,4 -4,-696 704,-696 704,4 -4,4"/>
<!-- Node0 -->
<g id="node1" class="node"><title>Node0</title>
<polygon fill="#bfbfbf" stroke="black" points="52,-672.5 52,-691.5 128,-691.5 128,-672.5 52,-672.5"/>
<text text-anchor="middle" x="90" y="-679.5" font-family="Helvetica,sans-Serif" font-size="10.00">stl/TreeMap.h</text>
</g>
<!-- Node1 -->
<g id="node2" class="node"><title>Node1</title>
<g id="a_node2"><a xlink:href="../../d0/db6/_types_8h.html" target="_top" xlink:title="type definition of all the string types we will be using ">
<polygon fill="white" stroke="black" points="352,-56.5 352,-75.5 412,-75.5 412,-56.5 352,-56.5"/>
<text text-anchor="middle" x="382" y="-63.5" font-family="Helvetica,sans-Serif" font-size="10.00">../Types.h</text>
</a>
</g>
</g>
<!-- Node0&#45;&gt;Node1 -->
<g id="edge1" class="edge"><title>Node0&#45;&gt;Node1</title>
<path fill="none" stroke="midnightblue" d="M75.5399,-672.442C50.099,-656.165 0,-618.129 0,-571 0,-571 0,-571 0,-177 0,-132.215 36.1764,-130.416 77,-112 165.37,-72.1341 281.371,-66.1537 341.668,-66.0658"/>
<polygon fill="midnightblue" stroke="midnightblue" points="341.894,-69.5666 351.908,-66.1076 341.922,-62.5667 341.894,-69.5666"/>
</g>
<!-- Node3 -->
<g id="node4" class="node"><title>Node3</title>
<g id="a_node4"><a xlink:href="../../d5/d08/_red_black_tree_8h.html" target="_top" xlink:title="Red black tree implementation. ">
<polygon fill="white" stroke="black" points="137,-616.5 137,-635.5 223,-635.5 223,-616.5 137,-616.5"/>
<text text-anchor="middle" x="180" y="-623.5" font-family="Helvetica,sans-Serif" font-size="10.00">RedBlackTree.h</text>
</a>
</g>
</g>
<!-- Node0&#45;&gt;Node3 -->
<g id="edge3" class="edge"><title>Node0&#45;&gt;Node3</title>
<path fill="none" stroke="midnightblue" d="M104.46,-672.324C118.5,-663.9 140.048,-650.971 156.543,-641.074"/>
<polygon fill="midnightblue" stroke="midnightblue" points="158.802,-643.801 165.576,-635.655 155.2,-637.798 158.802,-643.801"/>
</g>
<!-- Node2 -->
<g id="node3" class="node"><title>Node2</title>
<polygon fill="white" stroke="#bfbfbf" points="357.5,-0.5 357.5,-19.5 406.5,-19.5 406.5,-0.5 357.5,-0.5"/>
<text text-anchor="middle" x="382" y="-7.5" font-family="Helvetica,sans-Serif" font-size="10.00">stdint.h</text>
</g>
<!-- Node1&#45;&gt;Node2 -->
<g id="edge2" class="edge"><title>Node1&#45;&gt;Node2</title>
<path fill="none" stroke="midnightblue" d="M382,-56.083C382,-49.0059 382,-38.8611 382,-29.9865"/>
<polygon fill="midnightblue" stroke="midnightblue" points="385.5,-29.751 382,-19.7511 378.5,-29.7511 385.5,-29.751"/>
</g>
<!-- Node3&#45;&gt;Node1 -->
<g id="edge28" class="edge"><title>Node3&#45;&gt;Node1</title>
<path fill="none" stroke="midnightblue" d="M149.537,-616.398C107.813,-602.535 38,-570.976 38,-515 38,-515 38,-515 38,-177 38,-113.897 250.658,-82.0227 341.569,-71.2795"/>
<polygon fill="midnightblue" stroke="midnightblue" points="342.241,-74.7252 351.774,-70.1021 341.439,-67.7714 342.241,-74.7252"/>
</g>
<!-- Node4 -->
<g id="node5" class="node"><title>Node4</title>
<g id="a_node5"><a xlink:href="../../d7/d0c/_comparator_8h.html" target="_top" xlink:title="Comparator implementation for basic types. ">
<polygon fill="white" stroke="black" points="509.5,-560.5 509.5,-579.5 584.5,-579.5 584.5,-560.5 509.5,-560.5"/>
<text text-anchor="middle" x="547" y="-567.5" font-family="Helvetica,sans-Serif" font-size="10.00">Comparator.h</text>
</a>
</g>
</g>
<!-- Node3&#45;&gt;Node4 -->
<g id="edge4" class="edge"><title>Node3&#45;&gt;Node4</title>
<path fill="none" stroke="midnightblue" d="M223.179,-618.647C292.257,-608.483 427.144,-588.636 499.097,-578.048"/>
<polygon fill="midnightblue" stroke="midnightblue" points="499.857,-581.474 509.241,-576.556 498.838,-574.549 499.857,-581.474"/>
</g>
<!-- Node9 -->
<g id="node10" class="node"><title>Node9</title>
<g id="a_node10"><a xlink:href="../../d4/dda/_pair_8h.html" target="_top" xlink:title="Implementation of a 2&#45;element tuple. ">
<polygon fill="white" stroke="black" points="238,-224.5 238,-243.5 280,-243.5 280,-224.5 238,-224.5"/>
<text text-anchor="middle" x="259" y="-231.5" font-family="Helvetica,sans-Serif" font-size="10.00">Pair.h</text>
</a>
</g>
</g>
<!-- Node3&#45;&gt;Node9 -->
<g id="edge27" class="edge"><title>Node3&#45;&gt;Node9</title>
<path fill="none" stroke="midnightblue" d="M191.239,-616.364C211.94,-599.385 254,-559.422 254,-515 254,-515 254,-515 254,-345 254,-312.915 256.149,-275.62 257.629,-253.737"/>
<polygon fill="midnightblue" stroke="midnightblue" points="261.135,-253.773 258.346,-243.552 254.153,-253.281 261.135,-253.773"/>
</g>
<!-- Node10 -->
<g id="node11" class="node"><title>Node10</title>
<g id="a_node11"><a xlink:href="../../db/d2a/_utility_8h.html" target="_top" xlink:title="Various helper functions. ">
<polygon fill="white" stroke="black" points="194.5,-168.5 194.5,-187.5 279.5,-187.5 279.5,-168.5 194.5,-168.5"/>
<text text-anchor="middle" x="237" y="-175.5" font-family="Helvetica,sans-Serif" font-size="10.00">../utility/Utility.h</text>
</a>
</g>
</g>
<!-- Node3&#45;&gt;Node10 -->
<g id="edge34" class="edge"><title>Node3&#45;&gt;Node10</title>
<path fill="none" stroke="midnightblue" d="M184.046,-616.379C192.235,-598.114 210,-553.996 210,-515 210,-515 210,-515 210,-289 210,-255.861 221.701,-218.682 229.697,-197.144"/>
<polygon fill="midnightblue" stroke="midnightblue" points="233.022,-198.252 233.359,-187.662 226.491,-195.73 233.022,-198.252"/>
</g>
<!-- Node16 -->
<g id="node17" class="node"><title>Node16</title>
<g id="a_node17"><a xlink:href="../../d3/de6/_memory_8h.html" target="_top" xlink:title="Memory is a class that provides dynamic fixed size memory. ">
<polygon fill="white" stroke="black" points="74.5,-224.5 74.5,-243.5 181.5,-243.5 181.5,-224.5 74.5,-224.5"/>
<text text-anchor="middle" x="128" y="-231.5" font-family="Helvetica,sans-Serif" font-size="10.00">../memory/Memory.h</text>
</a>
</g>
</g>
<!-- Node3&#45;&gt;Node16 -->
<g id="edge29" class="edge"><title>Node3&#45;&gt;Node16</title>
<path fill="none" stroke="midnightblue" d="M175.954,-616.379C167.765,-598.114 150,-553.996 150,-515 150,-515 150,-515 150,-345 150,-312.328 140.553,-275.24 134.04,-253.553"/>
<polygon fill="midnightblue" stroke="midnightblue" points="137.291,-252.222 130.967,-243.721 130.609,-254.31 137.291,-252.222"/>
</g>
<!-- Node4&#45;&gt;Node1 -->
<g id="edge21" class="edge"><title>Node4&#45;&gt;Node1</title>
<path fill="none" stroke="midnightblue" d="M582.101,-560.47C627.272,-547.151 700,-516.742 700,-459 700,-459 700,-459 700,-177 700,-118.888 507.937,-84.6634 422.337,-72.2956"/>
<polygon fill="midnightblue" stroke="midnightblue" points="422.595,-68.7974 412.203,-70.862 421.614,-75.7283 422.595,-68.7974"/>
</g>
<!-- Node5 -->
<g id="node6" class="node"><title>Node5</title>
<g id="a_node6"><a xlink:href="../../db/db5/_string_8h.html" target="_top" xlink:title="string.h">
<polygon fill="white" stroke="black" points="515.5,-448.5 515.5,-467.5 564.5,-467.5 564.5,-448.5 515.5,-448.5"/>
<text text-anchor="middle" x="540" y="-455.5" font-family="Helvetica,sans-Serif" font-size="10.00">string.h</text>
</a>
</g>
</g>
<!-- Node4&#45;&gt;Node5 -->
<g id="edge5" class="edge"><title>Node4&#45;&gt;Node5</title>
<path fill="none" stroke="midnightblue" d="M546.451,-560.368C545.321,-542.617 542.715,-501.666 541.183,-477.597"/>
<polygon fill="midnightblue" stroke="midnightblue" points="544.675,-477.349 540.547,-467.591 537.689,-477.794 544.675,-477.349"/>
</g>
<!-- Node6 -->
<g id="node7" class="node"><title>Node6</title>
<g id="a_node7"><a xlink:href="../../d8/d65/_static_string_8h.html" target="_top" xlink:title="StaticString provides a String that is on stack and is of fixed size. ">
<polygon fill="white" stroke="black" points="486,-392.5 486,-411.5 594,-411.5 594,-392.5 486,-392.5"/>
<text text-anchor="middle" x="540" y="-399.5" font-family="Helvetica,sans-Serif" font-size="10.00">strings/StaticString.h</text>
</a>
</g>
</g>
<!-- Node4&#45;&gt;Node6 -->
<g id="edge26" class="edge"><title>Node4&#45;&gt;Node6</title>
<path fill="none" stroke="midnightblue" d="M551.945,-560.328C562.745,-540.229 586.437,-489.044 573,-448 569.51,-437.34 562.427,-427.117 555.714,-419.117"/>
<polygon fill="midnightblue" stroke="midnightblue" points="558.305,-416.763 549.02,-411.66 553.096,-421.439 558.305,-416.763"/>
</g>
<!-- Node15 -->
<g id="node16" class="node"><title>Node15</title>
<g id="a_node16"><a xlink:href="../../d2/dc2/_equal_8h.html" target="_top" xlink:title="stl/Equal.h">
<polygon fill="white" stroke="black" points="455.5,-504.5 455.5,-523.5 518.5,-523.5 518.5,-504.5 455.5,-504.5"/>
<text text-anchor="middle" x="487" y="-511.5" font-family="Helvetica,sans-Serif" font-size="10.00">stl/Equal.h</text>
</a>
</g>
</g>
<!-- Node4&#45;&gt;Node15 -->
<g id="edge22" class="edge"><title>Node4&#45;&gt;Node15</title>
<path fill="none" stroke="midnightblue" d="M537.36,-560.324C528.49,-552.341 515.125,-540.313 504.392,-530.653"/>
<polygon fill="midnightblue" stroke="midnightblue" points="506.59,-527.922 496.815,-523.834 501.907,-533.125 506.59,-527.922"/>
</g>
<!-- Node5&#45;&gt;Node6 -->
<g id="edge6" class="edge"><title>Node5&#45;&gt;Node6</title>
<path fill="none" stroke="midnightblue" d="M534.834,-448.083C533.324,-440.927 532.894,-430.635 533.542,-421.691"/>
<polygon fill="midnightblue" stroke="midnightblue" points="537.015,-422.126 534.869,-411.751 530.077,-421.2 537.015,-422.126"/>
</g>
<!-- Node6&#45;&gt;Node1 -->
<g id="edge19" class="edge"><title>Node6&#45;&gt;Node1</title>
<path fill="none" stroke="midnightblue" d="M542.967,-392.279C548.972,-373.824 562,-329.367 562,-291 562,-291 562,-291 562,-177 562,-111.936 475.313,-84.2018 422.255,-73.32"/>
<polygon fill="midnightblue" stroke="midnightblue" points="422.61,-69.824 412.128,-71.3623 421.282,-76.6967 422.61,-69.824"/>
</g>
<!-- Node6&#45;&gt;Node5 -->
<g id="edge7" class="edge"><title>Node6&#45;&gt;Node5</title>
<path fill="none" stroke="midnightblue" d="M545.131,-411.751C546.657,-418.858 547.104,-429.136 546.472,-438.101"/>
<polygon fill="midnightblue" stroke="midnightblue" points="542.993,-437.713 545.166,-448.083 549.934,-438.622 542.993,-437.713"/>
</g>
<!-- Node7 -->
<g id="node8" class="node"><title>Node7</title>
<g id="a_node8"><a xlink:href="../../de/d0b/_string_iterator_8h.html" target="_top" xlink:title="StringIterator.h">
<polygon fill="white" stroke="black" points="454,-336.5 454,-355.5 534,-355.5 534,-336.5 454,-336.5"/>
<text text-anchor="middle" x="494" y="-343.5" font-family="Helvetica,sans-Serif" font-size="10.00">StringIterator.h</text>
</a>
</g>
</g>
<!-- Node6&#45;&gt;Node7 -->
<g id="edge8" class="edge"><title>Node6&#45;&gt;Node7</title>
<path fill="none" stroke="midnightblue" d="M532.404,-392.083C525.773,-384.298 515.979,-372.801 507.942,-363.367"/>
<polygon fill="midnightblue" stroke="midnightblue" points="510.604,-361.094 501.455,-355.751 505.275,-365.633 510.604,-361.094"/>
</g>
<!-- Node14 -->
<g id="node15" class="node"><title>Node14</title>
<g id="a_node15"><a xlink:href="../../da/db8/_math_8h.html" target="_top" xlink:title="../utility/Math.h">
<polygon fill="white" stroke="black" points="590,-336.5 590,-355.5 672,-355.5 672,-336.5 590,-336.5"/>
<text text-anchor="middle" x="631" y="-343.5" font-family="Helvetica,sans-Serif" font-size="10.00">../utility/Math.h</text>
</a>
</g>
</g>
<!-- Node6&#45;&gt;Node14 -->
<g id="edge20" class="edge"><title>Node6&#45;&gt;Node14</title>
<path fill="none" stroke="midnightblue" d="M554.621,-392.324C568.949,-383.822 591.013,-370.729 607.749,-360.797"/>
<polygon fill="midnightblue" stroke="midnightblue" points="609.602,-363.768 616.416,-355.655 606.03,-357.748 609.602,-363.768"/>
</g>
<!-- Node7&#45;&gt;Node1 -->
<g id="edge9" class="edge"><title>Node7&#45;&gt;Node1</title>
<path fill="none" stroke="midnightblue" d="M494,-336.442C494,-317.936 494,-272.813 494,-235 494,-235 494,-235 494,-177 494,-146.205 490.442,-135.032 470,-112 456.86,-97.1953 437.693,-86.5955 420.599,-79.4173"/>
<polygon fill="midnightblue" stroke="midnightblue" points="421.422,-75.9803 410.835,-75.5803 418.862,-82.4953 421.422,-75.9803"/>
</g>
<!-- Node8 -->
<g id="node9" class="node"><title>Node8</title>
<g id="a_node9"><a xlink:href="../../d8/dd7/_concept_8h.html" target="_top" xlink:title="Concept definitions. ">
<polygon fill="white" stroke="black" points="304.5,-280.5 304.5,-299.5 387.5,-299.5 387.5,-280.5 304.5,-280.5"/>
<text text-anchor="middle" x="346" y="-287.5" font-family="Helvetica,sans-Serif" font-size="10.00">../stl/Concept.h</text>
</a>
</g>
</g>
<!-- Node7&#45;&gt;Node8 -->
<g id="edge10" class="edge"><title>Node7&#45;&gt;Node8</title>
<path fill="none" stroke="midnightblue" d="M470.549,-336.444C445.867,-327.438 406.815,-313.189 379.023,-303.049"/>
<polygon fill="midnightblue" stroke="midnightblue" points="379.935,-299.656 369.341,-299.516 377.536,-306.232 379.935,-299.656"/>
</g>
<!-- Node8&#45;&gt;Node9 -->
<g id="edge11" class="edge"><title>Node8&#45;&gt;Node9</title>
<path fill="none" stroke="midnightblue" d="M332.022,-280.324C318.45,-271.9 297.62,-258.971 281.675,-249.074"/>
<polygon fill="midnightblue" stroke="midnightblue" points="283.286,-245.954 272.943,-243.655 279.594,-251.902 283.286,-245.954"/>
</g>
<!-- Node11 -->
<g id="node12" class="node"><title>Node11</title>
<g id="a_node12"><a xlink:href="../../d2/d37/_tmp_8h.html" target="_top" xlink:title="Template helper types, structs, and metafunctions. ">
<polygon fill="white" stroke="black" points="286,-112.5 286,-131.5 330,-131.5 330,-112.5 286,-112.5"/>
<text text-anchor="middle" x="308" y="-119.5" font-family="Helvetica,sans-Serif" font-size="10.00">Tmp.h</text>
</a>
</g>
</g>
<!-- Node8&#45;&gt;Node11 -->
<g id="edge18" class="edge"><title>Node8&#45;&gt;Node11</title>
<path fill="none" stroke="midnightblue" d="M343.957,-280.075C337.975,-253.945 320.41,-177.211 312.253,-141.577"/>
<polygon fill="midnightblue" stroke="midnightblue" points="315.605,-140.535 309.961,-131.568 308.781,-142.097 315.605,-140.535"/>
</g>
<!-- Node12 -->
<g id="node13" class="node"><title>Node12</title>
<g id="a_node13"><a xlink:href="../../d4/dd5/_type_traits_8h.html" target="_top" xlink:title="Metafunctions for types. ">
<polygon fill="white" stroke="black" points="336,-168.5 336,-187.5 406,-187.5 406,-168.5 336,-168.5"/>
<text text-anchor="middle" x="371" y="-175.5" font-family="Helvetica,sans-Serif" font-size="10.00">TypeTraits.h</text>
</a>
</g>
</g>
<!-- Node8&#45;&gt;Node12 -->
<g id="edge15" class="edge"><title>Node8&#45;&gt;Node12</title>
<path fill="none" stroke="midnightblue" d="M347.962,-280.368C351.996,-262.617 361.303,-221.666 366.773,-197.597"/>
<polygon fill="midnightblue" stroke="midnightblue" points="370.244,-198.118 369.047,-187.591 363.418,-196.567 370.244,-198.118"/>
</g>
<!-- Node13 -->
<g id="node14" class="node"><title>Node13</title>
<g id="a_node14"><a xlink:href="../../d2/db4/_wlib_8h.html" target="_top" xlink:title="../Wlib.h">
<polygon fill="white" stroke="black" points="374.5,-224.5 374.5,-243.5 427.5,-243.5 427.5,-224.5 374.5,-224.5"/>
<text text-anchor="middle" x="401" y="-231.5" font-family="Helvetica,sans-Serif" font-size="10.00">../Wlib.h</text>
</a>
</g>
</g>
<!-- Node8&#45;&gt;Node13 -->
<g id="edge17" class="edge"><title>Node8&#45;&gt;Node13</title>
<path fill="none" stroke="midnightblue" d="M355.082,-280.083C363.171,-272.141 375.195,-260.335 384.91,-250.797"/>
<polygon fill="midnightblue" stroke="midnightblue" points="387.403,-253.254 392.087,-243.751 382.499,-248.26 387.403,-253.254"/>
</g>
<!-- Node9&#45;&gt;Node10 -->
<g id="edge12" class="edge"><title>Node9&#45;&gt;Node10</title>
<path fill="none" stroke="midnightblue" d="M255.367,-224.083C252.388,-216.77 248.074,-206.181 244.375,-197.103"/>
<polygon fill="midnightblue" stroke="midnightblue" points="247.58,-195.691 240.565,-187.751 241.097,-198.333 247.58,-195.691"/>
</g>
<!-- Node10&#45;&gt;Node11 -->
<g id="edge13" class="edge"><title>Node10&#45;&gt;Node11</title>
<path fill="none" stroke="midnightblue" d="M248.407,-168.324C259.109,-160.185 275.341,-147.839 288.163,-138.087"/>
<polygon fill="midnightblue" stroke="midnightblue" points="290.544,-140.673 296.385,-131.834 286.307,-135.102 290.544,-140.673"/>
</g>
<!-- Node11&#45;&gt;Node1 -->
<g id="edge14" class="edge"><title>Node11&#45;&gt;Node1</title>
<path fill="none" stroke="midnightblue" d="M319.889,-112.324C331.15,-104.107 348.287,-91.6017 361.709,-81.8069"/>
<polygon fill="midnightblue" stroke="midnightblue" points="363.88,-84.5559 369.894,-75.8339 359.753,-78.9014 363.88,-84.5559"/>
</g>
<!-- Node12&#45;&gt;Node11 -->
<g id="edge16" class="edge"><title>Node12&#45;&gt;Node11</title>
<path fill="none" stroke="midnightblue" d="M360.878,-168.324C351.474,-160.263 337.256,-148.077 325.931,-138.369"/>
<polygon fill="midnightblue" stroke="midnightblue" points="328.177,-135.684 318.306,-131.834 323.621,-140.999 328.177,-135.684"/>
</g>
<!-- Node15&#45;&gt;Node1 -->
<g id="edge24" class="edge"><title>Node15&#45;&gt;Node1</title>
<path fill="none" stroke="midnightblue" d="M484.026,-504.279C476.127,-480.706 454.578,-413.615 445,-356 435.357,-297.993 447.664,-281.635 436,-224 425.506,-172.144 402.3,-113.938 390.005,-85.1463"/>
<polygon fill="midnightblue" stroke="midnightblue" points="393.067,-83.4083 385.877,-75.6263 386.645,-86.1933 393.067,-83.4083"/>
</g>
<!-- Node15&#45;&gt;Node5 -->
<g id="edge23" class="edge"><title>Node15&#45;&gt;Node5</title>
<path fill="none" stroke="midnightblue" d="M495.752,-504.083C503.47,-496.22 514.905,-484.569 524.217,-475.081"/>
<polygon fill="midnightblue" stroke="midnightblue" points="526.904,-477.34 531.411,-467.751 521.908,-472.436 526.904,-477.34"/>
</g>
<!-- Node15&#45;&gt;Node6 -->
<g id="edge25" class="edge"><title>Node15&#45;&gt;Node6</title>
<path fill="none" stroke="midnightblue" d="M488.517,-504.215C490.964,-491.362 496.497,-466.909 506,-448 511.156,-437.741 518.723,-427.438 525.41,-419.284"/>
<polygon fill="midnightblue" stroke="midnightblue" points="528.09,-421.535 531.921,-411.657 522.766,-416.99 528.09,-421.535"/>
</g>
<!-- Node16&#45;&gt;Node1 -->
<g id="edge31" class="edge"><title>Node16&#45;&gt;Node1</title>
<path fill="none" stroke="midnightblue" d="M130.265,-224.329C134.213,-210.733 143.545,-184.274 160,-168 211.576,-116.991 293.54,-89.0221 342.124,-76.0994"/>
<polygon fill="midnightblue" stroke="midnightblue" points="343.15,-79.4495 351.962,-73.5673 341.405,-72.6704 343.15,-79.4495"/>
</g>
<!-- Node16&#45;&gt;Node10 -->
<g id="edge30" class="edge"><title>Node16&#45;&gt;Node10</title>
<path fill="none" stroke="midnightblue" d="M145.513,-224.324C163.072,-215.625 190.331,-202.12 210.531,-192.113"/>
<polygon fill="midnightblue" stroke="midnightblue" points="212.124,-195.23 219.531,-187.655 209.016,-188.958 212.124,-195.23"/>
</g>
<!-- Node16&#45;&gt;Node11 -->
<g id="edge32" class="edge"><title>Node16&#45;&gt;Node11</title>
<path fill="none" stroke="midnightblue" d="M133.584,-224.172C142.74,-210.361 162.219,-183.612 185,-168 212.818,-148.936 249.688,-136.857 275.784,-130.069"/>
<polygon fill="midnightblue" stroke="midnightblue" points="276.698,-133.448 285.56,-127.641 275.011,-126.654 276.698,-133.448"/>
</g>
<!-- Node17 -->
<g id="node18" class="node"><title>Node17</title>
<polygon fill="white" stroke="#bfbfbf" points="66,-168.5 66,-187.5 100,-187.5 100,-168.5 66,-168.5"/>
<text text-anchor="middle" x="83" y="-175.5" font-family="Helvetica,sans-Serif" font-size="10.00">new</text>
</g>
<!-- Node16&#45;&gt;Node17 -->
<g id="edge33" class="edge"><title>Node16&#45;&gt;Node17</title>
<path fill="none" stroke="midnightblue" d="M120.569,-224.083C114.147,-216.377 104.694,-205.033 96.8775,-195.653"/>
<polygon fill="midnightblue" stroke="midnightblue" points="99.3832,-193.193 90.2926,-187.751 94.0057,-197.674 99.3832,-193.193"/>
</g>
</g>
</svg>
