<?xml version="1.0" encoding="UTF-8" standalone="no"?>
<!DOCTYPE svg PUBLIC "-//W3C//DTD SVG 1.1//EN"
 "http://www.w3.org/Graphics/SVG/1.1/DTD/svg11.dtd">
<!-- Generated by graphviz version 2.36.0 (20140111.2315)
 -->
<!-- Title: strings/StringIterator.h Pages: 1 -->
<svg width="669pt" height="308pt"
 viewBox="0.00 0.00 669.00 308.00" xmlns="http://www.w3.org/2000/svg" xmlns:xlink="http://www.w3.org/1999/xlink">
<g id="graph0" class="graph" transform="scale(1 1) rotate(0) translate(4 304)">
<title>strings/StringIterator.h</title>
<polygon fill="white" stroke="none" points="-4,4 -4,-304 665,-304 665,4 -4,4"/>
<!-- Node1 -->
<g id="node1" class="node"><title>Node1</title>
<polygon fill="#bfbfbf" stroke="black" points="367.5,-280.5 367.5,-299.5 480.5,-299.5 480.5,-280.5 367.5,-280.5"/>
<text text-anchor="middle" x="424" y="-287.5" font-family="Helvetica,sans-Serif" font-size="10.00">strings/StringIterator.h</text>
</g>
<!-- Node2 -->
<g id="node2" class="node"><title>Node2</title>
<g id="a_node2"><a xlink:href="../../db/db5/_string_8h.html" target="_top" xlink:title="strings/String.h">
<polygon fill="white" stroke="black" points="382.5,-224.5 382.5,-243.5 465.5,-243.5 465.5,-224.5 382.5,-224.5"/>
<text text-anchor="middle" x="424" y="-231.5" font-family="Helvetica,sans-Serif" font-size="10.00">strings/String.h</text>
</a>
</g>
</g>
<!-- Node1&#45;&gt;Node2 -->
<g id="edge1" class="edge"><title>Node1&#45;&gt;Node2</title>
<path fill="none" stroke="midnightblue" d="M424,-269.805C424,-260.91 424,-250.78 424,-243.751"/>
<polygon fill="midnightblue" stroke="midnightblue" points="420.5,-270.083 424,-280.083 427.5,-270.083 420.5,-270.083"/>
</g>
<!-- Node3 -->
<g id="node3" class="node"><title>Node3</title>
<g id="a_node3"><a xlink:href="../../de/d6d/_bitset_8h.html" target="_top" xlink:title="Bitset is a class that provides bits manipulation methods. ">
<polygon fill="white" stroke="black" points="117,-168.5 117,-187.5 181,-187.5 181,-168.5 117,-168.5"/>
<text text-anchor="middle" x="149" y="-175.5" font-family="Helvetica,sans-Serif" font-size="10.00">stl/Bitset.h</text>
</a>
</g>
</g>
<!-- Node2&#45;&gt;Node3 -->
<g id="edge2" class="edge"><title>Node2&#45;&gt;Node3</title>
<path fill="none" stroke="midnightblue" d="M372.138,-222.816C316.007,-211.794 228.241,-194.56 181.255,-185.334"/>
<polygon fill="midnightblue" stroke="midnightblue" points="371.746,-226.306 382.233,-224.799 373.095,-219.437 371.746,-226.306"/>
</g>
<!-- Node6 -->
<g id="node6" class="node"><title>Node6</title>
<g id="a_node6"><a xlink:href="../../d7/d0c/_comparator_8h.html" target="_top" xlink:title="Comparator implementation for basic types. ">
<polygon fill="white" stroke="black" points="236.5,-112.5 236.5,-131.5 325.5,-131.5 325.5,-112.5 236.5,-112.5"/>
<text text-anchor="middle" x="281" y="-119.5" font-family="Helvetica,sans-Serif" font-size="10.00">stl/Comparator.h</text>
</a>
</g>
</g>
<!-- Node2&#45;&gt;Node6 -->
<g id="edge5" class="edge"><title>Node2&#45;&gt;Node6</title>
<path fill="none" stroke="midnightblue" d="M404.653,-218.118C374.299,-194.769 316.451,-150.27 292.169,-131.591"/>
<polygon fill="midnightblue" stroke="midnightblue" points="402.719,-221.046 412.779,-224.368 406.987,-215.497 402.719,-221.046"/>
</g>
<!-- Node11 -->
<g id="node11" class="node"><title>Node11</title>
<g id="a_node11"><a xlink:href="../../d2/dc2/_equal_8h.html" target="_top" xlink:title="stl/Equal.h">
<polygon fill="white" stroke="black" points="392.5,-168.5 392.5,-187.5 455.5,-187.5 455.5,-168.5 392.5,-168.5"/>
<text text-anchor="middle" x="424" y="-175.5" font-family="Helvetica,sans-Serif" font-size="10.00">stl/Equal.h</text>
</a>
</g>
</g>
<!-- Node2&#45;&gt;Node11 -->
<g id="edge10" class="edge"><title>Node2&#45;&gt;Node11</title>
<path fill="none" stroke="midnightblue" d="M424,-213.805C424,-204.91 424,-194.78 424,-187.751"/>
<polygon fill="midnightblue" stroke="midnightblue" points="420.5,-214.083 424,-224.083 427.5,-214.083 420.5,-214.083"/>
</g>
<!-- Node17 -->
<g id="node17" class="node"><title>Node17</title>
<g id="a_node17"><a xlink:href="../../d2/dad/_hash_8h.html" target="_top" xlink:title="stl/Hash.h">
<polygon fill="white" stroke="black" points="485,-168.5 485,-187.5 547,-187.5 547,-168.5 485,-168.5"/>
<text text-anchor="middle" x="516" y="-175.5" font-family="Helvetica,sans-Serif" font-size="10.00">stl/Hash.h</text>
</a>
</g>
</g>
<!-- Node2&#45;&gt;Node17 -->
<g id="edge19" class="edge"><title>Node2&#45;&gt;Node17</title>
<path fill="none" stroke="midnightblue" d="M447.55,-219.177C464.479,-209.241 486.783,-196.149 501.255,-187.655"/>
<polygon fill="midnightblue" stroke="midnightblue" points="445.634,-216.243 438.781,-224.324 449.177,-222.28 445.634,-216.243"/>
</g>
<!-- Node18 -->
<g id="node18" class="node"><title>Node18</title>
<g id="a_node18"><a xlink:href="../../d9/dae/_string_8cpp.html" target="_top" xlink:title="strings/String.cpp">
<polygon fill="white" stroke="black" points="564.5,-168.5 564.5,-187.5 657.5,-187.5 657.5,-168.5 564.5,-168.5"/>
<text text-anchor="middle" x="611" y="-175.5" font-family="Helvetica,sans-Serif" font-size="10.00">strings/String.cpp</text>
</a>
</g>
</g>
<!-- Node2&#45;&gt;Node18 -->
<g id="edge24" class="edge"><title>Node2&#45;&gt;Node18</title>
<path fill="none" stroke="midnightblue" d="M463.59,-221.568C498.866,-211.381 549.694,-196.703 581.508,-187.516"/>
<polygon fill="midnightblue" stroke="midnightblue" points="462.267,-218.307 453.631,-224.444 464.209,-225.032 462.267,-218.307"/>
</g>
<!-- Node4 -->
<g id="node4" class="node"><title>Node4</title>
<g id="a_node4"><a xlink:href="../../de/d66/_packet_constructor_8h.html" target="_top" xlink:title="comm/PacketConstructor.h">
<polygon fill="white" stroke="black" points="40.5,-112.5 40.5,-131.5 177.5,-131.5 177.5,-112.5 40.5,-112.5"/>
<text text-anchor="middle" x="109" y="-119.5" font-family="Helvetica,sans-Serif" font-size="10.00">comm/PacketConstructor.h</text>
</a>
</g>
</g>
<!-- Node3&#45;&gt;Node4 -->
<g id="edge3" class="edge"><title>Node3&#45;&gt;Node4</title>
<path fill="none" stroke="midnightblue" d="M136.3,-159.855C129.374,-150.505 121.094,-139.327 115.482,-131.751"/>
<polygon fill="midnightblue" stroke="midnightblue" points="133.63,-162.131 142.395,-168.083 139.255,-157.964 133.63,-162.131"/>
</g>
<!-- Node5 -->
<g id="node5" class="node"><title>Node5</title>
<g id="a_node5"><a xlink:href="../../d9/dde/_packet_constructor_8cpp.html" target="_top" xlink:title="Creates a packet for sending data from the slave systems to the main computer. ">
<polygon fill="white" stroke="black" points="-0.5,-56.5 -0.5,-75.5 146.5,-75.5 146.5,-56.5 -0.5,-56.5"/>
<text text-anchor="middle" x="73" y="-63.5" font-family="Helvetica,sans-Serif" font-size="10.00">comm/PacketConstructor.cpp</text>
</a>
</g>
</g>
<!-- Node4&#45;&gt;Node5 -->
<g id="edge4" class="edge"><title>Node4&#45;&gt;Node5</title>
<path fill="none" stroke="midnightblue" d="M97.3771,-103.566C91.1832,-94.2747 83.8323,-83.2484 78.8341,-75.7511"/>
<polygon fill="midnightblue" stroke="midnightblue" points="94.5961,-105.704 103.055,-112.083 100.42,-101.821 94.5961,-105.704"/>
</g>
<!-- Node7 -->
<g id="node7" class="node"><title>Node7</title>
<g id="a_node7"><a xlink:href="../../df/d03/_array_heap_8h.html" target="_top" xlink:title="Heap manipulation and implementation. ">
<polygon fill="white" stroke="black" points="164.5,-56.5 164.5,-75.5 249.5,-75.5 249.5,-56.5 164.5,-56.5"/>
<text text-anchor="middle" x="207" y="-63.5" font-family="Helvetica,sans-Serif" font-size="10.00">stl/ArrayHeap.h</text>
</a>
</g>
</g>
<!-- Node6&#45;&gt;Node7 -->
<g id="edge6" class="edge"><title>Node6&#45;&gt;Node7</title>
<path fill="none" stroke="midnightblue" d="M260.966,-106.38C247.591,-96.6204 230.441,-84.1057 219.106,-75.8339"/>
<polygon fill="midnightblue" stroke="midnightblue" points="258.97,-109.257 269.111,-112.324 263.096,-103.602 258.97,-109.257"/>
</g>
<!-- Node8 -->
<g id="node8" class="node"><title>Node8</title>
<g id="a_node8"><a xlink:href="../../d5/d08/_red_black_tree_8h.html" target="_top" xlink:title="Red black tree implementation. ">
<polygon fill="white" stroke="black" points="267.5,-56.5 267.5,-75.5 368.5,-75.5 368.5,-56.5 267.5,-56.5"/>
<text text-anchor="middle" x="318" y="-63.5" font-family="Helvetica,sans-Serif" font-size="10.00">stl/RedBlackTree.h</text>
</a>
</g>
</g>
<!-- Node6&#45;&gt;Node8 -->
<g id="edge7" class="edge"><title>Node6&#45;&gt;Node8</title>
<path fill="none" stroke="midnightblue" d="M292.946,-103.566C299.312,-94.2747 306.867,-83.2484 312.004,-75.7511"/>
<polygon fill="midnightblue" stroke="midnightblue" points="289.875,-101.855 287.11,-112.083 295.649,-105.812 289.875,-101.855"/>
</g>
<!-- Node9 -->
<g id="node9" class="node"><title>Node9</title>
<g id="a_node9"><a xlink:href="../../df/d87/_tree_map_8h.html" target="_top" xlink:title="Map implementation using red black tree. ">
<polygon fill="white" stroke="black" points="232.5,-0.5 232.5,-19.5 309.5,-19.5 309.5,-0.5 232.5,-0.5"/>
<text text-anchor="middle" x="271" y="-7.5" font-family="Helvetica,sans-Serif" font-size="10.00">stl/TreeMap.h</text>
</a>
</g>
</g>
<!-- Node8&#45;&gt;Node9 -->
<g id="edge8" class="edge"><title>Node8&#45;&gt;Node9</title>
<path fill="none" stroke="midnightblue" d="M303.579,-48.4314C295.342,-38.9673 285.346,-27.4827 278.617,-19.7511"/>
<polygon fill="midnightblue" stroke="midnightblue" points="301.034,-50.8378 310.239,-56.083 306.314,-46.2421 301.034,-50.8378"/>
</g>
<!-- Node10 -->
<g id="node10" class="node"><title>Node10</title>
<g id="a_node10"><a xlink:href="../../dd/dba/_tree_set_8h.html" target="_top" xlink:title="Set implementation using red black tree. ">
<polygon fill="white" stroke="black" points="327.5,-0.5 327.5,-19.5 400.5,-19.5 400.5,-0.5 327.5,-0.5"/>
<text text-anchor="middle" x="364" y="-7.5" font-family="Helvetica,sans-Serif" font-size="10.00">stl/TreeSet.h</text>
</a>
</g>
</g>
<!-- Node8&#45;&gt;Node10 -->
<g id="edge9" class="edge"><title>Node8&#45;&gt;Node10</title>
<path fill="none" stroke="midnightblue" d="M332.114,-48.4314C340.176,-38.9673 349.959,-27.4827 356.545,-19.7511"/>
<polygon fill="midnightblue" stroke="midnightblue" points="329.416,-46.2009 325.596,-56.083 334.745,-50.7402 329.416,-46.2009"/>
</g>
<!-- Node11&#45;&gt;Node6 -->
<g id="edge11" class="edge"><title>Node11&#45;&gt;Node6</title>
<path fill="none" stroke="midnightblue" d="M391.973,-164.906C365.088,-154.754 327.359,-140.506 303.553,-131.516"/>
<polygon fill="midnightblue" stroke="midnightblue" points="390.75,-168.185 401.341,-168.444 393.222,-161.636 390.75,-168.185"/>
</g>
<!-- Node12 -->
<g id="node12" class="node"><title>Node12</title>
<g id="a_node12"><a xlink:href="../../d3/dbe/_chain_map_8h.html" target="_top" xlink:title="Hasher map implementation. ">
<polygon fill="white" stroke="black" points="382.5,-112.5 382.5,-131.5 465.5,-131.5 465.5,-112.5 382.5,-112.5"/>
<text text-anchor="middle" x="424" y="-119.5" font-family="Helvetica,sans-Serif" font-size="10.00">stl/ChainMap.h</text>
</a>
</g>
</g>
<!-- Node11&#45;&gt;Node12 -->
<g id="edge12" class="edge"><title>Node11&#45;&gt;Node12</title>
<path fill="none" stroke="midnightblue" d="M424,-157.805C424,-148.91 424,-138.78 424,-131.751"/>
<polygon fill="midnightblue" stroke="midnightblue" points="420.5,-158.083 424,-168.083 427.5,-158.083 420.5,-158.083"/>
</g>
<!-- Node14 -->
<g id="node14" class="node"><title>Node14</title>
<g id="a_node14"><a xlink:href="../../d5/d7a/_open_map_8h.html" target="_top" xlink:title="Hash map implementation. ">
<polygon fill="white" stroke="black" points="486,-56.5 486,-75.5 566,-75.5 566,-56.5 486,-56.5"/>
<text text-anchor="middle" x="526" y="-63.5" font-family="Helvetica,sans-Serif" font-size="10.00">stl/OpenMap.h</text>
</a>
</g>
</g>
<!-- Node11&#45;&gt;Node14 -->
<g id="edge14" class="edge"><title>Node11&#45;&gt;Node14</title>
<path fill="none" stroke="midnightblue" d="M400.312,-163C381.249,-149.933 359.661,-129.827 373,-112 380.07,-102.551 445.59,-85.7271 488.566,-75.5436"/>
<polygon fill="midnightblue" stroke="midnightblue" points="398.464,-165.973 408.759,-168.475 402.271,-160.099 398.464,-165.973"/>
</g>
<!-- Node15 -->
<g id="node15" class="node"><title>Node15</title>
<g id="a_node15"><a xlink:href="../../d8/d2e/_open_table_8h.html" target="_top" xlink:title="stl/OpenTable.h">
<polygon fill="white" stroke="black" points="484,-112.5 484,-131.5 570,-131.5 570,-112.5 484,-112.5"/>
<text text-anchor="middle" x="527" y="-119.5" font-family="Helvetica,sans-Serif" font-size="10.00">stl/OpenTable.h</text>
</a>
</g>
</g>
<!-- Node11&#45;&gt;Node15 -->
<g id="edge15" class="edge"><title>Node11&#45;&gt;Node15</title>
<path fill="none" stroke="midnightblue" d="M449.579,-163.59C468.623,-153.605 494.064,-140.267 510.492,-131.655"/>
<polygon fill="midnightblue" stroke="midnightblue" points="447.78,-160.581 440.549,-168.324 451.031,-166.78 447.78,-160.581"/>
</g>
<!-- Node16 -->
<g id="node16" class="node"><title>Node16</title>
<g id="a_node16"><a xlink:href="../../d0/de6/_open_set_8h.html" target="_top" xlink:title="Hash set implementation. ">
<polygon fill="white" stroke="black" points="584.5,-56.5 584.5,-75.5 661.5,-75.5 661.5,-56.5 584.5,-56.5"/>
<text text-anchor="middle" x="623" y="-63.5" font-family="Helvetica,sans-Serif" font-size="10.00">stl/OpenSet.h</text>
</a>
</g>
</g>
<!-- Node11&#45;&gt;Node16 -->
<g id="edge18" class="edge"><title>Node11&#45;&gt;Node16</title>
<path fill="none" stroke="midnightblue" d="M465.688,-168.261C505.135,-159.401 560.92,-145.159 579,-132 599.493,-117.085 613.435,-89.5303 619.526,-75.5765"/>
<polygon fill="midnightblue" stroke="midnightblue" points="464.803,-164.872 455.794,-170.448 466.314,-171.707 464.803,-164.872"/>
</g>
<!-- Node13 -->
<g id="node13" class="node"><title>Node13</title>
<g id="a_node13"><a xlink:href="../../d6/d59/_chain_set_8h.html" target="_top" xlink:title="Hash set implementation. ">
<polygon fill="white" stroke="black" points="386.5,-56.5 386.5,-75.5 465.5,-75.5 465.5,-56.5 386.5,-56.5"/>
<text text-anchor="middle" x="426" y="-63.5" font-family="Helvetica,sans-Serif" font-size="10.00">stl/ChainSet.h</text>
</a>
</g>
</g>
<!-- Node12&#45;&gt;Node13 -->
<g id="edge13" class="edge"><title>Node12&#45;&gt;Node13</title>
<path fill="none" stroke="midnightblue" d="M424.711,-101.805C425.04,-92.9102 425.416,-82.7798 425.676,-75.7511"/>
<polygon fill="midnightblue" stroke="midnightblue" points="421.203,-101.96 424.33,-112.083 428.198,-102.219 421.203,-101.96"/>
</g>
<!-- Node15&#45;&gt;Node14 -->
<g id="edge16" class="edge"><title>Node15&#45;&gt;Node14</title>
<path fill="none" stroke="midnightblue" d="M526.645,-101.805C526.48,-92.9102 526.292,-82.7798 526.162,-75.7511"/>
<polygon fill="midnightblue" stroke="midnightblue" points="523.15,-102.15 526.835,-112.083 530.149,-102.02 523.15,-102.15"/>
</g>
<!-- Node15&#45;&gt;Node16 -->
<g id="edge17" class="edge"><title>Node15&#45;&gt;Node16</title>
<path fill="none" stroke="midnightblue" d="M551.574,-107.177C569.239,-97.2407 592.513,-84.1492 607.614,-75.6545"/>
<polygon fill="midnightblue" stroke="midnightblue" points="549.424,-104.371 542.424,-112.324 552.856,-110.472 549.424,-104.371"/>
</g>
<!-- Node17&#45;&gt;Node12 -->
<g id="edge20" class="edge"><title>Node17&#45;&gt;Node12</title>
<path fill="none" stroke="midnightblue" d="M492.45,-163.177C475.521,-153.241 453.217,-140.149 438.745,-131.655"/>
<polygon fill="midnightblue" stroke="midnightblue" points="490.823,-166.28 501.219,-168.324 494.366,-160.243 490.823,-166.28"/>
</g>
<!-- Node17&#45;&gt;Node14 -->
<g id="edge21" class="edge"><title>Node17&#45;&gt;Node14</title>
<path fill="none" stroke="midnightblue" d="M545.822,-163.606C558.479,-156.234 571.923,-145.753 579,-132 590.66,-109.343 561.611,-87.2879 542.062,-75.5993"/>
<polygon fill="midnightblue" stroke="midnightblue" points="544.001,-160.611 536.847,-168.427 547.313,-166.778 544.001,-160.611"/>
</g>
<!-- Node17&#45;&gt;Node15 -->
<g id="edge22" class="edge"><title>Node17&#45;&gt;Node15</title>
<path fill="none" stroke="midnightblue" d="M519.85,-158.101C521.676,-149.136 523.77,-138.858 525.217,-131.751"/>
<polygon fill="midnightblue" stroke="midnightblue" points="516.383,-157.586 517.816,-168.083 523.242,-158.983 516.383,-157.586"/>
</g>
<!-- Node17&#45;&gt;Node16 -->
<g id="edge23" class="edge"><title>Node17&#45;&gt;Node16</title>
<path fill="none" stroke="midnightblue" d="M548.8,-164.205C564.449,-156.751 582.449,-146.028 595,-132 610.075,-115.151 617.944,-88.9433 621.179,-75.5343"/>
<polygon fill="midnightblue" stroke="midnightblue" points="547.111,-161.127 539.43,-168.424 549.985,-167.51 547.111,-161.127"/>
</g>
</g>
</svg>
