<?xml version="1.0" encoding="UTF-8" standalone="no"?>
<!DOCTYPE svg PUBLIC "-//W3C//DTD SVG 1.1//EN"
 "http://www.w3.org/Graphics/SVG/1.1/DTD/svg11.dtd">
<!-- Generated by graphviz version 2.36.0 (20140111.2315)
 -->
<!-- Title: wlp::tree_map::find Pages: 1 -->
<svg width="310pt" height="28pt"
 viewBox="0.00 0.00 310.00 28.00" xmlns="http://www.w3.org/2000/svg" xmlns:xlink="http://www.w3.org/1999/xlink">
<g id="graph0" class="graph" transform="scale(1 1) rotate(0) translate(4 24)">
<title>wlp::tree_map::find</title>
<polygon fill="white" stroke="none" points="-4,4 -4,-24 306,-24 306,4 -4,4"/>
<!-- Node1 -->
<g id="node1" class="node"><title>Node1</title>
<polygon fill="#bfbfbf" stroke="black" points="0,-0.5 0,-19.5 100,-19.5 100,-0.5 0,-0.5"/>
<text text-anchor="middle" x="50" y="-7.5" font-family="Helvetica,sans-Serif" font-size="10.00">wlp::tree_map::find</text>
</g>
<!-- Node2 -->
<g id="node2" class="node"><title>Node2</title>
<g id="a_node2"><a xlink:href="../../d9/d40/classwlp_1_1tree.html#a7c1cb0fd5cf754ff4365bc22f3ed88e2" target="_top" xlink:title="wlp::tree::find">
<polygon fill="white" stroke="black" points="136,-0.5 136,-19.5 212,-19.5 212,-0.5 136,-0.5"/>
<text text-anchor="middle" x="174" y="-7.5" font-family="Helvetica,sans-Serif" font-size="10.00">wlp::tree::find</text>
</a>
</g>
</g>
<!-- Node1&#45;&gt;Node2 -->
<g id="edge1" class="edge"><title>Node1&#45;&gt;Node2</title>
<path fill="none" stroke="midnightblue" d="M100.27,-10C108.733,-10 117.509,-10 125.913,-10"/>
<polygon fill="midnightblue" stroke="midnightblue" points="125.933,-13.5001 135.933,-10 125.933,-6.5001 125.933,-13.5001"/>
</g>
<!-- Node3 -->
<g id="node3" class="node"><title>Node3</title>
<g id="a_node3"><a xlink:href="../../d5/dca/namespacewlp.html#acb167abbdf8459dff488f7d10bc3d09a" target="_top" xlink:title="wlp::end">
<polygon fill="white" stroke="black" points="248.5,-0.5 248.5,-19.5 301.5,-19.5 301.5,-0.5 248.5,-0.5"/>
<text text-anchor="middle" x="275" y="-7.5" font-family="Helvetica,sans-Serif" font-size="10.00">wlp::end</text>
</a>
</g>
</g>
<!-- Node2&#45;&gt;Node3 -->
<g id="edge2" class="edge"><title>Node2&#45;&gt;Node3</title>
<path fill="none" stroke="midnightblue" d="M212.146,-10C220.727,-10 229.838,-10 238.354,-10"/>
<polygon fill="midnightblue" stroke="midnightblue" points="238.37,-13.5001 248.37,-10 238.37,-6.5001 238.37,-13.5001"/>
</g>
</g>
</svg>
