<?xml version="1.0" encoding="UTF-8" standalone="no"?>
<!DOCTYPE svg PUBLIC "-//W3C//DTD SVG 1.1//EN"
 "http://www.w3.org/Graphics/SVG/1.1/DTD/svg11.dtd">
<!-- Generated by graphviz version 2.36.0 (20140111.2315)
 -->
<!-- Title: wlp::tree_map::insert_or_assign Pages: 1 -->
<svg width="360pt" height="142pt"
 viewBox="0.00 0.00 360.00 142.00" xmlns="http://www.w3.org/2000/svg" xmlns:xlink="http://www.w3.org/1999/xlink">
<g id="graph0" class="graph" transform="scale(1 1) rotate(0) translate(4 138)">
<title>wlp::tree_map::insert_or_assign</title>
<polygon fill="white" stroke="none" points="-4,4 -4,-138 356,-138 356,4 -4,4"/>
<!-- Node1 -->
<g id="node1" class="node"><title>Node1</title>
<polygon fill="#bfbfbf" stroke="black" points="0,-52 0,-82 108,-82 108,-52 0,-52"/>
<text text-anchor="start" x="8" y="-70" font-family="Helvetica,sans-Serif" font-size="10.00">wlp::tree_map::insert</text>
<text text-anchor="middle" x="54" y="-59" font-family="Helvetica,sans-Serif" font-size="10.00">_or_assign</text>
</g>
<!-- Node2 -->
<g id="node2" class="node"><title>Node2</title>
<g id="a_node2"><a xlink:href="../../d9/d40/classwlp_1_1tree.html#a26127e96f26477392b9d47e9557eebeb" target="_top" xlink:title="wlp::tree::end">
<polygon fill="white" stroke="black" points="165,-114.5 165,-133.5 241,-133.5 241,-114.5 165,-114.5"/>
<text text-anchor="middle" x="203" y="-121.5" font-family="Helvetica,sans-Serif" font-size="10.00">wlp::tree::end</text>
</a>
</g>
</g>
<!-- Node1&#45;&gt;Node2 -->
<g id="edge1" class="edge"><title>Node1&#45;&gt;Node2</title>
<path fill="none" stroke="midnightblue" d="M88.5297,-82.1329C105.087,-89.3959 125.446,-98.0152 144,-105 149.59,-107.105 155.531,-109.204 161.397,-111.198"/>
<polygon fill="midnightblue" stroke="midnightblue" points="160.53,-114.598 171.123,-114.436 162.741,-107.956 160.53,-114.598"/>
</g>
<!-- Node3 -->
<g id="node3" class="node"><title>Node3</title>
<g id="a_node3"><a xlink:href="../../d9/d40/classwlp_1_1tree.html#a7c1cb0fd5cf754ff4365bc22f3ed88e2" target="_top" xlink:title="wlp::tree::find">
<polygon fill="white" stroke="black" points="165,-76.5 165,-95.5 241,-95.5 241,-76.5 165,-76.5"/>
<text text-anchor="middle" x="203" y="-83.5" font-family="Helvetica,sans-Serif" font-size="10.00">wlp::tree::find</text>
</a>
</g>
</g>
<!-- Node1&#45;&gt;Node3 -->
<g id="edge2" class="edge"><title>Node1&#45;&gt;Node3</title>
<path fill="none" stroke="midnightblue" d="M108.07,-73.8594C123.305,-75.8286 139.812,-77.9621 154.676,-79.8833"/>
<polygon fill="midnightblue" stroke="midnightblue" points="154.302,-83.364 164.668,-81.1748 155.199,-76.4217 154.302,-83.364"/>
</g>
<!-- Node5 -->
<g id="node5" class="node"><title>Node5</title>
<g id="a_node5"><a xlink:href="../../d9/d40/classwlp_1_1tree.html#a3b4a29b578e8941186f8ee6661be6510" target="_top" xlink:title="wlp::tree::insert_unique">
<polygon fill="white" stroke="black" points="144,-38.5 144,-57.5 262,-57.5 262,-38.5 144,-38.5"/>
<text text-anchor="middle" x="203" y="-45.5" font-family="Helvetica,sans-Serif" font-size="10.00">wlp::tree::insert_unique</text>
</a>
</g>
</g>
<!-- Node1&#45;&gt;Node5 -->
<g id="edge4" class="edge"><title>Node1&#45;&gt;Node5</title>
<path fill="none" stroke="midnightblue" d="M108.07,-60.1406C116.405,-59.0633 125.12,-57.9369 133.738,-56.8229"/>
<polygon fill="midnightblue" stroke="midnightblue" points="134.314,-60.2777 143.783,-55.5247 133.417,-53.3355 134.314,-60.2777"/>
</g>
<!-- Node6 -->
<g id="node6" class="node"><title>Node6</title>
<g id="a_node6"><a xlink:href="../../d5/dca/namespacewlp.html#a8a8dfd3df3d34c44aaf3c39f94cfeab6" target="_top" xlink:title="wlp::make_tuple">
<polygon fill="white" stroke="black" points="159,-0.5 159,-19.5 247,-19.5 247,-0.5 159,-0.5"/>
<text text-anchor="middle" x="203" y="-7.5" font-family="Helvetica,sans-Serif" font-size="10.00">wlp::make_tuple</text>
</a>
</g>
</g>
<!-- Node1&#45;&gt;Node6 -->
<g id="edge5" class="edge"><title>Node1&#45;&gt;Node6</title>
<path fill="none" stroke="midnightblue" d="M88.5297,-51.8671C105.087,-44.6041 125.446,-35.9848 144,-29 149.59,-26.8954 155.531,-24.7963 161.397,-22.8024"/>
<polygon fill="midnightblue" stroke="midnightblue" points="162.741,-26.0439 171.123,-19.5637 160.53,-19.4024 162.741,-26.0439"/>
</g>
<!-- Node4 -->
<g id="node4" class="node"><title>Node4</title>
<g id="a_node4"><a xlink:href="../../d5/dca/namespacewlp.html#acb167abbdf8459dff488f7d10bc3d09a" target="_top" xlink:title="wlp::end">
<polygon fill="white" stroke="black" points="298.5,-76.5 298.5,-95.5 351.5,-95.5 351.5,-76.5 298.5,-76.5"/>
<text text-anchor="middle" x="325" y="-83.5" font-family="Helvetica,sans-Serif" font-size="10.00">wlp::end</text>
</a>
</g>
</g>
<!-- Node3&#45;&gt;Node4 -->
<g id="edge3" class="edge"><title>Node3&#45;&gt;Node4</title>
<path fill="none" stroke="midnightblue" d="M241.311,-86C256.259,-86 273.411,-86 288.204,-86"/>
<polygon fill="midnightblue" stroke="midnightblue" points="288.494,-89.5001 298.494,-86 288.494,-82.5001 288.494,-89.5001"/>
</g>
</g>
</svg>
