<?xml version="1.0" encoding="UTF-8" standalone="no"?>
<!DOCTYPE svg PUBLIC "-//W3C//DTD SVG 1.1//EN"
 "http://www.w3.org/Graphics/SVG/1.1/DTD/svg11.dtd">
<!-- Generated by graphviz version 2.36.0 (20140111.2315)
 -->
<!-- Title: wlp::array_list&lt; T &gt; Pages: 1 -->
<svg width="135pt" height="106pt"
 viewBox="0.00 0.00 135.00 106.00" xmlns="http://www.w3.org/2000/svg" xmlns:xlink="http://www.w3.org/1999/xlink">
<g id="graph0" class="graph" transform="scale(1 1) rotate(0) translate(4 102)">
<title>wlp::array_list&lt; T &gt;</title>
<polygon fill="white" stroke="none" points="-4,4 -4,-102 131,-102 131,4 -4,4"/>
<!-- Node1 -->
<g id="node1" class="node"><title>Node1</title>
<polygon fill="#bfbfbf" stroke="black" points="8.5,-0.5 8.5,-19.5 109.5,-19.5 109.5,-0.5 8.5,-0.5"/>
<text text-anchor="middle" x="59" y="-7.5" font-family="Helvetica,sans-Serif" font-size="10.00">wlp::array_list&lt; T &gt;</text>
</g>
<!-- Node2 -->
<g id="node2" class="node"><title>Node2</title>
<polygon fill="white" stroke="#bfbfbf" points="-0.5,-78.5 -0.5,-97.5 42.5,-97.5 42.5,-78.5 -0.5,-78.5"/>
<text text-anchor="middle" x="21" y="-85.5" font-family="Helvetica,sans-Serif" font-size="10.00">size_t</text>
</g>
<!-- Node2&#45;&gt;Node1 -->
<g id="edge1" class="edge"><title>Node2&#45;&gt;Node1</title>
<path fill="none" stroke="#9a32cd" stroke-dasharray="5,2" d="M17.5959,-68.3894C16.7494,-58.8012 17.1954,-47.2198 22,-38 26.1159,-30.1018 33.7124,-23.9465 40.9562,-19.5209"/>
<polygon fill="#9a32cd" stroke="#9a32cd" points="14.1536,-69.0471 18.9996,-78.4687 21.0867,-68.0815 14.1536,-69.0471"/>
<text text-anchor="middle" x="49" y="-52" font-family="Helvetica,sans-Serif" font-size="10.00"> m_capacity</text>
<text text-anchor="middle" x="49" y="-41" font-family="Helvetica,sans-Serif" font-size="10.00">m_size</text>
</g>
<!-- Node3 -->
<g id="node3" class="node"><title>Node3</title>
<polygon fill="white" stroke="#bfbfbf" points="68,-78.5 68,-97.5 128,-97.5 128,-78.5 68,-78.5"/>
<text text-anchor="middle" x="98" y="-85.5" font-family="Helvetica,sans-Serif" font-size="10.00">val_type *</text>
</g>
<!-- Node3&#45;&gt;Node1 -->
<g id="edge2" class="edge"><title>Node3&#45;&gt;Node1</title>
<path fill="none" stroke="#9a32cd" stroke-dasharray="5,2" d="M90.5062,-68.6986C86.5025,-59.3617 81.3125,-47.9131 76,-38 72.6509,-31.7506 68.4009,-25.0006 64.9882,-19.813"/>
<polygon fill="#9a32cd" stroke="#9a32cd" points="87.3731,-70.2781 94.4657,-78.1486 93.8293,-67.5729 87.3731,-70.2781"/>
<text text-anchor="middle" x="105" y="-46.5" font-family="Helvetica,sans-Serif" font-size="10.00"> m_data</text>
</g>
</g>
</svg>
