<?xml version="1.0" encoding="UTF-8" standalone="no"?>
<!DOCTYPE svg PUBLIC "-//W3C//DTD SVG 1.1//EN"
 "http://www.w3.org/Graphics/SVG/1.1/DTD/svg11.dtd">
<!-- Generated by graphviz version 2.36.0 (20140111.2315)
 -->
<!-- Title: wlp::ArrayList::begin Pages: 1 -->
<svg width="262pt" height="104pt"
 viewBox="0.00 0.00 262.00 104.00" xmlns="http://www.w3.org/2000/svg" xmlns:xlink="http://www.w3.org/1999/xlink">
<g id="graph0" class="graph" transform="scale(1 1) rotate(0) translate(4 100)">
<title>wlp::ArrayList::begin</title>
<polygon fill="white" stroke="none" points="-4,4 -4,-100 258,-100 258,4 -4,4"/>
<!-- Node1 -->
<g id="node1" class="node"><title>Node1</title>
<polygon fill="#bfbfbf" stroke="black" points="0,-38.5 0,-57.5 106,-57.5 106,-38.5 0,-38.5"/>
<text text-anchor="middle" x="53" y="-45.5" font-family="Helvetica,sans-Serif" font-size="10.00">wlp::ArrayList::begin</text>
</g>
<!-- Node2 -->
<g id="node2" class="node"><title>Node2</title>
<g id="a_node2"><a xlink:href="../../d5/dca/namespacewlp.html#a2329b0c52ca1a59525aea1d75476ef10" target="_top" xlink:title="wlp::heap_sort">
<polygon fill="white" stroke="black" points="158,-76.5 158,-95.5 238,-95.5 238,-76.5 158,-76.5"/>
<text text-anchor="middle" x="198" y="-83.5" font-family="Helvetica,sans-Serif" font-size="10.00">wlp::heap_sort</text>
</a>
</g>
</g>
<!-- Node1&#45;&gt;Node2 -->
<g id="edge1" class="edge"><title>Node1&#45;&gt;Node2</title>
<path fill="none" stroke="midnightblue" d="M99.8133,-60.1742C119.587,-65.4287 142.384,-71.4866 160.927,-76.4141"/>
<polygon fill="midnightblue" stroke="midnightblue" points="100.648,-56.7747 90.0849,-57.589 98.8506,-63.5399 100.648,-56.7747"/>
</g>
<!-- Node3 -->
<g id="node3" class="node"><title>Node3</title>
<g id="a_node3"><a xlink:href="../../dd/dd6/classwlp_1_1_array_heap.html#a98362b142533a56d1b2e0a35acd944d7" target="_top" xlink:title="wlp::ArrayHeap::pop">
<polygon fill="white" stroke="black" points="145,-38.5 145,-57.5 251,-57.5 251,-38.5 145,-38.5"/>
<text text-anchor="middle" x="198" y="-45.5" font-family="Helvetica,sans-Serif" font-size="10.00">wlp::ArrayHeap::pop</text>
</a>
</g>
</g>
<!-- Node1&#45;&gt;Node3 -->
<g id="edge2" class="edge"><title>Node1&#45;&gt;Node3</title>
<path fill="none" stroke="midnightblue" d="M116.238,-48C125.755,-48 135.495,-48 144.768,-48"/>
<polygon fill="midnightblue" stroke="midnightblue" points="116.031,-44.5001 106.031,-48 116.031,-51.5001 116.031,-44.5001"/>
</g>
<!-- Node4 -->
<g id="node4" class="node"><title>Node4</title>
<g id="a_node4"><a xlink:href="../../dd/dd6/classwlp_1_1_array_heap.html#aa98a1796d8d8557ec0b361108c2a8898" target="_top" xlink:title="wlp::ArrayHeap::push">
<polygon fill="white" stroke="black" points="142.5,-0.5 142.5,-19.5 253.5,-19.5 253.5,-0.5 142.5,-0.5"/>
<text text-anchor="middle" x="198" y="-7.5" font-family="Helvetica,sans-Serif" font-size="10.00">wlp::ArrayHeap::push</text>
</a>
</g>
</g>
<!-- Node1&#45;&gt;Node4 -->
<g id="edge3" class="edge"><title>Node1&#45;&gt;Node4</title>
<path fill="none" stroke="midnightblue" d="M99.8133,-35.8258C119.587,-30.5713 142.384,-24.5134 160.927,-19.5859"/>
<polygon fill="midnightblue" stroke="midnightblue" points="98.8506,-32.4601 90.0849,-38.411 100.648,-39.2253 98.8506,-32.4601"/>
</g>
</g>
</svg>
