<?xml version="1.0" encoding="UTF-8" standalone="no"?>
<!DOCTYPE svg PUBLIC "-//W3C//DTD SVG 1.1//EN"
 "http://www.w3.org/Graphics/SVG/1.1/DTD/svg11.dtd">
<!-- Generated by graphviz version 2.36.0 (20140111.2315)
 -->
<!-- Title: wlp::ArrayList::insert Pages: 1 -->
<svg width="264pt" height="126pt"
 viewBox="0.00 0.00 264.00 126.00" xmlns="http://www.w3.org/2000/svg" xmlns:xlink="http://www.w3.org/1999/xlink">
<g id="graph0" class="graph" transform="scale(1 1) rotate(0) translate(4 122)">
<title>wlp::ArrayList::insert</title>
<polygon fill="white" stroke="none" points="-4,4 -4,-122 260,-122 260,4 -4,4"/>
<!-- Node1 -->
<g id="node1" class="node"><title>Node1</title>
<polygon fill="#bfbfbf" stroke="black" points="0.5,-54.5 0.5,-73.5 107.5,-73.5 107.5,-54.5 0.5,-54.5"/>
<text text-anchor="middle" x="54" y="-61.5" font-family="Helvetica,sans-Serif" font-size="10.00">wlp::ArrayList::insert</text>
</g>
<!-- Node2 -->
<g id="node2" class="node"><title>Node2</title>
<g id="a_node2"><a xlink:href="../../db/d49/classwlp_1_1_array_list.html#af08d43457fe9ce1437543fc458198b57" target="_top" xlink:title="wlp::ArrayList::end">
<polygon fill="white" stroke="black" points="151,-98.5 151,-117.5 249,-117.5 249,-98.5 151,-98.5"/>
<text text-anchor="middle" x="200" y="-105.5" font-family="Helvetica,sans-Serif" font-size="10.00">wlp::ArrayList::end</text>
</a>
</g>
</g>
<!-- Node1&#45;&gt;Node2 -->
<g id="edge1" class="edge"><title>Node1&#45;&gt;Node2</title>
<path fill="none" stroke="midnightblue" d="M86.2459,-73.5473C107.286,-79.9763 135.249,-88.5206 158.064,-95.4918"/>
<polygon fill="midnightblue" stroke="midnightblue" points="157.229,-98.8963 167.815,-98.4713 159.274,-92.2018 157.229,-98.8963"/>
</g>
<!-- Node3 -->
<g id="node3" class="node"><title>Node3</title>
<g id="a_node3"><a xlink:href="../../db/d49/classwlp_1_1_array_list.html#aec40fe5620a962155af323974f0af329" target="_top" xlink:title="wlp::ArrayList::ensure\l_capacity">
<polygon fill="white" stroke="black" points="144,-49 144,-79 256,-79 256,-49 144,-49"/>
<text text-anchor="start" x="152" y="-67" font-family="Helvetica,sans-Serif" font-size="10.00">wlp::ArrayList::ensure</text>
<text text-anchor="middle" x="200" y="-56" font-family="Helvetica,sans-Serif" font-size="10.00">_capacity</text>
</a>
</g>
</g>
<!-- Node1&#45;&gt;Node3 -->
<g id="edge2" class="edge"><title>Node1&#45;&gt;Node3</title>
<path fill="none" stroke="midnightblue" d="M107.803,-64C116.226,-64 125.027,-64 133.698,-64"/>
<polygon fill="midnightblue" stroke="midnightblue" points="133.786,-67.5001 143.786,-64 133.786,-60.5001 133.786,-67.5001"/>
</g>
<!-- Node4 -->
<g id="node4" class="node"><title>Node4</title>
<g id="a_node4"><a xlink:href="../../db/d49/classwlp_1_1_array_list.html#aad073c679e615cc1a5b7c73331f6a476" target="_top" xlink:title="wlp::ArrayList::shift\l_right">
<polygon fill="white" stroke="black" points="149.5,-0 149.5,-30 250.5,-30 250.5,-0 149.5,-0"/>
<text text-anchor="start" x="157.5" y="-18" font-family="Helvetica,sans-Serif" font-size="10.00">wlp::ArrayList::shift</text>
<text text-anchor="middle" x="200" y="-7" font-family="Helvetica,sans-Serif" font-size="10.00">_right</text>
</a>
</g>
</g>
<!-- Node1&#45;&gt;Node4 -->
<g id="edge3" class="edge"><title>Node1&#45;&gt;Node4</title>
<path fill="none" stroke="midnightblue" d="M83.1065,-54.436C100.78,-48.4221 124.16,-40.4665 145.289,-33.2768"/>
<polygon fill="midnightblue" stroke="midnightblue" points="146.47,-36.5718 154.81,-30.037 144.215,-29.945 146.47,-36.5718"/>
</g>
</g>
</svg>
