<?xml version="1.0" encoding="UTF-8" standalone="no"?>
<!DOCTYPE svg PUBLIC "-//W3C//DTD SVG 1.1//EN"
 "http://www.w3.org/Graphics/SVG/1.1/DTD/svg11.dtd">
<!-- Generated by graphviz version 2.36.0 (20140111.2315)
 -->
<!-- Title: wlp::ArrayList::end Pages: 1 -->
<svg width="254pt" height="142pt"
 viewBox="0.00 0.00 254.00 142.00" xmlns="http://www.w3.org/2000/svg" xmlns:xlink="http://www.w3.org/1999/xlink">
<g id="graph0" class="graph" transform="scale(1 1) rotate(0) translate(4 138)">
<title>wlp::ArrayList::end</title>
<polygon fill="white" stroke="none" points="-4,4 -4,-138 250,-138 250,4 -4,4"/>
<!-- Node1 -->
<g id="node1" class="node"><title>Node1</title>
<polygon fill="#bfbfbf" stroke="black" points="0,-57.5 0,-76.5 98,-76.5 98,-57.5 0,-57.5"/>
<text text-anchor="middle" x="49" y="-64.5" font-family="Helvetica,sans-Serif" font-size="10.00">wlp::ArrayList::end</text>
</g>
<!-- Node2 -->
<g id="node2" class="node"><title>Node2</title>
<g id="a_node2"><a xlink:href="../../db/d49/classwlp_1_1_array_list.html#ab8daaf07c18627e4cf386612912abdfa" target="_top" xlink:title="wlp::ArrayList::erase">
<polygon fill="white" stroke="black" points="136.5,-114.5 136.5,-133.5 243.5,-133.5 243.5,-114.5 136.5,-114.5"/>
<text text-anchor="middle" x="190" y="-121.5" font-family="Helvetica,sans-Serif" font-size="10.00">wlp::ArrayList::erase</text>
</a>
</g>
</g>
<!-- Node1&#45;&gt;Node2 -->
<g id="edge1" class="edge"><title>Node1&#45;&gt;Node2</title>
<path fill="none" stroke="midnightblue" d="M79.1746,-80.9976C95.203,-88.4845 115.526,-97.6487 134,-105 142.26,-108.287 151.34,-111.559 159.701,-114.439"/>
<polygon fill="midnightblue" stroke="midnightblue" points="80.3427,-77.679 69.8046,-76.5839 77.3597,-84.0116 80.3427,-77.679"/>
</g>
<!-- Node3 -->
<g id="node3" class="node"><title>Node3</title>
<g id="a_node3"><a xlink:href="../../d5/dca/namespacewlp.html#a2329b0c52ca1a59525aea1d75476ef10" target="_top" xlink:title="wlp::heap_sort">
<polygon fill="white" stroke="black" points="150,-76.5 150,-95.5 230,-95.5 230,-76.5 150,-76.5"/>
<text text-anchor="middle" x="190" y="-83.5" font-family="Helvetica,sans-Serif" font-size="10.00">wlp::heap_sort</text>
</a>
</g>
</g>
<!-- Node1&#45;&gt;Node3 -->
<g id="edge2" class="edge"><title>Node1&#45;&gt;Node3</title>
<path fill="none" stroke="midnightblue" d="M108.234,-74.96C122.175,-76.8656 136.738,-78.8562 149.597,-80.6139"/>
<polygon fill="midnightblue" stroke="midnightblue" points="108.607,-71.4786 98.2254,-73.592 107.659,-78.4141 108.607,-71.4786"/>
</g>
<!-- Node4 -->
<g id="node4" class="node"><title>Node4</title>
<g id="a_node4"><a xlink:href="../../dd/dd6/classwlp_1_1_array_heap.html#a98362b142533a56d1b2e0a35acd944d7" target="_top" xlink:title="wlp::ArrayHeap::pop">
<polygon fill="white" stroke="black" points="137,-38.5 137,-57.5 243,-57.5 243,-38.5 137,-38.5"/>
<text text-anchor="middle" x="190" y="-45.5" font-family="Helvetica,sans-Serif" font-size="10.00">wlp::ArrayHeap::pop</text>
</a>
</g>
</g>
<!-- Node1&#45;&gt;Node4 -->
<g id="edge3" class="edge"><title>Node1&#45;&gt;Node4</title>
<path fill="none" stroke="midnightblue" d="M108.275,-59.0343C117.67,-57.7502 127.346,-56.4276 136.591,-55.1638"/>
<polygon fill="midnightblue" stroke="midnightblue" points="107.659,-55.5859 98.2254,-60.408 108.607,-62.5214 107.659,-55.5859"/>
</g>
<!-- Node5 -->
<g id="node5" class="node"><title>Node5</title>
<g id="a_node5"><a xlink:href="../../dd/dd6/classwlp_1_1_array_heap.html#aa98a1796d8d8557ec0b361108c2a8898" target="_top" xlink:title="wlp::ArrayHeap::push">
<polygon fill="white" stroke="black" points="134.5,-0.5 134.5,-19.5 245.5,-19.5 245.5,-0.5 134.5,-0.5"/>
<text text-anchor="middle" x="190" y="-7.5" font-family="Helvetica,sans-Serif" font-size="10.00">wlp::ArrayHeap::push</text>
</a>
</g>
</g>
<!-- Node1&#45;&gt;Node5 -->
<g id="edge4" class="edge"><title>Node1&#45;&gt;Node5</title>
<path fill="none" stroke="midnightblue" d="M79.1746,-53.0024C95.203,-45.5155 115.526,-36.3513 134,-29 142.26,-25.713 151.34,-22.4407 159.701,-19.5614"/>
<polygon fill="midnightblue" stroke="midnightblue" points="77.3597,-49.9884 69.8046,-57.4161 80.3427,-56.321 77.3597,-49.9884"/>
</g>
</g>
</svg>
