<?xml version="1.0" encoding="UTF-8" standalone="no"?>
<!DOCTYPE svg PUBLIC "-//W3C//DTD SVG 1.1//EN"
 "http://www.w3.org/Graphics/SVG/1.1/DTD/svg11.dtd">
<!-- Generated by graphviz version 2.36.0 (20140111.2315)
 -->
<!-- Title: wlp::ArrayList::normalize Pages: 1 -->
<svg width="278pt" height="104pt"
 viewBox="0.00 0.00 278.00 104.00" xmlns="http://www.w3.org/2000/svg" xmlns:xlink="http://www.w3.org/1999/xlink">
<g id="graph0" class="graph" transform="scale(1 1) rotate(0) translate(4 100)">
<title>wlp::ArrayList::normalize</title>
<polygon fill="white" stroke="none" points="-4,4 -4,-100 274,-100 274,4 -4,4"/>
<!-- Node1 -->
<g id="node1" class="node"><title>Node1</title>
<polygon fill="#bfbfbf" stroke="black" points="0.5,-38.5 0.5,-57.5 125.5,-57.5 125.5,-38.5 0.5,-38.5"/>
<text text-anchor="middle" x="63" y="-45.5" font-family="Helvetica,sans-Serif" font-size="10.00">wlp::ArrayList::normalize</text>
</g>
<!-- Node2 -->
<g id="node2" class="node"><title>Node2</title>
<g id="a_node2"><a xlink:href="../../db/d49/classwlp_1_1_array_list.html#a9de4ee1e5189c0dd803c58bff19050ad" target="_top" xlink:title="wlp::ArrayList::at">
<polygon fill="white" stroke="black" points="170.5,-76.5 170.5,-95.5 261.5,-95.5 261.5,-76.5 170.5,-76.5"/>
<text text-anchor="middle" x="216" y="-83.5" font-family="Helvetica,sans-Serif" font-size="10.00">wlp::ArrayList::at</text>
</a>
</g>
</g>
<!-- Node1&#45;&gt;Node2 -->
<g id="edge1" class="edge"><title>Node1&#45;&gt;Node2</title>
<path fill="none" stroke="midnightblue" d="M111.843,-60.04C132.939,-65.3488 157.377,-71.4988 177.17,-76.4799"/>
<polygon fill="midnightblue" stroke="midnightblue" points="112.656,-56.6354 102.104,-57.589 110.947,-63.4237 112.656,-56.6354"/>
</g>
<!-- Node3 -->
<g id="node3" class="node"><title>Node3</title>
<g id="a_node3"><a xlink:href="../../db/d49/classwlp_1_1_array_list.html#ab8daaf07c18627e4cf386612912abdfa" target="_top" xlink:title="wlp::ArrayList::erase">
<polygon fill="white" stroke="black" points="162.5,-38.5 162.5,-57.5 269.5,-57.5 269.5,-38.5 162.5,-38.5"/>
<text text-anchor="middle" x="216" y="-45.5" font-family="Helvetica,sans-Serif" font-size="10.00">wlp::ArrayList::erase</text>
</a>
</g>
</g>
<!-- Node1&#45;&gt;Node3 -->
<g id="edge2" class="edge"><title>Node1&#45;&gt;Node3</title>
<path fill="none" stroke="midnightblue" d="M136.109,-48C144.894,-48 153.74,-48 162.171,-48"/>
<polygon fill="midnightblue" stroke="midnightblue" points="135.853,-44.5001 125.853,-48 135.853,-51.5001 135.853,-44.5001"/>
</g>
<!-- Node4 -->
<g id="node4" class="node"><title>Node4</title>
<g id="a_node4"><a xlink:href="../../db/d49/classwlp_1_1_array_list.html#ace36c9c17dfe16fd9b786db7a1cf3978" target="_top" xlink:title="wlp::ArrayList::insert">
<polygon fill="white" stroke="black" points="162.5,-0.5 162.5,-19.5 269.5,-19.5 269.5,-0.5 162.5,-0.5"/>
<text text-anchor="middle" x="216" y="-7.5" font-family="Helvetica,sans-Serif" font-size="10.00">wlp::ArrayList::insert</text>
</a>
</g>
</g>
<!-- Node1&#45;&gt;Node4 -->
<g id="edge3" class="edge"><title>Node1&#45;&gt;Node4</title>
<path fill="none" stroke="midnightblue" d="M111.843,-35.96C132.939,-30.6512 157.377,-24.5012 177.17,-19.5201"/>
<polygon fill="midnightblue" stroke="midnightblue" points="110.947,-32.5763 102.104,-38.411 112.656,-39.3646 110.947,-32.5763"/>
</g>
</g>
</svg>
