<?xml version="1.0" encoding="UTF-8" standalone="no"?>
<!DOCTYPE svg PUBLIC "-//W3C//DTD SVG 1.1//EN"
 "http://www.w3.org/Graphics/SVG/1.1/DTD/svg11.dtd">
<!-- Generated by graphviz version 2.36.0 (20140111.2315)
 -->
<!-- Title: wlp::ArrayList::shift_left Pages: 1 -->
<svg width="272pt" height="77pt"
 viewBox="0.00 0.00 272.00 77.00" xmlns="http://www.w3.org/2000/svg" xmlns:xlink="http://www.w3.org/1999/xlink">
<g id="graph0" class="graph" transform="scale(1 1) rotate(0) translate(4 73)">
<title>wlp::ArrayList::shift_left</title>
<polygon fill="white" stroke="none" points="-4,4 -4,-73 268,-73 268,4 -4,4"/>
<!-- Node1 -->
<g id="node1" class="node"><title>Node1</title>
<polygon fill="#bfbfbf" stroke="black" points="0,-27.5 0,-46.5 120,-46.5 120,-27.5 0,-27.5"/>
<text text-anchor="middle" x="60" y="-34.5" font-family="Helvetica,sans-Serif" font-size="10.00">wlp::ArrayList::shift_left</text>
</g>
<!-- Node2 -->
<g id="node2" class="node"><title>Node2</title>
<g id="a_node2"><a xlink:href="../../db/d49/classwlp_1_1_array_list.html#ab8daaf07c18627e4cf386612912abdfa" target="_top" xlink:title="wlp::ArrayList::erase">
<polygon fill="white" stroke="black" points="156.5,-49.5 156.5,-68.5 263.5,-68.5 263.5,-49.5 156.5,-49.5"/>
<text text-anchor="middle" x="210" y="-56.5" font-family="Helvetica,sans-Serif" font-size="10.00">wlp::ArrayList::erase</text>
</a>
</g>
</g>
<!-- Node1&#45;&gt;Node2 -->
<g id="edge1" class="edge"><title>Node1&#45;&gt;Node2</title>
<path fill="none" stroke="midnightblue" d="M130.483,-47.3286C139.177,-48.6209 147.954,-49.9256 156.332,-51.171"/>
<polygon fill="midnightblue" stroke="midnightblue" points="130.75,-43.8299 120.344,-45.8215 129.721,-50.7539 130.75,-43.8299"/>
</g>
<!-- Node3 -->
<g id="node3" class="node"><title>Node3</title>
<g id="a_node3"><a xlink:href="../../db/d49/classwlp_1_1_array_list.html#a8c48043f9941b1046e91739952f1c57e" target="_top" xlink:title="wlp::ArrayList::pop\l_front">
<polygon fill="white" stroke="black" points="161,-0 161,-30 259,-30 259,-0 161,-0"/>
<text text-anchor="start" x="169" y="-18" font-family="Helvetica,sans-Serif" font-size="10.00">wlp::ArrayList::pop</text>
<text text-anchor="middle" x="210" y="-7" font-family="Helvetica,sans-Serif" font-size="10.00">_front</text>
</a>
</g>
</g>
<!-- Node1&#45;&gt;Node3 -->
<g id="edge2" class="edge"><title>Node1&#45;&gt;Node3</title>
<path fill="none" stroke="midnightblue" d="M130.452,-26.676C140.627,-25.1635 150.917,-23.6339 160.549,-22.2022"/>
<polygon fill="midnightblue" stroke="midnightblue" points="129.721,-23.2461 120.344,-28.1785 130.75,-30.1701 129.721,-23.2461"/>
</g>
</g>
</svg>
