<?xml version="1.0" encoding="UTF-8" standalone="no"?>
<!DOCTYPE svg PUBLIC "-//W3C//DTD SVG 1.1//EN"
 "http://www.w3.org/Graphics/SVG/1.1/DTD/svg11.dtd">
<!-- Generated by graphviz version 2.36.0 (20140111.2315)
 -->
<!-- Title: wlp::ArrayList::erase Pages: 1 -->
<svg width="278pt" height="104pt"
 viewBox="0.00 0.00 278.00 104.00" xmlns="http://www.w3.org/2000/svg" xmlns:xlink="http://www.w3.org/1999/xlink">
<g id="graph0" class="graph" transform="scale(1 1) rotate(0) translate(4 100)">
<title>wlp::ArrayList::erase</title>
<polygon fill="white" stroke="none" points="-4,4 -4,-100 274,-100 274,4 -4,4"/>
<!-- Node1 -->
<g id="node1" class="node"><title>Node1</title>
<polygon fill="#bfbfbf" stroke="black" points="0.5,-38.5 0.5,-57.5 107.5,-57.5 107.5,-38.5 0.5,-38.5"/>
<text text-anchor="middle" x="54" y="-45.5" font-family="Helvetica,sans-Serif" font-size="10.00">wlp::ArrayList::erase</text>
</g>
<!-- Node2 -->
<g id="node2" class="node"><title>Node2</title>
<g id="a_node2"><a xlink:href="../../db/d49/classwlp_1_1_array_list.html#af08d43457fe9ce1437543fc458198b57" target="_top" xlink:title="wlp::ArrayList::end">
<polygon fill="white" stroke="black" points="158,-76.5 158,-95.5 256,-95.5 256,-76.5 158,-76.5"/>
<text text-anchor="middle" x="207" y="-83.5" font-family="Helvetica,sans-Serif" font-size="10.00">wlp::ArrayList::end</text>
</a>
</g>
</g>
<!-- Node1&#45;&gt;Node2 -->
<g id="edge1" class="edge"><title>Node1&#45;&gt;Node2</title>
<path fill="none" stroke="midnightblue" d="M93.1037,-57.589C112.94,-62.5809 137.384,-68.7324 158.448,-74.0334"/>
<polygon fill="midnightblue" stroke="midnightblue" points="157.618,-77.4336 168.17,-76.4799 159.327,-70.6452 157.618,-77.4336"/>
</g>
<!-- Node3 -->
<g id="node3" class="node"><title>Node3</title>
<g id="a_node3"><a xlink:href="../../db/d49/classwlp_1_1_array_list.html#a99f1a0425263ff5addca684ba9840784" target="_top" xlink:title="wlp::ArrayList::normalize">
<polygon fill="white" stroke="black" points="144.5,-38.5 144.5,-57.5 269.5,-57.5 269.5,-38.5 144.5,-38.5"/>
<text text-anchor="middle" x="207" y="-45.5" font-family="Helvetica,sans-Serif" font-size="10.00">wlp::ArrayList::normalize</text>
</a>
</g>
</g>
<!-- Node1&#45;&gt;Node3 -->
<g id="edge2" class="edge"><title>Node1&#45;&gt;Node3</title>
<path fill="none" stroke="midnightblue" d="M107.812,-48C116.402,-48 125.422,-48 134.371,-48"/>
<polygon fill="midnightblue" stroke="midnightblue" points="134.416,-51.5001 144.416,-48 134.416,-44.5001 134.416,-51.5001"/>
</g>
<!-- Node4 -->
<g id="node4" class="node"><title>Node4</title>
<g id="a_node4"><a xlink:href="../../db/d49/classwlp_1_1_array_list.html#a0ea12a910fe4d7911554990527ee4e2b" target="_top" xlink:title="wlp::ArrayList::shift_left">
<polygon fill="white" stroke="black" points="147,-0.5 147,-19.5 267,-19.5 267,-0.5 147,-0.5"/>
<text text-anchor="middle" x="207" y="-7.5" font-family="Helvetica,sans-Serif" font-size="10.00">wlp::ArrayList::shift_left</text>
</a>
</g>
</g>
<!-- Node1&#45;&gt;Node4 -->
<g id="edge3" class="edge"><title>Node1&#45;&gt;Node4</title>
<path fill="none" stroke="midnightblue" d="M93.1037,-38.411C112.94,-33.4191 137.384,-27.2676 158.448,-21.9666"/>
<polygon fill="midnightblue" stroke="midnightblue" points="159.327,-25.3548 168.17,-19.5201 157.618,-18.5664 159.327,-25.3548"/>
</g>
</g>
</svg>
