<?xml version="1.0" encoding="UTF-8" standalone="no"?>
<!DOCTYPE svg PUBLIC "-//W3C//DTD SVG 1.1//EN"
 "http://www.w3.org/Graphics/SVG/1.1/DTD/svg11.dtd">
<!-- Generated by graphviz version 2.36.0 (20140111.2315)
 -->
<!-- Title: wlp::ArrayList::shift_right Pages: 1 -->
<svg width="254pt" height="77pt"
 viewBox="0.00 0.00 254.00 77.00" xmlns="http://www.w3.org/2000/svg" xmlns:xlink="http://www.w3.org/1999/xlink">
<g id="graph0" class="graph" transform="scale(1 1) rotate(0) translate(4 73)">
<title>wlp::ArrayList::shift_right</title>
<polygon fill="white" stroke="none" points="-4,4 -4,-73 250,-73 250,4 -4,4"/>
<!-- Node1 -->
<g id="node1" class="node"><title>Node1</title>
<polygon fill="#bfbfbf" stroke="black" points="0.5,-22 0.5,-52 101.5,-52 101.5,-22 0.5,-22"/>
<text text-anchor="start" x="8.5" y="-40" font-family="Helvetica,sans-Serif" font-size="10.00">wlp::ArrayList::shift</text>
<text text-anchor="middle" x="51" y="-29" font-family="Helvetica,sans-Serif" font-size="10.00">_right</text>
</g>
<!-- Node2 -->
<g id="node2" class="node"><title>Node2</title>
<g id="a_node2"><a xlink:href="../../db/d49/classwlp_1_1_array_list.html#ace36c9c17dfe16fd9b786db7a1cf3978" target="_top" xlink:title="wlp::ArrayList::insert">
<polygon fill="white" stroke="black" points="138.5,-49.5 138.5,-68.5 245.5,-68.5 245.5,-49.5 138.5,-49.5"/>
<text text-anchor="middle" x="192" y="-56.5" font-family="Helvetica,sans-Serif" font-size="10.00">wlp::ArrayList::insert</text>
</a>
</g>
</g>
<!-- Node1&#45;&gt;Node2 -->
<g id="edge1" class="edge"><title>Node1&#45;&gt;Node2</title>
<path fill="none" stroke="midnightblue" d="M111.943,-46.4875C120.703,-47.8739 129.669,-49.2929 138.27,-50.6543"/>
<polygon fill="midnightblue" stroke="midnightblue" points="112.214,-42.9868 101.79,-44.8804 111.119,-49.9007 112.214,-42.9868"/>
</g>
<!-- Node3 -->
<g id="node3" class="node"><title>Node3</title>
<g id="a_node3"><a xlink:href="../../db/d49/classwlp_1_1_array_list.html#aae3d33b46952471d46418a4650e9cbb8" target="_top" xlink:title="wlp::ArrayList::push\l_front">
<polygon fill="white" stroke="black" points="140,-0 140,-30 244,-30 244,-0 140,-0"/>
<text text-anchor="start" x="148" y="-18" font-family="Helvetica,sans-Serif" font-size="10.00">wlp::ArrayList::push</text>
<text text-anchor="middle" x="192" y="-7" font-family="Helvetica,sans-Serif" font-size="10.00">_front</text>
</a>
</g>
</g>
<!-- Node1&#45;&gt;Node3 -->
<g id="edge2" class="edge"><title>Node1&#45;&gt;Node3</title>
<path fill="none" stroke="midnightblue" d="M111.756,-27.5423C121.056,-26.0703 130.593,-24.5608 139.684,-23.1219"/>
<polygon fill="midnightblue" stroke="midnightblue" points="111.119,-24.0993 101.79,-29.1196 112.214,-31.0132 111.119,-24.0993"/>
</g>
</g>
</svg>
