<?xml version="1.0" encoding="UTF-8" standalone="no"?>
<!DOCTYPE svg PUBLIC "-//W3C//DTD SVG 1.1//EN"
 "http://www.w3.org/Graphics/SVG/1.1/DTD/svg11.dtd">
<!-- Generated by graphviz version 2.36.0 (20140111.2315)
 -->
<!-- Title: wlib/stl/OpenTable.h Pages: 1 -->
<svg width="831pt" height="532pt"
 viewBox="0.00 0.00 831.00 532.00" xmlns="http://www.w3.org/2000/svg" xmlns:xlink="http://www.w3.org/1999/xlink">
<g id="graph0" class="graph" transform="scale(1 1) rotate(0) translate(4 528)">
<title>wlib/stl/OpenTable.h</title>
<polygon fill="white" stroke="none" points="-4,4 -4,-528 827,-528 827,4 -4,4"/>
<!-- Node1 -->
<g id="node1" class="node"><title>Node1</title>
<polygon fill="#bfbfbf" stroke="black" points="294,-504.5 294,-523.5 400,-523.5 400,-504.5 294,-504.5"/>
<text text-anchor="middle" x="347" y="-511.5" font-family="Helvetica,sans-Serif" font-size="10.00">wlib/stl/OpenTable.h</text>
</g>
<!-- Node2 -->
<g id="node2" class="node"><title>Node2</title>
<g id="a_node2"><a xlink:href="../../d2/dc2/_equal_8h.html" target="_top" xlink:title="wlib/stl/Equal.h">
<polygon fill="white" stroke="black" points="74.5,-448.5 74.5,-467.5 157.5,-467.5 157.5,-448.5 74.5,-448.5"/>
<text text-anchor="middle" x="116" y="-455.5" font-family="Helvetica,sans-Serif" font-size="10.00">wlib/stl/Equal.h</text>
</a>
</g>
</g>
<!-- Node1&#45;&gt;Node2 -->
<g id="edge1" class="edge"><title>Node1&#45;&gt;Node2</title>
<path fill="none" stroke="midnightblue" d="M310.397,-504.444C270.269,-495.063 205.802,-479.993 162.215,-469.804"/>
<polygon fill="midnightblue" stroke="midnightblue" points="162.966,-466.385 152.431,-467.516 161.372,-473.201 162.966,-466.385"/>
</g>
<!-- Node10 -->
<g id="node10" class="node"><title>Node10</title>
<g id="a_node10"><a xlink:href="../../d4/dda/_pair_8h.html" target="_top" xlink:title="Implementation of a 2&#45;element tuple. ">
<polygon fill="white" stroke="black" points="356,-224.5 356,-243.5 432,-243.5 432,-224.5 356,-224.5"/>
<text text-anchor="middle" x="394" y="-231.5" font-family="Helvetica,sans-Serif" font-size="10.00">wlib/stl/Pair.h</text>
</a>
</g>
</g>
<!-- Node1&#45;&gt;Node10 -->
<g id="edge31" class="edge"><title>Node1&#45;&gt;Node10</title>
<path fill="none" stroke="midnightblue" d="M349.562,-504.249C354.749,-485.738 366,-441.179 366,-403 366,-403 366,-403 366,-345 366,-311.79 378.134,-274.634 386.427,-253.12"/>
<polygon fill="midnightblue" stroke="midnightblue" points="389.751,-254.233 390.224,-243.649 383.254,-251.628 389.751,-254.233"/>
</g>
<!-- Node11 -->
<g id="node11" class="node"><title>Node11</title>
<g id="a_node11"><a xlink:href="../../db/d2a/_utility_8h.html" target="_top" xlink:title="Various helper functions. ">
<polygon fill="white" stroke="black" points="315,-168.5 315,-187.5 401,-187.5 401,-168.5 315,-168.5"/>
<text text-anchor="middle" x="358" y="-175.5" font-family="Helvetica,sans-Serif" font-size="10.00">wlib/util/Utility.h</text>
</a>
</g>
</g>
<!-- Node1&#45;&gt;Node11 -->
<g id="edge33" class="edge"><title>Node1&#45;&gt;Node11</title>
<path fill="none" stroke="midnightblue" d="M344.438,-504.249C339.251,-485.738 328,-441.179 328,-403 328,-403 328,-403 328,-289 328,-255.64 341.001,-218.532 349.886,-197.067"/>
<polygon fill="midnightblue" stroke="midnightblue" points="353.213,-198.19 353.954,-187.621 346.784,-195.421 353.213,-198.19"/>
</g>
<!-- Node15 -->
<g id="node15" class="node"><title>Node15</title>
<g id="a_node15"><a xlink:href="../../d3/de6/_memory_8h.html" target="_top" xlink:title="Memory is a class that provides dynamic fixed size memory. ">
<polygon fill="white" stroke="black" points="194.5,-336.5 194.5,-355.5 299.5,-355.5 299.5,-336.5 194.5,-336.5"/>
<text text-anchor="middle" x="247" y="-343.5" font-family="Helvetica,sans-Serif" font-size="10.00">wlib/mem/Memory.h</text>
</a>
</g>
</g>
<!-- Node1&#45;&gt;Node15 -->
<g id="edge32" class="edge"><title>Node1&#45;&gt;Node15</title>
<path fill="none" stroke="midnightblue" d="M340.083,-504.27C333.157,-495.371 322.355,-481.057 314,-468 291.238,-432.427 268.129,-388.622 255.892,-364.686"/>
<polygon fill="midnightblue" stroke="midnightblue" points="258.992,-363.06 251.347,-355.726 252.75,-366.227 258.992,-363.06"/>
</g>
<!-- Node17 -->
<g id="node17" class="node"><title>Node17</title>
<g id="a_node17"><a xlink:href="../../d2/dad/_hash_8h.html" target="_top" xlink:title="wlib/stl/Hash.h">
<polygon fill="white" stroke="black" points="503,-448.5 503,-467.5 585,-467.5 585,-448.5 503,-448.5"/>
<text text-anchor="middle" x="544" y="-455.5" font-family="Helvetica,sans-Serif" font-size="10.00">wlib/stl/Hash.h</text>
</a>
</g>
</g>
<!-- Node1&#45;&gt;Node17 -->
<g id="edge26" class="edge"><title>Node1&#45;&gt;Node17</title>
<path fill="none" stroke="midnightblue" d="M378.215,-504.444C411.933,-495.201 465.8,-480.436 502.932,-470.257"/>
<polygon fill="midnightblue" stroke="midnightblue" points="504.212,-473.536 512.931,-467.516 502.361,-466.785 504.212,-473.536"/>
</g>
<!-- Node19 -->
<g id="node19" class="node"><title>Node19</title>
<g id="a_node19"><a xlink:href="../../d7/d2f/_exceptions_8h.html" target="_top" xlink:title="Implementation of Exceptions using C style. ">
<polygon fill="white" stroke="black" points="679,-448.5 679,-467.5 823,-467.5 823,-448.5 679,-448.5"/>
<text text-anchor="middle" x="751" y="-455.5" font-family="Helvetica,sans-Serif" font-size="10.00">wlib/exceptions/Exceptions.h</text>
</a>
</g>
</g>
<!-- Node1&#45;&gt;Node19 -->
<g id="edge34" class="edge"><title>Node1&#45;&gt;Node19</title>
<path fill="none" stroke="midnightblue" d="M400.231,-505.885C471.223,-496.396 597.226,-479.554 677.312,-468.849"/>
<polygon fill="midnightblue" stroke="midnightblue" points="677.88,-472.305 687.328,-467.511 676.953,-465.366 677.88,-472.305"/>
</g>
<!-- Node3 -->
<g id="node3" class="node"><title>Node3</title>
<polygon fill="white" stroke="#bfbfbf" points="28.5,-280.5 28.5,-299.5 77.5,-299.5 77.5,-280.5 28.5,-280.5"/>
<text text-anchor="middle" x="53" y="-287.5" font-family="Helvetica,sans-Serif" font-size="10.00">string.h</text>
</g>
<!-- Node2&#45;&gt;Node3 -->
<g id="edge2" class="edge"><title>Node2&#45;&gt;Node3</title>
<path fill="none" stroke="midnightblue" d="M112.613,-448.075C102.653,-421.832 73.3214,-344.545 59.8756,-309.117"/>
<polygon fill="midnightblue" stroke="midnightblue" points="63.0723,-307.676 56.2518,-299.568 56.5278,-310.159 63.0723,-307.676"/>
</g>
<!-- Node4 -->
<g id="node4" class="node"><title>Node4</title>
<g id="a_node4"><a xlink:href="../../d0/db6/_types_8h.html" target="_top" xlink:title="type definition of all the string types we will be using ">
<polygon fill="white" stroke="black" points="584,-56.5 584,-75.5 656,-75.5 656,-56.5 584,-56.5"/>
<text text-anchor="middle" x="620" y="-63.5" font-family="Helvetica,sans-Serif" font-size="10.00">wlib/Types.h</text>
</a>
</g>
</g>
<!-- Node2&#45;&gt;Node4 -->
<g id="edge3" class="edge"><title>Node2&#45;&gt;Node4</title>
<path fill="none" stroke="midnightblue" d="M94.7238,-448.403C61.2356,-433.299 0,-398.622 0,-347 0,-347 0,-347 0,-177 0,-109.204 72.5995,-129.864 138,-112 293.62,-69.493 486.85,-65.4304 573.803,-66.0585"/>
<polygon fill="midnightblue" stroke="midnightblue" points="573.837,-69.5589 583.87,-66.1561 573.905,-62.5592 573.837,-69.5589"/>
</g>
<!-- Node6 -->
<g id="node6" class="node"><title>Node6</title>
<g id="a_node6"><a xlink:href="../../db/db5/_string_8h.html" target="_top" xlink:title="wlib/strings/String.h">
<polygon fill="white" stroke="black" points="409.5,-392.5 409.5,-411.5 512.5,-411.5 512.5,-392.5 409.5,-392.5"/>
<text text-anchor="middle" x="461" y="-399.5" font-family="Helvetica,sans-Serif" font-size="10.00">wlib/strings/String.h</text>
</a>
</g>
</g>
<!-- Node2&#45;&gt;Node6 -->
<g id="edge5" class="edge"><title>Node2&#45;&gt;Node6</title>
<path fill="none" stroke="midnightblue" d="M157.615,-450.486C217.828,-441.062 329.656,-423.558 399.431,-412.637"/>
<polygon fill="midnightblue" stroke="midnightblue" points="400.071,-416.079 409.409,-411.075 398.988,-409.164 400.071,-416.079"/>
</g>
<!-- Node5 -->
<g id="node5" class="node"><title>Node5</title>
<polygon fill="white" stroke="#bfbfbf" points="595.5,-0.5 595.5,-19.5 644.5,-19.5 644.5,-0.5 595.5,-0.5"/>
<text text-anchor="middle" x="620" y="-7.5" font-family="Helvetica,sans-Serif" font-size="10.00">stdint.h</text>
</g>
<!-- Node4&#45;&gt;Node5 -->
<g id="edge4" class="edge"><title>Node4&#45;&gt;Node5</title>
<path fill="none" stroke="midnightblue" d="M620,-56.083C620,-49.0059 620,-38.8611 620,-29.9865"/>
<polygon fill="midnightblue" stroke="midnightblue" points="623.5,-29.751 620,-19.7511 616.5,-29.7511 623.5,-29.751"/>
</g>
<!-- Node6&#45;&gt;Node3 -->
<g id="edge6" class="edge"><title>Node6&#45;&gt;Node3</title>
<path fill="none" stroke="midnightblue" d="M409.323,-397.165C353.058,-391.939 260.951,-380.295 185,-356 144.873,-343.164 101.661,-319.888 75.995,-304.952"/>
<polygon fill="midnightblue" stroke="midnightblue" points="77.4505,-301.747 67.0602,-299.675 73.8907,-307.774 77.4505,-301.747"/>
</g>
<!-- Node6&#45;&gt;Node4 -->
<g id="edge18" class="edge"><title>Node6&#45;&gt;Node4</title>
<path fill="none" stroke="midnightblue" d="M477.166,-392.382C492.865,-383.794 517.166,-369.914 537,-356 599.26,-312.322 658,-311.053 658,-235 658,-235 658,-235 658,-177 658,-142.813 641.4,-105.764 630.143,-84.5707"/>
<polygon fill="midnightblue" stroke="midnightblue" points="633.181,-82.832 625.284,-75.769 627.053,-86.2151 633.181,-82.832"/>
</g>
<!-- Node7 -->
<g id="node7" class="node"><title>Node7</title>
<g id="a_node7"><a xlink:href="../../de/d0b/_string_iterator_8h.html" target="_top" xlink:title="wlib/strings/StringIterator.h">
<polygon fill="white" stroke="black" points="394,-336.5 394,-355.5 528,-355.5 528,-336.5 394,-336.5"/>
<text text-anchor="middle" x="461" y="-343.5" font-family="Helvetica,sans-Serif" font-size="10.00">wlib/strings/StringIterator.h</text>
</a>
</g>
</g>
<!-- Node6&#45;&gt;Node7 -->
<g id="edge7" class="edge"><title>Node6&#45;&gt;Node7</title>
<path fill="none" stroke="midnightblue" d="M461,-392.083C461,-385.006 461,-374.861 461,-365.986"/>
<polygon fill="midnightblue" stroke="midnightblue" points="464.5,-365.751 461,-355.751 457.5,-365.751 464.5,-365.751"/>
</g>
<!-- Node14 -->
<g id="node14" class="node"><title>Node14</title>
<g id="a_node14"><a xlink:href="../../da/db8/_math_8h.html" target="_top" xlink:title="wlib/util/Math.h">
<polygon fill="white" stroke="black" points="584.5,-336.5 584.5,-355.5 667.5,-355.5 667.5,-336.5 584.5,-336.5"/>
<text text-anchor="middle" x="626" y="-343.5" font-family="Helvetica,sans-Serif" font-size="10.00">wlib/util/Math.h</text>
</a>
</g>
</g>
<!-- Node6&#45;&gt;Node14 -->
<g id="edge19" class="edge"><title>Node6&#45;&gt;Node14</title>
<path fill="none" stroke="midnightblue" d="M487.145,-392.444C515.023,-383.32 559.348,-368.813 590.4,-358.651"/>
<polygon fill="midnightblue" stroke="midnightblue" points="591.562,-361.953 599.978,-355.516 589.385,-355.3 591.562,-361.953"/>
</g>
<!-- Node6&#45;&gt;Node15 -->
<g id="edge20" class="edge"><title>Node6&#45;&gt;Node15</title>
<path fill="none" stroke="midnightblue" d="M427.091,-392.444C390.151,-383.122 330.946,-368.183 290.582,-357.997"/>
<polygon fill="midnightblue" stroke="midnightblue" points="291.303,-354.57 280.75,-355.516 289.59,-361.357 291.303,-354.57"/>
</g>
<!-- Node7&#45;&gt;Node4 -->
<g id="edge8" class="edge"><title>Node7&#45;&gt;Node4</title>
<path fill="none" stroke="midnightblue" d="M499.084,-336.462C546.123,-323.404 620,-293.573 620,-235 620,-235 620,-235 620,-177 620,-144.948 620,-107.643 620,-85.7489"/>
<polygon fill="midnightblue" stroke="midnightblue" points="623.5,-85.5577 620,-75.5578 616.5,-85.5578 623.5,-85.5577"/>
</g>
<!-- Node8 -->
<g id="node8" class="node"><title>Node8</title>
<g id="a_node8"><a xlink:href="../../d8/dd7/_concept_8h.html" target="_top" xlink:title="Concept definitions. ">
<polygon fill="white" stroke="black" points="413.5,-280.5 413.5,-299.5 508.5,-299.5 508.5,-280.5 413.5,-280.5"/>
<text text-anchor="middle" x="461" y="-287.5" font-family="Helvetica,sans-Serif" font-size="10.00">wlib/stl/Concept.h</text>
</a>
</g>
</g>
<!-- Node7&#45;&gt;Node8 -->
<g id="edge9" class="edge"><title>Node7&#45;&gt;Node8</title>
<path fill="none" stroke="midnightblue" d="M461,-336.083C461,-329.006 461,-318.861 461,-309.986"/>
<polygon fill="midnightblue" stroke="midnightblue" points="464.5,-309.751 461,-299.751 457.5,-309.751 464.5,-309.751"/>
</g>
<!-- Node9 -->
<g id="node9" class="node"><title>Node9</title>
<g id="a_node9"><a xlink:href="../../d2/db4/_wlib_8h.html" target="_top" xlink:title="wlib/Wlib.h">
<polygon fill="white" stroke="black" points="488.5,-224.5 488.5,-243.5 553.5,-243.5 553.5,-224.5 488.5,-224.5"/>
<text text-anchor="middle" x="521" y="-231.5" font-family="Helvetica,sans-Serif" font-size="10.00">wlib/Wlib.h</text>
</a>
</g>
</g>
<!-- Node8&#45;&gt;Node9 -->
<g id="edge10" class="edge"><title>Node8&#45;&gt;Node9</title>
<path fill="none" stroke="midnightblue" d="M470.64,-280.324C479.51,-272.341 492.875,-260.313 503.608,-250.653"/>
<polygon fill="midnightblue" stroke="midnightblue" points="506.093,-253.125 511.185,-243.834 501.41,-247.922 506.093,-253.125"/>
</g>
<!-- Node8&#45;&gt;Node10 -->
<g id="edge11" class="edge"><title>Node8&#45;&gt;Node10</title>
<path fill="none" stroke="midnightblue" d="M450.235,-280.324C440.234,-272.263 425.113,-260.077 413.07,-250.369"/>
<polygon fill="midnightblue" stroke="midnightblue" points="414.943,-247.384 404.961,-243.834 410.55,-252.834 414.943,-247.384"/>
</g>
<!-- Node12 -->
<g id="node12" class="node"><title>Node12</title>
<g id="a_node12"><a xlink:href="../../d2/d37/_tmp_8h.html" target="_top" xlink:title="Template helper types, structs, and metafunctions. ">
<polygon fill="white" stroke="black" points="418,-112.5 418,-131.5 498,-131.5 498,-112.5 418,-112.5"/>
<text text-anchor="middle" x="458" y="-119.5" font-family="Helvetica,sans-Serif" font-size="10.00">wlib/util/Tmp.h</text>
</a>
</g>
</g>
<!-- Node8&#45;&gt;Node12 -->
<g id="edge17" class="edge"><title>Node8&#45;&gt;Node12</title>
<path fill="none" stroke="midnightblue" d="M460.839,-280.075C460.366,-253.945 458.98,-177.211 458.336,-141.577"/>
<polygon fill="midnightblue" stroke="midnightblue" points="461.835,-141.503 458.155,-131.568 454.836,-141.63 461.835,-141.503"/>
</g>
<!-- Node13 -->
<g id="node13" class="node"><title>Node13</title>
<g id="a_node13"><a xlink:href="../../d4/dd5/_type_traits_8h.html" target="_top" xlink:title="Metafunctions for types. ">
<polygon fill="white" stroke="black" points="486.5,-168.5 486.5,-187.5 591.5,-187.5 591.5,-168.5 486.5,-168.5"/>
<text text-anchor="middle" x="539" y="-175.5" font-family="Helvetica,sans-Serif" font-size="10.00">wlib/stl/TypeTraits.h</text>
</a>
</g>
</g>
<!-- Node8&#45;&gt;Node13 -->
<g id="edge15" class="edge"><title>Node8&#45;&gt;Node13</title>
<path fill="none" stroke="midnightblue" d="M506.653,-280.431C527.243,-274.044 549.665,-262.999 562,-244 571.731,-229.011 562.29,-209.397 552.728,-195.651"/>
<polygon fill="midnightblue" stroke="midnightblue" points="555.448,-193.444 546.628,-187.573 549.861,-197.663 555.448,-193.444"/>
</g>
<!-- Node10&#45;&gt;Node11 -->
<g id="edge12" class="edge"><title>Node10&#45;&gt;Node11</title>
<path fill="none" stroke="midnightblue" d="M388.055,-224.083C383.023,-216.534 375.663,-205.495 369.487,-196.23"/>
<polygon fill="midnightblue" stroke="midnightblue" points="372.293,-194.13 363.834,-187.751 366.469,-198.013 372.293,-194.13"/>
</g>
<!-- Node11&#45;&gt;Node12 -->
<g id="edge13" class="edge"><title>Node11&#45;&gt;Node12</title>
<path fill="none" stroke="midnightblue" d="M374.067,-168.324C389.958,-159.743 414.507,-146.486 432.958,-136.522"/>
<polygon fill="midnightblue" stroke="midnightblue" points="434.837,-139.486 441.973,-131.655 431.511,-133.326 434.837,-139.486"/>
</g>
<!-- Node12&#45;&gt;Node4 -->
<g id="edge14" class="edge"><title>Node12&#45;&gt;Node4</title>
<path fill="none" stroke="midnightblue" d="M483.669,-112.444C510.923,-103.359 554.184,-88.9388 584.651,-78.7831"/>
<polygon fill="midnightblue" stroke="midnightblue" points="586.071,-81.9992 594.451,-75.5164 583.857,-75.3584 586.071,-81.9992"/>
</g>
<!-- Node13&#45;&gt;Node12 -->
<g id="edge16" class="edge"><title>Node13&#45;&gt;Node12</title>
<path fill="none" stroke="midnightblue" d="M525.986,-168.324C513.468,-159.979 494.318,-147.212 479.529,-137.352"/>
<polygon fill="midnightblue" stroke="midnightblue" points="481.244,-134.289 470.982,-131.655 477.361,-140.114 481.244,-134.289"/>
</g>
<!-- Node15&#45;&gt;Node3 -->
<g id="edge21" class="edge"><title>Node15&#45;&gt;Node3</title>
<path fill="none" stroke="midnightblue" d="M216.26,-336.444C181.2,-326.685 124.019,-310.768 87.473,-300.596"/>
<polygon fill="midnightblue" stroke="midnightblue" points="88.3203,-297.198 77.748,-297.889 86.4432,-303.942 88.3203,-297.198"/>
</g>
<!-- Node15&#45;&gt;Node4 -->
<g id="edge22" class="edge"><title>Node15&#45;&gt;Node4</title>
<path fill="none" stroke="midnightblue" d="M194.403,-336.766C170.285,-330.463 143.099,-319.393 125,-300 104.464,-277.996 106,-265.098 106,-235 106,-235 106,-235 106,-177 106,-81.8034 447.395,-68.7123 573.724,-67.1269"/>
<polygon fill="midnightblue" stroke="midnightblue" points="573.894,-70.6253 583.857,-67.0189 573.82,-63.6257 573.894,-70.6253"/>
</g>
<!-- Node15&#45;&gt;Node11 -->
<g id="edge23" class="edge"><title>Node15&#45;&gt;Node11</title>
<path fill="none" stroke="midnightblue" d="M250.82,-336.313C260.065,-315.751 285.036,-262.908 314,-224 321.893,-213.398 332.151,-202.767 340.777,-194.503"/>
<polygon fill="midnightblue" stroke="midnightblue" points="343.201,-197.028 348.125,-187.647 338.426,-191.91 343.201,-197.028"/>
</g>
<!-- Node15&#45;&gt;Node12 -->
<g id="edge24" class="edge"><title>Node15&#45;&gt;Node12</title>
<path fill="none" stroke="midnightblue" d="M247.178,-336.118C248.251,-307.319 255.651,-215.644 306,-168 333.327,-142.141 374.813,-131.067 407.543,-126.362"/>
<polygon fill="midnightblue" stroke="midnightblue" points="408.358,-129.787 417.834,-125.048 407.471,-122.843 408.358,-129.787"/>
</g>
<!-- Node16 -->
<g id="node16" class="node"><title>Node16</title>
<g id="a_node16"><a xlink:href="../../d9/d8a/_new_8h.html" target="_top" xlink:title="New operators defined for Arduino boards and for other boards use the normal new. ...">
<polygon fill="white" stroke="black" points="134,-280.5 134,-299.5 224,-299.5 224,-280.5 134,-280.5"/>
<text text-anchor="middle" x="179" y="-287.5" font-family="Helvetica,sans-Serif" font-size="10.00">wlib/mem/New.h</text>
</a>
</g>
</g>
<!-- Node15&#45;&gt;Node16 -->
<g id="edge25" class="edge"><title>Node15&#45;&gt;Node16</title>
<path fill="none" stroke="midnightblue" d="M236.075,-336.324C225.825,-328.185 210.279,-315.839 197.999,-306.087"/>
<polygon fill="midnightblue" stroke="midnightblue" points="200.132,-303.312 190.124,-299.834 195.779,-308.794 200.132,-303.312"/>
</g>
<!-- Node17&#45;&gt;Node4 -->
<g id="edge27" class="edge"><title>Node17&#45;&gt;Node4</title>
<path fill="none" stroke="midnightblue" d="M585.069,-452.325C613.506,-447.039 650.354,-435.809 674,-412 695.491,-390.36 696,-377.499 696,-347 696,-347 696,-347 696,-177 696,-137.276 662.036,-101.504 639.518,-82.1536"/>
<polygon fill="midnightblue" stroke="midnightblue" points="641.482,-79.2364 631.543,-75.5672 637.024,-84.6337 641.482,-79.2364"/>
</g>
<!-- Node17&#45;&gt;Node6 -->
<g id="edge30" class="edge"><title>Node17&#45;&gt;Node6</title>
<path fill="none" stroke="midnightblue" d="M530.665,-448.324C517.838,-439.979 498.215,-427.212 483.06,-417.352"/>
<polygon fill="midnightblue" stroke="midnightblue" points="484.593,-414.174 474.302,-411.655 480.776,-420.042 484.593,-414.174"/>
</g>
<!-- Node17&#45;&gt;Node14 -->
<g id="edge29" class="edge"><title>Node17&#45;&gt;Node14</title>
<path fill="none" stroke="midnightblue" d="M544.739,-448.22C546.235,-434.939 550.611,-409.447 563,-392 572.268,-378.948 586.547,-368.301 599.17,-360.646"/>
<polygon fill="midnightblue" stroke="midnightblue" points="601.031,-363.614 607.972,-355.609 597.554,-357.538 601.031,-363.614"/>
</g>
<!-- Node18 -->
<g id="node18" class="node"><title>Node18</title>
<g id="a_node18"><a xlink:href="../../d2/ddf/_wlib_config_8h.html" target="_top" xlink:title="Some basic definitions for compilers. ">
<polygon fill="white" stroke="black" points="572.5,-392.5 572.5,-411.5 665.5,-411.5 665.5,-392.5 572.5,-392.5"/>
<text text-anchor="middle" x="619" y="-399.5" font-family="Helvetica,sans-Serif" font-size="10.00">wlib/WlibConfig.h</text>
</a>
</g>
</g>
<!-- Node17&#45;&gt;Node18 -->
<g id="edge28" class="edge"><title>Node17&#45;&gt;Node18</title>
<path fill="none" stroke="midnightblue" d="M556.05,-448.324C567.463,-440.107 584.831,-427.602 598.435,-417.807"/>
<polygon fill="midnightblue" stroke="midnightblue" points="600.66,-420.517 606.731,-411.834 596.57,-414.837 600.66,-420.517"/>
</g>
<!-- Node19&#45;&gt;Node4 -->
<g id="edge36" class="edge"><title>Node19&#45;&gt;Node4</title>
<path fill="none" stroke="midnightblue" d="M759.581,-448.431C767.703,-439.879 779.706,-426.025 787,-412 800.887,-385.297 806,-377.098 806,-347 806,-347 806,-347 806,-177 806,-112.192 721.305,-84.7597 666.218,-73.7717"/>
<polygon fill="midnightblue" stroke="midnightblue" points="666.779,-70.3158 656.304,-71.906 665.484,-77.1951 666.779,-70.3158"/>
</g>
<!-- Node20 -->
<g id="node20" class="node"><title>Node20</title>
<polygon fill="white" stroke="#bfbfbf" points="724,-392.5 724,-411.5 778,-411.5 778,-392.5 724,-392.5"/>
<text text-anchor="middle" x="751" y="-399.5" font-family="Helvetica,sans-Serif" font-size="10.00">setjmp.h</text>
</g>
<!-- Node19&#45;&gt;Node20 -->
<g id="edge35" class="edge"><title>Node19&#45;&gt;Node20</title>
<path fill="none" stroke="midnightblue" d="M751,-448.083C751,-441.006 751,-430.861 751,-421.986"/>
<polygon fill="midnightblue" stroke="midnightblue" points="754.5,-421.751 751,-411.751 747.5,-421.751 754.5,-421.751"/>
</g>
</g>
</svg>
