<?xml version="1.0" encoding="UTF-8" standalone="no"?>
<!DOCTYPE svg PUBLIC "-//W3C//DTD SVG 1.1//EN"
 "http://www.w3.org/Graphics/SVG/1.1/DTD/svg11.dtd">
<!-- Generated by graphviz version 2.36.0 (20140111.2315)
 -->
<!-- Title: wlp::ExitBase::invokeExitAction Pages: 1 -->
<svg width="278pt" height="38pt"
 viewBox="0.00 0.00 278.00 38.00" xmlns="http://www.w3.org/2000/svg" xmlns:xlink="http://www.w3.org/1999/xlink">
<g id="graph0" class="graph" transform="scale(1 1) rotate(0) translate(4 34)">
<title>wlp::ExitBase::invokeExitAction</title>
<polygon fill="white" stroke="none" points="-4,4 -4,-34 274,-34 274,4 -4,4"/>
<!-- Node1 -->
<g id="node1" class="node"><title>Node1</title>
<polygon fill="#bfbfbf" stroke="black" points="0.5,-0 0.5,-30 129.5,-30 129.5,-0 0.5,-0"/>
<text text-anchor="start" x="8.5" y="-18" font-family="Helvetica,sans-Serif" font-size="10.00">wlp::ExitBase::invokeExit</text>
<text text-anchor="middle" x="65" y="-7" font-family="Helvetica,sans-Serif" font-size="10.00">Action</text>
</g>
<!-- Node2 -->
<g id="node2" class="node"><title>Node2</title>
<g id="a_node2"><a xlink:href="../../d6/d67/classwlp_1_1_state_machine.html#aee540562f2701302e85668fe3ce5d39d" target="_top" xlink:title="wlp::StateMachine::\lstateEngine">
<polygon fill="white" stroke="black" points="166,-0 166,-30 270,-30 270,-0 166,-0"/>
<text text-anchor="start" x="174" y="-18" font-family="Helvetica,sans-Serif" font-size="10.00">wlp::StateMachine::</text>
<text text-anchor="middle" x="218" y="-7" font-family="Helvetica,sans-Serif" font-size="10.00">stateEngine</text>
</a>
</g>
</g>
<!-- Node1&#45;&gt;Node2 -->
<g id="edge1" class="edge"><title>Node1&#45;&gt;Node2</title>
<path fill="none" stroke="midnightblue" d="M139.871,-15C148.657,-15 157.472,-15 165.84,-15"/>
<polygon fill="midnightblue" stroke="midnightblue" points="139.6,-11.5001 129.6,-15 139.6,-18.5001 139.6,-11.5001"/>
</g>
</g>
</svg>
