<?xml version="1.0" encoding="UTF-8" standalone="no"?>
<!DOCTYPE svg PUBLIC "-//W3C//DTD SVG 1.1//EN"
 "http://www.w3.org/Graphics/SVG/1.1/DTD/svg11.dtd">
<!-- Generated by graphviz version 2.36.0 (20140111.2315)
 -->
<!-- Title: wlp::ChainHashMapIterator&lt; Key, Val, Ref, Ptr, Hasher, Equals &gt; Pages: 1 -->
<svg width="481pt" height="288pt"
 viewBox="0.00 0.00 481.00 288.00" xmlns="http://www.w3.org/2000/svg" xmlns:xlink="http://www.w3.org/1999/xlink">
<g id="graph0" class="graph" transform="scale(1 1) rotate(0) translate(4 284)">
<title>wlp::ChainHashMapIterator&lt; Key, Val, Ref, Ptr, Hasher, Equals &gt;</title>
<polygon fill="white" stroke="none" points="-4,4 -4,-284 477,-284 477,4 -4,4"/>
<!-- Node1 -->
<g id="node1" class="node"><title>Node1</title>
<polygon fill="#bfbfbf" stroke="black" points="48,-0.5 48,-41.5 192,-41.5 192,-0.5 48,-0.5"/>
<text text-anchor="start" x="56" y="-29.5" font-family="Helvetica,sans-Serif" font-size="10.00">wlp::ChainHashMapIterator</text>
<text text-anchor="start" x="56" y="-18.5" font-family="Helvetica,sans-Serif" font-size="10.00">&lt; Key, Val, Ref, Ptr, Hasher,</text>
<text text-anchor="middle" x="120" y="-7.5" font-family="Helvetica,sans-Serif" font-size="10.00"> Equals &gt;</text>
</g>
<!-- Node2 -->
<g id="node2" class="node"><title>Node2</title>
<g id="a_node2"><a xlink:href="../../d9/dc5/classwlp_1_1_chain_hash_map.html" target="_top" xlink:title="wlp::ChainHashMap\&lt;\l Key, Val, Hasher, Equals \&gt;">
<polygon fill="white" stroke="black" points="172,-91 172,-121 312,-121 312,-91 172,-91"/>
<text text-anchor="start" x="180" y="-109" font-family="Helvetica,sans-Serif" font-size="10.00">wlp::ChainHashMap&lt;</text>
<text text-anchor="middle" x="242" y="-98" font-family="Helvetica,sans-Serif" font-size="10.00"> Key, Val, Hasher, Equals &gt;</text>
</a>
</g>
</g>
<!-- Node2&#45;&gt;Node1 -->
<g id="edge1" class="edge"><title>Node2&#45;&gt;Node1</title>
<path fill="none" stroke="#9a32cd" stroke-dasharray="5,2" d="M212.892,-85.1972C193.582,-72.0599 168.34,-54.8868 149.043,-41.7587"/>
<polygon fill="#9a32cd" stroke="#9a32cd" points="211.068,-88.189 221.304,-90.9202 215.005,-82.4014 211.068,-88.189"/>
<text text-anchor="middle" x="223" y="-63.5" font-family="Helvetica,sans-Serif" font-size="10.00"> m_hash_map</text>
</g>
<!-- Node3 -->
<g id="node3" class="node"><title>Node3</title>
<polygon fill="white" stroke="#bfbfbf" points="387.5,-186.5 387.5,-205.5 438.5,-205.5 438.5,-186.5 387.5,-186.5"/>
<text text-anchor="middle" x="413" y="-193.5" font-family="Helvetica,sans-Serif" font-size="10.00">uint16_t</text>
</g>
<!-- Node3&#45;&gt;Node2 -->
<g id="edge2" class="edge"><title>Node3&#45;&gt;Node2</title>
<path fill="none" stroke="#9a32cd" stroke-dasharray="5,2" d="M404.657,-177.215C398.018,-164.968 387.591,-149.288 374,-140 355.862,-127.605 333.482,-119.861 312.336,-115.024"/>
<polygon fill="#9a32cd" stroke="#9a32cd" points="401.701,-179.126 409.329,-186.479 407.951,-175.974 401.701,-179.126"/>
<text text-anchor="middle" x="434" y="-154" font-family="Helvetica,sans-Serif" font-size="10.00"> m_capacity</text>
<text text-anchor="middle" x="434" y="-143" font-family="Helvetica,sans-Serif" font-size="10.00">m_num_elements</text>
</g>
<!-- Node4 -->
<g id="node4" class="node"><title>Node4</title>
<g id="a_node4"><a xlink:href="../../d2/d9d/structwlp_1_1_chain_hash_map_node.html" target="_top" xlink:title="wlp::ChainHashMapNode\l\&lt; Key, Val \&gt;">
<polygon fill="white" stroke="black" points="0,-181 0,-211 128,-211 128,-181 0,-181"/>
<text text-anchor="start" x="8" y="-199" font-family="Helvetica,sans-Serif" font-size="10.00">wlp::ChainHashMapNode</text>
<text text-anchor="middle" x="64" y="-188" font-family="Helvetica,sans-Serif" font-size="10.00">&lt; Key, Val &gt;</text>
</a>
</g>
</g>
<!-- Node4&#45;&gt;Node1 -->
<g id="edge10" class="edge"><title>Node4&#45;&gt;Node1</title>
<path fill="none" stroke="#9a32cd" stroke-dasharray="5,2" d="M71.7298,-171.12C82.8988,-136.616 103.34,-73.4669 113.669,-41.5588"/>
<polygon fill="#9a32cd" stroke="#9a32cd" points="68.3326,-170.251 68.5827,-180.843 74.9923,-172.407 68.3326,-170.251"/>
<text text-anchor="middle" x="121.5" y="-103.5" font-family="Helvetica,sans-Serif" font-size="10.00"> m_current</text>
</g>
<!-- Node4&#45;&gt;Node2 -->
<g id="edge3" class="edge"><title>Node4&#45;&gt;Node2</title>
<path fill="none" stroke="#9a32cd" stroke-dasharray="5,2" d="M88.8277,-174.627C103.588,-163.266 123.072,-149.531 142,-140 156.941,-132.477 173.977,-126.116 189.701,-121.047"/>
<polygon fill="#9a32cd" stroke="#9a32cd" points="86.4262,-172.062 80.723,-180.991 90.7495,-177.568 86.4262,-172.062"/>
<text text-anchor="middle" x="168" y="-148.5" font-family="Helvetica,sans-Serif" font-size="10.00"> m_buckets</text>
</g>
<!-- Node4&#45;&gt;Node4 -->
<g id="edge4" class="edge"><title>Node4&#45;&gt;Node4</title>
<path fill="none" stroke="#9a32cd" stroke-dasharray="5,2" d="M138.505,-201.265C143.182,-200.025 146,-198.271 146,-196 146,-192.367 138.785,-190.054 128.288,-189.061"/>
<polygon fill="#9a32cd" stroke="#9a32cd" points="137.59,-197.868 128.288,-202.939 138.722,-204.776 137.59,-197.868"/>
<text text-anchor="middle" x="157" y="-193.5" font-family="Helvetica,sans-Serif" font-size="10.00"> next</text>
</g>
<!-- Node5 -->
<g id="node5" class="node"><title>Node5</title>
<polygon fill="white" stroke="#bfbfbf" points="19,-260.5 19,-279.5 53,-279.5 53,-260.5 19,-260.5"/>
<text text-anchor="middle" x="36" y="-267.5" font-family="Helvetica,sans-Serif" font-size="10.00">Key</text>
</g>
<!-- Node5&#45;&gt;Node4 -->
<g id="edge5" class="edge"><title>Node5&#45;&gt;Node4</title>
<path fill="none" stroke="#9a32cd" stroke-dasharray="5,2" d="M34.0338,-250.264C33.9737,-243.68 34.6429,-236.345 37,-230 39.5778,-223.061 44.2615,-216.508 49.0126,-211.097"/>
<polygon fill="#9a32cd" stroke="#9a32cd" points="30.5456,-250.565 34.6543,-260.33 37.5324,-250.134 30.5456,-250.565"/>
<text text-anchor="middle" x="53.5" y="-233.5" font-family="Helvetica,sans-Serif" font-size="10.00"> m_key</text>
</g>
<!-- Node6 -->
<g id="node6" class="node"><title>Node6</title>
<polygon fill="white" stroke="#bfbfbf" points="76.5,-260.5 76.5,-279.5 107.5,-279.5 107.5,-260.5 76.5,-260.5"/>
<text text-anchor="middle" x="92" y="-267.5" font-family="Helvetica,sans-Serif" font-size="10.00">Val</text>
</g>
<!-- Node6&#45;&gt;Node4 -->
<g id="edge6" class="edge"><title>Node6&#45;&gt;Node4</title>
<path fill="none" stroke="#9a32cd" stroke-dasharray="5,2" d="M84.9351,-250.833C80.1616,-238.558 73.949,-222.583 69.5345,-211.232"/>
<polygon fill="#9a32cd" stroke="#9a32cd" points="81.7915,-252.406 88.6781,-260.458 88.3156,-249.869 81.7915,-252.406"/>
<text text-anchor="middle" x="97" y="-233.5" font-family="Helvetica,sans-Serif" font-size="10.00"> m_val</text>
</g>
<!-- Node7 -->
<g id="node7" class="node"><title>Node7</title>
<polygon fill="white" stroke="#bfbfbf" points="186,-186.5 186,-205.5 232,-205.5 232,-186.5 186,-186.5"/>
<text text-anchor="middle" x="209" y="-193.5" font-family="Helvetica,sans-Serif" font-size="10.00">uint8_t</text>
</g>
<!-- Node7&#45;&gt;Node2 -->
<g id="edge7" class="edge"><title>Node7&#45;&gt;Node2</title>
<path fill="none" stroke="#9a32cd" stroke-dasharray="5,2" d="M201.305,-176.839C197.794,-165.721 195.505,-151.476 201,-140 204.551,-132.583 210.673,-126.302 217.119,-121.276"/>
<polygon fill="#9a32cd" stroke="#9a32cd" points="198.072,-178.189 204.832,-186.347 204.635,-175.754 198.072,-178.189"/>
<text text-anchor="middle" x="230.5" y="-148.5" font-family="Helvetica,sans-Serif" font-size="10.00"> m_max_load</text>
</g>
<!-- Node8 -->
<g id="node8" class="node"><title>Node8</title>
<polygon fill="white" stroke="#bfbfbf" points="256,-186.5 256,-205.5 304,-205.5 304,-186.5 256,-186.5"/>
<text text-anchor="middle" x="280" y="-193.5" font-family="Helvetica,sans-Serif" font-size="10.00">Hasher</text>
</g>
<!-- Node8&#45;&gt;Node2 -->
<g id="edge8" class="edge"><title>Node8&#45;&gt;Node2</title>
<path fill="none" stroke="#9a32cd" stroke-dasharray="5,2" d="M274.099,-176.642C270.429,-165.818 265.393,-151.946 260,-140 257.154,-133.695 253.578,-126.954 250.366,-121.218"/>
<polygon fill="#9a32cd" stroke="#9a32cd" points="270.817,-177.867 277.276,-186.266 277.465,-175.673 270.817,-177.867"/>
<text text-anchor="middle" x="288" y="-148.5" font-family="Helvetica,sans-Serif" font-size="10.00"> m_hash</text>
</g>
<!-- Node9 -->
<g id="node9" class="node"><title>Node9</title>
<polygon fill="white" stroke="#bfbfbf" points="322.5,-186.5 322.5,-205.5 369.5,-205.5 369.5,-186.5 322.5,-186.5"/>
<text text-anchor="middle" x="346" y="-193.5" font-family="Helvetica,sans-Serif" font-size="10.00">Equals</text>
</g>
<!-- Node9&#45;&gt;Node2 -->
<g id="edge9" class="edge"><title>Node9&#45;&gt;Node2</title>
<path fill="none" stroke="#9a32cd" stroke-dasharray="5,2" d="M337.749,-176.836C331.695,-165.12 322.531,-150.218 311,-140 302.354,-132.338 291.615,-126.073 281.205,-121.14"/>
<polygon fill="#9a32cd" stroke="#9a32cd" points="334.736,-178.645 342.25,-186.114 341.034,-175.589 334.736,-178.645"/>
<text text-anchor="middle" x="350" y="-148.5" font-family="Helvetica,sans-Serif" font-size="10.00"> m_equal</text>
</g>
</g>
</svg>
