<?xml version="1.0" encoding="UTF-8" standalone="no"?>
<!DOCTYPE svg PUBLIC "-//W3C//DTD SVG 1.1//EN"
 "http://www.w3.org/Graphics/SVG/1.1/DTD/svg11.dtd">
<!-- Generated by graphviz version 2.36.0 (20140111.2315)
 -->
<!-- Title: wlib/stl/Table.h Pages: 1 -->
<svg width="185pt" height="364pt"
 viewBox="0.00 0.00 185.00 364.00" xmlns="http://www.w3.org/2000/svg" xmlns:xlink="http://www.w3.org/1999/xlink">
<g id="graph0" class="graph" transform="scale(1 1) rotate(0) translate(4 360)">
<title>wlib/stl/Table.h</title>
<polygon fill="white" stroke="none" points="-4,4 -4,-360 181,-360 181,4 -4,4"/>
<!-- Node1 -->
<g id="node1" class="node"><title>Node1</title>
<polygon fill="#bfbfbf" stroke="black" points="94.5,-336.5 94.5,-355.5 177.5,-355.5 177.5,-336.5 94.5,-336.5"/>
<text text-anchor="middle" x="136" y="-343.5" font-family="Helvetica,sans-Serif" font-size="10.00">wlib/stl/Table.h</text>
</g>
<!-- Node2 -->
<g id="node2" class="node"><title>Node2</title>
<g id="a_node2"><a xlink:href="../../d7/d2a/_tuple_8h.html" target="_top" xlink:title="Template oriented tuple implementation. ">
<polygon fill="white" stroke="black" points="85.5,-280.5 85.5,-299.5 134.5,-299.5 134.5,-280.5 85.5,-280.5"/>
<text text-anchor="middle" x="110" y="-287.5" font-family="Helvetica,sans-Serif" font-size="10.00">Tuple.h</text>
</a>
</g>
</g>
<!-- Node1&#45;&gt;Node2 -->
<g id="edge1" class="edge"><title>Node1&#45;&gt;Node2</title>
<path fill="none" stroke="midnightblue" d="M131.707,-336.083C128.148,-328.691 122.978,-317.953 118.576,-308.811"/>
<polygon fill="midnightblue" stroke="midnightblue" points="121.705,-307.243 114.213,-299.751 115.398,-310.279 121.705,-307.243"/>
</g>
<!-- Node5 -->
<g id="node5" class="node"><title>Node5</title>
<g id="a_node5"><a xlink:href="../../d2/d37/_tmp_8h.html" target="_top" xlink:title="Template helper types, structs, and metafunctions. ">
<polygon fill="white" stroke="black" points="103,-112.5 103,-131.5 147,-131.5 147,-112.5 103,-112.5"/>
<text text-anchor="middle" x="125" y="-119.5" font-family="Helvetica,sans-Serif" font-size="10.00">Tmp.h</text>
</a>
</g>
</g>
<!-- Node1&#45;&gt;Node5 -->
<g id="edge8" class="edge"><title>Node1&#45;&gt;Node5</title>
<path fill="none" stroke="midnightblue" d="M137.739,-336.419C139.472,-327.399 142.013,-312.77 143,-300 146.143,-259.348 141.345,-211.458 135,-168 133.712,-159.18 131.652,-149.517 129.736,-141.414"/>
<polygon fill="midnightblue" stroke="midnightblue" points="133.096,-140.424 127.297,-131.557 126.301,-142.105 133.096,-140.424"/>
</g>
<!-- Node3 -->
<g id="node3" class="node"><title>Node3</title>
<g id="a_node3"><a xlink:href="../../d4/dda/_pair_8h.html" target="_top" xlink:title="Implementation of a 2&#45;element tuple. ">
<polygon fill="white" stroke="black" points="41,-224.5 41,-243.5 83,-243.5 83,-224.5 41,-224.5"/>
<text text-anchor="middle" x="62" y="-231.5" font-family="Helvetica,sans-Serif" font-size="10.00">Pair.h</text>
</a>
</g>
</g>
<!-- Node2&#45;&gt;Node3 -->
<g id="edge2" class="edge"><title>Node2&#45;&gt;Node3</title>
<path fill="none" stroke="midnightblue" d="M102.074,-280.083C95.1539,-272.298 84.9346,-260.801 76.548,-251.367"/>
<polygon fill="midnightblue" stroke="midnightblue" points="79.0383,-248.9 69.7787,-243.751 73.8065,-253.55 79.0383,-248.9"/>
</g>
<!-- Node2&#45;&gt;Node5 -->
<g id="edge7" class="edge"><title>Node2&#45;&gt;Node5</title>
<path fill="none" stroke="midnightblue" d="M110.806,-280.075C113.168,-253.945 120.101,-177.211 123.321,-141.577"/>
<polygon fill="midnightblue" stroke="midnightblue" points="126.812,-141.843 124.226,-131.568 119.84,-141.213 126.812,-141.843"/>
</g>
<!-- Node4 -->
<g id="node4" class="node"><title>Node4</title>
<g id="a_node4"><a xlink:href="../../db/d2a/_utility_8h.html" target="_top" xlink:title="Various helper functions. ">
<polygon fill="white" stroke="black" points="-0.5,-168.5 -0.5,-187.5 96.5,-187.5 96.5,-168.5 -0.5,-168.5"/>
<text text-anchor="middle" x="48" y="-175.5" font-family="Helvetica,sans-Serif" font-size="10.00">wlib/utility/Utility.h</text>
</a>
</g>
</g>
<!-- Node3&#45;&gt;Node4 -->
<g id="edge3" class="edge"><title>Node3&#45;&gt;Node4</title>
<path fill="none" stroke="midnightblue" d="M59.6882,-224.083C57.833,-216.927 55.1647,-206.635 52.8458,-197.691"/>
<polygon fill="midnightblue" stroke="midnightblue" points="56.1665,-196.553 50.2688,-187.751 49.3905,-198.309 56.1665,-196.553"/>
</g>
<!-- Node4&#45;&gt;Node5 -->
<g id="edge4" class="edge"><title>Node4&#45;&gt;Node5</title>
<path fill="none" stroke="midnightblue" d="M60.3714,-168.324C72.1585,-160.058 90.1323,-147.453 104.136,-137.632"/>
<polygon fill="midnightblue" stroke="midnightblue" points="106.482,-140.262 112.659,-131.655 102.462,-134.531 106.482,-140.262"/>
</g>
<!-- Node6 -->
<g id="node6" class="node"><title>Node6</title>
<g id="a_node6"><a xlink:href="../../d0/db6/_types_8h.html" target="_top" xlink:title="type definition of all the string types we will be using ">
<polygon fill="white" stroke="black" points="89,-56.5 89,-75.5 161,-75.5 161,-56.5 89,-56.5"/>
<text text-anchor="middle" x="125" y="-63.5" font-family="Helvetica,sans-Serif" font-size="10.00">wlib/Types.h</text>
</a>
</g>
</g>
<!-- Node5&#45;&gt;Node6 -->
<g id="edge5" class="edge"><title>Node5&#45;&gt;Node6</title>
<path fill="none" stroke="midnightblue" d="M125,-112.083C125,-105.006 125,-94.8611 125,-85.9865"/>
<polygon fill="midnightblue" stroke="midnightblue" points="128.5,-85.751 125,-75.7511 121.5,-85.7511 128.5,-85.751"/>
</g>
<!-- Node7 -->
<g id="node7" class="node"><title>Node7</title>
<polygon fill="white" stroke="#bfbfbf" points="100.5,-0.5 100.5,-19.5 149.5,-19.5 149.5,-0.5 100.5,-0.5"/>
<text text-anchor="middle" x="125" y="-7.5" font-family="Helvetica,sans-Serif" font-size="10.00">stdint.h</text>
</g>
<!-- Node6&#45;&gt;Node7 -->
<g id="edge6" class="edge"><title>Node6&#45;&gt;Node7</title>
<path fill="none" stroke="midnightblue" d="M125,-56.083C125,-49.0059 125,-38.8611 125,-29.9865"/>
<polygon fill="midnightblue" stroke="midnightblue" points="128.5,-29.751 125,-19.7511 121.5,-29.7511 128.5,-29.751"/>
</g>
</g>
</svg>
