<?xml version="1.0" encoding="UTF-8" standalone="no"?>
<!DOCTYPE svg PUBLIC "-//W3C//DTD SVG 1.1//EN"
 "http://www.w3.org/Graphics/SVG/1.1/DTD/svg11.dtd">
<!-- Generated by graphviz version 2.36.0 (20140111.2315)
 -->
<!-- Title: stl/Pair.h Pages: 1 -->
<!--zoomable 420 -->
<svg id="main" version="1.1" xmlns="http://www.w3.org/2000/svg" xmlns:xlink="http://www.w3.org/1999/xlink" xml:space="preserve" onload="init(evt)">
<style type="text/css"><![CDATA[
.edge:hover path { stroke: red; }
.edge:hover polygon { stroke: red; fill: red; }
]]></style>
<script type="text/javascript"><![CDATA[
var edges = document.getElementsByTagName('g');
if (edges && edges.length) {
  for (var i=0;i<edges.length;i++) {
    if (edges[i].id.substr(0,4)=='edge') {
      edges[i].setAttribute('class','edge');
    }
  }
}
]]></script>
        <defs>
                <circle id="rim" cx="0" cy="0" r="7"/>
                <circle id="rim2" cx="0" cy="0" r="3.5"/>
                <g id="zoomPlus">
                        <use xlink:href="#rim" fill="#404040">
                                <set attributeName="fill" to="#808080" begin="zoomplus.mouseover" end="zoomplus.mouseout"/>
                        </use>
                        <path d="M-4,0h8M0,-4v8" fill="none" stroke="white" stroke-width="1.5" pointer-events="none"/>
                </g>
                <g id="zoomMin">
                        <use xlink:href="#rim" fill="#404040">
                                <set attributeName="fill" to="#808080" begin="zoomminus.mouseover" end="zoomminus.mouseout"/>
                        </use>
                        <path d="M-4,0h8" fill="none" stroke="white" stroke-width="1.5" pointer-events="none"/>
                </g>
                <g id="dirArrow">
                        <path fill="none" stroke="white" stroke-width="1.5" d="M0,-3.0v7 M-2.5,-0.5L0,-3.0L2.5,-0.5"/>
                </g>
               <g id="resetDef">
                       <use xlink:href="#rim2" fill="#404040">
                               <set attributeName="fill" to="#808080" begin="reset.mouseover" end="reset.mouseout"/>
                       </use>
               </g>
        </defs>

<script type="text/javascript">
var viewWidth = 659;
var viewHeight = 420;
var sectionId = 'dynsection-1';
</script>
<script xlink:href="../../svgpan.js"/>
<svg id="graph" class="graph">
<g id="viewport">
<title>stl/Pair.h</title>
<polygon fill="white" stroke="none" points="-4,4 -4,-416 655.384,-416 655.384,4 -4,4"/>
<!-- Node1 -->
<g id="node1" class="node"><title>Node1</title>
<polygon fill="#bfbfbf" stroke="black" points="438.384,-392.5 438.384,-411.5 494.384,-411.5 494.384,-392.5 438.384,-392.5"/>
<text text-anchor="middle" x="466.384" y="-399.5" font-family="Helvetica,sans-Serif" font-size="10.00">stl/Pair.h</text>
</g>
<!-- Node2 -->
<g id="node2" class="node"><title>Node2</title>
<g id="a_node2"><a xlink:href="../../d8/dd7/_concept_8h.html" target="_top" xlink:title="Concept definitions. ">
<polygon fill="white" stroke="black" points="428.884,-336.5 428.884,-355.5 503.884,-355.5 503.884,-336.5 428.884,-336.5"/>
<text text-anchor="middle" x="466.384" y="-343.5" font-family="Helvetica,sans-Serif" font-size="10.00">stl/Concept.h</text>
</a>
</g>
</g>
<!-- Node1&#45;&gt;Node2 -->
<g id="edge1" class="edge"><title>Node1&#45;&gt;Node2</title>
<path fill="none" stroke="midnightblue" d="M466.384,-381.805C466.384,-372.91 466.384,-362.78 466.384,-355.751"/>
<polygon fill="midnightblue" stroke="midnightblue" points="462.884,-382.083 466.384,-392.083 469.884,-382.083 462.884,-382.083"/>
</g>
<!-- Node10 -->
<g id="node10" class="node"><title>Node10</title>
<g id="a_node10"><a xlink:href="../../d5/d08/_red_black_tree_8h.html" target="_top" xlink:title="Red black tree implementation. ">
<polygon fill="white" stroke="black" points="510.884,-56.5 510.884,-75.5 611.884,-75.5 611.884,-56.5 510.884,-56.5"/>
<text text-anchor="middle" x="561.384" y="-63.5" font-family="Helvetica,sans-Serif" font-size="10.00">stl/RedBlackTree.h</text>
</a>
</g>
</g>
<!-- Node1&#45;&gt;Node10 -->
<g id="edge27" class="edge"><title>Node1&#45;&gt;Node10</title>
<path fill="none" stroke="midnightblue" d="M490.629,-387.085C518.775,-368.914 561.384,-334.261 561.384,-291 561.384,-291 561.384,-291 561.384,-177 561.384,-139.188 561.384,-94.0636 561.384,-75.5578"/>
<polygon fill="midnightblue" stroke="midnightblue" points="488.723,-384.149 482.071,-392.396 492.413,-390.097 488.723,-384.149"/>
</g>
<!-- Node14 -->
<g id="node14" class="node"><title>Node14</title>
<g id="a_node14"><a xlink:href="../../d3/dbe/_chain_map_8h.html" target="_top" xlink:title="Hasher map implementation. ">
<polygon fill="white" stroke="black" points="110.884,-112.5 110.884,-131.5 193.884,-131.5 193.884,-112.5 110.884,-112.5"/>
<text text-anchor="middle" x="152.384" y="-119.5" font-family="Helvetica,sans-Serif" font-size="10.00">stl/ChainMap.h</text>
</a>
</g>
</g>
<!-- Node1&#45;&gt;Node14 -->
<g id="edge25" class="edge"><title>Node1&#45;&gt;Node14</title>
<path fill="none" stroke="midnightblue" d="M428.137,-396.125C343.018,-384.208 145.384,-350.167 145.384,-291 145.384,-291 145.384,-291 145.384,-233 145.384,-195.111 149.571,-150.029 151.469,-131.546"/>
<polygon fill="midnightblue" stroke="midnightblue" points="427.796,-399.611 438.178,-397.501 428.746,-392.676 427.796,-399.611"/>
</g>
<!-- Node16 -->
<g id="node16" class="node"><title>Node16</title>
<g id="a_node16"><a xlink:href="../../d5/d7a/_open_map_8h.html" target="_top" xlink:title="Hash map implementation. ">
<polygon fill="white" stroke="black" points="12.3838,-112.5 12.3838,-131.5 92.3838,-131.5 92.3838,-112.5 12.3838,-112.5"/>
<text text-anchor="middle" x="52.3838" y="-119.5" font-family="Helvetica,sans-Serif" font-size="10.00">stl/OpenMap.h</text>
</a>
</g>
</g>
<!-- Node1&#45;&gt;Node16 -->
<g id="edge26" class="edge"><title>Node1&#45;&gt;Node16</title>
<path fill="none" stroke="midnightblue" d="M428.228,-399.579C321.452,-394.572 27.3838,-373.313 27.3838,-291 27.3838,-291 27.3838,-291 27.3838,-233 27.3838,-194.419 42.1882,-150.077 49.0121,-131.687"/>
<polygon fill="midnightblue" stroke="midnightblue" points="428.108,-403.077 438.255,-400.026 428.421,-396.084 428.108,-403.077"/>
</g>
<!-- Node20 -->
<g id="node20" class="node"><title>Node20</title>
<g id="a_node20"><a xlink:href="../../d7/d2a/_tuple_8h.html" target="_top" xlink:title="Template oriented tuple implementation. ">
<polygon fill="white" stroke="black" points="589.384,-336.5 589.384,-355.5 651.384,-355.5 651.384,-336.5 589.384,-336.5"/>
<text text-anchor="middle" x="620.384" y="-343.5" font-family="Helvetica,sans-Serif" font-size="10.00">stl/Tuple.h</text>
</a>
</g>
</g>
<!-- Node1&#45;&gt;Node20 -->
<g id="edge28" class="edge"><title>Node1&#45;&gt;Node20</title>
<path fill="none" stroke="midnightblue" d="M500.494,-389.039C529.471,-378.879 570.346,-364.546 596.096,-355.516"/>
<polygon fill="midnightblue" stroke="midnightblue" points="499.064,-385.832 490.786,-392.444 501.38,-392.437 499.064,-385.832"/>
</g>
<!-- Node3 -->
<g id="node3" class="node"><title>Node3</title>
<g id="a_node3"><a xlink:href="../../de/d0b/_string_iterator_8h.html" target="_top" xlink:title="strings/StringIterator.h">
<polygon fill="white" stroke="black" points="323.884,-280.5 323.884,-299.5 436.884,-299.5 436.884,-280.5 323.884,-280.5"/>
<text text-anchor="middle" x="380.384" y="-287.5" font-family="Helvetica,sans-Serif" font-size="10.00">strings/StringIterator.h</text>
</a>
</g>
</g>
<!-- Node2&#45;&gt;Node3 -->
<g id="edge2" class="edge"><title>Node2&#45;&gt;Node3</title>
<path fill="none" stroke="midnightblue" d="M443.929,-330.901C428.159,-320.999 407.57,-308.071 394.167,-299.655"/>
<polygon fill="midnightblue" stroke="midnightblue" points="442.236,-333.97 452.566,-336.324 445.959,-328.042 442.236,-333.97"/>
</g>
<!-- Node9 -->
<g id="node9" class="node"><title>Node9</title>
<g id="a_node9"><a xlink:href="../../df/d03/_array_heap_8h.html" target="_top" xlink:title="Heap manipulation and implementation. ">
<polygon fill="white" stroke="black" points="407.884,-56.5 407.884,-75.5 492.884,-75.5 492.884,-56.5 407.884,-56.5"/>
<text text-anchor="middle" x="450.384" y="-63.5" font-family="Helvetica,sans-Serif" font-size="10.00">stl/ArrayHeap.h</text>
</a>
</g>
</g>
<!-- Node2&#45;&gt;Node9 -->
<g id="edge24" class="edge"><title>Node2&#45;&gt;Node9</title>
<path fill="none" stroke="midnightblue" d="M481.174,-328.703C498.063,-308.343 523.384,-271.7 523.384,-235 523.384,-235 523.384,-235 523.384,-177 523.384,-146.775 520.016,-137.238 503.384,-112 493.288,-96.68 476.496,-83.6883 464.519,-75.6609"/>
<polygon fill="midnightblue" stroke="midnightblue" points="478.43,-326.525 474.55,-336.384 483.732,-331.096 478.43,-326.525"/>
</g>
<!-- Node4 -->
<g id="node4" class="node"><title>Node4</title>
<g id="a_node4"><a xlink:href="../../db/db5/_string_8h.html" target="_top" xlink:title="strings/String.h">
<polygon fill="white" stroke="black" points="295.884,-224.5 295.884,-243.5 378.884,-243.5 378.884,-224.5 295.884,-224.5"/>
<text text-anchor="middle" x="337.384" y="-231.5" font-family="Helvetica,sans-Serif" font-size="10.00">strings/String.h</text>
</a>
</g>
</g>
<!-- Node3&#45;&gt;Node4 -->
<g id="edge3" class="edge"><title>Node3&#45;&gt;Node4</title>
<path fill="none" stroke="midnightblue" d="M366.961,-272.144C359.47,-262.736 350.447,-251.405 344.352,-243.751"/>
<polygon fill="midnightblue" stroke="midnightblue" points="364.316,-274.44 373.283,-280.083 369.792,-270.08 364.316,-274.44"/>
</g>
<!-- Node5 -->
<g id="node5" class="node"><title>Node5</title>
<g id="a_node5"><a xlink:href="../../de/d6d/_bitset_8h.html" target="_top" xlink:title="Bitset is a class that provides bits manipulation methods. ">
<polygon fill="white" stroke="black" points="366.384,-168.5 366.384,-187.5 430.384,-187.5 430.384,-168.5 366.384,-168.5"/>
<text text-anchor="middle" x="398.384" y="-175.5" font-family="Helvetica,sans-Serif" font-size="10.00">stl/Bitset.h</text>
</a>
</g>
</g>
<!-- Node4&#45;&gt;Node5 -->
<g id="edge4" class="edge"><title>Node4&#45;&gt;Node5</title>
<path fill="none" stroke="midnightblue" d="M354.851,-217.537C365.728,-207.909 379.328,-195.869 388.405,-187.834"/>
<polygon fill="midnightblue" stroke="midnightblue" points="352.352,-215.075 347.184,-224.324 356.992,-220.316 352.352,-215.075"/>
</g>
<!-- Node8 -->
<g id="node8" class="node"><title>Node8</title>
<g id="a_node8"><a xlink:href="../../d7/d0c/_comparator_8h.html" target="_top" xlink:title="Comparator implementation for basic types. ">
<polygon fill="white" stroke="black" points="405.884,-112.5 405.884,-131.5 494.884,-131.5 494.884,-112.5 405.884,-112.5"/>
<text text-anchor="middle" x="450.384" y="-119.5" font-family="Helvetica,sans-Serif" font-size="10.00">stl/Comparator.h</text>
</a>
</g>
</g>
<!-- Node4&#45;&gt;Node8 -->
<g id="edge7" class="edge"><title>Node4&#45;&gt;Node8</title>
<path fill="none" stroke="midnightblue" d="M388.637,-221.353C407.278,-214.606 426.829,-204.127 439.384,-188 452.32,-171.383 452.343,-145.074 451.333,-131.589"/>
<polygon fill="midnightblue" stroke="midnightblue" points="387.4,-218.076 379.015,-224.551 389.608,-224.719 387.4,-218.076"/>
</g>
<!-- Node13 -->
<g id="node13" class="node"><title>Node13</title>
<g id="a_node13"><a xlink:href="../../d2/dc2/_equal_8h.html" target="_top" xlink:title="stl/Equal.h">
<polygon fill="white" stroke="black" points="284.884,-168.5 284.884,-187.5 347.884,-187.5 347.884,-168.5 284.884,-168.5"/>
<text text-anchor="middle" x="316.384" y="-175.5" font-family="Helvetica,sans-Serif" font-size="10.00">stl/Equal.h</text>
</a>
</g>
</g>
<!-- Node4&#45;&gt;Node13 -->
<g id="edge12" class="edge"><title>Node4&#45;&gt;Node13</title>
<path fill="none" stroke="midnightblue" d="M330.263,-214.69C326.724,-205.589 322.611,-195.014 319.787,-187.751"/>
<polygon fill="midnightblue" stroke="midnightblue" points="327.029,-216.032 333.916,-224.083 333.554,-213.494 327.029,-216.032"/>
</g>
<!-- Node18 -->
<g id="node18" class="node"><title>Node18</title>
<g id="a_node18"><a xlink:href="../../d2/dad/_hash_8h.html" target="_top" xlink:title="stl/Hash.h">
<polygon fill="white" stroke="black" points="55.3838,-168.5 55.3838,-187.5 117.384,-187.5 117.384,-168.5 55.3838,-168.5"/>
<text text-anchor="middle" x="86.3838" y="-175.5" font-family="Helvetica,sans-Serif" font-size="10.00">stl/Hash.h</text>
</a>
</g>
</g>
<!-- Node4&#45;&gt;Node18 -->
<g id="edge19" class="edge"><title>Node4&#45;&gt;Node18</title>
<path fill="none" stroke="midnightblue" d="M287.551,-222.279C236.974,-211.398 160.234,-194.888 117.643,-185.725"/>
<polygon fill="midnightblue" stroke="midnightblue" points="287.1,-225.762 297.612,-224.444 288.572,-218.918 287.1,-225.762"/>
</g>
<!-- Node19 -->
<g id="node19" class="node"><title>Node19</title>
<g id="a_node19"><a xlink:href="../../d9/dae/_string_8cpp.html" target="_top" xlink:title="strings/String.cpp">
<polygon fill="white" stroke="black" points="173.884,-168.5 173.884,-187.5 266.884,-187.5 266.884,-168.5 173.884,-168.5"/>
<text text-anchor="middle" x="220.384" y="-175.5" font-family="Helvetica,sans-Serif" font-size="10.00">strings/String.cpp</text>
</a>
</g>
</g>
<!-- Node4&#45;&gt;Node19 -->
<g id="edge23" class="edge"><title>Node4&#45;&gt;Node19</title>
<path fill="none" stroke="midnightblue" d="M309.72,-220.232C287.835,-210.131 257.887,-196.309 238.836,-187.516"/>
<polygon fill="midnightblue" stroke="midnightblue" points="308.298,-223.431 318.845,-224.444 311.232,-217.075 308.298,-223.431"/>
</g>
<!-- Node6 -->
<g id="node6" class="node"><title>Node6</title>
<g id="a_node6"><a xlink:href="../../de/d66/_packet_constructor_8h.html" target="_top" xlink:title="comm/PacketConstructor.h">
<polygon fill="white" stroke="black" points="250.884,-112.5 250.884,-131.5 387.884,-131.5 387.884,-112.5 250.884,-112.5"/>
<text text-anchor="middle" x="319.384" y="-119.5" font-family="Helvetica,sans-Serif" font-size="10.00">comm/PacketConstructor.h</text>
</a>
</g>
</g>
<!-- Node5&#45;&gt;Node6 -->
<g id="edge5" class="edge"><title>Node5&#45;&gt;Node6</title>
<path fill="none" stroke="midnightblue" d="M377.349,-162.622C362.918,-152.757 344.242,-139.992 332.045,-131.655"/>
<polygon fill="midnightblue" stroke="midnightblue" points="375.46,-165.57 385.691,-168.324 379.41,-159.791 375.46,-165.57"/>
</g>
<!-- Node7 -->
<g id="node7" class="node"><title>Node7</title>
<g id="a_node7"><a xlink:href="../../d9/dde/_packet_constructor_8cpp.html" target="_top" xlink:title="Creates a packet for sending data from the slave systems to the main computer. ">
<polygon fill="white" stroke="black" points="242.884,-56.5 242.884,-75.5 389.884,-75.5 389.884,-56.5 242.884,-56.5"/>
<text text-anchor="middle" x="316.384" y="-63.5" font-family="Helvetica,sans-Serif" font-size="10.00">comm/PacketConstructor.cpp</text>
</a>
</g>
</g>
<!-- Node6&#45;&gt;Node7 -->
<g id="edge6" class="edge"><title>Node6&#45;&gt;Node7</title>
<path fill="none" stroke="midnightblue" d="M318.317,-101.805C317.823,-92.9102 317.26,-82.7798 316.87,-75.7511"/>
<polygon fill="midnightblue" stroke="midnightblue" points="314.839,-102.293 318.888,-112.083 321.828,-101.904 314.839,-102.293"/>
</g>
<!-- Node8&#45;&gt;Node9 -->
<g id="edge8" class="edge"><title>Node8&#45;&gt;Node9</title>
<path fill="none" stroke="midnightblue" d="M450.384,-101.805C450.384,-92.9102 450.384,-82.7798 450.384,-75.7511"/>
<polygon fill="midnightblue" stroke="midnightblue" points="446.884,-102.083 450.384,-112.083 453.884,-102.083 446.884,-102.083"/>
</g>
<!-- Node8&#45;&gt;Node10 -->
<g id="edge9" class="edge"><title>Node8&#45;&gt;Node10</title>
<path fill="none" stroke="midnightblue" d="M477.389,-107.862C497.972,-97.8492 525.728,-84.3458 543.594,-75.6545"/>
<polygon fill="midnightblue" stroke="midnightblue" points="475.679,-104.802 468.218,-112.324 478.741,-111.097 475.679,-104.802"/>
</g>
<!-- Node11 -->
<g id="node11" class="node"><title>Node11</title>
<g id="a_node11"><a xlink:href="../../df/d87/_tree_map_8h.html" target="_top" xlink:title="Map implementation using red black tree. ">
<polygon fill="white" stroke="black" points="476.884,-0.5 476.884,-19.5 553.884,-19.5 553.884,-0.5 476.884,-0.5"/>
<text text-anchor="middle" x="515.384" y="-7.5" font-family="Helvetica,sans-Serif" font-size="10.00">stl/TreeMap.h</text>
</a>
</g>
</g>
<!-- Node10&#45;&gt;Node11 -->
<g id="edge10" class="edge"><title>Node10&#45;&gt;Node11</title>
<path fill="none" stroke="midnightblue" d="M547.27,-48.4314C539.208,-38.9673 529.425,-27.4827 522.838,-19.7511"/>
<polygon fill="midnightblue" stroke="midnightblue" points="544.639,-50.7402 553.788,-56.083 549.967,-46.2009 544.639,-50.7402"/>
</g>
<!-- Node12 -->
<g id="node12" class="node"><title>Node12</title>
<g id="a_node12"><a xlink:href="../../dd/dba/_tree_set_8h.html" target="_top" xlink:title="Set implementation using red black tree. ">
<polygon fill="white" stroke="black" points="571.884,-0.5 571.884,-19.5 644.884,-19.5 644.884,-0.5 571.884,-0.5"/>
<text text-anchor="middle" x="608.384" y="-7.5" font-family="Helvetica,sans-Serif" font-size="10.00">stl/TreeSet.h</text>
</a>
</g>
</g>
<!-- Node10&#45;&gt;Node12 -->
<g id="edge11" class="edge"><title>Node10&#45;&gt;Node12</title>
<path fill="none" stroke="midnightblue" d="M575.805,-48.4314C584.042,-38.9673 594.038,-27.4827 600.767,-19.7511"/>
<polygon fill="midnightblue" stroke="midnightblue" points="573.07,-46.2421 569.145,-56.083 578.35,-50.8378 573.07,-46.2421"/>
</g>
<!-- Node13&#45;&gt;Node8 -->
<g id="edge13" class="edge"><title>Node13&#45;&gt;Node8</title>
<path fill="none" stroke="midnightblue" d="M347.061,-164.638C372.207,-154.504 407.138,-140.427 429.25,-131.516"/>
<polygon fill="midnightblue" stroke="midnightblue" points="345.583,-161.459 337.616,-168.444 348.2,-167.952 345.583,-161.459"/>
</g>
<!-- Node13&#45;&gt;Node14 -->
<g id="edge14" class="edge"><title>Node13&#45;&gt;Node14</title>
<path fill="none" stroke="midnightblue" d="M280.864,-165.304C249.962,-155.129 205.91,-140.625 178.248,-131.516"/>
<polygon fill="midnightblue" stroke="midnightblue" points="279.804,-168.64 290.397,-168.444 281.994,-161.992 279.804,-168.64"/>
</g>
<!-- Node13&#45;&gt;Node16 -->
<g id="edge16" class="edge"><title>Node13&#45;&gt;Node16</title>
<path fill="none" stroke="midnightblue" d="M274.769,-167.898C205.008,-153.249 135.402,-139.36 92.7116,-130.924"/>
<polygon fill="midnightblue" stroke="midnightblue" points="274.105,-171.335 284.611,-169.97 275.546,-164.485 274.105,-171.335"/>
</g>
<!-- Node17 -->
<g id="node17" class="node"><title>Node17</title>
<g id="a_node17"><a xlink:href="../../d0/de6/_open_set_8h.html" target="_top" xlink:title="Hash set implementation. ">
<polygon fill="white" stroke="black" points="13.8838,-56.5 13.8838,-75.5 90.8838,-75.5 90.8838,-56.5 13.8838,-56.5"/>
<text text-anchor="middle" x="52.3838" y="-63.5" font-family="Helvetica,sans-Serif" font-size="10.00">stl/OpenSet.h</text>
</a>
</g>
</g>
<!-- Node13&#45;&gt;Node17 -->
<g id="edge18" class="edge"><title>Node13&#45;&gt;Node17</title>
<path fill="none" stroke="midnightblue" d="M293.675,-163.236C265.927,-146.562 220.446,-119.739 202.384,-112 165.023,-95.9909 120.143,-83.3332 89.2669,-75.5723"/>
<polygon fill="midnightblue" stroke="midnightblue" points="291.969,-166.294 302.341,-168.459 295.583,-160.299 291.969,-166.294"/>
</g>
<!-- Node15 -->
<g id="node15" class="node"><title>Node15</title>
<g id="a_node15"><a xlink:href="../../d6/d59/_chain_set_8h.html" target="_top" xlink:title="Hash set implementation. ">
<polygon fill="white" stroke="black" points="112.884,-56.5 112.884,-75.5 191.884,-75.5 191.884,-56.5 112.884,-56.5"/>
<text text-anchor="middle" x="152.384" y="-63.5" font-family="Helvetica,sans-Serif" font-size="10.00">stl/ChainSet.h</text>
</a>
</g>
</g>
<!-- Node14&#45;&gt;Node15 -->
<g id="edge15" class="edge"><title>Node14&#45;&gt;Node15</title>
<path fill="none" stroke="midnightblue" d="M152.384,-101.805C152.384,-92.9102 152.384,-82.7798 152.384,-75.7511"/>
<polygon fill="midnightblue" stroke="midnightblue" points="148.884,-102.083 152.384,-112.083 155.884,-102.083 148.884,-102.083"/>
</g>
<!-- Node16&#45;&gt;Node17 -->
<g id="edge17" class="edge"><title>Node16&#45;&gt;Node17</title>
<path fill="none" stroke="midnightblue" d="M52.3838,-101.805C52.3838,-92.9102 52.3838,-82.7798 52.3838,-75.7511"/>
<polygon fill="midnightblue" stroke="midnightblue" points="48.8839,-102.083 52.3838,-112.083 55.8839,-102.083 48.8839,-102.083"/>
</g>
<!-- Node18&#45;&gt;Node14 -->
<g id="edge20" class="edge"><title>Node18&#45;&gt;Node14</title>
<path fill="none" stroke="midnightblue" d="M104.937,-161.82C116.762,-152.145 131.669,-139.948 141.587,-131.834"/>
<polygon fill="midnightblue" stroke="midnightblue" points="102.511,-159.283 96.9878,-168.324 106.944,-164.7 102.511,-159.283"/>
</g>
<!-- Node18&#45;&gt;Node16 -->
<g id="edge21" class="edge"><title>Node18&#45;&gt;Node16</title>
<path fill="none" stroke="midnightblue" d="M75.4065,-159.566C69.5567,-150.275 62.6142,-139.248 57.8937,-131.751"/>
<polygon fill="midnightblue" stroke="midnightblue" points="72.4793,-161.486 80.7693,-168.083 78.403,-157.756 72.4793,-161.486"/>
</g>
<!-- Node18&#45;&gt;Node17 -->
<g id="edge22" class="edge"><title>Node18&#45;&gt;Node17</title>
<path fill="none" stroke="midnightblue" d="M45.7008,-165.124C29.5861,-158.204 12.7062,-147.659 3.38375,-132 -9.41207,-110.507 18.9104,-87.662 37.6093,-75.6092"/>
<polygon fill="midnightblue" stroke="midnightblue" points="44.4502,-168.393 55.0376,-168.791 47.009,-161.877 44.4502,-168.393"/>
</g>
</g>
</svg>
        <g id="navigator" transform="translate(0 0)" fill="#404254">
                <rect fill="#f2f5e9" fill-opacity="0.5" stroke="#606060" stroke-width=".5" x="0" y="0" width="60" height="60"/>
                <use id="zoomplus" xlink:href="#zoomPlus" x="17" y="9" onmousedown="handleZoom(evt,'in')"/>
                <use id="zoomminus" xlink:href="#zoomMin" x="42" y="9" onmousedown="handleZoom(evt,'out')"/>
                <use id="reset" xlink:href="#resetDef" x="30" y="36" onmousedown="handleReset()"/>
                <g id="arrowUp" xlink:href="#dirArrow" transform="translate(30 24)" onmousedown="handlePan(0,-1)">
                  <use xlink:href="#rim" fill="#404040">
                        <set attributeName="fill" to="#808080" begin="arrowUp.mouseover" end="arrowUp.mouseout"/>
                  </use>
                  <path fill="none" stroke="white" stroke-width="1.5" d="M0,-3.0v7 M-2.5,-0.5L0,-3.0L2.5,-0.5"/>
                </g>
                <g id="arrowRight" xlink:href="#dirArrow" transform="rotate(90) translate(36 -43)" onmousedown="handlePan(1,0)">
                  <use xlink:href="#rim" fill="#404040">
                        <set attributeName="fill" to="#808080" begin="arrowRight.mouseover" end="arrowRight.mouseout"/>
                  </use>
                  <path fill="none" stroke="white" stroke-width="1.5" d="M0,-3.0v7 M-2.5,-0.5L0,-3.0L2.5,-0.5"/>
                </g>
                <g id="arrowDown" xlink:href="#dirArrow" transform="rotate(180) translate(-30 -48)" onmousedown="handlePan(0,1)">
                  <use xlink:href="#rim" fill="#404040">
                        <set attributeName="fill" to="#808080" begin="arrowDown.mouseover" end="arrowDown.mouseout"/>
                  </use>
                  <path fill="none" stroke="white" stroke-width="1.5" d="M0,-3.0v7 M-2.5,-0.5L0,-3.0L2.5,-0.5"/>
                </g>
                <g id="arrowLeft" xlink:href="#dirArrow" transform="rotate(270) translate(-36 17)" onmousedown="handlePan(-1,0)">
                  <use xlink:href="#rim" fill="#404040">
                        <set attributeName="fill" to="#808080" begin="arrowLeft.mouseover" end="arrowLeft.mouseout"/>
                  </use>
                  <path fill="none" stroke="white" stroke-width="1.5" d="M0,-3.0v7 M-2.5,-0.5L0,-3.0L2.5,-0.5"/>
                </g>
        </g>
        <svg viewBox="0 0 15 15" width="100%" height="30px" preserveAspectRatio="xMaxYMin meet">
         <g id="arrow_out" transform="scale(0.3 0.3)">
          <a xlink:href="_pair_8h__dep__incl_org.svg" target="_base">
           <rect id="button" ry="5" rx="5" y="6" x="6" height="38" width="38"
                fill="#f2f5e9" fill-opacity="0.5" stroke="#606060" stroke-width="1.0"/>
           <path id="arrow"
             d="M 11.500037,31.436501 C 11.940474,20.09759 22.043105,11.32322 32.158766,21.979434 L 37.068811,17.246167 C 37.068811,17.246167 37.088388,32 37.088388,32 L 22.160133,31.978069 C 22.160133,31.978069 26.997745,27.140456 26.997745,27.140456 C 18.528582,18.264221 13.291696,25.230495 11.500037,31.436501 z"
             style="fill:#404040;"/>
          </a>
         </g>
        </svg>
</svg>
