<?xml version="1.0" encoding="UTF-8" standalone="no"?>
<!DOCTYPE svg PUBLIC "-//W3C//DTD SVG 1.1//EN"
 "http://www.w3.org/Graphics/SVG/1.1/DTD/svg11.dtd">
<!-- Generated by graphviz version 2.36.0 (20140111.2315)
 -->
<!-- Title: wlib/stl/Pair.h Pages: 1 -->
<!--zoomable 420 -->
<svg id="main" version="1.1" xmlns="http://www.w3.org/2000/svg" xmlns:xlink="http://www.w3.org/1999/xlink" xml:space="preserve" onload="init(evt)">
<style type="text/css"><![CDATA[
.edge:hover path { stroke: red; }
.edge:hover polygon { stroke: red; fill: red; }
]]></style>
<script type="text/javascript"><![CDATA[
var edges = document.getElementsByTagName('g');
if (edges && edges.length) {
  for (var i=0;i<edges.length;i++) {
    if (edges[i].id.substr(0,4)=='edge') {
      edges[i].setAttribute('class','edge');
    }
  }
}
]]></script>
        <defs>
                <circle id="rim" cx="0" cy="0" r="7"/>
                <circle id="rim2" cx="0" cy="0" r="3.5"/>
                <g id="zoomPlus">
                        <use xlink:href="#rim" fill="#404040">
                                <set attributeName="fill" to="#808080" begin="zoomplus.mouseover" end="zoomplus.mouseout"/>
                        </use>
                        <path d="M-4,0h8M0,-4v8" fill="none" stroke="white" stroke-width="1.5" pointer-events="none"/>
                </g>
                <g id="zoomMin">
                        <use xlink:href="#rim" fill="#404040">
                                <set attributeName="fill" to="#808080" begin="zoomminus.mouseover" end="zoomminus.mouseout"/>
                        </use>
                        <path d="M-4,0h8" fill="none" stroke="white" stroke-width="1.5" pointer-events="none"/>
                </g>
                <g id="dirArrow">
                        <path fill="none" stroke="white" stroke-width="1.5" d="M0,-3.0v7 M-2.5,-0.5L0,-3.0L2.5,-0.5"/>
                </g>
               <g id="resetDef">
                       <use xlink:href="#rim2" fill="#404040">
                               <set attributeName="fill" to="#808080" begin="reset.mouseover" end="reset.mouseout"/>
                       </use>
               </g>
        </defs>

<script type="text/javascript">
var viewWidth = 1292;
var viewHeight = 420;
var sectionId = 'dynsection-1';
</script>
<script xlink:href="../../svgpan.js"/>
<svg id="graph" class="graph">
<g id="viewport">
<title>wlib/stl/Pair.h</title>
<polygon fill="white" stroke="none" points="-4,4 -4,-416 1288,-416 1288,4 -4,4"/>
<!-- Node1 -->
<g id="node1" class="node"><title>Node1</title>
<polygon fill="#bfbfbf" stroke="black" points="337,-392.5 337,-411.5 413,-411.5 413,-392.5 337,-392.5"/>
<text text-anchor="middle" x="375" y="-399.5" font-family="Helvetica,sans-Serif" font-size="10.00">wlib/stl/Pair.h</text>
</g>
<!-- Node2 -->
<g id="node2" class="node"><title>Node2</title>
<g id="a_node2"><a xlink:href="../../d8/dd7/_concept_8h.html" target="_top" xlink:title="Concept definitions. ">
<polygon fill="white" stroke="black" points="97.5,-336.5 97.5,-355.5 192.5,-355.5 192.5,-336.5 97.5,-336.5"/>
<text text-anchor="middle" x="145" y="-343.5" font-family="Helvetica,sans-Serif" font-size="10.00">wlib/stl/Concept.h</text>
</a>
</g>
</g>
<!-- Node1&#45;&gt;Node2 -->
<g id="edge1" class="edge"><title>Node1&#45;&gt;Node2</title>
<path fill="none" stroke="midnightblue" d="M328.799,-390.153C285.342,-379.95 221.159,-364.881 181.274,-355.516"/>
<polygon fill="midnightblue" stroke="midnightblue" points="328.021,-393.565 338.556,-392.444 329.621,-386.75 328.021,-393.565"/>
</g>
<!-- Node8 -->
<g id="node8" class="node"><title>Node8</title>
<g id="a_node8"><a xlink:href="../../d5/d08/_red_black_tree_8h.html" target="_top" xlink:title="Red black tree implementation. ">
<polygon fill="white" stroke="black" points="123.5,-56.5 123.5,-75.5 244.5,-75.5 244.5,-56.5 123.5,-56.5"/>
<text text-anchor="middle" x="184" y="-63.5" font-family="Helvetica,sans-Serif" font-size="10.00">wlib/stl/RedBlackTree.h</text>
</a>
</g>
</g>
<!-- Node1&#45;&gt;Node8 -->
<g id="edge46" class="edge"><title>Node1&#45;&gt;Node8</title>
<path fill="none" stroke="midnightblue" d="M364.514,-383.286C343.122,-346.989 293.162,-261.397 254,-188 236.223,-154.681 235.445,-144.374 216,-112 208.102,-98.8513 197.577,-84.5604 190.793,-75.6912"/>
<polygon fill="midnightblue" stroke="midnightblue" points="361.659,-385.334 369.758,-392.166 367.687,-381.775 361.659,-385.334"/>
</g>
<!-- Node11 -->
<g id="node11" class="node"><title>Node11</title>
<g id="a_node11"><a xlink:href="../../dd/d0b/_hash_map_8h.html" target="_top" xlink:title="wlib/stl/HashMap.h">
<polygon fill="white" stroke="black" points="320.5,-56.5 320.5,-75.5 421.5,-75.5 421.5,-56.5 320.5,-56.5"/>
<text text-anchor="middle" x="371" y="-63.5" font-family="Helvetica,sans-Serif" font-size="10.00">wlib/stl/HashMap.h</text>
</a>
</g>
</g>
<!-- Node1&#45;&gt;Node11 -->
<g id="edge34" class="edge"><title>Node1&#45;&gt;Node11</title>
<path fill="none" stroke="midnightblue" d="M375,-382.251C375,-360.357 375,-323.052 375,-291 375,-291 375,-291 375,-233 375,-172.75 372.334,-100.235 371.355,-75.6389"/>
<polygon fill="midnightblue" stroke="midnightblue" points="371.5,-382.442 375,-392.442 378.5,-382.442 371.5,-382.442"/>
</g>
<!-- Node12 -->
<g id="node12" class="node"><title>Node12</title>
<g id="a_node12"><a xlink:href="../../de/def/_hash_table_8h.html" target="_top" xlink:title="wlib/stl/HashTable.h">
<polygon fill="white" stroke="black" points="517,-112.5 517,-131.5 623,-131.5 623,-112.5 517,-112.5"/>
<text text-anchor="middle" x="570" y="-119.5" font-family="Helvetica,sans-Serif" font-size="10.00">wlib/stl/HashTable.h</text>
</a>
</g>
</g>
<!-- Node1&#45;&gt;Node12 -->
<g id="edge33" class="edge"><title>Node1&#45;&gt;Node12</title>
<path fill="none" stroke="midnightblue" d="M405.731,-388.15C440.396,-371.358 492,-338.401 492,-291 492,-291 492,-291 492,-233 492,-188.051 535.875,-148.65 557.812,-131.759"/>
<polygon fill="midnightblue" stroke="midnightblue" points="404.055,-385.069 396.46,-392.456 407.003,-391.418 404.055,-385.069"/>
</g>
<!-- Node15 -->
<g id="node15" class="node"><title>Node15</title>
<g id="a_node15"><a xlink:href="../../d8/d2e/_open_table_8h.html" target="_top" xlink:title="wlib/stl/OpenTable.h">
<polygon fill="white" stroke="black" points="869,-112.5 869,-131.5 975,-131.5 975,-112.5 869,-112.5"/>
<text text-anchor="middle" x="922" y="-119.5" font-family="Helvetica,sans-Serif" font-size="10.00">wlib/stl/OpenTable.h</text>
</a>
</g>
</g>
<!-- Node1&#45;&gt;Node15 -->
<g id="edge44" class="edge"><title>Node1&#45;&gt;Node15</title>
<path fill="none" stroke="midnightblue" d="M423.322,-400.986C552.486,-399.655 896,-387.083 896,-291 896,-291 896,-291 896,-233 896,-194.342 911.397,-150.041 918.494,-131.675"/>
<polygon fill="midnightblue" stroke="midnightblue" points="423.28,-397.486 413.31,-401.071 423.34,-404.486 423.28,-397.486"/>
</g>
<!-- Node16 -->
<g id="node16" class="node"><title>Node16</title>
<g id="a_node16"><a xlink:href="../../d0/de6/_open_set_8h.html" target="_top" xlink:title="Hash set implementation. ">
<polygon fill="white" stroke="black" points="873.5,-56.5 873.5,-75.5 970.5,-75.5 970.5,-56.5 873.5,-56.5"/>
<text text-anchor="middle" x="922" y="-63.5" font-family="Helvetica,sans-Serif" font-size="10.00">wlib/stl/OpenSet.h</text>
</a>
</g>
</g>
<!-- Node1&#45;&gt;Node16 -->
<g id="edge45" class="edge"><title>Node1&#45;&gt;Node16</title>
<path fill="none" stroke="midnightblue" d="M423.444,-400.526C511.434,-398.78 702.936,-390.899 860,-356 943.439,-337.46 1041,-376.474 1041,-291 1041,-291 1041,-291 1041,-177 1041,-124.811 978.518,-90.4989 944.104,-75.5584"/>
<polygon fill="midnightblue" stroke="midnightblue" points="423.171,-397.03 413.236,-400.71 423.297,-404.029 423.171,-397.03"/>
</g>
<!-- Node22 -->
<g id="node22" class="node"><title>Node22</title>
<g id="a_node22"><a xlink:href="../../d7/d2a/_tuple_8h.html" target="_top" xlink:title="Template oriented tuple implementation. ">
<polygon fill="white" stroke="black" points="263.5,-168.5 263.5,-187.5 346.5,-187.5 346.5,-168.5 263.5,-168.5"/>
<text text-anchor="middle" x="305" y="-175.5" font-family="Helvetica,sans-Serif" font-size="10.00">wlib/stl/Tuple.h</text>
</a>
</g>
</g>
<!-- Node1&#45;&gt;Node22 -->
<g id="edge35" class="edge"><title>Node1&#45;&gt;Node22</title>
<path fill="none" stroke="midnightblue" d="M369.193,-382.585C354.862,-337.135 318.219,-220.924 307.801,-187.884"/>
<polygon fill="midnightblue" stroke="midnightblue" points="365.911,-383.813 372.256,-392.297 372.587,-381.708 365.911,-383.813"/>
</g>
<!-- Node3 -->
<g id="node3" class="node"><title>Node3</title>
<g id="a_node3"><a xlink:href="../../df/d03/_array_heap_8h.html" target="_top" xlink:title="Heap manipulation and implementation. ">
<polygon fill="white" stroke="black" points="-0.5,-56.5 -0.5,-75.5 104.5,-75.5 104.5,-56.5 -0.5,-56.5"/>
<text text-anchor="middle" x="52" y="-63.5" font-family="Helvetica,sans-Serif" font-size="10.00">wlib/stl/ArrayHeap.h</text>
</a>
</g>
</g>
<!-- Node2&#45;&gt;Node3 -->
<g id="edge2" class="edge"><title>Node2&#45;&gt;Node3</title>
<path fill="none" stroke="midnightblue" d="M111.647,-332.042C96.6761,-324.693 79.9554,-314.107 69,-300 50.5396,-276.228 50,-265.098 50,-235 50,-235 50,-235 50,-177 50,-139.181 51.1964,-94.0608 51.7385,-75.5568"/>
<polygon fill="midnightblue" stroke="midnightblue" points="110.606,-335.415 121.155,-336.408 113.528,-329.054 110.606,-335.415"/>
</g>
<!-- Node4 -->
<g id="node4" class="node"><title>Node4</title>
<g id="a_node4"><a xlink:href="../../de/d0b/_string_iterator_8h.html" target="_top" xlink:title="wlib/strings/StringIterator.h">
<polygon fill="white" stroke="black" points="78,-280.5 78,-299.5 212,-299.5 212,-280.5 78,-280.5"/>
<text text-anchor="middle" x="145" y="-287.5" font-family="Helvetica,sans-Serif" font-size="10.00">wlib/strings/StringIterator.h</text>
</a>
</g>
</g>
<!-- Node2&#45;&gt;Node4 -->
<g id="edge3" class="edge"><title>Node2&#45;&gt;Node4</title>
<path fill="none" stroke="midnightblue" d="M145,-325.805C145,-316.91 145,-306.78 145,-299.751"/>
<polygon fill="midnightblue" stroke="midnightblue" points="141.5,-326.083 145,-336.083 148.5,-326.083 141.5,-326.083"/>
</g>
<!-- Node5 -->
<g id="node5" class="node"><title>Node5</title>
<g id="a_node5"><a xlink:href="../../db/db5/_string_8h.html" target="_top" xlink:title="wlib/strings/String.h">
<polygon fill="white" stroke="black" points="688.5,-224.5 688.5,-243.5 791.5,-243.5 791.5,-224.5 688.5,-224.5"/>
<text text-anchor="middle" x="740" y="-231.5" font-family="Helvetica,sans-Serif" font-size="10.00">wlib/strings/String.h</text>
</a>
</g>
</g>
<!-- Node4&#45;&gt;Node5 -->
<g id="edge4" class="edge"><title>Node4&#45;&gt;Node5</title>
<path fill="none" stroke="midnightblue" d="M222.216,-281.992C345.481,-270.805 583.481,-249.205 688.296,-239.692"/>
<polygon fill="midnightblue" stroke="midnightblue" points="221.74,-278.521 212.097,-282.91 222.373,-285.492 221.74,-278.521"/>
</g>
<!-- Node6 -->
<g id="node6" class="node"><title>Node6</title>
<g id="a_node6"><a xlink:href="../../d2/dc2/_equal_8h.html" target="_top" xlink:title="wlib/stl/Equal.h">
<polygon fill="white" stroke="black" points="647.5,-168.5 647.5,-187.5 730.5,-187.5 730.5,-168.5 647.5,-168.5"/>
<text text-anchor="middle" x="689" y="-175.5" font-family="Helvetica,sans-Serif" font-size="10.00">wlib/stl/Equal.h</text>
</a>
</g>
</g>
<!-- Node5&#45;&gt;Node6 -->
<g id="edge5" class="edge"><title>Node5&#45;&gt;Node6</title>
<path fill="none" stroke="midnightblue" d="M724.622,-216.718C715.633,-207.2 704.641,-195.561 697.265,-187.751"/>
<polygon fill="midnightblue" stroke="midnightblue" points="722.168,-219.216 731.578,-224.083 727.257,-214.41 722.168,-219.216"/>
</g>
<!-- Node7 -->
<g id="node7" class="node"><title>Node7</title>
<g id="a_node7"><a xlink:href="../../d7/d0c/_comparator_8h.html" target="_top" xlink:title="Comparator implementation for basic types. ">
<polygon fill="white" stroke="black" points="97,-112.5 97,-131.5 207,-131.5 207,-112.5 97,-112.5"/>
<text text-anchor="middle" x="152" y="-119.5" font-family="Helvetica,sans-Serif" font-size="10.00">wlib/stl/Comparator.h</text>
</a>
</g>
</g>
<!-- Node5&#45;&gt;Node7 -->
<g id="edge21" class="edge"><title>Node5&#45;&gt;Node7</title>
<path fill="none" stroke="midnightblue" d="M678.076,-230.893C565.277,-226.457 330.866,-214.315 254,-188 216.651,-175.214 179.149,-146.152 161.861,-131.616"/>
<polygon fill="midnightblue" stroke="midnightblue" points="678.149,-234.398 688.276,-231.286 678.418,-227.403 678.149,-234.398"/>
</g>
<!-- Node17 -->
<g id="node17" class="node"><title>Node17</title>
<g id="a_node17"><a xlink:href="../../de/d6d/_bitset_8h.html" target="_top" xlink:title="Bitset is a class that provides bits manipulation methods. ">
<polygon fill="white" stroke="black" points="1069,-168.5 1069,-187.5 1153,-187.5 1153,-168.5 1069,-168.5"/>
<text text-anchor="middle" x="1111" y="-175.5" font-family="Helvetica,sans-Serif" font-size="10.00">wlib/stl/Bitset.h</text>
</a>
</g>
</g>
<!-- Node5&#45;&gt;Node17 -->
<g id="edge22" class="edge"><title>Node5&#45;&gt;Node17</title>
<path fill="none" stroke="midnightblue" d="M801.911,-223.989C877.529,-212.982 1003.42,-194.659 1068.75,-185.149"/>
<polygon fill="midnightblue" stroke="midnightblue" points="800.978,-220.588 791.586,-225.492 801.986,-227.515 800.978,-220.588"/>
</g>
<!-- Node20 -->
<g id="node20" class="node"><title>Node20</title>
<g id="a_node20"><a xlink:href="../../d2/dad/_hash_8h.html" target="_top" xlink:title="wlib/stl/Hash.h">
<polygon fill="white" stroke="black" points="749,-168.5 749,-187.5 831,-187.5 831,-168.5 749,-168.5"/>
<text text-anchor="middle" x="790" y="-175.5" font-family="Helvetica,sans-Serif" font-size="10.00">wlib/stl/Hash.h</text>
</a>
</g>
</g>
<!-- Node5&#45;&gt;Node20 -->
<g id="edge25" class="edge"><title>Node5&#45;&gt;Node20</title>
<path fill="none" stroke="midnightblue" d="M755.076,-216.718C763.889,-207.2 774.666,-195.561 781.897,-187.751"/>
<polygon fill="midnightblue" stroke="midnightblue" points="752.482,-214.367 748.256,-224.083 757.619,-219.123 752.482,-214.367"/>
</g>
<!-- Node21 -->
<g id="node21" class="node"><title>Node21</title>
<g id="a_node21"><a xlink:href="../../d9/dae/_string_8cpp.html" target="_top" xlink:title="wlib/strings/String.cpp">
<polygon fill="white" stroke="black" points="1171.5,-168.5 1171.5,-187.5 1284.5,-187.5 1284.5,-168.5 1171.5,-168.5"/>
<text text-anchor="middle" x="1228" y="-175.5" font-family="Helvetica,sans-Serif" font-size="10.00">wlib/strings/String.cpp</text>
</a>
</g>
</g>
<!-- Node5&#45;&gt;Node21 -->
<g id="edge32" class="edge"><title>Node5&#45;&gt;Node21</title>
<path fill="none" stroke="midnightblue" d="M801.731,-226.929C883.835,-218.734 1033.45,-203.38 1161,-188 1164.38,-187.593 1167.85,-187.162 1171.36,-186.719"/>
<polygon fill="midnightblue" stroke="midnightblue" points="801.178,-223.467 791.574,-227.941 801.872,-230.433 801.178,-223.467"/>
</g>
<!-- Node6&#45;&gt;Node7 -->
<g id="edge6" class="edge"><title>Node6&#45;&gt;Node7</title>
<path fill="none" stroke="midnightblue" d="M637.293,-171.8C535.757,-161.59 311.154,-139.004 207.01,-128.532"/>
<polygon fill="midnightblue" stroke="midnightblue" points="637.009,-175.289 647.309,-172.808 637.71,-168.325 637.009,-175.289"/>
</g>
<!-- Node6&#45;&gt;Node11 -->
<g id="edge11" class="edge"><title>Node6&#45;&gt;Node11</title>
<path fill="none" stroke="midnightblue" d="M637.102,-174.207C565.803,-169.466 442.25,-157.73 406,-132 386.56,-118.202 376.893,-90.141 373.059,-75.827"/>
<polygon fill="midnightblue" stroke="midnightblue" points="637.022,-177.709 647.226,-174.857 637.471,-170.724 637.022,-177.709"/>
</g>
<!-- Node6&#45;&gt;Node12 -->
<g id="edge12" class="edge"><title>Node6&#45;&gt;Node12</title>
<path fill="none" stroke="midnightblue" d="M660.863,-164.232C638.604,-154.131 608.144,-140.309 588.768,-131.516"/>
<polygon fill="midnightblue" stroke="midnightblue" points="659.591,-167.498 670.144,-168.444 662.484,-161.124 659.591,-167.498"/>
</g>
<!-- Node13 -->
<g id="node13" class="node"><title>Node13</title>
<g id="a_node13"><a xlink:href="../../d2/dfc/_hash_set_8h.html" target="_top" xlink:title="wlib/stl/HashSet.h">
<polygon fill="white" stroke="black" points="528.5,-56.5 528.5,-75.5 625.5,-75.5 625.5,-56.5 528.5,-56.5"/>
<text text-anchor="middle" x="577" y="-63.5" font-family="Helvetica,sans-Serif" font-size="10.00">wlib/stl/HashSet.h</text>
</a>
</g>
</g>
<!-- Node6&#45;&gt;Node13 -->
<g id="edge15" class="edge"><title>Node6&#45;&gt;Node13</title>
<path fill="none" stroke="midnightblue" d="M675.255,-160.268C663.885,-146.762 647.056,-127.522 631,-112 616.962,-98.4287 599.378,-84.2434 588.164,-75.5129"/>
<polygon fill="midnightblue" stroke="midnightblue" points="672.786,-162.773 681.875,-168.218 678.166,-158.294 672.786,-162.773"/>
</g>
<!-- Node14 -->
<g id="node14" class="node"><title>Node14</title>
<g id="a_node14"><a xlink:href="../../d5/d7a/_open_map_8h.html" target="_top" xlink:title="Hash map implementation. ">
<polygon fill="white" stroke="black" points="752.5,-56.5 752.5,-75.5 853.5,-75.5 853.5,-56.5 752.5,-56.5"/>
<text text-anchor="middle" x="803" y="-63.5" font-family="Helvetica,sans-Serif" font-size="10.00">wlib/stl/OpenMap.h</text>
</a>
</g>
</g>
<!-- Node6&#45;&gt;Node14 -->
<g id="edge16" class="edge"><title>Node6&#45;&gt;Node14</title>
<path fill="none" stroke="midnightblue" d="M705.369,-161.205C729.805,-137.627 774.988,-94.0294 794.096,-75.5914"/>
<polygon fill="midnightblue" stroke="midnightblue" points="702.711,-158.906 697.945,-168.368 707.572,-163.943 702.711,-158.906"/>
</g>
<!-- Node6&#45;&gt;Node15 -->
<g id="edge17" class="edge"><title>Node6&#45;&gt;Node15</title>
<path fill="none" stroke="midnightblue" d="M735.803,-166.153C779.827,-155.95 844.847,-140.881 885.253,-131.516"/>
<polygon fill="midnightblue" stroke="midnightblue" points="734.871,-162.776 725.92,-168.444 736.452,-169.595 734.871,-162.776"/>
</g>
<!-- Node6&#45;&gt;Node16 -->
<g id="edge20" class="edge"><title>Node6&#45;&gt;Node16</title>
<path fill="none" stroke="midnightblue" d="M716.491,-164.021C764.679,-141.272 863.134,-94.791 903.802,-75.5914"/>
<polygon fill="midnightblue" stroke="midnightblue" points="714.832,-160.934 707.283,-168.368 717.82,-167.264 714.832,-160.934"/>
</g>
<!-- Node7&#45;&gt;Node3 -->
<g id="edge7" class="edge"><title>Node7&#45;&gt;Node3</title>
<path fill="none" stroke="midnightblue" d="M126.912,-107.453C108.451,-97.4835 83.9034,-84.2279 68.0269,-75.6545"/>
<polygon fill="midnightblue" stroke="midnightblue" points="125.471,-110.652 135.933,-112.324 128.797,-104.493 125.471,-110.652"/>
</g>
<!-- Node7&#45;&gt;Node8 -->
<g id="edge8" class="edge"><title>Node7&#45;&gt;Node8</title>
<path fill="none" stroke="midnightblue" d="M162.504,-103.275C167.973,-94.0454 174.418,-83.1703 178.814,-75.7511"/>
<polygon fill="midnightblue" stroke="midnightblue" points="159.371,-101.696 157.284,-112.083 165.393,-105.264 159.371,-101.696"/>
</g>
<!-- Node9 -->
<g id="node9" class="node"><title>Node9</title>
<g id="a_node9"><a xlink:href="../../df/d87/_tree_map_8h.html" target="_top" xlink:title="Map implementation using red black tree. ">
<polygon fill="white" stroke="black" points="224.5,-0.5 224.5,-19.5 321.5,-19.5 321.5,-0.5 224.5,-0.5"/>
<text text-anchor="middle" x="273" y="-7.5" font-family="Helvetica,sans-Serif" font-size="10.00">wlib/stl/TreeMap.h</text>
</a>
</g>
</g>
<!-- Node8&#45;&gt;Node9 -->
<g id="edge9" class="edge"><title>Node8&#45;&gt;Node9</title>
<path fill="none" stroke="midnightblue" d="M207.238,-50.9005C223.558,-40.9986 244.865,-28.0705 258.736,-19.6545"/>
<polygon fill="midnightblue" stroke="midnightblue" points="205.033,-48.1444 198.299,-56.324 208.664,-54.1289 205.033,-48.1444"/>
</g>
<!-- Node10 -->
<g id="node10" class="node"><title>Node10</title>
<g id="a_node10"><a xlink:href="../../dd/dba/_tree_set_8h.html" target="_top" xlink:title="Set implementation using red black tree. ">
<polygon fill="white" stroke="black" points="390.5,-0.5 390.5,-19.5 483.5,-19.5 483.5,-0.5 390.5,-0.5"/>
<text text-anchor="middle" x="437" y="-7.5" font-family="Helvetica,sans-Serif" font-size="10.00">wlib/stl/TreeSet.h</text>
</a>
</g>
</g>
<!-- Node8&#45;&gt;Node10 -->
<g id="edge10" class="edge"><title>Node8&#45;&gt;Node10</title>
<path fill="none" stroke="midnightblue" d="M233.918,-54.3456C281.731,-44.1405 352.948,-28.94 397.099,-19.5164"/>
<polygon fill="midnightblue" stroke="midnightblue" points="233.138,-50.9332 224.089,-56.4435 234.599,-57.779 233.138,-50.9332"/>
</g>
<!-- Node12&#45;&gt;Node11 -->
<g id="edge13" class="edge"><title>Node12&#45;&gt;Node11</title>
<path fill="none" stroke="midnightblue" d="M528.352,-109.699C490.794,-99.507 436.386,-84.7429 402.385,-75.5164"/>
<polygon fill="midnightblue" stroke="midnightblue" points="527.9,-113.202 538.468,-112.444 529.733,-106.447 527.9,-113.202"/>
</g>
<!-- Node12&#45;&gt;Node13 -->
<g id="edge14" class="edge"><title>Node12&#45;&gt;Node13</title>
<path fill="none" stroke="midnightblue" d="M572.45,-102.101C573.612,-93.1357 574.944,-82.8579 575.866,-75.7511"/>
<polygon fill="midnightblue" stroke="midnightblue" points="568.971,-101.716 571.156,-112.083 575.912,-102.616 568.971,-101.716"/>
</g>
<!-- Node15&#45;&gt;Node14 -->
<g id="edge18" class="edge"><title>Node15&#45;&gt;Node14</title>
<path fill="none" stroke="midnightblue" d="M893.863,-108.232C871.604,-98.1312 841.144,-84.3091 821.768,-75.5164"/>
<polygon fill="midnightblue" stroke="midnightblue" points="892.591,-111.498 903.144,-112.444 895.484,-105.124 892.591,-111.498"/>
</g>
<!-- Node15&#45;&gt;Node16 -->
<g id="edge19" class="edge"><title>Node15&#45;&gt;Node16</title>
<path fill="none" stroke="midnightblue" d="M922,-101.805C922,-92.9102 922,-82.7798 922,-75.7511"/>
<polygon fill="midnightblue" stroke="midnightblue" points="918.5,-102.083 922,-112.083 925.5,-102.083 918.5,-102.083"/>
</g>
<!-- Node18 -->
<g id="node18" class="node"><title>Node18</title>
<g id="a_node18"><a xlink:href="../../de/d66/_packet_constructor_8h.html" target="_top" xlink:title="wlib/comm/PacketConstructor.h">
<polygon fill="white" stroke="black" points="1069.5,-112.5 1069.5,-131.5 1226.5,-131.5 1226.5,-112.5 1069.5,-112.5"/>
<text text-anchor="middle" x="1148" y="-119.5" font-family="Helvetica,sans-Serif" font-size="10.00">wlib/comm/PacketConstructor.h</text>
</a>
</g>
</g>
<!-- Node17&#45;&gt;Node18 -->
<g id="edge23" class="edge"><title>Node17&#45;&gt;Node18</title>
<path fill="none" stroke="midnightblue" d="M1122.95,-159.566C1129.31,-150.275 1136.87,-139.248 1142,-131.751"/>
<polygon fill="midnightblue" stroke="midnightblue" points="1119.87,-157.855 1117.11,-168.083 1125.65,-161.812 1119.87,-157.855"/>
</g>
<!-- Node19 -->
<g id="node19" class="node"><title>Node19</title>
<g id="a_node19"><a xlink:href="../../d9/dde/_packet_constructor_8cpp.html" target="_top" xlink:title="Creates a packet for sending data from the slave systems to the main computer. ">
<polygon fill="white" stroke="black" points="1064.5,-56.5 1064.5,-75.5 1231.5,-75.5 1231.5,-56.5 1064.5,-56.5"/>
<text text-anchor="middle" x="1148" y="-63.5" font-family="Helvetica,sans-Serif" font-size="10.00">wlib/comm/PacketConstructor.cpp</text>
</a>
</g>
</g>
<!-- Node18&#45;&gt;Node19 -->
<g id="edge24" class="edge"><title>Node18&#45;&gt;Node19</title>
<path fill="none" stroke="midnightblue" d="M1148,-101.805C1148,-92.9102 1148,-82.7798 1148,-75.7511"/>
<polygon fill="midnightblue" stroke="midnightblue" points="1144.5,-102.083 1148,-112.083 1151.5,-102.083 1144.5,-102.083"/>
</g>
<!-- Node20&#45;&gt;Node11 -->
<g id="edge26" class="edge"><title>Node20&#45;&gt;Node11</title>
<path fill="none" stroke="midnightblue" d="M752.045,-165.38C726.879,-157.182 693.389,-145.318 665,-132 649.128,-124.554 647.459,-118.037 631,-112 561.112,-86.3658 475.188,-75.1433 421.746,-70.3651"/>
<polygon fill="midnightblue" stroke="midnightblue" points="751.005,-168.722 761.596,-168.446 753.144,-162.057 751.005,-168.722"/>
</g>
<!-- Node20&#45;&gt;Node12 -->
<g id="edge27" class="edge"><title>Node20&#45;&gt;Node12</title>
<path fill="none" stroke="midnightblue" d="M745.282,-166.024C703.724,-155.823 642.687,-140.841 604.697,-131.516"/>
<polygon fill="midnightblue" stroke="midnightblue" points="744.594,-169.459 755.14,-168.444 746.263,-162.661 744.594,-169.459"/>
</g>
<!-- Node20&#45;&gt;Node13 -->
<g id="edge28" class="edge"><title>Node20&#45;&gt;Node13</title>
<path fill="none" stroke="midnightblue" d="M764.314,-163.735C720.066,-140.884 630.658,-94.7108 593.636,-75.5914"/>
<polygon fill="midnightblue" stroke="midnightblue" points="762.795,-166.89 773.286,-168.368 766.007,-160.67 762.795,-166.89"/>
</g>
<!-- Node20&#45;&gt;Node14 -->
<g id="edge29" class="edge"><title>Node20&#45;&gt;Node14</title>
<path fill="none" stroke="midnightblue" d="M792.204,-158.348C795.052,-134.254 799.891,-93.3079 801.985,-75.5914"/>
<polygon fill="midnightblue" stroke="midnightblue" points="788.718,-158.027 791.02,-168.368 795.67,-158.848 788.718,-158.027"/>
</g>
<!-- Node20&#45;&gt;Node15 -->
<g id="edge30" class="edge"><title>Node20&#45;&gt;Node15</title>
<path fill="none" stroke="midnightblue" d="M820.219,-164.638C844.99,-154.504 879.4,-140.427 901.182,-131.516"/>
<polygon fill="midnightblue" stroke="midnightblue" points="818.846,-161.418 810.916,-168.444 821.497,-167.897 818.846,-161.418"/>
</g>
<!-- Node20&#45;&gt;Node16 -->
<g id="edge31" class="edge"><title>Node20&#45;&gt;Node16</title>
<path fill="none" stroke="midnightblue" d="M841.648,-172.119C892.705,-166.099 965.641,-153.872 983,-132 1000.03,-110.544 964.349,-87.685 940.707,-75.6198"/>
<polygon fill="midnightblue" stroke="midnightblue" points="840.975,-168.673 831.432,-173.276 841.762,-175.628 840.975,-168.673"/>
</g>
<!-- Node22&#45;&gt;Node9 -->
<g id="edge43" class="edge"><title>Node22&#45;&gt;Node9</title>
<path fill="none" stroke="midnightblue" d="M301.324,-157.93C294.382,-121.92 279.599,-45.2312 274.652,-19.5681"/>
<polygon fill="midnightblue" stroke="midnightblue" points="297.95,-158.918 303.28,-168.075 304.823,-157.593 297.95,-158.918"/>
</g>
<!-- Node22&#45;&gt;Node11 -->
<g id="edge42" class="edge"><title>Node22&#45;&gt;Node11</title>
<path fill="none" stroke="midnightblue" d="M312.025,-158.751C317.502,-145.378 325.719,-127.016 335,-112 343.311,-98.5532 355.076,-84.5633 362.866,-75.823"/>
<polygon fill="midnightblue" stroke="midnightblue" points="308.692,-157.661 308.252,-168.247 315.198,-160.246 308.692,-157.661"/>
</g>
<!-- Node23 -->
<g id="node23" class="node"><title>Node23</title>
<g id="a_node23"><a xlink:href="../../d9/d37/_table_8h.html" target="_top" xlink:title="wlib/stl/Table.h">
<polygon fill="white" stroke="black" points="415.5,-112.5 415.5,-131.5 498.5,-131.5 498.5,-112.5 415.5,-112.5"/>
<text text-anchor="middle" x="457" y="-119.5" font-family="Helvetica,sans-Serif" font-size="10.00">wlib/stl/Table.h</text>
</a>
</g>
</g>
<!-- Node22&#45;&gt;Node23 -->
<g id="edge36" class="edge"><title>Node22&#45;&gt;Node23</title>
<path fill="none" stroke="midnightblue" d="M338.668,-165.039C367.268,-154.879 407.612,-140.546 433.028,-131.516"/>
<polygon fill="midnightblue" stroke="midnightblue" points="337.336,-161.798 329.085,-168.444 339.68,-168.394 337.336,-161.798"/>
</g>
<!-- Node23&#45;&gt;Node9 -->
<g id="edge40" class="edge"><title>Node23&#45;&gt;Node9</title>
<path fill="none" stroke="midnightblue" d="M453.861,-102.546C450.434,-87.938 443.519,-68.0527 430,-56 400.158,-29.3948 355.561,-18.4456 321.516,-13.9774"/>
<polygon fill="midnightblue" stroke="midnightblue" points="450.454,-103.355 455.853,-112.471 457.317,-101.977 450.454,-103.355"/>
</g>
<!-- Node23&#45;&gt;Node10 -->
<g id="edge41" class="edge"><title>Node23&#45;&gt;Node10</title>
<path fill="none" stroke="midnightblue" d="M462.58,-102.666C465.728,-89.4783 468.26,-71.3818 464,-56 460.157,-42.1272 450.773,-28.2372 444.151,-19.6357"/>
<polygon fill="midnightblue" stroke="midnightblue" points="459.174,-101.853 459.926,-112.421 465.929,-103.69 459.174,-101.853"/>
</g>
<!-- Node23&#45;&gt;Node11 -->
<g id="edge37" class="edge"><title>Node23&#45;&gt;Node11</title>
<path fill="none" stroke="midnightblue" d="M434.545,-106.901C418.776,-96.9986 398.186,-84.0705 384.783,-75.6545"/>
<polygon fill="midnightblue" stroke="midnightblue" points="432.852,-109.97 443.183,-112.324 436.575,-104.042 432.852,-109.97"/>
</g>
<!-- Node23&#45;&gt;Node13 -->
<g id="edge38" class="edge"><title>Node23&#45;&gt;Node13</title>
<path fill="none" stroke="midnightblue" d="M485.373,-108.232C507.82,-98.1312 538.535,-84.3091 558.075,-75.5164"/>
<polygon fill="midnightblue" stroke="midnightblue" points="483.697,-105.148 476.014,-112.444 486.57,-111.532 483.697,-105.148"/>
</g>
<!-- Node23&#45;&gt;Node16 -->
<g id="edge39" class="edge"><title>Node23&#45;&gt;Node16</title>
<path fill="none" stroke="midnightblue" d="M508.762,-111.995C666.349,-90.4584 708.309,-95.3305 862,-76 865.658,-75.5399 869.437,-75.0374 873.236,-74.5127"/>
<polygon fill="midnightblue" stroke="midnightblue" points="508.136,-108.548 498.709,-113.383 509.094,-115.482 508.136,-108.548"/>
</g>
</g>
</svg>
        <g id="navigator" transform="translate(0 0)" fill="#404254">
                <rect fill="#f2f5e9" fill-opacity="0.5" stroke="#606060" stroke-width=".5" x="0" y="0" width="60" height="60"/>
                <use id="zoomplus" xlink:href="#zoomPlus" x="17" y="9" onmousedown="handleZoom(evt,'in')"/>
                <use id="zoomminus" xlink:href="#zoomMin" x="42" y="9" onmousedown="handleZoom(evt,'out')"/>
                <use id="reset" xlink:href="#resetDef" x="30" y="36" onmousedown="handleReset()"/>
                <g id="arrowUp" xlink:href="#dirArrow" transform="translate(30 24)" onmousedown="handlePan(0,-1)">
                  <use xlink:href="#rim" fill="#404040">
                        <set attributeName="fill" to="#808080" begin="arrowUp.mouseover" end="arrowUp.mouseout"/>
                  </use>
                  <path fill="none" stroke="white" stroke-width="1.5" d="M0,-3.0v7 M-2.5,-0.5L0,-3.0L2.5,-0.5"/>
                </g>
                <g id="arrowRight" xlink:href="#dirArrow" transform="rotate(90) translate(36 -43)" onmousedown="handlePan(1,0)">
                  <use xlink:href="#rim" fill="#404040">
                        <set attributeName="fill" to="#808080" begin="arrowRight.mouseover" end="arrowRight.mouseout"/>
                  </use>
                  <path fill="none" stroke="white" stroke-width="1.5" d="M0,-3.0v7 M-2.5,-0.5L0,-3.0L2.5,-0.5"/>
                </g>
                <g id="arrowDown" xlink:href="#dirArrow" transform="rotate(180) translate(-30 -48)" onmousedown="handlePan(0,1)">
                  <use xlink:href="#rim" fill="#404040">
                        <set attributeName="fill" to="#808080" begin="arrowDown.mouseover" end="arrowDown.mouseout"/>
                  </use>
                  <path fill="none" stroke="white" stroke-width="1.5" d="M0,-3.0v7 M-2.5,-0.5L0,-3.0L2.5,-0.5"/>
                </g>
                <g id="arrowLeft" xlink:href="#dirArrow" transform="rotate(270) translate(-36 17)" onmousedown="handlePan(-1,0)">
                  <use xlink:href="#rim" fill="#404040">
                        <set attributeName="fill" to="#808080" begin="arrowLeft.mouseover" end="arrowLeft.mouseout"/>
                  </use>
                  <path fill="none" stroke="white" stroke-width="1.5" d="M0,-3.0v7 M-2.5,-0.5L0,-3.0L2.5,-0.5"/>
                </g>
        </g>
        <svg viewBox="0 0 15 15" width="100%" height="30px" preserveAspectRatio="xMaxYMin meet">
         <g id="arrow_out" transform="scale(0.3 0.3)">
          <a xlink:href="_pair_8h__dep__incl_org.svg" target="_base">
           <rect id="button" ry="5" rx="5" y="6" x="6" height="38" width="38"
                fill="#f2f5e9" fill-opacity="0.5" stroke="#606060" stroke-width="1.0"/>
           <path id="arrow"
             d="M 11.500037,31.436501 C 11.940474,20.09759 22.043105,11.32322 32.158766,21.979434 L 37.068811,17.246167 C 37.068811,17.246167 37.088388,32 37.088388,32 L 22.160133,31.978069 C 22.160133,31.978069 26.997745,27.140456 26.997745,27.140456 C 18.528582,18.264221 13.291696,25.230495 11.500037,31.436501 z"
             style="fill:#404040;"/>
          </a>
         </g>
        </svg>
</svg>
