<?xml version="1.0" encoding="UTF-8" standalone="no"?>
<!DOCTYPE svg PUBLIC "-//W3C//DTD SVG 1.1//EN"
 "http://www.w3.org/Graphics/SVG/1.1/DTD/svg11.dtd">
<!-- Generated by graphviz version 2.36.0 (20140111.2315)
 -->
<!-- Title: stl/Pair.h Pages: 1 -->
<!--zoomable 420 -->
<svg id="main" version="1.1" xmlns="http://www.w3.org/2000/svg" xmlns:xlink="http://www.w3.org/1999/xlink" xml:space="preserve" onload="init(evt)">
<style type="text/css"><![CDATA[
.edge:hover path { stroke: red; }
.edge:hover polygon { stroke: red; fill: red; }
]]></style>
<script type="text/javascript"><![CDATA[
var edges = document.getElementsByTagName('g');
if (edges && edges.length) {
  for (var i=0;i<edges.length;i++) {
    if (edges[i].id.substr(0,4)=='edge') {
      edges[i].setAttribute('class','edge');
    }
  }
}
]]></script>
        <defs>
                <circle id="rim" cx="0" cy="0" r="7"/>
                <circle id="rim2" cx="0" cy="0" r="3.5"/>
                <g id="zoomPlus">
                        <use xlink:href="#rim" fill="#404040">
                                <set attributeName="fill" to="#808080" begin="zoomplus.mouseover" end="zoomplus.mouseout"/>
                        </use>
                        <path d="M-4,0h8M0,-4v8" fill="none" stroke="white" stroke-width="1.5" pointer-events="none"/>
                </g>
                <g id="zoomMin">
                        <use xlink:href="#rim" fill="#404040">
                                <set attributeName="fill" to="#808080" begin="zoomminus.mouseover" end="zoomminus.mouseout"/>
                        </use>
                        <path d="M-4,0h8" fill="none" stroke="white" stroke-width="1.5" pointer-events="none"/>
                </g>
                <g id="dirArrow">
                        <path fill="none" stroke="white" stroke-width="1.5" d="M0,-3.0v7 M-2.5,-0.5L0,-3.0L2.5,-0.5"/>
                </g>
               <g id="resetDef">
                       <use xlink:href="#rim2" fill="#404040">
                               <set attributeName="fill" to="#808080" begin="reset.mouseover" end="reset.mouseout"/>
                       </use>
               </g>
        </defs>

<script type="text/javascript">
var viewWidth = 829;
var viewHeight = 420;
var sectionId = 'dynsection-1';
</script>
<script xlink:href="../../svgpan.js"/>
<svg id="graph" class="graph">
<g id="viewport">
<title>stl/Pair.h</title>
<polygon fill="white" stroke="none" points="-4,4 -4,-416 825,-416 825,4 -4,4"/>
<!-- Node1 -->
<g id="node1" class="node"><title>Node1</title>
<polygon fill="#bfbfbf" stroke="black" points="264,-392.5 264,-411.5 320,-411.5 320,-392.5 264,-392.5"/>
<text text-anchor="middle" x="292" y="-399.5" font-family="Helvetica,sans-Serif" font-size="10.00">stl/Pair.h</text>
</g>
<!-- Node2 -->
<g id="node2" class="node"><title>Node2</title>
<g id="a_node2"><a xlink:href="../../d8/dd7/_concept_8h.html" target="_top" xlink:title="Concept definitions. ">
<polygon fill="white" stroke="black" points="254.5,-336.5 254.5,-355.5 329.5,-355.5 329.5,-336.5 254.5,-336.5"/>
<text text-anchor="middle" x="292" y="-343.5" font-family="Helvetica,sans-Serif" font-size="10.00">stl/Concept.h</text>
</a>
</g>
</g>
<!-- Node1&#45;&gt;Node2 -->
<g id="edge1" class="edge"><title>Node1&#45;&gt;Node2</title>
<path fill="none" stroke="midnightblue" d="M292,-381.805C292,-372.91 292,-362.78 292,-355.751"/>
<polygon fill="midnightblue" stroke="midnightblue" points="288.5,-382.083 292,-392.083 295.5,-382.083 288.5,-382.083"/>
</g>
<!-- Node10 -->
<g id="node10" class="node"><title>Node10</title>
<g id="a_node10"><a xlink:href="../../d5/d08/_red_black_tree_8h.html" target="_top" xlink:title="Red black tree implementation. ">
<polygon fill="white" stroke="black" points="33.5,-56.5 33.5,-75.5 134.5,-75.5 134.5,-56.5 33.5,-56.5"/>
<text text-anchor="middle" x="84" y="-63.5" font-family="Helvetica,sans-Serif" font-size="10.00">stl/RedBlackTree.h</text>
</a>
</g>
</g>
<!-- Node1&#45;&gt;Node10 -->
<g id="edge31" class="edge"><title>Node1&#45;&gt;Node10</title>
<path fill="none" stroke="midnightblue" d="M253.512,-397.913C193.142,-390.736 83,-367.202 83,-291 83,-291 83,-291 83,-177 83,-139.186 83.5982,-94.0629 83.8693,-75.5575"/>
<polygon fill="midnightblue" stroke="midnightblue" points="253.493,-401.431 263.813,-399.037 254.252,-394.473 253.493,-401.431"/>
</g>
<!-- Node14 -->
<g id="node14" class="node"><title>Node14</title>
<g id="a_node14"><a xlink:href="../../d3/dbe/_chain_map_8h.html" target="_top" xlink:title="Hasher map implementation. ">
<polygon fill="white" stroke="black" points="258.5,-112.5 258.5,-131.5 341.5,-131.5 341.5,-112.5 258.5,-112.5"/>
<text text-anchor="middle" x="300" y="-119.5" font-family="Helvetica,sans-Serif" font-size="10.00">stl/ChainMap.h</text>
</a>
</g>
</g>
<!-- Node1&#45;&gt;Node14 -->
<g id="edge29" class="edge"><title>Node1&#45;&gt;Node14</title>
<path fill="none" stroke="midnightblue" d="M255.503,-388.725C216.129,-372.899 159,-341.275 159,-291 159,-291 159,-291 159,-233 159,-202.902 157.464,-190.004 178,-168 190.4,-154.714 235.457,-140.341 267.19,-131.503"/>
<polygon fill="midnightblue" stroke="midnightblue" points="254.496,-392.088 265.085,-392.41 257.008,-385.554 254.496,-392.088"/>
</g>
<!-- Node16 -->
<g id="node16" class="node"><title>Node16</title>
<g id="a_node16"><a xlink:href="../../d5/d7a/_open_map_8h.html" target="_top" xlink:title="Hash map implementation. ">
<polygon fill="white" stroke="black" points="398,-112.5 398,-131.5 478,-131.5 478,-112.5 398,-112.5"/>
<text text-anchor="middle" x="438" y="-119.5" font-family="Helvetica,sans-Serif" font-size="10.00">stl/OpenMap.h</text>
</a>
</g>
</g>
<!-- Node1&#45;&gt;Node16 -->
<g id="edge30" class="edge"><title>Node1&#45;&gt;Node16</title>
<path fill="none" stroke="midnightblue" d="M330.155,-399.579C436.932,-394.572 731,-373.313 731,-291 731,-291 731,-291 731,-233 731,-202.902 734.536,-187.95 712,-168 694.719,-152.703 549.969,-135.111 478.125,-127.217"/>
<polygon fill="midnightblue" stroke="midnightblue" points="329.963,-396.084 320.129,-400.026 330.275,-403.077 329.963,-396.084"/>
</g>
<!-- Node22 -->
<g id="node22" class="node"><title>Node22</title>
<g id="a_node22"><a xlink:href="../../d7/d2a/_tuple_8h.html" target="_top" xlink:title="Template oriented tuple implementation. ">
<polygon fill="white" stroke="black" points="759,-336.5 759,-355.5 821,-355.5 821,-336.5 759,-336.5"/>
<text text-anchor="middle" x="790" y="-343.5" font-family="Helvetica,sans-Serif" font-size="10.00">stl/Tuple.h</text>
</a>
</g>
</g>
<!-- Node1&#45;&gt;Node22 -->
<g id="edge32" class="edge"><title>Node1&#45;&gt;Node22</title>
<path fill="none" stroke="midnightblue" d="M330.563,-398.455C408.934,-393 592.33,-378.793 745,-356 749.413,-355.341 754.048,-354.54 758.598,-353.69"/>
<polygon fill="midnightblue" stroke="midnightblue" points="329.952,-394.989 320.215,-399.167 330.432,-401.972 329.952,-394.989"/>
</g>
<!-- Node3 -->
<g id="node3" class="node"><title>Node3</title>
<g id="a_node3"><a xlink:href="../../de/d0b/_string_iterator_8h.html" target="_top" xlink:title="strings/StringIterator.h">
<polygon fill="white" stroke="black" points="302.5,-280.5 302.5,-299.5 415.5,-299.5 415.5,-280.5 302.5,-280.5"/>
<text text-anchor="middle" x="359" y="-287.5" font-family="Helvetica,sans-Serif" font-size="10.00">strings/StringIterator.h</text>
</a>
</g>
</g>
<!-- Node2&#45;&gt;Node3 -->
<g id="edge2" class="edge"><title>Node2&#45;&gt;Node3</title>
<path fill="none" stroke="midnightblue" d="M310.835,-329.82C322.838,-320.145 337.972,-307.948 348.039,-299.834"/>
<polygon fill="midnightblue" stroke="midnightblue" points="308.354,-327.324 302.765,-336.324 312.747,-332.774 308.354,-327.324"/>
</g>
<!-- Node9 -->
<g id="node9" class="node"><title>Node9</title>
<g id="a_node9"><a xlink:href="../../df/d03/_array_heap_8h.html" target="_top" xlink:title="Heap manipulation and implementation. ">
<polygon fill="white" stroke="black" points="152.5,-56.5 152.5,-75.5 237.5,-75.5 237.5,-56.5 152.5,-56.5"/>
<text text-anchor="middle" x="195" y="-63.5" font-family="Helvetica,sans-Serif" font-size="10.00">stl/ArrayHeap.h</text>
</a>
</g>
</g>
<!-- Node2&#45;&gt;Node9 -->
<g id="edge28" class="edge"><title>Node2&#45;&gt;Node9</title>
<path fill="none" stroke="midnightblue" d="M244.679,-335.814C194.069,-322.918 121,-294.071 121,-235 121,-235 121,-235 121,-177 121,-146.641 125.118,-137.232 142,-112 152.203,-96.751 168.974,-83.746 180.917,-75.696"/>
<polygon fill="midnightblue" stroke="midnightblue" points="243.931,-339.233 254.473,-338.184 245.577,-332.43 243.931,-339.233"/>
</g>
<!-- Node4 -->
<g id="node4" class="node"><title>Node4</title>
<g id="a_node4"><a xlink:href="../../d8/d65/_static_string_8h.html" target="_top" xlink:title="StaticString provides a String that is on stack and is of fixed size. ">
<polygon fill="white" stroke="black" points="305,-224.5 305,-243.5 413,-243.5 413,-224.5 305,-224.5"/>
<text text-anchor="middle" x="359" y="-231.5" font-family="Helvetica,sans-Serif" font-size="10.00">strings/StaticString.h</text>
</a>
</g>
</g>
<!-- Node3&#45;&gt;Node4 -->
<g id="edge3" class="edge"><title>Node3&#45;&gt;Node4</title>
<path fill="none" stroke="midnightblue" d="M359,-269.805C359,-260.91 359,-250.78 359,-243.751"/>
<polygon fill="midnightblue" stroke="midnightblue" points="355.5,-270.083 359,-280.083 362.5,-270.083 355.5,-270.083"/>
</g>
<!-- Node20 -->
<g id="node20" class="node"><title>Node20</title>
<g id="a_node20"><a xlink:href="../../d6/d60/_dynamic_string_8h.html" target="_top" xlink:title="DynamicString is a class that provides dynamic strings and functions for dynamic strings. ">
<polygon fill="white" stroke="black" points="460,-224.5 460,-243.5 582,-243.5 582,-224.5 460,-224.5"/>
<text text-anchor="middle" x="521" y="-231.5" font-family="Helvetica,sans-Serif" font-size="10.00">strings/DynamicString.h</text>
</a>
</g>
</g>
<!-- Node3&#45;&gt;Node20 -->
<g id="edge25" class="edge"><title>Node3&#45;&gt;Node20</title>
<path fill="none" stroke="midnightblue" d="M394.484,-277.172C424.988,-267.004 468.245,-252.585 495.451,-243.516"/>
<polygon fill="midnightblue" stroke="midnightblue" points="393.049,-273.961 384.669,-280.444 395.263,-280.602 393.049,-273.961"/>
</g>
<!-- Node5 -->
<g id="node5" class="node"><title>Node5</title>
<g id="a_node5"><a xlink:href="../../de/d6d/_bitset_8h.html" target="_top" xlink:title="Bitset is a class that provides bits manipulation methods. ">
<polygon fill="white" stroke="black" points="489,-168.5 489,-187.5 553,-187.5 553,-168.5 489,-168.5"/>
<text text-anchor="middle" x="521" y="-175.5" font-family="Helvetica,sans-Serif" font-size="10.00">stl/Bitset.h</text>
</a>
</g>
</g>
<!-- Node4&#45;&gt;Node5 -->
<g id="edge4" class="edge"><title>Node4&#45;&gt;Node5</title>
<path fill="none" stroke="midnightblue" d="M394.484,-221.172C424.988,-211.004 468.245,-196.585 495.451,-187.516"/>
<polygon fill="midnightblue" stroke="midnightblue" points="393.049,-217.961 384.669,-224.444 395.263,-224.602 393.049,-217.961"/>
</g>
<!-- Node8 -->
<g id="node8" class="node"><title>Node8</title>
<g id="a_node8"><a xlink:href="../../d7/d0c/_comparator_8h.html" target="_top" xlink:title="Comparator implementation for basic types. ">
<polygon fill="white" stroke="black" points="151.5,-112.5 151.5,-131.5 240.5,-131.5 240.5,-112.5 151.5,-112.5"/>
<text text-anchor="middle" x="196" y="-119.5" font-family="Helvetica,sans-Serif" font-size="10.00">stl/Comparator.h</text>
</a>
</g>
</g>
<!-- Node4&#45;&gt;Node8 -->
<g id="edge7" class="edge"><title>Node4&#45;&gt;Node8</title>
<path fill="none" stroke="midnightblue" d="M341.795,-217.446C326.066,-203.616 301.841,-183.279 279,-168 257.61,-153.692 231.239,-140.008 214.041,-131.565"/>
<polygon fill="midnightblue" stroke="midnightblue" points="339.799,-220.354 349.597,-224.386 344.451,-215.124 339.799,-220.354"/>
</g>
<!-- Node13 -->
<g id="node13" class="node"><title>Node13</title>
<g id="a_node13"><a xlink:href="../../d2/dc2/_equal_8h.html" target="_top" xlink:title="stl/Equal.h">
<polygon fill="white" stroke="black" points="327.5,-168.5 327.5,-187.5 390.5,-187.5 390.5,-168.5 327.5,-168.5"/>
<text text-anchor="middle" x="359" y="-175.5" font-family="Helvetica,sans-Serif" font-size="10.00">stl/Equal.h</text>
</a>
</g>
</g>
<!-- Node4&#45;&gt;Node13 -->
<g id="edge12" class="edge"><title>Node4&#45;&gt;Node13</title>
<path fill="none" stroke="midnightblue" d="M359,-213.805C359,-204.91 359,-194.78 359,-187.751"/>
<polygon fill="midnightblue" stroke="midnightblue" points="355.5,-214.083 359,-224.083 362.5,-214.083 355.5,-214.083"/>
</g>
<!-- Node18 -->
<g id="node18" class="node"><title>Node18</title>
<g id="a_node18"><a xlink:href="../../d2/dad/_hash_8h.html" target="_top" xlink:title="stl/Hash.h">
<polygon fill="white" stroke="black" points="409,-168.5 409,-187.5 471,-187.5 471,-168.5 409,-168.5"/>
<text text-anchor="middle" x="440" y="-175.5" font-family="Helvetica,sans-Serif" font-size="10.00">stl/Hash.h</text>
</a>
</g>
</g>
<!-- Node4&#45;&gt;Node18 -->
<g id="edge19" class="edge"><title>Node4&#45;&gt;Node18</title>
<path fill="none" stroke="midnightblue" d="M380.567,-218.622C395.364,-208.757 414.512,-195.992 427.018,-187.655"/>
<polygon fill="midnightblue" stroke="midnightblue" points="378.393,-215.865 372.014,-224.324 382.276,-221.689 378.393,-215.865"/>
</g>
<!-- Node19 -->
<g id="node19" class="node"><title>Node19</title>
<g id="a_node19"><a xlink:href="../../db/db5/_string_8h.html" target="_top" xlink:title="strings/String.h">
<polygon fill="white" stroke="black" points="187.5,-168.5 187.5,-187.5 270.5,-187.5 270.5,-168.5 187.5,-168.5"/>
<text text-anchor="middle" x="229" y="-175.5" font-family="Helvetica,sans-Serif" font-size="10.00">strings/String.h</text>
</a>
</g>
</g>
<!-- Node4&#45;&gt;Node19 -->
<g id="edge23" class="edge"><title>Node4&#45;&gt;Node19</title>
<path fill="none" stroke="midnightblue" d="M328.915,-220.503C304.543,-210.38 270.86,-196.388 249.503,-187.516"/>
<polygon fill="midnightblue" stroke="midnightblue" points="327.823,-223.84 338.401,-224.444 330.509,-217.375 327.823,-223.84"/>
</g>
<!-- Node6 -->
<g id="node6" class="node"><title>Node6</title>
<g id="a_node6"><a xlink:href="../../de/d66/_packet_constructor_8h.html" target="_top" xlink:title="comm/PacketConstructor.h">
<polygon fill="white" stroke="black" points="534.5,-112.5 534.5,-131.5 671.5,-131.5 671.5,-112.5 534.5,-112.5"/>
<text text-anchor="middle" x="603" y="-119.5" font-family="Helvetica,sans-Serif" font-size="10.00">comm/PacketConstructor.h</text>
</a>
</g>
</g>
<!-- Node5&#45;&gt;Node6 -->
<g id="edge5" class="edge"><title>Node5&#45;&gt;Node6</title>
<path fill="none" stroke="midnightblue" d="M542.833,-162.622C557.813,-152.757 577.197,-139.992 589.858,-131.655"/>
<polygon fill="midnightblue" stroke="midnightblue" points="540.601,-159.901 534.175,-168.324 544.451,-165.747 540.601,-159.901"/>
</g>
<!-- Node7 -->
<g id="node7" class="node"><title>Node7</title>
<g id="a_node7"><a xlink:href="../../d9/dde/_packet_constructor_8cpp.html" target="_top" xlink:title="Creates a packet for sending data from the slave systems to the main computer. ">
<polygon fill="white" stroke="black" points="529.5,-56.5 529.5,-75.5 676.5,-75.5 676.5,-56.5 529.5,-56.5"/>
<text text-anchor="middle" x="603" y="-63.5" font-family="Helvetica,sans-Serif" font-size="10.00">comm/PacketConstructor.cpp</text>
</a>
</g>
</g>
<!-- Node6&#45;&gt;Node7 -->
<g id="edge6" class="edge"><title>Node6&#45;&gt;Node7</title>
<path fill="none" stroke="midnightblue" d="M603,-101.805C603,-92.9102 603,-82.7798 603,-75.7511"/>
<polygon fill="midnightblue" stroke="midnightblue" points="599.5,-102.083 603,-112.083 606.5,-102.083 599.5,-102.083"/>
</g>
<!-- Node8&#45;&gt;Node9 -->
<g id="edge8" class="edge"><title>Node8&#45;&gt;Node9</title>
<path fill="none" stroke="midnightblue" d="M195.645,-101.805C195.48,-92.9102 195.292,-82.7798 195.162,-75.7511"/>
<polygon fill="midnightblue" stroke="midnightblue" points="192.15,-102.15 195.835,-112.083 199.149,-102.02 192.15,-102.15"/>
</g>
<!-- Node8&#45;&gt;Node10 -->
<g id="edge9" class="edge"><title>Node8&#45;&gt;Node10</title>
<path fill="none" stroke="midnightblue" d="M168.751,-107.862C147.984,-97.8492 119.977,-84.3458 101.95,-75.6545"/>
<polygon fill="midnightblue" stroke="midnightblue" points="167.477,-111.134 178.005,-112.324 170.518,-104.828 167.477,-111.134"/>
</g>
<!-- Node11 -->
<g id="node11" class="node"><title>Node11</title>
<g id="a_node11"><a xlink:href="../../df/d87/_tree_map_8h.html" target="_top" xlink:title="Map implementation using red black tree. ">
<polygon fill="white" stroke="black" points="-0.5,-0.5 -0.5,-19.5 76.5,-19.5 76.5,-0.5 -0.5,-0.5"/>
<text text-anchor="middle" x="38" y="-7.5" font-family="Helvetica,sans-Serif" font-size="10.00">stl/TreeMap.h</text>
</a>
</g>
</g>
<!-- Node10&#45;&gt;Node11 -->
<g id="edge10" class="edge"><title>Node10&#45;&gt;Node11</title>
<path fill="none" stroke="midnightblue" d="M69.886,-48.4314C61.824,-38.9673 52.0408,-27.4827 45.4546,-19.7511"/>
<polygon fill="midnightblue" stroke="midnightblue" points="67.255,-50.7402 76.404,-56.083 72.5837,-46.2009 67.255,-50.7402"/>
</g>
<!-- Node12 -->
<g id="node12" class="node"><title>Node12</title>
<g id="a_node12"><a xlink:href="../../dd/dba/_tree_set_8h.html" target="_top" xlink:title="Set implementation using red black tree. ">
<polygon fill="white" stroke="black" points="94.5,-0.5 94.5,-19.5 167.5,-19.5 167.5,-0.5 94.5,-0.5"/>
<text text-anchor="middle" x="131" y="-7.5" font-family="Helvetica,sans-Serif" font-size="10.00">stl/TreeSet.h</text>
</a>
</g>
</g>
<!-- Node10&#45;&gt;Node12 -->
<g id="edge11" class="edge"><title>Node10&#45;&gt;Node12</title>
<path fill="none" stroke="midnightblue" d="M98.4208,-48.4314C106.658,-38.9673 116.654,-27.4827 123.383,-19.7511"/>
<polygon fill="midnightblue" stroke="midnightblue" points="95.6863,-46.2421 91.7611,-56.083 100.966,-50.8378 95.6863,-46.2421"/>
</g>
<!-- Node13&#45;&gt;Node8 -->
<g id="edge13" class="edge"><title>Node13&#45;&gt;Node8</title>
<path fill="none" stroke="midnightblue" d="M323.297,-165.172C292.604,-155.004 249.081,-140.585 221.707,-131.516"/>
<polygon fill="midnightblue" stroke="midnightblue" points="322.579,-168.621 333.172,-168.444 324.78,-161.976 322.579,-168.621"/>
</g>
<!-- Node13&#45;&gt;Node14 -->
<g id="edge14" class="edge"><title>Node13&#45;&gt;Node14</title>
<path fill="none" stroke="midnightblue" d="M342.105,-161.537C331.585,-151.909 318.431,-139.869 309.652,-131.834"/>
<polygon fill="midnightblue" stroke="midnightblue" points="339.781,-164.154 349.521,-168.324 344.507,-158.99 339.781,-164.154"/>
</g>
<!-- Node13&#45;&gt;Node16 -->
<g id="edge16" class="edge"><title>Node13&#45;&gt;Node16</title>
<path fill="none" stroke="midnightblue" d="M380.034,-162.622C394.466,-152.757 413.141,-139.992 425.339,-131.655"/>
<polygon fill="midnightblue" stroke="midnightblue" points="377.973,-159.791 371.693,-168.324 381.923,-165.57 377.973,-159.791"/>
</g>
<!-- Node17 -->
<g id="node17" class="node"><title>Node17</title>
<g id="a_node17"><a xlink:href="../../d0/de6/_open_set_8h.html" target="_top" xlink:title="Hash set implementation. ">
<polygon fill="white" stroke="black" points="399.5,-56.5 399.5,-75.5 476.5,-75.5 476.5,-56.5 399.5,-56.5"/>
<text text-anchor="middle" x="438" y="-63.5" font-family="Helvetica,sans-Serif" font-size="10.00">stl/OpenSet.h</text>
</a>
</g>
</g>
<!-- Node13&#45;&gt;Node17 -->
<g id="edge18" class="edge"><title>Node13&#45;&gt;Node17</title>
<path fill="none" stroke="midnightblue" d="M365.188,-158.754C370.324,-145.117 378.482,-126.421 389,-112 399.618,-97.4427 415.491,-83.9169 426.271,-75.5711"/>
<polygon fill="midnightblue" stroke="midnightblue" points="361.8,-157.833 361.73,-168.427 368.392,-160.189 361.8,-157.833"/>
</g>
<!-- Node15 -->
<g id="node15" class="node"><title>Node15</title>
<g id="a_node15"><a xlink:href="../../d6/d59/_chain_set_8h.html" target="_top" xlink:title="Hash set implementation. ">
<polygon fill="white" stroke="black" points="260.5,-56.5 260.5,-75.5 339.5,-75.5 339.5,-56.5 260.5,-56.5"/>
<text text-anchor="middle" x="300" y="-63.5" font-family="Helvetica,sans-Serif" font-size="10.00">stl/ChainSet.h</text>
</a>
</g>
</g>
<!-- Node14&#45;&gt;Node15 -->
<g id="edge15" class="edge"><title>Node14&#45;&gt;Node15</title>
<path fill="none" stroke="midnightblue" d="M300,-101.805C300,-92.9102 300,-82.7798 300,-75.7511"/>
<polygon fill="midnightblue" stroke="midnightblue" points="296.5,-102.083 300,-112.083 303.5,-102.083 296.5,-102.083"/>
</g>
<!-- Node16&#45;&gt;Node17 -->
<g id="edge17" class="edge"><title>Node16&#45;&gt;Node17</title>
<path fill="none" stroke="midnightblue" d="M438,-101.805C438,-92.9102 438,-82.7798 438,-75.7511"/>
<polygon fill="midnightblue" stroke="midnightblue" points="434.5,-102.083 438,-112.083 441.5,-102.083 434.5,-102.083"/>
</g>
<!-- Node18&#45;&gt;Node14 -->
<g id="edge20" class="edge"><title>Node18&#45;&gt;Node14</title>
<path fill="none" stroke="midnightblue" d="M408.298,-164.772C382,-154.629 345.284,-140.467 322.08,-131.516"/>
<polygon fill="midnightblue" stroke="midnightblue" points="407.227,-168.11 417.817,-168.444 409.746,-161.579 407.227,-168.11"/>
</g>
<!-- Node18&#45;&gt;Node16 -->
<g id="edge21" class="edge"><title>Node18&#45;&gt;Node16</title>
<path fill="none" stroke="midnightblue" d="M439.289,-157.805C438.96,-148.91 438.584,-138.78 438.324,-131.751"/>
<polygon fill="midnightblue" stroke="midnightblue" points="435.802,-158.219 439.67,-168.083 442.797,-157.96 435.802,-158.219"/>
</g>
<!-- Node18&#45;&gt;Node17 -->
<g id="edge22" class="edge"><title>Node18&#45;&gt;Node17</title>
<path fill="none" stroke="midnightblue" d="M462.303,-162.256C478.171,-149.773 495.318,-130.933 487,-112 480.031,-96.1383 464.406,-83.415 452.661,-75.598"/>
<polygon fill="midnightblue" stroke="midnightblue" points="459.785,-159.763 453.789,-168.498 463.923,-165.408 459.785,-159.763"/>
</g>
<!-- Node19&#45;&gt;Node8 -->
<g id="edge24" class="edge"><title>Node19&#45;&gt;Node8</title>
<path fill="none" stroke="midnightblue" d="M218.168,-159.275C212.528,-150.045 205.882,-139.17 201.348,-131.751"/>
<polygon fill="midnightblue" stroke="midnightblue" points="215.35,-161.375 223.551,-168.083 221.323,-157.725 215.35,-161.375"/>
</g>
<!-- Node20&#45;&gt;Node5 -->
<g id="edge26" class="edge"><title>Node20&#45;&gt;Node5</title>
<path fill="none" stroke="midnightblue" d="M521,-213.805C521,-204.91 521,-194.78 521,-187.751"/>
<polygon fill="midnightblue" stroke="midnightblue" points="517.5,-214.083 521,-224.083 524.5,-214.083 517.5,-214.083"/>
</g>
<!-- Node21 -->
<g id="node21" class="node"><title>Node21</title>
<g id="a_node21"><a xlink:href="../../d9/d8a/_dynamic_string_8cpp.html" target="_top" xlink:title="DynamicString is a class that provides dynamic strings and functions for dynamic strings. ">
<polygon fill="white" stroke="black" points="571,-168.5 571,-187.5 703,-187.5 703,-168.5 571,-168.5"/>
<text text-anchor="middle" x="637" y="-175.5" font-family="Helvetica,sans-Serif" font-size="10.00">strings/DynamicString.cpp</text>
</a>
</g>
</g>
<!-- Node20&#45;&gt;Node21 -->
<g id="edge27" class="edge"><title>Node20&#45;&gt;Node21</title>
<path fill="none" stroke="midnightblue" d="M548.72,-220.096C570.392,-210.007 599.902,-196.27 618.705,-187.516"/>
<polygon fill="midnightblue" stroke="midnightblue" points="546.969,-217.05 539.381,-224.444 549.923,-223.396 546.969,-217.05"/>
</g>
</g>
</svg>
        <g id="navigator" transform="translate(0 0)" fill="#404254">
                <rect fill="#f2f5e9" fill-opacity="0.5" stroke="#606060" stroke-width=".5" x="0" y="0" width="60" height="60"/>
                <use id="zoomplus" xlink:href="#zoomPlus" x="17" y="9" onmousedown="handleZoom(evt,'in')"/>
                <use id="zoomminus" xlink:href="#zoomMin" x="42" y="9" onmousedown="handleZoom(evt,'out')"/>
                <use id="reset" xlink:href="#resetDef" x="30" y="36" onmousedown="handleReset()"/>
                <g id="arrowUp" xlink:href="#dirArrow" transform="translate(30 24)" onmousedown="handlePan(0,-1)">
                  <use xlink:href="#rim" fill="#404040">
                        <set attributeName="fill" to="#808080" begin="arrowUp.mouseover" end="arrowUp.mouseout"/>
                  </use>
                  <path fill="none" stroke="white" stroke-width="1.5" d="M0,-3.0v7 M-2.5,-0.5L0,-3.0L2.5,-0.5"/>
                </g>
                <g id="arrowRight" xlink:href="#dirArrow" transform="rotate(90) translate(36 -43)" onmousedown="handlePan(1,0)">
                  <use xlink:href="#rim" fill="#404040">
                        <set attributeName="fill" to="#808080" begin="arrowRight.mouseover" end="arrowRight.mouseout"/>
                  </use>
                  <path fill="none" stroke="white" stroke-width="1.5" d="M0,-3.0v7 M-2.5,-0.5L0,-3.0L2.5,-0.5"/>
                </g>
                <g id="arrowDown" xlink:href="#dirArrow" transform="rotate(180) translate(-30 -48)" onmousedown="handlePan(0,1)">
                  <use xlink:href="#rim" fill="#404040">
                        <set attributeName="fill" to="#808080" begin="arrowDown.mouseover" end="arrowDown.mouseout"/>
                  </use>
                  <path fill="none" stroke="white" stroke-width="1.5" d="M0,-3.0v7 M-2.5,-0.5L0,-3.0L2.5,-0.5"/>
                </g>
                <g id="arrowLeft" xlink:href="#dirArrow" transform="rotate(270) translate(-36 17)" onmousedown="handlePan(-1,0)">
                  <use xlink:href="#rim" fill="#404040">
                        <set attributeName="fill" to="#808080" begin="arrowLeft.mouseover" end="arrowLeft.mouseout"/>
                  </use>
                  <path fill="none" stroke="white" stroke-width="1.5" d="M0,-3.0v7 M-2.5,-0.5L0,-3.0L2.5,-0.5"/>
                </g>
        </g>
        <svg viewBox="0 0 15 15" width="100%" height="30px" preserveAspectRatio="xMaxYMin meet">
         <g id="arrow_out" transform="scale(0.3 0.3)">
          <a xlink:href="_pair_8h__dep__incl_org.svg" target="_base">
           <rect id="button" ry="5" rx="5" y="6" x="6" height="38" width="38"
                fill="#f2f5e9" fill-opacity="0.5" stroke="#606060" stroke-width="1.0"/>
           <path id="arrow"
             d="M 11.500037,31.436501 C 11.940474,20.09759 22.043105,11.32322 32.158766,21.979434 L 37.068811,17.246167 C 37.068811,17.246167 37.088388,32 37.088388,32 L 22.160133,31.978069 C 22.160133,31.978069 26.997745,27.140456 26.997745,27.140456 C 18.528582,18.264221 13.291696,25.230495 11.500037,31.436501 z"
             style="fill:#404040;"/>
          </a>
         </g>
        </svg>
</svg>
