<?xml version="1.0" encoding="UTF-8" standalone="no"?>
<!DOCTYPE svg PUBLIC "-//W3C//DTD SVG 1.1//EN"
 "http://www.w3.org/Graphics/SVG/1.1/DTD/svg11.dtd">
<!-- Generated by graphviz version 2.36.0 (20140111.2315)
 -->
<!-- Title: wlib/stl/Pair.h Pages: 1 -->
<!--zoomable 196 -->
<svg id="main" version="1.1" xmlns="http://www.w3.org/2000/svg" xmlns:xlink="http://www.w3.org/1999/xlink" xml:space="preserve" onload="init(evt)">
<style type="text/css"><![CDATA[
.edge:hover path { stroke: red; }
.edge:hover polygon { stroke: red; fill: red; }
]]></style>
<script type="text/javascript"><![CDATA[
var edges = document.getElementsByTagName('g');
if (edges && edges.length) {
  for (var i=0;i<edges.length;i++) {
    if (edges[i].id.substr(0,4)=='edge') {
      edges[i].setAttribute('class','edge');
    }
  }
}
]]></script>
        <defs>
                <circle id="rim" cx="0" cy="0" r="7"/>
                <circle id="rim2" cx="0" cy="0" r="3.5"/>
                <g id="zoomPlus">
                        <use xlink:href="#rim" fill="#404040">
                                <set attributeName="fill" to="#808080" begin="zoomplus.mouseover" end="zoomplus.mouseout"/>
                        </use>
                        <path d="M-4,0h8M0,-4v8" fill="none" stroke="white" stroke-width="1.5" pointer-events="none"/>
                </g>
                <g id="zoomMin">
                        <use xlink:href="#rim" fill="#404040">
                                <set attributeName="fill" to="#808080" begin="zoomminus.mouseover" end="zoomminus.mouseout"/>
                        </use>
                        <path d="M-4,0h8" fill="none" stroke="white" stroke-width="1.5" pointer-events="none"/>
                </g>
                <g id="dirArrow">
                        <path fill="none" stroke="white" stroke-width="1.5" d="M0,-3.0v7 M-2.5,-0.5L0,-3.0L2.5,-0.5"/>
                </g>
               <g id="resetDef">
                       <use xlink:href="#rim2" fill="#404040">
                               <set attributeName="fill" to="#808080" begin="reset.mouseover" end="reset.mouseout"/>
                       </use>
               </g>
        </defs>

<script type="text/javascript">
var viewWidth = 807;
var viewHeight = 196;
var sectionId = 'dynsection-1';
</script>
<script xlink:href="../../svgpan.js"/>
<svg id="graph" class="graph">
<g id="viewport">
<title>wlib/stl/Pair.h</title>
<polygon fill="white" stroke="none" points="-4,4 -4,-192 803,-192 803,4 -4,4"/>
<!-- Node1 -->
<g id="node1" class="node"><title>Node1</title>
<polygon fill="#bfbfbf" stroke="black" points="412,-168.5 412,-187.5 488,-187.5 488,-168.5 412,-168.5"/>
<text text-anchor="middle" x="450" y="-175.5" font-family="Helvetica,sans-Serif" font-size="10.00">wlib/stl/Pair.h</text>
</g>
<!-- Node2 -->
<g id="node2" class="node"><title>Node2</title>
<g id="a_node2"><a xlink:href="../../d8/dd7/_concept_8h.html" target="_top" xlink:title="Concept definitions. ">
<polygon fill="white" stroke="black" points="7.5,-112.5 7.5,-131.5 102.5,-131.5 102.5,-112.5 7.5,-112.5"/>
<text text-anchor="middle" x="55" y="-119.5" font-family="Helvetica,sans-Serif" font-size="10.00">wlib/stl/Concept.h</text>
</a>
</g>
</g>
<!-- Node1&#45;&gt;Node2 -->
<g id="edge1" class="edge"><title>Node1&#45;&gt;Node2</title>
<path fill="none" stroke="midnightblue" d="M401.498,-170.477C336.986,-161.784 219.401,-145.884 119,-132 113.665,-131.262 108.081,-130.485 102.528,-129.708"/>
<polygon fill="midnightblue" stroke="midnightblue" points="401.388,-173.994 411.766,-171.86 402.323,-167.056 401.388,-173.994"/>
</g>
<!-- Node4 -->
<g id="node4" class="node"><title>Node4</title>
<g id="a_node4"><a xlink:href="../../dd/d0b/_hash_map_8h.html" target="_top" xlink:title="wlib/stl/HashMap.h">
<polygon fill="white" stroke="black" points="123.5,-0.5 123.5,-19.5 224.5,-19.5 224.5,-0.5 123.5,-0.5"/>
<text text-anchor="middle" x="174" y="-7.5" font-family="Helvetica,sans-Serif" font-size="10.00">wlib/stl/HashMap.h</text>
</a>
</g>
</g>
<!-- Node1&#45;&gt;Node4 -->
<g id="edge3" class="edge"><title>Node1&#45;&gt;Node4</title>
<path fill="none" stroke="midnightblue" d="M401.75,-176.86C332.883,-173.719 208.497,-156.483 152,-76 139.542,-58.2533 155.917,-32.8871 166.425,-19.7051"/>
<polygon fill="midnightblue" stroke="midnightblue" points="401.776,-180.363 411.9,-177.239 402.038,-173.368 401.776,-180.363"/>
</g>
<!-- Node5 -->
<g id="node5" class="node"><title>Node5</title>
<g id="a_node5"><a xlink:href="../../de/def/_hash_table_8h.html" target="_top" xlink:title="wlib/stl/HashTable.h">
<polygon fill="white" stroke="black" points="161,-56.5 161,-75.5 267,-75.5 267,-56.5 161,-56.5"/>
<text text-anchor="middle" x="214" y="-63.5" font-family="Helvetica,sans-Serif" font-size="10.00">wlib/stl/HashTable.h</text>
</a>
</g>
</g>
<!-- Node1&#45;&gt;Node5 -->
<g id="edge4" class="edge"><title>Node1&#45;&gt;Node5</title>
<path fill="none" stroke="midnightblue" d="M421.911,-164.19C402.3,-155.224 375.526,-142.942 352,-132 309.017,-112.009 258.674,-88.1953 232.278,-75.6784"/>
<polygon fill="midnightblue" stroke="midnightblue" points="420.638,-167.456 431.188,-168.427 423.546,-161.089 420.638,-167.456"/>
</g>
<!-- Node7 -->
<g id="node7" class="node"><title>Node7</title>
<g id="a_node7"><a xlink:href="../../d5/d7a/_open_map_8h.html" target="_top" xlink:title="Hash map implementation. ">
<polygon fill="white" stroke="black" points="583.5,-0.5 583.5,-19.5 684.5,-19.5 684.5,-0.5 583.5,-0.5"/>
<text text-anchor="middle" x="634" y="-7.5" font-family="Helvetica,sans-Serif" font-size="10.00">wlib/stl/OpenMap.h</text>
</a>
</g>
</g>
<!-- Node1&#45;&gt;Node7 -->
<g id="edge7" class="edge"><title>Node1&#45;&gt;Node7</title>
<path fill="none" stroke="midnightblue" d="M485.131,-164.684C523.012,-149.611 582.392,-120.47 616,-76 628.849,-58.9982 632.526,-33.3177 633.578,-19.8919"/>
<polygon fill="midnightblue" stroke="midnightblue" points="483.595,-161.525 475.524,-168.389 486.114,-168.056 483.595,-161.525"/>
</g>
<!-- Node8 -->
<g id="node8" class="node"><title>Node8</title>
<g id="a_node8"><a xlink:href="../../d0/de6/_open_set_8h.html" target="_top" xlink:title="Hash set implementation. ">
<polygon fill="white" stroke="black" points="702.5,-0.5 702.5,-19.5 799.5,-19.5 799.5,-0.5 702.5,-0.5"/>
<text text-anchor="middle" x="751" y="-7.5" font-family="Helvetica,sans-Serif" font-size="10.00">wlib/stl/OpenSet.h</text>
</a>
</g>
</g>
<!-- Node1&#45;&gt;Node8 -->
<g id="edge8" class="edge"><title>Node1&#45;&gt;Node8</title>
<path fill="none" stroke="midnightblue" d="M498.474,-172.684C548.222,-167.179 627.285,-155.416 692,-132 739.9,-114.669 766.242,-119.946 792,-76 804.077,-55.396 779.22,-31.8265 763.174,-19.5119"/>
<polygon fill="midnightblue" stroke="midnightblue" points="497.892,-169.226 488.319,-173.766 498.633,-176.187 497.892,-169.226"/>
</g>
<!-- Node9 -->
<g id="node9" class="node"><title>Node9</title>
<g id="a_node9"><a xlink:href="../../d8/d2e/_open_table_8h.html" target="_top" xlink:title="wlib/stl/OpenTable.h">
<polygon fill="white" stroke="black" points="678,-56.5 678,-75.5 784,-75.5 784,-56.5 678,-56.5"/>
<text text-anchor="middle" x="731" y="-63.5" font-family="Helvetica,sans-Serif" font-size="10.00">wlib/stl/OpenTable.h</text>
</a>
</g>
</g>
<!-- Node1&#45;&gt;Node9 -->
<g id="edge9" class="edge"><title>Node1&#45;&gt;Node9</title>
<path fill="none" stroke="midnightblue" d="M498.233,-174.52C543.399,-170.479 611.6,-159.866 664,-132 690.615,-117.847 713.924,-89.9468 724.681,-75.7473"/>
<polygon fill="midnightblue" stroke="midnightblue" points="497.797,-171.044 488.116,-175.349 498.369,-178.02 497.797,-171.044"/>
</g>
<!-- Node10 -->
<g id="node10" class="node"><title>Node10</title>
<g id="a_node10"><a xlink:href="../../d5/d08/_red_black_tree_8h.html" target="_top" xlink:title="Red black tree implementation. ">
<polygon fill="white" stroke="black" points="462.5,-56.5 462.5,-75.5 583.5,-75.5 583.5,-56.5 462.5,-56.5"/>
<text text-anchor="middle" x="523" y="-63.5" font-family="Helvetica,sans-Serif" font-size="10.00">wlib/stl/RedBlackTree.h</text>
</a>
</g>
</g>
<!-- Node1&#45;&gt;Node10 -->
<g id="edge12" class="edge"><title>Node1&#45;&gt;Node10</title>
<path fill="none" stroke="midnightblue" d="M461.31,-159.957C477.131,-136.118 505.275,-93.7088 517.298,-75.5914"/>
<polygon fill="midnightblue" stroke="midnightblue" points="458.341,-158.101 455.728,-168.368 464.174,-161.972 458.341,-158.101"/>
</g>
<!-- Node13 -->
<g id="node13" class="node"><title>Node13</title>
<g id="a_node13"><a xlink:href="../../d7/d2a/_tuple_8h.html" target="_top" xlink:title="Template oriented tuple implementation. ">
<polygon fill="white" stroke="black" points="361.5,-112.5 361.5,-131.5 444.5,-131.5 444.5,-112.5 361.5,-112.5"/>
<text text-anchor="middle" x="403" y="-119.5" font-family="Helvetica,sans-Serif" font-size="10.00">wlib/stl/Tuple.h</text>
</a>
</g>
</g>
<!-- Node1&#45;&gt;Node13 -->
<g id="edge15" class="edge"><title>Node1&#45;&gt;Node13</title>
<path fill="none" stroke="midnightblue" d="M435.579,-160.431C427.342,-150.967 417.346,-139.483 410.617,-131.751"/>
<polygon fill="midnightblue" stroke="midnightblue" points="433.034,-162.838 442.239,-168.083 438.314,-158.242 433.034,-162.838"/>
</g>
<!-- Node3 -->
<g id="node3" class="node"><title>Node3</title>
<g id="a_node3"><a xlink:href="../../df/d03/_array_heap_8h.html" target="_top" xlink:title="Heap manipulation and implementation. ">
<polygon fill="white" stroke="black" points="-0.5,-56.5 -0.5,-75.5 104.5,-75.5 104.5,-56.5 -0.5,-56.5"/>
<text text-anchor="middle" x="52" y="-63.5" font-family="Helvetica,sans-Serif" font-size="10.00">wlib/stl/ArrayHeap.h</text>
</a>
</g>
</g>
<!-- Node2&#45;&gt;Node3 -->
<g id="edge2" class="edge"><title>Node2&#45;&gt;Node3</title>
<path fill="none" stroke="midnightblue" d="M53.9336,-101.805C53.4395,-92.9102 52.8767,-82.7798 52.4862,-75.7511"/>
<polygon fill="midnightblue" stroke="midnightblue" points="50.4552,-102.293 54.5046,-112.083 57.4444,-101.904 50.4552,-102.293"/>
</g>
<!-- Node5&#45;&gt;Node4 -->
<g id="edge5" class="edge"><title>Node5&#45;&gt;Node4</title>
<path fill="none" stroke="midnightblue" d="M201.3,-47.8554C194.374,-38.5048 186.094,-27.3265 180.482,-19.7511"/>
<polygon fill="midnightblue" stroke="midnightblue" points="198.63,-50.1307 207.395,-56.083 204.255,-45.9641 198.63,-50.1307"/>
</g>
<!-- Node6 -->
<g id="node6" class="node"><title>Node6</title>
<g id="a_node6"><a xlink:href="../../d2/dfc/_hash_set_8h.html" target="_top" xlink:title="wlib/stl/HashSet.h">
<polygon fill="white" stroke="black" points="242.5,-0.5 242.5,-19.5 339.5,-19.5 339.5,-0.5 242.5,-0.5"/>
<text text-anchor="middle" x="291" y="-7.5" font-family="Helvetica,sans-Serif" font-size="10.00">wlib/stl/HashSet.h</text>
</a>
</g>
</g>
<!-- Node5&#45;&gt;Node6 -->
<g id="edge6" class="edge"><title>Node5&#45;&gt;Node6</title>
<path fill="none" stroke="midnightblue" d="M234.901,-50.3422C248.911,-40.5169 266.883,-27.9132 278.659,-19.6545"/>
<polygon fill="midnightblue" stroke="midnightblue" points="232.549,-47.7166 226.371,-56.324 236.568,-53.4477 232.549,-47.7166"/>
</g>
<!-- Node9&#45;&gt;Node7 -->
<g id="edge10" class="edge"><title>Node9&#45;&gt;Node7</title>
<path fill="none" stroke="midnightblue" d="M706.665,-51.4526C688.757,-41.4835 664.946,-28.2279 649.546,-19.6545"/>
<polygon fill="midnightblue" stroke="midnightblue" points="704.975,-54.5179 715.415,-56.324 708.38,-48.4018 704.975,-54.5179"/>
</g>
<!-- Node9&#45;&gt;Node8 -->
<g id="edge11" class="edge"><title>Node9&#45;&gt;Node8</title>
<path fill="none" stroke="midnightblue" d="M737.782,-46.6897C741.152,-37.589 745.069,-27.0141 747.759,-19.7511"/>
<polygon fill="midnightblue" stroke="midnightblue" points="734.494,-45.4899 734.303,-56.083 741.058,-47.9211 734.494,-45.4899"/>
</g>
<!-- Node11 -->
<g id="node11" class="node"><title>Node11</title>
<g id="a_node11"><a xlink:href="../../df/d87/_tree_map_8h.html" target="_top" xlink:title="Map implementation using red black tree. ">
<polygon fill="white" stroke="black" points="357.5,-0.5 357.5,-19.5 454.5,-19.5 454.5,-0.5 357.5,-0.5"/>
<text text-anchor="middle" x="406" y="-7.5" font-family="Helvetica,sans-Serif" font-size="10.00">wlib/stl/TreeMap.h</text>
</a>
</g>
</g>
<!-- Node10&#45;&gt;Node11 -->
<g id="edge13" class="edge"><title>Node10&#45;&gt;Node11</title>
<path fill="none" stroke="midnightblue" d="M495.336,-52.2321C473.451,-42.1312 443.503,-28.3091 424.452,-19.5164"/>
<polygon fill="midnightblue" stroke="midnightblue" points="493.915,-55.4308 504.461,-56.4435 496.848,-49.075 493.915,-55.4308"/>
</g>
<!-- Node12 -->
<g id="node12" class="node"><title>Node12</title>
<g id="a_node12"><a xlink:href="../../dd/dba/_tree_set_8h.html" target="_top" xlink:title="Set implementation using red black tree. ">
<polygon fill="white" stroke="black" points="472.5,-0.5 472.5,-19.5 565.5,-19.5 565.5,-0.5 472.5,-0.5"/>
<text text-anchor="middle" x="519" y="-7.5" font-family="Helvetica,sans-Serif" font-size="10.00">wlib/stl/TreeSet.h</text>
</a>
</g>
</g>
<!-- Node10&#45;&gt;Node12 -->
<g id="edge14" class="edge"><title>Node10&#45;&gt;Node12</title>
<path fill="none" stroke="midnightblue" d="M521.6,-46.1005C520.936,-37.1357 520.175,-26.8579 519.648,-19.7511"/>
<polygon fill="midnightblue" stroke="midnightblue" points="518.11,-46.3689 522.339,-56.083 525.091,-45.8517 518.11,-46.3689"/>
</g>
<!-- Node13&#45;&gt;Node4 -->
<g id="edge16" class="edge"><title>Node13&#45;&gt;Node4</title>
<path fill="none" stroke="midnightblue" d="M377.5,-107.569C351.801,-94.1485 310.914,-73.106 275,-56 247.097,-42.7098 214.343,-28.3377 193.876,-19.501"/>
<polygon fill="midnightblue" stroke="midnightblue" points="376.081,-110.777 386.563,-112.316 379.328,-104.576 376.081,-110.777"/>
</g>
<!-- Node13&#45;&gt;Node7 -->
<g id="edge17" class="edge"><title>Node13&#45;&gt;Node7</title>
<path fill="none" stroke="midnightblue" d="M454.562,-119.044C495.176,-115.219 551.504,-104.632 592,-76 612.405,-61.5729 625.33,-33.7971 630.873,-19.6859"/>
<polygon fill="midnightblue" stroke="midnightblue" points="454.268,-115.556 444.595,-119.878 454.852,-122.532 454.268,-115.556"/>
</g>
<!-- Node13&#45;&gt;Node11 -->
<g id="edge25" class="edge"><title>Node13&#45;&gt;Node11</title>
<path fill="none" stroke="midnightblue" d="M378.976,-106.576C361.705,-94.2044 342.933,-75.3574 352,-56 359.661,-39.644 376.512,-27.1593 389.367,-19.5364"/>
<polygon fill="midnightblue" stroke="midnightblue" points="377.458,-109.771 387.716,-112.423 381.351,-103.953 377.458,-109.771"/>
</g>
<!-- Node14 -->
<g id="node14" class="node"><title>Node14</title>
<g id="a_node14"><a xlink:href="../../d9/d37/_table_8h.html" target="_top" xlink:title="wlib/stl/Table.h">
<polygon fill="white" stroke="black" points="361.5,-56.5 361.5,-75.5 444.5,-75.5 444.5,-56.5 361.5,-56.5"/>
<text text-anchor="middle" x="403" y="-63.5" font-family="Helvetica,sans-Serif" font-size="10.00">wlib/stl/Table.h</text>
</a>
</g>
</g>
<!-- Node13&#45;&gt;Node14 -->
<g id="edge18" class="edge"><title>Node13&#45;&gt;Node14</title>
<path fill="none" stroke="midnightblue" d="M403,-101.805C403,-92.9102 403,-82.7798 403,-75.7511"/>
<polygon fill="midnightblue" stroke="midnightblue" points="399.5,-102.083 403,-112.083 406.5,-102.083 399.5,-102.083"/>
</g>
<!-- Node14&#45;&gt;Node4 -->
<g id="edge19" class="edge"><title>Node14&#45;&gt;Node4</title>
<path fill="none" stroke="midnightblue" d="M356.727,-54.0884C313.463,-43.8865 249.745,-28.8612 210.116,-19.5164"/>
<polygon fill="midnightblue" stroke="midnightblue" points="356.178,-57.5549 366.714,-56.4435 357.785,-50.7418 356.178,-57.5549"/>
</g>
<!-- Node14&#45;&gt;Node6 -->
<g id="edge20" class="edge"><title>Node14&#45;&gt;Node6</title>
<path fill="none" stroke="midnightblue" d="M375.751,-51.8622C354.984,-41.8492 326.977,-28.3458 308.95,-19.6545"/>
<polygon fill="midnightblue" stroke="midnightblue" points="374.477,-55.1336 385.005,-56.324 377.518,-48.8282 374.477,-55.1336"/>
</g>
<!-- Node14&#45;&gt;Node7 -->
<g id="edge21" class="edge"><title>Node14&#45;&gt;Node7</title>
<path fill="none" stroke="midnightblue" d="M449.402,-54.1529C493.047,-43.95 557.51,-28.8809 597.569,-19.5164"/>
<polygon fill="midnightblue" stroke="midnightblue" points="448.543,-50.7591 439.603,-56.4435 450.137,-57.5753 448.543,-50.7591"/>
</g>
<!-- Node14&#45;&gt;Node8 -->
<g id="edge22" class="edge"><title>Node14&#45;&gt;Node8</title>
<path fill="none" stroke="midnightblue" d="M454.906,-55.7194C561.127,-38.2997 589.602,-35.777 693,-20 696.022,-19.5389 699.132,-19.0622 702.269,-18.5801"/>
<polygon fill="midnightblue" stroke="midnightblue" points="454.025,-52.3173 444.726,-57.3953 455.162,-59.2244 454.025,-52.3173"/>
</g>
<!-- Node14&#45;&gt;Node11 -->
<g id="edge23" class="edge"><title>Node14&#45;&gt;Node11</title>
<path fill="none" stroke="midnightblue" d="M404.066,-45.8045C404.561,-36.9102 405.123,-26.7798 405.514,-19.7511"/>
<polygon fill="midnightblue" stroke="midnightblue" points="400.556,-45.9042 403.495,-56.083 407.545,-46.2926 400.556,-45.9042"/>
</g>
<!-- Node14&#45;&gt;Node12 -->
<g id="edge24" class="edge"><title>Node14&#45;&gt;Node12</title>
<path fill="none" stroke="midnightblue" d="M430.72,-52.096C452.392,-42.0073 481.902,-28.2697 500.705,-19.5164"/>
<polygon fill="midnightblue" stroke="midnightblue" points="428.969,-49.0501 421.381,-56.4435 431.923,-55.3962 428.969,-49.0501"/>
</g>
</g>
</svg>
        <g id="navigator" transform="translate(0 0)" fill="#404254">
                <rect fill="#f2f5e9" fill-opacity="0.5" stroke="#606060" stroke-width=".5" x="0" y="0" width="60" height="60"/>
                <use id="zoomplus" xlink:href="#zoomPlus" x="17" y="9" onmousedown="handleZoom(evt,'in')"/>
                <use id="zoomminus" xlink:href="#zoomMin" x="42" y="9" onmousedown="handleZoom(evt,'out')"/>
                <use id="reset" xlink:href="#resetDef" x="30" y="36" onmousedown="handleReset()"/>
                <g id="arrowUp" xlink:href="#dirArrow" transform="translate(30 24)" onmousedown="handlePan(0,-1)">
                  <use xlink:href="#rim" fill="#404040">
                        <set attributeName="fill" to="#808080" begin="arrowUp.mouseover" end="arrowUp.mouseout"/>
                  </use>
                  <path fill="none" stroke="white" stroke-width="1.5" d="M0,-3.0v7 M-2.5,-0.5L0,-3.0L2.5,-0.5"/>
                </g>
                <g id="arrowRight" xlink:href="#dirArrow" transform="rotate(90) translate(36 -43)" onmousedown="handlePan(1,0)">
                  <use xlink:href="#rim" fill="#404040">
                        <set attributeName="fill" to="#808080" begin="arrowRight.mouseover" end="arrowRight.mouseout"/>
                  </use>
                  <path fill="none" stroke="white" stroke-width="1.5" d="M0,-3.0v7 M-2.5,-0.5L0,-3.0L2.5,-0.5"/>
                </g>
                <g id="arrowDown" xlink:href="#dirArrow" transform="rotate(180) translate(-30 -48)" onmousedown="handlePan(0,1)">
                  <use xlink:href="#rim" fill="#404040">
                        <set attributeName="fill" to="#808080" begin="arrowDown.mouseover" end="arrowDown.mouseout"/>
                  </use>
                  <path fill="none" stroke="white" stroke-width="1.5" d="M0,-3.0v7 M-2.5,-0.5L0,-3.0L2.5,-0.5"/>
                </g>
                <g id="arrowLeft" xlink:href="#dirArrow" transform="rotate(270) translate(-36 17)" onmousedown="handlePan(-1,0)">
                  <use xlink:href="#rim" fill="#404040">
                        <set attributeName="fill" to="#808080" begin="arrowLeft.mouseover" end="arrowLeft.mouseout"/>
                  </use>
                  <path fill="none" stroke="white" stroke-width="1.5" d="M0,-3.0v7 M-2.5,-0.5L0,-3.0L2.5,-0.5"/>
                </g>
        </g>
        <svg viewBox="0 0 15 15" width="100%" height="30px" preserveAspectRatio="xMaxYMin meet">
         <g id="arrow_out" transform="scale(0.3 0.3)">
          <a xlink:href="_pair_8h__dep__incl_org.svg" target="_base">
           <rect id="button" ry="5" rx="5" y="6" x="6" height="38" width="38"
                fill="#f2f5e9" fill-opacity="0.5" stroke="#606060" stroke-width="1.0"/>
           <path id="arrow"
             d="M 11.500037,31.436501 C 11.940474,20.09759 22.043105,11.32322 32.158766,21.979434 L 37.068811,17.246167 C 37.068811,17.246167 37.088388,32 37.088388,32 L 22.160133,31.978069 C 22.160133,31.978069 26.997745,27.140456 26.997745,27.140456 C 18.528582,18.264221 13.291696,25.230495 11.500037,31.436501 z"
             style="fill:#404040;"/>
          </a>
         </g>
        </svg>
</svg>
