<?xml version="1.0" encoding="UTF-8" standalone="no"?>
<!DOCTYPE svg PUBLIC "-//W3C//DTD SVG 1.1//EN"
 "http://www.w3.org/Graphics/SVG/1.1/DTD/svg11.dtd">
<!-- Generated by graphviz version 2.36.0 (20140111.2315)
 -->
<!-- Title: wlp::is_same&lt; typename, typename &gt; Pages: 1 -->
<svg width="136pt" height="166pt"
 viewBox="0.00 0.00 136.00 166.00" xmlns="http://www.w3.org/2000/svg" xmlns:xlink="http://www.w3.org/1999/xlink">
<g id="graph0" class="graph" transform="scale(1 1) rotate(0) translate(4 162)">
<title>wlp::is_same&lt; typename, typename &gt;</title>
<polygon fill="white" stroke="none" points="-4,4 -4,-162 132,-162 132,4 -4,4"/>
<!-- Node1 -->
<g id="node1" class="node"><title>Node1</title>
<polygon fill="#bfbfbf" stroke="black" points="-0.5,-1 -0.5,-31 128.5,-31 128.5,-1 -0.5,-1"/>
<text text-anchor="start" x="7.5" y="-19" font-family="Helvetica,sans-Serif" font-size="10.00">wlp::is_same&lt; typename,</text>
<text text-anchor="middle" x="64" y="-8" font-family="Helvetica,sans-Serif" font-size="10.00"> typename &gt;</text>
</g>
<!-- Node2 -->
<g id="node2" class="node"><title>Node2</title>
<g id="a_node2"><a xlink:href="../../d3/d8d/structwlp_1_1integral__constant.html" target="_top" xlink:title="false_type">
<polygon fill="white" stroke="black" points="33,-70.5 33,-89.5 95,-89.5 95,-70.5 33,-70.5"/>
<text text-anchor="middle" x="64" y="-77.5" font-family="Helvetica,sans-Serif" font-size="10.00">false_type</text>
</a>
</g>
</g>
<!-- Node2&#45;&gt;Node1 -->
<g id="edge1" class="edge"><title>Node2&#45;&gt;Node1</title>
<path fill="none" stroke="midnightblue" d="M64,-60.1826C64,-50.8859 64,-39.8507 64,-31.263"/>
<polygon fill="midnightblue" stroke="midnightblue" points="60.5001,-60.3791 64,-70.3792 67.5001,-60.3792 60.5001,-60.3791"/>
</g>
<!-- Node3 -->
<g id="node3" class="node"><title>Node3</title>
<polygon fill="white" stroke="#bfbfbf" points="49.5,-138.5 49.5,-157.5 78.5,-157.5 78.5,-138.5 49.5,-138.5"/>
<text text-anchor="middle" x="64" y="-145.5" font-family="Helvetica,sans-Serif" font-size="10.00">T</text>
</g>
<!-- Node3&#45;&gt;Node2 -->
<g id="edge2" class="edge"><title>Node3&#45;&gt;Node2</title>
<path fill="none" stroke="#9a32cd" stroke-dasharray="5,2" d="M64,-128.041C64,-115.472 64,-99.5631 64,-89.8411"/>
<polygon fill="#9a32cd" stroke="#9a32cd" points="60.5001,-128.372 64,-138.372 67.5001,-128.372 60.5001,-128.372"/>
<text text-anchor="middle" x="77.5" y="-111.5" font-family="Helvetica,sans-Serif" font-size="10.00"> value</text>
</g>
</g>
</svg>
