<?xml version="1.0" encoding="UTF-8" standalone="no"?>
<!DOCTYPE svg PUBLIC "-//W3C//DTD SVG 1.1//EN"
 "http://www.w3.org/Graphics/SVG/1.1/DTD/svg11.dtd">
<!-- Generated by graphviz version 2.36.0 (20140111.2315)
 -->
<!-- Title: wlp::SharedCount::use_count Pages: 1 -->
<svg width="270pt" height="38pt"
 viewBox="0.00 0.00 270.00 38.00" xmlns="http://www.w3.org/2000/svg" xmlns:xlink="http://www.w3.org/1999/xlink">
<g id="graph0" class="graph" transform="scale(1 1) rotate(0) translate(4 34)">
<title>wlp::SharedCount::use_count</title>
<polygon fill="white" stroke="none" points="-4,4 -4,-34 266,-34 266,4 -4,4"/>
<!-- Node1 -->
<g id="node1" class="node"><title>Node1</title>
<polygon fill="#bfbfbf" stroke="black" points="0,-0 0,-30 116,-30 116,-0 0,-0"/>
<text text-anchor="start" x="8" y="-18" font-family="Helvetica,sans-Serif" font-size="10.00">wlp::SharedCount::use</text>
<text text-anchor="middle" x="58" y="-7" font-family="Helvetica,sans-Serif" font-size="10.00">_count</text>
</g>
<!-- Node2 -->
<g id="node2" class="node"><title>Node2</title>
<g id="a_node2"><a xlink:href="../../da/dbb/classwlp_1_1_shared_count.html#a9c8cf04efdd03a9dc9c9691d881c833d" target="_top" xlink:title="wlp::SharedCount\&lt; T\l * \&gt;::unique">
<polygon fill="white" stroke="black" points="152,-0 152,-30 262,-30 262,-0 152,-0"/>
<text text-anchor="start" x="160" y="-18" font-family="Helvetica,sans-Serif" font-size="10.00">wlp::SharedCount&lt; T</text>
<text text-anchor="middle" x="207" y="-7" font-family="Helvetica,sans-Serif" font-size="10.00"> * &gt;::unique</text>
</a>
</g>
</g>
<!-- Node1&#45;&gt;Node2 -->
<g id="edge1" class="edge"><title>Node1&#45;&gt;Node2</title>
<path fill="none" stroke="midnightblue" d="M126.435,-15C134.848,-15 143.368,-15 151.55,-15"/>
<polygon fill="midnightblue" stroke="midnightblue" points="126.255,-11.5001 116.255,-15 126.255,-18.5001 126.255,-11.5001"/>
</g>
</g>
</svg>
