<?xml version="1.0" encoding="UTF-8" standalone="no"?>
<!DOCTYPE svg PUBLIC "-//W3C//DTD SVG 1.1//EN"
 "http://www.w3.org/Graphics/SVG/1.1/DTD/svg11.dtd">
<!-- Generated by graphviz version 2.36.0 (20140111.2315)
 -->
<!-- Title: wlp::shared_ptr::operator= Pages: 1 -->
<svg width="312pt" height="66pt"
 viewBox="0.00 0.00 312.00 66.00" xmlns="http://www.w3.org/2000/svg" xmlns:xlink="http://www.w3.org/1999/xlink">
<g id="graph0" class="graph" transform="scale(1 1) rotate(0) translate(4 62)">
<title>wlp::shared_ptr::operator=</title>
<polygon fill="white" stroke="none" points="-4,4 -4,-62 308,-62 308,4 -4,4"/>
<!-- Node1 -->
<g id="node1" class="node"><title>Node1</title>
<polygon fill="#bfbfbf" stroke="black" points="0.5,-19.5 0.5,-38.5 131.5,-38.5 131.5,-19.5 0.5,-19.5"/>
<text text-anchor="middle" x="66" y="-26.5" font-family="Helvetica,sans-Serif" font-size="10.00">wlp::shared_ptr::operator=</text>
</g>
<!-- Node2 -->
<g id="node2" class="node"><title>Node2</title>
<g id="a_node2"><a xlink:href="../../d5/dca/namespacewlp.html#aa09e615d02daee5123e80ddaee3d2323" target="_top" xlink:title="wlp::move">
<polygon fill="white" stroke="black" points="205,-38.5 205,-57.5 267,-57.5 267,-38.5 205,-38.5"/>
<text text-anchor="middle" x="236" y="-45.5" font-family="Helvetica,sans-Serif" font-size="10.00">wlp::move</text>
</a>
</g>
</g>
<!-- Node1&#45;&gt;Node2 -->
<g id="edge1" class="edge"><title>Node1&#45;&gt;Node2</title>
<path fill="none" stroke="midnightblue" d="M131.953,-36.3459C153.144,-38.7425 176.042,-41.3321 194.859,-43.4602"/>
<polygon fill="midnightblue" stroke="midnightblue" points="194.526,-46.9448 204.856,-44.5908 195.313,-39.9891 194.526,-46.9448"/>
</g>
<!-- Node3 -->
<g id="node3" class="node"><title>Node3</title>
<g id="a_node3"><a xlink:href="../../da/dbb/classwlp_1_1shared__ptr.html#afa0ab4333a5a88f7a7fc2043f53dcaac" target="_top" xlink:title="wlp::shared_ptr::shared_ptr">
<polygon fill="white" stroke="black" points="168.5,-0.5 168.5,-19.5 303.5,-19.5 303.5,-0.5 168.5,-0.5"/>
<text text-anchor="middle" x="236" y="-7.5" font-family="Helvetica,sans-Serif" font-size="10.00">wlp::shared_ptr::shared_ptr</text>
</a>
</g>
</g>
<!-- Node1&#45;&gt;Node3 -->
<g id="edge2" class="edge"><title>Node1&#45;&gt;Node3</title>
<path fill="none" stroke="midnightblue" d="M131.953,-21.6541C140.514,-20.6859 149.354,-19.6861 158.091,-18.6981"/>
<polygon fill="midnightblue" stroke="midnightblue" points="158.733,-22.1478 168.277,-17.5461 157.947,-15.1921 158.733,-22.1478"/>
</g>
</g>
</svg>
