<?xml version="1.0" encoding="UTF-8" standalone="no"?>
<!DOCTYPE svg PUBLIC "-//W3C//DTD SVG 1.1//EN"
 "http://www.w3.org/Graphics/SVG/1.1/DTD/svg11.dtd">
<!-- Generated by graphviz version 2.38.0 (20140413.2041)
 -->
<!-- Title: wlp::Equal&lt; StaticString&lt; tSize &gt; &gt;::operator() Pages: 1 -->
<svg width="260pt" height="39pt"
 viewBox="0.00 0.00 260.00 39.00" xmlns="http://www.w3.org/2000/svg" xmlns:xlink="http://www.w3.org/1999/xlink">
<g id="graph0" class="graph" transform="scale(1 1) rotate(0) translate(4 35)">
<title>wlp::Equal&lt; StaticString&lt; tSize &gt; &gt;::operator()</title>
<polygon fill="white" stroke="none" points="-4,4 -4,-35 256,-35 256,4 -4,4"/>
<!-- Node0 -->
<g id="node1" class="node"><title>Node0</title>
<polygon fill="#bfbfbf" stroke="black" points="0,-0.5 0,-30.5 122,-30.5 122,-0.5 0,-0.5"/>
<text text-anchor="start" x="8" y="-18.5" font-family="Helvetica,sans-Serif" font-size="10.00">wlp::Equal&lt; StaticString</text>
<text text-anchor="middle" x="61" y="-7.5" font-family="Helvetica,sans-Serif" font-size="10.00">&lt; tSize &gt; &gt;::operator()</text>
</g>
<!-- Node1 -->
<g id="node2" class="node"><title>Node1</title>
<g id="a_node2"><a xlink:href="../../d6/d6b/classwlp_1_1_static_string.html#a3dc0e9fe5861cfebae08b3c3b9877371" target="_top" xlink:title="wlp::StaticString::\lc_str">
<polygon fill="white" stroke="black" points="158,-0.5 158,-30.5 252,-30.5 252,-0.5 158,-0.5"/>
<text text-anchor="start" x="166" y="-18.5" font-family="Helvetica,sans-Serif" font-size="10.00">wlp::StaticString::</text>
<text text-anchor="middle" x="205" y="-7.5" font-family="Helvetica,sans-Serif" font-size="10.00">c_str</text>
</a>
</g>
</g>
<!-- Node0&#45;&gt;Node1 -->
<g id="edge1" class="edge"><title>Node0&#45;&gt;Node1</title>
<path fill="none" stroke="midnightblue" d="M122.221,-15.5C130.712,-15.5 139.413,-15.5 147.824,-15.5"/>
<polygon fill="midnightblue" stroke="midnightblue" points="147.906,-19.0001 157.906,-15.5 147.906,-12.0001 147.906,-19.0001"/>
</g>
</g>
</svg>
