<?xml version="1.0" encoding="UTF-8" standalone="no"?>
<!DOCTYPE svg PUBLIC "-//W3C//DTD SVG 1.1//EN"
 "http://www.w3.org/Graphics/SVG/1.1/DTD/svg11.dtd">
<!-- Generated by graphviz version 2.36.0 (20140111.2315)
 -->
<!-- Title: wlib/stl/Concept.h Pages: 1 -->
<!--zoomable 364 -->
<svg id="main" version="1.1" xmlns="http://www.w3.org/2000/svg" xmlns:xlink="http://www.w3.org/1999/xlink" xml:space="preserve" onload="init(evt)">
<style type="text/css"><![CDATA[
.edge:hover path { stroke: red; }
.edge:hover polygon { stroke: red; fill: red; }
]]></style>
<script type="text/javascript"><![CDATA[
var edges = document.getElementsByTagName('g');
if (edges && edges.length) {
  for (var i=0;i<edges.length;i++) {
    if (edges[i].id.substr(0,4)=='edge') {
      edges[i].setAttribute('class','edge');
    }
  }
}
]]></script>
        <defs>
                <circle id="rim" cx="0" cy="0" r="7"/>
                <circle id="rim2" cx="0" cy="0" r="3.5"/>
                <g id="zoomPlus">
                        <use xlink:href="#rim" fill="#404040">
                                <set attributeName="fill" to="#808080" begin="zoomplus.mouseover" end="zoomplus.mouseout"/>
                        </use>
                        <path d="M-4,0h8M0,-4v8" fill="none" stroke="white" stroke-width="1.5" pointer-events="none"/>
                </g>
                <g id="zoomMin">
                        <use xlink:href="#rim" fill="#404040">
                                <set attributeName="fill" to="#808080" begin="zoomminus.mouseover" end="zoomminus.mouseout"/>
                        </use>
                        <path d="M-4,0h8" fill="none" stroke="white" stroke-width="1.5" pointer-events="none"/>
                </g>
                <g id="dirArrow">
                        <path fill="none" stroke="white" stroke-width="1.5" d="M0,-3.0v7 M-2.5,-0.5L0,-3.0L2.5,-0.5"/>
                </g>
               <g id="resetDef">
                       <use xlink:href="#rim2" fill="#404040">
                               <set attributeName="fill" to="#808080" begin="reset.mouseover" end="reset.mouseout"/>
                       </use>
               </g>
        </defs>

<script type="text/javascript">
var viewWidth = 942;
var viewHeight = 364;
var sectionId = 'dynsection-1';
</script>
<script xlink:href="../../svgpan.js"/>
<svg id="graph" class="graph">
<g id="viewport">
<title>wlib/stl/Concept.h</title>
<polygon fill="white" stroke="none" points="-4,4 -4,-360 938,-360 938,4 -4,4"/>
<!-- Node1 -->
<g id="node1" class="node"><title>Node1</title>
<polygon fill="#bfbfbf" stroke="black" points="719.5,-336.5 719.5,-355.5 814.5,-355.5 814.5,-336.5 719.5,-336.5"/>
<text text-anchor="middle" x="767" y="-343.5" font-family="Helvetica,sans-Serif" font-size="10.00">wlib/stl/Concept.h</text>
</g>
<!-- Node2 -->
<g id="node2" class="node"><title>Node2</title>
<g id="a_node2"><a xlink:href="../../df/d03/_array_heap_8h.html" target="_top" xlink:title="Heap manipulation and implementation. ">
<polygon fill="white" stroke="black" points="828.5,-56.5 828.5,-75.5 933.5,-75.5 933.5,-56.5 828.5,-56.5"/>
<text text-anchor="middle" x="881" y="-63.5" font-family="Helvetica,sans-Serif" font-size="10.00">wlib/stl/ArrayHeap.h</text>
</a>
</g>
</g>
<!-- Node1&#45;&gt;Node2 -->
<g id="edge1" class="edge"><title>Node1&#45;&gt;Node2</title>
<path fill="none" stroke="midnightblue" d="M795.266,-331.772C827.563,-314.473 876,-280.881 876,-235 876,-235 876,-235 876,-177 876,-139.148 878.991,-94.0459 880.346,-75.5518"/>
<polygon fill="midnightblue" stroke="midnightblue" points="793.529,-328.73 786.236,-336.415 796.73,-334.955 793.529,-328.73"/>
</g>
<!-- Node3 -->
<g id="node3" class="node"><title>Node3</title>
<g id="a_node3"><a xlink:href="../../de/d0b/_string_iterator_8h.html" target="_top" xlink:title="wlib/strings/StringIterator.h">
<polygon fill="white" stroke="black" points="592,-280.5 592,-299.5 726,-299.5 726,-280.5 592,-280.5"/>
<text text-anchor="middle" x="659" y="-287.5" font-family="Helvetica,sans-Serif" font-size="10.00">wlib/strings/StringIterator.h</text>
</a>
</g>
</g>
<!-- Node1&#45;&gt;Node3 -->
<g id="edge2" class="edge"><title>Node1&#45;&gt;Node3</title>
<path fill="none" stroke="midnightblue" d="M740.452,-331.726C720.454,-321.727 693.613,-308.307 676.309,-299.655"/>
<polygon fill="midnightblue" stroke="midnightblue" points="739.138,-334.982 749.648,-336.324 742.269,-328.721 739.138,-334.982"/>
</g>
<!-- Node4 -->
<g id="node4" class="node"><title>Node4</title>
<g id="a_node4"><a xlink:href="../../db/db5/_string_8h.html" target="_top" xlink:title="wlib/strings/String.h">
<polygon fill="white" stroke="black" points="554.5,-224.5 554.5,-243.5 657.5,-243.5 657.5,-224.5 554.5,-224.5"/>
<text text-anchor="middle" x="606" y="-231.5" font-family="Helvetica,sans-Serif" font-size="10.00">wlib/strings/String.h</text>
</a>
</g>
</g>
<!-- Node3&#45;&gt;Node4 -->
<g id="edge3" class="edge"><title>Node3&#45;&gt;Node4</title>
<path fill="none" stroke="midnightblue" d="M643.019,-272.718C633.678,-263.2 622.254,-251.561 614.589,-243.751"/>
<polygon fill="midnightblue" stroke="midnightblue" points="640.746,-275.398 650.248,-280.083 645.741,-270.494 640.746,-275.398"/>
</g>
<!-- Node5 -->
<g id="node5" class="node"><title>Node5</title>
<g id="a_node5"><a xlink:href="../../de/d6d/_bitset_8h.html" target="_top" xlink:title="Bitset is a class that provides bits manipulation methods. ">
<polygon fill="white" stroke="black" points="181,-168.5 181,-187.5 265,-187.5 265,-168.5 181,-168.5"/>
<text text-anchor="middle" x="223" y="-175.5" font-family="Helvetica,sans-Serif" font-size="10.00">wlib/stl/Bitset.h</text>
</a>
</g>
</g>
<!-- Node4&#45;&gt;Node5 -->
<g id="edge4" class="edge"><title>Node4&#45;&gt;Node5</title>
<path fill="none" stroke="midnightblue" d="M544.124,-224.276C465.693,-213.218 332.589,-194.451 265.029,-184.926"/>
<polygon fill="midnightblue" stroke="midnightblue" points="543.956,-227.787 554.347,-225.717 544.934,-220.855 543.956,-227.787"/>
</g>
<!-- Node8 -->
<g id="node8" class="node"><title>Node8</title>
<g id="a_node8"><a xlink:href="../../d7/d0c/_comparator_8h.html" target="_top" xlink:title="Comparator implementation for basic types. ">
<polygon fill="white" stroke="black" points="732,-112.5 732,-131.5 842,-131.5 842,-112.5 732,-112.5"/>
<text text-anchor="middle" x="787" y="-119.5" font-family="Helvetica,sans-Serif" font-size="10.00">wlib/stl/Comparator.h</text>
</a>
</g>
</g>
<!-- Node4&#45;&gt;Node8 -->
<g id="edge7" class="edge"><title>Node4&#45;&gt;Node8</title>
<path fill="none" stroke="midnightblue" d="M657.799,-221.757C682.395,-214.745 711.3,-203.947 734,-188 755.923,-172.599 773.711,-145.758 781.983,-131.878"/>
<polygon fill="midnightblue" stroke="midnightblue" points="656.639,-218.445 647.906,-224.443 658.473,-225.201 656.639,-218.445"/>
</g>
<!-- Node12 -->
<g id="node12" class="node"><title>Node12</title>
<g id="a_node12"><a xlink:href="../../d2/dc2/_equal_8h.html" target="_top" xlink:title="wlib/stl/Equal.h">
<polygon fill="white" stroke="black" points="511.5,-168.5 511.5,-187.5 594.5,-187.5 594.5,-168.5 511.5,-168.5"/>
<text text-anchor="middle" x="553" y="-175.5" font-family="Helvetica,sans-Serif" font-size="10.00">wlib/stl/Equal.h</text>
</a>
</g>
</g>
<!-- Node4&#45;&gt;Node12 -->
<g id="edge12" class="edge"><title>Node4&#45;&gt;Node12</title>
<path fill="none" stroke="midnightblue" d="M590.019,-216.718C580.678,-207.2 569.254,-195.561 561.589,-187.751"/>
<polygon fill="midnightblue" stroke="midnightblue" points="587.746,-219.398 597.248,-224.083 592.741,-214.494 587.746,-219.398"/>
</g>
<!-- Node19 -->
<g id="node19" class="node"><title>Node19</title>
<g id="a_node19"><a xlink:href="../../d2/dad/_hash_8h.html" target="_top" xlink:title="wlib/stl/Hash.h">
<polygon fill="white" stroke="black" points="411,-168.5 411,-187.5 493,-187.5 493,-168.5 411,-168.5"/>
<text text-anchor="middle" x="452" y="-175.5" font-family="Helvetica,sans-Serif" font-size="10.00">wlib/stl/Hash.h</text>
</a>
</g>
</g>
<!-- Node4&#45;&gt;Node19 -->
<g id="edge24" class="edge"><title>Node4&#45;&gt;Node19</title>
<path fill="none" stroke="midnightblue" d="M571.889,-221.039C542.913,-210.879 502.038,-196.546 476.288,-187.516"/>
<polygon fill="midnightblue" stroke="midnightblue" points="571.003,-224.437 581.598,-224.444 573.32,-217.832 571.003,-224.437"/>
</g>
<!-- Node20 -->
<g id="node20" class="node"><title>Node20</title>
<g id="a_node20"><a xlink:href="../../d9/dae/_string_8cpp.html" target="_top" xlink:title="wlib/strings/String.cpp">
<polygon fill="white" stroke="black" points="612.5,-168.5 612.5,-187.5 725.5,-187.5 725.5,-168.5 612.5,-168.5"/>
<text text-anchor="middle" x="669" y="-175.5" font-family="Helvetica,sans-Serif" font-size="10.00">wlib/strings/String.cpp</text>
</a>
</g>
</g>
<!-- Node4&#45;&gt;Node20 -->
<g id="edge31" class="edge"><title>Node4&#45;&gt;Node20</title>
<path fill="none" stroke="midnightblue" d="M624.04,-217.537C635.273,-207.909 649.319,-195.869 658.694,-187.834"/>
<polygon fill="midnightblue" stroke="midnightblue" points="621.437,-215.159 616.122,-224.324 625.992,-220.473 621.437,-215.159"/>
</g>
<!-- Node6 -->
<g id="node6" class="node"><title>Node6</title>
<g id="a_node6"><a xlink:href="../../de/d66/_packet_constructor_8h.html" target="_top" xlink:title="wlib/comm/PacketConstructor.h">
<polygon fill="white" stroke="black" points="4.5,-112.5 4.5,-131.5 161.5,-131.5 161.5,-112.5 4.5,-112.5"/>
<text text-anchor="middle" x="83" y="-119.5" font-family="Helvetica,sans-Serif" font-size="10.00">wlib/comm/PacketConstructor.h</text>
</a>
</g>
</g>
<!-- Node5&#45;&gt;Node6 -->
<g id="edge5" class="edge"><title>Node5&#45;&gt;Node6</title>
<path fill="none" stroke="midnightblue" d="M191.298,-164.772C165,-154.629 128.284,-140.467 105.08,-131.516"/>
<polygon fill="midnightblue" stroke="midnightblue" points="190.227,-168.11 200.817,-168.444 192.746,-161.579 190.227,-168.11"/>
</g>
<!-- Node7 -->
<g id="node7" class="node"><title>Node7</title>
<g id="a_node7"><a xlink:href="../../d9/dde/_packet_constructor_8cpp.html" target="_top" xlink:title="Creates a packet for sending data from the slave systems to the main computer. ">
<polygon fill="white" stroke="black" points="-0.5,-56.5 -0.5,-75.5 166.5,-75.5 166.5,-56.5 -0.5,-56.5"/>
<text text-anchor="middle" x="83" y="-63.5" font-family="Helvetica,sans-Serif" font-size="10.00">wlib/comm/PacketConstructor.cpp</text>
</a>
</g>
</g>
<!-- Node6&#45;&gt;Node7 -->
<g id="edge6" class="edge"><title>Node6&#45;&gt;Node7</title>
<path fill="none" stroke="midnightblue" d="M83,-101.805C83,-92.9102 83,-82.7798 83,-75.7511"/>
<polygon fill="midnightblue" stroke="midnightblue" points="79.5001,-102.083 83,-112.083 86.5001,-102.083 79.5001,-102.083"/>
</g>
<!-- Node8&#45;&gt;Node2 -->
<g id="edge8" class="edge"><title>Node8&#45;&gt;Node2</title>
<path fill="none" stroke="midnightblue" d="M811.062,-107.177C828.359,-97.2407 851.148,-84.1492 865.935,-75.6545"/>
<polygon fill="midnightblue" stroke="midnightblue" points="809.03,-104.308 802.103,-112.324 812.517,-110.378 809.03,-104.308"/>
</g>
<!-- Node9 -->
<g id="node9" class="node"><title>Node9</title>
<g id="a_node9"><a xlink:href="../../d5/d08/_red_black_tree_8h.html" target="_top" xlink:title="Red black tree implementation. ">
<polygon fill="white" stroke="black" points="689.5,-56.5 689.5,-75.5 810.5,-75.5 810.5,-56.5 689.5,-56.5"/>
<text text-anchor="middle" x="750" y="-63.5" font-family="Helvetica,sans-Serif" font-size="10.00">wlib/stl/RedBlackTree.h</text>
</a>
</g>
</g>
<!-- Node8&#45;&gt;Node9 -->
<g id="edge9" class="edge"><title>Node8&#45;&gt;Node9</title>
<path fill="none" stroke="midnightblue" d="M775.054,-103.566C768.688,-94.2747 761.133,-83.2484 755.996,-75.7511"/>
<polygon fill="midnightblue" stroke="midnightblue" points="772.351,-105.812 780.89,-112.083 778.125,-101.855 772.351,-105.812"/>
</g>
<!-- Node10 -->
<g id="node10" class="node"><title>Node10</title>
<g id="a_node10"><a xlink:href="../../df/d87/_tree_map_8h.html" target="_top" xlink:title="Map implementation using red black tree. ">
<polygon fill="white" stroke="black" points="645.5,-0.5 645.5,-19.5 742.5,-19.5 742.5,-0.5 645.5,-0.5"/>
<text text-anchor="middle" x="694" y="-7.5" font-family="Helvetica,sans-Serif" font-size="10.00">wlib/stl/TreeMap.h</text>
</a>
</g>
</g>
<!-- Node9&#45;&gt;Node10 -->
<g id="edge10" class="edge"><title>Node9&#45;&gt;Node10</title>
<path fill="none" stroke="midnightblue" d="M733.67,-49.2533C723.735,-39.6731 711.412,-27.7906 703.161,-19.8339"/>
<polygon fill="midnightblue" stroke="midnightblue" points="731.375,-51.902 741.003,-56.324 736.234,-46.8631 731.375,-51.902"/>
</g>
<!-- Node11 -->
<g id="node11" class="node"><title>Node11</title>
<g id="a_node11"><a xlink:href="../../dd/dba/_tree_set_8h.html" target="_top" xlink:title="Set implementation using red black tree. ">
<polygon fill="white" stroke="black" points="760.5,-0.5 760.5,-19.5 853.5,-19.5 853.5,-0.5 760.5,-0.5"/>
<text text-anchor="middle" x="807" y="-7.5" font-family="Helvetica,sans-Serif" font-size="10.00">wlib/stl/TreeSet.h</text>
</a>
</g>
</g>
<!-- Node9&#45;&gt;Node11 -->
<g id="edge11" class="edge"><title>Node9&#45;&gt;Node11</title>
<path fill="none" stroke="midnightblue" d="M766.621,-49.2533C776.734,-39.6731 789.277,-27.7906 797.675,-19.8339"/>
<polygon fill="midnightblue" stroke="midnightblue" points="764.01,-46.9056 759.158,-56.324 768.825,-51.9873 764.01,-46.9056"/>
</g>
<!-- Node12&#45;&gt;Node8 -->
<g id="edge13" class="edge"><title>Node12&#45;&gt;Node8</title>
<path fill="none" stroke="midnightblue" d="M600.004,-166.153C644.217,-155.95 709.516,-140.881 750.095,-131.516"/>
<polygon fill="midnightblue" stroke="midnightblue" points="599.035,-162.784 590.078,-168.444 600.609,-169.605 599.035,-162.784"/>
</g>
<!-- Node13 -->
<g id="node13" class="node"><title>Node13</title>
<g id="a_node13"><a xlink:href="../../dd/d0b/_hash_map_8h.html" target="_top" xlink:title="wlib/stl/HashMap.h">
<polygon fill="white" stroke="black" points="200.5,-56.5 200.5,-75.5 301.5,-75.5 301.5,-56.5 200.5,-56.5"/>
<text text-anchor="middle" x="251" y="-63.5" font-family="Helvetica,sans-Serif" font-size="10.00">wlib/stl/HashMap.h</text>
</a>
</g>
</g>
<!-- Node12&#45;&gt;Node13 -->
<g id="edge14" class="edge"><title>Node12&#45;&gt;Node13</title>
<path fill="none" stroke="midnightblue" d="M501.243,-168.018C402.928,-153.844 361.637,-187.482 285,-132 265.813,-118.109 256.559,-90.0904 252.932,-75.8062"/>
<polygon fill="midnightblue" stroke="midnightblue" points="500.834,-171.496 511.258,-169.598 501.925,-164.582 500.834,-171.496"/>
</g>
<!-- Node14 -->
<g id="node14" class="node"><title>Node14</title>
<g id="a_node14"><a xlink:href="../../d2/dfc/_hash_set_8h.html" target="_top" xlink:title="wlib/stl/HashSet.h">
<polygon fill="white" stroke="black" points="319.5,-56.5 319.5,-75.5 416.5,-75.5 416.5,-56.5 319.5,-56.5"/>
<text text-anchor="middle" x="368" y="-63.5" font-family="Helvetica,sans-Serif" font-size="10.00">wlib/stl/HashSet.h</text>
</a>
</g>
</g>
<!-- Node12&#45;&gt;Node14 -->
<g id="edge15" class="edge"><title>Node12&#45;&gt;Node14</title>
<path fill="none" stroke="midnightblue" d="M529.469,-163.009C490.637,-139.919 414.268,-94.5104 382.449,-75.5914"/>
<polygon fill="midnightblue" stroke="midnightblue" points="528.099,-166.266 538.483,-168.368 531.677,-160.249 528.099,-166.266"/>
</g>
<!-- Node15 -->
<g id="node15" class="node"><title>Node15</title>
<g id="a_node15"><a xlink:href="../../de/def/_hash_table_8h.html" target="_top" xlink:title="wlib/stl/HashTable.h">
<polygon fill="white" stroke="black" points="294,-112.5 294,-131.5 400,-131.5 400,-112.5 294,-112.5"/>
<text text-anchor="middle" x="347" y="-119.5" font-family="Helvetica,sans-Serif" font-size="10.00">wlib/stl/HashTable.h</text>
</a>
</g>
</g>
<!-- Node12&#45;&gt;Node15 -->
<g id="edge16" class="edge"><title>Node12&#45;&gt;Node15</title>
<path fill="none" stroke="midnightblue" d="M510.385,-165.829C471.49,-155.633 414.836,-140.782 379.489,-131.516"/>
<polygon fill="midnightblue" stroke="midnightblue" points="509.798,-169.293 520.359,-168.444 511.573,-162.522 509.798,-169.293"/>
</g>
<!-- Node16 -->
<g id="node16" class="node"><title>Node16</title>
<g id="a_node16"><a xlink:href="../../d5/d7a/_open_map_8h.html" target="_top" xlink:title="Hash map implementation. ">
<polygon fill="white" stroke="black" points="455.5,-56.5 455.5,-75.5 556.5,-75.5 556.5,-56.5 455.5,-56.5"/>
<text text-anchor="middle" x="506" y="-63.5" font-family="Helvetica,sans-Serif" font-size="10.00">wlib/stl/OpenMap.h</text>
</a>
</g>
</g>
<!-- Node12&#45;&gt;Node16 -->
<g id="edge19" class="edge"><title>Node12&#45;&gt;Node16</title>
<path fill="none" stroke="midnightblue" d="M545.308,-158.998C535.053,-134.997 517.309,-93.4683 509.671,-75.5914"/>
<polygon fill="midnightblue" stroke="midnightblue" points="542.164,-160.548 549.312,-168.368 548.601,-157.798 542.164,-160.548"/>
</g>
<!-- Node17 -->
<g id="node17" class="node"><title>Node17</title>
<g id="a_node17"><a xlink:href="../../d0/de6/_open_set_8h.html" target="_top" xlink:title="Hash set implementation. ">
<polygon fill="white" stroke="black" points="574.5,-56.5 574.5,-75.5 671.5,-75.5 671.5,-56.5 574.5,-56.5"/>
<text text-anchor="middle" x="623" y="-63.5" font-family="Helvetica,sans-Serif" font-size="10.00">wlib/stl/OpenSet.h</text>
</a>
</g>
</g>
<!-- Node12&#45;&gt;Node17 -->
<g id="edge20" class="edge"><title>Node12&#45;&gt;Node17</title>
<path fill="none" stroke="midnightblue" d="M603.598,-166.017C636.197,-157.798 674.25,-145.658 684,-132 699.825,-109.831 665.059,-87.422 641.784,-75.581"/>
<polygon fill="midnightblue" stroke="midnightblue" points="602.576,-162.663 593.694,-168.439 604.239,-169.463 602.576,-162.663"/>
</g>
<!-- Node18 -->
<g id="node18" class="node"><title>Node18</title>
<g id="a_node18"><a xlink:href="../../d8/d2e/_open_table_8h.html" target="_top" xlink:title="wlib/stl/OpenTable.h">
<polygon fill="white" stroke="black" points="570,-112.5 570,-131.5 676,-131.5 676,-112.5 570,-112.5"/>
<text text-anchor="middle" x="623" y="-119.5" font-family="Helvetica,sans-Serif" font-size="10.00">wlib/stl/OpenTable.h</text>
</a>
</g>
</g>
<!-- Node12&#45;&gt;Node18 -->
<g id="edge21" class="edge"><title>Node12&#45;&gt;Node18</title>
<path fill="none" stroke="midnightblue" d="M572.314,-162.101C584.912,-152.382 600.928,-140.027 611.549,-131.834"/>
<polygon fill="midnightblue" stroke="midnightblue" points="570.027,-159.445 564.247,-168.324 574.302,-164.987 570.027,-159.445"/>
</g>
<!-- Node15&#45;&gt;Node13 -->
<g id="edge17" class="edge"><title>Node15&#45;&gt;Node13</title>
<path fill="none" stroke="midnightblue" d="M322.426,-107.177C304.761,-97.2407 281.487,-84.1492 266.386,-75.6545"/>
<polygon fill="midnightblue" stroke="midnightblue" points="321.144,-110.472 331.576,-112.324 324.576,-104.371 321.144,-110.472"/>
</g>
<!-- Node15&#45;&gt;Node14 -->
<g id="edge18" class="edge"><title>Node15&#45;&gt;Node14</title>
<path fill="none" stroke="midnightblue" d="M354.121,-102.69C357.66,-93.589 361.772,-83.0141 364.597,-75.7511"/>
<polygon fill="midnightblue" stroke="midnightblue" points="350.83,-101.494 350.468,-112.083 357.354,-104.032 350.83,-101.494"/>
</g>
<!-- Node18&#45;&gt;Node16 -->
<g id="edge22" class="edge"><title>Node18&#45;&gt;Node16</title>
<path fill="none" stroke="midnightblue" d="M595.336,-108.232C573.451,-98.1312 543.503,-84.3091 524.452,-75.5164"/>
<polygon fill="midnightblue" stroke="midnightblue" points="593.915,-111.431 604.461,-112.444 596.848,-105.075 593.915,-111.431"/>
</g>
<!-- Node18&#45;&gt;Node17 -->
<g id="edge23" class="edge"><title>Node18&#45;&gt;Node17</title>
<path fill="none" stroke="midnightblue" d="M623,-101.805C623,-92.9102 623,-82.7798 623,-75.7511"/>
<polygon fill="midnightblue" stroke="midnightblue" points="619.5,-102.083 623,-112.083 626.5,-102.083 619.5,-102.083"/>
</g>
<!-- Node19&#45;&gt;Node13 -->
<g id="edge25" class="edge"><title>Node19&#45;&gt;Node13</title>
<path fill="none" stroke="midnightblue" d="M400.277,-175.818C362.037,-172.326 310.924,-161.813 277,-132 260.019,-117.077 253.988,-89.5258 251.96,-75.5747"/>
<polygon fill="midnightblue" stroke="midnightblue" points="400.456,-179.342 410.697,-176.626 400.998,-172.363 400.456,-179.342"/>
</g>
<!-- Node19&#45;&gt;Node14 -->
<g id="edge26" class="edge"><title>Node19&#45;&gt;Node14</title>
<path fill="none" stroke="midnightblue" d="M400.686,-170.066C356.99,-162.986 299.105,-150.409 285,-132 265.965,-107.157 309.393,-86.5006 340.33,-75.5226"/>
<polygon fill="midnightblue" stroke="midnightblue" points="400.19,-173.531 410.612,-171.621 401.274,-166.616 400.19,-173.531"/>
</g>
<!-- Node19&#45;&gt;Node15 -->
<g id="edge27" class="edge"><title>Node19&#45;&gt;Node15</title>
<path fill="none" stroke="midnightblue" d="M426.19,-163.726C406.747,-153.727 380.652,-140.307 363.828,-131.655"/>
<polygon fill="midnightblue" stroke="midnightblue" points="424.636,-166.863 435.13,-168.324 427.838,-160.638 424.636,-166.863"/>
</g>
<!-- Node19&#45;&gt;Node16 -->
<g id="edge28" class="edge"><title>Node19&#45;&gt;Node16</title>
<path fill="none" stroke="midnightblue" d="M460.679,-159.32C472.437,-135.37 492.967,-93.5484 501.782,-75.5914"/>
<polygon fill="midnightblue" stroke="midnightblue" points="457.502,-157.849 456.237,-168.368 463.786,-160.934 457.502,-157.849"/>
</g>
<!-- Node19&#45;&gt;Node17 -->
<g id="edge29" class="edge"><title>Node19&#45;&gt;Node17</title>
<path fill="none" stroke="midnightblue" d="M474.208,-162.714C510.242,-139.535 580.358,-94.4303 609.644,-75.5914"/>
<polygon fill="midnightblue" stroke="midnightblue" points="471.935,-160.015 465.418,-168.368 475.722,-165.902 471.935,-160.015"/>
</g>
<!-- Node19&#45;&gt;Node18 -->
<g id="edge30" class="edge"><title>Node19&#45;&gt;Node18</title>
<path fill="none" stroke="midnightblue" d="M489.036,-165.304C521.257,-155.129 567.189,-140.625 596.031,-131.516"/>
<polygon fill="midnightblue" stroke="midnightblue" points="487.577,-162.095 479.095,-168.444 489.685,-168.77 487.577,-162.095"/>
</g>
</g>
</svg>
        <g id="navigator" transform="translate(0 0)" fill="#404254">
                <rect fill="#f2f5e9" fill-opacity="0.5" stroke="#606060" stroke-width=".5" x="0" y="0" width="60" height="60"/>
                <use id="zoomplus" xlink:href="#zoomPlus" x="17" y="9" onmousedown="handleZoom(evt,'in')"/>
                <use id="zoomminus" xlink:href="#zoomMin" x="42" y="9" onmousedown="handleZoom(evt,'out')"/>
                <use id="reset" xlink:href="#resetDef" x="30" y="36" onmousedown="handleReset()"/>
                <g id="arrowUp" xlink:href="#dirArrow" transform="translate(30 24)" onmousedown="handlePan(0,-1)">
                  <use xlink:href="#rim" fill="#404040">
                        <set attributeName="fill" to="#808080" begin="arrowUp.mouseover" end="arrowUp.mouseout"/>
                  </use>
                  <path fill="none" stroke="white" stroke-width="1.5" d="M0,-3.0v7 M-2.5,-0.5L0,-3.0L2.5,-0.5"/>
                </g>
                <g id="arrowRight" xlink:href="#dirArrow" transform="rotate(90) translate(36 -43)" onmousedown="handlePan(1,0)">
                  <use xlink:href="#rim" fill="#404040">
                        <set attributeName="fill" to="#808080" begin="arrowRight.mouseover" end="arrowRight.mouseout"/>
                  </use>
                  <path fill="none" stroke="white" stroke-width="1.5" d="M0,-3.0v7 M-2.5,-0.5L0,-3.0L2.5,-0.5"/>
                </g>
                <g id="arrowDown" xlink:href="#dirArrow" transform="rotate(180) translate(-30 -48)" onmousedown="handlePan(0,1)">
                  <use xlink:href="#rim" fill="#404040">
                        <set attributeName="fill" to="#808080" begin="arrowDown.mouseover" end="arrowDown.mouseout"/>
                  </use>
                  <path fill="none" stroke="white" stroke-width="1.5" d="M0,-3.0v7 M-2.5,-0.5L0,-3.0L2.5,-0.5"/>
                </g>
                <g id="arrowLeft" xlink:href="#dirArrow" transform="rotate(270) translate(-36 17)" onmousedown="handlePan(-1,0)">
                  <use xlink:href="#rim" fill="#404040">
                        <set attributeName="fill" to="#808080" begin="arrowLeft.mouseover" end="arrowLeft.mouseout"/>
                  </use>
                  <path fill="none" stroke="white" stroke-width="1.5" d="M0,-3.0v7 M-2.5,-0.5L0,-3.0L2.5,-0.5"/>
                </g>
        </g>
        <svg viewBox="0 0 15 15" width="100%" height="30px" preserveAspectRatio="xMaxYMin meet">
         <g id="arrow_out" transform="scale(0.3 0.3)">
          <a xlink:href="_concept_8h__dep__incl_org.svg" target="_base">
           <rect id="button" ry="5" rx="5" y="6" x="6" height="38" width="38"
                fill="#f2f5e9" fill-opacity="0.5" stroke="#606060" stroke-width="1.0"/>
           <path id="arrow"
             d="M 11.500037,31.436501 C 11.940474,20.09759 22.043105,11.32322 32.158766,21.979434 L 37.068811,17.246167 C 37.068811,17.246167 37.088388,32 37.088388,32 L 22.160133,31.978069 C 22.160133,31.978069 26.997745,27.140456 26.997745,27.140456 C 18.528582,18.264221 13.291696,25.230495 11.500037,31.436501 z"
             style="fill:#404040;"/>
          </a>
         </g>
        </svg>
</svg>
