<?xml version="1.0" encoding="UTF-8" standalone="no"?>
<!DOCTYPE svg PUBLIC "-//W3C//DTD SVG 1.1//EN"
 "http://www.w3.org/Graphics/SVG/1.1/DTD/svg11.dtd">
<!-- Generated by graphviz version 2.36.0 (20140111.2315)
 -->
<!-- Title: wlib/stl/Concept.h Pages: 1 -->
<svg width="746pt" height="364pt"
 viewBox="0.00 0.00 746.00 364.00" xmlns="http://www.w3.org/2000/svg" xmlns:xlink="http://www.w3.org/1999/xlink">
<g id="graph0" class="graph" transform="scale(1 1) rotate(0) translate(4 360)">
<title>wlib/stl/Concept.h</title>
<polygon fill="white" stroke="none" points="-4,4 -4,-360 742,-360 742,4 -4,4"/>
<!-- Node1 -->
<g id="node1" class="node"><title>Node1</title>
<polygon fill="#bfbfbf" stroke="black" points="90.5,-336.5 90.5,-355.5 185.5,-355.5 185.5,-336.5 90.5,-336.5"/>
<text text-anchor="middle" x="138" y="-343.5" font-family="Helvetica,sans-Serif" font-size="10.00">wlib/stl/Concept.h</text>
</g>
<!-- Node2 -->
<g id="node2" class="node"><title>Node2</title>
<g id="a_node2"><a xlink:href="../../df/d03/_array_heap_8h.html" target="_top" xlink:title="Heap manipulation and implementation. ">
<polygon fill="white" stroke="black" points="-0.5,-56.5 -0.5,-75.5 104.5,-75.5 104.5,-56.5 -0.5,-56.5"/>
<text text-anchor="middle" x="52" y="-63.5" font-family="Helvetica,sans-Serif" font-size="10.00">wlib/stl/ArrayHeap.h</text>
</a>
</g>
</g>
<!-- Node1&#45;&gt;Node2 -->
<g id="edge1" class="edge"><title>Node1&#45;&gt;Node2</title>
<path fill="none" stroke="midnightblue" d="M117.398,-330.027C93.6946,-310.894 58,-275.379 58,-235 58,-235 58,-235 58,-177 58,-139.131 54.4108,-94.0381 52.7844,-75.5491"/>
<polygon fill="midnightblue" stroke="midnightblue" points="115.454,-332.948 125.5,-336.313 119.745,-327.418 115.454,-332.948"/>
</g>
<!-- Node3 -->
<g id="node3" class="node"><title>Node3</title>
<g id="a_node3"><a xlink:href="../../de/d0b/_string_iterator_8h.html" target="_top" xlink:title="wlib/strings/StringIterator.h">
<polygon fill="white" stroke="black" points="151,-280.5 151,-299.5 285,-299.5 285,-280.5 151,-280.5"/>
<text text-anchor="middle" x="218" y="-287.5" font-family="Helvetica,sans-Serif" font-size="10.00">wlib/strings/StringIterator.h</text>
</a>
</g>
</g>
<!-- Node1&#45;&gt;Node3 -->
<g id="edge2" class="edge"><title>Node1&#45;&gt;Node3</title>
<path fill="none" stroke="midnightblue" d="M159.301,-330.622C173.915,-320.757 192.827,-307.992 205.179,-299.655"/>
<polygon fill="midnightblue" stroke="midnightblue" points="157.184,-327.828 150.853,-336.324 161.1,-333.63 157.184,-327.828"/>
</g>
<!-- Node4 -->
<g id="node4" class="node"><title>Node4</title>
<g id="a_node4"><a xlink:href="../../db/db5/_string_8h.html" target="_top" xlink:title="wlib/strings/String.h">
<polygon fill="white" stroke="black" points="283.5,-224.5 283.5,-243.5 386.5,-243.5 386.5,-224.5 283.5,-224.5"/>
<text text-anchor="middle" x="335" y="-231.5" font-family="Helvetica,sans-Serif" font-size="10.00">wlib/strings/String.h</text>
</a>
</g>
</g>
<!-- Node3&#45;&gt;Node4 -->
<g id="edge3" class="edge"><title>Node3&#45;&gt;Node4</title>
<path fill="none" stroke="midnightblue" d="M245.664,-276.232C267.549,-266.131 297.497,-252.309 316.548,-243.516"/>
<polygon fill="midnightblue" stroke="midnightblue" points="244.152,-273.075 236.539,-280.444 247.085,-279.431 244.152,-273.075"/>
</g>
<!-- Node5 -->
<g id="node5" class="node"><title>Node5</title>
<g id="a_node5"><a xlink:href="../../de/d6d/_bitset_8h.html" target="_top" xlink:title="Bitset is a class that provides bits manipulation methods. ">
<polygon fill="white" stroke="black" points="559,-168.5 559,-187.5 643,-187.5 643,-168.5 559,-168.5"/>
<text text-anchor="middle" x="601" y="-175.5" font-family="Helvetica,sans-Serif" font-size="10.00">wlib/stl/Bitset.h</text>
</a>
</g>
</g>
<!-- Node4&#45;&gt;Node5 -->
<g id="edge4" class="edge"><title>Node4&#45;&gt;Node5</title>
<path fill="none" stroke="midnightblue" d="M387.168,-222.41C437.439,-212.204 512.532,-196.96 559.049,-187.516"/>
<polygon fill="midnightblue" stroke="midnightblue" points="386.252,-219.024 377.148,-224.444 387.645,-225.884 386.252,-219.024"/>
</g>
<!-- Node6 -->
<g id="node6" class="node"><title>Node6</title>
<g id="a_node6"><a xlink:href="../../d7/d0c/_comparator_8h.html" target="_top" xlink:title="Comparator implementation for basic types. ">
<polygon fill="white" stroke="black" points="93,-112.5 93,-131.5 203,-131.5 203,-112.5 93,-112.5"/>
<text text-anchor="middle" x="148" y="-119.5" font-family="Helvetica,sans-Serif" font-size="10.00">wlib/stl/Comparator.h</text>
</a>
</g>
</g>
<!-- Node4&#45;&gt;Node6 -->
<g id="edge5" class="edge"><title>Node4&#45;&gt;Node6</title>
<path fill="none" stroke="midnightblue" d="M288.804,-221.665C264.429,-214.382 234.739,-203.37 211,-188 186.727,-172.285 164.8,-145.581 154.387,-131.803"/>
<polygon fill="midnightblue" stroke="midnightblue" points="287.97,-225.067 298.547,-224.464 289.903,-218.339 287.97,-225.067"/>
</g>
<!-- Node10 -->
<g id="node10" class="node"><title>Node10</title>
<g id="a_node10"><a xlink:href="../../d2/dc2/_equal_8h.html" target="_top" xlink:title="wlib/stl/Equal.h">
<polygon fill="white" stroke="black" points="351.5,-168.5 351.5,-187.5 434.5,-187.5 434.5,-168.5 351.5,-168.5"/>
<text text-anchor="middle" x="393" y="-175.5" font-family="Helvetica,sans-Serif" font-size="10.00">wlib/stl/Equal.h</text>
</a>
</g>
</g>
<!-- Node4&#45;&gt;Node10 -->
<g id="edge10" class="edge"><title>Node4&#45;&gt;Node10</title>
<path fill="none" stroke="midnightblue" d="M351.913,-217.253C362.203,-207.673 374.966,-195.791 383.512,-187.834"/>
<polygon fill="midnightblue" stroke="midnightblue" points="349.253,-214.948 344.319,-224.324 354.023,-220.071 349.253,-214.948"/>
</g>
<!-- Node17 -->
<g id="node17" class="node"><title>Node17</title>
<g id="a_node17"><a xlink:href="../../d2/dad/_hash_8h.html" target="_top" xlink:title="wlib/stl/Hash.h">
<polygon fill="white" stroke="black" points="459,-168.5 459,-187.5 541,-187.5 541,-168.5 459,-168.5"/>
<text text-anchor="middle" x="500" y="-175.5" font-family="Helvetica,sans-Serif" font-size="10.00">wlib/stl/Hash.h</text>
</a>
</g>
</g>
<!-- Node4&#45;&gt;Node17 -->
<g id="edge22" class="edge"><title>Node4&#45;&gt;Node17</title>
<path fill="none" stroke="midnightblue" d="M370.736,-221.304C401.827,-211.129 446.147,-196.625 473.978,-187.516"/>
<polygon fill="midnightblue" stroke="midnightblue" points="369.56,-218.007 361.145,-224.444 371.737,-224.659 369.56,-218.007"/>
</g>
<!-- Node18 -->
<g id="node18" class="node"><title>Node18</title>
<g id="a_node18"><a xlink:href="../../d9/dae/_string_8cpp.html" target="_top" xlink:title="wlib/strings/String.cpp">
<polygon fill="white" stroke="black" points="220.5,-168.5 220.5,-187.5 333.5,-187.5 333.5,-168.5 220.5,-168.5"/>
<text text-anchor="middle" x="277" y="-175.5" font-family="Helvetica,sans-Serif" font-size="10.00">wlib/strings/String.cpp</text>
</a>
</g>
</g>
<!-- Node4&#45;&gt;Node18 -->
<g id="edge29" class="edge"><title>Node4&#45;&gt;Node18</title>
<path fill="none" stroke="midnightblue" d="M318.087,-217.253C307.797,-207.673 295.034,-195.791 286.488,-187.834"/>
<polygon fill="midnightblue" stroke="midnightblue" points="315.977,-220.071 325.681,-224.324 320.747,-214.948 315.977,-220.071"/>
</g>
<!-- Node6&#45;&gt;Node2 -->
<g id="edge6" class="edge"><title>Node6&#45;&gt;Node2</title>
<path fill="none" stroke="midnightblue" d="M123.426,-107.177C105.761,-97.2407 82.4875,-84.1492 67.3858,-75.6545"/>
<polygon fill="midnightblue" stroke="midnightblue" points="122.144,-110.472 132.576,-112.324 125.576,-104.371 122.144,-110.472"/>
</g>
<!-- Node7 -->
<g id="node7" class="node"><title>Node7</title>
<g id="a_node7"><a xlink:href="../../d5/d08/_red_black_tree_8h.html" target="_top" xlink:title="Red black tree implementation. ">
<polygon fill="white" stroke="black" points="122.5,-56.5 122.5,-75.5 243.5,-75.5 243.5,-56.5 122.5,-56.5"/>
<text text-anchor="middle" x="183" y="-63.5" font-family="Helvetica,sans-Serif" font-size="10.00">wlib/stl/RedBlackTree.h</text>
</a>
</g>
</g>
<!-- Node6&#45;&gt;Node7 -->
<g id="edge7" class="edge"><title>Node6&#45;&gt;Node7</title>
<path fill="none" stroke="midnightblue" d="M159.3,-103.566C165.322,-94.2747 172.469,-83.2484 177.328,-75.7511"/>
<polygon fill="midnightblue" stroke="midnightblue" points="156.281,-101.788 153.78,-112.083 162.156,-105.595 156.281,-101.788"/>
</g>
<!-- Node8 -->
<g id="node8" class="node"><title>Node8</title>
<g id="a_node8"><a xlink:href="../../df/d87/_tree_map_8h.html" target="_top" xlink:title="Map implementation using red black tree. ">
<polygon fill="white" stroke="black" points="77.5,-0.5 77.5,-19.5 174.5,-19.5 174.5,-0.5 77.5,-0.5"/>
<text text-anchor="middle" x="126" y="-7.5" font-family="Helvetica,sans-Serif" font-size="10.00">wlib/stl/TreeMap.h</text>
</a>
</g>
</g>
<!-- Node7&#45;&gt;Node8 -->
<g id="edge8" class="edge"><title>Node7&#45;&gt;Node8</title>
<path fill="none" stroke="midnightblue" d="M166.379,-49.2533C156.266,-39.6731 143.723,-27.7906 135.325,-19.8339"/>
<polygon fill="midnightblue" stroke="midnightblue" points="164.175,-51.9873 173.842,-56.324 168.99,-46.9056 164.175,-51.9873"/>
</g>
<!-- Node9 -->
<g id="node9" class="node"><title>Node9</title>
<g id="a_node9"><a xlink:href="../../dd/dba/_tree_set_8h.html" target="_top" xlink:title="Set implementation using red black tree. ">
<polygon fill="white" stroke="black" points="192.5,-0.5 192.5,-19.5 285.5,-19.5 285.5,-0.5 192.5,-0.5"/>
<text text-anchor="middle" x="239" y="-7.5" font-family="Helvetica,sans-Serif" font-size="10.00">wlib/stl/TreeSet.h</text>
</a>
</g>
</g>
<!-- Node7&#45;&gt;Node9 -->
<g id="edge9" class="edge"><title>Node7&#45;&gt;Node9</title>
<path fill="none" stroke="midnightblue" d="M199.33,-49.2533C209.265,-39.6731 221.588,-27.7906 229.839,-19.8339"/>
<polygon fill="midnightblue" stroke="midnightblue" points="196.766,-46.8631 191.997,-56.324 201.625,-51.902 196.766,-46.8631"/>
</g>
<!-- Node10&#45;&gt;Node6 -->
<g id="edge11" class="edge"><title>Node10&#45;&gt;Node6</title>
<path fill="none" stroke="midnightblue" d="M344.37,-166.281C298.071,-156.077 229.305,-140.92 186.639,-131.516"/>
<polygon fill="midnightblue" stroke="midnightblue" points="343.66,-169.709 354.179,-168.444 345.167,-162.873 343.66,-169.709"/>
</g>
<!-- Node11 -->
<g id="node11" class="node"><title>Node11</title>
<g id="a_node11"><a xlink:href="../../dd/d0b/_hash_map_8h.html" target="_top" xlink:title="wlib/stl/HashMap.h">
<polygon fill="white" stroke="black" points="261.5,-56.5 261.5,-75.5 362.5,-75.5 362.5,-56.5 261.5,-56.5"/>
<text text-anchor="middle" x="312" y="-63.5" font-family="Helvetica,sans-Serif" font-size="10.00">wlib/stl/HashMap.h</text>
</a>
</g>
</g>
<!-- Node10&#45;&gt;Node11 -->
<g id="edge12" class="edge"><title>Node10&#45;&gt;Node11</title>
<path fill="none" stroke="midnightblue" d="M341.175,-167.367C304.924,-159.453 261.082,-147.105 250,-132 233.764,-109.87 269.157,-87.446 292.863,-75.5922"/>
<polygon fill="midnightblue" stroke="midnightblue" points="340.657,-170.835 351.165,-169.48 342.106,-163.986 340.657,-170.835"/>
</g>
<!-- Node12 -->
<g id="node12" class="node"><title>Node12</title>
<g id="a_node12"><a xlink:href="../../d2/dfc/_hash_set_8h.html" target="_top" xlink:title="wlib/stl/HashSet.h">
<polygon fill="white" stroke="black" points="380.5,-56.5 380.5,-75.5 477.5,-75.5 477.5,-56.5 380.5,-56.5"/>
<text text-anchor="middle" x="429" y="-63.5" font-family="Helvetica,sans-Serif" font-size="10.00">wlib/stl/HashSet.h</text>
</a>
</g>
</g>
<!-- Node10&#45;&gt;Node12 -->
<g id="edge13" class="edge"><title>Node10&#45;&gt;Node12</title>
<path fill="none" stroke="midnightblue" d="M398.998,-158.674C406.868,-134.625 420.364,-93.3881 426.188,-75.5914"/>
<polygon fill="midnightblue" stroke="midnightblue" points="395.609,-157.776 395.825,-168.368 402.262,-159.953 395.609,-157.776"/>
</g>
<!-- Node13 -->
<g id="node13" class="node"><title>Node13</title>
<g id="a_node13"><a xlink:href="../../de/def/_hash_table_8h.html" target="_top" xlink:title="wlib/stl/HashTable.h">
<polygon fill="white" stroke="black" points="259,-112.5 259,-131.5 365,-131.5 365,-112.5 259,-112.5"/>
<text text-anchor="middle" x="312" y="-119.5" font-family="Helvetica,sans-Serif" font-size="10.00">wlib/stl/HashTable.h</text>
</a>
</g>
</g>
<!-- Node10&#45;&gt;Node13 -->
<g id="edge14" class="edge"><title>Node10&#45;&gt;Node13</title>
<path fill="none" stroke="midnightblue" d="M371.433,-162.622C356.636,-152.757 337.488,-139.992 324.982,-131.655"/>
<polygon fill="midnightblue" stroke="midnightblue" points="369.724,-165.689 379.986,-168.324 373.607,-159.865 369.724,-165.689"/>
</g>
<!-- Node14 -->
<g id="node14" class="node"><title>Node14</title>
<g id="a_node14"><a xlink:href="../../d5/d7a/_open_map_8h.html" target="_top" xlink:title="Hash map implementation. ">
<polygon fill="white" stroke="black" points="636.5,-56.5 636.5,-75.5 737.5,-75.5 737.5,-56.5 636.5,-56.5"/>
<text text-anchor="middle" x="687" y="-63.5" font-family="Helvetica,sans-Serif" font-size="10.00">wlib/stl/OpenMap.h</text>
</a>
</g>
</g>
<!-- Node10&#45;&gt;Node14 -->
<g id="edge17" class="edge"><title>Node10&#45;&gt;Node14</title>
<path fill="none" stroke="midnightblue" d="M444.689,-168.472C518.257,-156.257 644.804,-134.919 649,-132 668.958,-118.114 679.974,-90.093 684.507,-75.8073"/>
<polygon fill="midnightblue" stroke="midnightblue" points="443.971,-165.044 434.678,-170.133 445.116,-171.949 443.971,-165.044"/>
</g>
<!-- Node15 -->
<g id="node15" class="node"><title>Node15</title>
<g id="a_node15"><a xlink:href="../../d0/de6/_open_set_8h.html" target="_top" xlink:title="Hash set implementation. ">
<polygon fill="white" stroke="black" points="521.5,-56.5 521.5,-75.5 618.5,-75.5 618.5,-56.5 521.5,-56.5"/>
<text text-anchor="middle" x="570" y="-63.5" font-family="Helvetica,sans-Serif" font-size="10.00">wlib/stl/OpenSet.h</text>
</a>
</g>
</g>
<!-- Node10&#45;&gt;Node15 -->
<g id="edge18" class="edge"><title>Node10&#45;&gt;Node15</title>
<path fill="none" stroke="midnightblue" d="M415.513,-163.009C452.667,-139.919 525.733,-94.5104 556.176,-75.5914"/>
<polygon fill="midnightblue" stroke="midnightblue" points="413.535,-160.117 406.889,-168.368 417.23,-166.063 413.535,-160.117"/>
</g>
<!-- Node16 -->
<g id="node16" class="node"><title>Node16</title>
<g id="a_node16"><a xlink:href="../../d8/d2e/_open_table_8h.html" target="_top" xlink:title="wlib/stl/OpenTable.h">
<polygon fill="white" stroke="black" points="535,-112.5 535,-131.5 641,-131.5 641,-112.5 535,-112.5"/>
<text text-anchor="middle" x="588" y="-119.5" font-family="Helvetica,sans-Serif" font-size="10.00">wlib/stl/OpenTable.h</text>
</a>
</g>
</g>
<!-- Node10&#45;&gt;Node16 -->
<g id="edge19" class="edge"><title>Node10&#45;&gt;Node16</title>
<path fill="none" stroke="midnightblue" d="M433.81,-165.699C470.613,-155.507 523.929,-140.743 557.246,-131.516"/>
<polygon fill="midnightblue" stroke="midnightblue" points="432.602,-162.402 423.898,-168.444 434.47,-169.148 432.602,-162.402"/>
</g>
<!-- Node13&#45;&gt;Node11 -->
<g id="edge15" class="edge"><title>Node13&#45;&gt;Node11</title>
<path fill="none" stroke="midnightblue" d="M312,-101.805C312,-92.9102 312,-82.7798 312,-75.7511"/>
<polygon fill="midnightblue" stroke="midnightblue" points="308.5,-102.083 312,-112.083 315.5,-102.083 308.5,-102.083"/>
</g>
<!-- Node13&#45;&gt;Node12 -->
<g id="edge16" class="edge"><title>Node13&#45;&gt;Node12</title>
<path fill="none" stroke="midnightblue" d="M339.664,-108.232C361.549,-98.1312 391.497,-84.3091 410.548,-75.5164"/>
<polygon fill="midnightblue" stroke="midnightblue" points="338.152,-105.075 330.539,-112.444 341.085,-111.431 338.152,-105.075"/>
</g>
<!-- Node16&#45;&gt;Node14 -->
<g id="edge20" class="edge"><title>Node16&#45;&gt;Node14</title>
<path fill="none" stroke="midnightblue" d="M612.837,-107.453C631.114,-97.4835 655.416,-84.2279 671.133,-75.6545"/>
<polygon fill="midnightblue" stroke="midnightblue" points="611.009,-104.463 603.906,-112.324 614.361,-110.608 611.009,-104.463"/>
</g>
<!-- Node16&#45;&gt;Node15 -->
<g id="edge21" class="edge"><title>Node16&#45;&gt;Node15</title>
<path fill="none" stroke="midnightblue" d="M581.799,-102.396C578.787,-93.362 575.312,-82.936 572.917,-75.7511"/>
<polygon fill="midnightblue" stroke="midnightblue" points="578.545,-103.703 585.028,-112.083 585.186,-101.489 578.545,-103.703"/>
</g>
<!-- Node17&#45;&gt;Node11 -->
<g id="edge23" class="edge"><title>Node17&#45;&gt;Node11</title>
<path fill="none" stroke="midnightblue" d="M476.587,-163.301C437.284,-140.304 359.155,-94.5906 326.684,-75.5914"/>
<polygon fill="midnightblue" stroke="midnightblue" points="474.849,-166.339 485.248,-168.368 478.384,-160.297 474.849,-166.339"/>
</g>
<!-- Node17&#45;&gt;Node12 -->
<g id="edge24" class="edge"><title>Node17&#45;&gt;Node12</title>
<path fill="none" stroke="midnightblue" d="M489,-159.957C473.613,-136.118 446.239,-93.7088 434.545,-75.5914"/>
<polygon fill="midnightblue" stroke="midnightblue" points="486.065,-161.865 494.429,-168.368 491.946,-158.069 486.065,-161.865"/>
</g>
<!-- Node17&#45;&gt;Node13 -->
<g id="edge25" class="edge"><title>Node17&#45;&gt;Node13</title>
<path fill="none" stroke="midnightblue" d="M460.199,-165.568C424.734,-155.381 373.634,-140.703 341.65,-131.516"/>
<polygon fill="midnightblue" stroke="midnightblue" points="459.633,-169.047 470.211,-168.444 461.566,-162.319 459.633,-169.047"/>
</g>
<!-- Node17&#45;&gt;Node14 -->
<g id="edge26" class="edge"><title>Node17&#45;&gt;Node14</title>
<path fill="none" stroke="midnightblue" d="M549.069,-166.195C594.848,-155.716 657.367,-140.23 666,-132 681.965,-116.78 685.817,-89.3634 686.729,-75.508"/>
<polygon fill="midnightblue" stroke="midnightblue" points="548.266,-162.788 539.29,-168.416 549.816,-169.614 548.266,-162.788"/>
</g>
<!-- Node17&#45;&gt;Node15 -->
<g id="edge27" class="edge"><title>Node17&#45;&gt;Node15</title>
<path fill="none" stroke="midnightblue" d="M546.01,-166.028C587.389,-155.697 642.637,-140.568 649,-132 667.16,-107.545 625.534,-86.6844 596.075,-75.5773"/>
<polygon fill="midnightblue" stroke="midnightblue" points="544.962,-162.682 536.093,-168.479 546.641,-169.477 544.962,-162.682"/>
</g>
<!-- Node17&#45;&gt;Node16 -->
<g id="edge28" class="edge"><title>Node17&#45;&gt;Node16</title>
<path fill="none" stroke="midnightblue" d="M522.977,-162.901C539.113,-152.999 560.181,-140.071 573.896,-131.655"/>
<polygon fill="midnightblue" stroke="midnightblue" points="520.831,-160.111 514.139,-168.324 524.493,-166.077 520.831,-160.111"/>
</g>
</g>
</svg>
