<?xml version="1.0" encoding="UTF-8" standalone="no"?>
<!DOCTYPE svg PUBLIC "-//W3C//DTD SVG 1.1//EN"
 "http://www.w3.org/Graphics/SVG/1.1/DTD/svg11.dtd">
<!-- Generated by graphviz version 2.38.0 (20140413.2041)
 -->
<!-- Title: wlp::__is_integral_helper&lt; unsigned long long &gt; Pages: 1 -->
<svg width="125pt" height="106pt"
 viewBox="0.00 0.00 125.00 106.00" xmlns="http://www.w3.org/2000/svg" xmlns:xlink="http://www.w3.org/1999/xlink">
<g id="graph0" class="graph" transform="scale(1 1) rotate(0) translate(4 102)">
<title>wlp::__is_integral_helper&lt; unsigned long long &gt;</title>
<polygon fill="white" stroke="none" points="-4,4 -4,-102 121,-102 121,4 -4,4"/>
<!-- Node0 -->
<g id="node1" class="node"><title>Node0</title>
<polygon fill="#bfbfbf" stroke="black" points="0,-0.5 0,-41.5 117,-41.5 117,-0.5 0,-0.5"/>
<text text-anchor="start" x="8" y="-29.5" font-family="Helvetica,sans-Serif" font-size="10.00">wlp::__is_integral</text>
<text text-anchor="start" x="8" y="-18.5" font-family="Helvetica,sans-Serif" font-size="10.00">_helper&lt; unsigned long</text>
<text text-anchor="middle" x="58.5" y="-7.5" font-family="Helvetica,sans-Serif" font-size="10.00"> long &gt;</text>
</g>
<!-- Node1 -->
<g id="node2" class="node"><title>Node1</title>
<g id="a_node2"><a xlink:href="../../d3/d8d/structwlp_1_1integral__constant.html" target="_top" xlink:title="true_type">
<polygon fill="white" stroke="black" points="30,-78.5 30,-97.5 87,-97.5 87,-78.5 30,-78.5"/>
<text text-anchor="middle" x="58.5" y="-85.5" font-family="Helvetica,sans-Serif" font-size="10.00">true_type</text>
</a>
</g>
</g>
<!-- Node1&#45;&gt;Node0 -->
<g id="edge1" class="edge"><title>Node1&#45;&gt;Node0</title>
<path fill="none" stroke="midnightblue" d="M58.5,-68.037C58.5,-59.7084 58.5,-49.9358 58.5,-41.5421"/>
<polygon fill="midnightblue" stroke="midnightblue" points="55.0001,-68.2338 58.5,-78.2338 62.0001,-68.2338 55.0001,-68.2338"/>
</g>
</g>
</svg>
