<?xml version="1.0" encoding="UTF-8" standalone="no"?>
<!DOCTYPE svg PUBLIC "-//W3C//DTD SVG 1.1//EN"
 "http://www.w3.org/Graphics/SVG/1.1/DTD/svg11.dtd">
<!-- Generated by graphviz version 2.36.0 (20140111.2315)
 -->
<!-- Title: wlp::is_array&lt; T[]&gt; Pages: 1 -->
<svg width="106pt" height="154pt"
 viewBox="0.00 0.00 106.00 154.00" xmlns="http://www.w3.org/2000/svg" xmlns:xlink="http://www.w3.org/1999/xlink">
<g id="graph0" class="graph" transform="scale(1 1) rotate(0) translate(4 150)">
<title>wlp::is_array&lt; T[]&gt;</title>
<polygon fill="white" stroke="none" points="-4,4 -4,-150 102,-150 102,4 -4,4"/>
<!-- Node1 -->
<g id="node1" class="node"><title>Node1</title>
<polygon fill="#bfbfbf" stroke="black" points="-0.5,-0.5 -0.5,-19.5 98.5,-19.5 98.5,-0.5 -0.5,-0.5"/>
<text text-anchor="middle" x="49" y="-7.5" font-family="Helvetica,sans-Serif" font-size="10.00">wlp::is_array&lt; T[]&gt;</text>
</g>
<!-- Node2 -->
<g id="node2" class="node"><title>Node2</title>
<g id="a_node2"><a xlink:href="../../d3/d8d/structwlp_1_1integral__constant.html" target="_top" xlink:title="true_type">
<polygon fill="white" stroke="black" points="20.5,-58.5 20.5,-77.5 77.5,-77.5 77.5,-58.5 20.5,-58.5"/>
<text text-anchor="middle" x="49" y="-65.5" font-family="Helvetica,sans-Serif" font-size="10.00">true_type</text>
</a>
</g>
</g>
<!-- Node2&#45;&gt;Node1 -->
<g id="edge1" class="edge"><title>Node2&#45;&gt;Node1</title>
<path fill="none" stroke="midnightblue" d="M49,-47.953C49,-38.2875 49,-27.0312 49,-19.5052"/>
<polygon fill="midnightblue" stroke="midnightblue" points="45.5001,-48.25 49,-58.25 52.5001,-48.25 45.5001,-48.25"/>
</g>
<!-- Node3 -->
<g id="node3" class="node"><title>Node3</title>
<polygon fill="white" stroke="#bfbfbf" points="34.5,-126.5 34.5,-145.5 63.5,-145.5 63.5,-126.5 34.5,-126.5"/>
<text text-anchor="middle" x="49" y="-133.5" font-family="Helvetica,sans-Serif" font-size="10.00">T</text>
</g>
<!-- Node3&#45;&gt;Node2 -->
<g id="edge2" class="edge"><title>Node3&#45;&gt;Node2</title>
<path fill="none" stroke="#9a32cd" stroke-dasharray="5,2" d="M49,-116.041C49,-103.472 49,-87.5631 49,-77.8411"/>
<polygon fill="#9a32cd" stroke="#9a32cd" points="45.5001,-116.372 49,-126.372 52.5001,-116.372 45.5001,-116.372"/>
<text text-anchor="middle" x="62.5" y="-99.5" font-family="Helvetica,sans-Serif" font-size="10.00"> value</text>
</g>
</g>
</svg>
