<?xml version="1.0" encoding="UTF-8" standalone="no"?>
<!DOCTYPE svg PUBLIC "-//W3C//DTD SVG 1.1//EN"
 "http://www.w3.org/Graphics/SVG/1.1/DTD/svg11.dtd">
<!-- Generated by graphviz version 2.38.0 (20140413.2041)
 -->
<!-- Title: wlp::is_same&lt; T, T &gt; Pages: 1 -->
<svg width="116pt" height="152pt"
 viewBox="0.00 0.00 116.00 152.00" xmlns="http://www.w3.org/2000/svg" xmlns:xlink="http://www.w3.org/1999/xlink">
<g id="graph0" class="graph" transform="scale(1 1) rotate(0) translate(4 148)">
<title>wlp::is_same&lt; T, T &gt;</title>
<polygon fill="white" stroke="none" points="-4,4 -4,-148 112,-148 112,4 -4,4"/>
<!-- Node2 -->
<g id="node1" class="node"><title>Node2</title>
<polygon fill="#bfbfbf" stroke="black" points="0,-0.5 0,-19.5 108,-19.5 108,-0.5 0,-0.5"/>
<text text-anchor="middle" x="54" y="-7.5" font-family="Helvetica,sans-Serif" font-size="10.00">wlp::is_same&lt; T, T &gt;</text>
</g>
<!-- Node3 -->
<g id="node2" class="node"><title>Node3</title>
<g id="a_node2"><a xlink:href="../../d3/d8d/structwlp_1_1integral__constant.html" target="_top" xlink:title="true_type">
<polygon fill="white" stroke="black" points="25.5,-57.5 25.5,-76.5 82.5,-76.5 82.5,-57.5 25.5,-57.5"/>
<text text-anchor="middle" x="54" y="-64.5" font-family="Helvetica,sans-Serif" font-size="10.00">true_type</text>
</a>
</g>
</g>
<!-- Node3&#45;&gt;Node2 -->
<g id="edge1" class="edge"><title>Node3&#45;&gt;Node2</title>
<path fill="none" stroke="midnightblue" d="M54,-47.1166C54,-37.8173 54,-27.0557 54,-19.7149"/>
<polygon fill="midnightblue" stroke="midnightblue" points="50.5001,-47.4062 54,-57.4063 57.5001,-47.4063 50.5001,-47.4062"/>
</g>
<!-- Node4 -->
<g id="node3" class="node"><title>Node4</title>
<polygon fill="white" stroke="#bfbfbf" points="39.5,-124.5 39.5,-143.5 68.5,-143.5 68.5,-124.5 39.5,-124.5"/>
<text text-anchor="middle" x="54" y="-131.5" font-family="Helvetica,sans-Serif" font-size="10.00">T</text>
</g>
<!-- Node4&#45;&gt;Node3 -->
<g id="edge2" class="edge"><title>Node4&#45;&gt;Node3</title>
<path fill="none" stroke="#9a32cd" stroke-dasharray="5,2" d="M54,-114.037C54,-101.67 54,-86.1198 54,-76.6273"/>
<polygon fill="#9a32cd" stroke="#9a32cd" points="50.5001,-114.234 54,-124.234 57.5001,-114.234 50.5001,-114.234"/>
<text text-anchor="middle" x="66.5" y="-98" font-family="Helvetica,sans-Serif" font-size="10.00"> value</text>
</g>
</g>
</svg>
