<?xml version="1.0" encoding="UTF-8" standalone="no"?>
<!DOCTYPE svg PUBLIC "-//W3C//DTD SVG 1.1//EN"
 "http://www.w3.org/Graphics/SVG/1.1/DTD/svg11.dtd">
<!-- Generated by graphviz version 2.36.0 (20140111.2315)
 -->
<!-- Title: BadWeakPtrException Pages: 1 -->
<svg width="185pt" height="164pt"
 viewBox="0.00 0.00 185.00 164.00" xmlns="http://www.w3.org/2000/svg" xmlns:xlink="http://www.w3.org/1999/xlink">
<g id="graph0" class="graph" transform="scale(1 1) rotate(0) translate(4 160)">
<title>BadWeakPtrException</title>
<polygon fill="white" stroke="none" points="-4,4 -4,-160 181,-160 181,4 -4,4"/>
<!-- Node1 -->
<g id="node1" class="node"><title>Node1</title>
<polygon fill="#bfbfbf" stroke="black" points="30,-0.5 30,-19.5 146,-19.5 146,-0.5 30,-0.5"/>
<text text-anchor="middle" x="88" y="-7.5" font-family="Helvetica,sans-Serif" font-size="10.00">BadWeakPtrException</text>
</g>
<!-- Node2 -->
<g id="node2" class="node"><title>Node2</title>
<g id="a_node2"><a xlink:href="../../df/d70/class_exception.html" target="_top" xlink:title="Exception">
<polygon fill="white" stroke="black" points="58,-58.5 58,-77.5 118,-77.5 118,-58.5 58,-58.5"/>
<text text-anchor="middle" x="88" y="-65.5" font-family="Helvetica,sans-Serif" font-size="10.00">Exception</text>
</a>
</g>
</g>
<!-- Node2&#45;&gt;Node1 -->
<g id="edge1" class="edge"><title>Node2&#45;&gt;Node1</title>
<path fill="none" stroke="midnightblue" d="M88,-47.953C88,-38.2875 88,-27.0312 88,-19.5052"/>
<polygon fill="midnightblue" stroke="midnightblue" points="84.5001,-48.25 88,-58.25 91.5001,-48.25 84.5001,-48.25"/>
</g>
<!-- Node3 -->
<g id="node3" class="node"><title>Node3</title>
<polygon fill="white" stroke="#bfbfbf" points="-0.5,-136.5 -0.5,-155.5 50.5,-155.5 50.5,-136.5 -0.5,-136.5"/>
<text text-anchor="middle" x="25" y="-143.5" font-family="Helvetica,sans-Serif" font-size="10.00">uint16_t</text>
</g>
<!-- Node3&#45;&gt;Node2 -->
<g id="edge2" class="edge"><title>Node3&#45;&gt;Node2</title>
<path fill="none" stroke="#9a32cd" stroke-dasharray="5,2" d="M29.1993,-126.167C32.1058,-116.364 36.7817,-104.655 44,-96 50.4294,-88.2913 59.6549,-82.1598 67.9994,-77.7009"/>
<polygon fill="#9a32cd" stroke="#9a32cd" points="25.7307,-125.602 26.6285,-136.159 32.5099,-127.346 25.7307,-125.602"/>
<text text-anchor="middle" x="64" y="-104.5" font-family="Helvetica,sans-Serif" font-size="10.00"> lineNum</text>
</g>
<!-- Node4 -->
<g id="node4" class="node"><title>Node4</title>
<polygon fill="white" stroke="#bfbfbf" points="70.5,-136.5 70.5,-155.5 105.5,-155.5 105.5,-136.5 70.5,-136.5"/>
<text text-anchor="middle" x="88" y="-143.5" font-family="Helvetica,sans-Serif" font-size="10.00">char</text>
</g>
<!-- Node4&#45;&gt;Node2 -->
<g id="edge3" class="edge"><title>Node4&#45;&gt;Node2</title>
<path fill="none" stroke="#9a32cd" stroke-dasharray="5,2" d="M88,-126.224C88,-110.697 88,-89.3582 88,-77.6165"/>
<polygon fill="#9a32cd" stroke="#9a32cd" points="84.5001,-126.282 88,-136.282 91.5001,-126.282 84.5001,-126.282"/>
<text text-anchor="middle" x="109.5" y="-110" font-family="Helvetica,sans-Serif" font-size="10.00"> message</text>
<text text-anchor="middle" x="109.5" y="-99" font-family="Helvetica,sans-Serif" font-size="10.00">fileName</text>
</g>
<!-- Node5 -->
<g id="node5" class="node"><title>Node5</title>
<polygon fill="white" stroke="#bfbfbf" points="131,-136.5 131,-155.5 177,-155.5 177,-136.5 131,-136.5"/>
<text text-anchor="middle" x="154" y="-143.5" font-family="Helvetica,sans-Serif" font-size="10.00">uint8_t</text>
</g>
<!-- Node5&#45;&gt;Node2 -->
<g id="edge4" class="edge"><title>Node5&#45;&gt;Node2</title>
<path fill="none" stroke="#9a32cd" stroke-dasharray="5,2" d="M148.646,-126.479C145.109,-116.612 139.687,-104.743 132,-96 125.254,-88.3268 115.79,-82.1334 107.368,-77.6234"/>
<polygon fill="#9a32cd" stroke="#9a32cd" points="145.366,-127.711 151.764,-136.157 152.029,-125.565 145.366,-127.711"/>
<text text-anchor="middle" x="156" y="-104.5" font-family="Helvetica,sans-Serif" font-size="10.00"> type</text>
</g>
</g>
</svg>
