<?xml version="1.0" encoding="UTF-8" standalone="no"?>
<!DOCTYPE svg PUBLIC "-//W3C//DTD SVG 1.1//EN"
 "http://www.w3.org/Graphics/SVG/1.1/DTD/svg11.dtd">
<!-- Generated by graphviz version 2.38.0 (20140413.2041)
 -->
<!-- Title: wlp::TreeSet&lt; Key, Cmp &gt; Pages: 1 -->
<svg width="312pt" height="264pt"
 viewBox="0.00 0.00 311.50 264.00" xmlns="http://www.w3.org/2000/svg" xmlns:xlink="http://www.w3.org/1999/xlink">
<g id="graph0" class="graph" transform="scale(1 1) rotate(0) translate(4 260)">
<title>wlp::TreeSet&lt; Key, Cmp &gt;</title>
<polygon fill="white" stroke="none" points="-4,4 -4,-260 307.5,-260 307.5,4 -4,4"/>
<!-- Node1 -->
<g id="node1" class="node"><title>Node1</title>
<polygon fill="#bfbfbf" stroke="black" points="30.5,-0.5 30.5,-30.5 130.5,-30.5 130.5,-0.5 30.5,-0.5"/>
<text text-anchor="start" x="38.5" y="-18.5" font-family="Helvetica,sans-Serif" font-size="10.00">wlp::TreeSet&lt; Key,</text>
<text text-anchor="middle" x="80.5" y="-7.5" font-family="Helvetica,sans-Serif" font-size="10.00"> Cmp &gt;</text>
</g>
<!-- Node2 -->
<g id="node2" class="node"><title>Node2</title>
<g id="a_node2"><a xlink:href="../../d3/def/classwlp_1_1_red_black_tree.html" target="_top" xlink:title="wlp::RedBlackTree\&lt;\l Key, Key, Cmp \&gt;">
<polygon fill="white" stroke="black" points="28.5,-78.5 28.5,-108.5 132.5,-108.5 132.5,-78.5 28.5,-78.5"/>
<text text-anchor="start" x="36.5" y="-96.5" font-family="Helvetica,sans-Serif" font-size="10.00">wlp::RedBlackTree&lt;</text>
<text text-anchor="middle" x="80.5" y="-85.5" font-family="Helvetica,sans-Serif" font-size="10.00"> Key, Key, Cmp &gt;</text>
</a>
</g>
</g>
<!-- Node2&#45;&gt;Node1 -->
<g id="edge1" class="edge"><title>Node2&#45;&gt;Node1</title>
<path fill="none" stroke="#9a32cd" stroke-dasharray="5,2" d="M80.5,-68.0898C80.5,-55.7565 80.5,-41.2237 80.5,-30.7309"/>
<polygon fill="#9a32cd" stroke="#9a32cd" points="77.0001,-68.2049 80.5,-78.205 84.0001,-68.205 77.0001,-68.2049"/>
<text text-anchor="middle" x="97.5" y="-52" font-family="Helvetica,sans-Serif" font-size="10.00"> m_tree</text>
</g>
<!-- Node3 -->
<g id="node3" class="node"><title>Node3</title>
<polygon fill="white" stroke="#bfbfbf" points="0,-163 0,-182 37,-182 37,-163 0,-163"/>
<text text-anchor="middle" x="18.5" y="-170" font-family="Helvetica,sans-Serif" font-size="10.00">Cmp</text>
</g>
<!-- Node3&#45;&gt;Node2 -->
<g id="edge2" class="edge"><title>Node3&#45;&gt;Node2</title>
<path fill="none" stroke="#9a32cd" stroke-dasharray="5,2" d="M25.3886,-153.269C29.108,-144.783 34.2301,-134.852 40.5,-127 45.9714,-120.148 53.1156,-113.779 59.85,-108.528"/>
<polygon fill="#9a32cd" stroke="#9a32cd" points="22.0912,-152.087 21.5647,-162.669 28.5752,-154.725 22.0912,-152.087"/>
<text text-anchor="middle" x="58.5" y="-130" font-family="Helvetica,sans-Serif" font-size="10.00"> m_cmp</text>
</g>
<!-- Node4 -->
<g id="node4" class="node"><title>Node4</title>
<polygon fill="white" stroke="#bfbfbf" points="55,-163 55,-182 106,-182 106,-163 55,-163"/>
<text text-anchor="middle" x="80.5" y="-170" font-family="Helvetica,sans-Serif" font-size="10.00">uint16_t</text>
</g>
<!-- Node4&#45;&gt;Node2 -->
<g id="edge3" class="edge"><title>Node4&#45;&gt;Node2</title>
<path fill="none" stroke="#9a32cd" stroke-dasharray="5,2" d="M80.5,-152.805C80.5,-139.162 80.5,-120.959 80.5,-108.545"/>
<polygon fill="#9a32cd" stroke="#9a32cd" points="77.0001,-152.965 80.5,-162.965 84.0001,-152.965 77.0001,-152.965"/>
<text text-anchor="middle" x="98" y="-130" font-family="Helvetica,sans-Serif" font-size="10.00"> m_size</text>
</g>
<!-- Node5 -->
<g id="node5" class="node"><title>Node5</title>
<g id="a_node5"><a xlink:href="../../d9/d53/structwlp_1_1_red_black_tree_node.html" target="_top" xlink:title="wlp::RedBlackTreeNode\l\&lt; Key, Val \&gt;">
<polygon fill="white" stroke="black" points="124.5,-157.5 124.5,-187.5 244.5,-187.5 244.5,-157.5 124.5,-157.5"/>
<text text-anchor="start" x="132.5" y="-175.5" font-family="Helvetica,sans-Serif" font-size="10.00">wlp::RedBlackTreeNode</text>
<text text-anchor="middle" x="184.5" y="-164.5" font-family="Helvetica,sans-Serif" font-size="10.00">&lt; Key, Val &gt;</text>
</a>
</g>
</g>
<!-- Node5&#45;&gt;Node2 -->
<g id="edge4" class="edge"><title>Node5&#45;&gt;Node2</title>
<path fill="none" stroke="#9a32cd" stroke-dasharray="5,2" d="M156.986,-151.129C138.842,-137.696 115.544,-120.446 99.4543,-108.533"/>
<polygon fill="#9a32cd" stroke="#9a32cd" points="155.305,-154.239 165.425,-157.377 159.471,-148.614 155.305,-154.239"/>
<text text-anchor="middle" x="162.5" y="-130" font-family="Helvetica,sans-Serif" font-size="10.00"> m_header</text>
</g>
<!-- Node5&#45;&gt;Node5 -->
<g id="edge7" class="edge"><title>Node5&#45;&gt;Node5</title>
<path fill="none" stroke="#9a32cd" stroke-dasharray="5,2" d="M254.578,-177.976C259.499,-176.728 262.5,-174.902 262.5,-172.5 262.5,-168.75 255.188,-166.406 244.676,-165.469"/>
<polygon fill="#9a32cd" stroke="#9a32cd" points="254.011,-174.522 244.676,-179.531 255.098,-181.437 254.011,-174.522"/>
<text text-anchor="middle" x="283" y="-181" font-family="Helvetica,sans-Serif" font-size="10.00"> m_left</text>
<text text-anchor="middle" x="283" y="-170" font-family="Helvetica,sans-Serif" font-size="10.00">m_parent</text>
<text text-anchor="middle" x="283" y="-159" font-family="Helvetica,sans-Serif" font-size="10.00">m_right</text>
</g>
<!-- Node6 -->
<g id="node6" class="node"><title>Node6</title>
<polygon fill="white" stroke="#bfbfbf" points="106,-236.5 106,-255.5 141,-255.5 141,-236.5 106,-236.5"/>
<text text-anchor="middle" x="123.5" y="-243.5" font-family="Helvetica,sans-Serif" font-size="10.00">type</text>
</g>
<!-- Node6&#45;&gt;Node5 -->
<g id="edge5" class="edge"><title>Node6&#45;&gt;Node5</title>
<path fill="none" stroke="#9a32cd" stroke-dasharray="5,2" d="M130.681,-226.711C133.759,-220.121 137.749,-212.869 142.5,-207 148.369,-199.751 156.062,-193.054 163.257,-187.583"/>
<polygon fill="#9a32cd" stroke="#9a32cd" points="127.326,-225.657 126.618,-236.229 133.763,-228.406 127.326,-225.657"/>
<text text-anchor="middle" x="161.5" y="-210" font-family="Helvetica,sans-Serif" font-size="10.00"> m_color</text>
</g>
<!-- Node7 -->
<g id="node7" class="node"><title>Node7</title>
<polygon fill="white" stroke="#bfbfbf" points="167.5,-236.5 167.5,-255.5 201.5,-255.5 201.5,-236.5 167.5,-236.5"/>
<text text-anchor="middle" x="184.5" y="-243.5" font-family="Helvetica,sans-Serif" font-size="10.00">Key</text>
</g>
<!-- Node7&#45;&gt;Node5 -->
<g id="edge6" class="edge"><title>Node7&#45;&gt;Node5</title>
<path fill="none" stroke="#9a32cd" stroke-dasharray="5,2" d="M184.5,-225.899C184.5,-213.816 184.5,-198.466 184.5,-187.509"/>
<polygon fill="#9a32cd" stroke="#9a32cd" points="181,-226.233 184.5,-236.233 188,-226.233 181,-226.233"/>
<text text-anchor="middle" x="201" y="-210" font-family="Helvetica,sans-Serif" font-size="10.00"> m_key</text>
</g>
<!-- Node8 -->
<g id="node8" class="node"><title>Node8</title>
<polygon fill="white" stroke="#bfbfbf" points="225,-236.5 225,-255.5 256,-255.5 256,-236.5 225,-236.5"/>
<text text-anchor="middle" x="240.5" y="-243.5" font-family="Helvetica,sans-Serif" font-size="10.00">Val</text>
</g>
<!-- Node8&#45;&gt;Node5 -->
<g id="edge8" class="edge"><title>Node8&#45;&gt;Node5</title>
<path fill="none" stroke="#9a32cd" stroke-dasharray="5,2" d="M231.662,-227.504C227.965,-220.832 223.391,-213.318 218.5,-207 213.224,-200.185 206.624,-193.379 200.646,-187.699"/>
<polygon fill="#9a32cd" stroke="#9a32cd" points="228.617,-229.234 236.384,-236.439 234.806,-225.963 228.617,-229.234"/>
<text text-anchor="middle" x="239.5" y="-210" font-family="Helvetica,sans-Serif" font-size="10.00"> m_val</text>
</g>
</g>
</svg>
