<?xml version="1.0" encoding="UTF-8" standalone="no"?>
<!DOCTYPE svg PUBLIC "-//W3C//DTD SVG 1.1//EN"
 "http://www.w3.org/Graphics/SVG/1.1/DTD/svg11.dtd">
<!-- Generated by graphviz version 2.36.0 (20140111.2315)
 -->
<!-- Title: memory/Memory.h Pages: 1 -->
<svg width="300pt" height="252pt"
 viewBox="0.00 0.00 300.00 252.00" xmlns="http://www.w3.org/2000/svg" xmlns:xlink="http://www.w3.org/1999/xlink">
<g id="graph0" class="graph" transform="scale(1 1) rotate(0) translate(4 248)">
<title>memory/Memory.h</title>
<polygon fill="white" stroke="none" points="-4,4 -4,-248 296,-248 296,4 -4,4"/>
<!-- Node1 -->
<g id="node1" class="node"><title>Node1</title>
<polygon fill="#bfbfbf" stroke="black" points="132,-224.5 132,-243.5 230,-243.5 230,-224.5 132,-224.5"/>
<text text-anchor="middle" x="181" y="-231.5" font-family="Helvetica,sans-Serif" font-size="10.00">memory/Memory.h</text>
</g>
<!-- Node2 -->
<g id="node2" class="node"><title>Node2</title>
<polygon fill="white" stroke="#bfbfbf" points="-0.5,-168.5 -0.5,-187.5 48.5,-187.5 48.5,-168.5 -0.5,-168.5"/>
<text text-anchor="middle" x="24" y="-175.5" font-family="Helvetica,sans-Serif" font-size="10.00">string.h</text>
</g>
<!-- Node1&#45;&gt;Node2 -->
<g id="edge1" class="edge"><title>Node1&#45;&gt;Node2</title>
<path fill="none" stroke="midnightblue" d="M156.123,-224.444C129.633,-215.332 87.5381,-200.854 57.9982,-190.694"/>
<polygon fill="midnightblue" stroke="midnightblue" points="59.097,-187.37 48.5023,-187.428 56.8202,-193.99 59.097,-187.37"/>
</g>
<!-- Node3 -->
<g id="node3" class="node"><title>Node3</title>
<g id="a_node3"><a xlink:href="../../db/d2a/_utility_8h.html" target="_top" xlink:title="Various helper functions. ">
<polygon fill="white" stroke="black" points="67,-168.5 67,-187.5 153,-187.5 153,-168.5 67,-168.5"/>
<text text-anchor="middle" x="110" y="-175.5" font-family="Helvetica,sans-Serif" font-size="10.00">../utility/Utility.h</text>
</a>
</g>
</g>
<!-- Node1&#45;&gt;Node3 -->
<g id="edge2" class="edge"><title>Node1&#45;&gt;Node3</title>
<path fill="none" stroke="midnightblue" d="M169.593,-224.324C158.891,-216.185 142.659,-203.839 129.837,-194.087"/>
<polygon fill="midnightblue" stroke="midnightblue" points="131.693,-191.102 121.615,-187.834 127.456,-196.673 131.693,-191.102"/>
</g>
<!-- Node4 -->
<g id="node4" class="node"><title>Node4</title>
<g id="a_node4"><a xlink:href="../../d2/d37/_tmp_8h.html" target="_top" xlink:title="Template helper types, structs, and metafunctions. ">
<polygon fill="white" stroke="black" points="147,-112.5 147,-131.5 191,-131.5 191,-112.5 147,-112.5"/>
<text text-anchor="middle" x="169" y="-119.5" font-family="Helvetica,sans-Serif" font-size="10.00">Tmp.h</text>
</a>
</g>
</g>
<!-- Node1&#45;&gt;Node4 -->
<g id="edge7" class="edge"><title>Node1&#45;&gt;Node4</title>
<path fill="none" stroke="midnightblue" d="M180.058,-224.368C178.122,-206.617 173.655,-165.666 171.029,-141.597"/>
<polygon fill="midnightblue" stroke="midnightblue" points="174.501,-141.153 169.937,-131.591 167.542,-141.912 174.501,-141.153"/>
</g>
<!-- Node5 -->
<g id="node5" class="node"><title>Node5</title>
<g id="a_node5"><a xlink:href="../../d0/db6/_types_8h.html" target="_top" xlink:title="type definition of all the string types we will be using ">
<polygon fill="white" stroke="black" points="163.5,-56.5 163.5,-75.5 224.5,-75.5 224.5,-56.5 163.5,-56.5"/>
<text text-anchor="middle" x="194" y="-63.5" font-family="Helvetica,sans-Serif" font-size="10.00">../Types.h</text>
</a>
</g>
</g>
<!-- Node1&#45;&gt;Node5 -->
<g id="edge6" class="edge"><title>Node1&#45;&gt;Node5</title>
<path fill="none" stroke="midnightblue" d="M183.544,-224.251C189.041,-204.407 201.349,-154.411 199,-112 198.521,-103.358 197.529,-93.8252 196.554,-85.7666"/>
<polygon fill="midnightblue" stroke="midnightblue" points="199.994,-85.0728 195.242,-75.6032 193.052,-85.969 199.994,-85.0728"/>
</g>
<!-- Node7 -->
<g id="node7" class="node"><title>Node7</title>
<g id="a_node7"><a xlink:href="../../d9/d8a/_new_8h.html" target="_top" xlink:title="New operators defined for Arduino boards and for other boards use the normal new. ...">
<polygon fill="white" stroke="black" points="247.5,-168.5 247.5,-187.5 292.5,-187.5 292.5,-168.5 247.5,-168.5"/>
<text text-anchor="middle" x="270" y="-175.5" font-family="Helvetica,sans-Serif" font-size="10.00">New.h</text>
</a>
</g>
</g>
<!-- Node1&#45;&gt;Node7 -->
<g id="edge8" class="edge"><title>Node1&#45;&gt;Node7</title>
<path fill="none" stroke="midnightblue" d="M195.299,-224.324C209.183,-215.9 230.492,-202.971 246.804,-193.074"/>
<polygon fill="midnightblue" stroke="midnightblue" points="249.002,-195.834 255.736,-187.655 245.371,-189.85 249.002,-195.834"/>
</g>
<!-- Node3&#45;&gt;Node4 -->
<g id="edge3" class="edge"><title>Node3&#45;&gt;Node4</title>
<path fill="none" stroke="midnightblue" d="M119.479,-168.324C128.201,-160.341 141.343,-148.313 151.898,-138.653"/>
<polygon fill="midnightblue" stroke="midnightblue" points="154.334,-141.167 159.348,-131.834 149.608,-136.004 154.334,-141.167"/>
</g>
<!-- Node4&#45;&gt;Node5 -->
<g id="edge4" class="edge"><title>Node4&#45;&gt;Node5</title>
<path fill="none" stroke="midnightblue" d="M173.128,-112.083C176.514,-104.77 181.416,-94.1814 185.619,-85.1034"/>
<polygon fill="midnightblue" stroke="midnightblue" points="188.923,-86.2962 189.949,-75.7511 182.571,-83.3553 188.923,-86.2962"/>
</g>
<!-- Node6 -->
<g id="node6" class="node"><title>Node6</title>
<polygon fill="white" stroke="#bfbfbf" points="169.5,-0.5 169.5,-19.5 218.5,-19.5 218.5,-0.5 169.5,-0.5"/>
<text text-anchor="middle" x="194" y="-7.5" font-family="Helvetica,sans-Serif" font-size="10.00">stdint.h</text>
</g>
<!-- Node5&#45;&gt;Node6 -->
<g id="edge5" class="edge"><title>Node5&#45;&gt;Node6</title>
<path fill="none" stroke="midnightblue" d="M194,-56.083C194,-49.0059 194,-38.8611 194,-29.9865"/>
<polygon fill="midnightblue" stroke="midnightblue" points="197.5,-29.751 194,-19.7511 190.5,-29.7511 197.5,-29.751"/>
</g>
</g>
</svg>
