<?xml version="1.0" encoding="UTF-8" standalone="no"?>
<!DOCTYPE svg PUBLIC "-//W3C//DTD SVG 1.1//EN"
 "http://www.w3.org/Graphics/SVG/1.1/DTD/svg11.dtd">
<!-- Generated by graphviz version 2.36.0 (20140111.2315)
 -->
<!-- Title: wlib/memory/Memory.h Pages: 1 -->
<svg width="311pt" height="252pt"
 viewBox="0.00 0.00 311.00 252.00" xmlns="http://www.w3.org/2000/svg" xmlns:xlink="http://www.w3.org/1999/xlink">
<g id="graph0" class="graph" transform="scale(1 1) rotate(0) translate(4 248)">
<title>wlib/memory/Memory.h</title>
<polygon fill="white" stroke="none" points="-4,4 -4,-248 307,-248 307,4 -4,4"/>
<!-- Node1 -->
<g id="node1" class="node"><title>Node1</title>
<polygon fill="#bfbfbf" stroke="black" points="132.5,-224.5 132.5,-243.5 251.5,-243.5 251.5,-224.5 132.5,-224.5"/>
<text text-anchor="middle" x="192" y="-231.5" font-family="Helvetica,sans-Serif" font-size="10.00">wlib/memory/Memory.h</text>
</g>
<!-- Node2 -->
<g id="node2" class="node"><title>Node2</title>
<polygon fill="white" stroke="#bfbfbf" points="-0.5,-168.5 -0.5,-187.5 48.5,-187.5 48.5,-168.5 -0.5,-168.5"/>
<text text-anchor="middle" x="24" y="-175.5" font-family="Helvetica,sans-Serif" font-size="10.00">string.h</text>
</g>
<!-- Node1&#45;&gt;Node2 -->
<g id="edge1" class="edge"><title>Node1&#45;&gt;Node2</title>
<path fill="none" stroke="midnightblue" d="M165.38,-224.444C136.41,-215.132 89.998,-200.214 58.312,-190.029"/>
<polygon fill="midnightblue" stroke="midnightblue" points="59.1739,-186.63 48.5825,-186.902 57.0318,-193.294 59.1739,-186.63"/>
</g>
<!-- Node3 -->
<g id="node3" class="node"><title>Node3</title>
<g id="a_node3"><a xlink:href="../../db/d2a/_utility_8h.html" target="_top" xlink:title="Various helper functions. ">
<polygon fill="white" stroke="black" points="66.5,-168.5 66.5,-187.5 163.5,-187.5 163.5,-168.5 66.5,-168.5"/>
<text text-anchor="middle" x="115" y="-175.5" font-family="Helvetica,sans-Serif" font-size="10.00">wlib/utility/Utility.h</text>
</a>
</g>
</g>
<!-- Node1&#45;&gt;Node3 -->
<g id="edge2" class="edge"><title>Node1&#45;&gt;Node3</title>
<path fill="none" stroke="midnightblue" d="M179.629,-224.324C167.842,-216.058 149.868,-203.453 135.864,-193.632"/>
<polygon fill="midnightblue" stroke="midnightblue" points="137.538,-190.531 127.341,-187.655 133.518,-196.262 137.538,-190.531"/>
</g>
<!-- Node4 -->
<g id="node4" class="node"><title>Node4</title>
<g id="a_node4"><a xlink:href="../../d2/d37/_tmp_8h.html" target="_top" xlink:title="Template helper types, structs, and metafunctions. ">
<polygon fill="white" stroke="black" points="158,-112.5 158,-131.5 202,-131.5 202,-112.5 158,-112.5"/>
<text text-anchor="middle" x="180" y="-119.5" font-family="Helvetica,sans-Serif" font-size="10.00">Tmp.h</text>
</a>
</g>
</g>
<!-- Node1&#45;&gt;Node4 -->
<g id="edge7" class="edge"><title>Node1&#45;&gt;Node4</title>
<path fill="none" stroke="midnightblue" d="M191.058,-224.368C189.122,-206.617 184.655,-165.666 182.029,-141.597"/>
<polygon fill="midnightblue" stroke="midnightblue" points="185.501,-141.153 180.937,-131.591 178.542,-141.912 185.501,-141.153"/>
</g>
<!-- Node5 -->
<g id="node5" class="node"><title>Node5</title>
<g id="a_node5"><a xlink:href="../../d0/db6/_types_8h.html" target="_top" xlink:title="type definition of all the string types we will be using ">
<polygon fill="white" stroke="black" points="169,-56.5 169,-75.5 241,-75.5 241,-56.5 169,-56.5"/>
<text text-anchor="middle" x="205" y="-63.5" font-family="Helvetica,sans-Serif" font-size="10.00">wlib/Types.h</text>
</a>
</g>
</g>
<!-- Node1&#45;&gt;Node5 -->
<g id="edge6" class="edge"><title>Node1&#45;&gt;Node5</title>
<path fill="none" stroke="midnightblue" d="M194.544,-224.251C200.041,-204.407 212.349,-154.411 210,-112 209.521,-103.358 208.529,-93.8252 207.554,-85.7666"/>
<polygon fill="midnightblue" stroke="midnightblue" points="210.994,-85.0728 206.242,-75.6032 204.052,-85.969 210.994,-85.0728"/>
</g>
<!-- Node7 -->
<g id="node7" class="node"><title>Node7</title>
<g id="a_node7"><a xlink:href="../../d9/d8a/_new_8h.html" target="_top" xlink:title="New operators defined for Arduino boards and for other boards use the normal new. ...">
<polygon fill="white" stroke="black" points="258.5,-168.5 258.5,-187.5 303.5,-187.5 303.5,-168.5 258.5,-168.5"/>
<text text-anchor="middle" x="281" y="-175.5" font-family="Helvetica,sans-Serif" font-size="10.00">New.h</text>
</a>
</g>
</g>
<!-- Node1&#45;&gt;Node7 -->
<g id="edge8" class="edge"><title>Node1&#45;&gt;Node7</title>
<path fill="none" stroke="midnightblue" d="M206.299,-224.324C220.183,-215.9 241.492,-202.971 257.804,-193.074"/>
<polygon fill="midnightblue" stroke="midnightblue" points="260.002,-195.834 266.736,-187.655 256.371,-189.85 260.002,-195.834"/>
</g>
<!-- Node3&#45;&gt;Node4 -->
<g id="edge3" class="edge"><title>Node3&#45;&gt;Node4</title>
<path fill="none" stroke="midnightblue" d="M125.443,-168.324C135.146,-160.263 149.815,-148.077 161.5,-138.369"/>
<polygon fill="midnightblue" stroke="midnightblue" points="163.911,-140.916 169.367,-131.834 159.438,-135.532 163.911,-140.916"/>
</g>
<!-- Node4&#45;&gt;Node5 -->
<g id="edge4" class="edge"><title>Node4&#45;&gt;Node5</title>
<path fill="none" stroke="midnightblue" d="M184.128,-112.083C187.514,-104.77 192.416,-94.1814 196.619,-85.1034"/>
<polygon fill="midnightblue" stroke="midnightblue" points="199.923,-86.2962 200.949,-75.7511 193.571,-83.3553 199.923,-86.2962"/>
</g>
<!-- Node6 -->
<g id="node6" class="node"><title>Node6</title>
<polygon fill="white" stroke="#bfbfbf" points="180.5,-0.5 180.5,-19.5 229.5,-19.5 229.5,-0.5 180.5,-0.5"/>
<text text-anchor="middle" x="205" y="-7.5" font-family="Helvetica,sans-Serif" font-size="10.00">stdint.h</text>
</g>
<!-- Node5&#45;&gt;Node6 -->
<g id="edge5" class="edge"><title>Node5&#45;&gt;Node6</title>
<path fill="none" stroke="midnightblue" d="M205,-56.083C205,-49.0059 205,-38.8611 205,-29.9865"/>
<polygon fill="midnightblue" stroke="midnightblue" points="208.5,-29.751 205,-19.7511 201.5,-29.7511 208.5,-29.751"/>
</g>
</g>
</svg>
