<?xml version="1.0" encoding="UTF-8" standalone="no"?>
<!DOCTYPE svg PUBLIC "-//W3C//DTD SVG 1.1//EN"
 "http://www.w3.org/Graphics/SVG/1.1/DTD/svg11.dtd">
<!-- Generated by graphviz version 2.36.0 (20140111.2315)
 -->
<!-- Title: wlp::__Allocator::~__Allocator Pages: 1 -->
<svg width="256pt" height="38pt"
 viewBox="0.00 0.00 256.00 38.00" xmlns="http://www.w3.org/2000/svg" xmlns:xlink="http://www.w3.org/1999/xlink">
<g id="graph0" class="graph" transform="scale(1 1) rotate(0) translate(4 34)">
<title>wlp::__Allocator::~__Allocator</title>
<polygon fill="white" stroke="none" points="-4,4 -4,-34 252,-34 252,4 -4,4"/>
<!-- Node1 -->
<g id="node1" class="node"><title>Node1</title>
<polygon fill="#bfbfbf" stroke="black" points="0,-0 0,-30 92,-30 92,-0 0,-0"/>
<text text-anchor="start" x="8" y="-18" font-family="Helvetica,sans-Serif" font-size="10.00">wlp::__Allocator::</text>
<text text-anchor="middle" x="46" y="-7" font-family="Helvetica,sans-Serif" font-size="10.00">~__Allocator</text>
</g>
<!-- Node2 -->
<g id="node2" class="node"><title>Node2</title>
<g id="a_node2"><a xlink:href="../../de/d5b/classwlp_1_1_____allocator.html#aced9c1024626524f09caaee69cb3a1d8" target="_top" xlink:title="wlp::__Allocator::isPool\lBlock">
<polygon fill="white" stroke="black" points="128.5,-0 128.5,-30 247.5,-30 247.5,-0 128.5,-0"/>
<text text-anchor="start" x="136.5" y="-18" font-family="Helvetica,sans-Serif" font-size="10.00">wlp::__Allocator::isPool</text>
<text text-anchor="middle" x="188" y="-7" font-family="Helvetica,sans-Serif" font-size="10.00">Block</text>
</a>
</g>
</g>
<!-- Node1&#45;&gt;Node2 -->
<g id="edge1" class="edge"><title>Node1&#45;&gt;Node2</title>
<path fill="none" stroke="midnightblue" d="M92.0675,-15C100.489,-15 109.464,-15 118.408,-15"/>
<polygon fill="midnightblue" stroke="midnightblue" points="118.462,-18.5001 128.462,-15 118.462,-11.5001 118.462,-18.5001"/>
</g>
</g>
</svg>
