<?xml version="1.0" encoding="UTF-8" standalone="no"?>
<!DOCTYPE svg PUBLIC "-//W3C//DTD SVG 1.1//EN"
 "http://www.w3.org/Graphics/SVG/1.1/DTD/svg11.dtd">
<!-- Generated by graphviz version 2.36.0 (20140111.2315)
 -->
<!-- Title: wlp::__Allocator::deallocate Pages: 1 -->
<svg width="620pt" height="136pt"
 viewBox="0.00 0.00 620.00 136.00" xmlns="http://www.w3.org/2000/svg" xmlns:xlink="http://www.w3.org/1999/xlink">
<g id="graph0" class="graph" transform="scale(1 1) rotate(0) translate(4 132)">
<title>wlp::__Allocator::deallocate</title>
<polygon fill="white" stroke="none" points="-4,4 -4,-132 616,-132 616,4 -4,4"/>
<!-- Node1 -->
<g id="node1" class="node"><title>Node1</title>
<polygon fill="#bfbfbf" stroke="black" points="0.5,-54.5 0.5,-73.5 137.5,-73.5 137.5,-54.5 0.5,-54.5"/>
<text text-anchor="middle" x="69" y="-61.5" font-family="Helvetica,sans-Serif" font-size="10.00">wlp::__Allocator::deallocate</text>
</g>
<!-- Node2 -->
<g id="node2" class="node"><title>Node2</title>
<g id="a_node2"><a xlink:href="../../d3/de6/_memory_8h.html#aa359f6271adac5034612761142de9195" target="_top" xlink:title="__memory_free">
<polygon fill="white" stroke="black" points="174,-54.5 174,-73.5 258,-73.5 258,-54.5 174,-54.5"/>
<text text-anchor="middle" x="216" y="-61.5" font-family="Helvetica,sans-Serif" font-size="10.00">__memory_free</text>
</a>
</g>
</g>
<!-- Node1&#45;&gt;Node2 -->
<g id="edge1" class="edge"><title>Node1&#45;&gt;Node2</title>
<path fill="none" stroke="midnightblue" d="M147.878,-64C156.762,-64 165.538,-64 173.669,-64"/>
<polygon fill="midnightblue" stroke="midnightblue" points="147.83,-60.5001 137.83,-64 147.83,-67.5001 147.83,-60.5001"/>
</g>
<!-- Node3 -->
<g id="node3" class="node"><title>Node3</title>
<g id="a_node3"><a xlink:href="../../d3/de6/_memory_8h.html#a137edc434b402c4f8ea23892006a38b6" target="_top" xlink:title="free">
<polygon fill="white" stroke="black" points="294.5,-54.5 294.5,-73.5 327.5,-73.5 327.5,-54.5 294.5,-54.5"/>
<text text-anchor="middle" x="311" y="-61.5" font-family="Helvetica,sans-Serif" font-size="10.00">free</text>
</a>
</g>
</g>
<!-- Node2&#45;&gt;Node3 -->
<g id="edge2" class="edge"><title>Node2&#45;&gt;Node3</title>
<path fill="none" stroke="midnightblue" d="M268.342,-64C277.788,-64 286.965,-64 294.29,-64"/>
<polygon fill="midnightblue" stroke="midnightblue" points="268.062,-60.5001 258.062,-64 268.062,-67.5001 268.062,-60.5001"/>
</g>
<!-- Node4 -->
<g id="node4" class="node"><title>Node4</title>
<g id="a_node4"><a xlink:href="../../de/dc1/classwlp_1_1_reference_count.html#ad321394bfc7a1d215d3616c3721923ee" target="_top" xlink:title="wlp::ReferenceCount\l\&lt; T * \&gt;::destroy">
<polygon fill="white" stroke="black" points="364.5,-98 364.5,-128 473.5,-128 473.5,-98 364.5,-98"/>
<text text-anchor="start" x="372.5" y="-116" font-family="Helvetica,sans-Serif" font-size="10.00">wlp::ReferenceCount</text>
<text text-anchor="middle" x="419" y="-105" font-family="Helvetica,sans-Serif" font-size="10.00">&lt; T * &gt;::destroy</text>
</a>
</g>
</g>
<!-- Node3&#45;&gt;Node4 -->
<g id="edge3" class="edge"><title>Node3&#45;&gt;Node4</title>
<path fill="none" stroke="midnightblue" d="M336.913,-75.5165C351.324,-82.1779 369.63,-90.6402 385.2,-97.8379"/>
<polygon fill="midnightblue" stroke="midnightblue" points="338.186,-72.2492 327.641,-71.2301 335.249,-78.6032 338.186,-72.2492"/>
</g>
<!-- Node5 -->
<g id="node5" class="node"><title>Node5</title>
<g id="a_node5"><a xlink:href="../../de/dc1/classwlp_1_1_reference_count.html#a7fab13d2d8b36614b06fc53581ca6b17" target="_top" xlink:title="wlp::ReferenceCount\l\&lt; T * \&gt;::dispose">
<polygon fill="white" stroke="black" points="364.5,-49 364.5,-79 473.5,-79 473.5,-49 364.5,-49"/>
<text text-anchor="start" x="372.5" y="-67" font-family="Helvetica,sans-Serif" font-size="10.00">wlp::ReferenceCount</text>
<text text-anchor="middle" x="419" y="-56" font-family="Helvetica,sans-Serif" font-size="10.00">&lt; T * &gt;::dispose</text>
</a>
</g>
</g>
<!-- Node3&#45;&gt;Node5 -->
<g id="edge4" class="edge"><title>Node3&#45;&gt;Node5</title>
<path fill="none" stroke="midnightblue" d="M337.858,-64C345.955,-64 355.21,-64 364.486,-64"/>
<polygon fill="midnightblue" stroke="midnightblue" points="337.641,-60.5001 327.641,-64 337.641,-67.5001 337.641,-60.5001"/>
</g>
<!-- Node6 -->
<g id="node6" class="node"><title>Node6</title>
<g id="a_node6"><a xlink:href="../../d8/db4/classwlp_1_1_dynamic_string.html#a7decbdc48439b5582da46d18e6b51041" target="_top" xlink:title="wlp::DynamicString\l::set_value">
<polygon fill="white" stroke="black" points="368,-0 368,-30 470,-30 470,-0 368,-0"/>
<text text-anchor="start" x="376" y="-18" font-family="Helvetica,sans-Serif" font-size="10.00">wlp::DynamicString</text>
<text text-anchor="middle" x="419" y="-7" font-family="Helvetica,sans-Serif" font-size="10.00">::set_value</text>
</a>
</g>
</g>
<!-- Node3&#45;&gt;Node6 -->
<g id="edge5" class="edge"><title>Node3&#45;&gt;Node6</title>
<path fill="none" stroke="midnightblue" d="M336.913,-52.4835C351.324,-45.8221 369.63,-37.3598 385.2,-30.1621"/>
<polygon fill="midnightblue" stroke="midnightblue" points="335.249,-49.3968 327.641,-56.7699 338.186,-55.7508 335.249,-49.3968"/>
</g>
<!-- Node7 -->
<g id="node7" class="node"><title>Node7</title>
<g id="a_node7"><a xlink:href="../../d8/db4/classwlp_1_1_dynamic_string.html#a7e2df6a940f04fa17d203c9e2c84703a" target="_top" xlink:title="wlp::DynamicString\l::operator=">
<polygon fill="white" stroke="black" points="510,-0 510,-30 612,-30 612,-0 510,-0"/>
<text text-anchor="start" x="518" y="-18" font-family="Helvetica,sans-Serif" font-size="10.00">wlp::DynamicString</text>
<text text-anchor="middle" x="561" y="-7" font-family="Helvetica,sans-Serif" font-size="10.00">::operator=</text>
</a>
</g>
</g>
<!-- Node6&#45;&gt;Node7 -->
<g id="edge6" class="edge"><title>Node6&#45;&gt;Node7</title>
<path fill="none" stroke="midnightblue" d="M480.261,-15C490.089,-15 500.177,-15 509.732,-15"/>
<polygon fill="midnightblue" stroke="midnightblue" points="480.148,-11.5001 470.148,-15 480.148,-18.5001 480.148,-11.5001"/>
</g>
</g>
</svg>
