<?xml version="1.0" encoding="UTF-8" standalone="no"?>
<!DOCTYPE svg PUBLIC "-//W3C//DTD SVG 1.1//EN"
 "http://www.w3.org/Graphics/SVG/1.1/DTD/svg11.dtd">
<!-- Generated by graphviz version 2.38.0 (20140413.2041)
 -->
<!-- Title: wlp::__Allocator::getBlockSize Pages: 1 -->
<svg width="383pt" height="122pt"
 viewBox="0.00 0.00 383.00 122.00" xmlns="http://www.w3.org/2000/svg" xmlns:xlink="http://www.w3.org/1999/xlink">
<g id="graph0" class="graph" transform="scale(1 1) rotate(0) translate(4 118)">
<title>wlp::__Allocator::getBlockSize</title>
<polygon fill="white" stroke="none" points="-4,4 -4,-118 379,-118 379,4 -4,4"/>
<!-- Node26 -->
<g id="node1" class="node"><title>Node26</title>
<polygon fill="#bfbfbf" stroke="black" points="0,-57.5 0,-76.5 149,-76.5 149,-57.5 0,-57.5"/>
<text text-anchor="middle" x="74.5" y="-64.5" font-family="Helvetica,sans-Serif" font-size="10.00">wlp::__Allocator::getBlockSize</text>
</g>
<!-- Node27 -->
<g id="node2" class="node"><title>Node27</title>
<g id="a_node2"><a xlink:href="../../d3/de6/_memory_8h.html#ae94046dbccfe12303d31bb8aaff3e523" target="_top" xlink:title="__memory_alloc">
<polygon fill="white" stroke="black" points="195.5,-76.5 195.5,-95.5 283.5,-95.5 283.5,-76.5 195.5,-76.5"/>
<text text-anchor="middle" x="239.5" y="-83.5" font-family="Helvetica,sans-Serif" font-size="10.00">__memory_alloc</text>
</a>
</g>
</g>
<!-- Node26&#45;&gt;Node27 -->
<g id="edge1" class="edge"><title>Node26&#45;&gt;Node27</title>
<path fill="none" stroke="midnightblue" d="M159.313,-76.7696C171.719,-78.2157 184.054,-79.6536 195.167,-80.9489"/>
<polygon fill="midnightblue" stroke="midnightblue" points="159.707,-73.292 149.369,-75.6105 158.897,-80.2449 159.707,-73.292"/>
</g>
<!-- Node29 -->
<g id="node4" class="node"><title>Node29</title>
<g id="a_node4"><a xlink:href="../../d3/de6/_memory_8h.html#a19776500cfa4d32aeb17adb0c2f3c5fe" target="_top" xlink:title="getFixedMemorySize">
<polygon fill="white" stroke="black" points="185,-38.5 185,-57.5 294,-57.5 294,-38.5 185,-38.5"/>
<text text-anchor="middle" x="239.5" y="-45.5" font-family="Helvetica,sans-Serif" font-size="10.00">getFixedMemorySize</text>
</a>
</g>
</g>
<!-- Node26&#45;&gt;Node29 -->
<g id="edge4" class="edge"><title>Node26&#45;&gt;Node29</title>
<path fill="none" stroke="midnightblue" d="M159.491,-57.2097C168.118,-56.204 176.708,-55.2027 184.874,-54.2509"/>
<polygon fill="midnightblue" stroke="midnightblue" points="158.897,-53.7551 149.369,-58.3895 159.707,-60.708 158.897,-53.7551"/>
</g>
<!-- Node27&#45;&gt;Node27 -->
<g id="edge2" class="edge"><title>Node27&#45;&gt;Node27</title>
<path fill="none" stroke="midnightblue" d="M218.76,-105.4C220.145,-110.315 227.059,-114 239.5,-114 259.406,-114 265.16,-104.565 256.762,-95.7571"/>
<polygon fill="midnightblue" stroke="midnightblue" points="222.138,-106.351 222.238,-95.7571 215.553,-103.977 222.138,-106.351"/>
</g>
<!-- Node28 -->
<g id="node3" class="node"><title>Node28</title>
<g id="a_node3"><a xlink:href="../../d3/de6/_memory_8h.html#ac22d681988e173a07bb5f4b5375923f8" target="_top" xlink:title="malloc">
<polygon fill="white" stroke="black" points="330,-76.5 330,-95.5 375,-95.5 375,-76.5 330,-76.5"/>
<text text-anchor="middle" x="352.5" y="-83.5" font-family="Helvetica,sans-Serif" font-size="10.00">malloc</text>
</a>
</g>
</g>
<!-- Node27&#45;&gt;Node28 -->
<g id="edge3" class="edge"><title>Node27&#45;&gt;Node28</title>
<path fill="none" stroke="midnightblue" d="M293.884,-86C306.646,-86 319.557,-86 329.913,-86"/>
<polygon fill="midnightblue" stroke="midnightblue" points="293.733,-82.5001 283.733,-86 293.733,-89.5001 293.733,-82.5001"/>
</g>
<!-- Node30 -->
<g id="node5" class="node"><title>Node30</title>
<g id="a_node5"><a xlink:href="../../d3/de6/_memory_8h.html#a8d8f3aabf2f8d9c20d03a917f7dd3c91" target="_top" xlink:title="free">
<polygon fill="white" stroke="black" points="336.5,-38.5 336.5,-57.5 368.5,-57.5 368.5,-38.5 336.5,-38.5"/>
<text text-anchor="middle" x="352.5" y="-45.5" font-family="Helvetica,sans-Serif" font-size="10.00">free</text>
</a>
</g>
</g>
<!-- Node29&#45;&gt;Node30 -->
<g id="edge5" class="edge"><title>Node29&#45;&gt;Node30</title>
<path fill="none" stroke="midnightblue" d="M304.214,-48C316.229,-48 327.719,-48 336.364,-48"/>
<polygon fill="midnightblue" stroke="midnightblue" points="304.049,-44.5001 294.049,-48 304.049,-51.5001 304.049,-44.5001"/>
</g>
<!-- Node31 -->
<g id="node6" class="node"><title>Node31</title>
<g id="a_node6"><a xlink:href="../../d3/de6/_memory_8h.html#a50569d96c5b87927563caa7281eb9a8a" target="_top" xlink:title="realloc">
<polygon fill="white" stroke="black" points="330,-0.5 330,-19.5 375,-19.5 375,-0.5 330,-0.5"/>
<text text-anchor="middle" x="352.5" y="-7.5" font-family="Helvetica,sans-Serif" font-size="10.00">realloc</text>
</a>
</g>
</g>
<!-- Node29&#45;&gt;Node31 -->
<g id="edge6" class="edge"><title>Node29&#45;&gt;Node31</title>
<path fill="none" stroke="midnightblue" d="M278.274,-35.0683C295.452,-29.1876 315.161,-22.4404 329.802,-17.4283"/>
<polygon fill="midnightblue" stroke="midnightblue" points="276.837,-31.8607 268.51,-38.411 279.105,-38.4834 276.837,-31.8607"/>
</g>
</g>
</svg>
