<?xml version="1.0" encoding="UTF-8" standalone="no"?>
<!DOCTYPE svg PUBLIC "-//W3C//DTD SVG 1.1//EN"
 "http://www.w3.org/Graphics/SVG/1.1/DTD/svg11.dtd">
<!-- Generated by graphviz version 2.38.0 (20140413.2041)
 -->
<!-- Title: wlp::__Allocator::deallocate Pages: 1 -->
<svg width="473pt" height="88pt"
 viewBox="0.00 0.00 473.00 88.00" xmlns="http://www.w3.org/2000/svg" xmlns:xlink="http://www.w3.org/1999/xlink">
<g id="graph0" class="graph" transform="scale(1 1) rotate(0) translate(4 84)">
<title>wlp::__Allocator::deallocate</title>
<polygon fill="white" stroke="none" points="-4,4 -4,-84 469,-84 469,4 -4,4"/>
<!-- Node20 -->
<g id="node1" class="node"><title>Node20</title>
<polygon fill="#bfbfbf" stroke="black" points="0,-30 0,-49 136,-49 136,-30 0,-30"/>
<text text-anchor="middle" x="68" y="-37" font-family="Helvetica,sans-Serif" font-size="10.00">wlp::__Allocator::deallocate</text>
</g>
<!-- Node21 -->
<g id="node2" class="node"><title>Node21</title>
<g id="a_node2"><a xlink:href="../../d3/de6/_memory_8h.html#aa359f6271adac5034612761142de9195" target="_top" xlink:title="__memory_free">
<polygon fill="white" stroke="black" points="172,-30 172,-49 255,-49 255,-30 172,-30"/>
<text text-anchor="middle" x="213.5" y="-37" font-family="Helvetica,sans-Serif" font-size="10.00">__memory_free</text>
</a>
</g>
</g>
<!-- Node20&#45;&gt;Node21 -->
<g id="edge1" class="edge"><title>Node20&#45;&gt;Node21</title>
<path fill="none" stroke="midnightblue" d="M146.192,-39.5C155.089,-39.5 163.875,-39.5 171.996,-39.5"/>
<polygon fill="midnightblue" stroke="midnightblue" points="146.128,-36.0001 136.128,-39.5 146.128,-43.0001 146.128,-36.0001"/>
</g>
<!-- Node22 -->
<g id="node3" class="node"><title>Node22</title>
<g id="a_node3"><a xlink:href="../../d3/de6/_memory_8h.html#a137edc434b402c4f8ea23892006a38b6" target="_top" xlink:title="free">
<polygon fill="white" stroke="black" points="291,-30 291,-49 323,-49 323,-30 291,-30"/>
<text text-anchor="middle" x="307" y="-37" font-family="Helvetica,sans-Serif" font-size="10.00">free</text>
</a>
</g>
</g>
<!-- Node21&#45;&gt;Node22 -->
<g id="edge2" class="edge"><title>Node21&#45;&gt;Node22</title>
<path fill="none" stroke="midnightblue" d="M265.245,-39.5C274.5,-39.5 283.479,-39.5 290.643,-39.5"/>
<polygon fill="midnightblue" stroke="midnightblue" points="265.166,-36.0001 255.166,-39.5 265.166,-43.0001 265.166,-36.0001"/>
</g>
<!-- Node23 -->
<g id="node4" class="node"><title>Node23</title>
<g id="a_node4"><a xlink:href="../../de/dc1/classwlp_1_1_reference_count.html#ad321394bfc7a1d215d3616c3721923ee" target="_top" xlink:title="wlp::ReferenceCount\l\&lt; T *\&gt;::destroy">
<polygon fill="white" stroke="black" points="359,-49.5 359,-79.5 465,-79.5 465,-49.5 359,-49.5"/>
<text text-anchor="start" x="367" y="-67.5" font-family="Helvetica,sans-Serif" font-size="10.00">wlp::ReferenceCount</text>
<text text-anchor="middle" x="412" y="-56.5" font-family="Helvetica,sans-Serif" font-size="10.00">&lt; T *&gt;::destroy</text>
</a>
</g>
</g>
<!-- Node22&#45;&gt;Node23 -->
<g id="edge3" class="edge"><title>Node22&#45;&gt;Node23</title>
<path fill="none" stroke="midnightblue" d="M333.001,-45.5683C340.766,-47.453 349.635,-49.6057 358.543,-51.7677"/>
<polygon fill="midnightblue" stroke="midnightblue" points="333.741,-42.1464 323.198,-43.1888 332.09,-48.9489 333.741,-42.1464"/>
</g>
<!-- Node24 -->
<g id="node5" class="node"><title>Node24</title>
<g id="a_node5"><a xlink:href="../../de/dc1/classwlp_1_1_reference_count.html#a7fab13d2d8b36614b06fc53581ca6b17" target="_top" xlink:title="wlp::ReferenceCount\l\&lt; T *\&gt;::dispose">
<polygon fill="white" stroke="black" points="359,-0.5 359,-30.5 465,-30.5 465,-0.5 359,-0.5"/>
<text text-anchor="start" x="367" y="-18.5" font-family="Helvetica,sans-Serif" font-size="10.00">wlp::ReferenceCount</text>
<text text-anchor="middle" x="412" y="-7.5" font-family="Helvetica,sans-Serif" font-size="10.00">&lt; T *&gt;::dispose</text>
</a>
</g>
</g>
<!-- Node22&#45;&gt;Node24 -->
<g id="edge4" class="edge"><title>Node22&#45;&gt;Node24</title>
<path fill="none" stroke="midnightblue" d="M333.001,-33.6744C340.766,-31.8652 349.635,-29.7985 358.543,-27.723"/>
<polygon fill="midnightblue" stroke="midnightblue" points="332.143,-30.2806 323.198,-35.9587 333.731,-37.098 332.143,-30.2806"/>
</g>
</g>
</svg>
