<?xml version="1.0" encoding="UTF-8" standalone="no"?>
<!DOCTYPE svg PUBLIC "-//W3C//DTD SVG 1.1//EN"
 "http://www.w3.org/Graphics/SVG/1.1/DTD/svg11.dtd">
<!-- Generated by graphviz version 2.36.0 (20140111.2315)
 -->
<!-- Title: exceptions/Exceptions.h Pages: 1 -->
<!--zoomable 140 -->
<svg id="main" version="1.1" xmlns="http://www.w3.org/2000/svg" xmlns:xlink="http://www.w3.org/1999/xlink" xml:space="preserve" onload="init(evt)">
<style type="text/css"><![CDATA[
.edge:hover path { stroke: red; }
.edge:hover polygon { stroke: red; fill: red; }
]]></style>
<script type="text/javascript"><![CDATA[
var edges = document.getElementsByTagName('g');
if (edges && edges.length) {
  for (var i=0;i<edges.length;i++) {
    if (edges[i].id.substr(0,4)=='edge') {
      edges[i].setAttribute('class','edge');
    }
  }
}
]]></script>
        <defs>
                <circle id="rim" cx="0" cy="0" r="7"/>
                <circle id="rim2" cx="0" cy="0" r="3.5"/>
                <g id="zoomPlus">
                        <use xlink:href="#rim" fill="#404040">
                                <set attributeName="fill" to="#808080" begin="zoomplus.mouseover" end="zoomplus.mouseout"/>
                        </use>
                        <path d="M-4,0h8M0,-4v8" fill="none" stroke="white" stroke-width="1.5" pointer-events="none"/>
                </g>
                <g id="zoomMin">
                        <use xlink:href="#rim" fill="#404040">
                                <set attributeName="fill" to="#808080" begin="zoomminus.mouseover" end="zoomminus.mouseout"/>
                        </use>
                        <path d="M-4,0h8" fill="none" stroke="white" stroke-width="1.5" pointer-events="none"/>
                </g>
                <g id="dirArrow">
                        <path fill="none" stroke="white" stroke-width="1.5" d="M0,-3.0v7 M-2.5,-0.5L0,-3.0L2.5,-0.5"/>
                </g>
               <g id="resetDef">
                       <use xlink:href="#rim2" fill="#404040">
                               <set attributeName="fill" to="#808080" begin="reset.mouseover" end="reset.mouseout"/>
                       </use>
               </g>
        </defs>

<script type="text/javascript">
var viewWidth = 948;
var viewHeight = 140;
var sectionId = 'dynsection-1';
</script>
<script xlink:href="../../svgpan.js"/>
<svg id="graph" class="graph">
<g id="viewport">
<title>exceptions/Exceptions.h</title>
<polygon fill="white" stroke="none" points="-4,4 -4,-136 944,-136 944,4 -4,4"/>
<!-- Node1 -->
<g id="node1" class="node"><title>Node1</title>
<polygon fill="#bfbfbf" stroke="black" points="450,-112.5 450,-131.5 574,-131.5 574,-112.5 450,-112.5"/>
<text text-anchor="middle" x="512" y="-119.5" font-family="Helvetica,sans-Serif" font-size="10.00">exceptions/Exceptions.h</text>
</g>
<!-- Node2 -->
<g id="node2" class="node"><title>Node2</title>
<g id="a_node2"><a xlink:href="../../d7/d9e/_exceptions_8cpp.html" target="_top" xlink:title="Implementation of Exceptions using C style. ">
<polygon fill="white" stroke="black" points="0,-56.5 0,-75.5 134,-75.5 134,-56.5 0,-56.5"/>
<text text-anchor="middle" x="67" y="-63.5" font-family="Helvetica,sans-Serif" font-size="10.00">exceptions/Exceptions.cpp</text>
</a>
</g>
</g>
<!-- Node1&#45;&gt;Node2 -->
<g id="edge1" class="edge"><title>Node1&#45;&gt;Node2</title>
<path fill="none" stroke="midnightblue" d="M439.617,-112.216C355.034,-101.953 216.21,-85.1064 134.009,-75.1314"/>
<polygon fill="midnightblue" stroke="midnightblue" points="439.307,-115.704 449.656,-113.435 440.151,-108.755 439.307,-115.704"/>
</g>
<!-- Node3 -->
<g id="node3" class="node"><title>Node3</title>
<g id="a_node3"><a xlink:href="../../df/dcf/_state_machine_8h.html" target="_top" xlink:title="fsm/StateMachine.h">
<polygon fill="white" stroke="black" points="152,-56.5 152,-75.5 256,-75.5 256,-56.5 152,-56.5"/>
<text text-anchor="middle" x="204" y="-63.5" font-family="Helvetica,sans-Serif" font-size="10.00">fsm/StateMachine.h</text>
</a>
</g>
</g>
<!-- Node1&#45;&gt;Node3 -->
<g id="edge2" class="edge"><title>Node1&#45;&gt;Node3</title>
<path fill="none" stroke="midnightblue" d="M453.048,-110.664C394.841,-100.459 306.887,-85.0386 252.575,-75.5164"/>
<polygon fill="midnightblue" stroke="midnightblue" points="452.742,-114.164 463.196,-112.444 453.951,-107.269 452.742,-114.164"/>
</g>
<!-- Node4 -->
<g id="node4" class="node"><title>Node4</title>
<g id="a_node4"><a xlink:href="../../d2/db9/_array_list_8h.html" target="_top" xlink:title="List implementation using an array. ">
<polygon fill="white" stroke="black" points="274.5,-56.5 274.5,-75.5 351.5,-75.5 351.5,-56.5 274.5,-56.5"/>
<text text-anchor="middle" x="313" y="-63.5" font-family="Helvetica,sans-Serif" font-size="10.00">stl/ArrayList.h</text>
</a>
</g>
</g>
<!-- Node1&#45;&gt;Node4 -->
<g id="edge3" class="edge"><title>Node1&#45;&gt;Node4</title>
<path fill="none" stroke="midnightblue" d="M470.352,-109.699C432.794,-99.507 378.386,-84.7429 344.385,-75.5164"/>
<polygon fill="midnightblue" stroke="midnightblue" points="469.9,-113.202 480.468,-112.444 471.733,-106.447 469.9,-113.202"/>
</g>
<!-- Node6 -->
<g id="node6" class="node"><title>Node6</title>
<g id="a_node6"><a xlink:href="../../d3/dbe/_chain_map_8h.html" target="_top" xlink:title="Hasher map implementation. ">
<polygon fill="white" stroke="black" points="369.5,-56.5 369.5,-75.5 452.5,-75.5 452.5,-56.5 369.5,-56.5"/>
<text text-anchor="middle" x="411" y="-63.5" font-family="Helvetica,sans-Serif" font-size="10.00">stl/ChainMap.h</text>
</a>
</g>
</g>
<!-- Node1&#45;&gt;Node6 -->
<g id="edge5" class="edge"><title>Node1&#45;&gt;Node6</title>
<path fill="none" stroke="midnightblue" d="M486.917,-107.59C468.243,-97.6052 443.296,-84.2672 427.187,-75.6545"/>
<polygon fill="midnightblue" stroke="midnightblue" points="485.304,-110.696 495.773,-112.324 488.604,-104.522 485.304,-110.696"/>
</g>
<!-- Node8 -->
<g id="node8" class="node"><title>Node8</title>
<g id="a_node8"><a xlink:href="../../de/dc6/_linked_list_8h.html" target="_top" xlink:title="stl/LinkedList.h">
<polygon fill="white" stroke="black" points="470.5,-56.5 470.5,-75.5 553.5,-75.5 553.5,-56.5 470.5,-56.5"/>
<text text-anchor="middle" x="512" y="-63.5" font-family="Helvetica,sans-Serif" font-size="10.00">stl/LinkedList.h</text>
</a>
</g>
</g>
<!-- Node1&#45;&gt;Node8 -->
<g id="edge7" class="edge"><title>Node1&#45;&gt;Node8</title>
<path fill="none" stroke="midnightblue" d="M512,-101.805C512,-92.9102 512,-82.7798 512,-75.7511"/>
<polygon fill="midnightblue" stroke="midnightblue" points="508.5,-102.083 512,-112.083 515.5,-102.083 508.5,-102.083"/>
</g>
<!-- Node9 -->
<g id="node9" class="node"><title>Node9</title>
<g id="a_node9"><a xlink:href="../../d5/d7a/_open_map_8h.html" target="_top" xlink:title="Hash map implementation. ">
<polygon fill="white" stroke="black" points="572,-56.5 572,-75.5 652,-75.5 652,-56.5 572,-56.5"/>
<text text-anchor="middle" x="612" y="-63.5" font-family="Helvetica,sans-Serif" font-size="10.00">stl/OpenMap.h</text>
</a>
</g>
</g>
<!-- Node1&#45;&gt;Node9 -->
<g id="edge8" class="edge"><title>Node1&#45;&gt;Node9</title>
<path fill="none" stroke="midnightblue" d="M537.088,-107.453C555.549,-97.4835 580.097,-84.2279 595.973,-75.6545"/>
<polygon fill="midnightblue" stroke="midnightblue" points="535.203,-104.493 528.067,-112.324 538.529,-110.652 535.203,-104.493"/>
</g>
<!-- Node11 -->
<g id="node11" class="node"><title>Node11</title>
<g id="a_node11"><a xlink:href="../../d5/d08/_red_black_tree_8h.html" target="_top" xlink:title="Red black tree implementation. ">
<polygon fill="white" stroke="black" points="670.5,-56.5 670.5,-75.5 771.5,-75.5 771.5,-56.5 670.5,-56.5"/>
<text text-anchor="middle" x="721" y="-63.5" font-family="Helvetica,sans-Serif" font-size="10.00">stl/RedBlackTree.h</text>
</a>
</g>
</g>
<!-- Node1&#45;&gt;Node11 -->
<g id="edge10" class="edge"><title>Node1&#45;&gt;Node11</title>
<path fill="none" stroke="midnightblue" d="M554.984,-109.894C594.452,-99.6966 652.1,-84.802 688.038,-75.5164"/>
<polygon fill="midnightblue" stroke="midnightblue" points="553.923,-106.553 545.117,-112.444 555.674,-113.331 553.923,-106.553"/>
</g>
<!-- Node14 -->
<g id="node14" class="node"><title>Node14</title>
<g id="a_node14"><a xlink:href="../../d8/df6/_unique_ptr_8h.html" target="_top" xlink:title="Unique pointer implementation. ">
<polygon fill="white" stroke="black" points="790,-56.5 790,-75.5 872,-75.5 872,-56.5 790,-56.5"/>
<text text-anchor="middle" x="831" y="-63.5" font-family="Helvetica,sans-Serif" font-size="10.00">stl/UniquePtr.h</text>
</a>
</g>
</g>
<!-- Node1&#45;&gt;Node14 -->
<g id="edge13" class="edge"><title>Node1&#45;&gt;Node14</title>
<path fill="none" stroke="midnightblue" d="M573.558,-110.813C627.894,-101.786 709.239,-88.1842 780,-76 783.19,-75.4508 786.491,-74.878 789.809,-74.2992"/>
<polygon fill="midnightblue" stroke="midnightblue" points="572.691,-107.409 563.399,-112.5 573.837,-114.315 572.691,-107.409"/>
</g>
<!-- Node15 -->
<g id="node15" class="node"><title>Node15</title>
<g id="a_node15"><a xlink:href="../../d1/d13/_shared_ptr_8h.html" target="_top" xlink:title="Shared pointer implementation. ">
<polygon fill="white" stroke="black" points="858,-0.5 858,-19.5 940,-19.5 940,-0.5 858,-0.5"/>
<text text-anchor="middle" x="899" y="-7.5" font-family="Helvetica,sans-Serif" font-size="10.00">stl/SharedPtr.h</text>
</a>
</g>
</g>
<!-- Node1&#45;&gt;Node15 -->
<g id="edge15" class="edge"><title>Node1&#45;&gt;Node15</title>
<path fill="none" stroke="midnightblue" d="M584.452,-121.426C679.109,-120.461 837.888,-113.131 881,-76 897.503,-61.7869 899.527,-33.9142 899.4,-19.7339"/>
<polygon fill="midnightblue" stroke="midnightblue" points="584.34,-117.927 574.369,-121.508 584.397,-124.927 584.34,-117.927"/>
</g>
<!-- Node5 -->
<g id="node5" class="node"><title>Node5</title>
<g id="a_node5"><a xlink:href="../../df/d03/_array_heap_8h.html" target="_top" xlink:title="Heap manipulation and implementation. ">
<polygon fill="white" stroke="black" points="269.5,-0.5 269.5,-19.5 354.5,-19.5 354.5,-0.5 269.5,-0.5"/>
<text text-anchor="middle" x="312" y="-7.5" font-family="Helvetica,sans-Serif" font-size="10.00">stl/ArrayHeap.h</text>
</a>
</g>
</g>
<!-- Node4&#45;&gt;Node5 -->
<g id="edge4" class="edge"><title>Node4&#45;&gt;Node5</title>
<path fill="none" stroke="midnightblue" d="M312.645,-45.8045C312.48,-36.9102 312.292,-26.7798 312.162,-19.7511"/>
<polygon fill="midnightblue" stroke="midnightblue" points="309.15,-46.1495 312.835,-56.083 316.149,-46.0199 309.15,-46.1495"/>
</g>
<!-- Node7 -->
<g id="node7" class="node"><title>Node7</title>
<g id="a_node7"><a xlink:href="../../d6/d59/_chain_set_8h.html" target="_top" xlink:title="Hash set implementation. ">
<polygon fill="white" stroke="black" points="372.5,-0.5 372.5,-19.5 451.5,-19.5 451.5,-0.5 372.5,-0.5"/>
<text text-anchor="middle" x="412" y="-7.5" font-family="Helvetica,sans-Serif" font-size="10.00">stl/ChainSet.h</text>
</a>
</g>
</g>
<!-- Node6&#45;&gt;Node7 -->
<g id="edge6" class="edge"><title>Node6&#45;&gt;Node7</title>
<path fill="none" stroke="midnightblue" d="M411.355,-45.8045C411.52,-36.9102 411.708,-26.7798 411.838,-19.7511"/>
<polygon fill="midnightblue" stroke="midnightblue" points="407.851,-46.0199 411.165,-56.083 414.85,-46.1495 407.851,-46.0199"/>
</g>
<!-- Node10 -->
<g id="node10" class="node"><title>Node10</title>
<g id="a_node10"><a xlink:href="../../d0/de6/_open_set_8h.html" target="_top" xlink:title="Hash set implementation. ">
<polygon fill="white" stroke="black" points="573.5,-0.5 573.5,-19.5 650.5,-19.5 650.5,-0.5 573.5,-0.5"/>
<text text-anchor="middle" x="612" y="-7.5" font-family="Helvetica,sans-Serif" font-size="10.00">stl/OpenSet.h</text>
</a>
</g>
</g>
<!-- Node9&#45;&gt;Node10 -->
<g id="edge9" class="edge"><title>Node9&#45;&gt;Node10</title>
<path fill="none" stroke="midnightblue" d="M612,-45.8045C612,-36.9102 612,-26.7798 612,-19.7511"/>
<polygon fill="midnightblue" stroke="midnightblue" points="608.5,-46.083 612,-56.083 615.5,-46.083 608.5,-46.083"/>
</g>
<!-- Node12 -->
<g id="node12" class="node"><title>Node12</title>
<g id="a_node12"><a xlink:href="../../df/d87/_tree_map_8h.html" target="_top" xlink:title="Map implementation using red black tree. ">
<polygon fill="white" stroke="black" points="669.5,-0.5 669.5,-19.5 746.5,-19.5 746.5,-0.5 669.5,-0.5"/>
<text text-anchor="middle" x="708" y="-7.5" font-family="Helvetica,sans-Serif" font-size="10.00">stl/TreeMap.h</text>
</a>
</g>
</g>
<!-- Node11&#45;&gt;Node12 -->
<g id="edge11" class="edge"><title>Node11&#45;&gt;Node12</title>
<path fill="none" stroke="midnightblue" d="M716.45,-46.1005C714.292,-37.1357 711.818,-26.8579 710.107,-19.7511"/>
<polygon fill="midnightblue" stroke="midnightblue" points="713.11,-47.18 718.853,-56.083 719.915,-45.5415 713.11,-47.18"/>
</g>
<!-- Node13 -->
<g id="node13" class="node"><title>Node13</title>
<g id="a_node13"><a xlink:href="../../dd/dba/_tree_set_8h.html" target="_top" xlink:title="Set implementation using red black tree. ">
<polygon fill="white" stroke="black" points="764.5,-0.5 764.5,-19.5 837.5,-19.5 837.5,-0.5 764.5,-0.5"/>
<text text-anchor="middle" x="801" y="-7.5" font-family="Helvetica,sans-Serif" font-size="10.00">stl/TreeSet.h</text>
</a>
</g>
</g>
<!-- Node11&#45;&gt;Node13 -->
<g id="edge12" class="edge"><title>Node11&#45;&gt;Node13</title>
<path fill="none" stroke="midnightblue" d="M742.301,-50.6221C756.915,-40.7574 775.827,-27.9919 788.179,-19.6545"/>
<polygon fill="midnightblue" stroke="midnightblue" points="740.184,-47.8282 733.853,-56.324 744.1,-53.6302 740.184,-47.8282"/>
</g>
<!-- Node14&#45;&gt;Node15 -->
<g id="edge14" class="edge"><title>Node14&#45;&gt;Node15</title>
<path fill="none" stroke="midnightblue" d="M849.762,-50.1008C862,-40.3824 877.559,-28.0269 887.876,-19.8339"/>
<polygon fill="midnightblue" stroke="midnightblue" points="847.58,-47.3642 841.925,-56.324 851.933,-52.846 847.58,-47.3642"/>
</g>
</g>
</svg>
        <g id="navigator" transform="translate(0 0)" fill="#404254">
                <rect fill="#f2f5e9" fill-opacity="0.5" stroke="#606060" stroke-width=".5" x="0" y="0" width="60" height="60"/>
                <use id="zoomplus" xlink:href="#zoomPlus" x="17" y="9" onmousedown="handleZoom(evt,'in')"/>
                <use id="zoomminus" xlink:href="#zoomMin" x="42" y="9" onmousedown="handleZoom(evt,'out')"/>
                <use id="reset" xlink:href="#resetDef" x="30" y="36" onmousedown="handleReset()"/>
                <g id="arrowUp" xlink:href="#dirArrow" transform="translate(30 24)" onmousedown="handlePan(0,-1)">
                  <use xlink:href="#rim" fill="#404040">
                        <set attributeName="fill" to="#808080" begin="arrowUp.mouseover" end="arrowUp.mouseout"/>
                  </use>
                  <path fill="none" stroke="white" stroke-width="1.5" d="M0,-3.0v7 M-2.5,-0.5L0,-3.0L2.5,-0.5"/>
                </g>
                <g id="arrowRight" xlink:href="#dirArrow" transform="rotate(90) translate(36 -43)" onmousedown="handlePan(1,0)">
                  <use xlink:href="#rim" fill="#404040">
                        <set attributeName="fill" to="#808080" begin="arrowRight.mouseover" end="arrowRight.mouseout"/>
                  </use>
                  <path fill="none" stroke="white" stroke-width="1.5" d="M0,-3.0v7 M-2.5,-0.5L0,-3.0L2.5,-0.5"/>
                </g>
                <g id="arrowDown" xlink:href="#dirArrow" transform="rotate(180) translate(-30 -48)" onmousedown="handlePan(0,1)">
                  <use xlink:href="#rim" fill="#404040">
                        <set attributeName="fill" to="#808080" begin="arrowDown.mouseover" end="arrowDown.mouseout"/>
                  </use>
                  <path fill="none" stroke="white" stroke-width="1.5" d="M0,-3.0v7 M-2.5,-0.5L0,-3.0L2.5,-0.5"/>
                </g>
                <g id="arrowLeft" xlink:href="#dirArrow" transform="rotate(270) translate(-36 17)" onmousedown="handlePan(-1,0)">
                  <use xlink:href="#rim" fill="#404040">
                        <set attributeName="fill" to="#808080" begin="arrowLeft.mouseover" end="arrowLeft.mouseout"/>
                  </use>
                  <path fill="none" stroke="white" stroke-width="1.5" d="M0,-3.0v7 M-2.5,-0.5L0,-3.0L2.5,-0.5"/>
                </g>
        </g>
        <svg viewBox="0 0 15 15" width="100%" height="30px" preserveAspectRatio="xMaxYMin meet">
         <g id="arrow_out" transform="scale(0.3 0.3)">
          <a xlink:href="_exceptions_8h__dep__incl_org.svg" target="_base">
           <rect id="button" ry="5" rx="5" y="6" x="6" height="38" width="38"
                fill="#f2f5e9" fill-opacity="0.5" stroke="#606060" stroke-width="1.0"/>
           <path id="arrow"
             d="M 11.500037,31.436501 C 11.940474,20.09759 22.043105,11.32322 32.158766,21.979434 L 37.068811,17.246167 C 37.068811,17.246167 37.088388,32 37.088388,32 L 22.160133,31.978069 C 22.160133,31.978069 26.997745,27.140456 26.997745,27.140456 C 18.528582,18.264221 13.291696,25.230495 11.500037,31.436501 z"
             style="fill:#404040;"/>
          </a>
         </g>
        </svg>
</svg>
