<?xml version="1.0" encoding="UTF-8" standalone="no"?>
<!DOCTYPE svg PUBLIC "-//W3C//DTD SVG 1.1//EN"
 "http://www.w3.org/Graphics/SVG/1.1/DTD/svg11.dtd">
<!-- Generated by graphviz version 2.38.0 (20140413.2041)
 -->
<!-- Title: wlp::ReferenceCount::use_count Pages: 1 -->
<svg width="265pt" height="137pt"
 viewBox="0.00 0.00 265.00 137.00" xmlns="http://www.w3.org/2000/svg" xmlns:xlink="http://www.w3.org/1999/xlink">
<g id="graph0" class="graph" transform="scale(1 1) rotate(0) translate(4 133)">
<title>wlp::ReferenceCount::use_count</title>
<polygon fill="white" stroke="none" points="-4,4 -4,-133 261,-133 261,4 -4,4"/>
<!-- Node35 -->
<g id="node1" class="node"><title>Node35</title>
<polygon fill="#bfbfbf" stroke="black" points="0,-49.5 0,-79.5 106,-79.5 106,-49.5 0,-49.5"/>
<text text-anchor="start" x="8" y="-67.5" font-family="Helvetica,sans-Serif" font-size="10.00">wlp::ReferenceCount</text>
<text text-anchor="middle" x="53" y="-56.5" font-family="Helvetica,sans-Serif" font-size="10.00">::use_count</text>
</g>
<!-- Node36 -->
<g id="node2" class="node"><title>Node36</title>
<g id="a_node2"><a xlink:href="../../da/dbb/classwlp_1_1_shared_count.html#a441d6d0db29c49c22897caadc89bac86" target="_top" xlink:title="wlp::SharedCount\&lt; T\l *\&gt;::unique">
<polygon fill="white" stroke="black" points="146,-98.5 146,-128.5 253,-128.5 253,-98.5 146,-98.5"/>
<text text-anchor="start" x="154" y="-116.5" font-family="Helvetica,sans-Serif" font-size="10.00">wlp::SharedCount&lt; T</text>
<text text-anchor="middle" x="199.5" y="-105.5" font-family="Helvetica,sans-Serif" font-size="10.00"> *&gt;::unique</text>
</a>
</g>
</g>
<!-- Node35&#45;&gt;Node36 -->
<g id="edge1" class="edge"><title>Node35&#45;&gt;Node36</title>
<path fill="none" stroke="midnightblue" d="M108.231,-82.8896C123.276,-87.9916 139.435,-93.4711 153.864,-98.3641"/>
<polygon fill="midnightblue" stroke="midnightblue" points="109.128,-79.4983 98.5338,-79.6014 106.88,-86.1275 109.128,-79.4983"/>
</g>
<!-- Node37 -->
<g id="node3" class="node"><title>Node37</title>
<g id="a_node3"><a xlink:href="../../da/dbb/classwlp_1_1_shared_count.html#a01286e8dfad415bb83dab9b74be78f8e" target="_top" xlink:title="wlp::SharedCount\&lt; T\l *\&gt;::use_count">
<polygon fill="white" stroke="black" points="146,-49.5 146,-79.5 253,-79.5 253,-49.5 146,-49.5"/>
<text text-anchor="start" x="154" y="-67.5" font-family="Helvetica,sans-Serif" font-size="10.00">wlp::SharedCount&lt; T</text>
<text text-anchor="middle" x="199.5" y="-56.5" font-family="Helvetica,sans-Serif" font-size="10.00"> *&gt;::use_count</text>
</a>
</g>
</g>
<!-- Node35&#45;&gt;Node37 -->
<g id="edge2" class="edge"><title>Node35&#45;&gt;Node37</title>
<path fill="none" stroke="midnightblue" d="M116.326,-64.5C126.192,-64.5 136.309,-64.5 145.923,-64.5"/>
<polygon fill="midnightblue" stroke="midnightblue" points="116.168,-61.0001 106.168,-64.5 116.168,-68.0001 116.168,-61.0001"/>
</g>
<!-- Node38 -->
<g id="node4" class="node"><title>Node38</title>
<g id="a_node4"><a xlink:href="../../d4/d8d/classwlp_1_1_weak_count.html#aa5728c823169308403ba9af8a8ffa22b" target="_top" xlink:title="wlp::WeakCount\&lt; T *\&gt;\l::use_count">
<polygon fill="white" stroke="black" points="142,-0.5 142,-30.5 257,-30.5 257,-0.5 142,-0.5"/>
<text text-anchor="start" x="150" y="-18.5" font-family="Helvetica,sans-Serif" font-size="10.00">wlp::WeakCount&lt; T *&gt;</text>
<text text-anchor="middle" x="199.5" y="-7.5" font-family="Helvetica,sans-Serif" font-size="10.00">::use_count</text>
</a>
</g>
</g>
<!-- Node35&#45;&gt;Node38 -->
<g id="edge3" class="edge"><title>Node35&#45;&gt;Node38</title>
<path fill="none" stroke="midnightblue" d="M108.231,-46.1104C123.276,-41.0084 139.435,-35.5289 153.864,-30.6359"/>
<polygon fill="midnightblue" stroke="midnightblue" points="106.88,-42.8725 98.5338,-49.3986 109.128,-49.5017 106.88,-42.8725"/>
</g>
</g>
</svg>
