<?xml version="1.0" encoding="UTF-8" standalone="no"?>
<!DOCTYPE svg PUBLIC "-//W3C//DTD SVG 1.1//EN"
 "http://www.w3.org/Graphics/SVG/1.1/DTD/svg11.dtd">
<!-- Generated by graphviz version 2.38.0 (20140413.2041)
 -->
<!-- Title: wlp::ReferenceCount::add_weak_reference Pages: 1 -->
<svg width="270pt" height="88pt"
 viewBox="0.00 0.00 270.00 88.00" xmlns="http://www.w3.org/2000/svg" xmlns:xlink="http://www.w3.org/1999/xlink">
<g id="graph0" class="graph" transform="scale(1 1) rotate(0) translate(4 84)">
<title>wlp::ReferenceCount::add_weak_reference</title>
<polygon fill="white" stroke="none" points="-4,4 -4,-84 266,-84 266,4 -4,4"/>
<!-- Node14 -->
<g id="node1" class="node"><title>Node14</title>
<polygon fill="#bfbfbf" stroke="black" points="0,-24.5 0,-54.5 111,-54.5 111,-24.5 0,-24.5"/>
<text text-anchor="start" x="8" y="-42.5" font-family="Helvetica,sans-Serif" font-size="10.00">wlp::ReferenceCount</text>
<text text-anchor="middle" x="55.5" y="-31.5" font-family="Helvetica,sans-Serif" font-size="10.00">::add_weak_reference</text>
</g>
<!-- Node15 -->
<g id="node2" class="node"><title>Node15</title>
<g id="a_node2"><a xlink:href="../../d4/d8d/classwlp_1_1_weak_count.html#abddaee93507d08a062246889f28049fe" target="_top" xlink:title="wlp::WeakCount\&lt; T *\&gt;\l::operator=">
<polygon fill="white" stroke="black" points="147,-49.5 147,-79.5 262,-79.5 262,-49.5 147,-49.5"/>
<text text-anchor="start" x="155" y="-67.5" font-family="Helvetica,sans-Serif" font-size="10.00">wlp::WeakCount&lt; T *&gt;</text>
<text text-anchor="middle" x="204.5" y="-56.5" font-family="Helvetica,sans-Serif" font-size="10.00">::operator=</text>
</a>
</g>
</g>
<!-- Node14&#45;&gt;Node15 -->
<g id="edge1" class="edge"><title>Node14&#45;&gt;Node15</title>
<path fill="none" stroke="midnightblue" d="M121.148,-50.4945C129.677,-51.9451 138.368,-53.4231 146.751,-54.8489"/>
<polygon fill="midnightblue" stroke="midnightblue" points="121.683,-47.0353 111.237,-48.8091 120.509,-53.9362 121.683,-47.0353"/>
</g>
<!-- Node16 -->
<g id="node3" class="node"><title>Node16</title>
<g id="a_node3"><a xlink:href="../../d4/d8d/classwlp_1_1_weak_count.html#ab089d0ba538a4053a591f21951e79b5d" target="_top" xlink:title="wlp::WeakCount\&lt; T *\&gt;\l::WeakCount">
<polygon fill="white" stroke="black" points="147,-0.5 147,-30.5 262,-30.5 262,-0.5 147,-0.5"/>
<text text-anchor="start" x="155" y="-18.5" font-family="Helvetica,sans-Serif" font-size="10.00">wlp::WeakCount&lt; T *&gt;</text>
<text text-anchor="middle" x="204.5" y="-7.5" font-family="Helvetica,sans-Serif" font-size="10.00">::WeakCount</text>
</a>
</g>
</g>
<!-- Node14&#45;&gt;Node16 -->
<g id="edge2" class="edge"><title>Node14&#45;&gt;Node16</title>
<path fill="none" stroke="midnightblue" d="M121.148,-28.9452C129.677,-27.5527 138.368,-26.1338 146.751,-24.7651"/>
<polygon fill="midnightblue" stroke="midnightblue" points="120.543,-25.4976 111.237,-30.5633 121.671,-32.4061 120.543,-25.4976"/>
</g>
</g>
</svg>
