<?xml version="1.0" encoding="UTF-8" standalone="no"?>
<!DOCTYPE svg PUBLIC "-//W3C//DTD SVG 1.1//EN"
 "http://www.w3.org/Graphics/SVG/1.1/DTD/svg11.dtd">
<!-- Generated by graphviz version 2.36.0 (20140111.2315)
 -->
<!-- Title: wlp::ReferenceCount::add_weak_reference Pages: 1 -->
<svg width="270pt" height="38pt"
 viewBox="0.00 0.00 270.00 38.00" xmlns="http://www.w3.org/2000/svg" xmlns:xlink="http://www.w3.org/1999/xlink">
<g id="graph0" class="graph" transform="scale(1 1) rotate(0) translate(4 34)">
<title>wlp::ReferenceCount::add_weak_reference</title>
<polygon fill="white" stroke="none" points="-4,4 -4,-34 266,-34 266,4 -4,4"/>
<!-- Node1 -->
<g id="node1" class="node"><title>Node1</title>
<polygon fill="#bfbfbf" stroke="black" points="0.5,-0 0.5,-30 113.5,-30 113.5,-0 0.5,-0"/>
<text text-anchor="start" x="8.5" y="-18" font-family="Helvetica,sans-Serif" font-size="10.00">wlp::ReferenceCount</text>
<text text-anchor="middle" x="57" y="-7" font-family="Helvetica,sans-Serif" font-size="10.00">::add_weak_reference</text>
</g>
<!-- Node2 -->
<g id="node2" class="node"><title>Node2</title>
<g id="a_node2"><a xlink:href="../../d4/d8d/classwlp_1_1_weak_count.html#abddaee93507d08a062246889f28049fe" target="_top" xlink:title="wlp::WeakCount\&lt; T *\l \&gt;::operator=">
<polygon fill="white" stroke="black" points="150.5,-0 150.5,-30 261.5,-30 261.5,-0 150.5,-0"/>
<text text-anchor="start" x="158.5" y="-18" font-family="Helvetica,sans-Serif" font-size="10.00">wlp::WeakCount&lt; T *</text>
<text text-anchor="middle" x="206" y="-7" font-family="Helvetica,sans-Serif" font-size="10.00"> &gt;::operator=</text>
</a>
</g>
</g>
<!-- Node1&#45;&gt;Node2 -->
<g id="edge1" class="edge"><title>Node1&#45;&gt;Node2</title>
<path fill="none" stroke="midnightblue" d="M123.858,-15C132.703,-15 141.698,-15 150.321,-15"/>
<polygon fill="midnightblue" stroke="midnightblue" points="123.574,-11.5001 113.574,-15 123.574,-18.5001 123.574,-11.5001"/>
</g>
</g>
</svg>
