<?xml version="1.0" encoding="UTF-8" standalone="no"?>
<!DOCTYPE svg PUBLIC "-//W3C//DTD SVG 1.1//EN"
 "http://www.w3.org/Graphics/SVG/1.1/DTD/svg11.dtd">
<!-- Generated by graphviz version 2.36.0 (20140111.2315)
 -->
<!-- Title: strings/String.cpp Pages: 1 -->
<svg width="495pt" height="476pt"
 viewBox="0.00 0.00 495.00 476.00" xmlns="http://www.w3.org/2000/svg" xmlns:xlink="http://www.w3.org/1999/xlink">
<g id="graph0" class="graph" transform="scale(1 1) rotate(0) translate(4 472)">
<title>strings/String.cpp</title>
<polygon fill="white" stroke="none" points="-4,4 -4,-472 491,-472 491,4 -4,4"/>
<!-- Node1 -->
<g id="node1" class="node"><title>Node1</title>
<polygon fill="#bfbfbf" stroke="black" points="248.5,-448.5 248.5,-467.5 341.5,-467.5 341.5,-448.5 248.5,-448.5"/>
<text text-anchor="middle" x="295" y="-455.5" font-family="Helvetica,sans-Serif" font-size="10.00">strings/String.cpp</text>
</g>
<!-- Node2 -->
<g id="node2" class="node"><title>Node2</title>
<g id="a_node2"><a xlink:href="../../db/db5/_string_8h.html" target="_top" xlink:title="String.h">
<polygon fill="white" stroke="black" points="270,-392.5 270,-411.5 320,-411.5 320,-392.5 270,-392.5"/>
<text text-anchor="middle" x="295" y="-399.5" font-family="Helvetica,sans-Serif" font-size="10.00">String.h</text>
</a>
</g>
</g>
<!-- Node1&#45;&gt;Node2 -->
<g id="edge1" class="edge"><title>Node1&#45;&gt;Node2</title>
<path fill="none" stroke="midnightblue" d="M295,-448.083C295,-441.006 295,-430.861 295,-421.986"/>
<polygon fill="midnightblue" stroke="midnightblue" points="298.5,-421.751 295,-411.751 291.5,-421.751 298.5,-421.751"/>
</g>
<!-- Node3 -->
<g id="node3" class="node"><title>Node3</title>
<polygon fill="white" stroke="#bfbfbf" points="-0.5,-168.5 -0.5,-187.5 48.5,-187.5 48.5,-168.5 -0.5,-168.5"/>
<text text-anchor="middle" x="24" y="-175.5" font-family="Helvetica,sans-Serif" font-size="10.00">string.h</text>
</g>
<!-- Node2&#45;&gt;Node3 -->
<g id="edge2" class="edge"><title>Node2&#45;&gt;Node3</title>
<path fill="none" stroke="midnightblue" d="M270.764,-392.397C220.98,-373.496 106.712,-323.587 45,-244 34.5641,-230.541 29.2282,-211.728 26.5545,-197.802"/>
<polygon fill="midnightblue" stroke="midnightblue" points="29.9999,-197.184 24.9344,-187.878 23.0913,-198.311 29.9999,-197.184"/>
</g>
<!-- Node4 -->
<g id="node4" class="node"><title>Node4</title>
<g id="a_node4"><a xlink:href="../../de/d0b/_string_iterator_8h.html" target="_top" xlink:title="StringIterator.h">
<polygon fill="white" stroke="black" points="254.5,-336.5 254.5,-355.5 335.5,-355.5 335.5,-336.5 254.5,-336.5"/>
<text text-anchor="middle" x="295" y="-343.5" font-family="Helvetica,sans-Serif" font-size="10.00">StringIterator.h</text>
</a>
</g>
</g>
<!-- Node2&#45;&gt;Node4 -->
<g id="edge3" class="edge"><title>Node2&#45;&gt;Node4</title>
<path fill="none" stroke="midnightblue" d="M295,-392.083C295,-385.006 295,-374.861 295,-365.986"/>
<polygon fill="midnightblue" stroke="midnightblue" points="298.5,-365.751 295,-355.751 291.5,-365.751 298.5,-365.751"/>
</g>
<!-- Node5 -->
<g id="node5" class="node"><title>Node5</title>
<g id="a_node5"><a xlink:href="../../d0/db6/_types_8h.html" target="_top" xlink:title="type definition of all the string types we will be using ">
<polygon fill="white" stroke="black" points="354.5,-56.5 354.5,-75.5 415.5,-75.5 415.5,-56.5 354.5,-56.5"/>
<text text-anchor="middle" x="385" y="-63.5" font-family="Helvetica,sans-Serif" font-size="10.00">../Types.h</text>
</a>
</g>
</g>
<!-- Node2&#45;&gt;Node5 -->
<g id="edge15" class="edge"><title>Node2&#45;&gt;Node5</title>
<path fill="none" stroke="midnightblue" d="M320.101,-398.333C372.145,-391.269 487,-367.064 487,-291 487,-291 487,-291 487,-177 487,-132.392 441.34,-98.2336 411.119,-80.511"/>
<polygon fill="midnightblue" stroke="midnightblue" points="412.733,-77.4036 402.303,-75.5451 409.298,-83.5026 412.733,-77.4036"/>
</g>
<!-- Node13 -->
<g id="node13" class="node"><title>Node13</title>
<g id="a_node13"><a xlink:href="../../da/db8/_math_8h.html" target="_top" xlink:title="../utility/Math.h">
<polygon fill="white" stroke="black" points="354,-336.5 354,-355.5 436,-355.5 436,-336.5 354,-336.5"/>
<text text-anchor="middle" x="395" y="-343.5" font-family="Helvetica,sans-Serif" font-size="10.00">../utility/Math.h</text>
</a>
</g>
</g>
<!-- Node2&#45;&gt;Node13 -->
<g id="edge16" class="edge"><title>Node2&#45;&gt;Node13</title>
<path fill="none" stroke="midnightblue" d="M311.067,-392.324C326.958,-383.743 351.507,-370.486 369.958,-360.522"/>
<polygon fill="midnightblue" stroke="midnightblue" points="371.837,-363.486 378.973,-355.655 368.511,-357.326 371.837,-363.486"/>
</g>
<!-- Node14 -->
<g id="node14" class="node"><title>Node14</title>
<g id="a_node14"><a xlink:href="../../d3/de6/_memory_8h.html" target="_top" xlink:title="Memory is a class that provides dynamic fixed size memory. ">
<polygon fill="white" stroke="black" points="54.5,-224.5 54.5,-243.5 161.5,-243.5 161.5,-224.5 54.5,-224.5"/>
<text text-anchor="middle" x="108" y="-231.5" font-family="Helvetica,sans-Serif" font-size="10.00">../memory/Memory.h</text>
</a>
</g>
</g>
<!-- Node2&#45;&gt;Node14 -->
<g id="edge17" class="edge"><title>Node2&#45;&gt;Node14</title>
<path fill="none" stroke="midnightblue" d="M285.209,-392.309C255.167,-365.64 164.005,-284.716 125.482,-250.519"/>
<polygon fill="midnightblue" stroke="midnightblue" points="127.496,-247.626 117.694,-243.605 122.849,-252.861 127.496,-247.626"/>
</g>
<!-- Node4&#45;&gt;Node5 -->
<g id="edge4" class="edge"><title>Node4&#45;&gt;Node5</title>
<path fill="none" stroke="midnightblue" d="M330.718,-336.429C376.211,-323.134 449,-292.827 449,-235 449,-235 449,-235 449,-177 449,-139.327 420.608,-103.04 401.646,-83.0052"/>
<polygon fill="midnightblue" stroke="midnightblue" points="403.953,-80.3599 394.443,-75.6885 398.964,-85.2705 403.953,-80.3599"/>
</g>
<!-- Node7 -->
<g id="node7" class="node"><title>Node7</title>
<g id="a_node7"><a xlink:href="../../d8/dd7/_concept_8h.html" target="_top" xlink:title="Concept definitions. ">
<polygon fill="white" stroke="black" points="253,-280.5 253,-299.5 337,-299.5 337,-280.5 253,-280.5"/>
<text text-anchor="middle" x="295" y="-287.5" font-family="Helvetica,sans-Serif" font-size="10.00">../stl/Concept.h</text>
</a>
</g>
</g>
<!-- Node4&#45;&gt;Node7 -->
<g id="edge6" class="edge"><title>Node4&#45;&gt;Node7</title>
<path fill="none" stroke="midnightblue" d="M295,-336.083C295,-329.006 295,-318.861 295,-309.986"/>
<polygon fill="midnightblue" stroke="midnightblue" points="298.5,-309.751 295,-299.751 291.5,-309.751 298.5,-309.751"/>
</g>
<!-- Node6 -->
<g id="node6" class="node"><title>Node6</title>
<polygon fill="white" stroke="#bfbfbf" points="360.5,-0.5 360.5,-19.5 409.5,-19.5 409.5,-0.5 360.5,-0.5"/>
<text text-anchor="middle" x="385" y="-7.5" font-family="Helvetica,sans-Serif" font-size="10.00">stdint.h</text>
</g>
<!-- Node5&#45;&gt;Node6 -->
<g id="edge5" class="edge"><title>Node5&#45;&gt;Node6</title>
<path fill="none" stroke="midnightblue" d="M385,-56.083C385,-49.0059 385,-38.8611 385,-29.9865"/>
<polygon fill="midnightblue" stroke="midnightblue" points="388.5,-29.751 385,-19.7511 381.5,-29.7511 388.5,-29.751"/>
</g>
<!-- Node8 -->
<g id="node8" class="node"><title>Node8</title>
<g id="a_node8"><a xlink:href="../../d4/dda/_pair_8h.html" target="_top" xlink:title="Implementation of a 2&#45;element tuple. ">
<polygon fill="white" stroke="black" points="251,-224.5 251,-243.5 293,-243.5 293,-224.5 251,-224.5"/>
<text text-anchor="middle" x="272" y="-231.5" font-family="Helvetica,sans-Serif" font-size="10.00">Pair.h</text>
</a>
</g>
</g>
<!-- Node7&#45;&gt;Node8 -->
<g id="edge7" class="edge"><title>Node7&#45;&gt;Node8</title>
<path fill="none" stroke="midnightblue" d="M291.202,-280.083C288.087,-272.77 283.577,-262.181 279.711,-253.103"/>
<polygon fill="midnightblue" stroke="midnightblue" points="282.866,-251.58 275.727,-243.751 276.426,-254.323 282.866,-251.58"/>
</g>
<!-- Node10 -->
<g id="node10" class="node"><title>Node10</title>
<g id="a_node10"><a xlink:href="../../d2/d37/_tmp_8h.html" target="_top" xlink:title="Template helper types, structs, and metafunctions. ">
<polygon fill="white" stroke="black" points="299,-112.5 299,-131.5 343,-131.5 343,-112.5 299,-112.5"/>
<text text-anchor="middle" x="321" y="-119.5" font-family="Helvetica,sans-Serif" font-size="10.00">Tmp.h</text>
</a>
</g>
</g>
<!-- Node7&#45;&gt;Node10 -->
<g id="edge14" class="edge"><title>Node7&#45;&gt;Node10</title>
<path fill="none" stroke="midnightblue" d="M296.398,-280.075C300.49,-253.945 312.509,-177.211 318.09,-141.577"/>
<polygon fill="midnightblue" stroke="midnightblue" points="321.568,-141.989 319.658,-131.568 314.653,-140.906 321.568,-141.989"/>
</g>
<!-- Node11 -->
<g id="node11" class="node"><title>Node11</title>
<g id="a_node11"><a xlink:href="../../d4/dd5/_type_traits_8h.html" target="_top" xlink:title="Metafunctions for types. ">
<polygon fill="white" stroke="black" points="349.5,-168.5 349.5,-187.5 420.5,-187.5 420.5,-168.5 349.5,-168.5"/>
<text text-anchor="middle" x="385" y="-175.5" font-family="Helvetica,sans-Serif" font-size="10.00">TypeTraits.h</text>
</a>
</g>
</g>
<!-- Node7&#45;&gt;Node11 -->
<g id="edge11" class="edge"><title>Node7&#45;&gt;Node11</title>
<path fill="none" stroke="midnightblue" d="M303.159,-280.198C311.379,-271.243 324.339,-256.886 335,-244 348.273,-227.957 362.699,-209.03 372.629,-195.75"/>
<polygon fill="midnightblue" stroke="midnightblue" points="375.558,-197.677 378.715,-187.564 369.94,-193.501 375.558,-197.677"/>
</g>
<!-- Node12 -->
<g id="node12" class="node"><title>Node12</title>
<g id="a_node12"><a xlink:href="../../d2/db4/_wlib_8h.html" target="_top" xlink:title="../Wlib.h">
<polygon fill="white" stroke="black" points="179.5,-224.5 179.5,-243.5 232.5,-243.5 232.5,-224.5 179.5,-224.5"/>
<text text-anchor="middle" x="206" y="-231.5" font-family="Helvetica,sans-Serif" font-size="10.00">../Wlib.h</text>
</a>
</g>
</g>
<!-- Node7&#45;&gt;Node12 -->
<g id="edge13" class="edge"><title>Node7&#45;&gt;Node12</title>
<path fill="none" stroke="midnightblue" d="M280.701,-280.324C266.817,-271.9 245.508,-258.971 229.196,-249.074"/>
<polygon fill="midnightblue" stroke="midnightblue" points="230.629,-245.85 220.264,-243.655 226.998,-251.834 230.629,-245.85"/>
</g>
<!-- Node9 -->
<g id="node9" class="node"><title>Node9</title>
<g id="a_node9"><a xlink:href="../../db/d2a/_utility_8h.html" target="_top" xlink:title="Various helper functions. ">
<polygon fill="white" stroke="black" points="207,-168.5 207,-187.5 293,-187.5 293,-168.5 207,-168.5"/>
<text text-anchor="middle" x="250" y="-175.5" font-family="Helvetica,sans-Serif" font-size="10.00">../utility/Utility.h</text>
</a>
</g>
</g>
<!-- Node8&#45;&gt;Node9 -->
<g id="edge8" class="edge"><title>Node8&#45;&gt;Node9</title>
<path fill="none" stroke="midnightblue" d="M268.367,-224.083C265.388,-216.77 261.074,-206.181 257.375,-197.103"/>
<polygon fill="midnightblue" stroke="midnightblue" points="260.58,-195.691 253.565,-187.751 254.097,-198.333 260.58,-195.691"/>
</g>
<!-- Node9&#45;&gt;Node10 -->
<g id="edge9" class="edge"><title>Node9&#45;&gt;Node10</title>
<path fill="none" stroke="midnightblue" d="M261.407,-168.324C272.109,-160.185 288.341,-147.839 301.163,-138.087"/>
<polygon fill="midnightblue" stroke="midnightblue" points="303.544,-140.673 309.385,-131.834 299.307,-135.102 303.544,-140.673"/>
</g>
<!-- Node10&#45;&gt;Node5 -->
<g id="edge10" class="edge"><title>Node10&#45;&gt;Node5</title>
<path fill="none" stroke="midnightblue" d="M331.283,-112.324C340.836,-104.263 355.28,-92.0765 366.784,-82.3695"/>
<polygon fill="midnightblue" stroke="midnightblue" points="369.144,-84.9577 374.53,-75.8339 364.63,-79.6076 369.144,-84.9577"/>
</g>
<!-- Node11&#45;&gt;Node10 -->
<g id="edge12" class="edge"><title>Node11&#45;&gt;Node10</title>
<path fill="none" stroke="midnightblue" d="M374.717,-168.324C365.164,-160.263 350.72,-148.077 339.216,-138.369"/>
<polygon fill="midnightblue" stroke="midnightblue" points="341.37,-135.608 331.47,-131.834 336.856,-140.958 341.37,-135.608"/>
</g>
<!-- Node14&#45;&gt;Node3 -->
<g id="edge18" class="edge"><title>Node14&#45;&gt;Node3</title>
<path fill="none" stroke="midnightblue" d="M94.5039,-224.324C81.4004,-215.9 61.2881,-202.971 45.8931,-193.074"/>
<polygon fill="midnightblue" stroke="midnightblue" points="47.767,-190.118 37.4626,-187.655 43.9817,-196.006 47.767,-190.118"/>
</g>
<!-- Node14&#45;&gt;Node5 -->
<g id="edge20" class="edge"><title>Node14&#45;&gt;Node5</title>
<path fill="none" stroke="midnightblue" d="M106.471,-224.368C104.587,-210.825 103.057,-184.436 116,-168 171.898,-97.013 283.356,-75.9164 343.772,-69.6483"/>
<polygon fill="midnightblue" stroke="midnightblue" points="344.454,-73.0995 354.079,-68.672 343.794,-66.1306 344.454,-73.0995"/>
</g>
<!-- Node14&#45;&gt;Node9 -->
<g id="edge19" class="edge"><title>Node14&#45;&gt;Node9</title>
<path fill="none" stroke="midnightblue" d="M130.5,-224.444C154.077,-215.478 191.322,-201.314 217.964,-191.183"/>
<polygon fill="midnightblue" stroke="midnightblue" points="219.502,-194.342 227.605,-187.516 217.014,-187.8 219.502,-194.342"/>
</g>
<!-- Node14&#45;&gt;Node10 -->
<g id="edge21" class="edge"><title>Node14&#45;&gt;Node10</title>
<path fill="none" stroke="midnightblue" d="M108.934,-224.396C110.925,-210.402 116.904,-182.791 134,-168 177.697,-130.196 247.758,-122.938 288.579,-122.204"/>
<polygon fill="midnightblue" stroke="midnightblue" points="288.802,-125.703 298.782,-122.146 288.762,-118.703 288.802,-125.703"/>
</g>
<!-- Node15 -->
<g id="node15" class="node"><title>Node15</title>
<g id="a_node15"><a xlink:href="../../d9/d8a/_new_8h.html" target="_top" xlink:title="New operators defined for Arduino boards and for other boards use the normal new. ...">
<polygon fill="white" stroke="black" points="143.5,-168.5 143.5,-187.5 188.5,-187.5 188.5,-168.5 143.5,-168.5"/>
<text text-anchor="middle" x="166" y="-175.5" font-family="Helvetica,sans-Serif" font-size="10.00">New.h</text>
</a>
</g>
</g>
<!-- Node14&#45;&gt;Node15 -->
<g id="edge22" class="edge"><title>Node14&#45;&gt;Node15</title>
<path fill="none" stroke="midnightblue" d="M117.319,-224.324C125.893,-216.341 138.812,-204.313 149.188,-194.653"/>
<polygon fill="midnightblue" stroke="midnightblue" points="151.578,-197.21 156.512,-187.834 146.808,-192.086 151.578,-197.21"/>
</g>
</g>
</svg>
