<?xml version="1.0" encoding="UTF-8" standalone="no"?>
<!DOCTYPE svg PUBLIC "-//W3C//DTD SVG 1.1//EN"
 "http://www.w3.org/Graphics/SVG/1.1/DTD/svg11.dtd">
<!-- Generated by graphviz version 2.36.0 (20140111.2315)
 -->
<!-- Title: strings/String.cpp Pages: 1 -->
<svg width="485pt" height="476pt"
 viewBox="0.00 0.00 485.00 476.00" xmlns="http://www.w3.org/2000/svg" xmlns:xlink="http://www.w3.org/1999/xlink">
<g id="graph0" class="graph" transform="scale(1 1) rotate(0) translate(4 472)">
<title>strings/String.cpp</title>
<polygon fill="white" stroke="none" points="-4,4 -4,-472 481,-472 481,4 -4,4"/>
<!-- Node1 -->
<g id="node1" class="node"><title>Node1</title>
<polygon fill="#bfbfbf" stroke="black" points="89.5,-448.5 89.5,-467.5 182.5,-467.5 182.5,-448.5 89.5,-448.5"/>
<text text-anchor="middle" x="136" y="-455.5" font-family="Helvetica,sans-Serif" font-size="10.00">strings/String.cpp</text>
</g>
<!-- Node2 -->
<g id="node2" class="node"><title>Node2</title>
<g id="a_node2"><a xlink:href="../../db/db5/_string_8h.html" target="_top" xlink:title="String.h">
<polygon fill="white" stroke="black" points="111,-392.5 111,-411.5 161,-411.5 161,-392.5 111,-392.5"/>
<text text-anchor="middle" x="136" y="-399.5" font-family="Helvetica,sans-Serif" font-size="10.00">String.h</text>
</a>
</g>
</g>
<!-- Node1&#45;&gt;Node2 -->
<g id="edge1" class="edge"><title>Node1&#45;&gt;Node2</title>
<path fill="none" stroke="midnightblue" d="M136,-448.083C136,-441.006 136,-430.861 136,-421.986"/>
<polygon fill="midnightblue" stroke="midnightblue" points="139.5,-421.751 136,-411.751 132.5,-421.751 139.5,-421.751"/>
</g>
<!-- Node3 -->
<g id="node3" class="node"><title>Node3</title>
<polygon fill="white" stroke="#bfbfbf" points="28.5,-168.5 28.5,-187.5 77.5,-187.5 77.5,-168.5 28.5,-168.5"/>
<text text-anchor="middle" x="53" y="-175.5" font-family="Helvetica,sans-Serif" font-size="10.00">string.h</text>
</g>
<!-- Node2&#45;&gt;Node3 -->
<g id="edge2" class="edge"><title>Node2&#45;&gt;Node3</title>
<path fill="none" stroke="midnightblue" d="M132.188,-392.245C121.953,-368.591 93.2773,-301.314 73,-244 67.5237,-228.521 62.0954,-210.679 58.2789,-197.608"/>
<polygon fill="midnightblue" stroke="midnightblue" points="61.6163,-196.549 55.4864,-187.908 54.8894,-198.486 61.6163,-196.549"/>
</g>
<!-- Node4 -->
<g id="node4" class="node"><title>Node4</title>
<g id="a_node4"><a xlink:href="../../de/d0b/_string_iterator_8h.html" target="_top" xlink:title="StringIterator.h">
<polygon fill="white" stroke="black" points="211.5,-336.5 211.5,-355.5 292.5,-355.5 292.5,-336.5 211.5,-336.5"/>
<text text-anchor="middle" x="252" y="-343.5" font-family="Helvetica,sans-Serif" font-size="10.00">StringIterator.h</text>
</a>
</g>
</g>
<!-- Node2&#45;&gt;Node4 -->
<g id="edge3" class="edge"><title>Node2&#45;&gt;Node4</title>
<path fill="none" stroke="midnightblue" d="M154.381,-392.444C173.216,-383.675 202.731,-369.935 224.379,-359.858"/>
<polygon fill="midnightblue" stroke="midnightblue" points="226.117,-362.91 233.705,-355.516 223.162,-356.564 226.117,-362.91"/>
</g>
<!-- Node5 -->
<g id="node5" class="node"><title>Node5</title>
<g id="a_node5"><a xlink:href="../../d0/db6/_types_8h.html" target="_top" xlink:title="type definition of all the string types we will be using ">
<polygon fill="white" stroke="black" points="192.5,-56.5 192.5,-75.5 253.5,-75.5 253.5,-56.5 192.5,-56.5"/>
<text text-anchor="middle" x="223" y="-63.5" font-family="Helvetica,sans-Serif" font-size="10.00">../Types.h</text>
</a>
</g>
</g>
<!-- Node2&#45;&gt;Node5 -->
<g id="edge15" class="edge"><title>Node2&#45;&gt;Node5</title>
<path fill="none" stroke="midnightblue" d="M110.738,-393.384C71.408,-379.783 0,-347.332 0,-291 0,-291 0,-291 0,-177 0,-96.6459 117.895,-74.9886 182.241,-69.1523"/>
<polygon fill="midnightblue" stroke="midnightblue" points="182.779,-72.6201 192.46,-68.3173 182.209,-65.6434 182.779,-72.6201"/>
</g>
<!-- Node13 -->
<g id="node13" class="node"><title>Node13</title>
<g id="a_node13"><a xlink:href="../../da/db8/_math_8h.html" target="_top" xlink:title="../utility/Math.h">
<polygon fill="white" stroke="black" points="311,-336.5 311,-355.5 393,-355.5 393,-336.5 311,-336.5"/>
<text text-anchor="middle" x="352" y="-343.5" font-family="Helvetica,sans-Serif" font-size="10.00">../utility/Math.h</text>
</a>
</g>
</g>
<!-- Node2&#45;&gt;Node13 -->
<g id="edge16" class="edge"><title>Node2&#45;&gt;Node13</title>
<path fill="none" stroke="midnightblue" d="M161.201,-394.7C197.13,-385.718 263.612,-369.097 307.83,-358.042"/>
<polygon fill="midnightblue" stroke="midnightblue" points="308.881,-361.388 317.733,-355.567 307.183,-354.597 308.881,-361.388"/>
</g>
<!-- Node14 -->
<g id="node14" class="node"><title>Node14</title>
<g id="a_node14"><a xlink:href="../../d3/de6/_memory_8h.html" target="_top" xlink:title="Memory is a class that provides dynamic fixed size memory. ">
<polygon fill="white" stroke="black" points="82.5,-224.5 82.5,-243.5 189.5,-243.5 189.5,-224.5 82.5,-224.5"/>
<text text-anchor="middle" x="136" y="-231.5" font-family="Helvetica,sans-Serif" font-size="10.00">../memory/Memory.h</text>
</a>
</g>
</g>
<!-- Node2&#45;&gt;Node14 -->
<g id="edge17" class="edge"><title>Node2&#45;&gt;Node14</title>
<path fill="none" stroke="midnightblue" d="M136,-392.075C136,-365.945 136,-289.211 136,-253.577"/>
<polygon fill="midnightblue" stroke="midnightblue" points="139.5,-253.568 136,-243.568 132.5,-253.568 139.5,-253.568"/>
</g>
<!-- Node4&#45;&gt;Node5 -->
<g id="edge4" class="edge"><title>Node4&#45;&gt;Node5</title>
<path fill="none" stroke="midnightblue" d="M284.237,-336.461C346.452,-319.027 477,-277.394 477,-235 477,-235 477,-235 477,-177 477,-85.1664 335.459,-69.1413 263.695,-66.9182"/>
<polygon fill="midnightblue" stroke="midnightblue" points="263.717,-63.4179 253.638,-66.683 263.554,-70.4159 263.717,-63.4179"/>
</g>
<!-- Node7 -->
<g id="node7" class="node"><title>Node7</title>
<g id="a_node7"><a xlink:href="../../d8/dd7/_concept_8h.html" target="_top" xlink:title="Concept definitions. ">
<polygon fill="white" stroke="black" points="258,-280.5 258,-299.5 342,-299.5 342,-280.5 258,-280.5"/>
<text text-anchor="middle" x="300" y="-287.5" font-family="Helvetica,sans-Serif" font-size="10.00">../stl/Concept.h</text>
</a>
</g>
</g>
<!-- Node4&#45;&gt;Node7 -->
<g id="edge6" class="edge"><title>Node4&#45;&gt;Node7</title>
<path fill="none" stroke="midnightblue" d="M259.926,-336.083C266.846,-328.298 277.065,-316.801 285.452,-307.367"/>
<polygon fill="midnightblue" stroke="midnightblue" points="288.194,-309.55 292.221,-299.751 282.962,-304.9 288.194,-309.55"/>
</g>
<!-- Node6 -->
<g id="node6" class="node"><title>Node6</title>
<polygon fill="white" stroke="#bfbfbf" points="198.5,-0.5 198.5,-19.5 247.5,-19.5 247.5,-0.5 198.5,-0.5"/>
<text text-anchor="middle" x="223" y="-7.5" font-family="Helvetica,sans-Serif" font-size="10.00">stdint.h</text>
</g>
<!-- Node5&#45;&gt;Node6 -->
<g id="edge5" class="edge"><title>Node5&#45;&gt;Node6</title>
<path fill="none" stroke="midnightblue" d="M223,-56.083C223,-49.0059 223,-38.8611 223,-29.9865"/>
<polygon fill="midnightblue" stroke="midnightblue" points="226.5,-29.751 223,-19.7511 219.5,-29.7511 226.5,-29.751"/>
</g>
<!-- Node8 -->
<g id="node8" class="node"><title>Node8</title>
<g id="a_node8"><a xlink:href="../../d4/dda/_pair_8h.html" target="_top" xlink:title="Implementation of a 2&#45;element tuple. ">
<polygon fill="white" stroke="black" points="279,-224.5 279,-243.5 321,-243.5 321,-224.5 279,-224.5"/>
<text text-anchor="middle" x="300" y="-231.5" font-family="Helvetica,sans-Serif" font-size="10.00">Pair.h</text>
</a>
</g>
</g>
<!-- Node7&#45;&gt;Node8 -->
<g id="edge7" class="edge"><title>Node7&#45;&gt;Node8</title>
<path fill="none" stroke="midnightblue" d="M300,-280.083C300,-273.006 300,-262.861 300,-253.986"/>
<polygon fill="midnightblue" stroke="midnightblue" points="303.5,-253.751 300,-243.751 296.5,-253.751 303.5,-253.751"/>
</g>
<!-- Node10 -->
<g id="node10" class="node"><title>Node10</title>
<g id="a_node10"><a xlink:href="../../d2/d37/_tmp_8h.html" target="_top" xlink:title="Template helper types, structs, and metafunctions. ">
<polygon fill="white" stroke="black" points="256,-112.5 256,-131.5 300,-131.5 300,-112.5 256,-112.5"/>
<text text-anchor="middle" x="278" y="-119.5" font-family="Helvetica,sans-Serif" font-size="10.00">Tmp.h</text>
</a>
</g>
</g>
<!-- Node7&#45;&gt;Node10 -->
<g id="edge14" class="edge"><title>Node7&#45;&gt;Node10</title>
<path fill="none" stroke="midnightblue" d="M307.618,-280.442C314.683,-271.898 324.728,-258.05 329,-244 338.826,-211.68 344.043,-198.724 330,-168 324.223,-155.36 312.948,-144.911 302.369,-137.274"/>
<polygon fill="midnightblue" stroke="midnightblue" points="304.042,-134.182 293.783,-131.533 300.151,-140.001 304.042,-134.182"/>
</g>
<!-- Node11 -->
<g id="node11" class="node"><title>Node11</title>
<g id="a_node11"><a xlink:href="../../d4/dd5/_type_traits_8h.html" target="_top" xlink:title="Metafunctions for types. ">
<polygon fill="white" stroke="black" points="377.5,-168.5 377.5,-187.5 448.5,-187.5 448.5,-168.5 377.5,-168.5"/>
<text text-anchor="middle" x="413" y="-175.5" font-family="Helvetica,sans-Serif" font-size="10.00">TypeTraits.h</text>
</a>
</g>
</g>
<!-- Node7&#45;&gt;Node11 -->
<g id="edge11" class="edge"><title>Node7&#45;&gt;Node11</title>
<path fill="none" stroke="midnightblue" d="M314.423,-280.431C327.819,-272.086 347.913,-258.562 363,-244 378.148,-229.379 392.479,-209.961 401.883,-196.167"/>
<polygon fill="midnightblue" stroke="midnightblue" points="404.929,-197.907 407.555,-187.643 399.101,-194.029 404.929,-197.907"/>
</g>
<!-- Node12 -->
<g id="node12" class="node"><title>Node12</title>
<g id="a_node12"><a xlink:href="../../d2/db4/_wlib_8h.html" target="_top" xlink:title="../Wlib.h">
<polygon fill="white" stroke="black" points="207.5,-224.5 207.5,-243.5 260.5,-243.5 260.5,-224.5 207.5,-224.5"/>
<text text-anchor="middle" x="234" y="-231.5" font-family="Helvetica,sans-Serif" font-size="10.00">../Wlib.h</text>
</a>
</g>
</g>
<!-- Node7&#45;&gt;Node12 -->
<g id="edge13" class="edge"><title>Node7&#45;&gt;Node12</title>
<path fill="none" stroke="midnightblue" d="M289.396,-280.324C279.544,-272.263 264.649,-260.077 252.785,-250.369"/>
<polygon fill="midnightblue" stroke="midnightblue" points="254.753,-247.457 244.797,-243.834 250.32,-252.875 254.753,-247.457"/>
</g>
<!-- Node9 -->
<g id="node9" class="node"><title>Node9</title>
<g id="a_node9"><a xlink:href="../../db/d2a/_utility_8h.html" target="_top" xlink:title="Various helper functions. ">
<polygon fill="white" stroke="black" points="235,-168.5 235,-187.5 321,-187.5 321,-168.5 235,-168.5"/>
<text text-anchor="middle" x="278" y="-175.5" font-family="Helvetica,sans-Serif" font-size="10.00">../utility/Utility.h</text>
</a>
</g>
</g>
<!-- Node8&#45;&gt;Node9 -->
<g id="edge8" class="edge"><title>Node8&#45;&gt;Node9</title>
<path fill="none" stroke="midnightblue" d="M296.367,-224.083C293.388,-216.77 289.074,-206.181 285.375,-197.103"/>
<polygon fill="midnightblue" stroke="midnightblue" points="288.58,-195.691 281.565,-187.751 282.097,-198.333 288.58,-195.691"/>
</g>
<!-- Node9&#45;&gt;Node10 -->
<g id="edge9" class="edge"><title>Node9&#45;&gt;Node10</title>
<path fill="none" stroke="midnightblue" d="M278,-168.083C278,-161.006 278,-150.861 278,-141.986"/>
<polygon fill="midnightblue" stroke="midnightblue" points="281.5,-141.751 278,-131.751 274.5,-141.751 281.5,-141.751"/>
</g>
<!-- Node10&#45;&gt;Node5 -->
<g id="edge10" class="edge"><title>Node10&#45;&gt;Node5</title>
<path fill="none" stroke="midnightblue" d="M268.918,-112.083C260.829,-104.141 248.805,-92.3354 239.09,-82.7973"/>
<polygon fill="midnightblue" stroke="midnightblue" points="241.501,-80.2595 231.913,-75.7511 236.597,-85.2545 241.501,-80.2595"/>
</g>
<!-- Node11&#45;&gt;Node10 -->
<g id="edge12" class="edge"><title>Node11&#45;&gt;Node10</title>
<path fill="none" stroke="midnightblue" d="M391.609,-168.444C369.293,-159.517 334.097,-145.439 308.792,-135.317"/>
<polygon fill="midnightblue" stroke="midnightblue" points="309.876,-131.981 299.291,-131.516 307.276,-138.48 309.876,-131.981"/>
</g>
<!-- Node14&#45;&gt;Node3 -->
<g id="edge18" class="edge"><title>Node14&#45;&gt;Node3</title>
<path fill="none" stroke="midnightblue" d="M122.665,-224.324C109.838,-215.979 90.215,-203.212 75.0602,-193.352"/>
<polygon fill="midnightblue" stroke="midnightblue" points="76.5932,-190.174 66.3023,-187.655 72.7757,-196.042 76.5932,-190.174"/>
</g>
<!-- Node14&#45;&gt;Node5 -->
<g id="edge20" class="edge"><title>Node14&#45;&gt;Node5</title>
<path fill="none" stroke="midnightblue" d="M140.677,-224.075C154.491,-197.719 195.287,-119.878 213.744,-84.6608"/>
<polygon fill="midnightblue" stroke="midnightblue" points="216.967,-86.0501 218.509,-75.5681 210.767,-82.8007 216.967,-86.0501"/>
</g>
<!-- Node14&#45;&gt;Node9 -->
<g id="edge19" class="edge"><title>Node14&#45;&gt;Node9</title>
<path fill="none" stroke="midnightblue" d="M158.5,-224.444C182.077,-215.478 219.322,-201.314 245.964,-191.183"/>
<polygon fill="midnightblue" stroke="midnightblue" points="247.502,-194.342 255.605,-187.516 245.014,-187.8 247.502,-194.342"/>
</g>
<!-- Node14&#45;&gt;Node10 -->
<g id="edge21" class="edge"><title>Node14&#45;&gt;Node10</title>
<path fill="none" stroke="midnightblue" d="M147.143,-224.368C171.302,-205.653 228.751,-161.151 258.853,-137.832"/>
<polygon fill="midnightblue" stroke="midnightblue" points="261.147,-140.482 266.909,-131.591 256.86,-134.949 261.147,-140.482"/>
</g>
<!-- Node15 -->
<g id="node15" class="node"><title>Node15</title>
<g id="a_node15"><a xlink:href="../../d9/d8a/_new_8h.html" target="_top" xlink:title="New operators defined for Arduino boards and for other boards use the normal new. ...">
<polygon fill="white" stroke="black" points="95.5,-168.5 95.5,-187.5 140.5,-187.5 140.5,-168.5 95.5,-168.5"/>
<text text-anchor="middle" x="118" y="-175.5" font-family="Helvetica,sans-Serif" font-size="10.00">New.h</text>
</a>
</g>
</g>
<!-- Node14&#45;&gt;Node15 -->
<g id="edge22" class="edge"><title>Node14&#45;&gt;Node15</title>
<path fill="none" stroke="midnightblue" d="M133.028,-224.083C130.616,-216.849 127.136,-206.409 124.132,-197.397"/>
<polygon fill="midnightblue" stroke="midnightblue" points="127.4,-196.131 120.917,-187.751 120.759,-198.345 127.4,-196.131"/>
</g>
<!-- Node16 -->
<g id="node16" class="node"><title>Node16</title>
<polygon fill="white" stroke="#bfbfbf" points="100.5,-112.5 100.5,-131.5 135.5,-131.5 135.5,-112.5 100.5,-112.5"/>
<text text-anchor="middle" x="118" y="-119.5" font-family="Helvetica,sans-Serif" font-size="10.00">new</text>
</g>
<!-- Node15&#45;&gt;Node16 -->
<g id="edge23" class="edge"><title>Node15&#45;&gt;Node16</title>
<path fill="none" stroke="midnightblue" d="M118,-168.083C118,-161.006 118,-150.861 118,-141.986"/>
<polygon fill="midnightblue" stroke="midnightblue" points="121.5,-141.751 118,-131.751 114.5,-141.751 121.5,-141.751"/>
</g>
</g>
</svg>
