<?xml version="1.0" encoding="UTF-8" standalone="no"?>
<!DOCTYPE svg PUBLIC "-//W3C//DTD SVG 1.1//EN"
 "http://www.w3.org/Graphics/SVG/1.1/DTD/svg11.dtd">
<!-- Generated by graphviz version 2.36.0 (20140111.2315)
 -->
<!-- Title: wlp::ChainHashSet&lt; Key, Hash, Equal &gt; Pages: 1 -->
<!--zoomable 224 -->
<svg id="main" version="1.1" xmlns="http://www.w3.org/2000/svg" xmlns:xlink="http://www.w3.org/1999/xlink" xml:space="preserve" onload="init(evt)">
<style type="text/css"><![CDATA[
.edge:hover path { stroke: red; }
.edge:hover polygon { stroke: red; fill: red; }
]]></style>
<script type="text/javascript"><![CDATA[
var edges = document.getElementsByTagName('g');
if (edges && edges.length) {
  for (var i=0;i<edges.length;i++) {
    if (edges[i].id.substr(0,4)=='edge') {
      edges[i].setAttribute('class','edge');
    }
  }
}
]]></script>
        <defs>
                <circle id="rim" cx="0" cy="0" r="7"/>
                <circle id="rim2" cx="0" cy="0" r="3.5"/>
                <g id="zoomPlus">
                        <use xlink:href="#rim" fill="#404040">
                                <set attributeName="fill" to="#808080" begin="zoomplus.mouseover" end="zoomplus.mouseout"/>
                        </use>
                        <path d="M-4,0h8M0,-4v8" fill="none" stroke="white" stroke-width="1.5" pointer-events="none"/>
                </g>
                <g id="zoomMin">
                        <use xlink:href="#rim" fill="#404040">
                                <set attributeName="fill" to="#808080" begin="zoomminus.mouseover" end="zoomminus.mouseout"/>
                        </use>
                        <path d="M-4,0h8" fill="none" stroke="white" stroke-width="1.5" pointer-events="none"/>
                </g>
                <g id="dirArrow">
                        <path fill="none" stroke="white" stroke-width="1.5" d="M0,-3.0v7 M-2.5,-0.5L0,-3.0L2.5,-0.5"/>
                </g>
               <g id="resetDef">
                       <use xlink:href="#rim2" fill="#404040">
                               <set attributeName="fill" to="#808080" begin="reset.mouseover" end="reset.mouseout"/>
                       </use>
               </g>
        </defs>

<script type="text/javascript">
var viewWidth = 698;
var viewHeight = 224;
var sectionId = 'dynsection-0';
</script>
<script xlink:href="../../svgpan.js"/>
<svg id="graph" class="graph">
<g id="viewport">
<title>wlp::ChainHashSet&lt; Key, Hash, Equal &gt;</title>
<polygon fill="white" stroke="none" points="-4,4 -4,-220 694,-220 694,4 -4,4"/>
<!-- Node1 -->
<g id="node1" class="node"><title>Node1</title>
<polygon fill="#bfbfbf" stroke="black" points="582.5,-77 582.5,-107 689.5,-107 689.5,-77 582.5,-77"/>
<text text-anchor="start" x="590.5" y="-95" font-family="Helvetica,sans-Serif" font-size="10.00">wlp::ChainHashSet&lt;</text>
<text text-anchor="middle" x="636" y="-84" font-family="Helvetica,sans-Serif" font-size="10.00"> Key, Hash, Equal &gt;</text>
</g>
<!-- Node2 -->
<g id="node2" class="node"><title>Node2</title>
<g id="a_node2"><a xlink:href="../../d9/dc5/classwlp_1_1_chain_hash_map.html" target="_top" xlink:title="wlp::ChainHashMap\&lt;\l Key, Key, Hash, Equal \&gt;">
<polygon fill="white" stroke="black" points="354.5,-77 354.5,-107 483.5,-107 483.5,-77 354.5,-77"/>
<text text-anchor="start" x="362.5" y="-95" font-family="Helvetica,sans-Serif" font-size="10.00">wlp::ChainHashMap&lt;</text>
<text text-anchor="middle" x="419" y="-84" font-family="Helvetica,sans-Serif" font-size="10.00"> Key, Key, Hash, Equal &gt;</text>
</a>
</g>
</g>
<!-- Node2&#45;&gt;Node1 -->
<g id="edge1" class="edge"><title>Node2&#45;&gt;Node1</title>
<path fill="none" stroke="#9a32cd" stroke-dasharray="5,2" d="M493.772,-92C522.91,-92 555.728,-92 582.389,-92"/>
<polygon fill="#9a32cd" stroke="#9a32cd" points="493.634,-88.5001 483.634,-92 493.634,-95.5001 493.634,-88.5001"/>
<text text-anchor="middle" x="533" y="-95" font-family="Helvetica,sans-Serif" font-size="10.00"> m_hash_map</text>
</g>
<!-- Node3 -->
<g id="node3" class="node"><title>Node3</title>
<g id="a_node3"><a xlink:href="../../d1/d2e/structwlp_1_1_equal.html" target="_top" xlink:title="wlp::Equal\&lt; Key \&gt;">
<polygon fill="white" stroke="black" points="123,-196.5 123,-215.5 221,-215.5 221,-196.5 123,-196.5"/>
<text text-anchor="middle" x="172" y="-203.5" font-family="Helvetica,sans-Serif" font-size="10.00">wlp::Equal&lt; Key &gt;</text>
</a>
</g>
</g>
<!-- Node3&#45;&gt;Node2 -->
<g id="edge2" class="edge"><title>Node3&#45;&gt;Node2</title>
<path fill="none" stroke="#9a32cd" stroke-dasharray="5,2" d="M231.409,-198.817C263.646,-193.134 303.593,-183.178 336,-166 364.295,-151.002 390.569,-124.081 405.418,-107.175"/>
<polygon fill="#9a32cd" stroke="#9a32cd" points="230.52,-195.416 221.233,-200.515 231.673,-202.321 230.52,-195.416"/>
<text text-anchor="middle" x="297" y="-196" font-family="Helvetica,sans-Serif" font-size="10.00"> m_equal</text>
</g>
<!-- Node4 -->
<g id="node4" class="node"><title>Node4</title>
<polygon fill="white" stroke="#bfbfbf" points="146.5,-155.5 146.5,-174.5 197.5,-174.5 197.5,-155.5 146.5,-155.5"/>
<text text-anchor="middle" x="172" y="-162.5" font-family="Helvetica,sans-Serif" font-size="10.00">uint16_t</text>
</g>
<!-- Node4&#45;&gt;Node2 -->
<g id="edge3" class="edge"><title>Node4&#45;&gt;Node2</title>
<path fill="none" stroke="#9a32cd" stroke-dasharray="5,2" d="M207.548,-154.706C249.29,-142.269 319.851,-121.244 367.646,-107.003"/>
<polygon fill="#9a32cd" stroke="#9a32cd" points="206.424,-151.389 197.84,-157.599 208.423,-158.097 206.424,-151.389"/>
<text text-anchor="middle" x="297" y="-154" font-family="Helvetica,sans-Serif" font-size="10.00"> m_capacity</text>
<text text-anchor="middle" x="297" y="-143" font-family="Helvetica,sans-Serif" font-size="10.00">m_num_elements</text>
</g>
<!-- Node5 -->
<g id="node5" class="node"><title>Node5</title>
<g id="a_node5"><a xlink:href="../../d2/d9d/structwlp_1_1_chain_hash_map_node.html" target="_top" xlink:title="wlp::ChainHashMapNode\l\&lt; Key, Val \&gt;">
<polygon fill="white" stroke="black" points="108,-77 108,-107 236,-107 236,-77 108,-77"/>
<text text-anchor="start" x="116" y="-95" font-family="Helvetica,sans-Serif" font-size="10.00">wlp::ChainHashMapNode</text>
<text text-anchor="middle" x="172" y="-84" font-family="Helvetica,sans-Serif" font-size="10.00">&lt; Key, Val &gt;</text>
</a>
</g>
</g>
<!-- Node5&#45;&gt;Node2 -->
<g id="edge4" class="edge"><title>Node5&#45;&gt;Node2</title>
<path fill="none" stroke="#9a32cd" stroke-dasharray="5,2" d="M246.529,-92C280.837,-92 321.279,-92 354.269,-92"/>
<polygon fill="#9a32cd" stroke="#9a32cd" points="246.094,-88.5001 236.094,-92 246.094,-95.5001 246.094,-88.5001"/>
<text text-anchor="middle" x="297" y="-95" font-family="Helvetica,sans-Serif" font-size="10.00"> m_buckets</text>
</g>
<!-- Node5&#45;&gt;Node5 -->
<g id="edge5" class="edge"><title>Node5&#45;&gt;Node5</title>
<path fill="none" stroke="#9a32cd" stroke-dasharray="5,2" d="M154.146,-117.598C156.586,-121.97 162.537,-125 172,-125 187.938,-125 193.914,-116.406 189.93,-107.275"/>
<polygon fill="#9a32cd" stroke="#9a32cd" points="157.644,-117.249 154.07,-107.275 150.644,-117.301 157.644,-117.249"/>
<text text-anchor="middle" x="172" y="-128" font-family="Helvetica,sans-Serif" font-size="10.00"> next</text>
</g>
<!-- Node6 -->
<g id="node6" class="node"><title>Node6</title>
<polygon fill="white" stroke="#bfbfbf" points="0,-101.5 0,-120.5 34,-120.5 34,-101.5 0,-101.5"/>
<text text-anchor="middle" x="17" y="-108.5" font-family="Helvetica,sans-Serif" font-size="10.00">Key</text>
</g>
<!-- Node6&#45;&gt;Node5 -->
<g id="edge6" class="edge"><title>Node6&#45;&gt;Node5</title>
<path fill="none" stroke="#9a32cd" stroke-dasharray="5,2" d="M44.1074,-107.758C61.6387,-105.581 85.5301,-102.614 107.855,-99.8415"/>
<polygon fill="#9a32cd" stroke="#9a32cd" points="43.5769,-104.297 34.0845,-109.003 44.4396,-111.243 43.5769,-104.297"/>
<text text-anchor="middle" x="69" y="-110" font-family="Helvetica,sans-Serif" font-size="10.00"> m_key</text>
</g>
<!-- Node7 -->
<g id="node7" class="node"><title>Node7</title>
<polygon fill="white" stroke="#bfbfbf" points="1.5,-63.5 1.5,-82.5 32.5,-82.5 32.5,-63.5 1.5,-63.5"/>
<text text-anchor="middle" x="17" y="-70.5" font-family="Helvetica,sans-Serif" font-size="10.00">Val</text>
</g>
<!-- Node7&#45;&gt;Node5 -->
<g id="edge7" class="edge"><title>Node7&#45;&gt;Node5</title>
<path fill="none" stroke="#9a32cd" stroke-dasharray="5,2" d="M42.6646,-76.0629C60.2749,-78.2498 84.8046,-81.296 107.706,-84.14"/>
<polygon fill="#9a32cd" stroke="#9a32cd" points="43.0254,-72.5809 32.6703,-74.8218 42.1627,-79.5276 43.0254,-72.5809"/>
<text text-anchor="middle" x="69" y="-85" font-family="Helvetica,sans-Serif" font-size="10.00"> m_val</text>
</g>
<!-- Node8 -->
<g id="node8" class="node"><title>Node8</title>
<polygon fill="white" stroke="#bfbfbf" points="149,-38.5 149,-57.5 195,-57.5 195,-38.5 149,-38.5"/>
<text text-anchor="middle" x="172" y="-45.5" font-family="Helvetica,sans-Serif" font-size="10.00">uint8_t</text>
</g>
<!-- Node8&#45;&gt;Node2 -->
<g id="edge8" class="edge"><title>Node8&#45;&gt;Node2</title>
<path fill="none" stroke="#9a32cd" stroke-dasharray="5,2" d="M205.101,-53.6638C237.981,-59.4761 290.567,-68.8031 336,-77 341.982,-78.0792 348.208,-79.2081 354.437,-80.3412"/>
<polygon fill="#9a32cd" stroke="#9a32cd" points="205.609,-50.1994 195.152,-51.9061 204.391,-57.0927 205.609,-50.1994"/>
<text text-anchor="middle" x="297" y="-80" font-family="Helvetica,sans-Serif" font-size="10.00"> m_max_load</text>
</g>
<!-- Node9 -->
<g id="node9" class="node"><title>Node9</title>
<g id="a_node9"><a xlink:href="../../d0/d41/structwlp_1_1_hash.html" target="_top" xlink:title="wlp::Hash\&lt; Key, IntType \&gt;">
<polygon fill="white" stroke="black" points="104.5,-0.5 104.5,-19.5 239.5,-19.5 239.5,-0.5 104.5,-0.5"/>
<text text-anchor="middle" x="172" y="-7.5" font-family="Helvetica,sans-Serif" font-size="10.00">wlp::Hash&lt; Key, IntType &gt;</text>
</a>
</g>
</g>
<!-- Node9&#45;&gt;Node2 -->
<g id="edge9" class="edge"><title>Node9&#45;&gt;Node2</title>
<path fill="none" stroke="#9a32cd" stroke-dasharray="5,2" d="M237.653,-21.6138C268.031,-28.0411 304.425,-37.1546 336,-49 356.017,-56.5096 377.368,-67.8225 393.264,-76.9599"/>
<polygon fill="#9a32cd" stroke="#9a32cd" points="238.099,-18.132 227.597,-19.537 236.683,-24.9873 238.099,-18.132"/>
<text text-anchor="middle" x="297" y="-52" font-family="Helvetica,sans-Serif" font-size="10.00"> m_hash</text>
</g>
</g>
</svg>
        <g id="navigator" transform="translate(0 0)" fill="#404254">
                <rect fill="#f2f5e9" fill-opacity="0.5" stroke="#606060" stroke-width=".5" x="0" y="0" width="60" height="60"/>
                <use id="zoomplus" xlink:href="#zoomPlus" x="17" y="9" onmousedown="handleZoom(evt,'in')"/>
                <use id="zoomminus" xlink:href="#zoomMin" x="42" y="9" onmousedown="handleZoom(evt,'out')"/>
                <use id="reset" xlink:href="#resetDef" x="30" y="36" onmousedown="handleReset()"/>
                <g id="arrowUp" xlink:href="#dirArrow" transform="translate(30 24)" onmousedown="handlePan(0,-1)">
                  <use xlink:href="#rim" fill="#404040">
                        <set attributeName="fill" to="#808080" begin="arrowUp.mouseover" end="arrowUp.mouseout"/>
                  </use>
                  <path fill="none" stroke="white" stroke-width="1.5" d="M0,-3.0v7 M-2.5,-0.5L0,-3.0L2.5,-0.5"/>
                </g>
                <g id="arrowRight" xlink:href="#dirArrow" transform="rotate(90) translate(36 -43)" onmousedown="handlePan(1,0)">
                  <use xlink:href="#rim" fill="#404040">
                        <set attributeName="fill" to="#808080" begin="arrowRight.mouseover" end="arrowRight.mouseout"/>
                  </use>
                  <path fill="none" stroke="white" stroke-width="1.5" d="M0,-3.0v7 M-2.5,-0.5L0,-3.0L2.5,-0.5"/>
                </g>
                <g id="arrowDown" xlink:href="#dirArrow" transform="rotate(180) translate(-30 -48)" onmousedown="handlePan(0,1)">
                  <use xlink:href="#rim" fill="#404040">
                        <set attributeName="fill" to="#808080" begin="arrowDown.mouseover" end="arrowDown.mouseout"/>
                  </use>
                  <path fill="none" stroke="white" stroke-width="1.5" d="M0,-3.0v7 M-2.5,-0.5L0,-3.0L2.5,-0.5"/>
                </g>
                <g id="arrowLeft" xlink:href="#dirArrow" transform="rotate(270) translate(-36 17)" onmousedown="handlePan(-1,0)">
                  <use xlink:href="#rim" fill="#404040">
                        <set attributeName="fill" to="#808080" begin="arrowLeft.mouseover" end="arrowLeft.mouseout"/>
                  </use>
                  <path fill="none" stroke="white" stroke-width="1.5" d="M0,-3.0v7 M-2.5,-0.5L0,-3.0L2.5,-0.5"/>
                </g>
        </g>
        <svg viewBox="0 0 15 15" width="100%" height="30px" preserveAspectRatio="xMaxYMin meet">
         <g id="arrow_out" transform="scale(0.3 0.3)">
          <a xlink:href="classwlp_1_1_chain_hash_set__coll__graph_org.svg" target="_base">
           <rect id="button" ry="5" rx="5" y="6" x="6" height="38" width="38"
                fill="#f2f5e9" fill-opacity="0.5" stroke="#606060" stroke-width="1.0"/>
           <path id="arrow"
             d="M 11.500037,31.436501 C 11.940474,20.09759 22.043105,11.32322 32.158766,21.979434 L 37.068811,17.246167 C 37.068811,17.246167 37.088388,32 37.088388,32 L 22.160133,31.978069 C 22.160133,31.978069 26.997745,27.140456 26.997745,27.140456 C 18.528582,18.264221 13.291696,25.230495 11.500037,31.436501 z"
             style="fill:#404040;"/>
          </a>
         </g>
        </svg>
</svg>
