<?xml version="1.0" encoding="UTF-8" standalone="no"?>
<!DOCTYPE svg PUBLIC "-//W3C//DTD SVG 1.1//EN"
 "http://www.w3.org/Graphics/SVG/1.1/DTD/svg11.dtd">
<!-- Generated by graphviz version 2.38.0 (20140413.2041)
 -->
<!-- Title: wlp::__Allocator Pages: 1 -->
<svg width="268pt" height="88pt"
 viewBox="0.00 0.00 268.00 88.00" xmlns="http://www.w3.org/2000/svg" xmlns:xlink="http://www.w3.org/1999/xlink">
<g id="graph0" class="graph" transform="scale(1 1) rotate(0) translate(4 84)">
<title>wlp::__Allocator</title>
<polygon fill="white" stroke="none" points="-4,4 -4,-84 264,-84 264,4 -4,4"/>
<!-- Node0 -->
<g id="node1" class="node"><title>Node0</title>
<polygon fill="#bfbfbf" stroke="black" points="0,-30 0,-49 86,-49 86,-30 0,-30"/>
<text text-anchor="middle" x="43" y="-37" font-family="Helvetica,sans-Serif" font-size="10.00">wlp::__Allocator</text>
</g>
<!-- Node1 -->
<g id="node2" class="node"><title>Node1</title>
<g id="a_node2"><a xlink:href="../../d6/dda/classwlp_1_1_dynamic_allocator_pool.html" target="_top" xlink:title="wlp::DynamicAllocatorPool\l\&lt; tblockSize, tnumBlocks \&gt;">
<polygon fill="white" stroke="black" points="122,-49.5 122,-79.5 260,-79.5 260,-49.5 122,-49.5"/>
<text text-anchor="start" x="130" y="-67.5" font-family="Helvetica,sans-Serif" font-size="10.00">wlp::DynamicAllocatorPool</text>
<text text-anchor="middle" x="191" y="-56.5" font-family="Helvetica,sans-Serif" font-size="10.00">&lt; tblockSize, tnumBlocks &gt;</text>
</a>
</g>
</g>
<!-- Node0&#45;&gt;Node1 -->
<g id="edge1" class="edge"><title>Node0&#45;&gt;Node1</title>
<path fill="none" stroke="midnightblue" d="M96.1293,-48.4262C104.432,-49.8479 113.128,-51.337 121.736,-52.8109"/>
<polygon fill="midnightblue" stroke="midnightblue" points="96.6765,-44.9691 86.2292,-46.731 95.495,-51.8687 96.6765,-44.9691"/>
</g>
<!-- Node2 -->
<g id="node3" class="node"><title>Node2</title>
<g id="a_node3"><a xlink:href="../../d1/dba/classwlp_1_1_static_allocator_pool.html" target="_top" xlink:title="wlp::StaticAllocatorPool\l\&lt; tblockSize, tnumBlocks \&gt;">
<polygon fill="white" stroke="black" points="122,-0.5 122,-30.5 260,-30.5 260,-0.5 122,-0.5"/>
<text text-anchor="start" x="130" y="-18.5" font-family="Helvetica,sans-Serif" font-size="10.00">wlp::StaticAllocatorPool</text>
<text text-anchor="middle" x="191" y="-7.5" font-family="Helvetica,sans-Serif" font-size="10.00">&lt; tblockSize, tnumBlocks &gt;</text>
</a>
</g>
</g>
<!-- Node0&#45;&gt;Node2 -->
<g id="edge2" class="edge"><title>Node0&#45;&gt;Node2</title>
<path fill="none" stroke="midnightblue" d="M96.1293,-30.9308C104.432,-29.566 113.128,-28.1365 121.736,-26.7216"/>
<polygon fill="midnightblue" stroke="midnightblue" points="95.5291,-27.4824 86.2292,-32.5582 96.6646,-34.3897 95.5291,-27.4824"/>
</g>
</g>
</svg>
