<?xml version="1.0" encoding="UTF-8" standalone="no"?>
<!DOCTYPE svg PUBLIC "-//W3C//DTD SVG 1.1//EN"
 "http://www.w3.org/Graphics/SVG/1.1/DTD/svg11.dtd">
<!-- Generated by graphviz version 2.36.0 (20140111.2315)
 -->
<!-- Title: wlp::__Allocator Pages: 1 -->
<svg width="268pt" height="87pt"
 viewBox="0.00 0.00 268.00 87.00" xmlns="http://www.w3.org/2000/svg" xmlns:xlink="http://www.w3.org/1999/xlink">
<g id="graph0" class="graph" transform="scale(1 1) rotate(0) translate(4 83)">
<title>wlp::__Allocator</title>
<polygon fill="white" stroke="none" points="-4,4 -4,-83 264,-83 264,4 -4,4"/>
<!-- Node1 -->
<g id="node1" class="node"><title>Node1</title>
<polygon fill="#bfbfbf" stroke="black" points="0,-29.5 0,-48.5 86,-48.5 86,-29.5 0,-29.5"/>
<text text-anchor="middle" x="43" y="-36.5" font-family="Helvetica,sans-Serif" font-size="10.00">wlp::__Allocator</text>
</g>
<!-- Node2 -->
<g id="node2" class="node"><title>Node2</title>
<g id="a_node2"><a xlink:href="../../d6/dda/classwlp_1_1_dynamic_allocator_pool.html" target="_top" xlink:title="wlp::DynamicAllocatorPool\l\&lt; tblockSize, tnumBlocks \&gt;">
<polygon fill="white" stroke="black" points="122,-49 122,-79 260,-79 260,-49 122,-49"/>
<text text-anchor="start" x="130" y="-67" font-family="Helvetica,sans-Serif" font-size="10.00">wlp::DynamicAllocatorPool</text>
<text text-anchor="middle" x="191" y="-56" font-family="Helvetica,sans-Serif" font-size="10.00">&lt; tblockSize, tnumBlocks &gt;</text>
</a>
</g>
</g>
<!-- Node1&#45;&gt;Node2 -->
<g id="edge1" class="edge"><title>Node1&#45;&gt;Node2</title>
<path fill="none" stroke="midnightblue" d="M96.1293,-47.9262C104.432,-49.3479 113.128,-50.837 121.736,-52.3109"/>
<polygon fill="midnightblue" stroke="midnightblue" points="96.6765,-44.4691 86.2292,-46.231 95.495,-51.3687 96.6765,-44.4691"/>
</g>
<!-- Node3 -->
<g id="node3" class="node"><title>Node3</title>
<g id="a_node3"><a xlink:href="../../d1/dba/classwlp_1_1_static_allocator_pool.html" target="_top" xlink:title="wlp::StaticAllocatorPool\l\&lt; tblockSize, tnumBlocks \&gt;">
<polygon fill="white" stroke="black" points="122,-0 122,-30 260,-30 260,-0 122,-0"/>
<text text-anchor="start" x="130" y="-18" font-family="Helvetica,sans-Serif" font-size="10.00">wlp::StaticAllocatorPool</text>
<text text-anchor="middle" x="191" y="-7" font-family="Helvetica,sans-Serif" font-size="10.00">&lt; tblockSize, tnumBlocks &gt;</text>
</a>
</g>
</g>
<!-- Node1&#45;&gt;Node3 -->
<g id="edge2" class="edge"><title>Node1&#45;&gt;Node3</title>
<path fill="none" stroke="midnightblue" d="M96.1293,-30.4308C104.432,-29.066 113.128,-27.6365 121.736,-26.2216"/>
<polygon fill="midnightblue" stroke="midnightblue" points="95.5291,-26.9824 86.2292,-32.0582 96.6646,-33.8897 95.5291,-26.9824"/>
</g>
</g>
</svg>
