<?xml version="1.0" encoding="UTF-8" standalone="no"?>
<!DOCTYPE svg PUBLIC "-//W3C//DTD SVG 1.1//EN"
 "http://www.w3.org/Graphics/SVG/1.1/DTD/svg11.dtd">
<!-- Generated by graphviz version 2.36.0 (20140111.2315)
 -->
<!-- Title: wlp::isnt_any_of_ct&lt; comp_t, target, head, tail &gt; Pages: 1 -->
<svg width="126pt" height="118pt"
 viewBox="0.00 0.00 126.00 118.00" xmlns="http://www.w3.org/2000/svg" xmlns:xlink="http://www.w3.org/1999/xlink">
<g id="graph0" class="graph" transform="scale(1 1) rotate(0) translate(4 114)">
<title>wlp::isnt_any_of_ct&lt; comp_t, target, head, tail &gt;</title>
<polygon fill="white" stroke="none" points="-4,4 -4,-114 122,-114 122,4 -4,4"/>
<!-- Node1 -->
<g id="node1" class="node"><title>Node1</title>
<polygon fill="#bfbfbf" stroke="black" points="-0.5,-0.5 -0.5,-41.5 118.5,-41.5 118.5,-0.5 -0.5,-0.5"/>
<text text-anchor="start" x="7.5" y="-29.5" font-family="Helvetica,sans-Serif" font-size="10.00">wlp::isnt_any_of_ct</text>
<text text-anchor="start" x="7.5" y="-18.5" font-family="Helvetica,sans-Serif" font-size="10.00">&lt; comp_t, target, head,</text>
<text text-anchor="middle" x="59" y="-7.5" font-family="Helvetica,sans-Serif" font-size="10.00"> tail &gt;</text>
</g>
<!-- Node2 -->
<g id="node2" class="node"><title>Node2</title>
<polygon fill="white" stroke="#bfbfbf" points="41.5,-90.5 41.5,-109.5 76.5,-109.5 76.5,-90.5 41.5,-90.5"/>
<text text-anchor="middle" x="59" y="-97.5" font-family="Helvetica,sans-Serif" font-size="10.00">bool</text>
</g>
<!-- Node2&#45;&gt;Node1 -->
<g id="edge1" class="edge"><title>Node2&#45;&gt;Node1</title>
<path fill="none" stroke="#9a32cd" stroke-dasharray="5,2" d="M59,-80.1487C59,-68.503 59,-53.5806 59,-41.7685"/>
<polygon fill="#9a32cd" stroke="#9a32cd" points="55.5001,-80.4654 59,-90.4655 62.5001,-80.4655 55.5001,-80.4654"/>
<text text-anchor="middle" x="72.5" y="-63.5" font-family="Helvetica,sans-Serif" font-size="10.00"> value</text>
</g>
</g>
</svg>
