<?xml version="1.0" encoding="UTF-8" standalone="no"?>
<!DOCTYPE svg PUBLIC "-//W3C//DTD SVG 1.1//EN"
 "http://www.w3.org/Graphics/SVG/1.1/DTD/svg11.dtd">
<!-- Generated by graphviz version 2.38.0 (20140413.2041)
 -->
<!-- Title: wlp::and_&lt;... &gt; Pages: 1 -->
<svg width="236pt" height="95pt"
 viewBox="0.00 0.00 236.00 95.00" xmlns="http://www.w3.org/2000/svg" xmlns:xlink="http://www.w3.org/1999/xlink">
<g id="graph0" class="graph" transform="scale(1 1) rotate(0) translate(4 91)">
<title>wlp::and_&lt;... &gt;</title>
<polygon fill="white" stroke="none" points="-4,4 -4,-91 232,-91 232,4 -4,4"/>
<!-- Node0 -->
<g id="node1" class="node"><title>Node0</title>
<polygon fill="#bfbfbf" stroke="black" points="70,-67.5 70,-86.5 152,-86.5 152,-67.5 70,-67.5"/>
<text text-anchor="middle" x="111" y="-74.5" font-family="Helvetica,sans-Serif" font-size="10.00">wlp::and_&lt;... &gt;</text>
</g>
<!-- Node1 -->
<g id="node2" class="node"><title>Node1</title>
<g id="a_node2"><a xlink:href="../../d5/dc8/structwlp_1_1and___3_01_b1_00_01_b2_00_01_b3_00_01_bn_8_8_8_01_4.html" target="_top" xlink:title="wlp::and_\&lt; B1, B2,\l B3, Bn... \&gt;">
<polygon fill="white" stroke="black" points="0,-0.5 0,-30.5 100,-30.5 100,-0.5 0,-0.5"/>
<text text-anchor="start" x="8" y="-18.5" font-family="Helvetica,sans-Serif" font-size="10.00">wlp::and_&lt; B1, B2,</text>
<text text-anchor="middle" x="50" y="-7.5" font-family="Helvetica,sans-Serif" font-size="10.00"> B3, Bn... &gt;</text>
</a>
</g>
</g>
<!-- Node0&#45;&gt;Node1 -->
<g id="edge1" class="edge"><title>Node0&#45;&gt;Node1</title>
<path fill="none" stroke="midnightblue" d="M94.9749,-60.369C85.4853,-51.1127 73.5618,-39.4824 64.3765,-30.523"/>
<polygon fill="midnightblue" stroke="midnightblue" points="92.6577,-62.9981 102.26,-67.4751 97.5455,-57.9871 92.6577,-62.9981"/>
</g>
<!-- Node2 -->
<g id="node3" class="node"><title>Node2</title>
<g id="a_node3"><a xlink:href="../../dc/d4e/structwlp_1_1or___3_01_b1_00_01_b2_00_01_b3_00_01_bn_8_8_8_01_4.html" target="_top" xlink:title="wlp::or_\&lt; B1, B2, B3,\l Bn... \&gt;">
<polygon fill="white" stroke="black" points="118,-0.5 118,-30.5 228,-30.5 228,-0.5 118,-0.5"/>
<text text-anchor="start" x="126" y="-18.5" font-family="Helvetica,sans-Serif" font-size="10.00">wlp::or_&lt; B1, B2, B3,</text>
<text text-anchor="middle" x="173" y="-7.5" font-family="Helvetica,sans-Serif" font-size="10.00"> Bn... &gt;</text>
</a>
</g>
</g>
<!-- Node0&#45;&gt;Node2 -->
<g id="edge2" class="edge"><title>Node0&#45;&gt;Node2</title>
<path fill="none" stroke="midnightblue" d="M127.288,-60.369C136.933,-51.1127 149.052,-39.4824 158.388,-30.523"/>
<polygon fill="midnightblue" stroke="midnightblue" points="124.675,-58.0257 119.883,-67.4751 129.522,-63.0762 124.675,-58.0257"/>
</g>
</g>
</svg>
