<?xml version="1.0" encoding="UTF-8" standalone="no"?>
<!DOCTYPE svg PUBLIC "-//W3C//DTD SVG 1.1//EN"
 "http://www.w3.org/Graphics/SVG/1.1/DTD/svg11.dtd">
<!-- Generated by graphviz version 2.36.0 (20140111.2315)
 -->
<!-- Title: wlp::equals&lt; const static_string&lt; tSize &gt; &gt;::operator() Pages: 1 -->
<svg width="240pt" height="48pt"
 viewBox="0.00 0.00 240.00 48.00" xmlns="http://www.w3.org/2000/svg" xmlns:xlink="http://www.w3.org/1999/xlink">
<g id="graph0" class="graph" transform="scale(1 1) rotate(0) translate(4 44)">
<title>wlp::equals&lt; const static_string&lt; tSize &gt; &gt;::operator()</title>
<polygon fill="white" stroke="none" points="-4,4 -4,-44 236,-44 236,4 -4,4"/>
<!-- Node1 -->
<g id="node1" class="node"><title>Node1</title>
<polygon fill="#bfbfbf" stroke="black" points="0,0.5 0,-40.5 104,-40.5 104,0.5 0,0.5"/>
<text text-anchor="start" x="8" y="-28.5" font-family="Helvetica,sans-Serif" font-size="10.00">wlp::equals&lt; const</text>
<text text-anchor="start" x="8" y="-17.5" font-family="Helvetica,sans-Serif" font-size="10.00"> static_string&lt; tSize</text>
<text text-anchor="middle" x="52" y="-6.5" font-family="Helvetica,sans-Serif" font-size="10.00"> &gt; &gt;::operator()</text>
</g>
<!-- Node2 -->
<g id="node2" class="node"><title>Node2</title>
<g id="a_node2"><a xlink:href="../../d7/d08/classwlp_1_1static__string.html#acee129ebfa86184c2da91f86fac25ca0" target="_top" xlink:title="wlp::static_string\l::c_str">
<polygon fill="white" stroke="black" points="140.5,-5 140.5,-35 231.5,-35 231.5,-5 140.5,-5"/>
<text text-anchor="start" x="148.5" y="-23" font-family="Helvetica,sans-Serif" font-size="10.00">wlp::static_string</text>
<text text-anchor="middle" x="186" y="-12" font-family="Helvetica,sans-Serif" font-size="10.00">::c_str</text>
</a>
</g>
</g>
<!-- Node1&#45;&gt;Node2 -->
<g id="edge1" class="edge"><title>Node1&#45;&gt;Node2</title>
<path fill="none" stroke="midnightblue" d="M104.035,-20C112.493,-20 121.298,-20 129.853,-20"/>
<polygon fill="midnightblue" stroke="midnightblue" points="130.124,-23.5001 140.124,-20 130.124,-16.5001 130.124,-23.5001"/>
</g>
</g>
</svg>
