<?xml version="1.0" encoding="UTF-8" standalone="no"?>
<!DOCTYPE svg PUBLIC "-//W3C//DTD SVG 1.1//EN"
 "http://www.w3.org/Graphics/SVG/1.1/DTD/svg11.dtd">
<!-- Generated by graphviz version 2.36.0 (20140111.2315)
 -->
<!-- Title: stl/OpenMap.h Pages: 1 -->
<!--zoomable 532 -->
<svg id="main" version="1.1" xmlns="http://www.w3.org/2000/svg" xmlns:xlink="http://www.w3.org/1999/xlink" xml:space="preserve" onload="init(evt)">
<style type="text/css"><![CDATA[
.edge:hover path { stroke: red; }
.edge:hover polygon { stroke: red; fill: red; }
]]></style>
<script type="text/javascript"><![CDATA[
var edges = document.getElementsByTagName('g');
if (edges && edges.length) {
  for (var i=0;i<edges.length;i++) {
    if (edges[i].id.substr(0,4)=='edge') {
      edges[i].setAttribute('class','edge');
    }
  }
}
]]></script>
        <defs>
                <circle id="rim" cx="0" cy="0" r="7"/>
                <circle id="rim2" cx="0" cy="0" r="3.5"/>
                <g id="zoomPlus">
                        <use xlink:href="#rim" fill="#404040">
                                <set attributeName="fill" to="#808080" begin="zoomplus.mouseover" end="zoomplus.mouseout"/>
                        </use>
                        <path d="M-4,0h8M0,-4v8" fill="none" stroke="white" stroke-width="1.5" pointer-events="none"/>
                </g>
                <g id="zoomMin">
                        <use xlink:href="#rim" fill="#404040">
                                <set attributeName="fill" to="#808080" begin="zoomminus.mouseover" end="zoomminus.mouseout"/>
                        </use>
                        <path d="M-4,0h8" fill="none" stroke="white" stroke-width="1.5" pointer-events="none"/>
                </g>
                <g id="dirArrow">
                        <path fill="none" stroke="white" stroke-width="1.5" d="M0,-3.0v7 M-2.5,-0.5L0,-3.0L2.5,-0.5"/>
                </g>
               <g id="resetDef">
                       <use xlink:href="#rim2" fill="#404040">
                               <set attributeName="fill" to="#808080" begin="reset.mouseover" end="reset.mouseout"/>
                       </use>
               </g>
        </defs>

<script type="text/javascript">
var viewWidth = 522;
var viewHeight = 532;
var sectionId = 'dynsection-0';
</script>
<script xlink:href="../../svgpan.js"/>
<svg id="graph" class="graph">
<g id="viewport">
<title>stl/OpenMap.h</title>
<polygon fill="white" stroke="none" points="-4,4 -4,-528 518,-528 518,4 -4,4"/>
<!-- Node1 -->
<g id="node1" class="node"><title>Node1</title>
<polygon fill="#bfbfbf" stroke="black" points="120,-504.5 120,-523.5 200,-523.5 200,-504.5 120,-504.5"/>
<text text-anchor="middle" x="160" y="-511.5" font-family="Helvetica,sans-Serif" font-size="10.00">stl/OpenMap.h</text>
</g>
<!-- Node2 -->
<g id="node2" class="node"><title>Node2</title>
<g id="a_node2"><a xlink:href="../../d2/dc2/_equal_8h.html" target="_top" xlink:title="Equal.h">
<polygon fill="white" stroke="black" points="135,-448.5 135,-467.5 185,-467.5 185,-448.5 135,-448.5"/>
<text text-anchor="middle" x="160" y="-455.5" font-family="Helvetica,sans-Serif" font-size="10.00">Equal.h</text>
</a>
</g>
</g>
<!-- Node1&#45;&gt;Node2 -->
<g id="edge1" class="edge"><title>Node1&#45;&gt;Node2</title>
<path fill="none" stroke="midnightblue" d="M160,-504.083C160,-497.006 160,-486.861 160,-477.986"/>
<polygon fill="midnightblue" stroke="midnightblue" points="163.5,-477.751 160,-467.751 156.5,-477.751 163.5,-477.751"/>
</g>
<!-- Node9 -->
<g id="node9" class="node"><title>Node9</title>
<g id="a_node9"><a xlink:href="../../d4/dda/_pair_8h.html" target="_top" xlink:title="Implementation of a 2&#45;element tuple. ">
<polygon fill="white" stroke="black" points="126,-224.5 126,-243.5 168,-243.5 168,-224.5 126,-224.5"/>
<text text-anchor="middle" x="147" y="-231.5" font-family="Helvetica,sans-Serif" font-size="10.00">Pair.h</text>
</a>
</g>
</g>
<!-- Node1&#45;&gt;Node9 -->
<g id="edge30" class="edge"><title>Node1&#45;&gt;Node9</title>
<path fill="none" stroke="midnightblue" d="M151.063,-504.267C143.017,-495.806 131.622,-482.203 126,-468 104.32,-413.226 104.737,-394.176 114,-336 118.77,-306.042 131.029,-272.896 139.187,-253.02"/>
<polygon fill="midnightblue" stroke="midnightblue" points="142.463,-254.258 143.121,-243.684 136.012,-251.54 142.463,-254.258"/>
</g>
<!-- Node10 -->
<g id="node10" class="node"><title>Node10</title>
<g id="a_node10"><a xlink:href="../../db/d2a/_utility_8h.html" target="_top" xlink:title="Various helper functions. ">
<polygon fill="white" stroke="black" points="104,-168.5 104,-187.5 190,-187.5 190,-168.5 104,-168.5"/>
<text text-anchor="middle" x="147" y="-175.5" font-family="Helvetica,sans-Serif" font-size="10.00">../utility/Utility.h</text>
</a>
</g>
</g>
<!-- Node1&#45;&gt;Node10 -->
<g id="edge32" class="edge"><title>Node1&#45;&gt;Node10</title>
<path fill="none" stroke="midnightblue" d="M121.268,-504.426C73.916,-491.392 0,-461.654 0,-403 0,-403 0,-403 0,-289 0,-236.252 61.4259,-205.734 104.863,-190.748"/>
<polygon fill="midnightblue" stroke="midnightblue" points="105.975,-194.067 114.376,-187.611 103.783,-187.419 105.975,-194.067"/>
</g>
<!-- Node15 -->
<g id="node15" class="node"><title>Node15</title>
<g id="a_node15"><a xlink:href="../../d3/de6/_memory_8h.html" target="_top" xlink:title="Memory is a class that provides dynamic fixed size memory. ">
<polygon fill="white" stroke="black" points="337.5,-224.5 337.5,-243.5 444.5,-243.5 444.5,-224.5 337.5,-224.5"/>
<text text-anchor="middle" x="391" y="-231.5" font-family="Helvetica,sans-Serif" font-size="10.00">../memory/Memory.h</text>
</a>
</g>
</g>
<!-- Node1&#45;&gt;Node15 -->
<g id="edge31" class="edge"><title>Node1&#45;&gt;Node15</title>
<path fill="none" stroke="midnightblue" d="M200.186,-509.022C258.581,-501.079 366.503,-477.897 427,-412 451.559,-385.25 467.363,-370.804 457,-336 447.047,-302.574 422.122,-269.904 405.911,-251.146"/>
<polygon fill="midnightblue" stroke="midnightblue" points="408.421,-248.702 399.161,-243.554 403.189,-253.353 408.421,-248.702"/>
</g>
<!-- Node17 -->
<g id="node17" class="node"><title>Node17</title>
<g id="a_node17"><a xlink:href="../../d2/dad/_hash_8h.html" target="_top" xlink:title="Hash.h">
<polygon fill="white" stroke="black" points="284,-448.5 284,-467.5 332,-467.5 332,-448.5 284,-448.5"/>
<text text-anchor="middle" x="308" y="-455.5" font-family="Helvetica,sans-Serif" font-size="10.00">Hash.h</text>
</a>
</g>
</g>
<!-- Node1&#45;&gt;Node17 -->
<g id="edge25" class="edge"><title>Node1&#45;&gt;Node17</title>
<path fill="none" stroke="midnightblue" d="M183.451,-504.444C208.133,-495.438 247.185,-481.189 274.977,-471.049"/>
<polygon fill="midnightblue" stroke="midnightblue" points="276.464,-474.232 284.659,-467.516 274.065,-467.656 276.464,-474.232"/>
</g>
<!-- Node3 -->
<g id="node3" class="node"><title>Node3</title>
<polygon fill="white" stroke="#bfbfbf" points="123.5,-336.5 123.5,-355.5 172.5,-355.5 172.5,-336.5 123.5,-336.5"/>
<text text-anchor="middle" x="148" y="-343.5" font-family="Helvetica,sans-Serif" font-size="10.00">string.h</text>
</g>
<!-- Node2&#45;&gt;Node3 -->
<g id="edge2" class="edge"><title>Node2&#45;&gt;Node3</title>
<path fill="none" stroke="midnightblue" d="M159.058,-448.368C157.122,-430.617 152.655,-389.666 150.029,-365.597"/>
<polygon fill="midnightblue" stroke="midnightblue" points="153.501,-365.153 148.937,-355.591 146.542,-365.912 153.501,-365.153"/>
</g>
<!-- Node4 -->
<g id="node4" class="node"><title>Node4</title>
<g id="a_node4"><a xlink:href="../../d0/db6/_types_8h.html" target="_top" xlink:title="type definition of all the string types we will be using ">
<polygon fill="white" stroke="black" points="342.5,-56.5 342.5,-75.5 403.5,-75.5 403.5,-56.5 342.5,-56.5"/>
<text text-anchor="middle" x="373" y="-63.5" font-family="Helvetica,sans-Serif" font-size="10.00">../Types.h</text>
</a>
</g>
</g>
<!-- Node2&#45;&gt;Node4 -->
<g id="edge3" class="edge"><title>Node2&#45;&gt;Node4</title>
<path fill="none" stroke="midnightblue" d="M150.83,-448.242C122.458,-420.154 38,-328.673 38,-235 38,-235 38,-235 38,-177 38,-131.874 75.0584,-130.977 116,-112 187.129,-79.0306 279.55,-70.0723 331.962,-67.7281"/>
<polygon fill="midnightblue" stroke="midnightblue" points="332.347,-71.2159 342.205,-67.332 332.077,-64.2211 332.347,-71.2159"/>
</g>
<!-- Node6 -->
<g id="node6" class="node"><title>Node6</title>
<g id="a_node6"><a xlink:href="../../db/db5/_string_8h.html" target="_top" xlink:title="../strings/String.h">
<polygon fill="white" stroke="black" points="188,-392.5 188,-411.5 280,-411.5 280,-392.5 188,-392.5"/>
<text text-anchor="middle" x="234" y="-399.5" font-family="Helvetica,sans-Serif" font-size="10.00">../strings/String.h</text>
</a>
</g>
</g>
<!-- Node2&#45;&gt;Node6 -->
<g id="edge5" class="edge"><title>Node2&#45;&gt;Node6</title>
<path fill="none" stroke="midnightblue" d="M171.889,-448.324C183.15,-440.107 200.287,-427.602 213.709,-417.807"/>
<polygon fill="midnightblue" stroke="midnightblue" points="215.88,-420.556 221.894,-411.834 211.753,-414.901 215.88,-420.556"/>
</g>
<!-- Node5 -->
<g id="node5" class="node"><title>Node5</title>
<polygon fill="white" stroke="#bfbfbf" points="348.5,-0.5 348.5,-19.5 397.5,-19.5 397.5,-0.5 348.5,-0.5"/>
<text text-anchor="middle" x="373" y="-7.5" font-family="Helvetica,sans-Serif" font-size="10.00">stdint.h</text>
</g>
<!-- Node4&#45;&gt;Node5 -->
<g id="edge4" class="edge"><title>Node4&#45;&gt;Node5</title>
<path fill="none" stroke="midnightblue" d="M373,-56.083C373,-49.0059 373,-38.8611 373,-29.9865"/>
<polygon fill="midnightblue" stroke="midnightblue" points="376.5,-29.751 373,-19.7511 369.5,-29.7511 376.5,-29.751"/>
</g>
<!-- Node6&#45;&gt;Node3 -->
<g id="edge6" class="edge"><title>Node6&#45;&gt;Node3</title>
<path fill="none" stroke="midnightblue" d="M220.183,-392.324C206.767,-383.9 186.176,-370.971 170.414,-361.074"/>
<polygon fill="midnightblue" stroke="midnightblue" points="172.113,-358.008 161.783,-355.655 168.391,-363.936 172.113,-358.008"/>
</g>
<!-- Node6&#45;&gt;Node4 -->
<g id="edge18" class="edge"><title>Node6&#45;&gt;Node4</title>
<path fill="none" stroke="midnightblue" d="M249.506,-392.333C302.918,-362.235 476,-262.576 476,-235 476,-235 476,-235 476,-177 476,-132.426 430.379,-98.4604 399.86,-80.726"/>
<polygon fill="midnightblue" stroke="midnightblue" points="401.379,-77.5656 390.941,-75.7495 397.969,-83.6785 401.379,-77.5656"/>
</g>
<!-- Node7 -->
<g id="node7" class="node"><title>Node7</title>
<g id="a_node7"><a xlink:href="../../de/d0b/_string_iterator_8h.html" target="_top" xlink:title="StringIterator.h">
<polygon fill="white" stroke="black" points="190.5,-336.5 190.5,-355.5 271.5,-355.5 271.5,-336.5 190.5,-336.5"/>
<text text-anchor="middle" x="231" y="-343.5" font-family="Helvetica,sans-Serif" font-size="10.00">StringIterator.h</text>
</a>
</g>
</g>
<!-- Node6&#45;&gt;Node7 -->
<g id="edge7" class="edge"><title>Node6&#45;&gt;Node7</title>
<path fill="none" stroke="midnightblue" d="M233.505,-392.083C233.111,-385.006 232.548,-374.861 232.055,-365.986"/>
<polygon fill="midnightblue" stroke="midnightblue" points="235.536,-365.542 231.486,-355.751 228.546,-365.93 235.536,-365.542"/>
</g>
<!-- Node14 -->
<g id="node14" class="node"><title>Node14</title>
<g id="a_node14"><a xlink:href="../../da/db8/_math_8h.html" target="_top" xlink:title="../utility/Math.h">
<polygon fill="white" stroke="black" points="366,-336.5 366,-355.5 448,-355.5 448,-336.5 366,-336.5"/>
<text text-anchor="middle" x="407" y="-343.5" font-family="Helvetica,sans-Serif" font-size="10.00">../utility/Math.h</text>
</a>
</g>
</g>
<!-- Node6&#45;&gt;Node14 -->
<g id="edge19" class="edge"><title>Node6&#45;&gt;Node14</title>
<path fill="none" stroke="midnightblue" d="M261.412,-392.444C290.769,-383.28 337.519,-368.688 370.096,-358.519"/>
<polygon fill="midnightblue" stroke="midnightblue" points="371.213,-361.837 379.716,-355.516 369.127,-355.155 371.213,-361.837"/>
</g>
<!-- Node6&#45;&gt;Node15 -->
<g id="edge20" class="edge"><title>Node6&#45;&gt;Node15</title>
<path fill="none" stroke="midnightblue" d="M243.309,-392.179C252.705,-383.209 267.565,-368.841 280,-356 315.502,-319.34 355.63,-274.783 376.555,-251.3"/>
<polygon fill="midnightblue" stroke="midnightblue" points="379.322,-253.455 383.351,-243.656 374.091,-248.804 379.322,-253.455"/>
</g>
<!-- Node7&#45;&gt;Node4 -->
<g id="edge8" class="edge"><title>Node7&#45;&gt;Node4</title>
<path fill="none" stroke="midnightblue" d="M194.659,-336.389C148.846,-323.118 76,-292.911 76,-235 76,-235 76,-235 76,-177 76,-122.952 251.149,-87.0448 332.44,-73.2901"/>
<polygon fill="midnightblue" stroke="midnightblue" points="333.043,-76.738 342.334,-71.6471 331.896,-69.8326 333.043,-76.738"/>
</g>
<!-- Node8 -->
<g id="node8" class="node"><title>Node8</title>
<g id="a_node8"><a xlink:href="../../d8/dd7/_concept_8h.html" target="_top" xlink:title="Concept definitions. ">
<polygon fill="white" stroke="black" points="188,-280.5 188,-299.5 272,-299.5 272,-280.5 188,-280.5"/>
<text text-anchor="middle" x="230" y="-287.5" font-family="Helvetica,sans-Serif" font-size="10.00">../stl/Concept.h</text>
</a>
</g>
</g>
<!-- Node7&#45;&gt;Node8 -->
<g id="edge9" class="edge"><title>Node7&#45;&gt;Node8</title>
<path fill="none" stroke="midnightblue" d="M230.835,-336.083C230.704,-329.006 230.516,-318.861 230.352,-309.986"/>
<polygon fill="midnightblue" stroke="midnightblue" points="233.847,-309.685 230.162,-299.751 226.848,-309.814 233.847,-309.685"/>
</g>
<!-- Node8&#45;&gt;Node9 -->
<g id="edge10" class="edge"><title>Node8&#45;&gt;Node9</title>
<path fill="none" stroke="midnightblue" d="M216.665,-280.324C203.838,-271.979 184.215,-259.212 169.06,-249.352"/>
<polygon fill="midnightblue" stroke="midnightblue" points="170.593,-246.174 160.302,-243.655 166.776,-252.042 170.593,-246.174"/>
</g>
<!-- Node11 -->
<g id="node11" class="node"><title>Node11</title>
<g id="a_node11"><a xlink:href="../../d2/d37/_tmp_8h.html" target="_top" xlink:title="Template helper types, structs, and metafunctions. ">
<polygon fill="white" stroke="black" points="286,-112.5 286,-131.5 330,-131.5 330,-112.5 286,-112.5"/>
<text text-anchor="middle" x="308" y="-119.5" font-family="Helvetica,sans-Serif" font-size="10.00">Tmp.h</text>
</a>
</g>
</g>
<!-- Node8&#45;&gt;Node11 -->
<g id="edge17" class="edge"><title>Node8&#45;&gt;Node11</title>
<path fill="none" stroke="midnightblue" d="M247.103,-280.382C260.468,-272.712 278.345,-260.204 288,-244 307.1,-211.946 309.422,-167.075 308.987,-141.956"/>
<polygon fill="midnightblue" stroke="midnightblue" points="312.474,-141.509 308.628,-131.637 305.478,-141.753 312.474,-141.509"/>
</g>
<!-- Node12 -->
<g id="node12" class="node"><title>Node12</title>
<g id="a_node12"><a xlink:href="../../d4/dd5/_type_traits_8h.html" target="_top" xlink:title="Metafunctions for types. ">
<polygon fill="white" stroke="black" points="208.5,-168.5 208.5,-187.5 279.5,-187.5 279.5,-168.5 208.5,-168.5"/>
<text text-anchor="middle" x="244" y="-175.5" font-family="Helvetica,sans-Serif" font-size="10.00">TypeTraits.h</text>
</a>
</g>
</g>
<!-- Node8&#45;&gt;Node12 -->
<g id="edge14" class="edge"><title>Node8&#45;&gt;Node12</title>
<path fill="none" stroke="midnightblue" d="M225.781,-280.494C220.144,-267.988 211.471,-243.963 217,-224 219.792,-213.921 225.509,-203.832 230.967,-195.769"/>
<polygon fill="midnightblue" stroke="midnightblue" points="233.825,-197.79 236.849,-187.636 228.153,-193.688 233.825,-197.79"/>
</g>
<!-- Node13 -->
<g id="node13" class="node"><title>Node13</title>
<g id="a_node13"><a xlink:href="../../d2/db4/_wlib_8h.html" target="_top" xlink:title="../Wlib.h">
<polygon fill="white" stroke="black" points="226.5,-224.5 226.5,-243.5 279.5,-243.5 279.5,-224.5 226.5,-224.5"/>
<text text-anchor="middle" x="253" y="-231.5" font-family="Helvetica,sans-Serif" font-size="10.00">../Wlib.h</text>
</a>
</g>
</g>
<!-- Node8&#45;&gt;Node13 -->
<g id="edge16" class="edge"><title>Node8&#45;&gt;Node13</title>
<path fill="none" stroke="midnightblue" d="M233.798,-280.083C236.913,-272.77 241.423,-262.181 245.289,-253.103"/>
<polygon fill="midnightblue" stroke="midnightblue" points="248.574,-254.323 249.273,-243.751 242.134,-251.58 248.574,-254.323"/>
</g>
<!-- Node9&#45;&gt;Node10 -->
<g id="edge11" class="edge"><title>Node9&#45;&gt;Node10</title>
<path fill="none" stroke="midnightblue" d="M147,-224.083C147,-217.006 147,-206.861 147,-197.986"/>
<polygon fill="midnightblue" stroke="midnightblue" points="150.5,-197.751 147,-187.751 143.5,-197.751 150.5,-197.751"/>
</g>
<!-- Node10&#45;&gt;Node11 -->
<g id="edge12" class="edge"><title>Node10&#45;&gt;Node11</title>
<path fill="none" stroke="midnightblue" d="M172.511,-168.444C200.552,-159.038 245.645,-143.914 276.026,-133.724"/>
<polygon fill="midnightblue" stroke="midnightblue" points="277.351,-136.971 285.719,-130.473 275.125,-130.335 277.351,-136.971"/>
</g>
<!-- Node11&#45;&gt;Node4 -->
<g id="edge13" class="edge"><title>Node11&#45;&gt;Node4</title>
<path fill="none" stroke="midnightblue" d="M318.443,-112.324C328.146,-104.263 342.815,-92.0765 354.5,-82.3695"/>
<polygon fill="midnightblue" stroke="midnightblue" points="356.911,-84.9163 362.367,-75.8339 352.438,-79.532 356.911,-84.9163"/>
</g>
<!-- Node12&#45;&gt;Node11 -->
<g id="edge15" class="edge"><title>Node12&#45;&gt;Node11</title>
<path fill="none" stroke="midnightblue" d="M254.283,-168.324C263.836,-160.263 278.28,-148.077 289.784,-138.369"/>
<polygon fill="midnightblue" stroke="midnightblue" points="292.144,-140.958 297.53,-131.834 287.63,-135.608 292.144,-140.958"/>
</g>
<!-- Node15&#45;&gt;Node4 -->
<g id="edge22" class="edge"><title>Node15&#45;&gt;Node4</title>
<path fill="none" stroke="midnightblue" d="M398.151,-224.364C404.773,-215.763 414.157,-201.873 418,-188 420.373,-179.434 419.849,-176.694 418,-168 411.406,-136.999 394.6,-103.975 383.497,-84.4318"/>
<polygon fill="midnightblue" stroke="midnightblue" points="386.497,-82.6289 378.434,-75.7557 380.451,-86.1568 386.497,-82.6289"/>
</g>
<!-- Node15&#45;&gt;Node10 -->
<g id="edge21" class="edge"><title>Node15&#45;&gt;Node10</title>
<path fill="none" stroke="midnightblue" d="M352.337,-224.444C309.862,-215.043 241.569,-199.929 195.526,-189.739"/>
<polygon fill="midnightblue" stroke="midnightblue" points="196.002,-186.26 185.482,-187.516 194.489,-193.095 196.002,-186.26"/>
</g>
<!-- Node15&#45;&gt;Node11 -->
<g id="edge23" class="edge"><title>Node15&#45;&gt;Node11</title>
<path fill="none" stroke="midnightblue" d="M384.487,-224.368C370.729,-206.135 338.503,-163.426 320.582,-139.675"/>
<polygon fill="midnightblue" stroke="midnightblue" points="323.3,-137.466 314.483,-131.591 317.712,-141.682 323.3,-137.466"/>
</g>
<!-- Node16 -->
<g id="node16" class="node"><title>Node16</title>
<polygon fill="white" stroke="#bfbfbf" points="374.5,-168.5 374.5,-187.5 409.5,-187.5 409.5,-168.5 374.5,-168.5"/>
<text text-anchor="middle" x="392" y="-175.5" font-family="Helvetica,sans-Serif" font-size="10.00">new</text>
</g>
<!-- Node15&#45;&gt;Node16 -->
<g id="edge24" class="edge"><title>Node15&#45;&gt;Node16</title>
<path fill="none" stroke="midnightblue" d="M391.165,-224.083C391.296,-217.006 391.484,-206.861 391.648,-197.986"/>
<polygon fill="midnightblue" stroke="midnightblue" points="395.152,-197.814 391.838,-187.751 388.153,-197.685 395.152,-197.814"/>
</g>
<!-- Node17&#45;&gt;Node4 -->
<g id="edge26" class="edge"><title>Node17&#45;&gt;Node4</title>
<path fill="none" stroke="midnightblue" d="M332.395,-452.176C358.003,-446.167 398.437,-433.916 427,-412 479.549,-371.679 514,-357.236 514,-291 514,-291 514,-291 514,-177 514,-125.263 454.255,-94.2716 412.546,-78.94"/>
<polygon fill="midnightblue" stroke="midnightblue" points="413.497,-75.5645 402.902,-75.5519 411.177,-82.1688 413.497,-75.5645"/>
</g>
<!-- Node17&#45;&gt;Node6 -->
<g id="edge29" class="edge"><title>Node17&#45;&gt;Node6</title>
<path fill="none" stroke="midnightblue" d="M296.111,-448.324C284.85,-440.107 267.713,-427.602 254.291,-417.807"/>
<polygon fill="midnightblue" stroke="midnightblue" points="256.247,-414.901 246.106,-411.834 252.12,-420.556 256.247,-414.901"/>
</g>
<!-- Node17&#45;&gt;Node14 -->
<g id="edge28" class="edge"><title>Node17&#45;&gt;Node14</title>
<path fill="none" stroke="midnightblue" d="M308.47,-448.487C309.615,-435.106 313.543,-408.937 327,-392 338.493,-377.535 355.984,-366.942 371.683,-359.681"/>
<polygon fill="midnightblue" stroke="midnightblue" points="373.367,-362.767 381.157,-355.586 370.589,-356.341 373.367,-362.767"/>
</g>
<!-- Node18 -->
<g id="node18" class="node"><title>Node18</title>
<g id="a_node18"><a xlink:href="../../d2/ddf/_wlib_config_8h.html" target="_top" xlink:title="Some basic definitions for compilers. ">
<polygon fill="white" stroke="black" points="336,-392.5 336,-411.5 418,-411.5 418,-392.5 336,-392.5"/>
<text text-anchor="middle" x="377" y="-399.5" font-family="Helvetica,sans-Serif" font-size="10.00">../WlibConfig.h</text>
</a>
</g>
</g>
<!-- Node17&#45;&gt;Node18 -->
<g id="edge27" class="edge"><title>Node17&#45;&gt;Node18</title>
<path fill="none" stroke="midnightblue" d="M319.086,-448.324C329.486,-440.185 345.261,-427.839 357.722,-418.087"/>
<polygon fill="midnightblue" stroke="midnightblue" points="359.994,-420.753 365.712,-411.834 355.68,-415.241 359.994,-420.753"/>
</g>
</g>
</svg>
        <g id="navigator" transform="translate(0 0)" fill="#404254">
                <rect fill="#f2f5e9" fill-opacity="0.5" stroke="#606060" stroke-width=".5" x="0" y="0" width="60" height="60"/>
                <use id="zoomplus" xlink:href="#zoomPlus" x="17" y="9" onmousedown="handleZoom(evt,'in')"/>
                <use id="zoomminus" xlink:href="#zoomMin" x="42" y="9" onmousedown="handleZoom(evt,'out')"/>
                <use id="reset" xlink:href="#resetDef" x="30" y="36" onmousedown="handleReset()"/>
                <g id="arrowUp" xlink:href="#dirArrow" transform="translate(30 24)" onmousedown="handlePan(0,-1)">
                  <use xlink:href="#rim" fill="#404040">
                        <set attributeName="fill" to="#808080" begin="arrowUp.mouseover" end="arrowUp.mouseout"/>
                  </use>
                  <path fill="none" stroke="white" stroke-width="1.5" d="M0,-3.0v7 M-2.5,-0.5L0,-3.0L2.5,-0.5"/>
                </g>
                <g id="arrowRight" xlink:href="#dirArrow" transform="rotate(90) translate(36 -43)" onmousedown="handlePan(1,0)">
                  <use xlink:href="#rim" fill="#404040">
                        <set attributeName="fill" to="#808080" begin="arrowRight.mouseover" end="arrowRight.mouseout"/>
                  </use>
                  <path fill="none" stroke="white" stroke-width="1.5" d="M0,-3.0v7 M-2.5,-0.5L0,-3.0L2.5,-0.5"/>
                </g>
                <g id="arrowDown" xlink:href="#dirArrow" transform="rotate(180) translate(-30 -48)" onmousedown="handlePan(0,1)">
                  <use xlink:href="#rim" fill="#404040">
                        <set attributeName="fill" to="#808080" begin="arrowDown.mouseover" end="arrowDown.mouseout"/>
                  </use>
                  <path fill="none" stroke="white" stroke-width="1.5" d="M0,-3.0v7 M-2.5,-0.5L0,-3.0L2.5,-0.5"/>
                </g>
                <g id="arrowLeft" xlink:href="#dirArrow" transform="rotate(270) translate(-36 17)" onmousedown="handlePan(-1,0)">
                  <use xlink:href="#rim" fill="#404040">
                        <set attributeName="fill" to="#808080" begin="arrowLeft.mouseover" end="arrowLeft.mouseout"/>
                  </use>
                  <path fill="none" stroke="white" stroke-width="1.5" d="M0,-3.0v7 M-2.5,-0.5L0,-3.0L2.5,-0.5"/>
                </g>
        </g>
        <svg viewBox="0 0 15 15" width="100%" height="30px" preserveAspectRatio="xMaxYMin meet">
         <g id="arrow_out" transform="scale(0.3 0.3)">
          <a xlink:href="_open_map_8h__incl_org.svg" target="_base">
           <rect id="button" ry="5" rx="5" y="6" x="6" height="38" width="38"
                fill="#f2f5e9" fill-opacity="0.5" stroke="#606060" stroke-width="1.0"/>
           <path id="arrow"
             d="M 11.500037,31.436501 C 11.940474,20.09759 22.043105,11.32322 32.158766,21.979434 L 37.068811,17.246167 C 37.068811,17.246167 37.088388,32 37.088388,32 L 22.160133,31.978069 C 22.160133,31.978069 26.997745,27.140456 26.997745,27.140456 C 18.528582,18.264221 13.291696,25.230495 11.500037,31.436501 z"
             style="fill:#404040;"/>
          </a>
         </g>
        </svg>
</svg>
