<?xml version="1.0" encoding="UTF-8" standalone="no"?>
<!DOCTYPE svg PUBLIC "-//W3C//DTD SVG 1.1//EN"
 "http://www.w3.org/Graphics/SVG/1.1/DTD/svg11.dtd">
<!-- Generated by graphviz version 2.36.0 (20140111.2315)
 -->
<!-- Title: utility/Math.h Pages: 1 -->
<svg width="838pt" height="308pt"
 viewBox="0.00 0.00 838.00 308.00" xmlns="http://www.w3.org/2000/svg" xmlns:xlink="http://www.w3.org/1999/xlink">
<g id="graph0" class="graph" transform="scale(1 1) rotate(0) translate(4 304)">
<title>utility/Math.h</title>
<polygon fill="white" stroke="none" points="-4,4 -4,-304 834,-304 834,4 -4,4"/>
<!-- Node1 -->
<g id="node1" class="node"><title>Node1</title>
<polygon fill="#bfbfbf" stroke="black" points="567.5,-280.5 567.5,-299.5 640.5,-299.5 640.5,-280.5 567.5,-280.5"/>
<text text-anchor="middle" x="604" y="-287.5" font-family="Helvetica,sans-Serif" font-size="10.00">utility/Math.h</text>
</g>
<!-- Node2 -->
<g id="node2" class="node"><title>Node2</title>
<g id="a_node2"><a xlink:href="../../db/db5/_string_8h.html" target="_top" xlink:title="strings/String.h">
<polygon fill="white" stroke="black" points="390.5,-224.5 390.5,-243.5 473.5,-243.5 473.5,-224.5 390.5,-224.5"/>
<text text-anchor="middle" x="432" y="-231.5" font-family="Helvetica,sans-Serif" font-size="10.00">strings/String.h</text>
</a>
</g>
</g>
<!-- Node1&#45;&gt;Node2 -->
<g id="edge1" class="edge"><title>Node1&#45;&gt;Node2</title>
<path fill="none" stroke="midnightblue" d="M567.168,-277.436C534.738,-267.255 488.263,-252.664 459.126,-243.516"/>
<polygon fill="midnightblue" stroke="midnightblue" points="566.157,-280.787 576.746,-280.444 568.254,-274.109 566.157,-280.787"/>
</g>
<!-- Node17 -->
<g id="node17" class="node"><title>Node17</title>
<g id="a_node17"><a xlink:href="../../d2/dad/_hash_8h.html" target="_top" xlink:title="stl/Hash.h">
<polygon fill="white" stroke="black" points="562,-168.5 562,-187.5 624,-187.5 624,-168.5 562,-168.5"/>
<text text-anchor="middle" x="593" y="-175.5" font-family="Helvetica,sans-Serif" font-size="10.00">stl/Hash.h</text>
</a>
</g>
</g>
<!-- Node1&#45;&gt;Node17 -->
<g id="edge27" class="edge"><title>Node1&#45;&gt;Node17</title>
<path fill="none" stroke="midnightblue" d="M592.578,-271.442C588.017,-263.419 583.307,-253.582 581,-244 576.219,-224.141 583.888,-200.474 589.005,-187.895"/>
<polygon fill="midnightblue" stroke="midnightblue" points="589.711,-273.463 597.895,-280.191 595.692,-269.827 589.711,-273.463"/>
</g>
<!-- Node19 -->
<g id="node19" class="node"><title>Node19</title>
<g id="a_node19"><a xlink:href="../../d0/d55/_allocator_8cpp.html" target="_top" xlink:title="Implementation of Allocator. ">
<polygon fill="white" stroke="black" points="590,-224.5 590,-243.5 702,-243.5 702,-224.5 590,-224.5"/>
<text text-anchor="middle" x="646" y="-231.5" font-family="Helvetica,sans-Serif" font-size="10.00">memory/Allocator.cpp</text>
</a>
</g>
</g>
<!-- Node1&#45;&gt;Node19 -->
<g id="edge25" class="edge"><title>Node1&#45;&gt;Node19</title>
<path fill="none" stroke="midnightblue" d="M617.11,-272.144C624.428,-262.736 633.241,-251.405 639.194,-243.751"/>
<polygon fill="midnightblue" stroke="midnightblue" points="614.312,-270.041 610.935,-280.083 619.838,-274.338 614.312,-270.041"/>
</g>
<!-- Node20 -->
<g id="node20" class="node"><title>Node20</title>
<g id="a_node20"><a xlink:href="../../df/d64/_memory_8cpp.html" target="_top" xlink:title="Implementation of Memory functions. ">
<polygon fill="white" stroke="black" points="720.5,-224.5 720.5,-243.5 829.5,-243.5 829.5,-224.5 720.5,-224.5"/>
<text text-anchor="middle" x="775" y="-231.5" font-family="Helvetica,sans-Serif" font-size="10.00">memory/Memory.cpp</text>
</a>
</g>
</g>
<!-- Node1&#45;&gt;Node20 -->
<g id="edge26" class="edge"><title>Node1&#45;&gt;Node20</title>
<path fill="none" stroke="midnightblue" d="M641.036,-277.304C673.257,-267.129 719.189,-252.625 748.031,-243.516"/>
<polygon fill="midnightblue" stroke="midnightblue" points="639.577,-274.095 631.095,-280.444 641.685,-280.77 639.577,-274.095"/>
</g>
<!-- Node3 -->
<g id="node3" class="node"><title>Node3</title>
<g id="a_node3"><a xlink:href="../../de/d6d/_bitset_8h.html" target="_top" xlink:title="Bitset is a class that provides bits manipulation methods. ">
<polygon fill="white" stroke="black" points="193,-168.5 193,-187.5 257,-187.5 257,-168.5 193,-168.5"/>
<text text-anchor="middle" x="225" y="-175.5" font-family="Helvetica,sans-Serif" font-size="10.00">stl/Bitset.h</text>
</a>
</g>
</g>
<!-- Node2&#45;&gt;Node3 -->
<g id="edge2" class="edge"><title>Node2&#45;&gt;Node3</title>
<path fill="none" stroke="midnightblue" d="M389.397,-221.886C350.183,-211.656 292.867,-196.704 257.306,-187.428"/>
<polygon fill="midnightblue" stroke="midnightblue" points="388.641,-225.306 399.2,-224.444 390.408,-218.533 388.641,-225.306"/>
</g>
<!-- Node6 -->
<g id="node6" class="node"><title>Node6</title>
<g id="a_node6"><a xlink:href="../../d7/d0c/_comparator_8h.html" target="_top" xlink:title="Comparator implementation for basic types. ">
<polygon fill="white" stroke="black" points="253.5,-112.5 253.5,-131.5 342.5,-131.5 342.5,-112.5 253.5,-112.5"/>
<text text-anchor="middle" x="298" y="-119.5" font-family="Helvetica,sans-Serif" font-size="10.00">stl/Comparator.h</text>
</a>
</g>
</g>
<!-- Node2&#45;&gt;Node6 -->
<g id="edge5" class="edge"><title>Node2&#45;&gt;Node6</title>
<path fill="none" stroke="midnightblue" d="M407.357,-219.335C393.231,-211.033 375.487,-199.786 361,-188 338.813,-169.949 316.331,-144.711 305.187,-131.629"/>
<polygon fill="midnightblue" stroke="midnightblue" points="405.635,-222.382 416.047,-224.342 409.129,-216.317 405.635,-222.382"/>
</g>
<!-- Node11 -->
<g id="node11" class="node"><title>Node11</title>
<g id="a_node11"><a xlink:href="../../d2/dc2/_equal_8h.html" target="_top" xlink:title="stl/Equal.h">
<polygon fill="white" stroke="black" points="370.5,-168.5 370.5,-187.5 433.5,-187.5 433.5,-168.5 370.5,-168.5"/>
<text text-anchor="middle" x="402" y="-175.5" font-family="Helvetica,sans-Serif" font-size="10.00">stl/Equal.h</text>
</a>
</g>
</g>
<!-- Node2&#45;&gt;Node11 -->
<g id="edge10" class="edge"><title>Node2&#45;&gt;Node11</title>
<path fill="none" stroke="midnightblue" d="M422.153,-215.275C417.025,-206.045 410.984,-195.17 406.862,-187.751"/>
<polygon fill="midnightblue" stroke="midnightblue" points="419.13,-217.041 427.046,-224.083 425.249,-213.642 419.13,-217.041"/>
</g>
<!-- Node2&#45;&gt;Node17 -->
<g id="edge19" class="edge"><title>Node2&#45;&gt;Node17</title>
<path fill="none" stroke="midnightblue" d="M467.265,-221.172C497.581,-211.004 540.57,-196.585 567.608,-187.516"/>
<polygon fill="midnightblue" stroke="midnightblue" points="465.879,-217.945 457.511,-224.444 468.105,-224.582 465.879,-217.945"/>
</g>
<!-- Node18 -->
<g id="node18" class="node"><title>Node18</title>
<g id="a_node18"><a xlink:href="../../d9/dae/_string_8cpp.html" target="_top" xlink:title="strings/String.cpp">
<polygon fill="white" stroke="black" points="451.5,-168.5 451.5,-187.5 544.5,-187.5 544.5,-168.5 451.5,-168.5"/>
<text text-anchor="middle" x="498" y="-175.5" font-family="Helvetica,sans-Serif" font-size="10.00">strings/String.cpp</text>
</a>
</g>
</g>
<!-- Node2&#45;&gt;Node18 -->
<g id="edge24" class="edge"><title>Node2&#45;&gt;Node18</title>
<path fill="none" stroke="midnightblue" d="M450.554,-217.82C462.378,-208.145 477.286,-195.948 487.203,-187.834"/>
<polygon fill="midnightblue" stroke="midnightblue" points="448.127,-215.283 442.604,-224.324 452.56,-220.7 448.127,-215.283"/>
</g>
<!-- Node4 -->
<g id="node4" class="node"><title>Node4</title>
<g id="a_node4"><a xlink:href="../../de/d66/_packet_constructor_8h.html" target="_top" xlink:title="comm/PacketConstructor.h">
<polygon fill="white" stroke="black" points="61.5,-112.5 61.5,-131.5 198.5,-131.5 198.5,-112.5 61.5,-112.5"/>
<text text-anchor="middle" x="130" y="-119.5" font-family="Helvetica,sans-Serif" font-size="10.00">comm/PacketConstructor.h</text>
</a>
</g>
</g>
<!-- Node3&#45;&gt;Node4 -->
<g id="edge3" class="edge"><title>Node3&#45;&gt;Node4</title>
<path fill="none" stroke="midnightblue" d="M200.682,-163.177C183.201,-153.241 160.17,-140.149 145.226,-131.655"/>
<polygon fill="midnightblue" stroke="midnightblue" points="199.313,-166.425 209.737,-168.324 202.773,-160.339 199.313,-166.425"/>
</g>
<!-- Node5 -->
<g id="node5" class="node"><title>Node5</title>
<g id="a_node5"><a xlink:href="../../d9/dde/_packet_constructor_8cpp.html" target="_top" xlink:title="Creates a packet for sending data from the slave systems to the main computer. ">
<polygon fill="white" stroke="black" points="-0.5,-56.5 -0.5,-75.5 146.5,-75.5 146.5,-56.5 -0.5,-56.5"/>
<text text-anchor="middle" x="73" y="-63.5" font-family="Helvetica,sans-Serif" font-size="10.00">comm/PacketConstructor.cpp</text>
</a>
</g>
</g>
<!-- Node4&#45;&gt;Node5 -->
<g id="edge4" class="edge"><title>Node4&#45;&gt;Node5</title>
<path fill="none" stroke="midnightblue" d="M113.379,-105.253C103.266,-95.6731 90.7234,-83.7906 82.3247,-75.8339"/>
<polygon fill="midnightblue" stroke="midnightblue" points="111.175,-107.987 120.842,-112.324 115.99,-102.906 111.175,-107.987"/>
</g>
<!-- Node7 -->
<g id="node7" class="node"><title>Node7</title>
<g id="a_node7"><a xlink:href="../../df/d03/_array_heap_8h.html" target="_top" xlink:title="Heap manipulation and implementation. ">
<polygon fill="white" stroke="black" points="164.5,-56.5 164.5,-75.5 249.5,-75.5 249.5,-56.5 164.5,-56.5"/>
<text text-anchor="middle" x="207" y="-63.5" font-family="Helvetica,sans-Serif" font-size="10.00">stl/ArrayHeap.h</text>
</a>
</g>
</g>
<!-- Node6&#45;&gt;Node7 -->
<g id="edge6" class="edge"><title>Node6&#45;&gt;Node7</title>
<path fill="none" stroke="midnightblue" d="M274.706,-107.177C257.961,-97.2407 235.9,-84.1492 221.584,-75.6545"/>
<polygon fill="midnightblue" stroke="midnightblue" points="272.993,-110.231 283.379,-112.324 276.566,-104.211 272.993,-110.231"/>
</g>
<!-- Node8 -->
<g id="node8" class="node"><title>Node8</title>
<g id="a_node8"><a xlink:href="../../d5/d08/_red_black_tree_8h.html" target="_top" xlink:title="Red black tree implementation. ">
<polygon fill="white" stroke="black" points="267.5,-56.5 267.5,-75.5 368.5,-75.5 368.5,-56.5 267.5,-56.5"/>
<text text-anchor="middle" x="318" y="-63.5" font-family="Helvetica,sans-Serif" font-size="10.00">stl/RedBlackTree.h</text>
</a>
</g>
</g>
<!-- Node6&#45;&gt;Node8 -->
<g id="edge7" class="edge"><title>Node6&#45;&gt;Node8</title>
<path fill="none" stroke="midnightblue" d="M304.782,-102.69C308.152,-93.589 312.069,-83.0141 314.759,-75.7511"/>
<polygon fill="midnightblue" stroke="midnightblue" points="301.494,-101.49 301.303,-112.083 308.058,-103.921 301.494,-101.49"/>
</g>
<!-- Node9 -->
<g id="node9" class="node"><title>Node9</title>
<g id="a_node9"><a xlink:href="../../df/d87/_tree_map_8h.html" target="_top" xlink:title="Map implementation using red black tree. ">
<polygon fill="white" stroke="black" points="232.5,-0.5 232.5,-19.5 309.5,-19.5 309.5,-0.5 232.5,-0.5"/>
<text text-anchor="middle" x="271" y="-7.5" font-family="Helvetica,sans-Serif" font-size="10.00">stl/TreeMap.h</text>
</a>
</g>
</g>
<!-- Node8&#45;&gt;Node9 -->
<g id="edge8" class="edge"><title>Node8&#45;&gt;Node9</title>
<path fill="none" stroke="midnightblue" d="M303.579,-48.4314C295.342,-38.9673 285.346,-27.4827 278.617,-19.7511"/>
<polygon fill="midnightblue" stroke="midnightblue" points="301.034,-50.8378 310.239,-56.083 306.314,-46.2421 301.034,-50.8378"/>
</g>
<!-- Node10 -->
<g id="node10" class="node"><title>Node10</title>
<g id="a_node10"><a xlink:href="../../dd/dba/_tree_set_8h.html" target="_top" xlink:title="Set implementation using red black tree. ">
<polygon fill="white" stroke="black" points="327.5,-0.5 327.5,-19.5 400.5,-19.5 400.5,-0.5 327.5,-0.5"/>
<text text-anchor="middle" x="364" y="-7.5" font-family="Helvetica,sans-Serif" font-size="10.00">stl/TreeSet.h</text>
</a>
</g>
</g>
<!-- Node8&#45;&gt;Node10 -->
<g id="edge9" class="edge"><title>Node8&#45;&gt;Node10</title>
<path fill="none" stroke="midnightblue" d="M332.114,-48.4314C340.176,-38.9673 349.959,-27.4827 356.545,-19.7511"/>
<polygon fill="midnightblue" stroke="midnightblue" points="329.416,-46.2009 325.596,-56.083 334.745,-50.7402 329.416,-46.2009"/>
</g>
<!-- Node11&#45;&gt;Node6 -->
<g id="edge11" class="edge"><title>Node11&#45;&gt;Node6</title>
<path fill="none" stroke="midnightblue" d="M376.172,-163.59C356.943,-153.605 331.255,-140.267 314.668,-131.655"/>
<polygon fill="midnightblue" stroke="midnightblue" points="374.803,-166.822 385.291,-168.324 378.029,-160.61 374.803,-166.822"/>
</g>
<!-- Node12 -->
<g id="node12" class="node"><title>Node12</title>
<g id="a_node12"><a xlink:href="../../d3/dbe/_chain_map_8h.html" target="_top" xlink:title="Hasher map implementation. ">
<polygon fill="white" stroke="black" points="360.5,-112.5 360.5,-131.5 443.5,-131.5 443.5,-112.5 360.5,-112.5"/>
<text text-anchor="middle" x="402" y="-119.5" font-family="Helvetica,sans-Serif" font-size="10.00">stl/ChainMap.h</text>
</a>
</g>
</g>
<!-- Node11&#45;&gt;Node12 -->
<g id="edge12" class="edge"><title>Node11&#45;&gt;Node12</title>
<path fill="none" stroke="midnightblue" d="M402,-157.805C402,-148.91 402,-138.78 402,-131.751"/>
<polygon fill="midnightblue" stroke="midnightblue" points="398.5,-158.083 402,-168.083 405.5,-158.083 398.5,-158.083"/>
</g>
<!-- Node14 -->
<g id="node14" class="node"><title>Node14</title>
<g id="a_node14"><a xlink:href="../../d5/d7a/_open_map_8h.html" target="_top" xlink:title="Hash map implementation. ">
<polygon fill="white" stroke="black" points="503,-56.5 503,-75.5 583,-75.5 583,-56.5 503,-56.5"/>
<text text-anchor="middle" x="543" y="-63.5" font-family="Helvetica,sans-Serif" font-size="10.00">stl/OpenMap.h</text>
</a>
</g>
</g>
<!-- Node11&#45;&gt;Node14 -->
<g id="edge14" class="edge"><title>Node11&#45;&gt;Node14</title>
<path fill="none" stroke="midnightblue" d="M421.077,-162.118C451.005,-138.769 508.045,-94.2699 531.987,-75.5914"/>
<polygon fill="midnightblue" stroke="midnightblue" points="418.796,-159.458 413.064,-168.368 423.101,-164.977 418.796,-159.458"/>
</g>
<!-- Node15 -->
<g id="node15" class="node"><title>Node15</title>
<g id="a_node15"><a xlink:href="../../d8/d2e/_open_table_8h.html" target="_top" xlink:title="stl/OpenTable.h">
<polygon fill="white" stroke="black" points="500,-112.5 500,-131.5 586,-131.5 586,-112.5 500,-112.5"/>
<text text-anchor="middle" x="543" y="-119.5" font-family="Helvetica,sans-Serif" font-size="10.00">stl/OpenTable.h</text>
</a>
</g>
</g>
<!-- Node11&#45;&gt;Node15 -->
<g id="edge15" class="edge"><title>Node11&#45;&gt;Node15</title>
<path fill="none" stroke="midnightblue" d="M433.929,-164.772C460.414,-154.629 497.392,-140.467 520.763,-131.516"/>
<polygon fill="midnightblue" stroke="midnightblue" points="432.429,-161.599 424.342,-168.444 434.932,-168.136 432.429,-161.599"/>
</g>
<!-- Node16 -->
<g id="node16" class="node"><title>Node16</title>
<g id="a_node16"><a xlink:href="../../d0/de6/_open_set_8h.html" target="_top" xlink:title="Hash set implementation. ">
<polygon fill="white" stroke="black" points="613.5,-56.5 613.5,-75.5 690.5,-75.5 690.5,-56.5 613.5,-56.5"/>
<text text-anchor="middle" x="652" y="-63.5" font-family="Helvetica,sans-Serif" font-size="10.00">stl/OpenSet.h</text>
</a>
</g>
</g>
<!-- Node11&#45;&gt;Node16 -->
<g id="edge18" class="edge"><title>Node11&#45;&gt;Node16</title>
<path fill="none" stroke="midnightblue" d="M443.546,-167.645C499.281,-155.048 591.71,-133.972 595,-132 618.945,-117.648 638.185,-89.838 646.916,-75.7027"/>
<polygon fill="midnightblue" stroke="midnightblue" points="442.58,-164.275 433.596,-169.892 444.122,-171.103 442.58,-164.275"/>
</g>
<!-- Node13 -->
<g id="node13" class="node"><title>Node13</title>
<g id="a_node13"><a xlink:href="../../d6/d59/_chain_set_8h.html" target="_top" xlink:title="Hash set implementation. ">
<polygon fill="white" stroke="black" points="386.5,-56.5 386.5,-75.5 465.5,-75.5 465.5,-56.5 386.5,-56.5"/>
<text text-anchor="middle" x="426" y="-63.5" font-family="Helvetica,sans-Serif" font-size="10.00">stl/ChainSet.h</text>
</a>
</g>
</g>
<!-- Node12&#45;&gt;Node13 -->
<g id="edge13" class="edge"><title>Node12&#45;&gt;Node13</title>
<path fill="none" stroke="midnightblue" d="M410.138,-102.69C414.183,-93.589 418.883,-83.0141 422.111,-75.7511"/>
<polygon fill="midnightblue" stroke="midnightblue" points="406.826,-101.523 405.963,-112.083 413.223,-104.366 406.826,-101.523"/>
</g>
<!-- Node15&#45;&gt;Node14 -->
<g id="edge16" class="edge"><title>Node15&#45;&gt;Node14</title>
<path fill="none" stroke="midnightblue" d="M543,-101.805C543,-92.9102 543,-82.7798 543,-75.7511"/>
<polygon fill="midnightblue" stroke="midnightblue" points="539.5,-102.083 543,-112.083 546.5,-102.083 539.5,-102.083"/>
</g>
<!-- Node15&#45;&gt;Node16 -->
<g id="edge17" class="edge"><title>Node15&#45;&gt;Node16</title>
<path fill="none" stroke="midnightblue" d="M569.519,-107.862C589.73,-97.8492 616.987,-84.3458 634.531,-75.6545"/>
<polygon fill="midnightblue" stroke="midnightblue" points="567.92,-104.748 560.513,-112.324 571.027,-111.021 567.92,-104.748"/>
</g>
<!-- Node17&#45;&gt;Node12 -->
<g id="edge20" class="edge"><title>Node17&#45;&gt;Node12</title>
<path fill="none" stroke="midnightblue" d="M553.027,-165.699C516.979,-155.507 464.757,-140.743 432.123,-131.516"/>
<polygon fill="midnightblue" stroke="midnightblue" points="552.16,-169.091 562.735,-168.444 554.065,-162.355 552.16,-169.091"/>
</g>
<!-- Node17&#45;&gt;Node14 -->
<g id="edge21" class="edge"><title>Node17&#45;&gt;Node14</title>
<path fill="none" stroke="midnightblue" d="M597.874,-158.092C600.346,-144.629 601.6,-126.44 595,-112 587.605,-95.821 571.203,-83.2312 558.783,-75.5333"/>
<polygon fill="midnightblue" stroke="midnightblue" points="594.402,-157.582 595.658,-168.102 601.237,-159.095 594.402,-157.582"/>
</g>
<!-- Node17&#45;&gt;Node15 -->
<g id="edge22" class="edge"><title>Node17&#45;&gt;Node15</title>
<path fill="none" stroke="midnightblue" d="M577.924,-160.718C569.111,-151.2 558.334,-139.561 551.103,-131.751"/>
<polygon fill="midnightblue" stroke="midnightblue" points="575.381,-163.123 584.744,-168.083 580.518,-158.367 575.381,-163.123"/>
</g>
<!-- Node17&#45;&gt;Node16 -->
<g id="edge23" class="edge"><title>Node17&#45;&gt;Node16</title>
<path fill="none" stroke="midnightblue" d="M628.446,-164.196C642.78,-157.064 657.844,-146.609 666,-132 676.241,-113.656 664.845,-88.5418 657.4,-75.5554"/>
<polygon fill="midnightblue" stroke="midnightblue" points="626.854,-161.076 619.211,-168.414 629.762,-167.443 626.854,-161.076"/>
</g>
</g>
</svg>
