<?xml version="1.0" encoding="UTF-8" standalone="no"?>
<!DOCTYPE svg PUBLIC "-//W3C//DTD SVG 1.1//EN"
 "http://www.w3.org/Graphics/SVG/1.1/DTD/svg11.dtd">
<!-- Generated by graphviz version 2.36.0 (20140111.2315)
 -->
<!-- Title: wlib/utility/Math.h Pages: 1 -->
<svg width="769pt" height="308pt"
 viewBox="0.00 0.00 769.00 308.00" xmlns="http://www.w3.org/2000/svg" xmlns:xlink="http://www.w3.org/1999/xlink">
<g id="graph0" class="graph" transform="scale(1 1) rotate(0) translate(4 304)">
<title>wlib/utility/Math.h</title>
<polygon fill="white" stroke="none" points="-4,4 -4,-304 765,-304 765,4 -4,4"/>
<!-- Node1 -->
<g id="node1" class="node"><title>Node1</title>
<polygon fill="#bfbfbf" stroke="black" points="273.5,-280.5 273.5,-299.5 366.5,-299.5 366.5,-280.5 273.5,-280.5"/>
<text text-anchor="middle" x="320" y="-287.5" font-family="Helvetica,sans-Serif" font-size="10.00">wlib/utility/Math.h</text>
</g>
<!-- Node2 -->
<g id="node2" class="node"><title>Node2</title>
<g id="a_node2"><a xlink:href="../../d0/d55/_allocator_8cpp.html" target="_top" xlink:title="Implementation of Allocator. ">
<polygon fill="white" stroke="black" points="38,-224.5 38,-243.5 170,-243.5 170,-224.5 38,-224.5"/>
<text text-anchor="middle" x="104" y="-231.5" font-family="Helvetica,sans-Serif" font-size="10.00">wlib/memory/Allocator.cpp</text>
</a>
</g>
</g>
<!-- Node1&#45;&gt;Node2 -->
<g id="edge1" class="edge"><title>Node1&#45;&gt;Node2</title>
<path fill="none" stroke="midnightblue" d="M275.836,-277.959C235.039,-267.76 175.287,-252.822 138.066,-243.516"/>
<polygon fill="midnightblue" stroke="midnightblue" points="275.224,-281.414 285.774,-280.444 276.922,-274.623 275.224,-281.414"/>
</g>
<!-- Node3 -->
<g id="node3" class="node"><title>Node3</title>
<g id="a_node3"><a xlink:href="../../df/d64/_memory_8cpp.html" target="_top" xlink:title="Implementation of Memory functions. ">
<polygon fill="white" stroke="black" points="188.5,-224.5 188.5,-243.5 317.5,-243.5 317.5,-224.5 188.5,-224.5"/>
<text text-anchor="middle" x="253" y="-231.5" font-family="Helvetica,sans-Serif" font-size="10.00">wlib/memory/Memory.cpp</text>
</a>
</g>
</g>
<!-- Node1&#45;&gt;Node3 -->
<g id="edge2" class="edge"><title>Node1&#45;&gt;Node3</title>
<path fill="none" stroke="midnightblue" d="M301.165,-273.82C289.162,-264.145 274.028,-251.948 263.961,-243.834"/>
<polygon fill="midnightblue" stroke="midnightblue" points="299.253,-276.774 309.235,-280.324 303.646,-271.324 299.253,-276.774"/>
</g>
<!-- Node4 -->
<g id="node4" class="node"><title>Node4</title>
<g id="a_node4"><a xlink:href="../../d2/dad/_hash_8h.html" target="_top" xlink:title="wlib/stl/Hash.h">
<polygon fill="white" stroke="black" points="488,-168.5 488,-187.5 570,-187.5 570,-168.5 488,-168.5"/>
<text text-anchor="middle" x="529" y="-175.5" font-family="Helvetica,sans-Serif" font-size="10.00">wlib/stl/Hash.h</text>
</a>
</g>
</g>
<!-- Node1&#45;&gt;Node4 -->
<g id="edge3" class="edge"><title>Node1&#45;&gt;Node4</title>
<path fill="none" stroke="midnightblue" d="M363.067,-277.609C388.39,-269.98 420.529,-258.647 447,-244 476.247,-227.817 505.813,-201.318 520.13,-187.692"/>
<polygon fill="midnightblue" stroke="midnightblue" points="361.983,-274.279 353.372,-280.451 363.952,-280.997 361.983,-274.279"/>
</g>
<!-- Node11 -->
<g id="node11" class="node"><title>Node11</title>
<g id="a_node11"><a xlink:href="../../db/db5/_string_8h.html" target="_top" xlink:title="wlib/strings/String.h">
<polygon fill="white" stroke="black" points="335.5,-224.5 335.5,-243.5 438.5,-243.5 438.5,-224.5 335.5,-224.5"/>
<text text-anchor="middle" x="387" y="-231.5" font-family="Helvetica,sans-Serif" font-size="10.00">wlib/strings/String.h</text>
</a>
</g>
</g>
<!-- Node1&#45;&gt;Node11 -->
<g id="edge14" class="edge"><title>Node1&#45;&gt;Node11</title>
<path fill="none" stroke="midnightblue" d="M338.835,-273.82C350.838,-264.145 365.972,-251.948 376.039,-243.834"/>
<polygon fill="midnightblue" stroke="midnightblue" points="336.354,-271.324 330.765,-280.324 340.747,-276.774 336.354,-271.324"/>
</g>
<!-- Node5 -->
<g id="node5" class="node"><title>Node5</title>
<g id="a_node5"><a xlink:href="../../dd/d0b/_hash_map_8h.html" target="_top" xlink:title="wlib/stl/HashMap.h">
<polygon fill="white" stroke="black" points="545.5,-56.5 545.5,-75.5 646.5,-75.5 646.5,-56.5 545.5,-56.5"/>
<text text-anchor="middle" x="596" y="-63.5" font-family="Helvetica,sans-Serif" font-size="10.00">wlib/stl/HashMap.h</text>
</a>
</g>
</g>
<!-- Node4&#45;&gt;Node5 -->
<g id="edge4" class="edge"><title>Node4&#45;&gt;Node5</title>
<path fill="none" stroke="midnightblue" d="M580.536,-175.796C613.296,-172.02 653.465,-161.172 675,-132 693.091,-107.494 651.488,-86.6504 622.052,-75.5605"/>
<polygon fill="midnightblue" stroke="midnightblue" points="579.813,-172.349 570.192,-176.788 580.481,-179.317 579.813,-172.349"/>
</g>
<!-- Node6 -->
<g id="node6" class="node"><title>Node6</title>
<g id="a_node6"><a xlink:href="../../d2/dfc/_hash_set_8h.html" target="_top" xlink:title="wlib/stl/HashSet.h">
<polygon fill="white" stroke="black" points="664.5,-56.5 664.5,-75.5 761.5,-75.5 761.5,-56.5 664.5,-56.5"/>
<text text-anchor="middle" x="713" y="-63.5" font-family="Helvetica,sans-Serif" font-size="10.00">wlib/stl/HashSet.h</text>
</a>
</g>
</g>
<!-- Node4&#45;&gt;Node6 -->
<g id="edge5" class="edge"><title>Node4&#45;&gt;Node6</title>
<path fill="none" stroke="midnightblue" d="M580.233,-174.968C615.54,-170.936 661.279,-160.118 691,-132 707.097,-116.771 711.417,-89.3587 712.575,-75.5061"/>
<polygon fill="midnightblue" stroke="midnightblue" points="579.713,-171.503 570.108,-175.974 580.405,-178.468 579.713,-171.503"/>
</g>
<!-- Node7 -->
<g id="node7" class="node"><title>Node7</title>
<g id="a_node7"><a xlink:href="../../de/def/_hash_table_8h.html" target="_top" xlink:title="wlib/stl/HashTable.h">
<polygon fill="white" stroke="black" points="561,-112.5 561,-131.5 667,-131.5 667,-112.5 561,-112.5"/>
<text text-anchor="middle" x="614" y="-119.5" font-family="Helvetica,sans-Serif" font-size="10.00">wlib/stl/HashTable.h</text>
</a>
</g>
</g>
<!-- Node4&#45;&gt;Node7 -->
<g id="edge6" class="edge"><title>Node4&#45;&gt;Node7</title>
<path fill="none" stroke="midnightblue" d="M551.194,-162.901C566.78,-152.999 587.13,-140.071 600.377,-131.655"/>
<polygon fill="midnightblue" stroke="midnightblue" points="549.221,-160.007 542.657,-168.324 552.974,-165.916 549.221,-160.007"/>
</g>
<!-- Node8 -->
<g id="node8" class="node"><title>Node8</title>
<g id="a_node8"><a xlink:href="../../d5/d7a/_open_map_8h.html" target="_top" xlink:title="Hash map implementation. ">
<polygon fill="white" stroke="black" points="270.5,-56.5 270.5,-75.5 371.5,-75.5 371.5,-56.5 270.5,-56.5"/>
<text text-anchor="middle" x="321" y="-63.5" font-family="Helvetica,sans-Serif" font-size="10.00">wlib/stl/OpenMap.h</text>
</a>
</g>
</g>
<!-- Node4&#45;&gt;Node8 -->
<g id="edge9" class="edge"><title>Node4&#45;&gt;Node8</title>
<path fill="none" stroke="midnightblue" d="M503.645,-163.591C460.342,-140.691 373.323,-94.6708 337.246,-75.5914"/>
<polygon fill="midnightblue" stroke="midnightblue" points="502.202,-166.787 512.679,-168.368 505.475,-160.599 502.202,-166.787"/>
</g>
<!-- Node9 -->
<g id="node9" class="node"><title>Node9</title>
<g id="a_node9"><a xlink:href="../../d0/de6/_open_set_8h.html" target="_top" xlink:title="Hash set implementation. ">
<polygon fill="white" stroke="black" points="389.5,-56.5 389.5,-75.5 486.5,-75.5 486.5,-56.5 389.5,-56.5"/>
<text text-anchor="middle" x="438" y="-63.5" font-family="Helvetica,sans-Serif" font-size="10.00">wlib/stl/OpenSet.h</text>
</a>
</g>
</g>
<!-- Node4&#45;&gt;Node9 -->
<g id="edge10" class="edge"><title>Node4&#45;&gt;Node9</title>
<path fill="none" stroke="midnightblue" d="M515.421,-160.586C495.802,-136.871 460.228,-93.8691 445.107,-75.5914"/>
<polygon fill="midnightblue" stroke="midnightblue" points="512.788,-162.894 521.859,-168.368 518.182,-158.432 512.788,-162.894"/>
</g>
<!-- Node10 -->
<g id="node10" class="node"><title>Node10</title>
<g id="a_node10"><a xlink:href="../../d8/d2e/_open_table_8h.html" target="_top" xlink:title="wlib/stl/OpenTable.h">
<polygon fill="white" stroke="black" points="285,-112.5 285,-131.5 391,-131.5 391,-112.5 285,-112.5"/>
<text text-anchor="middle" x="338" y="-119.5" font-family="Helvetica,sans-Serif" font-size="10.00">wlib/stl/OpenTable.h</text>
</a>
</g>
</g>
<!-- Node4&#45;&gt;Node10 -->
<g id="edge11" class="edge"><title>Node4&#45;&gt;Node10</title>
<path fill="none" stroke="midnightblue" d="M489.027,-165.699C452.979,-155.507 400.757,-140.743 368.123,-131.516"/>
<polygon fill="midnightblue" stroke="midnightblue" points="488.16,-169.091 498.735,-168.444 490.065,-162.355 488.16,-169.091"/>
</g>
<!-- Node7&#45;&gt;Node5 -->
<g id="edge7" class="edge"><title>Node7&#45;&gt;Node5</title>
<path fill="none" stroke="midnightblue" d="M607.799,-102.396C604.787,-93.362 601.312,-82.936 598.917,-75.7511"/>
<polygon fill="midnightblue" stroke="midnightblue" points="604.545,-103.703 611.028,-112.083 611.186,-101.489 604.545,-103.703"/>
</g>
<!-- Node7&#45;&gt;Node6 -->
<g id="edge8" class="edge"><title>Node7&#45;&gt;Node6</title>
<path fill="none" stroke="midnightblue" d="M638.837,-107.453C657.114,-97.4835 681.416,-84.2279 697.133,-75.6545"/>
<polygon fill="midnightblue" stroke="midnightblue" points="637.009,-104.463 629.906,-112.324 640.361,-110.608 637.009,-104.463"/>
</g>
<!-- Node10&#45;&gt;Node8 -->
<g id="edge12" class="edge"><title>Node10&#45;&gt;Node8</title>
<path fill="none" stroke="midnightblue" d="M332.143,-102.396C329.299,-93.362 326.017,-82.936 323.755,-75.7511"/>
<polygon fill="midnightblue" stroke="midnightblue" points="328.851,-103.596 335.193,-112.083 335.528,-101.493 328.851,-103.596"/>
</g>
<!-- Node10&#45;&gt;Node9 -->
<g id="edge13" class="edge"><title>Node10&#45;&gt;Node9</title>
<path fill="none" stroke="midnightblue" d="M363.088,-107.453C381.549,-97.4835 406.097,-84.2279 421.973,-75.6545"/>
<polygon fill="midnightblue" stroke="midnightblue" points="361.203,-104.493 354.067,-112.324 364.529,-110.652 361.203,-104.493"/>
</g>
<!-- Node11&#45;&gt;Node4 -->
<g id="edge29" class="edge"><title>Node11&#45;&gt;Node4</title>
<path fill="none" stroke="midnightblue" d="M419.155,-220.772C445.828,-210.629 483.069,-196.467 506.605,-187.516"/>
<polygon fill="midnightblue" stroke="midnightblue" points="417.603,-217.618 409.5,-224.444 420.091,-224.16 417.603,-217.618"/>
</g>
<!-- Node12 -->
<g id="node12" class="node"><title>Node12</title>
<g id="a_node12"><a xlink:href="../../de/d6d/_bitset_8h.html" target="_top" xlink:title="Bitset is a class that provides bits manipulation methods. ">
<polygon fill="white" stroke="black" points="108,-168.5 108,-187.5 192,-187.5 192,-168.5 108,-168.5"/>
<text text-anchor="middle" x="150" y="-175.5" font-family="Helvetica,sans-Serif" font-size="10.00">wlib/stl/Bitset.h</text>
</a>
</g>
</g>
<!-- Node11&#45;&gt;Node12 -->
<g id="edge15" class="edge"><title>Node11&#45;&gt;Node12</title>
<path fill="none" stroke="midnightblue" d="M339.676,-222.217C294.892,-212.013 228.564,-196.901 187.378,-187.516"/>
<polygon fill="midnightblue" stroke="midnightblue" points="338.919,-225.634 349.447,-224.444 340.474,-218.809 338.919,-225.634"/>
</g>
<!-- Node13 -->
<g id="node13" class="node"><title>Node13</title>
<g id="a_node13"><a xlink:href="../../d7/d0c/_comparator_8h.html" target="_top" xlink:title="Comparator implementation for basic types. ">
<polygon fill="white" stroke="black" points="119,-112.5 119,-131.5 229,-131.5 229,-112.5 119,-112.5"/>
<text text-anchor="middle" x="174" y="-119.5" font-family="Helvetica,sans-Serif" font-size="10.00">wlib/stl/Comparator.h</text>
</a>
</g>
</g>
<!-- Node11&#45;&gt;Node13 -->
<g id="edge16" class="edge"><title>Node11&#45;&gt;Node13</title>
<path fill="none" stroke="midnightblue" d="M376.603,-215.733C366.851,-200.97 350.952,-180.228 332,-168 301.084,-148.053 261.206,-136.782 229.248,-130.509"/>
<polygon fill="midnightblue" stroke="midnightblue" points="373.793,-217.838 382.094,-224.422 379.71,-214.099 373.793,-217.838"/>
</g>
<!-- Node18 -->
<g id="node18" class="node"><title>Node18</title>
<g id="a_node18"><a xlink:href="../../d2/dc2/_equal_8h.html" target="_top" xlink:title="wlib/stl/Equal.h">
<polygon fill="white" stroke="black" points="380.5,-168.5 380.5,-187.5 463.5,-187.5 463.5,-168.5 380.5,-168.5"/>
<text text-anchor="middle" x="422" y="-175.5" font-family="Helvetica,sans-Serif" font-size="10.00">wlib/stl/Equal.h</text>
</a>
</g>
</g>
<!-- Node11&#45;&gt;Node18 -->
<g id="edge21" class="edge"><title>Node11&#45;&gt;Node18</title>
<path fill="none" stroke="midnightblue" d="M398.3,-215.566C404.322,-206.275 411.469,-195.248 416.328,-187.751"/>
<polygon fill="midnightblue" stroke="midnightblue" points="395.281,-213.788 392.78,-224.083 401.156,-217.595 395.281,-213.788"/>
</g>
<!-- Node19 -->
<g id="node19" class="node"><title>Node19</title>
<g id="a_node19"><a xlink:href="../../d9/dae/_string_8cpp.html" target="_top" xlink:title="wlib/strings/String.cpp">
<polygon fill="white" stroke="black" points="210.5,-168.5 210.5,-187.5 323.5,-187.5 323.5,-168.5 210.5,-168.5"/>
<text text-anchor="middle" x="267" y="-175.5" font-family="Helvetica,sans-Serif" font-size="10.00">wlib/strings/String.cpp</text>
</a>
</g>
</g>
<!-- Node11&#45;&gt;Node19 -->
<g id="edge30" class="edge"><title>Node11&#45;&gt;Node19</title>
<path fill="none" stroke="midnightblue" d="M358.627,-220.232C336.18,-210.131 305.465,-196.309 285.925,-187.516"/>
<polygon fill="midnightblue" stroke="midnightblue" points="357.43,-223.532 367.986,-224.444 360.303,-217.148 357.43,-223.532"/>
</g>
<!-- Node14 -->
<g id="node14" class="node"><title>Node14</title>
<g id="a_node14"><a xlink:href="../../df/d03/_array_heap_8h.html" target="_top" xlink:title="Heap manipulation and implementation. ">
<polygon fill="white" stroke="black" points="-0.5,-56.5 -0.5,-75.5 104.5,-75.5 104.5,-56.5 -0.5,-56.5"/>
<text text-anchor="middle" x="52" y="-63.5" font-family="Helvetica,sans-Serif" font-size="10.00">wlib/stl/ArrayHeap.h</text>
</a>
</g>
</g>
<!-- Node13&#45;&gt;Node14 -->
<g id="edge17" class="edge"><title>Node13&#45;&gt;Node14</title>
<path fill="none" stroke="midnightblue" d="M145.461,-108.368C122.614,-98.2553 91.1949,-84.3486 71.2408,-75.5164"/>
<polygon fill="midnightblue" stroke="midnightblue" points="144.108,-111.597 154.669,-112.444 146.941,-105.196 144.108,-111.597"/>
</g>
<!-- Node15 -->
<g id="node15" class="node"><title>Node15</title>
<g id="a_node15"><a xlink:href="../../d5/d08/_red_black_tree_8h.html" target="_top" xlink:title="Red black tree implementation. ">
<polygon fill="white" stroke="black" points="122.5,-56.5 122.5,-75.5 243.5,-75.5 243.5,-56.5 122.5,-56.5"/>
<text text-anchor="middle" x="183" y="-63.5" font-family="Helvetica,sans-Serif" font-size="10.00">wlib/stl/RedBlackTree.h</text>
</a>
</g>
</g>
<!-- Node13&#45;&gt;Node15 -->
<g id="edge18" class="edge"><title>Node13&#45;&gt;Node15</title>
<path fill="none" stroke="midnightblue" d="M177.15,-102.101C178.644,-93.1357 180.357,-82.8579 181.541,-75.7511"/>
<polygon fill="midnightblue" stroke="midnightblue" points="173.678,-101.644 175.486,-112.083 180.583,-102.794 173.678,-101.644"/>
</g>
<!-- Node16 -->
<g id="node16" class="node"><title>Node16</title>
<g id="a_node16"><a xlink:href="../../df/d87/_tree_map_8h.html" target="_top" xlink:title="Map implementation using red black tree. ">
<polygon fill="white" stroke="black" points="78.5,-0.5 78.5,-19.5 175.5,-19.5 175.5,-0.5 78.5,-0.5"/>
<text text-anchor="middle" x="127" y="-7.5" font-family="Helvetica,sans-Serif" font-size="10.00">wlib/stl/TreeMap.h</text>
</a>
</g>
</g>
<!-- Node15&#45;&gt;Node16 -->
<g id="edge19" class="edge"><title>Node15&#45;&gt;Node16</title>
<path fill="none" stroke="midnightblue" d="M166.67,-49.2533C156.735,-39.6731 144.412,-27.7906 136.161,-19.8339"/>
<polygon fill="midnightblue" stroke="midnightblue" points="164.375,-51.902 174.003,-56.324 169.234,-46.8631 164.375,-51.902"/>
</g>
<!-- Node17 -->
<g id="node17" class="node"><title>Node17</title>
<g id="a_node17"><a xlink:href="../../dd/dba/_tree_set_8h.html" target="_top" xlink:title="Set implementation using red black tree. ">
<polygon fill="white" stroke="black" points="193.5,-0.5 193.5,-19.5 286.5,-19.5 286.5,-0.5 193.5,-0.5"/>
<text text-anchor="middle" x="240" y="-7.5" font-family="Helvetica,sans-Serif" font-size="10.00">wlib/stl/TreeSet.h</text>
</a>
</g>
</g>
<!-- Node15&#45;&gt;Node17 -->
<g id="edge20" class="edge"><title>Node15&#45;&gt;Node17</title>
<path fill="none" stroke="midnightblue" d="M199.621,-49.2533C209.734,-39.6731 222.277,-27.7906 230.675,-19.8339"/>
<polygon fill="midnightblue" stroke="midnightblue" points="197.01,-46.9056 192.158,-56.324 201.825,-51.9873 197.01,-46.9056"/>
</g>
<!-- Node18&#45;&gt;Node5 -->
<g id="edge23" class="edge"><title>Node18&#45;&gt;Node5</title>
<path fill="none" stroke="midnightblue" d="M444.132,-163.009C480.655,-139.919 552.484,-94.5104 582.41,-75.5914"/>
<polygon fill="midnightblue" stroke="midnightblue" points="442.236,-160.066 435.653,-168.368 445.976,-165.983 442.236,-160.066"/>
</g>
<!-- Node18&#45;&gt;Node6 -->
<g id="edge24" class="edge"><title>Node18&#45;&gt;Node6</title>
<path fill="none" stroke="midnightblue" d="M473.659,-168.368C546.448,-156.127 670.866,-134.883 675,-132 694.944,-118.094 705.967,-90.082 710.504,-75.8028"/>
<polygon fill="midnightblue" stroke="midnightblue" points="473.031,-164.925 463.749,-170.033 474.191,-171.828 473.031,-164.925"/>
</g>
<!-- Node18&#45;&gt;Node7 -->
<g id="edge25" class="edge"><title>Node18&#45;&gt;Node7</title>
<path fill="none" stroke="midnightblue" d="M462.183,-165.699C498.419,-155.507 550.914,-140.743 583.719,-131.516"/>
<polygon fill="midnightblue" stroke="midnightblue" points="461.102,-162.367 452.423,-168.444 462.997,-169.105 461.102,-162.367"/>
</g>
<!-- Node18&#45;&gt;Node8 -->
<g id="edge26" class="edge"><title>Node18&#45;&gt;Node8</title>
<path fill="none" stroke="midnightblue" d="M370.157,-167.736C332.953,-159.91 287.447,-147.507 276,-132 261.327,-112.124 289.535,-88.0635 307.577,-75.5295"/>
<polygon fill="midnightblue" stroke="midnightblue" points="369.898,-171.255 380.395,-169.821 371.294,-164.396 369.898,-171.255"/>
</g>
<!-- Node18&#45;&gt;Node9 -->
<g id="edge27" class="edge"><title>Node18&#45;&gt;Node9</title>
<path fill="none" stroke="midnightblue" d="M424.713,-158.348C428.218,-134.254 434.173,-93.3079 436.75,-75.5914"/>
<polygon fill="midnightblue" stroke="midnightblue" points="421.231,-157.969 423.255,-168.368 428.159,-158.976 421.231,-157.969"/>
</g>
<!-- Node18&#45;&gt;Node10 -->
<g id="edge28" class="edge"><title>Node18&#45;&gt;Node10</title>
<path fill="none" stroke="midnightblue" d="M400.068,-162.901C384.665,-152.999 364.554,-140.071 351.463,-131.655"/>
<polygon fill="midnightblue" stroke="midnightblue" points="398.199,-165.86 408.504,-168.324 401.985,-159.972 398.199,-165.86"/>
</g>
<!-- Node18&#45;&gt;Node13 -->
<g id="edge22" class="edge"><title>Node18&#45;&gt;Node13</title>
<path fill="none" stroke="midnightblue" d="M372.774,-166.281C325.909,-156.077 256.301,-140.92 213.112,-131.516"/>
<polygon fill="midnightblue" stroke="midnightblue" points="372.188,-169.736 382.704,-168.444 373.677,-162.896 372.188,-169.736"/>
</g>
</g>
</svg>
