<?xml version="1.0" encoding="UTF-8" standalone="no"?>
<!DOCTYPE svg PUBLIC "-//W3C//DTD SVG 1.1//EN"
 "http://www.w3.org/Graphics/SVG/1.1/DTD/svg11.dtd">
<!-- Generated by graphviz version 2.36.0 (20140111.2315)
 -->
<!-- Title: wlp::static_string&lt; tSize &gt; Pages: 1 -->
<svg width="111pt" height="108pt"
 viewBox="0.00 0.00 111.00 108.00" xmlns="http://www.w3.org/2000/svg" xmlns:xlink="http://www.w3.org/1999/xlink">
<g id="graph0" class="graph" transform="scale(1 1) rotate(0) translate(4 104)">
<title>wlp::static_string&lt; tSize &gt;</title>
<polygon fill="white" stroke="none" points="-4,4 -4,-104 107,-104 107,4 -4,4"/>
<!-- Node1 -->
<g id="node1" class="node"><title>Node1</title>
<polygon fill="#bfbfbf" stroke="black" points="3.5,-1 3.5,-31 94.5,-31 94.5,-1 3.5,-1"/>
<text text-anchor="start" x="11.5" y="-19" font-family="Helvetica,sans-Serif" font-size="10.00">wlp::static_string</text>
<text text-anchor="middle" x="49" y="-8" font-family="Helvetica,sans-Serif" font-size="10.00">&lt; tSize &gt;</text>
</g>
<!-- Node2 -->
<g id="node2" class="node"><title>Node2</title>
<polygon fill="white" stroke="#bfbfbf" points="-0.5,-80.5 -0.5,-99.5 34.5,-99.5 34.5,-80.5 -0.5,-80.5"/>
<text text-anchor="middle" x="17" y="-87.5" font-family="Helvetica,sans-Serif" font-size="10.00">char</text>
</g>
<!-- Node2&#45;&gt;Node1 -->
<g id="edge1" class="edge"><title>Node2&#45;&gt;Node1</title>
<path fill="none" stroke="#9a32cd" stroke-dasharray="5,2" d="M14.7934,-70.1702C14.7108,-63.5769 15.4272,-56.2608 18,-50 20.928,-42.8748 26.1572,-36.3688 31.4966,-31.0521"/>
<polygon fill="#9a32cd" stroke="#9a32cd" points="11.3105,-70.5388 15.5002,-80.2701 18.2934,-70.0501 11.3105,-70.5388"/>
<text text-anchor="middle" x="39" y="-53.5" font-family="Helvetica,sans-Serif" font-size="10.00"> m_buffer</text>
</g>
<!-- Node3 -->
<g id="node3" class="node"><title>Node3</title>
<polygon fill="white" stroke="#bfbfbf" points="60.5,-80.5 60.5,-99.5 103.5,-99.5 103.5,-80.5 60.5,-80.5"/>
<text text-anchor="middle" x="82" y="-87.5" font-family="Helvetica,sans-Serif" font-size="10.00">size_t</text>
</g>
<!-- Node3&#45;&gt;Node1 -->
<g id="edge2" class="edge"><title>Node3&#45;&gt;Node1</title>
<path fill="none" stroke="#9a32cd" stroke-dasharray="5,2" d="M73.8434,-71.2038C68.1957,-58.8816 60.7782,-42.6978 55.5228,-31.2316"/>
<polygon fill="#9a32cd" stroke="#9a32cd" points="70.7365,-72.8256 78.0849,-80.4579 77.1,-69.9089 70.7365,-72.8256"/>
<text text-anchor="middle" x="84" y="-53.5" font-family="Helvetica,sans-Serif" font-size="10.00"> m_len</text>
</g>
</g>
</svg>
