<?xml version="1.0" encoding="UTF-8" standalone="no"?>
<!DOCTYPE svg PUBLIC "-//W3C//DTD SVG 1.1//EN"
 "http://www.w3.org/Graphics/SVG/1.1/DTD/svg11.dtd">
<!-- Generated by graphviz version 2.36.0 (20140111.2315)
 -->
<!-- Title: insert::apply Pages: 1 -->
<svg width="326pt" height="38pt"
 viewBox="0.00 0.00 326.00 38.00" xmlns="http://www.w3.org/2000/svg" xmlns:xlink="http://www.w3.org/1999/xlink">
<g id="graph0" class="graph" transform="scale(1 1) rotate(0) translate(4 34)">
<title>insert::apply</title>
<polygon fill="white" stroke="none" points="-4,4 -4,-34 322,-34 322,4 -4,4"/>
<!-- Node1 -->
<g id="node1" class="node"><title>Node1</title>
<polygon fill="#bfbfbf" stroke="black" points="0,-5.5 0,-24.5 70,-24.5 70,-5.5 0,-5.5"/>
<text text-anchor="middle" x="35" y="-12.5" font-family="Helvetica,sans-Serif" font-size="10.00">insert::apply</text>
</g>
<!-- Node2 -->
<g id="node2" class="node"><title>Node2</title>
<g id="a_node2"><a xlink:href="../../df/d64/_memory_8cpp.html#a10193827ed980198f6a4ed8a92a5a27f" target="_top" xlink:title="memory_init">
<polygon fill="white" stroke="black" points="106,-5.5 106,-24.5 176,-24.5 176,-5.5 106,-5.5"/>
<text text-anchor="middle" x="141" y="-12.5" font-family="Helvetica,sans-Serif" font-size="10.00">memory_init</text>
</a>
</g>
</g>
<!-- Node1&#45;&gt;Node2 -->
<g id="edge1" class="edge"><title>Node1&#45;&gt;Node2</title>
<path fill="none" stroke="midnightblue" d="M80.2896,-15C88.8499,-15 97.6953,-15 105.87,-15"/>
<polygon fill="midnightblue" stroke="midnightblue" points="80.0535,-11.5001 70.0535,-15 80.0535,-18.5001 80.0535,-11.5001"/>
</g>
<!-- Node3 -->
<g id="node3" class="node"><title>Node3</title>
<g id="a_node3"><a xlink:href="../../da/d14/class_memory_init_destroy.html#a0725cd50d293d69d50db3f3a831daa08" target="_top" xlink:title="MemoryInitDestroy::\lMemoryInitDestroy">
<polygon fill="white" stroke="black" points="212,-0 212,-30 318,-30 318,-0 212,-0"/>
<text text-anchor="start" x="220" y="-18" font-family="Helvetica,sans-Serif" font-size="10.00">MemoryInitDestroy::</text>
<text text-anchor="middle" x="265" y="-7" font-family="Helvetica,sans-Serif" font-size="10.00">MemoryInitDestroy</text>
</a>
</g>
</g>
<!-- Node2&#45;&gt;Node3 -->
<g id="edge2" class="edge"><title>Node2&#45;&gt;Node3</title>
<path fill="none" stroke="midnightblue" d="M186.432,-15C194.646,-15 203.294,-15 211.716,-15"/>
<polygon fill="midnightblue" stroke="midnightblue" points="186.309,-11.5001 176.308,-15 186.308,-18.5001 186.309,-11.5001"/>
</g>
</g>
</svg>
