<?xml version="1.0" encoding="UTF-8" standalone="no"?>
<!DOCTYPE svg PUBLIC "-//W3C//DTD SVG 1.1//EN"
 "http://www.w3.org/Graphics/SVG/1.1/DTD/svg11.dtd">
<!-- Generated by graphviz version 2.38.0 (20140413.2041)
 -->
<!-- Title: wlp::__is_nullptr_t&lt; T &gt; Pages: 1 -->
<svg width="130pt" height="231pt"
 viewBox="0.00 0.00 130.00 231.00" xmlns="http://www.w3.org/2000/svg" xmlns:xlink="http://www.w3.org/1999/xlink">
<g id="graph0" class="graph" transform="scale(1 1) rotate(0) translate(4 227)">
<title>wlp::__is_nullptr_t&lt; T &gt;</title>
<polygon fill="white" stroke="none" points="-4,4 -4,-227 126,-227 126,4 -4,4"/>
<!-- Node3 -->
<g id="node1" class="node"><title>Node3</title>
<polygon fill="#bfbfbf" stroke="black" points="2,-0.5 2,-19.5 120,-19.5 120,-0.5 2,-0.5"/>
<text text-anchor="middle" x="61" y="-7.5" font-family="Helvetica,sans-Serif" font-size="10.00">wlp::__is_nullptr_t&lt; T &gt;</text>
</g>
<!-- Node4 -->
<g id="node2" class="node"><title>Node4</title>
<g id="a_node2"><a xlink:href="../../d7/d79/structwlp_1_1is__null__pointer.html" target="_top" xlink:title="wlp::is_null_pointer\&lt; T \&gt;">
<polygon fill="white" stroke="black" points="0,-57.5 0,-76.5 122,-76.5 122,-57.5 0,-57.5"/>
<text text-anchor="middle" x="61" y="-64.5" font-family="Helvetica,sans-Serif" font-size="10.00">wlp::is_null_pointer&lt; T &gt;</text>
</a>
</g>
</g>
<!-- Node4&#45;&gt;Node3 -->
<g id="edge1" class="edge"><title>Node4&#45;&gt;Node3</title>
<path fill="none" stroke="midnightblue" d="M61,-47.1166C61,-37.8173 61,-27.0557 61,-19.7149"/>
<polygon fill="midnightblue" stroke="midnightblue" points="57.5001,-47.4062 61,-57.4063 64.5001,-47.4063 57.5001,-47.4062"/>
</g>
<!-- Node5 -->
<g id="node3" class="node"><title>Node5</title>
<g id="a_node3"><a xlink:href="../../d3/d8d/structwlp_1_1integral__constant.html" target="_top" xlink:title="__is_null_pointer_helper\l\&lt; remove_cv\&lt; T \&gt;::type\l \&gt;::type">
<polygon fill="white" stroke="black" points="0.5,-114.5 0.5,-155.5 121.5,-155.5 121.5,-114.5 0.5,-114.5"/>
<text text-anchor="start" x="8.5" y="-143.5" font-family="Helvetica,sans-Serif" font-size="10.00">__is_null_pointer_helper</text>
<text text-anchor="start" x="8.5" y="-132.5" font-family="Helvetica,sans-Serif" font-size="10.00">&lt; remove_cv&lt; T &gt;::type</text>
<text text-anchor="middle" x="61" y="-121.5" font-family="Helvetica,sans-Serif" font-size="10.00"> &gt;::type</text>
</a>
</g>
</g>
<!-- Node5&#45;&gt;Node4 -->
<g id="edge2" class="edge"><title>Node5&#45;&gt;Node4</title>
<path fill="none" stroke="midnightblue" d="M61,-104.12C61,-94.1695 61,-83.8372 61,-76.7856"/>
<polygon fill="midnightblue" stroke="midnightblue" points="57.5001,-104.198 61,-114.198 64.5001,-104.198 57.5001,-104.198"/>
</g>
<!-- Node6 -->
<g id="node4" class="node"><title>Node6</title>
<polygon fill="white" stroke="#bfbfbf" points="46.5,-203.5 46.5,-222.5 75.5,-222.5 75.5,-203.5 46.5,-203.5"/>
<text text-anchor="middle" x="61" y="-210.5" font-family="Helvetica,sans-Serif" font-size="10.00">T</text>
</g>
<!-- Node6&#45;&gt;Node5 -->
<g id="edge3" class="edge"><title>Node6&#45;&gt;Node5</title>
<path fill="none" stroke="#9a32cd" stroke-dasharray="5,2" d="M61,-193.137C61,-181.729 61,-167.207 61,-155.658"/>
<polygon fill="#9a32cd" stroke="#9a32cd" points="57.5001,-193.282 61,-203.282 64.5001,-193.282 57.5001,-193.282"/>
<text text-anchor="middle" x="73.5" y="-177" font-family="Helvetica,sans-Serif" font-size="10.00"> value</text>
</g>
</g>
</svg>
