<?xml version="1.0" encoding="UTF-8" standalone="no"?>
<!DOCTYPE svg PUBLIC "-//W3C//DTD SVG 1.1//EN"
 "http://www.w3.org/Graphics/SVG/1.1/DTD/svg11.dtd">
<!-- Generated by graphviz version 2.36.0 (20140111.2315)
 -->
<!-- Title: wlp::open_map&lt; Key, Val, Hasher, Equals &gt; Pages: 1 -->
<svg width="326pt" height="72pt"
 viewBox="0.00 0.00 326.00 72.00" xmlns="http://www.w3.org/2000/svg" xmlns:xlink="http://www.w3.org/1999/xlink">
<g id="graph0" class="graph" transform="scale(1 1) rotate(0) translate(4 68)">
<title>wlp::open_map&lt; Key, Val, Hasher, Equals &gt;</title>
<polygon fill="white" stroke="none" points="-4,4 -4,-68 322,-68 322,4 -4,4"/>
<!-- Node1 -->
<g id="node1" class="node"><title>Node1</title>
<polygon fill="#bfbfbf" stroke="black" points="202,-17 202,-47 318,-47 318,-17 202,-17"/>
<text text-anchor="start" x="210" y="-35" font-family="Helvetica,sans-Serif" font-size="10.00">wlp::open_map&lt; Key,</text>
<text text-anchor="middle" x="260" y="-24" font-family="Helvetica,sans-Serif" font-size="10.00"> Val, Hasher, Equals &gt;</text>
</g>
<!-- Node2 -->
<g id="node2" class="node"><title>Node2</title>
<polygon fill="white" stroke="#bfbfbf" points="0.5,-0.5 0.5,-63.5 127.5,-63.5 127.5,-0.5 0.5,-0.5"/>
<text text-anchor="start" x="8.5" y="-51.5" font-family="Helvetica,sans-Serif" font-size="10.00">open_table&lt; tuple&lt;</text>
<text text-anchor="start" x="8.5" y="-40.5" font-family="Helvetica,sans-Serif" font-size="10.00"> Key, Val &gt;, Key, Val,</text>
<text text-anchor="start" x="8.5" y="-29.5" font-family="Helvetica,sans-Serif" font-size="10.00"> MapGetKey&lt; Key, Val &gt;</text>
<text text-anchor="start" x="8.5" y="-18.5" font-family="Helvetica,sans-Serif" font-size="10.00">, MapGetVal&lt; Key, Val &gt;</text>
<text text-anchor="middle" x="64" y="-7.5" font-family="Helvetica,sans-Serif" font-size="10.00">, Hasher, Equals &gt;</text>
</g>
<!-- Node2&#45;&gt;Node1 -->
<g id="edge1" class="edge"><title>Node2&#45;&gt;Node1</title>
<path fill="none" stroke="#9a32cd" stroke-dasharray="5,2" d="M137.928,-32C159.029,-32 181.753,-32 201.751,-32"/>
<polygon fill="#9a32cd" stroke="#9a32cd" points="137.718,-28.5001 127.718,-32 137.718,-35.5001 137.718,-28.5001"/>
<text text-anchor="middle" x="165" y="-35" font-family="Helvetica,sans-Serif" font-size="10.00"> m_table</text>
</g>
</g>
</svg>
