<?xml version="1.0" encoding="UTF-8" standalone="no"?>
<!DOCTYPE svg PUBLIC "-//W3C//DTD SVG 1.1//EN"
 "http://www.w3.org/Graphics/SVG/1.1/DTD/svg11.dtd">
<!-- Generated by graphviz version 2.38.0 (20140413.2041)
 -->
<!-- Title: wlp::ArrayHeap&lt; T, Cmp &gt; Pages: 1 -->
<svg width="117pt" height="106pt"
 viewBox="0.00 0.00 116.50 106.00" xmlns="http://www.w3.org/2000/svg" xmlns:xlink="http://www.w3.org/1999/xlink">
<g id="graph0" class="graph" transform="scale(1 1) rotate(0) translate(4 102)">
<title>wlp::ArrayHeap&lt; T, Cmp &gt;</title>
<polygon fill="white" stroke="none" points="-4,4 -4,-102 112.5,-102 112.5,4 -4,4"/>
<!-- Node1 -->
<g id="node1" class="node"><title>Node1</title>
<polygon fill="#bfbfbf" stroke="black" points="0,-0.5 0,-30.5 100,-30.5 100,-0.5 0,-0.5"/>
<text text-anchor="start" x="8" y="-18.5" font-family="Helvetica,sans-Serif" font-size="10.00">wlp::ArrayHeap&lt; T,</text>
<text text-anchor="middle" x="50" y="-7.5" font-family="Helvetica,sans-Serif" font-size="10.00"> Cmp &gt;</text>
</g>
<!-- Node2 -->
<g id="node2" class="node"><title>Node2</title>
<polygon fill="white" stroke="#bfbfbf" points="0.5,-78.5 0.5,-97.5 37.5,-97.5 37.5,-78.5 0.5,-78.5"/>
<text text-anchor="middle" x="19" y="-85.5" font-family="Helvetica,sans-Serif" font-size="10.00">Cmp</text>
</g>
<!-- Node2&#45;&gt;Node1 -->
<g id="edge1" class="edge"><title>Node2&#45;&gt;Node1</title>
<path fill="none" stroke="#9a32cd" stroke-dasharray="5,2" d="M19.4783,-67.9588C20.16,-61.7251 21.4895,-54.892 24,-49 26.8324,-42.3525 31.4192,-35.9393 35.9577,-30.5916"/>
<polygon fill="#9a32cd" stroke="#9a32cd" points="15.969,-67.9996 18.8358,-78.1992 22.9552,-68.4381 15.969,-67.9996"/>
<text text-anchor="middle" x="42" y="-52" font-family="Helvetica,sans-Serif" font-size="10.00"> m_cmp</text>
</g>
<!-- Node3 -->
<g id="node3" class="node"><title>Node3</title>
<polygon fill="white" stroke="#bfbfbf" points="55.5,-78.5 55.5,-97.5 108.5,-97.5 108.5,-78.5 55.5,-78.5"/>
<text text-anchor="middle" x="82" y="-85.5" font-family="Helvetica,sans-Serif" font-size="10.00">list_type</text>
</g>
<!-- Node3&#45;&gt;Node1 -->
<g id="edge2" class="edge"><title>Node3&#45;&gt;Node1</title>
<path fill="none" stroke="#9a32cd" stroke-dasharray="5,2" d="M73.8133,-68.9637C68.3963,-57.0293 61.3955,-41.6057 56.3892,-30.5762"/>
<polygon fill="#9a32cd" stroke="#9a32cd" points="70.7559,-70.6961 78.0762,-78.3553 77.13,-67.8028 70.7559,-70.6961"/>
<text text-anchor="middle" x="83" y="-52" font-family="Helvetica,sans-Serif" font-size="10.00"> m_list</text>
</g>
</g>
</svg>
