<?xml version="1.0" encoding="UTF-8" standalone="no"?>
<!DOCTYPE svg PUBLIC "-//W3C//DTD SVG 1.1//EN"
 "http://www.w3.org/Graphics/SVG/1.1/DTD/svg11.dtd">
<!-- Generated by graphviz version 2.36.0 (20140111.2315)
 -->
<!-- Title: wlp::ChainHashMapNode&lt; Key, Val &gt; Pages: 1 -->
<svg width="176pt" height="108pt"
 viewBox="0.00 0.00 176.00 108.00" xmlns="http://www.w3.org/2000/svg" xmlns:xlink="http://www.w3.org/1999/xlink">
<g id="graph0" class="graph" transform="scale(1 1) rotate(0) translate(4 104)">
<title>wlp::ChainHashMapNode&lt; Key, Val &gt;</title>
<polygon fill="white" stroke="none" points="-4,4 -4,-104 172,-104 172,4 -4,4"/>
<!-- Node1 -->
<g id="node1" class="node"><title>Node1</title>
<polygon fill="#bfbfbf" stroke="black" points="0,-1 0,-31 128,-31 128,-1 0,-1"/>
<text text-anchor="start" x="8" y="-19" font-family="Helvetica,sans-Serif" font-size="10.00">wlp::ChainHashMapNode</text>
<text text-anchor="middle" x="64" y="-8" font-family="Helvetica,sans-Serif" font-size="10.00">&lt; Key, Val &gt;</text>
</g>
<!-- Node1&#45;&gt;Node1 -->
<g id="edge1" class="edge"><title>Node1&#45;&gt;Node1</title>
<path fill="none" stroke="#9a32cd" stroke-dasharray="5,2" d="M138.505,-21.265C143.182,-20.0255 146,-18.2705 146,-16 146,-12.3672 138.785,-10.0541 128.288,-9.06076"/>
<polygon fill="#9a32cd" stroke="#9a32cd" points="137.59,-17.8682 128.288,-22.9392 138.722,-24.776 137.59,-17.8682"/>
<text text-anchor="middle" x="157" y="-13.5" font-family="Helvetica,sans-Serif" font-size="10.00"> next</text>
</g>
<!-- Node2 -->
<g id="node2" class="node"><title>Node2</title>
<polygon fill="white" stroke="#bfbfbf" points="19,-80.5 19,-99.5 53,-99.5 53,-80.5 19,-80.5"/>
<text text-anchor="middle" x="36" y="-87.5" font-family="Helvetica,sans-Serif" font-size="10.00">Key</text>
</g>
<!-- Node2&#45;&gt;Node1 -->
<g id="edge2" class="edge"><title>Node2&#45;&gt;Node1</title>
<path fill="none" stroke="#9a32cd" stroke-dasharray="5,2" d="M34.0338,-70.2643C33.9737,-63.6798 34.6429,-56.3452 37,-50 39.5778,-43.0609 44.2615,-36.5076 49.0126,-31.0974"/>
<polygon fill="#9a32cd" stroke="#9a32cd" points="30.5456,-70.5647 34.6543,-80.3304 37.5324,-70.134 30.5456,-70.5647"/>
<text text-anchor="middle" x="53.5" y="-53.5" font-family="Helvetica,sans-Serif" font-size="10.00"> m_key</text>
</g>
<!-- Node3 -->
<g id="node3" class="node"><title>Node3</title>
<polygon fill="white" stroke="#bfbfbf" points="76.5,-80.5 76.5,-99.5 107.5,-99.5 107.5,-80.5 76.5,-80.5"/>
<text text-anchor="middle" x="92" y="-87.5" font-family="Helvetica,sans-Serif" font-size="10.00">Val</text>
</g>
<!-- Node3&#45;&gt;Node1 -->
<g id="edge3" class="edge"><title>Node3&#45;&gt;Node1</title>
<path fill="none" stroke="#9a32cd" stroke-dasharray="5,2" d="M84.9351,-70.833C80.1616,-58.5584 73.949,-42.5832 69.5345,-31.2316"/>
<polygon fill="#9a32cd" stroke="#9a32cd" points="81.7915,-72.4064 88.6781,-80.4579 88.3156,-69.8693 81.7915,-72.4064"/>
<text text-anchor="middle" x="97" y="-53.5" font-family="Helvetica,sans-Serif" font-size="10.00"> m_val</text>
</g>
</g>
</svg>
