<?xml version="1.0" encoding="UTF-8" standalone="no"?>
<!DOCTYPE svg PUBLIC "-//W3C//DTD SVG 1.1//EN"
 "http://www.w3.org/Graphics/SVG/1.1/DTD/svg11.dtd">
<!-- Generated by graphviz version 2.36.0 (20140111.2315)
 -->
<!-- Title: wlp::tree::find Pages: 1 -->
<svg width="242pt" height="180pt"
 viewBox="0.00 0.00 242.00 180.00" xmlns="http://www.w3.org/2000/svg" xmlns:xlink="http://www.w3.org/1999/xlink">
<g id="graph0" class="graph" transform="scale(1 1) rotate(0) translate(4 176)">
<title>wlp::tree::find</title>
<polygon fill="white" stroke="none" points="-4,4 -4,-176 238,-176 238,4 -4,4"/>
<!-- Node1 -->
<g id="node1" class="node"><title>Node1</title>
<polygon fill="#bfbfbf" stroke="black" points="0,-76.5 0,-95.5 76,-95.5 76,-76.5 0,-76.5"/>
<text text-anchor="middle" x="38" y="-83.5" font-family="Helvetica,sans-Serif" font-size="10.00">wlp::tree::find</text>
</g>
<!-- Node2 -->
<g id="node2" class="node"><title>Node2</title>
<g id="a_node2"><a xlink:href="../../d8/de4/classwlp_1_1tree__map.html#ad9006dda98e0f49fb070ae4138e37e9b" target="_top" xlink:title="wlp::tree_map::at">
<polygon fill="white" stroke="black" points="127,-152.5 127,-171.5 219,-171.5 219,-152.5 127,-152.5"/>
<text text-anchor="middle" x="173" y="-159.5" font-family="Helvetica,sans-Serif" font-size="10.00">wlp::tree_map::at</text>
</a>
</g>
</g>
<!-- Node1&#45;&gt;Node2 -->
<g id="edge1" class="edge"><title>Node1&#45;&gt;Node2</title>
<path fill="none" stroke="midnightblue" d="M56.505,-102.61C70.5624,-115.186 91.3071,-132.1 112,-143 119.057,-146.717 126.968,-149.859 134.673,-152.452"/>
<polygon fill="midnightblue" stroke="midnightblue" points="58.7907,-99.9569 49.0519,-95.7847 54.0633,-105.119 58.7907,-99.9569"/>
</g>
<!-- Node3 -->
<g id="node3" class="node"><title>Node3</title>
<g id="a_node3"><a xlink:href="../../d9/ded/classwlp_1_1tree__set.html#a0306f605cafee578587f196b565a4790" target="_top" xlink:title="wlp::tree_set::contains">
<polygon fill="white" stroke="black" points="115,-114.5 115,-133.5 231,-133.5 231,-114.5 115,-114.5"/>
<text text-anchor="middle" x="173" y="-121.5" font-family="Helvetica,sans-Serif" font-size="10.00">wlp::tree_set::contains</text>
</a>
</g>
</g>
<!-- Node1&#45;&gt;Node3 -->
<g id="edge2" class="edge"><title>Node1&#45;&gt;Node3</title>
<path fill="none" stroke="midnightblue" d="M82.3669,-98.3906C100.581,-103.594 121.439,-109.554 138.449,-114.414"/>
<polygon fill="midnightblue" stroke="midnightblue" points="83.1383,-94.971 72.5615,-95.589 81.2152,-101.702 83.1383,-94.971"/>
</g>
<!-- Node4 -->
<g id="node4" class="node"><title>Node4</title>
<g id="a_node4"><a xlink:href="../../d8/de4/classwlp_1_1tree__map.html#aad5f5a834d323e4b2fbf6a8eaa927e22" target="_top" xlink:title="wlp::tree_map::contains">
<polygon fill="white" stroke="black" points="112.5,-76.5 112.5,-95.5 233.5,-95.5 233.5,-76.5 112.5,-76.5"/>
<text text-anchor="middle" x="173" y="-83.5" font-family="Helvetica,sans-Serif" font-size="10.00">wlp::tree_map::contains</text>
</a>
</g>
</g>
<!-- Node1&#45;&gt;Node4 -->
<g id="edge3" class="edge"><title>Node1&#45;&gt;Node4</title>
<path fill="none" stroke="midnightblue" d="M86.1602,-86C94.6734,-86 103.65,-86 112.461,-86"/>
<polygon fill="midnightblue" stroke="midnightblue" points="86.0479,-82.5001 76.0479,-86 86.0479,-89.5001 86.0479,-82.5001"/>
</g>
<!-- Node5 -->
<g id="node5" class="node"><title>Node5</title>
<g id="a_node5"><a xlink:href="../../d9/ded/classwlp_1_1tree__set.html#a9fb262c140e257e6b70e2ca0a49b44c1" target="_top" xlink:title="wlp::tree_set::find">
<polygon fill="white" stroke="black" points="125.5,-38.5 125.5,-57.5 220.5,-57.5 220.5,-38.5 125.5,-38.5"/>
<text text-anchor="middle" x="173" y="-45.5" font-family="Helvetica,sans-Serif" font-size="10.00">wlp::tree_set::find</text>
</a>
</g>
</g>
<!-- Node1&#45;&gt;Node5 -->
<g id="edge4" class="edge"><title>Node1&#45;&gt;Node5</title>
<path fill="none" stroke="midnightblue" d="M82.3669,-73.6094C100.581,-68.4055 121.439,-62.4459 138.449,-57.5859"/>
<polygon fill="midnightblue" stroke="midnightblue" points="81.2152,-70.2984 72.5615,-76.411 83.1383,-77.029 81.2152,-70.2984"/>
</g>
<!-- Node6 -->
<g id="node6" class="node"><title>Node6</title>
<g id="a_node6"><a xlink:href="../../d8/de4/classwlp_1_1tree__map.html#a3ec315db29f5e24de3c7977c3b3648cb" target="_top" xlink:title="wlp::tree_map::find">
<polygon fill="white" stroke="black" points="123,-0.5 123,-19.5 223,-19.5 223,-0.5 123,-0.5"/>
<text text-anchor="middle" x="173" y="-7.5" font-family="Helvetica,sans-Serif" font-size="10.00">wlp::tree_map::find</text>
</a>
</g>
</g>
<!-- Node1&#45;&gt;Node6 -->
<g id="edge5" class="edge"><title>Node1&#45;&gt;Node6</title>
<path fill="none" stroke="midnightblue" d="M56.505,-69.3904C70.5624,-56.8145 91.3071,-39.8997 112,-29 119.057,-25.2827 126.968,-22.1405 134.673,-19.5476"/>
<polygon fill="midnightblue" stroke="midnightblue" points="54.0633,-66.8805 49.0519,-76.2153 58.7907,-72.0431 54.0633,-66.8805"/>
</g>
</g>
</svg>
