<?xml version="1.0" encoding="UTF-8" standalone="no"?>
<!DOCTYPE svg PUBLIC "-//W3C//DTD SVG 1.1//EN"
 "http://www.w3.org/Graphics/SVG/1.1/DTD/svg11.dtd">
<!-- Generated by graphviz version 2.36.0 (20140111.2315)
 -->
<!-- Title: wlp::tree::begin Pages: 1 -->
<svg width="236pt" height="66pt"
 viewBox="0.00 0.00 236.00 66.00" xmlns="http://www.w3.org/2000/svg" xmlns:xlink="http://www.w3.org/1999/xlink">
<g id="graph0" class="graph" transform="scale(1 1) rotate(0) translate(4 62)">
<title>wlp::tree::begin</title>
<polygon fill="white" stroke="none" points="-4,4 -4,-62 232,-62 232,4 -4,4"/>
<!-- Node1 -->
<g id="node1" class="node"><title>Node1</title>
<polygon fill="#bfbfbf" stroke="black" points="0.5,-19.5 0.5,-38.5 83.5,-38.5 83.5,-19.5 0.5,-19.5"/>
<text text-anchor="middle" x="42" y="-26.5" font-family="Helvetica,sans-Serif" font-size="10.00">wlp::tree::begin</text>
</g>
<!-- Node2 -->
<g id="node2" class="node"><title>Node2</title>
<g id="a_node2"><a xlink:href="../../d9/ded/classwlp_1_1tree__set.html#a75a5446b10897f94ee066377433f2ffb" target="_top" xlink:title="wlp::tree_set::begin">
<polygon fill="white" stroke="black" points="123,-38.5 123,-57.5 225,-57.5 225,-38.5 123,-38.5"/>
<text text-anchor="middle" x="174" y="-45.5" font-family="Helvetica,sans-Serif" font-size="10.00">wlp::tree_set::begin</text>
</a>
</g>
</g>
<!-- Node1&#45;&gt;Node2 -->
<g id="edge1" class="edge"><title>Node1&#45;&gt;Node2</title>
<path fill="none" stroke="midnightblue" d="M93.8739,-36.4354C103.37,-37.8233 113.289,-39.2731 122.766,-40.6581"/>
<polygon fill="midnightblue" stroke="midnightblue" points="94.1772,-32.9426 83.7761,-34.9596 93.1648,-39.8691 94.1772,-32.9426"/>
</g>
<!-- Node3 -->
<g id="node3" class="node"><title>Node3</title>
<g id="a_node3"><a xlink:href="../../d8/de4/classwlp_1_1tree__map.html#a2781a1a77806730cda5ee3f75fb4dea0" target="_top" xlink:title="wlp::tree_map::begin">
<polygon fill="white" stroke="black" points="120.5,-0.5 120.5,-19.5 227.5,-19.5 227.5,-0.5 120.5,-0.5"/>
<text text-anchor="middle" x="174" y="-7.5" font-family="Helvetica,sans-Serif" font-size="10.00">wlp::tree_map::begin</text>
</a>
</g>
</g>
<!-- Node1&#45;&gt;Node3 -->
<g id="edge2" class="edge"><title>Node1&#45;&gt;Node3</title>
<path fill="none" stroke="midnightblue" d="M93.8227,-21.5721C102.556,-20.2957 111.648,-18.9669 120.426,-17.684"/>
<polygon fill="midnightblue" stroke="midnightblue" points="93.1648,-18.1309 83.7761,-23.0404 94.1772,-25.0574 93.1648,-18.1309"/>
</g>
</g>
</svg>
