<?xml version="1.0" encoding="UTF-8" standalone="no"?>
<!DOCTYPE svg PUBLIC "-//W3C//DTD SVG 1.1//EN"
 "http://www.w3.org/Graphics/SVG/1.1/DTD/svg11.dtd">
<!-- Generated by graphviz version 2.36.0 (20140111.2315)
 -->
<!-- Title: wlp::tree::find Pages: 1 -->
<svg width="242pt" height="229pt"
 viewBox="0.00 0.00 242.00 229.00" xmlns="http://www.w3.org/2000/svg" xmlns:xlink="http://www.w3.org/1999/xlink">
<g id="graph0" class="graph" transform="scale(1 1) rotate(0) translate(4 225)">
<title>wlp::tree::find</title>
<polygon fill="white" stroke="none" points="-4,4 -4,-225 238,-225 238,4 -4,4"/>
<!-- Node1 -->
<g id="node1" class="node"><title>Node1</title>
<polygon fill="#bfbfbf" stroke="black" points="0,-106.5 0,-125.5 76,-125.5 76,-106.5 0,-106.5"/>
<text text-anchor="middle" x="38" y="-113.5" font-family="Helvetica,sans-Serif" font-size="10.00">wlp::tree::find</text>
</g>
<!-- Node2 -->
<g id="node2" class="node"><title>Node2</title>
<g id="a_node2"><a xlink:href="../../d8/de4/classwlp_1_1tree__map.html#ad9006dda98e0f49fb070ae4138e37e9b" target="_top" xlink:title="wlp::tree_map::at">
<polygon fill="white" stroke="black" points="127,-201.5 127,-220.5 219,-220.5 219,-201.5 127,-201.5"/>
<text text-anchor="middle" x="173" y="-208.5" font-family="Helvetica,sans-Serif" font-size="10.00">wlp::tree_map::at</text>
</a>
</g>
</g>
<!-- Node1&#45;&gt;Node2 -->
<g id="edge1" class="edge"><title>Node1&#45;&gt;Node2</title>
<path fill="none" stroke="midnightblue" d="M51.7978,-133.773C65.0495,-150.968 87.2562,-176.621 112,-192 118.125,-195.807 125.08,-198.914 132.029,-201.428"/>
<polygon fill="midnightblue" stroke="midnightblue" points="54.5129,-131.559 45.7182,-125.651 48.909,-135.754 54.5129,-131.559"/>
</g>
<!-- Node3 -->
<g id="node3" class="node"><title>Node3</title>
<g id="a_node3"><a xlink:href="../../d9/ded/classwlp_1_1tree__set.html#a0306f605cafee578587f196b565a4790" target="_top" xlink:title="wlp::tree_set::contains">
<polygon fill="white" stroke="black" points="115,-163.5 115,-182.5 231,-182.5 231,-163.5 115,-163.5"/>
<text text-anchor="middle" x="173" y="-170.5" font-family="Helvetica,sans-Serif" font-size="10.00">wlp::tree_set::contains</text>
</a>
</g>
</g>
<!-- Node1&#45;&gt;Node3 -->
<g id="edge2" class="edge"><title>Node1&#45;&gt;Node3</title>
<path fill="none" stroke="midnightblue" d="M64.3258,-130.567C78.1395,-138.156 95.7018,-147.237 112,-154 120.377,-157.476 129.628,-160.695 138.308,-163.458"/>
<polygon fill="midnightblue" stroke="midnightblue" points="65.8608,-127.415 55.423,-125.598 62.4493,-133.528 65.8608,-127.415"/>
</g>
<!-- Node4 -->
<g id="node4" class="node"><title>Node4</title>
<g id="a_node4"><a xlink:href="../../d8/de4/classwlp_1_1tree__map.html#aad5f5a834d323e4b2fbf6a8eaa927e22" target="_top" xlink:title="wlp::tree_map::contains">
<polygon fill="white" stroke="black" points="112.5,-125.5 112.5,-144.5 233.5,-144.5 233.5,-125.5 112.5,-125.5"/>
<text text-anchor="middle" x="173" y="-132.5" font-family="Helvetica,sans-Serif" font-size="10.00">wlp::tree_map::contains</text>
</a>
</g>
</g>
<!-- Node1&#45;&gt;Node4 -->
<g id="edge3" class="edge"><title>Node1&#45;&gt;Node4</title>
<path fill="none" stroke="midnightblue" d="M86.1602,-122.737C94.6734,-123.953 103.65,-125.236 112.461,-126.494"/>
<polygon fill="midnightblue" stroke="midnightblue" points="86.4424,-119.242 76.0479,-121.293 85.4524,-126.172 86.4424,-119.242"/>
</g>
<!-- Node5 -->
<g id="node5" class="node"><title>Node5</title>
<g id="a_node5"><a xlink:href="../../d9/ded/classwlp_1_1tree__set.html#a9fb262c140e257e6b70e2ca0a49b44c1" target="_top" xlink:title="wlp::tree_set::find">
<polygon fill="white" stroke="black" points="125.5,-87.5 125.5,-106.5 220.5,-106.5 220.5,-87.5 125.5,-87.5"/>
<text text-anchor="middle" x="173" y="-94.5" font-family="Helvetica,sans-Serif" font-size="10.00">wlp::tree_set::find</text>
</a>
</g>
</g>
<!-- Node1&#45;&gt;Node5 -->
<g id="edge4" class="edge"><title>Node1&#45;&gt;Node5</title>
<path fill="none" stroke="midnightblue" d="M85.9827,-109.288C98.6999,-107.471 112.462,-105.505 125.171,-103.69"/>
<polygon fill="midnightblue" stroke="midnightblue" points="85.4524,-105.828 76.0479,-110.707 86.4424,-112.758 85.4524,-105.828"/>
</g>
<!-- Node6 -->
<g id="node6" class="node"><title>Node6</title>
<g id="a_node6"><a xlink:href="../../d8/de4/classwlp_1_1tree__map.html#a3ec315db29f5e24de3c7977c3b3648cb" target="_top" xlink:title="wlp::tree_map::find">
<polygon fill="white" stroke="black" points="123,-49.5 123,-68.5 223,-68.5 223,-49.5 123,-49.5"/>
<text text-anchor="middle" x="173" y="-56.5" font-family="Helvetica,sans-Serif" font-size="10.00">wlp::tree_map::find</text>
</a>
</g>
</g>
<!-- Node1&#45;&gt;Node6 -->
<g id="edge5" class="edge"><title>Node1&#45;&gt;Node6</title>
<path fill="none" stroke="midnightblue" d="M64.3258,-101.433C78.1395,-93.8442 95.7018,-84.7627 112,-78 120.377,-74.5243 129.628,-71.3051 138.308,-68.5415"/>
<polygon fill="midnightblue" stroke="midnightblue" points="62.4493,-98.4724 55.423,-106.402 65.8608,-104.585 62.4493,-98.4724"/>
</g>
<!-- Node7 -->
<g id="node7" class="node"><title>Node7</title>
<g id="a_node7"><a xlink:href="../../d8/de4/classwlp_1_1tree__map.html#a878fde8730d94d884d2cfaa8a97e816c" target="_top" xlink:title="wlp::tree_map::insert\l_or_assign">
<polygon fill="white" stroke="black" points="119,-0 119,-30 227,-30 227,-0 119,-0"/>
<text text-anchor="start" x="127" y="-18" font-family="Helvetica,sans-Serif" font-size="10.00">wlp::tree_map::insert</text>
<text text-anchor="middle" x="173" y="-7" font-family="Helvetica,sans-Serif" font-size="10.00">_or_assign</text>
</a>
</g>
</g>
<!-- Node1&#45;&gt;Node7 -->
<g id="edge6" class="edge"><title>Node1&#45;&gt;Node7</title>
<path fill="none" stroke="midnightblue" d="M52.3154,-98.4169C65.8191,-81.5735 88.0862,-56.366 112,-40 117.401,-36.3035 123.435,-32.9987 129.537,-30.0978"/>
<polygon fill="midnightblue" stroke="midnightblue" points="49.4971,-96.3391 46.0903,-106.371 55.0097,-100.653 49.4971,-96.3391"/>
</g>
</g>
</svg>
