<?xml version="1.0" encoding="UTF-8" standalone="no"?>
<!DOCTYPE svg PUBLIC "-//W3C//DTD SVG 1.1//EN"
 "http://www.w3.org/Graphics/SVG/1.1/DTD/svg11.dtd">
<!-- Generated by graphviz version 2.36.0 (20140111.2315)
 -->
<!-- Title: wlp::tree::end Pages: 1 -->
<svg width="242pt" height="142pt"
 viewBox="0.00 0.00 242.00 142.00" xmlns="http://www.w3.org/2000/svg" xmlns:xlink="http://www.w3.org/1999/xlink">
<g id="graph0" class="graph" transform="scale(1 1) rotate(0) translate(4 138)">
<title>wlp::tree::end</title>
<polygon fill="white" stroke="none" points="-4,4 -4,-138 238,-138 238,4 -4,4"/>
<!-- Node1 -->
<g id="node1" class="node"><title>Node1</title>
<polygon fill="#bfbfbf" stroke="black" points="0,-57.5 0,-76.5 76,-76.5 76,-57.5 0,-57.5"/>
<text text-anchor="middle" x="38" y="-64.5" font-family="Helvetica,sans-Serif" font-size="10.00">wlp::tree::end</text>
</g>
<!-- Node2 -->
<g id="node2" class="node"><title>Node2</title>
<g id="a_node2"><a xlink:href="../../d9/ded/classwlp_1_1tree__set.html#a0306f605cafee578587f196b565a4790" target="_top" xlink:title="wlp::tree_set::contains">
<polygon fill="white" stroke="black" points="115,-114.5 115,-133.5 231,-133.5 231,-114.5 115,-114.5"/>
<text text-anchor="middle" x="173" y="-121.5" font-family="Helvetica,sans-Serif" font-size="10.00">wlp::tree_set::contains</text>
</a>
</g>
</g>
<!-- Node1&#45;&gt;Node2 -->
<g id="edge1" class="edge"><title>Node1&#45;&gt;Node2</title>
<path fill="none" stroke="midnightblue" d="M64.3258,-81.5666C78.1395,-89.1558 95.7018,-98.2373 112,-105 120.377,-108.476 129.628,-111.695 138.308,-114.458"/>
<polygon fill="midnightblue" stroke="midnightblue" points="65.8608,-78.4152 55.423,-76.5979 62.4493,-84.5276 65.8608,-78.4152"/>
</g>
<!-- Node3 -->
<g id="node3" class="node"><title>Node3</title>
<g id="a_node3"><a xlink:href="../../d8/de4/classwlp_1_1tree__map.html#aad5f5a834d323e4b2fbf6a8eaa927e22" target="_top" xlink:title="wlp::tree_map::contains">
<polygon fill="white" stroke="black" points="112.5,-76.5 112.5,-95.5 233.5,-95.5 233.5,-76.5 112.5,-76.5"/>
<text text-anchor="middle" x="173" y="-83.5" font-family="Helvetica,sans-Serif" font-size="10.00">wlp::tree_map::contains</text>
</a>
</g>
</g>
<!-- Node1&#45;&gt;Node3 -->
<g id="edge2" class="edge"><title>Node1&#45;&gt;Node3</title>
<path fill="none" stroke="midnightblue" d="M86.1602,-73.7372C94.6734,-74.9533 103.65,-76.2357 112.461,-77.4945"/>
<polygon fill="midnightblue" stroke="midnightblue" points="86.4424,-70.242 76.0479,-72.2926 85.4524,-77.1717 86.4424,-70.242"/>
</g>
<!-- Node4 -->
<g id="node4" class="node"><title>Node4</title>
<g id="a_node4"><a xlink:href="../../d9/ded/classwlp_1_1tree__set.html#ad055d3fda02baa9fa33272c978fa17c6" target="_top" xlink:title="wlp::tree_set::end">
<polygon fill="white" stroke="black" points="125.5,-38.5 125.5,-57.5 220.5,-57.5 220.5,-38.5 125.5,-38.5"/>
<text text-anchor="middle" x="173" y="-45.5" font-family="Helvetica,sans-Serif" font-size="10.00">wlp::tree_set::end</text>
</a>
</g>
</g>
<!-- Node1&#45;&gt;Node4 -->
<g id="edge3" class="edge"><title>Node1&#45;&gt;Node4</title>
<path fill="none" stroke="midnightblue" d="M85.9827,-60.2882C98.6999,-58.4714 112.462,-56.5055 125.171,-54.6899"/>
<polygon fill="midnightblue" stroke="midnightblue" points="85.4524,-56.8283 76.0479,-61.7074 86.4424,-63.758 85.4524,-56.8283"/>
</g>
<!-- Node5 -->
<g id="node5" class="node"><title>Node5</title>
<g id="a_node5"><a xlink:href="../../d8/de4/classwlp_1_1tree__map.html#accda509dc86e88efe1d59c1bddae1c27" target="_top" xlink:title="wlp::tree_map::end">
<polygon fill="white" stroke="black" points="123,-0.5 123,-19.5 223,-19.5 223,-0.5 123,-0.5"/>
<text text-anchor="middle" x="173" y="-7.5" font-family="Helvetica,sans-Serif" font-size="10.00">wlp::tree_map::end</text>
</a>
</g>
</g>
<!-- Node1&#45;&gt;Node5 -->
<g id="edge4" class="edge"><title>Node1&#45;&gt;Node5</title>
<path fill="none" stroke="midnightblue" d="M64.3258,-52.4334C78.1395,-44.8442 95.7018,-35.7627 112,-29 120.377,-25.5243 129.628,-22.3051 138.308,-19.5415"/>
<polygon fill="midnightblue" stroke="midnightblue" points="62.4493,-49.4724 55.423,-57.4021 65.8608,-55.5848 62.4493,-49.4724"/>
</g>
</g>
</svg>
