<?xml version="1.0" encoding="UTF-8" standalone="no"?>
<!DOCTYPE svg PUBLIC "-//W3C//DTD SVG 1.1//EN"
 "http://www.w3.org/Graphics/SVG/1.1/DTD/svg11.dtd">
<!-- Generated by graphviz version 2.36.0 (20140111.2315)
 -->
<!-- Title: wlp::tree::erase Pages: 1 -->
<svg width="272pt" height="137pt"
 viewBox="0.00 0.00 272.00 137.00" xmlns="http://www.w3.org/2000/svg" xmlns:xlink="http://www.w3.org/1999/xlink">
<g id="graph0" class="graph" transform="scale(1 1) rotate(0) translate(4 133)">
<title>wlp::tree::erase</title>
<polygon fill="white" stroke="none" points="-4,4 -4,-133 268,-133 268,4 -4,4"/>
<!-- Node1 -->
<g id="node1" class="node"><title>Node1</title>
<polygon fill="#bfbfbf" stroke="black" points="0,-38.5 0,-57.5 84,-57.5 84,-38.5 0,-38.5"/>
<text text-anchor="middle" x="42" y="-45.5" font-family="Helvetica,sans-Serif" font-size="10.00">wlp::tree::erase</text>
</g>
<!-- Node2 -->
<g id="node2" class="node"><title>Node2</title>
<g id="a_node2"><a xlink:href="../../d9/d40/classwlp_1_1tree.html#adbc749d35fcba6ba99a8713b5d615d5e" target="_top" xlink:title="wlp::tree\&lt; tuple\&lt; Key,\l Val \&gt;, Key, Val, MapGetKey\l\&lt; Key, Val \&gt;, MapGetVal\&lt;\l Key, Val \&gt;, Cmp \&gt;::clear">
<polygon fill="white" stroke="black" points="120,-77 120,-129 264,-129 264,-77 120,-77"/>
<text text-anchor="start" x="128" y="-117" font-family="Helvetica,sans-Serif" font-size="10.00">wlp::tree&lt; tuple&lt; Key,</text>
<text text-anchor="start" x="128" y="-106" font-family="Helvetica,sans-Serif" font-size="10.00"> Val &gt;, Key, Val, MapGetKey</text>
<text text-anchor="start" x="128" y="-95" font-family="Helvetica,sans-Serif" font-size="10.00">&lt; Key, Val &gt;, MapGetVal&lt;</text>
<text text-anchor="middle" x="192" y="-84" font-family="Helvetica,sans-Serif" font-size="10.00"> Key, Val &gt;, Cmp &gt;::clear</text>
</a>
</g>
</g>
<!-- Node1&#45;&gt;Node2 -->
<g id="edge1" class="edge"><title>Node1&#45;&gt;Node2</title>
<path fill="none" stroke="midnightblue" d="M78.1692,-61.0696C91.0592,-65.8598 106.142,-71.465 121.009,-76.9898"/>
<polygon fill="midnightblue" stroke="midnightblue" points="79.3725,-57.783 68.7796,-57.5803 76.9341,-64.3446 79.3725,-57.783"/>
</g>
<!-- Node3 -->
<g id="node3" class="node"><title>Node3</title>
<g id="a_node3"><a xlink:href="../../d9/ded/classwlp_1_1tree__set.html#aca717f8b541bcc07240a37ada6947f2b" target="_top" xlink:title="wlp::tree_set::erase">
<polygon fill="white" stroke="black" points="140.5,-38.5 140.5,-57.5 243.5,-57.5 243.5,-38.5 140.5,-38.5"/>
<text text-anchor="middle" x="192" y="-45.5" font-family="Helvetica,sans-Serif" font-size="10.00">wlp::tree_set::erase</text>
</a>
</g>
</g>
<!-- Node1&#45;&gt;Node3 -->
<g id="edge2" class="edge"><title>Node1&#45;&gt;Node3</title>
<path fill="none" stroke="midnightblue" d="M94.2773,-48C109.157,-48 125.395,-48 140.243,-48"/>
<polygon fill="midnightblue" stroke="midnightblue" points="94.2263,-44.5001 84.2263,-48 94.2262,-51.5001 94.2263,-44.5001"/>
</g>
<!-- Node4 -->
<g id="node4" class="node"><title>Node4</title>
<g id="a_node4"><a xlink:href="../../d8/de4/classwlp_1_1tree__map.html#aa64ddf0909c919c5478424491b6de1c9" target="_top" xlink:title="wlp::tree_map::erase">
<polygon fill="white" stroke="black" points="138,-0.5 138,-19.5 246,-19.5 246,-0.5 138,-0.5"/>
<text text-anchor="middle" x="192" y="-7.5" font-family="Helvetica,sans-Serif" font-size="10.00">wlp::tree_map::erase</text>
</a>
</g>
</g>
<!-- Node1&#45;&gt;Node4 -->
<g id="edge3" class="edge"><title>Node1&#45;&gt;Node4</title>
<path fill="none" stroke="midnightblue" d="M90.1735,-35.8879C110.786,-30.5956 134.609,-24.4787 153.922,-19.5201"/>
<polygon fill="midnightblue" stroke="midnightblue" points="89.162,-32.534 80.3466,-38.411 90.9029,-39.3141 89.162,-32.534"/>
</g>
</g>
</svg>
