<?xml version="1.0" encoding="UTF-8" standalone="no"?>
<!DOCTYPE svg PUBLIC "-//W3C//DTD SVG 1.1//EN"
 "http://www.w3.org/Graphics/SVG/1.1/DTD/svg11.dtd">
<!-- Generated by graphviz version 2.36.0 (20140111.2315)
 -->
<!-- Title: wlp::tree::end Pages: 1 -->
<svg width="242pt" height="191pt"
 viewBox="0.00 0.00 242.00 191.00" xmlns="http://www.w3.org/2000/svg" xmlns:xlink="http://www.w3.org/1999/xlink">
<g id="graph0" class="graph" transform="scale(1 1) rotate(0) translate(4 187)">
<title>wlp::tree::end</title>
<polygon fill="white" stroke="none" points="-4,4 -4,-187 238,-187 238,4 -4,4"/>
<!-- Node1 -->
<g id="node1" class="node"><title>Node1</title>
<polygon fill="#bfbfbf" stroke="black" points="0,-87.5 0,-106.5 76,-106.5 76,-87.5 0,-87.5"/>
<text text-anchor="middle" x="38" y="-94.5" font-family="Helvetica,sans-Serif" font-size="10.00">wlp::tree::end</text>
</g>
<!-- Node2 -->
<g id="node2" class="node"><title>Node2</title>
<g id="a_node2"><a xlink:href="../../d9/ded/classwlp_1_1tree__set.html#a0306f605cafee578587f196b565a4790" target="_top" xlink:title="wlp::tree_set::contains">
<polygon fill="white" stroke="black" points="115,-163.5 115,-182.5 231,-182.5 231,-163.5 115,-163.5"/>
<text text-anchor="middle" x="173" y="-170.5" font-family="Helvetica,sans-Serif" font-size="10.00">wlp::tree_set::contains</text>
</a>
</g>
</g>
<!-- Node1&#45;&gt;Node2 -->
<g id="edge1" class="edge"><title>Node1&#45;&gt;Node2</title>
<path fill="none" stroke="midnightblue" d="M56.505,-113.61C70.5624,-126.186 91.3071,-143.1 112,-154 119.057,-157.717 126.968,-160.859 134.673,-163.452"/>
<polygon fill="midnightblue" stroke="midnightblue" points="58.7907,-110.957 49.0519,-106.785 54.0633,-116.119 58.7907,-110.957"/>
</g>
<!-- Node3 -->
<g id="node3" class="node"><title>Node3</title>
<g id="a_node3"><a xlink:href="../../d8/de4/classwlp_1_1tree__map.html#aad5f5a834d323e4b2fbf6a8eaa927e22" target="_top" xlink:title="wlp::tree_map::contains">
<polygon fill="white" stroke="black" points="112.5,-125.5 112.5,-144.5 233.5,-144.5 233.5,-125.5 112.5,-125.5"/>
<text text-anchor="middle" x="173" y="-132.5" font-family="Helvetica,sans-Serif" font-size="10.00">wlp::tree_map::contains</text>
</a>
</g>
</g>
<!-- Node1&#45;&gt;Node3 -->
<g id="edge2" class="edge"><title>Node1&#45;&gt;Node3</title>
<path fill="none" stroke="midnightblue" d="M82.3669,-109.391C100.581,-114.594 121.439,-120.554 138.449,-125.414"/>
<polygon fill="midnightblue" stroke="midnightblue" points="83.1383,-105.971 72.5615,-106.589 81.2152,-112.702 83.1383,-105.971"/>
</g>
<!-- Node4 -->
<g id="node4" class="node"><title>Node4</title>
<g id="a_node4"><a xlink:href="../../d9/ded/classwlp_1_1tree__set.html#ad055d3fda02baa9fa33272c978fa17c6" target="_top" xlink:title="wlp::tree_set::end">
<polygon fill="white" stroke="black" points="125.5,-87.5 125.5,-106.5 220.5,-106.5 220.5,-87.5 125.5,-87.5"/>
<text text-anchor="middle" x="173" y="-94.5" font-family="Helvetica,sans-Serif" font-size="10.00">wlp::tree_set::end</text>
</a>
</g>
</g>
<!-- Node1&#45;&gt;Node4 -->
<g id="edge3" class="edge"><title>Node1&#45;&gt;Node4</title>
<path fill="none" stroke="midnightblue" d="M86.3608,-97C98.9723,-97 112.588,-97 125.171,-97"/>
<polygon fill="midnightblue" stroke="midnightblue" points="86.0479,-93.5001 76.0479,-97 86.0479,-100.5 86.0479,-93.5001"/>
</g>
<!-- Node5 -->
<g id="node5" class="node"><title>Node5</title>
<g id="a_node5"><a xlink:href="../../d8/de4/classwlp_1_1tree__map.html#accda509dc86e88efe1d59c1bddae1c27" target="_top" xlink:title="wlp::tree_map::end">
<polygon fill="white" stroke="black" points="123,-49.5 123,-68.5 223,-68.5 223,-49.5 123,-49.5"/>
<text text-anchor="middle" x="173" y="-56.5" font-family="Helvetica,sans-Serif" font-size="10.00">wlp::tree_map::end</text>
</a>
</g>
</g>
<!-- Node1&#45;&gt;Node5 -->
<g id="edge4" class="edge"><title>Node1&#45;&gt;Node5</title>
<path fill="none" stroke="midnightblue" d="M82.3669,-84.6094C100.581,-79.4055 121.439,-73.4459 138.449,-68.5859"/>
<polygon fill="midnightblue" stroke="midnightblue" points="81.2152,-81.2984 72.5615,-87.411 83.1383,-88.029 81.2152,-81.2984"/>
</g>
<!-- Node6 -->
<g id="node6" class="node"><title>Node6</title>
<g id="a_node6"><a xlink:href="../../d8/de4/classwlp_1_1tree__map.html#a878fde8730d94d884d2cfaa8a97e816c" target="_top" xlink:title="wlp::tree_map::insert\l_or_assign">
<polygon fill="white" stroke="black" points="119,-0 119,-30 227,-30 227,-0 119,-0"/>
<text text-anchor="start" x="127" y="-18" font-family="Helvetica,sans-Serif" font-size="10.00">wlp::tree_map::insert</text>
<text text-anchor="middle" x="173" y="-7" font-family="Helvetica,sans-Serif" font-size="10.00">_or_assign</text>
</a>
</g>
</g>
<!-- Node1&#45;&gt;Node6 -->
<g id="edge5" class="edge"><title>Node1&#45;&gt;Node6</title>
<path fill="none" stroke="midnightblue" d="M57.2774,-80.4684C71.4728,-68.2071 92.0393,-51.6649 112,-40 118.138,-36.4129 124.889,-33.0773 131.579,-30.0867"/>
<polygon fill="midnightblue" stroke="midnightblue" points="54.9071,-77.892 49.7084,-87.1237 59.5294,-83.1488 54.9071,-77.892"/>
</g>
</g>
</svg>
