<?xml version="1.0" encoding="UTF-8" standalone="no"?>
<!DOCTYPE svg PUBLIC "-//W3C//DTD SVG 1.1//EN"
 "http://www.w3.org/Graphics/SVG/1.1/DTD/svg11.dtd">
<!-- Generated by graphviz version 2.36.0 (20140111.2315)
 -->
<!-- Title: wlp::__packet_maker::build Pages: 1 -->
<svg width="262pt" height="218pt"
 viewBox="0.00 0.00 262.00 218.00" xmlns="http://www.w3.org/2000/svg" xmlns:xlink="http://www.w3.org/1999/xlink">
<g id="graph0" class="graph" transform="scale(1 1) rotate(0) translate(4 214)">
<title>wlp::__packet_maker::build</title>
<polygon fill="white" stroke="none" points="-4,4 -4,-214 258,-214 258,4 -4,4"/>
<!-- Node1 -->
<g id="node1" class="node"><title>Node1</title>
<polygon fill="#bfbfbf" stroke="black" points="0,-90 0,-120 110,-120 110,-90 0,-90"/>
<text text-anchor="start" x="8" y="-108" font-family="Helvetica,sans-Serif" font-size="10.00">wlp::__packet_maker</text>
<text text-anchor="middle" x="55" y="-97" font-family="Helvetica,sans-Serif" font-size="10.00">::build</text>
</g>
<!-- Node2 -->
<g id="node2" class="node"><title>Node2</title>
<g id="a_node2"><a xlink:href="../../d9/dde/_packet_constructor_8cpp.html#aac44b71f14784aec68658e5835499a48" target="_top" xlink:title="__encode_float18">
<polygon fill="white" stroke="black" points="153.5,-190.5 153.5,-209.5 246.5,-209.5 246.5,-190.5 153.5,-190.5"/>
<text text-anchor="middle" x="200" y="-197.5" font-family="Helvetica,sans-Serif" font-size="10.00">__encode_float18</text>
</a>
</g>
</g>
<!-- Node1&#45;&gt;Node2 -->
<g id="edge1" class="edge"><title>Node1&#45;&gt;Node2</title>
<path fill="none" stroke="midnightblue" d="M70.643,-120.291C87.4754,-137.127 116.585,-164.051 146,-181 149.474,-183.002 153.195,-184.85 156.995,-186.542"/>
<polygon fill="midnightblue" stroke="midnightblue" points="155.927,-189.886 166.508,-190.426 158.573,-183.405 155.927,-189.886"/>
</g>
<!-- Node3 -->
<g id="node3" class="node"><title>Node3</title>
<g id="a_node3"><a xlink:href="../../d9/dde/_packet_constructor_8cpp.html#a3be76d25d7377ecb287f9d4079dccaa4" target="_top" xlink:title="__join_data">
<polygon fill="white" stroke="black" points="167,-152.5 167,-171.5 233,-171.5 233,-152.5 167,-152.5"/>
<text text-anchor="middle" x="200" y="-159.5" font-family="Helvetica,sans-Serif" font-size="10.00">__join_data</text>
</a>
</g>
</g>
<!-- Node1&#45;&gt;Node3 -->
<g id="edge2" class="edge"><title>Node1&#45;&gt;Node3</title>
<path fill="none" stroke="midnightblue" d="M90.4352,-120.066C107.125,-127.233 127.512,-135.79 146,-143 151.123,-144.998 156.553,-147.035 161.908,-148.998"/>
<polygon fill="midnightblue" stroke="midnightblue" points="160.79,-152.315 171.384,-152.426 163.172,-145.733 160.79,-152.315"/>
</g>
<!-- Node4 -->
<g id="node4" class="node"><title>Node4</title>
<g id="a_node4"><a xlink:href="../../d9/dde/_packet_constructor_8cpp.html#a56bb6b421b1132856b6851ce78263fc2" target="_top" xlink:title="__set_bulk_data">
<polygon fill="white" stroke="black" points="156,-114.5 156,-133.5 244,-133.5 244,-114.5 156,-114.5"/>
<text text-anchor="middle" x="200" y="-121.5" font-family="Helvetica,sans-Serif" font-size="10.00">__set_bulk_data</text>
</a>
</g>
</g>
<!-- Node1&#45;&gt;Node4 -->
<g id="edge3" class="edge"><title>Node1&#45;&gt;Node4</title>
<path fill="none" stroke="midnightblue" d="M110.062,-112.183C121.807,-113.744 134.221,-115.393 145.928,-116.948"/>
<polygon fill="midnightblue" stroke="midnightblue" points="145.624,-120.439 155.998,-118.286 146.546,-113.5 145.624,-120.439"/>
</g>
<!-- Node5 -->
<g id="node5" class="node"><title>Node5</title>
<g id="a_node5"><a xlink:href="../../d9/dde/_packet_constructor_8cpp.html#ade9d3fa70b9b41958d7159768715e060" target="_top" xlink:title="__set_packet_name">
<polygon fill="white" stroke="black" points="148,-76.5 148,-95.5 252,-95.5 252,-76.5 148,-76.5"/>
<text text-anchor="middle" x="200" y="-83.5" font-family="Helvetica,sans-Serif" font-size="10.00">__set_packet_name</text>
</a>
</g>
</g>
<!-- Node1&#45;&gt;Node5 -->
<g id="edge4" class="edge"><title>Node1&#45;&gt;Node5</title>
<path fill="none" stroke="midnightblue" d="M110.062,-97.8169C119.027,-96.6258 128.381,-95.383 137.513,-94.1697"/>
<polygon fill="midnightblue" stroke="midnightblue" points="138.244,-97.6034 147.696,-92.8167 137.322,-90.6643 138.244,-97.6034"/>
</g>
<!-- Node6 -->
<g id="node6" class="node"><title>Node6</title>
<g id="a_node6"><a xlink:href="../../d9/dde/_packet_constructor_8cpp.html#a0468b3bb6449253081adf2146313a72b" target="_top" xlink:title="__set_packet_type">
<polygon fill="white" stroke="black" points="150.5,-38.5 150.5,-57.5 249.5,-57.5 249.5,-38.5 150.5,-38.5"/>
<text text-anchor="middle" x="200" y="-45.5" font-family="Helvetica,sans-Serif" font-size="10.00">__set_packet_type</text>
</a>
</g>
</g>
<!-- Node1&#45;&gt;Node6 -->
<g id="edge5" class="edge"><title>Node1&#45;&gt;Node6</title>
<path fill="none" stroke="midnightblue" d="M90.4352,-89.934C107.125,-82.7674 127.512,-74.2104 146,-67 151.123,-65.0022 156.553,-62.965 161.908,-61.0021"/>
<polygon fill="midnightblue" stroke="midnightblue" points="163.172,-64.2672 171.384,-57.574 160.79,-57.6846 163.172,-64.2672"/>
</g>
<!-- Node7 -->
<g id="node7" class="node"><title>Node7</title>
<g id="a_node7"><a xlink:href="../../d9/dde/_packet_constructor_8cpp.html#ae551fd73966e6ee5973797ea03912a56" target="_top" xlink:title="__set_start_and_end">
<polygon fill="white" stroke="black" points="146.5,-0.5 146.5,-19.5 253.5,-19.5 253.5,-0.5 146.5,-0.5"/>
<text text-anchor="middle" x="200" y="-7.5" font-family="Helvetica,sans-Serif" font-size="10.00">__set_start_and_end</text>
</a>
</g>
</g>
<!-- Node1&#45;&gt;Node7 -->
<g id="edge6" class="edge"><title>Node1&#45;&gt;Node7</title>
<path fill="none" stroke="midnightblue" d="M70.643,-89.7092C87.4754,-72.873 116.585,-45.9489 146,-29 149.474,-26.9984 153.195,-25.1504 156.995,-23.4583"/>
<polygon fill="midnightblue" stroke="midnightblue" points="158.573,-26.5947 166.508,-19.5742 155.927,-20.1141 158.573,-26.5947"/>
</g>
</g>
</svg>
