<?xml version="1.0" encoding="UTF-8" standalone="no"?>
<!DOCTYPE svg PUBLIC "-//W3C//DTD SVG 1.1//EN"
 "http://www.w3.org/Graphics/SVG/1.1/DTD/svg11.dtd">
<!-- Generated by graphviz version 2.36.0 (20140111.2315)
 -->
<!-- Title: get_block_ptr Pages: 1 -->
<svg width="558pt" height="213pt"
 viewBox="0.00 0.00 558.00 213.00" xmlns="http://www.w3.org/2000/svg" xmlns:xlink="http://www.w3.org/1999/xlink">
<g id="graph0" class="graph" transform="scale(1 1) rotate(0) translate(4 209)">
<title>get_block_ptr</title>
<polygon fill="white" stroke="none" points="-4,4 -4,-209 554,-209 554,4 -4,4"/>
<!-- Node1 -->
<g id="node1" class="node"><title>Node1</title>
<polygon fill="#bfbfbf" stroke="black" points="0.5,-103.5 0.5,-122.5 75.5,-122.5 75.5,-103.5 0.5,-103.5"/>
<text text-anchor="middle" x="38" y="-110.5" font-family="Helvetica,sans-Serif" font-size="10.00">get_block_ptr</text>
</g>
<!-- Node2 -->
<g id="node2" class="node"><title>Node2</title>
<g id="a_node2"><a xlink:href="../../d3/de6/_memory_8h.html#aa359f6271adac5034612761142de9195" target="_top" xlink:title="__memory_free">
<polygon fill="white" stroke="black" points="112,-103.5 112,-122.5 196,-122.5 196,-103.5 112,-103.5"/>
<text text-anchor="middle" x="154" y="-110.5" font-family="Helvetica,sans-Serif" font-size="10.00">__memory_free</text>
</a>
</g>
</g>
<!-- Node1&#45;&gt;Node2 -->
<g id="edge1" class="edge"><title>Node1&#45;&gt;Node2</title>
<path fill="none" stroke="midnightblue" d="M85.894,-113C94.4238,-113 103.265,-113 111.622,-113"/>
<polygon fill="midnightblue" stroke="midnightblue" points="85.6979,-109.5 75.6978,-113 85.6978,-116.5 85.6979,-109.5"/>
</g>
<!-- Node3 -->
<g id="node3" class="node"><title>Node3</title>
<g id="a_node3"><a xlink:href="../../d3/de6/_memory_8h.html#a137edc434b402c4f8ea23892006a38b6" target="_top" xlink:title="free">
<polygon fill="white" stroke="black" points="232.5,-103.5 232.5,-122.5 265.5,-122.5 265.5,-103.5 232.5,-103.5"/>
<text text-anchor="middle" x="249" y="-110.5" font-family="Helvetica,sans-Serif" font-size="10.00">free</text>
</a>
</g>
</g>
<!-- Node2&#45;&gt;Node3 -->
<g id="edge2" class="edge"><title>Node2&#45;&gt;Node3</title>
<path fill="none" stroke="midnightblue" d="M206.342,-113C215.788,-113 224.965,-113 232.29,-113"/>
<polygon fill="midnightblue" stroke="midnightblue" points="206.062,-109.5 196.062,-113 206.062,-116.5 206.062,-109.5"/>
</g>
<!-- Node4 -->
<g id="node4" class="node"><title>Node4</title>
<g id="a_node4"><a xlink:href="../../d9/d8a/_new_8h.html#a86107594327f3a001230df9802cd4422" target="_top" xlink:title="operator delete">
<polygon fill="white" stroke="black" points="316.5,-185.5 316.5,-204.5 397.5,-204.5 397.5,-185.5 316.5,-185.5"/>
<text text-anchor="middle" x="357" y="-192.5" font-family="Helvetica,sans-Serif" font-size="10.00">operator delete</text>
</a>
</g>
</g>
<!-- Node3&#45;&gt;Node4 -->
<g id="edge3" class="edge"><title>Node3&#45;&gt;Node4</title>
<path fill="none" stroke="midnightblue" d="M261.414,-131.73C270.771,-145.676 285.183,-164.258 302,-176 307.46,-179.812 313.76,-182.93 320.088,-185.456"/>
<polygon fill="midnightblue" stroke="midnightblue" points="264.127,-129.477 255.776,-122.957 258.238,-133.262 264.127,-129.477"/>
</g>
<!-- Node5 -->
<g id="node5" class="node"><title>Node5</title>
<g id="a_node5"><a xlink:href="../../d9/d8a/_new_8h.html#aaa8d8403dca7d813a59dd1f07728349d" target="_top" xlink:title="operator delete[]">
<polygon fill="white" stroke="black" points="313.5,-147.5 313.5,-166.5 400.5,-166.5 400.5,-147.5 313.5,-147.5"/>
<text text-anchor="middle" x="357" y="-154.5" font-family="Helvetica,sans-Serif" font-size="10.00">operator delete[]</text>
</a>
</g>
</g>
<!-- Node3&#45;&gt;Node5 -->
<g id="edge4" class="edge"><title>Node3&#45;&gt;Node5</title>
<path fill="none" stroke="midnightblue" d="M274.858,-124.95C283.398,-128.928 293.06,-133.288 302,-137 310.679,-140.604 320.265,-144.257 328.922,-147.439"/>
<polygon fill="midnightblue" stroke="midnightblue" points="276.327,-121.773 265.789,-120.676 273.343,-128.105 276.327,-121.773"/>
</g>
<!-- Node6 -->
<g id="node6" class="node"><title>Node6</title>
<g id="a_node6"><a xlink:href="../../de/dc1/classwlp_1_1_reference_count.html#a7fab13d2d8b36614b06fc53581ca6b17" target="_top" xlink:title="wlp::ReferenceCount\l\&lt; T * \&gt;::dispose">
<polygon fill="white" stroke="black" points="302.5,-98 302.5,-128 411.5,-128 411.5,-98 302.5,-98"/>
<text text-anchor="start" x="310.5" y="-116" font-family="Helvetica,sans-Serif" font-size="10.00">wlp::ReferenceCount</text>
<text text-anchor="middle" x="357" y="-105" font-family="Helvetica,sans-Serif" font-size="10.00">&lt; T * &gt;::dispose</text>
</a>
</g>
</g>
<!-- Node3&#45;&gt;Node6 -->
<g id="edge5" class="edge"><title>Node3&#45;&gt;Node6</title>
<path fill="none" stroke="midnightblue" d="M275.858,-113C283.955,-113 293.21,-113 302.486,-113"/>
<polygon fill="midnightblue" stroke="midnightblue" points="275.641,-109.5 265.641,-113 275.641,-116.5 275.641,-109.5"/>
</g>
<!-- Node7 -->
<g id="node7" class="node"><title>Node7</title>
<g id="a_node7"><a xlink:href="../../de/dc1/classwlp_1_1_reference_count.html#ad321394bfc7a1d215d3616c3721923ee" target="_top" xlink:title="wlp::ReferenceCount\l\&lt; T * \&gt;::destroy">
<polygon fill="white" stroke="black" points="302.5,-49 302.5,-79 411.5,-79 411.5,-49 302.5,-49"/>
<text text-anchor="start" x="310.5" y="-67" font-family="Helvetica,sans-Serif" font-size="10.00">wlp::ReferenceCount</text>
<text text-anchor="middle" x="357" y="-56" font-family="Helvetica,sans-Serif" font-size="10.00">&lt; T * &gt;::destroy</text>
</a>
</g>
</g>
<!-- Node3&#45;&gt;Node7 -->
<g id="edge6" class="edge"><title>Node3&#45;&gt;Node7</title>
<path fill="none" stroke="midnightblue" d="M274.913,-101.484C289.324,-94.8221 307.63,-86.3598 323.2,-79.1621"/>
<polygon fill="midnightblue" stroke="midnightblue" points="273.249,-98.3968 265.641,-105.77 276.186,-104.751 273.249,-98.3968"/>
</g>
<!-- Node8 -->
<g id="node8" class="node"><title>Node8</title>
<g id="a_node8"><a xlink:href="../../d8/db4/classwlp_1_1_dynamic_string.html#a7decbdc48439b5582da46d18e6b51041" target="_top" xlink:title="wlp::DynamicString\l::set_value">
<polygon fill="white" stroke="black" points="306,-0 306,-30 408,-30 408,-0 306,-0"/>
<text text-anchor="start" x="314" y="-18" font-family="Helvetica,sans-Serif" font-size="10.00">wlp::DynamicString</text>
<text text-anchor="middle" x="357" y="-7" font-family="Helvetica,sans-Serif" font-size="10.00">::set_value</text>
</a>
</g>
</g>
<!-- Node3&#45;&gt;Node8 -->
<g id="edge7" class="edge"><title>Node3&#45;&gt;Node8</title>
<path fill="none" stroke="midnightblue" d="M259.695,-94.243C268.807,-78.1208 283.755,-55.1418 302,-40 306.531,-36.2394 311.722,-32.914 317.054,-30.0165"/>
<polygon fill="midnightblue" stroke="midnightblue" points="256.493,-92.8054 254.798,-103.264 262.645,-96.1449 256.493,-92.8054"/>
</g>
<!-- Node9 -->
<g id="node9" class="node"><title>Node9</title>
<g id="a_node9"><a xlink:href="../../d8/db4/classwlp_1_1_dynamic_string.html#a7e2df6a940f04fa17d203c9e2c84703a" target="_top" xlink:title="wlp::DynamicString\l::operator=">
<polygon fill="white" stroke="black" points="448,-0 448,-30 550,-30 550,-0 448,-0"/>
<text text-anchor="start" x="456" y="-18" font-family="Helvetica,sans-Serif" font-size="10.00">wlp::DynamicString</text>
<text text-anchor="middle" x="499" y="-7" font-family="Helvetica,sans-Serif" font-size="10.00">::operator=</text>
</a>
</g>
</g>
<!-- Node8&#45;&gt;Node9 -->
<g id="edge8" class="edge"><title>Node8&#45;&gt;Node9</title>
<path fill="none" stroke="midnightblue" d="M418.261,-15C428.089,-15 438.177,-15 447.732,-15"/>
<polygon fill="midnightblue" stroke="midnightblue" points="418.148,-11.5001 408.148,-15 418.148,-18.5001 418.148,-11.5001"/>
</g>
</g>
</svg>
