<?xml version="1.0" encoding="UTF-8" standalone="no"?>
<!DOCTYPE svg PUBLIC "-//W3C//DTD SVG 1.1//EN"
 "http://www.w3.org/Graphics/SVG/1.1/DTD/svg11.dtd">
<!-- Generated by graphviz version 2.36.0 (20140111.2315)
 -->
<!-- Title: __memory_free Pages: 1 -->
<svg width="446pt" height="136pt"
 viewBox="0.00 0.00 446.00 136.00" xmlns="http://www.w3.org/2000/svg" xmlns:xlink="http://www.w3.org/1999/xlink">
<g id="graph0" class="graph" transform="scale(1 1) rotate(0) translate(4 132)">
<title>__memory_free</title>
<polygon fill="white" stroke="none" points="-4,4 -4,-132 442,-132 442,4 -4,4"/>
<!-- Node1 -->
<g id="node1" class="node"><title>Node1</title>
<polygon fill="#bfbfbf" stroke="black" points="0,-54.5 0,-73.5 84,-73.5 84,-54.5 0,-54.5"/>
<text text-anchor="middle" x="42" y="-61.5" font-family="Helvetica,sans-Serif" font-size="10.00">__memory_free</text>
</g>
<!-- Node2 -->
<g id="node2" class="node"><title>Node2</title>
<g id="a_node2"><a xlink:href="../../d3/de6/_memory_8h.html#a137edc434b402c4f8ea23892006a38b6" target="_top" xlink:title="free">
<polygon fill="white" stroke="black" points="120.5,-54.5 120.5,-73.5 153.5,-73.5 153.5,-54.5 120.5,-54.5"/>
<text text-anchor="middle" x="137" y="-61.5" font-family="Helvetica,sans-Serif" font-size="10.00">free</text>
</a>
</g>
</g>
<!-- Node1&#45;&gt;Node2 -->
<g id="edge1" class="edge"><title>Node1&#45;&gt;Node2</title>
<path fill="none" stroke="midnightblue" d="M94.3425,-64C103.788,-64 112.965,-64 120.29,-64"/>
<polygon fill="midnightblue" stroke="midnightblue" points="94.0619,-60.5001 84.0619,-64 94.0618,-67.5001 94.0619,-60.5001"/>
</g>
<!-- Node3 -->
<g id="node3" class="node"><title>Node3</title>
<g id="a_node3"><a xlink:href="../../de/dc1/classwlp_1_1_reference_count.html#a7fab13d2d8b36614b06fc53581ca6b17" target="_top" xlink:title="wlp::ReferenceCount\l\&lt; T * \&gt;::dispose">
<polygon fill="white" stroke="black" points="190.5,-98 190.5,-128 299.5,-128 299.5,-98 190.5,-98"/>
<text text-anchor="start" x="198.5" y="-116" font-family="Helvetica,sans-Serif" font-size="10.00">wlp::ReferenceCount</text>
<text text-anchor="middle" x="245" y="-105" font-family="Helvetica,sans-Serif" font-size="10.00">&lt; T * &gt;::dispose</text>
</a>
</g>
</g>
<!-- Node2&#45;&gt;Node3 -->
<g id="edge2" class="edge"><title>Node2&#45;&gt;Node3</title>
<path fill="none" stroke="midnightblue" d="M162.913,-75.5165C177.324,-82.1779 195.63,-90.6402 211.2,-97.8379"/>
<polygon fill="midnightblue" stroke="midnightblue" points="164.186,-72.2492 153.641,-71.2301 161.249,-78.6032 164.186,-72.2492"/>
</g>
<!-- Node4 -->
<g id="node4" class="node"><title>Node4</title>
<g id="a_node4"><a xlink:href="../../de/dc1/classwlp_1_1_reference_count.html#ad321394bfc7a1d215d3616c3721923ee" target="_top" xlink:title="wlp::ReferenceCount\l\&lt; T * \&gt;::destroy">
<polygon fill="white" stroke="black" points="190.5,-49 190.5,-79 299.5,-79 299.5,-49 190.5,-49"/>
<text text-anchor="start" x="198.5" y="-67" font-family="Helvetica,sans-Serif" font-size="10.00">wlp::ReferenceCount</text>
<text text-anchor="middle" x="245" y="-56" font-family="Helvetica,sans-Serif" font-size="10.00">&lt; T * &gt;::destroy</text>
</a>
</g>
</g>
<!-- Node2&#45;&gt;Node4 -->
<g id="edge3" class="edge"><title>Node2&#45;&gt;Node4</title>
<path fill="none" stroke="midnightblue" d="M163.858,-64C171.955,-64 181.21,-64 190.486,-64"/>
<polygon fill="midnightblue" stroke="midnightblue" points="163.641,-60.5001 153.641,-64 163.641,-67.5001 163.641,-60.5001"/>
</g>
<!-- Node5 -->
<g id="node5" class="node"><title>Node5</title>
<g id="a_node5"><a xlink:href="../../d8/db4/classwlp_1_1_dynamic_string.html#a7decbdc48439b5582da46d18e6b51041" target="_top" xlink:title="wlp::DynamicString\l::set_value">
<polygon fill="white" stroke="black" points="194,-0 194,-30 296,-30 296,-0 194,-0"/>
<text text-anchor="start" x="202" y="-18" font-family="Helvetica,sans-Serif" font-size="10.00">wlp::DynamicString</text>
<text text-anchor="middle" x="245" y="-7" font-family="Helvetica,sans-Serif" font-size="10.00">::set_value</text>
</a>
</g>
</g>
<!-- Node2&#45;&gt;Node5 -->
<g id="edge4" class="edge"><title>Node2&#45;&gt;Node5</title>
<path fill="none" stroke="midnightblue" d="M162.913,-52.4835C177.324,-45.8221 195.63,-37.3598 211.2,-30.1621"/>
<polygon fill="midnightblue" stroke="midnightblue" points="161.249,-49.3968 153.641,-56.7699 164.186,-55.7508 161.249,-49.3968"/>
</g>
<!-- Node6 -->
<g id="node6" class="node"><title>Node6</title>
<g id="a_node6"><a xlink:href="../../d8/db4/classwlp_1_1_dynamic_string.html#a7e2df6a940f04fa17d203c9e2c84703a" target="_top" xlink:title="wlp::DynamicString\l::operator=">
<polygon fill="white" stroke="black" points="336,-0 336,-30 438,-30 438,-0 336,-0"/>
<text text-anchor="start" x="344" y="-18" font-family="Helvetica,sans-Serif" font-size="10.00">wlp::DynamicString</text>
<text text-anchor="middle" x="387" y="-7" font-family="Helvetica,sans-Serif" font-size="10.00">::operator=</text>
</a>
</g>
</g>
<!-- Node5&#45;&gt;Node6 -->
<g id="edge5" class="edge"><title>Node5&#45;&gt;Node6</title>
<path fill="none" stroke="midnightblue" d="M306.261,-15C316.089,-15 326.177,-15 335.732,-15"/>
<polygon fill="midnightblue" stroke="midnightblue" points="306.148,-11.5001 296.148,-15 306.148,-18.5001 306.148,-11.5001"/>
</g>
</g>
</svg>
