<?xml version="1.0" encoding="UTF-8" standalone="no"?>
<!DOCTYPE svg PUBLIC "-//W3C//DTD SVG 1.1//EN"
 "http://www.w3.org/Graphics/SVG/1.1/DTD/svg11.dtd">
<!-- Generated by graphviz version 2.36.0 (20140111.2315)
 -->
<!-- Title: memory_get_allocator Pages: 1 -->
<svg width="328pt" height="46pt"
 viewBox="0.00 0.00 328.00 46.00" xmlns="http://www.w3.org/2000/svg" xmlns:xlink="http://www.w3.org/1999/xlink">
<g id="graph0" class="graph" transform="scale(1 1) rotate(0) translate(4 42)">
<title>memory_get_allocator</title>
<polygon fill="white" stroke="none" points="-4,4 -4,-42 324,-42 324,4 -4,4"/>
<!-- Node1 -->
<g id="node1" class="node"><title>Node1</title>
<polygon fill="#bfbfbf" stroke="black" points="0.5,-0.5 0.5,-19.5 113.5,-19.5 113.5,-0.5 0.5,-0.5"/>
<text text-anchor="middle" x="57" y="-7.5" font-family="Helvetica,sans-Serif" font-size="10.00">memory_get_allocator</text>
</g>
<!-- Node2 -->
<g id="node2" class="node"><title>Node2</title>
<g id="a_node2"><a xlink:href="../../d3/de6/_memory_8h.html#ae94046dbccfe12303d31bb8aaff3e523" target="_top" xlink:title="__memory_alloc">
<polygon fill="white" stroke="black" points="150,-0.5 150,-19.5 238,-19.5 238,-0.5 150,-0.5"/>
<text text-anchor="middle" x="194" y="-7.5" font-family="Helvetica,sans-Serif" font-size="10.00">__memory_alloc</text>
</a>
</g>
</g>
<!-- Node1&#45;&gt;Node2 -->
<g id="edge1" class="edge"><title>Node1&#45;&gt;Node2</title>
<path fill="none" stroke="midnightblue" d="M123.949,-10C132.734,-10 141.553,-10 149.812,-10"/>
<polygon fill="midnightblue" stroke="midnightblue" points="123.689,-6.5001 113.689,-10 123.689,-13.5001 123.689,-6.5001"/>
</g>
<!-- Node2&#45;&gt;Node2 -->
<g id="edge2" class="edge"><title>Node2&#45;&gt;Node2</title>
<path fill="none" stroke="midnightblue" d="M175.112,-29.4C176.373,-34.3146 182.669,-38 194,-38 212.129,-38 217.369,-28.5653 209.721,-19.7571"/>
<polygon fill="midnightblue" stroke="midnightblue" points="178.484,-30.3499 178.279,-19.7571 171.833,-28.1658 178.484,-30.3499"/>
</g>
<!-- Node3 -->
<g id="node3" class="node"><title>Node3</title>
<g id="a_node3"><a xlink:href="../../d3/de6/_memory_8h.html#ac22d681988e173a07bb5f4b5375923f8" target="_top" xlink:title="malloc">
<polygon fill="white" stroke="black" points="274.5,-0.5 274.5,-19.5 319.5,-19.5 319.5,-0.5 274.5,-0.5"/>
<text text-anchor="middle" x="297" y="-7.5" font-family="Helvetica,sans-Serif" font-size="10.00">malloc</text>
</a>
</g>
</g>
<!-- Node2&#45;&gt;Node3 -->
<g id="edge3" class="edge"><title>Node2&#45;&gt;Node3</title>
<path fill="none" stroke="midnightblue" d="M248.195,-10C257.486,-10 266.654,-10 274.438,-10"/>
<polygon fill="midnightblue" stroke="midnightblue" points="248.126,-6.5001 238.126,-10 248.126,-13.5001 248.126,-6.5001"/>
</g>
</g>
</svg>
