<?xml version="1.0" encoding="UTF-8" standalone="no"?>
<!DOCTYPE svg PUBLIC "-//W3C//DTD SVG 1.1//EN"
 "http://www.w3.org/Graphics/SVG/1.1/DTD/svg11.dtd">
<!-- Generated by graphviz version 2.38.0 (20140413.2041)
 -->
<!-- Title: getTotalMemoryFree Pages: 1 -->
<svg width="275pt" height="66pt"
 viewBox="0.00 0.00 275.00 66.00" xmlns="http://www.w3.org/2000/svg" xmlns:xlink="http://www.w3.org/1999/xlink">
<g id="graph0" class="graph" transform="scale(1 1) rotate(0) translate(4 62)">
<title>getTotalMemoryFree</title>
<polygon fill="white" stroke="none" points="-4,4 -4,-62 271,-62 271,4 -4,4"/>
<!-- Node63 -->
<g id="node1" class="node"><title>Node63</title>
<polygon fill="#bfbfbf" stroke="black" points="0,-19.5 0,-38.5 106,-38.5 106,-19.5 0,-19.5"/>
<text text-anchor="middle" x="53" y="-26.5" font-family="Helvetica,sans-Serif" font-size="10.00">getTotalMemoryFree</text>
</g>
<!-- Node64 -->
<g id="node2" class="node"><title>Node64</title>
<g id="a_node2"><a xlink:href="../../df/d64/_memory_8cpp.html#a60026c708b80a09c60079af842141c97" target="_top" xlink:title="getTotalMemoryAvailable">
<polygon fill="white" stroke="black" points="142,-38.5 142,-57.5 267,-57.5 267,-38.5 142,-38.5"/>
<text text-anchor="middle" x="204.5" y="-45.5" font-family="Helvetica,sans-Serif" font-size="10.00">getTotalMemoryAvailable</text>
</a>
</g>
</g>
<!-- Node63&#45;&gt;Node64 -->
<g id="edge1" class="edge"><title>Node63&#45;&gt;Node64</title>
<path fill="none" stroke="midnightblue" d="M106.288,-35.6453C114.519,-36.6913 123.15,-37.7883 131.729,-38.8786"/>
<polygon fill="midnightblue" stroke="midnightblue" points="131.387,-42.3632 141.748,-40.152 132.27,-35.4191 131.387,-42.3632"/>
</g>
<!-- Node65 -->
<g id="node3" class="node"><title>Node65</title>
<g id="a_node3"><a xlink:href="../../df/d64/_memory_8cpp.html#a90b9024644421883331b2c8c86570716" target="_top" xlink:title="getTotalMemoryUsed">
<polygon fill="white" stroke="black" points="150,-0.5 150,-19.5 259,-19.5 259,-0.5 150,-0.5"/>
<text text-anchor="middle" x="204.5" y="-7.5" font-family="Helvetica,sans-Serif" font-size="10.00">getTotalMemoryUsed</text>
</a>
</g>
</g>
<!-- Node63&#45;&gt;Node65 -->
<g id="edge2" class="edge"><title>Node63&#45;&gt;Node65</title>
<path fill="none" stroke="midnightblue" d="M106.288,-22.3547C117.118,-20.9783 128.642,-19.5137 139.828,-18.0921"/>
<polygon fill="midnightblue" stroke="midnightblue" points="140.497,-21.5353 149.976,-16.8024 139.614,-14.5912 140.497,-21.5353"/>
</g>
</g>
</svg>
