<?xml version="1.0" encoding="UTF-8" standalone="no"?>
<!DOCTYPE svg PUBLIC "-//W3C//DTD SVG 1.1//EN"
 "http://www.w3.org/Graphics/SVG/1.1/DTD/svg11.dtd">
<!-- Generated by graphviz version 2.36.0 (20140111.2315)
 -->
<!-- Title: get_block_allocator Pages: 1 -->
<svg width="484pt" height="95pt"
 viewBox="0.00 0.00 484.00 95.00" xmlns="http://www.w3.org/2000/svg" xmlns:xlink="http://www.w3.org/1999/xlink">
<g id="graph0" class="graph" transform="scale(1 1) rotate(0) translate(4 91)">
<title>get_block_allocator</title>
<polygon fill="white" stroke="none" points="-4,4 -4,-91 480,-91 480,4 -4,4"/>
<!-- Node1 -->
<g id="node1" class="node"><title>Node1</title>
<polygon fill="#bfbfbf" stroke="black" points="0.5,-19.5 0.5,-38.5 101.5,-38.5 101.5,-19.5 0.5,-19.5"/>
<text text-anchor="middle" x="51" y="-26.5" font-family="Helvetica,sans-Serif" font-size="10.00">get_block_allocator</text>
</g>
<!-- Node2 -->
<g id="node2" class="node"><title>Node2</title>
<g id="a_node2"><a xlink:href="../../d3/de6/_memory_8h.html#aa359f6271adac5034612761142de9195" target="_top" xlink:title="__memory_free">
<polygon fill="white" stroke="black" points="151,-38.5 151,-57.5 235,-57.5 235,-38.5 151,-38.5"/>
<text text-anchor="middle" x="193" y="-45.5" font-family="Helvetica,sans-Serif" font-size="10.00">__memory_free</text>
</a>
</g>
</g>
<!-- Node1&#45;&gt;Node2 -->
<g id="edge1" class="edge"><title>Node1&#45;&gt;Node2</title>
<path fill="none" stroke="midnightblue" d="M111.683,-37.0999C124.837,-38.8851 138.488,-40.7377 150.723,-42.3981"/>
<polygon fill="midnightblue" stroke="midnightblue" points="112.133,-33.6289 101.753,-35.7522 111.191,-40.5653 112.133,-33.6289"/>
</g>
<!-- Node6 -->
<g id="node6" class="node"><title>Node6</title>
<g id="a_node6"><a xlink:href="../../d3/de6/_memory_8h.html#a19776500cfa4d32aeb17adb0c2f3c5fe" target="_top" xlink:title="getFixedMemorySize">
<polygon fill="white" stroke="black" points="138.5,-0.5 138.5,-19.5 247.5,-19.5 247.5,-0.5 138.5,-0.5"/>
<text text-anchor="middle" x="193" y="-7.5" font-family="Helvetica,sans-Serif" font-size="10.00">getFixedMemorySize</text>
</a>
</g>
</g>
<!-- Node1&#45;&gt;Node6 -->
<g id="edge5" class="edge"><title>Node1&#45;&gt;Node6</title>
<path fill="none" stroke="midnightblue" d="M111.865,-20.8754C120.592,-19.691 129.534,-18.4775 138.132,-17.3107"/>
<polygon fill="midnightblue" stroke="midnightblue" points="111.191,-17.4347 101.753,-22.2478 112.133,-24.3711 111.191,-17.4347"/>
</g>
<!-- Node3 -->
<g id="node3" class="node"><title>Node3</title>
<g id="a_node3"><a xlink:href="../../d3/de6/_memory_8h.html#a137edc434b402c4f8ea23892006a38b6" target="_top" xlink:title="free">
<polygon fill="white" stroke="black" points="290.5,-38.5 290.5,-57.5 323.5,-57.5 323.5,-38.5 290.5,-38.5"/>
<text text-anchor="middle" x="307" y="-45.5" font-family="Helvetica,sans-Serif" font-size="10.00">free</text>
</a>
</g>
</g>
<!-- Node2&#45;&gt;Node3 -->
<g id="edge2" class="edge"><title>Node2&#45;&gt;Node3</title>
<path fill="none" stroke="midnightblue" d="M245.157,-48C261.558,-48 278.516,-48 290.35,-48"/>
<polygon fill="midnightblue" stroke="midnightblue" points="245.069,-44.5001 235.069,-48 245.069,-51.5001 245.069,-44.5001"/>
</g>
<!-- Node4 -->
<g id="node4" class="node"><title>Node4</title>
<g id="a_node4"><a xlink:href="../../de/dc1/classwlp_1_1_reference_count.html#a7fab13d2d8b36614b06fc53581ca6b17" target="_top" xlink:title="wlp::ReferenceCount\l\&lt; T * \&gt;::dispose">
<polygon fill="white" stroke="black" points="366.5,-57 366.5,-87 475.5,-87 475.5,-57 366.5,-57"/>
<text text-anchor="start" x="374.5" y="-75" font-family="Helvetica,sans-Serif" font-size="10.00">wlp::ReferenceCount</text>
<text text-anchor="middle" x="421" y="-64" font-family="Helvetica,sans-Serif" font-size="10.00">&lt; T * &gt;::dispose</text>
</a>
</g>
</g>
<!-- Node3&#45;&gt;Node4 -->
<g id="edge3" class="edge"><title>Node3&#45;&gt;Node4</title>
<path fill="none" stroke="midnightblue" d="M333.423,-53.4478C343.239,-55.5511 354.862,-58.0418 366.353,-60.5041"/>
<polygon fill="midnightblue" stroke="midnightblue" points="334.085,-50.0102 323.573,-51.3371 332.618,-56.8548 334.085,-50.0102"/>
</g>
<!-- Node5 -->
<g id="node5" class="node"><title>Node5</title>
<g id="a_node5"><a xlink:href="../../de/dc1/classwlp_1_1_reference_count.html#ad321394bfc7a1d215d3616c3721923ee" target="_top" xlink:title="wlp::ReferenceCount\l\&lt; T * \&gt;::destroy">
<polygon fill="white" stroke="black" points="366.5,-8 366.5,-38 475.5,-38 475.5,-8 366.5,-8"/>
<text text-anchor="start" x="374.5" y="-26" font-family="Helvetica,sans-Serif" font-size="10.00">wlp::ReferenceCount</text>
<text text-anchor="middle" x="421" y="-15" font-family="Helvetica,sans-Serif" font-size="10.00">&lt; T * &gt;::destroy</text>
</a>
</g>
</g>
<!-- Node3&#45;&gt;Node5 -->
<g id="edge4" class="edge"><title>Node3&#45;&gt;Node5</title>
<path fill="none" stroke="midnightblue" d="M333.423,-42.3252C343.239,-40.1342 354.862,-37.5398 366.353,-34.9749"/>
<polygon fill="midnightblue" stroke="midnightblue" points="332.57,-38.9293 323.573,-44.5239 334.095,-45.7612 332.57,-38.9293"/>
</g>
<!-- Node7 -->
<g id="node7" class="node"><title>Node7</title>
<g id="a_node7"><a xlink:href="../../d3/de6/_memory_8h.html#a50569d96c5b87927563caa7281eb9a8a" target="_top" xlink:title="realloc">
<polygon fill="white" stroke="black" points="284.5,-0.5 284.5,-19.5 329.5,-19.5 329.5,-0.5 284.5,-0.5"/>
<text text-anchor="middle" x="307" y="-7.5" font-family="Helvetica,sans-Serif" font-size="10.00">realloc</text>
</a>
</g>
</g>
<!-- Node6&#45;&gt;Node7 -->
<g id="edge6" class="edge"><title>Node6&#45;&gt;Node7</title>
<path fill="none" stroke="midnightblue" d="M257.762,-10C267.353,-10 276.634,-10 284.451,-10"/>
<polygon fill="midnightblue" stroke="midnightblue" points="257.704,-6.5001 247.704,-10 257.704,-13.5001 257.704,-6.5001"/>
</g>
</g>
</svg>
