<?xml version="1.0" encoding="UTF-8" standalone="no"?>
<!DOCTYPE svg PUBLIC "-//W3C//DTD SVG 1.1//EN"
 "http://www.w3.org/Graphics/SVG/1.1/DTD/svg11.dtd">
<!-- Generated by graphviz version 2.38.0 (20140413.2041)
 -->
<!-- Title: set_block_allocator Pages: 1 -->
<svg width="314pt" height="46pt"
 viewBox="0.00 0.00 314.00 46.00" xmlns="http://www.w3.org/2000/svg" xmlns:xlink="http://www.w3.org/1999/xlink">
<g id="graph0" class="graph" transform="scale(1 1) rotate(0) translate(4 42)">
<title>set_block_allocator</title>
<polygon fill="white" stroke="none" points="-4,4 -4,-42 310,-42 310,4 -4,4"/>
<!-- Node99 -->
<g id="node1" class="node"><title>Node99</title>
<polygon fill="#bfbfbf" stroke="black" points="0,-0.5 0,-19.5 101,-19.5 101,-0.5 0,-0.5"/>
<text text-anchor="middle" x="50.5" y="-7.5" font-family="Helvetica,sans-Serif" font-size="10.00">set_block_allocator</text>
</g>
<!-- Node100 -->
<g id="node2" class="node"><title>Node100</title>
<g id="a_node2"><a xlink:href="../../d3/de6/_memory_8h.html#ae94046dbccfe12303d31bb8aaff3e523" target="_top" xlink:title="__memory_alloc">
<polygon fill="white" stroke="black" points="137,-0.5 137,-19.5 225,-19.5 225,-0.5 137,-0.5"/>
<text text-anchor="middle" x="181" y="-7.5" font-family="Helvetica,sans-Serif" font-size="10.00">__memory_alloc</text>
</a>
</g>
</g>
<!-- Node99&#45;&gt;Node100 -->
<g id="edge1" class="edge"><title>Node99&#45;&gt;Node100</title>
<path fill="none" stroke="midnightblue" d="M111.198,-10C119.806,-10 128.522,-10 136.727,-10"/>
<polygon fill="midnightblue" stroke="midnightblue" points="111.181,-6.5001 101.181,-10 111.181,-13.5001 111.181,-6.5001"/>
</g>
<!-- Node100&#45;&gt;Node100 -->
<g id="edge2" class="edge"><title>Node100&#45;&gt;Node100</title>
<path fill="none" stroke="midnightblue" d="M162.112,-29.4C163.373,-34.3146 169.669,-38 181,-38 199.129,-38 204.369,-28.5653 196.721,-19.7571"/>
<polygon fill="midnightblue" stroke="midnightblue" points="165.484,-30.3499 165.279,-19.7571 158.833,-28.1658 165.484,-30.3499"/>
</g>
<!-- Node101 -->
<g id="node3" class="node"><title>Node101</title>
<g id="a_node3"><a xlink:href="../../d3/de6/_memory_8h.html#ac22d681988e173a07bb5f4b5375923f8" target="_top" xlink:title="malloc">
<polygon fill="white" stroke="black" points="261,-0.5 261,-19.5 306,-19.5 306,-0.5 261,-0.5"/>
<text text-anchor="middle" x="283.5" y="-7.5" font-family="Helvetica,sans-Serif" font-size="10.00">malloc</text>
</a>
</g>
</g>
<!-- Node100&#45;&gt;Node101 -->
<g id="edge3" class="edge"><title>Node100&#45;&gt;Node101</title>
<path fill="none" stroke="midnightblue" d="M235.396,-10C244.428,-10 253.323,-10 260.909,-10"/>
<polygon fill="midnightblue" stroke="midnightblue" points="235.204,-6.5001 225.204,-10 235.204,-13.5001 235.204,-6.5001"/>
</g>
</g>
</svg>
