<?xml version="1.0" encoding="UTF-8" standalone="no"?>
<!DOCTYPE svg PUBLIC "-//W3C//DTD SVG 1.1//EN"
 "http://www.w3.org/Graphics/SVG/1.1/DTD/svg11.dtd">
<!-- Generated by graphviz version 2.38.0 (20140413.2041)
 -->
<!-- Title: __memory_alloc Pages: 1 -->
<svg width="301pt" height="65pt"
 viewBox="0.00 0.00 301.00 65.00" xmlns="http://www.w3.org/2000/svg" xmlns:xlink="http://www.w3.org/1999/xlink">
<g id="graph0" class="graph" transform="scale(1 1) rotate(0) translate(4 61)">
<title>__memory_alloc</title>
<polygon fill="white" stroke="none" points="-4,4 -4,-61 297,-61 297,4 -4,4"/>
<!-- Node7 -->
<g id="node1" class="node"><title>Node7</title>
<polygon fill="#bfbfbf" stroke="black" points="0,-0.5 0,-19.5 88,-19.5 88,-0.5 0,-0.5"/>
<text text-anchor="middle" x="44" y="-7.5" font-family="Helvetica,sans-Serif" font-size="10.00">__memory_alloc</text>
</g>
<!-- Node8 -->
<g id="node2" class="node"><title>Node8</title>
<g id="a_node2"><a xlink:href="../../d3/de6/_memory_8h.html#ae94046dbccfe12303d31bb8aaff3e523" target="_top" xlink:title="__memory_alloc">
<polygon fill="white" stroke="black" points="124,-19.5 124,-38.5 212,-38.5 212,-19.5 124,-19.5"/>
<text text-anchor="middle" x="168" y="-26.5" font-family="Helvetica,sans-Serif" font-size="10.00">__memory_alloc</text>
</a>
</g>
</g>
<!-- Node7&#45;&gt;Node8 -->
<g id="edge1" class="edge"><title>Node7&#45;&gt;Node8</title>
<path fill="none" stroke="midnightblue" d="M98.0386,-18.2601C106.701,-19.6092 115.581,-20.9922 123.965,-22.2978"/>
<polygon fill="midnightblue" stroke="midnightblue" points="98.4321,-14.7793 88.0126,-16.6987 97.3549,-21.6959 98.4321,-14.7793"/>
</g>
<!-- Node9 -->
<g id="node3" class="node"><title>Node9</title>
<g id="a_node3"><a xlink:href="../../d3/de6/_memory_8h.html#ac22d681988e173a07bb5f4b5375923f8" target="_top" xlink:title="malloc">
<polygon fill="white" stroke="black" points="248,-0.5 248,-19.5 293,-19.5 293,-0.5 248,-0.5"/>
<text text-anchor="middle" x="270.5" y="-7.5" font-family="Helvetica,sans-Serif" font-size="10.00">malloc</text>
</a>
</g>
</g>
<!-- Node7&#45;&gt;Node9 -->
<g id="edge4" class="edge"><title>Node7&#45;&gt;Node9</title>
<path fill="none" stroke="midnightblue" d="M98.1749,-10C145.861,-10 213.44,-10 247.728,-10"/>
<polygon fill="midnightblue" stroke="midnightblue" points="98.0203,-6.5001 88.0202,-10 98.0202,-13.5001 98.0203,-6.5001"/>
</g>
<!-- Node8&#45;&gt;Node8 -->
<g id="edge2" class="edge"><title>Node8&#45;&gt;Node8</title>
<path fill="none" stroke="midnightblue" d="M149.112,-48.4C150.373,-53.3146 156.669,-57 168,-57 186.129,-57 191.369,-47.5653 183.721,-38.7571"/>
<polygon fill="midnightblue" stroke="midnightblue" points="152.484,-49.3499 152.279,-38.7571 145.833,-47.1658 152.484,-49.3499"/>
</g>
<!-- Node8&#45;&gt;Node9 -->
<g id="edge3" class="edge"><title>Node8&#45;&gt;Node9</title>
<path fill="none" stroke="midnightblue" d="M222.105,-18.9603C231.236,-17.2339 240.242,-15.5314 247.909,-14.0818"/>
<polygon fill="midnightblue" stroke="midnightblue" points="221.38,-15.5352 212.204,-20.832 222.68,-22.4134 221.38,-15.5352"/>
</g>
</g>
</svg>
