<?xml version="1.0" encoding="UTF-8" standalone="no"?>
<!DOCTYPE svg PUBLIC "-//W3C//DTD SVG 1.1//EN"
 "http://www.w3.org/Graphics/SVG/1.1/DTD/svg11.dtd">
<!-- Generated by graphviz version 2.36.0 (20140111.2315)
 -->
<!-- Title: insert_allocator Pages: 1 -->
<svg width="564pt" height="66pt"
 viewBox="0.00 0.00 564.00 66.00" xmlns="http://www.w3.org/2000/svg" xmlns:xlink="http://www.w3.org/1999/xlink">
<g id="graph0" class="graph" transform="scale(1 1) rotate(0) translate(4 62)">
<title>insert_allocator</title>
<polygon fill="white" stroke="none" points="-4,4 -4,-62 560,-62 560,4 -4,4"/>
<!-- Node1 -->
<g id="node1" class="node"><title>Node1</title>
<polygon fill="#bfbfbf" stroke="black" points="0.5,-19.5 0.5,-38.5 83.5,-38.5 83.5,-19.5 0.5,-19.5"/>
<text text-anchor="middle" x="42" y="-26.5" font-family="Helvetica,sans-Serif" font-size="10.00">insert_allocator</text>
</g>
<!-- Node2 -->
<g id="node2" class="node"><title>Node2</title>
<g id="a_node2"><a xlink:href="../../df/d64/_memory_8cpp.html#ae2e1e5eb229847e60461811e59883e94" target="_top" xlink:title="memory_get_allocator">
<polygon fill="white" stroke="black" points="120.5,-19.5 120.5,-38.5 233.5,-38.5 233.5,-19.5 120.5,-19.5"/>
<text text-anchor="middle" x="177" y="-26.5" font-family="Helvetica,sans-Serif" font-size="10.00">memory_get_allocator</text>
</a>
</g>
</g>
<!-- Node1&#45;&gt;Node2 -->
<g id="edge1" class="edge"><title>Node1&#45;&gt;Node2</title>
<path fill="none" stroke="midnightblue" d="M93.681,-29C102.431,-29 111.568,-29 120.439,-29"/>
<polygon fill="midnightblue" stroke="midnightblue" points="93.6271,-25.5001 83.6271,-29 93.627,-32.5001 93.6271,-25.5001"/>
</g>
<!-- Node3 -->
<g id="node3" class="node"><title>Node3</title>
<g id="a_node3"><a xlink:href="../../d3/de6/_memory_8h.html#ae94046dbccfe12303d31bb8aaff3e523" target="_top" xlink:title="__memory_alloc">
<polygon fill="white" stroke="black" points="270,-19.5 270,-38.5 358,-38.5 358,-19.5 270,-19.5"/>
<text text-anchor="middle" x="314" y="-26.5" font-family="Helvetica,sans-Serif" font-size="10.00">__memory_alloc</text>
</a>
</g>
</g>
<!-- Node2&#45;&gt;Node3 -->
<g id="edge2" class="edge"><title>Node2&#45;&gt;Node3</title>
<path fill="none" stroke="midnightblue" d="M243.949,-29C252.734,-29 261.553,-29 269.812,-29"/>
<polygon fill="midnightblue" stroke="midnightblue" points="243.689,-25.5001 233.689,-29 243.689,-32.5001 243.689,-25.5001"/>
</g>
<!-- Node3&#45;&gt;Node3 -->
<g id="edge3" class="edge"><title>Node3&#45;&gt;Node3</title>
<path fill="none" stroke="midnightblue" d="M295.112,-48.4C296.373,-53.3146 302.669,-57 314,-57 332.129,-57 337.369,-47.5653 329.721,-38.7571"/>
<polygon fill="midnightblue" stroke="midnightblue" points="298.484,-49.3499 298.279,-38.7571 291.833,-47.1658 298.484,-49.3499"/>
</g>
<!-- Node4 -->
<g id="node4" class="node"><title>Node4</title>
<g id="a_node4"><a xlink:href="../../d3/de6/_memory_8h.html#ac22d681988e173a07bb5f4b5375923f8" target="_top" xlink:title="malloc">
<polygon fill="white" stroke="black" points="394.5,-19.5 394.5,-38.5 439.5,-38.5 439.5,-19.5 394.5,-19.5"/>
<text text-anchor="middle" x="417" y="-26.5" font-family="Helvetica,sans-Serif" font-size="10.00">malloc</text>
</a>
</g>
</g>
<!-- Node3&#45;&gt;Node4 -->
<g id="edge4" class="edge"><title>Node3&#45;&gt;Node4</title>
<path fill="none" stroke="midnightblue" d="M368.195,-29C377.486,-29 386.654,-29 394.438,-29"/>
<polygon fill="midnightblue" stroke="midnightblue" points="368.126,-25.5001 358.126,-29 368.126,-32.5001 368.126,-25.5001"/>
</g>
<!-- Node5 -->
<g id="node5" class="node"><title>Node5</title>
<g id="a_node5"><a xlink:href="../../d9/d8a/_new_8h.html#a2be7f3b9f5f2189e467551f094f6dc67" target="_top" xlink:title="operator new">
<polygon fill="white" stroke="black" points="479.5,-38.5 479.5,-57.5 552.5,-57.5 552.5,-38.5 479.5,-38.5"/>
<text text-anchor="middle" x="516" y="-45.5" font-family="Helvetica,sans-Serif" font-size="10.00">operator new</text>
</a>
</g>
</g>
<!-- Node4&#45;&gt;Node5 -->
<g id="edge5" class="edge"><title>Node4&#45;&gt;Node5</title>
<path fill="none" stroke="midnightblue" d="M449.436,-35.1575C459.012,-37.0334 469.607,-39.1085 479.436,-41.0338"/>
<polygon fill="midnightblue" stroke="midnightblue" points="450.014,-31.7043 439.527,-33.2167 448.668,-38.5738 450.014,-31.7043"/>
</g>
<!-- Node6 -->
<g id="node6" class="node"><title>Node6</title>
<g id="a_node6"><a xlink:href="../../d9/d8a/_new_8h.html#a60b33dbd1804d9a08cec7f1e34e6bdf4" target="_top" xlink:title="operator new[]">
<polygon fill="white" stroke="black" points="476.5,-0.5 476.5,-19.5 555.5,-19.5 555.5,-0.5 476.5,-0.5"/>
<text text-anchor="middle" x="516" y="-7.5" font-family="Helvetica,sans-Serif" font-size="10.00">operator new[]</text>
</a>
</g>
</g>
<!-- Node4&#45;&gt;Node6 -->
<g id="edge6" class="edge"><title>Node4&#45;&gt;Node6</title>
<path fill="none" stroke="midnightblue" d="M449.491,-22.8317C458.059,-21.1534 467.438,-19.3162 476.354,-17.5699"/>
<polygon fill="midnightblue" stroke="midnightblue" points="448.668,-19.4262 439.527,-24.7833 450.014,-26.2957 448.668,-19.4262"/>
</g>
</g>
</svg>
