<?xml version="1.0" encoding="UTF-8" standalone="no"?>
<!DOCTYPE svg PUBLIC "-//W3C//DTD SVG 1.1//EN"
 "http://www.w3.org/Graphics/SVG/1.1/DTD/svg11.dtd">
<!-- Generated by graphviz version 2.38.0 (20140413.2041)
 -->
<!-- Title: __memory_alloc Pages: 1 -->
<svg width="400pt" height="142pt"
 viewBox="0.00 0.00 400.00 142.00" xmlns="http://www.w3.org/2000/svg" xmlns:xlink="http://www.w3.org/1999/xlink">
<g id="graph0" class="graph" transform="scale(1 1) rotate(0) translate(4 138)">
<title>__memory_alloc</title>
<polygon fill="white" stroke="none" points="-4,4 -4,-138 396,-138 396,4 -4,4"/>
<!-- Node0 -->
<g id="node1" class="node"><title>Node0</title>
<polygon fill="#bfbfbf" stroke="black" points="0,-57.5 0,-76.5 88,-76.5 88,-57.5 0,-57.5"/>
<text text-anchor="middle" x="44" y="-64.5" font-family="Helvetica,sans-Serif" font-size="10.00">__memory_alloc</text>
</g>
<!-- Node0&#45;&gt;Node0 -->
<g id="edge1" class="edge"><title>Node0&#45;&gt;Node0</title>
<path fill="none" stroke="midnightblue" d="M20.2641,-76.7571C8.71695,-85.5653 16.6289,-95 44,-95 61.9623,-95 71.5442,-90.9368 72.7458,-85.6539"/>
<polygon fill="midnightblue" stroke="midnightblue" points="75.6923,-83.7532 67.7359,-76.7571 69.5928,-87.1879 75.6923,-83.7532"/>
</g>
<!-- Node1 -->
<g id="node2" class="node"><title>Node1</title>
<g id="a_node2"><a xlink:href="../../de/d5b/classwlp_1_1_____allocator.html#ad1cc8c68a5c26a2869be2d7809c8d4f6" target="_top" xlink:title="wlp::__Allocator::allocate">
<polygon fill="white" stroke="black" points="136,-114.5 136,-133.5 261,-133.5 261,-114.5 136,-114.5"/>
<text text-anchor="middle" x="198.5" y="-121.5" font-family="Helvetica,sans-Serif" font-size="10.00">wlp::__Allocator::allocate</text>
</a>
</g>
</g>
<!-- Node0&#45;&gt;Node1 -->
<g id="edge2" class="edge"><title>Node0&#45;&gt;Node1</title>
<path fill="none" stroke="midnightblue" d="M62.4545,-76.6198C78.1842,-84.99 102.131,-97.001 124,-105 130.723,-107.459 137.901,-109.73 145.039,-111.782"/>
<polygon fill="midnightblue" stroke="midnightblue" points="144.132,-115.162 154.702,-114.441 145.989,-108.413 144.132,-115.162"/>
</g>
<!-- Node2 -->
<g id="node3" class="node"><title>Node2</title>
<g id="a_node3"><a xlink:href="../../de/d5b/classwlp_1_1_____allocator.html#ac32c40378bdd3630f7babc93aa0fab58" target="_top" xlink:title="wlp::__Allocator::getBlockSize">
<polygon fill="white" stroke="black" points="124,-76.5 124,-95.5 273,-95.5 273,-76.5 124,-76.5"/>
<text text-anchor="middle" x="198.5" y="-83.5" font-family="Helvetica,sans-Serif" font-size="10.00">wlp::__Allocator::getBlockSize</text>
</a>
</g>
</g>
<!-- Node0&#45;&gt;Node2 -->
<g id="edge3" class="edge"><title>Node0&#45;&gt;Node2</title>
<path fill="none" stroke="midnightblue" d="M88.2925,-72.3938C96.3539,-73.3982 105.024,-74.4784 113.827,-75.5752"/>
<polygon fill="midnightblue" stroke="midnightblue" points="113.442,-79.0541 123.798,-76.8174 114.307,-72.1078 113.442,-79.0541"/>
</g>
<!-- Node3 -->
<g id="node4" class="node"><title>Node3</title>
<g id="a_node4"><a xlink:href="../../df/d64/_memory_8cpp.html#ae2e1e5eb229847e60461811e59883e94" target="_top" xlink:title="memory_get_allocator">
<polygon fill="white" stroke="black" points="142,-38.5 142,-57.5 255,-57.5 255,-38.5 142,-38.5"/>
<text text-anchor="middle" x="198.5" y="-45.5" font-family="Helvetica,sans-Serif" font-size="10.00">memory_get_allocator</text>
</a>
</g>
</g>
<!-- Node0&#45;&gt;Node3 -->
<g id="edge4" class="edge"><title>Node0&#45;&gt;Node3</title>
<path fill="none" stroke="midnightblue" d="M88.2925,-61.6062C101.815,-59.9214 117.05,-58.0233 131.753,-56.1914"/>
<polygon fill="midnightblue" stroke="midnightblue" points="132.33,-59.6467 141.82,-54.9371 131.464,-52.7004 132.33,-59.6467"/>
</g>
<!-- Node6 -->
<g id="node7" class="node"><title>Node6</title>
<g id="a_node7"><a xlink:href="../../df/d64/_memory_8cpp.html#a3449e9c53dbd01237556c8a36a18970c" target="_top" xlink:title="set_block_allocator">
<polygon fill="white" stroke="black" points="148,-0.5 148,-19.5 249,-19.5 249,-0.5 148,-0.5"/>
<text text-anchor="middle" x="198.5" y="-7.5" font-family="Helvetica,sans-Serif" font-size="10.00">set_block_allocator</text>
</a>
</g>
</g>
<!-- Node0&#45;&gt;Node6 -->
<g id="edge7" class="edge"><title>Node0&#45;&gt;Node6</title>
<path fill="none" stroke="midnightblue" d="M62.4545,-57.3802C78.1842,-49.01 102.131,-36.999 124,-29 130.723,-26.541 137.901,-24.2702 145.039,-22.2184"/>
<polygon fill="midnightblue" stroke="midnightblue" points="145.989,-25.5873 154.702,-19.5592 144.132,-18.8382 145.989,-25.5873"/>
</g>
<!-- Node4 -->
<g id="node5" class="node"><title>Node4</title>
<g id="a_node5"><a xlink:href="../../df/d64/_memory_8cpp.html#a183874ce1293611655792ea9a96386e9" target="_top" xlink:title="find_allocator">
<polygon fill="white" stroke="black" points="313.5,-57.5 313.5,-76.5 387.5,-76.5 387.5,-57.5 313.5,-57.5"/>
<text text-anchor="middle" x="350.5" y="-64.5" font-family="Helvetica,sans-Serif" font-size="10.00">find_allocator</text>
</a>
</g>
</g>
<!-- Node3&#45;&gt;Node4 -->
<g id="edge5" class="edge"><title>Node3&#45;&gt;Node4</title>
<path fill="none" stroke="midnightblue" d="M255.354,-55.0749C271.056,-57.0637 287.956,-59.2045 303.046,-61.1158"/>
<polygon fill="midnightblue" stroke="midnightblue" points="302.805,-64.6131 313.165,-62.3976 303.684,-57.6686 302.805,-64.6131"/>
</g>
<!-- Node5 -->
<g id="node6" class="node"><title>Node5</title>
<g id="a_node6"><a xlink:href="../../df/d64/_memory_8cpp.html#a8fd0fd773b28e67bdee6e672e5491b53" target="_top" xlink:title="insert_allocator">
<polygon fill="white" stroke="black" points="309,-19.5 309,-38.5 392,-38.5 392,-19.5 309,-19.5"/>
<text text-anchor="middle" x="350.5" y="-26.5" font-family="Helvetica,sans-Serif" font-size="10.00">insert_allocator</text>
</a>
</g>
</g>
<!-- Node3&#45;&gt;Node5 -->
<g id="edge6" class="edge"><title>Node3&#45;&gt;Node5</title>
<path fill="none" stroke="midnightblue" d="M255.354,-40.9251C269.426,-39.1427 284.461,-37.2382 298.293,-35.4863"/>
<polygon fill="midnightblue" stroke="midnightblue" points="299.118,-38.9098 308.599,-34.1808 298.238,-31.9653 299.118,-38.9098"/>
</g>
</g>
</svg>
