<?xml version="1.0" encoding="UTF-8" standalone="no"?>
<!DOCTYPE svg PUBLIC "-//W3C//DTD SVG 1.1//EN"
 "http://www.w3.org/Graphics/SVG/1.1/DTD/svg11.dtd">
<!-- Generated by graphviz version 2.36.0 (20140111.2315)
 -->
<!-- Title: getTotalMemoryFree Pages: 1 -->
<svg width="280pt" height="66pt"
 viewBox="0.00 0.00 280.00 66.00" xmlns="http://www.w3.org/2000/svg" xmlns:xlink="http://www.w3.org/1999/xlink">
<g id="graph0" class="graph" transform="scale(1 1) rotate(0) translate(4 62)">
<title>getTotalMemoryFree</title>
<polygon fill="white" stroke="none" points="-4,4 -4,-62 276,-62 276,4 -4,4"/>
<!-- Node1 -->
<g id="node1" class="node"><title>Node1</title>
<polygon fill="#bfbfbf" stroke="black" points="0.5,-19.5 0.5,-38.5 107.5,-38.5 107.5,-19.5 0.5,-19.5"/>
<text text-anchor="middle" x="54" y="-26.5" font-family="Helvetica,sans-Serif" font-size="10.00">getTotalMemoryFree</text>
</g>
<!-- Node2 -->
<g id="node2" class="node"><title>Node2</title>
<g id="a_node2"><a xlink:href="../../df/d64/_memory_8cpp.html#a60026c708b80a09c60079af842141c97" target="_top" xlink:title="getTotalMemoryAvailable">
<polygon fill="white" stroke="black" points="144.5,-38.5 144.5,-57.5 271.5,-57.5 271.5,-38.5 144.5,-38.5"/>
<text text-anchor="middle" x="208" y="-45.5" font-family="Helvetica,sans-Serif" font-size="10.00">getTotalMemoryAvailable</text>
</a>
</g>
</g>
<!-- Node1&#45;&gt;Node2 -->
<g id="edge1" class="edge"><title>Node1&#45;&gt;Node2</title>
<path fill="none" stroke="midnightblue" d="M107.736,-35.592C116.333,-36.6666 125.37,-37.7962 134.344,-38.918"/>
<polygon fill="midnightblue" stroke="midnightblue" points="134.067,-42.4105 144.423,-40.1779 134.935,-35.4645 134.067,-42.4105"/>
</g>
<!-- Node3 -->
<g id="node3" class="node"><title>Node3</title>
<g id="a_node3"><a xlink:href="../../df/d64/_memory_8cpp.html#a90b9024644421883331b2c8c86570716" target="_top" xlink:title="getTotalMemoryUsed">
<polygon fill="white" stroke="black" points="153,-0.5 153,-19.5 263,-19.5 263,-0.5 153,-0.5"/>
<text text-anchor="middle" x="208" y="-7.5" font-family="Helvetica,sans-Serif" font-size="10.00">getTotalMemoryUsed</text>
</a>
</g>
</g>
<!-- Node1&#45;&gt;Node3 -->
<g id="edge2" class="edge"><title>Node1&#45;&gt;Node3</title>
<path fill="none" stroke="midnightblue" d="M107.736,-22.408C119.01,-20.9988 131.04,-19.495 142.694,-18.0383"/>
<polygon fill="midnightblue" stroke="midnightblue" points="143.321,-21.4871 152.81,-16.7737 142.453,-14.5412 143.321,-21.4871"/>
</g>
</g>
</svg>
