<?xml version="1.0" encoding="UTF-8" standalone="no"?>
<!DOCTYPE svg PUBLIC "-//W3C//DTD SVG 1.1//EN"
 "http://www.w3.org/Graphics/SVG/1.1/DTD/svg11.dtd">
<!-- Generated by graphviz version 2.36.0 (20140111.2315)
 -->
<!-- Title: __memory_alloc Pages: 1 -->
<svg width="418pt" height="84pt"
 viewBox="0.00 0.00 418.00 84.00" xmlns="http://www.w3.org/2000/svg" xmlns:xlink="http://www.w3.org/1999/xlink">
<g id="graph0" class="graph" transform="scale(1 1) rotate(0) translate(4 80)">
<title>__memory_alloc</title>
<polygon fill="white" stroke="none" points="-4,4 -4,-80 414,-80 414,4 -4,4"/>
<!-- Node1 -->
<g id="node1" class="node"><title>Node1</title>
<polygon fill="#bfbfbf" stroke="black" points="0,-19.5 0,-38.5 88,-38.5 88,-19.5 0,-19.5"/>
<text text-anchor="middle" x="44" y="-26.5" font-family="Helvetica,sans-Serif" font-size="10.00">__memory_alloc</text>
</g>
<!-- Node2 -->
<g id="node2" class="node"><title>Node2</title>
<g id="a_node2"><a xlink:href="../../d3/de6/_memory_8h.html#ae94046dbccfe12303d31bb8aaff3e523" target="_top" xlink:title="__memory_alloc">
<polygon fill="white" stroke="black" points="124,-38.5 124,-57.5 212,-57.5 212,-38.5 124,-38.5"/>
<text text-anchor="middle" x="168" y="-45.5" font-family="Helvetica,sans-Serif" font-size="10.00">__memory_alloc</text>
</a>
</g>
</g>
<!-- Node1&#45;&gt;Node2 -->
<g id="edge1" class="edge"><title>Node1&#45;&gt;Node2</title>
<path fill="none" stroke="midnightblue" d="M98.0386,-37.2601C106.701,-38.6092 115.581,-39.9922 123.965,-41.2978"/>
<polygon fill="midnightblue" stroke="midnightblue" points="98.4321,-33.7793 88.0126,-35.6987 97.3549,-40.6959 98.4321,-33.7793"/>
</g>
<!-- Node3 -->
<g id="node3" class="node"><title>Node3</title>
<g id="a_node3"><a xlink:href="../../d3/de6/_memory_8h.html#ac22d681988e173a07bb5f4b5375923f8" target="_top" xlink:title="malloc">
<polygon fill="white" stroke="black" points="248.5,-19.5 248.5,-38.5 293.5,-38.5 293.5,-19.5 248.5,-19.5"/>
<text text-anchor="middle" x="271" y="-26.5" font-family="Helvetica,sans-Serif" font-size="10.00">malloc</text>
</a>
</g>
</g>
<!-- Node1&#45;&gt;Node3 -->
<g id="edge6" class="edge"><title>Node1&#45;&gt;Node3</title>
<path fill="none" stroke="midnightblue" d="M98.3214,-29C146.249,-29 214.21,-29 248.474,-29"/>
<polygon fill="midnightblue" stroke="midnightblue" points="98.1161,-25.5001 88.116,-29 98.116,-32.5001 98.1161,-25.5001"/>
</g>
<!-- Node2&#45;&gt;Node2 -->
<g id="edge2" class="edge"><title>Node2&#45;&gt;Node2</title>
<path fill="none" stroke="midnightblue" d="M149.112,-67.4C150.373,-72.3146 156.669,-76 168,-76 186.129,-76 191.369,-66.5653 183.721,-57.7571"/>
<polygon fill="midnightblue" stroke="midnightblue" points="152.484,-68.3499 152.279,-57.7571 145.833,-66.1658 152.484,-68.3499"/>
</g>
<!-- Node2&#45;&gt;Node3 -->
<g id="edge3" class="edge"><title>Node2&#45;&gt;Node3</title>
<path fill="none" stroke="midnightblue" d="M222.195,-37.9929C231.486,-36.2452 240.654,-34.5204 248.438,-33.0561"/>
<polygon fill="midnightblue" stroke="midnightblue" points="221.307,-34.5987 212.126,-39.8872 222.601,-41.478 221.307,-34.5987"/>
</g>
<!-- Node4 -->
<g id="node4" class="node"><title>Node4</title>
<g id="a_node4"><a xlink:href="../../d9/d8a/_new_8h.html#a2be7f3b9f5f2189e467551f094f6dc67" target="_top" xlink:title="operator new">
<polygon fill="white" stroke="black" points="333.5,-38.5 333.5,-57.5 406.5,-57.5 406.5,-38.5 333.5,-38.5"/>
<text text-anchor="middle" x="370" y="-45.5" font-family="Helvetica,sans-Serif" font-size="10.00">operator new</text>
</a>
</g>
</g>
<!-- Node3&#45;&gt;Node4 -->
<g id="edge4" class="edge"><title>Node3&#45;&gt;Node4</title>
<path fill="none" stroke="midnightblue" d="M303.436,-35.1575C313.012,-37.0334 323.607,-39.1085 333.436,-41.0338"/>
<polygon fill="midnightblue" stroke="midnightblue" points="304.014,-31.7043 293.527,-33.2167 302.668,-38.5738 304.014,-31.7043"/>
</g>
<!-- Node5 -->
<g id="node5" class="node"><title>Node5</title>
<g id="a_node5"><a xlink:href="../../d9/d8a/_new_8h.html#a60b33dbd1804d9a08cec7f1e34e6bdf4" target="_top" xlink:title="operator new[]">
<polygon fill="white" stroke="black" points="330.5,-0.5 330.5,-19.5 409.5,-19.5 409.5,-0.5 330.5,-0.5"/>
<text text-anchor="middle" x="370" y="-7.5" font-family="Helvetica,sans-Serif" font-size="10.00">operator new[]</text>
</a>
</g>
</g>
<!-- Node3&#45;&gt;Node5 -->
<g id="edge5" class="edge"><title>Node3&#45;&gt;Node5</title>
<path fill="none" stroke="midnightblue" d="M303.491,-22.8317C312.059,-21.1534 321.438,-19.3162 330.354,-17.5699"/>
<polygon fill="midnightblue" stroke="midnightblue" points="302.668,-19.4262 293.527,-24.7833 304.014,-26.2957 302.668,-19.4262"/>
</g>
</g>
</svg>
