<?xml version="1.0" encoding="UTF-8" standalone="no"?>
<!DOCTYPE svg PUBLIC "-//W3C//DTD SVG 1.1//EN"
 "http://www.w3.org/Graphics/SVG/1.1/DTD/svg11.dtd">
<!-- Generated by graphviz version 2.36.0 (20140111.2315)
 -->
<!-- Title: insert_allocator Pages: 1 -->
<svg width="448pt" height="46pt"
 viewBox="0.00 0.00 448.00 46.00" xmlns="http://www.w3.org/2000/svg" xmlns:xlink="http://www.w3.org/1999/xlink">
<g id="graph0" class="graph" transform="scale(1 1) rotate(0) translate(4 42)">
<title>insert_allocator</title>
<polygon fill="white" stroke="none" points="-4,4 -4,-42 444,-42 444,4 -4,4"/>
<!-- Node1 -->
<g id="node1" class="node"><title>Node1</title>
<polygon fill="#bfbfbf" stroke="black" points="0.5,-0.5 0.5,-19.5 83.5,-19.5 83.5,-0.5 0.5,-0.5"/>
<text text-anchor="middle" x="42" y="-7.5" font-family="Helvetica,sans-Serif" font-size="10.00">insert_allocator</text>
</g>
<!-- Node2 -->
<g id="node2" class="node"><title>Node2</title>
<g id="a_node2"><a xlink:href="../../df/d64/_memory_8cpp.html#ae2e1e5eb229847e60461811e59883e94" target="_top" xlink:title="memory_get_allocator">
<polygon fill="white" stroke="black" points="120.5,-0.5 120.5,-19.5 233.5,-19.5 233.5,-0.5 120.5,-0.5"/>
<text text-anchor="middle" x="177" y="-7.5" font-family="Helvetica,sans-Serif" font-size="10.00">memory_get_allocator</text>
</a>
</g>
</g>
<!-- Node1&#45;&gt;Node2 -->
<g id="edge1" class="edge"><title>Node1&#45;&gt;Node2</title>
<path fill="none" stroke="midnightblue" d="M93.681,-10C102.431,-10 111.568,-10 120.439,-10"/>
<polygon fill="midnightblue" stroke="midnightblue" points="93.6271,-6.5001 83.6271,-10 93.627,-13.5001 93.6271,-6.5001"/>
</g>
<!-- Node3 -->
<g id="node3" class="node"><title>Node3</title>
<g id="a_node3"><a xlink:href="../../d3/de6/_memory_8h.html#ae94046dbccfe12303d31bb8aaff3e523" target="_top" xlink:title="__memory_alloc">
<polygon fill="white" stroke="black" points="270,-0.5 270,-19.5 358,-19.5 358,-0.5 270,-0.5"/>
<text text-anchor="middle" x="314" y="-7.5" font-family="Helvetica,sans-Serif" font-size="10.00">__memory_alloc</text>
</a>
</g>
</g>
<!-- Node2&#45;&gt;Node3 -->
<g id="edge2" class="edge"><title>Node2&#45;&gt;Node3</title>
<path fill="none" stroke="midnightblue" d="M243.949,-10C252.734,-10 261.553,-10 269.812,-10"/>
<polygon fill="midnightblue" stroke="midnightblue" points="243.689,-6.5001 233.689,-10 243.689,-13.5001 243.689,-6.5001"/>
</g>
<!-- Node3&#45;&gt;Node3 -->
<g id="edge3" class="edge"><title>Node3&#45;&gt;Node3</title>
<path fill="none" stroke="midnightblue" d="M295.112,-29.4C296.373,-34.3146 302.669,-38 314,-38 332.129,-38 337.369,-28.5653 329.721,-19.7571"/>
<polygon fill="midnightblue" stroke="midnightblue" points="298.484,-30.3499 298.279,-19.7571 291.833,-28.1658 298.484,-30.3499"/>
</g>
<!-- Node4 -->
<g id="node4" class="node"><title>Node4</title>
<g id="a_node4"><a xlink:href="../../d3/de6/_memory_8h.html#ac22d681988e173a07bb5f4b5375923f8" target="_top" xlink:title="malloc">
<polygon fill="white" stroke="black" points="394.5,-0.5 394.5,-19.5 439.5,-19.5 439.5,-0.5 394.5,-0.5"/>
<text text-anchor="middle" x="417" y="-7.5" font-family="Helvetica,sans-Serif" font-size="10.00">malloc</text>
</a>
</g>
</g>
<!-- Node3&#45;&gt;Node4 -->
<g id="edge4" class="edge"><title>Node3&#45;&gt;Node4</title>
<path fill="none" stroke="midnightblue" d="M368.195,-10C377.486,-10 386.654,-10 394.438,-10"/>
<polygon fill="midnightblue" stroke="midnightblue" points="368.126,-6.5001 358.126,-10 368.126,-13.5001 368.126,-6.5001"/>
</g>
</g>
</svg>
