<?xml version="1.0" encoding="UTF-8" standalone="no"?>
<!DOCTYPE svg PUBLIC "-//W3C//DTD SVG 1.1//EN"
 "http://www.w3.org/Graphics/SVG/1.1/DTD/svg11.dtd">
<!-- Generated by graphviz version 2.38.0 (20140413.2041)
 -->
<!-- Title: insert_allocator Pages: 1 -->
<svg width="445pt" height="46pt"
 viewBox="0.00 0.00 445.00 46.00" xmlns="http://www.w3.org/2000/svg" xmlns:xlink="http://www.w3.org/1999/xlink">
<g id="graph0" class="graph" transform="scale(1 1) rotate(0) translate(4 42)">
<title>insert_allocator</title>
<polygon fill="white" stroke="none" points="-4,4 -4,-42 441,-42 441,4 -4,4"/>
<!-- Node73 -->
<g id="node1" class="node"><title>Node73</title>
<polygon fill="#bfbfbf" stroke="black" points="0,-0.5 0,-19.5 83,-19.5 83,-0.5 0,-0.5"/>
<text text-anchor="middle" x="41.5" y="-7.5" font-family="Helvetica,sans-Serif" font-size="10.00">insert_allocator</text>
</g>
<!-- Node74 -->
<g id="node2" class="node"><title>Node74</title>
<g id="a_node2"><a xlink:href="../../df/d64/_memory_8cpp.html#ae2e1e5eb229847e60461811e59883e94" target="_top" xlink:title="memory_get_allocator">
<polygon fill="white" stroke="black" points="119,-0.5 119,-19.5 232,-19.5 232,-0.5 119,-0.5"/>
<text text-anchor="middle" x="175.5" y="-7.5" font-family="Helvetica,sans-Serif" font-size="10.00">memory_get_allocator</text>
</a>
</g>
</g>
<!-- Node73&#45;&gt;Node74 -->
<g id="edge1" class="edge"><title>Node73&#45;&gt;Node74</title>
<path fill="none" stroke="midnightblue" d="M93.4283,-10C101.692,-10 110.288,-10 118.661,-10"/>
<polygon fill="midnightblue" stroke="midnightblue" points="93.1815,-6.5001 83.1814,-10 93.1814,-13.5001 93.1815,-6.5001"/>
</g>
<!-- Node75 -->
<g id="node3" class="node"><title>Node75</title>
<g id="a_node3"><a xlink:href="../../d3/de6/_memory_8h.html#ae94046dbccfe12303d31bb8aaff3e523" target="_top" xlink:title="__memory_alloc">
<polygon fill="white" stroke="black" points="268,-0.5 268,-19.5 356,-19.5 356,-0.5 268,-0.5"/>
<text text-anchor="middle" x="312" y="-7.5" font-family="Helvetica,sans-Serif" font-size="10.00">__memory_alloc</text>
</a>
</g>
</g>
<!-- Node74&#45;&gt;Node75 -->
<g id="edge2" class="edge"><title>Node74&#45;&gt;Node75</title>
<path fill="none" stroke="midnightblue" d="M242.44,-10C251.057,-10 259.702,-10 267.81,-10"/>
<polygon fill="midnightblue" stroke="midnightblue" points="242.372,-6.5001 232.372,-10 242.372,-13.5001 242.372,-6.5001"/>
</g>
<!-- Node75&#45;&gt;Node75 -->
<g id="edge3" class="edge"><title>Node75&#45;&gt;Node75</title>
<path fill="none" stroke="midnightblue" d="M293.112,-29.4C294.373,-34.3146 300.669,-38 312,-38 330.129,-38 335.369,-28.5653 327.721,-19.7571"/>
<polygon fill="midnightblue" stroke="midnightblue" points="296.484,-30.3499 296.279,-19.7571 289.833,-28.1658 296.484,-30.3499"/>
</g>
<!-- Node76 -->
<g id="node4" class="node"><title>Node76</title>
<g id="a_node4"><a xlink:href="../../d3/de6/_memory_8h.html#ac22d681988e173a07bb5f4b5375923f8" target="_top" xlink:title="malloc">
<polygon fill="white" stroke="black" points="392,-0.5 392,-19.5 437,-19.5 437,-0.5 392,-0.5"/>
<text text-anchor="middle" x="414.5" y="-7.5" font-family="Helvetica,sans-Serif" font-size="10.00">malloc</text>
</a>
</g>
</g>
<!-- Node75&#45;&gt;Node76 -->
<g id="edge4" class="edge"><title>Node75&#45;&gt;Node76</title>
<path fill="none" stroke="midnightblue" d="M366.396,-10C375.428,-10 384.323,-10 391.909,-10"/>
<polygon fill="midnightblue" stroke="midnightblue" points="366.204,-6.5001 356.204,-10 366.204,-13.5001 366.204,-6.5001"/>
</g>
</g>
</svg>
