<?xml version="1.0" encoding="UTF-8" standalone="no"?>
<!DOCTYPE svg PUBLIC "-//W3C//DTD SVG 1.1//EN"
 "http://www.w3.org/Graphics/SVG/1.1/DTD/svg11.dtd">
<!-- Generated by graphviz version 2.38.0 (20140413.2041)
 -->
<!-- Title: get_block_ptr Pages: 1 -->
<svg width="412pt" height="88pt"
 viewBox="0.00 0.00 412.00 88.00" xmlns="http://www.w3.org/2000/svg" xmlns:xlink="http://www.w3.org/1999/xlink">
<g id="graph0" class="graph" transform="scale(1 1) rotate(0) translate(4 84)">
<title>get_block_ptr</title>
<polygon fill="white" stroke="none" points="-4,4 -4,-84 408,-84 408,4 -4,4"/>
<!-- Node34 -->
<g id="node1" class="node"><title>Node34</title>
<polygon fill="#bfbfbf" stroke="black" points="0,-30 0,-49 75,-49 75,-30 0,-30"/>
<text text-anchor="middle" x="37.5" y="-37" font-family="Helvetica,sans-Serif" font-size="10.00">get_block_ptr</text>
</g>
<!-- Node35 -->
<g id="node2" class="node"><title>Node35</title>
<g id="a_node2"><a xlink:href="../../d3/de6/_memory_8h.html#aa359f6271adac5034612761142de9195" target="_top" xlink:title="__memory_free">
<polygon fill="white" stroke="black" points="111,-30 111,-49 194,-49 194,-30 111,-30"/>
<text text-anchor="middle" x="152.5" y="-37" font-family="Helvetica,sans-Serif" font-size="10.00">__memory_free</text>
</a>
</g>
</g>
<!-- Node34&#45;&gt;Node35 -->
<g id="edge1" class="edge"><title>Node34&#45;&gt;Node35</title>
<path fill="none" stroke="midnightblue" d="M85.2767,-39.5C93.7121,-39.5 102.446,-39.5 110.694,-39.5"/>
<polygon fill="midnightblue" stroke="midnightblue" points="85.1879,-36.0001 75.1879,-39.5 85.1878,-43.0001 85.1879,-36.0001"/>
</g>
<!-- Node36 -->
<g id="node3" class="node"><title>Node36</title>
<g id="a_node3"><a xlink:href="../../d3/de6/_memory_8h.html#a137edc434b402c4f8ea23892006a38b6" target="_top" xlink:title="free">
<polygon fill="white" stroke="black" points="230,-30 230,-49 262,-49 262,-30 230,-30"/>
<text text-anchor="middle" x="246" y="-37" font-family="Helvetica,sans-Serif" font-size="10.00">free</text>
</a>
</g>
</g>
<!-- Node35&#45;&gt;Node36 -->
<g id="edge2" class="edge"><title>Node35&#45;&gt;Node36</title>
<path fill="none" stroke="midnightblue" d="M204.245,-39.5C213.5,-39.5 222.479,-39.5 229.643,-39.5"/>
<polygon fill="midnightblue" stroke="midnightblue" points="204.166,-36.0001 194.166,-39.5 204.166,-43.0001 204.166,-36.0001"/>
</g>
<!-- Node37 -->
<g id="node4" class="node"><title>Node37</title>
<g id="a_node4"><a xlink:href="../../de/dc1/classwlp_1_1_reference_count.html#a7fab13d2d8b36614b06fc53581ca6b17" target="_top" xlink:title="wlp::ReferenceCount\l\&lt; T *\&gt;::dispose">
<polygon fill="white" stroke="black" points="298,-49.5 298,-79.5 404,-79.5 404,-49.5 298,-49.5"/>
<text text-anchor="start" x="306" y="-67.5" font-family="Helvetica,sans-Serif" font-size="10.00">wlp::ReferenceCount</text>
<text text-anchor="middle" x="351" y="-56.5" font-family="Helvetica,sans-Serif" font-size="10.00">&lt; T *&gt;::dispose</text>
</a>
</g>
</g>
<!-- Node36&#45;&gt;Node37 -->
<g id="edge3" class="edge"><title>Node36&#45;&gt;Node37</title>
<path fill="none" stroke="midnightblue" d="M272.001,-45.5683C279.766,-47.453 288.635,-49.6057 297.543,-51.7677"/>
<polygon fill="midnightblue" stroke="midnightblue" points="272.741,-42.1464 262.198,-43.1888 271.09,-48.9489 272.741,-42.1464"/>
</g>
<!-- Node38 -->
<g id="node5" class="node"><title>Node38</title>
<g id="a_node5"><a xlink:href="../../de/dc1/classwlp_1_1_reference_count.html#ad321394bfc7a1d215d3616c3721923ee" target="_top" xlink:title="wlp::ReferenceCount\l\&lt; T *\&gt;::destroy">
<polygon fill="white" stroke="black" points="298,-0.5 298,-30.5 404,-30.5 404,-0.5 298,-0.5"/>
<text text-anchor="start" x="306" y="-18.5" font-family="Helvetica,sans-Serif" font-size="10.00">wlp::ReferenceCount</text>
<text text-anchor="middle" x="351" y="-7.5" font-family="Helvetica,sans-Serif" font-size="10.00">&lt; T *&gt;::destroy</text>
</a>
</g>
</g>
<!-- Node36&#45;&gt;Node38 -->
<g id="edge4" class="edge"><title>Node36&#45;&gt;Node38</title>
<path fill="none" stroke="midnightblue" d="M272.001,-33.6744C279.766,-31.8652 288.635,-29.7985 297.543,-27.723"/>
<polygon fill="midnightblue" stroke="midnightblue" points="271.143,-30.2806 262.198,-35.9587 272.731,-37.098 271.143,-30.2806"/>
</g>
</g>
</svg>
