<?xml version="1.0" encoding="UTF-8" standalone="no"?>
<!DOCTYPE svg PUBLIC "-//W3C//DTD SVG 1.1//EN"
 "http://www.w3.org/Graphics/SVG/1.1/DTD/svg11.dtd">
<!-- Generated by graphviz version 2.38.0 (20140413.2041)
 -->
<!-- Title: memory_get_allocator Pages: 1 -->
<svg width="240pt" height="66pt"
 viewBox="0.00 0.00 240.00 66.00" xmlns="http://www.w3.org/2000/svg" xmlns:xlink="http://www.w3.org/1999/xlink">
<g id="graph0" class="graph" transform="scale(1 1) rotate(0) translate(4 62)">
<title>memory_get_allocator</title>
<polygon fill="white" stroke="none" points="-4,4 -4,-62 236,-62 236,4 -4,4"/>
<!-- Node86 -->
<g id="node1" class="node"><title>Node86</title>
<polygon fill="#bfbfbf" stroke="black" points="0,-19.5 0,-38.5 113,-38.5 113,-19.5 0,-19.5"/>
<text text-anchor="middle" x="56.5" y="-26.5" font-family="Helvetica,sans-Serif" font-size="10.00">memory_get_allocator</text>
</g>
<!-- Node87 -->
<g id="node2" class="node"><title>Node87</title>
<g id="a_node2"><a xlink:href="../../df/d64/_memory_8cpp.html#a183874ce1293611655792ea9a96386e9" target="_top" xlink:title="find_allocator">
<polygon fill="white" stroke="black" points="153.5,-38.5 153.5,-57.5 227.5,-57.5 227.5,-38.5 153.5,-38.5"/>
<text text-anchor="middle" x="190.5" y="-45.5" font-family="Helvetica,sans-Serif" font-size="10.00">find_allocator</text>
</a>
</g>
</g>
<!-- Node86&#45;&gt;Node87 -->
<g id="edge1" class="edge"><title>Node86&#45;&gt;Node87</title>
<path fill="none" stroke="midnightblue" d="M113.097,-37.0026C123.032,-38.4326 133.289,-39.909 142.938,-41.2979"/>
<polygon fill="midnightblue" stroke="midnightblue" points="142.728,-44.8037 153.125,-42.7642 143.725,-37.8751 142.728,-44.8037"/>
</g>
<!-- Node88 -->
<g id="node3" class="node"><title>Node88</title>
<g id="a_node3"><a xlink:href="../../df/d64/_memory_8cpp.html#a8fd0fd773b28e67bdee6e672e5491b53" target="_top" xlink:title="insert_allocator">
<polygon fill="white" stroke="black" points="149,-0.5 149,-19.5 232,-19.5 232,-0.5 149,-0.5"/>
<text text-anchor="middle" x="190.5" y="-7.5" font-family="Helvetica,sans-Serif" font-size="10.00">insert_allocator</text>
</a>
</g>
</g>
<!-- Node86&#45;&gt;Node88 -->
<g id="edge2" class="edge"><title>Node86&#45;&gt;Node88</title>
<path fill="none" stroke="midnightblue" d="M113.097,-20.9974C121.613,-19.7716 130.365,-18.5118 138.769,-17.3022"/>
<polygon fill="midnightblue" stroke="midnightblue" points="139.407,-20.7466 148.806,-15.8575 138.409,-13.818 139.407,-20.7466"/>
</g>
</g>
</svg>
