<?xml version="1.0" encoding="UTF-8" standalone="no"?>
<!DOCTYPE svg PUBLIC "-//W3C//DTD SVG 1.1//EN"
 "http://www.w3.org/Graphics/SVG/1.1/DTD/svg11.dtd">
<!-- Generated by graphviz version 2.38.0 (20140413.2041)
 -->
<!-- Title: wlp::alignment_of&lt; T &gt; Pages: 1 -->
<svg width="148pt" height="163pt"
 viewBox="0.00 0.00 148.00 163.00" xmlns="http://www.w3.org/2000/svg" xmlns:xlink="http://www.w3.org/1999/xlink">
<g id="graph0" class="graph" transform="scale(1 1) rotate(0) translate(4 159)">
<title>wlp::alignment_of&lt; T &gt;</title>
<polygon fill="white" stroke="none" points="-4,4 -4,-159 144,-159 144,4 -4,4"/>
<!-- Node2 -->
<g id="node1" class="node"><title>Node2</title>
<polygon fill="#bfbfbf" stroke="black" points="12.5,-0.5 12.5,-19.5 127.5,-19.5 127.5,-0.5 12.5,-0.5"/>
<text text-anchor="middle" x="70" y="-7.5" font-family="Helvetica,sans-Serif" font-size="10.00">wlp::alignment_of&lt; T &gt;</text>
</g>
<!-- Node3 -->
<g id="node2" class="node"><title>Node3</title>
<g id="a_node2"><a xlink:href="../../d3/d8d/structwlp_1_1integral__constant.html" target="_top" xlink:title="wlp::integral_constant\l\&lt; size_type, __alignof__(T)\&gt;">
<polygon fill="white" stroke="black" points="0,-57.5 0,-87.5 140,-87.5 140,-57.5 0,-57.5"/>
<text text-anchor="start" x="8" y="-75.5" font-family="Helvetica,sans-Serif" font-size="10.00">wlp::integral_constant</text>
<text text-anchor="middle" x="70" y="-64.5" font-family="Helvetica,sans-Serif" font-size="10.00">&lt; size_type, __alignof__(T)&gt;</text>
</a>
</g>
</g>
<!-- Node3&#45;&gt;Node2 -->
<g id="edge1" class="edge"><title>Node3&#45;&gt;Node2</title>
<path fill="none" stroke="midnightblue" d="M70,-47.3524C70,-37.5132 70,-26.7753 70,-19.5399"/>
<polygon fill="midnightblue" stroke="midnightblue" points="66.5001,-47.468 70,-57.468 73.5001,-47.4681 66.5001,-47.468"/>
</g>
<!-- Node4 -->
<g id="node3" class="node"><title>Node4</title>
<g id="a_node3"><a xlink:href="../../d8/db0/classstatic_01constexpr_01size__type.html" target="_top" xlink:title="static constexpr size_type">
<polygon fill="white" stroke="black" points="4.5,-135.5 4.5,-154.5 135.5,-154.5 135.5,-135.5 4.5,-135.5"/>
<text text-anchor="middle" x="70" y="-142.5" font-family="Helvetica,sans-Serif" font-size="10.00">static constexpr size_type</text>
</a>
</g>
</g>
<!-- Node4&#45;&gt;Node3 -->
<g id="edge2" class="edge"><title>Node4&#45;&gt;Node3</title>
<path fill="none" stroke="#9a32cd" stroke-dasharray="5,2" d="M70,-125.236C70,-113.408 70,-98.3829 70,-87.5762"/>
<polygon fill="#9a32cd" stroke="#9a32cd" points="66.5001,-125.355 70,-135.355 73.5001,-125.355 66.5001,-125.355"/>
<text text-anchor="middle" x="82.5" y="-109" font-family="Helvetica,sans-Serif" font-size="10.00"> value</text>
</g>
</g>
</svg>
