<?xml version="1.0" encoding="UTF-8" standalone="no"?>
<!DOCTYPE svg PUBLIC "-//W3C//DTD SVG 1.1//EN"
 "http://www.w3.org/Graphics/SVG/1.1/DTD/svg11.dtd">
<!-- Generated by graphviz version 2.36.0 (20140111.2315)
 -->
<!-- Title: wlp::Array2D&lt; Val, Size &gt; Pages: 1 -->
<svg width="126pt" height="118pt"
 viewBox="0.00 0.00 126.00 118.00" xmlns="http://www.w3.org/2000/svg" xmlns:xlink="http://www.w3.org/1999/xlink">
<g id="graph0" class="graph" transform="scale(1 1) rotate(0) translate(4 114)">
<title>wlp::Array2D&lt; Val, Size &gt;</title>
<polygon fill="white" stroke="none" points="-4,4 -4,-114 122,-114 122,4 -4,4"/>
<!-- Node1 -->
<g id="node1" class="node"><title>Node1</title>
<polygon fill="#bfbfbf" stroke="black" points="16,-1 16,-31 116,-31 116,-1 16,-1"/>
<text text-anchor="start" x="24" y="-19" font-family="Helvetica,sans-Serif" font-size="10.00">wlp::Array2D&lt; Val,</text>
<text text-anchor="middle" x="66" y="-8" font-family="Helvetica,sans-Serif" font-size="10.00"> Size &gt;</text>
</g>
<!-- Node2 -->
<g id="node2" class="node"><title>Node2</title>
<polygon fill="white" stroke="#bfbfbf" points="0,-90.5 0,-109.5 64,-109.5 64,-90.5 0,-90.5"/>
<text text-anchor="middle" x="32" y="-97.5" font-family="Helvetica,sans-Serif" font-size="10.00">val_type **</text>
</g>
<!-- Node2&#45;&gt;Node1 -->
<g id="edge1" class="edge"><title>Node2&#45;&gt;Node1</title>
<path fill="none" stroke="#9a32cd" stroke-dasharray="5,2" d="M38.2986,-80.5212C41.5749,-71.2711 45.7718,-59.9521 50,-50 52.6391,-43.7883 55.8358,-37.0629 58.676,-31.3142"/>
<polygon fill="#9a32cd" stroke="#9a32cd" points="34.9035,-79.6289 34.9287,-90.2237 41.516,-81.9256 34.9035,-79.6289"/>
<text text-anchor="middle" x="64" y="-58.5" font-family="Helvetica,sans-Serif" font-size="10.00"> m_arr</text>
</g>
<!-- Node3 -->
<g id="node3" class="node"><title>Node3</title>
<polygon fill="white" stroke="#bfbfbf" points="82,-90.5 82,-109.5 118,-109.5 118,-90.5 82,-90.5"/>
<text text-anchor="middle" x="100" y="-97.5" font-family="Helvetica,sans-Serif" font-size="10.00">Size</text>
</g>
<!-- Node3&#45;&gt;Node1 -->
<g id="edge2" class="edge"><title>Node3&#45;&gt;Node1</title>
<path fill="none" stroke="#9a32cd" stroke-dasharray="5,2" d="M92.5302,-80.9845C86.3201,-66.0073 77.6035,-44.985 71.8811,-31.1839"/>
<polygon fill="#9a32cd" stroke="#9a32cd" points="89.2981,-82.3277 96.3614,-90.2246 95.7643,-79.6466 89.2981,-82.3277"/>
<text text-anchor="middle" x="99" y="-64" font-family="Helvetica,sans-Serif" font-size="10.00"> m_x</text>
<text text-anchor="middle" x="99" y="-53" font-family="Helvetica,sans-Serif" font-size="10.00">m_y</text>
</g>
</g>
</svg>
