<?xml version="1.0" encoding="UTF-8" standalone="no"?>
<!DOCTYPE svg PUBLIC "-//W3C//DTD SVG 1.1//EN"
 "http://www.w3.org/Graphics/SVG/1.1/DTD/svg11.dtd">
<!-- Generated by graphviz version 2.36.0 (20140111.2315)
 -->
<!-- Title: comm/PacketConstructor.h Pages: 1 -->
<svg width="566pt" height="532pt"
 viewBox="0.00 0.00 566.00 532.00" xmlns="http://www.w3.org/2000/svg" xmlns:xlink="http://www.w3.org/1999/xlink">
<g id="graph0" class="graph" transform="scale(1 1) rotate(0) translate(4 528)">
<title>comm/PacketConstructor.h</title>
<polygon fill="white" stroke="none" points="-4,4 -4,-528 562,-528 562,4 -4,4"/>
<!-- Node1 -->
<g id="node1" class="node"><title>Node1</title>
<polygon fill="#bfbfbf" stroke="black" points="77.5,-504.5 77.5,-523.5 214.5,-523.5 214.5,-504.5 77.5,-504.5"/>
<text text-anchor="middle" x="146" y="-511.5" font-family="Helvetica,sans-Serif" font-size="10.00">comm/PacketConstructor.h</text>
</g>
<!-- Node2 -->
<g id="node2" class="node"><title>Node2</title>
<g id="a_node2"><a xlink:href="../../d0/db6/_types_8h.html" target="_top" xlink:title="type definition of all the string types we will be using ">
<polygon fill="white" stroke="black" points="243.5,-56.5 243.5,-75.5 304.5,-75.5 304.5,-56.5 243.5,-56.5"/>
<text text-anchor="middle" x="274" y="-63.5" font-family="Helvetica,sans-Serif" font-size="10.00">../Types.h</text>
</a>
</g>
</g>
<!-- Node1&#45;&gt;Node2 -->
<g id="edge1" class="edge"><title>Node1&#45;&gt;Node2</title>
<path fill="none" stroke="midnightblue" d="M113.96,-504.435C70.9822,-490.779 0,-459.649 0,-403 0,-403 0,-403 0,-177 0,-140.28 19.7399,-131.265 51,-112 107.579,-77.1309 186.128,-68.6589 233.319,-66.9473"/>
<polygon fill="midnightblue" stroke="midnightblue" points="233.565,-70.4419 243.465,-66.6665 233.372,-63.4446 233.565,-70.4419"/>
</g>
<!-- Node4 -->
<g id="node4" class="node"><title>Node4</title>
<g id="a_node4"><a xlink:href="../../de/d6d/_bitset_8h.html" target="_top" xlink:title="Bitset is a class that provides bits manipulation methods. ">
<polygon fill="white" stroke="black" points="256.5,-448.5 256.5,-467.5 329.5,-467.5 329.5,-448.5 256.5,-448.5"/>
<text text-anchor="middle" x="293" y="-455.5" font-family="Helvetica,sans-Serif" font-size="10.00">../stl/Bitset.h</text>
</a>
</g>
</g>
<!-- Node1&#45;&gt;Node4 -->
<g id="edge3" class="edge"><title>Node1&#45;&gt;Node4</title>
<path fill="none" stroke="midnightblue" d="M169.293,-504.444C193.807,-495.438 232.596,-481.189 260.2,-471.049"/>
<polygon fill="midnightblue" stroke="midnightblue" points="261.637,-474.25 269.816,-467.516 259.223,-467.679 261.637,-474.25"/>
</g>
<!-- Node3 -->
<g id="node3" class="node"><title>Node3</title>
<polygon fill="white" stroke="#bfbfbf" points="249.5,-0.5 249.5,-19.5 298.5,-19.5 298.5,-0.5 249.5,-0.5"/>
<text text-anchor="middle" x="274" y="-7.5" font-family="Helvetica,sans-Serif" font-size="10.00">stdint.h</text>
</g>
<!-- Node2&#45;&gt;Node3 -->
<g id="edge2" class="edge"><title>Node2&#45;&gt;Node3</title>
<path fill="none" stroke="midnightblue" d="M274,-56.083C274,-49.0059 274,-38.8611 274,-29.9865"/>
<polygon fill="midnightblue" stroke="midnightblue" points="277.5,-29.751 274,-19.7511 270.5,-29.7511 277.5,-29.751"/>
</g>
<!-- Node4&#45;&gt;Node2 -->
<g id="edge6" class="edge"><title>Node4&#45;&gt;Node2</title>
<path fill="none" stroke="midnightblue" d="M329.569,-457.797C402.265,-457.278 558,-444.758 558,-347 558,-347 558,-347 558,-177 558,-125.448 393.227,-88.61 314.696,-73.9802"/>
<polygon fill="midnightblue" stroke="midnightblue" points="315.129,-70.5015 304.663,-72.1447 313.87,-77.3872 315.129,-70.5015"/>
</g>
<!-- Node5 -->
<g id="node5" class="node"><title>Node5</title>
<polygon fill="white" stroke="#bfbfbf" points="68.5,-392.5 68.5,-411.5 115.5,-411.5 115.5,-392.5 68.5,-392.5"/>
<text text-anchor="middle" x="92" y="-399.5" font-family="Helvetica,sans-Serif" font-size="10.00">math.h</text>
</g>
<!-- Node4&#45;&gt;Node5 -->
<g id="edge4" class="edge"><title>Node4&#45;&gt;Node5</title>
<path fill="none" stroke="midnightblue" d="M260.25,-448.424C228.173,-439.993 177.655,-426.63 125.507,-412.389"/>
<polygon fill="midnightblue" stroke="midnightblue" points="126.325,-408.984 115.755,-409.721 124.477,-415.736 126.325,-408.984"/>
</g>
<!-- Node6 -->
<g id="node6" class="node"><title>Node6</title>
<polygon fill="white" stroke="#bfbfbf" points="205.5,-336.5 205.5,-355.5 254.5,-355.5 254.5,-336.5 205.5,-336.5"/>
<text text-anchor="middle" x="230" y="-343.5" font-family="Helvetica,sans-Serif" font-size="10.00">string.h</text>
</g>
<!-- Node4&#45;&gt;Node6 -->
<g id="edge5" class="edge"><title>Node4&#45;&gt;Node6</title>
<path fill="none" stroke="midnightblue" d="M291.679,-448.492C289.395,-435.568 283.874,-410.534 273,-392 266.536,-380.982 256.872,-370.544 248.342,-362.499"/>
<polygon fill="midnightblue" stroke="midnightblue" points="250.427,-359.667 240.653,-355.579 245.745,-364.87 250.427,-359.667"/>
</g>
<!-- Node7 -->
<g id="node7" class="node"><title>Node7</title>
<g id="a_node7"><a xlink:href="../../d2/db4/_wlib_8h.html" target="_top" xlink:title="../Wlib.h">
<polygon fill="white" stroke="black" points="414.5,-224.5 414.5,-243.5 467.5,-243.5 467.5,-224.5 414.5,-224.5"/>
<text text-anchor="middle" x="441" y="-231.5" font-family="Helvetica,sans-Serif" font-size="10.00">../Wlib.h</text>
</a>
</g>
</g>
<!-- Node4&#45;&gt;Node7 -->
<g id="edge7" class="edge"><title>Node4&#45;&gt;Node7</title>
<path fill="none" stroke="midnightblue" d="M329.785,-455.988C364.584,-453.039 415.974,-443.213 447,-412 489.234,-369.512 463.703,-289.166 449.094,-253.203"/>
<polygon fill="midnightblue" stroke="midnightblue" points="452.129,-251.395 444.999,-243.558 445.686,-254.131 452.129,-251.395"/>
</g>
<!-- Node8 -->
<g id="node8" class="node"><title>Node8</title>
<g id="a_node8"><a xlink:href="../../d8/d65/_static_string_8h.html" target="_top" xlink:title="StaticString provides a String that is on stack and is of fixed size. ">
<polygon fill="white" stroke="black" points="321.5,-392.5 321.5,-411.5 438.5,-411.5 438.5,-392.5 321.5,-392.5"/>
<text text-anchor="middle" x="380" y="-399.5" font-family="Helvetica,sans-Serif" font-size="10.00">../strings/StaticString.h</text>
</a>
</g>
</g>
<!-- Node4&#45;&gt;Node8 -->
<g id="edge8" class="edge"><title>Node4&#45;&gt;Node8</title>
<path fill="none" stroke="midnightblue" d="M306.978,-448.324C320.55,-439.9 341.38,-426.971 357.325,-417.074"/>
<polygon fill="midnightblue" stroke="midnightblue" points="359.406,-419.902 366.057,-411.655 355.714,-413.954 359.406,-419.902"/>
</g>
<!-- Node16 -->
<g id="node16" class="node"><title>Node16</title>
<g id="a_node16"><a xlink:href="../../d6/d60/_dynamic_string_8h.html" target="_top" xlink:title="DynamicString is a class that provides dynamic strings and functions for dynamic strings. ">
<polygon fill="white" stroke="black" points="133.5,-392.5 133.5,-411.5 264.5,-411.5 264.5,-392.5 133.5,-392.5"/>
<text text-anchor="middle" x="199" y="-399.5" font-family="Helvetica,sans-Serif" font-size="10.00">../strings/DynamicString.h</text>
</a>
</g>
</g>
<!-- Node4&#45;&gt;Node16 -->
<g id="edge23" class="edge"><title>Node4&#45;&gt;Node16</title>
<path fill="none" stroke="midnightblue" d="M277.897,-448.324C263.097,-439.822 240.306,-426.729 223.018,-416.797"/>
<polygon fill="midnightblue" stroke="midnightblue" points="224.48,-413.601 214.065,-411.655 220.993,-419.671 224.48,-413.601"/>
</g>
<!-- Node8&#45;&gt;Node2 -->
<g id="edge21" class="edge"><title>Node8&#45;&gt;Node2</title>
<path fill="none" stroke="midnightblue" d="M410.199,-392.476C428.529,-385.669 450.693,-374.193 463,-356 496.031,-307.173 494.481,-279.979 476,-224 456.576,-165.167 442.424,-149.361 393,-112 369.771,-94.4405 338.907,-83.0323 314.433,-76.0967"/>
<polygon fill="midnightblue" stroke="midnightblue" points="315.283,-72.7012 304.717,-73.4803 313.463,-79.4604 315.283,-72.7012"/>
</g>
<!-- Node8&#45;&gt;Node6 -->
<g id="edge9" class="edge"><title>Node8&#45;&gt;Node6</title>
<path fill="none" stroke="midnightblue" d="M356.232,-392.444C331.107,-383.399 291.289,-369.064 263.1,-358.916"/>
<polygon fill="midnightblue" stroke="midnightblue" points="264.251,-355.611 253.657,-355.516 261.88,-362.197 264.251,-355.611"/>
</g>
<!-- Node9 -->
<g id="node9" class="node"><title>Node9</title>
<g id="a_node9"><a xlink:href="../../de/d0b/_string_iterator_8h.html" target="_top" xlink:title="StringIterator.h">
<polygon fill="white" stroke="black" points="272.5,-336.5 272.5,-355.5 353.5,-355.5 353.5,-336.5 272.5,-336.5"/>
<text text-anchor="middle" x="313" y="-343.5" font-family="Helvetica,sans-Serif" font-size="10.00">StringIterator.h</text>
</a>
</g>
</g>
<!-- Node8&#45;&gt;Node9 -->
<g id="edge10" class="edge"><title>Node8&#45;&gt;Node9</title>
<path fill="none" stroke="midnightblue" d="M369.235,-392.324C359.234,-384.263 344.113,-372.077 332.07,-362.369"/>
<polygon fill="midnightblue" stroke="midnightblue" points="333.943,-359.384 323.961,-355.834 329.55,-364.834 333.943,-359.384"/>
</g>
<!-- Node15 -->
<g id="node15" class="node"><title>Node15</title>
<g id="a_node15"><a xlink:href="../../da/db8/_math_8h.html" target="_top" xlink:title="../utility/Math.h">
<polygon fill="white" stroke="black" points="372,-336.5 372,-355.5 454,-355.5 454,-336.5 372,-336.5"/>
<text text-anchor="middle" x="413" y="-343.5" font-family="Helvetica,sans-Serif" font-size="10.00">../utility/Math.h</text>
</a>
</g>
</g>
<!-- Node8&#45;&gt;Node15 -->
<g id="edge22" class="edge"><title>Node8&#45;&gt;Node15</title>
<path fill="none" stroke="midnightblue" d="M385.449,-392.083C390.014,-384.613 396.668,-373.724 402.293,-364.52"/>
<polygon fill="midnightblue" stroke="midnightblue" points="405.424,-366.109 407.652,-355.751 399.451,-362.459 405.424,-366.109"/>
</g>
<!-- Node9&#45;&gt;Node2 -->
<g id="edge11" class="edge"><title>Node9&#45;&gt;Node2</title>
<path fill="none" stroke="midnightblue" d="M324.899,-336.418C335.851,-328.065 352.015,-314.534 363,-300 379.719,-277.88 411.726,-215.009 418,-188 420.011,-179.342 422.101,-175.886 418,-168 394.819,-123.426 341.953,-94.4279 307.135,-79.3965"/>
<polygon fill="midnightblue" stroke="midnightblue" points="308.41,-76.1361 297.833,-75.5258 305.721,-82.599 308.41,-76.1361"/>
</g>
<!-- Node10 -->
<g id="node10" class="node"><title>Node10</title>
<g id="a_node10"><a xlink:href="../../d8/dd7/_concept_8h.html" target="_top" xlink:title="Concept definitions. ">
<polygon fill="white" stroke="black" points="271,-280.5 271,-299.5 355,-299.5 355,-280.5 271,-280.5"/>
<text text-anchor="middle" x="313" y="-287.5" font-family="Helvetica,sans-Serif" font-size="10.00">../stl/Concept.h</text>
</a>
</g>
</g>
<!-- Node9&#45;&gt;Node10 -->
<g id="edge12" class="edge"><title>Node9&#45;&gt;Node10</title>
<path fill="none" stroke="midnightblue" d="M313,-336.083C313,-329.006 313,-318.861 313,-309.986"/>
<polygon fill="midnightblue" stroke="midnightblue" points="316.5,-309.751 313,-299.751 309.5,-309.751 316.5,-309.751"/>
</g>
<!-- Node10&#45;&gt;Node7 -->
<g id="edge19" class="edge"><title>Node10&#45;&gt;Node7</title>
<path fill="none" stroke="midnightblue" d="M333.282,-280.444C354.347,-271.557 387.517,-257.563 411.486,-247.451"/>
<polygon fill="midnightblue" stroke="midnightblue" points="412.96,-250.628 420.813,-243.516 410.239,-244.179 412.96,-250.628"/>
</g>
<!-- Node11 -->
<g id="node11" class="node"><title>Node11</title>
<g id="a_node11"><a xlink:href="../../d4/dda/_pair_8h.html" target="_top" xlink:title="Implementation of a 2&#45;element tuple. ">
<polygon fill="white" stroke="black" points="240,-224.5 240,-243.5 282,-243.5 282,-224.5 240,-224.5"/>
<text text-anchor="middle" x="261" y="-231.5" font-family="Helvetica,sans-Serif" font-size="10.00">Pair.h</text>
</a>
</g>
</g>
<!-- Node10&#45;&gt;Node11 -->
<g id="edge13" class="edge"><title>Node10&#45;&gt;Node11</title>
<path fill="none" stroke="midnightblue" d="M304.413,-280.083C296.841,-272.22 285.622,-260.569 276.486,-251.081"/>
<polygon fill="midnightblue" stroke="midnightblue" points="278.885,-248.527 269.427,-243.751 273.842,-253.382 278.885,-248.527"/>
</g>
<!-- Node13 -->
<g id="node13" class="node"><title>Node13</title>
<g id="a_node13"><a xlink:href="../../d2/d37/_tmp_8h.html" target="_top" xlink:title="Template helper types, structs, and metafunctions. ">
<polygon fill="white" stroke="black" points="252,-112.5 252,-131.5 296,-131.5 296,-112.5 252,-112.5"/>
<text text-anchor="middle" x="274" y="-119.5" font-family="Helvetica,sans-Serif" font-size="10.00">Tmp.h</text>
</a>
</g>
</g>
<!-- Node10&#45;&gt;Node13 -->
<g id="edge20" class="edge"><title>Node10&#45;&gt;Node13</title>
<path fill="none" stroke="midnightblue" d="M311.978,-280.371C309.49,-260.363 302.469,-209.355 291,-168 288.517,-159.047 284.982,-149.377 281.777,-141.304"/>
<polygon fill="midnightblue" stroke="midnightblue" points="284.912,-139.724 277.872,-131.806 278.438,-142.386 284.912,-139.724"/>
</g>
<!-- Node14 -->
<g id="node14" class="node"><title>Node14</title>
<g id="a_node14"><a xlink:href="../../d4/dd5/_type_traits_8h.html" target="_top" xlink:title="Metafunctions for types. ">
<polygon fill="white" stroke="black" points="338.5,-168.5 338.5,-187.5 409.5,-187.5 409.5,-168.5 338.5,-168.5"/>
<text text-anchor="middle" x="374" y="-175.5" font-family="Helvetica,sans-Serif" font-size="10.00">TypeTraits.h</text>
</a>
</g>
</g>
<!-- Node10&#45;&gt;Node14 -->
<g id="edge17" class="edge"><title>Node10&#45;&gt;Node14</title>
<path fill="none" stroke="midnightblue" d="M317.787,-280.368C327.764,-262.376 350.958,-220.55 364.225,-196.627"/>
<polygon fill="midnightblue" stroke="midnightblue" points="367.447,-198.034 369.236,-187.591 361.325,-194.639 367.447,-198.034"/>
</g>
<!-- Node12 -->
<g id="node12" class="node"><title>Node12</title>
<g id="a_node12"><a xlink:href="../../db/d2a/_utility_8h.html" target="_top" xlink:title="Various helper functions. ">
<polygon fill="white" stroke="black" points="196,-168.5 196,-187.5 282,-187.5 282,-168.5 196,-168.5"/>
<text text-anchor="middle" x="239" y="-175.5" font-family="Helvetica,sans-Serif" font-size="10.00">../utility/Utility.h</text>
</a>
</g>
</g>
<!-- Node11&#45;&gt;Node12 -->
<g id="edge14" class="edge"><title>Node11&#45;&gt;Node12</title>
<path fill="none" stroke="midnightblue" d="M257.367,-224.083C254.388,-216.77 250.074,-206.181 246.375,-197.103"/>
<polygon fill="midnightblue" stroke="midnightblue" points="249.58,-195.691 242.565,-187.751 243.097,-198.333 249.58,-195.691"/>
</g>
<!-- Node12&#45;&gt;Node13 -->
<g id="edge15" class="edge"><title>Node12&#45;&gt;Node13</title>
<path fill="none" stroke="midnightblue" d="M244.78,-168.083C249.672,-160.534 256.827,-149.495 262.833,-140.23"/>
<polygon fill="midnightblue" stroke="midnightblue" points="265.826,-142.046 268.328,-131.751 259.952,-138.239 265.826,-142.046"/>
</g>
<!-- Node13&#45;&gt;Node2 -->
<g id="edge16" class="edge"><title>Node13&#45;&gt;Node2</title>
<path fill="none" stroke="midnightblue" d="M274,-112.083C274,-105.006 274,-94.8611 274,-85.9865"/>
<polygon fill="midnightblue" stroke="midnightblue" points="277.5,-85.751 274,-75.7511 270.5,-85.7511 277.5,-85.751"/>
</g>
<!-- Node14&#45;&gt;Node13 -->
<g id="edge18" class="edge"><title>Node14&#45;&gt;Node13</title>
<path fill="none" stroke="midnightblue" d="M357.933,-168.324C342.042,-159.743 317.493,-146.486 299.042,-136.522"/>
<polygon fill="midnightblue" stroke="midnightblue" points="300.489,-133.326 290.027,-131.655 297.163,-139.486 300.489,-133.326"/>
</g>
<!-- Node16&#45;&gt;Node2 -->
<g id="edge31" class="edge"><title>Node16&#45;&gt;Node2</title>
<path fill="none" stroke="midnightblue" d="M159.615,-392.39C111.951,-379.381 38,-349.734 38,-291 38,-291 38,-291 38,-177 38,-92.0407 165.202,-72.5398 232.833,-68.1758"/>
<polygon fill="midnightblue" stroke="midnightblue" points="233.359,-71.6519 243.147,-67.5976 232.967,-64.6629 233.359,-71.6519"/>
</g>
<!-- Node16&#45;&gt;Node6 -->
<g id="edge24" class="edge"><title>Node16&#45;&gt;Node6</title>
<path fill="none" stroke="midnightblue" d="M204.119,-392.083C208.408,-384.613 214.658,-373.724 219.942,-364.52"/>
<polygon fill="midnightblue" stroke="midnightblue" points="223.033,-366.166 224.976,-355.751 216.962,-362.681 223.033,-366.166"/>
</g>
<!-- Node16&#45;&gt;Node9 -->
<g id="edge25" class="edge"><title>Node16&#45;&gt;Node9</title>
<path fill="none" stroke="midnightblue" d="M217.064,-392.444C235.575,-383.675 264.581,-369.935 285.855,-359.858"/>
<polygon fill="midnightblue" stroke="midnightblue" points="287.482,-362.96 295.021,-355.516 284.485,-356.634 287.482,-362.96"/>
</g>
<!-- Node17 -->
<g id="node17" class="node"><title>Node17</title>
<g id="a_node17"><a xlink:href="../../d3/de6/_memory_8h.html" target="_top" xlink:title="Memory is a class that provides dynamic fixed size memory. ">
<polygon fill="white" stroke="black" points="114.5,-224.5 114.5,-243.5 221.5,-243.5 221.5,-224.5 114.5,-224.5"/>
<text text-anchor="middle" x="168" y="-231.5" font-family="Helvetica,sans-Serif" font-size="10.00">../memory/Memory.h</text>
</a>
</g>
</g>
<!-- Node16&#45;&gt;Node17 -->
<g id="edge26" class="edge"><title>Node16&#45;&gt;Node17</title>
<path fill="none" stroke="midnightblue" d="M197.333,-392.075C192.454,-365.945 178.124,-289.211 171.469,-253.577"/>
<polygon fill="midnightblue" stroke="midnightblue" points="174.876,-252.756 169.6,-243.568 167.995,-254.041 174.876,-252.756"/>
</g>
<!-- Node17&#45;&gt;Node2 -->
<g id="edge28" class="edge"><title>Node17&#45;&gt;Node2</title>
<path fill="none" stroke="midnightblue" d="M166.81,-224.109C165.474,-211.125 164.487,-186.509 173,-168 190.35,-130.278 228.211,-98.6939 252.33,-81.3558"/>
<polygon fill="midnightblue" stroke="midnightblue" points="254.337,-84.2233 260.531,-75.6276 250.328,-78.4846 254.337,-84.2233"/>
</g>
<!-- Node17&#45;&gt;Node12 -->
<g id="edge27" class="edge"><title>Node17&#45;&gt;Node12</title>
<path fill="none" stroke="midnightblue" d="M179.407,-224.324C190.109,-216.185 206.341,-203.839 219.163,-194.087"/>
<polygon fill="midnightblue" stroke="midnightblue" points="221.544,-196.673 227.385,-187.834 217.307,-191.102 221.544,-196.673"/>
</g>
<!-- Node17&#45;&gt;Node13 -->
<g id="edge29" class="edge"><title>Node17&#45;&gt;Node13</title>
<path fill="none" stroke="midnightblue" d="M168.4,-224.43C169.449,-210.972 173.248,-184.699 187,-168 201.203,-150.753 223.743,-139.356 242.322,-132.348"/>
<polygon fill="midnightblue" stroke="midnightblue" points="243.611,-135.604 251.884,-128.985 241.289,-129.001 243.611,-135.604"/>
</g>
<!-- Node18 -->
<g id="node18" class="node"><title>Node18</title>
<polygon fill="white" stroke="#bfbfbf" points="66.5,-168.5 66.5,-187.5 101.5,-187.5 101.5,-168.5 66.5,-168.5"/>
<text text-anchor="middle" x="84" y="-175.5" font-family="Helvetica,sans-Serif" font-size="10.00">new</text>
</g>
<!-- Node17&#45;&gt;Node18 -->
<g id="edge30" class="edge"><title>Node17&#45;&gt;Node18</title>
<path fill="none" stroke="midnightblue" d="M154.504,-224.324C141.4,-215.9 121.288,-202.971 105.893,-193.074"/>
<polygon fill="midnightblue" stroke="midnightblue" points="107.767,-190.118 97.4626,-187.655 103.982,-196.006 107.767,-190.118"/>
</g>
</g>
</svg>
