<?xml version="1.0" encoding="UTF-8" standalone="no"?>
<!DOCTYPE svg PUBLIC "-//W3C//DTD SVG 1.1//EN"
 "http://www.w3.org/Graphics/SVG/1.1/DTD/svg11.dtd">
<!-- Generated by graphviz version 2.36.0 (20140111.2315)
 -->
<!-- Title: comm/PacketConstructor.h Pages: 1 -->
<svg width="271pt" height="196pt"
 viewBox="0.00 0.00 271.00 196.00" xmlns="http://www.w3.org/2000/svg" xmlns:xlink="http://www.w3.org/1999/xlink">
<g id="graph0" class="graph" transform="scale(1 1) rotate(0) translate(4 192)">
<title>comm/PacketConstructor.h</title>
<polygon fill="white" stroke="none" points="-4,4 -4,-192 267,-192 267,4 -4,4"/>
<!-- Node1 -->
<g id="node1" class="node"><title>Node1</title>
<polygon fill="#bfbfbf" stroke="black" points="0.5,-168.5 0.5,-187.5 137.5,-187.5 137.5,-168.5 0.5,-168.5"/>
<text text-anchor="middle" x="69" y="-175.5" font-family="Helvetica,sans-Serif" font-size="10.00">comm/PacketConstructor.h</text>
</g>
<!-- Node2 -->
<g id="node2" class="node"><title>Node2</title>
<g id="a_node2"><a xlink:href="../../d0/db6/_types_8h.html" target="_top" xlink:title="type definition of all the string types we will be using ">
<polygon fill="white" stroke="black" points="-0.5,-56.5 -0.5,-75.5 60.5,-75.5 60.5,-56.5 -0.5,-56.5"/>
<text text-anchor="middle" x="30" y="-63.5" font-family="Helvetica,sans-Serif" font-size="10.00">../Types.h</text>
</a>
</g>
</g>
<!-- Node1&#45;&gt;Node2 -->
<g id="edge1" class="edge"><title>Node1&#45;&gt;Node2</title>
<path fill="none" stroke="midnightblue" d="M65.9397,-168.368C59.6175,-150.537 44.9956,-109.295 36.4782,-85.2717"/>
<polygon fill="midnightblue" stroke="midnightblue" points="39.6866,-83.847 33.046,-75.5914 33.089,-86.1862 39.6866,-83.847"/>
</g>
<!-- Node4 -->
<g id="node4" class="node"><title>Node4</title>
<g id="a_node4"><a xlink:href="../../de/d6d/_bitset_8h.html" target="_top" xlink:title="Bitset is a class that provides bits manipulation methods. ">
<polygon fill="white" stroke="black" points="65.5,-112.5 65.5,-131.5 138.5,-131.5 138.5,-112.5 65.5,-112.5"/>
<text text-anchor="middle" x="102" y="-119.5" font-family="Helvetica,sans-Serif" font-size="10.00">../stl/Bitset.h</text>
</a>
</g>
</g>
<!-- Node1&#45;&gt;Node4 -->
<g id="edge3" class="edge"><title>Node1&#45;&gt;Node4</title>
<path fill="none" stroke="midnightblue" d="M74.4493,-168.083C79.0145,-160.613 85.6684,-149.724 91.2934,-140.52"/>
<polygon fill="midnightblue" stroke="midnightblue" points="94.4241,-142.109 96.6521,-131.751 88.4511,-138.459 94.4241,-142.109"/>
</g>
<!-- Node3 -->
<g id="node3" class="node"><title>Node3</title>
<polygon fill="white" stroke="#bfbfbf" points="5.5,-0.5 5.5,-19.5 54.5,-19.5 54.5,-0.5 5.5,-0.5"/>
<text text-anchor="middle" x="30" y="-7.5" font-family="Helvetica,sans-Serif" font-size="10.00">stdint.h</text>
</g>
<!-- Node2&#45;&gt;Node3 -->
<g id="edge2" class="edge"><title>Node2&#45;&gt;Node3</title>
<path fill="none" stroke="midnightblue" d="M30,-56.083C30,-49.0059 30,-38.8611 30,-29.9865"/>
<polygon fill="midnightblue" stroke="midnightblue" points="33.5001,-29.751 30,-19.7511 26.5001,-29.7511 33.5001,-29.751"/>
</g>
<!-- Node4&#45;&gt;Node2 -->
<g id="edge6" class="edge"><title>Node4&#45;&gt;Node2</title>
<path fill="none" stroke="midnightblue" d="M90.432,-112.324C79.5798,-104.185 63.1193,-91.8395 50.1166,-82.0874"/>
<polygon fill="midnightblue" stroke="midnightblue" points="51.8786,-79.0339 41.7785,-75.8339 47.6785,-84.6339 51.8786,-79.0339"/>
</g>
<!-- Node5 -->
<g id="node5" class="node"><title>Node5</title>
<polygon fill="white" stroke="#bfbfbf" points="78.5,-56.5 78.5,-75.5 125.5,-75.5 125.5,-56.5 78.5,-56.5"/>
<text text-anchor="middle" x="102" y="-63.5" font-family="Helvetica,sans-Serif" font-size="10.00">math.h</text>
</g>
<!-- Node4&#45;&gt;Node5 -->
<g id="edge4" class="edge"><title>Node4&#45;&gt;Node5</title>
<path fill="none" stroke="midnightblue" d="M102,-112.083C102,-105.006 102,-94.8611 102,-85.9865"/>
<polygon fill="midnightblue" stroke="midnightblue" points="105.5,-85.751 102,-75.7511 98.5001,-85.7511 105.5,-85.751"/>
</g>
<!-- Node6 -->
<g id="node6" class="node"><title>Node6</title>
<polygon fill="white" stroke="#bfbfbf" points="143.5,-56.5 143.5,-75.5 192.5,-75.5 192.5,-56.5 143.5,-56.5"/>
<text text-anchor="middle" x="168" y="-63.5" font-family="Helvetica,sans-Serif" font-size="10.00">string.h</text>
</g>
<!-- Node4&#45;&gt;Node6 -->
<g id="edge5" class="edge"><title>Node4&#45;&gt;Node6</title>
<path fill="none" stroke="midnightblue" d="M112.604,-112.324C122.456,-104.263 137.351,-92.0765 149.215,-82.3695"/>
<polygon fill="midnightblue" stroke="midnightblue" points="151.68,-84.8752 157.203,-75.8339 147.247,-79.4575 151.68,-84.8752"/>
</g>
<!-- Node7 -->
<g id="node7" class="node"><title>Node7</title>
<g id="a_node7"><a xlink:href="../../d2/db4/_wlib_8h.html" target="_top" xlink:title="../Wlib.h">
<polygon fill="white" stroke="black" points="210.5,-56.5 210.5,-75.5 263.5,-75.5 263.5,-56.5 210.5,-56.5"/>
<text text-anchor="middle" x="237" y="-63.5" font-family="Helvetica,sans-Serif" font-size="10.00">../Wlib.h</text>
</a>
</g>
</g>
<!-- Node4&#45;&gt;Node7 -->
<g id="edge7" class="edge"><title>Node4&#45;&gt;Node7</title>
<path fill="none" stroke="midnightblue" d="M123.391,-112.444C145.707,-103.517 180.903,-89.4387 206.208,-79.3168"/>
<polygon fill="midnightblue" stroke="midnightblue" points="207.724,-82.4801 215.709,-75.5164 205.124,-75.9807 207.724,-82.4801"/>
</g>
</g>
</svg>
