<?xml version="1.0" encoding="UTF-8" standalone="no"?>
<!DOCTYPE svg PUBLIC "-//W3C//DTD SVG 1.1//EN"
 "http://www.w3.org/Graphics/SVG/1.1/DTD/svg11.dtd">
<!-- Generated by graphviz version 2.36.0 (20140111.2315)
 -->
<!-- Title: comm/PacketConstructor.h Pages: 1 -->
<!--zoomable 532 -->
<svg id="main" version="1.1" xmlns="http://www.w3.org/2000/svg" xmlns:xlink="http://www.w3.org/1999/xlink" xml:space="preserve" onload="init(evt)">
<style type="text/css"><![CDATA[
.edge:hover path { stroke: red; }
.edge:hover polygon { stroke: red; fill: red; }
]]></style>
<script type="text/javascript"><![CDATA[
var edges = document.getElementsByTagName('g');
if (edges && edges.length) {
  for (var i=0;i<edges.length;i++) {
    if (edges[i].id.substr(0,4)=='edge') {
      edges[i].setAttribute('class','edge');
    }
  }
}
]]></script>
        <defs>
                <circle id="rim" cx="0" cy="0" r="7"/>
                <circle id="rim2" cx="0" cy="0" r="3.5"/>
                <g id="zoomPlus">
                        <use xlink:href="#rim" fill="#404040">
                                <set attributeName="fill" to="#808080" begin="zoomplus.mouseover" end="zoomplus.mouseout"/>
                        </use>
                        <path d="M-4,0h8M0,-4v8" fill="none" stroke="white" stroke-width="1.5" pointer-events="none"/>
                </g>
                <g id="zoomMin">
                        <use xlink:href="#rim" fill="#404040">
                                <set attributeName="fill" to="#808080" begin="zoomminus.mouseover" end="zoomminus.mouseout"/>
                        </use>
                        <path d="M-4,0h8" fill="none" stroke="white" stroke-width="1.5" pointer-events="none"/>
                </g>
                <g id="dirArrow">
                        <path fill="none" stroke="white" stroke-width="1.5" d="M0,-3.0v7 M-2.5,-0.5L0,-3.0L2.5,-0.5"/>
                </g>
               <g id="resetDef">
                       <use xlink:href="#rim2" fill="#404040">
                               <set attributeName="fill" to="#808080" begin="reset.mouseover" end="reset.mouseout"/>
                       </use>
               </g>
        </defs>

<script type="text/javascript">
var viewWidth = 525;
var viewHeight = 532;
var sectionId = 'dynsection-0';
</script>
<script xlink:href="../../svgpan.js"/>
<svg id="graph" class="graph">
<g id="viewport">
<title>comm/PacketConstructor.h</title>
<polygon fill="white" stroke="none" points="-4,4 -4,-528 520.759,-528 520.759,4 -4,4"/>
<!-- Node1 -->
<g id="node1" class="node"><title>Node1</title>
<polygon fill="#bfbfbf" stroke="black" points="3.5,-504.5 3.5,-523.5 140.5,-523.5 140.5,-504.5 3.5,-504.5"/>
<text text-anchor="middle" x="72" y="-511.5" font-family="Helvetica,sans-Serif" font-size="10.00">comm/PacketConstructor.h</text>
</g>
<!-- Node2 -->
<g id="node2" class="node"><title>Node2</title>
<g id="a_node2"><a xlink:href="../../d0/db6/_types_8h.html" target="_top" xlink:title="type definition of all the string types we will be using ">
<polygon fill="white" stroke="black" points="118.5,-56.5 118.5,-75.5 179.5,-75.5 179.5,-56.5 118.5,-56.5"/>
<text text-anchor="middle" x="149" y="-63.5" font-family="Helvetica,sans-Serif" font-size="10.00">../Types.h</text>
</a>
</g>
</g>
<!-- Node1&#45;&gt;Node2 -->
<g id="edge1" class="edge"><title>Node1&#45;&gt;Node2</title>
<path fill="none" stroke="midnightblue" d="M61.0647,-504.297C40.923,-487.203 0,-447.051 0,-403 0,-403 0,-403 0,-177 0,-122.744 64.7342,-92.2219 108.866,-77.7176"/>
<polygon fill="midnightblue" stroke="midnightblue" points="109.995,-81.0317 118.488,-74.6983 107.899,-74.3528 109.995,-81.0317"/>
</g>
<!-- Node4 -->
<g id="node4" class="node"><title>Node4</title>
<g id="a_node4"><a xlink:href="../../de/d6d/_bitset_8h.html" target="_top" xlink:title="Bitset is a class that provides bits manipulation methods. ">
<polygon fill="white" stroke="black" points="108.5,-448.5 108.5,-467.5 181.5,-467.5 181.5,-448.5 108.5,-448.5"/>
<text text-anchor="middle" x="145" y="-455.5" font-family="Helvetica,sans-Serif" font-size="10.00">../stl/Bitset.h</text>
</a>
</g>
</g>
<!-- Node1&#45;&gt;Node4 -->
<g id="edge3" class="edge"><title>Node1&#45;&gt;Node4</title>
<path fill="none" stroke="midnightblue" d="M83.7287,-504.324C94.8374,-496.107 111.742,-483.602 124.983,-473.807"/>
<polygon fill="midnightblue" stroke="midnightblue" points="127.1,-476.595 133.058,-467.834 122.937,-470.967 127.1,-476.595"/>
</g>
<!-- Node3 -->
<g id="node3" class="node"><title>Node3</title>
<polygon fill="white" stroke="#bfbfbf" points="124.5,-0.5 124.5,-19.5 173.5,-19.5 173.5,-0.5 124.5,-0.5"/>
<text text-anchor="middle" x="149" y="-7.5" font-family="Helvetica,sans-Serif" font-size="10.00">stdint.h</text>
</g>
<!-- Node2&#45;&gt;Node3 -->
<g id="edge2" class="edge"><title>Node2&#45;&gt;Node3</title>
<path fill="none" stroke="midnightblue" d="M149,-56.083C149,-49.0059 149,-38.8611 149,-29.9865"/>
<polygon fill="midnightblue" stroke="midnightblue" points="152.5,-29.751 149,-19.7511 145.5,-29.7511 152.5,-29.751"/>
</g>
<!-- Node4&#45;&gt;Node2 -->
<g id="edge6" class="edge"><title>Node4&#45;&gt;Node2</title>
<path fill="none" stroke="midnightblue" d="M126.362,-448.441C95.7058,-432.932 38,-397.087 38,-347 38,-347 38,-347 38,-177 38,-130.824 87.0635,-97.4259 119.952,-80.2256"/>
<polygon fill="midnightblue" stroke="midnightblue" points="121.786,-83.221 129.155,-75.6087 118.648,-76.9641 121.786,-83.221"/>
</g>
<!-- Node5 -->
<g id="node5" class="node"><title>Node5</title>
<polygon fill="white" stroke="#bfbfbf" points="352.5,-392.5 352.5,-411.5 399.5,-411.5 399.5,-392.5 352.5,-392.5"/>
<text text-anchor="middle" x="376" y="-399.5" font-family="Helvetica,sans-Serif" font-size="10.00">math.h</text>
</g>
<!-- Node4&#45;&gt;Node5 -->
<g id="edge4" class="edge"><title>Node4&#45;&gt;Node5</title>
<path fill="none" stroke="midnightblue" d="M181.604,-449.172C219.405,-440.98 280.327,-427.475 342.289,-412.095"/>
<polygon fill="midnightblue" stroke="midnightblue" points="343.384,-415.429 352.239,-409.611 341.689,-408.637 343.384,-415.429"/>
</g>
<!-- Node6 -->
<g id="node6" class="node"><title>Node6</title>
<polygon fill="white" stroke="#bfbfbf" points="244.5,-280.5 244.5,-299.5 293.5,-299.5 293.5,-280.5 244.5,-280.5"/>
<text text-anchor="middle" x="269" y="-287.5" font-family="Helvetica,sans-Serif" font-size="10.00">string.h</text>
</g>
<!-- Node4&#45;&gt;Node6 -->
<g id="edge5" class="edge"><title>Node4&#45;&gt;Node6</title>
<path fill="none" stroke="midnightblue" d="M151.667,-448.075C171.523,-421.493 230.502,-342.538 256.478,-307.763"/>
<polygon fill="midnightblue" stroke="midnightblue" points="259.419,-309.674 262.6,-299.568 253.811,-305.485 259.419,-309.674"/>
</g>
<!-- Node7 -->
<g id="node7" class="node"><title>Node7</title>
<g id="a_node7"><a xlink:href="../../d2/db4/_wlib_8h.html" target="_top" xlink:title="../Wlib.h">
<polygon fill="white" stroke="black" points="104.5,-224.5 104.5,-243.5 157.5,-243.5 157.5,-224.5 104.5,-224.5"/>
<text text-anchor="middle" x="131" y="-231.5" font-family="Helvetica,sans-Serif" font-size="10.00">../Wlib.h</text>
</a>
</g>
</g>
<!-- Node4&#45;&gt;Node7 -->
<g id="edge7" class="edge"><title>Node4&#45;&gt;Node7</title>
<path fill="none" stroke="midnightblue" d="M138.969,-448.341C127.653,-431.503 103.603,-392.769 95,-356 86.262,-318.654 106.293,-275.824 119.844,-252.459"/>
<polygon fill="midnightblue" stroke="midnightblue" points="122.957,-254.075 125.152,-243.71 116.973,-250.444 122.957,-254.075"/>
</g>
<!-- Node8 -->
<g id="node8" class="node"><title>Node8</title>
<g id="a_node8"><a xlink:href="../../db/db5/_string_8h.html" target="_top" xlink:title="../strings/String.h">
<polygon fill="white" stroke="black" points="242,-392.5 242,-411.5 334,-411.5 334,-392.5 242,-392.5"/>
<text text-anchor="middle" x="288" y="-399.5" font-family="Helvetica,sans-Serif" font-size="10.00">../strings/String.h</text>
</a>
</g>
</g>
<!-- Node4&#45;&gt;Node8 -->
<g id="edge8" class="edge"><title>Node4&#45;&gt;Node8</title>
<path fill="none" stroke="midnightblue" d="M167.659,-448.444C191.402,-439.478 228.909,-425.314 255.738,-415.183"/>
<polygon fill="midnightblue" stroke="midnightblue" points="257.329,-418.324 265.447,-411.516 254.856,-411.775 257.329,-418.324"/>
</g>
<!-- Node8&#45;&gt;Node2 -->
<g id="edge21" class="edge"><title>Node8&#45;&gt;Node2</title>
<path fill="none" stroke="midnightblue" d="M333.203,-392.483C392.826,-381.073 490.97,-361.609 497,-356 519.038,-335.501 516,-321.098 516,-291 516,-291 516,-291 516,-177 516,-109.522 285.471,-79.9082 189.827,-70.5256"/>
<polygon fill="midnightblue" stroke="midnightblue" points="189.946,-67.0212 179.659,-69.5548 189.281,-73.9895 189.946,-67.0212"/>
</g>
<!-- Node8&#45;&gt;Node6 -->
<g id="edge9" class="edge"><title>Node8&#45;&gt;Node6</title>
<path fill="none" stroke="midnightblue" d="M283.719,-392.291C279.592,-383.408 273.602,-369.106 271,-356 267.939,-340.583 267.616,-322.711 267.958,-309.613"/>
<polygon fill="midnightblue" stroke="midnightblue" points="271.459,-309.651 268.378,-299.514 264.465,-309.36 271.459,-309.651"/>
</g>
<!-- Node9 -->
<g id="node9" class="node"><title>Node9</title>
<g id="a_node9"><a xlink:href="../../de/d0b/_string_iterator_8h.html" target="_top" xlink:title="StringIterator.h">
<polygon fill="white" stroke="black" points="104.5,-336.5 104.5,-355.5 185.5,-355.5 185.5,-336.5 104.5,-336.5"/>
<text text-anchor="middle" x="145" y="-343.5" font-family="Helvetica,sans-Serif" font-size="10.00">StringIterator.h</text>
</a>
</g>
</g>
<!-- Node8&#45;&gt;Node9 -->
<g id="edge10" class="edge"><title>Node8&#45;&gt;Node9</title>
<path fill="none" stroke="midnightblue" d="M265.341,-392.444C241.598,-383.478 204.091,-369.314 177.262,-359.183"/>
<polygon fill="midnightblue" stroke="midnightblue" points="178.144,-355.775 167.553,-355.516 175.671,-362.324 178.144,-355.775"/>
</g>
<!-- Node15 -->
<g id="node15" class="node"><title>Node15</title>
<g id="a_node15"><a xlink:href="../../da/db8/_math_8h.html" target="_top" xlink:title="../utility/Math.h">
<polygon fill="white" stroke="black" points="406,-336.5 406,-355.5 488,-355.5 488,-336.5 406,-336.5"/>
<text text-anchor="middle" x="447" y="-343.5" font-family="Helvetica,sans-Serif" font-size="10.00">../utility/Math.h</text>
</a>
</g>
</g>
<!-- Node8&#45;&gt;Node15 -->
<g id="edge22" class="edge"><title>Node8&#45;&gt;Node15</title>
<path fill="none" stroke="midnightblue" d="M313.194,-392.444C339.943,-383.359 382.403,-368.939 412.305,-358.783"/>
<polygon fill="midnightblue" stroke="midnightblue" points="413.581,-362.046 421.924,-355.516 411.329,-355.418 413.581,-362.046"/>
</g>
<!-- Node16 -->
<g id="node16" class="node"><title>Node16</title>
<g id="a_node16"><a xlink:href="../../d3/de6/_memory_8h.html" target="_top" xlink:title="Memory is a class that provides dynamic fixed size memory. ">
<polygon fill="white" stroke="black" points="280.5,-336.5 280.5,-355.5 387.5,-355.5 387.5,-336.5 280.5,-336.5"/>
<text text-anchor="middle" x="334" y="-343.5" font-family="Helvetica,sans-Serif" font-size="10.00">../memory/Memory.h</text>
</a>
</g>
</g>
<!-- Node8&#45;&gt;Node16 -->
<g id="edge23" class="edge"><title>Node8&#45;&gt;Node16</title>
<path fill="none" stroke="midnightblue" d="M295.596,-392.083C302.227,-384.298 312.021,-372.801 320.058,-363.367"/>
<polygon fill="midnightblue" stroke="midnightblue" points="322.725,-365.633 326.545,-355.751 317.396,-361.094 322.725,-365.633"/>
</g>
<!-- Node9&#45;&gt;Node2 -->
<g id="edge11" class="edge"><title>Node9&#45;&gt;Node2</title>
<path fill="none" stroke="midnightblue" d="M138.969,-336.341C127.653,-319.503 103.603,-280.769 95,-244 81.0704,-184.465 117.695,-115.628 137.407,-84.2211"/>
<polygon fill="midnightblue" stroke="midnightblue" points="140.41,-86.0239 142.907,-75.7277 134.534,-82.2191 140.41,-86.0239"/>
</g>
<!-- Node10 -->
<g id="node10" class="node"><title>Node10</title>
<g id="a_node10"><a xlink:href="../../d8/dd7/_concept_8h.html" target="_top" xlink:title="Concept definitions. ">
<polygon fill="white" stroke="black" points="143,-280.5 143,-299.5 227,-299.5 227,-280.5 143,-280.5"/>
<text text-anchor="middle" x="185" y="-287.5" font-family="Helvetica,sans-Serif" font-size="10.00">../stl/Concept.h</text>
</a>
</g>
</g>
<!-- Node9&#45;&gt;Node10 -->
<g id="edge12" class="edge"><title>Node9&#45;&gt;Node10</title>
<path fill="none" stroke="midnightblue" d="M151.605,-336.083C157.255,-328.455 165.545,-317.264 172.451,-307.941"/>
<polygon fill="midnightblue" stroke="midnightblue" points="175.378,-309.87 178.518,-299.751 169.753,-305.703 175.378,-309.87"/>
</g>
<!-- Node10&#45;&gt;Node7 -->
<g id="edge19" class="edge"><title>Node10&#45;&gt;Node7</title>
<path fill="none" stroke="midnightblue" d="M176.083,-280.083C168.22,-272.22 156.569,-260.569 147.081,-251.081"/>
<polygon fill="midnightblue" stroke="midnightblue" points="149.297,-248.347 139.751,-243.751 144.347,-253.297 149.297,-248.347"/>
</g>
<!-- Node11 -->
<g id="node11" class="node"><title>Node11</title>
<g id="a_node11"><a xlink:href="../../d4/dda/_pair_8h.html" target="_top" xlink:title="Implementation of a 2&#45;element tuple. ">
<polygon fill="white" stroke="black" points="253,-224.5 253,-243.5 295,-243.5 295,-224.5 253,-224.5"/>
<text text-anchor="middle" x="274" y="-231.5" font-family="Helvetica,sans-Serif" font-size="10.00">Pair.h</text>
</a>
</g>
</g>
<!-- Node10&#45;&gt;Node11 -->
<g id="edge13" class="edge"><title>Node10&#45;&gt;Node11</title>
<path fill="none" stroke="midnightblue" d="M199.299,-280.324C213.183,-271.9 234.492,-258.971 250.804,-249.074"/>
<polygon fill="midnightblue" stroke="midnightblue" points="253.002,-251.834 259.736,-243.655 249.371,-245.85 253.002,-251.834"/>
</g>
<!-- Node13 -->
<g id="node13" class="node"><title>Node13</title>
<g id="a_node13"><a xlink:href="../../d2/d37/_tmp_8h.html" target="_top" xlink:title="Template helper types, structs, and metafunctions. ">
<polygon fill="white" stroke="black" points="201,-112.5 201,-131.5 245,-131.5 245,-112.5 201,-112.5"/>
<text text-anchor="middle" x="223" y="-119.5" font-family="Helvetica,sans-Serif" font-size="10.00">Tmp.h</text>
</a>
</g>
</g>
<!-- Node10&#45;&gt;Node13 -->
<g id="edge20" class="edge"><title>Node10&#45;&gt;Node13</title>
<path fill="none" stroke="midnightblue" d="M187.043,-280.075C193.025,-253.945 210.59,-177.211 218.747,-141.577"/>
<polygon fill="midnightblue" stroke="midnightblue" points="222.219,-142.097 221.039,-131.568 215.395,-140.535 222.219,-142.097"/>
</g>
<!-- Node14 -->
<g id="node14" class="node"><title>Node14</title>
<g id="a_node14"><a xlink:href="../../d4/dd5/_type_traits_8h.html" target="_top" xlink:title="Metafunctions for types. ">
<polygon fill="white" stroke="black" points="123.5,-168.5 123.5,-187.5 194.5,-187.5 194.5,-168.5 123.5,-168.5"/>
<text text-anchor="middle" x="159" y="-175.5" font-family="Helvetica,sans-Serif" font-size="10.00">TypeTraits.h</text>
</a>
</g>
</g>
<!-- Node10&#45;&gt;Node14 -->
<g id="edge17" class="edge"><title>Node10&#45;&gt;Node14</title>
<path fill="none" stroke="midnightblue" d="M182.96,-280.368C178.764,-262.617 169.085,-221.666 163.396,-197.597"/>
<polygon fill="midnightblue" stroke="midnightblue" points="166.737,-196.518 161.031,-187.591 159.925,-198.128 166.737,-196.518"/>
</g>
<!-- Node12 -->
<g id="node12" class="node"><title>Node12</title>
<g id="a_node12"><a xlink:href="../../db/d2a/_utility_8h.html" target="_top" xlink:title="Various helper functions. ">
<polygon fill="white" stroke="black" points="251,-168.5 251,-187.5 337,-187.5 337,-168.5 251,-168.5"/>
<text text-anchor="middle" x="294" y="-175.5" font-family="Helvetica,sans-Serif" font-size="10.00">../utility/Utility.h</text>
</a>
</g>
</g>
<!-- Node11&#45;&gt;Node12 -->
<g id="edge14" class="edge"><title>Node11&#45;&gt;Node12</title>
<path fill="none" stroke="midnightblue" d="M277.303,-224.083C279.982,-216.849 283.849,-206.409 287.186,-197.397"/>
<polygon fill="midnightblue" stroke="midnightblue" points="290.568,-198.344 290.759,-187.751 284.004,-195.913 290.568,-198.344"/>
</g>
<!-- Node12&#45;&gt;Node13 -->
<g id="edge15" class="edge"><title>Node12&#45;&gt;Node13</title>
<path fill="none" stroke="midnightblue" d="M282.593,-168.324C271.891,-160.185 255.659,-147.839 242.837,-138.087"/>
<polygon fill="midnightblue" stroke="midnightblue" points="244.693,-135.102 234.615,-131.834 240.456,-140.673 244.693,-135.102"/>
</g>
<!-- Node13&#45;&gt;Node2 -->
<g id="edge16" class="edge"><title>Node13&#45;&gt;Node2</title>
<path fill="none" stroke="midnightblue" d="M211.111,-112.324C199.85,-104.107 182.713,-91.6017 169.291,-81.8069"/>
<polygon fill="midnightblue" stroke="midnightblue" points="171.247,-78.9014 161.106,-75.8339 167.12,-84.5559 171.247,-78.9014"/>
</g>
<!-- Node14&#45;&gt;Node13 -->
<g id="edge18" class="edge"><title>Node14&#45;&gt;Node13</title>
<path fill="none" stroke="midnightblue" d="M169.283,-168.324C178.836,-160.263 193.28,-148.077 204.784,-138.369"/>
<polygon fill="midnightblue" stroke="midnightblue" points="207.144,-140.958 212.53,-131.834 202.63,-135.608 207.144,-140.958"/>
</g>
<!-- Node16&#45;&gt;Node2 -->
<g id="edge26" class="edge"><title>Node16&#45;&gt;Node2</title>
<path fill="none" stroke="midnightblue" d="M344.181,-336.465C363.375,-319.355 403,-278.734 403,-235 403,-235 403,-235 403,-177 403,-85.1664 261.459,-69.1413 189.695,-66.9182"/>
<polygon fill="midnightblue" stroke="midnightblue" points="189.717,-63.4179 179.638,-66.683 189.554,-70.4159 189.717,-63.4179"/>
</g>
<!-- Node16&#45;&gt;Node6 -->
<g id="edge24" class="edge"><title>Node16&#45;&gt;Node6</title>
<path fill="none" stroke="midnightblue" d="M323.557,-336.324C313.854,-328.263 299.185,-316.077 287.5,-306.369"/>
<polygon fill="midnightblue" stroke="midnightblue" points="289.562,-303.532 279.633,-299.834 285.089,-308.916 289.562,-303.532"/>
</g>
<!-- Node16&#45;&gt;Node12 -->
<g id="edge25" class="edge"><title>Node16&#45;&gt;Node12</title>
<path fill="none" stroke="midnightblue" d="M331.849,-336.075C325.553,-309.945 307.063,-233.211 298.476,-197.577"/>
<polygon fill="midnightblue" stroke="midnightblue" points="301.81,-196.47 296.065,-187.568 295.005,-198.11 301.81,-196.47"/>
</g>
<!-- Node16&#45;&gt;Node13 -->
<g id="edge27" class="edge"><title>Node16&#45;&gt;Node13</title>
<path fill="none" stroke="midnightblue" d="M338.083,-336.247C350.319,-308.596 383.584,-221.77 346,-168 325.697,-138.952 284.523,-128.595 255.418,-124.936"/>
<polygon fill="midnightblue" stroke="midnightblue" points="255.615,-121.437 245.303,-123.869 254.88,-128.399 255.615,-121.437"/>
</g>
<!-- Node17 -->
<g id="node17" class="node"><title>Node17</title>
<g id="a_node17"><a xlink:href="../../d9/d8a/_new_8h.html" target="_top" xlink:title="New operators defined for Arduino boards and for other boards use the normal new. ...">
<polygon fill="white" stroke="black" points="431.5,-280.5 431.5,-299.5 476.5,-299.5 476.5,-280.5 431.5,-280.5"/>
<text text-anchor="middle" x="454" y="-287.5" font-family="Helvetica,sans-Serif" font-size="10.00">New.h</text>
</a>
</g>
</g>
<!-- Node16&#45;&gt;Node17 -->
<g id="edge28" class="edge"><title>Node16&#45;&gt;Node17</title>
<path fill="none" stroke="midnightblue" d="M353.014,-336.444C372.588,-327.636 403.308,-313.812 425.729,-303.722"/>
<polygon fill="midnightblue" stroke="midnightblue" points="427.392,-306.812 435.075,-299.516 424.519,-300.428 427.392,-306.812"/>
</g>
</g>
</svg>
        <g id="navigator" transform="translate(0 0)" fill="#404254">
                <rect fill="#f2f5e9" fill-opacity="0.5" stroke="#606060" stroke-width=".5" x="0" y="0" width="60" height="60"/>
                <use id="zoomplus" xlink:href="#zoomPlus" x="17" y="9" onmousedown="handleZoom(evt,'in')"/>
                <use id="zoomminus" xlink:href="#zoomMin" x="42" y="9" onmousedown="handleZoom(evt,'out')"/>
                <use id="reset" xlink:href="#resetDef" x="30" y="36" onmousedown="handleReset()"/>
                <g id="arrowUp" xlink:href="#dirArrow" transform="translate(30 24)" onmousedown="handlePan(0,-1)">
                  <use xlink:href="#rim" fill="#404040">
                        <set attributeName="fill" to="#808080" begin="arrowUp.mouseover" end="arrowUp.mouseout"/>
                  </use>
                  <path fill="none" stroke="white" stroke-width="1.5" d="M0,-3.0v7 M-2.5,-0.5L0,-3.0L2.5,-0.5"/>
                </g>
                <g id="arrowRight" xlink:href="#dirArrow" transform="rotate(90) translate(36 -43)" onmousedown="handlePan(1,0)">
                  <use xlink:href="#rim" fill="#404040">
                        <set attributeName="fill" to="#808080" begin="arrowRight.mouseover" end="arrowRight.mouseout"/>
                  </use>
                  <path fill="none" stroke="white" stroke-width="1.5" d="M0,-3.0v7 M-2.5,-0.5L0,-3.0L2.5,-0.5"/>
                </g>
                <g id="arrowDown" xlink:href="#dirArrow" transform="rotate(180) translate(-30 -48)" onmousedown="handlePan(0,1)">
                  <use xlink:href="#rim" fill="#404040">
                        <set attributeName="fill" to="#808080" begin="arrowDown.mouseover" end="arrowDown.mouseout"/>
                  </use>
                  <path fill="none" stroke="white" stroke-width="1.5" d="M0,-3.0v7 M-2.5,-0.5L0,-3.0L2.5,-0.5"/>
                </g>
                <g id="arrowLeft" xlink:href="#dirArrow" transform="rotate(270) translate(-36 17)" onmousedown="handlePan(-1,0)">
                  <use xlink:href="#rim" fill="#404040">
                        <set attributeName="fill" to="#808080" begin="arrowLeft.mouseover" end="arrowLeft.mouseout"/>
                  </use>
                  <path fill="none" stroke="white" stroke-width="1.5" d="M0,-3.0v7 M-2.5,-0.5L0,-3.0L2.5,-0.5"/>
                </g>
        </g>
        <svg viewBox="0 0 15 15" width="100%" height="30px" preserveAspectRatio="xMaxYMin meet">
         <g id="arrow_out" transform="scale(0.3 0.3)">
          <a xlink:href="_packet_constructor_8h__incl_org.svg" target="_base">
           <rect id="button" ry="5" rx="5" y="6" x="6" height="38" width="38"
                fill="#f2f5e9" fill-opacity="0.5" stroke="#606060" stroke-width="1.0"/>
           <path id="arrow"
             d="M 11.500037,31.436501 C 11.940474,20.09759 22.043105,11.32322 32.158766,21.979434 L 37.068811,17.246167 C 37.068811,17.246167 37.088388,32 37.088388,32 L 22.160133,31.978069 C 22.160133,31.978069 26.997745,27.140456 26.997745,27.140456 C 18.528582,18.264221 13.291696,25.230495 11.500037,31.436501 z"
             style="fill:#404040;"/>
          </a>
         </g>
        </svg>
</svg>
