<?xml version="1.0" encoding="UTF-8" standalone="no"?>
<!DOCTYPE svg PUBLIC "-//W3C//DTD SVG 1.1//EN"
 "http://www.w3.org/Graphics/SVG/1.1/DTD/svg11.dtd">
<!-- Generated by graphviz version 2.36.0 (20140111.2315)
 -->
<!-- Title: wlp::state_machine Pages: 1 -->
<svg width="298pt" height="118pt"
 viewBox="0.00 0.00 298.00 118.00" xmlns="http://www.w3.org/2000/svg" xmlns:xlink="http://www.w3.org/1999/xlink">
<g id="graph0" class="graph" transform="scale(1 1) rotate(0) translate(4 114)">
<title>wlp::state_machine</title>
<polygon fill="white" stroke="none" points="-4,4 -4,-114 294,-114 294,4 -4,4"/>
<!-- Node1 -->
<g id="node1" class="node"><title>Node1</title>
<polygon fill="#bfbfbf" stroke="black" points="66.5,-0.5 66.5,-19.5 167.5,-19.5 167.5,-0.5 66.5,-0.5"/>
<text text-anchor="middle" x="117" y="-7.5" font-family="Helvetica,sans-Serif" font-size="10.00">wlp::state_machine</text>
</g>
<!-- Node2 -->
<g id="node2" class="node"><title>Node2</title>
<polygon fill="white" stroke="#bfbfbf" points="0,-90.5 0,-109.5 46,-109.5 46,-90.5 0,-90.5"/>
<text text-anchor="middle" x="23" y="-97.5" font-family="Helvetica,sans-Serif" font-size="10.00">uint8_t</text>
</g>
<!-- Node2&#45;&gt;Node1 -->
<g id="edge1" class="edge"><title>Node2&#45;&gt;Node1</title>
<path fill="none" stroke="#9a32cd" stroke-dasharray="5,2" d="M24.46,-80.3055C26.4411,-66.9479 31.0936,-49.3927 42,-38 50.2301,-29.4029 61.3947,-23.535 72.5933,-19.5327"/>
<polygon fill="#9a32cd" stroke="#9a32cd" points="20.9741,-79.9852 23.3455,-90.3112 27.9311,-80.7601 20.9741,-79.9852"/>
<text text-anchor="middle" x="77.5" y="-63.5" font-family="Helvetica,sans-Serif" font-size="10.00"> m_new_state</text>
<text text-anchor="middle" x="77.5" y="-52.5" font-family="Helvetica,sans-Serif" font-size="10.00">m_current_state</text>
<text text-anchor="middle" x="77.5" y="-41.5" font-family="Helvetica,sans-Serif" font-size="10.00">m_max_states</text>
</g>
<!-- Node3 -->
<g id="node3" class="node"><title>Node3</title>
<polygon fill="white" stroke="#bfbfbf" points="99.5,-90.5 99.5,-109.5 134.5,-109.5 134.5,-90.5 99.5,-90.5"/>
<text text-anchor="middle" x="117" y="-97.5" font-family="Helvetica,sans-Serif" font-size="10.00">bool</text>
</g>
<!-- Node3&#45;&gt;Node1 -->
<g id="edge2" class="edge"><title>Node3&#45;&gt;Node1</title>
<path fill="none" stroke="#9a32cd" stroke-dasharray="5,2" d="M117,-79.9784C117,-61.3096 117,-33.6696 117,-19.7241"/>
<polygon fill="#9a32cd" stroke="#9a32cd" points="113.5,-80.2405 117,-90.2405 120.5,-80.2405 113.5,-80.2405"/>
<text text-anchor="middle" x="161.5" y="-52.5" font-family="Helvetica,sans-Serif" font-size="10.00"> m_event_generated</text>
</g>
<!-- Node4 -->
<g id="node4" class="node"><title>Node4</title>
<g id="a_node4"><a xlink:href="../../d0/dd6/classwlp_1_1sm__event__data.html" target="_top" xlink:title="wlp::sm_event_data">
<polygon fill="white" stroke="black" points="177,-90.5 177,-109.5 281,-109.5 281,-90.5 177,-90.5"/>
<text text-anchor="middle" x="229" y="-97.5" font-family="Helvetica,sans-Serif" font-size="10.00">wlp::sm_event_data</text>
</a>
</g>
</g>
<!-- Node4&#45;&gt;Node1 -->
<g id="edge3" class="edge"><title>Node4&#45;&gt;Node1</title>
<path fill="none" stroke="#9a32cd" stroke-dasharray="5,2" d="M226.714,-80.0758C224.123,-66.6035 218.624,-49.0053 207,-38 196.22,-27.794 181.732,-21.4322 167.534,-17.4711"/>
<polygon fill="#9a32cd" stroke="#9a32cd" points="223.29,-80.8393 228.278,-90.1869 230.208,-79.7694 223.29,-80.8393"/>
<text text-anchor="middle" x="257.5" y="-58" font-family="Helvetica,sans-Serif" font-size="10.00"> m_event_data</text>
<text text-anchor="middle" x="257.5" y="-47" font-family="Helvetica,sans-Serif" font-size="10.00">m_dataless</text>
</g>
</g>
</svg>
