<?xml version="1.0" encoding="UTF-8" standalone="no"?>
<!DOCTYPE svg PUBLIC "-//W3C//DTD SVG 1.1//EN"
 "http://www.w3.org/Graphics/SVG/1.1/DTD/svg11.dtd">
<!-- Generated by graphviz version 2.38.0 (20140413.2041)
 -->
<!-- Title: wlp::TypeAtTuple&lt; I, Tuple&lt; Types... &gt; &gt; Pages: 1 -->
<svg width="113pt" height="106pt"
 viewBox="0.00 0.00 113.00 106.00" xmlns="http://www.w3.org/2000/svg" xmlns:xlink="http://www.w3.org/1999/xlink">
<g id="graph0" class="graph" transform="scale(1 1) rotate(0) translate(4 102)">
<title>wlp::TypeAtTuple&lt; I, Tuple&lt; Types... &gt; &gt;</title>
<polygon fill="white" stroke="none" points="-4,4 -4,-102 109,-102 109,4 -4,4"/>
<!-- Node2 -->
<g id="node1" class="node"><title>Node2</title>
<polygon fill="#bfbfbf" stroke="black" points="0,-0.5 0,-30.5 105,-30.5 105,-0.5 0,-0.5"/>
<text text-anchor="start" x="8" y="-18.5" font-family="Helvetica,sans-Serif" font-size="10.00">wlp::TypeAtTuple&lt; I,</text>
<text text-anchor="middle" x="52.5" y="-7.5" font-family="Helvetica,sans-Serif" font-size="10.00"> Tuple&lt; Types... &gt; &gt;</text>
</g>
<!-- Node3 -->
<g id="node2" class="node"><title>Node3</title>
<g id="a_node2"><a xlink:href="../../dd/dec/structwlp_1_1_type_at_index.html" target="_top" xlink:title="wlp::TypeAtIndex\&lt; I,\l Types... \&gt;">
<polygon fill="white" stroke="black" points="0,-67.5 0,-97.5 105,-97.5 105,-67.5 0,-67.5"/>
<text text-anchor="start" x="8" y="-85.5" font-family="Helvetica,sans-Serif" font-size="10.00">wlp::TypeAtIndex&lt; I,</text>
<text text-anchor="middle" x="52.5" y="-74.5" font-family="Helvetica,sans-Serif" font-size="10.00"> Types... &gt;</text>
</a>
</g>
</g>
<!-- Node3&#45;&gt;Node2 -->
<g id="edge1" class="edge"><title>Node3&#45;&gt;Node2</title>
<path fill="none" stroke="midnightblue" d="M52.5,-57.1081C52.5,-48.1539 52.5,-38.3227 52.5,-30.5765"/>
<polygon fill="midnightblue" stroke="midnightblue" points="49.0001,-57.3959 52.5,-67.396 56.0001,-57.396 49.0001,-57.3959"/>
</g>
</g>
</svg>
