<?xml version="1.0" encoding="UTF-8" standalone="no"?>
<!DOCTYPE svg PUBLIC "-//W3C//DTD SVG 1.1//EN"
 "http://www.w3.org/Graphics/SVG/1.1/DTD/svg11.dtd">
<!-- Generated by graphviz version 2.36.0 (20140111.2315)
 -->
<!-- Title: wlib/stl/HashMap.h Pages: 1 -->
<svg width="1009pt" height="588pt"
 viewBox="0.00 0.00 1008.69 588.00" xmlns="http://www.w3.org/2000/svg" xmlns:xlink="http://www.w3.org/1999/xlink">
<g id="graph0" class="graph" transform="scale(1 1) rotate(0) translate(4 584)">
<title>wlib/stl/HashMap.h</title>
<polygon fill="white" stroke="none" points="-4,4 -4,-584 1004.69,-584 1004.69,4 -4,4"/>
<!-- Node1 -->
<g id="node1" class="node"><title>Node1</title>
<polygon fill="#bfbfbf" stroke="black" points="586.5,-560.5 586.5,-579.5 687.5,-579.5 687.5,-560.5 586.5,-560.5"/>
<text text-anchor="middle" x="637" y="-567.5" font-family="Helvetica,sans-Serif" font-size="10.00">wlib/stl/HashMap.h</text>
</g>
<!-- Node2 -->
<g id="node2" class="node"><title>Node2</title>
<g id="a_node2"><a xlink:href="../../d2/dc2/_equal_8h.html" target="_top" xlink:title="Equal.h">
<polygon fill="white" stroke="black" points="0,-448.5 0,-467.5 50,-467.5 50,-448.5 0,-448.5"/>
<text text-anchor="middle" x="25" y="-455.5" font-family="Helvetica,sans-Serif" font-size="10.00">Equal.h</text>
</a>
</g>
</g>
<!-- Node1&#45;&gt;Node2 -->
<g id="edge1" class="edge"><title>Node1&#45;&gt;Node2</title>
<path fill="none" stroke="midnightblue" d="M586.243,-560.969C486.079,-544.919 256.034,-507.054 64,-468 62.736,-467.743 61.4503,-467.476 60.1526,-467.202"/>
<polygon fill="midnightblue" stroke="midnightblue" points="60.6509,-463.728 50.1332,-465.003 59.1508,-470.565 60.6509,-463.728"/>
</g>
<!-- Node9 -->
<g id="node9" class="node"><title>Node9</title>
<g id="a_node9"><a xlink:href="../../d4/dda/_pair_8h.html" target="_top" xlink:title="Implementation of a 2&#45;element tuple. ">
<polygon fill="white" stroke="black" points="625,-224.5 625,-243.5 667,-243.5 667,-224.5 625,-224.5"/>
<text text-anchor="middle" x="646" y="-231.5" font-family="Helvetica,sans-Serif" font-size="10.00">Pair.h</text>
</a>
</g>
</g>
<!-- Node1&#45;&gt;Node9 -->
<g id="edge41" class="edge"><title>Node1&#45;&gt;Node9</title>
<path fill="none" stroke="midnightblue" d="M687.712,-563.211C743.453,-553.838 830.462,-529.649 871,-468 892.542,-435.239 837.811,-403.202 826,-392 806.132,-373.156 797.175,-373.362 776,-356 732.729,-320.52 685.475,-274.534 661.633,-250.769"/>
<polygon fill="midnightblue" stroke="midnightblue" points="664.026,-248.213 654.484,-243.609 659.072,-253.159 664.026,-248.213"/>
</g>
<!-- Node10 -->
<g id="node10" class="node"><title>Node10</title>
<g id="a_node10"><a xlink:href="../../db/d2a/_utility_8h.html" target="_top" xlink:title="Various helper functions. ">
<polygon fill="white" stroke="black" points="516.5,-168.5 516.5,-187.5 613.5,-187.5 613.5,-168.5 516.5,-168.5"/>
<text text-anchor="middle" x="565" y="-175.5" font-family="Helvetica,sans-Serif" font-size="10.00">wlib/utility/Utility.h</text>
</a>
</g>
</g>
<!-- Node1&#45;&gt;Node10 -->
<g id="edge48" class="edge"><title>Node1&#45;&gt;Node10</title>
<path fill="none" stroke="midnightblue" d="M593.205,-560.431C570.857,-553.944 544.895,-542.81 528,-524 507.888,-501.609 509,-489.098 509,-459 509,-459 509,-459 509,-401 509,-380.352 545.892,-246.97 559.789,-197.461"/>
<polygon fill="midnightblue" stroke="midnightblue" points="563.181,-198.326 562.521,-187.752 556.443,-196.429 563.181,-198.326"/>
</g>
<!-- Node17 -->
<g id="node17" class="node"><title>Node17</title>
<g id="a_node17"><a xlink:href="../../d2/dad/_hash_8h.html" target="_top" xlink:title="Hash.h">
<polygon fill="white" stroke="black" points="613,-448.5 613,-467.5 661,-467.5 661,-448.5 613,-448.5"/>
<text text-anchor="middle" x="637" y="-455.5" font-family="Helvetica,sans-Serif" font-size="10.00">Hash.h</text>
</a>
</g>
</g>
<!-- Node1&#45;&gt;Node17 -->
<g id="edge26" class="edge"><title>Node1&#45;&gt;Node17</title>
<path fill="none" stroke="midnightblue" d="M637,-560.368C637,-542.617 637,-501.666 637,-477.597"/>
<polygon fill="midnightblue" stroke="midnightblue" points="640.5,-477.591 637,-467.591 633.5,-477.591 640.5,-477.591"/>
</g>
<!-- Node19 -->
<g id="node19" class="node"><title>Node19</title>
<g id="a_node19"><a xlink:href="../../de/def/_hash_table_8h.html" target="_top" xlink:title="HashTable.h">
<polygon fill="white" stroke="black" points="537,-504.5 537,-523.5 609,-523.5 609,-504.5 537,-504.5"/>
<text text-anchor="middle" x="573" y="-511.5" font-family="Helvetica,sans-Serif" font-size="10.00">HashTable.h</text>
</a>
</g>
</g>
<!-- Node1&#45;&gt;Node19 -->
<g id="edge31" class="edge"><title>Node1&#45;&gt;Node19</title>
<path fill="none" stroke="midnightblue" d="M626.717,-560.324C617.164,-552.263 602.72,-540.077 591.216,-530.369"/>
<polygon fill="midnightblue" stroke="midnightblue" points="593.37,-527.608 583.47,-523.834 588.856,-532.958 593.37,-527.608"/>
</g>
<!-- Node22 -->
<g id="node22" class="node"><title>Node22</title>
<g id="a_node22"><a xlink:href="../../d9/d37/_table_8h.html" target="_top" xlink:title="Table.h">
<polygon fill="white" stroke="black" points="801.5,-336.5 801.5,-355.5 850.5,-355.5 850.5,-336.5 801.5,-336.5"/>
<text text-anchor="middle" x="826" y="-343.5" font-family="Helvetica,sans-Serif" font-size="10.00">Table.h</text>
</a>
</g>
</g>
<!-- Node1&#45;&gt;Node22 -->
<g id="edge42" class="edge"><title>Node1&#45;&gt;Node22</title>
<path fill="none" stroke="midnightblue" d="M687.816,-569.974C772.439,-570.387 936.57,-565.635 973,-524 1011.63,-479.849 1007.89,-439.166 973,-392 947.397,-357.386 895.692,-348.527 860.947,-346.709"/>
<polygon fill="midnightblue" stroke="midnightblue" points="860.873,-343.204 850.756,-346.35 860.626,-350.2 860.873,-343.204"/>
</g>
<!-- Node23 -->
<g id="node23" class="node"><title>Node23</title>
<g id="a_node23"><a xlink:href="../../d7/d2a/_tuple_8h.html" target="_top" xlink:title="Template oriented tuple implementation. ">
<polygon fill="white" stroke="black" points="748.5,-280.5 748.5,-299.5 797.5,-299.5 797.5,-280.5 748.5,-280.5"/>
<text text-anchor="middle" x="773" y="-287.5" font-family="Helvetica,sans-Serif" font-size="10.00">Tuple.h</text>
</a>
</g>
</g>
<!-- Node1&#45;&gt;Node23 -->
<g id="edge47" class="edge"><title>Node1&#45;&gt;Node23</title>
<path fill="none" stroke="midnightblue" d="M687.632,-568.973C764.155,-567.733 903.691,-560.392 935,-524 973.261,-479.527 971.066,-438.271 935,-392 894.709,-340.309 839.209,-401.46 792,-356 779.571,-344.031 775.148,-324.422 773.637,-309.867"/>
<polygon fill="midnightblue" stroke="midnightblue" points="777.105,-309.267 772.952,-299.52 770.12,-309.729 777.105,-309.267"/>
</g>
<!-- Node3 -->
<g id="node3" class="node"><title>Node3</title>
<polygon fill="white" stroke="#bfbfbf" points="105.5,-280.5 105.5,-299.5 154.5,-299.5 154.5,-280.5 105.5,-280.5"/>
<text text-anchor="middle" x="130" y="-287.5" font-family="Helvetica,sans-Serif" font-size="10.00">string.h</text>
</g>
<!-- Node2&#45;&gt;Node3 -->
<g id="edge2" class="edge"><title>Node2&#45;&gt;Node3</title>
<path fill="none" stroke="midnightblue" d="M30.6453,-448.075C47.3878,-421.606 96.9763,-343.209 119.114,-308.21"/>
<polygon fill="midnightblue" stroke="midnightblue" points="122.193,-309.89 124.58,-299.568 116.277,-306.148 122.193,-309.89"/>
</g>
<!-- Node4 -->
<g id="node4" class="node"><title>Node4</title>
<g id="a_node4"><a xlink:href="../../d0/db6/_types_8h.html" target="_top" xlink:title="type definition of all the string types we will be using ">
<polygon fill="white" stroke="black" points="217,-56.5 217,-75.5 289,-75.5 289,-56.5 217,-56.5"/>
<text text-anchor="middle" x="253" y="-63.5" font-family="Helvetica,sans-Serif" font-size="10.00">wlib/Types.h</text>
</a>
</g>
</g>
<!-- Node2&#45;&gt;Node4 -->
<g id="edge3" class="edge"><title>Node2&#45;&gt;Node4</title>
<path fill="none" stroke="midnightblue" d="M21.8981,-448.289C15.6201,-429.856 2,-385.435 2,-347 2,-347 2,-347 2,-177 2,-88.6864 133.962,-70.6102 206.519,-67.3459"/>
<polygon fill="midnightblue" stroke="midnightblue" points="206.907,-70.834 216.771,-66.9652 206.647,-63.8389 206.907,-70.834"/>
</g>
<!-- Node6 -->
<g id="node6" class="node"><title>Node6</title>
<g id="a_node6"><a xlink:href="../../db/db5/_string_8h.html" target="_top" xlink:title="wlib/strings/String.h">
<polygon fill="white" stroke="black" points="228.5,-392.5 228.5,-411.5 331.5,-411.5 331.5,-392.5 228.5,-392.5"/>
<text text-anchor="middle" x="280" y="-399.5" font-family="Helvetica,sans-Serif" font-size="10.00">wlib/strings/String.h</text>
</a>
</g>
</g>
<!-- Node2&#45;&gt;Node6 -->
<g id="edge5" class="edge"><title>Node2&#45;&gt;Node6</title>
<path fill="none" stroke="midnightblue" d="M50.3826,-451.625C92.041,-442.803 175.673,-425.093 229.681,-413.656"/>
<polygon fill="midnightblue" stroke="midnightblue" points="230.677,-417.023 239.735,-411.527 229.227,-410.174 230.677,-417.023"/>
</g>
<!-- Node5 -->
<g id="node5" class="node"><title>Node5</title>
<polygon fill="white" stroke="#bfbfbf" points="228.5,-0.5 228.5,-19.5 277.5,-19.5 277.5,-0.5 228.5,-0.5"/>
<text text-anchor="middle" x="253" y="-7.5" font-family="Helvetica,sans-Serif" font-size="10.00">stdint.h</text>
</g>
<!-- Node4&#45;&gt;Node5 -->
<g id="edge4" class="edge"><title>Node4&#45;&gt;Node5</title>
<path fill="none" stroke="midnightblue" d="M253,-56.083C253,-49.0059 253,-38.8611 253,-29.9865"/>
<polygon fill="midnightblue" stroke="midnightblue" points="256.5,-29.751 253,-19.7511 249.5,-29.7511 256.5,-29.751"/>
</g>
<!-- Node6&#45;&gt;Node3 -->
<g id="edge6" class="edge"><title>Node6&#45;&gt;Node3</title>
<path fill="none" stroke="midnightblue" d="M250.098,-392.396C228.492,-385.144 199.455,-373.177 178,-356 161.628,-342.893 148.008,-322.927 139.51,-308.583"/>
<polygon fill="midnightblue" stroke="midnightblue" points="142.452,-306.676 134.473,-299.704 136.363,-310.129 142.452,-306.676"/>
</g>
<!-- Node6&#45;&gt;Node4 -->
<g id="edge18" class="edge"><title>Node6&#45;&gt;Node4</title>
<path fill="none" stroke="midnightblue" d="M258.711,-392.389C243.157,-385.007 222.8,-372.878 211,-356 179.372,-310.761 183,-290.199 183,-235 183,-235 183,-235 183,-177 183,-138.232 214.33,-102.104 235.07,-82.4341"/>
<polygon fill="midnightblue" stroke="midnightblue" points="237.64,-84.8274 242.671,-75.5036 232.923,-79.6547 237.64,-84.8274"/>
</g>
<!-- Node7 -->
<g id="node7" class="node"><title>Node7</title>
<g id="a_node7"><a xlink:href="../../de/d0b/_string_iterator_8h.html" target="_top" xlink:title="StringIterator.h">
<polygon fill="white" stroke="black" points="358.5,-336.5 358.5,-355.5 439.5,-355.5 439.5,-336.5 358.5,-336.5"/>
<text text-anchor="middle" x="399" y="-343.5" font-family="Helvetica,sans-Serif" font-size="10.00">StringIterator.h</text>
</a>
</g>
</g>
<!-- Node6&#45;&gt;Node7 -->
<g id="edge7" class="edge"><title>Node6&#45;&gt;Node7</title>
<path fill="none" stroke="midnightblue" d="M298.856,-392.444C318.266,-383.636 348.73,-369.812 370.965,-359.722"/>
<polygon fill="midnightblue" stroke="midnightblue" points="372.572,-362.836 380.232,-355.516 369.68,-356.462 372.572,-362.836"/>
</g>
<!-- Node14 -->
<g id="node14" class="node"><title>Node14</title>
<g id="a_node14"><a xlink:href="../../da/db8/_math_8h.html" target="_top" xlink:title="wlib/utility/Math.h">
<polygon fill="white" stroke="black" points="613.5,-336.5 613.5,-355.5 706.5,-355.5 706.5,-336.5 613.5,-336.5"/>
<text text-anchor="middle" x="660" y="-343.5" font-family="Helvetica,sans-Serif" font-size="10.00">wlib/utility/Math.h</text>
</a>
</g>
</g>
<!-- Node6&#45;&gt;Node14 -->
<g id="edge19" class="edge"><title>Node6&#45;&gt;Node14</title>
<path fill="none" stroke="midnightblue" d="M331.644,-393.661C402.579,-383.581 529.709,-365.515 603.237,-355.066"/>
<polygon fill="midnightblue" stroke="midnightblue" points="603.837,-358.516 613.245,-353.644 602.852,-351.586 603.837,-358.516"/>
</g>
<!-- Node15 -->
<g id="node15" class="node"><title>Node15</title>
<g id="a_node15"><a xlink:href="../../d3/de6/_memory_8h.html" target="_top" xlink:title="Memory is a class that provides dynamic fixed size memory. ">
<polygon fill="white" stroke="black" points="220.5,-336.5 220.5,-355.5 339.5,-355.5 339.5,-336.5 220.5,-336.5"/>
<text text-anchor="middle" x="280" y="-343.5" font-family="Helvetica,sans-Serif" font-size="10.00">wlib/memory/Memory.h</text>
</a>
</g>
</g>
<!-- Node6&#45;&gt;Node15 -->
<g id="edge20" class="edge"><title>Node6&#45;&gt;Node15</title>
<path fill="none" stroke="midnightblue" d="M280,-392.083C280,-385.006 280,-374.861 280,-365.986"/>
<polygon fill="midnightblue" stroke="midnightblue" points="283.5,-365.751 280,-355.751 276.5,-365.751 283.5,-365.751"/>
</g>
<!-- Node7&#45;&gt;Node4 -->
<g id="edge8" class="edge"><title>Node7&#45;&gt;Node4</title>
<path fill="none" stroke="midnightblue" d="M394.47,-336.375C374.032,-297.459 290.186,-137.807 262.167,-84.4544"/>
<polygon fill="midnightblue" stroke="midnightblue" points="265.225,-82.7502 257.477,-75.5243 259.028,-86.005 265.225,-82.7502"/>
</g>
<!-- Node8 -->
<g id="node8" class="node"><title>Node8</title>
<g id="a_node8"><a xlink:href="../../d8/dd7/_concept_8h.html" target="_top" xlink:title="Concept definitions. ">
<polygon fill="white" stroke="black" points="427.5,-280.5 427.5,-299.5 522.5,-299.5 522.5,-280.5 427.5,-280.5"/>
<text text-anchor="middle" x="475" y="-287.5" font-family="Helvetica,sans-Serif" font-size="10.00">wlib/stl/Concept.h</text>
</a>
</g>
</g>
<!-- Node7&#45;&gt;Node8 -->
<g id="edge9" class="edge"><title>Node7&#45;&gt;Node8</title>
<path fill="none" stroke="midnightblue" d="M411.211,-336.324C422.776,-328.107 440.375,-315.602 454.161,-305.807"/>
<polygon fill="midnightblue" stroke="midnightblue" points="456.443,-308.479 462.567,-299.834 452.388,-302.773 456.443,-308.479"/>
</g>
<!-- Node8&#45;&gt;Node9 -->
<g id="edge10" class="edge"><title>Node8&#45;&gt;Node9</title>
<path fill="none" stroke="midnightblue" d="M502.095,-280.444C532.857,-270.729 582.941,-254.913 615.171,-244.735"/>
<polygon fill="midnightblue" stroke="midnightblue" points="616.479,-247.993 624.961,-241.644 614.371,-241.318 616.479,-247.993"/>
</g>
<!-- Node11 -->
<g id="node11" class="node"><title>Node11</title>
<g id="a_node11"><a xlink:href="../../d2/d37/_tmp_8h.html" target="_top" xlink:title="Template helper types, structs, and metafunctions. ">
<polygon fill="white" stroke="black" points="441,-112.5 441,-131.5 485,-131.5 485,-112.5 441,-112.5"/>
<text text-anchor="middle" x="463" y="-119.5" font-family="Helvetica,sans-Serif" font-size="10.00">Tmp.h</text>
</a>
</g>
</g>
<!-- Node8&#45;&gt;Node11 -->
<g id="edge17" class="edge"><title>Node8&#45;&gt;Node11</title>
<path fill="none" stroke="midnightblue" d="M468.137,-280.489C455.257,-263.904 427.874,-225.584 418,-188 415.741,-179.403 414.598,-176.212 418,-168 422.92,-156.121 432.667,-145.743 441.834,-137.956"/>
<polygon fill="midnightblue" stroke="midnightblue" points="444.253,-140.506 449.936,-131.564 439.917,-135.01 444.253,-140.506"/>
</g>
<!-- Node12 -->
<g id="node12" class="node"><title>Node12</title>
<g id="a_node12"><a xlink:href="../../d4/dd5/_type_traits_8h.html" target="_top" xlink:title="Metafunctions for types. ">
<polygon fill="white" stroke="black" points="427.5,-168.5 427.5,-187.5 498.5,-187.5 498.5,-168.5 427.5,-168.5"/>
<text text-anchor="middle" x="463" y="-175.5" font-family="Helvetica,sans-Serif" font-size="10.00">TypeTraits.h</text>
</a>
</g>
</g>
<!-- Node8&#45;&gt;Node12 -->
<g id="edge14" class="edge"><title>Node8&#45;&gt;Node12</title>
<path fill="none" stroke="midnightblue" d="M470.124,-280.372C465.441,-271.552 458.692,-257.299 456,-244 452.899,-228.685 455.158,-211.044 457.909,-198.007"/>
<polygon fill="midnightblue" stroke="midnightblue" points="461.401,-198.451 460.33,-187.911 454.594,-196.819 461.401,-198.451"/>
</g>
<!-- Node13 -->
<g id="node13" class="node"><title>Node13</title>
<g id="a_node13"><a xlink:href="../../d2/db4/_wlib_8h.html" target="_top" xlink:title="wlib/Wlib.h">
<polygon fill="white" stroke="black" points="465.5,-224.5 465.5,-243.5 530.5,-243.5 530.5,-224.5 465.5,-224.5"/>
<text text-anchor="middle" x="498" y="-231.5" font-family="Helvetica,sans-Serif" font-size="10.00">wlib/Wlib.h</text>
</a>
</g>
</g>
<!-- Node8&#45;&gt;Node13 -->
<g id="edge16" class="edge"><title>Node8&#45;&gt;Node13</title>
<path fill="none" stroke="midnightblue" d="M478.798,-280.083C481.913,-272.77 486.423,-262.181 490.289,-253.103"/>
<polygon fill="midnightblue" stroke="midnightblue" points="493.574,-254.323 494.273,-243.751 487.134,-251.58 493.574,-254.323"/>
</g>
<!-- Node9&#45;&gt;Node10 -->
<g id="edge11" class="edge"><title>Node9&#45;&gt;Node10</title>
<path fill="none" stroke="midnightblue" d="M632.986,-224.324C620.468,-215.979 601.318,-203.212 586.529,-193.352"/>
<polygon fill="midnightblue" stroke="midnightblue" points="588.244,-190.289 577.982,-187.655 584.361,-196.114 588.244,-190.289"/>
</g>
<!-- Node10&#45;&gt;Node11 -->
<g id="edge12" class="edge"><title>Node10&#45;&gt;Node11</title>
<path fill="none" stroke="midnightblue" d="M548.612,-168.324C532.329,-159.703 507.133,-146.364 488.284,-136.386"/>
<polygon fill="midnightblue" stroke="midnightblue" points="489.823,-133.24 479.347,-131.655 486.548,-139.427 489.823,-133.24"/>
</g>
<!-- Node11&#45;&gt;Node4 -->
<g id="edge13" class="edge"><title>Node11&#45;&gt;Node4</title>
<path fill="none" stroke="midnightblue" d="M440.923,-115.323C406.632,-106.505 339.944,-89.357 295.939,-78.0415"/>
<polygon fill="midnightblue" stroke="midnightblue" points="296.652,-74.6109 286.095,-75.5102 294.908,-81.3904 296.652,-74.6109"/>
</g>
<!-- Node12&#45;&gt;Node11 -->
<g id="edge15" class="edge"><title>Node12&#45;&gt;Node11</title>
<path fill="none" stroke="midnightblue" d="M463,-168.083C463,-161.006 463,-150.861 463,-141.986"/>
<polygon fill="midnightblue" stroke="midnightblue" points="466.5,-141.751 463,-131.751 459.5,-141.751 466.5,-141.751"/>
</g>
<!-- Node15&#45;&gt;Node3 -->
<g id="edge21" class="edge"><title>Node15&#45;&gt;Node3</title>
<path fill="none" stroke="midnightblue" d="M256.232,-336.444C231.107,-327.399 191.289,-313.064 163.1,-302.916"/>
<polygon fill="midnightblue" stroke="midnightblue" points="164.251,-299.611 153.657,-299.516 161.88,-306.197 164.251,-299.611"/>
</g>
<!-- Node15&#45;&gt;Node4 -->
<g id="edge23" class="edge"><title>Node15&#45;&gt;Node4</title>
<path fill="none" stroke="midnightblue" d="M270.073,-336.296C261.023,-327.856 247.896,-314.267 240,-300 225.425,-273.667 221,-265.098 221,-235 221,-235 221,-235 221,-177 221,-143.329 234.995,-106.085 244.474,-84.7194"/>
<polygon fill="midnightblue" stroke="midnightblue" points="247.674,-86.1383 248.684,-75.5917 241.318,-83.2065 247.674,-86.1383"/>
</g>
<!-- Node15&#45;&gt;Node10 -->
<g id="edge22" class="edge"><title>Node15&#45;&gt;Node10</title>
<path fill="none" stroke="midnightblue" d="M290.999,-336.203C317.933,-314.943 389.831,-259.883 456,-224 480.034,-210.966 508.656,-199.285 530.538,-191.092"/>
<polygon fill="midnightblue" stroke="midnightblue" points="531.901,-194.32 540.077,-187.581 529.483,-187.751 531.901,-194.32"/>
</g>
<!-- Node15&#45;&gt;Node11 -->
<g id="edge24" class="edge"><title>Node15&#45;&gt;Node11</title>
<path fill="none" stroke="midnightblue" d="M285.479,-336.409C302.55,-309.933 356.945,-227.777 412,-168 421.874,-157.279 434.084,-146.434 444.08,-138.078"/>
<polygon fill="midnightblue" stroke="midnightblue" points="446.344,-140.749 451.857,-131.701 441.905,-135.335 446.344,-140.749"/>
</g>
<!-- Node16 -->
<g id="node16" class="node"><title>Node16</title>
<g id="a_node16"><a xlink:href="../../d9/d8a/_new_8h.html" target="_top" xlink:title="New operators defined for Arduino boards and for other boards use the normal new. ...">
<polygon fill="white" stroke="black" points="249.5,-280.5 249.5,-299.5 294.5,-299.5 294.5,-280.5 249.5,-280.5"/>
<text text-anchor="middle" x="272" y="-287.5" font-family="Helvetica,sans-Serif" font-size="10.00">New.h</text>
</a>
</g>
</g>
<!-- Node15&#45;&gt;Node16 -->
<g id="edge25" class="edge"><title>Node15&#45;&gt;Node16</title>
<path fill="none" stroke="midnightblue" d="M278.679,-336.083C277.619,-328.927 276.094,-318.635 274.769,-309.691"/>
<polygon fill="midnightblue" stroke="midnightblue" points="278.224,-309.13 273.296,-299.751 271.3,-310.156 278.224,-309.13"/>
</g>
<!-- Node17&#45;&gt;Node4 -->
<g id="edge27" class="edge"><title>Node17&#45;&gt;Node4</title>
<path fill="none" stroke="midnightblue" d="M661.104,-453.351C705.66,-446.269 798.842,-429.788 826,-412 882.29,-375.132 917,-358.289 917,-291 917,-291 917,-291 917,-177 917,-146.205 917.634,-130.481 893,-112 845.837,-76.6171 438.885,-68.9804 299.559,-67.3973"/>
<polygon fill="midnightblue" stroke="midnightblue" points="299.263,-63.894 289.226,-67.2855 299.187,-70.8936 299.263,-63.894"/>
</g>
<!-- Node17&#45;&gt;Node6 -->
<g id="edge30" class="edge"><title>Node17&#45;&gt;Node6</title>
<path fill="none" stroke="midnightblue" d="M612.743,-453.331C557.66,-444.999 421.728,-424.438 341.681,-412.33"/>
<polygon fill="midnightblue" stroke="midnightblue" points="342.139,-408.859 331.728,-410.824 341.092,-415.781 342.139,-408.859"/>
</g>
<!-- Node17&#45;&gt;Node14 -->
<g id="edge29" class="edge"><title>Node17&#45;&gt;Node14</title>
<path fill="none" stroke="midnightblue" d="M636.839,-448.462C636.786,-435.916 637.383,-411.842 642,-392 644.146,-382.78 647.881,-372.973 651.396,-364.876"/>
<polygon fill="midnightblue" stroke="midnightblue" points="654.613,-366.256 655.592,-355.706 648.248,-363.343 654.613,-366.256"/>
</g>
<!-- Node18 -->
<g id="node18" class="node"><title>Node18</title>
<g id="a_node18"><a xlink:href="../../d2/ddf/_wlib_config_8h.html" target="_top" xlink:title="Some basic definitions for compilers. ">
<polygon fill="white" stroke="black" points="651.5,-392.5 651.5,-411.5 744.5,-411.5 744.5,-392.5 651.5,-392.5"/>
<text text-anchor="middle" x="698" y="-399.5" font-family="Helvetica,sans-Serif" font-size="10.00">wlib/WlibConfig.h</text>
</a>
</g>
</g>
<!-- Node17&#45;&gt;Node18 -->
<g id="edge28" class="edge"><title>Node17&#45;&gt;Node18</title>
<path fill="none" stroke="midnightblue" d="M646.801,-448.324C655.818,-440.341 669.406,-428.313 680.318,-418.653"/>
<polygon fill="midnightblue" stroke="midnightblue" points="682.853,-421.083 688.021,-411.834 678.213,-415.842 682.853,-421.083"/>
</g>
<!-- Node19&#45;&gt;Node2 -->
<g id="edge33" class="edge"><title>Node19&#45;&gt;Node2</title>
<path fill="none" stroke="midnightblue" d="M536.998,-511.534C453.454,-507.758 240.106,-495.966 64,-468 62.7261,-467.798 61.4319,-467.577 60.127,-467.343"/>
<polygon fill="midnightblue" stroke="midnightblue" points="60.5682,-463.862 50.0749,-465.325 59.1906,-470.725 60.5682,-463.862"/>
</g>
<!-- Node19&#45;&gt;Node3 -->
<g id="edge32" class="edge"><title>Node19&#45;&gt;Node3</title>
<path fill="none" stroke="midnightblue" d="M536.817,-508.139C470.388,-498.065 325.992,-470.768 219,-412 186.164,-393.964 177.533,-386.656 156,-356 145.968,-341.717 139.009,-323.004 134.833,-309.326"/>
<polygon fill="midnightblue" stroke="midnightblue" points="138.174,-308.279 132.074,-299.616 131.441,-310.192 138.174,-308.279"/>
</g>
<!-- Node19&#45;&gt;Node4 -->
<g id="edge36" class="edge"><title>Node19&#45;&gt;Node4</title>
<path fill="none" stroke="midnightblue" d="M536.912,-510.561C483.421,-506.182 380.431,-494.805 297,-468 161.403,-424.436 77,-377.423 77,-235 77,-235 77,-235 77,-177 77,-115.688 154.755,-87.2842 206.902,-75.1289"/>
<polygon fill="midnightblue" stroke="midnightblue" points="207.948,-78.4823 216.959,-72.9096 206.44,-71.6468 207.948,-78.4823"/>
</g>
<!-- Node19&#45;&gt;Node9 -->
<g id="edge35" class="edge"><title>Node19&#45;&gt;Node9</title>
<path fill="none" stroke="midnightblue" d="M573.829,-504.373C576.462,-478.459 585.573,-399.194 604,-336 612.783,-305.882 627.721,-272.575 637.212,-252.737"/>
<polygon fill="midnightblue" stroke="midnightblue" points="640.391,-254.203 641.618,-243.679 634.096,-251.141 640.391,-254.203"/>
</g>
<!-- Node19&#45;&gt;Node10 -->
<g id="edge40" class="edge"><title>Node19&#45;&gt;Node10</title>
<path fill="none" stroke="midnightblue" d="M573.205,-504.351C574.167,-462.471 577.981,-280.477 573,-224 572.224,-215.197 570.609,-205.536 569.031,-197.43"/>
<polygon fill="midnightblue" stroke="midnightblue" points="572.444,-196.648 566.987,-187.567 565.59,-198.069 572.444,-196.648"/>
</g>
<!-- Node19&#45;&gt;Node17 -->
<g id="edge34" class="edge"><title>Node19&#45;&gt;Node17</title>
<path fill="none" stroke="midnightblue" d="M583.283,-504.324C592.836,-496.263 607.28,-484.077 618.784,-474.369"/>
<polygon fill="midnightblue" stroke="midnightblue" points="621.144,-476.958 626.53,-467.834 616.63,-471.608 621.144,-476.958"/>
</g>
<!-- Node20 -->
<g id="node20" class="node"><title>Node20</title>
<g id="a_node20"><a xlink:href="../../d7/d2f/_exceptions_8h.html" target="_top" xlink:title="Implementation of Exceptions using C style. ">
<polygon fill="white" stroke="black" points="718,-448.5 718,-467.5 862,-467.5 862,-448.5 718,-448.5"/>
<text text-anchor="middle" x="790" y="-455.5" font-family="Helvetica,sans-Serif" font-size="10.00">wlib/exceptions/Exceptions.h</text>
</a>
</g>
</g>
<!-- Node19&#45;&gt;Node20 -->
<g id="edge37" class="edge"><title>Node19&#45;&gt;Node20</title>
<path fill="none" stroke="midnightblue" d="M607.384,-504.444C644.922,-495.102 705.131,-480.119 746.067,-469.933"/>
<polygon fill="midnightblue" stroke="midnightblue" points="746.918,-473.328 755.777,-467.516 745.227,-466.535 746.918,-473.328"/>
</g>
<!-- Node20&#45;&gt;Node4 -->
<g id="edge39" class="edge"><title>Node20&#45;&gt;Node4</title>
<path fill="none" stroke="midnightblue" d="M798.859,-448.185C821.371,-424.802 879,-358.362 879,-291 879,-291 879,-291 879,-177 879,-118.195 444.961,-81.0526 299.713,-70.2693"/>
<polygon fill="midnightblue" stroke="midnightblue" points="299.592,-66.7511 289.362,-69.5094 299.079,-73.7323 299.592,-66.7511"/>
</g>
<!-- Node21 -->
<g id="node21" class="node"><title>Node21</title>
<polygon fill="white" stroke="#bfbfbf" points="763,-392.5 763,-411.5 817,-411.5 817,-392.5 763,-392.5"/>
<text text-anchor="middle" x="790" y="-399.5" font-family="Helvetica,sans-Serif" font-size="10.00">setjmp.h</text>
</g>
<!-- Node20&#45;&gt;Node21 -->
<g id="edge38" class="edge"><title>Node20&#45;&gt;Node21</title>
<path fill="none" stroke="midnightblue" d="M790,-448.083C790,-441.006 790,-430.861 790,-421.986"/>
<polygon fill="midnightblue" stroke="midnightblue" points="793.5,-421.751 790,-411.751 786.5,-421.751 793.5,-421.751"/>
</g>
<!-- Node22&#45;&gt;Node11 -->
<g id="edge46" class="edge"><title>Node22&#45;&gt;Node11</title>
<path fill="none" stroke="midnightblue" d="M825.07,-336.239C823.298,-322.985 818.435,-297.525 806,-280 757.232,-211.273 729.577,-203.182 653,-168 600.771,-144.004 534.377,-132.054 495.494,-126.719"/>
<polygon fill="midnightblue" stroke="midnightblue" points="495.661,-123.211 485.292,-125.386 494.754,-130.152 495.661,-123.211"/>
</g>
<!-- Node22&#45;&gt;Node23 -->
<g id="edge43" class="edge"><title>Node22&#45;&gt;Node23</title>
<path fill="none" stroke="midnightblue" d="M817.248,-336.083C809.53,-328.22 798.095,-316.569 788.783,-307.081"/>
<polygon fill="midnightblue" stroke="midnightblue" points="791.092,-304.436 781.589,-299.751 786.096,-309.34 791.092,-304.436"/>
</g>
<!-- Node23&#45;&gt;Node9 -->
<g id="edge44" class="edge"><title>Node23&#45;&gt;Node9</title>
<path fill="none" stroke="midnightblue" d="M752.876,-280.444C731.976,-271.557 699.065,-257.563 675.284,-247.451"/>
<polygon fill="midnightblue" stroke="midnightblue" points="676.602,-244.208 666.029,-243.516 673.862,-250.65 676.602,-244.208"/>
</g>
<!-- Node23&#45;&gt;Node11 -->
<g id="edge45" class="edge"><title>Node23&#45;&gt;Node11</title>
<path fill="none" stroke="midnightblue" d="M764.698,-280.262C743.222,-258.157 683.222,-199.537 622,-168 580.807,-146.78 528.299,-134.423 495.153,-128.193"/>
<polygon fill="midnightblue" stroke="midnightblue" points="495.573,-124.712 485.111,-126.382 494.331,-131.601 495.573,-124.712"/>
</g>
</g>
</svg>
