<?xml version="1.0" encoding="UTF-8" standalone="no"?>
<!DOCTYPE svg PUBLIC "-//W3C//DTD SVG 1.1//EN"
 "http://www.w3.org/Graphics/SVG/1.1/DTD/svg11.dtd">
<!-- Generated by graphviz version 2.36.0 (20140111.2315)
 -->
<!-- Title: stl/HashMap.h Pages: 1 -->
<svg width="985pt" height="588pt"
 viewBox="0.00 0.00 984.64 588.00" xmlns="http://www.w3.org/2000/svg" xmlns:xlink="http://www.w3.org/1999/xlink">
<g id="graph0" class="graph" transform="scale(1 1) rotate(0) translate(4 584)">
<title>stl/HashMap.h</title>
<polygon fill="white" stroke="none" points="-4,4 -4,-584 980.643,-584 980.643,4 -4,4"/>
<!-- Node1 -->
<g id="node1" class="node"><title>Node1</title>
<polygon fill="#bfbfbf" stroke="black" points="585,-560.5 585,-579.5 665,-579.5 665,-560.5 585,-560.5"/>
<text text-anchor="middle" x="625" y="-567.5" font-family="Helvetica,sans-Serif" font-size="10.00">stl/HashMap.h</text>
</g>
<!-- Node2 -->
<g id="node2" class="node"><title>Node2</title>
<g id="a_node2"><a xlink:href="../../d2/dc2/_equal_8h.html" target="_top" xlink:title="Equal.h">
<polygon fill="white" stroke="black" points="0,-448.5 0,-467.5 50,-467.5 50,-448.5 0,-448.5"/>
<text text-anchor="middle" x="25" y="-455.5" font-family="Helvetica,sans-Serif" font-size="10.00">Equal.h</text>
</a>
</g>
</g>
<!-- Node1&#45;&gt;Node2 -->
<g id="edge1" class="edge"><title>Node1&#45;&gt;Node2</title>
<path fill="none" stroke="midnightblue" d="M584.736,-562.443C492.397,-547.254 258.365,-507.898 64,-468 62.7365,-467.741 61.4511,-467.472 60.1538,-467.196"/>
<polygon fill="midnightblue" stroke="midnightblue" points="60.6546,-463.722 50.1359,-464.99 59.1494,-470.558 60.6546,-463.722"/>
</g>
<!-- Node9 -->
<g id="node9" class="node"><title>Node9</title>
<g id="a_node9"><a xlink:href="../../d4/dda/_pair_8h.html" target="_top" xlink:title="Implementation of a 2&#45;element tuple. ">
<polygon fill="white" stroke="black" points="607,-224.5 607,-243.5 649,-243.5 649,-224.5 607,-224.5"/>
<text text-anchor="middle" x="628" y="-231.5" font-family="Helvetica,sans-Serif" font-size="10.00">Pair.h</text>
</a>
</g>
</g>
<!-- Node1&#45;&gt;Node9 -->
<g id="edge41" class="edge"><title>Node1&#45;&gt;Node9</title>
<path fill="none" stroke="midnightblue" d="M665.385,-563.256C716.44,-553.591 802.33,-528.771 841,-468 860.313,-437.649 810.818,-400.958 802,-392 782.79,-372.486 772.969,-373.611 752,-356 710.381,-321.045 665.736,-275.152 643.073,-251.177"/>
<polygon fill="midnightblue" stroke="midnightblue" points="645.412,-248.555 636.014,-243.664 640.311,-253.349 645.412,-248.555"/>
</g>
<!-- Node10 -->
<g id="node10" class="node"><title>Node10</title>
<g id="a_node10"><a xlink:href="../../db/d2a/_utility_8h.html" target="_top" xlink:title="Various helper functions. ">
<polygon fill="white" stroke="black" points="511,-168.5 511,-187.5 597,-187.5 597,-168.5 511,-168.5"/>
<text text-anchor="middle" x="554" y="-175.5" font-family="Helvetica,sans-Serif" font-size="10.00">../utility/Utility.h</text>
</a>
</g>
</g>
<!-- Node1&#45;&gt;Node10 -->
<g id="edge48" class="edge"><title>Node1&#45;&gt;Node10</title>
<path fill="none" stroke="midnightblue" d="M584.968,-561.49C561.829,-555.182 533.853,-543.876 516,-524 495.888,-501.609 497,-489.098 497,-459 497,-459 497,-459 497,-401 497,-360.379 533.254,-243.349 547.936,-197.622"/>
<polygon fill="midnightblue" stroke="midnightblue" points="551.35,-198.44 551.095,-187.849 544.689,-196.287 551.35,-198.44"/>
</g>
<!-- Node17 -->
<g id="node17" class="node"><title>Node17</title>
<g id="a_node17"><a xlink:href="../../d2/dad/_hash_8h.html" target="_top" xlink:title="Hash.h">
<polygon fill="white" stroke="black" points="601,-448.5 601,-467.5 649,-467.5 649,-448.5 601,-448.5"/>
<text text-anchor="middle" x="625" y="-455.5" font-family="Helvetica,sans-Serif" font-size="10.00">Hash.h</text>
</a>
</g>
</g>
<!-- Node1&#45;&gt;Node17 -->
<g id="edge26" class="edge"><title>Node1&#45;&gt;Node17</title>
<path fill="none" stroke="midnightblue" d="M625,-560.368C625,-542.617 625,-501.666 625,-477.597"/>
<polygon fill="midnightblue" stroke="midnightblue" points="628.5,-477.591 625,-467.591 621.5,-477.591 628.5,-477.591"/>
</g>
<!-- Node19 -->
<g id="node19" class="node"><title>Node19</title>
<g id="a_node19"><a xlink:href="../../de/def/_hash_table_8h.html" target="_top" xlink:title="HashTable.h">
<polygon fill="white" stroke="black" points="525,-504.5 525,-523.5 597,-523.5 597,-504.5 525,-504.5"/>
<text text-anchor="middle" x="561" y="-511.5" font-family="Helvetica,sans-Serif" font-size="10.00">HashTable.h</text>
</a>
</g>
</g>
<!-- Node1&#45;&gt;Node19 -->
<g id="edge31" class="edge"><title>Node1&#45;&gt;Node19</title>
<path fill="none" stroke="midnightblue" d="M614.717,-560.324C605.164,-552.263 590.72,-540.077 579.216,-530.369"/>
<polygon fill="midnightblue" stroke="midnightblue" points="581.37,-527.608 571.47,-523.834 576.856,-532.958 581.37,-527.608"/>
</g>
<!-- Node22 -->
<g id="node22" class="node"><title>Node22</title>
<g id="a_node22"><a xlink:href="../../d9/d37/_table_8h.html" target="_top" xlink:title="Table.h">
<polygon fill="white" stroke="black" points="777.5,-336.5 777.5,-355.5 826.5,-355.5 826.5,-336.5 777.5,-336.5"/>
<text text-anchor="middle" x="802" y="-343.5" font-family="Helvetica,sans-Serif" font-size="10.00">Table.h</text>
</a>
</g>
</g>
<!-- Node1&#45;&gt;Node22 -->
<g id="edge42" class="edge"><title>Node1&#45;&gt;Node22</title>
<path fill="none" stroke="midnightblue" d="M665.228,-569.666C743.682,-570.01 912.64,-565.759 949,-524 987.525,-479.755 983.888,-439.166 949,-392 923.397,-357.386 871.692,-348.527 836.947,-346.709"/>
<polygon fill="midnightblue" stroke="midnightblue" points="836.873,-343.204 826.756,-346.35 836.626,-350.2 836.873,-343.204"/>
</g>
<!-- Node23 -->
<g id="node23" class="node"><title>Node23</title>
<g id="a_node23"><a xlink:href="../../d7/d2a/_tuple_8h.html" target="_top" xlink:title="Template oriented tuple implementation. ">
<polygon fill="white" stroke="black" points="724.5,-280.5 724.5,-299.5 773.5,-299.5 773.5,-280.5 724.5,-280.5"/>
<text text-anchor="middle" x="749" y="-287.5" font-family="Helvetica,sans-Serif" font-size="10.00">Tuple.h</text>
</a>
</g>
</g>
<!-- Node1&#45;&gt;Node23 -->
<g id="edge47" class="edge"><title>Node1&#45;&gt;Node23</title>
<path fill="none" stroke="midnightblue" d="M665.197,-568.821C736.332,-567.558 879.848,-560.437 911,-524 949.124,-479.409 947.066,-438.271 911,-392 870.709,-340.309 815.209,-401.46 768,-356 755.571,-344.031 751.148,-324.422 749.637,-309.867"/>
<polygon fill="midnightblue" stroke="midnightblue" points="753.105,-309.267 748.952,-299.52 746.12,-309.729 753.105,-309.267"/>
</g>
<!-- Node3 -->
<g id="node3" class="node"><title>Node3</title>
<polygon fill="white" stroke="#bfbfbf" points="99.5,-280.5 99.5,-299.5 148.5,-299.5 148.5,-280.5 99.5,-280.5"/>
<text text-anchor="middle" x="124" y="-287.5" font-family="Helvetica,sans-Serif" font-size="10.00">string.h</text>
</g>
<!-- Node2&#45;&gt;Node3 -->
<g id="edge2" class="edge"><title>Node2&#45;&gt;Node3</title>
<path fill="none" stroke="midnightblue" d="M30.3227,-448.075C46.1085,-421.606 92.8633,-343.209 113.736,-308.21"/>
<polygon fill="midnightblue" stroke="midnightblue" points="116.774,-309.949 118.89,-299.568 110.762,-306.364 116.774,-309.949"/>
</g>
<!-- Node4 -->
<g id="node4" class="node"><title>Node4</title>
<g id="a_node4"><a xlink:href="../../d0/db6/_types_8h.html" target="_top" xlink:title="type definition of all the string types we will be using ">
<polygon fill="white" stroke="black" points="216.5,-56.5 216.5,-75.5 277.5,-75.5 277.5,-56.5 216.5,-56.5"/>
<text text-anchor="middle" x="247" y="-63.5" font-family="Helvetica,sans-Serif" font-size="10.00">../Types.h</text>
</a>
</g>
</g>
<!-- Node2&#45;&gt;Node4 -->
<g id="edge3" class="edge"><title>Node2&#45;&gt;Node4</title>
<path fill="none" stroke="midnightblue" d="M21.8981,-448.289C15.6201,-429.856 2,-385.435 2,-347 2,-347 2,-347 2,-177 2,-88.5246 136.614,-70.7743 206.278,-67.5121"/>
<polygon fill="midnightblue" stroke="midnightblue" points="206.609,-71.0019 216.466,-67.1166 206.338,-64.0072 206.609,-71.0019"/>
</g>
<!-- Node6 -->
<g id="node6" class="node"><title>Node6</title>
<g id="a_node6"><a xlink:href="../../db/db5/_string_8h.html" target="_top" xlink:title="../strings/String.h">
<polygon fill="white" stroke="black" points="228,-392.5 228,-411.5 320,-411.5 320,-392.5 228,-392.5"/>
<text text-anchor="middle" x="274" y="-399.5" font-family="Helvetica,sans-Serif" font-size="10.00">../strings/String.h</text>
</a>
</g>
</g>
<!-- Node2&#45;&gt;Node6 -->
<g id="edge5" class="edge"><title>Node2&#45;&gt;Node6</title>
<path fill="none" stroke="midnightblue" d="M50.2457,-451.525C91.0154,-442.683 172.081,-425.103 224.627,-413.707"/>
<polygon fill="midnightblue" stroke="midnightblue" points="225.382,-417.125 234.413,-411.585 223.898,-410.284 225.382,-417.125"/>
</g>
<!-- Node5 -->
<g id="node5" class="node"><title>Node5</title>
<polygon fill="white" stroke="#bfbfbf" points="222.5,-0.5 222.5,-19.5 271.5,-19.5 271.5,-0.5 222.5,-0.5"/>
<text text-anchor="middle" x="247" y="-7.5" font-family="Helvetica,sans-Serif" font-size="10.00">stdint.h</text>
</g>
<!-- Node4&#45;&gt;Node5 -->
<g id="edge4" class="edge"><title>Node4&#45;&gt;Node5</title>
<path fill="none" stroke="midnightblue" d="M247,-56.083C247,-49.0059 247,-38.8611 247,-29.9865"/>
<polygon fill="midnightblue" stroke="midnightblue" points="250.5,-29.751 247,-19.7511 243.5,-29.7511 250.5,-29.751"/>
</g>
<!-- Node6&#45;&gt;Node3 -->
<g id="edge6" class="edge"><title>Node6&#45;&gt;Node3</title>
<path fill="none" stroke="midnightblue" d="M248.253,-392.472C227.885,-384.928 199.41,-372.546 178,-356 160.479,-342.459 144.847,-322.29 134.967,-308.015"/>
<polygon fill="midnightblue" stroke="midnightblue" points="137.815,-305.978 129.343,-299.615 131.998,-309.872 137.815,-305.978"/>
</g>
<!-- Node6&#45;&gt;Node4 -->
<g id="edge18" class="edge"><title>Node6&#45;&gt;Node4</title>
<path fill="none" stroke="midnightblue" d="M255.927,-392.423C241.703,-384.776 222.432,-372.28 211,-356 178.897,-310.286 177,-290.86 177,-235 177,-235 177,-235 177,-177 177,-138.232 208.33,-102.104 229.07,-82.4341"/>
<polygon fill="midnightblue" stroke="midnightblue" points="231.64,-84.8274 236.671,-75.5036 226.923,-79.6547 231.64,-84.8274"/>
</g>
<!-- Node7 -->
<g id="node7" class="node"><title>Node7</title>
<g id="a_node7"><a xlink:href="../../de/d0b/_string_iterator_8h.html" target="_top" xlink:title="StringIterator.h">
<polygon fill="white" stroke="black" points="352.5,-336.5 352.5,-355.5 433.5,-355.5 433.5,-336.5 352.5,-336.5"/>
<text text-anchor="middle" x="393" y="-343.5" font-family="Helvetica,sans-Serif" font-size="10.00">StringIterator.h</text>
</a>
</g>
</g>
<!-- Node6&#45;&gt;Node7 -->
<g id="edge7" class="edge"><title>Node6&#45;&gt;Node7</title>
<path fill="none" stroke="midnightblue" d="M292.856,-392.444C312.266,-383.636 342.73,-369.812 364.965,-359.722"/>
<polygon fill="midnightblue" stroke="midnightblue" points="366.572,-362.836 374.232,-355.516 363.68,-356.462 366.572,-362.836"/>
</g>
<!-- Node14 -->
<g id="node14" class="node"><title>Node14</title>
<g id="a_node14"><a xlink:href="../../da/db8/_math_8h.html" target="_top" xlink:title="../utility/Math.h">
<polygon fill="white" stroke="black" points="601,-336.5 601,-355.5 683,-355.5 683,-336.5 601,-336.5"/>
<text text-anchor="middle" x="642" y="-343.5" font-family="Helvetica,sans-Serif" font-size="10.00">../utility/Math.h</text>
</a>
</g>
</g>
<!-- Node6&#45;&gt;Node14 -->
<g id="edge19" class="edge"><title>Node6&#45;&gt;Node14</title>
<path fill="none" stroke="midnightblue" d="M320.235,-394.216C389.232,-384.091 518.702,-365.093 590.59,-354.544"/>
<polygon fill="midnightblue" stroke="midnightblue" points="591.379,-357.966 600.765,-353.051 590.362,-351.04 591.379,-357.966"/>
</g>
<!-- Node15 -->
<g id="node15" class="node"><title>Node15</title>
<g id="a_node15"><a xlink:href="../../d3/de6/_memory_8h.html" target="_top" xlink:title="Memory is a class that provides dynamic fixed size memory. ">
<polygon fill="white" stroke="black" points="220.5,-336.5 220.5,-355.5 327.5,-355.5 327.5,-336.5 220.5,-336.5"/>
<text text-anchor="middle" x="274" y="-343.5" font-family="Helvetica,sans-Serif" font-size="10.00">../memory/Memory.h</text>
</a>
</g>
</g>
<!-- Node6&#45;&gt;Node15 -->
<g id="edge20" class="edge"><title>Node6&#45;&gt;Node15</title>
<path fill="none" stroke="midnightblue" d="M274,-392.083C274,-385.006 274,-374.861 274,-365.986"/>
<polygon fill="midnightblue" stroke="midnightblue" points="277.5,-365.751 274,-355.751 270.5,-365.751 277.5,-365.751"/>
</g>
<!-- Node7&#45;&gt;Node4 -->
<g id="edge8" class="edge"><title>Node7&#45;&gt;Node4</title>
<path fill="none" stroke="midnightblue" d="M388.47,-336.375C368.032,-297.459 284.186,-137.807 256.167,-84.4544"/>
<polygon fill="midnightblue" stroke="midnightblue" points="259.225,-82.7502 251.477,-75.5243 253.028,-86.005 259.225,-82.7502"/>
</g>
<!-- Node8 -->
<g id="node8" class="node"><title>Node8</title>
<g id="a_node8"><a xlink:href="../../d8/dd7/_concept_8h.html" target="_top" xlink:title="Concept definitions. ">
<polygon fill="white" stroke="black" points="421,-280.5 421,-299.5 505,-299.5 505,-280.5 421,-280.5"/>
<text text-anchor="middle" x="463" y="-287.5" font-family="Helvetica,sans-Serif" font-size="10.00">../stl/Concept.h</text>
</a>
</g>
</g>
<!-- Node7&#45;&gt;Node8 -->
<g id="edge9" class="edge"><title>Node7&#45;&gt;Node8</title>
<path fill="none" stroke="midnightblue" d="M404.247,-336.324C414.797,-328.185 430.801,-315.839 443.442,-306.087"/>
<polygon fill="midnightblue" stroke="midnightblue" points="445.769,-308.713 451.549,-299.834 441.493,-303.171 445.769,-308.713"/>
</g>
<!-- Node8&#45;&gt;Node9 -->
<g id="edge10" class="edge"><title>Node8&#45;&gt;Node9</title>
<path fill="none" stroke="midnightblue" d="M489.145,-280.444C518.454,-270.851 565.94,-255.31 597.071,-245.122"/>
<polygon fill="midnightblue" stroke="midnightblue" points="598.536,-248.325 606.951,-241.889 596.359,-241.673 598.536,-248.325"/>
</g>
<!-- Node11 -->
<g id="node11" class="node"><title>Node11</title>
<g id="a_node11"><a xlink:href="../../d2/d37/_tmp_8h.html" target="_top" xlink:title="Template helper types, structs, and metafunctions. ">
<polygon fill="white" stroke="black" points="435,-112.5 435,-131.5 479,-131.5 479,-112.5 435,-112.5"/>
<text text-anchor="middle" x="457" y="-119.5" font-family="Helvetica,sans-Serif" font-size="10.00">Tmp.h</text>
</a>
</g>
</g>
<!-- Node8&#45;&gt;Node11 -->
<g id="edge17" class="edge"><title>Node8&#45;&gt;Node11</title>
<path fill="none" stroke="midnightblue" d="M456.85,-280.361C445.31,-263.558 420.783,-224.88 412,-188 409.941,-179.353 408.598,-176.212 412,-168 416.92,-156.121 426.667,-145.743 435.834,-137.956"/>
<polygon fill="midnightblue" stroke="midnightblue" points="438.253,-140.506 443.936,-131.564 433.917,-135.01 438.253,-140.506"/>
</g>
<!-- Node12 -->
<g id="node12" class="node"><title>Node12</title>
<g id="a_node12"><a xlink:href="../../d4/dd5/_type_traits_8h.html" target="_top" xlink:title="Metafunctions for types. ">
<polygon fill="white" stroke="black" points="421.5,-168.5 421.5,-187.5 492.5,-187.5 492.5,-168.5 421.5,-168.5"/>
<text text-anchor="middle" x="457" y="-175.5" font-family="Helvetica,sans-Serif" font-size="10.00">TypeTraits.h</text>
</a>
</g>
</g>
<!-- Node8&#45;&gt;Node12 -->
<g id="edge14" class="edge"><title>Node8&#45;&gt;Node12</title>
<path fill="none" stroke="midnightblue" d="M459.656,-280.197C456.446,-271.24 451.824,-256.883 450,-244 447.81,-228.529 450,-210.899 452.492,-197.907"/>
<polygon fill="midnightblue" stroke="midnightblue" points="455.973,-198.367 454.658,-187.855 449.13,-196.893 455.973,-198.367"/>
</g>
<!-- Node13 -->
<g id="node13" class="node"><title>Node13</title>
<g id="a_node13"><a xlink:href="../../d2/db4/_wlib_8h.html" target="_top" xlink:title="../Wlib.h">
<polygon fill="white" stroke="black" points="459.5,-224.5 459.5,-243.5 512.5,-243.5 512.5,-224.5 459.5,-224.5"/>
<text text-anchor="middle" x="486" y="-231.5" font-family="Helvetica,sans-Serif" font-size="10.00">../Wlib.h</text>
</a>
</g>
</g>
<!-- Node8&#45;&gt;Node13 -->
<g id="edge16" class="edge"><title>Node8&#45;&gt;Node13</title>
<path fill="none" stroke="midnightblue" d="M466.798,-280.083C469.913,-272.77 474.423,-262.181 478.289,-253.103"/>
<polygon fill="midnightblue" stroke="midnightblue" points="481.574,-254.323 482.273,-243.751 475.134,-251.58 481.574,-254.323"/>
</g>
<!-- Node9&#45;&gt;Node10 -->
<g id="edge11" class="edge"><title>Node9&#45;&gt;Node10</title>
<path fill="none" stroke="midnightblue" d="M616.111,-224.324C604.85,-216.107 587.713,-203.602 574.291,-193.807"/>
<polygon fill="midnightblue" stroke="midnightblue" points="576.247,-190.901 566.106,-187.834 572.12,-196.556 576.247,-190.901"/>
</g>
<!-- Node10&#45;&gt;Node11 -->
<g id="edge12" class="edge"><title>Node10&#45;&gt;Node11</title>
<path fill="none" stroke="midnightblue" d="M538.415,-168.324C523.001,-159.743 499.188,-146.486 481.29,-136.522"/>
<polygon fill="midnightblue" stroke="midnightblue" points="482.986,-133.461 472.546,-131.655 479.581,-139.577 482.986,-133.461"/>
</g>
<!-- Node11&#45;&gt;Node4 -->
<g id="edge13" class="edge"><title>Node11&#45;&gt;Node4</title>
<path fill="none" stroke="midnightblue" d="M434.923,-115.323C399.948,-106.329 331.271,-88.6697 287.334,-77.3716"/>
<polygon fill="midnightblue" stroke="midnightblue" points="288.101,-73.9551 277.545,-74.8543 286.358,-80.7345 288.101,-73.9551"/>
</g>
<!-- Node12&#45;&gt;Node11 -->
<g id="edge15" class="edge"><title>Node12&#45;&gt;Node11</title>
<path fill="none" stroke="midnightblue" d="M457,-168.083C457,-161.006 457,-150.861 457,-141.986"/>
<polygon fill="midnightblue" stroke="midnightblue" points="460.5,-141.751 457,-131.751 453.5,-141.751 460.5,-141.751"/>
</g>
<!-- Node15&#45;&gt;Node3 -->
<g id="edge21" class="edge"><title>Node15&#45;&gt;Node3</title>
<path fill="none" stroke="midnightblue" d="M250.232,-336.444C225.107,-327.399 185.289,-313.064 157.1,-302.916"/>
<polygon fill="midnightblue" stroke="midnightblue" points="158.251,-299.611 147.657,-299.516 155.88,-306.197 158.251,-299.611"/>
</g>
<!-- Node15&#45;&gt;Node4 -->
<g id="edge23" class="edge"><title>Node15&#45;&gt;Node4</title>
<path fill="none" stroke="midnightblue" d="M264.073,-336.296C255.023,-327.856 241.896,-314.267 234,-300 219.425,-273.667 215,-265.098 215,-235 215,-235 215,-235 215,-177 215,-143.329 228.995,-106.085 238.474,-84.7194"/>
<polygon fill="midnightblue" stroke="midnightblue" points="241.674,-86.1383 242.684,-75.5917 235.318,-83.2065 241.674,-86.1383"/>
</g>
<!-- Node15&#45;&gt;Node10 -->
<g id="edge22" class="edge"><title>Node15&#45;&gt;Node10</title>
<path fill="none" stroke="midnightblue" d="M285.038,-336.274C312.059,-315.173 384.135,-260.439 450,-224 473.034,-211.256 500.402,-199.541 521.281,-191.26"/>
<polygon fill="midnightblue" stroke="midnightblue" points="522.627,-194.491 530.669,-187.593 520.081,-187.971 522.627,-194.491"/>
</g>
<!-- Node15&#45;&gt;Node11 -->
<g id="edge24" class="edge"><title>Node15&#45;&gt;Node11</title>
<path fill="none" stroke="midnightblue" d="M279.479,-336.409C296.55,-309.933 350.945,-227.777 406,-168 415.874,-157.279 428.084,-146.434 438.08,-138.078"/>
<polygon fill="midnightblue" stroke="midnightblue" points="440.344,-140.749 445.857,-131.701 435.905,-135.335 440.344,-140.749"/>
</g>
<!-- Node16 -->
<g id="node16" class="node"><title>Node16</title>
<g id="a_node16"><a xlink:href="../../d9/d8a/_new_8h.html" target="_top" xlink:title="New operators defined for Arduino boards and for other boards use the normal new. ...">
<polygon fill="white" stroke="black" points="243.5,-280.5 243.5,-299.5 288.5,-299.5 288.5,-280.5 243.5,-280.5"/>
<text text-anchor="middle" x="266" y="-287.5" font-family="Helvetica,sans-Serif" font-size="10.00">New.h</text>
</a>
</g>
</g>
<!-- Node15&#45;&gt;Node16 -->
<g id="edge25" class="edge"><title>Node15&#45;&gt;Node16</title>
<path fill="none" stroke="midnightblue" d="M272.679,-336.083C271.619,-328.927 270.094,-318.635 268.769,-309.691"/>
<polygon fill="midnightblue" stroke="midnightblue" points="272.224,-309.13 267.296,-299.751 265.3,-310.156 272.224,-309.13"/>
</g>
<!-- Node17&#45;&gt;Node4 -->
<g id="edge27" class="edge"><title>Node17&#45;&gt;Node4</title>
<path fill="none" stroke="midnightblue" d="M649.229,-452.898C691.573,-445.396 776.929,-428.695 802,-412 858.008,-374.705 893,-358.289 893,-291 893,-291 893,-291 893,-177 893,-146.205 893.615,-130.506 869,-112 822.658,-77.1599 418.408,-69.1181 287.629,-67.4208"/>
<polygon fill="midnightblue" stroke="midnightblue" points="287.66,-63.9211 277.618,-67.2965 287.573,-70.9205 287.66,-63.9211"/>
</g>
<!-- Node17&#45;&gt;Node6 -->
<g id="edge30" class="edge"><title>Node17&#45;&gt;Node6</title>
<path fill="none" stroke="midnightblue" d="M600.874,-453.288C545.511,-444.771 408.129,-423.635 330.236,-411.652"/>
<polygon fill="midnightblue" stroke="midnightblue" points="330.533,-408.156 320.117,-410.095 329.468,-415.075 330.533,-408.156"/>
</g>
<!-- Node17&#45;&gt;Node14 -->
<g id="edge29" class="edge"><title>Node17&#45;&gt;Node14</title>
<path fill="none" stroke="midnightblue" d="M625.168,-448.106C625.522,-435.527 626.618,-411.86 630,-392 631.512,-383.123 633.98,-373.452 636.285,-365.359"/>
<polygon fill="midnightblue" stroke="midnightblue" points="639.715,-366.107 639.224,-355.523 633.008,-364.103 639.715,-366.107"/>
</g>
<!-- Node18 -->
<g id="node18" class="node"><title>Node18</title>
<g id="a_node18"><a xlink:href="../../d2/ddf/_wlib_config_8h.html" target="_top" xlink:title="Some basic definitions for compilers. ">
<polygon fill="white" stroke="black" points="639,-392.5 639,-411.5 721,-411.5 721,-392.5 639,-392.5"/>
<text text-anchor="middle" x="680" y="-399.5" font-family="Helvetica,sans-Serif" font-size="10.00">../WlibConfig.h</text>
</a>
</g>
</g>
<!-- Node17&#45;&gt;Node18 -->
<g id="edge28" class="edge"><title>Node17&#45;&gt;Node18</title>
<path fill="none" stroke="midnightblue" d="M634.082,-448.083C642.171,-440.141 654.195,-428.335 663.91,-418.797"/>
<polygon fill="midnightblue" stroke="midnightblue" points="666.403,-421.254 671.087,-411.751 661.499,-416.26 666.403,-421.254"/>
</g>
<!-- Node19&#45;&gt;Node2 -->
<g id="edge33" class="edge"><title>Node19&#45;&gt;Node2</title>
<path fill="none" stroke="midnightblue" d="M524.929,-511.424C442.72,-507.465 235.316,-495.392 64,-468 62.7263,-467.796 61.4323,-467.575 60.1276,-467.339"/>
<polygon fill="midnightblue" stroke="midnightblue" points="60.5701,-463.858 50.0762,-465.317 59.1895,-470.721 60.5701,-463.858"/>
</g>
<!-- Node19&#45;&gt;Node3 -->
<g id="edge32" class="edge"><title>Node19&#45;&gt;Node3</title>
<path fill="none" stroke="midnightblue" d="M524.864,-507.507C460.276,-496.594 322.141,-468.233 219,-412 185.521,-393.747 176.956,-386.448 154,-356 143.255,-341.748 135.124,-323.031 130.057,-309.344"/>
<polygon fill="midnightblue" stroke="midnightblue" points="133.263,-307.91 126.657,-299.626 126.656,-310.221 133.263,-307.91"/>
</g>
<!-- Node19&#45;&gt;Node4 -->
<g id="edge36" class="edge"><title>Node19&#45;&gt;Node4</title>
<path fill="none" stroke="midnightblue" d="M524.643,-509.991C473.342,-505.024 377.237,-493.055 299,-468 161.016,-423.811 71,-379.887 71,-235 71,-235 71,-235 71,-177 71,-113.493 154.424,-85.2919 206.401,-73.8848"/>
<polygon fill="midnightblue" stroke="midnightblue" points="207.263,-77.2806 216.343,-71.8218 205.841,-70.4266 207.263,-77.2806"/>
</g>
<!-- Node19&#45;&gt;Node9 -->
<g id="edge35" class="edge"><title>Node19&#45;&gt;Node9</title>
<path fill="none" stroke="midnightblue" d="M561.981,-504.415C565.038,-478.619 575.212,-399.649 592,-336 599.807,-306.4 612.439,-273.152 620.476,-253.157"/>
<polygon fill="midnightblue" stroke="midnightblue" points="623.773,-254.34 624.309,-243.758 617.292,-251.696 623.773,-254.34"/>
</g>
<!-- Node19&#45;&gt;Node10 -->
<g id="edge40" class="edge"><title>Node19&#45;&gt;Node10</title>
<path fill="none" stroke="midnightblue" d="M560.828,-504.489C560.123,-469.698 557.383,-334.882 555,-224 554.815,-215.398 554.604,-205.87 554.424,-197.805"/>
<polygon fill="midnightblue" stroke="midnightblue" points="557.919,-197.546 554.195,-187.627 550.921,-197.703 557.919,-197.546"/>
</g>
<!-- Node19&#45;&gt;Node17 -->
<g id="edge34" class="edge"><title>Node19&#45;&gt;Node17</title>
<path fill="none" stroke="midnightblue" d="M571.283,-504.324C580.836,-496.263 595.28,-484.077 606.784,-474.369"/>
<polygon fill="midnightblue" stroke="midnightblue" points="609.144,-476.958 614.53,-467.834 604.63,-471.608 609.144,-476.958"/>
</g>
<!-- Node20 -->
<g id="node20" class="node"><title>Node20</title>
<g id="a_node20"><a xlink:href="../../d7/d2f/_exceptions_8h.html" target="_top" xlink:title="Implementation of Exceptions using C style. ">
<polygon fill="white" stroke="black" points="699.5,-448.5 699.5,-467.5 832.5,-467.5 832.5,-448.5 699.5,-448.5"/>
<text text-anchor="middle" x="766" y="-455.5" font-family="Helvetica,sans-Serif" font-size="10.00">../exceptions/Exceptions.h</text>
</a>
</g>
</g>
<!-- Node19&#45;&gt;Node20 -->
<g id="edge37" class="edge"><title>Node19&#45;&gt;Node20</title>
<path fill="none" stroke="midnightblue" d="M593.483,-504.444C628.72,-495.162 685.104,-480.309 723.759,-470.127"/>
<polygon fill="midnightblue" stroke="midnightblue" points="724.891,-473.448 733.669,-467.516 723.107,-466.679 724.891,-473.448"/>
</g>
<!-- Node20&#45;&gt;Node4 -->
<g id="edge39" class="edge"><title>Node20&#45;&gt;Node4</title>
<path fill="none" stroke="midnightblue" d="M774.859,-448.185C797.371,-424.802 855,-358.362 855,-291 855,-291 855,-291 855,-177 855,-119.173 423.629,-80.7189 287.586,-70.0293"/>
<polygon fill="midnightblue" stroke="midnightblue" points="287.809,-66.5361 277.567,-69.2505 287.266,-73.5151 287.809,-66.5361"/>
</g>
<!-- Node21 -->
<g id="node21" class="node"><title>Node21</title>
<polygon fill="white" stroke="#bfbfbf" points="739,-392.5 739,-411.5 793,-411.5 793,-392.5 739,-392.5"/>
<text text-anchor="middle" x="766" y="-399.5" font-family="Helvetica,sans-Serif" font-size="10.00">setjmp.h</text>
</g>
<!-- Node20&#45;&gt;Node21 -->
<g id="edge38" class="edge"><title>Node20&#45;&gt;Node21</title>
<path fill="none" stroke="midnightblue" d="M766,-448.083C766,-441.006 766,-430.861 766,-421.986"/>
<polygon fill="midnightblue" stroke="midnightblue" points="769.5,-421.751 766,-411.751 762.5,-421.751 769.5,-421.751"/>
</g>
<!-- Node22&#45;&gt;Node11 -->
<g id="edge46" class="edge"><title>Node22&#45;&gt;Node11</title>
<path fill="none" stroke="midnightblue" d="M801.012,-336.279C799.165,-323.077 794.206,-297.685 782,-280 735.544,-212.693 709.745,-203.355 636,-168 587.743,-144.864 526.265,-132.763 489.356,-127.145"/>
<polygon fill="midnightblue" stroke="midnightblue" points="489.58,-123.641 479.18,-125.667 488.573,-130.569 489.58,-123.641"/>
</g>
<!-- Node22&#45;&gt;Node23 -->
<g id="edge43" class="edge"><title>Node22&#45;&gt;Node23</title>
<path fill="none" stroke="midnightblue" d="M793.248,-336.083C785.53,-328.22 774.095,-316.569 764.783,-307.081"/>
<polygon fill="midnightblue" stroke="midnightblue" points="767.092,-304.436 757.589,-299.751 762.096,-309.34 767.092,-304.436"/>
</g>
<!-- Node23&#45;&gt;Node9 -->
<g id="edge44" class="edge"><title>Node23&#45;&gt;Node9</title>
<path fill="none" stroke="midnightblue" d="M729.827,-280.444C710.091,-271.636 679.115,-257.812 656.507,-247.722"/>
<polygon fill="midnightblue" stroke="midnightblue" points="657.641,-244.396 647.083,-243.516 654.789,-250.788 657.641,-244.396"/>
</g>
<!-- Node23&#45;&gt;Node11 -->
<g id="edge45" class="edge"><title>Node23&#45;&gt;Node11</title>
<path fill="none" stroke="midnightblue" d="M741.21,-280.297C721.039,-258.275 664.578,-199.833 606,-168 568.35,-147.54 520.173,-135.161 488.956,-128.702"/>
<polygon fill="midnightblue" stroke="midnightblue" points="489.55,-125.252 479.059,-126.735 488.185,-132.117 489.55,-125.252"/>
</g>
</g>
</svg>
