<?xml version="1.0" encoding="UTF-8" standalone="no"?>
<!DOCTYPE svg PUBLIC "-//W3C//DTD SVG 1.1//EN"
 "http://www.w3.org/Graphics/SVG/1.1/DTD/svg11.dtd">
<!-- Generated by graphviz version 2.36.0 (20140111.2315)
 -->
<!-- Title: wlib/stl/Array2D.h Pages: 1 -->
<svg width="335pt" height="252pt"
 viewBox="0.00 0.00 335.00 252.00" xmlns="http://www.w3.org/2000/svg" xmlns:xlink="http://www.w3.org/1999/xlink">
<g id="graph0" class="graph" transform="scale(1 1) rotate(0) translate(4 248)">
<title>wlib/stl/Array2D.h</title>
<polygon fill="white" stroke="none" points="-4,4 -4,-248 331,-248 331,4 -4,4"/>
<!-- Node1 -->
<g id="node1" class="node"><title>Node1</title>
<polygon fill="#bfbfbf" stroke="black" points="59.5,-224.5 59.5,-243.5 154.5,-243.5 154.5,-224.5 59.5,-224.5"/>
<text text-anchor="middle" x="107" y="-231.5" font-family="Helvetica,sans-Serif" font-size="10.00">wlib/stl/Array2D.h</text>
</g>
<!-- Node2 -->
<g id="node2" class="node"><title>Node2</title>
<polygon fill="white" stroke="#bfbfbf" points="-0.5,-168.5 -0.5,-187.5 48.5,-187.5 48.5,-168.5 -0.5,-168.5"/>
<text text-anchor="middle" x="24" y="-175.5" font-family="Helvetica,sans-Serif" font-size="10.00">string.h</text>
</g>
<!-- Node1&#45;&gt;Node2 -->
<g id="edge1" class="edge"><title>Node1&#45;&gt;Node2</title>
<path fill="none" stroke="midnightblue" d="M93.6646,-224.324C80.838,-215.979 61.215,-203.212 46.0602,-193.352"/>
<polygon fill="midnightblue" stroke="midnightblue" points="47.5932,-190.174 37.3023,-187.655 43.7757,-196.042 47.5932,-190.174"/>
</g>
<!-- Node3 -->
<g id="node3" class="node"><title>Node3</title>
<g id="a_node3"><a xlink:href="../../d0/db6/_types_8h.html" target="_top" xlink:title="type definition of all the string types we will be using ">
<polygon fill="white" stroke="black" points="126,-56.5 126,-75.5 198,-75.5 198,-56.5 126,-56.5"/>
<text text-anchor="middle" x="162" y="-63.5" font-family="Helvetica,sans-Serif" font-size="10.00">wlib/Types.h</text>
</a>
</g>
</g>
<!-- Node1&#45;&gt;Node3 -->
<g id="edge2" class="edge"><title>Node1&#45;&gt;Node3</title>
<path fill="none" stroke="midnightblue" d="M103.208,-224.457C94.6322,-203.76 75.992,-149.858 96,-112 103.424,-97.9533 117.421,-87.4667 130.621,-80.167"/>
<polygon fill="midnightblue" stroke="midnightblue" points="132.223,-83.2788 139.541,-75.6178 129.043,-77.0428 132.223,-83.2788"/>
</g>
<!-- Node5 -->
<g id="node5" class="node"><title>Node5</title>
<g id="a_node5"><a xlink:href="../../d6/d22/_initializer_list_8h.html" target="_top" xlink:title="wlib/stl/InitializerList.h">
<polygon fill="white" stroke="black" points="105.5,-112.5 105.5,-131.5 218.5,-131.5 218.5,-112.5 105.5,-112.5"/>
<text text-anchor="middle" x="162" y="-119.5" font-family="Helvetica,sans-Serif" font-size="10.00">wlib/stl/InitializerList.h</text>
</a>
</g>
</g>
<!-- Node1&#45;&gt;Node5 -->
<g id="edge4" class="edge"><title>Node1&#45;&gt;Node5</title>
<path fill="none" stroke="midnightblue" d="M111.316,-224.368C120.312,-206.376 141.225,-164.55 153.187,-140.627"/>
<polygon fill="midnightblue" stroke="midnightblue" points="156.363,-142.101 157.704,-131.591 150.102,-138.97 156.363,-142.101"/>
</g>
<!-- Node6 -->
<g id="node6" class="node"><title>Node6</title>
<g id="a_node6"><a xlink:href="../../db/d2a/_utility_8h.html" target="_top" xlink:title="Various helper functions. ">
<polygon fill="white" stroke="black" points="210.5,-168.5 210.5,-187.5 307.5,-187.5 307.5,-168.5 210.5,-168.5"/>
<text text-anchor="middle" x="259" y="-175.5" font-family="Helvetica,sans-Serif" font-size="10.00">wlib/utility/Utility.h</text>
</a>
</g>
</g>
<!-- Node1&#45;&gt;Node6 -->
<g id="edge6" class="edge"><title>Node1&#45;&gt;Node6</title>
<path fill="none" stroke="midnightblue" d="M131.085,-224.444C156.545,-215.399 196.894,-201.064 225.459,-190.916"/>
<polygon fill="midnightblue" stroke="midnightblue" points="226.777,-194.162 235.028,-187.516 224.433,-187.566 226.777,-194.162"/>
</g>
<!-- Node4 -->
<g id="node4" class="node"><title>Node4</title>
<polygon fill="white" stroke="#bfbfbf" points="137.5,-0.5 137.5,-19.5 186.5,-19.5 186.5,-0.5 137.5,-0.5"/>
<text text-anchor="middle" x="162" y="-7.5" font-family="Helvetica,sans-Serif" font-size="10.00">stdint.h</text>
</g>
<!-- Node3&#45;&gt;Node4 -->
<g id="edge3" class="edge"><title>Node3&#45;&gt;Node4</title>
<path fill="none" stroke="midnightblue" d="M162,-56.083C162,-49.0059 162,-38.8611 162,-29.9865"/>
<polygon fill="midnightblue" stroke="midnightblue" points="165.5,-29.751 162,-19.7511 158.5,-29.7511 165.5,-29.751"/>
</g>
<!-- Node5&#45;&gt;Node3 -->
<g id="edge5" class="edge"><title>Node5&#45;&gt;Node3</title>
<path fill="none" stroke="midnightblue" d="M162,-112.083C162,-105.006 162,-94.8611 162,-85.9865"/>
<polygon fill="midnightblue" stroke="midnightblue" points="165.5,-85.751 162,-75.7511 158.5,-85.7511 165.5,-85.751"/>
</g>
<!-- Node7 -->
<g id="node7" class="node"><title>Node7</title>
<g id="a_node7"><a xlink:href="../../d2/d37/_tmp_8h.html" target="_top" xlink:title="Template helper types, structs, and metafunctions. ">
<polygon fill="white" stroke="black" points="236.5,-112.5 236.5,-131.5 327.5,-131.5 327.5,-112.5 236.5,-112.5"/>
<text text-anchor="middle" x="282" y="-119.5" font-family="Helvetica,sans-Serif" font-size="10.00">wlib/utility/Tmp.h</text>
</a>
</g>
</g>
<!-- Node6&#45;&gt;Node7 -->
<g id="edge7" class="edge"><title>Node6&#45;&gt;Node7</title>
<path fill="none" stroke="midnightblue" d="M262.798,-168.083C265.913,-160.77 270.423,-150.181 274.289,-141.103"/>
<polygon fill="midnightblue" stroke="midnightblue" points="277.574,-142.323 278.273,-131.751 271.134,-139.58 277.574,-142.323"/>
</g>
<!-- Node7&#45;&gt;Node3 -->
<g id="edge8" class="edge"><title>Node7&#45;&gt;Node3</title>
<path fill="none" stroke="midnightblue" d="M262.986,-112.444C243.412,-103.636 212.692,-89.8116 190.271,-79.722"/>
<polygon fill="midnightblue" stroke="midnightblue" points="191.481,-76.4284 180.925,-75.5164 188.608,-82.8119 191.481,-76.4284"/>
</g>
</g>
</svg>
