<?xml version="1.0" encoding="UTF-8" standalone="no"?>
<!DOCTYPE svg PUBLIC "-//W3C//DTD SVG 1.1//EN"
 "http://www.w3.org/Graphics/SVG/1.1/DTD/svg11.dtd">
<!-- Generated by graphviz version 2.36.0 (20140111.2315)
 -->
<!-- Title: wlib/stl/RedBlackTree.h Pages: 1 -->
<svg width="900pt" height="588pt"
 viewBox="0.00 0.00 900.00 588.00" xmlns="http://www.w3.org/2000/svg" xmlns:xlink="http://www.w3.org/1999/xlink">
<g id="graph0" class="graph" transform="scale(1 1) rotate(0) translate(4 584)">
<title>wlib/stl/RedBlackTree.h</title>
<polygon fill="white" stroke="none" points="-4,4 -4,-584 896,-584 896,4 -4,4"/>
<!-- Node1 -->
<g id="node1" class="node"><title>Node1</title>
<polygon fill="#bfbfbf" stroke="black" points="563.5,-560.5 563.5,-579.5 684.5,-579.5 684.5,-560.5 563.5,-560.5"/>
<text text-anchor="middle" x="624" y="-567.5" font-family="Helvetica,sans-Serif" font-size="10.00">wlib/stl/RedBlackTree.h</text>
</g>
<!-- Node2 -->
<g id="node2" class="node"><title>Node2</title>
<g id="a_node2"><a xlink:href="../../d7/d0c/_comparator_8h.html" target="_top" xlink:title="Comparator implementation for basic types. ">
<polygon fill="white" stroke="black" points="351,-504.5 351,-523.5 461,-523.5 461,-504.5 351,-504.5"/>
<text text-anchor="middle" x="406" y="-511.5" font-family="Helvetica,sans-Serif" font-size="10.00">wlib/stl/Comparator.h</text>
</a>
</g>
</g>
<!-- Node1&#45;&gt;Node2 -->
<g id="edge1" class="edge"><title>Node1&#45;&gt;Node2</title>
<path fill="none" stroke="midnightblue" d="M589.457,-560.444C551.747,-551.102 491.26,-536.119 450.135,-525.933"/>
<polygon fill="midnightblue" stroke="midnightblue" points="450.929,-522.524 440.381,-523.516 449.246,-529.318 450.929,-522.524"/>
</g>
<!-- Node4 -->
<g id="node4" class="node"><title>Node4</title>
<g id="a_node4"><a xlink:href="../../d0/db6/_types_8h.html" target="_top" xlink:title="type definition of all the string types we will be using ">
<polygon fill="white" stroke="black" points="497,-56.5 497,-75.5 569,-75.5 569,-56.5 497,-56.5"/>
<text text-anchor="middle" x="533" y="-63.5" font-family="Helvetica,sans-Serif" font-size="10.00">wlib/Types.h</text>
</a>
</g>
</g>
<!-- Node1&#45;&gt;Node4 -->
<g id="edge31" class="edge"><title>Node1&#45;&gt;Node4</title>
<path fill="none" stroke="midnightblue" d="M639.852,-560.439C667.119,-544.425 720,-507.16 720,-459 720,-459 720,-459 720,-177 720,-111.756 634.385,-84.443 579.015,-73.601"/>
<polygon fill="midnightblue" stroke="midnightblue" points="579.525,-70.136 569.055,-71.7628 578.254,-77.0198 579.525,-70.136"/>
</g>
<!-- Node11 -->
<g id="node11" class="node"><title>Node11</title>
<g id="a_node11"><a xlink:href="../../d4/dda/_pair_8h.html" target="_top" xlink:title="Implementation of a 2&#45;element tuple. ">
<polygon fill="white" stroke="black" points="319,-224.5 319,-243.5 395,-243.5 395,-224.5 319,-224.5"/>
<text text-anchor="middle" x="357" y="-231.5" font-family="Helvetica,sans-Serif" font-size="10.00">wlib/stl/Pair.h</text>
</a>
</g>
</g>
<!-- Node1&#45;&gt;Node11 -->
<g id="edge30" class="edge"><title>Node1&#45;&gt;Node11</title>
<path fill="none" stroke="midnightblue" d="M617.132,-560.408C581.573,-515.927 418.202,-311.56 370.261,-251.588"/>
<polygon fill="midnightblue" stroke="midnightblue" points="372.801,-249.161 363.823,-243.535 367.333,-253.531 372.801,-249.161"/>
</g>
<!-- Node12 -->
<g id="node12" class="node"><title>Node12</title>
<g id="a_node12"><a xlink:href="../../db/d2a/_utility_8h.html" target="_top" xlink:title="Various helper functions. ">
<polygon fill="white" stroke="black" points="488,-168.5 488,-187.5 574,-187.5 574,-168.5 488,-168.5"/>
<text text-anchor="middle" x="531" y="-175.5" font-family="Helvetica,sans-Serif" font-size="10.00">wlib/util/Utility.h</text>
</a>
</g>
</g>
<!-- Node1&#45;&gt;Node12 -->
<g id="edge33" class="edge"><title>Node1&#45;&gt;Node12</title>
<path fill="none" stroke="midnightblue" d="M626.697,-560.258C632.156,-541.765 644,-497.238 644,-459 644,-459 644,-459 644,-345 644,-279.394 582.939,-220.541 550.588,-193.964"/>
<polygon fill="midnightblue" stroke="midnightblue" points="552.663,-191.142 542.667,-187.63 548.292,-196.609 552.663,-191.142"/>
</g>
<!-- Node16 -->
<g id="node16" class="node"><title>Node16</title>
<g id="a_node16"><a xlink:href="../../d3/de6/_memory_8h.html" target="_top" xlink:title="Memory is a class that provides dynamic fixed size memory. ">
<polygon fill="white" stroke="black" points="472.5,-336.5 472.5,-355.5 577.5,-355.5 577.5,-336.5 472.5,-336.5"/>
<text text-anchor="middle" x="525" y="-343.5" font-family="Helvetica,sans-Serif" font-size="10.00">wlib/mem/Memory.h</text>
</a>
</g>
</g>
<!-- Node1&#45;&gt;Node16 -->
<g id="edge32" class="edge"><title>Node1&#45;&gt;Node16</title>
<path fill="none" stroke="midnightblue" d="M620.119,-560.297C605.46,-527.425 553.269,-410.391 533.067,-365.09"/>
<polygon fill="midnightblue" stroke="midnightblue" points="536.231,-363.591 528.962,-355.884 529.838,-366.442 536.231,-363.591"/>
</g>
<!-- Node18 -->
<g id="node18" class="node"><title>Node18</title>
<g id="a_node18"><a xlink:href="../../d7/d2f/_exceptions_8h.html" target="_top" xlink:title="Implementation of Exceptions using C style. ">
<polygon fill="white" stroke="black" points="748,-504.5 748,-523.5 892,-523.5 892,-504.5 748,-504.5"/>
<text text-anchor="middle" x="820" y="-511.5" font-family="Helvetica,sans-Serif" font-size="10.00">wlib/exceptions/Exceptions.h</text>
</a>
</g>
</g>
<!-- Node1&#45;&gt;Node18 -->
<g id="edge34" class="edge"><title>Node1&#45;&gt;Node18</title>
<path fill="none" stroke="midnightblue" d="M655.057,-560.444C688.603,-551.201 742.197,-536.436 779.141,-526.257"/>
<polygon fill="midnightblue" stroke="midnightblue" points="780.377,-529.547 789.089,-523.516 778.518,-522.798 780.377,-529.547"/>
</g>
<!-- Node3 -->
<g id="node3" class="node"><title>Node3</title>
<polygon fill="white" stroke="#bfbfbf" points="306.5,-280.5 306.5,-299.5 355.5,-299.5 355.5,-280.5 306.5,-280.5"/>
<text text-anchor="middle" x="331" y="-287.5" font-family="Helvetica,sans-Serif" font-size="10.00">string.h</text>
</g>
<!-- Node2&#45;&gt;Node3 -->
<g id="edge2" class="edge"><title>Node2&#45;&gt;Node3</title>
<path fill="none" stroke="midnightblue" d="M403.385,-504.136C399.659,-491.594 392.547,-467.97 386,-448 369.58,-397.914 364.496,-385.721 347,-336 343.9,-327.19 340.43,-317.42 337.516,-309.242"/>
<polygon fill="midnightblue" stroke="midnightblue" points="340.741,-307.863 334.084,-299.621 334.148,-310.216 340.741,-307.863"/>
</g>
<!-- Node2&#45;&gt;Node4 -->
<g id="edge3" class="edge"><title>Node2&#45;&gt;Node4</title>
<path fill="none" stroke="midnightblue" d="M426.745,-504.366C490.932,-476.117 682,-379.862 682,-235 682,-235 682,-235 682,-177 682,-123.94 620.088,-93.5788 576.081,-78.7"/>
<polygon fill="midnightblue" stroke="midnightblue" points="577.03,-75.3285 566.439,-75.5867 574.879,-81.99 577.03,-75.3285"/>
</g>
<!-- Node6 -->
<g id="node6" class="node"><title>Node6</title>
<g id="a_node6"><a xlink:href="../../d2/dc2/_equal_8h.html" target="_top" xlink:title="wlib/stl/Equal.h">
<polygon fill="white" stroke="black" points="294.5,-448.5 294.5,-467.5 377.5,-467.5 377.5,-448.5 294.5,-448.5"/>
<text text-anchor="middle" x="336" y="-455.5" font-family="Helvetica,sans-Serif" font-size="10.00">wlib/stl/Equal.h</text>
</a>
</g>
</g>
<!-- Node2&#45;&gt;Node6 -->
<g id="edge5" class="edge"><title>Node2&#45;&gt;Node6</title>
<path fill="none" stroke="midnightblue" d="M394.753,-504.324C384.203,-496.185 368.199,-483.839 355.558,-474.087"/>
<polygon fill="midnightblue" stroke="midnightblue" points="357.507,-471.171 347.451,-467.834 353.231,-476.713 357.507,-471.171"/>
</g>
<!-- Node7 -->
<g id="node7" class="node"><title>Node7</title>
<g id="a_node7"><a xlink:href="../../db/db5/_string_8h.html" target="_top" xlink:title="wlib/strings/String.h">
<polygon fill="white" stroke="black" points="214.5,-392.5 214.5,-411.5 317.5,-411.5 317.5,-392.5 214.5,-392.5"/>
<text text-anchor="middle" x="266" y="-399.5" font-family="Helvetica,sans-Serif" font-size="10.00">wlib/strings/String.h</text>
</a>
</g>
</g>
<!-- Node2&#45;&gt;Node7 -->
<g id="edge29" class="edge"><title>Node2&#45;&gt;Node7</title>
<path fill="none" stroke="midnightblue" d="M352.91,-504.42C329.218,-498.054 302.713,-487.031 285,-468 273.37,-455.505 268.82,-436.276 267.061,-421.97"/>
<polygon fill="midnightblue" stroke="midnightblue" points="270.527,-421.431 266.166,-411.775 263.554,-422.043 270.527,-421.431"/>
</g>
<!-- Node5 -->
<g id="node5" class="node"><title>Node5</title>
<polygon fill="white" stroke="#bfbfbf" points="508.5,-0.5 508.5,-19.5 557.5,-19.5 557.5,-0.5 508.5,-0.5"/>
<text text-anchor="middle" x="533" y="-7.5" font-family="Helvetica,sans-Serif" font-size="10.00">stdint.h</text>
</g>
<!-- Node4&#45;&gt;Node5 -->
<g id="edge4" class="edge"><title>Node4&#45;&gt;Node5</title>
<path fill="none" stroke="midnightblue" d="M533,-56.083C533,-49.0059 533,-38.8611 533,-29.9865"/>
<polygon fill="midnightblue" stroke="midnightblue" points="536.5,-29.751 533,-19.7511 529.5,-29.7511 536.5,-29.751"/>
</g>
<!-- Node6&#45;&gt;Node3 -->
<g id="edge6" class="edge"><title>Node6&#45;&gt;Node3</title>
<path fill="none" stroke="midnightblue" d="M335.731,-448.075C334.944,-421.945 332.633,-345.211 331.56,-309.577"/>
<polygon fill="midnightblue" stroke="midnightblue" points="335.058,-309.458 331.258,-299.568 328.061,-309.669 335.058,-309.458"/>
</g>
<!-- Node6&#45;&gt;Node4 -->
<g id="edge7" class="edge"><title>Node6&#45;&gt;Node4</title>
<path fill="none" stroke="midnightblue" d="M294.463,-452.281C204.566,-440.911 0,-408.303 0,-347 0,-347 0,-347 0,-177 0,-135.192 29.9916,-129.416 68,-112 141.781,-78.1928 384.38,-69.7422 486.762,-67.6638"/>
<polygon fill="midnightblue" stroke="midnightblue" points="486.87,-71.1625 496.802,-67.4715 486.736,-64.1638 486.87,-71.1625"/>
</g>
<!-- Node6&#45;&gt;Node7 -->
<g id="edge8" class="edge"><title>Node6&#45;&gt;Node7</title>
<path fill="none" stroke="midnightblue" d="M324.753,-448.324C314.203,-440.185 298.199,-427.839 285.558,-418.087"/>
<polygon fill="midnightblue" stroke="midnightblue" points="287.507,-415.171 277.451,-411.834 283.231,-420.713 287.507,-415.171"/>
</g>
<!-- Node7&#45;&gt;Node3 -->
<g id="edge9" class="edge"><title>Node7&#45;&gt;Node3</title>
<path fill="none" stroke="midnightblue" d="M276.862,-392.444C286.777,-384.109 301.188,-370.591 310,-356 318.717,-341.566 324.23,-323.114 327.408,-309.56"/>
<polygon fill="midnightblue" stroke="midnightblue" points="330.886,-310.032 329.547,-299.522 324.039,-308.573 330.886,-310.032"/>
</g>
<!-- Node7&#45;&gt;Node4 -->
<g id="edge21" class="edge"><title>Node7&#45;&gt;Node4</title>
<path fill="none" stroke="midnightblue" d="M214.048,-395.89C159.763,-389.521 79.4208,-376.855 57,-356 34.9623,-335.501 38,-321.098 38,-291 38,-291 38,-291 38,-177 38,-85.6853 363.063,-70.131 486.349,-67.5156"/>
<polygon fill="midnightblue" stroke="midnightblue" points="486.671,-71.0101 496.601,-67.3183 486.536,-64.0114 486.671,-71.0101"/>
</g>
<!-- Node8 -->
<g id="node8" class="node"><title>Node8</title>
<g id="a_node8"><a xlink:href="../../de/d0b/_string_iterator_8h.html" target="_top" xlink:title="wlib/strings/StringIterator.h">
<polygon fill="white" stroke="black" points="66,-336.5 66,-355.5 200,-355.5 200,-336.5 66,-336.5"/>
<text text-anchor="middle" x="133" y="-343.5" font-family="Helvetica,sans-Serif" font-size="10.00">wlib/strings/StringIterator.h</text>
</a>
</g>
</g>
<!-- Node7&#45;&gt;Node8 -->
<g id="edge10" class="edge"><title>Node7&#45;&gt;Node8</title>
<path fill="none" stroke="midnightblue" d="M244.926,-392.444C222.94,-383.517 188.266,-369.439 163.336,-359.317"/>
<polygon fill="midnightblue" stroke="midnightblue" points="164.558,-356.035 153.976,-355.516 161.924,-362.521 164.558,-356.035"/>
</g>
<!-- Node15 -->
<g id="node15" class="node"><title>Node15</title>
<g id="a_node15"><a xlink:href="../../da/db8/_math_8h.html" target="_top" xlink:title="wlib/util/Math.h">
<polygon fill="white" stroke="black" points="218.5,-336.5 218.5,-355.5 301.5,-355.5 301.5,-336.5 218.5,-336.5"/>
<text text-anchor="middle" x="260" y="-343.5" font-family="Helvetica,sans-Serif" font-size="10.00">wlib/util/Math.h</text>
</a>
</g>
</g>
<!-- Node7&#45;&gt;Node15 -->
<g id="edge22" class="edge"><title>Node7&#45;&gt;Node15</title>
<path fill="none" stroke="midnightblue" d="M265.009,-392.083C264.214,-384.927 263.071,-374.635 262.077,-365.691"/>
<polygon fill="midnightblue" stroke="midnightblue" points="265.555,-365.303 260.972,-355.751 258.598,-366.076 265.555,-365.303"/>
</g>
<!-- Node7&#45;&gt;Node16 -->
<g id="edge23" class="edge"><title>Node7&#45;&gt;Node16</title>
<path fill="none" stroke="midnightblue" d="M307.039,-392.444C352.316,-383.004 425.227,-367.802 474.106,-357.611"/>
<polygon fill="midnightblue" stroke="midnightblue" points="475.078,-360.984 484.153,-355.516 473.649,-354.131 475.078,-360.984"/>
</g>
<!-- Node8&#45;&gt;Node4 -->
<g id="edge11" class="edge"><title>Node8&#45;&gt;Node4</title>
<path fill="none" stroke="midnightblue" d="M132.608,-336.444C131.795,-317.943 130,-272.827 130,-235 130,-235 130,-235 130,-177 130,-103.742 380.972,-77.6036 486.806,-69.8381"/>
<polygon fill="midnightblue" stroke="midnightblue" points="487.155,-73.3222 496.882,-69.1224 486.659,-66.3398 487.155,-73.3222"/>
</g>
<!-- Node9 -->
<g id="node9" class="node"><title>Node9</title>
<g id="a_node9"><a xlink:href="../../d8/dd7/_concept_8h.html" target="_top" xlink:title="Concept definitions. ">
<polygon fill="white" stroke="black" points="193.5,-280.5 193.5,-299.5 288.5,-299.5 288.5,-280.5 193.5,-280.5"/>
<text text-anchor="middle" x="241" y="-287.5" font-family="Helvetica,sans-Serif" font-size="10.00">wlib/stl/Concept.h</text>
</a>
</g>
</g>
<!-- Node8&#45;&gt;Node9 -->
<g id="edge12" class="edge"><title>Node8&#45;&gt;Node9</title>
<path fill="none" stroke="midnightblue" d="M150.352,-336.324C167.672,-327.664 194.515,-314.242 214.502,-304.249"/>
<polygon fill="midnightblue" stroke="midnightblue" points="216.312,-307.257 223.691,-299.655 213.181,-300.996 216.312,-307.257"/>
</g>
<!-- Node10 -->
<g id="node10" class="node"><title>Node10</title>
<g id="a_node10"><a xlink:href="../../d2/db4/_wlib_8h.html" target="_top" xlink:title="wlib/Wlib.h">
<polygon fill="white" stroke="black" points="158.5,-224.5 158.5,-243.5 223.5,-243.5 223.5,-224.5 158.5,-224.5"/>
<text text-anchor="middle" x="191" y="-231.5" font-family="Helvetica,sans-Serif" font-size="10.00">wlib/Wlib.h</text>
</a>
</g>
</g>
<!-- Node9&#45;&gt;Node10 -->
<g id="edge13" class="edge"><title>Node9&#45;&gt;Node10</title>
<path fill="none" stroke="midnightblue" d="M232.744,-280.083C225.535,-272.298 214.89,-260.801 206.154,-251.367"/>
<polygon fill="midnightblue" stroke="midnightblue" points="208.465,-248.711 199.103,-243.751 203.329,-253.467 208.465,-248.711"/>
</g>
<!-- Node9&#45;&gt;Node11 -->
<g id="edge14" class="edge"><title>Node9&#45;&gt;Node11</title>
<path fill="none" stroke="midnightblue" d="M259.381,-280.444C278.216,-271.675 307.731,-257.935 329.379,-247.858"/>
<polygon fill="midnightblue" stroke="midnightblue" points="331.117,-250.91 338.705,-243.516 328.162,-244.564 331.117,-250.91"/>
</g>
<!-- Node13 -->
<g id="node13" class="node"><title>Node13</title>
<g id="a_node13"><a xlink:href="../../d2/d37/_tmp_8h.html" target="_top" xlink:title="Template helper types, structs, and metafunctions. ">
<polygon fill="white" stroke="black" points="383,-112.5 383,-131.5 463,-131.5 463,-112.5 383,-112.5"/>
<text text-anchor="middle" x="423" y="-119.5" font-family="Helvetica,sans-Serif" font-size="10.00">wlib/util/Tmp.h</text>
</a>
</g>
</g>
<!-- Node9&#45;&gt;Node13 -->
<g id="edge20" class="edge"><title>Node9&#45;&gt;Node13</title>
<path fill="none" stroke="midnightblue" d="M250.302,-280.09C263.489,-267.494 288.416,-243.806 310,-224 343.522,-193.239 383.312,-157.955 405.609,-138.291"/>
<polygon fill="midnightblue" stroke="midnightblue" points="408.059,-140.798 413.249,-131.562 403.432,-135.545 408.059,-140.798"/>
</g>
<!-- Node14 -->
<g id="node14" class="node"><title>Node14</title>
<g id="a_node14"><a xlink:href="../../d4/dd5/_type_traits_8h.html" target="_top" xlink:title="Metafunctions for types. ">
<polygon fill="white" stroke="black" points="158.5,-168.5 158.5,-187.5 263.5,-187.5 263.5,-168.5 158.5,-168.5"/>
<text text-anchor="middle" x="211" y="-175.5" font-family="Helvetica,sans-Serif" font-size="10.00">wlib/stl/TypeTraits.h</text>
</a>
</g>
</g>
<!-- Node9&#45;&gt;Node14 -->
<g id="edge18" class="edge"><title>Node9&#45;&gt;Node14</title>
<path fill="none" stroke="midnightblue" d="M240.627,-280.415C239.897,-267.812 237.807,-243.667 232,-224 229.223,-214.595 224.768,-204.663 220.674,-196.53"/>
<polygon fill="midnightblue" stroke="midnightblue" points="223.756,-194.871 215.997,-187.657 217.564,-198.135 223.756,-194.871"/>
</g>
<!-- Node11&#45;&gt;Node12 -->
<g id="edge15" class="edge"><title>Node11&#45;&gt;Node12</title>
<path fill="none" stroke="midnightblue" d="M384.571,-224.444C414.097,-215.28 461.118,-200.688 493.883,-190.519"/>
<polygon fill="midnightblue" stroke="midnightblue" points="495.045,-193.823 503.558,-187.516 492.97,-187.138 495.045,-193.823"/>
</g>
<!-- Node12&#45;&gt;Node13 -->
<g id="edge16" class="edge"><title>Node12&#45;&gt;Node13</title>
<path fill="none" stroke="midnightblue" d="M513.648,-168.324C496.328,-159.664 469.485,-146.242 449.498,-136.249"/>
<polygon fill="midnightblue" stroke="midnightblue" points="450.819,-132.996 440.309,-131.655 447.688,-139.257 450.819,-132.996"/>
</g>
<!-- Node13&#45;&gt;Node4 -->
<g id="edge17" class="edge"><title>Node13&#45;&gt;Node4</title>
<path fill="none" stroke="midnightblue" d="M440.673,-112.324C458.394,-103.625 485.903,-90.1202 506.288,-80.113"/>
<polygon fill="midnightblue" stroke="midnightblue" points="507.936,-83.2031 515.37,-75.6545 504.851,-76.9195 507.936,-83.2031"/>
</g>
<!-- Node14&#45;&gt;Node13 -->
<g id="edge19" class="edge"><title>Node14&#45;&gt;Node13</title>
<path fill="none" stroke="midnightblue" d="M244.592,-168.444C281.187,-159.122 339.838,-144.183 379.826,-133.997"/>
<polygon fill="midnightblue" stroke="midnightblue" points="380.739,-137.377 389.565,-131.516 379.011,-130.593 380.739,-137.377"/>
</g>
<!-- Node16&#45;&gt;Node3 -->
<g id="edge24" class="edge"><title>Node16&#45;&gt;Node3</title>
<path fill="none" stroke="midnightblue" d="M494.26,-336.444C459.2,-326.685 402.019,-310.768 365.473,-300.596"/>
<polygon fill="midnightblue" stroke="midnightblue" points="366.32,-297.198 355.748,-297.889 364.443,-303.942 366.32,-297.198"/>
</g>
<!-- Node16&#45;&gt;Node4 -->
<g id="edge25" class="edge"><title>Node16&#45;&gt;Node4</title>
<path fill="none" stroke="midnightblue" d="M535.704,-336.188C545.026,-327.874 558.1,-314.543 565,-300 590.38,-246.506 596.489,-225.653 583,-168 575.64,-136.545 556.976,-103.653 544.65,-84.2602"/>
<polygon fill="midnightblue" stroke="midnightblue" points="547.431,-82.1165 539.031,-75.6593 541.571,-85.9453 547.431,-82.1165"/>
</g>
<!-- Node16&#45;&gt;Node12 -->
<g id="edge26" class="edge"><title>Node16&#45;&gt;Node12</title>
<path fill="none" stroke="midnightblue" d="M531.367,-336.232C537.26,-327.532 545.607,-313.572 549,-300 557.978,-264.086 546.386,-220.983 538.072,-197.131"/>
<polygon fill="midnightblue" stroke="midnightblue" points="541.31,-195.794 534.569,-187.621 534.742,-198.214 541.31,-195.794"/>
</g>
<!-- Node16&#45;&gt;Node13 -->
<g id="edge27" class="edge"><title>Node16&#45;&gt;Node13</title>
<path fill="none" stroke="midnightblue" d="M493.94,-336.479C475.439,-329.714 453.245,-318.282 441,-300 408.106,-250.89 414.332,-176.295 419.573,-141.759"/>
<polygon fill="midnightblue" stroke="midnightblue" points="423.061,-142.117 421.254,-131.677 416.156,-140.965 423.061,-142.117"/>
</g>
<!-- Node17 -->
<g id="node17" class="node"><title>Node17</title>
<g id="a_node17"><a xlink:href="../../d9/d8a/_new_8h.html" target="_top" xlink:title="New operators defined for Arduino boards and for other boards use the normal new. ...">
<polygon fill="white" stroke="black" points="450,-280.5 450,-299.5 540,-299.5 540,-280.5 450,-280.5"/>
<text text-anchor="middle" x="495" y="-287.5" font-family="Helvetica,sans-Serif" font-size="10.00">wlib/mem/New.h</text>
</a>
</g>
</g>
<!-- Node16&#45;&gt;Node17 -->
<g id="edge28" class="edge"><title>Node16&#45;&gt;Node17</title>
<path fill="none" stroke="midnightblue" d="M520.046,-336.083C515.896,-328.613 509.847,-317.724 504.733,-308.52"/>
<polygon fill="midnightblue" stroke="midnightblue" points="507.778,-306.793 499.862,-299.751 501.659,-310.192 507.778,-306.793"/>
</g>
<!-- Node18&#45;&gt;Node4 -->
<g id="edge36" class="edge"><title>Node18&#45;&gt;Node4</title>
<path fill="none" stroke="midnightblue" d="M811.547,-504.438C795.233,-486.962 761,-445.258 761,-403 761,-403 761,-403 761,-177 761,-145.718 757.953,-132.121 734,-112 710.897,-92.5931 630.914,-79.2182 579.078,-72.3556"/>
<polygon fill="midnightblue" stroke="midnightblue" points="579.477,-68.8781 569.111,-71.07 578.581,-75.8206 579.477,-68.8781"/>
</g>
<!-- Node19 -->
<g id="node19" class="node"><title>Node19</title>
<polygon fill="white" stroke="#bfbfbf" points="793,-448.5 793,-467.5 847,-467.5 847,-448.5 793,-448.5"/>
<text text-anchor="middle" x="820" y="-455.5" font-family="Helvetica,sans-Serif" font-size="10.00">setjmp.h</text>
</g>
<!-- Node18&#45;&gt;Node19 -->
<g id="edge35" class="edge"><title>Node18&#45;&gt;Node19</title>
<path fill="none" stroke="midnightblue" d="M820,-504.083C820,-497.006 820,-486.861 820,-477.986"/>
<polygon fill="midnightblue" stroke="midnightblue" points="823.5,-477.751 820,-467.751 816.5,-477.751 823.5,-477.751"/>
</g>
</g>
</svg>
