<?xml version="1.0" encoding="UTF-8" standalone="no"?>
<!DOCTYPE svg PUBLIC "-//W3C//DTD SVG 1.1//EN"
 "http://www.w3.org/Graphics/SVG/1.1/DTD/svg11.dtd">
<!-- Generated by graphviz version 2.36.0 (20140111.2315)
 -->
<!-- Title: stl/RedBlackTree.h Pages: 1 -->
<svg width="581pt" height="588pt"
 viewBox="0.00 0.00 581.00 588.00" xmlns="http://www.w3.org/2000/svg" xmlns:xlink="http://www.w3.org/1999/xlink">
<g id="graph0" class="graph" transform="scale(1 1) rotate(0) translate(4 584)">
<title>stl/RedBlackTree.h</title>
<polygon fill="white" stroke="none" points="-4,4 -4,-584 577,-584 577,4 -4,4"/>
<!-- Node1 -->
<g id="node1" class="node"><title>Node1</title>
<polygon fill="#bfbfbf" stroke="black" points="407.5,-560.5 407.5,-579.5 508.5,-579.5 508.5,-560.5 407.5,-560.5"/>
<text text-anchor="middle" x="458" y="-567.5" font-family="Helvetica,sans-Serif" font-size="10.00">stl/RedBlackTree.h</text>
</g>
<!-- Node2 -->
<g id="node2" class="node"><title>Node2</title>
<g id="a_node2"><a xlink:href="../../d7/d0c/_comparator_8h.html" target="_top" xlink:title="Comparator implementation for basic types. ">
<polygon fill="white" stroke="black" points="269,-504.5 269,-523.5 345,-523.5 345,-504.5 269,-504.5"/>
<text text-anchor="middle" x="307" y="-511.5" font-family="Helvetica,sans-Serif" font-size="10.00">Comparator.h</text>
</a>
</g>
</g>
<!-- Node1&#45;&gt;Node2 -->
<g id="edge1" class="edge"><title>Node1&#45;&gt;Node2</title>
<path fill="none" stroke="midnightblue" d="M434.074,-560.444C408.781,-551.399 368.698,-537.064 340.32,-526.916"/>
<polygon fill="midnightblue" stroke="midnightblue" points="341.409,-523.588 330.814,-523.516 339.052,-530.179 341.409,-523.588"/>
</g>
<!-- Node4 -->
<g id="node4" class="node"><title>Node4</title>
<g id="a_node4"><a xlink:href="../../d0/db6/_types_8h.html" target="_top" xlink:title="type definition of all the string types we will be using ">
<polygon fill="white" stroke="black" points="119,-56.5 119,-75.5 171,-75.5 171,-56.5 119,-56.5"/>
<text text-anchor="middle" x="145" y="-63.5" font-family="Helvetica,sans-Serif" font-size="10.00">Types.h</text>
</a>
</g>
</g>
<!-- Node1&#45;&gt;Node4 -->
<g id="edge30" class="edge"><title>Node1&#45;&gt;Node4</title>
<path fill="none" stroke="midnightblue" d="M478.826,-560.473C511.965,-545.358 573,-510.527 573,-459 573,-459 573,-459 573,-177 573,-96.4183 284.813,-74.0156 181.394,-68.5705"/>
<polygon fill="midnightblue" stroke="midnightblue" points="181.292,-65.0611 171.129,-68.0543 180.941,-72.0522 181.292,-65.0611"/>
</g>
<!-- Node10 -->
<g id="node10" class="node"><title>Node10</title>
<g id="a_node10"><a xlink:href="../../d4/dda/_pair_8h.html" target="_top" xlink:title="Implementation of a 2&#45;element tuple. ">
<polygon fill="white" stroke="black" points="339,-224.5 339,-243.5 381,-243.5 381,-224.5 339,-224.5"/>
<text text-anchor="middle" x="360" y="-231.5" font-family="Helvetica,sans-Serif" font-size="10.00">Pair.h</text>
</a>
</g>
</g>
<!-- Node1&#45;&gt;Node10 -->
<g id="edge29" class="edge"><title>Node1&#45;&gt;Node10</title>
<path fill="none" stroke="midnightblue" d="M452.716,-560.231C442.275,-542.043 420,-498.601 420,-459 420,-459 420,-459 420,-345 420,-307.883 393.346,-271.378 375.569,-251.158"/>
<polygon fill="midnightblue" stroke="midnightblue" points="377.928,-248.552 368.597,-243.535 372.763,-253.276 377.928,-248.552"/>
</g>
<!-- Node11 -->
<g id="node11" class="node"><title>Node11</title>
<g id="a_node11"><a xlink:href="../../db/d2a/_utility_8h.html" target="_top" xlink:title="Various helper functions. ">
<polygon fill="white" stroke="black" points="324,-168.5 324,-187.5 410,-187.5 410,-168.5 324,-168.5"/>
<text text-anchor="middle" x="367" y="-175.5" font-family="Helvetica,sans-Serif" font-size="10.00">../utility/Utility.h</text>
</a>
</g>
</g>
<!-- Node1&#45;&gt;Node11 -->
<g id="edge32" class="edge"><title>Node1&#45;&gt;Node11</title>
<path fill="none" stroke="midnightblue" d="M458,-560.442C458,-541.936 458,-496.812 458,-459 458,-459 458,-459 458,-345 458,-283.379 409.188,-222.978 383.063,-195.063"/>
<polygon fill="midnightblue" stroke="midnightblue" points="385.511,-192.559 376.058,-187.776 380.465,-197.41 385.511,-192.559"/>
</g>
<!-- Node16 -->
<g id="node16" class="node"><title>Node16</title>
<g id="a_node16"><a xlink:href="../../d3/de6/_memory_8h.html" target="_top" xlink:title="Memory is a class that provides dynamic fixed size memory. ">
<polygon fill="white" stroke="black" points="437.5,-224.5 437.5,-243.5 544.5,-243.5 544.5,-224.5 437.5,-224.5"/>
<text text-anchor="middle" x="491" y="-231.5" font-family="Helvetica,sans-Serif" font-size="10.00">../memory/Memory.h</text>
</a>
</g>
</g>
<!-- Node1&#45;&gt;Node16 -->
<g id="edge31" class="edge"><title>Node1&#45;&gt;Node16</title>
<path fill="none" stroke="midnightblue" d="M463.284,-560.231C473.725,-542.043 496,-498.601 496,-459 496,-459 496,-459 496,-345 496,-312.915 493.851,-275.62 492.371,-253.737"/>
<polygon fill="midnightblue" stroke="midnightblue" points="495.847,-253.281 491.654,-243.552 488.865,-253.773 495.847,-253.281"/>
</g>
<!-- Node3 -->
<g id="node3" class="node"><title>Node3</title>
<polygon fill="white" stroke="#bfbfbf" points="342.5,-336.5 342.5,-355.5 391.5,-355.5 391.5,-336.5 342.5,-336.5"/>
<text text-anchor="middle" x="367" y="-343.5" font-family="Helvetica,sans-Serif" font-size="10.00">string.h</text>
</g>
<!-- Node2&#45;&gt;Node3 -->
<g id="edge2" class="edge"><title>Node2&#45;&gt;Node3</title>
<path fill="none" stroke="midnightblue" d="M310.226,-504.075C319.711,-477.832 347.646,-400.545 360.452,-365.117"/>
<polygon fill="midnightblue" stroke="midnightblue" points="363.795,-366.162 363.903,-355.568 357.212,-363.783 363.795,-366.162"/>
</g>
<!-- Node2&#45;&gt;Node4 -->
<g id="edge3" class="edge"><title>Node2&#45;&gt;Node4</title>
<path fill="none" stroke="midnightblue" d="M268.739,-507.544C186.442,-494.732 0,-459.475 0,-403 0,-403 0,-403 0,-177 0,-122.329 66.2358,-91.3109 109.174,-76.9469"/>
<polygon fill="midnightblue" stroke="midnightblue" points="110.281,-80.2676 118.742,-73.8901 108.151,-73.5996 110.281,-80.2676"/>
</g>
<!-- Node6 -->
<g id="node6" class="node"><title>Node6</title>
<g id="a_node6"><a xlink:href="../../d2/dc2/_equal_8h.html" target="_top" xlink:title="stl/Equal.h">
<polygon fill="white" stroke="black" points="215.5,-448.5 215.5,-467.5 278.5,-467.5 278.5,-448.5 215.5,-448.5"/>
<text text-anchor="middle" x="247" y="-455.5" font-family="Helvetica,sans-Serif" font-size="10.00">stl/Equal.h</text>
</a>
</g>
</g>
<!-- Node2&#45;&gt;Node6 -->
<g id="edge5" class="edge"><title>Node2&#45;&gt;Node6</title>
<path fill="none" stroke="midnightblue" d="M297.36,-504.324C288.49,-496.341 275.125,-484.313 264.392,-474.653"/>
<polygon fill="midnightblue" stroke="midnightblue" points="266.59,-471.922 256.815,-467.834 261.907,-477.125 266.59,-471.922"/>
</g>
<!-- Node7 -->
<g id="node7" class="node"><title>Node7</title>
<g id="a_node7"><a xlink:href="../../db/db5/_string_8h.html" target="_top" xlink:title="../strings/String.h">
<polygon fill="white" stroke="black" points="201,-392.5 201,-411.5 293,-411.5 293,-392.5 201,-392.5"/>
<text text-anchor="middle" x="247" y="-399.5" font-family="Helvetica,sans-Serif" font-size="10.00">../strings/String.h</text>
</a>
</g>
</g>
<!-- Node2&#45;&gt;Node7 -->
<g id="edge28" class="edge"><title>Node2&#45;&gt;Node7</title>
<path fill="none" stroke="midnightblue" d="M305.514,-504.112C303.076,-491.132 297.423,-466.521 287,-448 281.002,-437.342 272.132,-427.027 264.267,-418.967"/>
<polygon fill="midnightblue" stroke="midnightblue" points="266.474,-416.229 256.881,-411.73 261.574,-421.229 266.474,-416.229"/>
</g>
<!-- Node5 -->
<g id="node5" class="node"><title>Node5</title>
<polygon fill="white" stroke="#bfbfbf" points="120.5,-0.5 120.5,-19.5 169.5,-19.5 169.5,-0.5 120.5,-0.5"/>
<text text-anchor="middle" x="145" y="-7.5" font-family="Helvetica,sans-Serif" font-size="10.00">stdint.h</text>
</g>
<!-- Node4&#45;&gt;Node5 -->
<g id="edge4" class="edge"><title>Node4&#45;&gt;Node5</title>
<path fill="none" stroke="midnightblue" d="M145,-56.083C145,-49.0059 145,-38.8611 145,-29.9865"/>
<polygon fill="midnightblue" stroke="midnightblue" points="148.5,-29.751 145,-19.7511 141.5,-29.7511 148.5,-29.751"/>
</g>
<!-- Node6&#45;&gt;Node3 -->
<g id="edge6" class="edge"><title>Node6&#45;&gt;Node3</title>
<path fill="none" stroke="midnightblue" d="M258.228,-448.35C269.539,-439.512 287.364,-425.246 302,-412 319.638,-396.038 338.774,-376.626 351.683,-363.194"/>
<polygon fill="midnightblue" stroke="midnightblue" points="354.474,-365.339 358.847,-355.688 349.411,-360.506 354.474,-365.339"/>
</g>
<!-- Node6&#45;&gt;Node4 -->
<g id="edge7" class="edge"><title>Node6&#45;&gt;Node4</title>
<path fill="none" stroke="midnightblue" d="M215.257,-454.671C156.79,-448.471 38,-426.137 38,-347 38,-347 38,-347 38,-177 38,-131.413 85.8026,-97.6237 117.506,-80.2269"/>
<polygon fill="midnightblue" stroke="midnightblue" points="119.148,-83.3179 126.362,-75.5587 115.884,-77.1255 119.148,-83.3179"/>
</g>
<!-- Node6&#45;&gt;Node7 -->
<g id="edge8" class="edge"><title>Node6&#45;&gt;Node7</title>
<path fill="none" stroke="midnightblue" d="M247,-448.083C247,-441.006 247,-430.861 247,-421.986"/>
<polygon fill="midnightblue" stroke="midnightblue" points="250.5,-421.751 247,-411.751 243.5,-421.751 250.5,-421.751"/>
</g>
<!-- Node7&#45;&gt;Node3 -->
<g id="edge9" class="edge"><title>Node7&#45;&gt;Node3</title>
<path fill="none" stroke="midnightblue" d="M266.014,-392.444C285.588,-383.636 316.308,-369.812 338.729,-359.722"/>
<polygon fill="midnightblue" stroke="midnightblue" points="340.392,-362.812 348.075,-355.516 337.519,-356.428 340.392,-362.812"/>
</g>
<!-- Node7&#45;&gt;Node4 -->
<g id="edge21" class="edge"><title>Node7&#45;&gt;Node4</title>
<path fill="none" stroke="midnightblue" d="M200.888,-398.774C167.262,-394.726 122.877,-383.974 95,-356 73.7544,-334.681 76,-321.098 76,-291 76,-291 76,-291 76,-177 76,-138.391 106.882,-102.209 127.326,-82.4863"/>
<polygon fill="midnightblue" stroke="midnightblue" points="129.868,-84.9022 134.819,-75.5352 125.107,-79.7704 129.868,-84.9022"/>
</g>
<!-- Node8 -->
<g id="node8" class="node"><title>Node8</title>
<g id="a_node8"><a xlink:href="../../de/d0b/_string_iterator_8h.html" target="_top" xlink:title="StringIterator.h">
<polygon fill="white" stroke="black" points="104.5,-336.5 104.5,-355.5 185.5,-355.5 185.5,-336.5 104.5,-336.5"/>
<text text-anchor="middle" x="145" y="-343.5" font-family="Helvetica,sans-Serif" font-size="10.00">StringIterator.h</text>
</a>
</g>
</g>
<!-- Node7&#45;&gt;Node8 -->
<g id="edge10" class="edge"><title>Node7&#45;&gt;Node8</title>
<path fill="none" stroke="midnightblue" d="M230.612,-392.324C214.329,-383.703 189.133,-370.364 170.284,-360.386"/>
<polygon fill="midnightblue" stroke="midnightblue" points="171.823,-357.24 161.347,-355.655 168.548,-363.427 171.823,-357.24"/>
</g>
<!-- Node15 -->
<g id="node15" class="node"><title>Node15</title>
<g id="a_node15"><a xlink:href="../../da/db8/_math_8h.html" target="_top" xlink:title="../utility/Math.h">
<polygon fill="white" stroke="black" points="204,-336.5 204,-355.5 286,-355.5 286,-336.5 204,-336.5"/>
<text text-anchor="middle" x="245" y="-343.5" font-family="Helvetica,sans-Serif" font-size="10.00">../utility/Math.h</text>
</a>
</g>
</g>
<!-- Node7&#45;&gt;Node15 -->
<g id="edge22" class="edge"><title>Node7&#45;&gt;Node15</title>
<path fill="none" stroke="midnightblue" d="M246.67,-392.083C246.408,-385.006 246.032,-374.861 245.703,-365.986"/>
<polygon fill="midnightblue" stroke="midnightblue" points="249.192,-365.615 245.324,-355.751 242.197,-365.874 249.192,-365.615"/>
</g>
<!-- Node7&#45;&gt;Node16 -->
<g id="edge23" class="edge"><title>Node7&#45;&gt;Node16</title>
<path fill="none" stroke="midnightblue" d="M257.927,-392.303C274.065,-379.561 305.349,-355.243 333,-336 379.981,-303.305 436.952,-267.881 468.034,-248.897"/>
<polygon fill="midnightblue" stroke="midnightblue" points="470.087,-251.744 476.809,-243.555 466.447,-245.765 470.087,-251.744"/>
</g>
<!-- Node8&#45;&gt;Node4 -->
<g id="edge11" class="edge"><title>Node8&#45;&gt;Node4</title>
<path fill="none" stroke="midnightblue" d="M145,-336.442C145,-317.936 145,-272.812 145,-235 145,-235 145,-235 145,-177 145,-144.948 145,-107.643 145,-85.7489"/>
<polygon fill="midnightblue" stroke="midnightblue" points="148.5,-85.5577 145,-75.5578 141.5,-85.5578 148.5,-85.5577"/>
</g>
<!-- Node9 -->
<g id="node9" class="node"><title>Node9</title>
<g id="a_node9"><a xlink:href="../../d8/dd7/_concept_8h.html" target="_top" xlink:title="Concept definitions. ">
<polygon fill="white" stroke="black" points="199,-280.5 199,-299.5 283,-299.5 283,-280.5 199,-280.5"/>
<text text-anchor="middle" x="241" y="-287.5" font-family="Helvetica,sans-Serif" font-size="10.00">../stl/Concept.h</text>
</a>
</g>
</g>
<!-- Node8&#45;&gt;Node9 -->
<g id="edge12" class="edge"><title>Node8&#45;&gt;Node9</title>
<path fill="none" stroke="midnightblue" d="M160.424,-336.324C175.54,-327.822 198.815,-314.729 216.471,-304.797"/>
<polygon fill="midnightblue" stroke="midnightblue" points="218.614,-307.608 225.614,-299.655 215.183,-301.507 218.614,-307.608"/>
</g>
<!-- Node9&#45;&gt;Node10 -->
<g id="edge13" class="edge"><title>Node9&#45;&gt;Node10</title>
<path fill="none" stroke="midnightblue" d="M259.856,-280.444C279.266,-271.636 309.73,-257.812 331.965,-247.722"/>
<polygon fill="midnightblue" stroke="midnightblue" points="333.572,-250.836 341.232,-243.516 330.68,-244.462 333.572,-250.836"/>
</g>
<!-- Node12 -->
<g id="node12" class="node"><title>Node12</title>
<g id="a_node12"><a xlink:href="../../d2/d37/_tmp_8h.html" target="_top" xlink:title="Template helper types, structs, and metafunctions. ">
<polygon fill="white" stroke="black" points="274,-112.5 274,-131.5 318,-131.5 318,-112.5 274,-112.5"/>
<text text-anchor="middle" x="296" y="-119.5" font-family="Helvetica,sans-Serif" font-size="10.00">Tmp.h</text>
</a>
</g>
</g>
<!-- Node9&#45;&gt;Node12 -->
<g id="edge20" class="edge"><title>Node9&#45;&gt;Node12</title>
<path fill="none" stroke="midnightblue" d="M250.016,-280.24C258.168,-271.761 269.811,-258.145 276,-244 290.883,-209.984 294.77,-166.165 295.736,-141.682"/>
<polygon fill="midnightblue" stroke="midnightblue" points="299.236,-141.711 296.007,-131.621 292.239,-141.523 299.236,-141.711"/>
</g>
<!-- Node13 -->
<g id="node13" class="node"><title>Node13</title>
<g id="a_node13"><a xlink:href="../../d4/dd5/_type_traits_8h.html" target="_top" xlink:title="Metafunctions for types. ">
<polygon fill="white" stroke="black" points="185.5,-168.5 185.5,-187.5 256.5,-187.5 256.5,-168.5 185.5,-168.5"/>
<text text-anchor="middle" x="221" y="-175.5" font-family="Helvetica,sans-Serif" font-size="10.00">TypeTraits.h</text>
</a>
</g>
</g>
<!-- Node9&#45;&gt;Node13 -->
<g id="edge17" class="edge"><title>Node9&#45;&gt;Node13</title>
<path fill="none" stroke="midnightblue" d="M230.838,-280.185C222.092,-271.87 210.1,-258.539 205,-244 199.482,-228.27 205.171,-209.761 211.24,-196.526"/>
<polygon fill="midnightblue" stroke="midnightblue" points="214.382,-198.068 215.776,-187.566 208.137,-194.907 214.382,-198.068"/>
</g>
<!-- Node14 -->
<g id="node14" class="node"><title>Node14</title>
<g id="a_node14"><a xlink:href="../../d2/db4/_wlib_8h.html" target="_top" xlink:title="../Wlib.h">
<polygon fill="white" stroke="black" points="214.5,-224.5 214.5,-243.5 267.5,-243.5 267.5,-224.5 214.5,-224.5"/>
<text text-anchor="middle" x="241" y="-231.5" font-family="Helvetica,sans-Serif" font-size="10.00">../Wlib.h</text>
</a>
</g>
</g>
<!-- Node9&#45;&gt;Node14 -->
<g id="edge19" class="edge"><title>Node9&#45;&gt;Node14</title>
<path fill="none" stroke="midnightblue" d="M241,-280.083C241,-273.006 241,-262.861 241,-253.986"/>
<polygon fill="midnightblue" stroke="midnightblue" points="244.5,-253.751 241,-243.751 237.5,-253.751 244.5,-253.751"/>
</g>
<!-- Node10&#45;&gt;Node11 -->
<g id="edge14" class="edge"><title>Node10&#45;&gt;Node11</title>
<path fill="none" stroke="midnightblue" d="M361.156,-224.083C362.084,-216.927 363.418,-206.635 364.577,-197.691"/>
<polygon fill="midnightblue" stroke="midnightblue" points="368.051,-198.118 365.866,-187.751 361.109,-197.218 368.051,-198.118"/>
</g>
<!-- Node11&#45;&gt;Node12 -->
<g id="edge15" class="edge"><title>Node11&#45;&gt;Node12</title>
<path fill="none" stroke="midnightblue" d="M355.593,-168.324C344.891,-160.185 328.659,-147.839 315.837,-138.087"/>
<polygon fill="midnightblue" stroke="midnightblue" points="317.693,-135.102 307.615,-131.834 313.456,-140.673 317.693,-135.102"/>
</g>
<!-- Node12&#45;&gt;Node4 -->
<g id="edge16" class="edge"><title>Node12&#45;&gt;Node4</title>
<path fill="none" stroke="midnightblue" d="M273.719,-113.032C248.622,-104.057 207.56,-89.3725 178.573,-79.0062"/>
<polygon fill="midnightblue" stroke="midnightblue" points="179.464,-75.6077 168.869,-75.536 177.107,-82.199 179.464,-75.6077"/>
</g>
<!-- Node13&#45;&gt;Node12 -->
<g id="edge18" class="edge"><title>Node13&#45;&gt;Node12</title>
<path fill="none" stroke="midnightblue" d="M233.05,-168.324C244.463,-160.107 261.831,-147.602 275.435,-137.807"/>
<polygon fill="midnightblue" stroke="midnightblue" points="277.66,-140.517 283.731,-131.834 273.57,-134.837 277.66,-140.517"/>
</g>
<!-- Node16&#45;&gt;Node4 -->
<g id="edge25" class="edge"><title>Node16&#45;&gt;Node4</title>
<path fill="none" stroke="midnightblue" d="M486.904,-224.332C480.103,-210.741 465.3,-184.287 446,-168 366.955,-101.294 242.07,-78.113 181.013,-70.4896"/>
<polygon fill="midnightblue" stroke="midnightblue" points="181.42,-67.0134 171.079,-69.3173 180.6,-73.9652 181.42,-67.0134"/>
</g>
<!-- Node16&#45;&gt;Node11 -->
<g id="edge24" class="edge"><title>Node16&#45;&gt;Node11</title>
<path fill="none" stroke="midnightblue" d="M471.352,-224.444C451.035,-215.596 419.097,-201.687 395.902,-191.586"/>
<polygon fill="midnightblue" stroke="midnightblue" points="397.122,-188.3 386.556,-187.516 394.327,-194.718 397.122,-188.3"/>
</g>
<!-- Node16&#45;&gt;Node12 -->
<g id="edge26" class="edge"><title>Node16&#45;&gt;Node12</title>
<path fill="none" stroke="midnightblue" d="M483.415,-224.264C471.122,-210.578 445.537,-183.998 419,-168 390.247,-150.665 353.743,-138.357 327.995,-131.043"/>
<polygon fill="midnightblue" stroke="midnightblue" points="328.583,-127.575 318.013,-128.305 326.731,-134.326 328.583,-127.575"/>
</g>
<!-- Node17 -->
<g id="node17" class="node"><title>Node17</title>
<polygon fill="white" stroke="#bfbfbf" points="504.5,-168.5 504.5,-187.5 539.5,-187.5 539.5,-168.5 504.5,-168.5"/>
<text text-anchor="middle" x="522" y="-175.5" font-family="Helvetica,sans-Serif" font-size="10.00">new</text>
</g>
<!-- Node16&#45;&gt;Node17 -->
<g id="edge27" class="edge"><title>Node16&#45;&gt;Node17</title>
<path fill="none" stroke="midnightblue" d="M496.119,-224.083C500.408,-216.613 506.658,-205.724 511.942,-196.52"/>
<polygon fill="midnightblue" stroke="midnightblue" points="515.033,-198.166 516.976,-187.751 508.962,-194.681 515.033,-198.166"/>
</g>
</g>
</svg>
