<?xml version="1.0" encoding="UTF-8" standalone="no"?>
<!DOCTYPE svg PUBLIC "-//W3C//DTD SVG 1.1//EN"
 "http://www.w3.org/Graphics/SVG/1.1/DTD/svg11.dtd">
<!-- Generated by graphviz version 2.36.0 (20140111.2315)
 -->
<!-- Title: wlib/stl/RedBlackTree.h Pages: 1 -->
<!--zoomable 308 -->
<svg id="main" version="1.1" xmlns="http://www.w3.org/2000/svg" xmlns:xlink="http://www.w3.org/1999/xlink" xml:space="preserve" onload="init(evt)">
<style type="text/css"><![CDATA[
.edge:hover path { stroke: red; }
.edge:hover polygon { stroke: red; fill: red; }
]]></style>
<script type="text/javascript"><![CDATA[
var edges = document.getElementsByTagName('g');
if (edges && edges.length) {
  for (var i=0;i<edges.length;i++) {
    if (edges[i].id.substr(0,4)=='edge') {
      edges[i].setAttribute('class','edge');
    }
  }
}
]]></script>
        <defs>
                <circle id="rim" cx="0" cy="0" r="7"/>
                <circle id="rim2" cx="0" cy="0" r="3.5"/>
                <g id="zoomPlus">
                        <use xlink:href="#rim" fill="#404040">
                                <set attributeName="fill" to="#808080" begin="zoomplus.mouseover" end="zoomplus.mouseout"/>
                        </use>
                        <path d="M-4,0h8M0,-4v8" fill="none" stroke="white" stroke-width="1.5" pointer-events="none"/>
                </g>
                <g id="zoomMin">
                        <use xlink:href="#rim" fill="#404040">
                                <set attributeName="fill" to="#808080" begin="zoomminus.mouseover" end="zoomminus.mouseout"/>
                        </use>
                        <path d="M-4,0h8" fill="none" stroke="white" stroke-width="1.5" pointer-events="none"/>
                </g>
                <g id="dirArrow">
                        <path fill="none" stroke="white" stroke-width="1.5" d="M0,-3.0v7 M-2.5,-0.5L0,-3.0L2.5,-0.5"/>
                </g>
               <g id="resetDef">
                       <use xlink:href="#rim2" fill="#404040">
                               <set attributeName="fill" to="#808080" begin="reset.mouseover" end="reset.mouseout"/>
                       </use>
               </g>
        </defs>

<script type="text/javascript">
var viewWidth = 526;
var viewHeight = 308;
var sectionId = 'dynsection-0';
</script>
<script xlink:href="../../svgpan.js"/>
<svg id="graph" class="graph">
<g id="viewport">
<title>wlib/stl/RedBlackTree.h</title>
<polygon fill="white" stroke="none" points="-4,4 -4,-304 521.519,-304 521.519,4 -4,4"/>
<!-- Node1 -->
<g id="node1" class="node"><title>Node1</title>
<polygon fill="#bfbfbf" stroke="black" points="323.5,-280.5 323.5,-299.5 444.5,-299.5 444.5,-280.5 323.5,-280.5"/>
<text text-anchor="middle" x="384" y="-287.5" font-family="Helvetica,sans-Serif" font-size="10.00">wlib/stl/RedBlackTree.h</text>
</g>
<!-- Node2 -->
<g id="node2" class="node"><title>Node2</title>
<g id="a_node2"><a xlink:href="../../d7/d0c/_comparator_8h.html" target="_top" xlink:title="Comparator implementation for basic types. ">
<polygon fill="white" stroke="black" points="158,-224.5 158,-243.5 268,-243.5 268,-224.5 158,-224.5"/>
<text text-anchor="middle" x="213" y="-231.5" font-family="Helvetica,sans-Serif" font-size="10.00">wlib/stl/Comparator.h</text>
</a>
</g>
</g>
<!-- Node1&#45;&gt;Node2 -->
<g id="edge1" class="edge"><title>Node1&#45;&gt;Node2</title>
<path fill="none" stroke="midnightblue" d="M356.905,-280.444C328.012,-271.32 282.075,-256.813 249.895,-246.651"/>
<polygon fill="midnightblue" stroke="midnightblue" points="250.559,-243.19 239.969,-243.516 248.451,-249.865 250.559,-243.19"/>
</g>
<!-- Node12 -->
<g id="node12" class="node"><title>Node12</title>
<g id="a_node12"><a xlink:href="../../d4/dda/_pair_8h.html" target="_top" xlink:title="Implementation of a 2&#45;element tuple. ">
<polygon fill="white" stroke="black" points="400,-168.5 400,-187.5 476,-187.5 476,-168.5 400,-168.5"/>
<text text-anchor="middle" x="438" y="-175.5" font-family="Helvetica,sans-Serif" font-size="10.00">wlib/stl/Pair.h</text>
</a>
</g>
</g>
<!-- Node1&#45;&gt;Node12 -->
<g id="edge14" class="edge"><title>Node1&#45;&gt;Node12</title>
<path fill="none" stroke="midnightblue" d="M385.482,-280.197C387.886,-267.322 393.365,-242.842 403,-224 408.284,-213.667 416.071,-203.358 422.96,-195.219"/>
<polygon fill="midnightblue" stroke="midnightblue" points="425.679,-197.428 429.67,-187.614 420.429,-192.797 425.679,-197.428"/>
</g>
<!-- Node13 -->
<g id="node13" class="node"><title>Node13</title>
<polygon fill="white" stroke="#bfbfbf" points="412,-224.5 412,-243.5 484,-243.5 484,-224.5 412,-224.5"/>
<text text-anchor="middle" x="448" y="-231.5" font-family="Helvetica,sans-Serif" font-size="10.00">wlib/memory</text>
</g>
<!-- Node1&#45;&gt;Node13 -->
<g id="edge16" class="edge"><title>Node1&#45;&gt;Node13</title>
<path fill="none" stroke="midnightblue" d="M394.283,-280.324C403.836,-272.263 418.28,-260.077 429.784,-250.369"/>
<polygon fill="midnightblue" stroke="midnightblue" points="432.144,-252.958 437.53,-243.834 427.63,-247.608 432.144,-252.958"/>
</g>
<!-- Node3 -->
<g id="node3" class="node"><title>Node3</title>
<polygon fill="white" stroke="#bfbfbf" points="-0.5,-56.5 -0.5,-75.5 48.5,-75.5 48.5,-56.5 -0.5,-56.5"/>
<text text-anchor="middle" x="24" y="-63.5" font-family="Helvetica,sans-Serif" font-size="10.00">string.h</text>
</g>
<!-- Node2&#45;&gt;Node3 -->
<g id="edge2" class="edge"><title>Node2&#45;&gt;Node3</title>
<path fill="none" stroke="midnightblue" d="M191.136,-224.356C172.883,-216.511 146.752,-203.772 127,-188 88.0042,-156.861 52.6908,-109.314 35.326,-84.0942"/>
<polygon fill="midnightblue" stroke="midnightblue" points="38.0825,-81.9226 29.5793,-75.6024 32.2852,-85.8459 38.0825,-81.9226"/>
</g>
<!-- Node4 -->
<g id="node4" class="node"><title>Node4</title>
<g id="a_node4"><a xlink:href="../../d2/dc2/_equal_8h.html" target="_top" xlink:title="wlib/stl/Equal.h">
<polygon fill="white" stroke="black" points="136.5,-168.5 136.5,-187.5 219.5,-187.5 219.5,-168.5 136.5,-168.5"/>
<text text-anchor="middle" x="178" y="-175.5" font-family="Helvetica,sans-Serif" font-size="10.00">wlib/stl/Equal.h</text>
</a>
</g>
</g>
<!-- Node2&#45;&gt;Node4 -->
<g id="edge3" class="edge"><title>Node2&#45;&gt;Node4</title>
<path fill="none" stroke="midnightblue" d="M207.22,-224.083C202.328,-216.534 195.173,-205.495 189.167,-196.23"/>
<polygon fill="midnightblue" stroke="midnightblue" points="192.048,-194.239 183.672,-187.751 186.174,-198.046 192.048,-194.239"/>
</g>
<!-- Node5 -->
<g id="node5" class="node"><title>Node5</title>
<g id="a_node5"><a xlink:href="../../db/db5/_string_8h.html" target="_top" xlink:title="wlib/strings/String.h">
<polygon fill="white" stroke="black" points="196.5,-112.5 196.5,-131.5 299.5,-131.5 299.5,-112.5 196.5,-112.5"/>
<text text-anchor="middle" x="248" y="-119.5" font-family="Helvetica,sans-Serif" font-size="10.00">wlib/strings/String.h</text>
</a>
</g>
</g>
<!-- Node2&#45;&gt;Node5 -->
<g id="edge13" class="edge"><title>Node2&#45;&gt;Node5</title>
<path fill="none" stroke="midnightblue" d="M215.935,-224.393C219.003,-215.35 223.929,-200.704 228,-188 233.011,-172.364 238.479,-154.535 242.43,-141.51"/>
<polygon fill="midnightblue" stroke="midnightblue" points="245.806,-142.437 245.348,-131.852 239.105,-140.412 245.806,-142.437"/>
</g>
<!-- Node4&#45;&gt;Node3 -->
<g id="edge4" class="edge"><title>Node4&#45;&gt;Node3</title>
<path fill="none" stroke="midnightblue" d="M165.916,-168.368C139.602,-149.573 76.8757,-104.768 44.3467,-81.5334"/>
<polygon fill="midnightblue" stroke="midnightblue" points="46.1997,-78.5558 36.028,-75.5914 42.131,-84.2519 46.1997,-78.5558"/>
</g>
<!-- Node4&#45;&gt;Node5 -->
<g id="edge5" class="edge"><title>Node4&#45;&gt;Node5</title>
<path fill="none" stroke="midnightblue" d="M189.247,-168.324C199.797,-160.185 215.801,-147.839 228.442,-138.087"/>
<polygon fill="midnightblue" stroke="midnightblue" points="230.769,-140.713 236.549,-131.834 226.493,-135.171 230.769,-140.713"/>
</g>
<!-- Node5&#45;&gt;Node3 -->
<g id="edge12" class="edge"><title>Node5&#45;&gt;Node3</title>
<path fill="none" stroke="midnightblue" d="M210.795,-112.492C174.462,-104.116 117.36,-90.774 58.6754,-76.1206"/>
<polygon fill="midnightblue" stroke="midnightblue" points="59.4138,-72.6975 48.863,-73.6618 57.7123,-79.4876 59.4138,-72.6975"/>
</g>
<!-- Node6 -->
<g id="node6" class="node"><title>Node6</title>
<g id="a_node6"><a xlink:href="../../de/d0b/_string_iterator_8h.html" target="_top" xlink:title="wlib/strings/StringIterator.h">
<polygon fill="white" stroke="black" points="67,-56.5 67,-75.5 201,-75.5 201,-56.5 67,-56.5"/>
<text text-anchor="middle" x="134" y="-63.5" font-family="Helvetica,sans-Serif" font-size="10.00">wlib/strings/StringIterator.h</text>
</a>
</g>
</g>
<!-- Node5&#45;&gt;Node6 -->
<g id="edge6" class="edge"><title>Node5&#45;&gt;Node6</title>
<path fill="none" stroke="midnightblue" d="M229.936,-112.444C211.425,-103.675 182.419,-89.9355 161.145,-79.8579"/>
<polygon fill="midnightblue" stroke="midnightblue" points="162.515,-76.6343 151.979,-75.5164 159.518,-82.9604 162.515,-76.6343"/>
</g>
<!-- Node8 -->
<g id="node8" class="node"><title>Node8</title>
<polygon fill="white" stroke="#bfbfbf" points="219.5,-56.5 219.5,-75.5 334.5,-75.5 334.5,-56.5 219.5,-56.5"/>
<text text-anchor="middle" x="277" y="-63.5" font-family="Helvetica,sans-Serif" font-size="10.00">wlib/tmp/NullptrType.h</text>
</g>
<!-- Node5&#45;&gt;Node8 -->
<g id="edge8" class="edge"><title>Node5&#45;&gt;Node8</title>
<path fill="none" stroke="midnightblue" d="M252.789,-112.083C256.758,-104.691 262.525,-93.9533 267.435,-84.8111"/>
<polygon fill="midnightblue" stroke="midnightblue" points="270.653,-86.217 272.3,-75.7511 264.486,-82.9051 270.653,-86.217"/>
</g>
<!-- Node9 -->
<g id="node9" class="node"><title>Node9</title>
<g id="a_node9"><a xlink:href="../../de/d35/_helper_8h.html" target="_top" xlink:title="wlib/stl/Helper.h">
<polygon fill="white" stroke="black" points="352.5,-56.5 352.5,-75.5 439.5,-75.5 439.5,-56.5 352.5,-56.5"/>
<text text-anchor="middle" x="396" y="-63.5" font-family="Helvetica,sans-Serif" font-size="10.00">wlib/stl/Helper.h</text>
</a>
</g>
</g>
<!-- Node5&#45;&gt;Node9 -->
<g id="edge9" class="edge"><title>Node5&#45;&gt;Node9</title>
<path fill="none" stroke="midnightblue" d="M271.451,-112.444C296.133,-103.438 335.185,-89.1891 362.977,-79.049"/>
<polygon fill="midnightblue" stroke="midnightblue" points="364.464,-82.2321 372.659,-75.5164 362.065,-75.6561 364.464,-82.2321"/>
</g>
<!-- Node11 -->
<g id="node11" class="node"><title>Node11</title>
<polygon fill="white" stroke="#bfbfbf" points="457.5,-56.5 457.5,-75.5 506.5,-75.5 506.5,-56.5 457.5,-56.5"/>
<text text-anchor="middle" x="482" y="-63.5" font-family="Helvetica,sans-Serif" font-size="10.00">stdint.h</text>
</g>
<!-- Node5&#45;&gt;Node11 -->
<g id="edge11" class="edge"><title>Node5&#45;&gt;Node11</title>
<path fill="none" stroke="midnightblue" d="M287.947,-112.473C326.337,-104.176 386.22,-90.9657 447.33,-76.0946"/>
<polygon fill="midnightblue" stroke="midnightblue" points="448.263,-79.4697 457.145,-73.6941 446.6,-72.6701 448.263,-79.4697"/>
</g>
<!-- Node7 -->
<g id="node7" class="node"><title>Node7</title>
<polygon fill="white" stroke="#bfbfbf" points="108,-0.5 108,-19.5 160,-19.5 160,-0.5 108,-0.5"/>
<text text-anchor="middle" x="134" y="-7.5" font-family="Helvetica,sans-Serif" font-size="10.00">stddef.h</text>
</g>
<!-- Node6&#45;&gt;Node7 -->
<g id="edge7" class="edge"><title>Node6&#45;&gt;Node7</title>
<path fill="none" stroke="midnightblue" d="M134,-56.083C134,-49.0059 134,-38.8611 134,-29.9865"/>
<polygon fill="midnightblue" stroke="midnightblue" points="137.5,-29.751 134,-19.7511 130.5,-29.7511 137.5,-29.751"/>
</g>
<!-- Node10 -->
<g id="node10" class="node"><title>Node10</title>
<polygon fill="white" stroke="#bfbfbf" points="435,-0.5 435,-19.5 495,-19.5 495,-0.5 435,-0.5"/>
<text text-anchor="middle" x="465" y="-7.5" font-family="Helvetica,sans-Serif" font-size="10.00">wlib/utility</text>
</g>
<!-- Node9&#45;&gt;Node10 -->
<g id="edge10" class="edge"><title>Node9&#45;&gt;Node10</title>
<path fill="none" stroke="midnightblue" d="M407.086,-56.324C417.486,-48.1849 433.261,-35.8395 445.722,-26.0874"/>
<polygon fill="midnightblue" stroke="midnightblue" points="447.994,-28.7533 453.712,-19.8339 443.68,-23.2407 447.994,-28.7533"/>
</g>
<!-- Node12&#45;&gt;Node10 -->
<g id="edge15" class="edge"><title>Node12&#45;&gt;Node10</title>
<path fill="none" stroke="midnightblue" d="M447.765,-168.49C465.295,-152.484 501.525,-115.9 515,-76 517.844,-67.5784 518.616,-64.12 515,-56 509.432,-43.4981 498.484,-33.0124 488.249,-25.3167"/>
<polygon fill="midnightblue" stroke="midnightblue" points="490.156,-22.3794 479.952,-19.5256 486.149,-28.1193 490.156,-22.3794"/>
</g>
</g>
</svg>
        <g id="navigator" transform="translate(0 0)" fill="#404254">
                <rect fill="#f2f5e9" fill-opacity="0.5" stroke="#606060" stroke-width=".5" x="0" y="0" width="60" height="60"/>
                <use id="zoomplus" xlink:href="#zoomPlus" x="17" y="9" onmousedown="handleZoom(evt,'in')"/>
                <use id="zoomminus" xlink:href="#zoomMin" x="42" y="9" onmousedown="handleZoom(evt,'out')"/>
                <use id="reset" xlink:href="#resetDef" x="30" y="36" onmousedown="handleReset()"/>
                <g id="arrowUp" xlink:href="#dirArrow" transform="translate(30 24)" onmousedown="handlePan(0,-1)">
                  <use xlink:href="#rim" fill="#404040">
                        <set attributeName="fill" to="#808080" begin="arrowUp.mouseover" end="arrowUp.mouseout"/>
                  </use>
                  <path fill="none" stroke="white" stroke-width="1.5" d="M0,-3.0v7 M-2.5,-0.5L0,-3.0L2.5,-0.5"/>
                </g>
                <g id="arrowRight" xlink:href="#dirArrow" transform="rotate(90) translate(36 -43)" onmousedown="handlePan(1,0)">
                  <use xlink:href="#rim" fill="#404040">
                        <set attributeName="fill" to="#808080" begin="arrowRight.mouseover" end="arrowRight.mouseout"/>
                  </use>
                  <path fill="none" stroke="white" stroke-width="1.5" d="M0,-3.0v7 M-2.5,-0.5L0,-3.0L2.5,-0.5"/>
                </g>
                <g id="arrowDown" xlink:href="#dirArrow" transform="rotate(180) translate(-30 -48)" onmousedown="handlePan(0,1)">
                  <use xlink:href="#rim" fill="#404040">
                        <set attributeName="fill" to="#808080" begin="arrowDown.mouseover" end="arrowDown.mouseout"/>
                  </use>
                  <path fill="none" stroke="white" stroke-width="1.5" d="M0,-3.0v7 M-2.5,-0.5L0,-3.0L2.5,-0.5"/>
                </g>
                <g id="arrowLeft" xlink:href="#dirArrow" transform="rotate(270) translate(-36 17)" onmousedown="handlePan(-1,0)">
                  <use xlink:href="#rim" fill="#404040">
                        <set attributeName="fill" to="#808080" begin="arrowLeft.mouseover" end="arrowLeft.mouseout"/>
                  </use>
                  <path fill="none" stroke="white" stroke-width="1.5" d="M0,-3.0v7 M-2.5,-0.5L0,-3.0L2.5,-0.5"/>
                </g>
        </g>
        <svg viewBox="0 0 15 15" width="100%" height="30px" preserveAspectRatio="xMaxYMin meet">
         <g id="arrow_out" transform="scale(0.3 0.3)">
          <a xlink:href="_red_black_tree_8h__incl_org.svg" target="_base">
           <rect id="button" ry="5" rx="5" y="6" x="6" height="38" width="38"
                fill="#f2f5e9" fill-opacity="0.5" stroke="#606060" stroke-width="1.0"/>
           <path id="arrow"
             d="M 11.500037,31.436501 C 11.940474,20.09759 22.043105,11.32322 32.158766,21.979434 L 37.068811,17.246167 C 37.068811,17.246167 37.088388,32 37.088388,32 L 22.160133,31.978069 C 22.160133,31.978069 26.997745,27.140456 26.997745,27.140456 C 18.528582,18.264221 13.291696,25.230495 11.500037,31.436501 z"
             style="fill:#404040;"/>
          </a>
         </g>
        </svg>
</svg>
