<?xml version="1.0" encoding="UTF-8" standalone="no"?>
<!DOCTYPE svg PUBLIC "-//W3C//DTD SVG 1.1//EN"
 "http://www.w3.org/Graphics/SVG/1.1/DTD/svg11.dtd">
<!-- Generated by graphviz version 2.36.0 (20140111.2315)
 -->
<!-- Title: wlib/stl/RedBlackTree.h Pages: 1 -->
<!--zoomable 588 -->
<svg id="main" version="1.1" xmlns="http://www.w3.org/2000/svg" xmlns:xlink="http://www.w3.org/1999/xlink" xml:space="preserve" onload="init(evt)">
<style type="text/css"><![CDATA[
.edge:hover path { stroke: red; }
.edge:hover polygon { stroke: red; fill: red; }
]]></style>
<script type="text/javascript"><![CDATA[
var edges = document.getElementsByTagName('g');
if (edges && edges.length) {
  for (var i=0;i<edges.length;i++) {
    if (edges[i].id.substr(0,4)=='edge') {
      edges[i].setAttribute('class','edge');
    }
  }
}
]]></script>
        <defs>
                <circle id="rim" cx="0" cy="0" r="7"/>
                <circle id="rim2" cx="0" cy="0" r="3.5"/>
                <g id="zoomPlus">
                        <use xlink:href="#rim" fill="#404040">
                                <set attributeName="fill" to="#808080" begin="zoomplus.mouseover" end="zoomplus.mouseout"/>
                        </use>
                        <path d="M-4,0h8M0,-4v8" fill="none" stroke="white" stroke-width="1.5" pointer-events="none"/>
                </g>
                <g id="zoomMin">
                        <use xlink:href="#rim" fill="#404040">
                                <set attributeName="fill" to="#808080" begin="zoomminus.mouseover" end="zoomminus.mouseout"/>
                        </use>
                        <path d="M-4,0h8" fill="none" stroke="white" stroke-width="1.5" pointer-events="none"/>
                </g>
                <g id="dirArrow">
                        <path fill="none" stroke="white" stroke-width="1.5" d="M0,-3.0v7 M-2.5,-0.5L0,-3.0L2.5,-0.5"/>
                </g>
               <g id="resetDef">
                       <use xlink:href="#rim2" fill="#404040">
                               <set attributeName="fill" to="#808080" begin="reset.mouseover" end="reset.mouseout"/>
                       </use>
               </g>
        </defs>

<script type="text/javascript">
var viewWidth = 841;
var viewHeight = 588;
var sectionId = 'dynsection-0';
</script>
<script xlink:href="../../svgpan.js"/>
<svg id="graph" class="graph">
<g id="viewport">
<title>wlib/stl/RedBlackTree.h</title>
<polygon fill="white" stroke="none" points="-4,4 -4,-584 837,-584 837,4 -4,4"/>
<!-- Node1 -->
<g id="node1" class="node"><title>Node1</title>
<polygon fill="#bfbfbf" stroke="black" points="522.5,-560.5 522.5,-579.5 643.5,-579.5 643.5,-560.5 522.5,-560.5"/>
<text text-anchor="middle" x="583" y="-567.5" font-family="Helvetica,sans-Serif" font-size="10.00">wlib/stl/RedBlackTree.h</text>
</g>
<!-- Node2 -->
<g id="node2" class="node"><title>Node2</title>
<g id="a_node2"><a xlink:href="../../d7/d0c/_comparator_8h.html" target="_top" xlink:title="Comparator implementation for basic types. ">
<polygon fill="white" stroke="black" points="325,-504.5 325,-523.5 401,-523.5 401,-504.5 325,-504.5"/>
<text text-anchor="middle" x="363" y="-511.5" font-family="Helvetica,sans-Serif" font-size="10.00">Comparator.h</text>
</a>
</g>
</g>
<!-- Node1&#45;&gt;Node2 -->
<g id="edge1" class="edge"><title>Node1&#45;&gt;Node2</title>
<path fill="none" stroke="midnightblue" d="M548.14,-560.444C510.084,-551.102 449.042,-536.119 407.54,-525.933"/>
<polygon fill="midnightblue" stroke="midnightblue" points="408.243,-522.501 397.697,-523.516 406.574,-529.299 408.243,-522.501"/>
</g>
<!-- Node4 -->
<g id="node4" class="node"><title>Node4</title>
<g id="a_node4"><a xlink:href="../../d0/db6/_types_8h.html" target="_top" xlink:title="type definition of all the string types we will be using ">
<polygon fill="white" stroke="black" points="460,-56.5 460,-75.5 532,-75.5 532,-56.5 460,-56.5"/>
<text text-anchor="middle" x="496" y="-63.5" font-family="Helvetica,sans-Serif" font-size="10.00">wlib/Types.h</text>
</a>
</g>
</g>
<!-- Node1&#45;&gt;Node4 -->
<g id="edge31" class="edge"><title>Node1&#45;&gt;Node4</title>
<path fill="none" stroke="midnightblue" d="M595.188,-560.241C617.125,-543.35 661,-503.949 661,-459 661,-459 661,-459 661,-177 661,-119.507 590.788,-90.2141 541.966,-76.795"/>
<polygon fill="midnightblue" stroke="midnightblue" points="542.77,-73.3877 532.21,-74.2435 540.999,-80.1599 542.77,-73.3877"/>
</g>
<!-- Node10 -->
<g id="node10" class="node"><title>Node10</title>
<g id="a_node10"><a xlink:href="../../d4/dda/_pair_8h.html" target="_top" xlink:title="Implementation of a 2&#45;element tuple. ">
<polygon fill="white" stroke="black" points="337,-224.5 337,-243.5 379,-243.5 379,-224.5 337,-224.5"/>
<text text-anchor="middle" x="358" y="-231.5" font-family="Helvetica,sans-Serif" font-size="10.00">Pair.h</text>
</a>
</g>
</g>
<!-- Node1&#45;&gt;Node10 -->
<g id="edge30" class="edge"><title>Node1&#45;&gt;Node10</title>
<path fill="none" stroke="midnightblue" d="M575.575,-560.485C551.364,-532.487 473.215,-440.25 420,-356 397.93,-321.058 377.047,-277.311 366.051,-253.149"/>
<polygon fill="midnightblue" stroke="midnightblue" points="369.141,-251.486 361.847,-243.801 362.756,-254.357 369.141,-251.486"/>
</g>
<!-- Node11 -->
<g id="node11" class="node"><title>Node11</title>
<g id="a_node11"><a xlink:href="../../db/d2a/_utility_8h.html" target="_top" xlink:title="Various helper functions. ">
<polygon fill="white" stroke="black" points="447.5,-168.5 447.5,-187.5 544.5,-187.5 544.5,-168.5 447.5,-168.5"/>
<text text-anchor="middle" x="496" y="-175.5" font-family="Helvetica,sans-Serif" font-size="10.00">wlib/utility/Utility.h</text>
</a>
</g>
</g>
<!-- Node1&#45;&gt;Node11 -->
<g id="edge33" class="edge"><title>Node1&#45;&gt;Node11</title>
<path fill="none" stroke="midnightblue" d="M587.316,-560.408C596.05,-542.2 615,-498.181 615,-459 615,-459 615,-459 615,-401 615,-314.769 544.394,-229.663 511.954,-195.112"/>
<polygon fill="midnightblue" stroke="midnightblue" points="514.392,-192.597 504.944,-187.802 509.34,-197.442 514.392,-192.597"/>
</g>
<!-- Node16 -->
<g id="node16" class="node"><title>Node16</title>
<g id="a_node16"><a xlink:href="../../d3/de6/_memory_8h.html" target="_top" xlink:title="Memory is a class that provides dynamic fixed size memory. ">
<polygon fill="white" stroke="black" points="429.5,-336.5 429.5,-355.5 548.5,-355.5 548.5,-336.5 429.5,-336.5"/>
<text text-anchor="middle" x="489" y="-343.5" font-family="Helvetica,sans-Serif" font-size="10.00">wlib/memory/Memory.h</text>
</a>
</g>
</g>
<!-- Node1&#45;&gt;Node16 -->
<g id="edge32" class="edge"><title>Node1&#45;&gt;Node16</title>
<path fill="none" stroke="midnightblue" d="M579.315,-560.297C565.425,-527.494 516.05,-410.884 496.781,-365.377"/>
<polygon fill="midnightblue" stroke="midnightblue" points="499.884,-363.728 492.762,-355.884 493.438,-366.457 499.884,-363.728"/>
</g>
<!-- Node18 -->
<g id="node18" class="node"><title>Node18</title>
<g id="a_node18"><a xlink:href="../../d7/d2f/_exceptions_8h.html" target="_top" xlink:title="Implementation of Exceptions using C style. ">
<polygon fill="white" stroke="black" points="689,-504.5 689,-523.5 833,-523.5 833,-504.5 689,-504.5"/>
<text text-anchor="middle" x="761" y="-511.5" font-family="Helvetica,sans-Serif" font-size="10.00">wlib/exceptions/Exceptions.h</text>
</a>
</g>
</g>
<!-- Node1&#45;&gt;Node18 -->
<g id="edge34" class="edge"><title>Node1&#45;&gt;Node18</title>
<path fill="none" stroke="midnightblue" d="M611.205,-560.444C641.41,-551.28 689.511,-536.688 723.029,-526.519"/>
<polygon fill="midnightblue" stroke="midnightblue" points="724.374,-529.769 732.927,-523.516 722.342,-523.07 724.374,-529.769"/>
</g>
<!-- Node3 -->
<g id="node3" class="node"><title>Node3</title>
<polygon fill="white" stroke="#bfbfbf" points="291.5,-280.5 291.5,-299.5 340.5,-299.5 340.5,-280.5 291.5,-280.5"/>
<text text-anchor="middle" x="316" y="-287.5" font-family="Helvetica,sans-Serif" font-size="10.00">string.h</text>
</g>
<!-- Node2&#45;&gt;Node3 -->
<g id="edge2" class="edge"><title>Node2&#45;&gt;Node3</title>
<path fill="none" stroke="midnightblue" d="M361.52,-504.484C357.027,-478.878 342.934,-400.385 328,-336 325.965,-327.228 323.43,-317.571 321.214,-309.46"/>
<polygon fill="midnightblue" stroke="midnightblue" points="324.52,-308.282 318.469,-299.585 317.775,-310.157 324.52,-308.282"/>
</g>
<!-- Node2&#45;&gt;Node4 -->
<g id="edge3" class="edge"><title>Node2&#45;&gt;Node4</title>
<path fill="none" stroke="midnightblue" d="M381.699,-504.426C441.314,-475.666 623,-376.417 623,-235 623,-235 623,-235 623,-177 623,-127.865 568.014,-95.7659 530.403,-79.5569"/>
<polygon fill="midnightblue" stroke="midnightblue" points="531.367,-76.1686 520.788,-75.5913 528.698,-82.6398 531.367,-76.1686"/>
</g>
<!-- Node6 -->
<g id="node6" class="node"><title>Node6</title>
<g id="a_node6"><a xlink:href="../../d2/dc2/_equal_8h.html" target="_top" xlink:title="Equal.h">
<polygon fill="white" stroke="black" points="282,-448.5 282,-467.5 332,-467.5 332,-448.5 282,-448.5"/>
<text text-anchor="middle" x="307" y="-455.5" font-family="Helvetica,sans-Serif" font-size="10.00">Equal.h</text>
</a>
</g>
</g>
<!-- Node2&#45;&gt;Node6 -->
<g id="edge5" class="edge"><title>Node2&#45;&gt;Node6</title>
<path fill="none" stroke="midnightblue" d="M354.003,-504.324C345.806,-496.42 333.494,-484.548 323.528,-474.938"/>
<polygon fill="midnightblue" stroke="midnightblue" points="325.789,-472.256 316.161,-467.834 320.93,-477.295 325.789,-472.256"/>
</g>
<!-- Node7 -->
<g id="node7" class="node"><title>Node7</title>
<g id="a_node7"><a xlink:href="../../db/db5/_string_8h.html" target="_top" xlink:title="wlib/strings/String.h">
<polygon fill="white" stroke="black" points="193.5,-392.5 193.5,-411.5 296.5,-411.5 296.5,-392.5 193.5,-392.5"/>
<text text-anchor="middle" x="245" y="-399.5" font-family="Helvetica,sans-Serif" font-size="10.00">wlib/strings/String.h</text>
</a>
</g>
</g>
<!-- Node2&#45;&gt;Node7 -->
<g id="edge29" class="edge"><title>Node2&#45;&gt;Node7</title>
<path fill="none" stroke="midnightblue" d="M334.235,-504.454C314.775,-497.401 289.675,-485.652 273,-468 260.75,-455.032 253.388,-435.866 249.311,-421.704"/>
<polygon fill="midnightblue" stroke="midnightblue" points="252.6,-420.442 246.714,-411.633 245.822,-422.19 252.6,-420.442"/>
</g>
<!-- Node5 -->
<g id="node5" class="node"><title>Node5</title>
<polygon fill="white" stroke="#bfbfbf" points="471.5,-0.5 471.5,-19.5 520.5,-19.5 520.5,-0.5 471.5,-0.5"/>
<text text-anchor="middle" x="496" y="-7.5" font-family="Helvetica,sans-Serif" font-size="10.00">stdint.h</text>
</g>
<!-- Node4&#45;&gt;Node5 -->
<g id="edge4" class="edge"><title>Node4&#45;&gt;Node5</title>
<path fill="none" stroke="midnightblue" d="M496,-56.083C496,-49.0059 496,-38.8611 496,-29.9865"/>
<polygon fill="midnightblue" stroke="midnightblue" points="499.5,-29.751 496,-19.7511 492.5,-29.7511 499.5,-29.751"/>
</g>
<!-- Node6&#45;&gt;Node3 -->
<g id="edge6" class="edge"><title>Node6&#45;&gt;Node3</title>
<path fill="none" stroke="midnightblue" d="M307.484,-448.075C308.901,-421.945 313.061,-345.211 314.993,-309.577"/>
<polygon fill="midnightblue" stroke="midnightblue" points="318.489,-309.743 315.535,-299.568 311.499,-309.364 318.489,-309.743"/>
</g>
<!-- Node6&#45;&gt;Node4 -->
<g id="edge7" class="edge"><title>Node6&#45;&gt;Node4</title>
<path fill="none" stroke="midnightblue" d="M281.877,-453.535C208.556,-442.726 0,-406.731 0,-347 0,-347 0,-347 0,-177 0,-133.225 33.9142,-129.589 74,-112 140.414,-82.8587 354.249,-71.9252 449.488,-68.4292"/>
<polygon fill="midnightblue" stroke="midnightblue" points="449.816,-71.9198 459.685,-68.0668 449.567,-64.9242 449.816,-71.9198"/>
</g>
<!-- Node6&#45;&gt;Node7 -->
<g id="edge8" class="edge"><title>Node6&#45;&gt;Node7</title>
<path fill="none" stroke="midnightblue" d="M297.039,-448.324C287.873,-440.341 274.063,-428.313 262.972,-418.653"/>
<polygon fill="midnightblue" stroke="midnightblue" points="264.982,-415.762 255.143,-411.834 260.385,-421.041 264.982,-415.762"/>
</g>
<!-- Node7&#45;&gt;Node3 -->
<g id="edge9" class="edge"><title>Node7&#45;&gt;Node3</title>
<path fill="none" stroke="midnightblue" d="M250.571,-392.368C262.236,-374.296 289.423,-332.176 304.829,-308.307"/>
<polygon fill="midnightblue" stroke="midnightblue" points="307.972,-309.891 310.455,-299.591 302.091,-306.095 307.972,-309.891"/>
</g>
<!-- Node7&#45;&gt;Node4 -->
<g id="edge21" class="edge"><title>Node7&#45;&gt;Node4</title>
<path fill="none" stroke="midnightblue" d="M193.263,-394.504C144.596,-387.379 76.3876,-374.452 57,-356 35.1981,-335.25 38,-321.098 38,-291 38,-291 38,-291 38,-177 38,-92.9571 333.26,-72.9588 449.643,-68.3406"/>
<polygon fill="midnightblue" stroke="midnightblue" points="449.817,-71.8366 459.679,-67.9631 449.554,-64.8415 449.817,-71.8366"/>
</g>
<!-- Node8 -->
<g id="node8" class="node"><title>Node8</title>
<g id="a_node8"><a xlink:href="../../de/d0b/_string_iterator_8h.html" target="_top" xlink:title="StringIterator.h">
<polygon fill="white" stroke="black" points="66.5,-336.5 66.5,-355.5 147.5,-355.5 147.5,-336.5 66.5,-336.5"/>
<text text-anchor="middle" x="107" y="-343.5" font-family="Helvetica,sans-Serif" font-size="10.00">StringIterator.h</text>
</a>
</g>
</g>
<!-- Node7&#45;&gt;Node8 -->
<g id="edge10" class="edge"><title>Node7&#45;&gt;Node8</title>
<path fill="none" stroke="midnightblue" d="M223.133,-392.444C200.221,-383.478 164.025,-369.314 138.134,-359.183"/>
<polygon fill="midnightblue" stroke="midnightblue" points="139.352,-355.901 128.764,-355.516 136.801,-362.42 139.352,-355.901"/>
</g>
<!-- Node15 -->
<g id="node15" class="node"><title>Node15</title>
<g id="a_node15"><a xlink:href="../../da/db8/_math_8h.html" target="_top" xlink:title="wlib/utility/Math.h">
<polygon fill="white" stroke="black" points="165.5,-336.5 165.5,-355.5 258.5,-355.5 258.5,-336.5 165.5,-336.5"/>
<text text-anchor="middle" x="212" y="-343.5" font-family="Helvetica,sans-Serif" font-size="10.00">wlib/utility/Math.h</text>
</a>
</g>
</g>
<!-- Node7&#45;&gt;Node15 -->
<g id="edge22" class="edge"><title>Node7&#45;&gt;Node15</title>
<path fill="none" stroke="midnightblue" d="M239.551,-392.083C234.986,-384.613 228.332,-373.724 222.707,-364.52"/>
<polygon fill="midnightblue" stroke="midnightblue" points="225.549,-362.459 217.348,-355.751 219.576,-366.109 225.549,-362.459"/>
</g>
<!-- Node7&#45;&gt;Node16 -->
<g id="edge23" class="edge"><title>Node7&#45;&gt;Node16</title>
<path fill="none" stroke="midnightblue" d="M283.663,-392.444C326.138,-383.043 394.431,-367.929 440.474,-357.739"/>
<polygon fill="midnightblue" stroke="midnightblue" points="441.511,-361.095 450.518,-355.516 439.998,-354.26 441.511,-361.095"/>
</g>
<!-- Node8&#45;&gt;Node4 -->
<g id="edge11" class="edge"><title>Node8&#45;&gt;Node4</title>
<path fill="none" stroke="midnightblue" d="M109.832,-336.268C115.564,-317.794 128,-273.301 128,-235 128,-235 128,-235 128,-177 128,-110.585 350.817,-80.9254 449.691,-71.0338"/>
<polygon fill="midnightblue" stroke="midnightblue" points="450.095,-74.5112 459.708,-70.0571 449.415,-67.5442 450.095,-74.5112"/>
</g>
<!-- Node9 -->
<g id="node9" class="node"><title>Node9</title>
<g id="a_node9"><a xlink:href="../../d8/dd7/_concept_8h.html" target="_top" xlink:title="Concept definitions. ">
<polygon fill="white" stroke="black" points="178.5,-280.5 178.5,-299.5 273.5,-299.5 273.5,-280.5 178.5,-280.5"/>
<text text-anchor="middle" x="226" y="-287.5" font-family="Helvetica,sans-Serif" font-size="10.00">wlib/stl/Concept.h</text>
</a>
</g>
</g>
<!-- Node8&#45;&gt;Node9 -->
<g id="edge12" class="edge"><title>Node8&#45;&gt;Node9</title>
<path fill="none" stroke="midnightblue" d="M125.856,-336.444C145.266,-327.636 175.73,-313.812 197.965,-303.722"/>
<polygon fill="midnightblue" stroke="midnightblue" points="199.572,-306.836 207.232,-299.516 196.68,-300.462 199.572,-306.836"/>
</g>
<!-- Node9&#45;&gt;Node10 -->
<g id="edge13" class="edge"><title>Node9&#45;&gt;Node10</title>
<path fill="none" stroke="midnightblue" d="M246.916,-280.444C268.736,-271.517 303.15,-257.439 327.892,-247.317"/>
<polygon fill="midnightblue" stroke="midnightblue" points="329.252,-250.542 337.182,-243.516 326.601,-244.063 329.252,-250.542"/>
</g>
<!-- Node12 -->
<g id="node12" class="node"><title>Node12</title>
<g id="a_node12"><a xlink:href="../../d2/d37/_tmp_8h.html" target="_top" xlink:title="Template helper types, structs, and metafunctions. ">
<polygon fill="white" stroke="black" points="385,-112.5 385,-131.5 429,-131.5 429,-112.5 385,-112.5"/>
<text text-anchor="middle" x="407" y="-119.5" font-family="Helvetica,sans-Serif" font-size="10.00">Tmp.h</text>
</a>
</g>
</g>
<!-- Node9&#45;&gt;Node12 -->
<g id="edge20" class="edge"><title>Node9&#45;&gt;Node12</title>
<path fill="none" stroke="midnightblue" d="M239.543,-280.345C252.662,-271.729 272.882,-257.828 289,-244 329.24,-209.476 371.463,-163.405 392.821,-139.288"/>
<polygon fill="midnightblue" stroke="midnightblue" points="395.494,-141.549 399.469,-131.728 390.237,-136.927 395.494,-141.549"/>
</g>
<!-- Node13 -->
<g id="node13" class="node"><title>Node13</title>
<g id="a_node13"><a xlink:href="../../d4/dd5/_type_traits_8h.html" target="_top" xlink:title="Metafunctions for types. ">
<polygon fill="white" stroke="black" points="183.5,-168.5 183.5,-187.5 254.5,-187.5 254.5,-168.5 183.5,-168.5"/>
<text text-anchor="middle" x="219" y="-175.5" font-family="Helvetica,sans-Serif" font-size="10.00">TypeTraits.h</text>
</a>
</g>
</g>
<!-- Node9&#45;&gt;Node13 -->
<g id="edge17" class="edge"><title>Node9&#45;&gt;Node13</title>
<path fill="none" stroke="midnightblue" d="M220.87,-280.407C215.942,-271.614 208.84,-257.381 206,-244 202.678,-228.345 206.801,-210.518 211.261,-197.498"/>
<polygon fill="midnightblue" stroke="midnightblue" points="214.649,-198.436 214.931,-187.845 208.105,-195.949 214.649,-198.436"/>
</g>
<!-- Node14 -->
<g id="node14" class="node"><title>Node14</title>
<g id="a_node14"><a xlink:href="../../d2/db4/_wlib_8h.html" target="_top" xlink:title="wlib/Wlib.h">
<polygon fill="white" stroke="black" points="215.5,-224.5 215.5,-243.5 280.5,-243.5 280.5,-224.5 215.5,-224.5"/>
<text text-anchor="middle" x="248" y="-231.5" font-family="Helvetica,sans-Serif" font-size="10.00">wlib/Wlib.h</text>
</a>
</g>
</g>
<!-- Node9&#45;&gt;Node14 -->
<g id="edge19" class="edge"><title>Node9&#45;&gt;Node14</title>
<path fill="none" stroke="midnightblue" d="M229.633,-280.083C232.612,-272.77 236.926,-262.181 240.625,-253.103"/>
<polygon fill="midnightblue" stroke="midnightblue" points="243.903,-254.333 244.435,-243.751 237.42,-251.691 243.903,-254.333"/>
</g>
<!-- Node10&#45;&gt;Node11 -->
<g id="edge14" class="edge"><title>Node10&#45;&gt;Node11</title>
<path fill="none" stroke="midnightblue" d="M379.26,-224.681C402.054,-215.761 438.481,-201.507 464.583,-191.294"/>
<polygon fill="midnightblue" stroke="midnightblue" points="465.994,-194.5 474.031,-187.597 463.443,-187.981 465.994,-194.5"/>
</g>
<!-- Node11&#45;&gt;Node12 -->
<g id="edge15" class="edge"><title>Node11&#45;&gt;Node12</title>
<path fill="none" stroke="midnightblue" d="M481.701,-168.324C467.817,-159.9 446.508,-146.971 430.196,-137.074"/>
<polygon fill="midnightblue" stroke="midnightblue" points="431.629,-133.85 421.264,-131.655 427.998,-139.834 431.629,-133.85"/>
</g>
<!-- Node12&#45;&gt;Node4 -->
<g id="edge16" class="edge"><title>Node12&#45;&gt;Node4</title>
<path fill="none" stroke="midnightblue" d="M421.299,-112.324C435.183,-103.9 456.492,-90.9709 472.804,-81.0741"/>
<polygon fill="midnightblue" stroke="midnightblue" points="475.002,-83.8341 481.736,-75.6545 471.371,-77.8495 475.002,-83.8341"/>
</g>
<!-- Node13&#45;&gt;Node12 -->
<g id="edge18" class="edge"><title>Node13&#45;&gt;Node12</title>
<path fill="none" stroke="midnightblue" d="M248.789,-168.444C283.279,-158.537 339.861,-142.285 375.188,-132.137"/>
<polygon fill="midnightblue" stroke="midnightblue" points="376.342,-135.448 384.987,-129.323 374.409,-128.72 376.342,-135.448"/>
</g>
<!-- Node16&#45;&gt;Node3 -->
<g id="edge24" class="edge"><title>Node16&#45;&gt;Node3</title>
<path fill="none" stroke="midnightblue" d="M461.588,-336.444C431.454,-327.038 382.993,-311.911 350.347,-301.721"/>
<polygon fill="midnightblue" stroke="midnightblue" points="351.35,-298.368 340.762,-298.729 349.264,-305.05 351.35,-298.368"/>
</g>
<!-- Node16&#45;&gt;Node4 -->
<g id="edge26" class="edge"><title>Node16&#45;&gt;Node4</title>
<path fill="none" stroke="midnightblue" d="M496.145,-336.338C516.199,-310.957 570.435,-234.368 553,-168 544.515,-135.701 523.098,-102.859 509.068,-83.7348"/>
<polygon fill="midnightblue" stroke="midnightblue" points="511.68,-81.3856 502.863,-75.5112 506.093,-85.6019 511.68,-81.3856"/>
</g>
<!-- Node16&#45;&gt;Node11 -->
<g id="edge25" class="edge"><title>Node16&#45;&gt;Node11</title>
<path fill="none" stroke="midnightblue" d="M489.376,-336.075C490.478,-309.945 493.714,-233.211 495.217,-197.577"/>
<polygon fill="midnightblue" stroke="midnightblue" points="498.714,-197.707 495.639,-187.568 491.72,-197.412 498.714,-197.707"/>
</g>
<!-- Node16&#45;&gt;Node12 -->
<g id="edge27" class="edge"><title>Node16&#45;&gt;Node12</title>
<path fill="none" stroke="midnightblue" d="M469.284,-336.447C454.737,-329.03 435.831,-316.828 426,-300 396.305,-249.173 400.28,-175.998 404.26,-141.865"/>
<polygon fill="midnightblue" stroke="midnightblue" points="407.74,-142.244 405.562,-131.875 400.799,-141.339 407.74,-142.244"/>
</g>
<!-- Node17 -->
<g id="node17" class="node"><title>Node17</title>
<g id="a_node17"><a xlink:href="../../d9/d8a/_new_8h.html" target="_top" xlink:title="New operators defined for Arduino boards and for other boards use the normal new. ...">
<polygon fill="white" stroke="black" points="435.5,-280.5 435.5,-299.5 480.5,-299.5 480.5,-280.5 435.5,-280.5"/>
<text text-anchor="middle" x="458" y="-287.5" font-family="Helvetica,sans-Serif" font-size="10.00">New.h</text>
</a>
</g>
</g>
<!-- Node16&#45;&gt;Node17 -->
<g id="edge28" class="edge"><title>Node16&#45;&gt;Node17</title>
<path fill="none" stroke="midnightblue" d="M483.881,-336.083C479.592,-328.613 473.342,-317.724 468.058,-308.52"/>
<polygon fill="midnightblue" stroke="midnightblue" points="471.038,-306.681 463.024,-299.751 464.967,-310.166 471.038,-306.681"/>
</g>
<!-- Node18&#45;&gt;Node4 -->
<g id="edge36" class="edge"><title>Node18&#45;&gt;Node4</title>
<path fill="none" stroke="midnightblue" d="M752.69,-504.411C736.652,-486.887 703,-445.099 703,-403 703,-403 703,-403 703,-177 703,-145.545 698.953,-132.388 675,-112 637.929,-80.4464 581.816,-70.4956 542.319,-67.6198"/>
<polygon fill="midnightblue" stroke="midnightblue" points="542.346,-64.1152 532.154,-67.008 541.925,-71.1025 542.346,-64.1152"/>
</g>
<!-- Node19 -->
<g id="node19" class="node"><title>Node19</title>
<polygon fill="white" stroke="#bfbfbf" points="734,-448.5 734,-467.5 788,-467.5 788,-448.5 734,-448.5"/>
<text text-anchor="middle" x="761" y="-455.5" font-family="Helvetica,sans-Serif" font-size="10.00">setjmp.h</text>
</g>
<!-- Node18&#45;&gt;Node19 -->
<g id="edge35" class="edge"><title>Node18&#45;&gt;Node19</title>
<path fill="none" stroke="midnightblue" d="M761,-504.083C761,-497.006 761,-486.861 761,-477.986"/>
<polygon fill="midnightblue" stroke="midnightblue" points="764.5,-477.751 761,-467.751 757.5,-477.751 764.5,-477.751"/>
</g>
</g>
</svg>
        <g id="navigator" transform="translate(0 0)" fill="#404254">
                <rect fill="#f2f5e9" fill-opacity="0.5" stroke="#606060" stroke-width=".5" x="0" y="0" width="60" height="60"/>
                <use id="zoomplus" xlink:href="#zoomPlus" x="17" y="9" onmousedown="handleZoom(evt,'in')"/>
                <use id="zoomminus" xlink:href="#zoomMin" x="42" y="9" onmousedown="handleZoom(evt,'out')"/>
                <use id="reset" xlink:href="#resetDef" x="30" y="36" onmousedown="handleReset()"/>
                <g id="arrowUp" xlink:href="#dirArrow" transform="translate(30 24)" onmousedown="handlePan(0,-1)">
                  <use xlink:href="#rim" fill="#404040">
                        <set attributeName="fill" to="#808080" begin="arrowUp.mouseover" end="arrowUp.mouseout"/>
                  </use>
                  <path fill="none" stroke="white" stroke-width="1.5" d="M0,-3.0v7 M-2.5,-0.5L0,-3.0L2.5,-0.5"/>
                </g>
                <g id="arrowRight" xlink:href="#dirArrow" transform="rotate(90) translate(36 -43)" onmousedown="handlePan(1,0)">
                  <use xlink:href="#rim" fill="#404040">
                        <set attributeName="fill" to="#808080" begin="arrowRight.mouseover" end="arrowRight.mouseout"/>
                  </use>
                  <path fill="none" stroke="white" stroke-width="1.5" d="M0,-3.0v7 M-2.5,-0.5L0,-3.0L2.5,-0.5"/>
                </g>
                <g id="arrowDown" xlink:href="#dirArrow" transform="rotate(180) translate(-30 -48)" onmousedown="handlePan(0,1)">
                  <use xlink:href="#rim" fill="#404040">
                        <set attributeName="fill" to="#808080" begin="arrowDown.mouseover" end="arrowDown.mouseout"/>
                  </use>
                  <path fill="none" stroke="white" stroke-width="1.5" d="M0,-3.0v7 M-2.5,-0.5L0,-3.0L2.5,-0.5"/>
                </g>
                <g id="arrowLeft" xlink:href="#dirArrow" transform="rotate(270) translate(-36 17)" onmousedown="handlePan(-1,0)">
                  <use xlink:href="#rim" fill="#404040">
                        <set attributeName="fill" to="#808080" begin="arrowLeft.mouseover" end="arrowLeft.mouseout"/>
                  </use>
                  <path fill="none" stroke="white" stroke-width="1.5" d="M0,-3.0v7 M-2.5,-0.5L0,-3.0L2.5,-0.5"/>
                </g>
        </g>
        <svg viewBox="0 0 15 15" width="100%" height="30px" preserveAspectRatio="xMaxYMin meet">
         <g id="arrow_out" transform="scale(0.3 0.3)">
          <a xlink:href="_red_black_tree_8h__incl_org.svg" target="_base">
           <rect id="button" ry="5" rx="5" y="6" x="6" height="38" width="38"
                fill="#f2f5e9" fill-opacity="0.5" stroke="#606060" stroke-width="1.0"/>
           <path id="arrow"
             d="M 11.500037,31.436501 C 11.940474,20.09759 22.043105,11.32322 32.158766,21.979434 L 37.068811,17.246167 C 37.068811,17.246167 37.088388,32 37.088388,32 L 22.160133,31.978069 C 22.160133,31.978069 26.997745,27.140456 26.997745,27.140456 C 18.528582,18.264221 13.291696,25.230495 11.500037,31.436501 z"
             style="fill:#404040;"/>
          </a>
         </g>
        </svg>
</svg>
