<?xml version="1.0" encoding="UTF-8" standalone="no"?>
<!DOCTYPE svg PUBLIC "-//W3C//DTD SVG 1.1//EN"
 "http://www.w3.org/Graphics/SVG/1.1/DTD/svg11.dtd">
<!-- Generated by graphviz version 2.36.0 (20140111.2315)
 -->
<!-- Title: wlp::RedBlackTreeIterator&lt; Element, Val, Ref, Ptr, GetVal &gt; Pages: 1 -->
<svg width="275pt" height="198pt"
 viewBox="0.00 0.00 275.00 198.00" xmlns="http://www.w3.org/2000/svg" xmlns:xlink="http://www.w3.org/1999/xlink">
<g id="graph0" class="graph" transform="scale(1 1) rotate(0) translate(4 194)">
<title>wlp::RedBlackTreeIterator&lt; Element, Val, Ref, Ptr, GetVal &gt;</title>
<polygon fill="white" stroke="none" points="-4,4 -4,-194 271,-194 271,4 -4,4"/>
<!-- Node1 -->
<g id="node1" class="node"><title>Node1</title>
<polygon fill="#bfbfbf" stroke="black" points="118.5,-0.5 118.5,-41.5 249.5,-41.5 249.5,-0.5 118.5,-0.5"/>
<text text-anchor="start" x="126.5" y="-29.5" font-family="Helvetica,sans-Serif" font-size="10.00">wlp::RedBlackTreeIterator</text>
<text text-anchor="start" x="126.5" y="-18.5" font-family="Helvetica,sans-Serif" font-size="10.00">&lt; Element, Val, Ref, Ptr,</text>
<text text-anchor="middle" x="184" y="-7.5" font-family="Helvetica,sans-Serif" font-size="10.00"> GetVal &gt;</text>
</g>
<!-- Node2 -->
<g id="node2" class="node"><title>Node2</title>
<g id="a_node2"><a xlink:href="../../d9/d53/structwlp_1_1_red_black_tree_node.html" target="_top" xlink:title="wlp::RedBlackTreeNode\l\&lt; Element \&gt;">
<polygon fill="white" stroke="black" points="1.5,-91 1.5,-121 124.5,-121 124.5,-91 1.5,-91"/>
<text text-anchor="start" x="9.5" y="-109" font-family="Helvetica,sans-Serif" font-size="10.00">wlp::RedBlackTreeNode</text>
<text text-anchor="middle" x="63" y="-98" font-family="Helvetica,sans-Serif" font-size="10.00">&lt; Element &gt;</text>
</a>
</g>
</g>
<!-- Node2&#45;&gt;Node1 -->
<g id="edge1" class="edge"><title>Node2&#45;&gt;Node1</title>
<path fill="none" stroke="#9a32cd" stroke-dasharray="5,2" d="M91.8692,-85.1972C111.021,-72.0599 136.057,-54.8868 155.195,-41.7587"/>
<polygon fill="#9a32cd" stroke="#9a32cd" points="89.7926,-82.3773 83.526,-90.9202 93.7522,-88.1498 89.7926,-82.3773"/>
<text text-anchor="middle" x="147" y="-63.5" font-family="Helvetica,sans-Serif" font-size="10.00"> m_node</text>
</g>
<!-- Node2&#45;&gt;Node2 -->
<g id="edge4" class="edge"><title>Node2&#45;&gt;Node2</title>
<path fill="none" stroke="#9a32cd" stroke-dasharray="5,2" d="M134.634,-111.305C139.226,-110.063 142,-108.295 142,-106 142,-102.328 134.899,-100.005 124.608,-99.0292"/>
<polygon fill="#9a32cd" stroke="#9a32cd" points="133.899,-107.879 124.608,-112.971 135.047,-114.784 133.899,-107.879"/>
<text text-anchor="middle" x="162.5" y="-114.5" font-family="Helvetica,sans-Serif" font-size="10.00"> m_left</text>
<text text-anchor="middle" x="162.5" y="-103.5" font-family="Helvetica,sans-Serif" font-size="10.00">m_parent</text>
<text text-anchor="middle" x="162.5" y="-92.5" font-family="Helvetica,sans-Serif" font-size="10.00">m_right</text>
</g>
<!-- Node3 -->
<g id="node3" class="node"><title>Node3</title>
<polygon fill="white" stroke="#bfbfbf" points="-0.5,-170.5 -0.5,-189.5 52.5,-189.5 52.5,-170.5 -0.5,-170.5"/>
<text text-anchor="middle" x="26" y="-177.5" font-family="Helvetica,sans-Serif" font-size="10.00">Element</text>
</g>
<!-- Node3&#45;&gt;Node2 -->
<g id="edge2" class="edge"><title>Node3&#45;&gt;Node2</title>
<path fill="none" stroke="#9a32cd" stroke-dasharray="5,2" d="M23.5348,-160.058C23.4279,-153.454 24.1953,-146.16 27,-140 30.3024,-132.747 36.0334,-126.371 41.9642,-121.206"/>
<polygon fill="#9a32cd" stroke="#9a32cd" points="20.059,-160.504 24.3344,-170.198 27.0373,-159.954 20.059,-160.504"/>
<text text-anchor="middle" x="53" y="-143.5" font-family="Helvetica,sans-Serif" font-size="10.00"> m_element</text>
</g>
<!-- Node4 -->
<g id="node4" class="node"><title>Node4</title>
<polygon fill="white" stroke="#bfbfbf" points="83.5,-170.5 83.5,-189.5 118.5,-189.5 118.5,-170.5 83.5,-170.5"/>
<text text-anchor="middle" x="101" y="-177.5" font-family="Helvetica,sans-Serif" font-size="10.00">type</text>
</g>
<!-- Node4&#45;&gt;Node2 -->
<g id="edge3" class="edge"><title>Node4&#45;&gt;Node2</title>
<path fill="none" stroke="#9a32cd" stroke-dasharray="5,2" d="M91.8021,-161.572C85.2753,-149.206 76.6233,-132.812 70.5111,-121.232"/>
<polygon fill="#9a32cd" stroke="#9a32cd" points="88.7287,-163.248 96.4917,-170.458 94.9194,-159.98 88.7287,-163.248"/>
<text text-anchor="middle" x="106" y="-143.5" font-family="Helvetica,sans-Serif" font-size="10.00"> m_color</text>
</g>
<!-- Node5 -->
<g id="node5" class="node"><title>Node5</title>
<polygon fill="white" stroke="#bfbfbf" points="201.5,-96.5 201.5,-115.5 248.5,-115.5 248.5,-96.5 201.5,-96.5"/>
<text text-anchor="middle" x="225" y="-103.5" font-family="Helvetica,sans-Serif" font-size="10.00">GetVal</text>
</g>
<!-- Node5&#45;&gt;Node1 -->
<g id="edge5" class="edge"><title>Node5&#45;&gt;Node1</title>
<path fill="none" stroke="#9a32cd" stroke-dasharray="5,2" d="M216.262,-87.3116C209.638,-73.9023 200.538,-55.48 193.691,-41.6189"/>
<polygon fill="#9a32cd" stroke="#9a32cd" points="213.2,-89.0145 220.767,-96.4302 219.476,-85.9143 213.2,-89.0145"/>
<text text-anchor="middle" x="237.5" y="-63.5" font-family="Helvetica,sans-Serif" font-size="10.00"> m_get_value</text>
</g>
</g>
</svg>
