<?xml version="1.0" encoding="UTF-8" standalone="no"?>
<!DOCTYPE svg PUBLIC "-//W3C//DTD SVG 1.1//EN"
 "http://www.w3.org/Graphics/SVG/1.1/DTD/svg11.dtd">
<!-- Generated by graphviz version 2.38.0 (20140413.2041)
 -->
<!-- Title: wlp::RedBlackTreeIterator&lt; Key, Val, Ref, Ptr &gt; Pages: 1 -->
<svg width="206pt" height="186pt"
 viewBox="0.00 0.00 205.50 186.00" xmlns="http://www.w3.org/2000/svg" xmlns:xlink="http://www.w3.org/1999/xlink">
<g id="graph0" class="graph" transform="scale(1 1) rotate(0) translate(4 182)">
<title>wlp::RedBlackTreeIterator&lt; Key, Val, Ref, Ptr &gt;</title>
<polygon fill="white" stroke="none" points="-4,4 -4,-182 201.5,-182 201.5,4 -4,4"/>
<!-- Node1 -->
<g id="node1" class="node"><title>Node1</title>
<polygon fill="#bfbfbf" stroke="black" points="14.5,-0.5 14.5,-30.5 142.5,-30.5 142.5,-0.5 14.5,-0.5"/>
<text text-anchor="start" x="22.5" y="-18.5" font-family="Helvetica,sans-Serif" font-size="10.00">wlp::RedBlackTreeIterator</text>
<text text-anchor="middle" x="78.5" y="-7.5" font-family="Helvetica,sans-Serif" font-size="10.00">&lt; Key, Val, Ref, Ptr &gt;</text>
</g>
<!-- Node2 -->
<g id="node2" class="node"><title>Node2</title>
<g id="a_node2"><a xlink:href="../../d9/d53/structwlp_1_1_red_black_tree_node.html" target="_top" xlink:title="wlp::RedBlackTreeNode\l\&lt; Key, Val \&gt;">
<polygon fill="white" stroke="black" points="18.5,-79.5 18.5,-109.5 138.5,-109.5 138.5,-79.5 18.5,-79.5"/>
<text text-anchor="start" x="26.5" y="-97.5" font-family="Helvetica,sans-Serif" font-size="10.00">wlp::RedBlackTreeNode</text>
<text text-anchor="middle" x="78.5" y="-86.5" font-family="Helvetica,sans-Serif" font-size="10.00">&lt; Key, Val &gt;</text>
</a>
</g>
</g>
<!-- Node2&#45;&gt;Node1 -->
<g id="edge1" class="edge"><title>Node2&#45;&gt;Node1</title>
<path fill="none" stroke="#9a32cd" stroke-dasharray="5,2" d="M78.5,-68.9937C78.5,-56.2991 78.5,-41.2551 78.5,-30.5335"/>
<polygon fill="#9a32cd" stroke="#9a32cd" points="75.0001,-69.377 78.5,-79.377 82.0001,-69.377 75.0001,-69.377"/>
<text text-anchor="middle" x="97.5" y="-52" font-family="Helvetica,sans-Serif" font-size="10.00"> m_node</text>
</g>
<!-- Node2&#45;&gt;Node2 -->
<g id="edge4" class="edge"><title>Node2&#45;&gt;Node2</title>
<path fill="none" stroke="#9a32cd" stroke-dasharray="5,2" d="M148.578,-99.9757C153.499,-98.7276 156.5,-96.9023 156.5,-94.5 156.5,-90.75 149.188,-88.4063 138.676,-87.4688"/>
<polygon fill="#9a32cd" stroke="#9a32cd" points="148.011,-96.5217 138.676,-101.531 149.098,-103.437 148.011,-96.5217"/>
<text text-anchor="middle" x="177" y="-103" font-family="Helvetica,sans-Serif" font-size="10.00"> m_left</text>
<text text-anchor="middle" x="177" y="-92" font-family="Helvetica,sans-Serif" font-size="10.00">m_parent</text>
<text text-anchor="middle" x="177" y="-81" font-family="Helvetica,sans-Serif" font-size="10.00">m_right</text>
</g>
<!-- Node3 -->
<g id="node3" class="node"><title>Node3</title>
<polygon fill="white" stroke="#bfbfbf" points="0,-158.5 0,-177.5 35,-177.5 35,-158.5 0,-158.5"/>
<text text-anchor="middle" x="17.5" y="-165.5" font-family="Helvetica,sans-Serif" font-size="10.00">type</text>
</g>
<!-- Node3&#45;&gt;Node2 -->
<g id="edge2" class="edge"><title>Node3&#45;&gt;Node2</title>
<path fill="none" stroke="#9a32cd" stroke-dasharray="5,2" d="M24.6814,-148.711C27.7588,-142.121 31.7485,-134.869 36.5,-129 42.369,-121.751 50.0615,-115.054 57.2574,-109.583"/>
<polygon fill="#9a32cd" stroke="#9a32cd" points="21.3256,-147.657 20.6182,-158.229 27.7635,-150.406 21.3256,-147.657"/>
<text text-anchor="middle" x="55.5" y="-132" font-family="Helvetica,sans-Serif" font-size="10.00"> m_color</text>
</g>
<!-- Node4 -->
<g id="node4" class="node"><title>Node4</title>
<polygon fill="white" stroke="#bfbfbf" points="61.5,-158.5 61.5,-177.5 95.5,-177.5 95.5,-158.5 61.5,-158.5"/>
<text text-anchor="middle" x="78.5" y="-165.5" font-family="Helvetica,sans-Serif" font-size="10.00">Key</text>
</g>
<!-- Node4&#45;&gt;Node2 -->
<g id="edge3" class="edge"><title>Node4&#45;&gt;Node2</title>
<path fill="none" stroke="#9a32cd" stroke-dasharray="5,2" d="M78.5,-147.899C78.5,-135.816 78.5,-120.466 78.5,-109.509"/>
<polygon fill="#9a32cd" stroke="#9a32cd" points="75.0001,-148.233 78.5,-158.233 82.0001,-148.233 75.0001,-148.233"/>
<text text-anchor="middle" x="95" y="-132" font-family="Helvetica,sans-Serif" font-size="10.00"> m_key</text>
</g>
<!-- Node5 -->
<g id="node5" class="node"><title>Node5</title>
<polygon fill="white" stroke="#bfbfbf" points="119,-158.5 119,-177.5 150,-177.5 150,-158.5 119,-158.5"/>
<text text-anchor="middle" x="134.5" y="-165.5" font-family="Helvetica,sans-Serif" font-size="10.00">Val</text>
</g>
<!-- Node5&#45;&gt;Node2 -->
<g id="edge5" class="edge"><title>Node5&#45;&gt;Node2</title>
<path fill="none" stroke="#9a32cd" stroke-dasharray="5,2" d="M125.662,-149.504C121.965,-142.832 117.391,-135.318 112.5,-129 107.224,-122.185 100.624,-115.379 94.6455,-109.699"/>
<polygon fill="#9a32cd" stroke="#9a32cd" points="122.617,-151.234 130.384,-158.439 128.806,-147.963 122.617,-151.234"/>
<text text-anchor="middle" x="134.5" y="-132" font-family="Helvetica,sans-Serif" font-size="10.00"> m_val</text>
</g>
</g>
</svg>
