<?xml version="1.0" encoding="UTF-8" standalone="no"?>
<!DOCTYPE svg PUBLIC "-//W3C//DTD SVG 1.1//EN"
 "http://www.w3.org/Graphics/SVG/1.1/DTD/svg11.dtd">
<!-- Generated by graphviz version 2.36.0 (20140111.2315)
 -->
<!-- Title: wlp::RedBlackTreeIterator&lt; Key, Val, Ref, Ptr &gt; Pages: 1 -->
<svg width="206pt" height="188pt"
 viewBox="0.00 0.00 206.00 188.00" xmlns="http://www.w3.org/2000/svg" xmlns:xlink="http://www.w3.org/1999/xlink">
<g id="graph0" class="graph" transform="scale(1 1) rotate(0) translate(4 184)">
<title>wlp::RedBlackTreeIterator&lt; Key, Val, Ref, Ptr &gt;</title>
<polygon fill="white" stroke="none" points="-4,4 -4,-184 202,-184 202,4 -4,4"/>
<!-- Node1 -->
<g id="node1" class="node"><title>Node1</title>
<polygon fill="#bfbfbf" stroke="black" points="12.5,-1 12.5,-31 143.5,-31 143.5,-1 12.5,-1"/>
<text text-anchor="start" x="20.5" y="-19" font-family="Helvetica,sans-Serif" font-size="10.00">wlp::RedBlackTreeIterator</text>
<text text-anchor="middle" x="78" y="-8" font-family="Helvetica,sans-Serif" font-size="10.00">&lt; Key, Val, Ref, Ptr &gt;</text>
</g>
<!-- Node2 -->
<g id="node2" class="node"><title>Node2</title>
<g id="a_node2"><a xlink:href="../../d9/d53/structwlp_1_1_red_black_tree_node.html" target="_top" xlink:title="wlp::RedBlackTreeNode\l\&lt; Key, Val \&gt;">
<polygon fill="white" stroke="black" points="16.5,-81 16.5,-111 139.5,-111 139.5,-81 16.5,-81"/>
<text text-anchor="start" x="24.5" y="-99" font-family="Helvetica,sans-Serif" font-size="10.00">wlp::RedBlackTreeNode</text>
<text text-anchor="middle" x="78" y="-88" font-family="Helvetica,sans-Serif" font-size="10.00">&lt; Key, Val &gt;</text>
</a>
</g>
</g>
<!-- Node2&#45;&gt;Node1 -->
<g id="edge1" class="edge"><title>Node2&#45;&gt;Node1</title>
<path fill="none" stroke="#9a32cd" stroke-dasharray="5,2" d="M78,-70.5644C78,-57.6243 78,-42.1862 78,-31.2157"/>
<polygon fill="#9a32cd" stroke="#9a32cd" points="74.5001,-70.6936 78,-80.6936 81.5001,-70.6936 74.5001,-70.6936"/>
<text text-anchor="middle" x="97" y="-53.5" font-family="Helvetica,sans-Serif" font-size="10.00"> m_node</text>
</g>
<!-- Node2&#45;&gt;Node2 -->
<g id="edge4" class="edge"><title>Node2&#45;&gt;Node2</title>
<path fill="none" stroke="#9a32cd" stroke-dasharray="5,2" d="M149.634,-101.305C154.226,-100.063 157,-98.2949 157,-96 157,-92.3281 149.899,-90.0045 139.608,-89.0292"/>
<polygon fill="#9a32cd" stroke="#9a32cd" points="148.899,-97.8787 139.608,-102.971 150.047,-104.784 148.899,-97.8787"/>
<text text-anchor="middle" x="177.5" y="-104.5" font-family="Helvetica,sans-Serif" font-size="10.00"> m_left</text>
<text text-anchor="middle" x="177.5" y="-93.5" font-family="Helvetica,sans-Serif" font-size="10.00">m_parent</text>
<text text-anchor="middle" x="177.5" y="-82.5" font-family="Helvetica,sans-Serif" font-size="10.00">m_right</text>
</g>
<!-- Node3 -->
<g id="node3" class="node"><title>Node3</title>
<polygon fill="white" stroke="#bfbfbf" points="-0.5,-160.5 -0.5,-179.5 34.5,-179.5 34.5,-160.5 -0.5,-160.5"/>
<text text-anchor="middle" x="17" y="-167.5" font-family="Helvetica,sans-Serif" font-size="10.00">type</text>
</g>
<!-- Node3&#45;&gt;Node2 -->
<g id="edge2" class="edge"><title>Node3&#45;&gt;Node2</title>
<path fill="none" stroke="#9a32cd" stroke-dasharray="5,2" d="M23.7468,-150.951C26.8543,-143.989 30.9783,-136.222 36,-130 41.7078,-122.928 49.2005,-116.435 56.275,-111.113"/>
<polygon fill="#9a32cd" stroke="#9a32cd" points="20.4694,-149.72 19.9354,-160.301 26.9515,-152.362 20.4694,-149.72"/>
<text text-anchor="middle" x="55" y="-133.5" font-family="Helvetica,sans-Serif" font-size="10.00"> m_color</text>
</g>
<!-- Node4 -->
<g id="node4" class="node"><title>Node4</title>
<polygon fill="white" stroke="#bfbfbf" points="61,-160.5 61,-179.5 95,-179.5 95,-160.5 61,-160.5"/>
<text text-anchor="middle" x="78" y="-167.5" font-family="Helvetica,sans-Serif" font-size="10.00">Key</text>
</g>
<!-- Node4&#45;&gt;Node2 -->
<g id="edge3" class="edge"><title>Node4&#45;&gt;Node2</title>
<path fill="none" stroke="#9a32cd" stroke-dasharray="5,2" d="M78,-150.085C78,-137.915 78,-122.354 78,-111.232"/>
<polygon fill="#9a32cd" stroke="#9a32cd" points="74.5001,-150.458 78,-160.458 81.5001,-150.458 74.5001,-150.458"/>
<text text-anchor="middle" x="94.5" y="-133.5" font-family="Helvetica,sans-Serif" font-size="10.00"> m_key</text>
</g>
<!-- Node5 -->
<g id="node5" class="node"><title>Node5</title>
<polygon fill="white" stroke="#bfbfbf" points="118.5,-160.5 118.5,-179.5 149.5,-179.5 149.5,-160.5 118.5,-160.5"/>
<text text-anchor="middle" x="134" y="-167.5" font-family="Helvetica,sans-Serif" font-size="10.00">Val</text>
</g>
<!-- Node5&#45;&gt;Node2 -->
<g id="edge5" class="edge"><title>Node5&#45;&gt;Node2</title>
<path fill="none" stroke="#9a32cd" stroke-dasharray="5,2" d="M125.25,-151.01C121.565,-144.158 116.976,-136.452 112,-130 106.876,-123.356 100.437,-116.768 94.5455,-111.245"/>
<polygon fill="#9a32cd" stroke="#9a32cd" points="122.275,-152.88 129.942,-160.192 128.509,-149.695 122.275,-152.88"/>
<text text-anchor="middle" x="135" y="-133.5" font-family="Helvetica,sans-Serif" font-size="10.00"> m_val</text>
</g>
</g>
</svg>
