<?xml version="1.0" encoding="UTF-8" standalone="no"?>
<!DOCTYPE svg PUBLIC "-//W3C//DTD SVG 1.1//EN"
 "http://www.w3.org/Graphics/SVG/1.1/DTD/svg11.dtd">
<!-- Generated by graphviz version 2.36.0 (20140111.2315)
 -->
<!-- Title: wlp::array_list::begin Pages: 1 -->
<svg width="266pt" height="104pt"
 viewBox="0.00 0.00 266.00 104.00" xmlns="http://www.w3.org/2000/svg" xmlns:xlink="http://www.w3.org/1999/xlink">
<g id="graph0" class="graph" transform="scale(1 1) rotate(0) translate(4 100)">
<title>wlp::array_list::begin</title>
<polygon fill="white" stroke="none" points="-4,4 -4,-100 262,-100 262,4 -4,4"/>
<!-- Node1 -->
<g id="node1" class="node"><title>Node1</title>
<polygon fill="#bfbfbf" stroke="black" points="0.5,-38.5 0.5,-57.5 107.5,-57.5 107.5,-38.5 0.5,-38.5"/>
<text text-anchor="middle" x="54" y="-45.5" font-family="Helvetica,sans-Serif" font-size="10.00">wlp::array_list::begin</text>
</g>
<!-- Node2 -->
<g id="node2" class="node"><title>Node2</title>
<g id="a_node2"><a xlink:href="../../d5/dca/namespacewlp.html#ac5b878c0fe198ce97804014fc7021641" target="_top" xlink:title="wlp::heap_sort">
<polygon fill="white" stroke="black" points="161,-76.5 161,-95.5 241,-95.5 241,-76.5 161,-76.5"/>
<text text-anchor="middle" x="201" y="-83.5" font-family="Helvetica,sans-Serif" font-size="10.00">wlp::heap_sort</text>
</a>
</g>
</g>
<!-- Node1&#45;&gt;Node2 -->
<g id="edge1" class="edge"><title>Node1&#45;&gt;Node2</title>
<path fill="none" stroke="midnightblue" d="M101.493,-60.1843C121.624,-65.46 144.838,-71.5438 163.673,-76.4799"/>
<polygon fill="midnightblue" stroke="midnightblue" points="102.15,-56.7385 91.5896,-57.589 100.376,-63.5098 102.15,-56.7385"/>
</g>
<!-- Node3 -->
<g id="node3" class="node"><title>Node3</title>
<g id="a_node3"><a xlink:href="../../d5/d92/classwlp_1_1array__heap.html#acdb595ade20c63a48846e5ffedb85276" target="_top" xlink:title="wlp::array_heap::pop">
<polygon fill="white" stroke="black" points="147.5,-38.5 147.5,-57.5 254.5,-57.5 254.5,-38.5 147.5,-38.5"/>
<text text-anchor="middle" x="201" y="-45.5" font-family="Helvetica,sans-Serif" font-size="10.00">wlp::array_heap::pop</text>
</a>
</g>
</g>
<!-- Node1&#45;&gt;Node3 -->
<g id="edge2" class="edge"><title>Node1&#45;&gt;Node3</title>
<path fill="none" stroke="midnightblue" d="M117.801,-48C127.549,-48 137.535,-48 147.038,-48"/>
<polygon fill="midnightblue" stroke="midnightblue" points="117.759,-44.5001 107.759,-48 117.758,-51.5001 117.759,-44.5001"/>
</g>
<!-- Node4 -->
<g id="node4" class="node"><title>Node4</title>
<g id="a_node4"><a xlink:href="../../d5/d92/classwlp_1_1array__heap.html#ab3813519f02496cdfc9af78d4f6d0d10" target="_top" xlink:title="wlp::array_heap::push">
<polygon fill="white" stroke="black" points="144.5,-0.5 144.5,-19.5 257.5,-19.5 257.5,-0.5 144.5,-0.5"/>
<text text-anchor="middle" x="201" y="-7.5" font-family="Helvetica,sans-Serif" font-size="10.00">wlp::array_heap::push</text>
</a>
</g>
</g>
<!-- Node1&#45;&gt;Node4 -->
<g id="edge3" class="edge"><title>Node1&#45;&gt;Node4</title>
<path fill="none" stroke="midnightblue" d="M101.493,-35.8157C121.624,-30.54 144.838,-24.4562 163.673,-19.5201"/>
<polygon fill="midnightblue" stroke="midnightblue" points="100.376,-32.4902 91.5896,-38.411 102.15,-39.2615 100.376,-32.4902"/>
</g>
</g>
</svg>
