<?xml version="1.0" encoding="UTF-8" standalone="no"?>
<!DOCTYPE svg PUBLIC "-//W3C//DTD SVG 1.1//EN"
 "http://www.w3.org/Graphics/SVG/1.1/DTD/svg11.dtd">
<!-- Generated by graphviz version 2.36.0 (20140111.2315)
 -->
<!-- Title: wlp::array_list::ensure_capacity Pages: 1 -->
<svg width="440pt" height="115pt"
 viewBox="0.00 0.00 440.00 115.00" xmlns="http://www.w3.org/2000/svg" xmlns:xlink="http://www.w3.org/1999/xlink">
<g id="graph0" class="graph" transform="scale(1 1) rotate(0) translate(4 111)">
<title>wlp::array_list::ensure_capacity</title>
<polygon fill="white" stroke="none" points="-4,4 -4,-111 436,-111 436,4 -4,4"/>
<!-- Node1 -->
<g id="node1" class="node"><title>Node1</title>
<polygon fill="#bfbfbf" stroke="black" points="0.5,-44 0.5,-74 113.5,-74 113.5,-44 0.5,-44"/>
<text text-anchor="start" x="8.5" y="-62" font-family="Helvetica,sans-Serif" font-size="10.00">wlp::array_list::ensure</text>
<text text-anchor="middle" x="57" y="-51" font-family="Helvetica,sans-Serif" font-size="10.00">_capacity</text>
</g>
<!-- Node2 -->
<g id="node2" class="node"><title>Node2</title>
<g id="a_node2"><a xlink:href="../../d3/dc1/classwlp_1_1array__list.html#a8489fbbfb43913e651581e0707256bd6" target="_top" xlink:title="wlp::array_list::insert">
<polygon fill="white" stroke="black" points="162.5,-87.5 162.5,-106.5 269.5,-106.5 269.5,-87.5 162.5,-87.5"/>
<text text-anchor="middle" x="216" y="-94.5" font-family="Helvetica,sans-Serif" font-size="10.00">wlp::array_list::insert</text>
</a>
</g>
</g>
<!-- Node1&#45;&gt;Node2 -->
<g id="edge1" class="edge"><title>Node1&#45;&gt;Node2</title>
<path fill="none" stroke="midnightblue" d="M123.52,-74.8584C141.238,-79.1467 159.862,-83.6546 175.648,-87.4754"/>
<polygon fill="midnightblue" stroke="midnightblue" points="124.337,-71.4551 113.794,-72.5044 122.69,-78.2587 124.337,-71.4551"/>
</g>
<!-- Node3 -->
<g id="node3" class="node"><title>Node3</title>
<g id="a_node3"><a xlink:href="../../d3/dc1/classwlp_1_1array__list.html#ae3a6a54ace463f196a4459da8f940b4a" target="_top" xlink:title="wlp::array_list::push_back">
<polygon fill="white" stroke="black" points="150.5,-49.5 150.5,-68.5 281.5,-68.5 281.5,-49.5 150.5,-49.5"/>
<text text-anchor="middle" x="216" y="-56.5" font-family="Helvetica,sans-Serif" font-size="10.00">wlp::array_list::push_back</text>
</a>
</g>
</g>
<!-- Node1&#45;&gt;Node3 -->
<g id="edge2" class="edge"><title>Node1&#45;&gt;Node3</title>
<path fill="none" stroke="midnightblue" d="M123.911,-59C132.634,-59 141.571,-59 150.275,-59"/>
<polygon fill="midnightblue" stroke="midnightblue" points="123.794,-55.5001 113.794,-59 123.794,-62.5001 123.794,-55.5001"/>
</g>
<!-- Node5 -->
<g id="node5" class="node"><title>Node5</title>
<g id="a_node5"><a xlink:href="../../d3/dc1/classwlp_1_1array__list.html#ad47bbdd1cac5ad87d80e3b046430fa9a" target="_top" xlink:title="wlp::array_list::push\l_front">
<polygon fill="white" stroke="black" points="164,-0 164,-30 268,-30 268,-0 164,-0"/>
<text text-anchor="start" x="172" y="-18" font-family="Helvetica,sans-Serif" font-size="10.00">wlp::array_list::push</text>
<text text-anchor="middle" x="216" y="-7" font-family="Helvetica,sans-Serif" font-size="10.00">_front</text>
</a>
</g>
</g>
<!-- Node1&#45;&gt;Node5 -->
<g id="edge4" class="edge"><title>Node1&#45;&gt;Node5</title>
<path fill="none" stroke="midnightblue" d="M121.242,-41.276C135.375,-37.3153 150.194,-33.1621 163.771,-29.3573"/>
<polygon fill="midnightblue" stroke="midnightblue" points="120.276,-37.912 111.591,-43.9808 122.165,-44.6523 120.276,-37.912"/>
</g>
<!-- Node4 -->
<g id="node4" class="node"><title>Node4</title>
<g id="a_node4"><a xlink:href="../../d5/d92/classwlp_1_1array__heap.html#ab3813519f02496cdfc9af78d4f6d0d10" target="_top" xlink:title="wlp::array_heap::push">
<polygon fill="white" stroke="black" points="318.5,-49.5 318.5,-68.5 431.5,-68.5 431.5,-49.5 318.5,-49.5"/>
<text text-anchor="middle" x="375" y="-56.5" font-family="Helvetica,sans-Serif" font-size="10.00">wlp::array_heap::push</text>
</a>
</g>
</g>
<!-- Node3&#45;&gt;Node4 -->
<g id="edge3" class="edge"><title>Node3&#45;&gt;Node4</title>
<path fill="none" stroke="midnightblue" d="M291.819,-59C300.771,-59 309.786,-59 318.399,-59"/>
<polygon fill="midnightblue" stroke="midnightblue" points="291.764,-55.5001 281.764,-59 291.764,-62.5001 291.764,-55.5001"/>
</g>
</g>
</svg>
