<?xml version="1.0" encoding="UTF-8" standalone="no"?>
<!DOCTYPE svg PUBLIC "-//W3C//DTD SVG 1.1//EN"
 "http://www.w3.org/Graphics/SVG/1.1/DTD/svg11.dtd">
<!-- Generated by graphviz version 2.36.0 (20140111.2315)
 -->
<!-- Title: wlp::array_list::shift_right Pages: 1 -->
<svg width="254pt" height="77pt"
 viewBox="0.00 0.00 254.00 77.00" xmlns="http://www.w3.org/2000/svg" xmlns:xlink="http://www.w3.org/1999/xlink">
<g id="graph0" class="graph" transform="scale(1 1) rotate(0) translate(4 73)">
<title>wlp::array_list::shift_right</title>
<polygon fill="white" stroke="none" points="-4,4 -4,-73 250,-73 250,4 -4,4"/>
<!-- Node1 -->
<g id="node1" class="node"><title>Node1</title>
<polygon fill="#bfbfbf" stroke="black" points="0,-22 0,-52 102,-52 102,-22 0,-22"/>
<text text-anchor="start" x="8" y="-40" font-family="Helvetica,sans-Serif" font-size="10.00">wlp::array_list::shift</text>
<text text-anchor="middle" x="51" y="-29" font-family="Helvetica,sans-Serif" font-size="10.00">_right</text>
</g>
<!-- Node2 -->
<g id="node2" class="node"><title>Node2</title>
<g id="a_node2"><a xlink:href="../../d3/dc1/classwlp_1_1array__list.html#a8489fbbfb43913e651581e0707256bd6" target="_top" xlink:title="wlp::array_list::insert">
<polygon fill="white" stroke="black" points="138.5,-49.5 138.5,-68.5 245.5,-68.5 245.5,-49.5 138.5,-49.5"/>
<text text-anchor="middle" x="192" y="-56.5" font-family="Helvetica,sans-Serif" font-size="10.00">wlp::array_list::insert</text>
</a>
</g>
</g>
<!-- Node1&#45;&gt;Node2 -->
<g id="edge1" class="edge"><title>Node1&#45;&gt;Node2</title>
<path fill="none" stroke="midnightblue" d="M112.179,-46.5247C120.798,-47.8889 129.613,-49.284 138.078,-50.6239"/>
<polygon fill="midnightblue" stroke="midnightblue" points="112.606,-43.0489 102.182,-44.9425 111.512,-49.9628 112.606,-43.0489"/>
</g>
<!-- Node3 -->
<g id="node3" class="node"><title>Node3</title>
<g id="a_node3"><a xlink:href="../../d3/dc1/classwlp_1_1array__list.html#ad47bbdd1cac5ad87d80e3b046430fa9a" target="_top" xlink:title="wlp::array_list::push\l_front">
<polygon fill="white" stroke="black" points="140,-0 140,-30 244,-30 244,-0 140,-0"/>
<text text-anchor="start" x="148" y="-18" font-family="Helvetica,sans-Serif" font-size="10.00">wlp::array_list::push</text>
<text text-anchor="middle" x="192" y="-7" font-family="Helvetica,sans-Serif" font-size="10.00">_front</text>
</a>
</g>
</g>
<!-- Node1&#45;&gt;Node3 -->
<g id="edge2" class="edge"><title>Node1&#45;&gt;Node3</title>
<path fill="none" stroke="midnightblue" d="M112.126,-27.4836C121.402,-26.0155 130.905,-24.5115 139.957,-23.0788"/>
<polygon fill="midnightblue" stroke="midnightblue" points="111.512,-24.0372 102.182,-29.0575 112.606,-30.9511 111.512,-24.0372"/>
</g>
</g>
</svg>
