<?xml version="1.0" encoding="UTF-8" standalone="no"?>
<!DOCTYPE svg PUBLIC "-//W3C//DTD SVG 1.1//EN"
 "http://www.w3.org/Graphics/SVG/1.1/DTD/svg11.dtd">
<!-- Generated by graphviz version 2.36.0 (20140111.2315)
 -->
<!-- Title: wlp::StateMapRowEx Pages: 1 -->
<svg width="391pt" height="96pt"
 viewBox="0.00 0.00 391.00 96.00" xmlns="http://www.w3.org/2000/svg" xmlns:xlink="http://www.w3.org/1999/xlink">
<g id="graph0" class="graph" transform="scale(1 1) rotate(0) translate(4 92)">
<title>wlp::StateMapRowEx</title>
<polygon fill="white" stroke="none" points="-4,4 -4,-92 387,-92 387,4 -4,4"/>
<!-- Node1 -->
<g id="node1" class="node"><title>Node1</title>
<polygon fill="#bfbfbf" stroke="black" points="138,-0.5 138,-19.5 250,-19.5 250,-0.5 138,-0.5"/>
<text text-anchor="middle" x="194" y="-7.5" font-family="Helvetica,sans-Serif" font-size="10.00">wlp::StateMapRowEx</text>
</g>
<!-- Node2 -->
<g id="node2" class="node"><title>Node2</title>
<g id="a_node2"><a xlink:href="../../d9/d8c/classwlp_1_1_entry_base.html" target="_top" xlink:title="wlp::EntryBase">
<polygon fill="white" stroke="black" points="-0.5,-68.5 -0.5,-87.5 82.5,-87.5 82.5,-68.5 -0.5,-68.5"/>
<text text-anchor="middle" x="41" y="-75.5" font-family="Helvetica,sans-Serif" font-size="10.00">wlp::EntryBase</text>
</a>
</g>
</g>
<!-- Node2&#45;&gt;Node1 -->
<g id="edge1" class="edge"><title>Node2&#45;&gt;Node1</title>
<path fill="none" stroke="#9a32cd" stroke-dasharray="5,2" d="M70.2619,-64.3772C100.7,-51.2472 147.532,-31.0452 173.993,-19.6305"/>
<polygon fill="#9a32cd" stroke="#9a32cd" points="68.7979,-61.1969 61.0021,-68.3717 71.5705,-67.6244 68.7979,-61.1969"/>
<text text-anchor="middle" x="144.5" y="-41.5" font-family="Helvetica,sans-Serif" font-size="10.00"> entry</text>
</g>
<!-- Node3 -->
<g id="node3" class="node"><title>Node3</title>
<g id="a_node3"><a xlink:href="../../d2/d06/classwlp_1_1_guard_base.html" target="_top" xlink:title="wlp::GuardBase">
<polygon fill="white" stroke="black" points="101,-68.5 101,-87.5 187,-87.5 187,-68.5 101,-68.5"/>
<text text-anchor="middle" x="144" y="-75.5" font-family="Helvetica,sans-Serif" font-size="10.00">wlp::GuardBase</text>
</a>
</g>
</g>
<!-- Node3&#45;&gt;Node1 -->
<g id="edge2" class="edge"><title>Node3&#45;&gt;Node1</title>
<path fill="none" stroke="#9a32cd" stroke-dasharray="5,2" d="M156.644,-60.3101C166.391,-47.4437 179.486,-30.1583 187.302,-19.8411"/>
<polygon fill="#9a32cd" stroke="#9a32cd" points="153.785,-58.2872 150.537,-68.3717 159.365,-62.5142 153.785,-58.2872"/>
<text text-anchor="middle" x="188" y="-41.5" font-family="Helvetica,sans-Serif" font-size="10.00"> guard</text>
</g>
<!-- Node4 -->
<g id="node4" class="node"><title>Node4</title>
<g id="a_node4"><a xlink:href="../../dd/dd5/classwlp_1_1_exit_base.html" target="_top" xlink:title="wlp::ExitBase">
<polygon fill="white" stroke="black" points="205.5,-68.5 205.5,-87.5 282.5,-87.5 282.5,-68.5 205.5,-68.5"/>
<text text-anchor="middle" x="244" y="-75.5" font-family="Helvetica,sans-Serif" font-size="10.00">wlp::ExitBase</text>
</a>
</g>
</g>
<!-- Node4&#45;&gt;Node1 -->
<g id="edge3" class="edge"><title>Node4&#45;&gt;Node1</title>
<path fill="none" stroke="#9a32cd" stroke-dasharray="5,2" d="M231.356,-60.3101C221.609,-47.4437 208.514,-30.1583 200.698,-19.8411"/>
<polygon fill="#9a32cd" stroke="#9a32cd" points="228.635,-62.5142 237.463,-68.3717 234.215,-58.2872 228.635,-62.5142"/>
<text text-anchor="middle" x="233.5" y="-41.5" font-family="Helvetica,sans-Serif" font-size="10.00"> exit</text>
</g>
<!-- Node5 -->
<g id="node5" class="node"><title>Node5</title>
<g id="a_node5"><a xlink:href="../../d3/d54/classwlp_1_1_state_base.html" target="_top" xlink:title="wlp::StateBase">
<polygon fill="white" stroke="black" points="300.5,-68.5 300.5,-87.5 383.5,-87.5 383.5,-68.5 300.5,-68.5"/>
<text text-anchor="middle" x="342" y="-75.5" font-family="Helvetica,sans-Serif" font-size="10.00">wlp::StateBase</text>
</a>
</g>
</g>
<!-- Node5&#45;&gt;Node1 -->
<g id="edge4" class="edge"><title>Node5&#45;&gt;Node1</title>
<path fill="none" stroke="#9a32cd" stroke-dasharray="5,2" d="M313.311,-64.2063C283.859,-51.0724 238.839,-30.9957 213.353,-19.6305"/>
<polygon fill="#9a32cd" stroke="#9a32cd" points="312.093,-67.4953 322.652,-68.3717 314.944,-61.1022 312.093,-67.4953"/>
<text text-anchor="middle" x="294.5" y="-41.5" font-family="Helvetica,sans-Serif" font-size="10.00"> state</text>
</g>
</g>
</svg>
