<?xml version="1.0" encoding="UTF-8" standalone="no"?>
<!DOCTYPE svg PUBLIC "-//W3C//DTD SVG 1.1//EN"
 "http://www.w3.org/Graphics/SVG/1.1/DTD/svg11.dtd">
<!-- Generated by graphviz version 2.38.0 (20140413.2041)
 -->
<!-- Title: wlp::StateMapRowEx Pages: 1 -->
<svg width="392pt" height="95pt"
 viewBox="0.00 0.00 392.00 95.00" xmlns="http://www.w3.org/2000/svg" xmlns:xlink="http://www.w3.org/1999/xlink">
<g id="graph0" class="graph" transform="scale(1 1) rotate(0) translate(4 91)">
<title>wlp::StateMapRowEx</title>
<polygon fill="white" stroke="none" points="-4,4 -4,-91 388,-91 388,4 -4,4"/>
<!-- Node1 -->
<g id="node1" class="node"><title>Node1</title>
<polygon fill="#bfbfbf" stroke="black" points="139.5,-0.5 139.5,-19.5 249.5,-19.5 249.5,-0.5 139.5,-0.5"/>
<text text-anchor="middle" x="194.5" y="-7.5" font-family="Helvetica,sans-Serif" font-size="10.00">wlp::StateMapRowEx</text>
</g>
<!-- Node2 -->
<g id="node2" class="node"><title>Node2</title>
<g id="a_node2"><a xlink:href="../../d9/d8c/classwlp_1_1_entry_base.html" target="_top" xlink:title="wlp::EntryBase">
<polygon fill="white" stroke="black" points="0,-67.5 0,-86.5 83,-86.5 83,-67.5 0,-67.5"/>
<text text-anchor="middle" x="41.5" y="-74.5" font-family="Helvetica,sans-Serif" font-size="10.00">wlp::EntryBase</text>
</a>
</g>
</g>
<!-- Node2&#45;&gt;Node1 -->
<g id="edge1" class="edge"><title>Node2&#45;&gt;Node1</title>
<path fill="none" stroke="#9a32cd" stroke-dasharray="5,2" d="M71.0443,-63.4485C101.338,-50.5787 147.651,-30.9032 174.099,-19.6672"/>
<polygon fill="#9a32cd" stroke="#9a32cd" points="69.6525,-60.237 61.8172,-67.3685 72.3896,-66.6797 69.6525,-60.237"/>
<text text-anchor="middle" x="140" y="-41" font-family="Helvetica,sans-Serif" font-size="10.00"> entry</text>
</g>
<!-- Node3 -->
<g id="node3" class="node"><title>Node3</title>
<g id="a_node3"><a xlink:href="../../d2/d06/classwlp_1_1_guard_base.html" target="_top" xlink:title="wlp::GuardBase">
<polygon fill="white" stroke="black" points="101.5,-67.5 101.5,-86.5 187.5,-86.5 187.5,-67.5 101.5,-67.5"/>
<text text-anchor="middle" x="144.5" y="-74.5" font-family="Helvetica,sans-Serif" font-size="10.00">wlp::GuardBase</text>
</a>
</g>
</g>
<!-- Node3&#45;&gt;Node1 -->
<g id="edge2" class="edge"><title>Node3&#45;&gt;Node1</title>
<path fill="none" stroke="#9a32cd" stroke-dasharray="5,2" d="M157.369,-59.2705C167.118,-46.5972 180.115,-29.701 187.864,-19.6273"/>
<polygon fill="#9a32cd" stroke="#9a32cd" points="154.566,-57.1735 151.243,-67.2338 160.115,-61.4416 154.566,-57.1735"/>
<text text-anchor="middle" x="186.5" y="-41" font-family="Helvetica,sans-Serif" font-size="10.00"> guard</text>
</g>
<!-- Node4 -->
<g id="node4" class="node"><title>Node4</title>
<g id="a_node4"><a xlink:href="../../dd/dd5/classwlp_1_1_exit_base.html" target="_top" xlink:title="wlp::ExitBase">
<polygon fill="white" stroke="black" points="206,-67.5 206,-86.5 283,-86.5 283,-67.5 206,-67.5"/>
<text text-anchor="middle" x="244.5" y="-74.5" font-family="Helvetica,sans-Serif" font-size="10.00">wlp::ExitBase</text>
</a>
</g>
</g>
<!-- Node4&#45;&gt;Node1 -->
<g id="edge3" class="edge"><title>Node4&#45;&gt;Node1</title>
<path fill="none" stroke="#9a32cd" stroke-dasharray="5,2" d="M231.631,-59.2705C221.882,-46.5972 208.885,-29.701 201.136,-19.6273"/>
<polygon fill="#9a32cd" stroke="#9a32cd" points="228.885,-61.4416 237.757,-67.2338 234.434,-57.1735 228.885,-61.4416"/>
<text text-anchor="middle" x="232" y="-41" font-family="Helvetica,sans-Serif" font-size="10.00"> exit</text>
</g>
<!-- Node5 -->
<g id="node5" class="node"><title>Node5</title>
<g id="a_node5"><a xlink:href="../../d3/d54/classwlp_1_1_state_base.html" target="_top" xlink:title="wlp::StateBase">
<polygon fill="white" stroke="black" points="301,-67.5 301,-86.5 384,-86.5 384,-67.5 301,-67.5"/>
<text text-anchor="middle" x="342.5" y="-74.5" font-family="Helvetica,sans-Serif" font-size="10.00">wlp::StateBase</text>
</a>
</g>
</g>
<!-- Node5&#45;&gt;Node1 -->
<g id="edge4" class="edge"><title>Node5&#45;&gt;Node1</title>
<path fill="none" stroke="#9a32cd" stroke-dasharray="5,2" d="M313.54,-63.281C284.23,-50.4085 239.707,-30.8545 214.235,-19.6672"/>
<polygon fill="#9a32cd" stroke="#9a32cd" points="312.283,-66.5518 322.847,-67.3685 315.098,-60.1427 312.283,-66.5518"/>
<text text-anchor="middle" x="290" y="-41" font-family="Helvetica,sans-Serif" font-size="10.00"> state</text>
</g>
</g>
</svg>
