<?xml version="1.0" encoding="UTF-8" standalone="no"?>
<!DOCTYPE svg PUBLIC "-//W3C//DTD SVG 1.1//EN"
 "http://www.w3.org/Graphics/SVG/1.1/DTD/svg11.dtd">
<!-- Generated by graphviz version 2.36.0 (20140111.2315)
 -->
<!-- Title: wlp::StringIterator::check_bounds Pages: 1 -->
<svg width="242pt" height="38pt"
 viewBox="0.00 0.00 242.00 38.00" xmlns="http://www.w3.org/2000/svg" xmlns:xlink="http://www.w3.org/1999/xlink">
<g id="graph0" class="graph" transform="scale(1 1) rotate(0) translate(4 34)">
<title>wlp::StringIterator::check_bounds</title>
<polygon fill="white" stroke="none" points="-4,4 -4,-34 238,-34 238,4 -4,4"/>
<!-- Node1 -->
<g id="node1" class="node"><title>Node1</title>
<polygon fill="#bfbfbf" stroke="black" points="0,-0 0,-30 94,-30 94,-0 0,-0"/>
<text text-anchor="start" x="8" y="-18" font-family="Helvetica,sans-Serif" font-size="10.00">wlp::StringIterator</text>
<text text-anchor="middle" x="47" y="-7" font-family="Helvetica,sans-Serif" font-size="10.00">::check_bounds</text>
</g>
<!-- Node2 -->
<g id="node2" class="node"><title>Node2</title>
<g id="a_node2"><a xlink:href="../../da/db5/classwlp_1_1dynamic__string.html#af10bd26879fe1464a9b7515b4c073835" target="_top" xlink:title="wlp::dynamic_string\l::length">
<polygon fill="white" stroke="black" points="130,-0 130,-30 234,-30 234,-0 130,-0"/>
<text text-anchor="start" x="138" y="-18" font-family="Helvetica,sans-Serif" font-size="10.00">wlp::dynamic_string</text>
<text text-anchor="middle" x="182" y="-7" font-family="Helvetica,sans-Serif" font-size="10.00">::length</text>
</a>
</g>
</g>
<!-- Node1&#45;&gt;Node2 -->
<g id="edge1" class="edge"><title>Node1&#45;&gt;Node2</title>
<path fill="none" stroke="midnightblue" d="M94.1437,-15C102.448,-15 111.221,-15 119.873,-15"/>
<polygon fill="midnightblue" stroke="midnightblue" points="119.937,-18.5001 129.937,-15 119.937,-11.5001 119.937,-18.5001"/>
</g>
</g>
</svg>
