<?xml version="1.0" encoding="UTF-8" standalone="no"?>
<!DOCTYPE svg PUBLIC "-//W3C//DTD SVG 1.1//EN"
 "http://www.w3.org/Graphics/SVG/1.1/DTD/svg11.dtd">
<!-- Generated by graphviz version 2.36.0 (20140111.2315)
 -->
<!-- Title: stl/TypeTraits.h Pages: 1 -->
<!--zoomable 420 -->
<svg id="main" version="1.1" xmlns="http://www.w3.org/2000/svg" xmlns:xlink="http://www.w3.org/1999/xlink" xml:space="preserve" onload="init(evt)">
<style type="text/css"><![CDATA[
.edge:hover path { stroke: red; }
.edge:hover polygon { stroke: red; fill: red; }
]]></style>
<script type="text/javascript"><![CDATA[
var edges = document.getElementsByTagName('g');
if (edges && edges.length) {
  for (var i=0;i<edges.length;i++) {
    if (edges[i].id.substr(0,4)=='edge') {
      edges[i].setAttribute('class','edge');
    }
  }
}
]]></script>
        <defs>
                <circle id="rim" cx="0" cy="0" r="7"/>
                <circle id="rim2" cx="0" cy="0" r="3.5"/>
                <g id="zoomPlus">
                        <use xlink:href="#rim" fill="#404040">
                                <set attributeName="fill" to="#808080" begin="zoomplus.mouseover" end="zoomplus.mouseout"/>
                        </use>
                        <path d="M-4,0h8M0,-4v8" fill="none" stroke="white" stroke-width="1.5" pointer-events="none"/>
                </g>
                <g id="zoomMin">
                        <use xlink:href="#rim" fill="#404040">
                                <set attributeName="fill" to="#808080" begin="zoomminus.mouseover" end="zoomminus.mouseout"/>
                        </use>
                        <path d="M-4,0h8" fill="none" stroke="white" stroke-width="1.5" pointer-events="none"/>
                </g>
                <g id="dirArrow">
                        <path fill="none" stroke="white" stroke-width="1.5" d="M0,-3.0v7 M-2.5,-0.5L0,-3.0L2.5,-0.5"/>
                </g>
               <g id="resetDef">
                       <use xlink:href="#rim2" fill="#404040">
                               <set attributeName="fill" to="#808080" begin="reset.mouseover" end="reset.mouseout"/>
                       </use>
               </g>
        </defs>

<script type="text/javascript">
var viewWidth = 624;
var viewHeight = 420;
var sectionId = 'dynsection-1';
</script>
<script xlink:href="../../svgpan.js"/>
<svg id="graph" class="graph">
<g id="viewport">
<title>stl/TypeTraits.h</title>
<polygon fill="white" stroke="none" points="-4,4 -4,-416 620,-416 620,4 -4,4"/>
<!-- Node1 -->
<g id="node1" class="node"><title>Node1</title>
<polygon fill="#bfbfbf" stroke="black" points="516.5,-392.5 516.5,-411.5 601.5,-411.5 601.5,-392.5 516.5,-392.5"/>
<text text-anchor="middle" x="559" y="-399.5" font-family="Helvetica,sans-Serif" font-size="10.00">stl/TypeTraits.h</text>
</g>
<!-- Node2 -->
<g id="node2" class="node"><title>Node2</title>
<g id="a_node2"><a xlink:href="../../d8/dd7/_concept_8h.html" target="_top" xlink:title="Concept definitions. ">
<polygon fill="white" stroke="black" points="488.5,-336.5 488.5,-355.5 563.5,-355.5 563.5,-336.5 488.5,-336.5"/>
<text text-anchor="middle" x="526" y="-343.5" font-family="Helvetica,sans-Serif" font-size="10.00">stl/Concept.h</text>
</a>
</g>
</g>
<!-- Node1&#45;&gt;Node2 -->
<g id="edge1" class="edge"><title>Node1&#45;&gt;Node2</title>
<path fill="none" stroke="midnightblue" d="M548.168,-383.275C542.528,-374.045 535.882,-363.17 531.348,-355.751"/>
<polygon fill="midnightblue" stroke="midnightblue" points="545.35,-385.375 553.551,-392.083 551.323,-381.725 545.35,-385.375"/>
</g>
<!-- Node9 -->
<g id="node9" class="node"><title>Node9</title>
<g id="a_node9"><a xlink:href="../../df/d03/_array_heap_8h.html" target="_top" xlink:title="Heap manipulation and implementation. ">
<polygon fill="white" stroke="black" points="531.5,-56.5 531.5,-75.5 616.5,-75.5 616.5,-56.5 531.5,-56.5"/>
<text text-anchor="middle" x="574" y="-63.5" font-family="Helvetica,sans-Serif" font-size="10.00">stl/ArrayHeap.h</text>
</a>
</g>
</g>
<!-- Node1&#45;&gt;Node9 -->
<g id="edge29" class="edge"><title>Node1&#45;&gt;Node9</title>
<path fill="none" stroke="midnightblue" d="M567.792,-383.309C577.568,-361.972 592,-324.755 592,-291 592,-291 592,-291 592,-177 592,-138.878 581.341,-94.2886 576.428,-75.7605"/>
<polygon fill="midnightblue" stroke="midnightblue" points="564.591,-381.89 563.451,-392.424 570.911,-384.901 564.591,-381.89"/>
</g>
<!-- Node3 -->
<g id="node3" class="node"><title>Node3</title>
<g id="a_node3"><a xlink:href="../../de/d0b/_string_iterator_8h.html" target="_top" xlink:title="strings/StringIterator.h">
<polygon fill="white" stroke="black" points="294.5,-280.5 294.5,-299.5 407.5,-299.5 407.5,-280.5 294.5,-280.5"/>
<text text-anchor="middle" x="351" y="-287.5" font-family="Helvetica,sans-Serif" font-size="10.00">strings/StringIterator.h</text>
</a>
</g>
</g>
<!-- Node2&#45;&gt;Node3 -->
<g id="edge2" class="edge"><title>Node2&#45;&gt;Node3</title>
<path fill="none" stroke="midnightblue" d="M488.525,-333.436C455.53,-323.255 408.244,-308.664 378.6,-299.516"/>
<polygon fill="midnightblue" stroke="midnightblue" points="487.683,-336.839 498.271,-336.444 489.747,-330.151 487.683,-336.839"/>
</g>
<!-- Node2&#45;&gt;Node9 -->
<g id="edge28" class="edge"><title>Node2&#45;&gt;Node9</title>
<path fill="none" stroke="midnightblue" d="M533.573,-326.88C541.866,-305.366 554,-268.21 554,-235 554,-235 554,-235 554,-177 554,-138.762 565.844,-94.2349 571.303,-75.7419"/>
<polygon fill="midnightblue" stroke="midnightblue" points="530.249,-325.767 529.776,-336.351 536.746,-328.372 530.249,-325.767"/>
</g>
<!-- Node4 -->
<g id="node4" class="node"><title>Node4</title>
<g id="a_node4"><a xlink:href="../../d8/d65/_static_string_8h.html" target="_top" xlink:title="StaticString provides a String that is on stack and is of fixed size. ">
<polygon fill="white" stroke="black" points="297,-224.5 297,-243.5 405,-243.5 405,-224.5 297,-224.5"/>
<text text-anchor="middle" x="351" y="-231.5" font-family="Helvetica,sans-Serif" font-size="10.00">strings/StaticString.h</text>
</a>
</g>
</g>
<!-- Node3&#45;&gt;Node4 -->
<g id="edge3" class="edge"><title>Node3&#45;&gt;Node4</title>
<path fill="none" stroke="midnightblue" d="M351,-269.805C351,-260.91 351,-250.78 351,-243.751"/>
<polygon fill="midnightblue" stroke="midnightblue" points="347.5,-270.083 351,-280.083 354.5,-270.083 347.5,-270.083"/>
</g>
<!-- Node20 -->
<g id="node20" class="node"><title>Node20</title>
<g id="a_node20"><a xlink:href="../../d6/d60/_dynamic_string_8h.html" target="_top" xlink:title="DynamicString is a class that provides dynamic strings and functions for dynamic strings. ">
<polygon fill="white" stroke="black" points="128,-224.5 128,-243.5 250,-243.5 250,-224.5 128,-224.5"/>
<text text-anchor="middle" x="189" y="-231.5" font-family="Helvetica,sans-Serif" font-size="10.00">strings/DynamicString.h</text>
</a>
</g>
</g>
<!-- Node3&#45;&gt;Node20 -->
<g id="edge25" class="edge"><title>Node3&#45;&gt;Node20</title>
<path fill="none" stroke="midnightblue" d="M315.516,-277.172C285.012,-267.004 241.755,-252.585 214.549,-243.516"/>
<polygon fill="midnightblue" stroke="midnightblue" points="314.737,-280.602 325.331,-280.444 316.951,-273.961 314.737,-280.602"/>
</g>
<!-- Node5 -->
<g id="node5" class="node"><title>Node5</title>
<g id="a_node5"><a xlink:href="../../de/d6d/_bitset_8h.html" target="_top" xlink:title="Bitset is a class that provides bits manipulation methods. ">
<polygon fill="white" stroke="black" points="157,-168.5 157,-187.5 221,-187.5 221,-168.5 157,-168.5"/>
<text text-anchor="middle" x="189" y="-175.5" font-family="Helvetica,sans-Serif" font-size="10.00">stl/Bitset.h</text>
</a>
</g>
</g>
<!-- Node4&#45;&gt;Node5 -->
<g id="edge4" class="edge"><title>Node4&#45;&gt;Node5</title>
<path fill="none" stroke="midnightblue" d="M315.516,-221.172C285.012,-211.004 241.755,-196.585 214.549,-187.516"/>
<polygon fill="midnightblue" stroke="midnightblue" points="314.737,-224.602 325.331,-224.444 316.951,-217.961 314.737,-224.602"/>
</g>
<!-- Node8 -->
<g id="node8" class="node"><title>Node8</title>
<g id="a_node8"><a xlink:href="../../d7/d0c/_comparator_8h.html" target="_top" xlink:title="Comparator implementation for basic types. ">
<polygon fill="white" stroke="black" points="436.5,-112.5 436.5,-131.5 525.5,-131.5 525.5,-112.5 436.5,-112.5"/>
<text text-anchor="middle" x="481" y="-119.5" font-family="Helvetica,sans-Serif" font-size="10.00">stl/Comparator.h</text>
</a>
</g>
</g>
<!-- Node4&#45;&gt;Node8 -->
<g id="edge7" class="edge"><title>Node4&#45;&gt;Node8</title>
<path fill="none" stroke="midnightblue" d="M368.945,-217.816C396.633,-194.387 448.867,-150.19 470.847,-131.591"/>
<polygon fill="midnightblue" stroke="midnightblue" points="366.574,-215.237 361.201,-224.368 371.096,-220.581 366.574,-215.237"/>
</g>
<!-- Node13 -->
<g id="node13" class="node"><title>Node13</title>
<g id="a_node13"><a xlink:href="../../d2/dc2/_equal_8h.html" target="_top" xlink:title="stl/Equal.h">
<polygon fill="white" stroke="black" points="319.5,-168.5 319.5,-187.5 382.5,-187.5 382.5,-168.5 319.5,-168.5"/>
<text text-anchor="middle" x="351" y="-175.5" font-family="Helvetica,sans-Serif" font-size="10.00">stl/Equal.h</text>
</a>
</g>
</g>
<!-- Node4&#45;&gt;Node13 -->
<g id="edge12" class="edge"><title>Node4&#45;&gt;Node13</title>
<path fill="none" stroke="midnightblue" d="M351,-213.805C351,-204.91 351,-194.78 351,-187.751"/>
<polygon fill="midnightblue" stroke="midnightblue" points="347.5,-214.083 351,-224.083 354.5,-214.083 347.5,-214.083"/>
</g>
<!-- Node18 -->
<g id="node18" class="node"><title>Node18</title>
<g id="a_node18"><a xlink:href="../../d2/dad/_hash_8h.html" target="_top" xlink:title="stl/Hash.h">
<polygon fill="white" stroke="black" points="239,-168.5 239,-187.5 301,-187.5 301,-168.5 239,-168.5"/>
<text text-anchor="middle" x="270" y="-175.5" font-family="Helvetica,sans-Serif" font-size="10.00">stl/Hash.h</text>
</a>
</g>
</g>
<!-- Node4&#45;&gt;Node18 -->
<g id="edge19" class="edge"><title>Node4&#45;&gt;Node18</title>
<path fill="none" stroke="midnightblue" d="M329.433,-218.622C314.636,-208.757 295.488,-195.992 282.982,-187.655"/>
<polygon fill="midnightblue" stroke="midnightblue" points="327.724,-221.689 337.986,-224.324 331.607,-215.865 327.724,-221.689"/>
</g>
<!-- Node19 -->
<g id="node19" class="node"><title>Node19</title>
<g id="a_node19"><a xlink:href="../../db/db5/_string_8h.html" target="_top" xlink:title="strings/String.h">
<polygon fill="white" stroke="black" points="439.5,-168.5 439.5,-187.5 522.5,-187.5 522.5,-168.5 439.5,-168.5"/>
<text text-anchor="middle" x="481" y="-175.5" font-family="Helvetica,sans-Serif" font-size="10.00">strings/String.h</text>
</a>
</g>
</g>
<!-- Node4&#45;&gt;Node19 -->
<g id="edge23" class="edge"><title>Node4&#45;&gt;Node19</title>
<path fill="none" stroke="midnightblue" d="M381.085,-220.503C405.457,-210.38 439.14,-196.388 460.497,-187.516"/>
<polygon fill="midnightblue" stroke="midnightblue" points="379.491,-217.375 371.599,-224.444 382.177,-223.84 379.491,-217.375"/>
</g>
<!-- Node6 -->
<g id="node6" class="node"><title>Node6</title>
<g id="a_node6"><a xlink:href="../../de/d66/_packet_constructor_8h.html" target="_top" xlink:title="comm/PacketConstructor.h">
<polygon fill="white" stroke="black" points="4.5,-112.5 4.5,-131.5 141.5,-131.5 141.5,-112.5 4.5,-112.5"/>
<text text-anchor="middle" x="73" y="-119.5" font-family="Helvetica,sans-Serif" font-size="10.00">comm/PacketConstructor.h</text>
</a>
</g>
</g>
<!-- Node5&#45;&gt;Node6 -->
<g id="edge5" class="edge"><title>Node5&#45;&gt;Node6</title>
<path fill="none" stroke="midnightblue" d="M161.28,-164.096C139.608,-154.007 110.098,-140.27 91.2946,-131.516"/>
<polygon fill="midnightblue" stroke="midnightblue" points="160.077,-167.396 170.619,-168.444 163.031,-161.05 160.077,-167.396"/>
</g>
<!-- Node7 -->
<g id="node7" class="node"><title>Node7</title>
<g id="a_node7"><a xlink:href="../../d9/dde/_packet_constructor_8cpp.html" target="_top" xlink:title="Creates a packet for sending data from the slave systems to the main computer. ">
<polygon fill="white" stroke="black" points="-0.5,-56.5 -0.5,-75.5 146.5,-75.5 146.5,-56.5 -0.5,-56.5"/>
<text text-anchor="middle" x="73" y="-63.5" font-family="Helvetica,sans-Serif" font-size="10.00">comm/PacketConstructor.cpp</text>
</a>
</g>
</g>
<!-- Node6&#45;&gt;Node7 -->
<g id="edge6" class="edge"><title>Node6&#45;&gt;Node7</title>
<path fill="none" stroke="midnightblue" d="M73,-101.805C73,-92.9102 73,-82.7798 73,-75.7511"/>
<polygon fill="midnightblue" stroke="midnightblue" points="69.5001,-102.083 73,-112.083 76.5001,-102.083 69.5001,-102.083"/>
</g>
<!-- Node8&#45;&gt;Node9 -->
<g id="edge8" class="edge"><title>Node8&#45;&gt;Node9</title>
<path fill="none" stroke="midnightblue" d="M504.806,-107.177C521.919,-97.2407 544.465,-84.1492 559.095,-75.6545"/>
<polygon fill="midnightblue" stroke="midnightblue" points="502.832,-104.276 495.942,-112.324 506.347,-110.329 502.832,-104.276"/>
</g>
<!-- Node10 -->
<g id="node10" class="node"><title>Node10</title>
<g id="a_node10"><a xlink:href="../../d5/d08/_red_black_tree_8h.html" target="_top" xlink:title="Red black tree implementation. ">
<polygon fill="white" stroke="black" points="412.5,-56.5 412.5,-75.5 513.5,-75.5 513.5,-56.5 412.5,-56.5"/>
<text text-anchor="middle" x="463" y="-63.5" font-family="Helvetica,sans-Serif" font-size="10.00">stl/RedBlackTree.h</text>
</a>
</g>
</g>
<!-- Node8&#45;&gt;Node10 -->
<g id="edge9" class="edge"><title>Node8&#45;&gt;Node10</title>
<path fill="none" stroke="midnightblue" d="M474.799,-102.396C471.787,-93.362 468.312,-82.936 465.917,-75.7511"/>
<polygon fill="midnightblue" stroke="midnightblue" points="471.545,-103.703 478.028,-112.083 478.186,-101.489 471.545,-103.703"/>
</g>
<!-- Node11 -->
<g id="node11" class="node"><title>Node11</title>
<g id="a_node11"><a xlink:href="../../df/d87/_tree_map_8h.html" target="_top" xlink:title="Map implementation using red black tree. ">
<polygon fill="white" stroke="black" points="377.5,-0.5 377.5,-19.5 454.5,-19.5 454.5,-0.5 377.5,-0.5"/>
<text text-anchor="middle" x="416" y="-7.5" font-family="Helvetica,sans-Serif" font-size="10.00">stl/TreeMap.h</text>
</a>
</g>
</g>
<!-- Node10&#45;&gt;Node11 -->
<g id="edge10" class="edge"><title>Node10&#45;&gt;Node11</title>
<path fill="none" stroke="midnightblue" d="M448.579,-48.4314C440.342,-38.9673 430.346,-27.4827 423.617,-19.7511"/>
<polygon fill="midnightblue" stroke="midnightblue" points="446.034,-50.8378 455.239,-56.083 451.314,-46.2421 446.034,-50.8378"/>
</g>
<!-- Node12 -->
<g id="node12" class="node"><title>Node12</title>
<g id="a_node12"><a xlink:href="../../dd/dba/_tree_set_8h.html" target="_top" xlink:title="Set implementation using red black tree. ">
<polygon fill="white" stroke="black" points="472.5,-0.5 472.5,-19.5 545.5,-19.5 545.5,-0.5 472.5,-0.5"/>
<text text-anchor="middle" x="509" y="-7.5" font-family="Helvetica,sans-Serif" font-size="10.00">stl/TreeSet.h</text>
</a>
</g>
</g>
<!-- Node10&#45;&gt;Node12 -->
<g id="edge11" class="edge"><title>Node10&#45;&gt;Node12</title>
<path fill="none" stroke="midnightblue" d="M477.114,-48.4314C485.176,-38.9673 494.959,-27.4827 501.545,-19.7511"/>
<polygon fill="midnightblue" stroke="midnightblue" points="474.416,-46.2009 470.596,-56.083 479.745,-50.7402 474.416,-46.2009"/>
</g>
<!-- Node13&#45;&gt;Node8 -->
<g id="edge13" class="edge"><title>Node13&#45;&gt;Node8</title>
<path fill="none" stroke="midnightblue" d="M381.085,-164.503C405.457,-154.38 439.14,-140.388 460.497,-131.516"/>
<polygon fill="midnightblue" stroke="midnightblue" points="379.491,-161.375 371.599,-168.444 382.177,-167.84 379.491,-161.375"/>
</g>
<!-- Node14 -->
<g id="node14" class="node"><title>Node14</title>
<g id="a_node14"><a xlink:href="../../d3/dbe/_chain_map_8h.html" target="_top" xlink:title="Hasher map implementation. ">
<polygon fill="white" stroke="black" points="296.5,-112.5 296.5,-131.5 379.5,-131.5 379.5,-112.5 296.5,-112.5"/>
<text text-anchor="middle" x="338" y="-119.5" font-family="Helvetica,sans-Serif" font-size="10.00">stl/ChainMap.h</text>
</a>
</g>
</g>
<!-- Node13&#45;&gt;Node14 -->
<g id="edge14" class="edge"><title>Node13&#45;&gt;Node14</title>
<path fill="none" stroke="midnightblue" d="M346.45,-158.101C344.292,-149.136 341.818,-138.858 340.107,-131.751"/>
<polygon fill="midnightblue" stroke="midnightblue" points="343.11,-159.18 348.853,-168.083 349.915,-157.542 343.11,-159.18"/>
</g>
<!-- Node16 -->
<g id="node16" class="node"><title>Node16</title>
<g id="a_node16"><a xlink:href="../../d5/d7a/_open_map_8h.html" target="_top" xlink:title="Hash map implementation. ">
<polygon fill="white" stroke="black" points="198,-112.5 198,-131.5 278,-131.5 278,-112.5 198,-112.5"/>
<text text-anchor="middle" x="238" y="-119.5" font-family="Helvetica,sans-Serif" font-size="10.00">stl/OpenMap.h</text>
</a>
</g>
</g>
<!-- Node13&#45;&gt;Node16 -->
<g id="edge16" class="edge"><title>Node13&#45;&gt;Node16</title>
<path fill="none" stroke="midnightblue" d="M323.997,-164.096C302.886,-154.007 274.138,-140.27 255.821,-131.516"/>
<polygon fill="midnightblue" stroke="midnightblue" points="322.563,-167.29 333.095,-168.444 325.581,-160.974 322.563,-167.29"/>
</g>
<!-- Node17 -->
<g id="node17" class="node"><title>Node17</title>
<g id="a_node17"><a xlink:href="../../d0/de6/_open_set_8h.html" target="_top" xlink:title="Hash set implementation. ">
<polygon fill="white" stroke="black" points="199.5,-56.5 199.5,-75.5 276.5,-75.5 276.5,-56.5 199.5,-56.5"/>
<text text-anchor="middle" x="238" y="-63.5" font-family="Helvetica,sans-Serif" font-size="10.00">stl/OpenSet.h</text>
</a>
</g>
</g>
<!-- Node13&#45;&gt;Node17 -->
<g id="edge18" class="edge"><title>Node13&#45;&gt;Node17</title>
<path fill="none" stroke="midnightblue" d="M369.988,-161.566C384.384,-147.97 399.837,-127.91 388,-112 381.062,-102.675 316.465,-85.7294 274.334,-75.5045"/>
<polygon fill="midnightblue" stroke="midnightblue" points="367.449,-159.139 362.279,-168.387 372.087,-164.382 367.449,-159.139"/>
</g>
<!-- Node15 -->
<g id="node15" class="node"><title>Node15</title>
<g id="a_node15"><a xlink:href="../../d6/d59/_chain_set_8h.html" target="_top" xlink:title="Hash set implementation. ">
<polygon fill="white" stroke="black" points="298.5,-56.5 298.5,-75.5 377.5,-75.5 377.5,-56.5 298.5,-56.5"/>
<text text-anchor="middle" x="338" y="-63.5" font-family="Helvetica,sans-Serif" font-size="10.00">stl/ChainSet.h</text>
</a>
</g>
</g>
<!-- Node14&#45;&gt;Node15 -->
<g id="edge15" class="edge"><title>Node14&#45;&gt;Node15</title>
<path fill="none" stroke="midnightblue" d="M338,-101.805C338,-92.9102 338,-82.7798 338,-75.7511"/>
<polygon fill="midnightblue" stroke="midnightblue" points="334.5,-102.083 338,-112.083 341.5,-102.083 334.5,-102.083"/>
</g>
<!-- Node16&#45;&gt;Node17 -->
<g id="edge17" class="edge"><title>Node16&#45;&gt;Node17</title>
<path fill="none" stroke="midnightblue" d="M238,-101.805C238,-92.9102 238,-82.7798 238,-75.7511"/>
<polygon fill="midnightblue" stroke="midnightblue" points="234.5,-102.083 238,-112.083 241.5,-102.083 234.5,-102.083"/>
</g>
<!-- Node18&#45;&gt;Node14 -->
<g id="edge20" class="edge"><title>Node18&#45;&gt;Node14</title>
<path fill="none" stroke="midnightblue" d="M288.762,-162.101C301,-152.382 316.559,-140.027 326.876,-131.834"/>
<polygon fill="midnightblue" stroke="midnightblue" points="286.58,-159.364 280.925,-168.324 290.933,-164.846 286.58,-159.364"/>
</g>
<!-- Node18&#45;&gt;Node16 -->
<g id="edge21" class="edge"><title>Node18&#45;&gt;Node16</title>
<path fill="none" stroke="midnightblue" d="M259.496,-159.275C254.027,-150.045 247.582,-139.17 243.186,-131.751"/>
<polygon fill="midnightblue" stroke="midnightblue" points="256.607,-161.264 264.716,-168.083 262.629,-157.696 256.607,-161.264"/>
</g>
<!-- Node18&#45;&gt;Node17 -->
<g id="edge22" class="edge"><title>Node18&#45;&gt;Node17</title>
<path fill="none" stroke="midnightblue" d="M229.478,-164.536C213.989,-157.574 197.918,-147.156 189,-132 176.315,-110.441 204.595,-87.6216 223.257,-75.5904"/>
<polygon fill="midnightblue" stroke="midnightblue" points="228.397,-167.876 238.977,-168.436 231.056,-161.4 228.397,-167.876"/>
</g>
<!-- Node19&#45;&gt;Node8 -->
<g id="edge24" class="edge"><title>Node19&#45;&gt;Node8</title>
<path fill="none" stroke="midnightblue" d="M481,-157.805C481,-148.91 481,-138.78 481,-131.751"/>
<polygon fill="midnightblue" stroke="midnightblue" points="477.5,-158.083 481,-168.083 484.5,-158.083 477.5,-158.083"/>
</g>
<!-- Node20&#45;&gt;Node5 -->
<g id="edge26" class="edge"><title>Node20&#45;&gt;Node5</title>
<path fill="none" stroke="midnightblue" d="M189,-213.805C189,-204.91 189,-194.78 189,-187.751"/>
<polygon fill="midnightblue" stroke="midnightblue" points="185.5,-214.083 189,-224.083 192.5,-214.083 185.5,-214.083"/>
</g>
<!-- Node21 -->
<g id="node21" class="node"><title>Node21</title>
<g id="a_node21"><a xlink:href="../../d9/d8a/_dynamic_string_8cpp.html" target="_top" xlink:title="DynamicString is a class that provides dynamic strings and functions for dynamic strings. ">
<polygon fill="white" stroke="black" points="7,-168.5 7,-187.5 139,-187.5 139,-168.5 7,-168.5"/>
<text text-anchor="middle" x="73" y="-175.5" font-family="Helvetica,sans-Serif" font-size="10.00">strings/DynamicString.cpp</text>
</a>
</g>
</g>
<!-- Node20&#45;&gt;Node21 -->
<g id="edge27" class="edge"><title>Node20&#45;&gt;Node21</title>
<path fill="none" stroke="midnightblue" d="M161.28,-220.096C139.608,-210.007 110.098,-196.27 91.2946,-187.516"/>
<polygon fill="midnightblue" stroke="midnightblue" points="160.077,-223.396 170.619,-224.444 163.031,-217.05 160.077,-223.396"/>
</g>
</g>
</svg>
        <g id="navigator" transform="translate(0 0)" fill="#404254">
                <rect fill="#f2f5e9" fill-opacity="0.5" stroke="#606060" stroke-width=".5" x="0" y="0" width="60" height="60"/>
                <use id="zoomplus" xlink:href="#zoomPlus" x="17" y="9" onmousedown="handleZoom(evt,'in')"/>
                <use id="zoomminus" xlink:href="#zoomMin" x="42" y="9" onmousedown="handleZoom(evt,'out')"/>
                <use id="reset" xlink:href="#resetDef" x="30" y="36" onmousedown="handleReset()"/>
                <g id="arrowUp" xlink:href="#dirArrow" transform="translate(30 24)" onmousedown="handlePan(0,-1)">
                  <use xlink:href="#rim" fill="#404040">
                        <set attributeName="fill" to="#808080" begin="arrowUp.mouseover" end="arrowUp.mouseout"/>
                  </use>
                  <path fill="none" stroke="white" stroke-width="1.5" d="M0,-3.0v7 M-2.5,-0.5L0,-3.0L2.5,-0.5"/>
                </g>
                <g id="arrowRight" xlink:href="#dirArrow" transform="rotate(90) translate(36 -43)" onmousedown="handlePan(1,0)">
                  <use xlink:href="#rim" fill="#404040">
                        <set attributeName="fill" to="#808080" begin="arrowRight.mouseover" end="arrowRight.mouseout"/>
                  </use>
                  <path fill="none" stroke="white" stroke-width="1.5" d="M0,-3.0v7 M-2.5,-0.5L0,-3.0L2.5,-0.5"/>
                </g>
                <g id="arrowDown" xlink:href="#dirArrow" transform="rotate(180) translate(-30 -48)" onmousedown="handlePan(0,1)">
                  <use xlink:href="#rim" fill="#404040">
                        <set attributeName="fill" to="#808080" begin="arrowDown.mouseover" end="arrowDown.mouseout"/>
                  </use>
                  <path fill="none" stroke="white" stroke-width="1.5" d="M0,-3.0v7 M-2.5,-0.5L0,-3.0L2.5,-0.5"/>
                </g>
                <g id="arrowLeft" xlink:href="#dirArrow" transform="rotate(270) translate(-36 17)" onmousedown="handlePan(-1,0)">
                  <use xlink:href="#rim" fill="#404040">
                        <set attributeName="fill" to="#808080" begin="arrowLeft.mouseover" end="arrowLeft.mouseout"/>
                  </use>
                  <path fill="none" stroke="white" stroke-width="1.5" d="M0,-3.0v7 M-2.5,-0.5L0,-3.0L2.5,-0.5"/>
                </g>
        </g>
        <svg viewBox="0 0 15 15" width="100%" height="30px" preserveAspectRatio="xMaxYMin meet">
         <g id="arrow_out" transform="scale(0.3 0.3)">
          <a xlink:href="_type_traits_8h__dep__incl_org.svg" target="_base">
           <rect id="button" ry="5" rx="5" y="6" x="6" height="38" width="38"
                fill="#f2f5e9" fill-opacity="0.5" stroke="#606060" stroke-width="1.0"/>
           <path id="arrow"
             d="M 11.500037,31.436501 C 11.940474,20.09759 22.043105,11.32322 32.158766,21.979434 L 37.068811,17.246167 C 37.068811,17.246167 37.088388,32 37.088388,32 L 22.160133,31.978069 C 22.160133,31.978069 26.997745,27.140456 26.997745,27.140456 C 18.528582,18.264221 13.291696,25.230495 11.500037,31.436501 z"
             style="fill:#404040;"/>
          </a>
         </g>
        </svg>
</svg>
