<?xml version="1.0" encoding="UTF-8" standalone="no"?>
<!DOCTYPE svg PUBLIC "-//W3C//DTD SVG 1.1//EN"
 "http://www.w3.org/Graphics/SVG/1.1/DTD/svg11.dtd">
<!-- Generated by graphviz version 2.36.0 (20140111.2315)
 -->
<!-- Title: stl/TypeTraits.h Pages: 1 -->
<svg width="715pt" height="420pt"
 viewBox="0.00 0.00 715.00 420.00" xmlns="http://www.w3.org/2000/svg" xmlns:xlink="http://www.w3.org/1999/xlink">
<g id="graph0" class="graph" transform="scale(1 1) rotate(0) translate(4 416)">
<title>stl/TypeTraits.h</title>
<polygon fill="white" stroke="none" points="-4,4 -4,-416 711,-416 711,4 -4,4"/>
<!-- Node1 -->
<g id="node1" class="node"><title>Node1</title>
<polygon fill="#bfbfbf" stroke="black" points="598.5,-392.5 598.5,-411.5 683.5,-411.5 683.5,-392.5 598.5,-392.5"/>
<text text-anchor="middle" x="641" y="-399.5" font-family="Helvetica,sans-Serif" font-size="10.00">stl/TypeTraits.h</text>
</g>
<!-- Node2 -->
<g id="node2" class="node"><title>Node2</title>
<g id="a_node2"><a xlink:href="../../d8/dd7/_concept_8h.html" target="_top" xlink:title="Concept definitions. ">
<polygon fill="white" stroke="black" points="570.5,-336.5 570.5,-355.5 645.5,-355.5 645.5,-336.5 570.5,-336.5"/>
<text text-anchor="middle" x="608" y="-343.5" font-family="Helvetica,sans-Serif" font-size="10.00">stl/Concept.h</text>
</a>
</g>
</g>
<!-- Node1&#45;&gt;Node2 -->
<g id="edge1" class="edge"><title>Node1&#45;&gt;Node2</title>
<path fill="none" stroke="midnightblue" d="M630.168,-383.275C624.528,-374.045 617.882,-363.17 613.348,-355.751"/>
<polygon fill="midnightblue" stroke="midnightblue" points="627.35,-385.375 635.551,-392.083 633.323,-381.725 627.35,-385.375"/>
</g>
<!-- Node9 -->
<g id="node9" class="node"><title>Node9</title>
<g id="a_node9"><a xlink:href="../../df/d03/_array_heap_8h.html" target="_top" xlink:title="Heap manipulation and implementation. ">
<polygon fill="white" stroke="black" points="622.5,-56.5 622.5,-75.5 707.5,-75.5 707.5,-56.5 622.5,-56.5"/>
<text text-anchor="middle" x="665" y="-63.5" font-family="Helvetica,sans-Serif" font-size="10.00">stl/ArrayHeap.h</text>
</a>
</g>
</g>
<!-- Node1&#45;&gt;Node9 -->
<g id="edge28" class="edge"><title>Node1&#45;&gt;Node9</title>
<path fill="none" stroke="midnightblue" d="M649.792,-383.309C659.568,-361.972 674,-324.755 674,-291 674,-291 674,-291 674,-177 674,-139.061 668.616,-94.0063 666.177,-75.5383"/>
<polygon fill="midnightblue" stroke="midnightblue" points="646.591,-381.89 645.451,-392.424 652.911,-384.901 646.591,-381.89"/>
</g>
<!-- Node3 -->
<g id="node3" class="node"><title>Node3</title>
<g id="a_node3"><a xlink:href="../../de/d0b/_string_iterator_8h.html" target="_top" xlink:title="strings/StringIterator.h">
<polygon fill="white" stroke="black" points="394.5,-280.5 394.5,-299.5 507.5,-299.5 507.5,-280.5 394.5,-280.5"/>
<text text-anchor="middle" x="451" y="-287.5" font-family="Helvetica,sans-Serif" font-size="10.00">strings/StringIterator.h</text>
</a>
</g>
</g>
<!-- Node2&#45;&gt;Node3 -->
<g id="edge2" class="edge"><title>Node2&#45;&gt;Node3</title>
<path fill="none" stroke="midnightblue" d="M573.611,-333.172C544.048,-323.004 502.127,-308.585 475.761,-299.516"/>
<polygon fill="midnightblue" stroke="midnightblue" points="572.528,-336.501 583.123,-336.444 574.805,-329.881 572.528,-336.501"/>
</g>
<!-- Node2&#45;&gt;Node9 -->
<g id="edge27" class="edge"><title>Node2&#45;&gt;Node9</title>
<path fill="none" stroke="midnightblue" d="M615.573,-326.88C623.866,-305.366 636,-268.21 636,-235 636,-235 636,-235 636,-177 636,-138.093 653.173,-93.9267 661.089,-75.6354"/>
<polygon fill="midnightblue" stroke="midnightblue" points="612.249,-325.767 611.776,-336.351 618.746,-328.372 612.249,-325.767"/>
</g>
<!-- Node4 -->
<g id="node4" class="node"><title>Node4</title>
<g id="a_node4"><a xlink:href="../../db/db5/_string_8h.html" target="_top" xlink:title="strings/String.h">
<polygon fill="white" stroke="black" points="355.5,-224.5 355.5,-243.5 438.5,-243.5 438.5,-224.5 355.5,-224.5"/>
<text text-anchor="middle" x="397" y="-231.5" font-family="Helvetica,sans-Serif" font-size="10.00">strings/String.h</text>
</a>
</g>
</g>
<!-- Node3&#45;&gt;Node4 -->
<g id="edge3" class="edge"><title>Node3&#45;&gt;Node4</title>
<path fill="none" stroke="midnightblue" d="M435.002,-273.002C425.433,-263.433 413.639,-251.639 405.751,-243.751"/>
<polygon fill="midnightblue" stroke="midnightblue" points="432.537,-275.487 442.083,-280.083 437.487,-270.537 432.537,-275.487"/>
</g>
<!-- Node5 -->
<g id="node5" class="node"><title>Node5</title>
<g id="a_node5"><a xlink:href="../../de/d6d/_bitset_8h.html" target="_top" xlink:title="Bitset is a class that provides bits manipulation methods. ">
<polygon fill="white" stroke="black" points="73,-168.5 73,-187.5 137,-187.5 137,-168.5 73,-168.5"/>
<text text-anchor="middle" x="105" y="-175.5" font-family="Helvetica,sans-Serif" font-size="10.00">stl/Bitset.h</text>
</a>
</g>
</g>
<!-- Node4&#45;&gt;Node5 -->
<g id="edge4" class="edge"><title>Node4&#45;&gt;Node5</title>
<path fill="none" stroke="midnightblue" d="M345.43,-223.463C285.298,-212.343 187.736,-194.301 137.373,-184.987"/>
<polygon fill="midnightblue" stroke="midnightblue" points="345.004,-226.944 355.474,-225.32 346.277,-220.06 345.004,-226.944"/>
</g>
<!-- Node8 -->
<g id="node8" class="node"><title>Node8</title>
<g id="a_node8"><a xlink:href="../../d7/d0c/_comparator_8h.html" target="_top" xlink:title="Comparator implementation for basic types. ">
<polygon fill="white" stroke="black" points="518.5,-112.5 518.5,-131.5 607.5,-131.5 607.5,-112.5 518.5,-112.5"/>
<text text-anchor="middle" x="563" y="-119.5" font-family="Helvetica,sans-Serif" font-size="10.00">stl/Comparator.h</text>
</a>
</g>
</g>
<!-- Node4&#45;&gt;Node8 -->
<g id="edge7" class="edge"><title>Node4&#45;&gt;Node8</title>
<path fill="none" stroke="midnightblue" d="M426.126,-220.111C443.715,-211.844 466.275,-200.368 485,-188 511.77,-170.319 539.9,-144.925 553.926,-131.722"/>
<polygon fill="midnightblue" stroke="midnightblue" points="424.534,-216.99 416.921,-224.359 427.468,-223.346 424.534,-216.99"/>
</g>
<!-- Node13 -->
<g id="node13" class="node"><title>Node13</title>
<g id="a_node13"><a xlink:href="../../d2/dc2/_equal_8h.html" target="_top" xlink:title="stl/Equal.h">
<polygon fill="white" stroke="black" points="413.5,-168.5 413.5,-187.5 476.5,-187.5 476.5,-168.5 413.5,-168.5"/>
<text text-anchor="middle" x="445" y="-175.5" font-family="Helvetica,sans-Serif" font-size="10.00">stl/Equal.h</text>
</a>
</g>
</g>
<!-- Node4&#45;&gt;Node13 -->
<g id="edge12" class="edge"><title>Node4&#45;&gt;Node13</title>
<path fill="none" stroke="midnightblue" d="M411.728,-216.431C420.14,-206.967 430.349,-195.483 437.221,-187.751"/>
<polygon fill="midnightblue" stroke="midnightblue" points="408.954,-214.284 404.926,-224.083 414.186,-218.934 408.954,-214.284"/>
</g>
<!-- Node19 -->
<g id="node19" class="node"><title>Node19</title>
<g id="a_node19"><a xlink:href="../../d2/dad/_hash_8h.html" target="_top" xlink:title="stl/Hash.h">
<polygon fill="white" stroke="black" points="319,-168.5 319,-187.5 381,-187.5 381,-168.5 319,-168.5"/>
<text text-anchor="middle" x="350" y="-175.5" font-family="Helvetica,sans-Serif" font-size="10.00">stl/Hash.h</text>
</a>
</g>
</g>
<!-- Node4&#45;&gt;Node19 -->
<g id="edge21" class="edge"><title>Node4&#45;&gt;Node19</title>
<path fill="none" stroke="midnightblue" d="M382.579,-216.431C374.342,-206.967 364.346,-195.483 357.617,-187.751"/>
<polygon fill="midnightblue" stroke="midnightblue" points="380.034,-218.838 389.239,-224.083 385.314,-214.242 380.034,-218.838"/>
</g>
<!-- Node20 -->
<g id="node20" class="node"><title>Node20</title>
<g id="a_node20"><a xlink:href="../../d9/dae/_string_8cpp.html" target="_top" xlink:title="strings/String.cpp">
<polygon fill="white" stroke="black" points="208.5,-168.5 208.5,-187.5 301.5,-187.5 301.5,-168.5 208.5,-168.5"/>
<text text-anchor="middle" x="255" y="-175.5" font-family="Helvetica,sans-Serif" font-size="10.00">strings/String.cpp</text>
</a>
</g>
</g>
<!-- Node4&#45;&gt;Node20 -->
<g id="edge26" class="edge"><title>Node4&#45;&gt;Node20</title>
<path fill="none" stroke="midnightblue" d="M364.845,-220.772C338.172,-210.629 300.931,-196.467 277.395,-187.516"/>
<polygon fill="midnightblue" stroke="midnightblue" points="363.909,-224.16 374.5,-224.444 366.397,-217.618 363.909,-224.16"/>
</g>
<!-- Node6 -->
<g id="node6" class="node"><title>Node6</title>
<g id="a_node6"><a xlink:href="../../de/d66/_packet_constructor_8h.html" target="_top" xlink:title="comm/PacketConstructor.h">
<polygon fill="white" stroke="black" points="4.5,-112.5 4.5,-131.5 141.5,-131.5 141.5,-112.5 4.5,-112.5"/>
<text text-anchor="middle" x="73" y="-119.5" font-family="Helvetica,sans-Serif" font-size="10.00">comm/PacketConstructor.h</text>
</a>
</g>
</g>
<!-- Node5&#45;&gt;Node6 -->
<g id="edge5" class="edge"><title>Node5&#45;&gt;Node6</title>
<path fill="none" stroke="midnightblue" d="M94.4961,-159.275C89.0269,-150.045 82.5824,-139.17 78.1858,-131.751"/>
<polygon fill="midnightblue" stroke="midnightblue" points="91.6068,-161.264 99.7159,-168.083 97.6288,-157.696 91.6068,-161.264"/>
</g>
<!-- Node7 -->
<g id="node7" class="node"><title>Node7</title>
<g id="a_node7"><a xlink:href="../../d9/dde/_packet_constructor_8cpp.html" target="_top" xlink:title="Creates a packet for sending data from the slave systems to the main computer. ">
<polygon fill="white" stroke="black" points="-0.5,-56.5 -0.5,-75.5 146.5,-75.5 146.5,-56.5 -0.5,-56.5"/>
<text text-anchor="middle" x="73" y="-63.5" font-family="Helvetica,sans-Serif" font-size="10.00">comm/PacketConstructor.cpp</text>
</a>
</g>
</g>
<!-- Node6&#45;&gt;Node7 -->
<g id="edge6" class="edge"><title>Node6&#45;&gt;Node7</title>
<path fill="none" stroke="midnightblue" d="M73,-101.805C73,-92.9102 73,-82.7798 73,-75.7511"/>
<polygon fill="midnightblue" stroke="midnightblue" points="69.5001,-102.083 73,-112.083 76.5001,-102.083 69.5001,-102.083"/>
</g>
<!-- Node8&#45;&gt;Node9 -->
<g id="edge8" class="edge"><title>Node8&#45;&gt;Node9</title>
<path fill="none" stroke="midnightblue" d="M588.331,-107.59C607.19,-97.6052 632.384,-84.2672 648.653,-75.6545"/>
<polygon fill="midnightblue" stroke="midnightblue" points="586.588,-104.552 579.388,-112.324 589.864,-110.738 586.588,-104.552"/>
</g>
<!-- Node10 -->
<g id="node10" class="node"><title>Node10</title>
<g id="a_node10"><a xlink:href="../../d5/d08/_red_black_tree_8h.html" target="_top" xlink:title="Red black tree implementation. ">
<polygon fill="white" stroke="black" points="503.5,-56.5 503.5,-75.5 604.5,-75.5 604.5,-56.5 503.5,-56.5"/>
<text text-anchor="middle" x="554" y="-63.5" font-family="Helvetica,sans-Serif" font-size="10.00">stl/RedBlackTree.h</text>
</a>
</g>
</g>
<!-- Node8&#45;&gt;Node10 -->
<g id="edge9" class="edge"><title>Node8&#45;&gt;Node10</title>
<path fill="none" stroke="midnightblue" d="M559.85,-102.101C558.356,-93.1357 556.643,-82.8579 555.459,-75.7511"/>
<polygon fill="midnightblue" stroke="midnightblue" points="556.417,-102.794 561.514,-112.083 563.322,-101.644 556.417,-102.794"/>
</g>
<!-- Node11 -->
<g id="node11" class="node"><title>Node11</title>
<g id="a_node11"><a xlink:href="../../df/d87/_tree_map_8h.html" target="_top" xlink:title="Map implementation using red black tree. ">
<polygon fill="white" stroke="black" points="468.5,-0.5 468.5,-19.5 545.5,-19.5 545.5,-0.5 468.5,-0.5"/>
<text text-anchor="middle" x="507" y="-7.5" font-family="Helvetica,sans-Serif" font-size="10.00">stl/TreeMap.h</text>
</a>
</g>
</g>
<!-- Node10&#45;&gt;Node11 -->
<g id="edge10" class="edge"><title>Node10&#45;&gt;Node11</title>
<path fill="none" stroke="midnightblue" d="M539.579,-48.4314C531.342,-38.9673 521.346,-27.4827 514.617,-19.7511"/>
<polygon fill="midnightblue" stroke="midnightblue" points="537.034,-50.8378 546.239,-56.083 542.314,-46.2421 537.034,-50.8378"/>
</g>
<!-- Node12 -->
<g id="node12" class="node"><title>Node12</title>
<g id="a_node12"><a xlink:href="../../dd/dba/_tree_set_8h.html" target="_top" xlink:title="Set implementation using red black tree. ">
<polygon fill="white" stroke="black" points="563.5,-0.5 563.5,-19.5 636.5,-19.5 636.5,-0.5 563.5,-0.5"/>
<text text-anchor="middle" x="600" y="-7.5" font-family="Helvetica,sans-Serif" font-size="10.00">stl/TreeSet.h</text>
</a>
</g>
</g>
<!-- Node10&#45;&gt;Node12 -->
<g id="edge11" class="edge"><title>Node10&#45;&gt;Node12</title>
<path fill="none" stroke="midnightblue" d="M568.114,-48.4314C576.176,-38.9673 585.959,-27.4827 592.545,-19.7511"/>
<polygon fill="midnightblue" stroke="midnightblue" points="565.416,-46.2009 561.596,-56.083 570.745,-50.7402 565.416,-46.2009"/>
</g>
<!-- Node13&#45;&gt;Node8 -->
<g id="edge13" class="edge"><title>Node13&#45;&gt;Node8</title>
<path fill="none" stroke="midnightblue" d="M472.9,-164.232C494.973,-154.131 525.176,-140.309 544.39,-131.516"/>
<polygon fill="midnightblue" stroke="midnightblue" points="471.334,-161.1 463.697,-168.444 474.247,-167.465 471.334,-161.1"/>
</g>
<!-- Node14 -->
<g id="node14" class="node"><title>Node14</title>
<g id="a_node14"><a xlink:href="../../d3/dbe/_chain_map_8h.html" target="_top" xlink:title="Hasher map implementation. ">
<polygon fill="white" stroke="black" points="198.5,-112.5 198.5,-131.5 281.5,-131.5 281.5,-112.5 198.5,-112.5"/>
<text text-anchor="middle" x="240" y="-119.5" font-family="Helvetica,sans-Serif" font-size="10.00">stl/ChainMap.h</text>
</a>
</g>
</g>
<!-- Node13&#45;&gt;Node14 -->
<g id="edge14" class="edge"><title>Node13&#45;&gt;Node14</title>
<path fill="none" stroke="midnightblue" d="M403.498,-166.068C364.757,-155.863 307.744,-140.845 272.295,-131.507"/>
<polygon fill="midnightblue" stroke="midnightblue" points="402.856,-169.518 413.418,-168.681 404.639,-162.749 402.856,-169.518"/>
</g>
<!-- Node16 -->
<g id="node16" class="node"><title>Node16</title>
<g id="a_node16"><a xlink:href="../../d5/d7a/_open_map_8h.html" target="_top" xlink:title="Hash map implementation. ">
<polygon fill="white" stroke="black" points="300,-56.5 300,-75.5 380,-75.5 380,-56.5 300,-56.5"/>
<text text-anchor="middle" x="340" y="-63.5" font-family="Helvetica,sans-Serif" font-size="10.00">stl/OpenMap.h</text>
</a>
</g>
</g>
<!-- Node13&#45;&gt;Node16 -->
<g id="edge16" class="edge"><title>Node13&#45;&gt;Node16</title>
<path fill="none" stroke="midnightblue" d="M433.306,-159.643C423.752,-146.026 409.501,-126.943 395,-112 381.425,-98.0109 363.656,-84.1482 352.041,-75.5846"/>
<polygon fill="midnightblue" stroke="midnightblue" points="430.56,-161.827 439.115,-168.078 436.326,-157.857 430.56,-161.827"/>
</g>
<!-- Node17 -->
<g id="node17" class="node"><title>Node17</title>
<g id="a_node17"><a xlink:href="../../d8/d2e/_open_table_8h.html" target="_top" xlink:title="stl/OpenTable.h">
<polygon fill="white" stroke="black" points="300,-112.5 300,-131.5 386,-131.5 386,-112.5 300,-112.5"/>
<text text-anchor="middle" x="343" y="-119.5" font-family="Helvetica,sans-Serif" font-size="10.00">stl/OpenTable.h</text>
</a>
</g>
</g>
<!-- Node13&#45;&gt;Node17 -->
<g id="edge17" class="edge"><title>Node13&#45;&gt;Node17</title>
<path fill="none" stroke="midnightblue" d="M419.669,-163.59C400.81,-153.605 375.616,-140.267 359.347,-131.655"/>
<polygon fill="midnightblue" stroke="midnightblue" points="418.136,-166.738 428.612,-168.324 421.412,-160.552 418.136,-166.738"/>
</g>
<!-- Node18 -->
<g id="node18" class="node"><title>Node18</title>
<g id="a_node18"><a xlink:href="../../d0/de6/_open_set_8h.html" target="_top" xlink:title="Hash set implementation. ">
<polygon fill="white" stroke="black" points="398.5,-56.5 398.5,-75.5 475.5,-75.5 475.5,-56.5 398.5,-56.5"/>
<text text-anchor="middle" x="437" y="-63.5" font-family="Helvetica,sans-Serif" font-size="10.00">stl/OpenSet.h</text>
</a>
</g>
</g>
<!-- Node13&#45;&gt;Node18 -->
<g id="edge20" class="edge"><title>Node13&#45;&gt;Node18</title>
<path fill="none" stroke="midnightblue" d="M456.636,-159.378C463.789,-146.347 470.749,-128.137 466,-112 461.854,-97.9125 451.779,-84.0728 444.673,-75.5413"/>
<polygon fill="midnightblue" stroke="midnightblue" points="453.477,-157.841 451.32,-168.214 459.475,-161.45 453.477,-157.841"/>
</g>
<!-- Node15 -->
<g id="node15" class="node"><title>Node15</title>
<g id="a_node15"><a xlink:href="../../d6/d59/_chain_set_8h.html" target="_top" xlink:title="Hash set implementation. ">
<polygon fill="white" stroke="black" points="200.5,-56.5 200.5,-75.5 279.5,-75.5 279.5,-56.5 200.5,-56.5"/>
<text text-anchor="middle" x="240" y="-63.5" font-family="Helvetica,sans-Serif" font-size="10.00">stl/ChainSet.h</text>
</a>
</g>
</g>
<!-- Node14&#45;&gt;Node15 -->
<g id="edge15" class="edge"><title>Node14&#45;&gt;Node15</title>
<path fill="none" stroke="midnightblue" d="M240,-101.805C240,-92.9102 240,-82.7798 240,-75.7511"/>
<polygon fill="midnightblue" stroke="midnightblue" points="236.5,-102.083 240,-112.083 243.5,-102.083 236.5,-102.083"/>
</g>
<!-- Node17&#45;&gt;Node16 -->
<g id="edge18" class="edge"><title>Node17&#45;&gt;Node16</title>
<path fill="none" stroke="midnightblue" d="M341.934,-101.805C341.439,-92.9102 340.877,-82.7798 340.486,-75.7511"/>
<polygon fill="midnightblue" stroke="midnightblue" points="338.455,-102.293 342.505,-112.083 345.444,-101.904 338.455,-102.293"/>
</g>
<!-- Node17&#45;&gt;Node18 -->
<g id="edge19" class="edge"><title>Node17&#45;&gt;Node18</title>
<path fill="none" stroke="midnightblue" d="M367.062,-107.177C384.359,-97.2407 407.148,-84.1492 421.935,-75.6545"/>
<polygon fill="midnightblue" stroke="midnightblue" points="365.03,-104.308 358.103,-112.324 368.517,-110.378 365.03,-104.308"/>
</g>
<!-- Node19&#45;&gt;Node14 -->
<g id="edge22" class="edge"><title>Node19&#45;&gt;Node14</title>
<path fill="none" stroke="midnightblue" d="M323.238,-163.862C302.841,-153.849 275.334,-140.346 257.63,-131.655"/>
<polygon fill="midnightblue" stroke="midnightblue" points="321.808,-167.059 332.327,-168.324 324.892,-160.775 321.808,-167.059"/>
</g>
<!-- Node19&#45;&gt;Node16 -->
<g id="edge23" class="edge"><title>Node19&#45;&gt;Node16</title>
<path fill="none" stroke="midnightblue" d="M308.981,-166.845C262.522,-155.15 192.729,-136.914 189,-132 183.627,-124.919 183.687,-119.127 189,-112 195.969,-102.652 260.635,-85.7947 303.053,-75.5775"/>
<polygon fill="midnightblue" stroke="midnightblue" points="308.245,-170.269 318.796,-169.306 309.947,-163.479 308.245,-170.269"/>
</g>
<!-- Node19&#45;&gt;Node17 -->
<g id="edge24" class="edge"><title>Node19&#45;&gt;Node17</title>
<path fill="none" stroke="midnightblue" d="M347.55,-158.101C346.388,-149.136 345.056,-138.858 344.134,-131.751"/>
<polygon fill="midnightblue" stroke="midnightblue" points="344.088,-158.616 348.844,-168.083 351.029,-157.716 344.088,-158.616"/>
</g>
<!-- Node19&#45;&gt;Node18 -->
<g id="edge25" class="edge"><title>Node19&#45;&gt;Node18</title>
<path fill="none" stroke="midnightblue" d="M367.342,-161.325C376.091,-153.015 386.601,-142.396 395,-132 410.198,-113.188 424.788,-88.6954 432.111,-75.8109"/>
<polygon fill="midnightblue" stroke="midnightblue" points="364.851,-158.862 359.912,-168.235 369.618,-163.988 364.851,-158.862"/>
</g>
</g>
</svg>
