<?xml version="1.0" encoding="UTF-8" standalone="no"?>
<!DOCTYPE svg PUBLIC "-//W3C//DTD SVG 1.1//EN"
 "http://www.w3.org/Graphics/SVG/1.1/DTD/svg11.dtd">
<!-- Generated by graphviz version 2.36.0 (20140111.2315)
 -->
<!-- Title: wlib/stl/TypeTraits.h Pages: 1 -->
<!--zoomable 420 -->
<svg id="main" version="1.1" xmlns="http://www.w3.org/2000/svg" xmlns:xlink="http://www.w3.org/1999/xlink" xml:space="preserve" onload="init(evt)">
<style type="text/css"><![CDATA[
.edge:hover path { stroke: red; }
.edge:hover polygon { stroke: red; fill: red; }
]]></style>
<script type="text/javascript"><![CDATA[
var edges = document.getElementsByTagName('g');
if (edges && edges.length) {
  for (var i=0;i<edges.length;i++) {
    if (edges[i].id.substr(0,4)=='edge') {
      edges[i].setAttribute('class','edge');
    }
  }
}
]]></script>
        <defs>
                <circle id="rim" cx="0" cy="0" r="7"/>
                <circle id="rim2" cx="0" cy="0" r="3.5"/>
                <g id="zoomPlus">
                        <use xlink:href="#rim" fill="#404040">
                                <set attributeName="fill" to="#808080" begin="zoomplus.mouseover" end="zoomplus.mouseout"/>
                        </use>
                        <path d="M-4,0h8M0,-4v8" fill="none" stroke="white" stroke-width="1.5" pointer-events="none"/>
                </g>
                <g id="zoomMin">
                        <use xlink:href="#rim" fill="#404040">
                                <set attributeName="fill" to="#808080" begin="zoomminus.mouseover" end="zoomminus.mouseout"/>
                        </use>
                        <path d="M-4,0h8" fill="none" stroke="white" stroke-width="1.5" pointer-events="none"/>
                </g>
                <g id="dirArrow">
                        <path fill="none" stroke="white" stroke-width="1.5" d="M0,-3.0v7 M-2.5,-0.5L0,-3.0L2.5,-0.5"/>
                </g>
               <g id="resetDef">
                       <use xlink:href="#rim2" fill="#404040">
                               <set attributeName="fill" to="#808080" begin="reset.mouseover" end="reset.mouseout"/>
                       </use>
               </g>
        </defs>

<script type="text/javascript">
var viewWidth = 961;
var viewHeight = 420;
var sectionId = 'dynsection-1';
</script>
<script xlink:href="../../svgpan.js"/>
<svg id="graph" class="graph">
<g id="viewport">
<title>wlib/stl/TypeTraits.h</title>
<polygon fill="white" stroke="none" points="-4,4 -4,-416 957,-416 957,4 -4,4"/>
<!-- Node1 -->
<g id="node1" class="node"><title>Node1</title>
<polygon fill="#bfbfbf" stroke="black" points="30.5,-392.5 30.5,-411.5 135.5,-411.5 135.5,-392.5 30.5,-392.5"/>
<text text-anchor="middle" x="83" y="-399.5" font-family="Helvetica,sans-Serif" font-size="10.00">wlib/stl/TypeTraits.h</text>
</g>
<!-- Node2 -->
<g id="node2" class="node"><title>Node2</title>
<g id="a_node2"><a xlink:href="../../df/d03/_array_heap_8h.html" target="_top" xlink:title="Heap manipulation and implementation. ">
<polygon fill="white" stroke="black" points="-0.5,-56.5 -0.5,-75.5 104.5,-75.5 104.5,-56.5 -0.5,-56.5"/>
<text text-anchor="middle" x="52" y="-63.5" font-family="Helvetica,sans-Serif" font-size="10.00">wlib/stl/ArrayHeap.h</text>
</a>
</g>
</g>
<!-- Node1&#45;&gt;Node2 -->
<g id="edge1" class="edge"><title>Node1&#45;&gt;Node2</title>
<path fill="none" stroke="midnightblue" d="M72.8573,-383.429C61.6005,-362.236 45,-325.187 45,-291 45,-291 45,-291 45,-177 45,-139.111 49.1874,-94.0289 51.0849,-75.546"/>
<polygon fill="midnightblue" stroke="midnightblue" points="69.8191,-385.168 77.7163,-392.231 75.9473,-381.785 69.8191,-385.168"/>
</g>
<!-- Node3 -->
<g id="node3" class="node"><title>Node3</title>
<g id="a_node3"><a xlink:href="../../d8/dd7/_concept_8h.html" target="_top" xlink:title="Concept definitions. ">
<polygon fill="white" stroke="black" points="73.5,-336.5 73.5,-355.5 168.5,-355.5 168.5,-336.5 73.5,-336.5"/>
<text text-anchor="middle" x="121" y="-343.5" font-family="Helvetica,sans-Serif" font-size="10.00">wlib/stl/Concept.h</text>
</a>
</g>
</g>
<!-- Node1&#45;&gt;Node3 -->
<g id="edge2" class="edge"><title>Node1&#45;&gt;Node3</title>
<path fill="none" stroke="midnightblue" d="M95.0647,-383.855C101.645,-374.505 109.511,-363.327 114.842,-355.751"/>
<polygon fill="midnightblue" stroke="midnightblue" points="92.1676,-381.891 89.2749,-392.083 97.8922,-385.919 92.1676,-381.891"/>
</g>
<!-- Node3&#45;&gt;Node2 -->
<g id="edge3" class="edge"><title>Node3&#45;&gt;Node2</title>
<path fill="none" stroke="midnightblue" d="M110.857,-327.429C99.6005,-306.236 83,-269.187 83,-235 83,-235 83,-235 83,-177 83,-137.913 64.6425,-93.8437 56.1808,-75.6067"/>
<polygon fill="midnightblue" stroke="midnightblue" points="107.819,-329.168 115.716,-336.231 113.947,-325.785 107.819,-329.168"/>
</g>
<!-- Node4 -->
<g id="node4" class="node"><title>Node4</title>
<g id="a_node4"><a xlink:href="../../de/d0b/_string_iterator_8h.html" target="_top" xlink:title="wlib/strings/StringIterator.h">
<polygon fill="white" stroke="black" points="198,-280.5 198,-299.5 332,-299.5 332,-280.5 198,-280.5"/>
<text text-anchor="middle" x="265" y="-287.5" font-family="Helvetica,sans-Serif" font-size="10.00">wlib/strings/StringIterator.h</text>
</a>
</g>
</g>
<!-- Node3&#45;&gt;Node4 -->
<g id="edge4" class="edge"><title>Node3&#45;&gt;Node4</title>
<path fill="none" stroke="midnightblue" d="M153.251,-332.906C180.324,-322.754 218.317,-308.506 242.29,-299.516"/>
<polygon fill="midnightblue" stroke="midnightblue" points="151.952,-329.655 143.817,-336.444 154.409,-336.209 151.952,-329.655"/>
</g>
<!-- Node5 -->
<g id="node5" class="node"><title>Node5</title>
<g id="a_node5"><a xlink:href="../../db/db5/_string_8h.html" target="_top" xlink:title="wlib/strings/String.h">
<polygon fill="white" stroke="black" points="301.5,-224.5 301.5,-243.5 404.5,-243.5 404.5,-224.5 301.5,-224.5"/>
<text text-anchor="middle" x="353" y="-231.5" font-family="Helvetica,sans-Serif" font-size="10.00">wlib/strings/String.h</text>
</a>
</g>
</g>
<!-- Node4&#45;&gt;Node5 -->
<g id="edge5" class="edge"><title>Node4&#45;&gt;Node5</title>
<path fill="none" stroke="midnightblue" d="M287.977,-274.901C304.113,-264.999 325.181,-252.071 338.896,-243.655"/>
<polygon fill="midnightblue" stroke="midnightblue" points="285.831,-272.111 279.139,-280.324 289.493,-278.077 285.831,-272.111"/>
</g>
<!-- Node6 -->
<g id="node6" class="node"><title>Node6</title>
<g id="a_node6"><a xlink:href="../../de/d6d/_bitset_8h.html" target="_top" xlink:title="Bitset is a class that provides bits manipulation methods. ">
<polygon fill="white" stroke="black" points="706,-168.5 706,-187.5 790,-187.5 790,-168.5 706,-168.5"/>
<text text-anchor="middle" x="748" y="-175.5" font-family="Helvetica,sans-Serif" font-size="10.00">wlib/stl/Bitset.h</text>
</a>
</g>
</g>
<!-- Node5&#45;&gt;Node6 -->
<g id="edge6" class="edge"><title>Node5&#45;&gt;Node6</title>
<path fill="none" stroke="midnightblue" d="M414.711,-224.564C495.82,-213.475 636.155,-194.29 705.997,-184.742"/>
<polygon fill="midnightblue" stroke="midnightblue" points="414.073,-221.118 404.639,-225.94 415.021,-228.054 414.073,-221.118"/>
</g>
<!-- Node9 -->
<g id="node9" class="node"><title>Node9</title>
<g id="a_node9"><a xlink:href="../../d7/d0c/_comparator_8h.html" target="_top" xlink:title="Comparator implementation for basic types. ">
<polygon fill="white" stroke="black" points="111,-112.5 111,-131.5 221,-131.5 221,-112.5 111,-112.5"/>
<text text-anchor="middle" x="166" y="-119.5" font-family="Helvetica,sans-Serif" font-size="10.00">wlib/stl/Comparator.h</text>
</a>
</g>
</g>
<!-- Node5&#45;&gt;Node9 -->
<g id="edge9" class="edge"><title>Node5&#45;&gt;Node9</title>
<path fill="none" stroke="midnightblue" d="M306.804,-221.665C282.429,-214.382 252.739,-203.37 229,-188 204.727,-172.285 182.8,-145.581 172.387,-131.803"/>
<polygon fill="midnightblue" stroke="midnightblue" points="305.97,-225.067 316.547,-224.464 307.903,-218.339 305.97,-225.067"/>
</g>
<!-- Node13 -->
<g id="node13" class="node"><title>Node13</title>
<g id="a_node13"><a xlink:href="../../d2/dc2/_equal_8h.html" target="_top" xlink:title="wlib/stl/Equal.h">
<polygon fill="white" stroke="black" points="369.5,-168.5 369.5,-187.5 452.5,-187.5 452.5,-168.5 369.5,-168.5"/>
<text text-anchor="middle" x="411" y="-175.5" font-family="Helvetica,sans-Serif" font-size="10.00">wlib/stl/Equal.h</text>
</a>
</g>
</g>
<!-- Node5&#45;&gt;Node13 -->
<g id="edge14" class="edge"><title>Node5&#45;&gt;Node13</title>
<path fill="none" stroke="midnightblue" d="M369.913,-217.253C380.203,-207.673 392.966,-195.791 401.512,-187.834"/>
<polygon fill="midnightblue" stroke="midnightblue" points="367.253,-214.948 362.319,-224.324 372.023,-220.071 367.253,-214.948"/>
</g>
<!-- Node20 -->
<g id="node20" class="node"><title>Node20</title>
<g id="a_node20"><a xlink:href="../../d2/dad/_hash_8h.html" target="_top" xlink:title="wlib/stl/Hash.h">
<polygon fill="white" stroke="black" points="484,-168.5 484,-187.5 566,-187.5 566,-168.5 484,-168.5"/>
<text text-anchor="middle" x="525" y="-175.5" font-family="Helvetica,sans-Serif" font-size="10.00">wlib/stl/Hash.h</text>
</a>
</g>
</g>
<!-- Node5&#45;&gt;Node20 -->
<g id="edge26" class="edge"><title>Node5&#45;&gt;Node20</title>
<path fill="none" stroke="midnightblue" d="M389.832,-221.436C422.262,-211.255 468.737,-196.664 497.874,-187.516"/>
<polygon fill="midnightblue" stroke="midnightblue" points="388.746,-218.109 380.254,-224.444 390.843,-224.787 388.746,-218.109"/>
</g>
<!-- Node21 -->
<g id="node21" class="node"><title>Node21</title>
<g id="a_node21"><a xlink:href="../../d9/dae/_string_8cpp.html" target="_top" xlink:title="wlib/strings/String.cpp">
<polygon fill="white" stroke="black" points="238.5,-168.5 238.5,-187.5 351.5,-187.5 351.5,-168.5 238.5,-168.5"/>
<text text-anchor="middle" x="295" y="-175.5" font-family="Helvetica,sans-Serif" font-size="10.00">wlib/strings/String.cpp</text>
</a>
</g>
</g>
<!-- Node5&#45;&gt;Node21 -->
<g id="edge33" class="edge"><title>Node5&#45;&gt;Node21</title>
<path fill="none" stroke="midnightblue" d="M336.087,-217.253C325.797,-207.673 313.034,-195.791 304.488,-187.834"/>
<polygon fill="midnightblue" stroke="midnightblue" points="333.977,-220.071 343.681,-224.324 338.747,-214.948 333.977,-220.071"/>
</g>
<!-- Node7 -->
<g id="node7" class="node"><title>Node7</title>
<g id="a_node7"><a xlink:href="../../de/d66/_packet_constructor_8h.html" target="_top" xlink:title="wlib/comm/PacketConstructor.h">
<polygon fill="white" stroke="black" points="791.5,-112.5 791.5,-131.5 948.5,-131.5 948.5,-112.5 791.5,-112.5"/>
<text text-anchor="middle" x="870" y="-119.5" font-family="Helvetica,sans-Serif" font-size="10.00">wlib/comm/PacketConstructor.h</text>
</a>
</g>
</g>
<!-- Node6&#45;&gt;Node7 -->
<g id="edge7" class="edge"><title>Node6&#45;&gt;Node7</title>
<path fill="none" stroke="midnightblue" d="M776.539,-164.368C799.386,-154.255 830.805,-140.349 850.759,-131.516"/>
<polygon fill="midnightblue" stroke="midnightblue" points="775.059,-161.196 767.331,-168.444 777.892,-167.597 775.059,-161.196"/>
</g>
<!-- Node8 -->
<g id="node8" class="node"><title>Node8</title>
<g id="a_node8"><a xlink:href="../../d9/dde/_packet_constructor_8cpp.html" target="_top" xlink:title="Creates a packet for sending data from the slave systems to the main computer. ">
<polygon fill="white" stroke="black" points="786.5,-56.5 786.5,-75.5 953.5,-75.5 953.5,-56.5 786.5,-56.5"/>
<text text-anchor="middle" x="870" y="-63.5" font-family="Helvetica,sans-Serif" font-size="10.00">wlib/comm/PacketConstructor.cpp</text>
</a>
</g>
</g>
<!-- Node7&#45;&gt;Node8 -->
<g id="edge8" class="edge"><title>Node7&#45;&gt;Node8</title>
<path fill="none" stroke="midnightblue" d="M870,-101.805C870,-92.9102 870,-82.7798 870,-75.7511"/>
<polygon fill="midnightblue" stroke="midnightblue" points="866.5,-102.083 870,-112.083 873.5,-102.083 866.5,-102.083"/>
</g>
<!-- Node9&#45;&gt;Node2 -->
<g id="edge10" class="edge"><title>Node9&#45;&gt;Node2</title>
<path fill="none" stroke="midnightblue" d="M138.758,-108.096C117.46,-98.0073 88.4583,-84.2697 69.9791,-75.5164"/>
<polygon fill="midnightblue" stroke="midnightblue" points="137.401,-111.326 147.936,-112.444 140.397,-105 137.401,-111.326"/>
</g>
<!-- Node10 -->
<g id="node10" class="node"><title>Node10</title>
<g id="a_node10"><a xlink:href="../../d5/d08/_red_black_tree_8h.html" target="_top" xlink:title="Red black tree implementation. ">
<polygon fill="white" stroke="black" points="122.5,-56.5 122.5,-75.5 243.5,-75.5 243.5,-56.5 122.5,-56.5"/>
<text text-anchor="middle" x="183" y="-63.5" font-family="Helvetica,sans-Serif" font-size="10.00">wlib/stl/RedBlackTree.h</text>
</a>
</g>
</g>
<!-- Node9&#45;&gt;Node10 -->
<g id="edge11" class="edge"><title>Node9&#45;&gt;Node10</title>
<path fill="none" stroke="midnightblue" d="M171.857,-102.396C174.701,-93.362 177.983,-82.936 180.245,-75.7511"/>
<polygon fill="midnightblue" stroke="midnightblue" points="168.472,-101.493 168.807,-112.083 175.149,-103.596 168.472,-101.493"/>
</g>
<!-- Node11 -->
<g id="node11" class="node"><title>Node11</title>
<g id="a_node11"><a xlink:href="../../df/d87/_tree_map_8h.html" target="_top" xlink:title="Map implementation using red black tree. ">
<polygon fill="white" stroke="black" points="77.5,-0.5 77.5,-19.5 174.5,-19.5 174.5,-0.5 77.5,-0.5"/>
<text text-anchor="middle" x="126" y="-7.5" font-family="Helvetica,sans-Serif" font-size="10.00">wlib/stl/TreeMap.h</text>
</a>
</g>
</g>
<!-- Node10&#45;&gt;Node11 -->
<g id="edge12" class="edge"><title>Node10&#45;&gt;Node11</title>
<path fill="none" stroke="midnightblue" d="M166.379,-49.2533C156.266,-39.6731 143.723,-27.7906 135.325,-19.8339"/>
<polygon fill="midnightblue" stroke="midnightblue" points="164.175,-51.9873 173.842,-56.324 168.99,-46.9056 164.175,-51.9873"/>
</g>
<!-- Node12 -->
<g id="node12" class="node"><title>Node12</title>
<g id="a_node12"><a xlink:href="../../dd/dba/_tree_set_8h.html" target="_top" xlink:title="Set implementation using red black tree. ">
<polygon fill="white" stroke="black" points="192.5,-0.5 192.5,-19.5 285.5,-19.5 285.5,-0.5 192.5,-0.5"/>
<text text-anchor="middle" x="239" y="-7.5" font-family="Helvetica,sans-Serif" font-size="10.00">wlib/stl/TreeSet.h</text>
</a>
</g>
</g>
<!-- Node10&#45;&gt;Node12 -->
<g id="edge13" class="edge"><title>Node10&#45;&gt;Node12</title>
<path fill="none" stroke="midnightblue" d="M199.33,-49.2533C209.265,-39.6731 221.588,-27.7906 229.839,-19.8339"/>
<polygon fill="midnightblue" stroke="midnightblue" points="196.766,-46.8631 191.997,-56.324 201.625,-51.902 196.766,-46.8631"/>
</g>
<!-- Node13&#45;&gt;Node9 -->
<g id="edge15" class="edge"><title>Node13&#45;&gt;Node9</title>
<path fill="none" stroke="midnightblue" d="M362.37,-166.281C316.071,-156.077 247.305,-140.92 204.639,-131.516"/>
<polygon fill="midnightblue" stroke="midnightblue" points="361.66,-169.709 372.179,-168.444 363.167,-162.873 361.66,-169.709"/>
</g>
<!-- Node14 -->
<g id="node14" class="node"><title>Node14</title>
<g id="a_node14"><a xlink:href="../../dd/d0b/_hash_map_8h.html" target="_top" xlink:title="wlib/stl/HashMap.h">
<polygon fill="white" stroke="black" points="651.5,-56.5 651.5,-75.5 752.5,-75.5 752.5,-56.5 651.5,-56.5"/>
<text text-anchor="middle" x="702" y="-63.5" font-family="Helvetica,sans-Serif" font-size="10.00">wlib/stl/HashMap.h</text>
</a>
</g>
</g>
<!-- Node13&#45;&gt;Node14 -->
<g id="edge16" class="edge"><title>Node13&#45;&gt;Node14</title>
<path fill="none" stroke="midnightblue" d="M462.945,-169.055C535.357,-157.808 658.762,-137.949 667,-132 686.327,-118.044 696.045,-90.0545 699.915,-75.7915"/>
<polygon fill="midnightblue" stroke="midnightblue" points="461.997,-165.66 452.651,-170.649 463.069,-172.577 461.997,-165.66"/>
</g>
<!-- Node15 -->
<g id="node15" class="node"><title>Node15</title>
<g id="a_node15"><a xlink:href="../../d2/dfc/_hash_set_8h.html" target="_top" xlink:title="wlib/stl/HashSet.h">
<polygon fill="white" stroke="black" points="536.5,-56.5 536.5,-75.5 633.5,-75.5 633.5,-56.5 536.5,-56.5"/>
<text text-anchor="middle" x="585" y="-63.5" font-family="Helvetica,sans-Serif" font-size="10.00">wlib/stl/HashSet.h</text>
</a>
</g>
</g>
<!-- Node13&#45;&gt;Node15 -->
<g id="edge17" class="edge"><title>Node13&#45;&gt;Node15</title>
<path fill="none" stroke="midnightblue" d="M433.132,-163.009C469.655,-139.919 541.484,-94.5104 571.41,-75.5914"/>
<polygon fill="midnightblue" stroke="midnightblue" points="431.236,-160.066 424.653,-168.368 434.976,-165.983 431.236,-160.066"/>
</g>
<!-- Node16 -->
<g id="node16" class="node"><title>Node16</title>
<g id="a_node16"><a xlink:href="../../de/def/_hash_table_8h.html" target="_top" xlink:title="wlib/stl/HashTable.h">
<polygon fill="white" stroke="black" points="553,-112.5 553,-131.5 659,-131.5 659,-112.5 553,-112.5"/>
<text text-anchor="middle" x="606" y="-119.5" font-family="Helvetica,sans-Serif" font-size="10.00">wlib/stl/HashTable.h</text>
</a>
</g>
</g>
<!-- Node13&#45;&gt;Node16 -->
<g id="edge18" class="edge"><title>Node13&#45;&gt;Node16</title>
<path fill="none" stroke="midnightblue" d="M451.81,-165.699C488.613,-155.507 541.929,-140.743 575.246,-131.516"/>
<polygon fill="midnightblue" stroke="midnightblue" points="450.602,-162.402 441.898,-168.444 452.47,-169.148 450.602,-162.402"/>
</g>
<!-- Node17 -->
<g id="node17" class="node"><title>Node17</title>
<g id="a_node17"><a xlink:href="../../d5/d7a/_open_map_8h.html" target="_top" xlink:title="Hash map implementation. ">
<polygon fill="white" stroke="black" points="389.5,-56.5 389.5,-75.5 490.5,-75.5 490.5,-56.5 389.5,-56.5"/>
<text text-anchor="middle" x="440" y="-63.5" font-family="Helvetica,sans-Serif" font-size="10.00">wlib/stl/OpenMap.h</text>
</a>
</g>
</g>
<!-- Node13&#45;&gt;Node17 -->
<g id="edge21" class="edge"><title>Node13&#45;&gt;Node17</title>
<path fill="none" stroke="midnightblue" d="M415.831,-158.674C422.172,-134.625 433.043,-93.3881 437.735,-75.5914"/>
<polygon fill="midnightblue" stroke="midnightblue" points="412.441,-157.807 413.276,-168.368 419.209,-159.591 412.441,-157.807"/>
</g>
<!-- Node18 -->
<g id="node18" class="node"><title>Node18</title>
<g id="a_node18"><a xlink:href="../../d0/de6/_open_set_8h.html" target="_top" xlink:title="Hash set implementation. ">
<polygon fill="white" stroke="black" points="274.5,-56.5 274.5,-75.5 371.5,-75.5 371.5,-56.5 274.5,-56.5"/>
<text text-anchor="middle" x="323" y="-63.5" font-family="Helvetica,sans-Serif" font-size="10.00">wlib/stl/OpenSet.h</text>
</a>
</g>
</g>
<!-- Node13&#45;&gt;Node18 -->
<g id="edge22" class="edge"><title>Node13&#45;&gt;Node18</title>
<path fill="none" stroke="midnightblue" d="M359.175,-167.367C322.924,-159.453 279.082,-147.105 268,-132 252.435,-110.785 285.105,-87.647 306.459,-75.517"/>
<polygon fill="midnightblue" stroke="midnightblue" points="358.657,-170.835 369.165,-169.48 360.106,-163.986 358.657,-170.835"/>
</g>
<!-- Node19 -->
<g id="node19" class="node"><title>Node19</title>
<g id="a_node19"><a xlink:href="../../d8/d2e/_open_table_8h.html" target="_top" xlink:title="wlib/stl/OpenTable.h">
<polygon fill="white" stroke="black" points="277,-112.5 277,-131.5 383,-131.5 383,-112.5 277,-112.5"/>
<text text-anchor="middle" x="330" y="-119.5" font-family="Helvetica,sans-Serif" font-size="10.00">wlib/stl/OpenTable.h</text>
</a>
</g>
</g>
<!-- Node13&#45;&gt;Node19 -->
<g id="edge23" class="edge"><title>Node13&#45;&gt;Node19</title>
<path fill="none" stroke="midnightblue" d="M389.433,-162.622C374.636,-152.757 355.488,-139.992 342.982,-131.655"/>
<polygon fill="midnightblue" stroke="midnightblue" points="387.724,-165.689 397.986,-168.324 391.607,-159.865 387.724,-165.689"/>
</g>
<!-- Node16&#45;&gt;Node14 -->
<g id="edge19" class="edge"><title>Node16&#45;&gt;Node14</title>
<path fill="none" stroke="midnightblue" d="M630.574,-107.177C648.239,-97.2407 671.513,-84.1492 686.614,-75.6545"/>
<polygon fill="midnightblue" stroke="midnightblue" points="628.424,-104.371 621.424,-112.324 631.856,-110.472 628.424,-104.371"/>
</g>
<!-- Node16&#45;&gt;Node15 -->
<g id="edge20" class="edge"><title>Node16&#45;&gt;Node15</title>
<path fill="none" stroke="midnightblue" d="M598.879,-102.69C595.34,-93.589 591.228,-83.0141 588.403,-75.7511"/>
<polygon fill="midnightblue" stroke="midnightblue" points="595.646,-104.032 602.532,-112.083 602.17,-101.494 595.646,-104.032"/>
</g>
<!-- Node19&#45;&gt;Node17 -->
<g id="edge24" class="edge"><title>Node19&#45;&gt;Node17</title>
<path fill="none" stroke="midnightblue" d="M356.762,-107.862C377.159,-97.8492 404.666,-84.3458 422.37,-75.6545"/>
<polygon fill="midnightblue" stroke="midnightblue" points="355.108,-104.775 347.673,-112.324 358.192,-111.059 355.108,-104.775"/>
</g>
<!-- Node19&#45;&gt;Node18 -->
<g id="edge25" class="edge"><title>Node19&#45;&gt;Node18</title>
<path fill="none" stroke="midnightblue" d="M327.55,-102.101C326.388,-93.1357 325.056,-82.8579 324.134,-75.7511"/>
<polygon fill="midnightblue" stroke="midnightblue" points="324.088,-102.616 328.844,-112.083 331.029,-101.716 324.088,-102.616"/>
</g>
<!-- Node20&#45;&gt;Node14 -->
<g id="edge27" class="edge"><title>Node20&#45;&gt;Node14</title>
<path fill="none" stroke="midnightblue" d="M576.127,-175.173C610.969,-171.224 655.739,-160.421 684,-132 699.192,-116.722 701.844,-89.8271 702.134,-75.9071"/>
<polygon fill="midnightblue" stroke="midnightblue" points="575.735,-171.695 566.124,-176.153 576.418,-178.661 575.735,-171.695"/>
</g>
<!-- Node20&#45;&gt;Node15 -->
<g id="edge28" class="edge"><title>Node20&#45;&gt;Node15</title>
<path fill="none" stroke="midnightblue" d="M576.112,-175.255C607.815,-171.201 646.323,-160.243 667,-132 685.297,-107.008 642.848,-86.4738 612.453,-75.5452"/>
<polygon fill="midnightblue" stroke="midnightblue" points="575.654,-171.785 566.089,-176.343 576.408,-178.744 575.654,-171.785"/>
</g>
<!-- Node20&#45;&gt;Node16 -->
<g id="edge29" class="edge"><title>Node20&#45;&gt;Node16</title>
<path fill="none" stroke="midnightblue" d="M546.567,-162.622C561.364,-152.757 580.512,-139.992 593.018,-131.655"/>
<polygon fill="midnightblue" stroke="midnightblue" points="544.393,-159.865 538.014,-168.324 548.276,-165.689 544.393,-159.865"/>
</g>
<!-- Node20&#45;&gt;Node17 -->
<g id="edge30" class="edge"><title>Node20&#45;&gt;Node17</title>
<path fill="none" stroke="midnightblue" d="M512.074,-160.272C493.7,-136.494 460.701,-93.7889 446.639,-75.5914"/>
<polygon fill="midnightblue" stroke="midnightblue" points="509.446,-162.596 518.33,-168.368 514.985,-158.316 509.446,-162.596"/>
</g>
<!-- Node20&#45;&gt;Node18 -->
<g id="edge31" class="edge"><title>Node20&#45;&gt;Node18</title>
<path fill="none" stroke="midnightblue" d="M500.111,-163.446C457.968,-140.497 373.74,-94.6307 338.777,-75.5914"/>
<polygon fill="midnightblue" stroke="midnightblue" points="498.693,-166.66 509.149,-168.368 502.041,-160.512 498.693,-166.66"/>
</g>
<!-- Node20&#45;&gt;Node19 -->
<g id="edge32" class="edge"><title>Node20&#45;&gt;Node19</title>
<path fill="none" stroke="midnightblue" d="M484.19,-165.699C447.387,-155.507 394.071,-140.743 360.754,-131.516"/>
<polygon fill="midnightblue" stroke="midnightblue" points="483.53,-169.148 494.102,-168.444 485.398,-162.402 483.53,-169.148"/>
</g>
</g>
</svg>
        <g id="navigator" transform="translate(0 0)" fill="#404254">
                <rect fill="#f2f5e9" fill-opacity="0.5" stroke="#606060" stroke-width=".5" x="0" y="0" width="60" height="60"/>
                <use id="zoomplus" xlink:href="#zoomPlus" x="17" y="9" onmousedown="handleZoom(evt,'in')"/>
                <use id="zoomminus" xlink:href="#zoomMin" x="42" y="9" onmousedown="handleZoom(evt,'out')"/>
                <use id="reset" xlink:href="#resetDef" x="30" y="36" onmousedown="handleReset()"/>
                <g id="arrowUp" xlink:href="#dirArrow" transform="translate(30 24)" onmousedown="handlePan(0,-1)">
                  <use xlink:href="#rim" fill="#404040">
                        <set attributeName="fill" to="#808080" begin="arrowUp.mouseover" end="arrowUp.mouseout"/>
                  </use>
                  <path fill="none" stroke="white" stroke-width="1.5" d="M0,-3.0v7 M-2.5,-0.5L0,-3.0L2.5,-0.5"/>
                </g>
                <g id="arrowRight" xlink:href="#dirArrow" transform="rotate(90) translate(36 -43)" onmousedown="handlePan(1,0)">
                  <use xlink:href="#rim" fill="#404040">
                        <set attributeName="fill" to="#808080" begin="arrowRight.mouseover" end="arrowRight.mouseout"/>
                  </use>
                  <path fill="none" stroke="white" stroke-width="1.5" d="M0,-3.0v7 M-2.5,-0.5L0,-3.0L2.5,-0.5"/>
                </g>
                <g id="arrowDown" xlink:href="#dirArrow" transform="rotate(180) translate(-30 -48)" onmousedown="handlePan(0,1)">
                  <use xlink:href="#rim" fill="#404040">
                        <set attributeName="fill" to="#808080" begin="arrowDown.mouseover" end="arrowDown.mouseout"/>
                  </use>
                  <path fill="none" stroke="white" stroke-width="1.5" d="M0,-3.0v7 M-2.5,-0.5L0,-3.0L2.5,-0.5"/>
                </g>
                <g id="arrowLeft" xlink:href="#dirArrow" transform="rotate(270) translate(-36 17)" onmousedown="handlePan(-1,0)">
                  <use xlink:href="#rim" fill="#404040">
                        <set attributeName="fill" to="#808080" begin="arrowLeft.mouseover" end="arrowLeft.mouseout"/>
                  </use>
                  <path fill="none" stroke="white" stroke-width="1.5" d="M0,-3.0v7 M-2.5,-0.5L0,-3.0L2.5,-0.5"/>
                </g>
        </g>
        <svg viewBox="0 0 15 15" width="100%" height="30px" preserveAspectRatio="xMaxYMin meet">
         <g id="arrow_out" transform="scale(0.3 0.3)">
          <a xlink:href="_type_traits_8h__dep__incl_org.svg" target="_base">
           <rect id="button" ry="5" rx="5" y="6" x="6" height="38" width="38"
                fill="#f2f5e9" fill-opacity="0.5" stroke="#606060" stroke-width="1.0"/>
           <path id="arrow"
             d="M 11.500037,31.436501 C 11.940474,20.09759 22.043105,11.32322 32.158766,21.979434 L 37.068811,17.246167 C 37.068811,17.246167 37.088388,32 37.088388,32 L 22.160133,31.978069 C 22.160133,31.978069 26.997745,27.140456 26.997745,27.140456 C 18.528582,18.264221 13.291696,25.230495 11.500037,31.436501 z"
             style="fill:#404040;"/>
          </a>
         </g>
        </svg>
</svg>
