<?xml version="1.0" encoding="UTF-8" standalone="no"?>
<!DOCTYPE svg PUBLIC "-//W3C//DTD SVG 1.1//EN"
 "http://www.w3.org/Graphics/SVG/1.1/DTD/svg11.dtd">
<!-- Generated by graphviz version 2.38.0 (20140413.2041)
 -->
<!-- Title: wlp::Pair&lt; First, Second &gt; Pages: 1 -->
<svg width="139pt" height="95pt"
 viewBox="0.00 0.00 139.00 95.00" xmlns="http://www.w3.org/2000/svg" xmlns:xlink="http://www.w3.org/1999/xlink">
<g id="graph0" class="graph" transform="scale(1 1) rotate(0) translate(4 91)">
<title>wlp::Pair&lt; First, Second &gt;</title>
<polygon fill="white" stroke="none" points="-4,4 -4,-91 135,-91 135,4 -4,4"/>
<!-- Node1 -->
<g id="node1" class="node"><title>Node1</title>
<polygon fill="#bfbfbf" stroke="black" points="0,-0.5 0,-19.5 131,-19.5 131,-0.5 0,-0.5"/>
<text text-anchor="middle" x="65.5" y="-7.5" font-family="Helvetica,sans-Serif" font-size="10.00">wlp::Pair&lt; First, Second &gt;</text>
</g>
<!-- Node2 -->
<g id="node2" class="node"><title>Node2</title>
<polygon fill="white" stroke="#bfbfbf" points="4.5,-67.5 4.5,-86.5 54.5,-86.5 54.5,-67.5 4.5,-67.5"/>
<text text-anchor="middle" x="29.5" y="-74.5" font-family="Helvetica,sans-Serif" font-size="10.00">Second</text>
</g>
<!-- Node2&#45;&gt;Node1 -->
<g id="edge1" class="edge"><title>Node2&#45;&gt;Node1</title>
<path fill="none" stroke="#9a32cd" stroke-dasharray="5,2" d="M26.824,-56.9348C26.7464,-50.6158 27.5858,-43.7368 30.5,-38 34.4623,-30.2 41.8363,-23.9927 48.7977,-19.5063"/>
<polygon fill="#9a32cd" stroke="#9a32cd" points="23.3734,-57.6674 27.7041,-67.3367 30.3485,-57.0771 23.3734,-57.6674"/>
<text text-anchor="middle" x="55" y="-41" font-family="Helvetica,sans-Serif" font-size="10.00"> m_second</text>
</g>
<!-- Node3 -->
<g id="node3" class="node"><title>Node3</title>
<polygon fill="white" stroke="#bfbfbf" points="83.5,-67.5 83.5,-86.5 119.5,-86.5 119.5,-67.5 83.5,-67.5"/>
<text text-anchor="middle" x="101.5" y="-74.5" font-family="Helvetica,sans-Serif" font-size="10.00">First</text>
</g>
<!-- Node3&#45;&gt;Node1 -->
<g id="edge2" class="edge"><title>Node3&#45;&gt;Node1</title>
<path fill="none" stroke="#9a32cd" stroke-dasharray="5,2" d="M91.6213,-58.1635C84.6786,-45.6281 75.6965,-29.4104 70.2782,-19.6273"/>
<polygon fill="#9a32cd" stroke="#9a32cd" points="88.7381,-60.1817 96.6449,-67.2338 94.8616,-56.7901 88.7381,-60.1817"/>
<text text-anchor="middle" x="102" y="-41" font-family="Helvetica,sans-Serif" font-size="10.00"> m_first</text>
</g>
</g>
</svg>
