<?xml version="1.0" encoding="UTF-8" standalone="no"?>
<!DOCTYPE svg PUBLIC "-//W3C//DTD SVG 1.1//EN"
 "http://www.w3.org/Graphics/SVG/1.1/DTD/svg11.dtd">
<!-- Generated by graphviz version 2.38.0 (20140413.2041)
 -->
<!-- Title: wlp::count Pages: 1 -->
<svg width="230pt" height="176pt"
 viewBox="0.00 0.00 230.00 176.00" xmlns="http://www.w3.org/2000/svg" xmlns:xlink="http://www.w3.org/1999/xlink">
<g id="graph0" class="graph" transform="scale(1 1) rotate(0) translate(4 172)">
<title>wlp::count</title>
<polygon fill="white" stroke="none" points="-4,4 -4,-172 226,-172 226,4 -4,4"/>
<!-- Node41 -->
<g id="node1" class="node"><title>Node41</title>
<polygon fill="#bfbfbf" stroke="black" points="0,-77 0,-96 61,-96 61,-77 0,-77"/>
<text text-anchor="middle" x="30.5" y="-84" font-family="Helvetica,sans-Serif" font-size="10.00">wlp::count</text>
</g>
<!-- Node42 -->
<g id="node2" class="node"><title>Node42</title>
<g id="a_node2"><a xlink:href="../../d3/def/classwlp_1_1_red_black_tree.html#a7793eefdb0119eecad74fafc926b49dd" target="_top" xlink:title="wlp::RedBlackTree\&lt;\l Key, Key, Cmp \&gt;::clear">
<polygon fill="white" stroke="black" points="98.5,-137.5 98.5,-167.5 220.5,-167.5 220.5,-137.5 98.5,-137.5"/>
<text text-anchor="start" x="106.5" y="-155.5" font-family="Helvetica,sans-Serif" font-size="10.00">wlp::RedBlackTree&lt;</text>
<text text-anchor="middle" x="159.5" y="-144.5" font-family="Helvetica,sans-Serif" font-size="10.00"> Key, Key, Cmp &gt;::clear</text>
</a>
</g>
</g>
<!-- Node41&#45;&gt;Node42 -->
<g id="edge1" class="edge"><title>Node41&#45;&gt;Node42</title>
<path fill="none" stroke="midnightblue" d="M53.5138,-101.619C65.9673,-109.826 82.0059,-119.833 97,-127.5 103.875,-131.016 111.364,-134.404 118.675,-137.49"/>
<polygon fill="midnightblue" stroke="midnightblue" points="55.4031,-98.6714 45.1456,-96.019 51.5102,-104.489 55.4031,-98.6714"/>
</g>
<!-- Node43 -->
<g id="node3" class="node"><title>Node43</title>
<g id="a_node3"><a xlink:href="../../d5/dca/namespacewlp.html#a800c1b1a4f7c0eb3fe043e65e7213170" target="_top" xlink:title="wlp::count">
<polygon fill="white" stroke="black" points="129,-99 129,-118 190,-118 190,-99 129,-99"/>
<text text-anchor="middle" x="159.5" y="-106" font-family="Helvetica,sans-Serif" font-size="10.00">wlp::count</text>
</a>
</g>
</g>
<!-- Node41&#45;&gt;Node43 -->
<g id="edge2" class="edge"><title>Node41&#45;&gt;Node43</title>
<path fill="none" stroke="midnightblue" d="M71.258,-93.3872C89.907,-96.6177 111.747,-100.401 128.911,-103.374"/>
<polygon fill="midnightblue" stroke="midnightblue" points="71.7265,-89.9163 61.2759,-91.658 70.5317,-96.8136 71.7265,-89.9163"/>
</g>
<!-- Node44 -->
<g id="node4" class="node"><title>Node44</title>
<g id="a_node4"><a xlink:href="../../d3/def/classwlp_1_1_red_black_tree.html#ab504db4e227989925608658d7183b211" target="_top" xlink:title="wlp::RedBlackTree\&lt;\l Key, Key, Cmp \&gt;::count">
<polygon fill="white" stroke="black" points="97,-49.5 97,-79.5 222,-79.5 222,-49.5 97,-49.5"/>
<text text-anchor="start" x="105" y="-67.5" font-family="Helvetica,sans-Serif" font-size="10.00">wlp::RedBlackTree&lt;</text>
<text text-anchor="middle" x="159.5" y="-56.5" font-family="Helvetica,sans-Serif" font-size="10.00"> Key, Key, Cmp &gt;::count</text>
</a>
</g>
</g>
<!-- Node41&#45;&gt;Node44 -->
<g id="edge3" class="edge"><title>Node41&#45;&gt;Node44</title>
<path fill="none" stroke="midnightblue" d="M71.2357,-79.6167C79.3963,-78.203 88.1687,-76.6834 96.8935,-75.172"/>
<polygon fill="midnightblue" stroke="midnightblue" points="70.5317,-76.1864 61.2759,-81.342 71.7265,-83.0837 70.5317,-76.1864"/>
</g>
<!-- Node45 -->
<g id="node5" class="node"><title>Node45</title>
<g id="a_node5"><a xlink:href="../../d3/def/classwlp_1_1_red_black_tree.html#ad7b1dbee6c1a2cfcbddd4be5adfa7e2b" target="_top" xlink:title="wlp::RedBlackTree\&lt;\l Key, Key, Cmp \&gt;::erase">
<polygon fill="white" stroke="black" points="97,-0.5 97,-30.5 222,-30.5 222,-0.5 97,-0.5"/>
<text text-anchor="start" x="105" y="-18.5" font-family="Helvetica,sans-Serif" font-size="10.00">wlp::RedBlackTree&lt;</text>
<text text-anchor="middle" x="159.5" y="-7.5" font-family="Helvetica,sans-Serif" font-size="10.00"> Key, Key, Cmp &gt;::erase</text>
</a>
</g>
</g>
<!-- Node41&#45;&gt;Node45 -->
<g id="edge4" class="edge"><title>Node41&#45;&gt;Node45</title>
<path fill="none" stroke="midnightblue" d="M51.4879,-70.6768C64.0808,-61.1683 80.9417,-49.2556 97,-40.5 103.476,-36.9689 110.558,-33.6408 117.538,-30.635"/>
<polygon fill="midnightblue" stroke="midnightblue" points="49.3085,-67.9375 43.5139,-76.8073 53.575,-73.487 49.3085,-67.9375"/>
</g>
</g>
</svg>
