<?xml version="1.0" encoding="UTF-8" standalone="no"?>
<!DOCTYPE svg PUBLIC "-//W3C//DTD SVG 1.1//EN"
 "http://www.w3.org/Graphics/SVG/1.1/DTD/svg11.dtd">
<!-- Generated by graphviz version 2.38.0 (20140413.2041)
 -->
<!-- Title: wlp::heap_sort Pages: 1 -->
<svg width="744pt" height="142pt"
 viewBox="0.00 0.00 744.00 142.00" xmlns="http://www.w3.org/2000/svg" xmlns:xlink="http://www.w3.org/1999/xlink">
<g id="graph0" class="graph" transform="scale(1 1) rotate(0) translate(4 138)">
<title>wlp::heap_sort</title>
<polygon fill="white" stroke="none" points="-4,4 -4,-138 740,-138 740,4 -4,4"/>
<!-- Node108 -->
<g id="node1" class="node"><title>Node108</title>
<polygon fill="#bfbfbf" stroke="black" points="0,-57.5 0,-76.5 80,-76.5 80,-57.5 0,-57.5"/>
<text text-anchor="middle" x="40" y="-64.5" font-family="Helvetica,sans-Serif" font-size="10.00">wlp::heap_sort</text>
</g>
<!-- Node109 -->
<g id="node2" class="node"><title>Node109</title>
<g id="a_node2"><a xlink:href="../../db/d49/classwlp_1_1_array_list.html#add99d571d49332abfa8036a727eb8958" target="_top" xlink:title="wlp::ArrayList::begin">
<polygon fill="white" stroke="black" points="116,-114.5 116,-133.5 221,-133.5 221,-114.5 116,-114.5"/>
<text text-anchor="middle" x="168.5" y="-121.5" font-family="Helvetica,sans-Serif" font-size="10.00">wlp::ArrayList::begin</text>
</a>
</g>
</g>
<!-- Node108&#45;&gt;Node109 -->
<g id="edge1" class="edge"><title>Node108&#45;&gt;Node109</title>
<path fill="none" stroke="midnightblue" d="M58.6044,-76.6484C73.6303,-84.7062 95.93,-96.2482 116,-105 120.512,-106.968 125.301,-108.915 130.07,-110.77"/>
<polygon fill="midnightblue" stroke="midnightblue" points="129.146,-114.162 139.737,-114.425 131.621,-107.614 129.146,-114.162"/>
</g>
<!-- Node110 -->
<g id="node3" class="node"><title>Node110</title>
<g id="a_node3"><a xlink:href="../../db/d49/classwlp_1_1_array_list.html#af08d43457fe9ce1437543fc458198b57" target="_top" xlink:title="wlp::ArrayList::end">
<polygon fill="white" stroke="black" points="119.5,-76.5 119.5,-95.5 217.5,-95.5 217.5,-76.5 119.5,-76.5"/>
<text text-anchor="middle" x="168.5" y="-83.5" font-family="Helvetica,sans-Serif" font-size="10.00">wlp::ArrayList::end</text>
</a>
</g>
</g>
<!-- Node108&#45;&gt;Node110 -->
<g id="edge2" class="edge"><title>Node108&#45;&gt;Node110</title>
<path fill="none" stroke="midnightblue" d="M80.332,-72.9076C89.483,-74.282 99.4173,-75.7741 109.193,-77.2425"/>
<polygon fill="midnightblue" stroke="midnightblue" points="108.875,-80.7338 119.284,-78.7581 109.915,-73.8115 108.875,-80.7338"/>
</g>
<!-- Node111 -->
<g id="node4" class="node"><title>Node111</title>
<g id="a_node4"><a xlink:href="../../d5/dca/namespacewlp.html#ad8927f7af1e3363214a8d9b186531078" target="_top" xlink:title="wlp::make_heap">
<polygon fill="white" stroke="black" points="257,-38.5 257,-57.5 344,-57.5 344,-38.5 257,-38.5"/>
<text text-anchor="middle" x="300.5" y="-45.5" font-family="Helvetica,sans-Serif" font-size="10.00">wlp::make_heap</text>
</a>
</g>
</g>
<!-- Node108&#45;&gt;Node111 -->
<g id="edge3" class="edge"><title>Node108&#45;&gt;Node111</title>
<path fill="none" stroke="midnightblue" d="M80.2606,-64.1143C124.697,-60.8482 197.307,-55.5113 246.687,-51.8818"/>
<polygon fill="midnightblue" stroke="midnightblue" points="247.136,-55.3583 256.852,-51.1346 246.623,-48.3772 247.136,-55.3583"/>
</g>
<!-- Node114 -->
<g id="node7" class="node"><title>Node114</title>
<g id="a_node7"><a xlink:href="../../d5/dca/namespacewlp.html#a664313ed82edafa1cf6c2e9c1c75378a" target="_top" xlink:title="wlp::sort_heap">
<polygon fill="white" stroke="black" points="128.5,-0.5 128.5,-19.5 208.5,-19.5 208.5,-0.5 128.5,-0.5"/>
<text text-anchor="middle" x="168.5" y="-7.5" font-family="Helvetica,sans-Serif" font-size="10.00">wlp::sort_heap</text>
</a>
</g>
</g>
<!-- Node108&#45;&gt;Node114 -->
<g id="edge6" class="edge"><title>Node108&#45;&gt;Node114</title>
<path fill="none" stroke="midnightblue" d="M62.1733,-57.4595C82.6055,-48.2528 113.759,-34.2153 136.89,-23.7926"/>
<polygon fill="midnightblue" stroke="midnightblue" points="138.578,-26.8709 146.258,-19.5716 135.703,-20.4888 138.578,-26.8709"/>
</g>
<!-- Node112 -->
<g id="node5" class="node"><title>Node112</title>
<g id="a_node5"><a xlink:href="../../d5/dca/namespacewlp.html#a4d2da3668dcec610a030107c3903d2df" target="_top" xlink:title="wlp::__adjust_heap">
<polygon fill="white" stroke="black" points="505,-19.5 505,-38.5 605,-38.5 605,-19.5 505,-19.5"/>
<text text-anchor="middle" x="555" y="-26.5" font-family="Helvetica,sans-Serif" font-size="10.00">wlp::__adjust_heap</text>
</a>
</g>
</g>
<!-- Node111&#45;&gt;Node112 -->
<g id="edge4" class="edge"><title>Node111&#45;&gt;Node112</title>
<path fill="none" stroke="midnightblue" d="M344.048,-44.7984C385.338,-41.6914 448.368,-36.9485 494.596,-33.47"/>
<polygon fill="midnightblue" stroke="midnightblue" points="495.07,-36.9443 504.779,-32.7037 494.545,-29.964 495.07,-36.9443"/>
</g>
<!-- Node113 -->
<g id="node6" class="node"><title>Node113</title>
<g id="a_node6"><a xlink:href="../../d5/dca/namespacewlp.html#a903253da340cffc0160b9887f2b80b8c" target="_top" xlink:title="wlp::__push_heap">
<polygon fill="white" stroke="black" points="641,-19.5 641,-38.5 736,-38.5 736,-19.5 641,-19.5"/>
<text text-anchor="middle" x="688.5" y="-26.5" font-family="Helvetica,sans-Serif" font-size="10.00">wlp::__push_heap</text>
</a>
</g>
</g>
<!-- Node112&#45;&gt;Node113 -->
<g id="edge5" class="edge"><title>Node112&#45;&gt;Node113</title>
<path fill="none" stroke="midnightblue" d="M605.34,-29C613.63,-29 622.291,-29 630.751,-29"/>
<polygon fill="midnightblue" stroke="midnightblue" points="630.93,-32.5001 640.93,-29 630.93,-25.5001 630.93,-32.5001"/>
</g>
<!-- Node115 -->
<g id="node8" class="node"><title>Node115</title>
<g id="a_node8"><a xlink:href="../../d5/dca/namespacewlp.html#aedb76bc9547f573d794889862528d16e" target="_top" xlink:title="wlp::pop_heap">
<polygon fill="white" stroke="black" points="261,-0.5 261,-19.5 340,-19.5 340,-0.5 261,-0.5"/>
<text text-anchor="middle" x="300.5" y="-7.5" font-family="Helvetica,sans-Serif" font-size="10.00">wlp::pop_heap</text>
</a>
</g>
</g>
<!-- Node114&#45;&gt;Node115 -->
<g id="edge7" class="edge"><title>Node114&#45;&gt;Node115</title>
<path fill="none" stroke="midnightblue" d="M208.504,-10C221.735,-10 236.686,-10 250.589,-10"/>
<polygon fill="midnightblue" stroke="midnightblue" points="250.971,-13.5001 260.971,-10 250.971,-6.5001 250.971,-13.5001"/>
</g>
<!-- Node116 -->
<g id="node9" class="node"><title>Node116</title>
<g id="a_node9"><a xlink:href="../../d5/dca/namespacewlp.html#a8e7c749cafcbbe652b4f0672b7565f5b" target="_top" xlink:title="wlp::__pop_heap">
<polygon fill="white" stroke="black" points="380,-0.5 380,-19.5 469,-19.5 469,-0.5 380,-0.5"/>
<text text-anchor="middle" x="424.5" y="-7.5" font-family="Helvetica,sans-Serif" font-size="10.00">wlp::__pop_heap</text>
</a>
</g>
</g>
<!-- Node115&#45;&gt;Node116 -->
<g id="edge8" class="edge"><title>Node115&#45;&gt;Node116</title>
<path fill="none" stroke="midnightblue" d="M340.102,-10C349.428,-10 359.565,-10 369.455,-10"/>
<polygon fill="midnightblue" stroke="midnightblue" points="369.628,-13.5001 379.628,-10 369.628,-6.5001 369.628,-13.5001"/>
</g>
<!-- Node116&#45;&gt;Node112 -->
<g id="edge9" class="edge"><title>Node116&#45;&gt;Node112</title>
<path fill="none" stroke="midnightblue" d="M469.004,-16.4325C477.273,-17.6551 486.055,-18.9536 494.716,-20.2342"/>
<polygon fill="midnightblue" stroke="midnightblue" points="494.385,-23.7233 504.789,-21.7237 495.409,-16.7986 494.385,-23.7233"/>
</g>
</g>
</svg>
