<?xml version="1.0" encoding="UTF-8" standalone="no"?>
<!DOCTYPE svg PUBLIC "-//W3C//DTD SVG 1.1//EN"
 "http://www.w3.org/Graphics/SVG/1.1/DTD/svg11.dtd">
<!-- Generated by graphviz version 2.36.0 (20140111.2315)
 -->
<!-- Title: wlp::operator!= Pages: 1 -->
<svg width="514pt" height="82pt"
 viewBox="0.00 0.00 514.00 82.00" xmlns="http://www.w3.org/2000/svg" xmlns:xlink="http://www.w3.org/1999/xlink">
<g id="graph0" class="graph" transform="scale(1 1) rotate(0) translate(4 78)">
<title>wlp::operator!=</title>
<polygon fill="white" stroke="none" points="-4,4 -4,-78 510,-78 510,4 -4,4"/>
<!-- Node1 -->
<g id="node1" class="node"><title>Node1</title>
<polygon fill="#bfbfbf" stroke="black" points="0,-27.5 0,-46.5 82,-46.5 82,-27.5 0,-27.5"/>
<text text-anchor="middle" x="41" y="-34.5" font-family="Helvetica,sans-Serif" font-size="10.00">wlp::operator!=</text>
</g>
<!-- Node2 -->
<g id="node2" class="node"><title>Node2</title>
<g id="a_node2"><a xlink:href="../../d6/d6b/classwlp_1_1_static_string.html#a4ecac20e1440fd486f77f87de6a6d32b" target="_top" xlink:title="wlp::StaticString::at">
<polygon fill="white" stroke="black" points="118.5,-49.5 118.5,-68.5 221.5,-68.5 221.5,-49.5 118.5,-49.5"/>
<text text-anchor="middle" x="170" y="-56.5" font-family="Helvetica,sans-Serif" font-size="10.00">wlp::StaticString::at</text>
</a>
</g>
</g>
<!-- Node1&#45;&gt;Node2 -->
<g id="edge1" class="edge"><title>Node1&#45;&gt;Node2</title>
<path fill="none" stroke="midnightblue" d="M82.1836,-43.9609C90.5259,-45.4061 99.4916,-46.9592 108.382,-48.4992"/>
<polygon fill="midnightblue" stroke="midnightblue" points="107.899,-51.9677 118.35,-50.226 109.094,-45.0704 107.899,-51.9677"/>
</g>
<!-- Node5 -->
<g id="node5" class="node"><title>Node5</title>
<g id="a_node5"><a xlink:href="../../d6/d6b/classwlp_1_1_static_string.html#a447b3ec22025bf5012588b8651a55fb1" target="_top" xlink:title="wlp::StaticString::\llength">
<polygon fill="white" stroke="black" points="122.5,-0 122.5,-30 217.5,-30 217.5,-0 122.5,-0"/>
<text text-anchor="start" x="130.5" y="-18" font-family="Helvetica,sans-Serif" font-size="10.00">wlp::StaticString::</text>
<text text-anchor="middle" x="170" y="-7" font-family="Helvetica,sans-Serif" font-size="10.00">length</text>
</a>
</g>
</g>
<!-- Node1&#45;&gt;Node5 -->
<g id="edge4" class="edge"><title>Node1&#45;&gt;Node5</title>
<path fill="none" stroke="midnightblue" d="M82.1836,-30.0391C91.776,-28.3774 102.193,-26.5729 112.371,-24.8097"/>
<polygon fill="midnightblue" stroke="midnightblue" points="113.175,-28.2226 122.431,-23.0671 111.98,-21.3254 113.175,-28.2226"/>
</g>
<!-- Node3 -->
<g id="node3" class="node"><title>Node3</title>
<g id="a_node3"><a xlink:href="../../d6/d6b/classwlp_1_1_static_string.html#aad996be27886424f74f6ff489196c93a" target="_top" xlink:title="wlp::StaticString::back">
<polygon fill="white" stroke="black" points="258,-49.5 258,-68.5 374,-68.5 374,-49.5 258,-49.5"/>
<text text-anchor="middle" x="316" y="-56.5" font-family="Helvetica,sans-Serif" font-size="10.00">wlp::StaticString::back</text>
</a>
</g>
</g>
<!-- Node2&#45;&gt;Node3 -->
<g id="edge2" class="edge"><title>Node2&#45;&gt;Node3</title>
<path fill="none" stroke="midnightblue" d="M221.769,-59C230.15,-59 238.952,-59 247.663,-59"/>
<polygon fill="midnightblue" stroke="midnightblue" points="247.816,-62.5001 257.816,-59 247.816,-55.5001 247.816,-62.5001"/>
</g>
<!-- Node4 -->
<g id="node4" class="node"><title>Node4</title>
<g id="a_node4"><a xlink:href="../../d6/d6b/classwlp_1_1_static_string.html#a5b80811254e586b77c385a10bc21991f" target="_top" xlink:title="wlp::StaticString::\lempty">
<polygon fill="white" stroke="black" points="410.5,-44 410.5,-74 505.5,-74 505.5,-44 410.5,-44"/>
<text text-anchor="start" x="418.5" y="-62" font-family="Helvetica,sans-Serif" font-size="10.00">wlp::StaticString::</text>
<text text-anchor="middle" x="458" y="-51" font-family="Helvetica,sans-Serif" font-size="10.00">empty</text>
</a>
</g>
</g>
<!-- Node3&#45;&gt;Node4 -->
<g id="edge3" class="edge"><title>Node3&#45;&gt;Node4</title>
<path fill="none" stroke="midnightblue" d="M374.347,-59C382.83,-59 391.568,-59 400.043,-59"/>
<polygon fill="midnightblue" stroke="midnightblue" points="400.213,-62.5001 410.213,-59 400.213,-55.5001 400.213,-62.5001"/>
</g>
</g>
</svg>
