<?xml version="1.0" encoding="UTF-8" standalone="no"?>
<!DOCTYPE svg PUBLIC "-//W3C//DTD SVG 1.1//EN"
 "http://www.w3.org/Graphics/SVG/1.1/DTD/svg11.dtd">
<!-- Generated by graphviz version 2.36.0 (20140111.2315)
 -->
<!-- Title: wlp::__push_heap Pages: 1 -->
<svg width="776pt" height="142pt"
 viewBox="0.00 0.00 776.00 142.00" xmlns="http://www.w3.org/2000/svg" xmlns:xlink="http://www.w3.org/1999/xlink">
<g id="graph0" class="graph" transform="scale(1 1) rotate(0) translate(4 138)">
<title>wlp::__push_heap</title>
<polygon fill="white" stroke="none" points="-4,4 -4,-138 772,-138 772,4 -4,4"/>
<!-- Node1 -->
<g id="node1" class="node"><title>Node1</title>
<polygon fill="#bfbfbf" stroke="black" points="0.5,-19.5 0.5,-38.5 95.5,-38.5 95.5,-19.5 0.5,-19.5"/>
<text text-anchor="middle" x="48" y="-26.5" font-family="Helvetica,sans-Serif" font-size="10.00">wlp::__push_heap</text>
</g>
<!-- Node2 -->
<g id="node2" class="node"><title>Node2</title>
<g id="a_node2"><a xlink:href="../../d5/dca/namespacewlp.html#a4d2da3668dcec610a030107c3903d2df" target="_top" xlink:title="wlp::__adjust_heap">
<polygon fill="white" stroke="black" points="132.5,-38.5 132.5,-57.5 233.5,-57.5 233.5,-38.5 132.5,-38.5"/>
<text text-anchor="middle" x="183" y="-45.5" font-family="Helvetica,sans-Serif" font-size="10.00">wlp::__adjust_heap</text>
</a>
</g>
</g>
<!-- Node1&#45;&gt;Node2 -->
<g id="edge1" class="edge"><title>Node1&#45;&gt;Node2</title>
<path fill="none" stroke="midnightblue" d="M105.686,-37.098C114.473,-38.3533 123.493,-39.6419 132.115,-40.8736"/>
<polygon fill="midnightblue" stroke="midnightblue" points="105.911,-33.5948 95.5169,-35.6453 104.921,-40.5244 105.911,-33.5948"/>
</g>
<!-- Node9 -->
<g id="node9" class="node"><title>Node9</title>
<g id="a_node9"><a xlink:href="../../d5/dca/namespacewlp.html#a4de8c4529d37369503a720d251f3f802" target="_top" xlink:title="wlp::push_heap">
<polygon fill="white" stroke="black" points="140.5,-0.5 140.5,-19.5 225.5,-19.5 225.5,-0.5 140.5,-0.5"/>
<text text-anchor="middle" x="183" y="-7.5" font-family="Helvetica,sans-Serif" font-size="10.00">wlp::push_heap</text>
</a>
</g>
</g>
<!-- Node1&#45;&gt;Node9 -->
<g id="edge9" class="edge"><title>Node1&#45;&gt;Node9</title>
<path fill="none" stroke="midnightblue" d="M105.574,-20.918C117.181,-19.2599 129.2,-17.5429 140.175,-15.9751"/>
<polygon fill="midnightblue" stroke="midnightblue" points="104.921,-17.4756 95.5169,-22.3547 105.911,-24.4052 104.921,-17.4756"/>
</g>
<!-- Node3 -->
<g id="node3" class="node"><title>Node3</title>
<g id="a_node3"><a xlink:href="../../d5/dca/namespacewlp.html#a8e7c749cafcbbe652b4f0672b7565f5b" target="_top" xlink:title="wlp::__pop_heap">
<polygon fill="white" stroke="black" points="282,-76.5 282,-95.5 372,-95.5 372,-76.5 282,-76.5"/>
<text text-anchor="middle" x="327" y="-83.5" font-family="Helvetica,sans-Serif" font-size="10.00">wlp::__pop_heap</text>
</a>
</g>
</g>
<!-- Node2&#45;&gt;Node3 -->
<g id="edge2" class="edge"><title>Node2&#45;&gt;Node3</title>
<path fill="none" stroke="midnightblue" d="M229.493,-60.1742C249.128,-65.4287 271.766,-71.4866 290.179,-76.4141"/>
<polygon fill="midnightblue" stroke="midnightblue" points="230.397,-56.7931 219.833,-57.589 228.588,-63.5552 230.397,-56.7931"/>
</g>
<!-- Node8 -->
<g id="node8" class="node"><title>Node8</title>
<g id="a_node8"><a xlink:href="../../d5/dca/namespacewlp.html#ad8927f7af1e3363214a8d9b186531078" target="_top" xlink:title="wlp::make_heap">
<polygon fill="white" stroke="black" points="420,-38.5 420,-57.5 508,-57.5 508,-38.5 420,-38.5"/>
<text text-anchor="middle" x="464" y="-45.5" font-family="Helvetica,sans-Serif" font-size="10.00">wlp::make_heap</text>
</a>
</g>
</g>
<!-- Node2&#45;&gt;Node8 -->
<g id="edge7" class="edge"><title>Node2&#45;&gt;Node8</title>
<path fill="none" stroke="midnightblue" d="M243.819,-48C296.737,-48 372.67,-48 419.852,-48"/>
<polygon fill="midnightblue" stroke="midnightblue" points="243.558,-44.5001 233.558,-48 243.558,-51.5001 243.558,-44.5001"/>
</g>
<!-- Node4 -->
<g id="node4" class="node"><title>Node4</title>
<g id="a_node4"><a xlink:href="../../d5/dca/namespacewlp.html#aedb76bc9547f573d794889862528d16e" target="_top" xlink:title="wlp::pop_heap">
<polygon fill="white" stroke="black" points="424,-76.5 424,-95.5 504,-95.5 504,-76.5 424,-76.5"/>
<text text-anchor="middle" x="464" y="-83.5" font-family="Helvetica,sans-Serif" font-size="10.00">wlp::pop_heap</text>
</a>
</g>
</g>
<!-- Node3&#45;&gt;Node4 -->
<g id="edge3" class="edge"><title>Node3&#45;&gt;Node4</title>
<path fill="none" stroke="midnightblue" d="M382.551,-86C396.325,-86 410.846,-86 423.703,-86"/>
<polygon fill="midnightblue" stroke="midnightblue" points="382.204,-82.5001 372.204,-86 382.204,-89.5001 382.204,-82.5001"/>
</g>
<!-- Node5 -->
<g id="node5" class="node"><title>Node5</title>
<g id="a_node5"><a xlink:href="../../d5/dca/namespacewlp.html#a664313ed82edafa1cf6c2e9c1c75378a" target="_top" xlink:title="wlp::sort_heap">
<polygon fill="white" stroke="black" points="558,-114.5 558,-133.5 638,-133.5 638,-114.5 558,-114.5"/>
<text text-anchor="middle" x="598" y="-121.5" font-family="Helvetica,sans-Serif" font-size="10.00">wlp::sort_heap</text>
</a>
</g>
</g>
<!-- Node4&#45;&gt;Node5 -->
<g id="edge4" class="edge"><title>Node4&#45;&gt;Node5</title>
<path fill="none" stroke="midnightblue" d="M508.041,-98.3906C526.118,-103.594 546.819,-109.554 563.701,-114.414"/>
<polygon fill="midnightblue" stroke="midnightblue" points="508.887,-94.9921 498.309,-95.589 506.951,-101.719 508.887,-94.9921"/>
</g>
<!-- Node7 -->
<g id="node7" class="node"><title>Node7</title>
<g id="a_node7"><a xlink:href="../../d5/d92/classwlp_1_1array__heap.html#acdb595ade20c63a48846e5ffedb85276" target="_top" xlink:title="wlp::array_heap::pop">
<polygon fill="white" stroke="black" points="544.5,-76.5 544.5,-95.5 651.5,-95.5 651.5,-76.5 544.5,-76.5"/>
<text text-anchor="middle" x="598" y="-83.5" font-family="Helvetica,sans-Serif" font-size="10.00">wlp::array_heap::pop</text>
</a>
</g>
</g>
<!-- Node4&#45;&gt;Node7 -->
<g id="edge6" class="edge"><title>Node4&#45;&gt;Node7</title>
<path fill="none" stroke="midnightblue" d="M514.277,-86C524.125,-86 534.505,-86 544.458,-86"/>
<polygon fill="midnightblue" stroke="midnightblue" points="514.247,-82.5001 504.247,-86 514.247,-89.5001 514.247,-82.5001"/>
</g>
<!-- Node6 -->
<g id="node6" class="node"><title>Node6</title>
<g id="a_node6"><a xlink:href="../../d5/dca/namespacewlp.html#ac5b878c0fe198ce97804014fc7021641" target="_top" xlink:title="wlp::heap_sort">
<polygon fill="white" stroke="black" points="688,-76.5 688,-95.5 768,-95.5 768,-76.5 688,-76.5"/>
<text text-anchor="middle" x="728" y="-83.5" font-family="Helvetica,sans-Serif" font-size="10.00">wlp::heap_sort</text>
</a>
</g>
</g>
<!-- Node5&#45;&gt;Node6 -->
<g id="edge5" class="edge"><title>Node5&#45;&gt;Node6</title>
<path fill="none" stroke="midnightblue" d="M641.224,-111.465C658.637,-106.295 678.492,-100.401 694.711,-95.5859"/>
<polygon fill="midnightblue" stroke="midnightblue" points="639.89,-108.21 631.3,-114.411 641.882,-114.92 639.89,-108.21"/>
</g>
<!-- Node8&#45;&gt;Node6 -->
<g id="edge8" class="edge"><title>Node8&#45;&gt;Node6</title>
<path fill="none" stroke="midnightblue" d="M518.537,-51.3423C556.086,-54.1971 607.351,-59.1202 652,-67 665.757,-69.4279 680.714,-73.0188 693.626,-76.4272"/>
<polygon fill="midnightblue" stroke="midnightblue" points="518.556,-47.8344 508.327,-50.5912 518.043,-54.8155 518.556,-47.8344"/>
</g>
<!-- Node10 -->
<g id="node10" class="node"><title>Node10</title>
<g id="a_node10"><a xlink:href="../../d5/d92/classwlp_1_1array__heap.html#ab3813519f02496cdfc9af78d4f6d0d10" target="_top" xlink:title="wlp::array_heap::push">
<polygon fill="white" stroke="black" points="270.5,-0.5 270.5,-19.5 383.5,-19.5 383.5,-0.5 270.5,-0.5"/>
<text text-anchor="middle" x="327" y="-7.5" font-family="Helvetica,sans-Serif" font-size="10.00">wlp::array_heap::push</text>
</a>
</g>
</g>
<!-- Node9&#45;&gt;Node10 -->
<g id="edge10" class="edge"><title>Node9&#45;&gt;Node10</title>
<path fill="none" stroke="midnightblue" d="M235.878,-10C247.06,-10 258.925,-10 270.247,-10"/>
<polygon fill="midnightblue" stroke="midnightblue" points="235.837,-6.5001 225.837,-10 235.837,-13.5001 235.837,-6.5001"/>
</g>
</g>
</svg>
