<?xml version="1.0" encoding="UTF-8" standalone="no"?>
<!DOCTYPE svg PUBLIC "-//W3C//DTD SVG 1.1//EN"
 "http://www.w3.org/Graphics/SVG/1.1/DTD/svg11.dtd">
<!-- Generated by graphviz version 2.38.0 (20140413.2041)
 -->
<!-- Title: wlp::tuple_cat Pages: 1 -->
<svg width="497pt" height="28pt"
 viewBox="0.00 0.00 497.00 28.00" xmlns="http://www.w3.org/2000/svg" xmlns:xlink="http://www.w3.org/1999/xlink">
<g id="graph0" class="graph" transform="scale(1 1) rotate(0) translate(4 24)">
<title>wlp::tuple_cat</title>
<polygon fill="white" stroke="none" points="-4,4 -4,-24 493,-24 493,4 -4,4"/>
<!-- Node362 -->
<g id="node1" class="node"><title>Node362</title>
<polygon fill="#bfbfbf" stroke="black" points="0,-0.5 0,-19.5 77,-19.5 77,-0.5 0,-0.5"/>
<text text-anchor="middle" x="38.5" y="-7.5" font-family="Helvetica,sans-Serif" font-size="10.00">wlp::tuple_cat</text>
</g>
<!-- Node363 -->
<g id="node2" class="node"><title>Node363</title>
<g id="a_node2"><a xlink:href="../../d5/dca/namespacewlp.html#a447cceb8493717b7192963b2266d1553" target="_top" xlink:title="wlp::tuple_cat_pair">
<polygon fill="white" stroke="black" points="113,-0.5 113,-19.5 211,-19.5 211,-0.5 113,-0.5"/>
<text text-anchor="middle" x="162" y="-7.5" font-family="Helvetica,sans-Serif" font-size="10.00">wlp::tuple_cat_pair</text>
</a>
</g>
</g>
<!-- Node362&#45;&gt;Node363 -->
<g id="edge1" class="edge"><title>Node362&#45;&gt;Node363</title>
<path fill="none" stroke="midnightblue" d="M77.2773,-10C85.3885,-10 94.1405,-10 102.822,-10"/>
<polygon fill="midnightblue" stroke="midnightblue" points="102.939,-13.5001 112.939,-10 102.939,-6.5001 102.939,-13.5001"/>
</g>
<!-- Node364 -->
<g id="node3" class="node"><title>Node364</title>
<g id="a_node3"><a xlink:href="../../d5/dca/namespacewlp.html#ae9d748a1e31ab60b77e177f6cfdbe150" target="_top" xlink:title="wlp::tuple_cat_pair_sub">
<polygon fill="white" stroke="black" points="247,-0.5 247,-19.5 366,-19.5 366,-0.5 247,-0.5"/>
<text text-anchor="middle" x="306.5" y="-7.5" font-family="Helvetica,sans-Serif" font-size="10.00">wlp::tuple_cat_pair_sub</text>
</a>
</g>
</g>
<!-- Node363&#45;&gt;Node364 -->
<g id="edge2" class="edge"><title>Node363&#45;&gt;Node364</title>
<path fill="none" stroke="midnightblue" d="M211.244,-10C219.485,-10 228.186,-10 236.836,-10"/>
<polygon fill="midnightblue" stroke="midnightblue" points="236.936,-13.5001 246.936,-10 236.936,-6.5001 236.936,-13.5001"/>
</g>
<!-- Node365 -->
<g id="node4" class="node"><title>Node365</title>
<g id="a_node4"><a xlink:href="../../d5/dca/namespacewlp.html#a5f4b3d1209134ea55818b1b317ac7a7e" target="_top" xlink:title="wlp::make_tuple">
<polygon fill="white" stroke="black" points="402,-0.5 402,-19.5 489,-19.5 489,-0.5 402,-0.5"/>
<text text-anchor="middle" x="445.5" y="-7.5" font-family="Helvetica,sans-Serif" font-size="10.00">wlp::make_tuple</text>
</a>
</g>
</g>
<!-- Node364&#45;&gt;Node365 -->
<g id="edge3" class="edge"><title>Node364&#45;&gt;Node365</title>
<path fill="none" stroke="midnightblue" d="M366.395,-10C374.758,-10 383.316,-10 391.556,-10"/>
<polygon fill="midnightblue" stroke="midnightblue" points="391.786,-13.5001 401.786,-10 391.786,-6.5001 391.786,-13.5001"/>
</g>
</g>
</svg>
