<?xml version="1.0" encoding="UTF-8" standalone="no"?>
<!DOCTYPE svg PUBLIC "-//W3C//DTD SVG 1.1//EN"
 "http://www.w3.org/Graphics/SVG/1.1/DTD/svg11.dtd">
<!-- Generated by graphviz version 2.38.0 (20140413.2041)
 -->
<!-- Title: wlp::move Pages: 1 -->
<!--zoomable 640 -->
<svg id="main" version="1.1" xmlns="http://www.w3.org/2000/svg" xmlns:xlink="http://www.w3.org/1999/xlink" xml:space="preserve" onload="init(evt)">
<style type="text/css"><![CDATA[
.edge:hover path { stroke: red; }
.edge:hover polygon { stroke: red; fill: red; }
]]></style>
<script type="text/javascript"><![CDATA[
var edges = document.getElementsByTagName('g');
if (edges && edges.length) {
  for (var i=0;i<edges.length;i++) {
    if (edges[i].id.substr(0,4)=='edge') {
      edges[i].setAttribute('class','edge');
    }
  }
}
]]></script>
        <defs>
                <circle id="rim" cx="0" cy="0" r="7"/>
                <circle id="rim2" cx="0" cy="0" r="3.5"/>
                <g id="zoomPlus">
                        <use xlink:href="#rim" fill="#404040">
                                <set attributeName="fill" to="#808080" begin="zoomplus.mouseover" end="zoomplus.mouseout"/>
                        </use>
                        <path d="M-4,0h8M0,-4v8" fill="none" stroke="white" stroke-width="1.5" pointer-events="none"/>
                </g>
                <g id="zoomMin">
                        <use xlink:href="#rim" fill="#404040">
                                <set attributeName="fill" to="#808080" begin="zoomminus.mouseover" end="zoomminus.mouseout"/>
                        </use>
                        <path d="M-4,0h8" fill="none" stroke="white" stroke-width="1.5" pointer-events="none"/>
                </g>
                <g id="dirArrow">
                        <path fill="none" stroke="white" stroke-width="1.5" d="M0,-3.0v7 M-2.5,-0.5L0,-3.0L2.5,-0.5"/>
                </g>
               <g id="resetDef">
                       <use xlink:href="#rim2" fill="#404040">
                               <set attributeName="fill" to="#808080" begin="reset.mouseover" end="reset.mouseout"/>
                       </use>
               </g>
        </defs>

<script type="text/javascript">
var viewWidth = 257;
var viewHeight = 640;
var sectionId = 'dynsection-29';
</script>
<script xlink:href="../../svgpan.js"/>
<svg id="graph" class="graph">
<g id="viewport">
<title>wlp::move</title>
<polygon fill="white" stroke="none" points="-4,4 -4,-635.5 253,-635.5 253,4 -4,4"/>
<!-- Node161 -->
<g id="node1" class="node"><title>Node161</title>
<polygon fill="#bfbfbf" stroke="black" points="0,-300.5 0,-319.5 59,-319.5 59,-300.5 0,-300.5"/>
<text text-anchor="middle" x="29.5" y="-307.5" font-family="Helvetica,sans-Serif" font-size="10.00">wlp::move</text>
</g>
<!-- Node162 -->
<g id="node2" class="node"><title>Node162</title>
<g id="a_node2"><a xlink:href="../../d1/de1/structwlp_1_1_tuple_element.html#a81abc337f5cb042313bf937e86ab44c3" target="_top" xlink:title="wlp::TupleElement\&lt;\l Indices, Types \&gt;::operator=">
<polygon fill="white" stroke="black" points="102.5,-601 102.5,-631 241.5,-631 241.5,-601 102.5,-601"/>
<text text-anchor="start" x="110.5" y="-619" font-family="Helvetica,sans-Serif" font-size="10.00">wlp::TupleElement&lt;</text>
<text text-anchor="middle" x="172" y="-608" font-family="Helvetica,sans-Serif" font-size="10.00"> Indices, Types &gt;::operator=</text>
</a>
</g>
</g>
<!-- Node161&#45;&gt;Node162 -->
<g id="edge1" class="edge"><title>Node161&#45;&gt;Node162</title>
<path fill="none" stroke="midnightblue" d="M32.5246,-329.787C38.773,-387.176 59.5047,-552.073 95,-591 98.5563,-594.9 102.731,-598.193 107.263,-600.974"/>
<polygon fill="midnightblue" stroke="midnightblue" points="35.9725,-329.109 31.4393,-319.533 29.0114,-329.846 35.9725,-329.109"/>
</g>
<!-- Node163 -->
<g id="node3" class="node"><title>Node163</title>
<g id="a_node3"><a xlink:href="../../dd/d7e/classwlp_1_1_tree_set.html#a88c7d8cc8e9ad47e410037cba1491fd3" target="_top" xlink:title="wlp::TreeSet::operator=">
<polygon fill="white" stroke="black" points="113,-562.5 113,-581.5 231,-581.5 231,-562.5 113,-562.5"/>
<text text-anchor="middle" x="172" y="-569.5" font-family="Helvetica,sans-Serif" font-size="10.00">wlp::TreeSet::operator=</text>
</a>
</g>
</g>
<!-- Node161&#45;&gt;Node163 -->
<g id="edge2" class="edge"><title>Node161&#45;&gt;Node163</title>
<path fill="none" stroke="midnightblue" d="M33.1174,-329.596C40.449,-381.59 62.7803,-521.243 95,-553 100.037,-557.965 106.163,-561.696 112.729,-564.491"/>
<polygon fill="midnightblue" stroke="midnightblue" points="36.5785,-329.073 31.7478,-319.643 29.6439,-330.027 36.5785,-329.073"/>
</g>
<!-- Node164 -->
<g id="node4" class="node"><title>Node164</title>
<g id="a_node4"><a xlink:href="../../da/d4c/classwlp_1_1_tree_map.html#a8462c83662be892603b8b21bbab85ca4" target="_top" xlink:title="wlp::TreeMap::operator=">
<polygon fill="white" stroke="black" points="111,-524.5 111,-543.5 233,-543.5 233,-524.5 111,-524.5"/>
<text text-anchor="middle" x="172" y="-531.5" font-family="Helvetica,sans-Serif" font-size="10.00">wlp::TreeMap::operator=</text>
</a>
</g>
</g>
<!-- Node161&#45;&gt;Node164 -->
<g id="edge3" class="edge"><title>Node161&#45;&gt;Node164</title>
<path fill="none" stroke="midnightblue" d="M30.6837,-329.914C32.1875,-370.83 41.6243,-464.727 95,-515 99.5542,-519.289 104.926,-522.651 110.673,-525.279"/>
<polygon fill="midnightblue" stroke="midnightblue" points="34.1813,-329.77 30.4399,-319.858 27.1834,-329.94 34.1813,-329.77"/>
</g>
<!-- Node165 -->
<g id="node5" class="node"><title>Node165</title>
<g id="a_node5"><a xlink:href="../../de/d5b/classwlp_1_1_____allocator.html#a50836ed4a4e65a7e325fbd98889d5b21" target="_top" xlink:title="wlp::__Allocator::operator=">
<polygon fill="white" stroke="black" points="105.5,-486.5 105.5,-505.5 238.5,-505.5 238.5,-486.5 105.5,-486.5"/>
<text text-anchor="middle" x="172" y="-493.5" font-family="Helvetica,sans-Serif" font-size="10.00">wlp::__Allocator::operator=</text>
</a>
</g>
</g>
<!-- Node161&#45;&gt;Node165 -->
<g id="edge4" class="edge"><title>Node161&#45;&gt;Node165</title>
<path fill="none" stroke="midnightblue" d="M32.3557,-330.019C36.7152,-365.18 50.8443,-437.99 95,-477 99.3828,-480.872 104.438,-483.979 109.815,-486.47"/>
<polygon fill="midnightblue" stroke="midnightblue" points="35.7874,-329.202 31.2225,-319.641 28.8288,-329.962 35.7874,-329.202"/>
</g>
<!-- Node166 -->
<g id="node6" class="node"><title>Node166</title>
<g id="a_node6"><a xlink:href="../../df/d90/classwlp_1_1_chain_hash_set.html#aef4a2f6659f9622f391dbc5b0fbf2b17" target="_top" xlink:title="wlp::ChainHashSet::\loperator=">
<polygon fill="white" stroke="black" points="119.5,-437 119.5,-467 224.5,-467 224.5,-437 119.5,-437"/>
<text text-anchor="start" x="127.5" y="-455" font-family="Helvetica,sans-Serif" font-size="10.00">wlp::ChainHashSet::</text>
<text text-anchor="middle" x="172" y="-444" font-family="Helvetica,sans-Serif" font-size="10.00">operator=</text>
</a>
</g>
</g>
<!-- Node161&#45;&gt;Node166 -->
<g id="edge5" class="edge"><title>Node161&#45;&gt;Node166</title>
<path fill="none" stroke="midnightblue" d="M36.2724,-329.557C44.9014,-355.476 63.6001,-400.958 95,-427 102.056,-432.852 110.526,-437.349 119.211,-440.799"/>
<polygon fill="midnightblue" stroke="midnightblue" points="39.5285,-328.244 33.1831,-319.76 32.8525,-330.349 39.5285,-328.244"/>
</g>
<!-- Node167 -->
<g id="node7" class="node"><title>Node167</title>
<g id="a_node7"><a xlink:href="../../d9/d87/classwlp_1_1_open_hash_set.html#aef3a9c33154426d2b4fc1f99b32421f5" target="_top" xlink:title="wlp::OpenHashSet::operator=">
<polygon fill="white" stroke="black" points="99.5,-398.5 99.5,-417.5 244.5,-417.5 244.5,-398.5 99.5,-398.5"/>
<text text-anchor="middle" x="172" y="-405.5" font-family="Helvetica,sans-Serif" font-size="10.00">wlp::OpenHashSet::operator=</text>
</a>
</g>
</g>
<!-- Node161&#45;&gt;Node167 -->
<g id="edge6" class="edge"><title>Node161&#45;&gt;Node167</title>
<path fill="none" stroke="midnightblue" d="M40.9278,-328.773C51.9934,-346.934 71.1608,-373.869 95,-389 101.086,-392.863 107.909,-395.94 114.904,-398.393"/>
<polygon fill="midnightblue" stroke="midnightblue" points="43.7029,-326.584 35.6356,-319.716 37.6591,-330.116 43.7029,-326.584"/>
</g>
<!-- Node168 -->
<g id="node8" class="node"><title>Node168</title>
<g id="a_node8"><a xlink:href="../../dc/d26/structwlp_1_1_tuple_impl_3_01_index_sequence_3_01_indices_8_8_8_01_4_00_01_types_8_8_8_01_4.html#af736bbc9b365453b29208bb7249d777f" target="_top" xlink:title="wlp::TupleImpl\&lt; IndexSequence\l\&lt; Indices... \&gt;, Types...\l \&gt;::operator=">
<polygon fill="white" stroke="black" points="95,-338.5 95,-379.5 249,-379.5 249,-338.5 95,-338.5"/>
<text text-anchor="start" x="103" y="-367.5" font-family="Helvetica,sans-Serif" font-size="10.00">wlp::TupleImpl&lt; IndexSequence</text>
<text text-anchor="start" x="103" y="-356.5" font-family="Helvetica,sans-Serif" font-size="10.00">&lt; Indices... &gt;, Types...</text>
<text text-anchor="middle" x="172" y="-345.5" font-family="Helvetica,sans-Serif" font-size="10.00"> &gt;::operator=</text>
</a>
</g>
</g>
<!-- Node161&#45;&gt;Node168 -->
<g id="edge7" class="edge"><title>Node161&#45;&gt;Node168</title>
<path fill="none" stroke="midnightblue" d="M67.422,-322.877C81.0524,-327.63 96.8618,-333.144 111.962,-338.41"/>
<polygon fill="midnightblue" stroke="midnightblue" points="68.5182,-319.552 57.9233,-319.564 66.213,-326.162 68.5182,-319.552"/>
</g>
<!-- Node169 -->
<g id="node9" class="node"><title>Node169</title>
<g id="a_node9"><a xlink:href="../../dc/def/classwlp_1_1_tuple.html#ae0611f51eeac4db7feab58246b0c9acd" target="_top" xlink:title="wlp::Tuple::operator=">
<polygon fill="white" stroke="black" points="118.5,-300.5 118.5,-319.5 225.5,-319.5 225.5,-300.5 118.5,-300.5"/>
<text text-anchor="middle" x="172" y="-307.5" font-family="Helvetica,sans-Serif" font-size="10.00">wlp::Tuple::operator=</text>
</a>
</g>
</g>
<!-- Node161&#45;&gt;Node169 -->
<g id="edge8" class="edge"><title>Node161&#45;&gt;Node169</title>
<path fill="none" stroke="midnightblue" d="M69.332,-310C84.4998,-310 102.128,-310 118.405,-310"/>
<polygon fill="midnightblue" stroke="midnightblue" points="69.2713,-306.5 59.2713,-310 69.2713,-313.5 69.2713,-306.5"/>
</g>
<!-- Node170 -->
<g id="node10" class="node"><title>Node170</title>
<g id="a_node10"><a xlink:href="../../d9/dc5/classwlp_1_1_chain_hash_map.html#a748cb9bcf13dbf3e7d9ff1cb19bdcbf3" target="_top" xlink:title="wlp::ChainHashMap\&lt;\l Key, Key, Hash, Equal\l \&gt;::operator=">
<polygon fill="white" stroke="black" points="112.5,-240.5 112.5,-281.5 231.5,-281.5 231.5,-240.5 112.5,-240.5"/>
<text text-anchor="start" x="120.5" y="-269.5" font-family="Helvetica,sans-Serif" font-size="10.00">wlp::ChainHashMap&lt;</text>
<text text-anchor="start" x="120.5" y="-258.5" font-family="Helvetica,sans-Serif" font-size="10.00"> Key, Key, Hash, Equal</text>
<text text-anchor="middle" x="172" y="-247.5" font-family="Helvetica,sans-Serif" font-size="10.00"> &gt;::operator=</text>
</a>
</g>
</g>
<!-- Node161&#45;&gt;Node170 -->
<g id="edge9" class="edge"><title>Node161&#45;&gt;Node170</title>
<path fill="none" stroke="midnightblue" d="M67.4735,-297.105C81.18,-292.325 97.0844,-286.778 112.253,-281.488"/>
<polygon fill="midnightblue" stroke="midnightblue" points="66.213,-293.838 57.9233,-300.436 68.5182,-300.448 66.213,-293.838"/>
</g>
<!-- Node171 -->
<g id="node11" class="node"><title>Node171</title>
<g id="a_node11"><a xlink:href="../../d1/d52/classwlp_1_1_shared_ptr.html#a9b2f161dc0e4cbedc1a6f093300bc42e" target="_top" xlink:title="wlp::SharedPtr::operator=">
<polygon fill="white" stroke="black" points="108,-202.5 108,-221.5 236,-221.5 236,-202.5 108,-202.5"/>
<text text-anchor="middle" x="172" y="-209.5" font-family="Helvetica,sans-Serif" font-size="10.00">wlp::SharedPtr::operator=</text>
</a>
</g>
</g>
<!-- Node161&#45;&gt;Node171 -->
<g id="edge10" class="edge"><title>Node161&#45;&gt;Node171</title>
<path fill="none" stroke="midnightblue" d="M40.9278,-291.227C51.9934,-273.066 71.1608,-246.131 95,-231 101.086,-227.137 107.909,-224.06 114.904,-221.607"/>
<polygon fill="midnightblue" stroke="midnightblue" points="37.6591,-289.884 35.6356,-300.284 43.7029,-293.416 37.6591,-289.884"/>
</g>
<!-- Node172 -->
<g id="node12" class="node"><title>Node172</title>
<g id="a_node12"><a xlink:href="../../dd/dd6/classwlp_1_1_array_heap.html#addb22a0af26dd88963d2304e685a2da4" target="_top" xlink:title="wlp::ArrayHeap::operator=">
<polygon fill="white" stroke="black" points="107,-164.5 107,-183.5 237,-183.5 237,-164.5 107,-164.5"/>
<text text-anchor="middle" x="172" y="-171.5" font-family="Helvetica,sans-Serif" font-size="10.00">wlp::ArrayHeap::operator=</text>
</a>
</g>
</g>
<!-- Node161&#45;&gt;Node172 -->
<g id="edge11" class="edge"><title>Node161&#45;&gt;Node172</title>
<path fill="none" stroke="midnightblue" d="M35.8765,-290.493C44.1387,-264.255 62.5121,-218.005 95,-193 100.066,-189.101 105.833,-185.994 111.873,-183.518"/>
<polygon fill="midnightblue" stroke="midnightblue" points="32.4284,-289.811 32.9428,-300.393 39.1399,-291.8 32.4284,-289.811"/>
</g>
<!-- Node173 -->
<g id="node13" class="node"><title>Node173</title>
<g id="a_node13"><a xlink:href="../../d3/def/classwlp_1_1_red_black_tree.html#ac388c189e632d49c7a9e2c52e3b153d1" target="_top" xlink:title="wlp::RedBlackTree\&lt;\l Key, Key, Cmp \&gt;::operator=">
<polygon fill="white" stroke="black" points="100.5,-115 100.5,-145 243.5,-145 243.5,-115 100.5,-115"/>
<text text-anchor="start" x="108.5" y="-133" font-family="Helvetica,sans-Serif" font-size="10.00">wlp::RedBlackTree&lt;</text>
<text text-anchor="middle" x="172" y="-122" font-family="Helvetica,sans-Serif" font-size="10.00"> Key, Key, Cmp &gt;::operator=</text>
</a>
</g>
</g>
<!-- Node161&#45;&gt;Node173 -->
<g id="edge12" class="edge"><title>Node161&#45;&gt;Node173</title>
<path fill="none" stroke="midnightblue" d="M33.3205,-290.339C39.0359,-257.641 55.0226,-192.029 95,-155 99.178,-151.13 103.967,-147.859 109.065,-145.093"/>
<polygon fill="midnightblue" stroke="midnightblue" points="29.8297,-290.003 31.7048,-300.431 36.7417,-291.11 29.8297,-290.003"/>
</g>
<!-- Node174 -->
<g id="node14" class="node"><title>Node174</title>
<g id="a_node14"><a xlink:href="../../db/d49/classwlp_1_1_array_list.html#a2956b9169f759c2c6af5ce2538c50301" target="_top" xlink:title="wlp::ArrayList::operator=">
<polygon fill="white" stroke="black" points="110.5,-76.5 110.5,-95.5 233.5,-95.5 233.5,-76.5 110.5,-76.5"/>
<text text-anchor="middle" x="172" y="-83.5" font-family="Helvetica,sans-Serif" font-size="10.00">wlp::ArrayList::operator=</text>
</a>
</g>
</g>
<!-- Node161&#45;&gt;Node174 -->
<g id="edge13" class="edge"><title>Node161&#45;&gt;Node174</title>
<path fill="none" stroke="midnightblue" d="M30.7772,-289.973C32.4669,-249.213 42.2488,-156.232 95,-106 99.545,-101.672 104.911,-98.2536 110.655,-95.5577"/>
<polygon fill="midnightblue" stroke="midnightblue" points="27.2717,-290.12 30.483,-300.216 34.2688,-290.321 27.2717,-290.12"/>
</g>
<!-- Node175 -->
<g id="node15" class="node"><title>Node175</title>
<g id="a_node15"><a xlink:href="../../d1/d52/classwlp_1_1_shared_ptr.html#adb9f17022f939cf3a3453afd8596e15f" target="_top" xlink:title="wlp::SharedPtr::SharedPtr">
<polygon fill="white" stroke="black" points="107,-38.5 107,-57.5 237,-57.5 237,-38.5 107,-38.5"/>
<text text-anchor="middle" x="172" y="-45.5" font-family="Helvetica,sans-Serif" font-size="10.00">wlp::SharedPtr::SharedPtr</text>
</a>
</g>
</g>
<!-- Node161&#45;&gt;Node175 -->
<g id="edge14" class="edge"><title>Node161&#45;&gt;Node175</title>
<path fill="none" stroke="midnightblue" d="M33.1174,-290.404C40.449,-238.41 62.7803,-98.7568 95,-67 98.8745,-63.1811 103.394,-60.0918 108.262,-57.5972"/>
<polygon fill="midnightblue" stroke="midnightblue" points="29.6439,-289.973 31.7478,-300.357 36.5785,-290.927 29.6439,-289.973"/>
</g>
<!-- Node176 -->
<g id="node16" class="node"><title>Node176</title>
<g id="a_node16"><a xlink:href="../../d5/dca/namespacewlp.html#aa4ecab9f1c93c13dab3663c7c9e2aa24" target="_top" xlink:title="wlp::swap">
<polygon fill="white" stroke="black" points="142.5,-0.5 142.5,-19.5 201.5,-19.5 201.5,-0.5 142.5,-0.5"/>
<text text-anchor="middle" x="172" y="-7.5" font-family="Helvetica,sans-Serif" font-size="10.00">wlp::swap</text>
</a>
</g>
</g>
<!-- Node161&#45;&gt;Node176 -->
<g id="edge15" class="edge"><title>Node161&#45;&gt;Node176</title>
<path fill="none" stroke="midnightblue" d="M32.3559,-290.448C38.1949,-233.049 58.0342,-66.6881 95,-29 107.19,-16.5717 126.19,-11.8217 142.143,-10.1788"/>
<polygon fill="midnightblue" stroke="midnightblue" points="28.8724,-290.11 31.3738,-300.405 35.8386,-290.797 28.8724,-290.11"/>
</g>
</g>
</svg>
        <g id="navigator" transform="translate(0 0)" fill="#404254">
                <rect fill="#f2f5e9" fill-opacity="0.5" stroke="#606060" stroke-width=".5" x="0" y="0" width="60" height="60"/>
                <use id="zoomplus" xlink:href="#zoomPlus" x="17" y="9" onmousedown="handleZoom(evt,'in')"/>
                <use id="zoomminus" xlink:href="#zoomMin" x="42" y="9" onmousedown="handleZoom(evt,'out')"/>
                <use id="reset" xlink:href="#resetDef" x="30" y="36" onmousedown="handleReset()"/>
                <g id="arrowUp" xlink:href="#dirArrow" transform="translate(30 24)" onmousedown="handlePan(0,-1)">
                  <use xlink:href="#rim" fill="#404040">
                        <set attributeName="fill" to="#808080" begin="arrowUp.mouseover" end="arrowUp.mouseout"/>
                  </use>
                  <path fill="none" stroke="white" stroke-width="1.5" d="M0,-3.0v7 M-2.5,-0.5L0,-3.0L2.5,-0.5"/>
                </g>
                <g id="arrowRight" xlink:href="#dirArrow" transform="rotate(90) translate(36 -43)" onmousedown="handlePan(1,0)">
                  <use xlink:href="#rim" fill="#404040">
                        <set attributeName="fill" to="#808080" begin="arrowRight.mouseover" end="arrowRight.mouseout"/>
                  </use>
                  <path fill="none" stroke="white" stroke-width="1.5" d="M0,-3.0v7 M-2.5,-0.5L0,-3.0L2.5,-0.5"/>
                </g>
                <g id="arrowDown" xlink:href="#dirArrow" transform="rotate(180) translate(-30 -48)" onmousedown="handlePan(0,1)">
                  <use xlink:href="#rim" fill="#404040">
                        <set attributeName="fill" to="#808080" begin="arrowDown.mouseover" end="arrowDown.mouseout"/>
                  </use>
                  <path fill="none" stroke="white" stroke-width="1.5" d="M0,-3.0v7 M-2.5,-0.5L0,-3.0L2.5,-0.5"/>
                </g>
                <g id="arrowLeft" xlink:href="#dirArrow" transform="rotate(270) translate(-36 17)" onmousedown="handlePan(-1,0)">
                  <use xlink:href="#rim" fill="#404040">
                        <set attributeName="fill" to="#808080" begin="arrowLeft.mouseover" end="arrowLeft.mouseout"/>
                  </use>
                  <path fill="none" stroke="white" stroke-width="1.5" d="M0,-3.0v7 M-2.5,-0.5L0,-3.0L2.5,-0.5"/>
                </g>
        </g>
        <svg viewBox="0 0 15 15" width="100%" height="30px" preserveAspectRatio="xMaxYMin meet">
         <g id="arrow_out" transform="scale(0.3 0.3)">
          <a xlink:href="namespacewlp_aa09e615d02daee5123e80ddaee3d2323_icgraph_org.svg" target="_base">
           <rect id="button" ry="5" rx="5" y="6" x="6" height="38" width="38"
                fill="#f2f5e9" fill-opacity="0.5" stroke="#606060" stroke-width="1.0"/>
           <path id="arrow"
             d="M 11.500037,31.436501 C 11.940474,20.09759 22.043105,11.32322 32.158766,21.979434 L 37.068811,17.246167 C 37.068811,17.246167 37.088388,32 37.088388,32 L 22.160133,31.978069 C 22.160133,31.978069 26.997745,27.140456 26.997745,27.140456 C 18.528582,18.264221 13.291696,25.230495 11.500037,31.436501 z"
             style="fill:#404040;"/>
          </a>
         </g>
        </svg>
</svg>
