<?xml version="1.0" encoding="UTF-8" standalone="no"?>
<!DOCTYPE svg PUBLIC "-//W3C//DTD SVG 1.1//EN"
 "http://www.w3.org/Graphics/SVG/1.1/DTD/svg11.dtd">
<!-- Generated by graphviz version 2.38.0 (20140413.2041)
 -->
<!-- Title: wlp::__push_heap Pages: 1 -->
<svg width="764pt" height="142pt"
 viewBox="0.00 0.00 764.00 142.00" xmlns="http://www.w3.org/2000/svg" xmlns:xlink="http://www.w3.org/1999/xlink">
<g id="graph0" class="graph" transform="scale(1 1) rotate(0) translate(4 138)">
<title>wlp::__push_heap</title>
<polygon fill="white" stroke="none" points="-4,4 -4,-138 760,-138 760,4 -4,4"/>
<!-- Node25 -->
<g id="node1" class="node"><title>Node25</title>
<polygon fill="#bfbfbf" stroke="black" points="0,-19.5 0,-38.5 95,-38.5 95,-19.5 0,-19.5"/>
<text text-anchor="middle" x="47.5" y="-26.5" font-family="Helvetica,sans-Serif" font-size="10.00">wlp::__push_heap</text>
</g>
<!-- Node26 -->
<g id="node2" class="node"><title>Node26</title>
<g id="a_node2"><a xlink:href="../../d5/dca/namespacewlp.html#a4d2da3668dcec610a030107c3903d2df" target="_top" xlink:title="wlp::__adjust_heap">
<polygon fill="white" stroke="black" points="131,-38.5 131,-57.5 231,-57.5 231,-38.5 131,-38.5"/>
<text text-anchor="middle" x="181" y="-45.5" font-family="Helvetica,sans-Serif" font-size="10.00">wlp::__adjust_heap</text>
</a>
</g>
</g>
<!-- Node25&#45;&gt;Node26 -->
<g id="edge1" class="edge"><title>Node25&#45;&gt;Node26</title>
<path fill="none" stroke="midnightblue" d="M105.394,-37.2204C113.837,-38.4403 122.479,-39.6889 130.748,-40.8837"/>
<polygon fill="midnightblue" stroke="midnightblue" points="105.63,-33.7183 95.2322,-35.7522 104.629,-40.6463 105.63,-33.7183"/>
</g>
<!-- Node33 -->
<g id="node9" class="node"><title>Node33</title>
<g id="a_node9"><a xlink:href="../../d5/dca/namespacewlp.html#a4de8c4529d37369503a720d251f3f802" target="_top" xlink:title="wlp::push_heap">
<polygon fill="white" stroke="black" points="139,-0.5 139,-19.5 223,-19.5 223,-0.5 139,-0.5"/>
<text text-anchor="middle" x="181" y="-7.5" font-family="Helvetica,sans-Serif" font-size="10.00">wlp::push_heap</text>
</a>
</g>
</g>
<!-- Node25&#45;&gt;Node33 -->
<g id="edge9" class="edge"><title>Node25&#45;&gt;Node33</title>
<path fill="none" stroke="midnightblue" d="M105.373,-20.7827C116.563,-19.1658 128.103,-17.4985 138.663,-15.9726"/>
<polygon fill="midnightblue" stroke="midnightblue" points="104.629,-17.3537 95.2322,-22.2478 105.63,-24.2817 104.629,-17.3537"/>
</g>
<!-- Node27 -->
<g id="node3" class="node"><title>Node27</title>
<g id="a_node3"><a xlink:href="../../d5/dca/namespacewlp.html#a8e7c749cafcbbe652b4f0672b7565f5b" target="_top" xlink:title="wlp::__pop_heap">
<polygon fill="white" stroke="black" points="277.5,-76.5 277.5,-95.5 366.5,-95.5 366.5,-76.5 277.5,-76.5"/>
<text text-anchor="middle" x="322" y="-83.5" font-family="Helvetica,sans-Serif" font-size="10.00">wlp::__pop_heap</text>
</a>
</g>
</g>
<!-- Node26&#45;&gt;Node27 -->
<g id="edge2" class="edge"><title>Node26&#45;&gt;Node27</title>
<path fill="none" stroke="midnightblue" d="M226.795,-60.2462C245.955,-65.484 267.994,-71.5091 285.936,-76.4141"/>
<polygon fill="midnightblue" stroke="midnightblue" points="227.645,-56.85 217.076,-57.589 225.799,-63.6022 227.645,-56.85"/>
</g>
<!-- Node32 -->
<g id="node8" class="node"><title>Node32</title>
<g id="a_node8"><a xlink:href="../../d5/dca/namespacewlp.html#ad8927f7af1e3363214a8d9b186531078" target="_top" xlink:title="wlp::make_heap">
<polygon fill="white" stroke="black" points="413,-38.5 413,-57.5 500,-57.5 500,-38.5 413,-38.5"/>
<text text-anchor="middle" x="456.5" y="-45.5" font-family="Helvetica,sans-Serif" font-size="10.00">wlp::make_heap</text>
</a>
</g>
</g>
<!-- Node26&#45;&gt;Node32 -->
<g id="edge7" class="edge"><title>Node26&#45;&gt;Node32</title>
<path fill="none" stroke="midnightblue" d="M241.254,-48C293.013,-48 366.883,-48 412.969,-48"/>
<polygon fill="midnightblue" stroke="midnightblue" points="241.212,-44.5001 231.212,-48 241.212,-51.5001 241.212,-44.5001"/>
</g>
<!-- Node28 -->
<g id="node4" class="node"><title>Node28</title>
<g id="a_node4"><a xlink:href="../../d5/dca/namespacewlp.html#aedb76bc9547f573d794889862528d16e" target="_top" xlink:title="wlp::pop_heap">
<polygon fill="white" stroke="black" points="417,-76.5 417,-95.5 496,-95.5 496,-76.5 417,-76.5"/>
<text text-anchor="middle" x="456.5" y="-83.5" font-family="Helvetica,sans-Serif" font-size="10.00">wlp::pop_heap</text>
</a>
</g>
</g>
<!-- Node27&#45;&gt;Node28 -->
<g id="edge3" class="edge"><title>Node27&#45;&gt;Node28</title>
<path fill="none" stroke="midnightblue" d="M376.795,-86C390.155,-86 404.216,-86 416.698,-86"/>
<polygon fill="midnightblue" stroke="midnightblue" points="376.753,-82.5001 366.753,-86 376.753,-89.5001 376.753,-82.5001"/>
</g>
<!-- Node29 -->
<g id="node5" class="node"><title>Node29</title>
<g id="a_node5"><a xlink:href="../../d5/dca/namespacewlp.html#a664313ed82edafa1cf6c2e9c1c75378a" target="_top" xlink:title="wlp::sort_heap">
<polygon fill="white" stroke="black" points="548,-114.5 548,-133.5 628,-133.5 628,-114.5 548,-114.5"/>
<text text-anchor="middle" x="588" y="-121.5" font-family="Helvetica,sans-Serif" font-size="10.00">wlp::sort_heap</text>
</a>
</g>
</g>
<!-- Node28&#45;&gt;Node29 -->
<g id="edge4" class="edge"><title>Node28&#45;&gt;Node29</title>
<path fill="none" stroke="midnightblue" d="M500.219,-98.5353C517.836,-103.705 537.923,-109.599 554.332,-114.414"/>
<polygon fill="midnightblue" stroke="midnightblue" points="500.759,-95.0463 490.178,-95.589 498.788,-101.763 500.759,-95.0463"/>
</g>
<!-- Node31 -->
<g id="node7" class="node"><title>Node31</title>
<g id="a_node7"><a xlink:href="../../dd/dd6/classwlp_1_1_array_heap.html#a98362b142533a56d1b2e0a35acd944d7" target="_top" xlink:title="wlp::ArrayHeap::pop">
<polygon fill="white" stroke="black" points="536,-76.5 536,-95.5 640,-95.5 640,-76.5 536,-76.5"/>
<text text-anchor="middle" x="588" y="-83.5" font-family="Helvetica,sans-Serif" font-size="10.00">wlp::ArrayHeap::pop</text>
</a>
</g>
</g>
<!-- Node28&#45;&gt;Node31 -->
<g id="edge6" class="edge"><title>Node28&#45;&gt;Node31</title>
<path fill="none" stroke="midnightblue" d="M506.274,-86C515.964,-86 526.164,-86 535.929,-86"/>
<polygon fill="midnightblue" stroke="midnightblue" points="506.004,-82.5001 496.004,-86 506.004,-89.5001 506.004,-82.5001"/>
</g>
<!-- Node30 -->
<g id="node6" class="node"><title>Node30</title>
<g id="a_node6"><a xlink:href="../../d5/dca/namespacewlp.html#a2329b0c52ca1a59525aea1d75476ef10" target="_top" xlink:title="wlp::heap_sort">
<polygon fill="white" stroke="black" points="676,-76.5 676,-95.5 756,-95.5 756,-76.5 676,-76.5"/>
<text text-anchor="middle" x="716" y="-83.5" font-family="Helvetica,sans-Serif" font-size="10.00">wlp::heap_sort</text>
</a>
</g>
</g>
<!-- Node29&#45;&gt;Node30 -->
<g id="edge5" class="edge"><title>Node29&#45;&gt;Node30</title>
<path fill="none" stroke="midnightblue" d="M630.564,-111.465C647.705,-106.295 667.25,-100.401 683.215,-95.5859"/>
<polygon fill="midnightblue" stroke="midnightblue" points="629.359,-108.173 620.795,-114.411 631.38,-114.874 629.359,-108.173"/>
</g>
<!-- Node32&#45;&gt;Node30 -->
<g id="edge8" class="edge"><title>Node32&#45;&gt;Node30</title>
<path fill="none" stroke="midnightblue" d="M510.58,-51.492C547.147,-54.394 596.753,-59.3123 640,-67 653.754,-69.4449 668.711,-73.0391 681.623,-76.4452"/>
<polygon fill="midnightblue" stroke="midnightblue" points="510.389,-47.9671 500.15,-50.6909 509.853,-54.9466 510.389,-47.9671"/>
</g>
<!-- Node34 -->
<g id="node10" class="node"><title>Node34</title>
<g id="a_node10"><a xlink:href="../../dd/dd6/classwlp_1_1_array_heap.html#aa98a1796d8d8557ec0b361108c2a8898" target="_top" xlink:title="wlp::ArrayHeap::push">
<polygon fill="white" stroke="black" points="267,-0.5 267,-19.5 377,-19.5 377,-0.5 267,-0.5"/>
<text text-anchor="middle" x="322" y="-7.5" font-family="Helvetica,sans-Serif" font-size="10.00">wlp::ArrayHeap::push</text>
</a>
</g>
</g>
<!-- Node33&#45;&gt;Node34 -->
<g id="edge10" class="edge"><title>Node33&#45;&gt;Node34</title>
<path fill="none" stroke="midnightblue" d="M233.541,-10C244.435,-10 255.962,-10 266.946,-10"/>
<polygon fill="midnightblue" stroke="midnightblue" points="233.328,-6.5001 223.328,-10 233.328,-13.5001 233.328,-6.5001"/>
</g>
</g>
</svg>
