<?xml version="1.0" encoding="UTF-8" standalone="no"?>
<!DOCTYPE svg PUBLIC "-//W3C//DTD SVG 1.1//EN"
 "http://www.w3.org/Graphics/SVG/1.1/DTD/svg11.dtd">
<!-- Generated by graphviz version 2.36.0 (20140111.2315)
 -->
<!-- Title: wlp::make_tuple Pages: 1 -->
<!--zoomable 404 -->
<svg id="main" version="1.1" xmlns="http://www.w3.org/2000/svg" xmlns:xlink="http://www.w3.org/1999/xlink" xml:space="preserve" onload="init(evt)">
<style type="text/css"><![CDATA[
.edge:hover path { stroke: red; }
.edge:hover polygon { stroke: red; fill: red; }
]]></style>
<script type="text/javascript"><![CDATA[
var edges = document.getElementsByTagName('g');
if (edges && edges.length) {
  for (var i=0;i<edges.length;i++) {
    if (edges[i].id.substr(0,4)=='edge') {
      edges[i].setAttribute('class','edge');
    }
  }
}
]]></script>
        <defs>
                <circle id="rim" cx="0" cy="0" r="7"/>
                <circle id="rim2" cx="0" cy="0" r="3.5"/>
                <g id="zoomPlus">
                        <use xlink:href="#rim" fill="#404040">
                                <set attributeName="fill" to="#808080" begin="zoomplus.mouseover" end="zoomplus.mouseout"/>
                        </use>
                        <path d="M-4,0h8M0,-4v8" fill="none" stroke="white" stroke-width="1.5" pointer-events="none"/>
                </g>
                <g id="zoomMin">
                        <use xlink:href="#rim" fill="#404040">
                                <set attributeName="fill" to="#808080" begin="zoomminus.mouseover" end="zoomminus.mouseout"/>
                        </use>
                        <path d="M-4,0h8" fill="none" stroke="white" stroke-width="1.5" pointer-events="none"/>
                </g>
                <g id="dirArrow">
                        <path fill="none" stroke="white" stroke-width="1.5" d="M0,-3.0v7 M-2.5,-0.5L0,-3.0L2.5,-0.5"/>
                </g>
               <g id="resetDef">
                       <use xlink:href="#rim2" fill="#404040">
                               <set attributeName="fill" to="#808080" begin="reset.mouseover" end="reset.mouseout"/>
                       </use>
               </g>
        </defs>

<script type="text/javascript">
var viewWidth = 510;
var viewHeight = 404;
var sectionId = 'dynsection-26';
</script>
<script xlink:href="../../svgpan.js"/>
<svg id="graph" class="graph">
<g id="viewport">
<title>wlp::make_tuple</title>
<polygon fill="white" stroke="none" points="-4,4 -4,-400 506,-400 506,4 -4,4"/>
<!-- Node1 -->
<g id="node1" class="node"><title>Node1</title>
<polygon fill="#bfbfbf" stroke="black" points="0,-182.5 0,-201.5 88,-201.5 88,-182.5 0,-182.5"/>
<text text-anchor="middle" x="44" y="-189.5" font-family="Helvetica,sans-Serif" font-size="10.00">wlp::make_tuple</text>
</g>
<!-- Node2 -->
<g id="node2" class="node"><title>Node2</title>
<g id="a_node2"><a xlink:href="../../d8/de4/classwlp_1_1tree__map.html#a24f85ab3dc23a7a4b870f71dcf2ca0fd" target="_top" xlink:title="wlp::tree_map::insert">
<polygon fill="white" stroke="black" points="135,-376.5 135,-395.5 243,-395.5 243,-376.5 135,-376.5"/>
<text text-anchor="middle" x="189" y="-383.5" font-family="Helvetica,sans-Serif" font-size="10.00">wlp::tree_map::insert</text>
</a>
</g>
</g>
<!-- Node1&#45;&gt;Node2 -->
<g id="edge1" class="edge"><title>Node1&#45;&gt;Node2</title>
<path fill="none" stroke="midnightblue" d="M48.3825,-211.85C55.6043,-248.084 75.9615,-325.065 124,-367 128.453,-370.887 133.672,-373.98 139.175,-376.44"/>
<polygon fill="midnightblue" stroke="midnightblue" points="51.7486,-210.806 46.4809,-201.613 44.8663,-212.084 51.7486,-210.806"/>
</g>
<!-- Node3 -->
<g id="node3" class="node"><title>Node3</title>
<g id="a_node3"><a xlink:href="../../dd/d65/classwlp_1_1hash__map.html#a2fb0feea7e1b9ec199993392fdc1f2f0" target="_top" xlink:title="wlp::hash_map::insert">
<polygon fill="white" stroke="black" points="132.5,-338.5 132.5,-357.5 245.5,-357.5 245.5,-338.5 132.5,-338.5"/>
<text text-anchor="middle" x="189" y="-345.5" font-family="Helvetica,sans-Serif" font-size="10.00">wlp::hash_map::insert</text>
</a>
</g>
</g>
<!-- Node1&#45;&gt;Node3 -->
<g id="edge2" class="edge"><title>Node1&#45;&gt;Node3</title>
<path fill="none" stroke="midnightblue" d="M50.9091,-211.245C61.0179,-240.95 84.4591,-297.792 124,-329 128.913,-332.878 134.601,-335.965 140.518,-338.422"/>
<polygon fill="midnightblue" stroke="midnightblue" points="54.2026,-210.055 47.7828,-201.627 47.5455,-212.219 54.2026,-210.055"/>
</g>
<!-- Node4 -->
<g id="node4" class="node"><title>Node4</title>
<g id="a_node4"><a xlink:href="../../d4/d93/classwlp_1_1open__map.html#ac952ce051fce2074c979360753a6f8d2" target="_top" xlink:title="wlp::open_map::insert">
<polygon fill="white" stroke="black" points="132.5,-300.5 132.5,-319.5 245.5,-319.5 245.5,-300.5 132.5,-300.5"/>
<text text-anchor="middle" x="189" y="-307.5" font-family="Helvetica,sans-Serif" font-size="10.00">wlp::open_map::insert</text>
</a>
</g>
</g>
<!-- Node1&#45;&gt;Node4 -->
<g id="edge3" class="edge"><title>Node1&#45;&gt;Node4</title>
<path fill="none" stroke="midnightblue" d="M55.1883,-210.386C68.3141,-232.425 93.1551,-269.006 124,-290 130.351,-294.323 137.682,-297.746 145.064,-300.446"/>
<polygon fill="midnightblue" stroke="midnightblue" points="58.1793,-208.566 50.1493,-201.655 52.1165,-212.065 58.1793,-208.566"/>
</g>
<!-- Node5 -->
<g id="node5" class="node"><title>Node5</title>
<g id="a_node5"><a xlink:href="../../d8/de4/classwlp_1_1tree__map.html#a878fde8730d94d884d2cfaa8a97e816c" target="_top" xlink:title="wlp::tree_map::insert\l_or_assign">
<polygon fill="white" stroke="black" points="135,-251 135,-281 243,-281 243,-251 135,-251"/>
<text text-anchor="start" x="143" y="-269" font-family="Helvetica,sans-Serif" font-size="10.00">wlp::tree_map::insert</text>
<text text-anchor="middle" x="189" y="-258" font-family="Helvetica,sans-Serif" font-size="10.00">_or_assign</text>
</a>
</g>
</g>
<!-- Node1&#45;&gt;Node5 -->
<g id="edge4" class="edge"><title>Node1&#45;&gt;Node5</title>
<path fill="none" stroke="midnightblue" d="M67.2077,-207.3C82.702,-217.59 104.091,-231.042 124,-241 131.041,-244.522 138.706,-247.889 146.204,-250.948"/>
<polygon fill="midnightblue" stroke="midnightblue" points="69.0723,-204.336 58.8218,-201.657 65.1643,-210.144 69.0723,-204.336"/>
</g>
<!-- Node6 -->
<g id="node6" class="node"><title>Node6</title>
<g id="a_node6"><a xlink:href="../../dd/d65/classwlp_1_1hash__map.html#af618638c0887e28d80cef87684f89a51" target="_top" xlink:title="wlp::hash_map::insert\l_or_assign">
<polygon fill="white" stroke="black" points="132.5,-202 132.5,-232 245.5,-232 245.5,-202 132.5,-202"/>
<text text-anchor="start" x="140.5" y="-220" font-family="Helvetica,sans-Serif" font-size="10.00">wlp::hash_map::insert</text>
<text text-anchor="middle" x="189" y="-209" font-family="Helvetica,sans-Serif" font-size="10.00">_or_assign</text>
</a>
</g>
</g>
<!-- Node1&#45;&gt;Node6 -->
<g id="edge5" class="edge"><title>Node1&#45;&gt;Node6</title>
<path fill="none" stroke="midnightblue" d="M98.3059,-201.319C109.439,-203.266 121.203,-205.322 132.416,-207.282"/>
<polygon fill="midnightblue" stroke="midnightblue" points="98.7462,-197.843 88.2928,-199.569 97.5406,-204.739 98.7462,-197.843"/>
</g>
<!-- Node7 -->
<g id="node7" class="node"><title>Node7</title>
<g id="a_node7"><a xlink:href="../../d4/d93/classwlp_1_1open__map.html#abd7e5ee935ca2cb9981ba7f14687bebc" target="_top" xlink:title="wlp::open_map::insert\l_or_assign">
<polygon fill="white" stroke="black" points="132.5,-153 132.5,-183 245.5,-183 245.5,-153 132.5,-153"/>
<text text-anchor="start" x="140.5" y="-171" font-family="Helvetica,sans-Serif" font-size="10.00">wlp::open_map::insert</text>
<text text-anchor="middle" x="189" y="-160" font-family="Helvetica,sans-Serif" font-size="10.00">_or_assign</text>
</a>
</g>
</g>
<!-- Node1&#45;&gt;Node7 -->
<g id="edge6" class="edge"><title>Node1&#45;&gt;Node7</title>
<path fill="none" stroke="midnightblue" d="M98.3059,-183.054C109.439,-181.185 121.203,-179.211 132.416,-177.329"/>
<polygon fill="midnightblue" stroke="midnightblue" points="97.5755,-179.627 88.2928,-184.734 98.7342,-186.531 97.5755,-179.627"/>
</g>
<!-- Node8 -->
<g id="node8" class="node"><title>Node8</title>
<g id="a_node8"><a xlink:href="../../d8/de4/classwlp_1_1tree__map.html#a5bdcaf44e485723d058e5ac523f91df1" target="_top" xlink:title="wlp::tree_map::operator[]">
<polygon fill="white" stroke="black" points="126.5,-114.5 126.5,-133.5 251.5,-133.5 251.5,-114.5 126.5,-114.5"/>
<text text-anchor="middle" x="189" y="-121.5" font-family="Helvetica,sans-Serif" font-size="10.00">wlp::tree_map::operator[]</text>
</a>
</g>
</g>
<!-- Node1&#45;&gt;Node8 -->
<g id="edge7" class="edge"><title>Node1&#45;&gt;Node8</title>
<path fill="none" stroke="midnightblue" d="M66.7607,-176.79C82.2011,-166.503 103.706,-153.171 124,-144 132.805,-140.021 142.628,-136.52 151.883,-133.605"/>
<polygon fill="midnightblue" stroke="midnightblue" points="64.7386,-173.933 58.4254,-182.441 68.6666,-179.727 64.7386,-173.933"/>
</g>
<!-- Node9 -->
<g id="node9" class="node"><title>Node9</title>
<g id="a_node9"><a xlink:href="../../dd/d65/classwlp_1_1hash__map.html#a618f3aa8b9cd4924208e91031720f788" target="_top" xlink:title="wlp::hash_map::operator[]">
<polygon fill="white" stroke="black" points="124,-76.5 124,-95.5 254,-95.5 254,-76.5 124,-76.5"/>
<text text-anchor="middle" x="189" y="-83.5" font-family="Helvetica,sans-Serif" font-size="10.00">wlp::hash_map::operator[]</text>
</a>
</g>
</g>
<!-- Node1&#45;&gt;Node9 -->
<g id="edge8" class="edge"><title>Node1&#45;&gt;Node9</title>
<path fill="none" stroke="midnightblue" d="M56.8571,-173.895C70.695,-154.158 95.3681,-122.993 124,-105 130.084,-101.176 136.975,-98.0903 143.926,-95.609"/>
<polygon fill="midnightblue" stroke="midnightblue" points="53.8594,-172.078 51.1251,-182.314 59.6458,-176.018 53.8594,-172.078"/>
</g>
<!-- Node10 -->
<g id="node10" class="node"><title>Node10</title>
<g id="a_node10"><a xlink:href="../../d4/d93/classwlp_1_1open__map.html#a8b186d9f5d42302f6cd457bb0133b6b6" target="_top" xlink:title="wlp::open_map::operator[]">
<polygon fill="white" stroke="black" points="124,-38.5 124,-57.5 254,-57.5 254,-38.5 124,-38.5"/>
<text text-anchor="middle" x="189" y="-45.5" font-family="Helvetica,sans-Serif" font-size="10.00">wlp::open_map::operator[]</text>
</a>
</g>
</g>
<!-- Node1&#45;&gt;Node10 -->
<g id="edge9" class="edge"><title>Node1&#45;&gt;Node10</title>
<path fill="none" stroke="midnightblue" d="M52.1577,-172.501C63.2777,-144.914 87.3155,-94.7654 124,-67 129.083,-63.1529 134.936,-60.0818 140.993,-57.6309"/>
<polygon fill="midnightblue" stroke="midnightblue" points="48.7538,-171.6 48.413,-182.189 55.283,-174.124 48.7538,-171.6"/>
</g>
<!-- Node11 -->
<g id="node11" class="node"><title>Node11</title>
<g id="a_node11"><a xlink:href="../../d5/dca/namespacewlp.html#a8c481d042f76dc12ace837ada06ed04b" target="_top" xlink:title="wlp::tuple_cat_pair_sub">
<polygon fill="white" stroke="black" points="129.5,-0.5 129.5,-19.5 248.5,-19.5 248.5,-0.5 129.5,-0.5"/>
<text text-anchor="middle" x="189" y="-7.5" font-family="Helvetica,sans-Serif" font-size="10.00">wlp::tuple_cat_pair_sub</text>
</a>
</g>
</g>
<!-- Node1&#45;&gt;Node11 -->
<g id="edge10" class="edge"><title>Node1&#45;&gt;Node11</title>
<path fill="none" stroke="midnightblue" d="M49.1344,-172.076C57.3015,-137.738 78.7753,-67.4057 124,-29 128.594,-25.0987 133.962,-21.9984 139.601,-19.5346"/>
<polygon fill="midnightblue" stroke="midnightblue" points="45.6275,-171.72 46.8597,-182.243 52.4586,-173.249 45.6275,-171.72"/>
</g>
<!-- Node12 -->
<g id="node12" class="node"><title>Node12</title>
<g id="a_node12"><a xlink:href="../../d5/dca/namespacewlp.html#a447cceb8493717b7192963b2266d1553" target="_top" xlink:title="wlp::tuple_cat_pair">
<polygon fill="white" stroke="black" points="290,-0.5 290,-19.5 388,-19.5 388,-0.5 290,-0.5"/>
<text text-anchor="middle" x="339" y="-7.5" font-family="Helvetica,sans-Serif" font-size="10.00">wlp::tuple_cat_pair</text>
</a>
</g>
</g>
<!-- Node11&#45;&gt;Node12 -->
<g id="edge11" class="edge"><title>Node11&#45;&gt;Node12</title>
<path fill="none" stroke="midnightblue" d="M259.178,-10C269.508,-10 279.965,-10 289.738,-10"/>
<polygon fill="midnightblue" stroke="midnightblue" points="258.919,-6.5001 248.919,-10 258.919,-13.5001 258.919,-6.5001"/>
</g>
<!-- Node13 -->
<g id="node13" class="node"><title>Node13</title>
<g id="a_node13"><a xlink:href="../../d5/dca/namespacewlp.html#afdd2db039584f8a0aafea650ffa9299b" target="_top" xlink:title="wlp::tuple_cat">
<polygon fill="white" stroke="black" points="424.5,-0.5 424.5,-19.5 501.5,-19.5 501.5,-0.5 424.5,-0.5"/>
<text text-anchor="middle" x="463" y="-7.5" font-family="Helvetica,sans-Serif" font-size="10.00">wlp::tuple_cat</text>
</a>
</g>
</g>
<!-- Node12&#45;&gt;Node13 -->
<g id="edge12" class="edge"><title>Node12&#45;&gt;Node13</title>
<path fill="none" stroke="midnightblue" d="M398.453,-10C407.237,-10 416.091,-10 424.286,-10"/>
<polygon fill="midnightblue" stroke="midnightblue" points="398.218,-6.5001 388.218,-10 398.218,-13.5001 398.218,-6.5001"/>
</g>
</g>
</svg>
        <g id="navigator" transform="translate(0 0)" fill="#404254">
                <rect fill="#f2f5e9" fill-opacity="0.5" stroke="#606060" stroke-width=".5" x="0" y="0" width="60" height="60"/>
                <use id="zoomplus" xlink:href="#zoomPlus" x="17" y="9" onmousedown="handleZoom(evt,'in')"/>
                <use id="zoomminus" xlink:href="#zoomMin" x="42" y="9" onmousedown="handleZoom(evt,'out')"/>
                <use id="reset" xlink:href="#resetDef" x="30" y="36" onmousedown="handleReset()"/>
                <g id="arrowUp" xlink:href="#dirArrow" transform="translate(30 24)" onmousedown="handlePan(0,-1)">
                  <use xlink:href="#rim" fill="#404040">
                        <set attributeName="fill" to="#808080" begin="arrowUp.mouseover" end="arrowUp.mouseout"/>
                  </use>
                  <path fill="none" stroke="white" stroke-width="1.5" d="M0,-3.0v7 M-2.5,-0.5L0,-3.0L2.5,-0.5"/>
                </g>
                <g id="arrowRight" xlink:href="#dirArrow" transform="rotate(90) translate(36 -43)" onmousedown="handlePan(1,0)">
                  <use xlink:href="#rim" fill="#404040">
                        <set attributeName="fill" to="#808080" begin="arrowRight.mouseover" end="arrowRight.mouseout"/>
                  </use>
                  <path fill="none" stroke="white" stroke-width="1.5" d="M0,-3.0v7 M-2.5,-0.5L0,-3.0L2.5,-0.5"/>
                </g>
                <g id="arrowDown" xlink:href="#dirArrow" transform="rotate(180) translate(-30 -48)" onmousedown="handlePan(0,1)">
                  <use xlink:href="#rim" fill="#404040">
                        <set attributeName="fill" to="#808080" begin="arrowDown.mouseover" end="arrowDown.mouseout"/>
                  </use>
                  <path fill="none" stroke="white" stroke-width="1.5" d="M0,-3.0v7 M-2.5,-0.5L0,-3.0L2.5,-0.5"/>
                </g>
                <g id="arrowLeft" xlink:href="#dirArrow" transform="rotate(270) translate(-36 17)" onmousedown="handlePan(-1,0)">
                  <use xlink:href="#rim" fill="#404040">
                        <set attributeName="fill" to="#808080" begin="arrowLeft.mouseover" end="arrowLeft.mouseout"/>
                  </use>
                  <path fill="none" stroke="white" stroke-width="1.5" d="M0,-3.0v7 M-2.5,-0.5L0,-3.0L2.5,-0.5"/>
                </g>
        </g>
        <svg viewBox="0 0 15 15" width="100%" height="30px" preserveAspectRatio="xMaxYMin meet">
         <g id="arrow_out" transform="scale(0.3 0.3)">
          <a xlink:href="namespacewlp_a8eaea6f842c348064997526348b90eeb_icgraph_org.svg" target="_base">
           <rect id="button" ry="5" rx="5" y="6" x="6" height="38" width="38"
                fill="#f2f5e9" fill-opacity="0.5" stroke="#606060" stroke-width="1.0"/>
           <path id="arrow"
             d="M 11.500037,31.436501 C 11.940474,20.09759 22.043105,11.32322 32.158766,21.979434 L 37.068811,17.246167 C 37.068811,17.246167 37.088388,32 37.088388,32 L 22.160133,31.978069 C 22.160133,31.978069 26.997745,27.140456 26.997745,27.140456 C 18.528582,18.264221 13.291696,25.230495 11.500037,31.436501 z"
             style="fill:#404040;"/>
          </a>
         </g>
        </svg>
</svg>
