<?xml version="1.0" encoding="UTF-8" standalone="no"?>
<!DOCTYPE svg PUBLIC "-//W3C//DTD SVG 1.1//EN"
 "http://www.w3.org/Graphics/SVG/1.1/DTD/svg11.dtd">
<!-- Generated by graphviz version 2.38.0 (20140413.2041)
 -->
<!-- Title: wlp::sort_heap Pages: 1 -->
<!--zoomable 28 -->
<svg id="main" version="1.1" xmlns="http://www.w3.org/2000/svg" xmlns:xlink="http://www.w3.org/1999/xlink" xml:space="preserve" onload="init(evt)">
<style type="text/css"><![CDATA[
.edge:hover path { stroke: red; }
.edge:hover polygon { stroke: red; fill: red; }
]]></style>
<script type="text/javascript"><![CDATA[
var edges = document.getElementsByTagName('g');
if (edges && edges.length) {
  for (var i=0;i<edges.length;i++) {
    if (edges[i].id.substr(0,4)=='edge') {
      edges[i].setAttribute('class','edge');
    }
  }
}
]]></script>
        <defs>
                <circle id="rim" cx="0" cy="0" r="7"/>
                <circle id="rim2" cx="0" cy="0" r="3.5"/>
                <g id="zoomPlus">
                        <use xlink:href="#rim" fill="#404040">
                                <set attributeName="fill" to="#808080" begin="zoomplus.mouseover" end="zoomplus.mouseout"/>
                        </use>
                        <path d="M-4,0h8M0,-4v8" fill="none" stroke="white" stroke-width="1.5" pointer-events="none"/>
                </g>
                <g id="zoomMin">
                        <use xlink:href="#rim" fill="#404040">
                                <set attributeName="fill" to="#808080" begin="zoomminus.mouseover" end="zoomminus.mouseout"/>
                        </use>
                        <path d="M-4,0h8" fill="none" stroke="white" stroke-width="1.5" pointer-events="none"/>
                </g>
                <g id="dirArrow">
                        <path fill="none" stroke="white" stroke-width="1.5" d="M0,-3.0v7 M-2.5,-0.5L0,-3.0L2.5,-0.5"/>
                </g>
               <g id="resetDef">
                       <use xlink:href="#rim2" fill="#404040">
                               <set attributeName="fill" to="#808080" begin="reset.mouseover" end="reset.mouseout"/>
                       </use>
               </g>
        </defs>

<script type="text/javascript">
var viewWidth = 595;
var viewHeight = 28;
var sectionId = 'dynsection-58';
</script>
<script xlink:href="../../svgpan.js"/>
<svg id="graph" class="graph">
<g id="viewport">
<title>wlp::sort_heap</title>
<polygon fill="white" stroke="none" points="-4,4 -4,-24 591,-24 591,4 -4,4"/>
<!-- Node292 -->
<g id="node1" class="node"><title>Node292</title>
<polygon fill="#bfbfbf" stroke="black" points="0,-0.5 0,-19.5 80,-19.5 80,-0.5 0,-0.5"/>
<text text-anchor="middle" x="40" y="-7.5" font-family="Helvetica,sans-Serif" font-size="10.00">wlp::sort_heap</text>
</g>
<!-- Node293 -->
<g id="node2" class="node"><title>Node293</title>
<g id="a_node2"><a xlink:href="../../d5/dca/namespacewlp.html#aedb76bc9547f573d794889862528d16e" target="_top" xlink:title="wlp::pop_heap">
<polygon fill="white" stroke="black" points="116,-0.5 116,-19.5 195,-19.5 195,-0.5 116,-0.5"/>
<text text-anchor="middle" x="155.5" y="-7.5" font-family="Helvetica,sans-Serif" font-size="10.00">wlp::pop_heap</text>
</a>
</g>
</g>
<!-- Node292&#45;&gt;Node293 -->
<g id="edge1" class="edge"><title>Node292&#45;&gt;Node293</title>
<path fill="none" stroke="midnightblue" d="M80.0603,-10C88.2661,-10 97.0203,-10 105.536,-10"/>
<polygon fill="midnightblue" stroke="midnightblue" points="105.752,-13.5001 115.752,-10 105.752,-6.5001 105.752,-13.5001"/>
</g>
<!-- Node294 -->
<g id="node3" class="node"><title>Node294</title>
<g id="a_node3"><a xlink:href="../../d5/dca/namespacewlp.html#a8e7c749cafcbbe652b4f0672b7565f5b" target="_top" xlink:title="wlp::__pop_heap">
<polygon fill="white" stroke="black" points="231,-0.5 231,-19.5 320,-19.5 320,-0.5 231,-0.5"/>
<text text-anchor="middle" x="275.5" y="-7.5" font-family="Helvetica,sans-Serif" font-size="10.00">wlp::__pop_heap</text>
</a>
</g>
</g>
<!-- Node293&#45;&gt;Node294 -->
<g id="edge2" class="edge"><title>Node293&#45;&gt;Node294</title>
<path fill="none" stroke="midnightblue" d="M195.138,-10C203.35,-10 212.163,-10 220.822,-10"/>
<polygon fill="midnightblue" stroke="midnightblue" points="220.87,-13.5001 230.87,-10 220.87,-6.5001 220.87,-13.5001"/>
</g>
<!-- Node295 -->
<g id="node4" class="node"><title>Node295</title>
<g id="a_node4"><a xlink:href="../../d5/dca/namespacewlp.html#a4d2da3668dcec610a030107c3903d2df" target="_top" xlink:title="wlp::__adjust_heap">
<polygon fill="white" stroke="black" points="356,-0.5 356,-19.5 456,-19.5 456,-0.5 356,-0.5"/>
<text text-anchor="middle" x="406" y="-7.5" font-family="Helvetica,sans-Serif" font-size="10.00">wlp::__adjust_heap</text>
</a>
</g>
</g>
<!-- Node294&#45;&gt;Node295 -->
<g id="edge3" class="edge"><title>Node294&#45;&gt;Node295</title>
<path fill="none" stroke="midnightblue" d="M320.004,-10C328.273,-10 337.055,-10 345.716,-10"/>
<polygon fill="midnightblue" stroke="midnightblue" points="345.789,-13.5001 355.789,-10 345.789,-6.5001 345.789,-13.5001"/>
</g>
<!-- Node296 -->
<g id="node5" class="node"><title>Node296</title>
<g id="a_node5"><a xlink:href="../../d5/dca/namespacewlp.html#a903253da340cffc0160b9887f2b80b8c" target="_top" xlink:title="wlp::__push_heap">
<polygon fill="white" stroke="black" points="492,-0.5 492,-19.5 587,-19.5 587,-0.5 492,-0.5"/>
<text text-anchor="middle" x="539.5" y="-7.5" font-family="Helvetica,sans-Serif" font-size="10.00">wlp::__push_heap</text>
</a>
</g>
</g>
<!-- Node295&#45;&gt;Node296 -->
<g id="edge4" class="edge"><title>Node295&#45;&gt;Node296</title>
<path fill="none" stroke="midnightblue" d="M456.34,-10C464.63,-10 473.291,-10 481.751,-10"/>
<polygon fill="midnightblue" stroke="midnightblue" points="481.93,-13.5001 491.93,-10 481.93,-6.5001 481.93,-13.5001"/>
</g>
</g>
</svg>
        <g id="navigator" transform="translate(0 0)" fill="#404254">
                <rect fill="#f2f5e9" fill-opacity="0.5" stroke="#606060" stroke-width=".5" x="0" y="0" width="60" height="60"/>
                <use id="zoomplus" xlink:href="#zoomPlus" x="17" y="9" onmousedown="handleZoom(evt,'in')"/>
                <use id="zoomminus" xlink:href="#zoomMin" x="42" y="9" onmousedown="handleZoom(evt,'out')"/>
                <use id="reset" xlink:href="#resetDef" x="30" y="36" onmousedown="handleReset()"/>
                <g id="arrowUp" xlink:href="#dirArrow" transform="translate(30 24)" onmousedown="handlePan(0,-1)">
                  <use xlink:href="#rim" fill="#404040">
                        <set attributeName="fill" to="#808080" begin="arrowUp.mouseover" end="arrowUp.mouseout"/>
                  </use>
                  <path fill="none" stroke="white" stroke-width="1.5" d="M0,-3.0v7 M-2.5,-0.5L0,-3.0L2.5,-0.5"/>
                </g>
                <g id="arrowRight" xlink:href="#dirArrow" transform="rotate(90) translate(36 -43)" onmousedown="handlePan(1,0)">
                  <use xlink:href="#rim" fill="#404040">
                        <set attributeName="fill" to="#808080" begin="arrowRight.mouseover" end="arrowRight.mouseout"/>
                  </use>
                  <path fill="none" stroke="white" stroke-width="1.5" d="M0,-3.0v7 M-2.5,-0.5L0,-3.0L2.5,-0.5"/>
                </g>
                <g id="arrowDown" xlink:href="#dirArrow" transform="rotate(180) translate(-30 -48)" onmousedown="handlePan(0,1)">
                  <use xlink:href="#rim" fill="#404040">
                        <set attributeName="fill" to="#808080" begin="arrowDown.mouseover" end="arrowDown.mouseout"/>
                  </use>
                  <path fill="none" stroke="white" stroke-width="1.5" d="M0,-3.0v7 M-2.5,-0.5L0,-3.0L2.5,-0.5"/>
                </g>
                <g id="arrowLeft" xlink:href="#dirArrow" transform="rotate(270) translate(-36 17)" onmousedown="handlePan(-1,0)">
                  <use xlink:href="#rim" fill="#404040">
                        <set attributeName="fill" to="#808080" begin="arrowLeft.mouseover" end="arrowLeft.mouseout"/>
                  </use>
                  <path fill="none" stroke="white" stroke-width="1.5" d="M0,-3.0v7 M-2.5,-0.5L0,-3.0L2.5,-0.5"/>
                </g>
        </g>
        <svg viewBox="0 0 15 15" width="100%" height="30px" preserveAspectRatio="xMaxYMin meet">
         <g id="arrow_out" transform="scale(0.3 0.3)">
          <a xlink:href="namespacewlp_a664313ed82edafa1cf6c2e9c1c75378a_cgraph_org.svg" target="_base">
           <rect id="button" ry="5" rx="5" y="6" x="6" height="38" width="38"
                fill="#f2f5e9" fill-opacity="0.5" stroke="#606060" stroke-width="1.0"/>
           <path id="arrow"
             d="M 11.500037,31.436501 C 11.940474,20.09759 22.043105,11.32322 32.158766,21.979434 L 37.068811,17.246167 C 37.068811,17.246167 37.088388,32 37.088388,32 L 22.160133,31.978069 C 22.160133,31.978069 26.997745,27.140456 26.997745,27.140456 C 18.528582,18.264221 13.291696,25.230495 11.500037,31.436501 z"
             style="fill:#404040;"/>
          </a>
         </g>
        </svg>
</svg>
