<?xml version="1.0" encoding="UTF-8" standalone="no"?>
<!DOCTYPE svg PUBLIC "-//W3C//DTD SVG 1.1//EN"
 "http://www.w3.org/Graphics/SVG/1.1/DTD/svg11.dtd">
<!-- Generated by graphviz version 2.36.0 (20140111.2315)
 -->
<!-- Title: wlp::move Pages: 1 -->
<!--zoomable 704 -->
<svg id="main" version="1.1" xmlns="http://www.w3.org/2000/svg" xmlns:xlink="http://www.w3.org/1999/xlink" xml:space="preserve" onload="init(evt)">
<style type="text/css"><![CDATA[
.edge:hover path { stroke: red; }
.edge:hover polygon { stroke: red; fill: red; }
]]></style>
<script type="text/javascript"><![CDATA[
var edges = document.getElementsByTagName('g');
if (edges && edges.length) {
  for (var i=0;i<edges.length;i++) {
    if (edges[i].id.substr(0,4)=='edge') {
      edges[i].setAttribute('class','edge');
    }
  }
}
]]></script>
        <defs>
                <circle id="rim" cx="0" cy="0" r="7"/>
                <circle id="rim2" cx="0" cy="0" r="3.5"/>
                <g id="zoomPlus">
                        <use xlink:href="#rim" fill="#404040">
                                <set attributeName="fill" to="#808080" begin="zoomplus.mouseover" end="zoomplus.mouseout"/>
                        </use>
                        <path d="M-4,0h8M0,-4v8" fill="none" stroke="white" stroke-width="1.5" pointer-events="none"/>
                </g>
                <g id="zoomMin">
                        <use xlink:href="#rim" fill="#404040">
                                <set attributeName="fill" to="#808080" begin="zoomminus.mouseover" end="zoomminus.mouseout"/>
                        </use>
                        <path d="M-4,0h8" fill="none" stroke="white" stroke-width="1.5" pointer-events="none"/>
                </g>
                <g id="dirArrow">
                        <path fill="none" stroke="white" stroke-width="1.5" d="M0,-3.0v7 M-2.5,-0.5L0,-3.0L2.5,-0.5"/>
                </g>
               <g id="resetDef">
                       <use xlink:href="#rim2" fill="#404040">
                               <set attributeName="fill" to="#808080" begin="reset.mouseover" end="reset.mouseout"/>
                       </use>
               </g>
        </defs>

<script type="text/javascript">
var viewWidth = 264;
var viewHeight = 704;
var sectionId = 'dynsection-30';
</script>
<script xlink:href="../../svgpan.js"/>
<svg id="graph" class="graph">
<g id="viewport">
<title>wlp::move</title>
<polygon fill="white" stroke="none" points="-4,4 -4,-700 260,-700 260,4 -4,4"/>
<!-- Node1 -->
<g id="node1" class="node"><title>Node1</title>
<polygon fill="#bfbfbf" stroke="black" points="0,-360.5 0,-379.5 62,-379.5 62,-360.5 0,-360.5"/>
<text text-anchor="middle" x="31" y="-367.5" font-family="Helvetica,sans-Serif" font-size="10.00">wlp::move</text>
</g>
<!-- Node2 -->
<g id="node2" class="node"><title>Node2</title>
<g id="a_node2"><a xlink:href="../../d9/d22/classwlp_1_1array2d.html#ac55e8a700586d2a66ddfc73fb8949ba4" target="_top" xlink:title="wlp::array2d::array2d">
<polygon fill="white" stroke="black" points="123,-676.5 123,-695.5 231,-695.5 231,-676.5 123,-676.5"/>
<text text-anchor="middle" x="177" y="-683.5" font-family="Helvetica,sans-Serif" font-size="10.00">wlp::array2d::array2d</text>
</a>
</g>
</g>
<!-- Node1&#45;&gt;Node2 -->
<g id="edge1" class="edge"><title>Node1&#45;&gt;Node2</title>
<path fill="none" stroke="midnightblue" d="M33.7495,-389.804C39.417,-449.483 59.1933,-625.947 98,-666 104.712,-672.928 113.472,-677.574 122.689,-680.665"/>
<polygon fill="midnightblue" stroke="midnightblue" points="37.2296,-389.425 32.8283,-379.788 30.259,-390.067 37.2296,-389.425"/>
</g>
<!-- Node3 -->
<g id="node3" class="node"><title>Node3</title>
<g id="a_node3"><a xlink:href="../../d1/de1/structwlp_1_1_tuple_element.html#a81abc337f5cb042313bf937e86ab44c3" target="_top" xlink:title="wlp::TupleElement\&lt;\l Indices, Types \&gt;::operator=">
<polygon fill="white" stroke="black" points="107,-627 107,-657 247,-657 247,-627 107,-627"/>
<text text-anchor="start" x="115" y="-645" font-family="Helvetica,sans-Serif" font-size="10.00">wlp::TupleElement&lt;</text>
<text text-anchor="middle" x="177" y="-634" font-family="Helvetica,sans-Serif" font-size="10.00"> Indices, Types &gt;::operator=</text>
</a>
</g>
</g>
<!-- Node1&#45;&gt;Node3 -->
<g id="edge2" class="edge"><title>Node1&#45;&gt;Node3</title>
<path fill="none" stroke="midnightblue" d="M31.3175,-389.741C30.8303,-435.944 36.208,-552.1 98,-617 101.628,-620.811 105.837,-624.042 110.382,-626.782"/>
<polygon fill="midnightblue" stroke="midnightblue" points="34.8203,-389.649 31.537,-379.576 27.8219,-389.498 34.8203,-389.649"/>
</g>
<!-- Node4 -->
<g id="node4" class="node"><title>Node4</title>
<g id="a_node4"><a xlink:href="../../d9/ded/classwlp_1_1tree__set.html#a505fbe091a6cde266ecd0fa74dde5bb9" target="_top" xlink:title="wlp::tree_set::operator=">
<polygon fill="white" stroke="black" points="117,-588.5 117,-607.5 237,-607.5 237,-588.5 117,-588.5"/>
<text text-anchor="middle" x="177" y="-595.5" font-family="Helvetica,sans-Serif" font-size="10.00">wlp::tree_set::operator=</text>
</a>
</g>
</g>
<!-- Node1&#45;&gt;Node4 -->
<g id="edge3" class="edge"><title>Node1&#45;&gt;Node4</title>
<path fill="none" stroke="midnightblue" d="M32.167,-389.751C33.638,-431.207 43.1293,-527.685 98,-579 103.395,-584.046 109.9,-587.816 116.823,-590.624"/>
<polygon fill="midnightblue" stroke="midnightblue" points="35.6627,-389.518 31.9338,-379.601 28.6645,-389.679 35.6627,-389.518"/>
</g>
<!-- Node5 -->
<g id="node5" class="node"><title>Node5</title>
<g id="a_node5"><a xlink:href="../../d6/de4/classwlp_1_1hash__set.html#a100bdc9562a0d76ba8e34184464c4b3f" target="_top" xlink:title="wlp::hash_set::operator=">
<polygon fill="white" stroke="black" points="114.5,-550.5 114.5,-569.5 239.5,-569.5 239.5,-550.5 114.5,-550.5"/>
<text text-anchor="middle" x="177" y="-557.5" font-family="Helvetica,sans-Serif" font-size="10.00">wlp::hash_set::operator=</text>
</a>
</g>
</g>
<!-- Node1&#45;&gt;Node5 -->
<g id="edge4" class="edge"><title>Node1&#45;&gt;Node5</title>
<path fill="none" stroke="midnightblue" d="M33.813,-390.058C38.1611,-425.922 52.4777,-501.018 98,-541 102.817,-545.231 108.422,-548.555 114.375,-551.161"/>
<polygon fill="midnightblue" stroke="midnightblue" points="37.2688,-389.457 32.7246,-379.886 30.3085,-390.202 37.2688,-389.457"/>
</g>
<!-- Node6 -->
<g id="node6" class="node"><title>Node6</title>
<g id="a_node6"><a xlink:href="../../dd/d6b/classwlp_1_1open__set.html#af697df229c7614855dc864bcd696c083" target="_top" xlink:title="wlp::open_set::operator=">
<polygon fill="white" stroke="black" points="114.5,-512.5 114.5,-531.5 239.5,-531.5 239.5,-512.5 114.5,-512.5"/>
<text text-anchor="middle" x="177" y="-519.5" font-family="Helvetica,sans-Serif" font-size="10.00">wlp::open_set::operator=</text>
</a>
</g>
</g>
<!-- Node1&#45;&gt;Node6 -->
<g id="edge5" class="edge"><title>Node1&#45;&gt;Node6</title>
<path fill="none" stroke="midnightblue" d="M36.1984,-389.677C43.5031,-418.973 61.4054,-473.736 98,-503 102.898,-506.917 108.485,-510.044 114.366,-512.538"/>
<polygon fill="midnightblue" stroke="midnightblue" points="39.5761,-388.75 33.9008,-379.803 32.7582,-390.336 39.5761,-388.75"/>
</g>
<!-- Node7 -->
<g id="node7" class="node"><title>Node7</title>
<g id="a_node7"><a xlink:href="../../d8/de4/classwlp_1_1tree__map.html#aa8c619953eca4ddc6b62bb0937a3c96d" target="_top" xlink:title="wlp::tree_map::operator=">
<polygon fill="white" stroke="black" points="114.5,-474.5 114.5,-493.5 239.5,-493.5 239.5,-474.5 114.5,-474.5"/>
<text text-anchor="middle" x="177" y="-481.5" font-family="Helvetica,sans-Serif" font-size="10.00">wlp::tree_map::operator=</text>
</a>
</g>
</g>
<!-- Node1&#45;&gt;Node7 -->
<g id="edge6" class="edge"><title>Node1&#45;&gt;Node7</title>
<path fill="none" stroke="midnightblue" d="M39.9529,-388.728C50.1666,-410.464 69.9791,-445.777 98,-465 103.632,-468.863 109.965,-471.944 116.525,-474.4"/>
<polygon fill="midnightblue" stroke="midnightblue" points="43.1168,-387.229 35.828,-379.54 36.7308,-390.096 43.1168,-387.229"/>
</g>
<!-- Node8 -->
<g id="node8" class="node"><title>Node8</title>
<g id="a_node8"><a xlink:href="../../dd/d65/classwlp_1_1hash__map.html#a1fbfcdd00e926b934399193968037253" target="_top" xlink:title="wlp::hash_map::operator=">
<polygon fill="white" stroke="black" points="112,-436.5 112,-455.5 242,-455.5 242,-436.5 112,-436.5"/>
<text text-anchor="middle" x="177" y="-443.5" font-family="Helvetica,sans-Serif" font-size="10.00">wlp::hash_map::operator=</text>
</a>
</g>
</g>
<!-- Node1&#45;&gt;Node8 -->
<g id="edge7" class="edge"><title>Node1&#45;&gt;Node8</title>
<path fill="none" stroke="midnightblue" d="M47.2645,-386.987C59.7097,-399.82 78.3829,-416.895 98,-427 105.558,-430.893 113.943,-434.01 122.332,-436.499"/>
<polygon fill="midnightblue" stroke="midnightblue" points="49.7653,-384.538 40.3676,-379.645 44.6633,-389.33 49.7653,-384.538"/>
</g>
<!-- Node9 -->
<g id="node9" class="node"><title>Node9</title>
<g id="a_node9"><a xlink:href="../../d4/d93/classwlp_1_1open__map.html#a25baf83900fca83c1a4c4c75ef411412" target="_top" xlink:title="wlp::open_map::operator=">
<polygon fill="white" stroke="black" points="112,-398.5 112,-417.5 242,-417.5 242,-398.5 112,-398.5"/>
<text text-anchor="middle" x="177" y="-405.5" font-family="Helvetica,sans-Serif" font-size="10.00">wlp::open_map::operator=</text>
</a>
</g>
</g>
<!-- Node1&#45;&gt;Node9 -->
<g id="edge8" class="edge"><title>Node1&#45;&gt;Node9</title>
<path fill="none" stroke="midnightblue" d="M71.9543,-381.789C80.529,-384.239 89.5514,-386.756 98,-389 110.123,-392.22 123.363,-395.524 135.436,-398.456"/>
<polygon fill="midnightblue" stroke="midnightblue" points="72.7334,-378.372 62.1553,-378.965 70.7948,-385.098 72.7334,-378.372"/>
</g>
<!-- Node10 -->
<g id="node10" class="node"><title>Node10</title>
<g id="a_node10"><a xlink:href="../../de/d5b/classwlp_1_1_____allocator.html#a50836ed4a4e65a7e325fbd98889d5b21" target="_top" xlink:title="wlp::__Allocator::operator=">
<polygon fill="white" stroke="black" points="110,-360.5 110,-379.5 244,-379.5 244,-360.5 110,-360.5"/>
<text text-anchor="middle" x="177" y="-367.5" font-family="Helvetica,sans-Serif" font-size="10.00">wlp::__Allocator::operator=</text>
</a>
</g>
</g>
<!-- Node1&#45;&gt;Node10 -->
<g id="edge9" class="edge"><title>Node1&#45;&gt;Node10</title>
<path fill="none" stroke="midnightblue" d="M72.4675,-370C84.134,-370 97.1769,-370 109.967,-370"/>
<polygon fill="midnightblue" stroke="midnightblue" points="72.1872,-366.5 62.1871,-370 72.1871,-373.5 72.1872,-366.5"/>
</g>
<!-- Node11 -->
<g id="node11" class="node"><title>Node11</title>
<g id="a_node11"><a xlink:href="../../dc/d71/structwlp_1_1_tuple_impl_3_01_index_sequence_3_01_indices_8_8_8_4_00_01_types_8_8_8_4.html#a01f0049066914c14089891481c9fbf86" target="_top" xlink:title="wlp::TupleImpl\&lt; IndexSequence\l\&lt; Indices...\&gt;, Types...\&gt;\l::operator=">
<polygon fill="white" stroke="black" points="98.5,-300.5 98.5,-341.5 255.5,-341.5 255.5,-300.5 98.5,-300.5"/>
<text text-anchor="start" x="106.5" y="-329.5" font-family="Helvetica,sans-Serif" font-size="10.00">wlp::TupleImpl&lt; IndexSequence</text>
<text text-anchor="start" x="106.5" y="-318.5" font-family="Helvetica,sans-Serif" font-size="10.00">&lt; Indices...&gt;, Types...&gt;</text>
<text text-anchor="middle" x="177" y="-307.5" font-family="Helvetica,sans-Serif" font-size="10.00">::operator=</text>
</a>
</g>
</g>
<!-- Node1&#45;&gt;Node11 -->
<g id="edge10" class="edge"><title>Node1&#45;&gt;Node11</title>
<path fill="none" stroke="midnightblue" d="M69.8418,-357.123C83.8118,-352.37 100.015,-346.856 115.491,-341.59"/>
<polygon fill="midnightblue" stroke="midnightblue" points="68.4459,-353.901 60.1065,-360.436 70.7009,-360.528 68.4459,-353.901"/>
</g>
<!-- Node12 -->
<g id="node12" class="node"><title>Node12</title>
<g id="a_node12"><a xlink:href="../../de/dab/classwlp_1_1tuple.html#ac3133971a22ed831403c56feefb5cd7c" target="_top" xlink:title="wlp::tuple::operator=">
<polygon fill="white" stroke="black" points="124,-262.5 124,-281.5 230,-281.5 230,-262.5 124,-262.5"/>
<text text-anchor="middle" x="177" y="-269.5" font-family="Helvetica,sans-Serif" font-size="10.00">wlp::tuple::operator=</text>
</a>
</g>
</g>
<!-- Node1&#45;&gt;Node12 -->
<g id="edge11" class="edge"><title>Node1&#45;&gt;Node12</title>
<path fill="none" stroke="midnightblue" d="M42.7555,-351.198C54.1438,-333.015 73.8061,-306.063 98,-291 105.809,-286.138 114.776,-282.52 123.785,-279.828"/>
<polygon fill="midnightblue" stroke="midnightblue" points="39.4563,-349.893 37.3037,-360.267 45.4557,-353.5 39.4563,-349.893"/>
</g>
<!-- Node13 -->
<g id="node13" class="node"><title>Node13</title>
<g id="a_node13"><a xlink:href="../../da/dbb/classwlp_1_1shared__ptr.html#a274e08432c1d0f01381fdc1629264fa5" target="_top" xlink:title="wlp::shared_ptr::operator=">
<polygon fill="white" stroke="black" points="111.5,-224.5 111.5,-243.5 242.5,-243.5 242.5,-224.5 111.5,-224.5"/>
<text text-anchor="middle" x="177" y="-231.5" font-family="Helvetica,sans-Serif" font-size="10.00">wlp::shared_ptr::operator=</text>
</a>
</g>
</g>
<!-- Node1&#45;&gt;Node13 -->
<g id="edge12" class="edge"><title>Node1&#45;&gt;Node13</title>
<path fill="none" stroke="midnightblue" d="M37.4964,-350.809C46.0223,-324.593 64.9899,-277.994 98,-253 103.111,-249.13 108.904,-246.037 114.969,-243.567"/>
<polygon fill="midnightblue" stroke="midnightblue" points="34.1489,-349.788 34.5576,-360.375 40.8402,-351.843 34.1489,-349.788"/>
</g>
<!-- Node14 -->
<g id="node14" class="node"><title>Node14</title>
<g id="a_node14"><a xlink:href="../../d5/d92/classwlp_1_1array__heap.html#a0bd57048f7a0b84037366d217f76016f" target="_top" xlink:title="wlp::array_heap::operator=">
<polygon fill="white" stroke="black" points="110.5,-186.5 110.5,-205.5 243.5,-205.5 243.5,-186.5 110.5,-186.5"/>
<text text-anchor="middle" x="177" y="-193.5" font-family="Helvetica,sans-Serif" font-size="10.00">wlp::array_heap::operator=</text>
</a>
</g>
</g>
<!-- Node1&#45;&gt;Node14 -->
<g id="edge13" class="edge"><title>Node1&#45;&gt;Node14</title>
<path fill="none" stroke="midnightblue" d="M34.7141,-349.978C40.3092,-316.749 56.3047,-250.376 98,-215 102.57,-211.123 107.805,-208.012 113.354,-205.519"/>
<polygon fill="midnightblue" stroke="midnightblue" points="31.1962,-349.829 33.1437,-360.244 38.1157,-350.888 31.1962,-349.829"/>
</g>
<!-- Node15 -->
<g id="node15" class="node"><title>Node15</title>
<g id="a_node15"><a xlink:href="../../d9/d40/classwlp_1_1tree.html#ac8092e07ff5b9a6cbeb5364b31519fff" target="_top" xlink:title="wlp::tree\&lt; tuple\&lt; Key,\l Val \&gt;, Key, Val, MapGetKey\l\&lt; Key, Val \&gt;, MapGetVal\&lt;\l Key, Val \&gt;, Cmp \&gt;::operator=">
<polygon fill="white" stroke="black" points="102.5,-115 102.5,-167 251.5,-167 251.5,-115 102.5,-115"/>
<text text-anchor="start" x="110.5" y="-155" font-family="Helvetica,sans-Serif" font-size="10.00">wlp::tree&lt; tuple&lt; Key,</text>
<text text-anchor="start" x="110.5" y="-144" font-family="Helvetica,sans-Serif" font-size="10.00"> Val &gt;, Key, Val, MapGetKey</text>
<text text-anchor="start" x="110.5" y="-133" font-family="Helvetica,sans-Serif" font-size="10.00">&lt; Key, Val &gt;, MapGetVal&lt;</text>
<text text-anchor="middle" x="177" y="-122" font-family="Helvetica,sans-Serif" font-size="10.00"> Key, Val &gt;, Cmp &gt;::operator=</text>
</a>
</g>
</g>
<!-- Node1&#45;&gt;Node15 -->
<g id="edge14" class="edge"><title>Node1&#45;&gt;Node15</title>
<path fill="none" stroke="midnightblue" d="M33.7047,-349.926C37.9514,-311.701 52.2147,-227.757 98,-177 101.297,-173.345 105.039,-170.035 109.059,-167.04"/>
<polygon fill="midnightblue" stroke="midnightblue" points="30.1865,-349.938 32.6845,-360.234 37.1525,-350.628 30.1865,-349.938"/>
</g>
<!-- Node16 -->
<g id="node16" class="node"><title>Node16</title>
<g id="a_node16"><a xlink:href="../../d3/dc1/classwlp_1_1array__list.html#adf73d35242abd11dc3b27b3134af0f1f" target="_top" xlink:title="wlp::array_list::operator=">
<polygon fill="white" stroke="black" points="114.5,-76.5 114.5,-95.5 239.5,-95.5 239.5,-76.5 114.5,-76.5"/>
<text text-anchor="middle" x="177" y="-83.5" font-family="Helvetica,sans-Serif" font-size="10.00">wlp::array_list::operator=</text>
</a>
</g>
</g>
<!-- Node1&#45;&gt;Node16 -->
<g id="edge15" class="edge"><title>Node1&#45;&gt;Node16</title>
<path fill="none" stroke="midnightblue" d="M34.3253,-350.212C41.2037,-295.002 63.1747,-141.036 98,-106 102.632,-101.34 108.192,-97.717 114.184,-94.9072"/>
<polygon fill="midnightblue" stroke="midnightblue" points="30.8173,-350.067 33.0874,-360.415 37.7663,-350.91 30.8173,-350.067"/>
</g>
<!-- Node17 -->
<g id="node17" class="node"><title>Node17</title>
<g id="a_node17"><a xlink:href="../../da/dbb/classwlp_1_1shared__ptr.html#a480a075f26df545303b7ad5983f3befd" target="_top" xlink:title="wlp::shared_ptr::shared_ptr">
<polygon fill="white" stroke="black" points="109.5,-38.5 109.5,-57.5 244.5,-57.5 244.5,-38.5 109.5,-38.5"/>
<text text-anchor="middle" x="177" y="-45.5" font-family="Helvetica,sans-Serif" font-size="10.00">wlp::shared_ptr::shared_ptr</text>
</a>
</g>
</g>
<!-- Node1&#45;&gt;Node17 -->
<g id="edge16" class="edge"><title>Node1&#45;&gt;Node17</title>
<path fill="none" stroke="midnightblue" d="M33.6227,-350.116C38.9801,-289.375 58.084,-107.905 98,-67 101.699,-63.2094 106.018,-60.1255 110.693,-57.622"/>
<polygon fill="midnightblue" stroke="midnightblue" points="30.1179,-350.025 32.7562,-360.286 37.0926,-350.619 30.1179,-350.025"/>
</g>
<!-- Node18 -->
<g id="node18" class="node"><title>Node18</title>
<g id="a_node18"><a xlink:href="../../d5/dca/namespacewlp.html#aa4ecab9f1c93c13dab3663c7c9e2aa24" target="_top" xlink:title="wlp::swap">
<polygon fill="white" stroke="black" points="146.5,-0.5 146.5,-19.5 207.5,-19.5 207.5,-0.5 146.5,-0.5"/>
<text text-anchor="middle" x="177" y="-7.5" font-family="Helvetica,sans-Serif" font-size="10.00">wlp::swap</text>
</a>
</g>
</g>
<!-- Node1&#45;&gt;Node18 -->
<g id="edge17" class="edge"><title>Node1&#45;&gt;Node18</title>
<path fill="none" stroke="midnightblue" d="M33.0897,-350.251C37.1075,-284.715 53.253,-75.9365 98,-29 110.31,-16.0875 129.81,-11.3375 146.233,-9.81565"/>
<polygon fill="midnightblue" stroke="midnightblue" points="29.5837,-350.253 32.4936,-360.44 36.5718,-350.661 29.5837,-350.253"/>
</g>
</g>
</svg>
        <g id="navigator" transform="translate(0 0)" fill="#404254">
                <rect fill="#f2f5e9" fill-opacity="0.5" stroke="#606060" stroke-width=".5" x="0" y="0" width="60" height="60"/>
                <use id="zoomplus" xlink:href="#zoomPlus" x="17" y="9" onmousedown="handleZoom(evt,'in')"/>
                <use id="zoomminus" xlink:href="#zoomMin" x="42" y="9" onmousedown="handleZoom(evt,'out')"/>
                <use id="reset" xlink:href="#resetDef" x="30" y="36" onmousedown="handleReset()"/>
                <g id="arrowUp" xlink:href="#dirArrow" transform="translate(30 24)" onmousedown="handlePan(0,-1)">
                  <use xlink:href="#rim" fill="#404040">
                        <set attributeName="fill" to="#808080" begin="arrowUp.mouseover" end="arrowUp.mouseout"/>
                  </use>
                  <path fill="none" stroke="white" stroke-width="1.5" d="M0,-3.0v7 M-2.5,-0.5L0,-3.0L2.5,-0.5"/>
                </g>
                <g id="arrowRight" xlink:href="#dirArrow" transform="rotate(90) translate(36 -43)" onmousedown="handlePan(1,0)">
                  <use xlink:href="#rim" fill="#404040">
                        <set attributeName="fill" to="#808080" begin="arrowRight.mouseover" end="arrowRight.mouseout"/>
                  </use>
                  <path fill="none" stroke="white" stroke-width="1.5" d="M0,-3.0v7 M-2.5,-0.5L0,-3.0L2.5,-0.5"/>
                </g>
                <g id="arrowDown" xlink:href="#dirArrow" transform="rotate(180) translate(-30 -48)" onmousedown="handlePan(0,1)">
                  <use xlink:href="#rim" fill="#404040">
                        <set attributeName="fill" to="#808080" begin="arrowDown.mouseover" end="arrowDown.mouseout"/>
                  </use>
                  <path fill="none" stroke="white" stroke-width="1.5" d="M0,-3.0v7 M-2.5,-0.5L0,-3.0L2.5,-0.5"/>
                </g>
                <g id="arrowLeft" xlink:href="#dirArrow" transform="rotate(270) translate(-36 17)" onmousedown="handlePan(-1,0)">
                  <use xlink:href="#rim" fill="#404040">
                        <set attributeName="fill" to="#808080" begin="arrowLeft.mouseover" end="arrowLeft.mouseout"/>
                  </use>
                  <path fill="none" stroke="white" stroke-width="1.5" d="M0,-3.0v7 M-2.5,-0.5L0,-3.0L2.5,-0.5"/>
                </g>
        </g>
        <svg viewBox="0 0 15 15" width="100%" height="30px" preserveAspectRatio="xMaxYMin meet">
         <g id="arrow_out" transform="scale(0.3 0.3)">
          <a xlink:href="namespacewlp_aa09e615d02daee5123e80ddaee3d2323_icgraph_org.svg" target="_base">
           <rect id="button" ry="5" rx="5" y="6" x="6" height="38" width="38"
                fill="#f2f5e9" fill-opacity="0.5" stroke="#606060" stroke-width="1.0"/>
           <path id="arrow"
             d="M 11.500037,31.436501 C 11.940474,20.09759 22.043105,11.32322 32.158766,21.979434 L 37.068811,17.246167 C 37.068811,17.246167 37.088388,32 37.088388,32 L 22.160133,31.978069 C 22.160133,31.978069 26.997745,27.140456 26.997745,27.140456 C 18.528582,18.264221 13.291696,25.230495 11.500037,31.436501 z"
             style="fill:#404040;"/>
          </a>
         </g>
        </svg>
</svg>
