<?xml version="1.0" encoding="UTF-8" standalone="no"?>
<!DOCTYPE svg PUBLIC "-//W3C//DTD SVG 1.1//EN"
 "http://www.w3.org/Graphics/SVG/1.1/DTD/svg11.dtd">
<!-- Generated by graphviz version 2.38.0 (20140413.2041)
 -->
<!-- Title: wlp::operator+ Pages: 1 -->
<svg width="223pt" height="88pt"
 viewBox="0.00 0.00 223.00 88.00" xmlns="http://www.w3.org/2000/svg" xmlns:xlink="http://www.w3.org/1999/xlink">
<g id="graph0" class="graph" transform="scale(1 1) rotate(0) translate(4 84)">
<title>wlp::operator+</title>
<polygon fill="white" stroke="none" points="-4,4 -4,-84 219,-84 219,4 -4,4"/>
<!-- Node188 -->
<g id="node1" class="node"><title>Node188</title>
<polygon fill="#bfbfbf" stroke="black" points="0,-30 0,-49 78,-49 78,-30 0,-30"/>
<text text-anchor="middle" x="39" y="-37" font-family="Helvetica,sans-Serif" font-size="10.00">wlp::operator+</text>
</g>
<!-- Node189 -->
<g id="node2" class="node"><title>Node189</title>
<g id="a_node2"><a xlink:href="../../d8/db4/classwlp_1_1_dynamic_string.html#a21718904a025528db5df3e2be72aeedb" target="_top" xlink:title="wlp::DynamicString\l::c_str">
<polygon fill="white" stroke="black" points="114,-49.5 114,-79.5 215,-79.5 215,-49.5 114,-49.5"/>
<text text-anchor="start" x="122" y="-67.5" font-family="Helvetica,sans-Serif" font-size="10.00">wlp::DynamicString</text>
<text text-anchor="middle" x="164.5" y="-56.5" font-family="Helvetica,sans-Serif" font-size="10.00">::c_str</text>
</a>
</g>
</g>
<!-- Node188&#45;&gt;Node189 -->
<g id="edge1" class="edge"><title>Node188&#45;&gt;Node189</title>
<path fill="none" stroke="midnightblue" d="M78.0618,-47.2048C86.3008,-48.8726 95.203,-50.6747 104.043,-52.4641"/>
<polygon fill="midnightblue" stroke="midnightblue" points="103.462,-55.9174 113.957,-54.4711 104.85,-49.0565 103.462,-55.9174"/>
</g>
<!-- Node190 -->
<g id="node3" class="node"><title>Node190</title>
<g id="a_node3"><a xlink:href="../../d8/db4/classwlp_1_1_dynamic_string.html#abb2ecc1b84b4cc93a0a3800d4eac24ad" target="_top" xlink:title="wlp::DynamicString\l::length">
<polygon fill="white" stroke="black" points="114,-0.5 114,-30.5 215,-30.5 215,-0.5 114,-0.5"/>
<text text-anchor="start" x="122" y="-18.5" font-family="Helvetica,sans-Serif" font-size="10.00">wlp::DynamicString</text>
<text text-anchor="middle" x="164.5" y="-7.5" font-family="Helvetica,sans-Serif" font-size="10.00">::length</text>
</a>
</g>
</g>
<!-- Node188&#45;&gt;Node190 -->
<g id="edge2" class="edge"><title>Node188&#45;&gt;Node190</title>
<path fill="none" stroke="midnightblue" d="M78.0618,-32.1034C86.3008,-30.5023 95.203,-28.7723 104.043,-27.0545"/>
<polygon fill="midnightblue" stroke="midnightblue" points="104.809,-30.4712 113.957,-25.1277 103.473,-23.5997 104.809,-30.4712"/>
</g>
</g>
</svg>
