<?xml version="1.0" encoding="UTF-8" standalone="no"?>
<!DOCTYPE svg PUBLIC "-//W3C//DTD SVG 1.1//EN"
 "http://www.w3.org/Graphics/SVG/1.1/DTD/svg11.dtd">
<!-- Generated by graphviz version 2.36.0 (20140111.2315)
 -->
<!-- Title: wlp::__push_heap Pages: 1 -->
<!--zoomable 142 -->
<svg id="main" version="1.1" xmlns="http://www.w3.org/2000/svg" xmlns:xlink="http://www.w3.org/1999/xlink" xml:space="preserve" onload="init(evt)">
<style type="text/css"><![CDATA[
.edge:hover path { stroke: red; }
.edge:hover polygon { stroke: red; fill: red; }
]]></style>
<script type="text/javascript"><![CDATA[
var edges = document.getElementsByTagName('g');
if (edges && edges.length) {
  for (var i=0;i<edges.length;i++) {
    if (edges[i].id.substr(0,4)=='edge') {
      edges[i].setAttribute('class','edge');
    }
  }
}
]]></script>
        <defs>
                <circle id="rim" cx="0" cy="0" r="7"/>
                <circle id="rim2" cx="0" cy="0" r="3.5"/>
                <g id="zoomPlus">
                        <use xlink:href="#rim" fill="#404040">
                                <set attributeName="fill" to="#808080" begin="zoomplus.mouseover" end="zoomplus.mouseout"/>
                        </use>
                        <path d="M-4,0h8M0,-4v8" fill="none" stroke="white" stroke-width="1.5" pointer-events="none"/>
                </g>
                <g id="zoomMin">
                        <use xlink:href="#rim" fill="#404040">
                                <set attributeName="fill" to="#808080" begin="zoomminus.mouseover" end="zoomminus.mouseout"/>
                        </use>
                        <path d="M-4,0h8" fill="none" stroke="white" stroke-width="1.5" pointer-events="none"/>
                </g>
                <g id="dirArrow">
                        <path fill="none" stroke="white" stroke-width="1.5" d="M0,-3.0v7 M-2.5,-0.5L0,-3.0L2.5,-0.5"/>
                </g>
               <g id="resetDef">
                       <use xlink:href="#rim2" fill="#404040">
                               <set attributeName="fill" to="#808080" begin="reset.mouseover" end="reset.mouseout"/>
                       </use>
               </g>
        </defs>

<script type="text/javascript">
var viewWidth = 772;
var viewHeight = 142;
var sectionId = 'dynsection-6';
</script>
<script xlink:href="../../svgpan.js"/>
<svg id="graph" class="graph">
<g id="viewport">
<title>wlp::__push_heap</title>
<polygon fill="white" stroke="none" points="-4,4 -4,-138 768,-138 768,4 -4,4"/>
<!-- Node1 -->
<g id="node1" class="node"><title>Node1</title>
<polygon fill="#bfbfbf" stroke="black" points="0.5,-19.5 0.5,-38.5 95.5,-38.5 95.5,-19.5 0.5,-19.5"/>
<text text-anchor="middle" x="48" y="-26.5" font-family="Helvetica,sans-Serif" font-size="10.00">wlp::__push_heap</text>
</g>
<!-- Node2 -->
<g id="node2" class="node"><title>Node2</title>
<g id="a_node2"><a xlink:href="../../d5/dca/namespacewlp.html#a4d2da3668dcec610a030107c3903d2df" target="_top" xlink:title="wlp::__adjust_heap">
<polygon fill="white" stroke="black" points="132.5,-38.5 132.5,-57.5 233.5,-57.5 233.5,-38.5 132.5,-38.5"/>
<text text-anchor="middle" x="183" y="-45.5" font-family="Helvetica,sans-Serif" font-size="10.00">wlp::__adjust_heap</text>
</a>
</g>
</g>
<!-- Node1&#45;&gt;Node2 -->
<g id="edge1" class="edge"><title>Node1&#45;&gt;Node2</title>
<path fill="none" stroke="midnightblue" d="M105.686,-37.098C114.473,-38.3533 123.493,-39.6419 132.115,-40.8736"/>
<polygon fill="midnightblue" stroke="midnightblue" points="105.911,-33.5948 95.5169,-35.6453 104.921,-40.5244 105.911,-33.5948"/>
</g>
<!-- Node9 -->
<g id="node9" class="node"><title>Node9</title>
<g id="a_node9"><a xlink:href="../../d5/dca/namespacewlp.html#a4de8c4529d37369503a720d251f3f802" target="_top" xlink:title="wlp::push_heap">
<polygon fill="white" stroke="black" points="140.5,-0.5 140.5,-19.5 225.5,-19.5 225.5,-0.5 140.5,-0.5"/>
<text text-anchor="middle" x="183" y="-7.5" font-family="Helvetica,sans-Serif" font-size="10.00">wlp::push_heap</text>
</a>
</g>
</g>
<!-- Node1&#45;&gt;Node9 -->
<g id="edge9" class="edge"><title>Node1&#45;&gt;Node9</title>
<path fill="none" stroke="midnightblue" d="M105.574,-20.918C117.181,-19.2599 129.2,-17.5429 140.175,-15.9751"/>
<polygon fill="midnightblue" stroke="midnightblue" points="104.921,-17.4756 95.5169,-22.3547 105.911,-24.4052 104.921,-17.4756"/>
</g>
<!-- Node3 -->
<g id="node3" class="node"><title>Node3</title>
<g id="a_node3"><a xlink:href="../../d5/dca/namespacewlp.html#a8e7c749cafcbbe652b4f0672b7565f5b" target="_top" xlink:title="wlp::__pop_heap">
<polygon fill="white" stroke="black" points="281,-76.5 281,-95.5 371,-95.5 371,-76.5 281,-76.5"/>
<text text-anchor="middle" x="326" y="-83.5" font-family="Helvetica,sans-Serif" font-size="10.00">wlp::__pop_heap</text>
</a>
</g>
</g>
<!-- Node2&#45;&gt;Node3 -->
<g id="edge2" class="edge"><title>Node2&#45;&gt;Node3</title>
<path fill="none" stroke="midnightblue" d="M229.44,-60.2462C248.875,-65.484 271.231,-71.5091 289.431,-76.4141"/>
<polygon fill="midnightblue" stroke="midnightblue" points="230.147,-56.8118 219.58,-57.589 228.325,-63.5707 230.147,-56.8118"/>
</g>
<!-- Node8 -->
<g id="node8" class="node"><title>Node8</title>
<g id="a_node8"><a xlink:href="../../d5/dca/namespacewlp.html#ad8927f7af1e3363214a8d9b186531078" target="_top" xlink:title="wlp::make_heap">
<polygon fill="white" stroke="black" points="418,-38.5 418,-57.5 506,-57.5 506,-38.5 418,-38.5"/>
<text text-anchor="middle" x="462" y="-45.5" font-family="Helvetica,sans-Serif" font-size="10.00">wlp::make_heap</text>
</a>
</g>
</g>
<!-- Node2&#45;&gt;Node8 -->
<g id="edge7" class="edge"><title>Node2&#45;&gt;Node8</title>
<path fill="none" stroke="midnightblue" d="M243.686,-48C296.084,-48 371.041,-48 417.821,-48"/>
<polygon fill="midnightblue" stroke="midnightblue" points="243.522,-44.5001 233.522,-48 243.522,-51.5001 243.522,-44.5001"/>
</g>
<!-- Node4 -->
<g id="node4" class="node"><title>Node4</title>
<g id="a_node4"><a xlink:href="../../d5/dca/namespacewlp.html#aedb76bc9547f573d794889862528d16e" target="_top" xlink:title="wlp::pop_heap">
<polygon fill="white" stroke="black" points="422,-76.5 422,-95.5 502,-95.5 502,-76.5 422,-76.5"/>
<text text-anchor="middle" x="462" y="-83.5" font-family="Helvetica,sans-Serif" font-size="10.00">wlp::pop_heap</text>
</a>
</g>
</g>
<!-- Node3&#45;&gt;Node4 -->
<g id="edge3" class="edge"><title>Node3&#45;&gt;Node4</title>
<path fill="none" stroke="midnightblue" d="M381.404,-86C394.915,-86 409.135,-86 421.759,-86"/>
<polygon fill="midnightblue" stroke="midnightblue" points="381.248,-82.5001 371.248,-86 381.248,-89.5001 381.248,-82.5001"/>
</g>
<!-- Node5 -->
<g id="node5" class="node"><title>Node5</title>
<g id="a_node5"><a xlink:href="../../d5/dca/namespacewlp.html#a664313ed82edafa1cf6c2e9c1c75378a" target="_top" xlink:title="wlp::sort_heap">
<polygon fill="white" stroke="black" points="555,-114.5 555,-133.5 635,-133.5 635,-114.5 555,-114.5"/>
<text text-anchor="middle" x="595" y="-121.5" font-family="Helvetica,sans-Serif" font-size="10.00">wlp::sort_heap</text>
</a>
</g>
</g>
<!-- Node4&#45;&gt;Node5 -->
<g id="edge4" class="edge"><title>Node4&#45;&gt;Node5</title>
<path fill="none" stroke="midnightblue" d="M505.715,-98.3906C523.655,-103.594 544.2,-109.554 560.954,-114.414"/>
<polygon fill="midnightblue" stroke="midnightblue" points="506.636,-95.0136 496.057,-95.589 504.686,-101.736 506.636,-95.0136"/>
</g>
<!-- Node7 -->
<g id="node7" class="node"><title>Node7</title>
<g id="a_node7"><a xlink:href="../../dd/dd6/classwlp_1_1_array_heap.html#a98362b142533a56d1b2e0a35acd944d7" target="_top" xlink:title="wlp::ArrayHeap::pop">
<polygon fill="white" stroke="black" points="542,-76.5 542,-95.5 648,-95.5 648,-76.5 542,-76.5"/>
<text text-anchor="middle" x="595" y="-83.5" font-family="Helvetica,sans-Serif" font-size="10.00">wlp::ArrayHeap::pop</text>
</a>
</g>
</g>
<!-- Node4&#45;&gt;Node7 -->
<g id="edge6" class="edge"><title>Node4&#45;&gt;Node7</title>
<path fill="none" stroke="midnightblue" d="M512.427,-86C521.97,-86 531.998,-86 541.631,-86"/>
<polygon fill="midnightblue" stroke="midnightblue" points="512.304,-82.5001 502.304,-86 512.304,-89.5001 512.304,-82.5001"/>
</g>
<!-- Node6 -->
<g id="node6" class="node"><title>Node6</title>
<g id="a_node6"><a xlink:href="../../d5/dca/namespacewlp.html#a2329b0c52ca1a59525aea1d75476ef10" target="_top" xlink:title="wlp::heap_sort">
<polygon fill="white" stroke="black" points="684,-76.5 684,-95.5 764,-95.5 764,-76.5 684,-76.5"/>
<text text-anchor="middle" x="724" y="-83.5" font-family="Helvetica,sans-Serif" font-size="10.00">wlp::heap_sort</text>
</a>
</g>
</g>
<!-- Node5&#45;&gt;Node6 -->
<g id="edge5" class="edge"><title>Node5&#45;&gt;Node6</title>
<path fill="none" stroke="midnightblue" d="M637.894,-111.465C655.171,-106.295 674.871,-100.401 690.963,-95.5859"/>
<polygon fill="midnightblue" stroke="midnightblue" points="636.624,-108.191 628.047,-114.411 638.631,-114.897 636.624,-108.191"/>
</g>
<!-- Node8&#45;&gt;Node6 -->
<g id="edge8" class="edge"><title>Node8&#45;&gt;Node6</title>
<path fill="none" stroke="midnightblue" d="M516.331,-51.408C553.444,-54.2839 603.973,-59.2054 648,-67 661.756,-69.4353 676.713,-73.0277 689.625,-76.4351"/>
<polygon fill="midnightblue" stroke="midnightblue" points="516.469,-47.9086 506.235,-50.6504 515.945,-54.889 516.469,-47.9086"/>
</g>
<!-- Node10 -->
<g id="node10" class="node"><title>Node10</title>
<g id="a_node10"><a xlink:href="../../dd/dd6/classwlp_1_1_array_heap.html#aa98a1796d8d8557ec0b361108c2a8898" target="_top" xlink:title="wlp::ArrayHeap::push">
<polygon fill="white" stroke="black" points="270.5,-0.5 270.5,-19.5 381.5,-19.5 381.5,-0.5 270.5,-0.5"/>
<text text-anchor="middle" x="326" y="-7.5" font-family="Helvetica,sans-Serif" font-size="10.00">wlp::ArrayHeap::push</text>
</a>
</g>
</g>
<!-- Node9&#45;&gt;Node10 -->
<g id="edge10" class="edge"><title>Node9&#45;&gt;Node10</title>
<path fill="none" stroke="midnightblue" d="M235.693,-10C246.999,-10 259.001,-10 270.416,-10"/>
<polygon fill="midnightblue" stroke="midnightblue" points="235.542,-6.5001 225.542,-10 235.542,-13.5001 235.542,-6.5001"/>
</g>
</g>
</svg>
        <g id="navigator" transform="translate(0 0)" fill="#404254">
                <rect fill="#f2f5e9" fill-opacity="0.5" stroke="#606060" stroke-width=".5" x="0" y="0" width="60" height="60"/>
                <use id="zoomplus" xlink:href="#zoomPlus" x="17" y="9" onmousedown="handleZoom(evt,'in')"/>
                <use id="zoomminus" xlink:href="#zoomMin" x="42" y="9" onmousedown="handleZoom(evt,'out')"/>
                <use id="reset" xlink:href="#resetDef" x="30" y="36" onmousedown="handleReset()"/>
                <g id="arrowUp" xlink:href="#dirArrow" transform="translate(30 24)" onmousedown="handlePan(0,-1)">
                  <use xlink:href="#rim" fill="#404040">
                        <set attributeName="fill" to="#808080" begin="arrowUp.mouseover" end="arrowUp.mouseout"/>
                  </use>
                  <path fill="none" stroke="white" stroke-width="1.5" d="M0,-3.0v7 M-2.5,-0.5L0,-3.0L2.5,-0.5"/>
                </g>
                <g id="arrowRight" xlink:href="#dirArrow" transform="rotate(90) translate(36 -43)" onmousedown="handlePan(1,0)">
                  <use xlink:href="#rim" fill="#404040">
                        <set attributeName="fill" to="#808080" begin="arrowRight.mouseover" end="arrowRight.mouseout"/>
                  </use>
                  <path fill="none" stroke="white" stroke-width="1.5" d="M0,-3.0v7 M-2.5,-0.5L0,-3.0L2.5,-0.5"/>
                </g>
                <g id="arrowDown" xlink:href="#dirArrow" transform="rotate(180) translate(-30 -48)" onmousedown="handlePan(0,1)">
                  <use xlink:href="#rim" fill="#404040">
                        <set attributeName="fill" to="#808080" begin="arrowDown.mouseover" end="arrowDown.mouseout"/>
                  </use>
                  <path fill="none" stroke="white" stroke-width="1.5" d="M0,-3.0v7 M-2.5,-0.5L0,-3.0L2.5,-0.5"/>
                </g>
                <g id="arrowLeft" xlink:href="#dirArrow" transform="rotate(270) translate(-36 17)" onmousedown="handlePan(-1,0)">
                  <use xlink:href="#rim" fill="#404040">
                        <set attributeName="fill" to="#808080" begin="arrowLeft.mouseover" end="arrowLeft.mouseout"/>
                  </use>
                  <path fill="none" stroke="white" stroke-width="1.5" d="M0,-3.0v7 M-2.5,-0.5L0,-3.0L2.5,-0.5"/>
                </g>
        </g>
        <svg viewBox="0 0 15 15" width="100%" height="30px" preserveAspectRatio="xMaxYMin meet">
         <g id="arrow_out" transform="scale(0.3 0.3)">
          <a xlink:href="namespacewlp_a903253da340cffc0160b9887f2b80b8c_icgraph_org.svg" target="_base">
           <rect id="button" ry="5" rx="5" y="6" x="6" height="38" width="38"
                fill="#f2f5e9" fill-opacity="0.5" stroke="#606060" stroke-width="1.0"/>
           <path id="arrow"
             d="M 11.500037,31.436501 C 11.940474,20.09759 22.043105,11.32322 32.158766,21.979434 L 37.068811,17.246167 C 37.068811,17.246167 37.088388,32 37.088388,32 L 22.160133,31.978069 C 22.160133,31.978069 26.997745,27.140456 26.997745,27.140456 C 18.528582,18.264221 13.291696,25.230495 11.500037,31.436501 z"
             style="fill:#404040;"/>
          </a>
         </g>
        </svg>
</svg>
