<?xml version="1.0" encoding="UTF-8" standalone="no"?>
<!DOCTYPE svg PUBLIC "-//W3C//DTD SVG 1.1//EN"
 "http://www.w3.org/Graphics/SVG/1.1/DTD/svg11.dtd">
<!-- Generated by graphviz version 2.36.0 (20140111.2315)
 -->
<!-- Title: wlp::operator!= Pages: 1 -->
<svg width="346pt" height="38pt"
 viewBox="0.00 0.00 346.00 38.00" xmlns="http://www.w3.org/2000/svg" xmlns:xlink="http://www.w3.org/1999/xlink">
<g id="graph0" class="graph" transform="scale(1 1) rotate(0) translate(4 34)">
<title>wlp::operator!=</title>
<polygon fill="white" stroke="none" points="-4,4 -4,-34 342,-34 342,4 -4,4"/>
<!-- Node1 -->
<g id="node1" class="node"><title>Node1</title>
<polygon fill="#bfbfbf" stroke="black" points="0,-5.5 0,-24.5 82,-24.5 82,-5.5 0,-5.5"/>
<text text-anchor="middle" x="41" y="-12.5" font-family="Helvetica,sans-Serif" font-size="10.00">wlp::operator!=</text>
</g>
<!-- Node2 -->
<g id="node2" class="node"><title>Node2</title>
<g id="a_node2"><a xlink:href="../../d7/d08/classwlp_1_1static__string.html#afab65b44dc6e052df5d55e58e3ec500b" target="_top" xlink:title="wlp::static_string\l::compare">
<polygon fill="white" stroke="black" points="118.5,-0 118.5,-30 209.5,-30 209.5,-0 118.5,-0"/>
<text text-anchor="start" x="126.5" y="-18" font-family="Helvetica,sans-Serif" font-size="10.00">wlp::static_string</text>
<text text-anchor="middle" x="164" y="-7" font-family="Helvetica,sans-Serif" font-size="10.00">::compare</text>
</a>
</g>
</g>
<!-- Node1&#45;&gt;Node2 -->
<g id="edge1" class="edge"><title>Node1&#45;&gt;Node2</title>
<path fill="none" stroke="midnightblue" d="M82.2912,-15C90.5926,-15 99.4674,-15 108.183,-15"/>
<polygon fill="midnightblue" stroke="midnightblue" points="108.299,-18.5001 118.299,-15 108.299,-11.5001 108.299,-18.5001"/>
</g>
<!-- Node3 -->
<g id="node3" class="node"><title>Node3</title>
<g id="a_node3"><a xlink:href="../../d7/d08/classwlp_1_1static__string.html#acee129ebfa86184c2da91f86fac25ca0" target="_top" xlink:title="wlp::static_string\l::c_str">
<polygon fill="white" stroke="black" points="246.5,-0 246.5,-30 337.5,-30 337.5,-0 246.5,-0"/>
<text text-anchor="start" x="254.5" y="-18" font-family="Helvetica,sans-Serif" font-size="10.00">wlp::static_string</text>
<text text-anchor="middle" x="292" y="-7" font-family="Helvetica,sans-Serif" font-size="10.00">::c_str</text>
</a>
</g>
</g>
<!-- Node2&#45;&gt;Node3 -->
<g id="edge2" class="edge"><title>Node2&#45;&gt;Node3</title>
<path fill="none" stroke="midnightblue" d="M209.778,-15C218.319,-15 227.349,-15 236.162,-15"/>
<polygon fill="midnightblue" stroke="midnightblue" points="236.367,-18.5001 246.367,-15 236.366,-11.5001 236.367,-18.5001"/>
</g>
</g>
</svg>
