<?xml version="1.0" encoding="UTF-8" standalone="no"?>
<!DOCTYPE svg PUBLIC "-//W3C//DTD SVG 1.1//EN"
 "http://www.w3.org/Graphics/SVG/1.1/DTD/svg11.dtd">
<!-- Generated by graphviz version 2.38.0 (20140413.2041)
 -->
<!-- Title: wlp::swap Pages: 1 -->
<svg width="662pt" height="66pt"
 viewBox="0.00 0.00 662.00 66.00" xmlns="http://www.w3.org/2000/svg" xmlns:xlink="http://www.w3.org/1999/xlink">
<g id="graph0" class="graph" transform="scale(1 1) rotate(0) translate(4 62)">
<title>wlp::swap</title>
<polygon fill="white" stroke="none" points="-4,4 -4,-62 658,-62 658,4 -4,4"/>
<!-- Node350 -->
<g id="node1" class="node"><title>Node350</title>
<polygon fill="#bfbfbf" stroke="black" points="0,-19.5 0,-38.5 59,-38.5 59,-19.5 0,-19.5"/>
<text text-anchor="middle" x="29.5" y="-26.5" font-family="Helvetica,sans-Serif" font-size="10.00">wlp::swap</text>
</g>
<!-- Node351 -->
<g id="node2" class="node"><title>Node351</title>
<g id="a_node2"><a xlink:href="../../d8/d0b/classwlp_1_1_weak_ptr.html#a4f71c173d7f12d3d6af71eabf2226df7" target="_top" xlink:title="wlp::WeakPtr::swap">
<polygon fill="white" stroke="black" points="95,-19.5 95,-38.5 199,-38.5 199,-19.5 95,-19.5"/>
<text text-anchor="middle" x="147" y="-26.5" font-family="Helvetica,sans-Serif" font-size="10.00">wlp::WeakPtr::swap</text>
</a>
</g>
</g>
<!-- Node350&#45;&gt;Node351 -->
<g id="edge1" class="edge"><title>Node350&#45;&gt;Node351</title>
<path fill="none" stroke="midnightblue" d="M59.0506,-29C66.9134,-29 75.7563,-29 84.7131,-29"/>
<polygon fill="midnightblue" stroke="midnightblue" points="84.8278,-32.5001 94.8277,-29 84.8277,-25.5001 84.8278,-32.5001"/>
</g>
<!-- Node352 -->
<g id="node3" class="node"><title>Node352</title>
<g id="a_node3"><a xlink:href="../../d5/dca/namespacewlp.html#a14fbfebbc21b2593185c686b26a9d8fb" target="_top" xlink:title="wlp::swap">
<polygon fill="white" stroke="black" points="263.5,-38.5 263.5,-57.5 322.5,-57.5 322.5,-38.5 263.5,-38.5"/>
<text text-anchor="middle" x="293" y="-45.5" font-family="Helvetica,sans-Serif" font-size="10.00">wlp::swap</text>
</a>
</g>
</g>
<!-- Node351&#45;&gt;Node352 -->
<g id="edge2" class="edge"><title>Node351&#45;&gt;Node352</title>
<path fill="none" stroke="midnightblue" d="M199.174,-35.7522C216.982,-38.1018 236.649,-40.6967 253.279,-42.891"/>
<polygon fill="midnightblue" stroke="midnightblue" points="252.826,-46.3614 263.197,-44.1997 253.741,-39.4215 252.826,-46.3614"/>
</g>
<!-- Node355 -->
<g id="node6" class="node"><title>Node355</title>
<g id="a_node6"><a xlink:href="../../d4/d8d/classwlp_1_1_weak_count.html#ab6913243767479e90b2df62cff1155a2" target="_top" xlink:title="wlp::WeakCount::swap">
<polygon fill="white" stroke="black" points="235,-0.5 235,-19.5 351,-19.5 351,-0.5 235,-0.5"/>
<text text-anchor="middle" x="293" y="-7.5" font-family="Helvetica,sans-Serif" font-size="10.00">wlp::WeakCount::swap</text>
</a>
</g>
</g>
<!-- Node351&#45;&gt;Node355 -->
<g id="edge6" class="edge"><title>Node351&#45;&gt;Node355</title>
<path fill="none" stroke="midnightblue" d="M199.174,-22.2478C207.425,-21.1592 216.075,-20.0179 224.637,-18.8882"/>
<polygon fill="midnightblue" stroke="midnightblue" points="225.162,-22.3493 234.619,-17.5712 224.247,-15.4094 225.162,-22.3493"/>
</g>
<!-- Node353 -->
<g id="node4" class="node"><title>Node353</title>
<g id="a_node4"><a xlink:href="../../d1/d52/classwlp_1_1_shared_ptr.html#aeb4cc93940627a04b0414bad11b4c020" target="_top" xlink:title="wlp::SharedPtr::swap">
<polygon fill="white" stroke="black" points="387,-38.5 387,-57.5 496,-57.5 496,-38.5 387,-38.5"/>
<text text-anchor="middle" x="441.5" y="-45.5" font-family="Helvetica,sans-Serif" font-size="10.00">wlp::SharedPtr::swap</text>
</a>
</g>
</g>
<!-- Node352&#45;&gt;Node353 -->
<g id="edge3" class="edge"><title>Node352&#45;&gt;Node353</title>
<path fill="none" stroke="midnightblue" d="M322.594,-42.519C338.052,-41.5048 357.801,-41.0985 376.696,-41.3001"/>
<polygon fill="midnightblue" stroke="midnightblue" points="376.715,-44.8008 386.772,-41.4677 376.831,-37.8018 376.715,-44.8008"/>
</g>
<!-- Node353&#45;&gt;Node352 -->
<g id="edge4" class="edge"><title>Node353&#45;&gt;Node352</title>
<path fill="none" stroke="midnightblue" d="M386.772,-54.5323C368.943,-54.9388 349.45,-54.776 332.954,-54.044"/>
<polygon fill="midnightblue" stroke="midnightblue" points="332.77,-50.5289 322.594,-53.481 332.39,-57.5186 332.77,-50.5289"/>
</g>
<!-- Node354 -->
<g id="node5" class="node"><title>Node354</title>
<g id="a_node5"><a xlink:href="../../da/dbb/classwlp_1_1_shared_count.html#ad9de7cb486018b547abbf4416fb31029" target="_top" xlink:title="wlp::SharedCount::swap">
<polygon fill="white" stroke="black" points="532,-38.5 532,-57.5 654,-57.5 654,-38.5 532,-38.5"/>
<text text-anchor="middle" x="593" y="-45.5" font-family="Helvetica,sans-Serif" font-size="10.00">wlp::SharedCount::swap</text>
</a>
</g>
</g>
<!-- Node353&#45;&gt;Node354 -->
<g id="edge5" class="edge"><title>Node353&#45;&gt;Node354</title>
<path fill="none" stroke="midnightblue" d="M496.051,-48C504.421,-48 513.178,-48 521.853,-48"/>
<polygon fill="midnightblue" stroke="midnightblue" points="521.969,-51.5001 531.969,-48 521.969,-44.5001 521.969,-51.5001"/>
</g>
</g>
</svg>
