<?xml version="1.0" encoding="UTF-8" standalone="no"?>
<!DOCTYPE svg PUBLIC "-//W3C//DTD SVG 1.1//EN"
 "http://www.w3.org/Graphics/SVG/1.1/DTD/svg11.dtd">
<!-- Generated by graphviz version 2.38.0 (20140413.2041)
 -->
<!-- Title: wlp::operator== Pages: 1 -->
<svg width="352pt" height="39pt"
 viewBox="0.00 0.00 352.00 39.00" xmlns="http://www.w3.org/2000/svg" xmlns:xlink="http://www.w3.org/1999/xlink">
<g id="graph0" class="graph" transform="scale(1 1) rotate(0) translate(4 35)">
<title>wlp::operator==</title>
<polygon fill="white" stroke="none" points="-4,4 -4,-35 348,-35 348,4 -4,4"/>
<!-- Node238 -->
<g id="node1" class="node"><title>Node238</title>
<polygon fill="#bfbfbf" stroke="black" points="0,-6 0,-25 84,-25 84,-6 0,-6"/>
<text text-anchor="middle" x="42" y="-13" font-family="Helvetica,sans-Serif" font-size="10.00">wlp::operator==</text>
</g>
<!-- Node239 -->
<g id="node2" class="node"><title>Node239</title>
<g id="a_node2"><a xlink:href="../../d6/d6b/classwlp_1_1_static_string.html#a21e95997cab552abd4d418b665dd72e1" target="_top" xlink:title="wlp::StaticString::\lcompare">
<polygon fill="white" stroke="black" points="120,-0.5 120,-30.5 214,-30.5 214,-0.5 120,-0.5"/>
<text text-anchor="start" x="128" y="-18.5" font-family="Helvetica,sans-Serif" font-size="10.00">wlp::StaticString::</text>
<text text-anchor="middle" x="167" y="-7.5" font-family="Helvetica,sans-Serif" font-size="10.00">compare</text>
</a>
</g>
</g>
<!-- Node238&#45;&gt;Node239 -->
<g id="edge1" class="edge"><title>Node238&#45;&gt;Node239</title>
<path fill="none" stroke="midnightblue" d="M84.2994,-15.5C92.526,-15.5 101.295,-15.5 109.921,-15.5"/>
<polygon fill="midnightblue" stroke="midnightblue" points="109.94,-19.0001 119.94,-15.5 109.94,-12.0001 109.94,-19.0001"/>
</g>
<!-- Node240 -->
<g id="node3" class="node"><title>Node240</title>
<g id="a_node3"><a xlink:href="../../d6/d6b/classwlp_1_1_static_string.html#a3dc0e9fe5861cfebae08b3c3b9877371" target="_top" xlink:title="wlp::StaticString::\lc_str">
<polygon fill="white" stroke="black" points="250,-0.5 250,-30.5 344,-30.5 344,-0.5 250,-0.5"/>
<text text-anchor="start" x="258" y="-18.5" font-family="Helvetica,sans-Serif" font-size="10.00">wlp::StaticString::</text>
<text text-anchor="middle" x="297" y="-7.5" font-family="Helvetica,sans-Serif" font-size="10.00">c_str</text>
</a>
</g>
</g>
<!-- Node239&#45;&gt;Node240 -->
<g id="edge2" class="edge"><title>Node239&#45;&gt;Node240</title>
<path fill="none" stroke="midnightblue" d="M214.211,-15.5C222.458,-15.5 231.134,-15.5 239.628,-15.5"/>
<polygon fill="midnightblue" stroke="midnightblue" points="239.857,-19.0001 249.857,-15.5 239.857,-12.0001 239.857,-19.0001"/>
</g>
</g>
</svg>
