<?xml version="1.0" encoding="UTF-8" standalone="no"?>
<!DOCTYPE svg PUBLIC "-//W3C//DTD SVG 1.1//EN"
 "http://www.w3.org/Graphics/SVG/1.1/DTD/svg11.dtd">
<!-- Generated by graphviz version 2.36.0 (20140111.2315)
 -->
<!-- Title: wlp::begin Pages: 1 -->
<svg width="224pt" height="66pt"
 viewBox="0.00 0.00 224.00 66.00" xmlns="http://www.w3.org/2000/svg" xmlns:xlink="http://www.w3.org/1999/xlink">
<g id="graph0" class="graph" transform="scale(1 1) rotate(0) translate(4 62)">
<title>wlp::begin</title>
<polygon fill="white" stroke="none" points="-4,4 -4,-62 220,-62 220,4 -4,4"/>
<!-- Node1 -->
<g id="node1" class="node"><title>Node1</title>
<polygon fill="#bfbfbf" stroke="black" points="0.5,-19.5 0.5,-38.5 61.5,-38.5 61.5,-19.5 0.5,-19.5"/>
<text text-anchor="middle" x="31" y="-26.5" font-family="Helvetica,sans-Serif" font-size="10.00">wlp::begin</text>
</g>
<!-- Node2 -->
<g id="node2" class="node"><title>Node2</title>
<g id="a_node2"><a xlink:href="../../d9/d40/classwlp_1_1tree.html#acfd0ae02fbf238e57658e48e36d53e15" target="_top" xlink:title="wlp::tree::erase">
<polygon fill="white" stroke="black" points="115,-38.5 115,-57.5 199,-57.5 199,-38.5 115,-38.5"/>
<text text-anchor="middle" x="157" y="-45.5" font-family="Helvetica,sans-Serif" font-size="10.00">wlp::tree::erase</text>
</a>
</g>
</g>
<!-- Node1&#45;&gt;Node2 -->
<g id="edge1" class="edge"><title>Node1&#45;&gt;Node2</title>
<path fill="none" stroke="midnightblue" d="M71.8273,-35.1026C85.5658,-37.2077 100.977,-39.5691 114.821,-41.6904"/>
<polygon fill="midnightblue" stroke="midnightblue" points="72.1159,-31.606 61.7011,-33.551 71.0556,-38.5253 72.1159,-31.606"/>
</g>
<!-- Node3 -->
<g id="node3" class="node"><title>Node3</title>
<g id="a_node3"><a xlink:href="../../d9/d40/classwlp_1_1tree.html#a6edb80a25ff3aedf306ac5aa5546c26d" target="_top" xlink:title="wlp::tree::insert_unique">
<polygon fill="white" stroke="black" points="98,-0.5 98,-19.5 216,-19.5 216,-0.5 98,-0.5"/>
<text text-anchor="middle" x="157" y="-7.5" font-family="Helvetica,sans-Serif" font-size="10.00">wlp::tree::insert_unique</text>
</a>
</g>
</g>
<!-- Node1&#45;&gt;Node3 -->
<g id="edge2" class="edge"><title>Node1&#45;&gt;Node3</title>
<path fill="none" stroke="midnightblue" d="M71.8345,-22.8963C80.1348,-21.6245 89.0454,-20.2592 97.852,-18.9098"/>
<polygon fill="midnightblue" stroke="midnightblue" points="71.0556,-19.4747 61.7011,-24.449 72.1159,-26.394 71.0556,-19.4747"/>
</g>
</g>
</svg>
