<?xml version="1.0" encoding="UTF-8" standalone="no"?>
<!DOCTYPE svg PUBLIC "-//W3C//DTD SVG 1.1//EN"
 "http://www.w3.org/Graphics/SVG/1.1/DTD/svg11.dtd">
<!-- Generated by graphviz version 2.38.0 (20140413.2041)
 -->
<!-- Title: wlp::swap Pages: 1 -->
<svg width="370pt" height="28pt"
 viewBox="0.00 0.00 370.00 28.00" xmlns="http://www.w3.org/2000/svg" xmlns:xlink="http://www.w3.org/1999/xlink">
<g id="graph0" class="graph" transform="scale(1 1) rotate(0) translate(4 24)">
<title>wlp::swap</title>
<polygon fill="white" stroke="none" points="-4,4 -4,-24 366,-24 366,4 -4,4"/>
<!-- Node334 -->
<g id="node1" class="node"><title>Node334</title>
<polygon fill="#bfbfbf" stroke="black" points="0,-0.5 0,-19.5 59,-19.5 59,-0.5 0,-0.5"/>
<text text-anchor="middle" x="29.5" y="-7.5" font-family="Helvetica,sans-Serif" font-size="10.00">wlp::swap</text>
</g>
<!-- Node335 -->
<g id="node2" class="node"><title>Node335</title>
<g id="a_node2"><a xlink:href="../../d1/d52/classwlp_1_1_shared_ptr.html#aeb4cc93940627a04b0414bad11b4c020" target="_top" xlink:title="wlp::SharedPtr::swap">
<polygon fill="white" stroke="black" points="95,-0.5 95,-19.5 204,-19.5 204,-0.5 95,-0.5"/>
<text text-anchor="middle" x="149.5" y="-7.5" font-family="Helvetica,sans-Serif" font-size="10.00">wlp::SharedPtr::swap</text>
</a>
</g>
</g>
<!-- Node334&#45;&gt;Node335 -->
<g id="edge1" class="edge"><title>Node334&#45;&gt;Node335</title>
<path fill="none" stroke="midnightblue" d="M59.0645,-4.12177C66.8946,-3.62886 75.7095,-3.34498 84.6739,-3.27011"/>
<polygon fill="midnightblue" stroke="midnightblue" points="84.8127,-6.77007 94.8142,-3.2744 84.8157,0.229927 84.8127,-6.77007"/>
</g>
<!-- Node335&#45;&gt;Node334 -->
<g id="edge2" class="edge"><title>Node335&#45;&gt;Node334</title>
<path fill="none" stroke="midnightblue" d="M94.8142,-16.7256C86.1444,-16.8054 77.3203,-16.6894 69.0989,-16.3777"/>
<polygon fill="midnightblue" stroke="midnightblue" points="69.2262,-12.8798 59.0645,-15.8782 68.8781,-19.8712 69.2262,-12.8798"/>
</g>
<!-- Node336 -->
<g id="node3" class="node"><title>Node336</title>
<g id="a_node3"><a xlink:href="../../da/dbb/classwlp_1_1_shared_count.html#ad9de7cb486018b547abbf4416fb31029" target="_top" xlink:title="wlp::SharedCount::swap">
<polygon fill="white" stroke="black" points="240,-0.5 240,-19.5 362,-19.5 362,-0.5 240,-0.5"/>
<text text-anchor="middle" x="301" y="-7.5" font-family="Helvetica,sans-Serif" font-size="10.00">wlp::SharedCount::swap</text>
</a>
</g>
</g>
<!-- Node335&#45;&gt;Node336 -->
<g id="edge3" class="edge"><title>Node335&#45;&gt;Node336</title>
<path fill="none" stroke="midnightblue" d="M204.051,-10C212.421,-10 221.178,-10 229.853,-10"/>
<polygon fill="midnightblue" stroke="midnightblue" points="229.969,-13.5001 239.969,-10 229.969,-6.5001 229.969,-13.5001"/>
</g>
</g>
</svg>
