<?xml version="1.0" encoding="UTF-8" standalone="no"?>
<!DOCTYPE svg PUBLIC "-//W3C//DTD SVG 1.1//EN"
 "http://www.w3.org/Graphics/SVG/1.1/DTD/svg11.dtd">
<!-- Generated by graphviz version 2.36.0 (20140111.2315)
 -->
<!-- Title: wlp::make_tuple Pages: 1 -->
<svg width="500pt" height="28pt"
 viewBox="0.00 0.00 500.00 28.00" xmlns="http://www.w3.org/2000/svg" xmlns:xlink="http://www.w3.org/1999/xlink">
<g id="graph0" class="graph" transform="scale(1 1) rotate(0) translate(4 24)">
<title>wlp::make_tuple</title>
<polygon fill="white" stroke="none" points="-4,4 -4,-24 496,-24 496,4 -4,4"/>
<!-- Node1 -->
<g id="node1" class="node"><title>Node1</title>
<polygon fill="#bfbfbf" stroke="black" points="0,-0.5 0,-19.5 88,-19.5 88,-0.5 0,-0.5"/>
<text text-anchor="middle" x="44" y="-7.5" font-family="Helvetica,sans-Serif" font-size="10.00">wlp::make_tuple</text>
</g>
<!-- Node2 -->
<g id="node2" class="node"><title>Node2</title>
<g id="a_node2"><a xlink:href="../../d5/dca/namespacewlp.html#ae41053c70e843746dca64067cf8c0569" target="_top" xlink:title="wlp::tuple_cat_pair_sub">
<polygon fill="white" stroke="black" points="124.5,-0.5 124.5,-19.5 243.5,-19.5 243.5,-0.5 124.5,-0.5"/>
<text text-anchor="middle" x="184" y="-7.5" font-family="Helvetica,sans-Serif" font-size="10.00">wlp::tuple_cat_pair_sub</text>
</a>
</g>
</g>
<!-- Node1&#45;&gt;Node2 -->
<g id="edge1" class="edge"><title>Node1&#45;&gt;Node2</title>
<path fill="none" stroke="midnightblue" d="M98.4643,-10C106.975,-10 115.818,-10 124.439,-10"/>
<polygon fill="midnightblue" stroke="midnightblue" points="98.2855,-6.5001 88.2854,-10 98.2854,-13.5001 98.2855,-6.5001"/>
</g>
<!-- Node3 -->
<g id="node3" class="node"><title>Node3</title>
<g id="a_node3"><a xlink:href="../../d5/dca/namespacewlp.html#a447cceb8493717b7192963b2266d1553" target="_top" xlink:title="wlp::tuple_cat_pair">
<polygon fill="white" stroke="black" points="280,-0.5 280,-19.5 378,-19.5 378,-0.5 280,-0.5"/>
<text text-anchor="middle" x="329" y="-7.5" font-family="Helvetica,sans-Serif" font-size="10.00">wlp::tuple_cat_pair</text>
</a>
</g>
</g>
<!-- Node2&#45;&gt;Node3 -->
<g id="edge2" class="edge"><title>Node2&#45;&gt;Node3</title>
<path fill="none" stroke="midnightblue" d="M253.817,-10C262.588,-10 271.414,-10 279.764,-10"/>
<polygon fill="midnightblue" stroke="midnightblue" points="253.576,-6.5001 243.576,-10 253.576,-13.5001 253.576,-6.5001"/>
</g>
<!-- Node4 -->
<g id="node4" class="node"><title>Node4</title>
<g id="a_node4"><a xlink:href="../../d5/dca/namespacewlp.html#afdd2db039584f8a0aafea650ffa9299b" target="_top" xlink:title="wlp::tuple_cat">
<polygon fill="white" stroke="black" points="414.5,-0.5 414.5,-19.5 491.5,-19.5 491.5,-0.5 414.5,-0.5"/>
<text text-anchor="middle" x="453" y="-7.5" font-family="Helvetica,sans-Serif" font-size="10.00">wlp::tuple_cat</text>
</a>
</g>
</g>
<!-- Node3&#45;&gt;Node4 -->
<g id="edge3" class="edge"><title>Node3&#45;&gt;Node4</title>
<path fill="none" stroke="midnightblue" d="M388.453,-10C397.237,-10 406.091,-10 414.286,-10"/>
<polygon fill="midnightblue" stroke="midnightblue" points="388.218,-6.5001 378.218,-10 388.218,-13.5001 388.218,-6.5001"/>
</g>
</g>
</svg>
