<?xml version="1.0" encoding="UTF-8" standalone="no"?>
<!DOCTYPE svg PUBLIC "-//W3C//DTD SVG 1.1//EN"
 "http://www.w3.org/Graphics/SVG/1.1/DTD/svg11.dtd">
<!-- Generated by graphviz version 2.38.0 (20140413.2041)
 -->
<!-- Title: wlp::operator+ Pages: 1 -->
<svg width="216pt" height="88pt"
 viewBox="0.00 0.00 216.00 88.00" xmlns="http://www.w3.org/2000/svg" xmlns:xlink="http://www.w3.org/1999/xlink">
<g id="graph0" class="graph" transform="scale(1 1) rotate(0) translate(4 84)">
<title>wlp::operator+</title>
<polygon fill="white" stroke="none" points="-4,4 -4,-84 212,-84 212,4 -4,4"/>
<!-- Node216 -->
<g id="node1" class="node"><title>Node216</title>
<polygon fill="#bfbfbf" stroke="black" points="0,-30 0,-49 78,-49 78,-30 0,-30"/>
<text text-anchor="middle" x="39" y="-37" font-family="Helvetica,sans-Serif" font-size="10.00">wlp::operator+</text>
</g>
<!-- Node217 -->
<g id="node2" class="node"><title>Node217</title>
<g id="a_node2"><a xlink:href="../../d6/d6b/classwlp_1_1_static_string.html#a3dc0e9fe5861cfebae08b3c3b9877371" target="_top" xlink:title="wlp::StaticString::\lc_str">
<polygon fill="white" stroke="black" points="114,-49.5 114,-79.5 208,-79.5 208,-49.5 114,-49.5"/>
<text text-anchor="start" x="122" y="-67.5" font-family="Helvetica,sans-Serif" font-size="10.00">wlp::StaticString::</text>
<text text-anchor="middle" x="161" y="-56.5" font-family="Helvetica,sans-Serif" font-size="10.00">c_str</text>
</a>
</g>
</g>
<!-- Node216&#45;&gt;Node217 -->
<g id="edge1" class="edge"><title>Node216&#45;&gt;Node217</title>
<path fill="none" stroke="midnightblue" d="M78.2987,-47.4789C86.3839,-49.1633 95.0767,-50.9743 103.669,-52.7643"/>
<polygon fill="midnightblue" stroke="midnightblue" points="103.163,-56.234 113.667,-54.8472 104.591,-49.3811 103.163,-56.234"/>
</g>
<!-- Node218 -->
<g id="node3" class="node"><title>Node218</title>
<g id="a_node3"><a xlink:href="../../d6/d6b/classwlp_1_1_static_string.html#aa56e49cb1c11457f15538114717db028" target="_top" xlink:title="wlp::StaticString::\llength">
<polygon fill="white" stroke="black" points="114,-0.5 114,-30.5 208,-30.5 208,-0.5 114,-0.5"/>
<text text-anchor="start" x="122" y="-18.5" font-family="Helvetica,sans-Serif" font-size="10.00">wlp::StaticString::</text>
<text text-anchor="middle" x="161" y="-7.5" font-family="Helvetica,sans-Serif" font-size="10.00">length</text>
</a>
</g>
</g>
<!-- Node216&#45;&gt;Node218 -->
<g id="edge2" class="edge"><title>Node216&#45;&gt;Node218</title>
<path fill="none" stroke="midnightblue" d="M78.2987,-31.8403C86.3839,-30.2232 95.0767,-28.4847 103.669,-26.7662"/>
<polygon fill="midnightblue" stroke="midnightblue" points="104.547,-30.16 113.667,-24.7667 103.174,-23.2959 104.547,-30.16"/>
</g>
</g>
</svg>
