<?xml version="1.0" encoding="UTF-8" standalone="no"?>
<!DOCTYPE svg PUBLIC "-//W3C//DTD SVG 1.1//EN"
 "http://www.w3.org/Graphics/SVG/1.1/DTD/svg11.dtd">
<!-- Generated by graphviz version 2.36.0 (20140111.2315)
 -->
<!-- Title: wlp::heap_sort Pages: 1 -->
<svg width="750pt" height="142pt"
 viewBox="0.00 0.00 750.00 142.00" xmlns="http://www.w3.org/2000/svg" xmlns:xlink="http://www.w3.org/1999/xlink">
<g id="graph0" class="graph" transform="scale(1 1) rotate(0) translate(4 138)">
<title>wlp::heap_sort</title>
<polygon fill="white" stroke="none" points="-4,4 -4,-138 746,-138 746,4 -4,4"/>
<!-- Node1 -->
<g id="node1" class="node"><title>Node1</title>
<polygon fill="#bfbfbf" stroke="black" points="0,-57.5 0,-76.5 80,-76.5 80,-57.5 0,-57.5"/>
<text text-anchor="middle" x="40" y="-64.5" font-family="Helvetica,sans-Serif" font-size="10.00">wlp::heap_sort</text>
</g>
<!-- Node2 -->
<g id="node2" class="node"><title>Node2</title>
<g id="a_node2"><a xlink:href="../../db/d49/classwlp_1_1_array_list.html#add99d571d49332abfa8036a727eb8958" target="_top" xlink:title="wlp::ArrayList::begin">
<polygon fill="white" stroke="black" points="116,-114.5 116,-133.5 222,-133.5 222,-114.5 116,-114.5"/>
<text text-anchor="middle" x="169" y="-121.5" font-family="Helvetica,sans-Serif" font-size="10.00">wlp::ArrayList::begin</text>
</a>
</g>
</g>
<!-- Node1&#45;&gt;Node2 -->
<g id="edge1" class="edge"><title>Node1&#45;&gt;Node2</title>
<path fill="none" stroke="midnightblue" d="M58.2979,-76.5036C73.3216,-84.5781 95.7825,-96.2215 116,-105 120.674,-107.029 125.642,-109.033 130.582,-110.935"/>
<polygon fill="midnightblue" stroke="midnightblue" points="129.371,-114.218 139.963,-114.446 131.825,-107.663 129.371,-114.218"/>
</g>
<!-- Node3 -->
<g id="node3" class="node"><title>Node3</title>
<g id="a_node3"><a xlink:href="../../db/d49/classwlp_1_1_array_list.html#af08d43457fe9ce1437543fc458198b57" target="_top" xlink:title="wlp::ArrayList::end">
<polygon fill="white" stroke="black" points="120,-76.5 120,-95.5 218,-95.5 218,-76.5 120,-76.5"/>
<text text-anchor="middle" x="169" y="-83.5" font-family="Helvetica,sans-Serif" font-size="10.00">wlp::ArrayList::end</text>
</a>
</g>
</g>
<!-- Node1&#45;&gt;Node3 -->
<g id="edge2" class="edge"><title>Node1&#45;&gt;Node3</title>
<path fill="none" stroke="midnightblue" d="M80.1405,-72.8557C89.5423,-74.2622 99.7838,-75.7944 109.845,-77.2997"/>
<polygon fill="midnightblue" stroke="midnightblue" points="109.401,-80.772 119.808,-78.7902 110.436,-73.8491 109.401,-80.772"/>
</g>
<!-- Node4 -->
<g id="node4" class="node"><title>Node4</title>
<g id="a_node4"><a xlink:href="../../d5/dca/namespacewlp.html#ad8927f7af1e3363214a8d9b186531078" target="_top" xlink:title="wlp::make_heap">
<polygon fill="white" stroke="black" points="258,-38.5 258,-57.5 346,-57.5 346,-38.5 258,-38.5"/>
<text text-anchor="middle" x="302" y="-45.5" font-family="Helvetica,sans-Serif" font-size="10.00">wlp::make_heap</text>
</a>
</g>
</g>
<!-- Node1&#45;&gt;Node4 -->
<g id="edge3" class="edge"><title>Node1&#45;&gt;Node4</title>
<path fill="none" stroke="midnightblue" d="M80.2061,-64.1349C124.706,-60.883 197.557,-55.5593 247.315,-51.9231"/>
<polygon fill="midnightblue" stroke="midnightblue" points="247.846,-55.3938 257.564,-51.1742 247.336,-48.4124 247.846,-55.3938"/>
</g>
<!-- Node7 -->
<g id="node7" class="node"><title>Node7</title>
<g id="a_node7"><a xlink:href="../../d5/dca/namespacewlp.html#a664313ed82edafa1cf6c2e9c1c75378a" target="_top" xlink:title="wlp::sort_heap">
<polygon fill="white" stroke="black" points="129,-0.5 129,-19.5 209,-19.5 209,-0.5 129,-0.5"/>
<text text-anchor="middle" x="169" y="-7.5" font-family="Helvetica,sans-Serif" font-size="10.00">wlp::sort_heap</text>
</a>
</g>
</g>
<!-- Node1&#45;&gt;Node7 -->
<g id="edge6" class="edge"><title>Node1&#45;&gt;Node7</title>
<path fill="none" stroke="midnightblue" d="M62.2569,-57.4595C82.77,-48.2528 114.047,-34.2153 137.269,-23.7926"/>
<polygon fill="midnightblue" stroke="midnightblue" points="138.984,-26.8595 146.674,-19.5716 136.117,-20.4732 138.984,-26.8595"/>
</g>
<!-- Node5 -->
<g id="node5" class="node"><title>Node5</title>
<g id="a_node5"><a xlink:href="../../d5/dca/namespacewlp.html#a4d2da3668dcec610a030107c3903d2df" target="_top" xlink:title="wlp::__adjust_heap">
<polygon fill="white" stroke="black" points="508.5,-19.5 508.5,-38.5 609.5,-38.5 609.5,-19.5 508.5,-19.5"/>
<text text-anchor="middle" x="559" y="-26.5" font-family="Helvetica,sans-Serif" font-size="10.00">wlp::__adjust_heap</text>
</a>
</g>
</g>
<!-- Node4&#45;&gt;Node5 -->
<g id="edge4" class="edge"><title>Node4&#45;&gt;Node5</title>
<path fill="none" stroke="midnightblue" d="M346.257,-44.7769C388.002,-41.6665 451.555,-36.9312 498.145,-33.4598"/>
<polygon fill="midnightblue" stroke="midnightblue" points="498.696,-36.9285 508.408,-32.6951 498.176,-29.9479 498.696,-36.9285"/>
</g>
<!-- Node6 -->
<g id="node6" class="node"><title>Node6</title>
<g id="a_node6"><a xlink:href="../../d5/dca/namespacewlp.html#a903253da340cffc0160b9887f2b80b8c" target="_top" xlink:title="wlp::__push_heap">
<polygon fill="white" stroke="black" points="646.5,-19.5 646.5,-38.5 741.5,-38.5 741.5,-19.5 646.5,-19.5"/>
<text text-anchor="middle" x="694" y="-26.5" font-family="Helvetica,sans-Serif" font-size="10.00">wlp::__push_heap</text>
</a>
</g>
</g>
<!-- Node5&#45;&gt;Node6 -->
<g id="edge5" class="edge"><title>Node5&#45;&gt;Node6</title>
<path fill="none" stroke="midnightblue" d="M609.524,-29C618.124,-29 627.129,-29 635.911,-29"/>
<polygon fill="midnightblue" stroke="midnightblue" points="636.08,-32.5001 646.08,-29 636.08,-25.5001 636.08,-32.5001"/>
</g>
<!-- Node8 -->
<g id="node8" class="node"><title>Node8</title>
<g id="a_node8"><a xlink:href="../../d5/dca/namespacewlp.html#aedb76bc9547f573d794889862528d16e" target="_top" xlink:title="wlp::pop_heap">
<polygon fill="white" stroke="black" points="262,-0.5 262,-19.5 342,-19.5 342,-0.5 262,-0.5"/>
<text text-anchor="middle" x="302" y="-7.5" font-family="Helvetica,sans-Serif" font-size="10.00">wlp::pop_heap</text>
</a>
</g>
</g>
<!-- Node7&#45;&gt;Node8 -->
<g id="edge7" class="edge"><title>Node7&#45;&gt;Node8</title>
<path fill="none" stroke="midnightblue" d="M209.304,-10C222.517,-10 237.432,-10 251.334,-10"/>
<polygon fill="midnightblue" stroke="midnightblue" points="251.723,-13.5001 261.723,-10 251.723,-6.5001 251.723,-13.5001"/>
</g>
<!-- Node9 -->
<g id="node9" class="node"><title>Node9</title>
<g id="a_node9"><a xlink:href="../../d5/dca/namespacewlp.html#a8e7c749cafcbbe652b4f0672b7565f5b" target="_top" xlink:title="wlp::__pop_heap">
<polygon fill="white" stroke="black" points="382,-0.5 382,-19.5 472,-19.5 472,-0.5 382,-0.5"/>
<text text-anchor="middle" x="427" y="-7.5" font-family="Helvetica,sans-Serif" font-size="10.00">wlp::__pop_heap</text>
</a>
</g>
</g>
<!-- Node8&#45;&gt;Node9 -->
<g id="edge8" class="edge"><title>Node8&#45;&gt;Node9</title>
<path fill="none" stroke="midnightblue" d="M342.256,-10C351.649,-10 361.841,-10 371.777,-10"/>
<polygon fill="midnightblue" stroke="midnightblue" points="371.993,-13.5001 381.993,-10 371.993,-6.5001 371.993,-13.5001"/>
</g>
<!-- Node9&#45;&gt;Node5 -->
<g id="edge9" class="edge"><title>Node9&#45;&gt;Node5</title>
<path fill="none" stroke="midnightblue" d="M472.012,-16.4325C480.468,-17.6684 489.455,-18.9819 498.309,-20.276"/>
<polygon fill="midnightblue" stroke="midnightblue" points="497.814,-23.7407 508.215,-21.7237 498.826,-16.8142 497.814,-23.7407"/>
</g>
</g>
</svg>
