<?xml version="1.0" encoding="UTF-8" standalone="no"?>
<!DOCTYPE svg PUBLIC "-//W3C//DTD SVG 1.1//EN"
 "http://www.w3.org/Graphics/SVG/1.1/DTD/svg11.dtd">
<!-- Generated by graphviz version 2.36.0 (20140111.2315)
 -->
<!-- Title: wlp::pop_heap Pages: 1 -->
<svg width="348pt" height="66pt"
 viewBox="0.00 0.00 348.00 66.00" xmlns="http://www.w3.org/2000/svg" xmlns:xlink="http://www.w3.org/1999/xlink">
<g id="graph0" class="graph" transform="scale(1 1) rotate(0) translate(4 62)">
<title>wlp::pop_heap</title>
<polygon fill="white" stroke="none" points="-4,4 -4,-62 344,-62 344,4 -4,4"/>
<!-- Node1 -->
<g id="node1" class="node"><title>Node1</title>
<polygon fill="#bfbfbf" stroke="black" points="0,-19.5 0,-38.5 80,-38.5 80,-19.5 0,-19.5"/>
<text text-anchor="middle" x="40" y="-26.5" font-family="Helvetica,sans-Serif" font-size="10.00">wlp::pop_heap</text>
</g>
<!-- Node2 -->
<g id="node2" class="node"><title>Node2</title>
<g id="a_node2"><a xlink:href="../../d5/d92/classwlp_1_1array__heap.html#acdb595ade20c63a48846e5ffedb85276" target="_top" xlink:title="wlp::array_heap::pop">
<polygon fill="white" stroke="black" points="116.5,-38.5 116.5,-57.5 223.5,-57.5 223.5,-38.5 116.5,-38.5"/>
<text text-anchor="middle" x="170" y="-45.5" font-family="Helvetica,sans-Serif" font-size="10.00">wlp::array_heap::pop</text>
</a>
</g>
</g>
<!-- Node1&#45;&gt;Node2 -->
<g id="edge1" class="edge"><title>Node1&#45;&gt;Node2</title>
<path fill="none" stroke="midnightblue" d="M90.036,-36.2788C98.6862,-37.5628 107.723,-38.9041 116.464,-40.2017"/>
<polygon fill="midnightblue" stroke="midnightblue" points="90.5053,-32.8102 80.0997,-34.8039 89.4774,-39.7343 90.5053,-32.8102"/>
</g>
<!-- Node3 -->
<g id="node3" class="node"><title>Node3</title>
<g id="a_node3"><a xlink:href="../../d5/dca/namespacewlp.html#a664313ed82edafa1cf6c2e9c1c75378a" target="_top" xlink:title="wlp::sort_heap">
<polygon fill="white" stroke="black" points="130,-0.5 130,-19.5 210,-19.5 210,-0.5 130,-0.5"/>
<text text-anchor="middle" x="170" y="-7.5" font-family="Helvetica,sans-Serif" font-size="10.00">wlp::sort_heap</text>
</a>
</g>
</g>
<!-- Node1&#45;&gt;Node3 -->
<g id="edge2" class="edge"><title>Node1&#45;&gt;Node3</title>
<path fill="none" stroke="midnightblue" d="M90.329,-21.6777C103.369,-19.7421 117.268,-17.679 129.699,-15.8338"/>
<polygon fill="midnightblue" stroke="midnightblue" points="89.4774,-18.2657 80.0997,-23.1961 90.5053,-25.1898 89.4774,-18.2657"/>
</g>
<!-- Node4 -->
<g id="node4" class="node"><title>Node4</title>
<g id="a_node4"><a xlink:href="../../d5/dca/namespacewlp.html#ac5b878c0fe198ce97804014fc7021641" target="_top" xlink:title="wlp::heap_sort">
<polygon fill="white" stroke="black" points="260,-0.5 260,-19.5 340,-19.5 340,-0.5 260,-0.5"/>
<text text-anchor="middle" x="300" y="-7.5" font-family="Helvetica,sans-Serif" font-size="10.00">wlp::heap_sort</text>
</a>
</g>
</g>
<!-- Node3&#45;&gt;Node4 -->
<g id="edge3" class="edge"><title>Node3&#45;&gt;Node4</title>
<path fill="none" stroke="midnightblue" d="M220.329,-10C233.369,-10 247.268,-10 259.699,-10"/>
<polygon fill="midnightblue" stroke="midnightblue" points="220.1,-6.5001 210.1,-10 220.1,-13.5001 220.1,-6.5001"/>
</g>
</g>
</svg>
