<?xml version="1.0" encoding="UTF-8" standalone="no"?>
<!DOCTYPE svg PUBLIC "-//W3C//DTD SVG 1.1//EN"
 "http://www.w3.org/Graphics/SVG/1.1/DTD/svg11.dtd">
<!-- Generated by graphviz version 2.36.0 (20140111.2315)
 -->
<!-- Title: wlp::__pop_heap Pages: 1 -->
<svg width="368pt" height="28pt"
 viewBox="0.00 0.00 368.00 28.00" xmlns="http://www.w3.org/2000/svg" xmlns:xlink="http://www.w3.org/1999/xlink">
<g id="graph0" class="graph" transform="scale(1 1) rotate(0) translate(4 24)">
<title>wlp::__pop_heap</title>
<polygon fill="white" stroke="none" points="-4,4 -4,-24 364,-24 364,4 -4,4"/>
<!-- Node1 -->
<g id="node1" class="node"><title>Node1</title>
<polygon fill="#bfbfbf" stroke="black" points="0,-0.5 0,-19.5 90,-19.5 90,-0.5 0,-0.5"/>
<text text-anchor="middle" x="45" y="-7.5" font-family="Helvetica,sans-Serif" font-size="10.00">wlp::__pop_heap</text>
</g>
<!-- Node2 -->
<g id="node2" class="node"><title>Node2</title>
<g id="a_node2"><a xlink:href="../../d5/dca/namespacewlp.html#a4d2da3668dcec610a030107c3903d2df" target="_top" xlink:title="wlp::__adjust_heap">
<polygon fill="white" stroke="black" points="126.5,-0.5 126.5,-19.5 227.5,-19.5 227.5,-0.5 126.5,-0.5"/>
<text text-anchor="middle" x="177" y="-7.5" font-family="Helvetica,sans-Serif" font-size="10.00">wlp::__adjust_heap</text>
</a>
</g>
</g>
<!-- Node1&#45;&gt;Node2 -->
<g id="edge1" class="edge"><title>Node1&#45;&gt;Node2</title>
<path fill="none" stroke="midnightblue" d="M90.0121,-10C98.3771,-10 107.262,-10 116.024,-10"/>
<polygon fill="midnightblue" stroke="midnightblue" points="116.215,-13.5001 126.215,-10 116.215,-6.5001 116.215,-13.5001"/>
</g>
<!-- Node3 -->
<g id="node3" class="node"><title>Node3</title>
<g id="a_node3"><a xlink:href="../../d5/dca/namespacewlp.html#a903253da340cffc0160b9887f2b80b8c" target="_top" xlink:title="wlp::__push_heap">
<polygon fill="white" stroke="black" points="264.5,-0.5 264.5,-19.5 359.5,-19.5 359.5,-0.5 264.5,-0.5"/>
<text text-anchor="middle" x="312" y="-7.5" font-family="Helvetica,sans-Serif" font-size="10.00">wlp::__push_heap</text>
</a>
</g>
</g>
<!-- Node2&#45;&gt;Node3 -->
<g id="edge2" class="edge"><title>Node2&#45;&gt;Node3</title>
<path fill="none" stroke="midnightblue" d="M227.524,-10C236.124,-10 245.129,-10 253.911,-10"/>
<polygon fill="midnightblue" stroke="midnightblue" points="254.08,-13.5001 264.08,-10 254.08,-6.5001 254.08,-13.5001"/>
</g>
</g>
</svg>
