<?xml version="1.0" encoding="UTF-8" standalone="no"?>
<!DOCTYPE svg PUBLIC "-//W3C//DTD SVG 1.1//EN"
 "http://www.w3.org/Graphics/SVG/1.1/DTD/svg11.dtd">
<!-- Generated by graphviz version 2.36.0 (20140111.2315)
 -->
<!-- Title: wlp::__pop_heap Pages: 1 -->
<svg width="474pt" height="66pt"
 viewBox="0.00 0.00 474.00 66.00" xmlns="http://www.w3.org/2000/svg" xmlns:xlink="http://www.w3.org/1999/xlink">
<g id="graph0" class="graph" transform="scale(1 1) rotate(0) translate(4 62)">
<title>wlp::__pop_heap</title>
<polygon fill="white" stroke="none" points="-4,4 -4,-62 470,-62 470,4 -4,4"/>
<!-- Node1 -->
<g id="node1" class="node"><title>Node1</title>
<polygon fill="#bfbfbf" stroke="black" points="0,-19.5 0,-38.5 90,-38.5 90,-19.5 0,-19.5"/>
<text text-anchor="middle" x="45" y="-26.5" font-family="Helvetica,sans-Serif" font-size="10.00">wlp::__pop_heap</text>
</g>
<!-- Node2 -->
<g id="node2" class="node"><title>Node2</title>
<g id="a_node2"><a xlink:href="../../d5/dca/namespacewlp.html#aedb76bc9547f573d794889862528d16e" target="_top" xlink:title="wlp::pop_heap">
<polygon fill="white" stroke="black" points="126,-19.5 126,-38.5 206,-38.5 206,-19.5 126,-19.5"/>
<text text-anchor="middle" x="166" y="-26.5" font-family="Helvetica,sans-Serif" font-size="10.00">wlp::pop_heap</text>
</a>
</g>
</g>
<!-- Node1&#45;&gt;Node2 -->
<g id="edge1" class="edge"><title>Node1&#45;&gt;Node2</title>
<path fill="none" stroke="midnightblue" d="M100.558,-29C109.052,-29 117.681,-29 125.746,-29"/>
<polygon fill="midnightblue" stroke="midnightblue" points="100.311,-25.5001 90.3112,-29 100.311,-32.5001 100.311,-25.5001"/>
</g>
<!-- Node3 -->
<g id="node3" class="node"><title>Node3</title>
<g id="a_node3"><a xlink:href="../../d5/dca/namespacewlp.html#a664313ed82edafa1cf6c2e9c1c75378a" target="_top" xlink:title="wlp::sort_heap">
<polygon fill="white" stroke="black" points="256,-38.5 256,-57.5 336,-57.5 336,-38.5 256,-38.5"/>
<text text-anchor="middle" x="296" y="-45.5" font-family="Helvetica,sans-Serif" font-size="10.00">wlp::sort_heap</text>
</a>
</g>
</g>
<!-- Node2&#45;&gt;Node3 -->
<g id="edge2" class="edge"><title>Node2&#45;&gt;Node3</title>
<path fill="none" stroke="midnightblue" d="M216.329,-36.3223C229.369,-38.2579 243.268,-40.321 255.699,-42.1662"/>
<polygon fill="midnightblue" stroke="midnightblue" points="216.505,-32.8102 206.1,-34.8039 215.477,-39.7343 216.505,-32.8102"/>
</g>
<!-- Node5 -->
<g id="node5" class="node"><title>Node5</title>
<g id="a_node5"><a xlink:href="../../d5/d92/classwlp_1_1array__heap.html#acdb595ade20c63a48846e5ffedb85276" target="_top" xlink:title="wlp::array_heap::pop">
<polygon fill="white" stroke="black" points="242.5,-0.5 242.5,-19.5 349.5,-19.5 349.5,-0.5 242.5,-0.5"/>
<text text-anchor="middle" x="296" y="-7.5" font-family="Helvetica,sans-Serif" font-size="10.00">wlp::array_heap::pop</text>
</a>
</g>
</g>
<!-- Node2&#45;&gt;Node5 -->
<g id="edge4" class="edge"><title>Node2&#45;&gt;Node5</title>
<path fill="none" stroke="midnightblue" d="M216.036,-21.7212C224.686,-20.4372 233.723,-19.0959 242.464,-17.7983"/>
<polygon fill="midnightblue" stroke="midnightblue" points="215.477,-18.2657 206.1,-23.1961 216.505,-25.1898 215.477,-18.2657"/>
</g>
<!-- Node4 -->
<g id="node4" class="node"><title>Node4</title>
<g id="a_node4"><a xlink:href="../../d5/dca/namespacewlp.html#ac5b878c0fe198ce97804014fc7021641" target="_top" xlink:title="wlp::heap_sort">
<polygon fill="white" stroke="black" points="386,-38.5 386,-57.5 466,-57.5 466,-38.5 386,-38.5"/>
<text text-anchor="middle" x="426" y="-45.5" font-family="Helvetica,sans-Serif" font-size="10.00">wlp::heap_sort</text>
</a>
</g>
</g>
<!-- Node3&#45;&gt;Node4 -->
<g id="edge3" class="edge"><title>Node3&#45;&gt;Node4</title>
<path fill="none" stroke="midnightblue" d="M346.329,-48C359.369,-48 373.268,-48 385.699,-48"/>
<polygon fill="midnightblue" stroke="midnightblue" points="346.1,-44.5001 336.1,-48 346.1,-51.5001 346.1,-44.5001"/>
</g>
</g>
</svg>
