<?xml version="1.0" encoding="UTF-8" standalone="no"?>
<!DOCTYPE svg PUBLIC "-//W3C//DTD SVG 1.1//EN"
 "http://www.w3.org/Graphics/SVG/1.1/DTD/svg11.dtd">
<!-- Generated by graphviz version 2.38.0 (20140413.2041)
 -->
<!-- Title: wlp::pow_const Pages: 1 -->
<svg width="321pt" height="66pt"
 viewBox="0.00 0.00 321.00 66.00" xmlns="http://www.w3.org/2000/svg" xmlns:xlink="http://www.w3.org/1999/xlink">
<g id="graph0" class="graph" transform="scale(1 1) rotate(0) translate(4 62)">
<title>wlp::pow_const</title>
<polygon fill="white" stroke="none" points="-4,4 -4,-62 317,-62 317,4 -4,4"/>
<!-- Node278 -->
<g id="node1" class="node"><title>Node278</title>
<polygon fill="#bfbfbf" stroke="black" points="0,-19.5 0,-38.5 83,-38.5 83,-19.5 0,-19.5"/>
<text text-anchor="middle" x="41.5" y="-26.5" font-family="Helvetica,sans-Serif" font-size="10.00">wlp::pow_const</text>
</g>
<!-- Node279 -->
<g id="node2" class="node"><title>Node279</title>
<g id="a_node2"><a xlink:href="../../d3/de6/_memory_8h.html#a449842ab76bd106ec789d778081bbb72" target="_top" xlink:title="getSmallestBlockSize">
<polygon fill="white" stroke="black" points="119,-19.5 119,-38.5 232,-38.5 232,-19.5 119,-19.5"/>
<text text-anchor="middle" x="175.5" y="-26.5" font-family="Helvetica,sans-Serif" font-size="10.00">getSmallestBlockSize</text>
</a>
</g>
</g>
<!-- Node278&#45;&gt;Node279 -->
<g id="edge1" class="edge"><title>Node278&#45;&gt;Node279</title>
<path fill="none" stroke="midnightblue" d="M93.4283,-29C101.692,-29 110.288,-29 118.661,-29"/>
<polygon fill="midnightblue" stroke="midnightblue" points="93.1815,-25.5001 83.1814,-29 93.1814,-32.5001 93.1815,-25.5001"/>
</g>
<!-- Node280 -->
<g id="node3" class="node"><title>Node280</title>
<g id="a_node3"><a xlink:href="../../d3/de6/_memory_8h.html#a8d8f3aabf2f8d9c20d03a917f7dd3c91" target="_top" xlink:title="free">
<polygon fill="white" stroke="black" points="274.5,-38.5 274.5,-57.5 306.5,-57.5 306.5,-38.5 274.5,-38.5"/>
<text text-anchor="middle" x="290.5" y="-45.5" font-family="Helvetica,sans-Serif" font-size="10.00">free</text>
</a>
</g>
</g>
<!-- Node279&#45;&gt;Node280 -->
<g id="edge2" class="edge"><title>Node279&#45;&gt;Node280</title>
<path fill="none" stroke="midnightblue" d="M242.227,-40.0515C254.293,-42.0802 265.781,-44.0118 274.41,-45.4628"/>
<polygon fill="midnightblue" stroke="midnightblue" points="242.449,-36.5397 232.007,-38.333 241.288,-43.4428 242.449,-36.5397"/>
</g>
<!-- Node281 -->
<g id="node4" class="node"><title>Node281</title>
<g id="a_node4"><a xlink:href="../../d3/de6/_memory_8h.html#a50569d96c5b87927563caa7281eb9a8a" target="_top" xlink:title="realloc">
<polygon fill="white" stroke="black" points="268,-0.5 268,-19.5 313,-19.5 313,-0.5 268,-0.5"/>
<text text-anchor="middle" x="290.5" y="-7.5" font-family="Helvetica,sans-Serif" font-size="10.00">realloc</text>
</a>
</g>
</g>
<!-- Node279&#45;&gt;Node281 -->
<g id="edge3" class="edge"><title>Node279&#45;&gt;Node281</title>
<path fill="none" stroke="midnightblue" d="M242.114,-17.9676C251.351,-16.4144 260.255,-14.9172 267.802,-13.6483"/>
<polygon fill="midnightblue" stroke="midnightblue" points="241.288,-14.5572 232.007,-19.667 242.449,-21.4603 241.288,-14.5572"/>
</g>
</g>
</svg>
