<?xml version="1.0" encoding="UTF-8" standalone="no"?>
<!DOCTYPE svg PUBLIC "-//W3C//DTD SVG 1.1//EN"
 "http://www.w3.org/Graphics/SVG/1.1/DTD/svg11.dtd">
<!-- Generated by graphviz version 2.38.0 (20140413.2041)
 -->
<!-- Title: wlp::make_tuple Pages: 1 -->
<svg width="497pt" height="28pt"
 viewBox="0.00 0.00 497.00 28.00" xmlns="http://www.w3.org/2000/svg" xmlns:xlink="http://www.w3.org/1999/xlink">
<g id="graph0" class="graph" transform="scale(1 1) rotate(0) translate(4 24)">
<title>wlp::make_tuple</title>
<polygon fill="white" stroke="none" points="-4,4 -4,-24 493,-24 493,4 -4,4"/>
<!-- Node154 -->
<g id="node1" class="node"><title>Node154</title>
<polygon fill="#bfbfbf" stroke="black" points="0,-0.5 0,-19.5 87,-19.5 87,-0.5 0,-0.5"/>
<text text-anchor="middle" x="43.5" y="-7.5" font-family="Helvetica,sans-Serif" font-size="10.00">wlp::make_tuple</text>
</g>
<!-- Node155 -->
<g id="node2" class="node"><title>Node155</title>
<g id="a_node2"><a xlink:href="../../d5/dca/namespacewlp.html#ae9d748a1e31ab60b77e177f6cfdbe150" target="_top" xlink:title="wlp::tuple_cat_pair_sub">
<polygon fill="white" stroke="black" points="123,-0.5 123,-19.5 242,-19.5 242,-0.5 123,-0.5"/>
<text text-anchor="middle" x="182.5" y="-7.5" font-family="Helvetica,sans-Serif" font-size="10.00">wlp::tuple_cat_pair_sub</text>
</a>
</g>
</g>
<!-- Node154&#45;&gt;Node155 -->
<g id="edge1" class="edge"><title>Node154&#45;&gt;Node155</title>
<path fill="none" stroke="midnightblue" d="M97.1458,-10C105.551,-10 114.294,-10 122.828,-10"/>
<polygon fill="midnightblue" stroke="midnightblue" points="97.0967,-6.5001 87.0967,-10 97.0966,-13.5001 97.0967,-6.5001"/>
</g>
<!-- Node156 -->
<g id="node3" class="node"><title>Node156</title>
<g id="a_node3"><a xlink:href="../../d5/dca/namespacewlp.html#a447cceb8493717b7192963b2266d1553" target="_top" xlink:title="wlp::tuple_cat_pair">
<polygon fill="white" stroke="black" points="278,-0.5 278,-19.5 376,-19.5 376,-0.5 278,-0.5"/>
<text text-anchor="middle" x="327" y="-7.5" font-family="Helvetica,sans-Serif" font-size="10.00">wlp::tuple_cat_pair</text>
</a>
</g>
</g>
<!-- Node155&#45;&gt;Node156 -->
<g id="edge2" class="edge"><title>Node155&#45;&gt;Node156</title>
<path fill="none" stroke="midnightblue" d="M252.327,-10C260.926,-10 269.573,-10 277.765,-10"/>
<polygon fill="midnightblue" stroke="midnightblue" points="252.283,-6.5001 242.283,-10 252.283,-13.5001 252.283,-6.5001"/>
</g>
<!-- Node157 -->
<g id="node4" class="node"><title>Node157</title>
<g id="a_node4"><a xlink:href="../../d5/dca/namespacewlp.html#afdd2db039584f8a0aafea650ffa9299b" target="_top" xlink:title="wlp::tuple_cat">
<polygon fill="white" stroke="black" points="412,-0.5 412,-19.5 489,-19.5 489,-0.5 412,-0.5"/>
<text text-anchor="middle" x="450.5" y="-7.5" font-family="Helvetica,sans-Serif" font-size="10.00">wlp::tuple_cat</text>
</a>
</g>
</g>
<!-- Node156&#45;&gt;Node157 -->
<g id="edge3" class="edge"><title>Node156&#45;&gt;Node157</title>
<path fill="none" stroke="midnightblue" d="M386.213,-10C394.961,-10 403.779,-10 411.941,-10"/>
<polygon fill="midnightblue" stroke="midnightblue" points="386.02,-6.5001 376.02,-10 386.02,-13.5001 386.02,-6.5001"/>
</g>
</g>
</svg>
