<?xml version="1.0" encoding="UTF-8" standalone="no"?>
<!DOCTYPE svg PUBLIC "-//W3C//DTD SVG 1.1//EN"
 "http://www.w3.org/Graphics/SVG/1.1/DTD/svg11.dtd">
<!-- Generated by graphviz version 2.36.0 (20140111.2315)
 -->
<!-- Title: wlp::pop_heap Pages: 1 -->
<svg width="346pt" height="66pt"
 viewBox="0.00 0.00 346.00 66.00" xmlns="http://www.w3.org/2000/svg" xmlns:xlink="http://www.w3.org/1999/xlink">
<g id="graph0" class="graph" transform="scale(1 1) rotate(0) translate(4 62)">
<title>wlp::pop_heap</title>
<polygon fill="white" stroke="none" points="-4,4 -4,-62 342,-62 342,4 -4,4"/>
<!-- Node1 -->
<g id="node1" class="node"><title>Node1</title>
<polygon fill="#bfbfbf" stroke="black" points="0,-19.5 0,-38.5 80,-38.5 80,-19.5 0,-19.5"/>
<text text-anchor="middle" x="40" y="-26.5" font-family="Helvetica,sans-Serif" font-size="10.00">wlp::pop_heap</text>
</g>
<!-- Node2 -->
<g id="node2" class="node"><title>Node2</title>
<g id="a_node2"><a xlink:href="../../dd/dd6/classwlp_1_1_array_heap.html#a98362b142533a56d1b2e0a35acd944d7" target="_top" xlink:title="wlp::ArrayHeap::pop">
<polygon fill="white" stroke="black" points="116,-38.5 116,-57.5 222,-57.5 222,-38.5 116,-38.5"/>
<text text-anchor="middle" x="169" y="-45.5" font-family="Helvetica,sans-Serif" font-size="10.00">wlp::ArrayHeap::pop</text>
</a>
</g>
</g>
<!-- Node1&#45;&gt;Node2 -->
<g id="edge1" class="edge"><title>Node1&#45;&gt;Node2</title>
<path fill="none" stroke="midnightblue" d="M90.1317,-36.3504C98.5,-37.6024 107.22,-38.9069 115.667,-40.1706"/>
<polygon fill="midnightblue" stroke="midnightblue" points="90.5483,-32.8739 80.1405,-34.8557 89.5125,-39.7968 90.5483,-32.8739"/>
</g>
<!-- Node3 -->
<g id="node3" class="node"><title>Node3</title>
<g id="a_node3"><a xlink:href="../../d5/dca/namespacewlp.html#a664313ed82edafa1cf6c2e9c1c75378a" target="_top" xlink:title="wlp::sort_heap">
<polygon fill="white" stroke="black" points="129,-0.5 129,-19.5 209,-19.5 209,-0.5 129,-0.5"/>
<text text-anchor="middle" x="169" y="-7.5" font-family="Helvetica,sans-Serif" font-size="10.00">wlp::sort_heap</text>
</a>
</g>
</g>
<!-- Node1&#45;&gt;Node3 -->
<g id="edge2" class="edge"><title>Node1&#45;&gt;Node3</title>
<path fill="none" stroke="midnightblue" d="M90.1783,-21.6426C102.966,-19.7295 116.571,-17.694 128.77,-15.869"/>
<polygon fill="midnightblue" stroke="midnightblue" points="89.5125,-18.2032 80.1405,-23.1443 90.5483,-25.1261 89.5125,-18.2032"/>
</g>
<!-- Node4 -->
<g id="node4" class="node"><title>Node4</title>
<g id="a_node4"><a xlink:href="../../d5/dca/namespacewlp.html#a2329b0c52ca1a59525aea1d75476ef10" target="_top" xlink:title="wlp::heap_sort">
<polygon fill="white" stroke="black" points="258,-0.5 258,-19.5 338,-19.5 338,-0.5 258,-0.5"/>
<text text-anchor="middle" x="298" y="-7.5" font-family="Helvetica,sans-Serif" font-size="10.00">wlp::heap_sort</text>
</a>
</g>
</g>
<!-- Node3&#45;&gt;Node4 -->
<g id="edge3" class="edge"><title>Node3&#45;&gt;Node4</title>
<path fill="none" stroke="midnightblue" d="M219.178,-10C231.966,-10 245.571,-10 257.77,-10"/>
<polygon fill="midnightblue" stroke="midnightblue" points="219.141,-6.5001 209.14,-10 219.14,-13.5001 219.141,-6.5001"/>
</g>
</g>
</svg>
