<?xml version="1.0" encoding="UTF-8" standalone="no"?>
<!DOCTYPE svg PUBLIC "-//W3C//DTD SVG 1.1//EN"
 "http://www.w3.org/Graphics/SVG/1.1/DTD/svg11.dtd">
<!-- Generated by graphviz version 2.36.0 (20140111.2315)
 -->
<!-- Title: wlp::heap_sort Pages: 1 -->
<svg width="752pt" height="142pt"
 viewBox="0.00 0.00 752.00 142.00" xmlns="http://www.w3.org/2000/svg" xmlns:xlink="http://www.w3.org/1999/xlink">
<g id="graph0" class="graph" transform="scale(1 1) rotate(0) translate(4 138)">
<title>wlp::heap_sort</title>
<polygon fill="white" stroke="none" points="-4,4 -4,-138 748,-138 748,4 -4,4"/>
<!-- Node1 -->
<g id="node1" class="node"><title>Node1</title>
<polygon fill="#bfbfbf" stroke="black" points="0,-57.5 0,-76.5 80,-76.5 80,-57.5 0,-57.5"/>
<text text-anchor="middle" x="40" y="-64.5" font-family="Helvetica,sans-Serif" font-size="10.00">wlp::heap_sort</text>
</g>
<!-- Node2 -->
<g id="node2" class="node"><title>Node2</title>
<g id="a_node2"><a xlink:href="../../d3/dc1/classwlp_1_1array__list.html#a0a910ed7a8b29ae26dd26b8cf3c9cd0d" target="_top" xlink:title="wlp::array_list::begin">
<polygon fill="white" stroke="black" points="116.5,-114.5 116.5,-133.5 223.5,-133.5 223.5,-114.5 116.5,-114.5"/>
<text text-anchor="middle" x="170" y="-121.5" font-family="Helvetica,sans-Serif" font-size="10.00">wlp::array_list::begin</text>
</a>
</g>
</g>
<!-- Node1&#45;&gt;Node2 -->
<g id="edge1" class="edge"><title>Node1&#45;&gt;Node2</title>
<path fill="none" stroke="midnightblue" d="M58.2844,-76.5348C73.2998,-84.6287 95.7558,-96.2831 116,-105 120.76,-107.049 125.821,-109.065 130.855,-110.973"/>
<polygon fill="midnightblue" stroke="midnightblue" points="129.821,-114.322 140.415,-114.489 132.238,-107.752 129.821,-114.322"/>
</g>
<!-- Node3 -->
<g id="node3" class="node"><title>Node3</title>
<g id="a_node3"><a xlink:href="../../d3/dc1/classwlp_1_1array__list.html#af71bb6069b5019a84232a444553afdc4" target="_top" xlink:title="wlp::array_list::end">
<polygon fill="white" stroke="black" points="120.5,-76.5 120.5,-95.5 219.5,-95.5 219.5,-76.5 120.5,-76.5"/>
<text text-anchor="middle" x="170" y="-83.5" font-family="Helvetica,sans-Serif" font-size="10.00">wlp::array_list::end</text>
</a>
</g>
</g>
<!-- Node1&#45;&gt;Node3 -->
<g id="edge2" class="edge"><title>Node1&#45;&gt;Node3</title>
<path fill="none" stroke="midnightblue" d="M80.0997,-72.8039C89.5839,-74.2117 99.9323,-75.7478 110.107,-77.2581"/>
<polygon fill="midnightblue" stroke="midnightblue" points="109.781,-80.7479 120.186,-78.7542 110.809,-73.8238 109.781,-80.7479"/>
</g>
<!-- Node4 -->
<g id="node4" class="node"><title>Node4</title>
<g id="a_node4"><a xlink:href="../../d5/dca/namespacewlp.html#ad8927f7af1e3363214a8d9b186531078" target="_top" xlink:title="wlp::make_heap">
<polygon fill="white" stroke="black" points="260,-38.5 260,-57.5 348,-57.5 348,-38.5 260,-38.5"/>
<text text-anchor="middle" x="304" y="-45.5" font-family="Helvetica,sans-Serif" font-size="10.00">wlp::make_heap</text>
</a>
</g>
</g>
<!-- Node1&#45;&gt;Node4 -->
<g id="edge3" class="edge"><title>Node1&#45;&gt;Node4</title>
<path fill="none" stroke="midnightblue" d="M80.224,-64.1555C125.231,-60.8917 199.282,-55.5215 249.542,-51.8767"/>
<polygon fill="midnightblue" stroke="midnightblue" points="249.854,-55.3634 259.574,-51.1492 249.347,-48.3818 249.854,-55.3634"/>
</g>
<!-- Node7 -->
<g id="node7" class="node"><title>Node7</title>
<g id="a_node7"><a xlink:href="../../d5/dca/namespacewlp.html#a664313ed82edafa1cf6c2e9c1c75378a" target="_top" xlink:title="wlp::sort_heap">
<polygon fill="white" stroke="black" points="130,-0.5 130,-19.5 210,-19.5 210,-0.5 130,-0.5"/>
<text text-anchor="middle" x="170" y="-7.5" font-family="Helvetica,sans-Serif" font-size="10.00">wlp::sort_heap</text>
</a>
</g>
</g>
<!-- Node1&#45;&gt;Node7 -->
<g id="edge6" class="edge"><title>Node1&#45;&gt;Node7</title>
<path fill="none" stroke="midnightblue" d="M62.4243,-57.4595C83.1912,-48.2117 114.904,-34.0898 138.34,-23.6532"/>
<polygon fill="midnightblue" stroke="midnightblue" points="139.794,-26.837 147.506,-19.5716 136.947,-20.4424 139.794,-26.837"/>
</g>
<!-- Node5 -->
<g id="node5" class="node"><title>Node5</title>
<g id="a_node5"><a xlink:href="../../d5/dca/namespacewlp.html#a4d2da3668dcec610a030107c3903d2df" target="_top" xlink:title="wlp::__adjust_heap">
<polygon fill="white" stroke="black" points="510.5,-19.5 510.5,-38.5 611.5,-38.5 611.5,-19.5 510.5,-19.5"/>
<text text-anchor="middle" x="561" y="-26.5" font-family="Helvetica,sans-Serif" font-size="10.00">wlp::__adjust_heap</text>
</a>
</g>
</g>
<!-- Node4&#45;&gt;Node5 -->
<g id="edge4" class="edge"><title>Node4&#45;&gt;Node5</title>
<path fill="none" stroke="midnightblue" d="M348.257,-44.7769C390.002,-41.6665 453.555,-36.9312 500.145,-33.4598"/>
<polygon fill="midnightblue" stroke="midnightblue" points="500.696,-36.9285 510.408,-32.6951 500.176,-29.9479 500.696,-36.9285"/>
</g>
<!-- Node6 -->
<g id="node6" class="node"><title>Node6</title>
<g id="a_node6"><a xlink:href="../../d5/dca/namespacewlp.html#a903253da340cffc0160b9887f2b80b8c" target="_top" xlink:title="wlp::__push_heap">
<polygon fill="white" stroke="black" points="648.5,-19.5 648.5,-38.5 743.5,-38.5 743.5,-19.5 648.5,-19.5"/>
<text text-anchor="middle" x="696" y="-26.5" font-family="Helvetica,sans-Serif" font-size="10.00">wlp::__push_heap</text>
</a>
</g>
</g>
<!-- Node5&#45;&gt;Node6 -->
<g id="edge5" class="edge"><title>Node5&#45;&gt;Node6</title>
<path fill="none" stroke="midnightblue" d="M611.524,-29C620.124,-29 629.129,-29 637.911,-29"/>
<polygon fill="midnightblue" stroke="midnightblue" points="638.08,-32.5001 648.08,-29 638.08,-25.5001 638.08,-32.5001"/>
</g>
<!-- Node8 -->
<g id="node8" class="node"><title>Node8</title>
<g id="a_node8"><a xlink:href="../../d5/dca/namespacewlp.html#aedb76bc9547f573d794889862528d16e" target="_top" xlink:title="wlp::pop_heap">
<polygon fill="white" stroke="black" points="264,-0.5 264,-19.5 344,-19.5 344,-0.5 264,-0.5"/>
<text text-anchor="middle" x="304" y="-7.5" font-family="Helvetica,sans-Serif" font-size="10.00">wlp::pop_heap</text>
</a>
</g>
</g>
<!-- Node7&#45;&gt;Node8 -->
<g id="edge7" class="edge"><title>Node7&#45;&gt;Node8</title>
<path fill="none" stroke="midnightblue" d="M210.247,-10C223.823,-10 239.217,-10 253.507,-10"/>
<polygon fill="midnightblue" stroke="midnightblue" points="253.676,-13.5001 263.676,-10 253.676,-6.5001 253.676,-13.5001"/>
</g>
<!-- Node9 -->
<g id="node9" class="node"><title>Node9</title>
<g id="a_node9"><a xlink:href="../../d5/dca/namespacewlp.html#a8e7c749cafcbbe652b4f0672b7565f5b" target="_top" xlink:title="wlp::__pop_heap">
<polygon fill="white" stroke="black" points="384,-0.5 384,-19.5 474,-19.5 474,-0.5 384,-0.5"/>
<text text-anchor="middle" x="429" y="-7.5" font-family="Helvetica,sans-Serif" font-size="10.00">wlp::__pop_heap</text>
</a>
</g>
</g>
<!-- Node8&#45;&gt;Node9 -->
<g id="edge8" class="edge"><title>Node8&#45;&gt;Node9</title>
<path fill="none" stroke="midnightblue" d="M344.256,-10C353.649,-10 363.841,-10 373.777,-10"/>
<polygon fill="midnightblue" stroke="midnightblue" points="373.993,-13.5001 383.993,-10 373.993,-6.5001 373.993,-13.5001"/>
</g>
<!-- Node9&#45;&gt;Node5 -->
<g id="edge9" class="edge"><title>Node9&#45;&gt;Node5</title>
<path fill="none" stroke="midnightblue" d="M474.012,-16.4325C482.468,-17.6684 491.455,-18.9819 500.309,-20.276"/>
<polygon fill="midnightblue" stroke="midnightblue" points="499.814,-23.7407 510.215,-21.7237 500.826,-16.8142 499.814,-23.7407"/>
</g>
</g>
</svg>
