<?xml version="1.0" encoding="UTF-8" standalone="no"?>
<!DOCTYPE svg PUBLIC "-//W3C//DTD SVG 1.1//EN"
 "http://www.w3.org/Graphics/SVG/1.1/DTD/svg11.dtd">
<!-- Generated by graphviz version 2.36.0 (20140111.2315)
 -->
<!-- Title: wlp::operator!= Pages: 1 -->
<svg width="488pt" height="82pt"
 viewBox="0.00 0.00 488.00 82.00" xmlns="http://www.w3.org/2000/svg" xmlns:xlink="http://www.w3.org/1999/xlink">
<g id="graph0" class="graph" transform="scale(1 1) rotate(0) translate(4 78)">
<title>wlp::operator!=</title>
<polygon fill="white" stroke="none" points="-4,4 -4,-78 484,-78 484,4 -4,4"/>
<!-- Node1 -->
<g id="node1" class="node"><title>Node1</title>
<polygon fill="#bfbfbf" stroke="black" points="0,-27.5 0,-46.5 82,-46.5 82,-27.5 0,-27.5"/>
<text text-anchor="middle" x="41" y="-34.5" font-family="Helvetica,sans-Serif" font-size="10.00">wlp::operator!=</text>
</g>
<!-- Node2 -->
<g id="node2" class="node"><title>Node2</title>
<g id="a_node2"><a xlink:href="../../d7/d08/classwlp_1_1static__string.html#aa7bb64766e7d264064936f5b713e81b2" target="_top" xlink:title="wlp::static_string::at">
<polygon fill="white" stroke="black" points="118.5,-49.5 118.5,-68.5 223.5,-68.5 223.5,-49.5 118.5,-49.5"/>
<text text-anchor="middle" x="171" y="-56.5" font-family="Helvetica,sans-Serif" font-size="10.00">wlp::static_string::at</text>
</a>
</g>
</g>
<!-- Node1&#45;&gt;Node2 -->
<g id="edge1" class="edge"><title>Node1&#45;&gt;Node2</title>
<path fill="none" stroke="midnightblue" d="M82.1488,-43.9006C90.4588,-45.3289 99.3949,-46.8647 108.273,-48.3906"/>
<polygon fill="midnightblue" stroke="midnightblue" points="107.786,-51.8582 118.234,-50.1028 108.972,-44.9594 107.786,-51.8582"/>
</g>
<!-- Node5 -->
<g id="node5" class="node"><title>Node5</title>
<g id="a_node5"><a xlink:href="../../d7/d08/classwlp_1_1static__string.html#a56507a4939d6663a947a227503c40214" target="_top" xlink:title="wlp::static_string\l::length">
<polygon fill="white" stroke="black" points="125.5,-0 125.5,-30 216.5,-30 216.5,-0 125.5,-0"/>
<text text-anchor="start" x="133.5" y="-18" font-family="Helvetica,sans-Serif" font-size="10.00">wlp::static_string</text>
<text text-anchor="middle" x="171" y="-7" font-family="Helvetica,sans-Serif" font-size="10.00">::length</text>
</a>
</g>
</g>
<!-- Node1&#45;&gt;Node5 -->
<g id="edge4" class="edge"><title>Node1&#45;&gt;Node5</title>
<path fill="none" stroke="midnightblue" d="M82.1488,-30.0994C92.5896,-28.3049 104.019,-26.3406 115.078,-24.4396"/>
<polygon fill="midnightblue" stroke="midnightblue" points="115.83,-27.8619 125.093,-22.7184 114.644,-20.963 115.83,-27.8619"/>
</g>
<!-- Node3 -->
<g id="node3" class="node"><title>Node3</title>
<g id="a_node3"><a xlink:href="../../d7/d08/classwlp_1_1static__string.html#ad1a35fb09cf0d751c7a5fdff930ea09d" target="_top" xlink:title="wlp::static_string\l::back">
<polygon fill="white" stroke="black" points="260.5,-44 260.5,-74 351.5,-74 351.5,-44 260.5,-44"/>
<text text-anchor="start" x="268.5" y="-62" font-family="Helvetica,sans-Serif" font-size="10.00">wlp::static_string</text>
<text text-anchor="middle" x="306" y="-51" font-family="Helvetica,sans-Serif" font-size="10.00">::back</text>
</a>
</g>
</g>
<!-- Node2&#45;&gt;Node3 -->
<g id="edge2" class="edge"><title>Node2&#45;&gt;Node3</title>
<path fill="none" stroke="midnightblue" d="M223.802,-59C232.505,-59 241.56,-59 250.332,-59"/>
<polygon fill="midnightblue" stroke="midnightblue" points="250.462,-62.5001 260.462,-59 250.461,-55.5001 250.462,-62.5001"/>
</g>
<!-- Node4 -->
<g id="node4" class="node"><title>Node4</title>
<g id="a_node4"><a xlink:href="../../d7/d08/classwlp_1_1static__string.html#a6170dbcfa0f0e06339bcae7072c88944" target="_top" xlink:title="wlp::static_string\l::empty">
<polygon fill="white" stroke="black" points="388.5,-44 388.5,-74 479.5,-74 479.5,-44 388.5,-44"/>
<text text-anchor="start" x="396.5" y="-62" font-family="Helvetica,sans-Serif" font-size="10.00">wlp::static_string</text>
<text text-anchor="middle" x="434" y="-51" font-family="Helvetica,sans-Serif" font-size="10.00">::empty</text>
</a>
</g>
</g>
<!-- Node3&#45;&gt;Node4 -->
<g id="edge3" class="edge"><title>Node3&#45;&gt;Node4</title>
<path fill="none" stroke="midnightblue" d="M351.778,-59C360.319,-59 369.349,-59 378.162,-59"/>
<polygon fill="midnightblue" stroke="midnightblue" points="378.367,-62.5001 388.367,-59 378.366,-55.5001 378.367,-62.5001"/>
</g>
</g>
</svg>
