<?xml version="1.0" encoding="UTF-8" standalone="no"?>
<!DOCTYPE svg PUBLIC "-//W3C//DTD SVG 1.1//EN"
 "http://www.w3.org/Graphics/SVG/1.1/DTD/svg11.dtd">
<!-- Generated by graphviz version 2.38.0 (20140413.2041)
 -->
<!-- Title: wlp::find Pages: 1 -->
<svg width="239pt" height="165pt"
 viewBox="0.00 0.00 239.00 164.50" xmlns="http://www.w3.org/2000/svg" xmlns:xlink="http://www.w3.org/1999/xlink">
<g id="graph0" class="graph" transform="scale(1 1) rotate(0) translate(4 160.5)">
<title>wlp::find</title>
<polygon fill="white" stroke="none" points="-4,4 -4,-160.5 235,-160.5 235,4 -4,4"/>
<!-- Node60 -->
<g id="node1" class="node"><title>Node60</title>
<polygon fill="#bfbfbf" stroke="black" points="0,-60.5 0,-79.5 52,-79.5 52,-60.5 0,-60.5"/>
<text text-anchor="middle" x="26" y="-67.5" font-family="Helvetica,sans-Serif" font-size="10.00">wlp::find</text>
</g>
<!-- Node61 -->
<g id="node2" class="node"><title>Node61</title>
<g id="a_node2"><a xlink:href="../../d9/dc5/classwlp_1_1_chain_hash_map.html#a5355eebcd2b48914802589156fb0c4e2" target="_top" xlink:title="wlp::ChainHashMap\&lt;\l Key, Key, Hash, Equal \&gt;::at">
<polygon fill="white" stroke="black" points="88,-126 88,-156 231,-156 231,-126 88,-126"/>
<text text-anchor="start" x="96" y="-144" font-family="Helvetica,sans-Serif" font-size="10.00">wlp::ChainHashMap&lt;</text>
<text text-anchor="middle" x="159.5" y="-133" font-family="Helvetica,sans-Serif" font-size="10.00"> Key, Key, Hash, Equal &gt;::at</text>
</a>
</g>
</g>
<!-- Node60&#45;&gt;Node61 -->
<g id="edge1" class="edge"><title>Node60&#45;&gt;Node61</title>
<path fill="none" stroke="midnightblue" d="M45.1329,-86.5349C56.7238,-96.4295 72.452,-108.661 88,-117 94.1527,-120.3 100.847,-123.276 107.58,-125.917"/>
<polygon fill="midnightblue" stroke="midnightblue" points="47.313,-83.7916 37.4859,-79.8321 42.6989,-89.0557 47.313,-83.7916"/>
</g>
<!-- Node62 -->
<g id="node3" class="node"><title>Node62</title>
<g id="a_node3"><a xlink:href="../../d3/def/classwlp_1_1_red_black_tree.html#a7793eefdb0119eecad74fafc926b49dd" target="_top" xlink:title="wlp::RedBlackTree\&lt;\l Key, Key, Cmp \&gt;::clear">
<polygon fill="white" stroke="black" points="98.5,-77 98.5,-107 220.5,-107 220.5,-77 98.5,-77"/>
<text text-anchor="start" x="106.5" y="-95" font-family="Helvetica,sans-Serif" font-size="10.00">wlp::RedBlackTree&lt;</text>
<text text-anchor="middle" x="159.5" y="-84" font-family="Helvetica,sans-Serif" font-size="10.00"> Key, Key, Cmp &gt;::clear</text>
</a>
</g>
</g>
<!-- Node60&#45;&gt;Node62 -->
<g id="edge2" class="edge"><title>Node60&#45;&gt;Node62</title>
<path fill="none" stroke="midnightblue" d="M62.2031,-75.8895C73.3403,-77.7528 85.981,-79.8675 98.355,-81.9377"/>
<polygon fill="midnightblue" stroke="midnightblue" points="62.4841,-72.3879 52.0437,-74.1898 61.329,-79.292 62.4841,-72.3879"/>
</g>
<!-- Node63 -->
<g id="node4" class="node"><title>Node63</title>
<g id="a_node4"><a xlink:href="../../d5/dca/namespacewlp.html#a8537097006a0ed8ff02a92d90e194108" target="_top" xlink:title="wlp::find">
<polygon fill="white" stroke="black" points="133.5,-38.5 133.5,-57.5 185.5,-57.5 185.5,-38.5 133.5,-38.5"/>
<text text-anchor="middle" x="159.5" y="-45.5" font-family="Helvetica,sans-Serif" font-size="10.00">wlp::find</text>
</a>
</g>
</g>
<!-- Node60&#45;&gt;Node63 -->
<g id="edge3" class="edge"><title>Node60&#45;&gt;Node63</title>
<path fill="none" stroke="midnightblue" d="M62.1506,-64.1193C84.505,-60.3794 112.933,-55.6234 133.102,-52.2492"/>
<polygon fill="midnightblue" stroke="midnightblue" points="61.329,-60.708 52.0437,-65.8102 62.4841,-67.6121 61.329,-60.708"/>
</g>
<!-- Node64 -->
<g id="node5" class="node"><title>Node64</title>
<g id="a_node5"><a xlink:href="../../d5/dca/namespacewlp.html#af74e2bff16facf10f20f97ba305723e8" target="_top" xlink:title="wlp::get">
<polygon fill="white" stroke="black" points="134.5,-0.5 134.5,-19.5 184.5,-19.5 184.5,-0.5 134.5,-0.5"/>
<text text-anchor="middle" x="159.5" y="-7.5" font-family="Helvetica,sans-Serif" font-size="10.00">wlp::get</text>
</a>
</g>
</g>
<!-- Node60&#45;&gt;Node64 -->
<g id="edge4" class="edge"><title>Node60&#45;&gt;Node64</title>
<path fill="none" stroke="midnightblue" d="M46.9217,-54.1576C58.3858,-45.6874 73.3801,-35.661 88,-29 102.765,-22.2727 120.39,-17.5227 134.324,-14.4545"/>
<polygon fill="midnightblue" stroke="midnightblue" points="44.7504,-51.4117 38.9079,-60.25 48.9869,-56.9842 44.7504,-51.4117"/>
</g>
</g>
</svg>
