<?xml version="1.0" encoding="UTF-8" standalone="no"?>
<!DOCTYPE svg PUBLIC "-//W3C//DTD SVG 1.1//EN"
 "http://www.w3.org/Graphics/SVG/1.1/DTD/svg11.dtd">
<!-- Generated by graphviz version 2.36.0 (20140111.2315)
 -->
<!-- Title: wlp::swap Pages: 1 -->
<svg width="466pt" height="28pt"
 viewBox="0.00 0.00 466.00 28.00" xmlns="http://www.w3.org/2000/svg" xmlns:xlink="http://www.w3.org/1999/xlink">
<g id="graph0" class="graph" transform="scale(1 1) rotate(0) translate(4 24)">
<title>wlp::swap</title>
<polygon fill="white" stroke="none" points="-4,4 -4,-24 462,-24 462,4 -4,4"/>
<!-- Node1 -->
<g id="node1" class="node"><title>Node1</title>
<polygon fill="#bfbfbf" stroke="black" points="0.5,-0.5 0.5,-19.5 61.5,-19.5 61.5,-0.5 0.5,-0.5"/>
<text text-anchor="middle" x="31" y="-7.5" font-family="Helvetica,sans-Serif" font-size="10.00">wlp::swap</text>
</g>
<!-- Node2 -->
<g id="node2" class="node"><title>Node2</title>
<g id="a_node2"><a xlink:href="../../d2/d75/classwlp_1_1unique__ptr.html#a2e4dcfe56e0ab44475c81527a6841c1e" target="_top" xlink:title="wlp::unique_ptr::swap">
<polygon fill="white" stroke="black" points="98,-0.5 98,-19.5 210,-19.5 210,-0.5 98,-0.5"/>
<text text-anchor="middle" x="154" y="-7.5" font-family="Helvetica,sans-Serif" font-size="10.00">wlp::unique_ptr::swap</text>
</a>
</g>
</g>
<!-- Node1&#45;&gt;Node2 -->
<g id="edge1" class="edge"><title>Node1&#45;&gt;Node2</title>
<path fill="none" stroke="midnightblue" d="M61.5999,-10C69.53,-10 78.4282,-10 87.4774,-10"/>
<polygon fill="midnightblue" stroke="midnightblue" points="87.7147,-13.5001 97.7147,-10 87.7147,-6.5001 87.7147,-13.5001"/>
</g>
<!-- Node3 -->
<g id="node3" class="node"><title>Node3</title>
<g id="a_node3"><a xlink:href="../../d5/dca/namespacewlp.html#affc570df80dc7fb7037885105bf78c64" target="_top" xlink:title="wlp::swap">
<polygon fill="white" stroke="black" points="246.5,-0.5 246.5,-19.5 307.5,-19.5 307.5,-0.5 246.5,-0.5"/>
<text text-anchor="middle" x="277" y="-7.5" font-family="Helvetica,sans-Serif" font-size="10.00">wlp::swap</text>
</a>
</g>
</g>
<!-- Node2&#45;&gt;Node3 -->
<g id="edge2" class="edge"><title>Node2&#45;&gt;Node3</title>
<path fill="none" stroke="midnightblue" d="M210.189,-10C218.954,-10 227.869,-10 236.19,-10"/>
<polygon fill="midnightblue" stroke="midnightblue" points="236.357,-13.5001 246.357,-10 236.356,-6.5001 236.357,-13.5001"/>
</g>
<!-- Node4 -->
<g id="node4" class="node"><title>Node4</title>
<g id="a_node4"><a xlink:href="../../da/dbb/classwlp_1_1shared__ptr.html#a77b0da4c03bbc1c75404d097bb7cc7d4" target="_top" xlink:title="wlp::shared_ptr::swap">
<polygon fill="white" stroke="black" points="344.5,-0.5 344.5,-19.5 457.5,-19.5 457.5,-0.5 344.5,-0.5"/>
<text text-anchor="middle" x="401" y="-7.5" font-family="Helvetica,sans-Serif" font-size="10.00">wlp::shared_ptr::swap</text>
</a>
</g>
</g>
<!-- Node3&#45;&gt;Node4 -->
<g id="edge3" class="edge"><title>Node3&#45;&gt;Node4</title>
<path fill="none" stroke="midnightblue" d="M307.533,-10C315.715,-10 324.938,-10 334.309,-10"/>
<polygon fill="midnightblue" stroke="midnightblue" points="334.494,-13.5001 344.494,-10 334.494,-6.5001 334.494,-13.5001"/>
</g>
</g>
</svg>
