<?xml version="1.0" encoding="UTF-8" standalone="no"?>
<!DOCTYPE svg PUBLIC "-//W3C//DTD SVG 1.1//EN"
 "http://www.w3.org/Graphics/SVG/1.1/DTD/svg11.dtd">
<!-- Generated by graphviz version 2.38.0 (20140413.2041)
 -->
<!-- Title: wlp::pop_heap Pages: 1 -->
<svg width="343pt" height="66pt"
 viewBox="0.00 0.00 343.00 66.00" xmlns="http://www.w3.org/2000/svg" xmlns:xlink="http://www.w3.org/1999/xlink">
<g id="graph0" class="graph" transform="scale(1 1) rotate(0) translate(4 62)">
<title>wlp::pop_heap</title>
<polygon fill="white" stroke="none" points="-4,4 -4,-62 339,-62 339,4 -4,4"/>
<!-- Node268 -->
<g id="node1" class="node"><title>Node268</title>
<polygon fill="#bfbfbf" stroke="black" points="0,-19.5 0,-38.5 79,-38.5 79,-19.5 0,-19.5"/>
<text text-anchor="middle" x="39.5" y="-26.5" font-family="Helvetica,sans-Serif" font-size="10.00">wlp::pop_heap</text>
</g>
<!-- Node269 -->
<g id="node2" class="node"><title>Node269</title>
<g id="a_node2"><a xlink:href="../../dd/dd6/classwlp_1_1_array_heap.html#a98362b142533a56d1b2e0a35acd944d7" target="_top" xlink:title="wlp::ArrayHeap::pop">
<polygon fill="white" stroke="black" points="115,-38.5 115,-57.5 219,-57.5 219,-38.5 115,-38.5"/>
<text text-anchor="middle" x="167" y="-45.5" font-family="Helvetica,sans-Serif" font-size="10.00">wlp::ArrayHeap::pop</text>
</a>
</g>
</g>
<!-- Node268&#45;&gt;Node269 -->
<g id="edge1" class="edge"><title>Node268&#45;&gt;Node269</title>
<path fill="none" stroke="midnightblue" d="M89.1824,-36.3703C97.5629,-37.639 106.296,-38.9612 114.742,-40.2399"/>
<polygon fill="midnightblue" stroke="midnightblue" points="89.5895,-32.8921 79.1782,-34.8557 88.5416,-39.8132 89.5895,-32.8921"/>
</g>
<!-- Node270 -->
<g id="node3" class="node"><title>Node270</title>
<g id="a_node3"><a xlink:href="../../d5/dca/namespacewlp.html#a664313ed82edafa1cf6c2e9c1c75378a" target="_top" xlink:title="wlp::sort_heap">
<polygon fill="white" stroke="black" points="127,-0.5 127,-19.5 207,-19.5 207,-0.5 127,-0.5"/>
<text text-anchor="middle" x="167" y="-7.5" font-family="Helvetica,sans-Serif" font-size="10.00">wlp::sort_heap</text>
</a>
</g>
</g>
<!-- Node268&#45;&gt;Node270 -->
<g id="edge2" class="edge"><title>Node268&#45;&gt;Node270</title>
<path fill="none" stroke="midnightblue" d="M89.3738,-21.6008C101.779,-19.7227 114.946,-17.7294 126.801,-15.9346"/>
<polygon fill="midnightblue" stroke="midnightblue" points="88.5416,-18.1868 79.1782,-23.1443 89.5895,-25.1079 88.5416,-18.1868"/>
</g>
<!-- Node271 -->
<g id="node4" class="node"><title>Node271</title>
<g id="a_node4"><a xlink:href="../../d5/dca/namespacewlp.html#a2329b0c52ca1a59525aea1d75476ef10" target="_top" xlink:title="wlp::heap_sort">
<polygon fill="white" stroke="black" points="255,-0.5 255,-19.5 335,-19.5 335,-0.5 255,-0.5"/>
<text text-anchor="middle" x="295" y="-7.5" font-family="Helvetica,sans-Serif" font-size="10.00">wlp::heap_sort</text>
</a>
</g>
</g>
<!-- Node270&#45;&gt;Node271 -->
<g id="edge3" class="edge"><title>Node270&#45;&gt;Node271</title>
<path fill="none" stroke="midnightblue" d="M217.397,-10C229.826,-10 242.997,-10 254.848,-10"/>
<polygon fill="midnightblue" stroke="midnightblue" points="217.177,-6.5001 207.177,-10 217.176,-13.5001 217.177,-6.5001"/>
</g>
</g>
</svg>
