<?xml version="1.0" encoding="UTF-8" standalone="no"?>
<!DOCTYPE svg PUBLIC "-//W3C//DTD SVG 1.1//EN"
 "http://www.w3.org/Graphics/SVG/1.1/DTD/svg11.dtd">
<!-- Generated by graphviz version 2.36.0 (20140111.2315)
 -->
<!-- Title: wlp::tuple_cat_pair Pages: 1 -->
<svg width="386pt" height="28pt"
 viewBox="0.00 0.00 386.00 28.00" xmlns="http://www.w3.org/2000/svg" xmlns:xlink="http://www.w3.org/1999/xlink">
<g id="graph0" class="graph" transform="scale(1 1) rotate(0) translate(4 24)">
<title>wlp::tuple_cat_pair</title>
<polygon fill="white" stroke="none" points="-4,4 -4,-24 382,-24 382,4 -4,4"/>
<!-- Node1 -->
<g id="node1" class="node"><title>Node1</title>
<polygon fill="#bfbfbf" stroke="black" points="0,-0.5 0,-19.5 98,-19.5 98,-0.5 0,-0.5"/>
<text text-anchor="middle" x="49" y="-7.5" font-family="Helvetica,sans-Serif" font-size="10.00">wlp::tuple_cat_pair</text>
</g>
<!-- Node2 -->
<g id="node2" class="node"><title>Node2</title>
<g id="a_node2"><a xlink:href="../../d5/dca/namespacewlp.html#a8c481d042f76dc12ace837ada06ed04b" target="_top" xlink:title="wlp::tuple_cat_pair_sub">
<polygon fill="white" stroke="black" points="134.5,-0.5 134.5,-19.5 253.5,-19.5 253.5,-0.5 134.5,-0.5"/>
<text text-anchor="middle" x="194" y="-7.5" font-family="Helvetica,sans-Serif" font-size="10.00">wlp::tuple_cat_pair_sub</text>
</a>
</g>
</g>
<!-- Node1&#45;&gt;Node2 -->
<g id="edge1" class="edge"><title>Node1&#45;&gt;Node2</title>
<path fill="none" stroke="midnightblue" d="M98.0147,-10C106.504,-10 115.49,-10 124.415,-10"/>
<polygon fill="midnightblue" stroke="midnightblue" points="124.437,-13.5001 134.437,-10 124.437,-6.5001 124.437,-13.5001"/>
</g>
<!-- Node3 -->
<g id="node3" class="node"><title>Node3</title>
<g id="a_node3"><a xlink:href="../../d5/dca/namespacewlp.html#a8eaea6f842c348064997526348b90eeb" target="_top" xlink:title="wlp::make_tuple">
<polygon fill="white" stroke="black" points="290,-0.5 290,-19.5 378,-19.5 378,-0.5 290,-0.5"/>
<text text-anchor="middle" x="334" y="-7.5" font-family="Helvetica,sans-Serif" font-size="10.00">wlp::make_tuple</text>
</a>
</g>
</g>
<!-- Node2&#45;&gt;Node3 -->
<g id="edge2" class="edge"><title>Node2&#45;&gt;Node3</title>
<path fill="none" stroke="midnightblue" d="M253.524,-10C262.194,-10 271.089,-10 279.646,-10"/>
<polygon fill="midnightblue" stroke="midnightblue" points="279.877,-13.5001 289.877,-10 279.877,-6.5001 279.877,-13.5001"/>
</g>
</g>
</svg>
