<?xml version="1.0" encoding="UTF-8" standalone="no"?>
<!DOCTYPE svg PUBLIC "-//W3C//DTD SVG 1.1//EN"
 "http://www.w3.org/Graphics/SVG/1.1/DTD/svg11.dtd">
<!-- Generated by graphviz version 2.36.0 (20140111.2315)
 -->
<!-- Title: stl/ArrayList.h Pages: 1 -->
<svg width="322pt" height="308pt"
 viewBox="0.00 0.00 322.00 308.00" xmlns="http://www.w3.org/2000/svg" xmlns:xlink="http://www.w3.org/1999/xlink">
<g id="graph0" class="graph" transform="scale(1 1) rotate(0) translate(4 304)">
<title>stl/ArrayList.h</title>
<polygon fill="white" stroke="none" points="-4,4 -4,-304 318,-304 318,4 -4,4"/>
<!-- Node1 -->
<g id="node1" class="node"><title>Node1</title>
<polygon fill="#bfbfbf" stroke="black" points="97.5,-280.5 97.5,-299.5 174.5,-299.5 174.5,-280.5 97.5,-280.5"/>
<text text-anchor="middle" x="136" y="-287.5" font-family="Helvetica,sans-Serif" font-size="10.00">stl/ArrayList.h</text>
</g>
<!-- Node2 -->
<g id="node2" class="node"><title>Node2</title>
<g id="a_node2"><a xlink:href="../../d0/db6/_types_8h.html" target="_top" xlink:title="type definition of all the string types we will be using ">
<polygon fill="white" stroke="black" points="-0.5,-56.5 -0.5,-75.5 60.5,-75.5 60.5,-56.5 -0.5,-56.5"/>
<text text-anchor="middle" x="30" y="-63.5" font-family="Helvetica,sans-Serif" font-size="10.00">../Types.h</text>
</a>
</g>
</g>
<!-- Node1&#45;&gt;Node2 -->
<g id="edge1" class="edge"><title>Node1&#45;&gt;Node2</title>
<path fill="none" stroke="midnightblue" d="M121.115,-280.475C107.579,-272.26 87.5535,-258.908 73,-244 51.9889,-222.477 46.5765,-215.761 35,-188 21.8641,-156.499 21.7397,-146.055 24,-112 24.5747,-103.341 25.7651,-93.8054 26.9351,-85.7496"/>
<polygon fill="midnightblue" stroke="midnightblue" points="30.4363,-86.0109 28.5092,-75.5928 23.5189,-84.9388 30.4363,-86.0109"/>
</g>
<!-- Node4 -->
<g id="node4" class="node"><title>Node4</title>
<g id="a_node4"><a xlink:href="../../d3/de6/_memory_8h.html" target="_top" xlink:title="Memory is a class that provides dynamic fixed size memory. ">
<polygon fill="white" stroke="black" points="82.5,-224.5 82.5,-243.5 189.5,-243.5 189.5,-224.5 82.5,-224.5"/>
<text text-anchor="middle" x="136" y="-231.5" font-family="Helvetica,sans-Serif" font-size="10.00">../memory/Memory.h</text>
</a>
</g>
</g>
<!-- Node1&#45;&gt;Node4 -->
<g id="edge3" class="edge"><title>Node1&#45;&gt;Node4</title>
<path fill="none" stroke="midnightblue" d="M136,-280.083C136,-273.006 136,-262.861 136,-253.986"/>
<polygon fill="midnightblue" stroke="midnightblue" points="139.5,-253.751 136,-243.751 132.5,-253.751 139.5,-253.751"/>
</g>
<!-- Node6 -->
<g id="node6" class="node"><title>Node6</title>
<g id="a_node6"><a xlink:href="../../db/d2a/_utility_8h.html" target="_top" xlink:title="Various helper functions. ">
<polygon fill="white" stroke="black" points="228,-168.5 228,-187.5 314,-187.5 314,-168.5 228,-168.5"/>
<text text-anchor="middle" x="271" y="-175.5" font-family="Helvetica,sans-Serif" font-size="10.00">../utility/Utility.h</text>
</a>
</g>
</g>
<!-- Node1&#45;&gt;Node6 -->
<g id="edge11" class="edge"><title>Node1&#45;&gt;Node6</title>
<path fill="none" stroke="midnightblue" d="M148.623,-280.39C161.348,-271.585 181.422,-257.342 198,-244 217.892,-227.991 239.62,-208.345 254.153,-194.869"/>
<polygon fill="midnightblue" stroke="midnightblue" points="256.888,-197.103 261.81,-187.721 252.112,-191.986 256.888,-197.103"/>
</g>
<!-- Node3 -->
<g id="node3" class="node"><title>Node3</title>
<polygon fill="white" stroke="#bfbfbf" points="5.5,-0.5 5.5,-19.5 54.5,-19.5 54.5,-0.5 5.5,-0.5"/>
<text text-anchor="middle" x="30" y="-7.5" font-family="Helvetica,sans-Serif" font-size="10.00">stdint.h</text>
</g>
<!-- Node2&#45;&gt;Node3 -->
<g id="edge2" class="edge"><title>Node2&#45;&gt;Node3</title>
<path fill="none" stroke="midnightblue" d="M30,-56.083C30,-49.0059 30,-38.8611 30,-29.9865"/>
<polygon fill="midnightblue" stroke="midnightblue" points="33.5001,-29.751 30,-19.7511 26.5001,-29.7511 33.5001,-29.751"/>
</g>
<!-- Node4&#45;&gt;Node2 -->
<g id="edge8" class="edge"><title>Node4&#45;&gt;Node2</title>
<path fill="none" stroke="midnightblue" d="M103.777,-224.371C84.8466,-217.604 62.1262,-206.209 49,-188 27.002,-157.484 26.3338,-111.362 28.0208,-85.7748"/>
<polygon fill="midnightblue" stroke="midnightblue" points="31.5266,-85.8558 28.8934,-75.5934 24.5521,-85.258 31.5266,-85.8558"/>
</g>
<!-- Node5 -->
<g id="node5" class="node"><title>Node5</title>
<polygon fill="white" stroke="#bfbfbf" points="58.5,-168.5 58.5,-187.5 107.5,-187.5 107.5,-168.5 58.5,-168.5"/>
<text text-anchor="middle" x="83" y="-175.5" font-family="Helvetica,sans-Serif" font-size="10.00">string.h</text>
</g>
<!-- Node4&#45;&gt;Node5 -->
<g id="edge4" class="edge"><title>Node4&#45;&gt;Node5</title>
<path fill="none" stroke="midnightblue" d="M127.248,-224.083C119.53,-216.22 108.095,-204.569 98.7835,-195.081"/>
<polygon fill="midnightblue" stroke="midnightblue" points="101.092,-192.436 91.589,-187.751 96.0958,-197.34 101.092,-192.436"/>
</g>
<!-- Node4&#45;&gt;Node6 -->
<g id="edge5" class="edge"><title>Node4&#45;&gt;Node6</title>
<path fill="none" stroke="midnightblue" d="M157.391,-224.444C179.707,-215.517 214.903,-201.439 240.208,-191.317"/>
<polygon fill="midnightblue" stroke="midnightblue" points="241.724,-194.48 249.709,-187.516 239.124,-187.981 241.724,-194.48"/>
</g>
<!-- Node7 -->
<g id="node7" class="node"><title>Node7</title>
<g id="a_node7"><a xlink:href="../../d2/d37/_tmp_8h.html" target="_top" xlink:title="Template helper types, structs, and metafunctions. ">
<polygon fill="white" stroke="black" points="114,-112.5 114,-131.5 158,-131.5 158,-112.5 114,-112.5"/>
<text text-anchor="middle" x="136" y="-119.5" font-family="Helvetica,sans-Serif" font-size="10.00">Tmp.h</text>
</a>
</g>
</g>
<!-- Node4&#45;&gt;Node7 -->
<g id="edge9" class="edge"><title>Node4&#45;&gt;Node7</title>
<path fill="none" stroke="midnightblue" d="M136,-224.368C136,-206.617 136,-165.666 136,-141.597"/>
<polygon fill="midnightblue" stroke="midnightblue" points="139.5,-141.591 136,-131.591 132.5,-141.591 139.5,-141.591"/>
</g>
<!-- Node8 -->
<g id="node8" class="node"><title>Node8</title>
<g id="a_node8"><a xlink:href="../../d9/d8a/_new_8h.html" target="_top" xlink:title="New operators defined for Arduino boards and for other boards use the normal new. ...">
<polygon fill="white" stroke="black" points="164.5,-168.5 164.5,-187.5 209.5,-187.5 209.5,-168.5 164.5,-168.5"/>
<text text-anchor="middle" x="187" y="-175.5" font-family="Helvetica,sans-Serif" font-size="10.00">New.h</text>
</a>
</g>
</g>
<!-- Node4&#45;&gt;Node8 -->
<g id="edge10" class="edge"><title>Node4&#45;&gt;Node8</title>
<path fill="none" stroke="midnightblue" d="M144.422,-224.083C151.848,-216.22 162.852,-204.569 171.812,-195.081"/>
<polygon fill="midnightblue" stroke="midnightblue" points="174.413,-197.424 178.735,-187.751 169.324,-192.618 174.413,-197.424"/>
</g>
<!-- Node6&#45;&gt;Node7 -->
<g id="edge6" class="edge"><title>Node6&#45;&gt;Node7</title>
<path fill="none" stroke="midnightblue" d="M249.609,-168.444C227.293,-159.517 192.097,-145.439 166.792,-135.317"/>
<polygon fill="midnightblue" stroke="midnightblue" points="167.876,-131.981 157.291,-131.516 165.276,-138.48 167.876,-131.981"/>
</g>
<!-- Node7&#45;&gt;Node2 -->
<g id="edge7" class="edge"><title>Node7&#45;&gt;Node2</title>
<path fill="none" stroke="midnightblue" d="M118.969,-112.324C101.97,-103.664 75.6239,-90.2424 56.0074,-80.249"/>
<polygon fill="midnightblue" stroke="midnightblue" points="57.4876,-77.0752 46.9885,-75.6545 54.3101,-83.3125 57.4876,-77.0752"/>
</g>
</g>
</svg>
