<?xml version="1.0" encoding="UTF-8" standalone="no"?>
<!DOCTYPE svg PUBLIC "-//W3C//DTD SVG 1.1//EN"
 "http://www.w3.org/Graphics/SVG/1.1/DTD/svg11.dtd">
<!-- Generated by graphviz version 2.36.0 (20140111.2315)
 -->
<!-- Title: wlib/stl/ArrayList.h Pages: 1 -->
<svg width="408pt" height="308pt"
 viewBox="0.00 0.00 408.13 308.00" xmlns="http://www.w3.org/2000/svg" xmlns:xlink="http://www.w3.org/1999/xlink">
<g id="graph0" class="graph" transform="scale(1 1) rotate(0) translate(4 304)">
<title>wlib/stl/ArrayList.h</title>
<polygon fill="white" stroke="none" points="-4,4 -4,-304 404.126,-304 404.126,4 -4,4"/>
<!-- Node1 -->
<g id="node1" class="node"><title>Node1</title>
<polygon fill="#bfbfbf" stroke="black" points="110.126,-280.5 110.126,-299.5 208.126,-299.5 208.126,-280.5 110.126,-280.5"/>
<text text-anchor="middle" x="159.126" y="-287.5" font-family="Helvetica,sans-Serif" font-size="10.00">wlib/stl/ArrayList.h</text>
</g>
<!-- Node2 -->
<g id="node2" class="node"><title>Node2</title>
<g id="a_node2"><a xlink:href="../../d0/db6/_types_8h.html" target="_top" xlink:title="type definition of all the string types we will be using ">
<polygon fill="white" stroke="black" points="12.1265,-56.5 12.1265,-75.5 84.1265,-75.5 84.1265,-56.5 12.1265,-56.5"/>
<text text-anchor="middle" x="48.1265" y="-63.5" font-family="Helvetica,sans-Serif" font-size="10.00">wlib/Types.h</text>
</a>
</g>
</g>
<!-- Node1&#45;&gt;Node2 -->
<g id="edge1" class="edge"><title>Node1&#45;&gt;Node2</title>
<path fill="none" stroke="midnightblue" d="M117.741,-280.462C92.9341,-273.749 61.8936,-262.378 39.1265,-244 16.1031,-225.416 11.4644,-216.389 3.12646,-188 -1.54836,-172.083 -0.02974,-128.688 7.12646,-112 11.9877,-100.664 20.9373,-90.3118 29.2375,-82.4021"/>
<polygon fill="midnightblue" stroke="midnightblue" points="31.712,-84.8848 36.8417,-75.6146 27.0507,-79.6625 31.712,-84.8848"/>
</g>
<!-- Node4 -->
<g id="node4" class="node"><title>Node4</title>
<g id="a_node4"><a xlink:href="../../d3/de6/_memory_8h.html" target="_top" xlink:title="Memory is a class that provides dynamic fixed size memory. ">
<polygon fill="white" stroke="black" points="48.6265,-224.5 48.6265,-243.5 167.626,-243.5 167.626,-224.5 48.6265,-224.5"/>
<text text-anchor="middle" x="108.126" y="-231.5" font-family="Helvetica,sans-Serif" font-size="10.00">wlib/memory/Memory.h</text>
</a>
</g>
</g>
<!-- Node1&#45;&gt;Node4 -->
<g id="edge3" class="edge"><title>Node1&#45;&gt;Node4</title>
<path fill="none" stroke="midnightblue" d="M150.705,-280.083C143.278,-272.22 132.275,-260.569 123.314,-251.081"/>
<polygon fill="midnightblue" stroke="midnightblue" points="125.802,-248.618 116.391,-243.751 120.713,-253.424 125.802,-248.618"/>
</g>
<!-- Node6 -->
<g id="node6" class="node"><title>Node6</title>
<g id="a_node6"><a xlink:href="../../db/d2a/_utility_8h.html" target="_top" xlink:title="Various helper functions. ">
<polygon fill="white" stroke="black" points="192.626,-168.5 192.626,-187.5 289.626,-187.5 289.626,-168.5 192.626,-168.5"/>
<text text-anchor="middle" x="241.126" y="-175.5" font-family="Helvetica,sans-Serif" font-size="10.00">wlib/utility/Utility.h</text>
</a>
</g>
</g>
<!-- Node1&#45;&gt;Node6 -->
<g id="edge11" class="edge"><title>Node1&#45;&gt;Node6</title>
<path fill="none" stroke="midnightblue" d="M165.561,-280.368C179.153,-262.135 210.991,-219.426 228.696,-195.675"/>
<polygon fill="midnightblue" stroke="midnightblue" points="231.551,-197.701 234.722,-187.591 225.939,-193.517 231.551,-197.701"/>
</g>
<!-- Node9 -->
<g id="node9" class="node"><title>Node9</title>
<g id="a_node9"><a xlink:href="../../d7/d2f/_exceptions_8h.html" target="_top" xlink:title="Implementation of Exceptions using C style. ">
<polygon fill="white" stroke="black" points="246.126,-224.5 246.126,-243.5 390.126,-243.5 390.126,-224.5 246.126,-224.5"/>
<text text-anchor="middle" x="318.126" y="-231.5" font-family="Helvetica,sans-Serif" font-size="10.00">wlib/exceptions/Exceptions.h</text>
</a>
</g>
</g>
<!-- Node1&#45;&gt;Node9 -->
<g id="edge12" class="edge"><title>Node1&#45;&gt;Node9</title>
<path fill="none" stroke="midnightblue" d="M184.32,-280.444C211.069,-271.359 253.529,-256.939 283.432,-246.783"/>
<polygon fill="midnightblue" stroke="midnightblue" points="284.707,-250.046 293.05,-243.516 282.456,-243.418 284.707,-250.046"/>
</g>
<!-- Node3 -->
<g id="node3" class="node"><title>Node3</title>
<polygon fill="white" stroke="#bfbfbf" points="23.6265,-0.5 23.6265,-19.5 72.6265,-19.5 72.6265,-0.5 23.6265,-0.5"/>
<text text-anchor="middle" x="48.1265" y="-7.5" font-family="Helvetica,sans-Serif" font-size="10.00">stdint.h</text>
</g>
<!-- Node2&#45;&gt;Node3 -->
<g id="edge2" class="edge"><title>Node2&#45;&gt;Node3</title>
<path fill="none" stroke="midnightblue" d="M48.1265,-56.083C48.1265,-49.0059 48.1265,-38.8611 48.1265,-29.9865"/>
<polygon fill="midnightblue" stroke="midnightblue" points="51.6266,-29.751 48.1265,-19.7511 44.6266,-29.7511 51.6266,-29.751"/>
</g>
<!-- Node4&#45;&gt;Node2 -->
<g id="edge8" class="edge"><title>Node4&#45;&gt;Node2</title>
<path fill="none" stroke="midnightblue" d="M67.979,-224.429C48.1517,-217.953 25.9884,-206.83 14.1265,-188 -6.80909,-154.767 18.5064,-108.446 35.3817,-83.8726"/>
<polygon fill="midnightblue" stroke="midnightblue" points="38.3368,-85.7578 41.322,-75.5922 32.649,-81.6774 38.3368,-85.7578"/>
</g>
<!-- Node5 -->
<g id="node5" class="node"><title>Node5</title>
<polygon fill="white" stroke="#bfbfbf" points="23.6265,-168.5 23.6265,-187.5 72.6265,-187.5 72.6265,-168.5 23.6265,-168.5"/>
<text text-anchor="middle" x="48.1265" y="-175.5" font-family="Helvetica,sans-Serif" font-size="10.00">string.h</text>
</g>
<!-- Node4&#45;&gt;Node5 -->
<g id="edge4" class="edge"><title>Node4&#45;&gt;Node5</title>
<path fill="none" stroke="midnightblue" d="M98.4864,-224.324C89.6169,-216.341 76.2517,-204.313 65.5186,-194.653"/>
<polygon fill="midnightblue" stroke="midnightblue" points="67.7163,-191.922 57.9419,-187.834 63.0335,-197.125 67.7163,-191.922"/>
</g>
<!-- Node4&#45;&gt;Node6 -->
<g id="edge5" class="edge"><title>Node4&#45;&gt;Node6</title>
<path fill="none" stroke="midnightblue" d="M129.201,-224.444C151.186,-215.517 185.861,-201.439 210.791,-191.317"/>
<polygon fill="midnightblue" stroke="midnightblue" points="212.202,-194.521 220.151,-187.516 209.569,-188.035 212.202,-194.521"/>
</g>
<!-- Node7 -->
<g id="node7" class="node"><title>Node7</title>
<g id="a_node7"><a xlink:href="../../d2/d37/_tmp_8h.html" target="_top" xlink:title="Template helper types, structs, and metafunctions. ">
<polygon fill="white" stroke="black" points="79.1265,-112.5 79.1265,-131.5 123.126,-131.5 123.126,-112.5 79.1265,-112.5"/>
<text text-anchor="middle" x="101.126" y="-119.5" font-family="Helvetica,sans-Serif" font-size="10.00">Tmp.h</text>
</a>
</g>
</g>
<!-- Node4&#45;&gt;Node7 -->
<g id="edge9" class="edge"><title>Node4&#45;&gt;Node7</title>
<path fill="none" stroke="midnightblue" d="M107.577,-224.368C106.448,-206.617 103.842,-165.666 102.31,-141.597"/>
<polygon fill="midnightblue" stroke="midnightblue" points="105.801,-141.349 101.673,-131.591 98.8154,-141.794 105.801,-141.349"/>
</g>
<!-- Node8 -->
<g id="node8" class="node"><title>Node8</title>
<g id="a_node8"><a xlink:href="../../d9/d8a/_new_8h.html" target="_top" xlink:title="New operators defined for Arduino boards and for other boards use the normal new. ...">
<polygon fill="white" stroke="black" points="129.626,-168.5 129.626,-187.5 174.626,-187.5 174.626,-168.5 129.626,-168.5"/>
<text text-anchor="middle" x="152.126" y="-175.5" font-family="Helvetica,sans-Serif" font-size="10.00">New.h</text>
</a>
</g>
</g>
<!-- Node4&#45;&gt;Node8 -->
<g id="edge10" class="edge"><title>Node4&#45;&gt;Node8</title>
<path fill="none" stroke="midnightblue" d="M115.392,-224.083C121.671,-216.377 130.914,-205.033 138.557,-195.653"/>
<polygon fill="midnightblue" stroke="midnightblue" points="141.393,-197.714 144.996,-187.751 135.966,-193.293 141.393,-197.714"/>
</g>
<!-- Node6&#45;&gt;Node7 -->
<g id="edge6" class="edge"><title>Node6&#45;&gt;Node7</title>
<path fill="none" stroke="midnightblue" d="M218.943,-168.444C195.698,-159.478 158.978,-145.314 132.711,-135.183"/>
<polygon fill="midnightblue" stroke="midnightblue" points="133.796,-131.85 123.206,-131.516 131.277,-138.381 133.796,-131.85"/>
</g>
<!-- Node7&#45;&gt;Node2 -->
<g id="edge7" class="edge"><title>Node7&#45;&gt;Node2</title>
<path fill="none" stroke="midnightblue" d="M92.3746,-112.083C84.6567,-104.22 73.2218,-92.5688 63.9099,-83.0813"/>
<polygon fill="midnightblue" stroke="midnightblue" points="66.2181,-80.4363 56.7155,-75.7511 61.2223,-85.3396 66.2181,-80.4363"/>
</g>
<!-- Node9&#45;&gt;Node2 -->
<g id="edge14" class="edge"><title>Node9&#45;&gt;Node2</title>
<path fill="none" stroke="midnightblue" d="M317.757,-224.265C316.722,-210.581 312.818,-184.004 298.126,-168 243.888,-108.917 150.267,-83.6784 94.2745,-73.4471"/>
<polygon fill="midnightblue" stroke="midnightblue" points="94.7275,-69.9734 84.2754,-71.7065 93.527,-76.8697 94.7275,-69.9734"/>
</g>
<!-- Node10 -->
<g id="node10" class="node"><title>Node10</title>
<polygon fill="white" stroke="#bfbfbf" points="346.126,-168.5 346.126,-187.5 400.126,-187.5 400.126,-168.5 346.126,-168.5"/>
<text text-anchor="middle" x="373.126" y="-175.5" font-family="Helvetica,sans-Serif" font-size="10.00">setjmp.h</text>
</g>
<!-- Node9&#45;&gt;Node10 -->
<g id="edge13" class="edge"><title>Node9&#45;&gt;Node10</title>
<path fill="none" stroke="midnightblue" d="M327.209,-224.083C335.298,-216.141 347.322,-204.335 357.037,-194.797"/>
<polygon fill="midnightblue" stroke="midnightblue" points="359.53,-197.254 364.213,-187.751 354.626,-192.26 359.53,-197.254"/>
</g>
</g>
</svg>
