<?xml version="1.0" encoding="UTF-8" standalone="no"?>
<!DOCTYPE svg PUBLIC "-//W3C//DTD SVG 1.1//EN"
 "http://www.w3.org/Graphics/SVG/1.1/DTD/svg11.dtd">
<!-- Generated by graphviz version 2.38.0 (20140413.2041)
 -->
<!-- Title: stl/ArrayList.h Pages: 1 -->
<svg width="198pt" height="308pt"
 viewBox="0.00 0.00 198.24 308.00" xmlns="http://www.w3.org/2000/svg" xmlns:xlink="http://www.w3.org/1999/xlink">
<g id="graph0" class="graph" transform="scale(1 1) rotate(0) translate(4 304)">
<title>stl/ArrayList.h</title>
<polygon fill="white" stroke="none" points="-4,4 -4,-304 194.238,-304 194.238,4 -4,4"/>
<!-- Node0 -->
<g id="node1" class="node"><title>Node0</title>
<polygon fill="#bfbfbf" stroke="black" points="16.2375,-280.5 16.2375,-299.5 93.2375,-299.5 93.2375,-280.5 16.2375,-280.5"/>
<text text-anchor="middle" x="54.7375" y="-287.5" font-family="Helvetica,sans-Serif" font-size="10.00">stl/ArrayList.h</text>
</g>
<!-- Node1 -->
<g id="node2" class="node"><title>Node1</title>
<g id="a_node2"><a xlink:href="../../d0/db6/_types_8h.html" target="_top" xlink:title="type definition of all the string types we will be using ">
<polygon fill="white" stroke="black" points="81.7375,-56.5 81.7375,-75.5 141.738,-75.5 141.738,-56.5 81.7375,-56.5"/>
<text text-anchor="middle" x="111.738" y="-63.5" font-family="Helvetica,sans-Serif" font-size="10.00">../Types.h</text>
</a>
</g>
</g>
<!-- Node0&#45;&gt;Node1 -->
<g id="edge1" class="edge"><title>Node0&#45;&gt;Node1</title>
<path fill="none" stroke="midnightblue" d="M46.3005,-280.454C27.7878,-260.619 -13.3529,-209.953 4.73753,-168 21.567,-128.971 61.7186,-98.011 87.7677,-81.1175"/>
<polygon fill="midnightblue" stroke="midnightblue" points="89.7253,-84.0211 96.3321,-75.7385 86.0022,-78.0933 89.7253,-84.0211"/>
</g>
<!-- Node3 -->
<g id="node4" class="node"><title>Node3</title>
<g id="a_node4"><a xlink:href="../../d3/de6/_memory_8h.html" target="_top" xlink:title="Memory is a class that provides dynamic fixed size memory. ">
<polygon fill="white" stroke="black" points="83.2375,-224.5 83.2375,-243.5 190.238,-243.5 190.238,-224.5 83.2375,-224.5"/>
<text text-anchor="middle" x="136.738" y="-231.5" font-family="Helvetica,sans-Serif" font-size="10.00">../memory/Memory.h</text>
</a>
</g>
</g>
<!-- Node0&#45;&gt;Node3 -->
<g id="edge3" class="edge"><title>Node0&#45;&gt;Node3</title>
<path fill="none" stroke="midnightblue" d="M67.9123,-280.324C80.5843,-271.979 99.9709,-259.212 114.943,-249.352"/>
<polygon fill="midnightblue" stroke="midnightblue" points="117.169,-252.078 123.596,-243.655 113.319,-246.231 117.169,-252.078"/>
</g>
<!-- Node4 -->
<g id="node5" class="node"><title>Node4</title>
<g id="a_node5"><a xlink:href="../../db/d2a/_utility_8h.html" target="_top" xlink:title="Various helper functions. ">
<polygon fill="white" stroke="black" points="14.2375,-168.5 14.2375,-187.5 99.2375,-187.5 99.2375,-168.5 14.2375,-168.5"/>
<text text-anchor="middle" x="56.7375" y="-175.5" font-family="Helvetica,sans-Serif" font-size="10.00">../utility/Utility.h</text>
</a>
</g>
</g>
<!-- Node0&#45;&gt;Node4 -->
<g id="edge10" class="edge"><title>Node0&#45;&gt;Node4</title>
<path fill="none" stroke="midnightblue" d="M54.8945,-280.368C55.2172,-262.617 55.9618,-221.666 56.3994,-197.597"/>
<polygon fill="midnightblue" stroke="midnightblue" points="59.8989,-197.653 56.5813,-187.591 52.9,-197.526 59.8989,-197.653"/>
</g>
<!-- Node2 -->
<g id="node3" class="node"><title>Node2</title>
<polygon fill="white" stroke="#bfbfbf" points="87.2375,-0.5 87.2375,-19.5 136.238,-19.5 136.238,-0.5 87.2375,-0.5"/>
<text text-anchor="middle" x="111.738" y="-7.5" font-family="Helvetica,sans-Serif" font-size="10.00">stdint.h</text>
</g>
<!-- Node1&#45;&gt;Node2 -->
<g id="edge2" class="edge"><title>Node1&#45;&gt;Node2</title>
<path fill="none" stroke="midnightblue" d="M111.738,-56.083C111.738,-49.0059 111.738,-38.8611 111.738,-29.9865"/>
<polygon fill="midnightblue" stroke="midnightblue" points="115.238,-29.751 111.738,-19.7511 108.238,-29.7511 115.238,-29.751"/>
</g>
<!-- Node3&#45;&gt;Node1 -->
<g id="edge7" class="edge"><title>Node3&#45;&gt;Node1</title>
<path fill="none" stroke="midnightblue" d="M147.728,-224.365C157.19,-216.171 170.173,-202.917 175.738,-188 178.844,-179.672 178.076,-176.576 175.738,-168 166.643,-134.655 142.306,-101.961 126.401,-83.1758"/>
<polygon fill="midnightblue" stroke="midnightblue" points="128.981,-80.8092 119.771,-75.5714 123.704,-85.4092 128.981,-80.8092"/>
</g>
<!-- Node3&#45;&gt;Node4 -->
<g id="edge4" class="edge"><title>Node3&#45;&gt;Node4</title>
<path fill="none" stroke="midnightblue" d="M123.884,-224.324C111.521,-215.979 92.6074,-203.212 78.0004,-193.352"/>
<polygon fill="midnightblue" stroke="midnightblue" points="79.8057,-190.348 69.559,-187.655 75.8894,-196.15 79.8057,-190.348"/>
</g>
<!-- Node5 -->
<g id="node6" class="node"><title>Node5</title>
<g id="a_node6"><a xlink:href="../../d2/d37/_tmp_8h.html" target="_top" xlink:title="Template helper types, structs, and metafunctions. ">
<polygon fill="white" stroke="black" points="89.7375,-112.5 89.7375,-131.5 133.738,-131.5 133.738,-112.5 89.7375,-112.5"/>
<text text-anchor="middle" x="111.738" y="-119.5" font-family="Helvetica,sans-Serif" font-size="10.00">Tmp.h</text>
</a>
</g>
</g>
<!-- Node3&#45;&gt;Node5 -->
<g id="edge8" class="edge"><title>Node3&#45;&gt;Node5</title>
<path fill="none" stroke="midnightblue" d="M144.13,-224.457C154.044,-211.905 169.447,-187.824 160.738,-168 155.348,-155.732 144.779,-145.341 134.833,-137.646"/>
<polygon fill="midnightblue" stroke="midnightblue" points="136.565,-134.581 126.399,-131.598 132.486,-140.27 136.565,-134.581"/>
</g>
<!-- Node6 -->
<g id="node7" class="node"><title>Node6</title>
<polygon fill="white" stroke="#bfbfbf" points="117.738,-168.5 117.738,-187.5 151.738,-187.5 151.738,-168.5 117.738,-168.5"/>
<text text-anchor="middle" x="134.738" y="-175.5" font-family="Helvetica,sans-Serif" font-size="10.00">new</text>
</g>
<!-- Node3&#45;&gt;Node6 -->
<g id="edge9" class="edge"><title>Node3&#45;&gt;Node6</title>
<path fill="none" stroke="midnightblue" d="M136.407,-224.083C136.145,-217.006 135.769,-206.861 135.441,-197.986"/>
<polygon fill="midnightblue" stroke="midnightblue" points="138.929,-197.615 135.062,-187.751 131.934,-197.874 138.929,-197.615"/>
</g>
<!-- Node4&#45;&gt;Node5 -->
<g id="edge5" class="edge"><title>Node4&#45;&gt;Node5</title>
<path fill="none" stroke="midnightblue" d="M65.8197,-168.083C73.9088,-160.141 85.9329,-148.335 95.6477,-138.797"/>
<polygon fill="midnightblue" stroke="midnightblue" points="98.1408,-141.254 102.824,-131.751 93.2367,-136.26 98.1408,-141.254"/>
</g>
<!-- Node5&#45;&gt;Node1 -->
<g id="edge6" class="edge"><title>Node5&#45;&gt;Node1</title>
<path fill="none" stroke="midnightblue" d="M111.738,-112.083C111.738,-105.006 111.738,-94.8611 111.738,-85.9865"/>
<polygon fill="midnightblue" stroke="midnightblue" points="115.238,-85.751 111.738,-75.7511 108.238,-85.7511 115.238,-85.751"/>
</g>
</g>
</svg>
