<?xml version="1.0" encoding="UTF-8" standalone="no"?>
<!DOCTYPE svg PUBLIC "-//W3C//DTD SVG 1.1//EN"
 "http://www.w3.org/Graphics/SVG/1.1/DTD/svg11.dtd">
<!-- Generated by graphviz version 2.36.0 (20140111.2315)
 -->
<!-- Title: malloc Pages: 1 -->
<!--zoomable 184 -->
<svg id="main" version="1.1" xmlns="http://www.w3.org/2000/svg" xmlns:xlink="http://www.w3.org/1999/xlink" xml:space="preserve" onload="init(evt)">
<style type="text/css"><![CDATA[
.edge:hover path { stroke: red; }
.edge:hover polygon { stroke: red; fill: red; }
]]></style>
<script type="text/javascript"><![CDATA[
var edges = document.getElementsByTagName('g');
if (edges && edges.length) {
  for (var i=0;i<edges.length;i++) {
    if (edges[i].id.substr(0,4)=='edge') {
      edges[i].setAttribute('class','edge');
    }
  }
}
]]></script>
        <defs>
                <circle id="rim" cx="0" cy="0" r="7"/>
                <circle id="rim2" cx="0" cy="0" r="3.5"/>
                <g id="zoomPlus">
                        <use xlink:href="#rim" fill="#404040">
                                <set attributeName="fill" to="#808080" begin="zoomplus.mouseover" end="zoomplus.mouseout"/>
                        </use>
                        <path d="M-4,0h8M0,-4v8" fill="none" stroke="white" stroke-width="1.5" pointer-events="none"/>
                </g>
                <g id="zoomMin">
                        <use xlink:href="#rim" fill="#404040">
                                <set attributeName="fill" to="#808080" begin="zoomminus.mouseover" end="zoomminus.mouseout"/>
                        </use>
                        <path d="M-4,0h8" fill="none" stroke="white" stroke-width="1.5" pointer-events="none"/>
                </g>
                <g id="dirArrow">
                        <path fill="none" stroke="white" stroke-width="1.5" d="M0,-3.0v7 M-2.5,-0.5L0,-3.0L2.5,-0.5"/>
                </g>
               <g id="resetDef">
                       <use xlink:href="#rim2" fill="#404040">
                               <set attributeName="fill" to="#808080" begin="reset.mouseover" end="reset.mouseout"/>
                       </use>
               </g>
        </defs>

<script type="text/javascript">
var viewWidth = 608;
var viewHeight = 184;
var sectionId = 'dynsection-16';
</script>
<script xlink:href="../../svgpan.js"/>
<svg id="graph" class="graph">
<g id="viewport">
<title>malloc</title>
<polygon fill="white" stroke="none" points="-4,4 -4,-180 604,-180 604,4 -4,4"/>
<!-- Node1 -->
<g id="node1" class="node"><title>Node1</title>
<polygon fill="#bfbfbf" stroke="black" points="0.5,-69.5 0.5,-88.5 45.5,-88.5 45.5,-69.5 0.5,-69.5"/>
<text text-anchor="middle" x="23" y="-76.5" font-family="Helvetica,sans-Serif" font-size="10.00">malloc</text>
</g>
<!-- Node2 -->
<g id="node2" class="node"><title>Node2</title>
<g id="a_node2"><a xlink:href="../../d3/de6/_memory_8h.html#ae94046dbccfe12303d31bb8aaff3e523" target="_top" xlink:title="__memory_alloc">
<polygon fill="white" stroke="black" points="82,-69.5 82,-88.5 170,-88.5 170,-69.5 82,-69.5"/>
<text text-anchor="middle" x="126" y="-76.5" font-family="Helvetica,sans-Serif" font-size="10.00">__memory_alloc</text>
</a>
</g>
</g>
<!-- Node1&#45;&gt;Node2 -->
<g id="edge1" class="edge"><title>Node1&#45;&gt;Node2</title>
<path fill="none" stroke="midnightblue" d="M45.9155,-79C53.5874,-79 62.5717,-79 71.6787,-79"/>
<polygon fill="midnightblue" stroke="midnightblue" points="71.9495,-82.5001 81.9495,-79 71.9495,-75.5001 71.9495,-82.5001"/>
</g>
<!-- Node3 -->
<g id="node3" class="node"><title>Node3</title>
<g id="a_node3"><a xlink:href="../../df/d64/_memory_8cpp.html#a5d4603ab26200d9bb1e69dcefde2ef7f" target="_top" xlink:title="__memory_alloc">
<polygon fill="white" stroke="black" points="206,-69.5 206,-88.5 294,-88.5 294,-69.5 206,-69.5"/>
<text text-anchor="middle" x="250" y="-76.5" font-family="Helvetica,sans-Serif" font-size="10.00">__memory_alloc</text>
</a>
</g>
</g>
<!-- Node2&#45;&gt;Node3 -->
<g id="edge2" class="edge"><title>Node2&#45;&gt;Node3</title>
<path fill="none" stroke="midnightblue" d="M170.013,-79C178.395,-79 187.275,-79 195.938,-79"/>
<polygon fill="midnightblue" stroke="midnightblue" points="195.965,-82.5001 205.965,-79 195.965,-75.5001 195.965,-82.5001"/>
</g>
<!-- Node4 -->
<g id="node4" class="node"><title>Node4</title>
<g id="a_node4"><a xlink:href="../../de/d5b/classwlp_1_1_____allocator.html#ad1cc8c68a5c26a2869be2d7809c8d4f6" target="_top" xlink:title="wlp::__Allocator::allocate">
<polygon fill="white" stroke="black" points="342,-156.5 342,-175.5 468,-175.5 468,-156.5 342,-156.5"/>
<text text-anchor="middle" x="405" y="-163.5" font-family="Helvetica,sans-Serif" font-size="10.00">wlp::__Allocator::allocate</text>
</a>
</g>
</g>
<!-- Node2&#45;&gt;Node4 -->
<g id="edge10" class="edge"><title>Node2&#45;&gt;Node4</title>
<path fill="none" stroke="midnightblue" d="M137.911,-88.5449C152.411,-100.678 179.318,-121.328 206,-132 245.983,-147.992 293.455,-156.467 331.892,-160.956"/>
<polygon fill="midnightblue" stroke="midnightblue" points="331.645,-164.45 341.968,-162.067 332.412,-157.492 331.645,-164.45"/>
</g>
<!-- Node5 -->
<g id="node5" class="node"><title>Node5</title>
<g id="a_node5"><a xlink:href="../../de/d5b/classwlp_1_1_____allocator.html#a17cb717b04d18a8febfa4f4e0582d0b7" target="_top" xlink:title="wlp::__Allocator::getBlockSize">
<polygon fill="white" stroke="black" points="330,-90.5 330,-109.5 480,-109.5 480,-90.5 330,-90.5"/>
<text text-anchor="middle" x="405" y="-97.5" font-family="Helvetica,sans-Serif" font-size="10.00">wlp::__Allocator::getBlockSize</text>
</a>
</g>
</g>
<!-- Node2&#45;&gt;Node5 -->
<g id="edge11" class="edge"><title>Node2&#45;&gt;Node5</title>
<path fill="none" stroke="midnightblue" d="M142.307,-88.6573C157.712,-97.7623 182.495,-110.768 206,-116 256.74,-127.293 316.369,-119.742 356.83,-111.621"/>
<polygon fill="midnightblue" stroke="midnightblue" points="357.618,-115.032 366.687,-109.555 356.182,-108.181 357.618,-115.032"/>
</g>
<!-- Node6 -->
<g id="node6" class="node"><title>Node6</title>
<g id="a_node6"><a xlink:href="../../df/d64/_memory_8cpp.html#ae2e1e5eb229847e60461811e59883e94" target="_top" xlink:title="memory_get_allocator">
<polygon fill="white" stroke="black" points="348.5,-38.5 348.5,-57.5 461.5,-57.5 461.5,-38.5 348.5,-38.5"/>
<text text-anchor="middle" x="405" y="-45.5" font-family="Helvetica,sans-Serif" font-size="10.00">memory_get_allocator</text>
</a>
</g>
</g>
<!-- Node2&#45;&gt;Node6 -->
<g id="edge12" class="edge"><title>Node2&#45;&gt;Node6</title>
<path fill="none" stroke="midnightblue" d="M160.962,-69.4493C174.822,-65.915 191.072,-62.2299 206,-60 249.773,-53.4615 299.496,-50.4636 338.164,-49.0993"/>
<polygon fill="midnightblue" stroke="midnightblue" points="338.372,-52.5945 348.253,-48.7713 338.145,-45.5982 338.372,-52.5945"/>
</g>
<!-- Node9 -->
<g id="node9" class="node"><title>Node9</title>
<g id="a_node9"><a xlink:href="../../df/d64/_memory_8cpp.html#a3449e9c53dbd01237556c8a36a18970c" target="_top" xlink:title="set_block_allocator">
<polygon fill="white" stroke="black" points="354.5,-0.5 354.5,-19.5 455.5,-19.5 455.5,-0.5 354.5,-0.5"/>
<text text-anchor="middle" x="405" y="-7.5" font-family="Helvetica,sans-Serif" font-size="10.00">set_block_allocator</text>
</a>
</g>
</g>
<!-- Node2&#45;&gt;Node9 -->
<g id="edge13" class="edge"><title>Node2&#45;&gt;Node9</title>
<path fill="none" stroke="midnightblue" d="M147.389,-69.4222C163.11,-62.3637 185.55,-52.987 206,-47 251.539,-33.6681 304.429,-24.0743 344.083,-18.0013"/>
<polygon fill="midnightblue" stroke="midnightblue" points="344.755,-21.4399 354.125,-16.4953 343.716,-14.5174 344.755,-21.4399"/>
</g>
<!-- Node3&#45;&gt;Node3 -->
<g id="edge3" class="edge"><title>Node3&#45;&gt;Node3</title>
<path fill="none" stroke="midnightblue" d="M230.888,-88.7571C221.59,-97.5653 227.961,-107 250,-107 264.119,-107 271.807,-103.128 273.065,-98.0292"/>
<polygon fill="midnightblue" stroke="midnightblue" points="276.254,-96.5831 269.112,-88.7571 269.815,-99.3286 276.254,-96.5831"/>
</g>
<!-- Node3&#45;&gt;Node4 -->
<g id="edge4" class="edge"><title>Node3&#45;&gt;Node4</title>
<path fill="none" stroke="midnightblue" d="M267.958,-88.6429C294.611,-103.798 346.498,-133.303 377.921,-151.171"/>
<polygon fill="midnightblue" stroke="midnightblue" points="376.543,-154.413 386.966,-156.314 380.003,-148.328 376.543,-154.413"/>
</g>
<!-- Node3&#45;&gt;Node5 -->
<g id="edge5" class="edge"><title>Node3&#45;&gt;Node5</title>
<path fill="none" stroke="midnightblue" d="M294.026,-84.9056C303.604,-86.2202 314.055,-87.6545 324.579,-89.099"/>
<polygon fill="midnightblue" stroke="midnightblue" points="324.282,-92.5911 334.665,-90.4835 325.234,-85.6561 324.282,-92.5911"/>
</g>
<!-- Node3&#45;&gt;Node6 -->
<g id="edge6" class="edge"><title>Node3&#45;&gt;Node6</title>
<path fill="none" stroke="midnightblue" d="M294.026,-70.2823C310.429,-66.9589 329.389,-63.1173 346.897,-59.5699"/>
<polygon fill="midnightblue" stroke="midnightblue" points="347.902,-62.9374 357.008,-57.5213 346.512,-56.0768 347.902,-62.9374"/>
</g>
<!-- Node3&#45;&gt;Node9 -->
<g id="edge9" class="edge"><title>Node3&#45;&gt;Node9</title>
<path fill="none" stroke="midnightblue" d="M263.446,-69.3703C278.456,-58.1846 304.818,-39.8789 330,-29 335.673,-26.549 341.733,-24.3608 347.85,-22.4209"/>
<polygon fill="midnightblue" stroke="midnightblue" points="348.868,-25.7698 357.463,-19.5749 346.881,-19.0578 348.868,-25.7698"/>
</g>
<!-- Node7 -->
<g id="node7" class="node"><title>Node7</title>
<g id="a_node7"><a xlink:href="../../df/d64/_memory_8cpp.html#a183874ce1293611655792ea9a96386e9" target="_top" xlink:title="find_allocator">
<polygon fill="white" stroke="black" points="521,-57.5 521,-76.5 595,-76.5 595,-57.5 521,-57.5"/>
<text text-anchor="middle" x="558" y="-64.5" font-family="Helvetica,sans-Serif" font-size="10.00">find_allocator</text>
</a>
</g>
</g>
<!-- Node6&#45;&gt;Node7 -->
<g id="edge7" class="edge"><title>Node6&#45;&gt;Node7</title>
<path fill="none" stroke="midnightblue" d="M461.798,-55.0209C477.771,-57.0307 495.008,-59.1997 510.369,-61.1326"/>
<polygon fill="midnightblue" stroke="midnightblue" points="510.306,-64.6522 520.665,-62.4281 511.18,-57.7069 510.306,-64.6522"/>
</g>
<!-- Node8 -->
<g id="node8" class="node"><title>Node8</title>
<g id="a_node8"><a xlink:href="../../df/d64/_memory_8cpp.html#a8fd0fd773b28e67bdee6e672e5491b53" target="_top" xlink:title="insert_allocator">
<polygon fill="white" stroke="black" points="516.5,-19.5 516.5,-38.5 599.5,-38.5 599.5,-19.5 516.5,-19.5"/>
<text text-anchor="middle" x="558" y="-26.5" font-family="Helvetica,sans-Serif" font-size="10.00">insert_allocator</text>
</a>
</g>
</g>
<!-- Node6&#45;&gt;Node8 -->
<g id="edge8" class="edge"><title>Node6&#45;&gt;Node8</title>
<path fill="none" stroke="midnightblue" d="M461.798,-40.9791C476.265,-39.1587 491.77,-37.2078 505.978,-35.42"/>
<polygon fill="midnightblue" stroke="midnightblue" points="506.576,-38.8724 516.061,-34.1513 505.702,-31.9272 506.576,-38.8724"/>
</g>
</g>
</svg>
        <g id="navigator" transform="translate(0 0)" fill="#404254">
                <rect fill="#f2f5e9" fill-opacity="0.5" stroke="#606060" stroke-width=".5" x="0" y="0" width="60" height="60"/>
                <use id="zoomplus" xlink:href="#zoomPlus" x="17" y="9" onmousedown="handleZoom(evt,'in')"/>
                <use id="zoomminus" xlink:href="#zoomMin" x="42" y="9" onmousedown="handleZoom(evt,'out')"/>
                <use id="reset" xlink:href="#resetDef" x="30" y="36" onmousedown="handleReset()"/>
                <g id="arrowUp" xlink:href="#dirArrow" transform="translate(30 24)" onmousedown="handlePan(0,-1)">
                  <use xlink:href="#rim" fill="#404040">
                        <set attributeName="fill" to="#808080" begin="arrowUp.mouseover" end="arrowUp.mouseout"/>
                  </use>
                  <path fill="none" stroke="white" stroke-width="1.5" d="M0,-3.0v7 M-2.5,-0.5L0,-3.0L2.5,-0.5"/>
                </g>
                <g id="arrowRight" xlink:href="#dirArrow" transform="rotate(90) translate(36 -43)" onmousedown="handlePan(1,0)">
                  <use xlink:href="#rim" fill="#404040">
                        <set attributeName="fill" to="#808080" begin="arrowRight.mouseover" end="arrowRight.mouseout"/>
                  </use>
                  <path fill="none" stroke="white" stroke-width="1.5" d="M0,-3.0v7 M-2.5,-0.5L0,-3.0L2.5,-0.5"/>
                </g>
                <g id="arrowDown" xlink:href="#dirArrow" transform="rotate(180) translate(-30 -48)" onmousedown="handlePan(0,1)">
                  <use xlink:href="#rim" fill="#404040">
                        <set attributeName="fill" to="#808080" begin="arrowDown.mouseover" end="arrowDown.mouseout"/>
                  </use>
                  <path fill="none" stroke="white" stroke-width="1.5" d="M0,-3.0v7 M-2.5,-0.5L0,-3.0L2.5,-0.5"/>
                </g>
                <g id="arrowLeft" xlink:href="#dirArrow" transform="rotate(270) translate(-36 17)" onmousedown="handlePan(-1,0)">
                  <use xlink:href="#rim" fill="#404040">
                        <set attributeName="fill" to="#808080" begin="arrowLeft.mouseover" end="arrowLeft.mouseout"/>
                  </use>
                  <path fill="none" stroke="white" stroke-width="1.5" d="M0,-3.0v7 M-2.5,-0.5L0,-3.0L2.5,-0.5"/>
                </g>
        </g>
        <svg viewBox="0 0 15 15" width="100%" height="30px" preserveAspectRatio="xMaxYMin meet">
         <g id="arrow_out" transform="scale(0.3 0.3)">
          <a xlink:href="_memory_8h_ac22d681988e173a07bb5f4b5375923f8_cgraph_org.svg" target="_base">
           <rect id="button" ry="5" rx="5" y="6" x="6" height="38" width="38"
                fill="#f2f5e9" fill-opacity="0.5" stroke="#606060" stroke-width="1.0"/>
           <path id="arrow"
             d="M 11.500037,31.436501 C 11.940474,20.09759 22.043105,11.32322 32.158766,21.979434 L 37.068811,17.246167 C 37.068811,17.246167 37.088388,32 37.088388,32 L 22.160133,31.978069 C 22.160133,31.978069 26.997745,27.140456 26.997745,27.140456 C 18.528582,18.264221 13.291696,25.230495 11.500037,31.436501 z"
             style="fill:#404040;"/>
          </a>
         </g>
        </svg>
</svg>
