<?xml version="1.0" encoding="UTF-8" standalone="no"?>
<!DOCTYPE svg PUBLIC "-//W3C//DTD SVG 1.1//EN"
 "http://www.w3.org/Graphics/SVG/1.1/DTD/svg11.dtd">
<!-- Generated by graphviz version 2.36.0 (20140111.2315)
 -->
<!-- Title: free Pages: 1 -->
<svg width="326pt" height="213pt"
 viewBox="0.00 0.00 326.00 213.00" xmlns="http://www.w3.org/2000/svg" xmlns:xlink="http://www.w3.org/1999/xlink">
<g id="graph0" class="graph" transform="scale(1 1) rotate(0) translate(4 209)">
<title>free</title>
<polygon fill="white" stroke="none" points="-4,4 -4,-209 322,-209 322,4 -4,4"/>
<!-- Node1 -->
<g id="node1" class="node"><title>Node1</title>
<polygon fill="#bfbfbf" stroke="black" points="0.5,-87.5 0.5,-106.5 33.5,-106.5 33.5,-87.5 0.5,-87.5"/>
<text text-anchor="middle" x="17" y="-94.5" font-family="Helvetica,sans-Serif" font-size="10.00">free</text>
</g>
<!-- Node2 -->
<g id="node2" class="node"><title>Node2</title>
<g id="a_node2"><a xlink:href="../../de/dc1/classwlp_1_1_reference_count.html#ad321394bfc7a1d215d3616c3721923ee" target="_top" xlink:title="wlp::ReferenceCount\l\&lt; T * \&gt;::destroy">
<polygon fill="white" stroke="black" points="70.5,-175 70.5,-205 179.5,-205 179.5,-175 70.5,-175"/>
<text text-anchor="start" x="78.5" y="-193" font-family="Helvetica,sans-Serif" font-size="10.00">wlp::ReferenceCount</text>
<text text-anchor="middle" x="125" y="-182" font-family="Helvetica,sans-Serif" font-size="10.00">&lt; T * &gt;::destroy</text>
</a>
</g>
</g>
<!-- Node1&#45;&gt;Node2 -->
<g id="edge1" class="edge"><title>Node1&#45;&gt;Node2</title>
<path fill="none" stroke="midnightblue" d="M28.5482,-115.359C37.8827,-130.303 52.6882,-151.121 70,-165 74.6751,-168.748 80.0036,-172.081 85.4496,-174.994"/>
<polygon fill="midnightblue" stroke="midnightblue" points="31.3856,-113.286 23.2328,-106.52 25.3866,-116.893 31.3856,-113.286"/>
</g>
<!-- Node3 -->
<g id="node3" class="node"><title>Node3</title>
<g id="a_node3"><a xlink:href="../../de/dc1/classwlp_1_1_reference_count.html#a7fab13d2d8b36614b06fc53581ca6b17" target="_top" xlink:title="wlp::ReferenceCount\l\&lt; T * \&gt;::dispose">
<polygon fill="white" stroke="black" points="70.5,-126 70.5,-156 179.5,-156 179.5,-126 70.5,-126"/>
<text text-anchor="start" x="78.5" y="-144" font-family="Helvetica,sans-Serif" font-size="10.00">wlp::ReferenceCount</text>
<text text-anchor="middle" x="125" y="-133" font-family="Helvetica,sans-Serif" font-size="10.00">&lt; T * &gt;::dispose</text>
</a>
</g>
</g>
<!-- Node1&#45;&gt;Node3 -->
<g id="edge2" class="edge"><title>Node1&#45;&gt;Node3</title>
<path fill="none" stroke="midnightblue" d="M43.0848,-107.413C56.3833,-112.933 72.9632,-119.815 87.646,-125.91"/>
<polygon fill="midnightblue" stroke="midnightblue" points="44.2184,-104.094 33.6407,-103.492 41.5347,-110.559 44.2184,-104.094"/>
</g>
<!-- Node4 -->
<g id="node4" class="node"><title>Node4</title>
<g id="a_node4"><a xlink:href="../../d9/d8a/_new_8h.html#a3d97a7e2a0208075b4b37328c96ed390" target="_top" xlink:title="operator delete">
<polygon fill="white" stroke="black" points="84.5,-87.5 84.5,-106.5 165.5,-106.5 165.5,-87.5 84.5,-87.5"/>
<text text-anchor="middle" x="125" y="-94.5" font-family="Helvetica,sans-Serif" font-size="10.00">operator delete</text>
</a>
</g>
</g>
<!-- Node1&#45;&gt;Node4 -->
<g id="edge3" class="edge"><title>Node1&#45;&gt;Node4</title>
<path fill="none" stroke="midnightblue" d="M43.9864,-97C56.1676,-97 70.9472,-97 84.473,-97"/>
<polygon fill="midnightblue" stroke="midnightblue" points="43.6407,-93.5001 33.6407,-97 43.6406,-100.5 43.6407,-93.5001"/>
</g>
<!-- Node5 -->
<g id="node5" class="node"><title>Node5</title>
<g id="a_node5"><a xlink:href="../../d9/d8a/_new_8h.html#a1d8b2d6f17242ae0d182b0f7a98ba54f" target="_top" xlink:title="operator delete[]">
<polygon fill="white" stroke="black" points="81.5,-49.5 81.5,-68.5 168.5,-68.5 168.5,-49.5 81.5,-49.5"/>
<text text-anchor="middle" x="125" y="-56.5" font-family="Helvetica,sans-Serif" font-size="10.00">operator delete[]</text>
</a>
</g>
</g>
<!-- Node1&#45;&gt;Node5 -->
<g id="edge4" class="edge"><title>Node1&#45;&gt;Node5</title>
<path fill="none" stroke="midnightblue" d="M43.5629,-87.5906C51.9757,-84.5124 61.3809,-81.0908 70,-78 78.7002,-74.8801 88.2057,-71.5195 96.7832,-68.5048"/>
<polygon fill="midnightblue" stroke="midnightblue" points="42.0964,-84.4004 33.913,-91.1296 44.5067,-90.9724 42.0964,-84.4004"/>
</g>
<!-- Node6 -->
<g id="node6" class="node"><title>Node6</title>
<g id="a_node6"><a xlink:href="../../d8/db4/classwlp_1_1_dynamic_string.html#a7decbdc48439b5582da46d18e6b51041" target="_top" xlink:title="wlp::DynamicString\l::set_value">
<polygon fill="white" stroke="black" points="74,-0 74,-30 176,-30 176,-0 74,-0"/>
<text text-anchor="start" x="82" y="-18" font-family="Helvetica,sans-Serif" font-size="10.00">wlp::DynamicString</text>
<text text-anchor="middle" x="125" y="-7" font-family="Helvetica,sans-Serif" font-size="10.00">::set_value</text>
</a>
</g>
</g>
<!-- Node1&#45;&gt;Node6 -->
<g id="edge5" class="edge"><title>Node1&#45;&gt;Node6</title>
<path fill="none" stroke="midnightblue" d="M31.0339,-79.328C40.7368,-67.0963 54.8719,-51.086 70,-40 74.9998,-36.3361 80.6223,-33.0163 86.3008,-30.0807"/>
<polygon fill="midnightblue" stroke="midnightblue" points="28.117,-77.3798 24.8011,-87.4424 33.6684,-81.6439 28.117,-77.3798"/>
</g>
<!-- Node7 -->
<g id="node7" class="node"><title>Node7</title>
<g id="a_node7"><a xlink:href="../../d8/db4/classwlp_1_1_dynamic_string.html#a7e2df6a940f04fa17d203c9e2c84703a" target="_top" xlink:title="wlp::DynamicString\l::operator=">
<polygon fill="white" stroke="black" points="216,-0 216,-30 318,-30 318,-0 216,-0"/>
<text text-anchor="start" x="224" y="-18" font-family="Helvetica,sans-Serif" font-size="10.00">wlp::DynamicString</text>
<text text-anchor="middle" x="267" y="-7" font-family="Helvetica,sans-Serif" font-size="10.00">::operator=</text>
</a>
</g>
</g>
<!-- Node6&#45;&gt;Node7 -->
<g id="edge6" class="edge"><title>Node6&#45;&gt;Node7</title>
<path fill="none" stroke="midnightblue" d="M186.261,-15C196.089,-15 206.177,-15 215.732,-15"/>
<polygon fill="midnightblue" stroke="midnightblue" points="186.148,-11.5001 176.148,-15 186.148,-18.5001 186.148,-11.5001"/>
</g>
</g>
</svg>
