<?xml version="1.0" encoding="UTF-8" standalone="no"?>
<!DOCTYPE svg PUBLIC "-//W3C//DTD SVG 1.1//EN"
 "http://www.w3.org/Graphics/SVG/1.1/DTD/svg11.dtd">
<!-- Generated by graphviz version 2.38.0 (20140413.2041)
 -->
<!-- Title: getSmallestBlockSize Pages: 1 -->
<svg width="202pt" height="66pt"
 viewBox="0.00 0.00 202.00 66.00" xmlns="http://www.w3.org/2000/svg" xmlns:xlink="http://www.w3.org/1999/xlink">
<g id="graph0" class="graph" transform="scale(1 1) rotate(0) translate(4 62)">
<title>getSmallestBlockSize</title>
<polygon fill="white" stroke="none" points="-4,4 -4,-62 198,-62 198,4 -4,4"/>
<!-- Node60 -->
<g id="node1" class="node"><title>Node60</title>
<polygon fill="#bfbfbf" stroke="black" points="0,-19.5 0,-38.5 113,-38.5 113,-19.5 0,-19.5"/>
<text text-anchor="middle" x="56.5" y="-26.5" font-family="Helvetica,sans-Serif" font-size="10.00">getSmallestBlockSize</text>
</g>
<!-- Node61 -->
<g id="node2" class="node"><title>Node61</title>
<g id="a_node2"><a xlink:href="../../d3/de6/_memory_8h.html#a8d8f3aabf2f8d9c20d03a917f7dd3c91" target="_top" xlink:title="free">
<polygon fill="white" stroke="black" points="155.5,-38.5 155.5,-57.5 187.5,-57.5 187.5,-38.5 155.5,-38.5"/>
<text text-anchor="middle" x="171.5" y="-45.5" font-family="Helvetica,sans-Serif" font-size="10.00">free</text>
</a>
</g>
</g>
<!-- Node60&#45;&gt;Node61 -->
<g id="edge1" class="edge"><title>Node60&#45;&gt;Node61</title>
<path fill="none" stroke="midnightblue" d="M123.227,-40.0515C135.293,-42.0802 146.781,-44.0118 155.41,-45.4628"/>
<polygon fill="midnightblue" stroke="midnightblue" points="123.449,-36.5397 113.007,-38.333 122.288,-43.4428 123.449,-36.5397"/>
</g>
<!-- Node62 -->
<g id="node3" class="node"><title>Node62</title>
<g id="a_node3"><a xlink:href="../../d3/de6/_memory_8h.html#a50569d96c5b87927563caa7281eb9a8a" target="_top" xlink:title="realloc">
<polygon fill="white" stroke="black" points="149,-0.5 149,-19.5 194,-19.5 194,-0.5 149,-0.5"/>
<text text-anchor="middle" x="171.5" y="-7.5" font-family="Helvetica,sans-Serif" font-size="10.00">realloc</text>
</a>
</g>
</g>
<!-- Node60&#45;&gt;Node62 -->
<g id="edge2" class="edge"><title>Node60&#45;&gt;Node62</title>
<path fill="none" stroke="midnightblue" d="M123.114,-17.9676C132.351,-16.4144 141.255,-14.9172 148.802,-13.6483"/>
<polygon fill="midnightblue" stroke="midnightblue" points="122.288,-14.5572 113.007,-19.667 123.449,-21.4603 122.288,-14.5572"/>
</g>
</g>
</svg>
