<?xml version="1.0" encoding="UTF-8" standalone="no"?>
<!DOCTYPE svg PUBLIC "-//W3C//DTD SVG 1.1//EN"
 "http://www.w3.org/Graphics/SVG/1.1/DTD/svg11.dtd">
<!-- Generated by graphviz version 2.38.0 (20140413.2041)
 -->
<!-- Title: stl/Equal.h Pages: 1 -->
<svg width="436pt" height="532pt"
 viewBox="0.00 0.00 436.00 532.00" xmlns="http://www.w3.org/2000/svg" xmlns:xlink="http://www.w3.org/1999/xlink">
<g id="graph0" class="graph" transform="scale(1 1) rotate(0) translate(4 528)">
<title>stl/Equal.h</title>
<polygon fill="white" stroke="none" points="-4,4 -4,-528 432,-528 432,4 -4,4"/>
<!-- Node0 -->
<g id="node1" class="node"><title>Node0</title>
<polygon fill="#bfbfbf" stroke="black" points="334.5,-504.5 334.5,-523.5 397.5,-523.5 397.5,-504.5 334.5,-504.5"/>
<text text-anchor="middle" x="366" y="-511.5" font-family="Helvetica,sans-Serif" font-size="10.00">stl/Equal.h</text>
</g>
<!-- Node1 -->
<g id="node2" class="node"><title>Node1</title>
<g id="a_node2"><a xlink:href="../../db/db5/_string_8h.html" target="_top" xlink:title="string.h">
<polygon fill="white" stroke="black" points="288.5,-448.5 288.5,-467.5 337.5,-467.5 337.5,-448.5 288.5,-448.5"/>
<text text-anchor="middle" x="313" y="-455.5" font-family="Helvetica,sans-Serif" font-size="10.00">string.h</text>
</a>
</g>
</g>
<!-- Node0&#45;&gt;Node1 -->
<g id="edge1" class="edge"><title>Node0&#45;&gt;Node1</title>
<path fill="none" stroke="midnightblue" d="M357.248,-504.083C349.53,-496.22 338.095,-484.569 328.783,-475.081"/>
<polygon fill="midnightblue" stroke="midnightblue" points="331.092,-472.436 321.589,-467.751 326.096,-477.34 331.092,-472.436"/>
</g>
<!-- Node2 -->
<g id="node3" class="node"><title>Node2</title>
<g id="a_node3"><a xlink:href="../../d8/d65/_static_string_8h.html" target="_top" xlink:title="StaticString provides a String that is on stack and is of fixed size. ">
<polygon fill="white" stroke="black" points="259,-392.5 259,-411.5 367,-411.5 367,-392.5 259,-392.5"/>
<text text-anchor="middle" x="313" y="-399.5" font-family="Helvetica,sans-Serif" font-size="10.00">strings/StaticString.h</text>
</a>
</g>
</g>
<!-- Node0&#45;&gt;Node2 -->
<g id="edge19" class="edge"><title>Node0&#45;&gt;Node2</title>
<path fill="none" stroke="midnightblue" d="M364.281,-504.236C361.553,-491.41 355.542,-466.99 346,-448 340.953,-437.956 333.702,-427.772 327.281,-419.639"/>
<polygon fill="midnightblue" stroke="midnightblue" points="329.833,-417.231 320.784,-411.722 324.422,-421.672 329.833,-417.231"/>
</g>
<!-- Node4 -->
<g id="node5" class="node"><title>Node4</title>
<g id="a_node5"><a xlink:href="../../d0/db6/_types_8h.html" target="_top" xlink:title="type definition of all the string types we will be using ">
<polygon fill="white" stroke="black" points="201,-56.5 201,-75.5 261,-75.5 261,-56.5 201,-56.5"/>
<text text-anchor="middle" x="231" y="-63.5" font-family="Helvetica,sans-Serif" font-size="10.00">../Types.h</text>
</a>
</g>
</g>
<!-- Node0&#45;&gt;Node4 -->
<g id="edge18" class="edge"><title>Node0&#45;&gt;Node4</title>
<path fill="none" stroke="midnightblue" d="M375.148,-504.253C392.395,-486.77 428,-445.528 428,-403 428,-403 428,-403 428,-177 428,-105.865 328.871,-80.2996 271.249,-71.4478"/>
<polygon fill="midnightblue" stroke="midnightblue" points="271.745,-67.9832 261.35,-70.0279 270.751,-74.9123 271.745,-67.9832"/>
</g>
<!-- Node1&#45;&gt;Node2 -->
<g id="edge2" class="edge"><title>Node1&#45;&gt;Node2</title>
<path fill="none" stroke="midnightblue" d="M307.834,-448.083C306.324,-440.927 305.894,-430.635 306.542,-421.691"/>
<polygon fill="midnightblue" stroke="midnightblue" points="310.015,-422.126 307.869,-411.751 303.077,-421.2 310.015,-422.126"/>
</g>
<!-- Node2&#45;&gt;Node1 -->
<g id="edge3" class="edge"><title>Node2&#45;&gt;Node1</title>
<path fill="none" stroke="midnightblue" d="M318.131,-411.751C319.657,-418.858 320.104,-429.136 319.472,-438.101"/>
<polygon fill="midnightblue" stroke="midnightblue" points="315.993,-437.713 318.166,-448.083 322.934,-438.622 315.993,-437.713"/>
</g>
<!-- Node3 -->
<g id="node4" class="node"><title>Node3</title>
<g id="a_node4"><a xlink:href="../../de/d0b/_string_iterator_8h.html" target="_top" xlink:title="StringIterator.h">
<polygon fill="white" stroke="black" points="121,-336.5 121,-355.5 201,-355.5 201,-336.5 121,-336.5"/>
<text text-anchor="middle" x="161" y="-343.5" font-family="Helvetica,sans-Serif" font-size="10.00">StringIterator.h</text>
</a>
</g>
</g>
<!-- Node2&#45;&gt;Node3 -->
<g id="edge4" class="edge"><title>Node2&#45;&gt;Node3</title>
<path fill="none" stroke="midnightblue" d="M288.915,-392.444C263.455,-383.399 223.106,-369.064 194.541,-358.916"/>
<polygon fill="midnightblue" stroke="midnightblue" points="195.567,-355.566 184.972,-355.516 193.223,-362.162 195.567,-355.566"/>
</g>
<!-- Node2&#45;&gt;Node4 -->
<g id="edge16" class="edge"><title>Node2&#45;&gt;Node4</title>
<path fill="none" stroke="midnightblue" d="M309.898,-392.289C303.62,-373.856 290,-329.435 290,-291 290,-291 290,-291 290,-177 290,-140.024 263.791,-103.472 246.309,-83.2051"/>
<polygon fill="midnightblue" stroke="midnightblue" points="248.736,-80.6691 239.453,-75.5623 243.525,-85.3434 248.736,-80.6691"/>
</g>
<!-- Node12 -->
<g id="node13" class="node"><title>Node12</title>
<g id="a_node13"><a xlink:href="../../da/db8/_math_8h.html" target="_top" xlink:title="../utility/Math.h">
<polygon fill="white" stroke="black" points="318,-336.5 318,-355.5 400,-355.5 400,-336.5 318,-336.5"/>
<text text-anchor="middle" x="359" y="-343.5" font-family="Helvetica,sans-Serif" font-size="10.00">../utility/Math.h</text>
</a>
</g>
</g>
<!-- Node2&#45;&gt;Node12 -->
<g id="edge17" class="edge"><title>Node2&#45;&gt;Node12</title>
<path fill="none" stroke="midnightblue" d="M320.596,-392.083C327.227,-384.298 337.021,-372.801 345.058,-363.367"/>
<polygon fill="midnightblue" stroke="midnightblue" points="347.725,-365.633 351.545,-355.751 342.396,-361.094 347.725,-365.633"/>
</g>
<!-- Node3&#45;&gt;Node4 -->
<g id="edge5" class="edge"><title>Node3&#45;&gt;Node4</title>
<path fill="none" stroke="midnightblue" d="M121.615,-336.39C73.9511,-323.381 0,-293.734 0,-235 0,-235 0,-235 0,-177 0,-93.5166 124.507,-73.3245 190.705,-68.4887"/>
<polygon fill="midnightblue" stroke="midnightblue" points="191.047,-71.974 200.801,-67.8371 190.596,-64.9885 191.047,-71.974"/>
</g>
<!-- Node6 -->
<g id="node7" class="node"><title>Node6</title>
<g id="a_node7"><a xlink:href="../../d8/dd7/_concept_8h.html" target="_top" xlink:title="Concept definitions. ">
<polygon fill="white" stroke="black" points="119.5,-280.5 119.5,-299.5 202.5,-299.5 202.5,-280.5 119.5,-280.5"/>
<text text-anchor="middle" x="161" y="-287.5" font-family="Helvetica,sans-Serif" font-size="10.00">../stl/Concept.h</text>
</a>
</g>
</g>
<!-- Node3&#45;&gt;Node6 -->
<g id="edge7" class="edge"><title>Node3&#45;&gt;Node6</title>
<path fill="none" stroke="midnightblue" d="M161,-336.083C161,-329.006 161,-318.861 161,-309.986"/>
<polygon fill="midnightblue" stroke="midnightblue" points="164.5,-309.751 161,-299.751 157.5,-309.751 164.5,-309.751"/>
</g>
<!-- Node5 -->
<g id="node6" class="node"><title>Node5</title>
<polygon fill="white" stroke="#bfbfbf" points="206.5,-0.5 206.5,-19.5 255.5,-19.5 255.5,-0.5 206.5,-0.5"/>
<text text-anchor="middle" x="231" y="-7.5" font-family="Helvetica,sans-Serif" font-size="10.00">stdint.h</text>
</g>
<!-- Node4&#45;&gt;Node5 -->
<g id="edge6" class="edge"><title>Node4&#45;&gt;Node5</title>
<path fill="none" stroke="midnightblue" d="M231,-56.083C231,-49.0059 231,-38.8611 231,-29.9865"/>
<polygon fill="midnightblue" stroke="midnightblue" points="234.5,-29.751 231,-19.7511 227.5,-29.7511 234.5,-29.751"/>
</g>
<!-- Node7 -->
<g id="node8" class="node"><title>Node7</title>
<g id="a_node8"><a xlink:href="../../d4/dda/_pair_8h.html" target="_top" xlink:title="Implementation of a 2&#45;element tuple. ">
<polygon fill="white" stroke="black" points="61,-224.5 61,-243.5 103,-243.5 103,-224.5 61,-224.5"/>
<text text-anchor="middle" x="82" y="-231.5" font-family="Helvetica,sans-Serif" font-size="10.00">Pair.h</text>
</a>
</g>
</g>
<!-- Node6&#45;&gt;Node7 -->
<g id="edge8" class="edge"><title>Node6&#45;&gt;Node7</title>
<path fill="none" stroke="midnightblue" d="M148.307,-280.324C136.099,-271.979 117.422,-259.212 102.997,-249.352"/>
<polygon fill="midnightblue" stroke="midnightblue" points="104.892,-246.408 94.6612,-243.655 100.942,-252.187 104.892,-246.408"/>
</g>
<!-- Node9 -->
<g id="node10" class="node"><title>Node9</title>
<g id="a_node10"><a xlink:href="../../d2/d37/_tmp_8h.html" target="_top" xlink:title="Template helper types, structs, and metafunctions. ">
<polygon fill="white" stroke="black" points="151,-112.5 151,-131.5 195,-131.5 195,-112.5 151,-112.5"/>
<text text-anchor="middle" x="173" y="-119.5" font-family="Helvetica,sans-Serif" font-size="10.00">Tmp.h</text>
</a>
</g>
</g>
<!-- Node6&#45;&gt;Node9 -->
<g id="edge15" class="edge"><title>Node6&#45;&gt;Node9</title>
<path fill="none" stroke="midnightblue" d="M160.24,-280.442C158.643,-260.582 155.514,-209.866 161,-168 162.156,-159.181 164.534,-149.633 166.87,-141.61"/>
<polygon fill="midnightblue" stroke="midnightblue" points="170.285,-142.415 169.912,-131.827 163.601,-140.337 170.285,-142.415"/>
</g>
<!-- Node10 -->
<g id="node11" class="node"><title>Node10</title>
<g id="a_node11"><a xlink:href="../../d4/dd5/_type_traits_8h.html" target="_top" xlink:title="Metafunctions for types. ">
<polygon fill="white" stroke="black" points="170,-168.5 170,-187.5 240,-187.5 240,-168.5 170,-168.5"/>
<text text-anchor="middle" x="205" y="-175.5" font-family="Helvetica,sans-Serif" font-size="10.00">TypeTraits.h</text>
</a>
</g>
</g>
<!-- Node6&#45;&gt;Node10 -->
<g id="edge12" class="edge"><title>Node6&#45;&gt;Node10</title>
<path fill="none" stroke="midnightblue" d="M164.453,-280.368C171.617,-262.456 188.231,-220.923 197.821,-196.948"/>
<polygon fill="midnightblue" stroke="midnightblue" points="201.099,-198.176 201.563,-187.591 194.6,-195.576 201.099,-198.176"/>
</g>
<!-- Node11 -->
<g id="node12" class="node"><title>Node11</title>
<g id="a_node12"><a xlink:href="../../d2/db4/_wlib_8h.html" target="_top" xlink:title="../Wlib.h">
<polygon fill="white" stroke="black" points="208.5,-224.5 208.5,-243.5 261.5,-243.5 261.5,-224.5 208.5,-224.5"/>
<text text-anchor="middle" x="235" y="-231.5" font-family="Helvetica,sans-Serif" font-size="10.00">../Wlib.h</text>
</a>
</g>
</g>
<!-- Node6&#45;&gt;Node11 -->
<g id="edge14" class="edge"><title>Node6&#45;&gt;Node11</title>
<path fill="none" stroke="midnightblue" d="M172.889,-280.324C184.15,-272.107 201.287,-259.602 214.709,-249.807"/>
<polygon fill="midnightblue" stroke="midnightblue" points="216.88,-252.556 222.894,-243.834 212.753,-246.901 216.88,-252.556"/>
</g>
<!-- Node8 -->
<g id="node9" class="node"><title>Node8</title>
<g id="a_node9"><a xlink:href="../../db/d2a/_utility_8h.html" target="_top" xlink:title="Various helper functions. ">
<polygon fill="white" stroke="black" points="28.5,-168.5 28.5,-187.5 113.5,-187.5 113.5,-168.5 28.5,-168.5"/>
<text text-anchor="middle" x="71" y="-175.5" font-family="Helvetica,sans-Serif" font-size="10.00">../utility/Utility.h</text>
</a>
</g>
</g>
<!-- Node7&#45;&gt;Node8 -->
<g id="edge9" class="edge"><title>Node7&#45;&gt;Node8</title>
<path fill="none" stroke="midnightblue" d="M80.1836,-224.083C78.7259,-216.927 76.6294,-206.635 74.8075,-197.691"/>
<polygon fill="midnightblue" stroke="midnightblue" points="78.2083,-196.851 72.7826,-187.751 71.3492,-198.248 78.2083,-196.851"/>
</g>
<!-- Node8&#45;&gt;Node9 -->
<g id="edge10" class="edge"><title>Node8&#45;&gt;Node9</title>
<path fill="none" stroke="midnightblue" d="M87.3881,-168.324C103.671,-159.703 128.867,-146.364 147.716,-136.386"/>
<polygon fill="midnightblue" stroke="midnightblue" points="149.452,-139.427 156.653,-131.655 146.177,-133.24 149.452,-139.427"/>
</g>
<!-- Node9&#45;&gt;Node4 -->
<g id="edge11" class="edge"><title>Node9&#45;&gt;Node4</title>
<path fill="none" stroke="midnightblue" d="M182.319,-112.324C190.893,-104.341 203.812,-92.3128 214.188,-82.6529"/>
<polygon fill="midnightblue" stroke="midnightblue" points="216.578,-85.2098 221.512,-75.8339 211.808,-80.0865 216.578,-85.2098"/>
</g>
<!-- Node10&#45;&gt;Node9 -->
<g id="edge13" class="edge"><title>Node10&#45;&gt;Node9</title>
<path fill="none" stroke="midnightblue" d="M199.716,-168.083C195.289,-160.613 188.837,-149.724 183.382,-140.52"/>
<polygon fill="midnightblue" stroke="midnightblue" points="186.295,-138.57 178.186,-131.751 180.273,-142.138 186.295,-138.57"/>
</g>
</g>
</svg>
