<?xml version="1.0" encoding="UTF-8" standalone="no"?>
<!DOCTYPE svg PUBLIC "-//W3C//DTD SVG 1.1//EN"
 "http://www.w3.org/Graphics/SVG/1.1/DTD/svg11.dtd">
<!-- Generated by graphviz version 2.36.0 (20140111.2315)
 -->
<!-- Title: stl/Equal.h Pages: 1 -->
<!--zoomable 476 -->
<svg id="main" version="1.1" xmlns="http://www.w3.org/2000/svg" xmlns:xlink="http://www.w3.org/1999/xlink" xml:space="preserve" onload="init(evt)">
<style type="text/css"><![CDATA[
.edge:hover path { stroke: red; }
.edge:hover polygon { stroke: red; fill: red; }
]]></style>
<script type="text/javascript"><![CDATA[
var edges = document.getElementsByTagName('g');
if (edges && edges.length) {
  for (var i=0;i<edges.length;i++) {
    if (edges[i].id.substr(0,4)=='edge') {
      edges[i].setAttribute('class','edge');
    }
  }
}
]]></script>
        <defs>
                <circle id="rim" cx="0" cy="0" r="7"/>
                <circle id="rim2" cx="0" cy="0" r="3.5"/>
                <g id="zoomPlus">
                        <use xlink:href="#rim" fill="#404040">
                                <set attributeName="fill" to="#808080" begin="zoomplus.mouseover" end="zoomplus.mouseout"/>
                        </use>
                        <path d="M-4,0h8M0,-4v8" fill="none" stroke="white" stroke-width="1.5" pointer-events="none"/>
                </g>
                <g id="zoomMin">
                        <use xlink:href="#rim" fill="#404040">
                                <set attributeName="fill" to="#808080" begin="zoomminus.mouseover" end="zoomminus.mouseout"/>
                        </use>
                        <path d="M-4,0h8" fill="none" stroke="white" stroke-width="1.5" pointer-events="none"/>
                </g>
                <g id="dirArrow">
                        <path fill="none" stroke="white" stroke-width="1.5" d="M0,-3.0v7 M-2.5,-0.5L0,-3.0L2.5,-0.5"/>
                </g>
               <g id="resetDef">
                       <use xlink:href="#rim2" fill="#404040">
                               <set attributeName="fill" to="#808080" begin="reset.mouseover" end="reset.mouseout"/>
                       </use>
               </g>
        </defs>

<script type="text/javascript">
var viewWidth = 470;
var viewHeight = 476;
var sectionId = 'dynsection-0';
</script>
<script xlink:href="../../svgpan.js"/>
<svg id="graph" class="graph">
<g id="viewport">
<title>stl/Equal.h</title>
<polygon fill="white" stroke="none" points="-4,4 -4,-472 466.362,-472 466.362,4 -4,4"/>
<!-- Node1 -->
<g id="node1" class="node"><title>Node1</title>
<polygon fill="#bfbfbf" stroke="black" points="154.5,-448.5 154.5,-467.5 217.5,-467.5 217.5,-448.5 154.5,-448.5"/>
<text text-anchor="middle" x="186" y="-455.5" font-family="Helvetica,sans-Serif" font-size="10.00">stl/Equal.h</text>
</g>
<!-- Node2 -->
<g id="node2" class="node"><title>Node2</title>
<polygon fill="white" stroke="#bfbfbf" points="206.5,-280.5 206.5,-299.5 255.5,-299.5 255.5,-280.5 206.5,-280.5"/>
<text text-anchor="middle" x="231" y="-287.5" font-family="Helvetica,sans-Serif" font-size="10.00">string.h</text>
</g>
<!-- Node1&#45;&gt;Node2 -->
<g id="edge1" class="edge"><title>Node1&#45;&gt;Node2</title>
<path fill="none" stroke="midnightblue" d="M186.281,-448.225C187.165,-427.908 190.753,-376.297 205,-336 208.415,-326.34 213.917,-316.395 218.982,-308.319"/>
<polygon fill="midnightblue" stroke="midnightblue" points="221.998,-310.102 224.576,-299.826 216.152,-306.252 221.998,-310.102"/>
</g>
<!-- Node3 -->
<g id="node3" class="node"><title>Node3</title>
<g id="a_node3"><a xlink:href="../../d0/db6/_types_8h.html" target="_top" xlink:title="type definition of all the string types we will be using ">
<polygon fill="white" stroke="black" points="209.5,-56.5 209.5,-75.5 270.5,-75.5 270.5,-56.5 209.5,-56.5"/>
<text text-anchor="middle" x="240" y="-63.5" font-family="Helvetica,sans-Serif" font-size="10.00">../Types.h</text>
</a>
</g>
</g>
<!-- Node1&#45;&gt;Node3 -->
<g id="edge2" class="edge"><title>Node1&#45;&gt;Node3</title>
<path fill="none" stroke="midnightblue" d="M154.448,-452.91C101.381,-444.071 0,-417.905 0,-347 0,-347 0,-347 0,-177 0,-90.4607 130.548,-71.7375 199.078,-67.8707"/>
<polygon fill="midnightblue" stroke="midnightblue" points="199.296,-71.3643 209.116,-67.3855 198.958,-64.3725 199.296,-71.3643"/>
</g>
<!-- Node5 -->
<g id="node5" class="node"><title>Node5</title>
<g id="a_node5"><a xlink:href="../../db/db5/_string_8h.html" target="_top" xlink:title="../strings/String.h">
<polygon fill="white" stroke="black" points="246,-392.5 246,-411.5 338,-411.5 338,-392.5 246,-392.5"/>
<text text-anchor="middle" x="292" y="-399.5" font-family="Helvetica,sans-Serif" font-size="10.00">../strings/String.h</text>
</a>
</g>
</g>
<!-- Node1&#45;&gt;Node5 -->
<g id="edge4" class="edge"><title>Node1&#45;&gt;Node5</title>
<path fill="none" stroke="midnightblue" d="M203.031,-448.324C220.03,-439.664 246.376,-426.242 265.993,-416.249"/>
<polygon fill="midnightblue" stroke="midnightblue" points="267.69,-419.312 275.012,-411.655 264.512,-413.075 267.69,-419.312"/>
</g>
<!-- Node4 -->
<g id="node4" class="node"><title>Node4</title>
<polygon fill="white" stroke="#bfbfbf" points="215.5,-0.5 215.5,-19.5 264.5,-19.5 264.5,-0.5 215.5,-0.5"/>
<text text-anchor="middle" x="240" y="-7.5" font-family="Helvetica,sans-Serif" font-size="10.00">stdint.h</text>
</g>
<!-- Node3&#45;&gt;Node4 -->
<g id="edge3" class="edge"><title>Node3&#45;&gt;Node4</title>
<path fill="none" stroke="midnightblue" d="M240,-56.083C240,-49.0059 240,-38.8611 240,-29.9865"/>
<polygon fill="midnightblue" stroke="midnightblue" points="243.5,-29.751 240,-19.7511 236.5,-29.7511 243.5,-29.751"/>
</g>
<!-- Node5&#45;&gt;Node2 -->
<g id="edge5" class="edge"><title>Node5&#45;&gt;Node2</title>
<path fill="none" stroke="midnightblue" d="M297.204,-392.423C304.364,-379.408 315.265,-354.257 305,-336 296.416,-320.733 280.323,-310.043 265.331,-302.925"/>
<polygon fill="midnightblue" stroke="midnightblue" points="266.295,-299.528 255.728,-298.751 263.504,-305.948 266.295,-299.528"/>
</g>
<!-- Node5&#45;&gt;Node3 -->
<g id="edge17" class="edge"><title>Node5&#45;&gt;Node3</title>
<path fill="none" stroke="midnightblue" d="M338.098,-398.405C371.145,-394.15 414.508,-383.299 442,-356 463.448,-334.703 462,-321.225 462,-291 462,-291 462,-291 462,-177 462,-97.1393 345.231,-75.2579 281.066,-69.2626"/>
<polygon fill="midnightblue" stroke="midnightblue" points="281.127,-65.7554 270.868,-68.4017 280.538,-72.7306 281.127,-65.7554"/>
</g>
<!-- Node6 -->
<g id="node6" class="node"><title>Node6</title>
<g id="a_node6"><a xlink:href="../../de/d0b/_string_iterator_8h.html" target="_top" xlink:title="StringIterator.h">
<polygon fill="white" stroke="black" points="352.5,-336.5 352.5,-355.5 433.5,-355.5 433.5,-336.5 352.5,-336.5"/>
<text text-anchor="middle" x="393" y="-343.5" font-family="Helvetica,sans-Serif" font-size="10.00">StringIterator.h</text>
</a>
</g>
</g>
<!-- Node5&#45;&gt;Node6 -->
<g id="edge6" class="edge"><title>Node5&#45;&gt;Node6</title>
<path fill="none" stroke="midnightblue" d="M308.227,-392.324C324.351,-383.703 349.3,-370.364 367.964,-360.386"/>
<polygon fill="midnightblue" stroke="midnightblue" points="369.644,-363.456 376.813,-355.655 366.344,-357.283 369.644,-363.456"/>
</g>
<!-- Node13 -->
<g id="node13" class="node"><title>Node13</title>
<g id="a_node13"><a xlink:href="../../da/db8/_math_8h.html" target="_top" xlink:title="../utility/Math.h">
<polygon fill="white" stroke="black" points="214,-336.5 214,-355.5 296,-355.5 296,-336.5 214,-336.5"/>
<text text-anchor="middle" x="255" y="-343.5" font-family="Helvetica,sans-Serif" font-size="10.00">../utility/Math.h</text>
</a>
</g>
</g>
<!-- Node5&#45;&gt;Node13 -->
<g id="edge18" class="edge"><title>Node5&#45;&gt;Node13</title>
<path fill="none" stroke="midnightblue" d="M285.89,-392.083C280.718,-384.534 273.154,-373.495 266.806,-364.23"/>
<polygon fill="midnightblue" stroke="midnightblue" points="269.536,-362.022 260.996,-355.751 263.761,-365.979 269.536,-362.022"/>
</g>
<!-- Node14 -->
<g id="node14" class="node"><title>Node14</title>
<g id="a_node14"><a xlink:href="../../d3/de6/_memory_8h.html" target="_top" xlink:title="Memory is a class that provides dynamic fixed size memory. ">
<polygon fill="white" stroke="black" points="50.5,-336.5 50.5,-355.5 157.5,-355.5 157.5,-336.5 50.5,-336.5"/>
<text text-anchor="middle" x="104" y="-343.5" font-family="Helvetica,sans-Serif" font-size="10.00">../memory/Memory.h</text>
</a>
</g>
</g>
<!-- Node5&#45;&gt;Node14 -->
<g id="edge19" class="edge"><title>Node5&#45;&gt;Node14</title>
<path fill="none" stroke="midnightblue" d="M262.211,-392.444C230.171,-383.241 179.067,-368.562 143.647,-358.388"/>
<polygon fill="midnightblue" stroke="midnightblue" points="144.227,-354.913 133.65,-355.516 142.295,-361.641 144.227,-354.913"/>
</g>
<!-- Node6&#45;&gt;Node3 -->
<g id="edge7" class="edge"><title>Node6&#45;&gt;Node3</title>
<path fill="none" stroke="midnightblue" d="M397.181,-336.393C405.642,-318.156 424,-274.087 424,-235 424,-235 424,-235 424,-177 424,-110.743 335.017,-83.4419 280.811,-72.9578"/>
<polygon fill="midnightblue" stroke="midnightblue" points="281.263,-69.4825 270.797,-71.1343 280.009,-76.3692 281.263,-69.4825"/>
</g>
<!-- Node7 -->
<g id="node7" class="node"><title>Node7</title>
<g id="a_node7"><a xlink:href="../../d8/dd7/_concept_8h.html" target="_top" xlink:title="Concept definitions. ">
<polygon fill="white" stroke="black" points="273,-280.5 273,-299.5 357,-299.5 357,-280.5 273,-280.5"/>
<text text-anchor="middle" x="315" y="-287.5" font-family="Helvetica,sans-Serif" font-size="10.00">../stl/Concept.h</text>
</a>
</g>
</g>
<!-- Node6&#45;&gt;Node7 -->
<g id="edge8" class="edge"><title>Node6&#45;&gt;Node7</title>
<path fill="none" stroke="midnightblue" d="M380.468,-336.324C368.414,-327.979 349.973,-315.212 335.731,-305.352"/>
<polygon fill="midnightblue" stroke="midnightblue" points="337.715,-302.469 327.501,-299.655 333.731,-308.224 337.715,-302.469"/>
</g>
<!-- Node8 -->
<g id="node8" class="node"><title>Node8</title>
<g id="a_node8"><a xlink:href="../../d4/dda/_pair_8h.html" target="_top" xlink:title="Implementation of a 2&#45;element tuple. ">
<polygon fill="white" stroke="black" points="206,-224.5 206,-243.5 248,-243.5 248,-224.5 206,-224.5"/>
<text text-anchor="middle" x="227" y="-231.5" font-family="Helvetica,sans-Serif" font-size="10.00">Pair.h</text>
</a>
</g>
</g>
<!-- Node7&#45;&gt;Node8 -->
<g id="edge9" class="edge"><title>Node7&#45;&gt;Node8</title>
<path fill="none" stroke="midnightblue" d="M300.861,-280.324C287.134,-271.9 266.064,-258.971 249.936,-249.074"/>
<polygon fill="midnightblue" stroke="midnightblue" points="251.457,-245.902 241.104,-243.655 247.796,-251.868 251.457,-245.902"/>
</g>
<!-- Node10 -->
<g id="node10" class="node"><title>Node10</title>
<g id="a_node10"><a xlink:href="../../d2/d37/_tmp_8h.html" target="_top" xlink:title="Template helper types, structs, and metafunctions. ">
<polygon fill="white" stroke="black" points="218,-112.5 218,-131.5 262,-131.5 262,-112.5 218,-112.5"/>
<text text-anchor="middle" x="240" y="-119.5" font-family="Helvetica,sans-Serif" font-size="10.00">Tmp.h</text>
</a>
</g>
</g>
<!-- Node7&#45;&gt;Node10 -->
<g id="edge16" class="edge"><title>Node7&#45;&gt;Node10</title>
<path fill="none" stroke="midnightblue" d="M310.968,-280.075C299.111,-253.832 264.192,-176.545 248.185,-141.117"/>
<polygon fill="midnightblue" stroke="midnightblue" points="251.178,-139.24 243.871,-131.568 244.799,-142.122 251.178,-139.24"/>
</g>
<!-- Node11 -->
<g id="node11" class="node"><title>Node11</title>
<g id="a_node11"><a xlink:href="../../d4/dd5/_type_traits_8h.html" target="_top" xlink:title="Metafunctions for types. ">
<polygon fill="white" stroke="black" points="304.5,-168.5 304.5,-187.5 375.5,-187.5 375.5,-168.5 304.5,-168.5"/>
<text text-anchor="middle" x="340" y="-175.5" font-family="Helvetica,sans-Serif" font-size="10.00">TypeTraits.h</text>
</a>
</g>
</g>
<!-- Node7&#45;&gt;Node11 -->
<g id="edge13" class="edge"><title>Node7&#45;&gt;Node11</title>
<path fill="none" stroke="midnightblue" d="M316.962,-280.368C320.996,-262.617 330.303,-221.666 335.773,-197.597"/>
<polygon fill="midnightblue" stroke="midnightblue" points="339.244,-198.118 338.047,-187.591 332.418,-196.567 339.244,-198.118"/>
</g>
<!-- Node12 -->
<g id="node12" class="node"><title>Node12</title>
<g id="a_node12"><a xlink:href="../../d2/db4/_wlib_8h.html" target="_top" xlink:title="../Wlib.h">
<polygon fill="white" stroke="black" points="342.5,-224.5 342.5,-243.5 395.5,-243.5 395.5,-224.5 342.5,-224.5"/>
<text text-anchor="middle" x="369" y="-231.5" font-family="Helvetica,sans-Serif" font-size="10.00">../Wlib.h</text>
</a>
</g>
</g>
<!-- Node7&#45;&gt;Node12 -->
<g id="edge15" class="edge"><title>Node7&#45;&gt;Node12</title>
<path fill="none" stroke="midnightblue" d="M323.917,-280.083C331.78,-272.22 343.431,-260.569 352.919,-251.081"/>
<polygon fill="midnightblue" stroke="midnightblue" points="355.653,-253.297 360.249,-243.751 350.703,-248.347 355.653,-253.297"/>
</g>
<!-- Node9 -->
<g id="node9" class="node"><title>Node9</title>
<g id="a_node9"><a xlink:href="../../db/d2a/_utility_8h.html" target="_top" xlink:title="Various helper functions. ">
<polygon fill="white" stroke="black" points="162,-168.5 162,-187.5 248,-187.5 248,-168.5 162,-168.5"/>
<text text-anchor="middle" x="205" y="-175.5" font-family="Helvetica,sans-Serif" font-size="10.00">../utility/Utility.h</text>
</a>
</g>
</g>
<!-- Node8&#45;&gt;Node9 -->
<g id="edge10" class="edge"><title>Node8&#45;&gt;Node9</title>
<path fill="none" stroke="midnightblue" d="M223.367,-224.083C220.388,-216.77 216.074,-206.181 212.375,-197.103"/>
<polygon fill="midnightblue" stroke="midnightblue" points="215.58,-195.691 208.565,-187.751 209.097,-198.333 215.58,-195.691"/>
</g>
<!-- Node9&#45;&gt;Node10 -->
<g id="edge11" class="edge"><title>Node9&#45;&gt;Node10</title>
<path fill="none" stroke="midnightblue" d="M210.78,-168.083C215.672,-160.534 222.827,-149.495 228.833,-140.23"/>
<polygon fill="midnightblue" stroke="midnightblue" points="231.826,-142.046 234.328,-131.751 225.952,-138.239 231.826,-142.046"/>
</g>
<!-- Node10&#45;&gt;Node3 -->
<g id="edge12" class="edge"><title>Node10&#45;&gt;Node3</title>
<path fill="none" stroke="midnightblue" d="M240,-112.083C240,-105.006 240,-94.8611 240,-85.9865"/>
<polygon fill="midnightblue" stroke="midnightblue" points="243.5,-85.751 240,-75.7511 236.5,-85.7511 243.5,-85.751"/>
</g>
<!-- Node11&#45;&gt;Node10 -->
<g id="edge14" class="edge"><title>Node11&#45;&gt;Node10</title>
<path fill="none" stroke="midnightblue" d="M323.933,-168.324C308.042,-159.743 283.493,-146.486 265.042,-136.522"/>
<polygon fill="midnightblue" stroke="midnightblue" points="266.489,-133.326 256.027,-131.655 263.163,-139.486 266.489,-133.326"/>
</g>
<!-- Node14&#45;&gt;Node2 -->
<g id="edge20" class="edge"><title>Node14&#45;&gt;Node2</title>
<path fill="none" stroke="midnightblue" d="M124.124,-336.444C145.024,-327.557 177.935,-313.563 201.716,-303.451"/>
<polygon fill="midnightblue" stroke="midnightblue" points="203.138,-306.65 210.971,-299.516 200.398,-300.208 203.138,-306.65"/>
</g>
<!-- Node14&#45;&gt;Node3 -->
<g id="edge22" class="edge"><title>Node14&#45;&gt;Node3</title>
<path fill="none" stroke="midnightblue" d="M94.2615,-336.372C75.9025,-319.099 38,-278.206 38,-235 38,-235 38,-235 38,-177 38,-104.296 140.174,-79.3677 199.189,-71.0329"/>
<polygon fill="midnightblue" stroke="midnightblue" points="199.861,-74.4748 209.321,-69.7043 198.95,-67.5342 199.861,-74.4748"/>
</g>
<!-- Node14&#45;&gt;Node9 -->
<g id="edge21" class="edge"><title>Node14&#45;&gt;Node9</title>
<path fill="none" stroke="midnightblue" d="M118.135,-336.211C130.166,-328.102 147.173,-315.062 158,-300 181.157,-267.787 194.691,-222.66 200.886,-197.612"/>
<polygon fill="midnightblue" stroke="midnightblue" points="204.35,-198.17 203.224,-187.635 197.535,-196.572 204.35,-198.17"/>
</g>
<!-- Node14&#45;&gt;Node10 -->
<g id="edge23" class="edge"><title>Node14&#45;&gt;Node10</title>
<path fill="none" stroke="midnightblue" d="M101.212,-336.287C95.1302,-315.666 82.5534,-262.707 100,-224 120.513,-178.491 173.596,-149.446 208.185,-134.706"/>
<polygon fill="midnightblue" stroke="midnightblue" points="209.908,-137.783 217.838,-130.757 207.258,-131.304 209.908,-137.783"/>
</g>
<!-- Node15 -->
<g id="node15" class="node"><title>Node15</title>
<g id="a_node15"><a xlink:href="../../d9/d8a/_new_8h.html" target="_top" xlink:title="New operators defined for Arduino boards and for other boards use the normal new. ...">
<polygon fill="white" stroke="black" points="104.5,-280.5 104.5,-299.5 149.5,-299.5 149.5,-280.5 104.5,-280.5"/>
<text text-anchor="middle" x="127" y="-287.5" font-family="Helvetica,sans-Serif" font-size="10.00">New.h</text>
</a>
</g>
</g>
<!-- Node14&#45;&gt;Node15 -->
<g id="edge24" class="edge"><title>Node14&#45;&gt;Node15</title>
<path fill="none" stroke="midnightblue" d="M107.798,-336.083C110.913,-328.77 115.423,-318.181 119.289,-309.103"/>
<polygon fill="midnightblue" stroke="midnightblue" points="122.574,-310.323 123.273,-299.751 116.134,-307.58 122.574,-310.323"/>
</g>
<!-- Node16 -->
<g id="node16" class="node"><title>Node16</title>
<polygon fill="white" stroke="#bfbfbf" points="109.5,-224.5 109.5,-243.5 144.5,-243.5 144.5,-224.5 109.5,-224.5"/>
<text text-anchor="middle" x="127" y="-231.5" font-family="Helvetica,sans-Serif" font-size="10.00">new</text>
</g>
<!-- Node15&#45;&gt;Node16 -->
<g id="edge25" class="edge"><title>Node15&#45;&gt;Node16</title>
<path fill="none" stroke="midnightblue" d="M127,-280.083C127,-273.006 127,-262.861 127,-253.986"/>
<polygon fill="midnightblue" stroke="midnightblue" points="130.5,-253.751 127,-243.751 123.5,-253.751 130.5,-253.751"/>
</g>
</g>
</svg>
        <g id="navigator" transform="translate(0 0)" fill="#404254">
                <rect fill="#f2f5e9" fill-opacity="0.5" stroke="#606060" stroke-width=".5" x="0" y="0" width="60" height="60"/>
                <use id="zoomplus" xlink:href="#zoomPlus" x="17" y="9" onmousedown="handleZoom(evt,'in')"/>
                <use id="zoomminus" xlink:href="#zoomMin" x="42" y="9" onmousedown="handleZoom(evt,'out')"/>
                <use id="reset" xlink:href="#resetDef" x="30" y="36" onmousedown="handleReset()"/>
                <g id="arrowUp" xlink:href="#dirArrow" transform="translate(30 24)" onmousedown="handlePan(0,-1)">
                  <use xlink:href="#rim" fill="#404040">
                        <set attributeName="fill" to="#808080" begin="arrowUp.mouseover" end="arrowUp.mouseout"/>
                  </use>
                  <path fill="none" stroke="white" stroke-width="1.5" d="M0,-3.0v7 M-2.5,-0.5L0,-3.0L2.5,-0.5"/>
                </g>
                <g id="arrowRight" xlink:href="#dirArrow" transform="rotate(90) translate(36 -43)" onmousedown="handlePan(1,0)">
                  <use xlink:href="#rim" fill="#404040">
                        <set attributeName="fill" to="#808080" begin="arrowRight.mouseover" end="arrowRight.mouseout"/>
                  </use>
                  <path fill="none" stroke="white" stroke-width="1.5" d="M0,-3.0v7 M-2.5,-0.5L0,-3.0L2.5,-0.5"/>
                </g>
                <g id="arrowDown" xlink:href="#dirArrow" transform="rotate(180) translate(-30 -48)" onmousedown="handlePan(0,1)">
                  <use xlink:href="#rim" fill="#404040">
                        <set attributeName="fill" to="#808080" begin="arrowDown.mouseover" end="arrowDown.mouseout"/>
                  </use>
                  <path fill="none" stroke="white" stroke-width="1.5" d="M0,-3.0v7 M-2.5,-0.5L0,-3.0L2.5,-0.5"/>
                </g>
                <g id="arrowLeft" xlink:href="#dirArrow" transform="rotate(270) translate(-36 17)" onmousedown="handlePan(-1,0)">
                  <use xlink:href="#rim" fill="#404040">
                        <set attributeName="fill" to="#808080" begin="arrowLeft.mouseover" end="arrowLeft.mouseout"/>
                  </use>
                  <path fill="none" stroke="white" stroke-width="1.5" d="M0,-3.0v7 M-2.5,-0.5L0,-3.0L2.5,-0.5"/>
                </g>
        </g>
        <svg viewBox="0 0 15 15" width="100%" height="30px" preserveAspectRatio="xMaxYMin meet">
         <g id="arrow_out" transform="scale(0.3 0.3)">
          <a xlink:href="_equal_8h__incl_org.svg" target="_base">
           <rect id="button" ry="5" rx="5" y="6" x="6" height="38" width="38"
                fill="#f2f5e9" fill-opacity="0.5" stroke="#606060" stroke-width="1.0"/>
           <path id="arrow"
             d="M 11.500037,31.436501 C 11.940474,20.09759 22.043105,11.32322 32.158766,21.979434 L 37.068811,17.246167 C 37.068811,17.246167 37.088388,32 37.088388,32 L 22.160133,31.978069 C 22.160133,31.978069 26.997745,27.140456 26.997745,27.140456 C 18.528582,18.264221 13.291696,25.230495 11.500037,31.436501 z"
             style="fill:#404040;"/>
          </a>
         </g>
        </svg>
</svg>
