<?xml version="1.0" encoding="UTF-8" standalone="no"?>
<!DOCTYPE svg PUBLIC "-//W3C//DTD SVG 1.1//EN"
 "http://www.w3.org/Graphics/SVG/1.1/DTD/svg11.dtd">
<!-- Generated by graphviz version 2.36.0 (20140111.2315)
 -->
<!-- Title: wlib/stl/Equal.h Pages: 1 -->
<!--zoomable 476 -->
<svg id="main" version="1.1" xmlns="http://www.w3.org/2000/svg" xmlns:xlink="http://www.w3.org/1999/xlink" xml:space="preserve" onload="init(evt)">
<style type="text/css"><![CDATA[
.edge:hover path { stroke: red; }
.edge:hover polygon { stroke: red; fill: red; }
]]></style>
<script type="text/javascript"><![CDATA[
var edges = document.getElementsByTagName('g');
if (edges && edges.length) {
  for (var i=0;i<edges.length;i++) {
    if (edges[i].id.substr(0,4)=='edge') {
      edges[i].setAttribute('class','edge');
    }
  }
}
]]></script>
        <defs>
                <circle id="rim" cx="0" cy="0" r="7"/>
                <circle id="rim2" cx="0" cy="0" r="3.5"/>
                <g id="zoomPlus">
                        <use xlink:href="#rim" fill="#404040">
                                <set attributeName="fill" to="#808080" begin="zoomplus.mouseover" end="zoomplus.mouseout"/>
                        </use>
                        <path d="M-4,0h8M0,-4v8" fill="none" stroke="white" stroke-width="1.5" pointer-events="none"/>
                </g>
                <g id="zoomMin">
                        <use xlink:href="#rim" fill="#404040">
                                <set attributeName="fill" to="#808080" begin="zoomminus.mouseover" end="zoomminus.mouseout"/>
                        </use>
                        <path d="M-4,0h8" fill="none" stroke="white" stroke-width="1.5" pointer-events="none"/>
                </g>
                <g id="dirArrow">
                        <path fill="none" stroke="white" stroke-width="1.5" d="M0,-3.0v7 M-2.5,-0.5L0,-3.0L2.5,-0.5"/>
                </g>
               <g id="resetDef">
                       <use xlink:href="#rim2" fill="#404040">
                               <set attributeName="fill" to="#808080" begin="reset.mouseover" end="reset.mouseout"/>
                       </use>
               </g>
        </defs>

<script type="text/javascript">
var viewWidth = 596;
var viewHeight = 476;
var sectionId = 'dynsection-0';
</script>
<script xlink:href="../../svgpan.js"/>
<svg id="graph" class="graph">
<g id="viewport">
<title>wlib/stl/Equal.h</title>
<polygon fill="white" stroke="none" points="-4,4 -4,-472 592,-472 592,4 -4,4"/>
<!-- Node1 -->
<g id="node1" class="node"><title>Node1</title>
<polygon fill="#bfbfbf" stroke="black" points="358.5,-448.5 358.5,-467.5 441.5,-467.5 441.5,-448.5 358.5,-448.5"/>
<text text-anchor="middle" x="400" y="-455.5" font-family="Helvetica,sans-Serif" font-size="10.00">wlib/stl/Equal.h</text>
</g>
<!-- Node2 -->
<g id="node2" class="node"><title>Node2</title>
<polygon fill="white" stroke="#bfbfbf" points="467.5,-280.5 467.5,-299.5 516.5,-299.5 516.5,-280.5 467.5,-280.5"/>
<text text-anchor="middle" x="492" y="-287.5" font-family="Helvetica,sans-Serif" font-size="10.00">string.h</text>
</g>
<!-- Node1&#45;&gt;Node2 -->
<g id="edge1" class="edge"><title>Node1&#45;&gt;Node2</title>
<path fill="none" stroke="midnightblue" d="M420.407,-448.43C450.958,-434.324 507.405,-403.011 530,-356 538.426,-338.469 524.219,-319.358 510.843,-306.426"/>
<polygon fill="midnightblue" stroke="midnightblue" points="513.015,-303.673 503.241,-299.585 508.333,-308.876 513.015,-303.673"/>
</g>
<!-- Node3 -->
<g id="node3" class="node"><title>Node3</title>
<g id="a_node3"><a xlink:href="../../d0/db6/_types_8h.html" target="_top" xlink:title="type definition of all the string types we will be using ">
<polygon fill="white" stroke="black" points="212,-56.5 212,-75.5 284,-75.5 284,-56.5 212,-56.5"/>
<text text-anchor="middle" x="248" y="-63.5" font-family="Helvetica,sans-Serif" font-size="10.00">wlib/Types.h</text>
</a>
</g>
</g>
<!-- Node1&#45;&gt;Node3 -->
<g id="edge2" class="edge"><title>Node1&#45;&gt;Node3</title>
<path fill="none" stroke="midnightblue" d="M358.325,-454.405C255.875,-446.888 0,-420.733 0,-347 0,-347 0,-347 0,-177 0,-89.6832 130.05,-71.1441 201.798,-67.5603"/>
<polygon fill="midnightblue" stroke="midnightblue" points="202.095,-71.051 211.939,-67.1336 201.8,-64.0572 202.095,-71.051"/>
</g>
<!-- Node5 -->
<g id="node5" class="node"><title>Node5</title>
<g id="a_node5"><a xlink:href="../../db/db5/_string_8h.html" target="_top" xlink:title="wlib/strings/String.h">
<polygon fill="white" stroke="black" points="348.5,-392.5 348.5,-411.5 451.5,-411.5 451.5,-392.5 348.5,-392.5"/>
<text text-anchor="middle" x="400" y="-399.5" font-family="Helvetica,sans-Serif" font-size="10.00">wlib/strings/String.h</text>
</a>
</g>
</g>
<!-- Node1&#45;&gt;Node5 -->
<g id="edge4" class="edge"><title>Node1&#45;&gt;Node5</title>
<path fill="none" stroke="midnightblue" d="M400,-448.083C400,-441.006 400,-430.861 400,-421.986"/>
<polygon fill="midnightblue" stroke="midnightblue" points="403.5,-421.751 400,-411.751 396.5,-421.751 403.5,-421.751"/>
</g>
<!-- Node4 -->
<g id="node4" class="node"><title>Node4</title>
<polygon fill="white" stroke="#bfbfbf" points="223.5,-0.5 223.5,-19.5 272.5,-19.5 272.5,-0.5 223.5,-0.5"/>
<text text-anchor="middle" x="248" y="-7.5" font-family="Helvetica,sans-Serif" font-size="10.00">stdint.h</text>
</g>
<!-- Node3&#45;&gt;Node4 -->
<g id="edge3" class="edge"><title>Node3&#45;&gt;Node4</title>
<path fill="none" stroke="midnightblue" d="M248,-56.083C248,-49.0059 248,-38.8611 248,-29.9865"/>
<polygon fill="midnightblue" stroke="midnightblue" points="251.5,-29.751 248,-19.7511 244.5,-29.7511 251.5,-29.751"/>
</g>
<!-- Node5&#45;&gt;Node2 -->
<g id="edge5" class="edge"><title>Node5&#45;&gt;Node2</title>
<path fill="none" stroke="midnightblue" d="M400.593,-392.112C401.897,-378.691 406.027,-353.016 419,-336 429.662,-322.014 446.028,-311.354 460.563,-303.928"/>
<polygon fill="midnightblue" stroke="midnightblue" points="462.268,-306.993 469.772,-299.513 459.241,-300.681 462.268,-306.993"/>
</g>
<!-- Node5&#45;&gt;Node3 -->
<g id="edge17" class="edge"><title>Node5&#45;&gt;Node3</title>
<path fill="none" stroke="midnightblue" d="M451.869,-393.361C507.516,-381.886 588,-354.341 588,-291 588,-291 588,-291 588,-177 588,-115.931 386.925,-83.7352 294.038,-72.1204"/>
<polygon fill="midnightblue" stroke="midnightblue" points="294.415,-68.6406 284.064,-70.9005 293.565,-75.5888 294.415,-68.6406"/>
</g>
<!-- Node6 -->
<g id="node6" class="node"><title>Node6</title>
<g id="a_node6"><a xlink:href="../../de/d0b/_string_iterator_8h.html" target="_top" xlink:title="StringIterator.h">
<polygon fill="white" stroke="black" points="143.5,-336.5 143.5,-355.5 224.5,-355.5 224.5,-336.5 143.5,-336.5"/>
<text text-anchor="middle" x="184" y="-343.5" font-family="Helvetica,sans-Serif" font-size="10.00">StringIterator.h</text>
</a>
</g>
</g>
<!-- Node5&#45;&gt;Node6 -->
<g id="edge6" class="edge"><title>Node5&#45;&gt;Node6</title>
<path fill="none" stroke="midnightblue" d="M365.774,-392.444C328.488,-383.122 268.731,-368.183 227.989,-357.997"/>
<polygon fill="midnightblue" stroke="midnightblue" points="228.616,-354.546 218.066,-355.516 226.918,-361.337 228.616,-354.546"/>
</g>
<!-- Node13 -->
<g id="node13" class="node"><title>Node13</title>
<g id="a_node13"><a xlink:href="../../da/db8/_math_8h.html" target="_top" xlink:title="wlib/utility/Math.h">
<polygon fill="white" stroke="black" points="428.5,-336.5 428.5,-355.5 521.5,-355.5 521.5,-336.5 428.5,-336.5"/>
<text text-anchor="middle" x="475" y="-343.5" font-family="Helvetica,sans-Serif" font-size="10.00">wlib/utility/Math.h</text>
</a>
</g>
</g>
<!-- Node5&#45;&gt;Node13 -->
<g id="edge18" class="edge"><title>Node5&#45;&gt;Node13</title>
<path fill="none" stroke="midnightblue" d="M412.05,-392.324C423.463,-384.107 440.831,-371.602 454.435,-361.807"/>
<polygon fill="midnightblue" stroke="midnightblue" points="456.66,-364.517 462.731,-355.834 452.57,-358.837 456.66,-364.517"/>
</g>
<!-- Node14 -->
<g id="node14" class="node"><title>Node14</title>
<g id="a_node14"><a xlink:href="../../d3/de6/_memory_8h.html" target="_top" xlink:title="Memory is a class that provides dynamic fixed size memory. ">
<polygon fill="white" stroke="black" points="252.5,-336.5 252.5,-355.5 371.5,-355.5 371.5,-336.5 252.5,-336.5"/>
<text text-anchor="middle" x="312" y="-343.5" font-family="Helvetica,sans-Serif" font-size="10.00">wlib/memory/Memory.h</text>
</a>
</g>
</g>
<!-- Node5&#45;&gt;Node14 -->
<g id="edge19" class="edge"><title>Node5&#45;&gt;Node14</title>
<path fill="none" stroke="midnightblue" d="M385.861,-392.324C372.134,-383.9 351.064,-370.971 334.936,-361.074"/>
<polygon fill="midnightblue" stroke="midnightblue" points="336.457,-357.902 326.104,-355.655 332.796,-363.868 336.457,-357.902"/>
</g>
<!-- Node6&#45;&gt;Node3 -->
<g id="edge7" class="edge"><title>Node6&#45;&gt;Node3</title>
<path fill="none" stroke="midnightblue" d="M151.96,-336.435C108.982,-322.779 38,-291.649 38,-235 38,-235 38,-235 38,-177 38,-103.661 139.745,-79.124 201.594,-70.9832"/>
<polygon fill="midnightblue" stroke="midnightblue" points="202.396,-74.4114 211.9,-69.7287 201.55,-67.4627 202.396,-74.4114"/>
</g>
<!-- Node7 -->
<g id="node7" class="node"><title>Node7</title>
<g id="a_node7"><a xlink:href="../../d8/dd7/_concept_8h.html" target="_top" xlink:title="Concept definitions. ">
<polygon fill="white" stroke="black" points="136.5,-280.5 136.5,-299.5 231.5,-299.5 231.5,-280.5 136.5,-280.5"/>
<text text-anchor="middle" x="184" y="-287.5" font-family="Helvetica,sans-Serif" font-size="10.00">wlib/stl/Concept.h</text>
</a>
</g>
</g>
<!-- Node6&#45;&gt;Node7 -->
<g id="edge8" class="edge"><title>Node6&#45;&gt;Node7</title>
<path fill="none" stroke="midnightblue" d="M184,-336.083C184,-329.006 184,-318.861 184,-309.986"/>
<polygon fill="midnightblue" stroke="midnightblue" points="187.5,-309.751 184,-299.751 180.5,-309.751 187.5,-309.751"/>
</g>
<!-- Node8 -->
<g id="node8" class="node"><title>Node8</title>
<g id="a_node8"><a xlink:href="../../d4/dda/_pair_8h.html" target="_top" xlink:title="Implementation of a 2&#45;element tuple. ">
<polygon fill="white" stroke="black" points="228,-224.5 228,-243.5 270,-243.5 270,-224.5 228,-224.5"/>
<text text-anchor="middle" x="249" y="-231.5" font-family="Helvetica,sans-Serif" font-size="10.00">Pair.h</text>
</a>
</g>
</g>
<!-- Node7&#45;&gt;Node8 -->
<g id="edge9" class="edge"><title>Node7&#45;&gt;Node8</title>
<path fill="none" stroke="midnightblue" d="M194.443,-280.324C204.146,-272.263 218.815,-260.077 230.5,-250.369"/>
<polygon fill="midnightblue" stroke="midnightblue" points="232.911,-252.916 238.367,-243.834 228.438,-247.532 232.911,-252.916"/>
</g>
<!-- Node10 -->
<g id="node10" class="node"><title>Node10</title>
<g id="a_node10"><a xlink:href="../../d2/d37/_tmp_8h.html" target="_top" xlink:title="Template helper types, structs, and metafunctions. ">
<polygon fill="white" stroke="black" points="226,-112.5 226,-131.5 270,-131.5 270,-112.5 226,-112.5"/>
<text text-anchor="middle" x="248" y="-119.5" font-family="Helvetica,sans-Serif" font-size="10.00">Tmp.h</text>
</a>
</g>
</g>
<!-- Node7&#45;&gt;Node10 -->
<g id="edge16" class="edge"><title>Node7&#45;&gt;Node10</title>
<path fill="none" stroke="midnightblue" d="M177.41,-280.375C162.324,-259.499 128.337,-205.226 152,-168 165.98,-146.007 193.859,-134.577 215.988,-128.752"/>
<polygon fill="midnightblue" stroke="midnightblue" points="217.064,-132.095 225.99,-126.387 215.453,-125.282 217.064,-132.095"/>
</g>
<!-- Node11 -->
<g id="node11" class="node"><title>Node11</title>
<g id="a_node11"><a xlink:href="../../d4/dd5/_type_traits_8h.html" target="_top" xlink:title="Metafunctions for types. ">
<polygon fill="white" stroke="black" points="161.5,-168.5 161.5,-187.5 232.5,-187.5 232.5,-168.5 161.5,-168.5"/>
<text text-anchor="middle" x="197" y="-175.5" font-family="Helvetica,sans-Serif" font-size="10.00">TypeTraits.h</text>
</a>
</g>
</g>
<!-- Node7&#45;&gt;Node11 -->
<g id="edge13" class="edge"><title>Node7&#45;&gt;Node11</title>
<path fill="none" stroke="midnightblue" d="M185.02,-280.368C187.118,-262.617 191.958,-221.666 194.802,-197.597"/>
<polygon fill="midnightblue" stroke="midnightblue" points="198.287,-197.933 195.985,-187.591 191.335,-197.112 198.287,-197.933"/>
</g>
<!-- Node12 -->
<g id="node12" class="node"><title>Node12</title>
<g id="a_node12"><a xlink:href="../../d2/db4/_wlib_8h.html" target="_top" xlink:title="wlib/Wlib.h">
<polygon fill="white" stroke="black" points="66.5,-224.5 66.5,-243.5 131.5,-243.5 131.5,-224.5 66.5,-224.5"/>
<text text-anchor="middle" x="99" y="-231.5" font-family="Helvetica,sans-Serif" font-size="10.00">wlib/Wlib.h</text>
</a>
</g>
</g>
<!-- Node7&#45;&gt;Node12 -->
<g id="edge15" class="edge"><title>Node7&#45;&gt;Node12</title>
<path fill="none" stroke="midnightblue" d="M170.343,-280.324C157.084,-271.9 136.732,-258.971 121.154,-249.074"/>
<polygon fill="midnightblue" stroke="midnightblue" points="122.94,-246.063 112.623,-243.655 119.187,-251.971 122.94,-246.063"/>
</g>
<!-- Node9 -->
<g id="node9" class="node"><title>Node9</title>
<g id="a_node9"><a xlink:href="../../db/d2a/_utility_8h.html" target="_top" xlink:title="Various helper functions. ">
<polygon fill="white" stroke="black" points="250.5,-168.5 250.5,-187.5 347.5,-187.5 347.5,-168.5 250.5,-168.5"/>
<text text-anchor="middle" x="299" y="-175.5" font-family="Helvetica,sans-Serif" font-size="10.00">wlib/utility/Utility.h</text>
</a>
</g>
</g>
<!-- Node8&#45;&gt;Node9 -->
<g id="edge10" class="edge"><title>Node8&#45;&gt;Node9</title>
<path fill="none" stroke="midnightblue" d="M257.256,-224.083C264.465,-216.298 275.11,-204.801 283.846,-195.367"/>
<polygon fill="midnightblue" stroke="midnightblue" points="286.671,-197.467 290.897,-187.751 281.535,-192.711 286.671,-197.467"/>
</g>
<!-- Node9&#45;&gt;Node10 -->
<g id="edge11" class="edge"><title>Node9&#45;&gt;Node10</title>
<path fill="none" stroke="midnightblue" d="M290.578,-168.083C283.152,-160.22 272.148,-148.569 263.188,-139.081"/>
<polygon fill="midnightblue" stroke="midnightblue" points="265.676,-136.618 256.265,-131.751 260.587,-141.424 265.676,-136.618"/>
</g>
<!-- Node10&#45;&gt;Node3 -->
<g id="edge12" class="edge"><title>Node10&#45;&gt;Node3</title>
<path fill="none" stroke="midnightblue" d="M248,-112.083C248,-105.006 248,-94.8611 248,-85.9865"/>
<polygon fill="midnightblue" stroke="midnightblue" points="251.5,-85.751 248,-75.7511 244.5,-85.7511 251.5,-85.751"/>
</g>
<!-- Node11&#45;&gt;Node10 -->
<g id="edge14" class="edge"><title>Node11&#45;&gt;Node10</title>
<path fill="none" stroke="midnightblue" d="M205.422,-168.083C212.848,-160.22 223.852,-148.569 232.812,-139.081"/>
<polygon fill="midnightblue" stroke="midnightblue" points="235.413,-141.424 239.735,-131.751 230.324,-136.618 235.413,-141.424"/>
</g>
<!-- Node14&#45;&gt;Node2 -->
<g id="edge20" class="edge"><title>Node14&#45;&gt;Node2</title>
<path fill="none" stroke="midnightblue" d="M340.522,-336.444C372.234,-326.93 423.454,-311.564 457.424,-301.373"/>
<polygon fill="midnightblue" stroke="midnightblue" points="458.799,-304.614 467.372,-298.388 456.788,-297.91 458.799,-304.614"/>
</g>
<!-- Node14&#45;&gt;Node3 -->
<g id="edge22" class="edge"><title>Node14&#45;&gt;Node3</title>
<path fill="none" stroke="midnightblue" d="M353.837,-336.459C375.982,-329.933 402.029,-318.752 419,-300 439.282,-277.59 439,-265.225 439,-235 439,-235 439,-235 439,-177 439,-110.536 351.077,-83.6244 294.539,-73.1896"/>
<polygon fill="midnightblue" stroke="midnightblue" points="294.826,-69.6873 284.375,-71.4272 293.63,-76.5844 294.826,-69.6873"/>
</g>
<!-- Node14&#45;&gt;Node9 -->
<g id="edge21" class="edge"><title>Node14&#45;&gt;Node9</title>
<path fill="none" stroke="midnightblue" d="M311.301,-336.075C309.255,-309.945 303.245,-233.211 300.455,-197.577"/>
<polygon fill="midnightblue" stroke="midnightblue" points="303.941,-197.264 299.671,-187.568 296.963,-197.811 303.941,-197.264"/>
</g>
<!-- Node14&#45;&gt;Node10 -->
<g id="edge23" class="edge"><title>Node14&#45;&gt;Node10</title>
<path fill="none" stroke="midnightblue" d="M318.474,-336.446C338.108,-309.385 393.412,-224.118 356,-168 339.264,-142.896 305.591,-131.774 280.269,-126.861"/>
<polygon fill="midnightblue" stroke="midnightblue" points="280.791,-123.399 270.344,-125.163 279.611,-130.299 280.791,-123.399"/>
</g>
<!-- Node15 -->
<g id="node15" class="node"><title>Node15</title>
<g id="a_node15"><a xlink:href="../../d9/d8a/_new_8h.html" target="_top" xlink:title="New operators defined for Arduino boards and for other boards use the normal new. ...">
<polygon fill="white" stroke="black" points="365.5,-280.5 365.5,-299.5 410.5,-299.5 410.5,-280.5 365.5,-280.5"/>
<text text-anchor="middle" x="388" y="-287.5" font-family="Helvetica,sans-Serif" font-size="10.00">New.h</text>
</a>
</g>
</g>
<!-- Node14&#45;&gt;Node15 -->
<g id="edge24" class="edge"><title>Node14&#45;&gt;Node15</title>
<path fill="none" stroke="midnightblue" d="M324.211,-336.324C335.776,-328.107 353.375,-315.602 367.161,-305.807"/>
<polygon fill="midnightblue" stroke="midnightblue" points="369.443,-308.479 375.567,-299.834 365.388,-302.773 369.443,-308.479"/>
</g>
</g>
</svg>
        <g id="navigator" transform="translate(0 0)" fill="#404254">
                <rect fill="#f2f5e9" fill-opacity="0.5" stroke="#606060" stroke-width=".5" x="0" y="0" width="60" height="60"/>
                <use id="zoomplus" xlink:href="#zoomPlus" x="17" y="9" onmousedown="handleZoom(evt,'in')"/>
                <use id="zoomminus" xlink:href="#zoomMin" x="42" y="9" onmousedown="handleZoom(evt,'out')"/>
                <use id="reset" xlink:href="#resetDef" x="30" y="36" onmousedown="handleReset()"/>
                <g id="arrowUp" xlink:href="#dirArrow" transform="translate(30 24)" onmousedown="handlePan(0,-1)">
                  <use xlink:href="#rim" fill="#404040">
                        <set attributeName="fill" to="#808080" begin="arrowUp.mouseover" end="arrowUp.mouseout"/>
                  </use>
                  <path fill="none" stroke="white" stroke-width="1.5" d="M0,-3.0v7 M-2.5,-0.5L0,-3.0L2.5,-0.5"/>
                </g>
                <g id="arrowRight" xlink:href="#dirArrow" transform="rotate(90) translate(36 -43)" onmousedown="handlePan(1,0)">
                  <use xlink:href="#rim" fill="#404040">
                        <set attributeName="fill" to="#808080" begin="arrowRight.mouseover" end="arrowRight.mouseout"/>
                  </use>
                  <path fill="none" stroke="white" stroke-width="1.5" d="M0,-3.0v7 M-2.5,-0.5L0,-3.0L2.5,-0.5"/>
                </g>
                <g id="arrowDown" xlink:href="#dirArrow" transform="rotate(180) translate(-30 -48)" onmousedown="handlePan(0,1)">
                  <use xlink:href="#rim" fill="#404040">
                        <set attributeName="fill" to="#808080" begin="arrowDown.mouseover" end="arrowDown.mouseout"/>
                  </use>
                  <path fill="none" stroke="white" stroke-width="1.5" d="M0,-3.0v7 M-2.5,-0.5L0,-3.0L2.5,-0.5"/>
                </g>
                <g id="arrowLeft" xlink:href="#dirArrow" transform="rotate(270) translate(-36 17)" onmousedown="handlePan(-1,0)">
                  <use xlink:href="#rim" fill="#404040">
                        <set attributeName="fill" to="#808080" begin="arrowLeft.mouseover" end="arrowLeft.mouseout"/>
                  </use>
                  <path fill="none" stroke="white" stroke-width="1.5" d="M0,-3.0v7 M-2.5,-0.5L0,-3.0L2.5,-0.5"/>
                </g>
        </g>
        <svg viewBox="0 0 15 15" width="100%" height="30px" preserveAspectRatio="xMaxYMin meet">
         <g id="arrow_out" transform="scale(0.3 0.3)">
          <a xlink:href="_equal_8h__incl_org.svg" target="_base">
           <rect id="button" ry="5" rx="5" y="6" x="6" height="38" width="38"
                fill="#f2f5e9" fill-opacity="0.5" stroke="#606060" stroke-width="1.0"/>
           <path id="arrow"
             d="M 11.500037,31.436501 C 11.940474,20.09759 22.043105,11.32322 32.158766,21.979434 L 37.068811,17.246167 C 37.068811,17.246167 37.088388,32 37.088388,32 L 22.160133,31.978069 C 22.160133,31.978069 26.997745,27.140456 26.997745,27.140456 C 18.528582,18.264221 13.291696,25.230495 11.500037,31.436501 z"
             style="fill:#404040;"/>
          </a>
         </g>
        </svg>
</svg>
