<?xml version="1.0" encoding="UTF-8" standalone="no"?>
<!DOCTYPE svg PUBLIC "-//W3C//DTD SVG 1.1//EN"
 "http://www.w3.org/Graphics/SVG/1.1/DTD/svg11.dtd">
<!-- Generated by graphviz version 2.38.0 (20140413.2041)
 -->
<!-- Title: wlp::ReferenceCount&lt; Ptr &gt; Pages: 1 -->
<svg width="139pt" height="117pt"
 viewBox="0.00 0.00 138.50 117.00" xmlns="http://www.w3.org/2000/svg" xmlns:xlink="http://www.w3.org/1999/xlink">
<g id="graph0" class="graph" transform="scale(1 1) rotate(0) translate(4 113)">
<title>wlp::ReferenceCount&lt; Ptr &gt;</title>
<polygon fill="white" stroke="none" points="-4,4 -4,-113 134.5,-113 134.5,4 -4,4"/>
<!-- Node1 -->
<g id="node1" class="node"><title>Node1</title>
<polygon fill="#bfbfbf" stroke="black" points="16.5,-0.5 16.5,-30.5 122.5,-30.5 122.5,-0.5 16.5,-0.5"/>
<text text-anchor="start" x="24.5" y="-18.5" font-family="Helvetica,sans-Serif" font-size="10.00">wlp::ReferenceCount</text>
<text text-anchor="middle" x="69.5" y="-7.5" font-family="Helvetica,sans-Serif" font-size="10.00">&lt; Ptr &gt;</text>
</g>
<!-- Node2 -->
<g id="node2" class="node"><title>Node2</title>
<polygon fill="white" stroke="#bfbfbf" points="0,-89.5 0,-108.5 51,-108.5 51,-89.5 0,-89.5"/>
<text text-anchor="middle" x="25.5" y="-96.5" font-family="Helvetica,sans-Serif" font-size="10.00">uint16_t</text>
</g>
<!-- Node2&#45;&gt;Node1 -->
<g id="edge1" class="edge"><title>Node2&#45;&gt;Node1</title>
<path fill="none" stroke="#9a32cd" stroke-dasharray="5,2" d="M22.1595,-79.4223C21.3306,-69.8431 21.773,-58.2599 26.5,-49 30.2441,-41.6656 36.4951,-35.5333 43.0872,-30.6432"/>
<polygon fill="#9a32cd" stroke="#9a32cd" points="18.7133,-80.0541 23.5361,-89.4876 25.6487,-79.1055 18.7133,-80.0541"/>
<text text-anchor="middle" x="59.5" y="-63" font-family="Helvetica,sans-Serif" font-size="10.00"> m_use_count</text>
<text text-anchor="middle" x="59.5" y="-52" font-family="Helvetica,sans-Serif" font-size="10.00">m_weak_count</text>
</g>
<!-- Node3 -->
<g id="node3" class="node"><title>Node3</title>
<polygon fill="white" stroke="#bfbfbf" points="100,-89.5 100,-108.5 129,-108.5 129,-89.5 100,-89.5"/>
<text text-anchor="middle" x="114.5" y="-96.5" font-family="Helvetica,sans-Serif" font-size="10.00">Ptr</text>
</g>
<!-- Node3&#45;&gt;Node1 -->
<g id="edge2" class="edge"><title>Node3&#45;&gt;Node1</title>
<path fill="none" stroke="#9a32cd" stroke-dasharray="5,2" d="M107.371,-79.9131C103.409,-70.4822 98.1452,-58.8838 92.5,-49 88.9346,-42.7576 84.4702,-36.2234 80.4257,-30.6647"/>
<polygon fill="#9a32cd" stroke="#9a32cd" points="104.233,-81.4883 111.243,-89.4329 110.717,-78.8511 104.233,-81.4883"/>
<text text-anchor="middle" x="116.5" y="-57.5" font-family="Helvetica,sans-Serif" font-size="10.00"> m_ptr</text>
</g>
</g>
</svg>
