<?xml version="1.0" encoding="UTF-8" standalone="no"?>
<!DOCTYPE svg PUBLIC "-//W3C//DTD SVG 1.1//EN"
 "http://www.w3.org/Graphics/SVG/1.1/DTD/svg11.dtd">
<!-- Generated by graphviz version 2.36.0 (20140111.2315)
 -->
<!-- Title: wlp::ReferenceCount&lt; Ptr &gt; Pages: 1 -->
<svg width="140pt" height="118pt"
 viewBox="0.00 0.00 140.00 118.00" xmlns="http://www.w3.org/2000/svg" xmlns:xlink="http://www.w3.org/1999/xlink">
<g id="graph0" class="graph" transform="scale(1 1) rotate(0) translate(4 114)">
<title>wlp::ReferenceCount&lt; Ptr &gt;</title>
<polygon fill="white" stroke="none" points="-4,4 -4,-114 136,-114 136,4 -4,4"/>
<!-- Node1 -->
<g id="node1" class="node"><title>Node1</title>
<polygon fill="#bfbfbf" stroke="black" points="15.5,-1 15.5,-31 124.5,-31 124.5,-1 15.5,-1"/>
<text text-anchor="start" x="23.5" y="-19" font-family="Helvetica,sans-Serif" font-size="10.00">wlp::ReferenceCount</text>
<text text-anchor="middle" x="70" y="-8" font-family="Helvetica,sans-Serif" font-size="10.00">&lt; Ptr &gt;</text>
</g>
<!-- Node2 -->
<g id="node2" class="node"><title>Node2</title>
<polygon fill="white" stroke="#bfbfbf" points="-0.5,-90.5 -0.5,-109.5 50.5,-109.5 50.5,-90.5 -0.5,-90.5"/>
<text text-anchor="middle" x="25" y="-97.5" font-family="Helvetica,sans-Serif" font-size="10.00">uint16_t</text>
</g>
<!-- Node2&#45;&gt;Node1 -->
<g id="edge1" class="edge"><title>Node2&#45;&gt;Node1</title>
<path fill="none" stroke="#9a32cd" stroke-dasharray="5,2" d="M21.6455,-80.4151C20.8126,-70.8339 21.2559,-59.2511 26,-50 29.8343,-42.5231 36.2318,-36.2871 42.9771,-31.3225"/>
<polygon fill="#9a32cd" stroke="#9a32cd" points="18.2001,-81.0526 23.0281,-90.4835 25.135,-80.1003 18.2001,-81.0526"/>
<text text-anchor="middle" x="59.5" y="-64" font-family="Helvetica,sans-Serif" font-size="10.00"> m_use_count</text>
<text text-anchor="middle" x="59.5" y="-53" font-family="Helvetica,sans-Serif" font-size="10.00">m_weak_count</text>
</g>
<!-- Node3 -->
<g id="node3" class="node"><title>Node3</title>
<polygon fill="white" stroke="#bfbfbf" points="100.5,-90.5 100.5,-109.5 129.5,-109.5 129.5,-90.5 100.5,-90.5"/>
<text text-anchor="middle" x="115" y="-97.5" font-family="Helvetica,sans-Serif" font-size="10.00">Ptr</text>
</g>
<!-- Node3&#45;&gt;Node1 -->
<g id="edge2" class="edge"><title>Node3&#45;&gt;Node1</title>
<path fill="none" stroke="#9a32cd" stroke-dasharray="5,2" d="M107.842,-80.9297C103.871,-71.5033 98.6097,-59.904 93,-50 89.3518,-43.559 84.7815,-36.7942 80.6781,-31.078"/>
<polygon fill="#9a32cd" stroke="#9a32cd" points="104.705,-82.5074 111.725,-90.4428 111.186,-79.8616 104.705,-82.5074"/>
<text text-anchor="middle" x="118" y="-58.5" font-family="Helvetica,sans-Serif" font-size="10.00"> m_ptr</text>
</g>
</g>
</svg>
