<?xml version="1.0" encoding="UTF-8" standalone="no"?>
<!DOCTYPE svg PUBLIC "-//W3C//DTD SVG 1.1//EN"
 "http://www.w3.org/Graphics/SVG/1.1/DTD/svg11.dtd">
<!-- Generated by graphviz version 2.36.0 (20140111.2315)
 -->
<!-- Title: wlp::TupleImpl&lt; IndexSequence&lt; Indices...&gt;, Types...&gt;::operator= Pages: 1 -->
<svg width="276pt" height="66pt"
 viewBox="0.00 0.00 276.00 66.00" xmlns="http://www.w3.org/2000/svg" xmlns:xlink="http://www.w3.org/1999/xlink">
<g id="graph0" class="graph" transform="scale(1 1) rotate(0) translate(4 62)">
<title>wlp::TupleImpl&lt; IndexSequence&lt; Indices...&gt;, Types...&gt;::operator=</title>
<polygon fill="white" stroke="none" points="-4,4 -4,-62 272,-62 272,4 -4,4"/>
<!-- Node1 -->
<g id="node1" class="node"><title>Node1</title>
<polygon fill="#bfbfbf" stroke="black" points="0.5,-8.5 0.5,-49.5 157.5,-49.5 157.5,-8.5 0.5,-8.5"/>
<text text-anchor="start" x="8.5" y="-37.5" font-family="Helvetica,sans-Serif" font-size="10.00">wlp::TupleImpl&lt; IndexSequence</text>
<text text-anchor="start" x="8.5" y="-26.5" font-family="Helvetica,sans-Serif" font-size="10.00">&lt; Indices...&gt;, Types...&gt;</text>
<text text-anchor="middle" x="79" y="-15.5" font-family="Helvetica,sans-Serif" font-size="10.00">::operator=</text>
</g>
<!-- Node2 -->
<g id="node2" class="node"><title>Node2</title>
<g id="a_node2"><a xlink:href="../../d5/dca/namespacewlp.html#aa09e615d02daee5123e80ddaee3d2323" target="_top" xlink:title="wlp::move">
<polygon fill="white" stroke="black" points="200,-38.5 200,-57.5 262,-57.5 262,-38.5 200,-38.5"/>
<text text-anchor="middle" x="231" y="-45.5" font-family="Helvetica,sans-Serif" font-size="10.00">wlp::move</text>
</a>
</g>
</g>
<!-- Node1&#45;&gt;Node2 -->
<g id="edge1" class="edge"><title>Node1&#45;&gt;Node2</title>
<path fill="none" stroke="midnightblue" d="M157.636,-38.8339C168.778,-40.2452 179.842,-41.6467 189.843,-42.9135"/>
<polygon fill="midnightblue" stroke="midnightblue" points="189.479,-46.3952 199.84,-44.1797 190.359,-39.4507 189.479,-46.3952"/>
</g>
<!-- Node3 -->
<g id="node3" class="node"><title>Node3</title>
<g id="a_node3"><a xlink:href="../../d5/dca/namespacewlp.html#a23b54e60f0f6605b7e9160db190e9a18" target="_top" xlink:title="wlp::swallow">
<polygon fill="white" stroke="black" points="194.5,-0.5 194.5,-19.5 267.5,-19.5 267.5,-0.5 194.5,-0.5"/>
<text text-anchor="middle" x="231" y="-7.5" font-family="Helvetica,sans-Serif" font-size="10.00">wlp::swallow</text>
</a>
</g>
</g>
<!-- Node1&#45;&gt;Node3 -->
<g id="edge2" class="edge"><title>Node1&#45;&gt;Node3</title>
<path fill="none" stroke="midnightblue" d="M157.636,-19.1661C166.784,-18.0073 175.88,-16.8552 184.378,-15.7788"/>
<polygon fill="midnightblue" stroke="midnightblue" points="184.93,-19.237 194.411,-14.508 184.05,-12.2925 184.93,-19.237"/>
</g>
</g>
</svg>
