<?xml version="1.0" encoding="UTF-8" standalone="no"?>
<!DOCTYPE svg PUBLIC "-//W3C//DTD SVG 1.1//EN"
 "http://www.w3.org/Graphics/SVG/1.1/DTD/svg11.dtd">
<!-- Generated by graphviz version 2.36.0 (20140111.2315)
 -->
<!-- Title: wlib/stl/Concept.h Pages: 1 -->
<svg width="328pt" height="308pt"
 viewBox="0.00 0.00 328.00 308.00" xmlns="http://www.w3.org/2000/svg" xmlns:xlink="http://www.w3.org/1999/xlink">
<g id="graph0" class="graph" transform="scale(1 1) rotate(0) translate(4 304)">
<title>wlib/stl/Concept.h</title>
<polygon fill="white" stroke="none" points="-4,4 -4,-304 324,-304 324,4 -4,4"/>
<!-- Node1 -->
<g id="node1" class="node"><title>Node1</title>
<polygon fill="#bfbfbf" stroke="black" points="106.5,-280.5 106.5,-299.5 201.5,-299.5 201.5,-280.5 106.5,-280.5"/>
<text text-anchor="middle" x="154" y="-287.5" font-family="Helvetica,sans-Serif" font-size="10.00">wlib/stl/Concept.h</text>
</g>
<!-- Node2 -->
<g id="node2" class="node"><title>Node2</title>
<g id="a_node2"><a xlink:href="../../d2/db4/_wlib_8h.html" target="_top" xlink:title="wlib/Wlib.h">
<polygon fill="white" stroke="black" points="-0.5,-224.5 -0.5,-243.5 64.5,-243.5 64.5,-224.5 -0.5,-224.5"/>
<text text-anchor="middle" x="32" y="-231.5" font-family="Helvetica,sans-Serif" font-size="10.00">wlib/Wlib.h</text>
</a>
</g>
</g>
<!-- Node1&#45;&gt;Node2 -->
<g id="edge1" class="edge"><title>Node1&#45;&gt;Node2</title>
<path fill="none" stroke="midnightblue" d="M134.669,-280.444C114.68,-271.596 83.2569,-257.687 60.4361,-247.586"/>
<polygon fill="midnightblue" stroke="midnightblue" points="61.8018,-244.363 51.2408,-243.516 58.9685,-250.764 61.8018,-244.363"/>
</g>
<!-- Node3 -->
<g id="node3" class="node"><title>Node3</title>
<g id="a_node3"><a xlink:href="../../d4/dda/_pair_8h.html" target="_top" xlink:title="Implementation of a 2&#45;element tuple. ">
<polygon fill="white" stroke="black" points="83,-224.5 83,-243.5 159,-243.5 159,-224.5 83,-224.5"/>
<text text-anchor="middle" x="121" y="-231.5" font-family="Helvetica,sans-Serif" font-size="10.00">wlib/stl/Pair.h</text>
</a>
</g>
</g>
<!-- Node1&#45;&gt;Node3 -->
<g id="edge2" class="edge"><title>Node1&#45;&gt;Node3</title>
<path fill="none" stroke="midnightblue" d="M148.551,-280.083C143.986,-272.613 137.332,-261.724 131.707,-252.52"/>
<polygon fill="midnightblue" stroke="midnightblue" points="134.549,-250.459 126.348,-243.751 128.576,-254.109 134.549,-250.459"/>
</g>
<!-- Node5 -->
<g id="node5" class="node"><title>Node5</title>
<g id="a_node5"><a xlink:href="../../d2/d37/_tmp_8h.html" target="_top" xlink:title="Template helper types, structs, and metafunctions. ">
<polygon fill="white" stroke="black" points="141.5,-112.5 141.5,-131.5 232.5,-131.5 232.5,-112.5 141.5,-112.5"/>
<text text-anchor="middle" x="187" y="-119.5" font-family="Helvetica,sans-Serif" font-size="10.00">wlib/utility/Tmp.h</text>
</a>
</g>
</g>
<!-- Node1&#45;&gt;Node5 -->
<g id="edge9" class="edge"><title>Node1&#45;&gt;Node5</title>
<path fill="none" stroke="midnightblue" d="M157.061,-280.476C160.187,-271.501 164.995,-256.91 168,-244 176.327,-208.225 182.067,-165.639 184.92,-141.721"/>
<polygon fill="midnightblue" stroke="midnightblue" points="188.42,-141.926 186.088,-131.591 181.466,-141.125 188.42,-141.926"/>
</g>
<!-- Node8 -->
<g id="node8" class="node"><title>Node8</title>
<g id="a_node8"><a xlink:href="../../d4/dd5/_type_traits_8h.html" target="_top" xlink:title="Metafunctions for types. ">
<polygon fill="white" stroke="black" points="215.5,-168.5 215.5,-187.5 320.5,-187.5 320.5,-168.5 215.5,-168.5"/>
<text text-anchor="middle" x="268" y="-175.5" font-family="Helvetica,sans-Serif" font-size="10.00">wlib/stl/TypeTraits.h</text>
</a>
</g>
</g>
<!-- Node1&#45;&gt;Node8 -->
<g id="edge7" class="edge"><title>Node1&#45;&gt;Node8</title>
<path fill="none" stroke="midnightblue" d="M163.027,-280.391C172.502,-271.347 187.823,-256.7 201,-244 218.363,-227.266 238.177,-208.025 251.727,-194.845"/>
<polygon fill="midnightblue" stroke="midnightblue" points="254.189,-197.333 258.915,-187.85 249.308,-192.316 254.189,-197.333"/>
</g>
<!-- Node4 -->
<g id="node4" class="node"><title>Node4</title>
<g id="a_node4"><a xlink:href="../../db/d2a/_utility_8h.html" target="_top" xlink:title="Various helper functions. ">
<polygon fill="white" stroke="black" points="61.5,-168.5 61.5,-187.5 158.5,-187.5 158.5,-168.5 61.5,-168.5"/>
<text text-anchor="middle" x="110" y="-175.5" font-family="Helvetica,sans-Serif" font-size="10.00">wlib/utility/Utility.h</text>
</a>
</g>
</g>
<!-- Node3&#45;&gt;Node4 -->
<g id="edge3" class="edge"><title>Node3&#45;&gt;Node4</title>
<path fill="none" stroke="midnightblue" d="M119.184,-224.083C117.726,-216.927 115.629,-206.635 113.807,-197.691"/>
<polygon fill="midnightblue" stroke="midnightblue" points="117.208,-196.851 111.783,-187.751 110.349,-198.248 117.208,-196.851"/>
</g>
<!-- Node4&#45;&gt;Node5 -->
<g id="edge4" class="edge"><title>Node4&#45;&gt;Node5</title>
<path fill="none" stroke="midnightblue" d="M122.371,-168.324C134.158,-160.058 152.132,-147.453 166.136,-137.632"/>
<polygon fill="midnightblue" stroke="midnightblue" points="168.482,-140.262 174.659,-131.655 164.462,-134.531 168.482,-140.262"/>
</g>
<!-- Node6 -->
<g id="node6" class="node"><title>Node6</title>
<g id="a_node6"><a xlink:href="../../d0/db6/_types_8h.html" target="_top" xlink:title="type definition of all the string types we will be using ">
<polygon fill="white" stroke="black" points="151,-56.5 151,-75.5 223,-75.5 223,-56.5 151,-56.5"/>
<text text-anchor="middle" x="187" y="-63.5" font-family="Helvetica,sans-Serif" font-size="10.00">wlib/Types.h</text>
</a>
</g>
</g>
<!-- Node5&#45;&gt;Node6 -->
<g id="edge5" class="edge"><title>Node5&#45;&gt;Node6</title>
<path fill="none" stroke="midnightblue" d="M187,-112.083C187,-105.006 187,-94.8611 187,-85.9865"/>
<polygon fill="midnightblue" stroke="midnightblue" points="190.5,-85.751 187,-75.7511 183.5,-85.7511 190.5,-85.751"/>
</g>
<!-- Node7 -->
<g id="node7" class="node"><title>Node7</title>
<polygon fill="white" stroke="#bfbfbf" points="162.5,-0.5 162.5,-19.5 211.5,-19.5 211.5,-0.5 162.5,-0.5"/>
<text text-anchor="middle" x="187" y="-7.5" font-family="Helvetica,sans-Serif" font-size="10.00">stdint.h</text>
</g>
<!-- Node6&#45;&gt;Node7 -->
<g id="edge6" class="edge"><title>Node6&#45;&gt;Node7</title>
<path fill="none" stroke="midnightblue" d="M187,-56.083C187,-49.0059 187,-38.8611 187,-29.9865"/>
<polygon fill="midnightblue" stroke="midnightblue" points="190.5,-29.751 187,-19.7511 183.5,-29.7511 190.5,-29.751"/>
</g>
<!-- Node8&#45;&gt;Node5 -->
<g id="edge8" class="edge"><title>Node8&#45;&gt;Node5</title>
<path fill="none" stroke="midnightblue" d="M254.986,-168.324C242.468,-159.979 223.318,-147.212 208.529,-137.352"/>
<polygon fill="midnightblue" stroke="midnightblue" points="210.244,-134.289 199.982,-131.655 206.361,-140.114 210.244,-134.289"/>
</g>
</g>
</svg>
