<?xml version="1.0" encoding="UTF-8" standalone="no"?>
<!DOCTYPE svg PUBLIC "-//W3C//DTD SVG 1.1//EN"
 "http://www.w3.org/Graphics/SVG/1.1/DTD/svg11.dtd">
<!-- Generated by graphviz version 2.36.0 (20140111.2315)
 -->
<!-- Title: wlib/stl/Concept.h Pages: 1 -->
<svg width="362pt" height="140pt"
 viewBox="0.00 0.00 362.00 140.00" xmlns="http://www.w3.org/2000/svg" xmlns:xlink="http://www.w3.org/1999/xlink">
<g id="graph0" class="graph" transform="scale(1 1) rotate(0) translate(4 136)">
<title>wlib/stl/Concept.h</title>
<polygon fill="white" stroke="none" points="-4,4 -4,-136 358,-136 358,4 -4,4"/>
<!-- Node1 -->
<g id="node1" class="node"><title>Node1</title>
<polygon fill="#bfbfbf" stroke="black" points="139.5,-112.5 139.5,-131.5 234.5,-131.5 234.5,-112.5 139.5,-112.5"/>
<text text-anchor="middle" x="187" y="-119.5" font-family="Helvetica,sans-Serif" font-size="10.00">wlib/stl/Concept.h</text>
</g>
<!-- Node2 -->
<g id="node2" class="node"><title>Node2</title>
<g id="a_node2"><a xlink:href="../../d4/dda/_pair_8h.html" target="_top" xlink:title="Implementation of a 2&#45;element tuple. ">
<polygon fill="white" stroke="black" points="0,-56.5 0,-75.5 76,-75.5 76,-56.5 0,-56.5"/>
<text text-anchor="middle" x="38" y="-63.5" font-family="Helvetica,sans-Serif" font-size="10.00">wlib/stl/Pair.h</text>
</a>
</g>
</g>
<!-- Node1&#45;&gt;Node2 -->
<g id="edge1" class="edge"><title>Node1&#45;&gt;Node2</title>
<path fill="none" stroke="midnightblue" d="M163.391,-112.444C138.542,-103.438 99.2256,-89.1891 71.2464,-79.049"/>
<polygon fill="midnightblue" stroke="midnightblue" points="72.0932,-75.6332 61.499,-75.5164 69.7081,-82.2144 72.0932,-75.6332"/>
</g>
<!-- Node4 -->
<g id="node4" class="node"><title>Node4</title>
<g id="a_node4"><a xlink:href="../../d4/dd5/_type_traits_8h.html" target="_top" xlink:title="Metafunctions for types. ">
<polygon fill="white" stroke="black" points="94.5,-56.5 94.5,-75.5 199.5,-75.5 199.5,-56.5 94.5,-56.5"/>
<text text-anchor="middle" x="147" y="-63.5" font-family="Helvetica,sans-Serif" font-size="10.00">wlib/stl/TypeTraits.h</text>
</a>
</g>
</g>
<!-- Node1&#45;&gt;Node4 -->
<g id="edge3" class="edge"><title>Node1&#45;&gt;Node4</title>
<path fill="none" stroke="midnightblue" d="M180.395,-112.083C174.745,-104.455 166.455,-93.2645 159.549,-83.9408"/>
<polygon fill="midnightblue" stroke="midnightblue" points="162.247,-81.7034 153.482,-75.7511 156.622,-85.87 162.247,-81.7034"/>
</g>
<!-- Node5 -->
<g id="node5" class="node"><title>Node5</title>
<polygon fill="white" stroke="#bfbfbf" points="145.5,-0.5 145.5,-19.5 228.5,-19.5 228.5,-0.5 145.5,-0.5"/>
<text text-anchor="middle" x="187" y="-7.5" font-family="Helvetica,sans-Serif" font-size="10.00">wlib/type_traits</text>
</g>
<!-- Node1&#45;&gt;Node5 -->
<g id="edge6" class="edge"><title>Node1&#45;&gt;Node5</title>
<path fill="none" stroke="midnightblue" d="M192.384,-112.443C197.556,-103.678 205.012,-89.4667 208,-76 211.643,-59.5779 204.802,-41.399 197.977,-28.4516"/>
<polygon fill="midnightblue" stroke="midnightblue" points="200.954,-26.6088 192.934,-19.6862 194.887,-30.0995 200.954,-26.6088"/>
</g>
<!-- Node6 -->
<g id="node6" class="node"><title>Node6</title>
<polygon fill="white" stroke="#bfbfbf" points="256,-56.5 256,-75.5 354,-75.5 354,-56.5 256,-56.5"/>
<text text-anchor="middle" x="305" y="-63.5" font-family="Helvetica,sans-Serif" font-size="10.00">wlib/tmp/Declval.h</text>
</g>
<!-- Node1&#45;&gt;Node6 -->
<g id="edge5" class="edge"><title>Node1&#45;&gt;Node6</title>
<path fill="none" stroke="midnightblue" d="M205.697,-112.444C224.944,-103.636 255.152,-89.8116 277.2,-79.722"/>
<polygon fill="midnightblue" stroke="midnightblue" points="278.753,-82.8603 286.39,-75.5164 275.84,-76.4951 278.753,-82.8603"/>
</g>
<!-- Node3 -->
<g id="node3" class="node"><title>Node3</title>
<polygon fill="white" stroke="#bfbfbf" points="8,-0.5 8,-19.5 68,-19.5 68,-0.5 8,-0.5"/>
<text text-anchor="middle" x="38" y="-7.5" font-family="Helvetica,sans-Serif" font-size="10.00">wlib/utility</text>
</g>
<!-- Node2&#45;&gt;Node3 -->
<g id="edge2" class="edge"><title>Node2&#45;&gt;Node3</title>
<path fill="none" stroke="midnightblue" d="M38,-56.083C38,-49.0059 38,-38.8611 38,-29.9865"/>
<polygon fill="midnightblue" stroke="midnightblue" points="41.5001,-29.751 38,-19.7511 34.5001,-29.7511 41.5001,-29.751"/>
</g>
<!-- Node4&#45;&gt;Node5 -->
<g id="edge4" class="edge"><title>Node4&#45;&gt;Node5</title>
<path fill="none" stroke="midnightblue" d="M153.605,-56.083C159.255,-48.4554 167.545,-37.2645 174.451,-27.9408"/>
<polygon fill="midnightblue" stroke="midnightblue" points="177.378,-29.87 180.518,-19.7511 171.753,-25.7034 177.378,-29.87"/>
</g>
</g>
</svg>
