<?xml version="1.0" encoding="UTF-8" standalone="no"?>
<!DOCTYPE svg PUBLIC "-//W3C//DTD SVG 1.1//EN"
 "http://www.w3.org/Graphics/SVG/1.1/DTD/svg11.dtd">
<!-- Generated by graphviz version 2.36.0 (20140111.2315)
 -->
<!-- Title: wlp::__is_integral_helper&lt; unsigned long long &gt; Pages: 1 -->
<svg width="124pt" height="176pt"
 viewBox="0.00 0.00 124.00 176.00" xmlns="http://www.w3.org/2000/svg" xmlns:xlink="http://www.w3.org/1999/xlink">
<g id="graph0" class="graph" transform="scale(1 1) rotate(0) translate(4 172)">
<title>wlp::__is_integral_helper&lt; unsigned long long &gt;</title>
<polygon fill="white" stroke="none" points="-4,4 -4,-172 120,-172 120,4 -4,4"/>
<!-- Node1 -->
<g id="node1" class="node"><title>Node1</title>
<polygon fill="#bfbfbf" stroke="black" points="-0.5,-0.5 -0.5,-41.5 116.5,-41.5 116.5,-0.5 -0.5,-0.5"/>
<text text-anchor="start" x="7.5" y="-29.5" font-family="Helvetica,sans-Serif" font-size="10.00">wlp::__is_integral</text>
<text text-anchor="start" x="7.5" y="-18.5" font-family="Helvetica,sans-Serif" font-size="10.00">_helper&lt; unsigned long</text>
<text text-anchor="middle" x="58" y="-7.5" font-family="Helvetica,sans-Serif" font-size="10.00"> long &gt;</text>
</g>
<!-- Node2 -->
<g id="node2" class="node"><title>Node2</title>
<g id="a_node2"><a xlink:href="../../d3/d8d/structwlp_1_1integral__constant.html" target="_top" xlink:title="true_type">
<polygon fill="white" stroke="black" points="29.5,-80.5 29.5,-99.5 86.5,-99.5 86.5,-80.5 29.5,-80.5"/>
<text text-anchor="middle" x="58" y="-87.5" font-family="Helvetica,sans-Serif" font-size="10.00">true_type</text>
</a>
</g>
</g>
<!-- Node2&#45;&gt;Node1 -->
<g id="edge1" class="edge"><title>Node2&#45;&gt;Node1</title>
<path fill="none" stroke="midnightblue" d="M58,-70.1738C58,-61.3082 58,-50.7339 58,-41.754"/>
<polygon fill="midnightblue" stroke="midnightblue" points="54.5001,-70.2409 58,-80.2409 61.5001,-70.241 54.5001,-70.2409"/>
</g>
<!-- Node3 -->
<g id="node3" class="node"><title>Node3</title>
<polygon fill="white" stroke="#bfbfbf" points="43.5,-148.5 43.5,-167.5 72.5,-167.5 72.5,-148.5 43.5,-148.5"/>
<text text-anchor="middle" x="58" y="-155.5" font-family="Helvetica,sans-Serif" font-size="10.00">T</text>
</g>
<!-- Node3&#45;&gt;Node2 -->
<g id="edge2" class="edge"><title>Node3&#45;&gt;Node2</title>
<path fill="none" stroke="#9a32cd" stroke-dasharray="5,2" d="M58,-138.041C58,-125.472 58,-109.563 58,-99.8411"/>
<polygon fill="#9a32cd" stroke="#9a32cd" points="54.5001,-138.372 58,-148.372 61.5001,-138.372 54.5001,-138.372"/>
<text text-anchor="middle" x="71.5" y="-121.5" font-family="Helvetica,sans-Serif" font-size="10.00"> value</text>
</g>
</g>
</svg>
