<?xml version="1.0" encoding="UTF-8" standalone="no"?>
<!DOCTYPE svg PUBLIC "-//W3C//DTD SVG 1.1//EN"
 "http://www.w3.org/Graphics/SVG/1.1/DTD/svg11.dtd">
<!-- Generated by graphviz version 2.36.0 (20140111.2315)
 -->
<!-- Title: wlp::Comparator&lt; StaticString&lt; tSize &gt; &gt;::__gt__ Pages: 1 -->
<svg width="290pt" height="38pt"
 viewBox="0.00 0.00 290.00 38.00" xmlns="http://www.w3.org/2000/svg" xmlns:xlink="http://www.w3.org/1999/xlink">
<g id="graph0" class="graph" transform="scale(1 1) rotate(0) translate(4 34)">
<title>wlp::Comparator&lt; StaticString&lt; tSize &gt; &gt;::__gt__</title>
<polygon fill="white" stroke="none" points="-4,4 -4,-34 286,-34 286,4 -4,4"/>
<!-- Node1 -->
<g id="node1" class="node"><title>Node1</title>
<polygon fill="#bfbfbf" stroke="black" points="0.5,-0 0.5,-30 149.5,-30 149.5,-0 0.5,-0"/>
<text text-anchor="start" x="8.5" y="-18" font-family="Helvetica,sans-Serif" font-size="10.00">wlp::Comparator&lt; StaticString</text>
<text text-anchor="middle" x="75" y="-7" font-family="Helvetica,sans-Serif" font-size="10.00">&lt; tSize &gt; &gt;::__gt__</text>
</g>
<!-- Node2 -->
<g id="node2" class="node"><title>Node2</title>
<g id="a_node2"><a xlink:href="../../d6/d6b/classwlp_1_1_static_string.html#a522d0120ce55d5470e1e45b60e296000" target="_top" xlink:title="wlp::StaticString::\lc_str">
<polygon fill="white" stroke="black" points="186.5,-0 186.5,-30 281.5,-30 281.5,-0 186.5,-0"/>
<text text-anchor="start" x="194.5" y="-18" font-family="Helvetica,sans-Serif" font-size="10.00">wlp::StaticString::</text>
<text text-anchor="middle" x="234" y="-7" font-family="Helvetica,sans-Serif" font-size="10.00">c_str</text>
</a>
</g>
</g>
<!-- Node1&#45;&gt;Node2 -->
<g id="edge1" class="edge"><title>Node1&#45;&gt;Node2</title>
<path fill="none" stroke="midnightblue" d="M149.903,-15C158.723,-15 167.622,-15 176.15,-15"/>
<polygon fill="midnightblue" stroke="midnightblue" points="176.34,-18.5001 186.34,-15 176.34,-11.5001 176.34,-18.5001"/>
</g>
</g>
</svg>
