<?xml version="1.0" encoding="UTF-8" standalone="no"?>
<!DOCTYPE svg PUBLIC "-//W3C//DTD SVG 1.1//EN"
 "http://www.w3.org/Graphics/SVG/1.1/DTD/svg11.dtd">
<!-- Generated by graphviz version 2.38.0 (20140413.2041)
 -->
<!-- Title: wlp::Comparator&lt; StaticString&lt; tSize &gt; &gt;::__gt__ Pages: 1 -->
<svg width="285pt" height="39pt"
 viewBox="0.00 0.00 285.00 39.00" xmlns="http://www.w3.org/2000/svg" xmlns:xlink="http://www.w3.org/1999/xlink">
<g id="graph0" class="graph" transform="scale(1 1) rotate(0) translate(4 35)">
<title>wlp::Comparator&lt; StaticString&lt; tSize &gt; &gt;::__gt__</title>
<polygon fill="white" stroke="none" points="-4,4 -4,-35 281,-35 281,4 -4,4"/>
<!-- Node6 -->
<g id="node1" class="node"><title>Node6</title>
<polygon fill="#bfbfbf" stroke="black" points="0,-0.5 0,-30.5 147,-30.5 147,-0.5 0,-0.5"/>
<text text-anchor="start" x="8" y="-18.5" font-family="Helvetica,sans-Serif" font-size="10.00">wlp::Comparator&lt; StaticString</text>
<text text-anchor="middle" x="73.5" y="-7.5" font-family="Helvetica,sans-Serif" font-size="10.00">&lt; tSize &gt; &gt;::__gt__</text>
</g>
<!-- Node7 -->
<g id="node2" class="node"><title>Node7</title>
<g id="a_node2"><a xlink:href="../../d6/d6b/classwlp_1_1_static_string.html#a3dc0e9fe5861cfebae08b3c3b9877371" target="_top" xlink:title="wlp::StaticString::\lc_str">
<polygon fill="white" stroke="black" points="183,-0.5 183,-30.5 277,-30.5 277,-0.5 183,-0.5"/>
<text text-anchor="start" x="191" y="-18.5" font-family="Helvetica,sans-Serif" font-size="10.00">wlp::StaticString::</text>
<text text-anchor="middle" x="230" y="-7.5" font-family="Helvetica,sans-Serif" font-size="10.00">c_str</text>
</a>
</g>
</g>
<!-- Node6&#45;&gt;Node7 -->
<g id="edge1" class="edge"><title>Node6&#45;&gt;Node7</title>
<path fill="none" stroke="midnightblue" d="M147.226,-15.5C155.701,-15.5 164.248,-15.5 172.459,-15.5"/>
<polygon fill="midnightblue" stroke="midnightblue" points="172.648,-19.0001 182.648,-15.5 172.648,-12.0001 172.648,-19.0001"/>
</g>
</g>
</svg>
