<?xml version="1.0" encoding="UTF-8" standalone="no"?>
<!DOCTYPE svg PUBLIC "-//W3C//DTD SVG 1.1//EN"
 "http://www.w3.org/Graphics/SVG/1.1/DTD/svg11.dtd">
<!-- Generated by graphviz version 2.36.0 (20140111.2315)
 -->
<!-- Title: wlp::vector2d::norm_sq Pages: 1 -->
<svg width="530pt" height="47pt"
 viewBox="0.00 0.00 530.00 47.00" xmlns="http://www.w3.org/2000/svg" xmlns:xlink="http://www.w3.org/1999/xlink">
<g id="graph0" class="graph" transform="scale(1 1) rotate(0) translate(4 43)">
<title>wlp::vector2d::norm_sq</title>
<polygon fill="white" stroke="none" points="-4,4 -4,-43 526,-43 526,4 -4,4"/>
<!-- Node1 -->
<g id="node1" class="node"><title>Node1</title>
<polygon fill="#bfbfbf" stroke="black" points="0.5,-0.5 0.5,-19.5 119.5,-19.5 119.5,-0.5 0.5,-0.5"/>
<text text-anchor="middle" x="60" y="-7.5" font-family="Helvetica,sans-Serif" font-size="10.00">wlp::vector2d::norm_sq</text>
</g>
<!-- Node2 -->
<g id="node2" class="node"><title>Node2</title>
<g id="a_node2"><a xlink:href="../../d7/ddb/classwlp_1_1vector2d.html#a72f7a9253379f735b066fc9c55a21dfd" target="_top" xlink:title="wlp::vector2d::norm">
<polygon fill="white" stroke="black" points="156.5,-0.5 156.5,-19.5 259.5,-19.5 259.5,-0.5 156.5,-0.5"/>
<text text-anchor="middle" x="208" y="-7.5" font-family="Helvetica,sans-Serif" font-size="10.00">wlp::vector2d::norm</text>
</a>
</g>
</g>
<!-- Node1&#45;&gt;Node2 -->
<g id="edge1" class="edge"><title>Node1&#45;&gt;Node2</title>
<path fill="none" stroke="midnightblue" d="M129.661,-10C138.683,-10 147.793,-10 156.439,-10"/>
<polygon fill="midnightblue" stroke="midnightblue" points="129.543,-6.5001 119.543,-10 129.543,-13.5001 129.543,-6.5001"/>
</g>
<!-- Node3 -->
<g id="node3" class="node"><title>Node3</title>
<g id="a_node3"><a xlink:href="../../d7/ddb/classwlp_1_1vector2d.html#a4951af8cea48ebeb10f396fb6894615c" target="_top" xlink:title="wlp::vector2d::n">
<polygon fill="white" stroke="black" points="296,-19.5 296,-38.5 382,-38.5 382,-19.5 296,-19.5"/>
<text text-anchor="middle" x="339" y="-26.5" font-family="Helvetica,sans-Serif" font-size="10.00">wlp::vector2d::n</text>
</a>
</g>
</g>
<!-- Node2&#45;&gt;Node3 -->
<g id="edge2" class="edge"><title>Node2&#45;&gt;Node3</title>
<path fill="none" stroke="midnightblue" d="M269.572,-18.9215C278.462,-20.2308 287.452,-21.5549 295.862,-22.7937"/>
<polygon fill="midnightblue" stroke="midnightblue" points="270.017,-15.4494 259.614,-17.4548 268.997,-22.3746 270.017,-15.4494"/>
</g>
<!-- Node4 -->
<g id="node4" class="node"><title>Node4</title>
<g id="a_node4"><a xlink:href="../../d7/ddb/classwlp_1_1vector2d.html#a6b39bbbcd54ab8576ae16d7673a9ee09" target="_top" xlink:title="wlp::vector2d::n_inv">
<polygon fill="white" stroke="black" points="418,-0.5 418,-19.5 522,-19.5 522,-0.5 418,-0.5"/>
<text text-anchor="middle" x="470" y="-7.5" font-family="Helvetica,sans-Serif" font-size="10.00">wlp::vector2d::n_inv</text>
</a>
</g>
</g>
<!-- Node2&#45;&gt;Node4 -->
<g id="edge4" class="edge"><title>Node2&#45;&gt;Node4</title>
<path fill="none" stroke="midnightblue" d="M269.962,-10C314.952,-10 375.482,-10 417.937,-10"/>
<polygon fill="midnightblue" stroke="midnightblue" points="269.748,-6.5001 259.748,-10 269.748,-13.5001 269.748,-6.5001"/>
</g>
<!-- Node3&#45;&gt;Node4 -->
<g id="edge3" class="edge"><title>Node3&#45;&gt;Node4</title>
<path fill="none" stroke="midnightblue" d="M392.274,-21.3008C400.649,-20.0672 409.31,-18.7916 417.663,-17.5613"/>
<polygon fill="midnightblue" stroke="midnightblue" points="391.623,-17.8588 382.239,-22.7787 392.643,-24.7841 391.623,-17.8588"/>
</g>
</g>
</svg>
