<?xml version="1.0" encoding="UTF-8" standalone="no"?>
<!DOCTYPE svg PUBLIC "-//W3C//DTD SVG 1.1//EN"
 "http://www.w3.org/Graphics/SVG/1.1/DTD/svg11.dtd">
<!-- Generated by graphviz version 2.36.0 (20140111.2315)
 -->
<!-- Title: wlp::RedBlackTree::destroy_node Pages: 1 -->
<svg width="320pt" height="87pt"
 viewBox="0.00 0.00 320.00 87.00" xmlns="http://www.w3.org/2000/svg" xmlns:xlink="http://www.w3.org/1999/xlink">
<g id="graph0" class="graph" transform="scale(1 1) rotate(0) translate(4 83)">
<title>wlp::RedBlackTree::destroy_node</title>
<polygon fill="white" stroke="none" points="-4,4 -4,-83 316,-83 316,4 -4,4"/>
<!-- Node1 -->
<g id="node1" class="node"><title>Node1</title>
<polygon fill="#bfbfbf" stroke="black" points="0,-24 0,-54 106,-54 106,-24 0,-24"/>
<text text-anchor="start" x="8" y="-42" font-family="Helvetica,sans-Serif" font-size="10.00">wlp::RedBlackTree::</text>
<text text-anchor="middle" x="53" y="-31" font-family="Helvetica,sans-Serif" font-size="10.00">destroy_node</text>
</g>
<!-- Node2 -->
<g id="node2" class="node"><title>Node2</title>
<g id="a_node2"><a xlink:href="../../d3/def/classwlp_1_1_red_black_tree.html#ac388c189e632d49c7a9e2c52e3b153d1" target="_top" xlink:title="wlp::RedBlackTree\&lt;\l Key, Key, Cmp \&gt;::operator=">
<polygon fill="white" stroke="black" points="155.5,-49 155.5,-79 298.5,-79 298.5,-49 155.5,-49"/>
<text text-anchor="start" x="163.5" y="-67" font-family="Helvetica,sans-Serif" font-size="10.00">wlp::RedBlackTree&lt;</text>
<text text-anchor="middle" x="227" y="-56" font-family="Helvetica,sans-Serif" font-size="10.00"> Key, Key, Cmp &gt;::operator=</text>
</a>
</g>
</g>
<!-- Node1&#45;&gt;Node2 -->
<g id="edge1" class="edge"><title>Node1&#45;&gt;Node2</title>
<path fill="none" stroke="midnightblue" d="M116.106,-48.0271C128.851,-49.8795 142.356,-51.8424 155.375,-53.7347"/>
<polygon fill="midnightblue" stroke="midnightblue" points="116.472,-44.5435 106.072,-46.5687 115.465,-51.4707 116.472,-44.5435"/>
</g>
<!-- Node3 -->
<g id="node3" class="node"><title>Node3</title>
<g id="a_node3"><a xlink:href="../../d3/def/classwlp_1_1_red_black_tree.html#a0e309e3b6336778842a967b53143c026" target="_top" xlink:title="wlp::RedBlackTree\&lt;\l Key, Key, Cmp \&gt;::~RedBlackTree">
<polygon fill="white" stroke="black" points="142,-0 142,-30 312,-30 312,-0 142,-0"/>
<text text-anchor="start" x="150" y="-18" font-family="Helvetica,sans-Serif" font-size="10.00">wlp::RedBlackTree&lt;</text>
<text text-anchor="middle" x="227" y="-7" font-family="Helvetica,sans-Serif" font-size="10.00"> Key, Key, Cmp &gt;::~RedBlackTree</text>
</a>
</g>
</g>
<!-- Node1&#45;&gt;Node3 -->
<g id="edge2" class="edge"><title>Node1&#45;&gt;Node3</title>
<path fill="none" stroke="midnightblue" d="M116.056,-30.341C124.392,-29.1778 133.055,-27.9691 141.695,-26.7635"/>
<polygon fill="midnightblue" stroke="midnightblue" points="115.493,-26.8856 106.072,-31.7341 116.46,-33.8185 115.493,-26.8856"/>
</g>
</g>
</svg>
