<?xml version="1.0" encoding="UTF-8" standalone="no"?>
<!DOCTYPE svg PUBLIC "-//W3C//DTD SVG 1.1//EN"
 "http://www.w3.org/Graphics/SVG/1.1/DTD/svg11.dtd">
<!-- Generated by graphviz version 2.36.0 (20140111.2315)
 -->
<!-- Title: wlp::RedBlackTree::clear Pages: 1 -->
<svg width="332pt" height="230pt"
 viewBox="0.00 0.00 332.00 230.00" xmlns="http://www.w3.org/2000/svg" xmlns:xlink="http://www.w3.org/1999/xlink">
<g id="graph0" class="graph" transform="scale(1 1) rotate(0) translate(4 226)">
<title>wlp::RedBlackTree::clear</title>
<polygon fill="white" stroke="none" points="-4,4 -4,-226 328,-226 328,4 -4,4"/>
<!-- Node1 -->
<g id="node1" class="node"><title>Node1</title>
<polygon fill="#bfbfbf" stroke="black" points="0,-129 0,-159 106,-159 106,-129 0,-129"/>
<text text-anchor="start" x="8" y="-147" font-family="Helvetica,sans-Serif" font-size="10.00">wlp::RedBlackTree::</text>
<text text-anchor="middle" x="53" y="-136" font-family="Helvetica,sans-Serif" font-size="10.00">clear</text>
</g>
<!-- Node2 -->
<g id="node2" class="node"><title>Node2</title>
<g id="a_node2"><a xlink:href="../../dd/d7e/classwlp_1_1_tree_set.html#ac2a80ec1bbf9be2da5b9e493bb3b607a" target="_top" xlink:title="wlp::TreeSet::clear">
<polygon fill="white" stroke="black" points="183.5,-202.5 183.5,-221.5 282.5,-221.5 282.5,-202.5 183.5,-202.5"/>
<text text-anchor="middle" x="233" y="-209.5" font-family="Helvetica,sans-Serif" font-size="10.00">wlp::TreeSet::clear</text>
</a>
</g>
</g>
<!-- Node1&#45;&gt;Node2 -->
<g id="edge1" class="edge"><title>Node1&#45;&gt;Node2</title>
<path fill="none" stroke="midnightblue" d="M85.2127,-164.406C101.558,-174.297 122.24,-185.606 142,-193 155.012,-197.869 169.575,-201.623 183.131,-204.458"/>
<polygon fill="midnightblue" stroke="midnightblue" points="86.9584,-161.37 76.6117,-159.091 83.2785,-167.325 86.9584,-161.37"/>
</g>
<!-- Node3 -->
<g id="node3" class="node"><title>Node3</title>
<g id="a_node3"><a xlink:href="../../da/d4c/classwlp_1_1_tree_map.html#ae2ab6bed550d2abfa8509c00686cb3e1" target="_top" xlink:title="wlp::TreeMap::clear">
<polygon fill="white" stroke="black" points="181.5,-164.5 181.5,-183.5 284.5,-183.5 284.5,-164.5 181.5,-164.5"/>
<text text-anchor="middle" x="233" y="-171.5" font-family="Helvetica,sans-Serif" font-size="10.00">wlp::TreeMap::clear</text>
</a>
</g>
</g>
<!-- Node1&#45;&gt;Node3 -->
<g id="edge2" class="edge"><title>Node1&#45;&gt;Node3</title>
<path fill="none" stroke="midnightblue" d="M116.372,-154.512C137.671,-158.102 161.211,-162.069 181.461,-165.482"/>
<polygon fill="midnightblue" stroke="midnightblue" points="116.886,-151.049 106.443,-152.839 115.722,-157.952 116.886,-151.049"/>
</g>
<!-- Node4 -->
<g id="node4" class="node"><title>Node4</title>
<g id="a_node4"><a xlink:href="../../d3/def/classwlp_1_1_red_black_tree.html#ae765715f218b6df72ff95df58d01ef9e" target="_top" xlink:title="wlp::RedBlackTree\&lt;\l Tuple\&lt; Key, Val \&gt;,\l Key, Val, MapGetKey\l\&lt; Key, Val \&gt;, MapGetVal\l\&lt; Key, Val \&gt;, Cmp \&gt;::operator=">
<polygon fill="white" stroke="black" points="155.5,-82.5 155.5,-145.5 310.5,-145.5 310.5,-82.5 155.5,-82.5"/>
<text text-anchor="start" x="163.5" y="-133.5" font-family="Helvetica,sans-Serif" font-size="10.00">wlp::RedBlackTree&lt;</text>
<text text-anchor="start" x="163.5" y="-122.5" font-family="Helvetica,sans-Serif" font-size="10.00"> Tuple&lt; Key, Val &gt;,</text>
<text text-anchor="start" x="163.5" y="-111.5" font-family="Helvetica,sans-Serif" font-size="10.00"> Key, Val, MapGetKey</text>
<text text-anchor="start" x="163.5" y="-100.5" font-family="Helvetica,sans-Serif" font-size="10.00">&lt; Key, Val &gt;, MapGetVal</text>
<text text-anchor="middle" x="233" y="-89.5" font-family="Helvetica,sans-Serif" font-size="10.00">&lt; Key, Val &gt;, Cmp &gt;::operator=</text>
</a>
</g>
</g>
<!-- Node1&#45;&gt;Node4 -->
<g id="edge3" class="edge"><title>Node1&#45;&gt;Node4</title>
<path fill="none" stroke="midnightblue" d="M116.323,-133.496C128.878,-131.38 142.214,-129.133 155.196,-126.944"/>
<polygon fill="midnightblue" stroke="midnightblue" points="115.722,-130.048 106.443,-135.161 116.886,-136.951 115.722,-130.048"/>
</g>
<!-- Node5 -->
<g id="node5" class="node"><title>Node5</title>
<g id="a_node5"><a xlink:href="../../d3/def/classwlp_1_1_red_black_tree.html#a80a2e9086fc271d6da4b7aed7cc5c8bf" target="_top" xlink:title="wlp::RedBlackTree\&lt;\l Tuple\&lt; Key, Val \&gt;,\l Key, Val, MapGetKey\l\&lt; Key, Val \&gt;, MapGetVal\l\&lt; Key, Val \&gt;, Cmp \&gt;::~RedBlackTree">
<polygon fill="white" stroke="black" points="142,-0.5 142,-63.5 324,-63.5 324,-0.5 142,-0.5"/>
<text text-anchor="start" x="150" y="-51.5" font-family="Helvetica,sans-Serif" font-size="10.00">wlp::RedBlackTree&lt;</text>
<text text-anchor="start" x="150" y="-40.5" font-family="Helvetica,sans-Serif" font-size="10.00"> Tuple&lt; Key, Val &gt;,</text>
<text text-anchor="start" x="150" y="-29.5" font-family="Helvetica,sans-Serif" font-size="10.00"> Key, Val, MapGetKey</text>
<text text-anchor="start" x="150" y="-18.5" font-family="Helvetica,sans-Serif" font-size="10.00">&lt; Key, Val &gt;, MapGetVal</text>
<text text-anchor="middle" x="233" y="-7.5" font-family="Helvetica,sans-Serif" font-size="10.00">&lt; Key, Val &gt;, Cmp &gt;::~RedBlackTree</text>
</a>
</g>
</g>
<!-- Node1&#45;&gt;Node5 -->
<g id="edge4" class="edge"><title>Node1&#45;&gt;Node5</title>
<path fill="none" stroke="midnightblue" d="M78.0298,-121.84C95.0555,-106.854 118.89,-87.2698 142,-73 147.259,-69.7525 152.819,-66.6075 158.491,-63.6005"/>
<polygon fill="midnightblue" stroke="midnightblue" points="75.3805,-119.514 70.2517,-128.784 80.0424,-124.735 75.3805,-119.514"/>
</g>
</g>
</svg>
