<?xml version="1.0" encoding="UTF-8" standalone="no"?>
<!DOCTYPE svg PUBLIC "-//W3C//DTD SVG 1.1//EN"
 "http://www.w3.org/Graphics/SVG/1.1/DTD/svg11.dtd">
<!-- Generated by graphviz version 2.36.0 (20140111.2315)
 -->
<!-- Title: wlp::RedBlackTree::erase Pages: 1 -->
<svg width="274pt" height="77pt"
 viewBox="0.00 0.00 274.00 77.00" xmlns="http://www.w3.org/2000/svg" xmlns:xlink="http://www.w3.org/1999/xlink">
<g id="graph0" class="graph" transform="scale(1 1) rotate(0) translate(4 73)">
<title>wlp::RedBlackTree::erase</title>
<polygon fill="white" stroke="none" points="-4,4 -4,-73 270,-73 270,4 -4,4"/>
<!-- Node1 -->
<g id="node1" class="node"><title>Node1</title>
<polygon fill="#bfbfbf" stroke="black" points="0,-17 0,-47 106,-47 106,-17 0,-17"/>
<text text-anchor="start" x="8" y="-35" font-family="Helvetica,sans-Serif" font-size="10.00">wlp::RedBlackTree::</text>
<text text-anchor="middle" x="53" y="-24" font-family="Helvetica,sans-Serif" font-size="10.00">erase</text>
</g>
<!-- Node2 -->
<g id="node2" class="node"><title>Node2</title>
<g id="a_node2"><a xlink:href="../../d3/def/classwlp_1_1_red_black_tree.html#a7793eefdb0119eecad74fafc926b49dd" target="_top" xlink:title="wlp::RedBlackTree\&lt;\l Key, Key, Cmp \&gt;::clear">
<polygon fill="white" stroke="black" points="142.5,-39 142.5,-69 265.5,-69 265.5,-39 142.5,-39"/>
<text text-anchor="start" x="150.5" y="-57" font-family="Helvetica,sans-Serif" font-size="10.00">wlp::RedBlackTree&lt;</text>
<text text-anchor="middle" x="204" y="-46" font-family="Helvetica,sans-Serif" font-size="10.00"> Key, Key, Cmp &gt;::clear</text>
</a>
</g>
</g>
<!-- Node1&#45;&gt;Node2 -->
<g id="edge1" class="edge"><title>Node1&#45;&gt;Node2</title>
<path fill="none" stroke="midnightblue" d="M116.191,-41.1825C124.891,-42.4671 133.822,-43.7857 142.49,-45.0656"/>
<polygon fill="midnightblue" stroke="midnightblue" points="116.517,-37.6928 106.113,-39.6945 115.494,-44.6178 116.517,-37.6928"/>
</g>
<!-- Node3 -->
<g id="node3" class="node"><title>Node3</title>
<g id="a_node3"><a xlink:href="../../dd/d7e/classwlp_1_1_tree_set.html#a374f622affe028cb741aac9e2f3fb202" target="_top" xlink:title="wlp::TreeSet::erase">
<polygon fill="white" stroke="black" points="153,-0.5 153,-19.5 255,-19.5 255,-0.5 153,-0.5"/>
<text text-anchor="middle" x="204" y="-7.5" font-family="Helvetica,sans-Serif" font-size="10.00">wlp::TreeSet::erase</text>
</a>
</g>
</g>
<!-- Node1&#45;&gt;Node3 -->
<g id="edge2" class="edge"><title>Node1&#45;&gt;Node3</title>
<path fill="none" stroke="midnightblue" d="M116.191,-22.8175C128.35,-21.0222 140.958,-19.1606 152.672,-17.4309"/>
<polygon fill="midnightblue" stroke="midnightblue" points="115.494,-19.3822 106.113,-24.3055 116.517,-26.3072 115.494,-19.3822"/>
</g>
</g>
</svg>
