<?xml version="1.0" encoding="UTF-8" standalone="no"?>
<!DOCTYPE svg PUBLIC "-//W3C//DTD SVG 1.1//EN"
 "http://www.w3.org/Graphics/SVG/1.1/DTD/svg11.dtd">
<!-- Generated by graphviz version 2.36.0 (20140111.2315)
 -->
<!-- Title: wlp::RedBlackTree::insert_unique Pages: 1 -->
<svg width="274pt" height="154pt"
 viewBox="0.00 0.00 274.00 154.00" xmlns="http://www.w3.org/2000/svg" xmlns:xlink="http://www.w3.org/1999/xlink">
<g id="graph0" class="graph" transform="scale(1 1) rotate(0) translate(4 150)">
<title>wlp::RedBlackTree::insert_unique</title>
<polygon fill="white" stroke="none" points="-4,4 -4,-150 270,-150 270,4 -4,4"/>
<!-- Node1 -->
<g id="node1" class="node"><title>Node1</title>
<polygon fill="#bfbfbf" stroke="black" points="0,-61 0,-91 106,-91 106,-61 0,-61"/>
<text text-anchor="start" x="8" y="-79" font-family="Helvetica,sans-Serif" font-size="10.00">wlp::RedBlackTree::</text>
<text text-anchor="middle" x="53" y="-68" font-family="Helvetica,sans-Serif" font-size="10.00">insert_unique</text>
</g>
<!-- Node2 -->
<g id="node2" class="node"><title>Node2</title>
<g id="a_node2"><a xlink:href="../../dd/d7e/classwlp_1_1_tree_set.html#a1c9c6aeee762e662fbd780edb0935863" target="_top" xlink:title="wlp::TreeSet::insert">
<polygon fill="white" stroke="black" points="153,-126.5 153,-145.5 255,-145.5 255,-126.5 153,-126.5"/>
<text text-anchor="middle" x="204" y="-133.5" font-family="Helvetica,sans-Serif" font-size="10.00">wlp::TreeSet::insert</text>
</a>
</g>
</g>
<!-- Node1&#45;&gt;Node2 -->
<g id="edge1" class="edge"><title>Node1&#45;&gt;Node2</title>
<path fill="none" stroke="midnightblue" d="M92.7891,-95.4403C107.946,-102.673 125.597,-110.657 142,-117 150.794,-120.4 160.473,-123.637 169.48,-126.445"/>
<polygon fill="midnightblue" stroke="midnightblue" points="94.2347,-92.2517 83.7077,-91.055 91.1908,-98.5553 94.2347,-92.2517"/>
</g>
<!-- Node3 -->
<g id="node3" class="node"><title>Node3</title>
<g id="a_node3"><a xlink:href="../../da/d4c/classwlp_1_1_tree_map.html#a977d58371702e294ec6706c56a5d4163" target="_top" xlink:title="wlp::TreeMap::insert">
<polygon fill="white" stroke="black" points="151,-88.5 151,-107.5 257,-107.5 257,-88.5 151,-88.5"/>
<text text-anchor="middle" x="204" y="-95.5" font-family="Helvetica,sans-Serif" font-size="10.00">wlp::TreeMap::insert</text>
</a>
</g>
</g>
<!-- Node1&#45;&gt;Node3 -->
<g id="edge2" class="edge"><title>Node1&#45;&gt;Node3</title>
<path fill="none" stroke="midnightblue" d="M116.144,-85.1757C127.712,-86.8837 139.689,-88.652 150.916,-90.3098"/>
<polygon fill="midnightblue" stroke="midnightblue" points="116.517,-81.6928 106.113,-83.6945 115.494,-88.6178 116.517,-81.6928"/>
</g>
<!-- Node4 -->
<g id="node4" class="node"><title>Node4</title>
<g id="a_node4"><a xlink:href="../../da/d4c/classwlp_1_1_tree_map.html#a94a4d16a031a4d049aa174b68baaa06b" target="_top" xlink:title="wlp::TreeMap::insert\l_or_assign">
<polygon fill="white" stroke="black" points="151,-39 151,-69 257,-69 257,-39 151,-39"/>
<text text-anchor="start" x="159" y="-57" font-family="Helvetica,sans-Serif" font-size="10.00">wlp::TreeMap::insert</text>
<text text-anchor="middle" x="204" y="-46" font-family="Helvetica,sans-Serif" font-size="10.00">_or_assign</text>
</a>
</g>
</g>
<!-- Node1&#45;&gt;Node4 -->
<g id="edge3" class="edge"><title>Node1&#45;&gt;Node4</title>
<path fill="none" stroke="midnightblue" d="M116.144,-66.8243C127.712,-65.1163 139.689,-63.348 150.916,-61.6902"/>
<polygon fill="midnightblue" stroke="midnightblue" points="115.494,-63.3822 106.113,-68.3055 116.517,-70.3072 115.494,-63.3822"/>
</g>
<!-- Node5 -->
<g id="node5" class="node"><title>Node5</title>
<g id="a_node5"><a xlink:href="../../da/d4c/classwlp_1_1_tree_map.html#a9f2fa21232ceaf0c2e0eda9a37e4e31a" target="_top" xlink:title="wlp::TreeMap::operator[]">
<polygon fill="white" stroke="black" points="142.5,-0.5 142.5,-19.5 265.5,-19.5 265.5,-0.5 142.5,-0.5"/>
<text text-anchor="middle" x="204" y="-7.5" font-family="Helvetica,sans-Serif" font-size="10.00">wlp::TreeMap::operator[]</text>
</a>
</g>
</g>
<!-- Node1&#45;&gt;Node5 -->
<g id="edge4" class="edge"><title>Node1&#45;&gt;Node5</title>
<path fill="none" stroke="midnightblue" d="M88.9607,-56.0299C104.853,-47.3965 124.075,-37.5625 142,-30 151.139,-26.1443 161.296,-22.5522 170.659,-19.5064"/>
<polygon fill="midnightblue" stroke="midnightblue" points="87.0969,-53.0605 80.0232,-60.948 90.4717,-59.1933 87.0969,-53.0605"/>
</g>
</g>
</svg>
