<?xml version="1.0" encoding="UTF-8" standalone="no"?>
<!DOCTYPE svg PUBLIC "-//W3C//DTD SVG 1.1//EN"
 "http://www.w3.org/Graphics/SVG/1.1/DTD/svg11.dtd">
<!-- Generated by graphviz version 2.36.0 (20140111.2315)
 -->
<!-- Title: wlp::RedBlackTree::clear Pages: 1 -->
<svg width="320pt" height="126pt"
 viewBox="0.00 0.00 320.00 126.00" xmlns="http://www.w3.org/2000/svg" xmlns:xlink="http://www.w3.org/1999/xlink">
<g id="graph0" class="graph" transform="scale(1 1) rotate(0) translate(4 122)">
<title>wlp::RedBlackTree::clear</title>
<polygon fill="white" stroke="none" points="-4,4 -4,-122 316,-122 316,4 -4,4"/>
<!-- Node1 -->
<g id="node1" class="node"><title>Node1</title>
<polygon fill="#bfbfbf" stroke="black" points="0,-49 0,-79 106,-79 106,-49 0,-49"/>
<text text-anchor="start" x="8" y="-67" font-family="Helvetica,sans-Serif" font-size="10.00">wlp::RedBlackTree::</text>
<text text-anchor="middle" x="53" y="-56" font-family="Helvetica,sans-Serif" font-size="10.00">clear</text>
</g>
<!-- Node2 -->
<g id="node2" class="node"><title>Node2</title>
<g id="a_node2"><a xlink:href="../../dd/d7e/classwlp_1_1_tree_set.html#ac2a80ec1bbf9be2da5b9e493bb3b607a" target="_top" xlink:title="wlp::TreeSet::clear">
<polygon fill="white" stroke="black" points="177.5,-98.5 177.5,-117.5 276.5,-117.5 276.5,-98.5 177.5,-98.5"/>
<text text-anchor="middle" x="227" y="-105.5" font-family="Helvetica,sans-Serif" font-size="10.00">wlp::TreeSet::clear</text>
</a>
</g>
</g>
<!-- Node1&#45;&gt;Node2 -->
<g id="edge1" class="edge"><title>Node1&#45;&gt;Node2</title>
<path fill="none" stroke="midnightblue" d="M115.848,-81.1396C124.616,-83.4899 133.528,-85.8366 142,-88 155.799,-91.5234 170.924,-95.1859 184.491,-98.3992"/>
<polygon fill="midnightblue" stroke="midnightblue" points="116.609,-77.7197 106.042,-78.4941 114.785,-84.4781 116.609,-77.7197"/>
</g>
<!-- Node3 -->
<g id="node3" class="node"><title>Node3</title>
<g id="a_node3"><a xlink:href="../../d3/def/classwlp_1_1_red_black_tree.html#ac388c189e632d49c7a9e2c52e3b153d1" target="_top" xlink:title="wlp::RedBlackTree\&lt;\l Key, Key, Cmp \&gt;::operator=">
<polygon fill="white" stroke="black" points="155.5,-49 155.5,-79 298.5,-79 298.5,-49 155.5,-49"/>
<text text-anchor="start" x="163.5" y="-67" font-family="Helvetica,sans-Serif" font-size="10.00">wlp::RedBlackTree&lt;</text>
<text text-anchor="middle" x="227" y="-56" font-family="Helvetica,sans-Serif" font-size="10.00"> Key, Key, Cmp &gt;::operator=</text>
</a>
</g>
</g>
<!-- Node1&#45;&gt;Node3 -->
<g id="edge2" class="edge"><title>Node1&#45;&gt;Node3</title>
<path fill="none" stroke="midnightblue" d="M116.106,-64C128.851,-64 142.356,-64 155.375,-64"/>
<polygon fill="midnightblue" stroke="midnightblue" points="116.072,-60.5001 106.072,-64 116.072,-67.5001 116.072,-60.5001"/>
</g>
<!-- Node4 -->
<g id="node4" class="node"><title>Node4</title>
<g id="a_node4"><a xlink:href="../../d3/def/classwlp_1_1_red_black_tree.html#a0e309e3b6336778842a967b53143c026" target="_top" xlink:title="wlp::RedBlackTree\&lt;\l Key, Key, Cmp \&gt;::~RedBlackTree">
<polygon fill="white" stroke="black" points="142,-0 142,-30 312,-30 312,-0 142,-0"/>
<text text-anchor="start" x="150" y="-18" font-family="Helvetica,sans-Serif" font-size="10.00">wlp::RedBlackTree&lt;</text>
<text text-anchor="middle" x="227" y="-7" font-family="Helvetica,sans-Serif" font-size="10.00"> Key, Key, Cmp &gt;::~RedBlackTree</text>
</a>
</g>
</g>
<!-- Node1&#45;&gt;Node4 -->
<g id="edge3" class="edge"><title>Node1&#45;&gt;Node4</title>
<path fill="none" stroke="midnightblue" d="M115.735,-46.4126C134.548,-41.053 155.049,-35.2128 173.214,-30.038"/>
<polygon fill="midnightblue" stroke="midnightblue" points="114.731,-43.0594 106.072,-49.1654 116.649,-49.7916 114.731,-43.0594"/>
</g>
</g>
</svg>
