<?xml version="1.0" encoding="UTF-8" standalone="no"?>
<!DOCTYPE svg PUBLIC "-//W3C//DTD SVG 1.1//EN"
 "http://www.w3.org/Graphics/SVG/1.1/DTD/svg11.dtd">
<!-- Generated by graphviz version 2.36.0 (20140111.2315)
 -->
<!-- Title: wlp::RedBlackTree::create_node Pages: 1 -->
<svg width="326pt" height="154pt"
 viewBox="0.00 0.00 326.00 154.00" xmlns="http://www.w3.org/2000/svg" xmlns:xlink="http://www.w3.org/1999/xlink">
<g id="graph0" class="graph" transform="scale(1 1) rotate(0) translate(4 150)">
<title>wlp::RedBlackTree::create_node</title>
<polygon fill="white" stroke="none" points="-4,4 -4,-150 322,-150 322,4 -4,4"/>
<!-- Node1 -->
<g id="node1" class="node"><title>Node1</title>
<polygon fill="#bfbfbf" stroke="black" points="0,-58 0,-88 106,-88 106,-58 0,-58"/>
<text text-anchor="start" x="8" y="-76" font-family="Helvetica,sans-Serif" font-size="10.00">wlp::RedBlackTree::</text>
<text text-anchor="middle" x="53" y="-65" font-family="Helvetica,sans-Serif" font-size="10.00">create_node</text>
</g>
<!-- Node2 -->
<g id="node2" class="node"><title>Node2</title>
<g id="a_node2"><a xlink:href="../../d3/def/classwlp_1_1_red_black_tree.html#a709ac167a040f0b197418b104a8b1a30" target="_top" xlink:title="wlp::RedBlackTree\&lt;\l Tuple\&lt; Key, Val \&gt;,\l Key, Val, MapGetKey\l\&lt; Key, Val \&gt;, MapGetVal\l\&lt; Key, Val \&gt;, Cmp \&gt;::copy_node">
<polygon fill="white" stroke="black" points="149.5,-82.5 149.5,-145.5 310.5,-145.5 310.5,-82.5 149.5,-82.5"/>
<text text-anchor="start" x="157.5" y="-133.5" font-family="Helvetica,sans-Serif" font-size="10.00">wlp::RedBlackTree&lt;</text>
<text text-anchor="start" x="157.5" y="-122.5" font-family="Helvetica,sans-Serif" font-size="10.00"> Tuple&lt; Key, Val &gt;,</text>
<text text-anchor="start" x="157.5" y="-111.5" font-family="Helvetica,sans-Serif" font-size="10.00"> Key, Val, MapGetKey</text>
<text text-anchor="start" x="157.5" y="-100.5" font-family="Helvetica,sans-Serif" font-size="10.00">&lt; Key, Val &gt;, MapGetVal</text>
<text text-anchor="middle" x="230" y="-89.5" font-family="Helvetica,sans-Serif" font-size="10.00">&lt; Key, Val &gt;, Cmp &gt;::copy_node</text>
</a>
</g>
</g>
<!-- Node1&#45;&gt;Node2 -->
<g id="edge1" class="edge"><title>Node1&#45;&gt;Node2</title>
<path fill="none" stroke="midnightblue" d="M115.801,-87.4791C126.638,-90.0181 138.053,-92.6924 149.294,-95.3261"/>
<polygon fill="midnightblue" stroke="midnightblue" points="116.567,-84.0638 106.032,-85.1903 114.97,-90.8792 116.567,-84.0638"/>
</g>
<!-- Node3 -->
<g id="node3" class="node"><title>Node3</title>
<g id="a_node3"><a xlink:href="../../d3/def/classwlp_1_1_red_black_tree.html#a0e4f1653506fd222a3543d15e19d51bd" target="_top" xlink:title="wlp::RedBlackTree\&lt;\l Tuple\&lt; Key, Val \&gt;,\l Key, Val, MapGetKey\l\&lt; Key, Val \&gt;, MapGetVal\l\&lt; Key, Val \&gt;, Cmp \&gt;::RedBlackTree">
<polygon fill="white" stroke="black" points="142,-0.5 142,-63.5 318,-63.5 318,-0.5 142,-0.5"/>
<text text-anchor="start" x="150" y="-51.5" font-family="Helvetica,sans-Serif" font-size="10.00">wlp::RedBlackTree&lt;</text>
<text text-anchor="start" x="150" y="-40.5" font-family="Helvetica,sans-Serif" font-size="10.00"> Tuple&lt; Key, Val &gt;,</text>
<text text-anchor="start" x="150" y="-29.5" font-family="Helvetica,sans-Serif" font-size="10.00"> Key, Val, MapGetKey</text>
<text text-anchor="start" x="150" y="-18.5" font-family="Helvetica,sans-Serif" font-size="10.00">&lt; Key, Val &gt;, MapGetVal</text>
<text text-anchor="middle" x="230" y="-7.5" font-family="Helvetica,sans-Serif" font-size="10.00">&lt; Key, Val &gt;, Cmp &gt;::RedBlackTree</text>
</a>
</g>
</g>
<!-- Node1&#45;&gt;Node3 -->
<g id="edge2" class="edge"><title>Node1&#45;&gt;Node3</title>
<path fill="none" stroke="midnightblue" d="M116.032,-58.4668C124.387,-56.5093 133.081,-54.4723 141.772,-52.4362"/>
<polygon fill="midnightblue" stroke="midnightblue" points="114.97,-55.1208 106.032,-60.8097 116.567,-61.9362 114.97,-55.1208"/>
</g>
</g>
</svg>
