<?xml version="1.0" encoding="UTF-8" standalone="no"?>
<!DOCTYPE svg PUBLIC "-//W3C//DTD SVG 1.1//EN"
 "http://www.w3.org/Graphics/SVG/1.1/DTD/svg11.dtd">
<!-- Generated by graphviz version 2.36.0 (20140111.2315)
 -->
<!-- Title: wlp::LinkedListNode&lt; T &gt; Pages: 1 -->
<svg width="190pt" height="98pt"
 viewBox="0.00 0.00 190.00 98.00" xmlns="http://www.w3.org/2000/svg" xmlns:xlink="http://www.w3.org/1999/xlink">
<g id="graph0" class="graph" transform="scale(1 1) rotate(0) translate(4 94)">
<title>wlp::LinkedListNode&lt; T &gt;</title>
<polygon fill="white" stroke="none" points="-4,4 -4,-94 186,-94 186,4 -4,4"/>
<!-- Node1 -->
<g id="node1" class="node"><title>Node1</title>
<polygon fill="#bfbfbf" stroke="black" points="-0.5,-1.5 -0.5,-20.5 128.5,-20.5 128.5,-1.5 -0.5,-1.5"/>
<text text-anchor="middle" x="64" y="-8.5" font-family="Helvetica,sans-Serif" font-size="10.00">wlp::LinkedListNode&lt; T &gt;</text>
</g>
<!-- Node1&#45;&gt;Node1 -->
<g id="edge1" class="edge"><title>Node1&#45;&gt;Node1</title>
<path fill="none" stroke="#9a32cd" stroke-dasharray="5,2" d="M138.655,-15.4411C143.242,-14.3895 146,-12.9092 146,-11 146,-7.94531 138.94,-5.9884 128.625,-5.12927"/>
<polygon fill="#9a32cd" stroke="#9a32cd" points="138.031,-11.9946 128.625,-16.8707 139.019,-18.9245 138.031,-11.9946"/>
<text text-anchor="middle" x="164" y="-14" font-family="Helvetica,sans-Serif" font-size="10.00"> m_prev</text>
<text text-anchor="middle" x="164" y="-3" font-family="Helvetica,sans-Serif" font-size="10.00">m_next</text>
</g>
<!-- Node2 -->
<g id="node2" class="node"><title>Node2</title>
<polygon fill="white" stroke="#bfbfbf" points="49.5,-70.5 49.5,-89.5 78.5,-89.5 78.5,-70.5 49.5,-70.5"/>
<text text-anchor="middle" x="64" y="-77.5" font-family="Helvetica,sans-Serif" font-size="10.00">T</text>
</g>
<!-- Node2&#45;&gt;Node1 -->
<g id="edge2" class="edge"><title>Node2&#45;&gt;Node1</title>
<path fill="none" stroke="#9a32cd" stroke-dasharray="5,2" d="M64,-60.0183C64,-47.034 64,-30.4419 64,-20.5494"/>
<polygon fill="#9a32cd" stroke="#9a32cd" points="60.5001,-60.2409 64,-70.2409 67.5001,-60.241 60.5001,-60.2409"/>
<text text-anchor="middle" x="79" y="-43.5" font-family="Helvetica,sans-Serif" font-size="10.00"> m_val</text>
</g>
</g>
</svg>
