<?xml version="1.0" encoding="UTF-8" standalone="no"?>
<!DOCTYPE svg PUBLIC "-//W3C//DTD SVG 1.1//EN"
 "http://www.w3.org/Graphics/SVG/1.1/DTD/svg11.dtd">
<!-- Generated by graphviz version 2.38.0 (20140413.2041)
 -->
<!-- Title: wlp::LinkedListNode&lt; T &gt; Pages: 1 -->
<svg width="187pt" height="97pt"
 viewBox="0.00 0.00 187.00 97.00" xmlns="http://www.w3.org/2000/svg" xmlns:xlink="http://www.w3.org/1999/xlink">
<g id="graph0" class="graph" transform="scale(1 1) rotate(0) translate(4 93)">
<title>wlp::LinkedListNode&lt; T &gt;</title>
<polygon fill="white" stroke="none" points="-4,4 -4,-93 183,-93 183,4 -4,4"/>
<!-- Node1 -->
<g id="node1" class="node"><title>Node1</title>
<polygon fill="#bfbfbf" stroke="black" points="0,-1.5 0,-20.5 127,-20.5 127,-1.5 0,-1.5"/>
<text text-anchor="middle" x="63.5" y="-8.5" font-family="Helvetica,sans-Serif" font-size="10.00">wlp::LinkedListNode&lt; T &gt;</text>
</g>
<!-- Node1&#45;&gt;Node1 -->
<g id="edge1" class="edge"><title>Node1&#45;&gt;Node1</title>
<path fill="none" stroke="#9a32cd" stroke-dasharray="5,2" d="M137.042,-15.5874C141.994,-14.5286 145,-12.9995 145,-11 145,-7.87891 137.674,-5.90384 127.058,-5.0748"/>
<polygon fill="#9a32cd" stroke="#9a32cd" points="136.505,-12.1279 127.058,-16.9252 137.434,-19.0659 136.505,-12.1279"/>
<text text-anchor="middle" x="162" y="-14" font-family="Helvetica,sans-Serif" font-size="10.00"> m_prev</text>
<text text-anchor="middle" x="162" y="-3" font-family="Helvetica,sans-Serif" font-size="10.00">m_next</text>
</g>
<!-- Node2 -->
<g id="node2" class="node"><title>Node2</title>
<polygon fill="white" stroke="#bfbfbf" points="49,-69.5 49,-88.5 78,-88.5 78,-69.5 49,-69.5"/>
<text text-anchor="middle" x="63.5" y="-76.5" font-family="Helvetica,sans-Serif" font-size="10.00">T</text>
</g>
<!-- Node2&#45;&gt;Node1 -->
<g id="edge2" class="edge"><title>Node2&#45;&gt;Node1</title>
<path fill="none" stroke="#9a32cd" stroke-dasharray="5,2" d="M63.5,-59.0413C63.5,-46.4724 63.5,-30.5631 63.5,-20.8411"/>
<polygon fill="#9a32cd" stroke="#9a32cd" points="60.0001,-59.3716 63.5,-69.3717 67.0001,-59.3717 60.0001,-59.3716"/>
<text text-anchor="middle" x="77.5" y="-43" font-family="Helvetica,sans-Serif" font-size="10.00"> m_val</text>
</g>
</g>
</svg>
