<?xml version="1.0" encoding="UTF-8" standalone="no"?>
<!DOCTYPE svg PUBLIC "-//W3C//DTD SVG 1.1//EN"
 "http://www.w3.org/Graphics/SVG/1.1/DTD/svg11.dtd">
<!-- Generated by graphviz version 2.36.0 (20140111.2315)
 -->
<!-- Title: stl/SharedPtr.h Pages: 1 -->
<svg width="264pt" height="364pt"
 viewBox="0.00 0.00 263.88 364.00" xmlns="http://www.w3.org/2000/svg" xmlns:xlink="http://www.w3.org/1999/xlink">
<g id="graph0" class="graph" transform="scale(1 1) rotate(0) translate(4 360)">
<title>stl/SharedPtr.h</title>
<polygon fill="white" stroke="none" points="-4,4 -4,-360 259.881,-360 259.881,4 -4,4"/>
<!-- Node1 -->
<g id="node1" class="node"><title>Node1</title>
<polygon fill="#bfbfbf" stroke="black" points="49.8809,-336.5 49.8809,-355.5 131.881,-355.5 131.881,-336.5 49.8809,-336.5"/>
<text text-anchor="middle" x="90.8809" y="-343.5" font-family="Helvetica,sans-Serif" font-size="10.00">stl/SharedPtr.h</text>
</g>
<!-- Node2 -->
<g id="node2" class="node"><title>Node2</title>
<g id="a_node2"><a xlink:href="../../d8/df6/_unique_ptr_8h.html" target="_top" xlink:title="Unique pointer implementation. ">
<polygon fill="white" stroke="black" points="92.8809,-280.5 92.8809,-299.5 160.881,-299.5 160.881,-280.5 92.8809,-280.5"/>
<text text-anchor="middle" x="126.881" y="-287.5" font-family="Helvetica,sans-Serif" font-size="10.00">UniquePtr.h</text>
</a>
</g>
</g>
<!-- Node1&#45;&gt;Node2 -->
<g id="edge1" class="edge"><title>Node1&#45;&gt;Node2</title>
<path fill="none" stroke="midnightblue" d="M96.8256,-336.083C101.858,-328.534 109.218,-317.495 115.394,-308.23"/>
<polygon fill="midnightblue" stroke="midnightblue" points="118.412,-310.013 121.047,-299.751 112.588,-306.13 118.412,-310.013"/>
</g>
<!-- Node4 -->
<g id="node4" class="node"><title>Node4</title>
<g id="a_node4"><a xlink:href="../../db/d2a/_utility_8h.html" target="_top" xlink:title="Various helper functions. ">
<polygon fill="white" stroke="black" points="11.8809,-168.5 11.8809,-187.5 97.8809,-187.5 97.8809,-168.5 11.8809,-168.5"/>
<text text-anchor="middle" x="54.8809" y="-175.5" font-family="Helvetica,sans-Serif" font-size="10.00">../utility/Utility.h</text>
</a>
</g>
</g>
<!-- Node1&#45;&gt;Node4 -->
<g id="edge12" class="edge"><title>Node1&#45;&gt;Node4</title>
<path fill="none" stroke="midnightblue" d="M88.9454,-336.075C83.2787,-309.945 66.6375,-233.211 58.9097,-197.577"/>
<polygon fill="midnightblue" stroke="midnightblue" points="62.2791,-196.599 56.7391,-187.568 55.4381,-198.083 62.2791,-196.599"/>
</g>
<!-- Node5 -->
<g id="node5" class="node"><title>Node5</title>
<g id="a_node5"><a xlink:href="../../d2/d37/_tmp_8h.html" target="_top" xlink:title="Template helper types, structs, and metafunctions. ">
<polygon fill="white" stroke="black" points="68.8809,-112.5 68.8809,-131.5 112.881,-131.5 112.881,-112.5 68.8809,-112.5"/>
<text text-anchor="middle" x="90.8809" y="-119.5" font-family="Helvetica,sans-Serif" font-size="10.00">Tmp.h</text>
</a>
</g>
</g>
<!-- Node1&#45;&gt;Node5 -->
<g id="edge11" class="edge"><title>Node1&#45;&gt;Node5</title>
<path fill="none" stroke="midnightblue" d="M83.9827,-336.5C66.2159,-313.989 19.1448,-250.279 2.88094,-188 0.63499,-179.4 -1.75796,-175.582 2.88094,-168 15.0616,-148.09 39.1415,-136.634 59.0372,-130.268"/>
<polygon fill="midnightblue" stroke="midnightblue" points="60.0611,-133.616 68.6855,-127.462 58.1059,-126.894 60.0611,-133.616"/>
</g>
<!-- Node6 -->
<g id="node6" class="node"><title>Node6</title>
<g id="a_node6"><a xlink:href="../../d0/db6/_types_8h.html" target="_top" xlink:title="type definition of all the string types we will be using ">
<polygon fill="white" stroke="black" points="187.381,-56.5 187.381,-75.5 248.381,-75.5 248.381,-56.5 187.381,-56.5"/>
<text text-anchor="middle" x="217.881" y="-63.5" font-family="Helvetica,sans-Serif" font-size="10.00">../Types.h</text>
</a>
</g>
</g>
<!-- Node1&#45;&gt;Node6 -->
<g id="edge10" class="edge"><title>Node1&#45;&gt;Node6</title>
<path fill="none" stroke="midnightblue" d="M132.092,-336.481C180.964,-323.686 255.881,-294.388 255.881,-235 255.881,-235 255.881,-235 255.881,-177 255.881,-142.813 239.28,-105.764 228.024,-84.5707"/>
<polygon fill="midnightblue" stroke="midnightblue" points="231.062,-82.832 223.165,-75.769 224.934,-86.2151 231.062,-82.832"/>
</g>
<!-- Node3 -->
<g id="node3" class="node"><title>Node3</title>
<g id="a_node3"><a xlink:href="../../d3/de6/_memory_8h.html" target="_top" xlink:title="Memory is a class that provides dynamic fixed size memory. ">
<polygon fill="white" stroke="black" points="83.3809,-224.5 83.3809,-243.5 190.381,-243.5 190.381,-224.5 83.3809,-224.5"/>
<text text-anchor="middle" x="136.881" y="-231.5" font-family="Helvetica,sans-Serif" font-size="10.00">../memory/Memory.h</text>
</a>
</g>
</g>
<!-- Node2&#45;&gt;Node3 -->
<g id="edge2" class="edge"><title>Node2&#45;&gt;Node3</title>
<path fill="none" stroke="midnightblue" d="M128.532,-280.083C129.857,-272.927 131.763,-262.635 133.42,-253.691"/>
<polygon fill="midnightblue" stroke="midnightblue" points="136.881,-254.221 135.26,-243.751 129.998,-252.947 136.881,-254.221"/>
</g>
<!-- Node3&#45;&gt;Node4 -->
<g id="edge3" class="edge"><title>Node3&#45;&gt;Node4</title>
<path fill="none" stroke="midnightblue" d="M123.706,-224.324C111.034,-215.979 91.6476,-203.212 76.6754,-193.352"/>
<polygon fill="midnightblue" stroke="midnightblue" points="78.2997,-190.231 68.023,-187.655 74.4497,-196.078 78.2997,-190.231"/>
</g>
<!-- Node3&#45;&gt;Node5 -->
<g id="edge8" class="edge"><title>Node3&#45;&gt;Node5</title>
<path fill="none" stroke="midnightblue" d="M133.271,-224.368C125.781,-206.456 108.412,-164.923 98.3865,-140.948"/>
<polygon fill="midnightblue" stroke="midnightblue" points="101.561,-139.467 94.4737,-131.591 95.1028,-142.168 101.561,-139.467"/>
</g>
<!-- Node3&#45;&gt;Node6 -->
<g id="edge7" class="edge"><title>Node3&#45;&gt;Node6</title>
<path fill="none" stroke="midnightblue" d="M155.145,-224.445C169.164,-216.886 187.777,-204.497 197.881,-188 217.457,-156.036 219.567,-110.815 218.976,-85.6848"/>
<polygon fill="midnightblue" stroke="midnightblue" points="222.472,-85.5207 218.567,-75.6718 215.478,-85.8063 222.472,-85.5207"/>
</g>
<!-- Node8 -->
<g id="node8" class="node"><title>Node8</title>
<polygon fill="white" stroke="#bfbfbf" points="154.381,-168.5 154.381,-187.5 189.381,-187.5 189.381,-168.5 154.381,-168.5"/>
<text text-anchor="middle" x="171.881" y="-175.5" font-family="Helvetica,sans-Serif" font-size="10.00">new</text>
</g>
<!-- Node3&#45;&gt;Node8 -->
<g id="edge9" class="edge"><title>Node3&#45;&gt;Node8</title>
<path fill="none" stroke="midnightblue" d="M142.66,-224.083C147.553,-216.534 154.708,-205.495 160.714,-196.23"/>
<polygon fill="midnightblue" stroke="midnightblue" points="163.707,-198.046 166.209,-187.751 157.833,-194.239 163.707,-198.046"/>
</g>
<!-- Node4&#45;&gt;Node5 -->
<g id="edge4" class="edge"><title>Node4&#45;&gt;Node5</title>
<path fill="none" stroke="midnightblue" d="M60.8256,-168.083C65.8582,-160.534 73.2177,-149.495 79.3944,-140.23"/>
<polygon fill="midnightblue" stroke="midnightblue" points="82.412,-142.013 85.0469,-131.751 76.5877,-138.13 82.412,-142.013"/>
</g>
<!-- Node5&#45;&gt;Node6 -->
<g id="edge5" class="edge"><title>Node5&#45;&gt;Node6</title>
<path fill="none" stroke="midnightblue" d="M111.004,-112.444C131.905,-103.557 164.816,-89.5632 188.597,-79.4514"/>
<polygon fill="midnightblue" stroke="midnightblue" points="190.018,-82.6504 197.852,-75.5164 187.279,-76.2085 190.018,-82.6504"/>
</g>
<!-- Node7 -->
<g id="node7" class="node"><title>Node7</title>
<polygon fill="white" stroke="#bfbfbf" points="193.381,-0.5 193.381,-19.5 242.381,-19.5 242.381,-0.5 193.381,-0.5"/>
<text text-anchor="middle" x="217.881" y="-7.5" font-family="Helvetica,sans-Serif" font-size="10.00">stdint.h</text>
</g>
<!-- Node6&#45;&gt;Node7 -->
<g id="edge6" class="edge"><title>Node6&#45;&gt;Node7</title>
<path fill="none" stroke="midnightblue" d="M217.881,-56.083C217.881,-49.0059 217.881,-38.8611 217.881,-29.9865"/>
<polygon fill="midnightblue" stroke="midnightblue" points="221.381,-29.751 217.881,-19.7511 214.381,-29.7511 221.381,-29.751"/>
</g>
</g>
</svg>
