<?xml version="1.0" encoding="UTF-8" standalone="no"?>
<!DOCTYPE svg PUBLIC "-//W3C//DTD SVG 1.1//EN"
 "http://www.w3.org/Graphics/SVG/1.1/DTD/svg11.dtd">
<!-- Generated by graphviz version 2.36.0 (20140111.2315)
 -->
<!-- Title: wlib/stl/SharedPtr.h Pages: 1 -->
<svg width="523pt" height="364pt"
 viewBox="0.00 0.00 522.82 364.00" xmlns="http://www.w3.org/2000/svg" xmlns:xlink="http://www.w3.org/1999/xlink">
<g id="graph0" class="graph" transform="scale(1 1) rotate(0) translate(4 360)">
<title>wlib/stl/SharedPtr.h</title>
<polygon fill="white" stroke="none" points="-4,4 -4,-360 518.824,-360 518.824,4 -4,4"/>
<!-- Node1 -->
<g id="node1" class="node"><title>Node1</title>
<polygon fill="#bfbfbf" stroke="black" points="348.824,-336.5 348.824,-355.5 450.824,-355.5 450.824,-336.5 348.824,-336.5"/>
<text text-anchor="middle" x="399.824" y="-343.5" font-family="Helvetica,sans-Serif" font-size="10.00">wlib/stl/SharedPtr.h</text>
</g>
<!-- Node2 -->
<g id="node2" class="node"><title>Node2</title>
<g id="a_node2"><a xlink:href="../../d8/df6/_unique_ptr_8h.html" target="_top" xlink:title="Unique pointer implementation. ">
<polygon fill="white" stroke="black" points="218.824,-280.5 218.824,-299.5 320.824,-299.5 320.824,-280.5 218.824,-280.5"/>
<text text-anchor="middle" x="269.824" y="-287.5" font-family="Helvetica,sans-Serif" font-size="10.00">wlib/stl/UniquePtr.h</text>
</a>
</g>
</g>
<!-- Node1&#45;&gt;Node2 -->
<g id="edge1" class="edge"><title>Node1&#45;&gt;Node2</title>
<path fill="none" stroke="midnightblue" d="M379.225,-336.444C357.831,-327.557 324.143,-313.563 299.8,-303.451"/>
<polygon fill="midnightblue" stroke="midnightblue" points="300.904,-300.12 290.327,-299.516 298.219,-306.585 300.904,-300.12"/>
</g>
<!-- Node5 -->
<g id="node5" class="node"><title>Node5</title>
<g id="a_node5"><a xlink:href="../../d0/db6/_types_8h.html" target="_top" xlink:title="type definition of all the string types we will be using ">
<polygon fill="white" stroke="black" points="191.824,-56.5 191.824,-75.5 263.824,-75.5 263.824,-56.5 191.824,-56.5"/>
<text text-anchor="middle" x="227.824" y="-63.5" font-family="Helvetica,sans-Serif" font-size="10.00">wlib/Types.h</text>
</a>
</g>
</g>
<!-- Node1&#45;&gt;Node5 -->
<g id="edge14" class="edge"><title>Node1&#45;&gt;Node5</title>
<path fill="none" stroke="midnightblue" d="M420.65,-336.473C453.79,-321.358 514.824,-286.527 514.824,-235 514.824,-235 514.824,-235 514.824,-177 514.824,-126.02 354.934,-89.8606 273.837,-74.7992"/>
<polygon fill="midnightblue" stroke="midnightblue" points="274.348,-71.3348 263.882,-72.9829 273.092,-78.2211 274.348,-71.3348"/>
</g>
<!-- Node7 -->
<g id="node7" class="node"><title>Node7</title>
<g id="a_node7"><a xlink:href="../../db/d2a/_utility_8h.html" target="_top" xlink:title="Various helper functions. ">
<polygon fill="white" stroke="black" points="351.324,-168.5 351.324,-187.5 448.324,-187.5 448.324,-168.5 351.324,-168.5"/>
<text text-anchor="middle" x="399.824" y="-175.5" font-family="Helvetica,sans-Serif" font-size="10.00">wlib/utility/Utility.h</text>
</a>
</g>
</g>
<!-- Node1&#45;&gt;Node7 -->
<g id="edge16" class="edge"><title>Node1&#45;&gt;Node7</title>
<path fill="none" stroke="midnightblue" d="M399.824,-336.075C399.824,-309.945 399.824,-233.211 399.824,-197.577"/>
<polygon fill="midnightblue" stroke="midnightblue" points="403.324,-197.568 399.824,-187.568 396.324,-197.568 403.324,-197.568"/>
</g>
<!-- Node8 -->
<g id="node8" class="node"><title>Node8</title>
<g id="a_node8"><a xlink:href="../../d2/d37/_tmp_8h.html" target="_top" xlink:title="Template helper types, structs, and metafunctions. ">
<polygon fill="white" stroke="black" points="315.324,-112.5 315.324,-131.5 406.324,-131.5 406.324,-112.5 315.324,-112.5"/>
<text text-anchor="middle" x="360.824" y="-119.5" font-family="Helvetica,sans-Serif" font-size="10.00">wlib/utility/Tmp.h</text>
</a>
</g>
</g>
<!-- Node1&#45;&gt;Node8 -->
<g id="edge15" class="edge"><title>Node1&#45;&gt;Node8</title>
<path fill="none" stroke="midnightblue" d="M407.551,-336.23C430.355,-309.24 493.539,-225.759 456.824,-168 446.66,-152.01 429.148,-141.603 411.841,-134.875"/>
<polygon fill="midnightblue" stroke="midnightblue" points="412.889,-131.533 402.295,-131.503 410.558,-138.134 412.889,-131.533"/>
</g>
<!-- Node10 -->
<g id="node10" class="node"><title>Node10</title>
<g id="a_node10"><a xlink:href="../../d7/d2f/_exceptions_8h.html" target="_top" xlink:title="Implementation of Exceptions using C style. ">
<polygon fill="white" stroke="black" points="5.82411,-224.5 5.82411,-243.5 149.824,-243.5 149.824,-224.5 5.82411,-224.5"/>
<text text-anchor="middle" x="77.8241" y="-231.5" font-family="Helvetica,sans-Serif" font-size="10.00">wlib/exceptions/Exceptions.h</text>
</a>
</g>
</g>
<!-- Node1&#45;&gt;Node10 -->
<g id="edge17" class="edge"><title>Node1&#45;&gt;Node10</title>
<path fill="none" stroke="midnightblue" d="M350.529,-336.488C311.648,-329.023 256.399,-316.741 209.824,-300 170.39,-285.826 127.293,-263.127 101.42,-248.649"/>
<polygon fill="midnightblue" stroke="midnightblue" points="102.817,-245.418 92.3901,-243.537 99.3682,-251.51 102.817,-245.418"/>
</g>
<!-- Node3 -->
<g id="node3" class="node"><title>Node3</title>
<g id="a_node3"><a xlink:href="../../d3/de6/_memory_8h.html" target="_top" xlink:title="Memory is a class that provides dynamic fixed size memory. ">
<polygon fill="white" stroke="black" points="210.324,-224.5 210.324,-243.5 329.324,-243.5 329.324,-224.5 210.324,-224.5"/>
<text text-anchor="middle" x="269.824" y="-231.5" font-family="Helvetica,sans-Serif" font-size="10.00">wlib/memory/Memory.h</text>
</a>
</g>
</g>
<!-- Node2&#45;&gt;Node3 -->
<g id="edge2" class="edge"><title>Node2&#45;&gt;Node3</title>
<path fill="none" stroke="midnightblue" d="M269.824,-280.083C269.824,-273.006 269.824,-262.861 269.824,-253.986"/>
<polygon fill="midnightblue" stroke="midnightblue" points="273.324,-253.751 269.824,-243.751 266.324,-253.751 273.324,-253.751"/>
</g>
<!-- Node2&#45;&gt;Node10 -->
<g id="edge11" class="edge"><title>Node2&#45;&gt;Node10</title>
<path fill="none" stroke="midnightblue" d="M239.401,-280.444C206.539,-271.201 154.039,-256.436 117.85,-246.257"/>
<polygon fill="midnightblue" stroke="midnightblue" points="118.679,-242.855 108.105,-243.516 116.784,-249.593 118.679,-242.855"/>
</g>
<!-- Node4 -->
<g id="node4" class="node"><title>Node4</title>
<polygon fill="white" stroke="#bfbfbf" points="245.324,-168.5 245.324,-187.5 294.324,-187.5 294.324,-168.5 245.324,-168.5"/>
<text text-anchor="middle" x="269.824" y="-175.5" font-family="Helvetica,sans-Serif" font-size="10.00">string.h</text>
</g>
<!-- Node3&#45;&gt;Node4 -->
<g id="edge3" class="edge"><title>Node3&#45;&gt;Node4</title>
<path fill="none" stroke="midnightblue" d="M269.824,-224.083C269.824,-217.006 269.824,-206.861 269.824,-197.986"/>
<polygon fill="midnightblue" stroke="midnightblue" points="273.324,-197.751 269.824,-187.751 266.324,-197.751 273.324,-197.751"/>
</g>
<!-- Node3&#45;&gt;Node5 -->
<g id="edge4" class="edge"><title>Node3&#45;&gt;Node5</title>
<path fill="none" stroke="midnightblue" d="M215.838,-224.477C175.868,-216.936 126.279,-204.556 113.824,-188 81.8037,-145.437 155.189,-101.361 198.652,-80.0709"/>
<polygon fill="midnightblue" stroke="midnightblue" points="200.421,-83.105 207.941,-75.642 197.408,-76.7864 200.421,-83.105"/>
</g>
<!-- Node3&#45;&gt;Node7 -->
<g id="edge6" class="edge"><title>Node3&#45;&gt;Node7</title>
<path fill="none" stroke="midnightblue" d="M290.423,-224.444C311.818,-215.557 345.505,-201.563 369.848,-191.451"/>
<polygon fill="midnightblue" stroke="midnightblue" points="371.429,-194.585 379.322,-187.516 368.744,-188.12 371.429,-194.585"/>
</g>
<!-- Node3&#45;&gt;Node8 -->
<g id="edge9" class="edge"><title>Node3&#45;&gt;Node8</title>
<path fill="none" stroke="midnightblue" d="M276.965,-224.368C292.115,-206.055 327.693,-163.049 347.288,-139.362"/>
<polygon fill="midnightblue" stroke="midnightblue" points="350.039,-141.528 353.717,-131.591 344.646,-137.066 350.039,-141.528"/>
</g>
<!-- Node9 -->
<g id="node9" class="node"><title>Node9</title>
<g id="a_node9"><a xlink:href="../../d9/d8a/_new_8h.html" target="_top" xlink:title="New operators defined for Arduino boards and for other boards use the normal new. ...">
<polygon fill="white" stroke="black" points="122.824,-168.5 122.824,-187.5 226.824,-187.5 226.824,-168.5 122.824,-168.5"/>
<text text-anchor="middle" x="174.824" y="-175.5" font-family="Helvetica,sans-Serif" font-size="10.00">wlib/memory/New.h</text>
</a>
</g>
</g>
<!-- Node3&#45;&gt;Node9 -->
<g id="edge10" class="edge"><title>Node3&#45;&gt;Node9</title>
<path fill="none" stroke="midnightblue" d="M254.561,-224.324C239.603,-215.822 216.569,-202.729 199.097,-192.797"/>
<polygon fill="midnightblue" stroke="midnightblue" points="200.473,-189.553 190.05,-187.655 197.014,-195.639 200.473,-189.553"/>
</g>
<!-- Node6 -->
<g id="node6" class="node"><title>Node6</title>
<polygon fill="white" stroke="#bfbfbf" points="203.324,-0.5 203.324,-19.5 252.324,-19.5 252.324,-0.5 203.324,-0.5"/>
<text text-anchor="middle" x="227.824" y="-7.5" font-family="Helvetica,sans-Serif" font-size="10.00">stdint.h</text>
</g>
<!-- Node5&#45;&gt;Node6 -->
<g id="edge5" class="edge"><title>Node5&#45;&gt;Node6</title>
<path fill="none" stroke="midnightblue" d="M227.824,-56.083C227.824,-49.0059 227.824,-38.8611 227.824,-29.9865"/>
<polygon fill="midnightblue" stroke="midnightblue" points="231.324,-29.751 227.824,-19.7511 224.324,-29.7511 231.324,-29.751"/>
</g>
<!-- Node7&#45;&gt;Node8 -->
<g id="edge7" class="edge"><title>Node7&#45;&gt;Node8</title>
<path fill="none" stroke="midnightblue" d="M393.384,-168.083C387.875,-160.455 379.793,-149.264 373.059,-139.941"/>
<polygon fill="midnightblue" stroke="midnightblue" points="375.837,-137.809 367.144,-131.751 370.162,-141.907 375.837,-137.809"/>
</g>
<!-- Node8&#45;&gt;Node5 -->
<g id="edge8" class="edge"><title>Node8&#45;&gt;Node5</title>
<path fill="none" stroke="midnightblue" d="M339.75,-112.444C317.764,-103.517 283.09,-89.4387 258.16,-79.3168"/>
<polygon fill="midnightblue" stroke="midnightblue" points="259.382,-76.0355 248.8,-75.5164 256.749,-82.5213 259.382,-76.0355"/>
</g>
<!-- Node10&#45;&gt;Node5 -->
<g id="edge13" class="edge"><title>Node10&#45;&gt;Node5</title>
<path fill="none" stroke="midnightblue" d="M53.626,-224.452C26.5188,-213.448 -11.7208,-192.766 3.82411,-168 42.2807,-106.731 128.073,-82.3154 181.618,-72.8127"/>
<polygon fill="midnightblue" stroke="midnightblue" points="182.261,-76.2539 191.548,-71.1553 181.108,-69.3494 182.261,-76.2539"/>
</g>
<!-- Node11 -->
<g id="node11" class="node"><title>Node11</title>
<polygon fill="white" stroke="#bfbfbf" points="12.8241,-168.5 12.8241,-187.5 66.8241,-187.5 66.8241,-168.5 12.8241,-168.5"/>
<text text-anchor="middle" x="39.8241" y="-175.5" font-family="Helvetica,sans-Serif" font-size="10.00">setjmp.h</text>
</g>
<!-- Node10&#45;&gt;Node11 -->
<g id="edge12" class="edge"><title>Node10&#45;&gt;Node11</title>
<path fill="none" stroke="midnightblue" d="M71.5492,-224.083C66.1816,-216.455 58.3065,-205.264 51.7454,-195.941"/>
<polygon fill="midnightblue" stroke="midnightblue" points="54.5996,-193.915 45.9823,-187.751 48.8749,-197.943 54.5996,-193.915"/>
</g>
</g>
</svg>
