<?xml version="1.0" encoding="UTF-8" standalone="no"?>
<!DOCTYPE svg PUBLIC "-//W3C//DTD SVG 1.1//EN"
 "http://www.w3.org/Graphics/SVG/1.1/DTD/svg11.dtd">
<!-- Generated by graphviz version 2.36.0 (20140111.2315)
 -->
<!-- Title: wlib/stl/Bitset.h Pages: 1 -->
<svg width="174pt" height="140pt"
 viewBox="0.00 0.00 174.00 140.00" xmlns="http://www.w3.org/2000/svg" xmlns:xlink="http://www.w3.org/1999/xlink">
<g id="graph0" class="graph" transform="scale(1 1) rotate(0) translate(4 136)">
<title>wlib/stl/Bitset.h</title>
<polygon fill="white" stroke="none" points="-4,4 -4,-136 170,-136 170,4 -4,4"/>
<!-- Node1 -->
<g id="node1" class="node"><title>Node1</title>
<polygon fill="#bfbfbf" stroke="black" points="41,-112.5 41,-131.5 125,-131.5 125,-112.5 41,-112.5"/>
<text text-anchor="middle" x="83" y="-119.5" font-family="Helvetica,sans-Serif" font-size="10.00">wlib/stl/Bitset.h</text>
</g>
<!-- Node2 -->
<g id="node2" class="node"><title>Node2</title>
<g id="a_node2"><a xlink:href="../../de/d66/_packet_constructor_8h.html" target="_top" xlink:title="wlib/comm/PacketConstructor.h">
<polygon fill="white" stroke="black" points="4.5,-56.5 4.5,-75.5 161.5,-75.5 161.5,-56.5 4.5,-56.5"/>
<text text-anchor="middle" x="83" y="-63.5" font-family="Helvetica,sans-Serif" font-size="10.00">wlib/comm/PacketConstructor.h</text>
</a>
</g>
</g>
<!-- Node1&#45;&gt;Node2 -->
<g id="edge1" class="edge"><title>Node1&#45;&gt;Node2</title>
<path fill="none" stroke="midnightblue" d="M83,-101.805C83,-92.9102 83,-82.7798 83,-75.7511"/>
<polygon fill="midnightblue" stroke="midnightblue" points="79.5001,-102.083 83,-112.083 86.5001,-102.083 79.5001,-102.083"/>
</g>
<!-- Node3 -->
<g id="node3" class="node"><title>Node3</title>
<g id="a_node3"><a xlink:href="../../d9/dde/_packet_constructor_8cpp.html" target="_top" xlink:title="Creates a packet for sending data from the slave systems to the main computer. ">
<polygon fill="white" stroke="black" points="-0.5,-0.5 -0.5,-19.5 166.5,-19.5 166.5,-0.5 -0.5,-0.5"/>
<text text-anchor="middle" x="83" y="-7.5" font-family="Helvetica,sans-Serif" font-size="10.00">wlib/comm/PacketConstructor.cpp</text>
</a>
</g>
</g>
<!-- Node2&#45;&gt;Node3 -->
<g id="edge2" class="edge"><title>Node2&#45;&gt;Node3</title>
<path fill="none" stroke="midnightblue" d="M83,-45.8045C83,-36.9102 83,-26.7798 83,-19.7511"/>
<polygon fill="midnightblue" stroke="midnightblue" points="79.5001,-46.083 83,-56.083 86.5001,-46.083 79.5001,-46.083"/>
</g>
</g>
</svg>
