<?xml version="1.0" encoding="UTF-8" standalone="no"?>
<!DOCTYPE svg PUBLIC "-//W3C//DTD SVG 1.1//EN"
 "http://www.w3.org/Graphics/SVG/1.1/DTD/svg11.dtd">
<!-- Generated by graphviz version 2.36.0 (20140111.2315)
 -->
<!-- Title: wlp::linked_list&lt; T &gt; Pages: 1 -->
<svg width="251pt" height="176pt"
 viewBox="0.00 0.00 251.00 176.00" xmlns="http://www.w3.org/2000/svg" xmlns:xlink="http://www.w3.org/1999/xlink">
<g id="graph0" class="graph" transform="scale(1 1) rotate(0) translate(4 172)">
<title>wlp::linked_list&lt; T &gt;</title>
<polygon fill="white" stroke="none" points="-4,4 -4,-172 247,-172 247,4 -4,4"/>
<!-- Node1 -->
<g id="node1" class="node"><title>Node1</title>
<polygon fill="#bfbfbf" stroke="black" points="8.5,-0.5 8.5,-19.5 113.5,-19.5 113.5,-0.5 8.5,-0.5"/>
<text text-anchor="middle" x="61" y="-7.5" font-family="Helvetica,sans-Serif" font-size="10.00">wlp::linked_list&lt; T &gt;</text>
</g>
<!-- Node2 -->
<g id="node2" class="node"><title>Node2</title>
<polygon fill="white" stroke="#bfbfbf" points="-0.5,-79.5 -0.5,-98.5 42.5,-98.5 42.5,-79.5 -0.5,-79.5"/>
<text text-anchor="middle" x="21" y="-86.5" font-family="Helvetica,sans-Serif" font-size="10.00">size_t</text>
</g>
<!-- Node2&#45;&gt;Node1 -->
<g id="edge1" class="edge"><title>Node2&#45;&gt;Node1</title>
<path fill="none" stroke="#9a32cd" stroke-dasharray="5,2" d="M29.1381,-70.0796C33.6195,-60.4662 39.3962,-48.4747 45,-38 48.2899,-31.8503 52.2899,-25.1003 55.4675,-19.8878"/>
<polygon fill="#9a32cd" stroke="#9a32cd" points="25.853,-68.846 24.8531,-79.3936 32.2123,-71.7717 25.853,-68.846"/>
<text text-anchor="middle" x="62.5" y="-46.5" font-family="Helvetica,sans-Serif" font-size="10.00"> m_size</text>
</g>
<!-- Node3 -->
<g id="node3" class="node"><title>Node3</title>
<g id="a_node3"><a xlink:href="../../d7/d74/structwlp_1_1_linked_list_node.html" target="_top" xlink:title="wlp::LinkedListNode\&lt; T \&gt;">
<polygon fill="white" stroke="black" points="60.5,-79.5 60.5,-98.5 189.5,-98.5 189.5,-79.5 60.5,-79.5"/>
<text text-anchor="middle" x="125" y="-86.5" font-family="Helvetica,sans-Serif" font-size="10.00">wlp::LinkedListNode&lt; T &gt;</text>
</a>
</g>
</g>
<!-- Node3&#45;&gt;Node1 -->
<g id="edge2" class="edge"><title>Node3&#45;&gt;Node1</title>
<path fill="none" stroke="#9a32cd" stroke-dasharray="5,2" d="M111.335,-71.5596C98.1779,-55.7297 78.779,-32.3904 68.3221,-19.8094"/>
<polygon fill="#9a32cd" stroke="#9a32cd" points="108.823,-74.0123 117.906,-79.4655 114.206,-69.5378 108.823,-74.0123"/>
<text text-anchor="middle" x="119" y="-52" font-family="Helvetica,sans-Serif" font-size="10.00"> m_head</text>
<text text-anchor="middle" x="119" y="-41" font-family="Helvetica,sans-Serif" font-size="10.00">m_tail</text>
</g>
<!-- Node3&#45;&gt;Node3 -->
<g id="edge3" class="edge"><title>Node3&#45;&gt;Node3</title>
<path fill="none" stroke="#9a32cd" stroke-dasharray="5,2" d="M199.655,-93.4411C204.242,-92.3895 207,-90.9092 207,-89 207,-85.9453 199.94,-83.9884 189.625,-83.1293"/>
<polygon fill="#9a32cd" stroke="#9a32cd" points="199.031,-89.9946 189.625,-94.8707 200.019,-96.9245 199.031,-89.9946"/>
<text text-anchor="middle" x="225" y="-92" font-family="Helvetica,sans-Serif" font-size="10.00"> m_prev</text>
<text text-anchor="middle" x="225" y="-81" font-family="Helvetica,sans-Serif" font-size="10.00">m_next</text>
</g>
<!-- Node4 -->
<g id="node4" class="node"><title>Node4</title>
<polygon fill="white" stroke="#bfbfbf" points="110.5,-148.5 110.5,-167.5 139.5,-167.5 139.5,-148.5 110.5,-148.5"/>
<text text-anchor="middle" x="125" y="-155.5" font-family="Helvetica,sans-Serif" font-size="10.00">T</text>
</g>
<!-- Node4&#45;&gt;Node3 -->
<g id="edge4" class="edge"><title>Node4&#45;&gt;Node3</title>
<path fill="none" stroke="#9a32cd" stroke-dasharray="5,2" d="M125,-138.018C125,-125.034 125,-108.442 125,-98.5494"/>
<polygon fill="#9a32cd" stroke="#9a32cd" points="121.5,-138.241 125,-148.241 128.5,-138.241 121.5,-138.241"/>
<text text-anchor="middle" x="140" y="-121.5" font-family="Helvetica,sans-Serif" font-size="10.00"> m_val</text>
</g>
</g>
</svg>
