<?xml version="1.0" encoding="UTF-8" standalone="no"?>
<!DOCTYPE svg PUBLIC "-//W3C//DTD SVG 1.1//EN"
 "http://www.w3.org/Graphics/SVG/1.1/DTD/svg11.dtd">
<!-- Generated by graphviz version 2.36.0 (20140111.2315)
 -->
<!-- Title: stl/Bitset.h Pages: 1 -->
<!--zoomable 476 -->
<svg id="main" version="1.1" xmlns="http://www.w3.org/2000/svg" xmlns:xlink="http://www.w3.org/1999/xlink" xml:space="preserve" onload="init(evt)">
<style type="text/css"><![CDATA[
.edge:hover path { stroke: red; }
.edge:hover polygon { stroke: red; fill: red; }
]]></style>
<script type="text/javascript"><![CDATA[
var edges = document.getElementsByTagName('g');
if (edges && edges.length) {
  for (var i=0;i<edges.length;i++) {
    if (edges[i].id.substr(0,4)=='edge') {
      edges[i].setAttribute('class','edge');
    }
  }
}
]]></script>
        <defs>
                <circle id="rim" cx="0" cy="0" r="7"/>
                <circle id="rim2" cx="0" cy="0" r="3.5"/>
                <g id="zoomPlus">
                        <use xlink:href="#rim" fill="#404040">
                                <set attributeName="fill" to="#808080" begin="zoomplus.mouseover" end="zoomplus.mouseout"/>
                        </use>
                        <path d="M-4,0h8M0,-4v8" fill="none" stroke="white" stroke-width="1.5" pointer-events="none"/>
                </g>
                <g id="zoomMin">
                        <use xlink:href="#rim" fill="#404040">
                                <set attributeName="fill" to="#808080" begin="zoomminus.mouseover" end="zoomminus.mouseout"/>
                        </use>
                        <path d="M-4,0h8" fill="none" stroke="white" stroke-width="1.5" pointer-events="none"/>
                </g>
                <g id="dirArrow">
                        <path fill="none" stroke="white" stroke-width="1.5" d="M0,-3.0v7 M-2.5,-0.5L0,-3.0L2.5,-0.5"/>
                </g>
               <g id="resetDef">
                       <use xlink:href="#rim2" fill="#404040">
                               <set attributeName="fill" to="#808080" begin="reset.mouseover" end="reset.mouseout"/>
                       </use>
               </g>
        </defs>

<script type="text/javascript">
var viewWidth = 613;
var viewHeight = 476;
var sectionId = 'dynsection-0';
</script>
<script xlink:href="../../svgpan.js"/>
<svg id="graph" class="graph">
<g id="viewport">
<title>stl/Bitset.h</title>
<polygon fill="white" stroke="none" points="-4,4 -4,-472 609,-472 609,4 -4,4"/>
<!-- Node1 -->
<g id="node1" class="node"><title>Node1</title>
<polygon fill="#bfbfbf" stroke="black" points="231,-448.5 231,-467.5 295,-467.5 295,-448.5 231,-448.5"/>
<text text-anchor="middle" x="263" y="-455.5" font-family="Helvetica,sans-Serif" font-size="10.00">stl/Bitset.h</text>
</g>
<!-- Node2 -->
<g id="node2" class="node"><title>Node2</title>
<polygon fill="white" stroke="#bfbfbf" points="-0.5,-392.5 -0.5,-411.5 46.5,-411.5 46.5,-392.5 -0.5,-392.5"/>
<text text-anchor="middle" x="23" y="-399.5" font-family="Helvetica,sans-Serif" font-size="10.00">math.h</text>
</g>
<!-- Node1&#45;&gt;Node2 -->
<g id="edge1" class="edge"><title>Node1&#45;&gt;Node2</title>
<path fill="none" stroke="midnightblue" d="M230.784,-449.962C190.892,-441.216 120.878,-425.76 61,-412 59.5546,-411.668 58.0788,-411.327 56.5882,-410.981"/>
<polygon fill="midnightblue" stroke="midnightblue" points="57.24,-407.539 46.7053,-408.666 55.6437,-414.354 57.24,-407.539"/>
</g>
<!-- Node3 -->
<g id="node3" class="node"><title>Node3</title>
<polygon fill="white" stroke="#bfbfbf" points="527.5,-280.5 527.5,-299.5 576.5,-299.5 576.5,-280.5 527.5,-280.5"/>
<text text-anchor="middle" x="552" y="-287.5" font-family="Helvetica,sans-Serif" font-size="10.00">string.h</text>
</g>
<!-- Node1&#45;&gt;Node3 -->
<g id="edge2" class="edge"><title>Node1&#45;&gt;Node3</title>
<path fill="none" stroke="midnightblue" d="M295.171,-452.552C332.601,-446.601 395.691,-434.139 446,-412 487.068,-393.927 502.683,-391.595 530,-356 540.416,-342.427 546.069,-323.628 549.025,-309.736"/>
<polygon fill="midnightblue" stroke="midnightblue" points="552.478,-310.312 550.857,-299.842 545.595,-309.038 552.478,-310.312"/>
</g>
<!-- Node4 -->
<g id="node4" class="node"><title>Node4</title>
<g id="a_node4"><a xlink:href="../../d0/db6/_types_8h.html" target="_top" xlink:title="type definition of all the string types we will be using ">
<polygon fill="white" stroke="black" points="245.5,-56.5 245.5,-75.5 306.5,-75.5 306.5,-56.5 245.5,-56.5"/>
<text text-anchor="middle" x="276" y="-63.5" font-family="Helvetica,sans-Serif" font-size="10.00">../Types.h</text>
</a>
</g>
</g>
<!-- Node1&#45;&gt;Node4 -->
<g id="edge3" class="edge"><title>Node1&#45;&gt;Node4</title>
<path fill="none" stroke="midnightblue" d="M230.682,-452.957C176.93,-444.23 75,-418.282 75,-347 75,-347 75,-347 75,-177 75,-104.574 176.668,-79.528 235.391,-71.1023"/>
<polygon fill="midnightblue" stroke="midnightblue" points="236.023,-74.5491 245.472,-69.7577 235.097,-67.6105 236.023,-74.5491"/>
</g>
<!-- Node6 -->
<g id="node6" class="node"><title>Node6</title>
<g id="a_node6"><a xlink:href="../../d2/db4/_wlib_8h.html" target="_top" xlink:title="../Wlib.h">
<polygon fill="white" stroke="black" points="277.5,-224.5 277.5,-243.5 330.5,-243.5 330.5,-224.5 277.5,-224.5"/>
<text text-anchor="middle" x="304" y="-231.5" font-family="Helvetica,sans-Serif" font-size="10.00">../Wlib.h</text>
</a>
</g>
</g>
<!-- Node1&#45;&gt;Node6 -->
<g id="edge5" class="edge"><title>Node1&#45;&gt;Node6</title>
<path fill="none" stroke="midnightblue" d="M264.165,-448.462C266.907,-428.645 274.133,-378.011 282,-336 287.435,-306.978 294.971,-273.541 299.663,-253.353"/>
<polygon fill="midnightblue" stroke="midnightblue" points="303.071,-254.147 301.945,-243.612 296.256,-252.55 303.071,-254.147"/>
</g>
<!-- Node7 -->
<g id="node7" class="node"><title>Node7</title>
<g id="a_node7"><a xlink:href="../../db/db5/_string_8h.html" target="_top" xlink:title="../strings/String.h">
<polygon fill="white" stroke="black" points="345,-392.5 345,-411.5 437,-411.5 437,-392.5 345,-392.5"/>
<text text-anchor="middle" x="391" y="-399.5" font-family="Helvetica,sans-Serif" font-size="10.00">../strings/String.h</text>
</a>
</g>
</g>
<!-- Node1&#45;&gt;Node7 -->
<g id="edge6" class="edge"><title>Node1&#45;&gt;Node7</title>
<path fill="none" stroke="midnightblue" d="M283.282,-448.444C304.347,-439.557 337.517,-425.563 361.486,-415.451"/>
<polygon fill="midnightblue" stroke="midnightblue" points="362.96,-418.628 370.813,-411.516 360.239,-412.179 362.96,-418.628"/>
</g>
<!-- Node5 -->
<g id="node5" class="node"><title>Node5</title>
<polygon fill="white" stroke="#bfbfbf" points="251.5,-0.5 251.5,-19.5 300.5,-19.5 300.5,-0.5 251.5,-0.5"/>
<text text-anchor="middle" x="276" y="-7.5" font-family="Helvetica,sans-Serif" font-size="10.00">stdint.h</text>
</g>
<!-- Node4&#45;&gt;Node5 -->
<g id="edge4" class="edge"><title>Node4&#45;&gt;Node5</title>
<path fill="none" stroke="midnightblue" d="M276,-56.083C276,-49.0059 276,-38.8611 276,-29.9865"/>
<polygon fill="midnightblue" stroke="midnightblue" points="279.5,-29.751 276,-19.7511 272.5,-29.7511 279.5,-29.751"/>
</g>
<!-- Node7&#45;&gt;Node3 -->
<g id="edge7" class="edge"><title>Node7&#45;&gt;Node3</title>
<path fill="none" stroke="midnightblue" d="M428.899,-392.445C453.094,-385.582 484.1,-374.055 507,-356 523.113,-343.296 535.753,-323.262 543.482,-308.792"/>
<polygon fill="midnightblue" stroke="midnightblue" points="546.629,-310.324 548.03,-299.822 540.386,-307.159 546.629,-310.324"/>
</g>
<!-- Node7&#45;&gt;Node4 -->
<g id="edge19" class="edge"><title>Node7&#45;&gt;Node4</title>
<path fill="none" stroke="midnightblue" d="M437.171,-397.458C500.081,-389.828 605,-365.879 605,-291 605,-291 605,-291 605,-177 605,-116.884 404.927,-83.634 316.824,-71.9066"/>
<polygon fill="midnightblue" stroke="midnightblue" points="317.024,-68.4032 306.656,-70.5827 316.12,-75.3446 317.024,-68.4032"/>
</g>
<!-- Node8 -->
<g id="node8" class="node"><title>Node8</title>
<g id="a_node8"><a xlink:href="../../de/d0b/_string_iterator_8h.html" target="_top" xlink:title="StringIterator.h">
<polygon fill="white" stroke="black" points="149.5,-336.5 149.5,-355.5 230.5,-355.5 230.5,-336.5 149.5,-336.5"/>
<text text-anchor="middle" x="190" y="-343.5" font-family="Helvetica,sans-Serif" font-size="10.00">StringIterator.h</text>
</a>
</g>
</g>
<!-- Node7&#45;&gt;Node8 -->
<g id="edge8" class="edge"><title>Node7&#45;&gt;Node8</title>
<path fill="none" stroke="midnightblue" d="M359.151,-392.444C324.602,-383.162 269.318,-368.309 231.417,-358.127"/>
<polygon fill="midnightblue" stroke="midnightblue" points="232.266,-354.731 221.7,-355.516 230.449,-361.491 232.266,-354.731"/>
</g>
<!-- Node14 -->
<g id="node14" class="node"><title>Node14</title>
<g id="a_node14"><a xlink:href="../../da/db8/_math_8h.html" target="_top" xlink:title="../utility/Math.h">
<polygon fill="white" stroke="black" points="291,-336.5 291,-355.5 373,-355.5 373,-336.5 291,-336.5"/>
<text text-anchor="middle" x="332" y="-343.5" font-family="Helvetica,sans-Serif" font-size="10.00">../utility/Math.h</text>
</a>
</g>
</g>
<!-- Node7&#45;&gt;Node14 -->
<g id="edge20" class="edge"><title>Node7&#45;&gt;Node14</title>
<path fill="none" stroke="midnightblue" d="M381.521,-392.324C372.799,-384.341 359.657,-372.313 349.102,-362.653"/>
<polygon fill="midnightblue" stroke="midnightblue" points="351.392,-360.004 341.652,-355.834 346.666,-365.167 351.392,-360.004"/>
</g>
<!-- Node15 -->
<g id="node15" class="node"><title>Node15</title>
<g id="a_node15"><a xlink:href="../../d3/de6/_memory_8h.html" target="_top" xlink:title="Memory is a class that provides dynamic fixed size memory. ">
<polygon fill="white" stroke="black" points="391.5,-336.5 391.5,-355.5 498.5,-355.5 498.5,-336.5 391.5,-336.5"/>
<text text-anchor="middle" x="445" y="-343.5" font-family="Helvetica,sans-Serif" font-size="10.00">../memory/Memory.h</text>
</a>
</g>
</g>
<!-- Node7&#45;&gt;Node15 -->
<g id="edge21" class="edge"><title>Node7&#45;&gt;Node15</title>
<path fill="none" stroke="midnightblue" d="M399.917,-392.083C407.78,-384.22 419.431,-372.569 428.919,-363.081"/>
<polygon fill="midnightblue" stroke="midnightblue" points="431.653,-365.297 436.249,-355.751 426.703,-360.347 431.653,-365.297"/>
</g>
<!-- Node8&#45;&gt;Node4 -->
<g id="edge9" class="edge"><title>Node8&#45;&gt;Node4</title>
<path fill="none" stroke="midnightblue" d="M177.153,-336.339C165.806,-328.127 149.479,-314.861 139,-300 121.07,-274.572 113,-266.114 113,-235 113,-235 113,-235 113,-177 113,-118.036 187.194,-88.5647 235.469,-75.6297"/>
<polygon fill="midnightblue" stroke="midnightblue" points="236.514,-78.9754 245.341,-73.1158 234.786,-72.1918 236.514,-78.9754"/>
</g>
<!-- Node9 -->
<g id="node9" class="node"><title>Node9</title>
<g id="a_node9"><a xlink:href="../../d8/dd7/_concept_8h.html" target="_top" xlink:title="Concept definitions. ">
<polygon fill="white" stroke="black" points="148,-280.5 148,-299.5 232,-299.5 232,-280.5 148,-280.5"/>
<text text-anchor="middle" x="190" y="-287.5" font-family="Helvetica,sans-Serif" font-size="10.00">../stl/Concept.h</text>
</a>
</g>
</g>
<!-- Node8&#45;&gt;Node9 -->
<g id="edge10" class="edge"><title>Node8&#45;&gt;Node9</title>
<path fill="none" stroke="midnightblue" d="M190,-336.083C190,-329.006 190,-318.861 190,-309.986"/>
<polygon fill="midnightblue" stroke="midnightblue" points="193.5,-309.751 190,-299.751 186.5,-309.751 193.5,-309.751"/>
</g>
<!-- Node9&#45;&gt;Node6 -->
<g id="edge17" class="edge"><title>Node9&#45;&gt;Node6</title>
<path fill="none" stroke="midnightblue" d="M208.064,-280.444C226.575,-271.675 255.581,-257.935 276.855,-247.858"/>
<polygon fill="midnightblue" stroke="midnightblue" points="278.482,-250.96 286.021,-243.516 275.485,-244.634 278.482,-250.96"/>
</g>
<!-- Node10 -->
<g id="node10" class="node"><title>Node10</title>
<g id="a_node10"><a xlink:href="../../d4/dda/_pair_8h.html" target="_top" xlink:title="Implementation of a 2&#45;element tuple. ">
<polygon fill="white" stroke="black" points="217,-224.5 217,-243.5 259,-243.5 259,-224.5 217,-224.5"/>
<text text-anchor="middle" x="238" y="-231.5" font-family="Helvetica,sans-Serif" font-size="10.00">Pair.h</text>
</a>
</g>
</g>
<!-- Node9&#45;&gt;Node10 -->
<g id="edge11" class="edge"><title>Node9&#45;&gt;Node10</title>
<path fill="none" stroke="midnightblue" d="M197.926,-280.083C204.846,-272.298 215.065,-260.801 223.452,-251.367"/>
<polygon fill="midnightblue" stroke="midnightblue" points="226.194,-253.55 230.221,-243.751 220.962,-248.9 226.194,-253.55"/>
</g>
<!-- Node12 -->
<g id="node12" class="node"><title>Node12</title>
<g id="a_node12"><a xlink:href="../../d2/d37/_tmp_8h.html" target="_top" xlink:title="Template helper types, structs, and metafunctions. ">
<polygon fill="white" stroke="black" points="254,-112.5 254,-131.5 298,-131.5 298,-112.5 254,-112.5"/>
<text text-anchor="middle" x="276" y="-119.5" font-family="Helvetica,sans-Serif" font-size="10.00">Tmp.h</text>
</a>
</g>
</g>
<!-- Node9&#45;&gt;Node12 -->
<g id="edge18" class="edge"><title>Node9&#45;&gt;Node12</title>
<path fill="none" stroke="midnightblue" d="M191.487,-280.278C193.869,-267.503 199.188,-243.146 208,-224 222.725,-192.007 247.087,-158.876 262.304,-139.64"/>
<polygon fill="midnightblue" stroke="midnightblue" points="265.227,-141.591 268.771,-131.606 259.774,-137.201 265.227,-141.591"/>
</g>
<!-- Node13 -->
<g id="node13" class="node"><title>Node13</title>
<g id="a_node13"><a xlink:href="../../d4/dd5/_type_traits_8h.html" target="_top" xlink:title="Metafunctions for types. ">
<polygon fill="white" stroke="black" points="141.5,-168.5 141.5,-187.5 212.5,-187.5 212.5,-168.5 141.5,-168.5"/>
<text text-anchor="middle" x="177" y="-175.5" font-family="Helvetica,sans-Serif" font-size="10.00">TypeTraits.h</text>
</a>
</g>
</g>
<!-- Node9&#45;&gt;Node13 -->
<g id="edge15" class="edge"><title>Node9&#45;&gt;Node13</title>
<path fill="none" stroke="midnightblue" d="M186.144,-280.249C182.442,-271.333 177.111,-257.006 175,-244 172.51,-228.657 173.277,-211.018 174.517,-197.99"/>
<polygon fill="midnightblue" stroke="midnightblue" points="178.012,-198.231 175.66,-187.901 171.057,-197.444 178.012,-198.231"/>
</g>
<!-- Node11 -->
<g id="node11" class="node"><title>Node11</title>
<g id="a_node11"><a xlink:href="../../db/d2a/_utility_8h.html" target="_top" xlink:title="Various helper functions. ">
<polygon fill="white" stroke="black" points="269,-168.5 269,-187.5 355,-187.5 355,-168.5 269,-168.5"/>
<text text-anchor="middle" x="312" y="-175.5" font-family="Helvetica,sans-Serif" font-size="10.00">../utility/Utility.h</text>
</a>
</g>
</g>
<!-- Node10&#45;&gt;Node11 -->
<g id="edge12" class="edge"><title>Node10&#45;&gt;Node11</title>
<path fill="none" stroke="midnightblue" d="M249.889,-224.324C261.15,-216.107 278.287,-203.602 291.709,-193.807"/>
<polygon fill="midnightblue" stroke="midnightblue" points="293.88,-196.556 299.894,-187.834 289.753,-190.901 293.88,-196.556"/>
</g>
<!-- Node11&#45;&gt;Node12 -->
<g id="edge13" class="edge"><title>Node11&#45;&gt;Node12</title>
<path fill="none" stroke="midnightblue" d="M306.055,-168.083C301.023,-160.534 293.663,-149.495 287.487,-140.23"/>
<polygon fill="midnightblue" stroke="midnightblue" points="290.293,-138.13 281.834,-131.751 284.469,-142.013 290.293,-138.13"/>
</g>
<!-- Node12&#45;&gt;Node4 -->
<g id="edge14" class="edge"><title>Node12&#45;&gt;Node4</title>
<path fill="none" stroke="midnightblue" d="M276,-112.083C276,-105.006 276,-94.8611 276,-85.9865"/>
<polygon fill="midnightblue" stroke="midnightblue" points="279.5,-85.751 276,-75.7511 272.5,-85.7511 279.5,-85.751"/>
</g>
<!-- Node13&#45;&gt;Node12 -->
<g id="edge16" class="edge"><title>Node13&#45;&gt;Node12</title>
<path fill="none" stroke="midnightblue" d="M192.906,-168.324C208.638,-159.743 232.942,-146.486 251.209,-136.522"/>
<polygon fill="midnightblue" stroke="midnightblue" points="253.03,-139.516 260.133,-131.655 249.678,-133.37 253.03,-139.516"/>
</g>
<!-- Node15&#45;&gt;Node3 -->
<g id="edge22" class="edge"><title>Node15&#45;&gt;Node3</title>
<path fill="none" stroke="midnightblue" d="M462.191,-336.324C479.351,-327.664 505.946,-314.242 525.747,-304.249"/>
<polygon fill="midnightblue" stroke="midnightblue" points="527.501,-307.285 534.851,-299.655 524.347,-301.035 527.501,-307.285"/>
</g>
<!-- Node15&#45;&gt;Node4 -->
<g id="edge24" class="edge"><title>Node15&#45;&gt;Node4</title>
<path fill="none" stroke="midnightblue" d="M453.036,-336.321C460.655,-327.687 471.955,-313.774 479,-300 492.763,-273.09 499,-265.225 499,-235 499,-235 499,-235 499,-177 499,-96.6459 381.105,-74.9886 316.759,-69.1523"/>
<polygon fill="midnightblue" stroke="midnightblue" points="316.791,-65.6434 306.54,-68.3173 316.221,-72.6201 316.791,-65.6434"/>
</g>
<!-- Node15&#45;&gt;Node11 -->
<g id="edge23" class="edge"><title>Node15&#45;&gt;Node11</title>
<path fill="none" stroke="midnightblue" d="M429.585,-336.347C416.113,-328.233 396.629,-315.111 383,-300 356.859,-271.017 358.819,-257.624 339,-224 333.613,-214.861 327.541,-204.726 322.521,-196.392"/>
<polygon fill="midnightblue" stroke="midnightblue" points="325.38,-194.356 317.216,-187.603 319.387,-197.973 325.38,-194.356"/>
</g>
<!-- Node15&#45;&gt;Node12 -->
<g id="edge25" class="edge"><title>Node15&#45;&gt;Node12</title>
<path fill="none" stroke="midnightblue" d="M438.687,-336.344C432.418,-327.502 422.786,-313.232 416,-300 387.226,-243.893 406.362,-214.705 364,-168 348.951,-151.409 326.368,-140.037 307.848,-132.876"/>
<polygon fill="midnightblue" stroke="midnightblue" points="308.917,-129.541 298.323,-129.417 306.528,-136.12 308.917,-129.541"/>
</g>
<!-- Node16 -->
<g id="node16" class="node"><title>Node16</title>
<g id="a_node16"><a xlink:href="../../d9/d8a/_new_8h.html" target="_top" xlink:title="New operators defined for Arduino boards and for other boards use the normal new. ...">
<polygon fill="white" stroke="black" points="425.5,-280.5 425.5,-299.5 470.5,-299.5 470.5,-280.5 425.5,-280.5"/>
<text text-anchor="middle" x="448" y="-287.5" font-family="Helvetica,sans-Serif" font-size="10.00">New.h</text>
</a>
</g>
</g>
<!-- Node15&#45;&gt;Node16 -->
<g id="edge26" class="edge"><title>Node15&#45;&gt;Node16</title>
<path fill="none" stroke="midnightblue" d="M445.495,-336.083C445.889,-329.006 446.452,-318.861 446.945,-309.986"/>
<polygon fill="midnightblue" stroke="midnightblue" points="450.454,-309.93 447.514,-299.751 443.464,-309.542 450.454,-309.93"/>
</g>
<!-- Node17 -->
<g id="node17" class="node"><title>Node17</title>
<polygon fill="white" stroke="#bfbfbf" points="430.5,-224.5 430.5,-243.5 465.5,-243.5 465.5,-224.5 430.5,-224.5"/>
<text text-anchor="middle" x="448" y="-231.5" font-family="Helvetica,sans-Serif" font-size="10.00">new</text>
</g>
<!-- Node16&#45;&gt;Node17 -->
<g id="edge27" class="edge"><title>Node16&#45;&gt;Node17</title>
<path fill="none" stroke="midnightblue" d="M448,-280.083C448,-273.006 448,-262.861 448,-253.986"/>
<polygon fill="midnightblue" stroke="midnightblue" points="451.5,-253.751 448,-243.751 444.5,-253.751 451.5,-253.751"/>
</g>
</g>
</svg>
        <g id="navigator" transform="translate(0 0)" fill="#404254">
                <rect fill="#f2f5e9" fill-opacity="0.5" stroke="#606060" stroke-width=".5" x="0" y="0" width="60" height="60"/>
                <use id="zoomplus" xlink:href="#zoomPlus" x="17" y="9" onmousedown="handleZoom(evt,'in')"/>
                <use id="zoomminus" xlink:href="#zoomMin" x="42" y="9" onmousedown="handleZoom(evt,'out')"/>
                <use id="reset" xlink:href="#resetDef" x="30" y="36" onmousedown="handleReset()"/>
                <g id="arrowUp" xlink:href="#dirArrow" transform="translate(30 24)" onmousedown="handlePan(0,-1)">
                  <use xlink:href="#rim" fill="#404040">
                        <set attributeName="fill" to="#808080" begin="arrowUp.mouseover" end="arrowUp.mouseout"/>
                  </use>
                  <path fill="none" stroke="white" stroke-width="1.5" d="M0,-3.0v7 M-2.5,-0.5L0,-3.0L2.5,-0.5"/>
                </g>
                <g id="arrowRight" xlink:href="#dirArrow" transform="rotate(90) translate(36 -43)" onmousedown="handlePan(1,0)">
                  <use xlink:href="#rim" fill="#404040">
                        <set attributeName="fill" to="#808080" begin="arrowRight.mouseover" end="arrowRight.mouseout"/>
                  </use>
                  <path fill="none" stroke="white" stroke-width="1.5" d="M0,-3.0v7 M-2.5,-0.5L0,-3.0L2.5,-0.5"/>
                </g>
                <g id="arrowDown" xlink:href="#dirArrow" transform="rotate(180) translate(-30 -48)" onmousedown="handlePan(0,1)">
                  <use xlink:href="#rim" fill="#404040">
                        <set attributeName="fill" to="#808080" begin="arrowDown.mouseover" end="arrowDown.mouseout"/>
                  </use>
                  <path fill="none" stroke="white" stroke-width="1.5" d="M0,-3.0v7 M-2.5,-0.5L0,-3.0L2.5,-0.5"/>
                </g>
                <g id="arrowLeft" xlink:href="#dirArrow" transform="rotate(270) translate(-36 17)" onmousedown="handlePan(-1,0)">
                  <use xlink:href="#rim" fill="#404040">
                        <set attributeName="fill" to="#808080" begin="arrowLeft.mouseover" end="arrowLeft.mouseout"/>
                  </use>
                  <path fill="none" stroke="white" stroke-width="1.5" d="M0,-3.0v7 M-2.5,-0.5L0,-3.0L2.5,-0.5"/>
                </g>
        </g>
        <svg viewBox="0 0 15 15" width="100%" height="30px" preserveAspectRatio="xMaxYMin meet">
         <g id="arrow_out" transform="scale(0.3 0.3)">
          <a xlink:href="_bitset_8h__incl_org.svg" target="_base">
           <rect id="button" ry="5" rx="5" y="6" x="6" height="38" width="38"
                fill="#f2f5e9" fill-opacity="0.5" stroke="#606060" stroke-width="1.0"/>
           <path id="arrow"
             d="M 11.500037,31.436501 C 11.940474,20.09759 22.043105,11.32322 32.158766,21.979434 L 37.068811,17.246167 C 37.068811,17.246167 37.088388,32 37.088388,32 L 22.160133,31.978069 C 22.160133,31.978069 26.997745,27.140456 26.997745,27.140456 C 18.528582,18.264221 13.291696,25.230495 11.500037,31.436501 z"
             style="fill:#404040;"/>
          </a>
         </g>
        </svg>
</svg>
