<?xml version="1.0" encoding="UTF-8" standalone="no"?>
<!DOCTYPE svg PUBLIC "-//W3C//DTD SVG 1.1//EN"
 "http://www.w3.org/Graphics/SVG/1.1/DTD/svg11.dtd">
<!-- Generated by graphviz version 2.36.0 (20140111.2315)
 -->
<!-- Title: stl/Bitset.h Pages: 1 -->
<svg width="187pt" height="140pt"
 viewBox="0.00 0.00 187.00 140.00" xmlns="http://www.w3.org/2000/svg" xmlns:xlink="http://www.w3.org/1999/xlink">
<g id="graph0" class="graph" transform="scale(1 1) rotate(0) translate(4 136)">
<title>stl/Bitset.h</title>
<polygon fill="white" stroke="none" points="-4,4 -4,-136 183,-136 183,4 -4,4"/>
<!-- Node1 -->
<g id="node1" class="node"><title>Node1</title>
<polygon fill="#bfbfbf" stroke="black" points="59,-112.5 59,-131.5 123,-131.5 123,-112.5 59,-112.5"/>
<text text-anchor="middle" x="91" y="-119.5" font-family="Helvetica,sans-Serif" font-size="10.00">stl/Bitset.h</text>
</g>
<!-- Node2 -->
<g id="node2" class="node"><title>Node2</title>
<polygon fill="white" stroke="#bfbfbf" points="-0.5,-56.5 -0.5,-75.5 46.5,-75.5 46.5,-56.5 -0.5,-56.5"/>
<text text-anchor="middle" x="23" y="-63.5" font-family="Helvetica,sans-Serif" font-size="10.00">math.h</text>
</g>
<!-- Node1&#45;&gt;Node2 -->
<g id="edge1" class="edge"><title>Node1&#45;&gt;Node2</title>
<path fill="none" stroke="midnightblue" d="M80.0746,-112.324C69.8254,-104.185 54.2794,-91.8395 41.999,-82.0874"/>
<polygon fill="midnightblue" stroke="midnightblue" points="44.1319,-79.3119 34.1242,-75.8339 39.7787,-84.7937 44.1319,-79.3119"/>
</g>
<!-- Node3 -->
<g id="node3" class="node"><title>Node3</title>
<g id="a_node3"><a xlink:href="../../d0/db6/_types_8h.html" target="_top" xlink:title="type definition of all the string types we will be using ">
<polygon fill="white" stroke="black" points="65,-56.5 65,-75.5 117,-75.5 117,-56.5 65,-56.5"/>
<text text-anchor="middle" x="91" y="-63.5" font-family="Helvetica,sans-Serif" font-size="10.00">Types.h</text>
</a>
</g>
</g>
<!-- Node1&#45;&gt;Node3 -->
<g id="edge2" class="edge"><title>Node1&#45;&gt;Node3</title>
<path fill="none" stroke="midnightblue" d="M91,-112.083C91,-105.006 91,-94.8611 91,-85.9865"/>
<polygon fill="midnightblue" stroke="midnightblue" points="94.5001,-85.751 91,-75.7511 87.5001,-85.7511 94.5001,-85.751"/>
</g>
<!-- Node5 -->
<g id="node5" class="node"><title>Node5</title>
<g id="a_node5"><a xlink:href="../../d2/db4/_wlib_8h.html" target="_top" xlink:title="Wlib.h">
<polygon fill="white" stroke="black" points="135,-56.5 135,-75.5 179,-75.5 179,-56.5 135,-56.5"/>
<text text-anchor="middle" x="157" y="-63.5" font-family="Helvetica,sans-Serif" font-size="10.00">Wlib.h</text>
</a>
</g>
</g>
<!-- Node1&#45;&gt;Node5 -->
<g id="edge4" class="edge"><title>Node1&#45;&gt;Node5</title>
<path fill="none" stroke="midnightblue" d="M101.604,-112.324C111.456,-104.263 126.351,-92.0765 138.215,-82.3695"/>
<polygon fill="midnightblue" stroke="midnightblue" points="140.68,-84.8752 146.203,-75.8339 136.247,-79.4575 140.68,-84.8752"/>
</g>
<!-- Node4 -->
<g id="node4" class="node"><title>Node4</title>
<polygon fill="white" stroke="#bfbfbf" points="66.5,-0.5 66.5,-19.5 115.5,-19.5 115.5,-0.5 66.5,-0.5"/>
<text text-anchor="middle" x="91" y="-7.5" font-family="Helvetica,sans-Serif" font-size="10.00">stdint.h</text>
</g>
<!-- Node3&#45;&gt;Node4 -->
<g id="edge3" class="edge"><title>Node3&#45;&gt;Node4</title>
<path fill="none" stroke="midnightblue" d="M91,-56.083C91,-49.0059 91,-38.8611 91,-29.9865"/>
<polygon fill="midnightblue" stroke="midnightblue" points="94.5001,-29.751 91,-19.7511 87.5001,-29.7511 94.5001,-29.751"/>
</g>
</g>
</svg>
