<?xml version="1.0" encoding="UTF-8" standalone="no"?>
<!DOCTYPE svg PUBLIC "-//W3C//DTD SVG 1.1//EN"
 "http://www.w3.org/Graphics/SVG/1.1/DTD/svg11.dtd">
<!-- Generated by graphviz version 2.36.0 (20140111.2315)
 -->
<!-- Title: stl/Bitset.h Pages: 1 -->
<!--zoomable 476 -->
<svg id="main" version="1.1" xmlns="http://www.w3.org/2000/svg" xmlns:xlink="http://www.w3.org/1999/xlink" xml:space="preserve" onload="init(evt)">
<style type="text/css"><![CDATA[
.edge:hover path { stroke: red; }
.edge:hover polygon { stroke: red; fill: red; }
]]></style>
<script type="text/javascript"><![CDATA[
var edges = document.getElementsByTagName('g');
if (edges && edges.length) {
  for (var i=0;i<edges.length;i++) {
    if (edges[i].id.substr(0,4)=='edge') {
      edges[i].setAttribute('class','edge');
    }
  }
}
]]></script>
        <defs>
                <circle id="rim" cx="0" cy="0" r="7"/>
                <circle id="rim2" cx="0" cy="0" r="3.5"/>
                <g id="zoomPlus">
                        <use xlink:href="#rim" fill="#404040">
                                <set attributeName="fill" to="#808080" begin="zoomplus.mouseover" end="zoomplus.mouseout"/>
                        </use>
                        <path d="M-4,0h8M0,-4v8" fill="none" stroke="white" stroke-width="1.5" pointer-events="none"/>
                </g>
                <g id="zoomMin">
                        <use xlink:href="#rim" fill="#404040">
                                <set attributeName="fill" to="#808080" begin="zoomminus.mouseover" end="zoomminus.mouseout"/>
                        </use>
                        <path d="M-4,0h8" fill="none" stroke="white" stroke-width="1.5" pointer-events="none"/>
                </g>
                <g id="dirArrow">
                        <path fill="none" stroke="white" stroke-width="1.5" d="M0,-3.0v7 M-2.5,-0.5L0,-3.0L2.5,-0.5"/>
                </g>
               <g id="resetDef">
                       <use xlink:href="#rim2" fill="#404040">
                               <set attributeName="fill" to="#808080" begin="reset.mouseover" end="reset.mouseout"/>
                       </use>
               </g>
        </defs>

<script type="text/javascript">
var viewWidth = 609;
var viewHeight = 476;
var sectionId = 'dynsection-0';
</script>
<script xlink:href="../../svgpan.js"/>
<svg id="graph" class="graph">
<g id="viewport">
<title>stl/Bitset.h</title>
<polygon fill="white" stroke="none" points="-4,4 -4,-472 605,-472 605,4 -4,4"/>
<!-- Node1 -->
<g id="node1" class="node"><title>Node1</title>
<polygon fill="#bfbfbf" stroke="black" points="263,-448.5 263,-467.5 327,-467.5 327,-448.5 263,-448.5"/>
<text text-anchor="middle" x="295" y="-455.5" font-family="Helvetica,sans-Serif" font-size="10.00">stl/Bitset.h</text>
</g>
<!-- Node2 -->
<g id="node2" class="node"><title>Node2</title>
<polygon fill="white" stroke="#bfbfbf" points="-0.5,-392.5 -0.5,-411.5 46.5,-411.5 46.5,-392.5 -0.5,-392.5"/>
<text text-anchor="middle" x="23" y="-399.5" font-family="Helvetica,sans-Serif" font-size="10.00">math.h</text>
</g>
<!-- Node1&#45;&gt;Node2 -->
<g id="edge1" class="edge"><title>Node1&#45;&gt;Node2</title>
<path fill="none" stroke="midnightblue" d="M262.739,-451.245C217.527,-443.077 132.798,-427.399 61,-412 59.5499,-411.689 58.0702,-411.365 56.5765,-411.034"/>
<polygon fill="midnightblue" stroke="midnightblue" points="57.2099,-407.588 46.6815,-408.773 55.6508,-414.412 57.2099,-407.588"/>
</g>
<!-- Node3 -->
<g id="node3" class="node"><title>Node3</title>
<polygon fill="white" stroke="#bfbfbf" points="354.5,-280.5 354.5,-299.5 403.5,-299.5 403.5,-280.5 354.5,-280.5"/>
<text text-anchor="middle" x="379" y="-287.5" font-family="Helvetica,sans-Serif" font-size="10.00">string.h</text>
</g>
<!-- Node1&#45;&gt;Node3 -->
<g id="edge2" class="edge"><title>Node1&#45;&gt;Node3</title>
<path fill="none" stroke="midnightblue" d="M308.637,-448.37C320.729,-440.178 338.244,-426.926 350,-412 367.097,-390.294 370.432,-382.839 377,-356 380.736,-340.733 381,-322.847 380.464,-309.707"/>
<polygon fill="midnightblue" stroke="midnightblue" points="383.948,-309.337 379.853,-299.566 376.961,-309.758 383.948,-309.337"/>
</g>
<!-- Node4 -->
<g id="node4" class="node"><title>Node4</title>
<g id="a_node4"><a xlink:href="../../d0/db6/_types_8h.html" target="_top" xlink:title="type definition of all the string types we will be using ">
<polygon fill="white" stroke="black" points="181.5,-56.5 181.5,-75.5 242.5,-75.5 242.5,-56.5 181.5,-56.5"/>
<text text-anchor="middle" x="212" y="-63.5" font-family="Helvetica,sans-Serif" font-size="10.00">../Types.h</text>
</a>
</g>
</g>
<!-- Node1&#45;&gt;Node4 -->
<g id="edge3" class="edge"><title>Node1&#45;&gt;Node4</title>
<path fill="none" stroke="midnightblue" d="M262.538,-455.347C201.342,-450.298 75,-429.843 75,-347 75,-347 75,-347 75,-177 75,-125.995 133.449,-94.6906 173.993,-79.1111"/>
<polygon fill="midnightblue" stroke="midnightblue" points="175.434,-82.3103 183.614,-75.5759 173.02,-75.7399 175.434,-82.3103"/>
</g>
<!-- Node6 -->
<g id="node6" class="node"><title>Node6</title>
<g id="a_node6"><a xlink:href="../../d2/db4/_wlib_8h.html" target="_top" xlink:title="../Wlib.h">
<polygon fill="white" stroke="black" points="548.5,-224.5 548.5,-243.5 601.5,-243.5 601.5,-224.5 548.5,-224.5"/>
<text text-anchor="middle" x="575" y="-231.5" font-family="Helvetica,sans-Serif" font-size="10.00">../Wlib.h</text>
</a>
</g>
</g>
<!-- Node1&#45;&gt;Node6 -->
<g id="edge5" class="edge"><title>Node1&#45;&gt;Node6</title>
<path fill="none" stroke="midnightblue" d="M327.091,-451.922C377.787,-442.252 476.443,-416.494 533,-356 560.119,-326.994 569.84,-279.578 573.24,-253.55"/>
<polygon fill="midnightblue" stroke="midnightblue" points="576.727,-253.858 574.37,-243.529 569.772,-253.074 576.727,-253.858"/>
</g>
<!-- Node7 -->
<g id="node7" class="node"><title>Node7</title>
<g id="a_node7"><a xlink:href="../../db/db5/_string_8h.html" target="_top" xlink:title="../strings/String.h">
<polygon fill="white" stroke="black" points="249,-392.5 249,-411.5 341,-411.5 341,-392.5 249,-392.5"/>
<text text-anchor="middle" x="295" y="-399.5" font-family="Helvetica,sans-Serif" font-size="10.00">../strings/String.h</text>
</a>
</g>
</g>
<!-- Node1&#45;&gt;Node7 -->
<g id="edge6" class="edge"><title>Node1&#45;&gt;Node7</title>
<path fill="none" stroke="midnightblue" d="M295,-448.083C295,-441.006 295,-430.861 295,-421.986"/>
<polygon fill="midnightblue" stroke="midnightblue" points="298.5,-421.751 295,-411.751 291.5,-421.751 298.5,-421.751"/>
</g>
<!-- Node5 -->
<g id="node5" class="node"><title>Node5</title>
<polygon fill="white" stroke="#bfbfbf" points="187.5,-0.5 187.5,-19.5 236.5,-19.5 236.5,-0.5 187.5,-0.5"/>
<text text-anchor="middle" x="212" y="-7.5" font-family="Helvetica,sans-Serif" font-size="10.00">stdint.h</text>
</g>
<!-- Node4&#45;&gt;Node5 -->
<g id="edge4" class="edge"><title>Node4&#45;&gt;Node5</title>
<path fill="none" stroke="midnightblue" d="M212,-56.083C212,-49.0059 212,-38.8611 212,-29.9865"/>
<polygon fill="midnightblue" stroke="midnightblue" points="215.5,-29.751 212,-19.7511 208.5,-29.7511 215.5,-29.751"/>
</g>
<!-- Node7&#45;&gt;Node3 -->
<g id="edge7" class="edge"><title>Node7&#45;&gt;Node3</title>
<path fill="none" stroke="midnightblue" d="M312.282,-392.351C326.175,-384.584 345.25,-371.958 357,-356 367.144,-342.223 372.83,-323.448 375.868,-309.618"/>
<polygon fill="midnightblue" stroke="midnightblue" points="379.308,-310.259 377.771,-299.777 372.436,-308.931 379.308,-310.259"/>
</g>
<!-- Node7&#45;&gt;Node4 -->
<g id="edge19" class="edge"><title>Node7&#45;&gt;Node4</title>
<path fill="none" stroke="midnightblue" d="M248.973,-400.011C212.596,-396.767 162.953,-386.491 132,-356 110.558,-334.878 113,-321.098 113,-291 113,-291 113,-291 113,-177 113,-133.183 156.936,-98.9282 186.27,-80.9413"/>
<polygon fill="midnightblue" stroke="midnightblue" points="188.363,-83.7703 195.206,-75.6816 184.813,-77.7377 188.363,-83.7703"/>
</g>
<!-- Node8 -->
<g id="node8" class="node"><title>Node8</title>
<g id="a_node8"><a xlink:href="../../de/d0b/_string_iterator_8h.html" target="_top" xlink:title="StringIterator.h">
<polygon fill="white" stroke="black" points="443.5,-336.5 443.5,-355.5 524.5,-355.5 524.5,-336.5 443.5,-336.5"/>
<text text-anchor="middle" x="484" y="-343.5" font-family="Helvetica,sans-Serif" font-size="10.00">StringIterator.h</text>
</a>
</g>
</g>
<!-- Node7&#45;&gt;Node8 -->
<g id="edge8" class="edge"><title>Node7&#45;&gt;Node8</title>
<path fill="none" stroke="midnightblue" d="M324.948,-392.444C357.158,-383.241 408.534,-368.562 444.142,-358.388"/>
<polygon fill="midnightblue" stroke="midnightblue" points="445.539,-361.629 454.192,-355.516 443.616,-354.898 445.539,-361.629"/>
</g>
<!-- Node14 -->
<g id="node14" class="node"><title>Node14</title>
<g id="a_node14"><a xlink:href="../../da/db8/_math_8h.html" target="_top" xlink:title="../utility/Math.h">
<polygon fill="white" stroke="black" points="141,-336.5 141,-355.5 223,-355.5 223,-336.5 141,-336.5"/>
<text text-anchor="middle" x="182" y="-343.5" font-family="Helvetica,sans-Serif" font-size="10.00">../utility/Math.h</text>
</a>
</g>
</g>
<!-- Node7&#45;&gt;Node14 -->
<g id="edge20" class="edge"><title>Node7&#45;&gt;Node14</title>
<path fill="none" stroke="midnightblue" d="M277.095,-392.444C258.746,-383.675 229.995,-369.935 208.906,-359.858"/>
<polygon fill="midnightblue" stroke="midnightblue" points="210.353,-356.67 199.821,-355.516 207.335,-362.986 210.353,-356.67"/>
</g>
<!-- Node15 -->
<g id="node15" class="node"><title>Node15</title>
<g id="a_node15"><a xlink:href="../../d3/de6/_memory_8h.html" target="_top" xlink:title="Memory is a class that provides dynamic fixed size memory. ">
<polygon fill="white" stroke="black" points="241.5,-336.5 241.5,-355.5 348.5,-355.5 348.5,-336.5 241.5,-336.5"/>
<text text-anchor="middle" x="295" y="-343.5" font-family="Helvetica,sans-Serif" font-size="10.00">../memory/Memory.h</text>
</a>
</g>
</g>
<!-- Node7&#45;&gt;Node15 -->
<g id="edge21" class="edge"><title>Node7&#45;&gt;Node15</title>
<path fill="none" stroke="midnightblue" d="M295,-392.083C295,-385.006 295,-374.861 295,-365.986"/>
<polygon fill="midnightblue" stroke="midnightblue" points="298.5,-365.751 295,-355.751 291.5,-365.751 298.5,-365.751"/>
</g>
<!-- Node8&#45;&gt;Node4 -->
<g id="edge9" class="edge"><title>Node8&#45;&gt;Node4</title>
<path fill="none" stroke="midnightblue" d="M474.259,-336.122C460.458,-323.564 434.398,-299.921 412,-280 365.638,-238.766 349.675,-233.039 307,-188 274.242,-153.427 241.024,-108.306 223.882,-84.109"/>
<polygon fill="midnightblue" stroke="midnightblue" points="226.556,-81.8254 217.945,-75.6527 220.827,-85.848 226.556,-81.8254"/>
</g>
<!-- Node9 -->
<g id="node9" class="node"><title>Node9</title>
<g id="a_node9"><a xlink:href="../../d8/dd7/_concept_8h.html" target="_top" xlink:title="Concept definitions. ">
<polygon fill="white" stroke="black" points="460,-280.5 460,-299.5 544,-299.5 544,-280.5 460,-280.5"/>
<text text-anchor="middle" x="502" y="-287.5" font-family="Helvetica,sans-Serif" font-size="10.00">../stl/Concept.h</text>
</a>
</g>
</g>
<!-- Node8&#45;&gt;Node9 -->
<g id="edge10" class="edge"><title>Node8&#45;&gt;Node9</title>
<path fill="none" stroke="midnightblue" d="M486.972,-336.083C489.384,-328.849 492.864,-318.409 495.868,-309.397"/>
<polygon fill="midnightblue" stroke="midnightblue" points="499.241,-310.345 499.083,-299.751 492.6,-308.131 499.241,-310.345"/>
</g>
<!-- Node9&#45;&gt;Node6 -->
<g id="edge17" class="edge"><title>Node9&#45;&gt;Node6</title>
<path fill="none" stroke="midnightblue" d="M513.729,-280.324C524.837,-272.107 541.742,-259.602 554.983,-249.807"/>
<polygon fill="midnightblue" stroke="midnightblue" points="557.1,-252.595 563.058,-243.834 552.937,-246.967 557.1,-252.595"/>
</g>
<!-- Node10 -->
<g id="node10" class="node"><title>Node10</title>
<g id="a_node10"><a xlink:href="../../d4/dda/_pair_8h.html" target="_top" xlink:title="Implementation of a 2&#45;element tuple. ">
<polygon fill="white" stroke="black" points="383,-224.5 383,-243.5 425,-243.5 425,-224.5 383,-224.5"/>
<text text-anchor="middle" x="404" y="-231.5" font-family="Helvetica,sans-Serif" font-size="10.00">Pair.h</text>
</a>
</g>
</g>
<!-- Node9&#45;&gt;Node10 -->
<g id="edge11" class="edge"><title>Node9&#45;&gt;Node10</title>
<path fill="none" stroke="midnightblue" d="M486.255,-280.324C470.681,-271.743 446.623,-258.486 428.541,-248.522"/>
<polygon fill="midnightblue" stroke="midnightblue" points="430.154,-245.415 419.706,-243.655 426.776,-251.546 430.154,-245.415"/>
</g>
<!-- Node12 -->
<g id="node12" class="node"><title>Node12</title>
<g id="a_node12"><a xlink:href="../../d2/d37/_tmp_8h.html" target="_top" xlink:title="Template helper types, structs, and metafunctions. ">
<polygon fill="white" stroke="black" points="337,-112.5 337,-131.5 381,-131.5 381,-112.5 337,-112.5"/>
<text text-anchor="middle" x="359" y="-119.5" font-family="Helvetica,sans-Serif" font-size="10.00">Tmp.h</text>
</a>
</g>
</g>
<!-- Node9&#45;&gt;Node12 -->
<g id="edge18" class="edge"><title>Node9&#45;&gt;Node12</title>
<path fill="none" stroke="midnightblue" d="M504.951,-280.309C511.657,-258.811 525.568,-202.398 500,-168 474.964,-134.318 424.483,-125.297 391.214,-123.18"/>
<polygon fill="midnightblue" stroke="midnightblue" points="391.222,-119.677 381.071,-122.713 390.899,-126.669 391.222,-119.677"/>
</g>
<!-- Node13 -->
<g id="node13" class="node"><title>Node13</title>
<g id="a_node13"><a xlink:href="../../d4/dd5/_type_traits_8h.html" target="_top" xlink:title="Metafunctions for types. ">
<polygon fill="white" stroke="black" points="420.5,-168.5 420.5,-187.5 491.5,-187.5 491.5,-168.5 420.5,-168.5"/>
<text text-anchor="middle" x="456" y="-175.5" font-family="Helvetica,sans-Serif" font-size="10.00">TypeTraits.h</text>
</a>
</g>
</g>
<!-- Node9&#45;&gt;Node13 -->
<g id="edge15" class="edge"><title>Node9&#45;&gt;Node13</title>
<path fill="none" stroke="midnightblue" d="M498.39,-280.368C490.9,-262.456 473.532,-220.923 463.506,-196.948"/>
<polygon fill="midnightblue" stroke="midnightblue" points="466.68,-195.467 459.593,-187.591 460.222,-198.168 466.68,-195.467"/>
</g>
<!-- Node11 -->
<g id="node11" class="node"><title>Node11</title>
<g id="a_node11"><a xlink:href="../../db/d2a/_utility_8h.html" target="_top" xlink:title="Various helper functions. ">
<polygon fill="white" stroke="black" points="316,-168.5 316,-187.5 402,-187.5 402,-168.5 316,-168.5"/>
<text text-anchor="middle" x="359" y="-175.5" font-family="Helvetica,sans-Serif" font-size="10.00">../utility/Utility.h</text>
</a>
</g>
</g>
<!-- Node10&#45;&gt;Node11 -->
<g id="edge12" class="edge"><title>Node10&#45;&gt;Node11</title>
<path fill="none" stroke="midnightblue" d="M396.569,-224.083C390.147,-216.377 380.694,-205.033 372.878,-195.653"/>
<polygon fill="midnightblue" stroke="midnightblue" points="375.383,-193.193 366.293,-187.751 370.006,-197.674 375.383,-193.193"/>
</g>
<!-- Node11&#45;&gt;Node12 -->
<g id="edge13" class="edge"><title>Node11&#45;&gt;Node12</title>
<path fill="none" stroke="midnightblue" d="M359,-168.083C359,-161.006 359,-150.861 359,-141.986"/>
<polygon fill="midnightblue" stroke="midnightblue" points="362.5,-141.751 359,-131.751 355.5,-141.751 362.5,-141.751"/>
</g>
<!-- Node12&#45;&gt;Node4 -->
<g id="edge14" class="edge"><title>Node12&#45;&gt;Node4</title>
<path fill="none" stroke="midnightblue" d="M336.993,-112.916C312.633,-103.967 273.108,-89.4479 245.031,-79.1338"/>
<polygon fill="midnightblue" stroke="midnightblue" points="246.214,-75.8399 235.621,-75.677 243.8,-82.4106 246.214,-75.8399"/>
</g>
<!-- Node13&#45;&gt;Node12 -->
<g id="edge16" class="edge"><title>Node13&#45;&gt;Node12</title>
<path fill="none" stroke="midnightblue" d="M440.415,-168.324C425.001,-159.743 401.188,-146.486 383.29,-136.522"/>
<polygon fill="midnightblue" stroke="midnightblue" points="384.986,-133.461 374.546,-131.655 381.581,-139.577 384.986,-133.461"/>
</g>
<!-- Node15&#45;&gt;Node3 -->
<g id="edge22" class="edge"><title>Node15&#45;&gt;Node3</title>
<path fill="none" stroke="midnightblue" d="M308.496,-336.324C321.6,-327.9 341.712,-314.971 357.107,-305.074"/>
<polygon fill="midnightblue" stroke="midnightblue" points="359.018,-308.006 365.537,-299.655 355.233,-302.118 359.018,-308.006"/>
</g>
<!-- Node15&#45;&gt;Node4 -->
<g id="edge24" class="edge"><title>Node15&#45;&gt;Node4</title>
<path fill="none" stroke="midnightblue" d="M288.358,-336.393C275.817,-319.644 248.764,-281.056 236,-244 216.938,-188.66 212.938,-118.707 212.152,-85.7713"/>
<polygon fill="midnightblue" stroke="midnightblue" points="215.651,-85.6916 211.989,-75.75 208.652,-85.8057 215.651,-85.6916"/>
</g>
<!-- Node15&#45;&gt;Node11 -->
<g id="edge23" class="edge"><title>Node15&#45;&gt;Node11</title>
<path fill="none" stroke="midnightblue" d="M298.441,-336.075C308.559,-309.832 338.356,-232.545 352.015,-197.117"/>
<polygon fill="midnightblue" stroke="midnightblue" points="355.365,-198.158 355.697,-187.568 348.834,-195.64 355.365,-198.158"/>
</g>
<!-- Node15&#45;&gt;Node12 -->
<g id="edge25" class="edge"><title>Node15&#45;&gt;Node12</title>
<path fill="none" stroke="midnightblue" d="M293.359,-336.29C288.754,-309.472 277.862,-226.434 307,-168 313.243,-155.479 324.667,-144.992 335.22,-137.3"/>
<polygon fill="midnightblue" stroke="midnightblue" points="337.438,-140.025 343.747,-131.513 333.508,-134.233 337.438,-140.025"/>
</g>
<!-- Node16 -->
<g id="node16" class="node"><title>Node16</title>
<g id="a_node16"><a xlink:href="../../d9/d8a/_new_8h.html" target="_top" xlink:title="New operators defined for Arduino boards and for other boards use the normal new. ...">
<polygon fill="white" stroke="black" points="141.5,-280.5 141.5,-299.5 186.5,-299.5 186.5,-280.5 141.5,-280.5"/>
<text text-anchor="middle" x="164" y="-287.5" font-family="Helvetica,sans-Serif" font-size="10.00">New.h</text>
</a>
</g>
</g>
<!-- Node15&#45;&gt;Node16 -->
<g id="edge26" class="edge"><title>Node15&#45;&gt;Node16</title>
<path fill="none" stroke="midnightblue" d="M274.243,-336.444C252.684,-327.557 218.737,-313.563 194.206,-303.451"/>
<polygon fill="midnightblue" stroke="midnightblue" points="195.239,-300.092 184.66,-299.516 192.572,-306.563 195.239,-300.092"/>
</g>
</g>
</svg>
        <g id="navigator" transform="translate(0 0)" fill="#404254">
                <rect fill="#f2f5e9" fill-opacity="0.5" stroke="#606060" stroke-width=".5" x="0" y="0" width="60" height="60"/>
                <use id="zoomplus" xlink:href="#zoomPlus" x="17" y="9" onmousedown="handleZoom(evt,'in')"/>
                <use id="zoomminus" xlink:href="#zoomMin" x="42" y="9" onmousedown="handleZoom(evt,'out')"/>
                <use id="reset" xlink:href="#resetDef" x="30" y="36" onmousedown="handleReset()"/>
                <g id="arrowUp" xlink:href="#dirArrow" transform="translate(30 24)" onmousedown="handlePan(0,-1)">
                  <use xlink:href="#rim" fill="#404040">
                        <set attributeName="fill" to="#808080" begin="arrowUp.mouseover" end="arrowUp.mouseout"/>
                  </use>
                  <path fill="none" stroke="white" stroke-width="1.5" d="M0,-3.0v7 M-2.5,-0.5L0,-3.0L2.5,-0.5"/>
                </g>
                <g id="arrowRight" xlink:href="#dirArrow" transform="rotate(90) translate(36 -43)" onmousedown="handlePan(1,0)">
                  <use xlink:href="#rim" fill="#404040">
                        <set attributeName="fill" to="#808080" begin="arrowRight.mouseover" end="arrowRight.mouseout"/>
                  </use>
                  <path fill="none" stroke="white" stroke-width="1.5" d="M0,-3.0v7 M-2.5,-0.5L0,-3.0L2.5,-0.5"/>
                </g>
                <g id="arrowDown" xlink:href="#dirArrow" transform="rotate(180) translate(-30 -48)" onmousedown="handlePan(0,1)">
                  <use xlink:href="#rim" fill="#404040">
                        <set attributeName="fill" to="#808080" begin="arrowDown.mouseover" end="arrowDown.mouseout"/>
                  </use>
                  <path fill="none" stroke="white" stroke-width="1.5" d="M0,-3.0v7 M-2.5,-0.5L0,-3.0L2.5,-0.5"/>
                </g>
                <g id="arrowLeft" xlink:href="#dirArrow" transform="rotate(270) translate(-36 17)" onmousedown="handlePan(-1,0)">
                  <use xlink:href="#rim" fill="#404040">
                        <set attributeName="fill" to="#808080" begin="arrowLeft.mouseover" end="arrowLeft.mouseout"/>
                  </use>
                  <path fill="none" stroke="white" stroke-width="1.5" d="M0,-3.0v7 M-2.5,-0.5L0,-3.0L2.5,-0.5"/>
                </g>
        </g>
        <svg viewBox="0 0 15 15" width="100%" height="30px" preserveAspectRatio="xMaxYMin meet">
         <g id="arrow_out" transform="scale(0.3 0.3)">
          <a xlink:href="_bitset_8h__incl_org.svg" target="_base">
           <rect id="button" ry="5" rx="5" y="6" x="6" height="38" width="38"
                fill="#f2f5e9" fill-opacity="0.5" stroke="#606060" stroke-width="1.0"/>
           <path id="arrow"
             d="M 11.500037,31.436501 C 11.940474,20.09759 22.043105,11.32322 32.158766,21.979434 L 37.068811,17.246167 C 37.068811,17.246167 37.088388,32 37.088388,32 L 22.160133,31.978069 C 22.160133,31.978069 26.997745,27.140456 26.997745,27.140456 C 18.528582,18.264221 13.291696,25.230495 11.500037,31.436501 z"
             style="fill:#404040;"/>
          </a>
         </g>
        </svg>
</svg>
