<?xml version="1.0" encoding="UTF-8" standalone="no"?>
<!DOCTYPE svg PUBLIC "-//W3C//DTD SVG 1.1//EN"
 "http://www.w3.org/Graphics/SVG/1.1/DTD/svg11.dtd">
<!-- Generated by graphviz version 2.36.0 (20140111.2315)
 -->
<!-- Title: wlib/stl/Bitset.h Pages: 1 -->
<!--zoomable 476 -->
<svg id="main" version="1.1" xmlns="http://www.w3.org/2000/svg" xmlns:xlink="http://www.w3.org/1999/xlink" xml:space="preserve" onload="init(evt)">
<style type="text/css"><![CDATA[
.edge:hover path { stroke: red; }
.edge:hover polygon { stroke: red; fill: red; }
]]></style>
<script type="text/javascript"><![CDATA[
var edges = document.getElementsByTagName('g');
if (edges && edges.length) {
  for (var i=0;i<edges.length;i++) {
    if (edges[i].id.substr(0,4)=='edge') {
      edges[i].setAttribute('class','edge');
    }
  }
}
]]></script>
        <defs>
                <circle id="rim" cx="0" cy="0" r="7"/>
                <circle id="rim2" cx="0" cy="0" r="3.5"/>
                <g id="zoomPlus">
                        <use xlink:href="#rim" fill="#404040">
                                <set attributeName="fill" to="#808080" begin="zoomplus.mouseover" end="zoomplus.mouseout"/>
                        </use>
                        <path d="M-4,0h8M0,-4v8" fill="none" stroke="white" stroke-width="1.5" pointer-events="none"/>
                </g>
                <g id="zoomMin">
                        <use xlink:href="#rim" fill="#404040">
                                <set attributeName="fill" to="#808080" begin="zoomminus.mouseover" end="zoomminus.mouseout"/>
                        </use>
                        <path d="M-4,0h8" fill="none" stroke="white" stroke-width="1.5" pointer-events="none"/>
                </g>
                <g id="dirArrow">
                        <path fill="none" stroke="white" stroke-width="1.5" d="M0,-3.0v7 M-2.5,-0.5L0,-3.0L2.5,-0.5"/>
                </g>
               <g id="resetDef">
                       <use xlink:href="#rim2" fill="#404040">
                               <set attributeName="fill" to="#808080" begin="reset.mouseover" end="reset.mouseout"/>
                       </use>
               </g>
        </defs>

<script type="text/javascript">
var viewWidth = 664;
var viewHeight = 476;
var sectionId = 'dynsection-0';
</script>
<script xlink:href="../../svgpan.js"/>
<svg id="graph" class="graph">
<g id="viewport">
<title>wlib/stl/Bitset.h</title>
<polygon fill="white" stroke="none" points="-4,4 -4,-472 660,-472 660,4 -4,4"/>
<!-- Node1 -->
<g id="node1" class="node"><title>Node1</title>
<polygon fill="#bfbfbf" stroke="black" points="253,-448.5 253,-467.5 337,-467.5 337,-448.5 253,-448.5"/>
<text text-anchor="middle" x="295" y="-455.5" font-family="Helvetica,sans-Serif" font-size="10.00">wlib/stl/Bitset.h</text>
</g>
<!-- Node2 -->
<g id="node2" class="node"><title>Node2</title>
<polygon fill="white" stroke="#bfbfbf" points="-0.5,-392.5 -0.5,-411.5 46.5,-411.5 46.5,-392.5 -0.5,-392.5"/>
<text text-anchor="middle" x="23" y="-399.5" font-family="Helvetica,sans-Serif" font-size="10.00">math.h</text>
</g>
<!-- Node1&#45;&gt;Node2 -->
<g id="edge1" class="edge"><title>Node1&#45;&gt;Node2</title>
<path fill="none" stroke="midnightblue" d="M252.618,-449.41C205.658,-440.871 127.742,-426.314 61,-412 59.5499,-411.689 58.0702,-411.365 56.5765,-411.034"/>
<polygon fill="midnightblue" stroke="midnightblue" points="57.2099,-407.588 46.6815,-408.773 55.6508,-414.412 57.2099,-407.588"/>
</g>
<!-- Node3 -->
<g id="node3" class="node"><title>Node3</title>
<polygon fill="white" stroke="#bfbfbf" points="363.5,-280.5 363.5,-299.5 412.5,-299.5 412.5,-280.5 363.5,-280.5"/>
<text text-anchor="middle" x="388" y="-287.5" font-family="Helvetica,sans-Serif" font-size="10.00">string.h</text>
</g>
<!-- Node1&#45;&gt;Node3 -->
<g id="edge2" class="edge"><title>Node1&#45;&gt;Node3</title>
<path fill="none" stroke="midnightblue" d="M310.989,-448.394C324.354,-440.488 343.088,-427.642 355,-412 378.337,-381.354 385.179,-335.281 387.179,-309.737"/>
<polygon fill="midnightblue" stroke="midnightblue" points="390.684,-309.769 387.799,-299.575 383.697,-309.343 390.684,-309.769"/>
</g>
<!-- Node4 -->
<g id="node4" class="node"><title>Node4</title>
<g id="a_node4"><a xlink:href="../../d0/db6/_types_8h.html" target="_top" xlink:title="type definition of all the string types we will be using ">
<polygon fill="white" stroke="black" points="185,-56.5 185,-75.5 257,-75.5 257,-56.5 185,-56.5"/>
<text text-anchor="middle" x="221" y="-63.5" font-family="Helvetica,sans-Serif" font-size="10.00">wlib/Types.h</text>
</a>
</g>
</g>
<!-- Node1&#45;&gt;Node4 -->
<g id="edge3" class="edge"><title>Node1&#45;&gt;Node4</title>
<path fill="none" stroke="midnightblue" d="M252.842,-454.463C188.961,-448.084 75,-425.68 75,-347 75,-347 75,-347 75,-177 75,-124.445 136.094,-93.8535 179.241,-78.8021"/>
<polygon fill="midnightblue" stroke="midnightblue" points="180.578,-82.0457 188.96,-75.5646 178.366,-75.4045 180.578,-82.0457"/>
</g>
<!-- Node6 -->
<g id="node6" class="node"><title>Node6</title>
<g id="a_node6"><a xlink:href="../../d2/db4/_wlib_8h.html" target="_top" xlink:title="wlib/Wlib.h">
<polygon fill="white" stroke="black" points="591.5,-224.5 591.5,-243.5 656.5,-243.5 656.5,-224.5 591.5,-224.5"/>
<text text-anchor="middle" x="624" y="-231.5" font-family="Helvetica,sans-Serif" font-size="10.00">wlib/Wlib.h</text>
</a>
</g>
</g>
<!-- Node1&#45;&gt;Node6 -->
<g id="edge5" class="edge"><title>Node1&#45;&gt;Node6</title>
<path fill="none" stroke="midnightblue" d="M337.206,-453.903C399.872,-447.054 517.381,-425.216 585,-356 612.542,-327.807 620.637,-280.07 623.014,-253.773"/>
<polygon fill="midnightblue" stroke="midnightblue" points="626.516,-253.864 623.738,-243.64 619.534,-253.365 626.516,-253.864"/>
</g>
<!-- Node7 -->
<g id="node7" class="node"><title>Node7</title>
<g id="a_node7"><a xlink:href="../../db/db5/_string_8h.html" target="_top" xlink:title="wlib/strings/String.h">
<polygon fill="white" stroke="black" points="243.5,-392.5 243.5,-411.5 346.5,-411.5 346.5,-392.5 243.5,-392.5"/>
<text text-anchor="middle" x="295" y="-399.5" font-family="Helvetica,sans-Serif" font-size="10.00">wlib/strings/String.h</text>
</a>
</g>
</g>
<!-- Node1&#45;&gt;Node7 -->
<g id="edge6" class="edge"><title>Node1&#45;&gt;Node7</title>
<path fill="none" stroke="midnightblue" d="M295,-448.083C295,-441.006 295,-430.861 295,-421.986"/>
<polygon fill="midnightblue" stroke="midnightblue" points="298.5,-421.751 295,-411.751 291.5,-421.751 298.5,-421.751"/>
</g>
<!-- Node5 -->
<g id="node5" class="node"><title>Node5</title>
<polygon fill="white" stroke="#bfbfbf" points="196.5,-0.5 196.5,-19.5 245.5,-19.5 245.5,-0.5 196.5,-0.5"/>
<text text-anchor="middle" x="221" y="-7.5" font-family="Helvetica,sans-Serif" font-size="10.00">stdint.h</text>
</g>
<!-- Node4&#45;&gt;Node5 -->
<g id="edge4" class="edge"><title>Node4&#45;&gt;Node5</title>
<path fill="none" stroke="midnightblue" d="M221,-56.083C221,-49.0059 221,-38.8611 221,-29.9865"/>
<polygon fill="midnightblue" stroke="midnightblue" points="224.5,-29.751 221,-19.7511 217.5,-29.7511 224.5,-29.751"/>
</g>
<!-- Node7&#45;&gt;Node3 -->
<g id="edge7" class="edge"><title>Node7&#45;&gt;Node3</title>
<path fill="none" stroke="midnightblue" d="M310.67,-392.352C324.07,-384.333 343.169,-371.346 356,-356 367.701,-342.005 376.415,-323.005 381.77,-309.163"/>
<polygon fill="midnightblue" stroke="midnightblue" points="385.064,-310.345 385.205,-299.751 378.489,-307.945 385.064,-310.345"/>
</g>
<!-- Node7&#45;&gt;Node4 -->
<g id="edge19" class="edge"><title>Node7&#45;&gt;Node4</title>
<path fill="none" stroke="midnightblue" d="M243.345,-399.462C207.612,-395.674 161.384,-384.946 132,-356 110.558,-334.878 113,-321.098 113,-291 113,-291 113,-291 113,-177 113,-131.206 161.249,-97.486 193.249,-80.1584"/>
<polygon fill="midnightblue" stroke="midnightblue" points="194.93,-83.229 202.188,-75.5104 191.701,-77.0184 194.93,-83.229"/>
</g>
<!-- Node8 -->
<g id="node8" class="node"><title>Node8</title>
<g id="a_node8"><a xlink:href="../../de/d0b/_string_iterator_8h.html" target="_top" xlink:title="wlib/strings/StringIterator.h">
<polygon fill="white" stroke="black" points="442,-336.5 442,-355.5 576,-355.5 576,-336.5 442,-336.5"/>
<text text-anchor="middle" x="509" y="-343.5" font-family="Helvetica,sans-Serif" font-size="10.00">wlib/strings/StringIterator.h</text>
</a>
</g>
</g>
<!-- Node7&#45;&gt;Node8 -->
<g id="edge8" class="edge"><title>Node7&#45;&gt;Node8</title>
<path fill="none" stroke="midnightblue" d="M328.909,-392.444C365.849,-383.122 425.054,-368.183 465.418,-357.997"/>
<polygon fill="midnightblue" stroke="midnightblue" points="466.41,-361.357 475.25,-355.516 464.697,-354.57 466.41,-361.357"/>
</g>
<!-- Node14 -->
<g id="node14" class="node"><title>Node14</title>
<g id="a_node14"><a xlink:href="../../da/db8/_math_8h.html" target="_top" xlink:title="wlib/util/Math.h">
<polygon fill="white" stroke="black" points="141.5,-336.5 141.5,-355.5 224.5,-355.5 224.5,-336.5 141.5,-336.5"/>
<text text-anchor="middle" x="183" y="-343.5" font-family="Helvetica,sans-Serif" font-size="10.00">wlib/util/Math.h</text>
</a>
</g>
</g>
<!-- Node7&#45;&gt;Node14 -->
<g id="edge20" class="edge"><title>Node7&#45;&gt;Node14</title>
<path fill="none" stroke="midnightblue" d="M277.005,-392.324C258.962,-383.625 230.953,-370.12 210.197,-360.113"/>
<polygon fill="midnightblue" stroke="midnightblue" points="211.478,-356.845 200.95,-355.655 208.438,-363.15 211.478,-356.845"/>
</g>
<!-- Node15 -->
<g id="node15" class="node"><title>Node15</title>
<g id="a_node15"><a xlink:href="../../d3/de6/_memory_8h.html" target="_top" xlink:title="Memory is a class that provides dynamic fixed size memory. ">
<polygon fill="white" stroke="black" points="242.5,-336.5 242.5,-355.5 347.5,-355.5 347.5,-336.5 242.5,-336.5"/>
<text text-anchor="middle" x="295" y="-343.5" font-family="Helvetica,sans-Serif" font-size="10.00">wlib/mem/Memory.h</text>
</a>
</g>
</g>
<!-- Node7&#45;&gt;Node15 -->
<g id="edge21" class="edge"><title>Node7&#45;&gt;Node15</title>
<path fill="none" stroke="midnightblue" d="M295,-392.083C295,-385.006 295,-374.861 295,-365.986"/>
<polygon fill="midnightblue" stroke="midnightblue" points="298.5,-365.751 295,-355.751 291.5,-365.751 298.5,-365.751"/>
</g>
<!-- Node8&#45;&gt;Node4 -->
<g id="edge9" class="edge"><title>Node8&#45;&gt;Node4</title>
<path fill="none" stroke="midnightblue" d="M497.32,-336.334C474.308,-319.172 421.636,-279.446 379,-244 350.192,-220.05 341.669,-215.286 316,-188 283.365,-153.31 250.099,-108.235 232.916,-84.0768"/>
<polygon fill="midnightblue" stroke="midnightblue" points="235.587,-81.7902 226.963,-75.635 229.866,-85.8244 235.587,-81.7902"/>
</g>
<!-- Node9 -->
<g id="node9" class="node"><title>Node9</title>
<g id="a_node9"><a xlink:href="../../d8/dd7/_concept_8h.html" target="_top" xlink:title="Concept definitions. ">
<polygon fill="white" stroke="black" points="469.5,-280.5 469.5,-299.5 564.5,-299.5 564.5,-280.5 469.5,-280.5"/>
<text text-anchor="middle" x="517" y="-287.5" font-family="Helvetica,sans-Serif" font-size="10.00">wlib/stl/Concept.h</text>
</a>
</g>
</g>
<!-- Node8&#45;&gt;Node9 -->
<g id="edge10" class="edge"><title>Node8&#45;&gt;Node9</title>
<path fill="none" stroke="midnightblue" d="M510.321,-336.083C511.381,-328.927 512.906,-318.635 514.231,-309.691"/>
<polygon fill="midnightblue" stroke="midnightblue" points="517.7,-310.156 515.704,-299.751 510.776,-309.13 517.7,-310.156"/>
</g>
<!-- Node9&#45;&gt;Node6 -->
<g id="edge11" class="edge"><title>Node9&#45;&gt;Node6</title>
<path fill="none" stroke="midnightblue" d="M534.191,-280.324C551.351,-271.664 577.946,-258.242 597.747,-248.249"/>
<polygon fill="midnightblue" stroke="midnightblue" points="599.501,-251.285 606.851,-243.655 596.347,-245.035 599.501,-251.285"/>
</g>
<!-- Node10 -->
<g id="node10" class="node"><title>Node10</title>
<g id="a_node10"><a xlink:href="../../d4/dda/_pair_8h.html" target="_top" xlink:title="Implementation of a 2&#45;element tuple. ">
<polygon fill="white" stroke="black" points="388,-224.5 388,-243.5 464,-243.5 464,-224.5 388,-224.5"/>
<text text-anchor="middle" x="426" y="-231.5" font-family="Helvetica,sans-Serif" font-size="10.00">wlib/stl/Pair.h</text>
</a>
</g>
</g>
<!-- Node9&#45;&gt;Node10 -->
<g id="edge12" class="edge"><title>Node9&#45;&gt;Node10</title>
<path fill="none" stroke="midnightblue" d="M502.379,-280.324C488.051,-271.822 465.987,-258.729 449.251,-248.797"/>
<polygon fill="midnightblue" stroke="midnightblue" points="450.97,-245.748 440.584,-243.655 447.398,-251.768 450.97,-245.748"/>
</g>
<!-- Node12 -->
<g id="node12" class="node"><title>Node12</title>
<g id="a_node12"><a xlink:href="../../d2/d37/_tmp_8h.html" target="_top" xlink:title="Template helper types, structs, and metafunctions. ">
<polygon fill="white" stroke="black" points="328,-112.5 328,-131.5 408,-131.5 408,-112.5 328,-112.5"/>
<text text-anchor="middle" x="368" y="-119.5" font-family="Helvetica,sans-Serif" font-size="10.00">wlib/util/Tmp.h</text>
</a>
</g>
</g>
<!-- Node9&#45;&gt;Node12 -->
<g id="edge18" class="edge"><title>Node9&#45;&gt;Node12</title>
<path fill="none" stroke="midnightblue" d="M523.107,-280.338C537.401,-258.908 569.859,-202.639 543,-168 527.765,-148.352 464.303,-135.783 418.178,-129.059"/>
<polygon fill="midnightblue" stroke="midnightblue" points="418.429,-125.56 408.039,-127.633 417.454,-132.492 418.429,-125.56"/>
</g>
<!-- Node13 -->
<g id="node13" class="node"><title>Node13</title>
<g id="a_node13"><a xlink:href="../../d4/dd5/_type_traits_8h.html" target="_top" xlink:title="Metafunctions for types. ">
<polygon fill="white" stroke="black" points="429.5,-168.5 429.5,-187.5 534.5,-187.5 534.5,-168.5 429.5,-168.5"/>
<text text-anchor="middle" x="482" y="-175.5" font-family="Helvetica,sans-Serif" font-size="10.00">wlib/stl/TypeTraits.h</text>
</a>
</g>
</g>
<!-- Node9&#45;&gt;Node13 -->
<g id="edge16" class="edge"><title>Node9&#45;&gt;Node13</title>
<path fill="none" stroke="midnightblue" d="M514.254,-280.368C508.58,-262.537 495.458,-221.295 487.814,-197.272"/>
<polygon fill="midnightblue" stroke="midnightblue" points="491.101,-196.059 484.734,-187.591 484.43,-198.182 491.101,-196.059"/>
</g>
<!-- Node11 -->
<g id="node11" class="node"><title>Node11</title>
<g id="a_node11"><a xlink:href="../../db/d2a/_utility_8h.html" target="_top" xlink:title="Various helper functions. ">
<polygon fill="white" stroke="black" points="325,-168.5 325,-187.5 411,-187.5 411,-168.5 325,-168.5"/>
<text text-anchor="middle" x="368" y="-175.5" font-family="Helvetica,sans-Serif" font-size="10.00">wlib/util/Utility.h</text>
</a>
</g>
</g>
<!-- Node10&#45;&gt;Node11 -->
<g id="edge13" class="edge"><title>Node10&#45;&gt;Node11</title>
<path fill="none" stroke="midnightblue" d="M416.681,-224.324C408.107,-216.341 395.188,-204.313 384.812,-194.653"/>
<polygon fill="midnightblue" stroke="midnightblue" points="387.192,-192.086 377.488,-187.834 382.422,-197.21 387.192,-192.086"/>
</g>
<!-- Node11&#45;&gt;Node12 -->
<g id="edge14" class="edge"><title>Node11&#45;&gt;Node12</title>
<path fill="none" stroke="midnightblue" d="M368,-168.083C368,-161.006 368,-150.861 368,-141.986"/>
<polygon fill="midnightblue" stroke="midnightblue" points="371.5,-141.751 368,-131.751 364.5,-141.751 371.5,-141.751"/>
</g>
<!-- Node12&#45;&gt;Node4 -->
<g id="edge15" class="edge"><title>Node12&#45;&gt;Node4</title>
<path fill="none" stroke="midnightblue" d="M344.707,-112.444C320.193,-103.438 281.404,-89.1891 253.8,-79.049"/>
<polygon fill="midnightblue" stroke="midnightblue" points="254.777,-75.6793 244.184,-75.5164 252.363,-82.25 254.777,-75.6793"/>
</g>
<!-- Node13&#45;&gt;Node12 -->
<g id="edge17" class="edge"><title>Node13&#45;&gt;Node12</title>
<path fill="none" stroke="midnightblue" d="M463.936,-168.444C445.425,-159.675 416.419,-145.935 395.145,-135.858"/>
<polygon fill="midnightblue" stroke="midnightblue" points="396.515,-132.634 385.979,-131.516 393.518,-138.96 396.515,-132.634"/>
</g>
<!-- Node15&#45;&gt;Node3 -->
<g id="edge22" class="edge"><title>Node15&#45;&gt;Node3</title>
<path fill="none" stroke="midnightblue" d="M309.942,-336.324C324.585,-327.822 347.134,-314.729 364.238,-304.797"/>
<polygon fill="midnightblue" stroke="midnightblue" points="366.205,-307.703 373.095,-299.655 362.69,-301.649 366.205,-307.703"/>
</g>
<!-- Node15&#45;&gt;Node4 -->
<g id="edge23" class="edge"><title>Node15&#45;&gt;Node4</title>
<path fill="none" stroke="midnightblue" d="M289.578,-336.483C279.099,-319.582 256.117,-280.293 245,-244 227.933,-188.28 222.99,-118.987 221.568,-86.0729"/>
<polygon fill="midnightblue" stroke="midnightblue" points="225.051,-85.5504 221.188,-75.6853 218.056,-85.8067 225.051,-85.5504"/>
</g>
<!-- Node15&#45;&gt;Node11 -->
<g id="edge24" class="edge"><title>Node15&#45;&gt;Node11</title>
<path fill="none" stroke="midnightblue" d="M298.925,-336.075C310.465,-309.832 344.453,-232.545 360.033,-197.117"/>
<polygon fill="midnightblue" stroke="midnightblue" points="363.41,-198.131 364.232,-187.568 357.003,-195.313 363.41,-198.131"/>
</g>
<!-- Node15&#45;&gt;Node12 -->
<g id="edge25" class="edge"><title>Node15&#45;&gt;Node12</title>
<path fill="none" stroke="midnightblue" d="M293.923,-336.247C291.03,-309.306 285.255,-225.952 316,-168 322.557,-155.641 334.007,-145.167 344.497,-137.443"/>
<polygon fill="midnightblue" stroke="midnightblue" points="346.702,-140.173 352.954,-131.62 342.733,-134.408 346.702,-140.173"/>
</g>
<!-- Node16 -->
<g id="node16" class="node"><title>Node16</title>
<g id="a_node16"><a xlink:href="../../d9/d8a/_new_8h.html" target="_top" xlink:title="New operators defined for Arduino boards and for other boards use the normal new. ...">
<polygon fill="white" stroke="black" points="141,-280.5 141,-299.5 231,-299.5 231,-280.5 141,-280.5"/>
<text text-anchor="middle" x="186" y="-287.5" font-family="Helvetica,sans-Serif" font-size="10.00">wlib/mem/New.h</text>
</a>
</g>
</g>
<!-- Node15&#45;&gt;Node16 -->
<g id="edge26" class="edge"><title>Node15&#45;&gt;Node16</title>
<path fill="none" stroke="midnightblue" d="M277.487,-336.324C259.928,-327.625 232.669,-314.12 212.469,-304.113"/>
<polygon fill="midnightblue" stroke="midnightblue" points="213.984,-300.958 203.469,-299.655 210.876,-307.23 213.984,-300.958"/>
</g>
</g>
</svg>
        <g id="navigator" transform="translate(0 0)" fill="#404254">
                <rect fill="#f2f5e9" fill-opacity="0.5" stroke="#606060" stroke-width=".5" x="0" y="0" width="60" height="60"/>
                <use id="zoomplus" xlink:href="#zoomPlus" x="17" y="9" onmousedown="handleZoom(evt,'in')"/>
                <use id="zoomminus" xlink:href="#zoomMin" x="42" y="9" onmousedown="handleZoom(evt,'out')"/>
                <use id="reset" xlink:href="#resetDef" x="30" y="36" onmousedown="handleReset()"/>
                <g id="arrowUp" xlink:href="#dirArrow" transform="translate(30 24)" onmousedown="handlePan(0,-1)">
                  <use xlink:href="#rim" fill="#404040">
                        <set attributeName="fill" to="#808080" begin="arrowUp.mouseover" end="arrowUp.mouseout"/>
                  </use>
                  <path fill="none" stroke="white" stroke-width="1.5" d="M0,-3.0v7 M-2.5,-0.5L0,-3.0L2.5,-0.5"/>
                </g>
                <g id="arrowRight" xlink:href="#dirArrow" transform="rotate(90) translate(36 -43)" onmousedown="handlePan(1,0)">
                  <use xlink:href="#rim" fill="#404040">
                        <set attributeName="fill" to="#808080" begin="arrowRight.mouseover" end="arrowRight.mouseout"/>
                  </use>
                  <path fill="none" stroke="white" stroke-width="1.5" d="M0,-3.0v7 M-2.5,-0.5L0,-3.0L2.5,-0.5"/>
                </g>
                <g id="arrowDown" xlink:href="#dirArrow" transform="rotate(180) translate(-30 -48)" onmousedown="handlePan(0,1)">
                  <use xlink:href="#rim" fill="#404040">
                        <set attributeName="fill" to="#808080" begin="arrowDown.mouseover" end="arrowDown.mouseout"/>
                  </use>
                  <path fill="none" stroke="white" stroke-width="1.5" d="M0,-3.0v7 M-2.5,-0.5L0,-3.0L2.5,-0.5"/>
                </g>
                <g id="arrowLeft" xlink:href="#dirArrow" transform="rotate(270) translate(-36 17)" onmousedown="handlePan(-1,0)">
                  <use xlink:href="#rim" fill="#404040">
                        <set attributeName="fill" to="#808080" begin="arrowLeft.mouseover" end="arrowLeft.mouseout"/>
                  </use>
                  <path fill="none" stroke="white" stroke-width="1.5" d="M0,-3.0v7 M-2.5,-0.5L0,-3.0L2.5,-0.5"/>
                </g>
        </g>
        <svg viewBox="0 0 15 15" width="100%" height="30px" preserveAspectRatio="xMaxYMin meet">
         <g id="arrow_out" transform="scale(0.3 0.3)">
          <a xlink:href="_bitset_8h__incl_org.svg" target="_base">
           <rect id="button" ry="5" rx="5" y="6" x="6" height="38" width="38"
                fill="#f2f5e9" fill-opacity="0.5" stroke="#606060" stroke-width="1.0"/>
           <path id="arrow"
             d="M 11.500037,31.436501 C 11.940474,20.09759 22.043105,11.32322 32.158766,21.979434 L 37.068811,17.246167 C 37.068811,17.246167 37.088388,32 37.088388,32 L 22.160133,31.978069 C 22.160133,31.978069 26.997745,27.140456 26.997745,27.140456 C 18.528582,18.264221 13.291696,25.230495 11.500037,31.436501 z"
             style="fill:#404040;"/>
          </a>
         </g>
        </svg>
</svg>
