<?xml version="1.0" encoding="UTF-8" standalone="no"?>
<!DOCTYPE svg PUBLIC "-//W3C//DTD SVG 1.1//EN"
 "http://www.w3.org/Graphics/SVG/1.1/DTD/svg11.dtd">
<!-- Generated by graphviz version 2.36.0 (20140111.2315)
 -->
<!-- Title: wlib/stl/Bitset.h Pages: 1 -->
<svg width="514pt" height="196pt"
 viewBox="0.00 0.00 514.00 196.00" xmlns="http://www.w3.org/2000/svg" xmlns:xlink="http://www.w3.org/1999/xlink">
<g id="graph0" class="graph" transform="scale(1 1) rotate(0) translate(4 192)">
<title>wlib/stl/Bitset.h</title>
<polygon fill="white" stroke="none" points="-4,4 -4,-192 510,-192 510,4 -4,4"/>
<!-- Node1 -->
<g id="node1" class="node"><title>Node1</title>
<polygon fill="#bfbfbf" stroke="black" points="68,-168.5 68,-187.5 152,-187.5 152,-168.5 68,-168.5"/>
<text text-anchor="middle" x="110" y="-175.5" font-family="Helvetica,sans-Serif" font-size="10.00">wlib/stl/Bitset.h</text>
</g>
<!-- Node2 -->
<g id="node2" class="node"><title>Node2</title>
<polygon fill="white" stroke="#bfbfbf" points="34.5,-112.5 34.5,-131.5 81.5,-131.5 81.5,-112.5 34.5,-112.5"/>
<text text-anchor="middle" x="58" y="-119.5" font-family="Helvetica,sans-Serif" font-size="10.00">math.h</text>
</g>
<!-- Node1&#45;&gt;Node2 -->
<g id="edge1" class="edge"><title>Node1&#45;&gt;Node2</title>
<path fill="none" stroke="midnightblue" d="M101.413,-168.083C93.841,-160.22 82.6218,-148.569 73.4856,-139.081"/>
<polygon fill="midnightblue" stroke="midnightblue" points="75.8845,-136.527 66.427,-131.751 70.8423,-141.382 75.8845,-136.527"/>
</g>
<!-- Node3 -->
<g id="node3" class="node"><title>Node3</title>
<polygon fill="white" stroke="#bfbfbf" points="-0.5,-56.5 -0.5,-75.5 48.5,-75.5 48.5,-56.5 -0.5,-56.5"/>
<text text-anchor="middle" x="24" y="-63.5" font-family="Helvetica,sans-Serif" font-size="10.00">string.h</text>
</g>
<!-- Node1&#45;&gt;Node3 -->
<g id="edge2" class="edge"><title>Node1&#45;&gt;Node3</title>
<path fill="none" stroke="midnightblue" d="M109.15,-168.181C107.482,-154.851 102.754,-129.294 90,-112 80.2634,-98.7974 65.4333,-88.188 52.2957,-80.5942"/>
<polygon fill="midnightblue" stroke="midnightblue" points="53.5822,-77.3096 43.1255,-75.6037 50.236,-83.4581 53.5822,-77.3096"/>
</g>
<!-- Node4 -->
<g id="node4" class="node"><title>Node4</title>
<g id="a_node4"><a xlink:href="../../db/db5/_string_8h.html" target="_top" xlink:title="wlib/strings/String.h">
<polygon fill="white" stroke="black" points="153.5,-112.5 153.5,-131.5 256.5,-131.5 256.5,-112.5 153.5,-112.5"/>
<text text-anchor="middle" x="205" y="-119.5" font-family="Helvetica,sans-Serif" font-size="10.00">wlib/strings/String.h</text>
</a>
</g>
</g>
<!-- Node1&#45;&gt;Node4 -->
<g id="edge3" class="edge"><title>Node1&#45;&gt;Node4</title>
<path fill="none" stroke="midnightblue" d="M125.263,-168.324C140.221,-159.822 163.255,-146.729 180.727,-136.797"/>
<polygon fill="midnightblue" stroke="midnightblue" points="182.81,-139.639 189.774,-131.655 179.351,-133.553 182.81,-139.639"/>
</g>
<!-- Node4&#45;&gt;Node3 -->
<g id="edge10" class="edge"><title>Node4&#45;&gt;Node3</title>
<path fill="none" stroke="midnightblue" d="M176.32,-112.444C144.431,-102.93 92.9266,-87.5637 58.768,-77.3728"/>
<polygon fill="midnightblue" stroke="midnightblue" points="59.3481,-73.8935 48.7649,-74.3884 57.3468,-80.6013 59.3481,-73.8935"/>
</g>
<!-- Node5 -->
<g id="node5" class="node"><title>Node5</title>
<g id="a_node5"><a xlink:href="../../de/d0b/_string_iterator_8h.html" target="_top" xlink:title="wlib/strings/StringIterator.h">
<polygon fill="white" stroke="black" points="67,-56.5 67,-75.5 201,-75.5 201,-56.5 67,-56.5"/>
<text text-anchor="middle" x="134" y="-63.5" font-family="Helvetica,sans-Serif" font-size="10.00">wlib/strings/StringIterator.h</text>
</a>
</g>
</g>
<!-- Node4&#45;&gt;Node5 -->
<g id="edge4" class="edge"><title>Node4&#45;&gt;Node5</title>
<path fill="none" stroke="midnightblue" d="M193.593,-112.324C182.891,-104.185 166.659,-91.8395 153.837,-82.0874"/>
<polygon fill="midnightblue" stroke="midnightblue" points="155.693,-79.1018 145.615,-75.8339 151.456,-84.6734 155.693,-79.1018"/>
</g>
<!-- Node7 -->
<g id="node7" class="node"><title>Node7</title>
<polygon fill="white" stroke="#bfbfbf" points="219.5,-56.5 219.5,-75.5 334.5,-75.5 334.5,-56.5 219.5,-56.5"/>
<text text-anchor="middle" x="277" y="-63.5" font-family="Helvetica,sans-Serif" font-size="10.00">wlib/tmp/NullptrType.h</text>
</g>
<!-- Node4&#45;&gt;Node7 -->
<g id="edge6" class="edge"><title>Node4&#45;&gt;Node7</title>
<path fill="none" stroke="midnightblue" d="M216.568,-112.324C227.42,-104.185 243.881,-91.8395 256.883,-82.0874"/>
<polygon fill="midnightblue" stroke="midnightblue" points="259.321,-84.6339 265.221,-75.8339 255.121,-79.0339 259.321,-84.6339"/>
</g>
<!-- Node8 -->
<g id="node8" class="node"><title>Node8</title>
<g id="a_node8"><a xlink:href="../../de/d35/_helper_8h.html" target="_top" xlink:title="wlib/stl/Helper.h">
<polygon fill="white" stroke="black" points="352.5,-56.5 352.5,-75.5 439.5,-75.5 439.5,-56.5 352.5,-56.5"/>
<text text-anchor="middle" x="396" y="-63.5" font-family="Helvetica,sans-Serif" font-size="10.00">wlib/stl/Helper.h</text>
</a>
</g>
</g>
<!-- Node4&#45;&gt;Node8 -->
<g id="edge7" class="edge"><title>Node4&#45;&gt;Node8</title>
<path fill="none" stroke="midnightblue" d="M235.265,-112.444C267.955,-103.201 320.182,-88.4356 356.183,-78.2572"/>
<polygon fill="midnightblue" stroke="midnightblue" points="357.206,-81.6051 365.877,-75.5164 355.302,-74.8691 357.206,-81.6051"/>
</g>
<!-- Node10 -->
<g id="node10" class="node"><title>Node10</title>
<polygon fill="white" stroke="#bfbfbf" points="457.5,-56.5 457.5,-75.5 506.5,-75.5 506.5,-56.5 457.5,-56.5"/>
<text text-anchor="middle" x="482" y="-63.5" font-family="Helvetica,sans-Serif" font-size="10.00">stdint.h</text>
</g>
<!-- Node4&#45;&gt;Node10 -->
<g id="edge9" class="edge"><title>Node4&#45;&gt;Node10</title>
<path fill="none" stroke="midnightblue" d="M256.901,-112.559C304.042,-104.629 375.692,-91.9209 447.099,-76.0628"/>
<polygon fill="midnightblue" stroke="midnightblue" points="448.179,-79.4077 457.171,-73.8044 446.647,-72.5773 448.179,-79.4077"/>
</g>
<!-- Node6 -->
<g id="node6" class="node"><title>Node6</title>
<polygon fill="white" stroke="#bfbfbf" points="108,-0.5 108,-19.5 160,-19.5 160,-0.5 108,-0.5"/>
<text text-anchor="middle" x="134" y="-7.5" font-family="Helvetica,sans-Serif" font-size="10.00">stddef.h</text>
</g>
<!-- Node5&#45;&gt;Node6 -->
<g id="edge5" class="edge"><title>Node5&#45;&gt;Node6</title>
<path fill="none" stroke="midnightblue" d="M134,-56.083C134,-49.0059 134,-38.8611 134,-29.9865"/>
<polygon fill="midnightblue" stroke="midnightblue" points="137.5,-29.751 134,-19.7511 130.5,-29.7511 137.5,-29.751"/>
</g>
<!-- Node9 -->
<g id="node9" class="node"><title>Node9</title>
<polygon fill="white" stroke="#bfbfbf" points="366,-0.5 366,-19.5 426,-19.5 426,-0.5 366,-0.5"/>
<text text-anchor="middle" x="396" y="-7.5" font-family="Helvetica,sans-Serif" font-size="10.00">wlib/utility</text>
</g>
<!-- Node8&#45;&gt;Node9 -->
<g id="edge8" class="edge"><title>Node8&#45;&gt;Node9</title>
<path fill="none" stroke="midnightblue" d="M396,-56.083C396,-49.0059 396,-38.8611 396,-29.9865"/>
<polygon fill="midnightblue" stroke="midnightblue" points="399.5,-29.751 396,-19.7511 392.5,-29.7511 399.5,-29.751"/>
</g>
</g>
</svg>
