<?xml version="1.0" encoding="UTF-8" standalone="no"?>
<!DOCTYPE svg PUBLIC "-//W3C//DTD SVG 1.1//EN"
 "http://www.w3.org/Graphics/SVG/1.1/DTD/svg11.dtd">
<!-- Generated by graphviz version 2.36.0 (20140111.2315)
 -->
<!-- Title: wlib/stl/Vector2D.h Pages: 1 -->
<svg width="185pt" height="84pt"
 viewBox="0.00 0.00 185.00 84.00" xmlns="http://www.w3.org/2000/svg" xmlns:xlink="http://www.w3.org/1999/xlink">
<g id="graph0" class="graph" transform="scale(1 1) rotate(0) translate(4 80)">
<title>wlib/stl/Vector2D.h</title>
<polygon fill="white" stroke="none" points="-4,4 -4,-80 181,-80 181,4 -4,4"/>
<!-- Node1 -->
<g id="node1" class="node"><title>Node1</title>
<polygon fill="#bfbfbf" stroke="black" points="22,-56.5 22,-75.5 122,-75.5 122,-56.5 22,-56.5"/>
<text text-anchor="middle" x="72" y="-63.5" font-family="Helvetica,sans-Serif" font-size="10.00">wlib/stl/Vector2D.h</text>
</g>
<!-- Node2 -->
<g id="node2" class="node"><title>Node2</title>
<polygon fill="white" stroke="#bfbfbf" points="-0.5,-0.5 -0.5,-19.5 46.5,-19.5 46.5,-0.5 -0.5,-0.5"/>
<text text-anchor="middle" x="23" y="-7.5" font-family="Helvetica,sans-Serif" font-size="10.00">math.h</text>
</g>
<!-- Node1&#45;&gt;Node2 -->
<g id="edge1" class="edge"><title>Node1&#45;&gt;Node2</title>
<path fill="none" stroke="midnightblue" d="M63.9086,-56.083C56.8446,-48.2982 46.4124,-36.8015 37.8511,-27.3665"/>
<polygon fill="midnightblue" stroke="midnightblue" points="40.2527,-24.8047 30.9408,-19.7511 35.0688,-29.5087 40.2527,-24.8047"/>
</g>
<!-- Node3 -->
<g id="node3" class="node"><title>Node3</title>
<g id="a_node3"><a xlink:href="../../d6/d22/_initializer_list_8h.html" target="_top" xlink:title="wlib/stl/InitializerList.h">
<polygon fill="white" stroke="black" points="64.5,-0.5 64.5,-19.5 177.5,-19.5 177.5,-0.5 64.5,-0.5"/>
<text text-anchor="middle" x="121" y="-7.5" font-family="Helvetica,sans-Serif" font-size="10.00">wlib/stl/InitializerList.h</text>
</a>
</g>
</g>
<!-- Node1&#45;&gt;Node3 -->
<g id="edge2" class="edge"><title>Node1&#45;&gt;Node3</title>
<path fill="none" stroke="midnightblue" d="M80.0914,-56.083C87.1554,-48.2982 97.5876,-36.8015 106.149,-27.3665"/>
<polygon fill="midnightblue" stroke="midnightblue" points="108.931,-29.5087 113.059,-19.7511 103.747,-24.8047 108.931,-29.5087"/>
</g>
</g>
</svg>
