<?xml version="1.0" encoding="UTF-8" standalone="no"?>
<!DOCTYPE svg PUBLIC "-//W3C//DTD SVG 1.1//EN"
 "http://www.w3.org/Graphics/SVG/1.1/DTD/svg11.dtd">
<!-- Generated by graphviz version 2.36.0 (20140111.2315)
 -->
<!-- Title: wlib/stl/Vector2D.h Pages: 1 -->
<svg width="284pt" height="196pt"
 viewBox="0.00 0.00 284.00 196.00" xmlns="http://www.w3.org/2000/svg" xmlns:xlink="http://www.w3.org/1999/xlink">
<g id="graph0" class="graph" transform="scale(1 1) rotate(0) translate(4 192)">
<title>wlib/stl/Vector2D.h</title>
<polygon fill="white" stroke="none" points="-4,4 -4,-192 280,-192 280,4 -4,4"/>
<!-- Node1 -->
<g id="node1" class="node"><title>Node1</title>
<polygon fill="#bfbfbf" stroke="black" points="71,-168.5 71,-187.5 171,-187.5 171,-168.5 71,-168.5"/>
<text text-anchor="middle" x="121" y="-175.5" font-family="Helvetica,sans-Serif" font-size="10.00">wlib/stl/Vector2D.h</text>
</g>
<!-- Node2 -->
<g id="node2" class="node"><title>Node2</title>
<polygon fill="white" stroke="#bfbfbf" points="-0.5,-112.5 -0.5,-131.5 46.5,-131.5 46.5,-112.5 -0.5,-112.5"/>
<text text-anchor="middle" x="23" y="-119.5" font-family="Helvetica,sans-Serif" font-size="10.00">math.h</text>
</g>
<!-- Node1&#45;&gt;Node2 -->
<g id="edge1" class="edge"><title>Node1&#45;&gt;Node2</title>
<path fill="none" stroke="midnightblue" d="M105.255,-168.324C89.6813,-159.743 65.6227,-146.486 47.5407,-136.522"/>
<polygon fill="midnightblue" stroke="midnightblue" points="49.1539,-133.415 38.7063,-131.655 45.7756,-139.546 49.1539,-133.415"/>
</g>
<!-- Node3 -->
<g id="node3" class="node"><title>Node3</title>
<g id="a_node3"><a xlink:href="../../d6/d22/_initializer_list_8h.html" target="_top" xlink:title="wlib/stl/InitializerList.h">
<polygon fill="white" stroke="black" points="64.5,-112.5 64.5,-131.5 177.5,-131.5 177.5,-112.5 64.5,-112.5"/>
<text text-anchor="middle" x="121" y="-119.5" font-family="Helvetica,sans-Serif" font-size="10.00">wlib/stl/InitializerList.h</text>
</a>
</g>
</g>
<!-- Node1&#45;&gt;Node3 -->
<g id="edge2" class="edge"><title>Node1&#45;&gt;Node3</title>
<path fill="none" stroke="midnightblue" d="M121,-168.083C121,-161.006 121,-150.861 121,-141.986"/>
<polygon fill="midnightblue" stroke="midnightblue" points="124.5,-141.751 121,-131.751 117.5,-141.751 124.5,-141.751"/>
</g>
<!-- Node6 -->
<g id="node6" class="node"><title>Node6</title>
<g id="a_node6"><a xlink:href="../../d2/d37/_tmp_8h.html" target="_top" xlink:title="Template helper types, structs, and metafunctions. ">
<polygon fill="white" stroke="black" points="196,-112.5 196,-131.5 276,-131.5 276,-112.5 196,-112.5"/>
<text text-anchor="middle" x="236" y="-119.5" font-family="Helvetica,sans-Serif" font-size="10.00">wlib/util/Tmp.h</text>
</a>
</g>
</g>
<!-- Node1&#45;&gt;Node6 -->
<g id="edge5" class="edge"><title>Node1&#45;&gt;Node6</title>
<path fill="none" stroke="midnightblue" d="M139.222,-168.444C157.896,-159.675 187.156,-145.935 208.617,-135.858"/>
<polygon fill="midnightblue" stroke="midnightblue" points="210.299,-138.935 217.863,-131.516 207.324,-132.599 210.299,-138.935"/>
</g>
<!-- Node4 -->
<g id="node4" class="node"><title>Node4</title>
<g id="a_node4"><a xlink:href="../../d0/db6/_types_8h.html" target="_top" xlink:title="type definition of all the string types we will be using ">
<polygon fill="white" stroke="black" points="142,-56.5 142,-75.5 214,-75.5 214,-56.5 142,-56.5"/>
<text text-anchor="middle" x="178" y="-63.5" font-family="Helvetica,sans-Serif" font-size="10.00">wlib/Types.h</text>
</a>
</g>
</g>
<!-- Node3&#45;&gt;Node4 -->
<g id="edge3" class="edge"><title>Node3&#45;&gt;Node4</title>
<path fill="none" stroke="midnightblue" d="M130.158,-112.324C138.501,-104.42 151.032,-92.5482 161.177,-82.9377"/>
<polygon fill="midnightblue" stroke="midnightblue" points="163.823,-85.2522 168.675,-75.8339 159.009,-80.1705 163.823,-85.2522"/>
</g>
<!-- Node5 -->
<g id="node5" class="node"><title>Node5</title>
<polygon fill="white" stroke="#bfbfbf" points="153.5,-0.5 153.5,-19.5 202.5,-19.5 202.5,-0.5 153.5,-0.5"/>
<text text-anchor="middle" x="178" y="-7.5" font-family="Helvetica,sans-Serif" font-size="10.00">stdint.h</text>
</g>
<!-- Node4&#45;&gt;Node5 -->
<g id="edge4" class="edge"><title>Node4&#45;&gt;Node5</title>
<path fill="none" stroke="midnightblue" d="M178,-56.083C178,-49.0059 178,-38.8611 178,-29.9865"/>
<polygon fill="midnightblue" stroke="midnightblue" points="181.5,-29.751 178,-19.7511 174.5,-29.7511 181.5,-29.751"/>
</g>
<!-- Node6&#45;&gt;Node4 -->
<g id="edge6" class="edge"><title>Node6&#45;&gt;Node4</title>
<path fill="none" stroke="midnightblue" d="M226.681,-112.324C218.107,-104.341 205.188,-92.3128 194.812,-82.6529"/>
<polygon fill="midnightblue" stroke="midnightblue" points="197.192,-80.0865 187.488,-75.8339 192.422,-85.2098 197.192,-80.0865"/>
</g>
</g>
</svg>
