<?xml version="1.0" encoding="UTF-8" standalone="no"?>
<!DOCTYPE svg PUBLIC "-//W3C//DTD SVG 1.1//EN"
 "http://www.w3.org/Graphics/SVG/1.1/DTD/svg11.dtd">
<!-- Generated by graphviz version 2.38.0 (20140413.2041)
 -->
<!-- Title: wlp::DynamicAllocatorPool&lt; tblockSize, tnumBlocks &gt; Pages: 1 -->
<svg width="430pt" height="207pt"
 viewBox="0.00 0.00 429.50 207.24" xmlns="http://www.w3.org/2000/svg" xmlns:xlink="http://www.w3.org/1999/xlink">
<g id="graph0" class="graph" transform="scale(1 1) rotate(0) translate(4 203.245)">
<title>wlp::DynamicAllocatorPool&lt; tblockSize, tnumBlocks &gt;</title>
<polygon fill="white" stroke="none" points="-4,4 -4,-203.245 425.5,-203.245 425.5,4 -4,4"/>
<!-- Node2 -->
<g id="node1" class="node"><title>Node2</title>
<polygon fill="#bfbfbf" stroke="black" points="112.5,-0.5 112.5,-30.5 250.5,-30.5 250.5,-0.5 112.5,-0.5"/>
<text text-anchor="start" x="120.5" y="-18.5" font-family="Helvetica,sans-Serif" font-size="10.00">wlp::DynamicAllocatorPool</text>
<text text-anchor="middle" x="181.5" y="-7.5" font-family="Helvetica,sans-Serif" font-size="10.00">&lt; tblockSize, tnumBlocks &gt;</text>
</g>
<!-- Node3 -->
<g id="node2" class="node"><title>Node3</title>
<g id="a_node2"><a xlink:href="../../de/d5b/classwlp_1_1_____allocator.html" target="_top" xlink:title="wlp::__Allocator">
<polygon fill="white" stroke="black" points="138.5,-68.5 138.5,-87.5 224.5,-87.5 224.5,-68.5 138.5,-68.5"/>
<text text-anchor="middle" x="181.5" y="-75.5" font-family="Helvetica,sans-Serif" font-size="10.00">wlp::__Allocator</text>
</a>
</g>
</g>
<!-- Node3&#45;&gt;Node2 -->
<g id="edge1" class="edge"><title>Node3&#45;&gt;Node2</title>
<path fill="none" stroke="midnightblue" d="M181.5,-58.2154C181.5,-49.3565 181.5,-38.9577 181.5,-30.7587"/>
<polygon fill="midnightblue" stroke="midnightblue" points="178,-58.3318 181.5,-68.3318 185,-58.3319 178,-58.3318"/>
</g>
<!-- Node4 -->
<g id="node3" class="node"><title>Node4</title>
<polygon fill="white" stroke="#bfbfbf" points="0,-179.5 0,-198.5 51,-198.5 51,-179.5 0,-179.5"/>
<text text-anchor="middle" x="25.5" y="-186.5" font-family="Helvetica,sans-Serif" font-size="10.00">uint16_t</text>
</g>
<!-- Node4&#45;&gt;Node3 -->
<g id="edge2" class="edge"><title>Node4&#45;&gt;Node3</title>
<path fill="none" stroke="#9a32cd" stroke-dasharray="5,2" d="M22.8535,-169.263C21.3638,-150.669 22.368,-122.613 38.5,-106 52.0965,-91.9979 101.367,-85.0626 138.299,-81.7642"/>
<polygon fill="#9a32cd" stroke="#9a32cd" points="19.4008,-169.882 23.9904,-179.431 26.3574,-169.104 19.4008,-169.882"/>
<text text-anchor="middle" x="85" y="-153" font-family="Helvetica,sans-Serif" font-size="10.00"> m_poolCurrBlockCnt</text>
<text text-anchor="middle" x="85" y="-142" font-family="Helvetica,sans-Serif" font-size="10.00">m_poolTotalBlockCnt</text>
<text text-anchor="middle" x="85" y="-131" font-family="Helvetica,sans-Serif" font-size="10.00">m_allocations</text>
<text text-anchor="middle" x="85" y="-120" font-family="Helvetica,sans-Serif" font-size="10.00">m_totalBlockCount</text>
<text text-anchor="middle" x="85" y="-109" font-family="Helvetica,sans-Serif" font-size="10.00">m_deallocations</text>
</g>
<!-- Node5 -->
<g id="node4" class="node"><title>Node5</title>
<polygon fill="white" stroke="#bfbfbf" points="116,-179.5 116,-198.5 167,-198.5 167,-179.5 116,-179.5"/>
<text text-anchor="middle" x="141.5" y="-186.5" font-family="Helvetica,sans-Serif" font-size="10.00">uint32_t</text>
</g>
<!-- Node5&#45;&gt;Node3 -->
<g id="edge3" class="edge"><title>Node5&#45;&gt;Node3</title>
<path fill="none" stroke="#9a32cd" stroke-dasharray="5,2" d="M137.106,-169.443C133.999,-151.998 132.027,-125.695 142.5,-106 146.753,-98.0019 154.552,-91.8921 162.064,-87.5245"/>
<polygon fill="#9a32cd" stroke="#9a32cd" points="133.728,-170.391 139.191,-179.469 140.581,-168.966 133.728,-170.391"/>
<text text-anchor="middle" x="171" y="-136.5" font-family="Helvetica,sans-Serif" font-size="10.00"> m_poolSize</text>
<text text-anchor="middle" x="171" y="-125.5" font-family="Helvetica,sans-Serif" font-size="10.00">m_blockSize</text>
</g>
<!-- Node6 -->
<g id="node5" class="node"><title>Node6</title>
<polygon fill="white" stroke="#bfbfbf" points="202.5,-179.5 202.5,-198.5 240.5,-198.5 240.5,-179.5 202.5,-179.5"/>
<text text-anchor="middle" x="221.5" y="-186.5" font-family="Helvetica,sans-Serif" font-size="10.00">Type</text>
</g>
<!-- Node6&#45;&gt;Node3 -->
<g id="edge4" class="edge"><title>Node6&#45;&gt;Node3</title>
<path fill="none" stroke="#9a32cd" stroke-dasharray="5,2" d="M218.182,-168.753C214.822,-151.739 208.785,-126.511 199.5,-106 196.526,-99.4306 192.026,-92.6806 188.27,-87.5729"/>
<polygon fill="#9a32cd" stroke="#9a32cd" points="214.827,-169.863 220.087,-179.06 221.711,-168.591 214.827,-169.863"/>
<text text-anchor="middle" x="244.5" y="-131" font-family="Helvetica,sans-Serif" font-size="10.00"> m_poolType</text>
</g>
<!-- Node7 -->
<g id="node6" class="node"><title>Node7</title>
<g id="a_node6"><a xlink:href="../../dc/d2a/structwlp_1_1_____allocator_1_1_block.html" target="_top" xlink:title="wlp::__Allocator::Block">
<polygon fill="white" stroke="black" points="258.5,-179.5 258.5,-198.5 374.5,-198.5 374.5,-179.5 258.5,-179.5"/>
<text text-anchor="middle" x="316.5" y="-186.5" font-family="Helvetica,sans-Serif" font-size="10.00">wlp::__Allocator::Block</text>
</a>
</g>
</g>
<!-- Node7&#45;&gt;Node3 -->
<g id="edge5" class="edge"><title>Node7&#45;&gt;Node3</title>
<path fill="none" stroke="#9a32cd" stroke-dasharray="5,2" d="M312.257,-169.673C306.991,-150.993 296.197,-122.488 276.5,-106 262.037,-93.8938 242.463,-87.2064 224.841,-83.5161"/>
<polygon fill="#9a32cd" stroke="#9a32cd" points="308.87,-170.554 314.744,-179.371 315.65,-168.815 308.87,-170.554"/>
<text text-anchor="middle" x="332" y="-136.5" font-family="Helvetica,sans-Serif" font-size="10.00"> m_pHead</text>
<text text-anchor="middle" x="332" y="-125.5" font-family="Helvetica,sans-Serif" font-size="10.00">m_pPool</text>
</g>
<!-- Node7&#45;&gt;Node7 -->
<g id="edge6" class="edge"><title>Node7&#45;&gt;Node7</title>
<path fill="none" stroke="#9a32cd" stroke-dasharray="5,2" d="M362.163,-199.11C378.842,-199.379 392.5,-196.009 392.5,-189 392.5,-180.615 372.955,-177.438 352.074,-179.469"/>
<polygon fill="#9a32cd" stroke="#9a32cd" points="362.258,-195.61 352.074,-198.531 361.857,-202.598 362.258,-195.61"/>
<text text-anchor="middle" x="407" y="-186.5" font-family="Helvetica,sans-Serif" font-size="10.00"> pNext</text>
</g>
</g>
</svg>
