<?xml version="1.0" encoding="UTF-8" standalone="no"?>
<!DOCTYPE svg PUBLIC "-//W3C//DTD SVG 1.1//EN"
 "http://www.w3.org/Graphics/SVG/1.1/DTD/svg11.dtd">
<!-- Generated by graphviz version 2.36.0 (20140111.2315)
 -->
<!-- Title: wlib/exceptions/Exceptions.cpp Pages: 1 -->
<svg width="422pt" height="308pt"
 viewBox="0.00 0.00 422.00 308.00" xmlns="http://www.w3.org/2000/svg" xmlns:xlink="http://www.w3.org/1999/xlink">
<g id="graph0" class="graph" transform="scale(1 1) rotate(0) translate(4 304)">
<title>wlib/exceptions/Exceptions.cpp</title>
<polygon fill="white" stroke="none" points="-4,4 -4,-304 418,-304 418,4 -4,4"/>
<!-- Node1 -->
<g id="node1" class="node"><title>Node1</title>
<polygon fill="#bfbfbf" stroke="black" points="127.5,-280.5 127.5,-299.5 282.5,-299.5 282.5,-280.5 127.5,-280.5"/>
<text text-anchor="middle" x="205" y="-287.5" font-family="Helvetica,sans-Serif" font-size="10.00">wlib/exceptions/Exceptions.cpp</text>
</g>
<!-- Node2 -->
<g id="node2" class="node"><title>Node2</title>
<polygon fill="white" stroke="#bfbfbf" points="79,-224.5 79,-243.5 127,-243.5 127,-224.5 79,-224.5"/>
<text text-anchor="middle" x="103" y="-231.5" font-family="Helvetica,sans-Serif" font-size="10.00">stdlib.h</text>
</g>
<!-- Node1&#45;&gt;Node2 -->
<g id="edge1" class="edge"><title>Node1&#45;&gt;Node2</title>
<path fill="none" stroke="midnightblue" d="M188.612,-280.324C172.329,-271.703 147.133,-258.364 128.284,-248.386"/>
<polygon fill="midnightblue" stroke="midnightblue" points="129.823,-245.24 119.347,-243.655 126.548,-251.427 129.823,-245.24"/>
</g>
<!-- Node3 -->
<g id="node3" class="node"><title>Node3</title>
<g id="a_node3"><a xlink:href="../../d3/de6/_memory_8h.html" target="_top" xlink:title="Memory is a class that provides dynamic fixed size memory. ">
<polygon fill="white" stroke="black" points="145.5,-224.5 145.5,-243.5 264.5,-243.5 264.5,-224.5 145.5,-224.5"/>
<text text-anchor="middle" x="205" y="-231.5" font-family="Helvetica,sans-Serif" font-size="10.00">wlib/memory/Memory.h</text>
</a>
</g>
</g>
<!-- Node1&#45;&gt;Node3 -->
<g id="edge2" class="edge"><title>Node1&#45;&gt;Node3</title>
<path fill="none" stroke="midnightblue" d="M205,-280.083C205,-273.006 205,-262.861 205,-253.986"/>
<polygon fill="midnightblue" stroke="midnightblue" points="208.5,-253.751 205,-243.751 201.5,-253.751 208.5,-253.751"/>
</g>
<!-- Node10 -->
<g id="node10" class="node"><title>Node10</title>
<g id="a_node10"><a xlink:href="../../d7/d2f/_exceptions_8h.html" target="_top" xlink:title="Implementation of Exceptions using C style. ">
<polygon fill="white" stroke="black" points="295,-224.5 295,-243.5 369,-243.5 369,-224.5 295,-224.5"/>
<text text-anchor="middle" x="332" y="-231.5" font-family="Helvetica,sans-Serif" font-size="10.00">Exceptions.h</text>
</a>
</g>
</g>
<!-- Node1&#45;&gt;Node10 -->
<g id="edge11" class="edge"><title>Node1&#45;&gt;Node10</title>
<path fill="none" stroke="midnightblue" d="M225.124,-280.444C246.024,-271.557 278.935,-257.563 302.716,-247.451"/>
<polygon fill="midnightblue" stroke="midnightblue" points="304.138,-250.65 311.971,-243.516 301.398,-244.208 304.138,-250.65"/>
</g>
<!-- Node4 -->
<g id="node4" class="node"><title>Node4</title>
<polygon fill="white" stroke="#bfbfbf" points="-0.5,-168.5 -0.5,-187.5 48.5,-187.5 48.5,-168.5 -0.5,-168.5"/>
<text text-anchor="middle" x="24" y="-175.5" font-family="Helvetica,sans-Serif" font-size="10.00">string.h</text>
</g>
<!-- Node3&#45;&gt;Node4 -->
<g id="edge3" class="edge"><title>Node3&#45;&gt;Node4</title>
<path fill="none" stroke="midnightblue" d="M176.32,-224.444C144.431,-214.93 92.9266,-199.564 58.768,-189.373"/>
<polygon fill="midnightblue" stroke="midnightblue" points="59.3481,-185.893 48.7649,-186.388 57.3468,-192.601 59.3481,-185.893"/>
</g>
<!-- Node5 -->
<g id="node5" class="node"><title>Node5</title>
<g id="a_node5"><a xlink:href="../../db/d2a/_utility_8h.html" target="_top" xlink:title="Various helper functions. ">
<polygon fill="white" stroke="black" points="66.5,-168.5 66.5,-187.5 163.5,-187.5 163.5,-168.5 66.5,-168.5"/>
<text text-anchor="middle" x="115" y="-175.5" font-family="Helvetica,sans-Serif" font-size="10.00">wlib/utility/Utility.h</text>
</a>
</g>
</g>
<!-- Node3&#45;&gt;Node5 -->
<g id="edge4" class="edge"><title>Node3&#45;&gt;Node5</title>
<path fill="none" stroke="midnightblue" d="M190.54,-224.324C176.5,-215.9 154.952,-202.971 138.457,-193.074"/>
<polygon fill="midnightblue" stroke="midnightblue" points="139.8,-189.798 129.424,-187.655 136.198,-195.801 139.8,-189.798"/>
</g>
<!-- Node6 -->
<g id="node6" class="node"><title>Node6</title>
<g id="a_node6"><a xlink:href="../../d2/d37/_tmp_8h.html" target="_top" xlink:title="Template helper types, structs, and metafunctions. ">
<polygon fill="white" stroke="black" points="158,-112.5 158,-131.5 202,-131.5 202,-112.5 158,-112.5"/>
<text text-anchor="middle" x="180" y="-119.5" font-family="Helvetica,sans-Serif" font-size="10.00">Tmp.h</text>
</a>
</g>
</g>
<!-- Node3&#45;&gt;Node6 -->
<g id="edge9" class="edge"><title>Node3&#45;&gt;Node6</title>
<path fill="none" stroke="midnightblue" d="M203.038,-224.368C199.004,-206.617 189.697,-165.666 184.227,-141.597"/>
<polygon fill="midnightblue" stroke="midnightblue" points="187.582,-140.567 181.953,-131.591 180.756,-142.118 187.582,-140.567"/>
</g>
<!-- Node7 -->
<g id="node7" class="node"><title>Node7</title>
<g id="a_node7"><a xlink:href="../../d0/db6/_types_8h.html" target="_top" xlink:title="type definition of all the string types we will be using ">
<polygon fill="white" stroke="black" points="194,-56.5 194,-75.5 266,-75.5 266,-56.5 194,-56.5"/>
<text text-anchor="middle" x="230" y="-63.5" font-family="Helvetica,sans-Serif" font-size="10.00">wlib/Types.h</text>
</a>
</g>
</g>
<!-- Node3&#45;&gt;Node7 -->
<g id="edge8" class="edge"><title>Node3&#45;&gt;Node7</title>
<path fill="none" stroke="midnightblue" d="M206.344,-224.075C210.279,-197.945 221.836,-121.211 227.202,-85.577"/>
<polygon fill="midnightblue" stroke="midnightblue" points="230.681,-85.9779 228.71,-75.5681 223.759,-84.9353 230.681,-85.9779"/>
</g>
<!-- Node9 -->
<g id="node9" class="node"><title>Node9</title>
<g id="a_node9"><a xlink:href="../../d9/d8a/_new_8h.html" target="_top" xlink:title="New operators defined for Arduino boards and for other boards use the normal new. ...">
<polygon fill="white" stroke="black" points="258.5,-168.5 258.5,-187.5 303.5,-187.5 303.5,-168.5 258.5,-168.5"/>
<text text-anchor="middle" x="281" y="-175.5" font-family="Helvetica,sans-Serif" font-size="10.00">New.h</text>
</a>
</g>
</g>
<!-- Node3&#45;&gt;Node9 -->
<g id="edge10" class="edge"><title>Node3&#45;&gt;Node9</title>
<path fill="none" stroke="midnightblue" d="M217.211,-224.324C228.776,-216.107 246.375,-203.602 260.161,-193.807"/>
<polygon fill="midnightblue" stroke="midnightblue" points="262.443,-196.479 268.567,-187.834 258.388,-190.773 262.443,-196.479"/>
</g>
<!-- Node5&#45;&gt;Node6 -->
<g id="edge5" class="edge"><title>Node5&#45;&gt;Node6</title>
<path fill="none" stroke="midnightblue" d="M125.443,-168.324C135.146,-160.263 149.815,-148.077 161.5,-138.369"/>
<polygon fill="midnightblue" stroke="midnightblue" points="163.911,-140.916 169.367,-131.834 159.438,-135.532 163.911,-140.916"/>
</g>
<!-- Node6&#45;&gt;Node7 -->
<g id="edge6" class="edge"><title>Node6&#45;&gt;Node7</title>
<path fill="none" stroke="midnightblue" d="M188.256,-112.083C195.465,-104.298 206.11,-92.8015 214.846,-83.3665"/>
<polygon fill="midnightblue" stroke="midnightblue" points="217.671,-85.4666 221.897,-75.7511 212.535,-80.7108 217.671,-85.4666"/>
</g>
<!-- Node8 -->
<g id="node8" class="node"><title>Node8</title>
<polygon fill="white" stroke="#bfbfbf" points="205.5,-0.5 205.5,-19.5 254.5,-19.5 254.5,-0.5 205.5,-0.5"/>
<text text-anchor="middle" x="230" y="-7.5" font-family="Helvetica,sans-Serif" font-size="10.00">stdint.h</text>
</g>
<!-- Node7&#45;&gt;Node8 -->
<g id="edge7" class="edge"><title>Node7&#45;&gt;Node8</title>
<path fill="none" stroke="midnightblue" d="M230,-56.083C230,-49.0059 230,-38.8611 230,-29.9865"/>
<polygon fill="midnightblue" stroke="midnightblue" points="233.5,-29.751 230,-19.7511 226.5,-29.7511 233.5,-29.751"/>
</g>
<!-- Node10&#45;&gt;Node7 -->
<g id="edge13" class="edge"><title>Node10&#45;&gt;Node7</title>
<path fill="none" stroke="midnightblue" d="M330.404,-224.173C327.829,-211.267 322.006,-186.749 312,-168 294.135,-134.524 264.403,-101.488 246.074,-82.7317"/>
<polygon fill="midnightblue" stroke="midnightblue" points="248.519,-80.2271 238.984,-75.6078 243.557,-85.1649 248.519,-80.2271"/>
</g>
<!-- Node11 -->
<g id="node11" class="node"><title>Node11</title>
<polygon fill="white" stroke="#bfbfbf" points="360,-168.5 360,-187.5 414,-187.5 414,-168.5 360,-168.5"/>
<text text-anchor="middle" x="387" y="-175.5" font-family="Helvetica,sans-Serif" font-size="10.00">setjmp.h</text>
</g>
<!-- Node10&#45;&gt;Node11 -->
<g id="edge12" class="edge"><title>Node10&#45;&gt;Node11</title>
<path fill="none" stroke="midnightblue" d="M341.082,-224.083C349.171,-216.141 361.195,-204.335 370.91,-194.797"/>
<polygon fill="midnightblue" stroke="midnightblue" points="373.403,-197.254 378.087,-187.751 368.499,-192.26 373.403,-197.254"/>
</g>
</g>
</svg>
