<?xml version="1.0" encoding="UTF-8" standalone="no"?>
<!DOCTYPE svg PUBLIC "-//W3C//DTD SVG 1.1//EN"
 "http://www.w3.org/Graphics/SVG/1.1/DTD/svg11.dtd">
<!-- Generated by graphviz version 2.36.0 (20140111.2315)
 -->
<!-- Title: exceptions/Exceptions.cpp Pages: 1 -->
<svg width="423pt" height="308pt"
 viewBox="0.00 0.00 423.47 308.00" xmlns="http://www.w3.org/2000/svg" xmlns:xlink="http://www.w3.org/1999/xlink">
<g id="graph0" class="graph" transform="scale(1 1) rotate(0) translate(4 304)">
<title>exceptions/Exceptions.cpp</title>
<polygon fill="white" stroke="none" points="-4,4 -4,-304 419.466,-304 419.466,4 -4,4"/>
<!-- Node1 -->
<g id="node1" class="node"><title>Node1</title>
<polygon fill="#bfbfbf" stroke="black" points="119.466,-280.5 119.466,-299.5 253.466,-299.5 253.466,-280.5 119.466,-280.5"/>
<text text-anchor="middle" x="186.466" y="-287.5" font-family="Helvetica,sans-Serif" font-size="10.00">exceptions/Exceptions.cpp</text>
</g>
<!-- Node2 -->
<g id="node2" class="node"><title>Node2</title>
<polygon fill="white" stroke="#bfbfbf" points="19.466,-112.5 19.466,-131.5 67.466,-131.5 67.466,-112.5 19.466,-112.5"/>
<text text-anchor="middle" x="43.466" y="-119.5" font-family="Helvetica,sans-Serif" font-size="10.00">stdlib.h</text>
</g>
<!-- Node1&#45;&gt;Node2 -->
<g id="edge1" class="edge"><title>Node1&#45;&gt;Node2</title>
<path fill="none" stroke="midnightblue" d="M149.002,-280.45C105.234,-268.233 34.825,-241.125 3.46601,-188 -6.7067,-170.766 9.04608,-151.243 23.6748,-138.131"/>
<polygon fill="midnightblue" stroke="midnightblue" points="26.0981,-140.666 31.5144,-131.56 21.6019,-135.301 26.0981,-140.666"/>
</g>
<!-- Node3 -->
<g id="node3" class="node"><title>Node3</title>
<g id="a_node3"><a xlink:href="../../d3/de6/_memory_8h.html" target="_top" xlink:title="Memory is a class that provides dynamic fixed size memory. ">
<polygon fill="white" stroke="black" points="132.966,-224.5 132.966,-243.5 239.966,-243.5 239.966,-224.5 132.966,-224.5"/>
<text text-anchor="middle" x="186.466" y="-231.5" font-family="Helvetica,sans-Serif" font-size="10.00">../memory/Memory.h</text>
</a>
</g>
</g>
<!-- Node1&#45;&gt;Node3 -->
<g id="edge2" class="edge"><title>Node1&#45;&gt;Node3</title>
<path fill="none" stroke="midnightblue" d="M186.466,-280.083C186.466,-273.006 186.466,-262.861 186.466,-253.986"/>
<polygon fill="midnightblue" stroke="midnightblue" points="189.966,-253.751 186.466,-243.751 182.966,-253.751 189.966,-253.751"/>
</g>
<!-- Node10 -->
<g id="node10" class="node"><title>Node10</title>
<g id="a_node10"><a xlink:href="../../d7/d2f/_exceptions_8h.html" target="_top" xlink:title="Implementation of Exceptions using C style. ">
<polygon fill="white" stroke="black" points="296.466,-224.5 296.466,-243.5 370.466,-243.5 370.466,-224.5 296.466,-224.5"/>
<text text-anchor="middle" x="333.466" y="-231.5" font-family="Helvetica,sans-Serif" font-size="10.00">Exceptions.h</text>
</a>
</g>
</g>
<!-- Node1&#45;&gt;Node10 -->
<g id="edge12" class="edge"><title>Node1&#45;&gt;Node10</title>
<path fill="none" stroke="midnightblue" d="M209.759,-280.444C234.273,-271.438 273.062,-257.189 300.666,-247.049"/>
<polygon fill="midnightblue" stroke="midnightblue" points="302.103,-250.25 310.282,-243.516 299.689,-243.679 302.103,-250.25"/>
</g>
<!-- Node4 -->
<g id="node4" class="node"><title>Node4</title>
<polygon fill="white" stroke="#bfbfbf" points="12.966,-168.5 12.966,-187.5 61.966,-187.5 61.966,-168.5 12.966,-168.5"/>
<text text-anchor="middle" x="37.466" y="-175.5" font-family="Helvetica,sans-Serif" font-size="10.00">string.h</text>
</g>
<!-- Node3&#45;&gt;Node4 -->
<g id="edge3" class="edge"><title>Node3&#45;&gt;Node4</title>
<path fill="none" stroke="midnightblue" d="M162.857,-224.444C138.008,-215.438 98.6916,-201.189 70.7124,-191.049"/>
<polygon fill="midnightblue" stroke="midnightblue" points="71.5592,-187.633 60.965,-187.516 69.1741,-194.214 71.5592,-187.633"/>
</g>
<!-- Node5 -->
<g id="node5" class="node"><title>Node5</title>
<g id="a_node5"><a xlink:href="../../db/d2a/_utility_8h.html" target="_top" xlink:title="Various helper functions. ">
<polygon fill="white" stroke="black" points="143.466,-168.5 143.466,-187.5 229.466,-187.5 229.466,-168.5 143.466,-168.5"/>
<text text-anchor="middle" x="186.466" y="-175.5" font-family="Helvetica,sans-Serif" font-size="10.00">../utility/Utility.h</text>
</a>
</g>
</g>
<!-- Node3&#45;&gt;Node5 -->
<g id="edge4" class="edge"><title>Node3&#45;&gt;Node5</title>
<path fill="none" stroke="midnightblue" d="M186.466,-224.083C186.466,-217.006 186.466,-206.861 186.466,-197.986"/>
<polygon fill="midnightblue" stroke="midnightblue" points="189.966,-197.751 186.466,-187.751 182.966,-197.751 189.966,-197.751"/>
</g>
<!-- Node6 -->
<g id="node6" class="node"><title>Node6</title>
<g id="a_node6"><a xlink:href="../../d2/d37/_tmp_8h.html" target="_top" xlink:title="Template helper types, structs, and metafunctions. ">
<polygon fill="white" stroke="black" points="223.466,-112.5 223.466,-131.5 267.466,-131.5 267.466,-112.5 223.466,-112.5"/>
<text text-anchor="middle" x="245.466" y="-119.5" font-family="Helvetica,sans-Serif" font-size="10.00">Tmp.h</text>
</a>
</g>
</g>
<!-- Node3&#45;&gt;Node6 -->
<g id="edge9" class="edge"><title>Node3&#45;&gt;Node6</title>
<path fill="none" stroke="midnightblue" d="M201.556,-224.404C213.734,-216.588 230.159,-203.865 238.466,-188 245.952,-173.703 247.282,-155.236 246.984,-141.641"/>
<polygon fill="midnightblue" stroke="midnightblue" points="250.475,-141.368 246.451,-131.566 243.485,-141.737 250.475,-141.368"/>
</g>
<!-- Node7 -->
<g id="node7" class="node"><title>Node7</title>
<g id="a_node7"><a xlink:href="../../d0/db6/_types_8h.html" target="_top" xlink:title="type definition of all the string types we will be using ">
<polygon fill="white" stroke="black" points="264.966,-56.5 264.966,-75.5 325.966,-75.5 325.966,-56.5 264.966,-56.5"/>
<text text-anchor="middle" x="295.466" y="-63.5" font-family="Helvetica,sans-Serif" font-size="10.00">../Types.h</text>
</a>
</g>
</g>
<!-- Node3&#45;&gt;Node7 -->
<g id="edge8" class="edge"><title>Node3&#45;&gt;Node7</title>
<path fill="none" stroke="midnightblue" d="M206.938,-224.421C222.537,-216.92 243.479,-204.621 256.466,-188 280.506,-157.233 289.945,-111.207 293.482,-85.7029"/>
<polygon fill="midnightblue" stroke="midnightblue" points="296.983,-85.9087 294.724,-75.5576 290.035,-85.0584 296.983,-85.9087"/>
</g>
<!-- Node9 -->
<g id="node9" class="node"><title>Node9</title>
<g id="a_node9"><a xlink:href="../../d9/d8a/_new_8h.html" target="_top" xlink:title="New operators defined for Arduino boards and for other boards use the normal new. ...">
<polygon fill="white" stroke="black" points="79.966,-168.5 79.966,-187.5 124.966,-187.5 124.966,-168.5 79.966,-168.5"/>
<text text-anchor="middle" x="102.466" y="-175.5" font-family="Helvetica,sans-Serif" font-size="10.00">New.h</text>
</a>
</g>
</g>
<!-- Node3&#45;&gt;Node9 -->
<g id="edge10" class="edge"><title>Node3&#45;&gt;Node9</title>
<path fill="none" stroke="midnightblue" d="M172.97,-224.324C159.866,-215.9 139.754,-202.971 124.359,-193.074"/>
<polygon fill="midnightblue" stroke="midnightblue" points="126.233,-190.118 115.929,-187.655 122.448,-196.006 126.233,-190.118"/>
</g>
<!-- Node5&#45;&gt;Node6 -->
<g id="edge5" class="edge"><title>Node5&#45;&gt;Node6</title>
<path fill="none" stroke="midnightblue" d="M195.945,-168.324C204.667,-160.341 217.809,-148.313 228.364,-138.653"/>
<polygon fill="midnightblue" stroke="midnightblue" points="230.8,-141.167 235.814,-131.834 226.074,-136.004 230.8,-141.167"/>
</g>
<!-- Node6&#45;&gt;Node7 -->
<g id="edge6" class="edge"><title>Node6&#45;&gt;Node7</title>
<path fill="none" stroke="midnightblue" d="M253.722,-112.083C260.931,-104.298 271.576,-92.8015 280.312,-83.3665"/>
<polygon fill="midnightblue" stroke="midnightblue" points="283.137,-85.4666 287.363,-75.7511 278.001,-80.7108 283.137,-85.4666"/>
</g>
<!-- Node8 -->
<g id="node8" class="node"><title>Node8</title>
<polygon fill="white" stroke="#bfbfbf" points="270.966,-0.5 270.966,-19.5 319.966,-19.5 319.966,-0.5 270.966,-0.5"/>
<text text-anchor="middle" x="295.466" y="-7.5" font-family="Helvetica,sans-Serif" font-size="10.00">stdint.h</text>
</g>
<!-- Node7&#45;&gt;Node8 -->
<g id="edge7" class="edge"><title>Node7&#45;&gt;Node8</title>
<path fill="none" stroke="midnightblue" d="M295.466,-56.083C295.466,-49.0059 295.466,-38.8611 295.466,-29.9865"/>
<polygon fill="midnightblue" stroke="midnightblue" points="298.966,-29.751 295.466,-19.7511 291.966,-29.7511 298.966,-29.751"/>
</g>
<!-- Node9&#45;&gt;Node2 -->
<g id="edge11" class="edge"><title>Node9&#45;&gt;Node2</title>
<path fill="none" stroke="midnightblue" d="M92.9866,-168.324C84.2649,-160.341 71.1225,-148.313 60.5682,-138.653"/>
<polygon fill="midnightblue" stroke="midnightblue" points="62.8577,-136.004 53.1179,-131.834 58.1316,-141.167 62.8577,-136.004"/>
</g>
<!-- Node10&#45;&gt;Node7 -->
<g id="edge14" class="edge"><title>Node10&#45;&gt;Node7</title>
<path fill="none" stroke="midnightblue" d="M332.086,-224.422C328.814,-204.52 320.062,-153.722 309.466,-112 307.197,-103.067 304.215,-93.2835 301.586,-85.1268"/>
<polygon fill="midnightblue" stroke="midnightblue" points="304.882,-83.9477 298.423,-75.5497 298.235,-86.1429 304.882,-83.9477"/>
</g>
<!-- Node11 -->
<g id="node11" class="node"><title>Node11</title>
<polygon fill="white" stroke="#bfbfbf" points="361.466,-168.5 361.466,-187.5 415.466,-187.5 415.466,-168.5 361.466,-168.5"/>
<text text-anchor="middle" x="388.466" y="-175.5" font-family="Helvetica,sans-Serif" font-size="10.00">setjmp.h</text>
</g>
<!-- Node10&#45;&gt;Node11 -->
<g id="edge13" class="edge"><title>Node10&#45;&gt;Node11</title>
<path fill="none" stroke="midnightblue" d="M342.548,-224.083C350.637,-216.141 362.661,-204.335 372.376,-194.797"/>
<polygon fill="midnightblue" stroke="midnightblue" points="374.869,-197.254 379.553,-187.751 369.965,-192.26 374.869,-197.254"/>
</g>
</g>
</svg>
