<?xml version="1.0" encoding="UTF-8" standalone="no"?>
<!DOCTYPE svg PUBLIC "-//W3C//DTD SVG 1.1//EN"
 "http://www.w3.org/Graphics/SVG/1.1/DTD/svg11.dtd">
<!-- Generated by graphviz version 2.36.0 (20140111.2315)
 -->
<!-- Title: wlp::HashTableIterator&lt; Element, Key, Val, Ref, Ptr, GetKey, GetVal, Hasher, Equals &gt; Pages: 1 -->
<!--zoomable 279 -->
<svg id="main" version="1.1" xmlns="http://www.w3.org/2000/svg" xmlns:xlink="http://www.w3.org/1999/xlink" xml:space="preserve" onload="init(evt)">
<style type="text/css"><![CDATA[
.edge:hover path { stroke: red; }
.edge:hover polygon { stroke: red; fill: red; }
]]></style>
<script type="text/javascript"><![CDATA[
var edges = document.getElementsByTagName('g');
if (edges && edges.length) {
  for (var i=0;i<edges.length;i++) {
    if (edges[i].id.substr(0,4)=='edge') {
      edges[i].setAttribute('class','edge');
    }
  }
}
]]></script>
        <defs>
                <circle id="rim" cx="0" cy="0" r="7"/>
                <circle id="rim2" cx="0" cy="0" r="3.5"/>
                <g id="zoomPlus">
                        <use xlink:href="#rim" fill="#404040">
                                <set attributeName="fill" to="#808080" begin="zoomplus.mouseover" end="zoomplus.mouseout"/>
                        </use>
                        <path d="M-4,0h8M0,-4v8" fill="none" stroke="white" stroke-width="1.5" pointer-events="none"/>
                </g>
                <g id="zoomMin">
                        <use xlink:href="#rim" fill="#404040">
                                <set attributeName="fill" to="#808080" begin="zoomminus.mouseover" end="zoomminus.mouseout"/>
                        </use>
                        <path d="M-4,0h8" fill="none" stroke="white" stroke-width="1.5" pointer-events="none"/>
                </g>
                <g id="dirArrow">
                        <path fill="none" stroke="white" stroke-width="1.5" d="M0,-3.0v7 M-2.5,-0.5L0,-3.0L2.5,-0.5"/>
                </g>
               <g id="resetDef">
                       <use xlink:href="#rim2" fill="#404040">
                               <set attributeName="fill" to="#808080" begin="reset.mouseover" end="reset.mouseout"/>
                       </use>
               </g>
        </defs>

<script type="text/javascript">
var viewWidth = 752;
var viewHeight = 279;
var sectionId = 'dynsection-0';
</script>
<script xlink:href="../../svgpan.js"/>
<svg id="graph" class="graph">
<g id="viewport">
<title>wlp::HashTableIterator&lt; Element, Key, Val, Ref, Ptr, GetKey, GetVal, Hasher, Equals &gt;</title>
<polygon fill="white" stroke="none" points="-4,4 -4,-275 748,-275 748,4 -4,4"/>
<!-- Node1 -->
<g id="node1" class="node"><title>Node1</title>
<polygon fill="#bfbfbf" stroke="black" points="596,-184 596,-236 744,-236 744,-184 596,-184"/>
<text text-anchor="start" x="604" y="-224" font-family="Helvetica,sans-Serif" font-size="10.00">wlp::HashTableIterator</text>
<text text-anchor="start" x="604" y="-213" font-family="Helvetica,sans-Serif" font-size="10.00">&lt; Element, Key, Val, Ref,</text>
<text text-anchor="start" x="604" y="-202" font-family="Helvetica,sans-Serif" font-size="10.00"> Ptr, GetKey, GetVal, Hasher,</text>
<text text-anchor="middle" x="670" y="-191" font-family="Helvetica,sans-Serif" font-size="10.00"> Equals &gt;</text>
</g>
<!-- Node2 -->
<g id="node2" class="node"><title>Node2</title>
<polygon fill="white" stroke="#bfbfbf" points="171,-243.5 171,-262.5 221,-262.5 221,-243.5 171,-243.5"/>
<text text-anchor="middle" x="196" y="-250.5" font-family="Helvetica,sans-Serif" font-size="10.00">GetKey</text>
</g>
<!-- Node2&#45;&gt;Node1 -->
<g id="edge1" class="edge"><title>Node2&#45;&gt;Node1</title>
<path fill="none" stroke="#9a32cd" stroke-dasharray="5,2" d="M231.041,-255.695C298.301,-260.14 452.579,-265.954 578,-238 583.808,-236.705 589.782,-235.221 595.761,-233.626"/>
<polygon fill="#9a32cd" stroke="#9a32cd" points="231.23,-252.2 221.012,-254.999 230.745,-259.183 231.23,-252.2"/>
<text text-anchor="middle" x="432" y="-263" font-family="Helvetica,sans-Serif" font-size="10.00"> m_get_key</text>
</g>
<!-- Node6 -->
<g id="node6" class="node"><title>Node6</title>
<g id="a_node6"><a xlink:href="../../dc/d42/classwlp_1_1hash__table.html" target="_top" xlink:title="wlp::hash_table\&lt; Element,\l Key, Val, GetKey, GetVal,\l Hasher, Equals \&gt;">
<polygon fill="white" stroke="black" points="364.5,-99.5 364.5,-140.5 499.5,-140.5 499.5,-99.5 364.5,-99.5"/>
<text text-anchor="start" x="372.5" y="-128.5" font-family="Helvetica,sans-Serif" font-size="10.00">wlp::hash_table&lt; Element,</text>
<text text-anchor="start" x="372.5" y="-117.5" font-family="Helvetica,sans-Serif" font-size="10.00"> Key, Val, GetKey, GetVal,</text>
<text text-anchor="middle" x="432" y="-106.5" font-family="Helvetica,sans-Serif" font-size="10.00"> Hasher, Equals &gt;</text>
</a>
</g>
</g>
<!-- Node2&#45;&gt;Node6 -->
<g id="edge8" class="edge"><title>Node2&#45;&gt;Node6</title>
<path fill="none" stroke="#9a32cd" stroke-dasharray="5,2" d="M228.495,-239.233C235.618,-235.983 243.11,-232.455 250,-229 293.566,-207.153 304.286,-201.204 346,-176 364.604,-164.76 384.953,-151.393 401.076,-140.538"/>
<polygon fill="#9a32cd" stroke="#9a32cd" points="226.785,-236.165 219.102,-243.461 229.658,-242.548 226.785,-236.165"/>
<text text-anchor="middle" x="307" y="-223" font-family="Helvetica,sans-Serif" font-size="10.00"> m_get_key</text>
</g>
<!-- Node3 -->
<g id="node3" class="node"><title>Node3</title>
<polygon fill="white" stroke="#bfbfbf" points="408.5,-220.5 408.5,-239.5 455.5,-239.5 455.5,-220.5 408.5,-220.5"/>
<text text-anchor="middle" x="432" y="-227.5" font-family="Helvetica,sans-Serif" font-size="10.00">GetVal</text>
</g>
<!-- Node3&#45;&gt;Node1 -->
<g id="edge2" class="edge"><title>Node3&#45;&gt;Node1</title>
<path fill="none" stroke="#9a32cd" stroke-dasharray="5,2" d="M465.771,-227.223C499.248,-224.386 552.344,-219.886 595.87,-216.197"/>
<polygon fill="#9a32cd" stroke="#9a32cd" points="465.297,-223.75 455.629,-228.082 465.889,-230.725 465.297,-223.75"/>
<text text-anchor="middle" x="548" y="-226" font-family="Helvetica,sans-Serif" font-size="10.00"> m_get_value</text>
</g>
<!-- Node4 -->
<g id="node4" class="node"><title>Node4</title>
<g id="a_node4"><a xlink:href="../../dd/d94/structwlp_1_1_hash_table_node.html" target="_top" xlink:title="wlp::HashTableNode\l\&lt; Element \&gt;">
<polygon fill="white" stroke="black" points="142,-161 142,-191 250,-191 250,-161 142,-161"/>
<text text-anchor="start" x="150" y="-179" font-family="Helvetica,sans-Serif" font-size="10.00">wlp::HashTableNode</text>
<text text-anchor="middle" x="196" y="-168" font-family="Helvetica,sans-Serif" font-size="10.00">&lt; Element &gt;</text>
</a>
</g>
</g>
<!-- Node4&#45;&gt;Node1 -->
<g id="edge3" class="edge"><title>Node4&#45;&gt;Node1</title>
<path fill="none" stroke="#9a32cd" stroke-dasharray="5,2" d="M260.239,-180.555C347.349,-186.83 503.903,-198.107 595.919,-204.736"/>
<polygon fill="#9a32cd" stroke="#9a32cd" points="260.453,-177.062 250.227,-179.834 259.95,-184.044 260.453,-177.062"/>
<text text-anchor="middle" x="432" y="-201" font-family="Helvetica,sans-Serif" font-size="10.00"> m_node</text>
</g>
<!-- Node4&#45;&gt;Node4 -->
<g id="edge5" class="edge"><title>Node4&#45;&gt;Node4</title>
<path fill="none" stroke="#9a32cd" stroke-dasharray="5,2" d="M178.846,-201.598C181.19,-205.97 186.908,-209 196,-209 211.312,-209 217.055,-200.406 213.227,-191.275"/>
<polygon fill="#9a32cd" stroke="#9a32cd" points="182.344,-201.25 178.773,-191.275 175.344,-201.3 182.344,-201.25"/>
<text text-anchor="middle" x="196" y="-212" font-family="Helvetica,sans-Serif" font-size="10.00"> m_next</text>
</g>
<!-- Node4&#45;&gt;Node6 -->
<g id="edge11" class="edge"><title>Node4&#45;&gt;Node6</title>
<path fill="none" stroke="#9a32cd" stroke-dasharray="5,2" d="M260.177,-162.685C286.743,-156.911 317.939,-149.9 346,-143 351.938,-141.54 358.096,-139.974 364.259,-138.372"/>
<polygon fill="#9a32cd" stroke="#9a32cd" points="259.272,-159.3 250.238,-164.835 260.752,-166.141 259.272,-159.3"/>
<text text-anchor="middle" x="307" y="-164" font-family="Helvetica,sans-Serif" font-size="10.00"> m_buckets</text>
</g>
<!-- Node5 -->
<g id="node5" class="node"><title>Node5</title>
<polygon fill="white" stroke="#bfbfbf" points="0.5,-166.5 0.5,-185.5 53.5,-185.5 53.5,-166.5 0.5,-166.5"/>
<text text-anchor="middle" x="27" y="-173.5" font-family="Helvetica,sans-Serif" font-size="10.00">Element</text>
</g>
<!-- Node5&#45;&gt;Node4 -->
<g id="edge4" class="edge"><title>Node5&#45;&gt;Node4</title>
<path fill="none" stroke="#9a32cd" stroke-dasharray="5,2" d="M63.9563,-176C86.698,-176 116.496,-176 141.931,-176"/>
<polygon fill="#9a32cd" stroke="#9a32cd" points="63.7278,-172.5 53.7278,-176 63.7277,-179.5 63.7278,-172.5"/>
<text text-anchor="middle" x="98" y="-179" font-family="Helvetica,sans-Serif" font-size="10.00"> m_element</text>
</g>
<!-- Node6&#45;&gt;Node1 -->
<g id="edge6" class="edge"><title>Node6&#45;&gt;Node1</title>
<path fill="none" stroke="#9a32cd" stroke-dasharray="5,2" d="M509.514,-142.022C531.826,-149.047 556.091,-157.28 578,-166 591.207,-171.256 605.166,-177.591 618.08,-183.796"/>
<polygon fill="#9a32cd" stroke="#9a32cd" points="510.339,-138.613 499.75,-138.985 508.259,-145.297 510.339,-138.613"/>
<text text-anchor="middle" x="548" y="-169" font-family="Helvetica,sans-Serif" font-size="10.00"> m_table</text>
</g>
<!-- Node7 -->
<g id="node7" class="node"><title>Node7</title>
<polygon fill="white" stroke="#bfbfbf" points="170.5,-114.5 170.5,-133.5 221.5,-133.5 221.5,-114.5 170.5,-114.5"/>
<text text-anchor="middle" x="196" y="-121.5" font-family="Helvetica,sans-Serif" font-size="10.00">uint16_t</text>
</g>
<!-- Node7&#45;&gt;Node6 -->
<g id="edge7" class="edge"><title>Node7&#45;&gt;Node6</title>
<path fill="none" stroke="#9a32cd" stroke-dasharray="5,2" d="M231.767,-122.28C243.295,-121.777 256.196,-121.285 268,-121 299.686,-120.234 334.846,-119.946 364.375,-119.866"/>
<polygon fill="#9a32cd" stroke="#9a32cd" points="231.467,-118.79 221.637,-122.74 231.785,-125.783 231.467,-118.79"/>
<text text-anchor="middle" x="307" y="-135" font-family="Helvetica,sans-Serif" font-size="10.00"> m_capacity</text>
<text text-anchor="middle" x="307" y="-124" font-family="Helvetica,sans-Serif" font-size="10.00">m_size</text>
</g>
<!-- Node8 -->
<g id="node8" class="node"><title>Node8</title>
<polygon fill="white" stroke="#bfbfbf" points="173,-76.5 173,-95.5 219,-95.5 219,-76.5 173,-76.5"/>
<text text-anchor="middle" x="196" y="-83.5" font-family="Helvetica,sans-Serif" font-size="10.00">uint8_t</text>
</g>
<!-- Node8&#45;&gt;Node6 -->
<g id="edge9" class="edge"><title>Node8&#45;&gt;Node6</title>
<path fill="none" stroke="#9a32cd" stroke-dasharray="5,2" d="M228.978,-89.6293C259.192,-93.1645 305.756,-98.8867 346,-105 351.926,-105.9 358.075,-106.885 364.234,-107.907"/>
<polygon fill="#9a32cd" stroke="#9a32cd" points="229.347,-86.1487 219.01,-88.473 228.54,-93.1021 229.347,-86.1487"/>
<text text-anchor="middle" x="307" y="-108" font-family="Helvetica,sans-Serif" font-size="10.00"> m_max_load</text>
</g>
<!-- Node9 -->
<g id="node9" class="node"><title>Node9</title>
<polygon fill="white" stroke="#bfbfbf" points="172,-38.5 172,-57.5 220,-57.5 220,-38.5 172,-38.5"/>
<text text-anchor="middle" x="196" y="-45.5" font-family="Helvetica,sans-Serif" font-size="10.00">Hasher</text>
</g>
<!-- Node9&#45;&gt;Node6 -->
<g id="edge10" class="edge"><title>Node9&#45;&gt;Node6</title>
<path fill="none" stroke="#9a32cd" stroke-dasharray="5,2" d="M230.28,-52.9091C260.867,-57.9435 307.208,-66.899 346,-80 361.452,-85.2185 377.802,-92.4635 391.991,-99.3556"/>
<polygon fill="#9a32cd" stroke="#9a32cd" points="230.583,-49.4132 220.156,-51.2915 229.478,-56.3256 230.583,-49.4132"/>
<text text-anchor="middle" x="307" y="-83" font-family="Helvetica,sans-Serif" font-size="10.00"> m_hash_function</text>
</g>
<!-- Node10 -->
<g id="node10" class="node"><title>Node10</title>
<polygon fill="white" stroke="#bfbfbf" points="172.5,-0.5 172.5,-19.5 219.5,-19.5 219.5,-0.5 172.5,-0.5"/>
<text text-anchor="middle" x="196" y="-7.5" font-family="Helvetica,sans-Serif" font-size="10.00">Equals</text>
</g>
<!-- Node10&#45;&gt;Node6 -->
<g id="edge12" class="edge"><title>Node10&#45;&gt;Node6</title>
<path fill="none" stroke="#9a32cd" stroke-dasharray="5,2" d="M229.556,-13.3317C260.836,-17.5531 308.717,-26.7462 346,-46 372.077,-59.4665 396.777,-82.5578 412.762,-99.3715"/>
<polygon fill="#9a32cd" stroke="#9a32cd" points="229.982,-9.85776 219.624,-12.0833 229.109,-16.8031 229.982,-9.85776"/>
<text text-anchor="middle" x="307" y="-49" font-family="Helvetica,sans-Serif" font-size="10.00"> m_key_equals</text>
</g>
</g>
</svg>
        <g id="navigator" transform="translate(0 0)" fill="#404254">
                <rect fill="#f2f5e9" fill-opacity="0.5" stroke="#606060" stroke-width=".5" x="0" y="0" width="60" height="60"/>
                <use id="zoomplus" xlink:href="#zoomPlus" x="17" y="9" onmousedown="handleZoom(evt,'in')"/>
                <use id="zoomminus" xlink:href="#zoomMin" x="42" y="9" onmousedown="handleZoom(evt,'out')"/>
                <use id="reset" xlink:href="#resetDef" x="30" y="36" onmousedown="handleReset()"/>
                <g id="arrowUp" xlink:href="#dirArrow" transform="translate(30 24)" onmousedown="handlePan(0,-1)">
                  <use xlink:href="#rim" fill="#404040">
                        <set attributeName="fill" to="#808080" begin="arrowUp.mouseover" end="arrowUp.mouseout"/>
                  </use>
                  <path fill="none" stroke="white" stroke-width="1.5" d="M0,-3.0v7 M-2.5,-0.5L0,-3.0L2.5,-0.5"/>
                </g>
                <g id="arrowRight" xlink:href="#dirArrow" transform="rotate(90) translate(36 -43)" onmousedown="handlePan(1,0)">
                  <use xlink:href="#rim" fill="#404040">
                        <set attributeName="fill" to="#808080" begin="arrowRight.mouseover" end="arrowRight.mouseout"/>
                  </use>
                  <path fill="none" stroke="white" stroke-width="1.5" d="M0,-3.0v7 M-2.5,-0.5L0,-3.0L2.5,-0.5"/>
                </g>
                <g id="arrowDown" xlink:href="#dirArrow" transform="rotate(180) translate(-30 -48)" onmousedown="handlePan(0,1)">
                  <use xlink:href="#rim" fill="#404040">
                        <set attributeName="fill" to="#808080" begin="arrowDown.mouseover" end="arrowDown.mouseout"/>
                  </use>
                  <path fill="none" stroke="white" stroke-width="1.5" d="M0,-3.0v7 M-2.5,-0.5L0,-3.0L2.5,-0.5"/>
                </g>
                <g id="arrowLeft" xlink:href="#dirArrow" transform="rotate(270) translate(-36 17)" onmousedown="handlePan(-1,0)">
                  <use xlink:href="#rim" fill="#404040">
                        <set attributeName="fill" to="#808080" begin="arrowLeft.mouseover" end="arrowLeft.mouseout"/>
                  </use>
                  <path fill="none" stroke="white" stroke-width="1.5" d="M0,-3.0v7 M-2.5,-0.5L0,-3.0L2.5,-0.5"/>
                </g>
        </g>
        <svg viewBox="0 0 15 15" width="100%" height="30px" preserveAspectRatio="xMaxYMin meet">
         <g id="arrow_out" transform="scale(0.3 0.3)">
          <a xlink:href="structwlp_1_1_hash_table_iterator__coll__graph_org.svg" target="_base">
           <rect id="button" ry="5" rx="5" y="6" x="6" height="38" width="38"
                fill="#f2f5e9" fill-opacity="0.5" stroke="#606060" stroke-width="1.0"/>
           <path id="arrow"
             d="M 11.500037,31.436501 C 11.940474,20.09759 22.043105,11.32322 32.158766,21.979434 L 37.068811,17.246167 C 37.068811,17.246167 37.088388,32 37.088388,32 L 22.160133,31.978069 C 22.160133,31.978069 26.997745,27.140456 26.997745,27.140456 C 18.528582,18.264221 13.291696,25.230495 11.500037,31.436501 z"
             style="fill:#404040;"/>
          </a>
         </g>
        </svg>
</svg>
