<?xml version="1.0" encoding="UTF-8" standalone="no"?>
<!DOCTYPE svg PUBLIC "-//W3C//DTD SVG 1.1//EN"
 "http://www.w3.org/Graphics/SVG/1.1/DTD/svg11.dtd">
<!-- Generated by graphviz version 2.36.0 (20140111.2315)
 -->
<!-- Title: stl/TreeSet.h Pages: 1 -->
<!--zoomable 644 -->
<svg id="main" version="1.1" xmlns="http://www.w3.org/2000/svg" xmlns:xlink="http://www.w3.org/1999/xlink" xml:space="preserve" onload="init(evt)">
<style type="text/css"><![CDATA[
.edge:hover path { stroke: red; }
.edge:hover polygon { stroke: red; fill: red; }
]]></style>
<script type="text/javascript"><![CDATA[
var edges = document.getElementsByTagName('g');
if (edges && edges.length) {
  for (var i=0;i<edges.length;i++) {
    if (edges[i].id.substr(0,4)=='edge') {
      edges[i].setAttribute('class','edge');
    }
  }
}
]]></script>
        <defs>
                <circle id="rim" cx="0" cy="0" r="7"/>
                <circle id="rim2" cx="0" cy="0" r="3.5"/>
                <g id="zoomPlus">
                        <use xlink:href="#rim" fill="#404040">
                                <set attributeName="fill" to="#808080" begin="zoomplus.mouseover" end="zoomplus.mouseout"/>
                        </use>
                        <path d="M-4,0h8M0,-4v8" fill="none" stroke="white" stroke-width="1.5" pointer-events="none"/>
                </g>
                <g id="zoomMin">
                        <use xlink:href="#rim" fill="#404040">
                                <set attributeName="fill" to="#808080" begin="zoomminus.mouseover" end="zoomminus.mouseout"/>
                        </use>
                        <path d="M-4,0h8" fill="none" stroke="white" stroke-width="1.5" pointer-events="none"/>
                </g>
                <g id="dirArrow">
                        <path fill="none" stroke="white" stroke-width="1.5" d="M0,-3.0v7 M-2.5,-0.5L0,-3.0L2.5,-0.5"/>
                </g>
               <g id="resetDef">
                       <use xlink:href="#rim2" fill="#404040">
                               <set attributeName="fill" to="#808080" begin="reset.mouseover" end="reset.mouseout"/>
                       </use>
               </g>
        </defs>

<script type="text/javascript">
var viewWidth = 814;
var viewHeight = 644;
var sectionId = 'dynsection-0';
</script>
<script xlink:href="../../svgpan.js"/>
<svg id="graph" class="graph">
<g id="viewport">
<title>stl/TreeSet.h</title>
<polygon fill="white" stroke="none" points="-4,4 -4,-640 810,-640 810,4 -4,4"/>
<!-- Node1 -->
<g id="node1" class="node"><title>Node1</title>
<polygon fill="#bfbfbf" stroke="black" points="525.5,-616.5 525.5,-635.5 598.5,-635.5 598.5,-616.5 525.5,-616.5"/>
<text text-anchor="middle" x="562" y="-623.5" font-family="Helvetica,sans-Serif" font-size="10.00">stl/TreeSet.h</text>
</g>
<!-- Node2 -->
<g id="node2" class="node"><title>Node2</title>
<g id="a_node2"><a xlink:href="../../d5/d08/_red_black_tree_8h.html" target="_top" xlink:title="Red black tree implementation. ">
<polygon fill="white" stroke="black" points="518.5,-560.5 518.5,-579.5 605.5,-579.5 605.5,-560.5 518.5,-560.5"/>
<text text-anchor="middle" x="562" y="-567.5" font-family="Helvetica,sans-Serif" font-size="10.00">RedBlackTree.h</text>
</a>
</g>
</g>
<!-- Node1&#45;&gt;Node2 -->
<g id="edge1" class="edge"><title>Node1&#45;&gt;Node2</title>
<path fill="none" stroke="midnightblue" d="M562,-616.083C562,-609.006 562,-598.861 562,-589.986"/>
<polygon fill="midnightblue" stroke="midnightblue" points="565.5,-589.751 562,-579.751 558.5,-589.751 565.5,-589.751"/>
</g>
<!-- Node3 -->
<g id="node3" class="node"><title>Node3</title>
<g id="a_node3"><a xlink:href="../../d7/d0c/_comparator_8h.html" target="_top" xlink:title="Comparator implementation for basic types. ">
<polygon fill="white" stroke="black" points="314,-504.5 314,-523.5 390,-523.5 390,-504.5 314,-504.5"/>
<text text-anchor="middle" x="352" y="-511.5" font-family="Helvetica,sans-Serif" font-size="10.00">Comparator.h</text>
</a>
</g>
</g>
<!-- Node2&#45;&gt;Node3 -->
<g id="edge2" class="edge"><title>Node2&#45;&gt;Node3</title>
<path fill="none" stroke="midnightblue" d="M528.725,-560.444C492.552,-551.142 434.623,-536.246 395.019,-526.062"/>
<polygon fill="midnightblue" stroke="midnightblue" points="395.676,-522.617 385.119,-523.516 393.933,-529.397 395.676,-522.617"/>
</g>
<!-- Node5 -->
<g id="node5" class="node"><title>Node5</title>
<g id="a_node5"><a xlink:href="../../d0/db6/_types_8h.html" target="_top" xlink:title="type definition of all the string types we will be using ">
<polygon fill="white" stroke="black" points="453,-56.5 453,-75.5 505,-75.5 505,-56.5 453,-56.5"/>
<text text-anchor="middle" x="479" y="-63.5" font-family="Helvetica,sans-Serif" font-size="10.00">Types.h</text>
</a>
</g>
</g>
<!-- Node2&#45;&gt;Node5 -->
<g id="edge32" class="edge"><title>Node2&#45;&gt;Node5</title>
<path fill="none" stroke="midnightblue" d="M574.812,-560.388C597.875,-543.742 644,-504.734 644,-459 644,-459 644,-459 644,-177 644,-115.449 563.526,-86.2191 514.979,-74.1862"/>
<polygon fill="midnightblue" stroke="midnightblue" points="515.68,-70.7558 505.145,-71.8741 514.078,-77.57 515.68,-70.7558"/>
</g>
<!-- Node11 -->
<g id="node11" class="node"><title>Node11</title>
<g id="a_node11"><a xlink:href="../../d4/dda/_pair_8h.html" target="_top" xlink:title="Implementation of a 2&#45;element tuple. ">
<polygon fill="white" stroke="black" points="320,-224.5 320,-243.5 362,-243.5 362,-224.5 320,-224.5"/>
<text text-anchor="middle" x="341" y="-231.5" font-family="Helvetica,sans-Serif" font-size="10.00">Pair.h</text>
</a>
</g>
</g>
<!-- Node2&#45;&gt;Node11 -->
<g id="edge31" class="edge"><title>Node2&#45;&gt;Node11</title>
<path fill="none" stroke="midnightblue" d="M555.225,-560.316C533.099,-531.803 461.37,-438.164 409,-356 386.221,-320.262 362.646,-276.518 350.12,-252.637"/>
<polygon fill="midnightblue" stroke="midnightblue" points="353.188,-250.95 345.463,-243.7 346.98,-254.185 353.188,-250.95"/>
</g>
<!-- Node12 -->
<g id="node12" class="node"><title>Node12</title>
<g id="a_node12"><a xlink:href="../../db/d2a/_utility_8h.html" target="_top" xlink:title="Various helper functions. ">
<polygon fill="white" stroke="black" points="433,-168.5 433,-187.5 519,-187.5 519,-168.5 433,-168.5"/>
<text text-anchor="middle" x="476" y="-175.5" font-family="Helvetica,sans-Serif" font-size="10.00">../utility/Utility.h</text>
</a>
</g>
</g>
<!-- Node2&#45;&gt;Node12 -->
<g id="edge34" class="edge"><title>Node2&#45;&gt;Node12</title>
<path fill="none" stroke="midnightblue" d="M566.046,-560.379C574.235,-542.114 592,-497.996 592,-459 592,-459 592,-459 592,-401 592,-315.249 523.174,-229.883 491.552,-195.188"/>
<polygon fill="midnightblue" stroke="midnightblue" points="494.094,-192.782 484.719,-187.846 488.97,-197.551 494.094,-192.782"/>
</g>
<!-- Node17 -->
<g id="node17" class="node"><title>Node17</title>
<g id="a_node17"><a xlink:href="../../d3/de6/_memory_8h.html" target="_top" xlink:title="Memory is a class that provides dynamic fixed size memory. ">
<polygon fill="white" stroke="black" points="418.5,-336.5 418.5,-355.5 525.5,-355.5 525.5,-336.5 418.5,-336.5"/>
<text text-anchor="middle" x="472" y="-343.5" font-family="Helvetica,sans-Serif" font-size="10.00">../memory/Memory.h</text>
</a>
</g>
</g>
<!-- Node2&#45;&gt;Node17 -->
<g id="edge33" class="edge"><title>Node2&#45;&gt;Node17</title>
<path fill="none" stroke="midnightblue" d="M558.472,-560.297C545.173,-527.494 497.899,-410.884 479.45,-365.377"/>
<polygon fill="midnightblue" stroke="midnightblue" points="482.602,-363.836 475.602,-355.884 476.115,-366.466 482.602,-363.836"/>
</g>
<!-- Node19 -->
<g id="node19" class="node"><title>Node19</title>
<g id="a_node19"><a xlink:href="../../d7/d2f/_exceptions_8h.html" target="_top" xlink:title="Implementation of Exceptions using C style. ">
<polygon fill="white" stroke="black" points="672.5,-504.5 672.5,-523.5 805.5,-523.5 805.5,-504.5 672.5,-504.5"/>
<text text-anchor="middle" x="739" y="-511.5" font-family="Helvetica,sans-Serif" font-size="10.00">../exceptions/Exceptions.h</text>
</a>
</g>
</g>
<!-- Node2&#45;&gt;Node19 -->
<g id="edge35" class="edge"><title>Node2&#45;&gt;Node19</title>
<path fill="none" stroke="midnightblue" d="M590.046,-560.444C620.082,-551.28 667.913,-536.688 701.243,-526.519"/>
<polygon fill="midnightblue" stroke="midnightblue" points="702.542,-529.782 711.085,-523.516 700.499,-523.087 702.542,-529.782"/>
</g>
<!-- Node4 -->
<g id="node4" class="node"><title>Node4</title>
<polygon fill="white" stroke="#bfbfbf" points="274.5,-280.5 274.5,-299.5 323.5,-299.5 323.5,-280.5 274.5,-280.5"/>
<text text-anchor="middle" x="299" y="-287.5" font-family="Helvetica,sans-Serif" font-size="10.00">string.h</text>
</g>
<!-- Node3&#45;&gt;Node4 -->
<g id="edge3" class="edge"><title>Node3&#45;&gt;Node4</title>
<path fill="none" stroke="midnightblue" d="M350.055,-504.135C344.343,-478.205 327.01,-400.276 311,-336 308.823,-327.262 306.269,-317.609 304.078,-309.492"/>
<polygon fill="midnightblue" stroke="midnightblue" points="307.39,-308.333 301.385,-299.605 300.636,-310.173 307.39,-308.333"/>
</g>
<!-- Node3&#45;&gt;Node5 -->
<g id="edge4" class="edge"><title>Node3&#45;&gt;Node5</title>
<path fill="none" stroke="midnightblue" d="M370.267,-504.304C428.507,-475.17 606,-374.904 606,-235 606,-235 606,-235 606,-177 606,-127.865 551.014,-95.7659 513.403,-79.5569"/>
<polygon fill="midnightblue" stroke="midnightblue" points="514.367,-76.1686 503.788,-75.5913 511.698,-82.6398 514.367,-76.1686"/>
</g>
<!-- Node7 -->
<g id="node7" class="node"><title>Node7</title>
<g id="a_node7"><a xlink:href="../../d2/dc2/_equal_8h.html" target="_top" xlink:title="stl/Equal.h">
<polygon fill="white" stroke="black" points="260.5,-448.5 260.5,-467.5 323.5,-467.5 323.5,-448.5 260.5,-448.5"/>
<text text-anchor="middle" x="292" y="-455.5" font-family="Helvetica,sans-Serif" font-size="10.00">stl/Equal.h</text>
</a>
</g>
</g>
<!-- Node3&#45;&gt;Node7 -->
<g id="edge6" class="edge"><title>Node3&#45;&gt;Node7</title>
<path fill="none" stroke="midnightblue" d="M342.36,-504.324C333.49,-496.341 320.125,-484.313 309.392,-474.653"/>
<polygon fill="midnightblue" stroke="midnightblue" points="311.59,-471.922 301.815,-467.834 306.907,-477.125 311.59,-471.922"/>
</g>
<!-- Node8 -->
<g id="node8" class="node"><title>Node8</title>
<g id="a_node8"><a xlink:href="../../db/db5/_string_8h.html" target="_top" xlink:title="../strings/String.h">
<polygon fill="white" stroke="black" points="186,-392.5 186,-411.5 278,-411.5 278,-392.5 186,-392.5"/>
<text text-anchor="middle" x="232" y="-399.5" font-family="Helvetica,sans-Serif" font-size="10.00">../strings/String.h</text>
</a>
</g>
</g>
<!-- Node3&#45;&gt;Node8 -->
<g id="edge30" class="edge"><title>Node3&#45;&gt;Node8</title>
<path fill="none" stroke="midnightblue" d="M313.624,-504.379C292.415,-497.755 267.165,-486.505 251,-468 239.77,-455.145 235.167,-435.964 233.286,-421.767"/>
<polygon fill="midnightblue" stroke="midnightblue" points="236.754,-421.273 232.286,-411.667 229.788,-421.963 236.754,-421.273"/>
</g>
<!-- Node6 -->
<g id="node6" class="node"><title>Node6</title>
<polygon fill="white" stroke="#bfbfbf" points="454.5,-0.5 454.5,-19.5 503.5,-19.5 503.5,-0.5 454.5,-0.5"/>
<text text-anchor="middle" x="479" y="-7.5" font-family="Helvetica,sans-Serif" font-size="10.00">stdint.h</text>
</g>
<!-- Node5&#45;&gt;Node6 -->
<g id="edge5" class="edge"><title>Node5&#45;&gt;Node6</title>
<path fill="none" stroke="midnightblue" d="M479,-56.083C479,-49.0059 479,-38.8611 479,-29.9865"/>
<polygon fill="midnightblue" stroke="midnightblue" points="482.5,-29.751 479,-19.7511 475.5,-29.7511 482.5,-29.751"/>
</g>
<!-- Node7&#45;&gt;Node4 -->
<g id="edge7" class="edge"><title>Node7&#45;&gt;Node4</title>
<path fill="none" stroke="midnightblue" d="M292.376,-448.075C293.478,-421.945 296.714,-345.211 298.217,-309.577"/>
<polygon fill="midnightblue" stroke="midnightblue" points="301.714,-309.707 298.639,-299.568 294.72,-309.412 301.714,-309.707"/>
</g>
<!-- Node7&#45;&gt;Node5 -->
<g id="edge8" class="edge"><title>Node7&#45;&gt;Node5</title>
<path fill="none" stroke="midnightblue" d="M260.473,-452.021C184.969,-439.208 0,-402.188 0,-347 0,-347 0,-347 0,-177 0,-133.889 32.6751,-129.667 72,-112 137.908,-82.3908 355.757,-71.431 442.702,-68.1724"/>
<polygon fill="midnightblue" stroke="midnightblue" points="443.01,-71.6636 452.877,-67.804 442.757,-64.6682 443.01,-71.6636"/>
</g>
<!-- Node7&#45;&gt;Node8 -->
<g id="edge9" class="edge"><title>Node7&#45;&gt;Node8</title>
<path fill="none" stroke="midnightblue" d="M282.36,-448.324C273.49,-440.341 260.125,-428.313 249.392,-418.653"/>
<polygon fill="midnightblue" stroke="midnightblue" points="251.59,-415.922 241.815,-411.834 246.907,-421.125 251.59,-415.922"/>
</g>
<!-- Node8&#45;&gt;Node4 -->
<g id="edge10" class="edge"><title>Node8&#45;&gt;Node4</title>
<path fill="none" stroke="midnightblue" d="M237.257,-392.368C248.265,-374.296 273.92,-332.176 288.458,-308.307"/>
<polygon fill="midnightblue" stroke="midnightblue" points="291.554,-309.953 293.767,-299.591 285.576,-306.311 291.554,-309.953"/>
</g>
<!-- Node8&#45;&gt;Node5 -->
<g id="edge22" class="edge"><title>Node8&#45;&gt;Node5</title>
<path fill="none" stroke="midnightblue" d="M185.785,-401.173C146.533,-398.808 91.2636,-389.161 57,-356 35.3726,-335.068 38,-321.098 38,-291 38,-291 38,-291 38,-177 38,-93.8458 336.911,-73.0529 442.554,-68.3009"/>
<polygon fill="midnightblue" stroke="midnightblue" points="442.893,-71.7898 452.734,-67.8662 442.594,-64.7961 442.893,-71.7898"/>
</g>
<!-- Node9 -->
<g id="node9" class="node"><title>Node9</title>
<g id="a_node9"><a xlink:href="../../de/d0b/_string_iterator_8h.html" target="_top" xlink:title="StringIterator.h">
<polygon fill="white" stroke="black" points="66.5,-336.5 66.5,-355.5 147.5,-355.5 147.5,-336.5 66.5,-336.5"/>
<text text-anchor="middle" x="107" y="-343.5" font-family="Helvetica,sans-Serif" font-size="10.00">StringIterator.h</text>
</a>
</g>
</g>
<!-- Node8&#45;&gt;Node9 -->
<g id="edge11" class="edge"><title>Node8&#45;&gt;Node9</title>
<path fill="none" stroke="midnightblue" d="M212.193,-392.444C191.713,-383.596 159.517,-369.687 136.135,-359.586"/>
<polygon fill="midnightblue" stroke="midnightblue" points="137.282,-356.269 126.714,-355.516 134.506,-362.695 137.282,-356.269"/>
</g>
<!-- Node16 -->
<g id="node16" class="node"><title>Node16</title>
<g id="a_node16"><a xlink:href="../../da/db8/_math_8h.html" target="_top" xlink:title="../utility/Math.h">
<polygon fill="white" stroke="black" points="166,-336.5 166,-355.5 248,-355.5 248,-336.5 166,-336.5"/>
<text text-anchor="middle" x="207" y="-343.5" font-family="Helvetica,sans-Serif" font-size="10.00">../utility/Math.h</text>
</a>
</g>
</g>
<!-- Node8&#45;&gt;Node16 -->
<g id="edge23" class="edge"><title>Node8&#45;&gt;Node16</title>
<path fill="none" stroke="midnightblue" d="M227.872,-392.083C224.486,-384.77 219.584,-374.181 215.381,-365.103"/>
<polygon fill="midnightblue" stroke="midnightblue" points="218.429,-363.355 211.051,-355.751 212.077,-366.296 218.429,-363.355"/>
</g>
<!-- Node8&#45;&gt;Node17 -->
<g id="edge24" class="edge"><title>Node8&#45;&gt;Node17</title>
<path fill="none" stroke="midnightblue" d="M270.029,-392.444C311.808,-383.043 378.982,-367.929 424.27,-357.739"/>
<polygon fill="midnightblue" stroke="midnightblue" points="425.161,-361.126 434.149,-355.516 423.625,-354.297 425.161,-361.126"/>
</g>
<!-- Node9&#45;&gt;Node5 -->
<g id="edge12" class="edge"><title>Node9&#45;&gt;Node5</title>
<path fill="none" stroke="midnightblue" d="M109.562,-336.249C114.749,-317.738 126,-273.179 126,-235 126,-235 126,-235 126,-177 126,-111.163 352.645,-80.2081 442.721,-70.5054"/>
<polygon fill="midnightblue" stroke="midnightblue" points="443.176,-73.977 452.756,-69.452 442.445,-67.0153 443.176,-73.977"/>
</g>
<!-- Node10 -->
<g id="node10" class="node"><title>Node10</title>
<g id="a_node10"><a xlink:href="../../d8/dd7/_concept_8h.html" target="_top" xlink:title="Concept definitions. ">
<polygon fill="white" stroke="black" points="173,-280.5 173,-299.5 257,-299.5 257,-280.5 173,-280.5"/>
<text text-anchor="middle" x="215" y="-287.5" font-family="Helvetica,sans-Serif" font-size="10.00">../stl/Concept.h</text>
</a>
</g>
</g>
<!-- Node9&#45;&gt;Node10 -->
<g id="edge13" class="edge"><title>Node9&#45;&gt;Node10</title>
<path fill="none" stroke="midnightblue" d="M124.352,-336.324C141.672,-327.664 168.515,-314.242 188.502,-304.249"/>
<polygon fill="midnightblue" stroke="midnightblue" points="190.312,-307.257 197.691,-299.655 187.181,-300.996 190.312,-307.257"/>
</g>
<!-- Node10&#45;&gt;Node11 -->
<g id="edge14" class="edge"><title>Node10&#45;&gt;Node11</title>
<path fill="none" stroke="midnightblue" d="M234.965,-280.444C255.609,-271.596 288.063,-257.687 311.632,-247.586"/>
<polygon fill="midnightblue" stroke="midnightblue" points="313.316,-250.673 321.128,-243.516 310.558,-244.239 313.316,-250.673"/>
</g>
<!-- Node13 -->
<g id="node13" class="node"><title>Node13</title>
<g id="a_node13"><a xlink:href="../../d2/d37/_tmp_8h.html" target="_top" xlink:title="Template helper types, structs, and metafunctions. ">
<polygon fill="white" stroke="black" points="368,-112.5 368,-131.5 412,-131.5 412,-112.5 368,-112.5"/>
<text text-anchor="middle" x="390" y="-119.5" font-family="Helvetica,sans-Serif" font-size="10.00">Tmp.h</text>
</a>
</g>
</g>
<!-- Node10&#45;&gt;Node13 -->
<g id="edge21" class="edge"><title>Node10&#45;&gt;Node13</title>
<path fill="none" stroke="midnightblue" d="M226.711,-280.457C238.492,-271.703 257.01,-257.499 272,-244 311.399,-208.519 353.968,-162.842 375.603,-139.04"/>
<polygon fill="midnightblue" stroke="midnightblue" points="378.232,-141.351 382.343,-131.586 373.04,-136.656 378.232,-141.351"/>
</g>
<!-- Node14 -->
<g id="node14" class="node"><title>Node14</title>
<g id="a_node14"><a xlink:href="../../d4/dd5/_type_traits_8h.html" target="_top" xlink:title="Metafunctions for types. ">
<polygon fill="white" stroke="black" points="173.5,-168.5 173.5,-187.5 244.5,-187.5 244.5,-168.5 173.5,-168.5"/>
<text text-anchor="middle" x="209" y="-175.5" font-family="Helvetica,sans-Serif" font-size="10.00">TypeTraits.h</text>
</a>
</g>
</g>
<!-- Node10&#45;&gt;Node14 -->
<g id="edge18" class="edge"><title>Node10&#45;&gt;Node14</title>
<path fill="none" stroke="midnightblue" d="M211.4,-280.222C207.944,-271.285 202.967,-256.942 201,-244 198.648,-228.525 201.14,-210.895 203.945,-197.905"/>
<polygon fill="midnightblue" stroke="midnightblue" points="207.427,-198.396 206.378,-187.853 200.624,-196.749 207.427,-198.396"/>
</g>
<!-- Node15 -->
<g id="node15" class="node"><title>Node15</title>
<g id="a_node15"><a xlink:href="../../d2/db4/_wlib_8h.html" target="_top" xlink:title="../Wlib.h">
<polygon fill="white" stroke="black" points="210.5,-224.5 210.5,-243.5 263.5,-243.5 263.5,-224.5 210.5,-224.5"/>
<text text-anchor="middle" x="237" y="-231.5" font-family="Helvetica,sans-Serif" font-size="10.00">../Wlib.h</text>
</a>
</g>
</g>
<!-- Node10&#45;&gt;Node15 -->
<g id="edge20" class="edge"><title>Node10&#45;&gt;Node15</title>
<path fill="none" stroke="midnightblue" d="M218.633,-280.083C221.612,-272.77 225.926,-262.181 229.625,-253.103"/>
<polygon fill="midnightblue" stroke="midnightblue" points="232.903,-254.333 233.435,-243.751 226.42,-251.691 232.903,-254.333"/>
</g>
<!-- Node11&#45;&gt;Node12 -->
<g id="edge15" class="edge"><title>Node11&#45;&gt;Node12</title>
<path fill="none" stroke="midnightblue" d="M362.094,-224.562C384.353,-215.659 419.661,-201.536 445.068,-191.373"/>
<polygon fill="midnightblue" stroke="midnightblue" points="446.624,-194.52 454.609,-187.556 444.024,-188.021 446.624,-194.52"/>
</g>
<!-- Node12&#45;&gt;Node13 -->
<g id="edge16" class="edge"><title>Node12&#45;&gt;Node13</title>
<path fill="none" stroke="midnightblue" d="M462.183,-168.324C448.767,-159.9 428.176,-146.971 412.414,-137.074"/>
<polygon fill="midnightblue" stroke="midnightblue" points="414.113,-134.008 403.783,-131.655 410.391,-139.936 414.113,-134.008"/>
</g>
<!-- Node13&#45;&gt;Node5 -->
<g id="edge17" class="edge"><title>Node13&#45;&gt;Node5</title>
<path fill="none" stroke="midnightblue" d="M404.299,-112.324C418.183,-103.9 439.492,-90.9709 455.804,-81.0741"/>
<polygon fill="midnightblue" stroke="midnightblue" points="458.002,-83.8341 464.736,-75.6545 454.371,-77.8495 458.002,-83.8341"/>
</g>
<!-- Node14&#45;&gt;Node13 -->
<g id="edge19" class="edge"><title>Node14&#45;&gt;Node13</title>
<path fill="none" stroke="midnightblue" d="M237.68,-168.444C270.382,-158.687 323.712,-142.776 357.81,-132.604"/>
<polygon fill="midnightblue" stroke="midnightblue" points="359.149,-135.857 367.731,-129.644 357.147,-129.149 359.149,-135.857"/>
</g>
<!-- Node17&#45;&gt;Node4 -->
<g id="edge25" class="edge"><title>Node17&#45;&gt;Node4</title>
<path fill="none" stroke="midnightblue" d="M444.588,-336.444C414.454,-327.038 365.993,-311.911 333.347,-301.721"/>
<polygon fill="midnightblue" stroke="midnightblue" points="334.35,-298.368 323.762,-298.729 332.264,-305.05 334.35,-298.368"/>
</g>
<!-- Node17&#45;&gt;Node5 -->
<g id="edge27" class="edge"><title>Node17&#45;&gt;Node5</title>
<path fill="none" stroke="midnightblue" d="M478.243,-336.299C495.764,-310.812 543.157,-233.965 528,-168 520.794,-136.639 502.501,-103.719 490.42,-84.2957"/>
<polygon fill="midnightblue" stroke="midnightblue" points="493.247,-82.2196 484.912,-75.6792 487.349,-85.9899 493.247,-82.2196"/>
</g>
<!-- Node17&#45;&gt;Node12 -->
<g id="edge26" class="edge"><title>Node17&#45;&gt;Node12</title>
<path fill="none" stroke="midnightblue" d="M472.215,-336.075C472.845,-309.945 474.694,-233.211 475.552,-197.577"/>
<polygon fill="midnightblue" stroke="midnightblue" points="479.052,-197.65 475.794,-187.568 472.054,-197.481 479.052,-197.65"/>
</g>
<!-- Node17&#45;&gt;Node13 -->
<g id="edge28" class="edge"><title>Node17&#45;&gt;Node13</title>
<path fill="none" stroke="midnightblue" d="M452.284,-336.447C437.737,-329.03 418.831,-316.828 409,-300 379.305,-249.173 383.28,-175.998 387.26,-141.865"/>
<polygon fill="midnightblue" stroke="midnightblue" points="390.74,-142.244 388.562,-131.875 383.799,-141.339 390.74,-142.244"/>
</g>
<!-- Node18 -->
<g id="node18" class="node"><title>Node18</title>
<g id="a_node18"><a xlink:href="../../d9/d8a/_new_8h.html" target="_top" xlink:title="New operators defined for Arduino boards and for other boards use the normal new. ...">
<polygon fill="white" stroke="black" points="418.5,-280.5 418.5,-299.5 463.5,-299.5 463.5,-280.5 418.5,-280.5"/>
<text text-anchor="middle" x="441" y="-287.5" font-family="Helvetica,sans-Serif" font-size="10.00">New.h</text>
</a>
</g>
</g>
<!-- Node17&#45;&gt;Node18 -->
<g id="edge29" class="edge"><title>Node17&#45;&gt;Node18</title>
<path fill="none" stroke="midnightblue" d="M466.881,-336.083C462.592,-328.613 456.342,-317.724 451.058,-308.52"/>
<polygon fill="midnightblue" stroke="midnightblue" points="454.038,-306.681 446.024,-299.751 447.967,-310.166 454.038,-306.681"/>
</g>
<!-- Node19&#45;&gt;Node5 -->
<g id="edge37" class="edge"><title>Node19&#45;&gt;Node5</title>
<path fill="none" stroke="midnightblue" d="M730.462,-504.408C722.373,-495.839 710.392,-481.973 703,-468 688.865,-441.283 683,-433.225 683,-403 683,-403 683,-403 683,-177 683,-146.048 681.168,-132.524 658,-112 618.258,-76.7934 554.975,-68.3096 515.272,-66.7053"/>
<polygon fill="midnightblue" stroke="midnightblue" points="515.321,-63.2054 505.227,-66.4258 515.126,-70.2027 515.321,-63.2054"/>
</g>
<!-- Node20 -->
<g id="node20" class="node"><title>Node20</title>
<polygon fill="white" stroke="#bfbfbf" points="712,-448.5 712,-467.5 766,-467.5 766,-448.5 712,-448.5"/>
<text text-anchor="middle" x="739" y="-455.5" font-family="Helvetica,sans-Serif" font-size="10.00">setjmp.h</text>
</g>
<!-- Node19&#45;&gt;Node20 -->
<g id="edge36" class="edge"><title>Node19&#45;&gt;Node20</title>
<path fill="none" stroke="midnightblue" d="M739,-504.083C739,-497.006 739,-486.861 739,-477.986"/>
<polygon fill="midnightblue" stroke="midnightblue" points="742.5,-477.751 739,-467.751 735.5,-477.751 742.5,-477.751"/>
</g>
</g>
</svg>
        <g id="navigator" transform="translate(0 0)" fill="#404254">
                <rect fill="#f2f5e9" fill-opacity="0.5" stroke="#606060" stroke-width=".5" x="0" y="0" width="60" height="60"/>
                <use id="zoomplus" xlink:href="#zoomPlus" x="17" y="9" onmousedown="handleZoom(evt,'in')"/>
                <use id="zoomminus" xlink:href="#zoomMin" x="42" y="9" onmousedown="handleZoom(evt,'out')"/>
                <use id="reset" xlink:href="#resetDef" x="30" y="36" onmousedown="handleReset()"/>
                <g id="arrowUp" xlink:href="#dirArrow" transform="translate(30 24)" onmousedown="handlePan(0,-1)">
                  <use xlink:href="#rim" fill="#404040">
                        <set attributeName="fill" to="#808080" begin="arrowUp.mouseover" end="arrowUp.mouseout"/>
                  </use>
                  <path fill="none" stroke="white" stroke-width="1.5" d="M0,-3.0v7 M-2.5,-0.5L0,-3.0L2.5,-0.5"/>
                </g>
                <g id="arrowRight" xlink:href="#dirArrow" transform="rotate(90) translate(36 -43)" onmousedown="handlePan(1,0)">
                  <use xlink:href="#rim" fill="#404040">
                        <set attributeName="fill" to="#808080" begin="arrowRight.mouseover" end="arrowRight.mouseout"/>
                  </use>
                  <path fill="none" stroke="white" stroke-width="1.5" d="M0,-3.0v7 M-2.5,-0.5L0,-3.0L2.5,-0.5"/>
                </g>
                <g id="arrowDown" xlink:href="#dirArrow" transform="rotate(180) translate(-30 -48)" onmousedown="handlePan(0,1)">
                  <use xlink:href="#rim" fill="#404040">
                        <set attributeName="fill" to="#808080" begin="arrowDown.mouseover" end="arrowDown.mouseout"/>
                  </use>
                  <path fill="none" stroke="white" stroke-width="1.5" d="M0,-3.0v7 M-2.5,-0.5L0,-3.0L2.5,-0.5"/>
                </g>
                <g id="arrowLeft" xlink:href="#dirArrow" transform="rotate(270) translate(-36 17)" onmousedown="handlePan(-1,0)">
                  <use xlink:href="#rim" fill="#404040">
                        <set attributeName="fill" to="#808080" begin="arrowLeft.mouseover" end="arrowLeft.mouseout"/>
                  </use>
                  <path fill="none" stroke="white" stroke-width="1.5" d="M0,-3.0v7 M-2.5,-0.5L0,-3.0L2.5,-0.5"/>
                </g>
        </g>
        <svg viewBox="0 0 15 15" width="100%" height="30px" preserveAspectRatio="xMaxYMin meet">
         <g id="arrow_out" transform="scale(0.3 0.3)">
          <a xlink:href="_tree_set_8h__incl_org.svg" target="_base">
           <rect id="button" ry="5" rx="5" y="6" x="6" height="38" width="38"
                fill="#f2f5e9" fill-opacity="0.5" stroke="#606060" stroke-width="1.0"/>
           <path id="arrow"
             d="M 11.500037,31.436501 C 11.940474,20.09759 22.043105,11.32322 32.158766,21.979434 L 37.068811,17.246167 C 37.068811,17.246167 37.088388,32 37.088388,32 L 22.160133,31.978069 C 22.160133,31.978069 26.997745,27.140456 26.997745,27.140456 C 18.528582,18.264221 13.291696,25.230495 11.500037,31.436501 z"
             style="fill:#404040;"/>
          </a>
         </g>
        </svg>
</svg>
