<?xml version="1.0" encoding="UTF-8" standalone="no"?>
<!DOCTYPE svg PUBLIC "-//W3C//DTD SVG 1.1//EN"
 "http://www.w3.org/Graphics/SVG/1.1/DTD/svg11.dtd">
<!-- Generated by graphviz version 2.38.0 (20140413.2041)
 -->
<!-- Title: stl/TreeSet.h Pages: 1 -->
<!--zoomable 700 -->
<svg id="main" version="1.1" xmlns="http://www.w3.org/2000/svg" xmlns:xlink="http://www.w3.org/1999/xlink" xml:space="preserve" onload="init(evt)">
<style type="text/css"><![CDATA[
.edge:hover path { stroke: red; }
.edge:hover polygon { stroke: red; fill: red; }
]]></style>
<script type="text/javascript"><![CDATA[
var edges = document.getElementsByTagName('g');
if (edges && edges.length) {
  for (var i=0;i<edges.length;i++) {
    if (edges[i].id.substr(0,4)=='edge') {
      edges[i].setAttribute('class','edge');
    }
  }
}
]]></script>
        <defs>
                <circle id="rim" cx="0" cy="0" r="7"/>
                <circle id="rim2" cx="0" cy="0" r="3.5"/>
                <g id="zoomPlus">
                        <use xlink:href="#rim" fill="#404040">
                                <set attributeName="fill" to="#808080" begin="zoomplus.mouseover" end="zoomplus.mouseout"/>
                        </use>
                        <path d="M-4,0h8M0,-4v8" fill="none" stroke="white" stroke-width="1.5" pointer-events="none"/>
                </g>
                <g id="zoomMin">
                        <use xlink:href="#rim" fill="#404040">
                                <set attributeName="fill" to="#808080" begin="zoomminus.mouseover" end="zoomminus.mouseout"/>
                        </use>
                        <path d="M-4,0h8" fill="none" stroke="white" stroke-width="1.5" pointer-events="none"/>
                </g>
                <g id="dirArrow">
                        <path fill="none" stroke="white" stroke-width="1.5" d="M0,-3.0v7 M-2.5,-0.5L0,-3.0L2.5,-0.5"/>
                </g>
               <g id="resetDef">
                       <use xlink:href="#rim2" fill="#404040">
                               <set attributeName="fill" to="#808080" begin="reset.mouseover" end="reset.mouseout"/>
                       </use>
               </g>
        </defs>

<script type="text/javascript">
var viewWidth = 542;
var viewHeight = 700;
var sectionId = 'dynsection-0';
</script>
<script xlink:href="../../svgpan.js"/>
<svg id="graph" class="graph">
<g id="viewport">
<title>stl/TreeSet.h</title>
<polygon fill="white" stroke="none" points="-4,4 -4,-696 537.5,-696 537.5,4 -4,4"/>
<!-- Node0 -->
<g id="node1" class="node"><title>Node0</title>
<polygon fill="#bfbfbf" stroke="black" points="276,-672.5 276,-691.5 348,-691.5 348,-672.5 276,-672.5"/>
<text text-anchor="middle" x="312" y="-679.5" font-family="Helvetica,sans-Serif" font-size="10.00">stl/TreeSet.h</text>
</g>
<!-- Node1 -->
<g id="node2" class="node"><title>Node1</title>
<g id="a_node2"><a xlink:href="../../d5/d08/_red_black_tree_8h.html" target="_top" xlink:title="Red black tree implementation. ">
<polygon fill="white" stroke="black" points="269,-616.5 269,-635.5 355,-635.5 355,-616.5 269,-616.5"/>
<text text-anchor="middle" x="312" y="-623.5" font-family="Helvetica,sans-Serif" font-size="10.00">RedBlackTree.h</text>
</a>
</g>
</g>
<!-- Node0&#45;&gt;Node1 -->
<g id="edge1" class="edge"><title>Node0&#45;&gt;Node1</title>
<path fill="none" stroke="midnightblue" d="M312,-672.083C312,-665.006 312,-654.861 312,-645.986"/>
<polygon fill="midnightblue" stroke="midnightblue" points="315.5,-645.751 312,-635.751 308.5,-645.751 315.5,-645.751"/>
</g>
<!-- Node2 -->
<g id="node3" class="node"><title>Node2</title>
<g id="a_node3"><a xlink:href="../../d7/d0c/_comparator_8h.html" target="_top" xlink:title="Comparator implementation for basic types. ">
<polygon fill="white" stroke="black" points="126.5,-560.5 126.5,-579.5 201.5,-579.5 201.5,-560.5 126.5,-560.5"/>
<text text-anchor="middle" x="164" y="-567.5" font-family="Helvetica,sans-Serif" font-size="10.00">Comparator.h</text>
</a>
</g>
</g>
<!-- Node1&#45;&gt;Node2 -->
<g id="edge2" class="edge"><title>Node1&#45;&gt;Node2</title>
<path fill="none" stroke="midnightblue" d="M288.549,-616.444C263.867,-607.438 224.815,-593.189 197.023,-583.049"/>
<polygon fill="midnightblue" stroke="midnightblue" points="197.935,-579.656 187.341,-579.516 195.536,-586.232 197.935,-579.656"/>
</g>
<!-- Node6 -->
<g id="node7" class="node"><title>Node6</title>
<g id="a_node7"><a xlink:href="../../d0/db6/_types_8h.html" target="_top" xlink:title="type definition of all the string types we will be using ">
<polygon fill="white" stroke="black" points="84,-56.5 84,-75.5 144,-75.5 144,-56.5 84,-56.5"/>
<text text-anchor="middle" x="114" y="-63.5" font-family="Helvetica,sans-Serif" font-size="10.00">../Types.h</text>
</a>
</g>
</g>
<!-- Node1&#45;&gt;Node6 -->
<g id="edge27" class="edge"><title>Node1&#45;&gt;Node6</title>
<path fill="none" stroke="midnightblue" d="M268.945,-619.031C183.356,-605.952 0,-571.358 0,-515 0,-515 0,-515 0,-177 0,-130.115 50.5515,-96.8944 84.3292,-79.9302"/>
<polygon fill="midnightblue" stroke="midnightblue" points="85.8676,-83.0742 93.3555,-75.5787 82.8277,-76.7687 85.8676,-83.0742"/>
</g>
<!-- Node9 -->
<g id="node10" class="node"><title>Node9</title>
<g id="a_node10"><a xlink:href="../../d4/dda/_pair_8h.html" target="_top" xlink:title="Implementation of a 2&#45;element tuple. ">
<polygon fill="white" stroke="black" points="290,-224.5 290,-243.5 332,-243.5 332,-224.5 290,-224.5"/>
<text text-anchor="middle" x="311" y="-231.5" font-family="Helvetica,sans-Serif" font-size="10.00">Pair.h</text>
</a>
</g>
</g>
<!-- Node1&#45;&gt;Node9 -->
<g id="edge26" class="edge"><title>Node1&#45;&gt;Node9</title>
<path fill="none" stroke="midnightblue" d="M312,-616.442C312,-597.936 312,-552.813 312,-515 312,-515 312,-515 312,-345 312,-312.947 311.57,-275.642 311.274,-253.748"/>
<polygon fill="midnightblue" stroke="midnightblue" points="314.771,-253.507 311.131,-243.558 307.772,-253.606 314.771,-253.507"/>
</g>
<!-- Node10 -->
<g id="node11" class="node"><title>Node10</title>
<g id="a_node11"><a xlink:href="../../db/d2a/_utility_8h.html" target="_top" xlink:title="Various helper functions. ">
<polygon fill="white" stroke="black" points="268.5,-168.5 268.5,-187.5 353.5,-187.5 353.5,-168.5 268.5,-168.5"/>
<text text-anchor="middle" x="311" y="-175.5" font-family="Helvetica,sans-Serif" font-size="10.00">../utility/Utility.h</text>
</a>
</g>
</g>
<!-- Node1&#45;&gt;Node10 -->
<g id="edge33" class="edge"><title>Node1&#45;&gt;Node10</title>
<path fill="none" stroke="midnightblue" d="M325.817,-616.281C350.128,-599.744 398,-561.3 398,-515 398,-515 398,-515 398,-289 398,-247.4 359.248,-212.331 333.47,-193.605"/>
<polygon fill="midnightblue" stroke="midnightblue" points="335.182,-190.531 324.978,-187.679 331.176,-196.272 335.182,-190.531"/>
</g>
<!-- Node16 -->
<g id="node17" class="node"><title>Node16</title>
<g id="a_node17"><a xlink:href="../../d3/de6/_memory_8h.html" target="_top" xlink:title="Memory is a class that provides dynamic fixed size memory. ">
<polygon fill="white" stroke="black" points="426.5,-224.5 426.5,-243.5 533.5,-243.5 533.5,-224.5 426.5,-224.5"/>
<text text-anchor="middle" x="480" y="-231.5" font-family="Helvetica,sans-Serif" font-size="10.00">../memory/Memory.h</text>
</a>
</g>
</g>
<!-- Node1&#45;&gt;Node16 -->
<g id="edge28" class="edge"><title>Node1&#45;&gt;Node16</title>
<path fill="none" stroke="midnightblue" d="M344.04,-616.435C387.018,-602.779 458,-571.649 458,-515 458,-515 458,-515 458,-345 458,-312.328 467.447,-275.24 473.96,-253.553"/>
<polygon fill="midnightblue" stroke="midnightblue" points="477.391,-254.31 477.033,-243.721 470.709,-252.222 477.391,-254.31"/>
</g>
<!-- Node3 -->
<g id="node4" class="node"><title>Node3</title>
<g id="a_node4"><a xlink:href="../../db/db5/_string_8h.html" target="_top" xlink:title="string.h">
<polygon fill="white" stroke="black" points="146.5,-448.5 146.5,-467.5 195.5,-467.5 195.5,-448.5 146.5,-448.5"/>
<text text-anchor="middle" x="171" y="-455.5" font-family="Helvetica,sans-Serif" font-size="10.00">string.h</text>
</a>
</g>
</g>
<!-- Node2&#45;&gt;Node3 -->
<g id="edge3" class="edge"><title>Node2&#45;&gt;Node3</title>
<path fill="none" stroke="midnightblue" d="M164.549,-560.368C165.679,-542.617 168.285,-501.666 169.817,-477.597"/>
<polygon fill="midnightblue" stroke="midnightblue" points="173.311,-477.794 170.453,-467.591 166.325,-477.349 173.311,-477.794"/>
</g>
<!-- Node4 -->
<g id="node5" class="node"><title>Node4</title>
<g id="a_node5"><a xlink:href="../../d8/d65/_static_string_8h.html" target="_top" xlink:title="StaticString provides a String that is on stack and is of fixed size. ">
<polygon fill="white" stroke="black" points="117,-392.5 117,-411.5 225,-411.5 225,-392.5 117,-392.5"/>
<text text-anchor="middle" x="171" y="-399.5" font-family="Helvetica,sans-Serif" font-size="10.00">strings/StaticString.h</text>
</a>
</g>
</g>
<!-- Node2&#45;&gt;Node4 -->
<g id="edge25" class="edge"><title>Node2&#45;&gt;Node4</title>
<path fill="none" stroke="midnightblue" d="M158.892,-560.324C147.735,-540.218 123.246,-489.018 137,-448 140.604,-437.251 147.903,-427.02 154.817,-419.038"/>
<polygon fill="midnightblue" stroke="midnightblue" points="157.477,-421.317 161.712,-411.605 152.345,-416.556 157.477,-421.317"/>
</g>
<!-- Node2&#45;&gt;Node6 -->
<g id="edge20" class="edge"><title>Node2&#45;&gt;Node6</title>
<path fill="none" stroke="midnightblue" d="M139.706,-560.47C103.092,-545.881 38,-512.43 38,-459 38,-459 38,-459 38,-177 38,-137.276 71.9641,-101.504 94.4821,-82.1536"/>
<polygon fill="midnightblue" stroke="midnightblue" points="96.9755,-84.6337 102.457,-75.5672 92.518,-79.2364 96.9755,-84.6337"/>
</g>
<!-- Node15 -->
<g id="node16" class="node"><title>Node15</title>
<g id="a_node16"><a xlink:href="../../d2/dc2/_equal_8h.html" target="_top" xlink:title="stl/Equal.h">
<polygon fill="white" stroke="black" points="192.5,-504.5 192.5,-523.5 255.5,-523.5 255.5,-504.5 192.5,-504.5"/>
<text text-anchor="middle" x="224" y="-511.5" font-family="Helvetica,sans-Serif" font-size="10.00">stl/Equal.h</text>
</a>
</g>
</g>
<!-- Node2&#45;&gt;Node15 -->
<g id="edge21" class="edge"><title>Node2&#45;&gt;Node15</title>
<path fill="none" stroke="midnightblue" d="M173.64,-560.324C182.51,-552.341 195.875,-540.313 206.608,-530.653"/>
<polygon fill="midnightblue" stroke="midnightblue" points="209.093,-533.125 214.185,-523.834 204.41,-527.922 209.093,-533.125"/>
</g>
<!-- Node3&#45;&gt;Node4 -->
<g id="edge4" class="edge"><title>Node3&#45;&gt;Node4</title>
<path fill="none" stroke="midnightblue" d="M165.834,-448.083C164.324,-440.927 163.894,-430.635 164.542,-421.691"/>
<polygon fill="midnightblue" stroke="midnightblue" points="168.015,-422.126 165.869,-411.751 161.077,-421.2 168.015,-422.126"/>
</g>
<!-- Node4&#45;&gt;Node3 -->
<g id="edge5" class="edge"><title>Node4&#45;&gt;Node3</title>
<path fill="none" stroke="midnightblue" d="M176.131,-411.751C177.657,-418.858 178.104,-429.136 177.472,-438.101"/>
<polygon fill="midnightblue" stroke="midnightblue" points="173.993,-437.713 176.166,-448.083 180.934,-438.622 173.993,-437.713"/>
</g>
<!-- Node5 -->
<g id="node6" class="node"><title>Node5</title>
<g id="a_node6"><a xlink:href="../../de/d0b/_string_iterator_8h.html" target="_top" xlink:title="StringIterator.h">
<polygon fill="white" stroke="black" points="104,-336.5 104,-355.5 184,-355.5 184,-336.5 104,-336.5"/>
<text text-anchor="middle" x="144" y="-343.5" font-family="Helvetica,sans-Serif" font-size="10.00">StringIterator.h</text>
</a>
</g>
</g>
<!-- Node4&#45;&gt;Node5 -->
<g id="edge6" class="edge"><title>Node4&#45;&gt;Node5</title>
<path fill="none" stroke="midnightblue" d="M166.541,-392.083C162.846,-384.691 157.477,-373.953 152.906,-364.811"/>
<polygon fill="midnightblue" stroke="midnightblue" points="155.978,-363.13 148.376,-355.751 149.717,-366.261 155.978,-363.13"/>
</g>
<!-- Node4&#45;&gt;Node6 -->
<g id="edge18" class="edge"><title>Node4&#45;&gt;Node6</title>
<path fill="none" stroke="midnightblue" d="M147.155,-392.408C130.278,-385.162 108.355,-373.197 95,-356 76.5396,-332.228 76,-321.098 76,-291 76,-291 76,-291 76,-177 76,-142.813 92.6005,-105.764 103.857,-84.5707"/>
<polygon fill="midnightblue" stroke="midnightblue" points="106.947,-86.2151 108.716,-75.769 100.819,-82.832 106.947,-86.2151"/>
</g>
<!-- Node14 -->
<g id="node15" class="node"><title>Node14</title>
<g id="a_node15"><a xlink:href="../../da/db8/_math_8h.html" target="_top" xlink:title="../utility/Math.h">
<polygon fill="white" stroke="black" points="202,-336.5 202,-355.5 284,-355.5 284,-336.5 202,-336.5"/>
<text text-anchor="middle" x="243" y="-343.5" font-family="Helvetica,sans-Serif" font-size="10.00">../utility/Math.h</text>
</a>
</g>
</g>
<!-- Node4&#45;&gt;Node14 -->
<g id="edge19" class="edge"><title>Node4&#45;&gt;Node14</title>
<path fill="none" stroke="midnightblue" d="M182.568,-392.324C193.42,-384.185 209.881,-371.839 222.883,-362.087"/>
<polygon fill="midnightblue" stroke="midnightblue" points="225.321,-364.634 231.221,-355.834 221.121,-359.034 225.321,-364.634"/>
</g>
<!-- Node5&#45;&gt;Node6 -->
<g id="edge7" class="edge"><title>Node5&#45;&gt;Node6</title>
<path fill="none" stroke="midnightblue" d="M139.954,-336.379C131.765,-318.114 114,-273.996 114,-235 114,-235 114,-235 114,-177 114,-144.948 114,-107.643 114,-85.7489"/>
<polygon fill="midnightblue" stroke="midnightblue" points="117.5,-85.5577 114,-75.5578 110.5,-85.5578 117.5,-85.5577"/>
</g>
<!-- Node8 -->
<g id="node9" class="node"><title>Node8</title>
<g id="a_node9"><a xlink:href="../../d8/dd7/_concept_8h.html" target="_top" xlink:title="Concept definitions. ">
<polygon fill="white" stroke="black" points="165.5,-280.5 165.5,-299.5 248.5,-299.5 248.5,-280.5 165.5,-280.5"/>
<text text-anchor="middle" x="207" y="-287.5" font-family="Helvetica,sans-Serif" font-size="10.00">../stl/Concept.h</text>
</a>
</g>
</g>
<!-- Node5&#45;&gt;Node8 -->
<g id="edge9" class="edge"><title>Node5&#45;&gt;Node8</title>
<path fill="none" stroke="midnightblue" d="M154.122,-336.324C163.526,-328.263 177.744,-316.077 189.069,-306.369"/>
<polygon fill="midnightblue" stroke="midnightblue" points="191.379,-308.999 196.694,-299.834 186.823,-303.684 191.379,-308.999"/>
</g>
<!-- Node7 -->
<g id="node8" class="node"><title>Node7</title>
<polygon fill="white" stroke="#bfbfbf" points="89.5,-0.5 89.5,-19.5 138.5,-19.5 138.5,-0.5 89.5,-0.5"/>
<text text-anchor="middle" x="114" y="-7.5" font-family="Helvetica,sans-Serif" font-size="10.00">stdint.h</text>
</g>
<!-- Node6&#45;&gt;Node7 -->
<g id="edge8" class="edge"><title>Node6&#45;&gt;Node7</title>
<path fill="none" stroke="midnightblue" d="M114,-56.083C114,-49.0059 114,-38.8611 114,-29.9865"/>
<polygon fill="midnightblue" stroke="midnightblue" points="117.5,-29.751 114,-19.7511 110.5,-29.7511 117.5,-29.751"/>
</g>
<!-- Node8&#45;&gt;Node9 -->
<g id="edge10" class="edge"><title>Node8&#45;&gt;Node9</title>
<path fill="none" stroke="midnightblue" d="M223.709,-280.324C240.312,-271.703 266.002,-258.364 285.22,-248.386"/>
<polygon fill="midnightblue" stroke="midnightblue" points="287.07,-251.369 294.332,-243.655 283.844,-245.156 287.07,-251.369"/>
</g>
<!-- Node11 -->
<g id="node12" class="node"><title>Node11</title>
<g id="a_node12"><a xlink:href="../../d2/d37/_tmp_8h.html" target="_top" xlink:title="Template helper types, structs, and metafunctions. ">
<polygon fill="white" stroke="black" points="193,-112.5 193,-131.5 237,-131.5 237,-112.5 193,-112.5"/>
<text text-anchor="middle" x="215" y="-119.5" font-family="Helvetica,sans-Serif" font-size="10.00">Tmp.h</text>
</a>
</g>
</g>
<!-- Node8&#45;&gt;Node11 -->
<g id="edge17" class="edge"><title>Node8&#45;&gt;Node11</title>
<path fill="none" stroke="midnightblue" d="M196.838,-280.185C188.092,-271.87 176.1,-258.539 171,-244 159.819,-212.126 158.249,-199.279 171,-168 175.8,-156.225 185.329,-145.856 194.295,-138.049"/>
<polygon fill="midnightblue" stroke="midnightblue" points="196.65,-140.645 202.219,-131.631 192.245,-135.205 196.65,-140.645"/>
</g>
<!-- Node12 -->
<g id="node13" class="node"><title>Node12</title>
<g id="a_node13"><a xlink:href="../../d4/dd5/_type_traits_8h.html" target="_top" xlink:title="Metafunctions for types. ">
<polygon fill="white" stroke="black" points="180,-168.5 180,-187.5 250,-187.5 250,-168.5 180,-168.5"/>
<text text-anchor="middle" x="215" y="-175.5" font-family="Helvetica,sans-Serif" font-size="10.00">TypeTraits.h</text>
</a>
</g>
</g>
<!-- Node8&#45;&gt;Node12 -->
<g id="edge14" class="edge"><title>Node8&#45;&gt;Node12</title>
<path fill="none" stroke="midnightblue" d="M216.556,-280.45C225.088,-272.12 236.989,-258.604 242,-244 247.735,-227.284 238.373,-208.71 229.141,-195.712"/>
<polygon fill="midnightblue" stroke="midnightblue" points="231.837,-193.476 222.958,-187.696 226.294,-197.752 231.837,-193.476"/>
</g>
<!-- Node13 -->
<g id="node14" class="node"><title>Node13</title>
<g id="a_node14"><a xlink:href="../../d2/db4/_wlib_8h.html" target="_top" xlink:title="../Wlib.h">
<polygon fill="white" stroke="black" points="180.5,-224.5 180.5,-243.5 233.5,-243.5 233.5,-224.5 180.5,-224.5"/>
<text text-anchor="middle" x="207" y="-231.5" font-family="Helvetica,sans-Serif" font-size="10.00">../Wlib.h</text>
</a>
</g>
</g>
<!-- Node8&#45;&gt;Node13 -->
<g id="edge16" class="edge"><title>Node8&#45;&gt;Node13</title>
<path fill="none" stroke="midnightblue" d="M207,-280.083C207,-273.006 207,-262.861 207,-253.986"/>
<polygon fill="midnightblue" stroke="midnightblue" points="210.5,-253.751 207,-243.751 203.5,-253.751 210.5,-253.751"/>
</g>
<!-- Node9&#45;&gt;Node10 -->
<g id="edge11" class="edge"><title>Node9&#45;&gt;Node10</title>
<path fill="none" stroke="midnightblue" d="M311,-224.083C311,-217.006 311,-206.861 311,-197.986"/>
<polygon fill="midnightblue" stroke="midnightblue" points="314.5,-197.751 311,-187.751 307.5,-197.751 314.5,-197.751"/>
</g>
<!-- Node10&#45;&gt;Node11 -->
<g id="edge12" class="edge"><title>Node10&#45;&gt;Node11</title>
<path fill="none" stroke="midnightblue" d="M295.576,-168.324C280.46,-159.822 257.185,-146.729 239.529,-136.797"/>
<polygon fill="midnightblue" stroke="midnightblue" points="240.817,-133.507 230.386,-131.655 237.386,-139.608 240.817,-133.507"/>
</g>
<!-- Node11&#45;&gt;Node6 -->
<g id="edge13" class="edge"><title>Node11&#45;&gt;Node6</title>
<path fill="none" stroke="midnightblue" d="M198.773,-112.324C182.649,-103.703 157.7,-90.3643 139.036,-80.3855"/>
<polygon fill="midnightblue" stroke="midnightblue" points="140.656,-77.283 130.187,-75.6545 137.356,-83.456 140.656,-77.283"/>
</g>
<!-- Node12&#45;&gt;Node11 -->
<g id="edge15" class="edge"><title>Node12&#45;&gt;Node11</title>
<path fill="none" stroke="midnightblue" d="M215,-168.083C215,-161.006 215,-150.861 215,-141.986"/>
<polygon fill="midnightblue" stroke="midnightblue" points="218.5,-141.751 215,-131.751 211.5,-141.751 218.5,-141.751"/>
</g>
<!-- Node15&#45;&gt;Node3 -->
<g id="edge22" class="edge"><title>Node15&#45;&gt;Node3</title>
<path fill="none" stroke="midnightblue" d="M215.248,-504.083C207.53,-496.22 196.095,-484.569 186.783,-475.081"/>
<polygon fill="midnightblue" stroke="midnightblue" points="189.092,-472.436 179.589,-467.751 184.096,-477.34 189.092,-472.436"/>
</g>
<!-- Node15&#45;&gt;Node4 -->
<g id="edge24" class="edge"><title>Node15&#45;&gt;Node4</title>
<path fill="none" stroke="midnightblue" d="M222.281,-504.236C219.553,-491.41 213.542,-466.99 204,-448 198.953,-437.956 191.702,-427.772 185.281,-419.639"/>
<polygon fill="midnightblue" stroke="midnightblue" points="187.833,-417.231 178.784,-411.722 182.422,-421.672 187.833,-417.231"/>
</g>
<!-- Node15&#45;&gt;Node6 -->
<g id="edge23" class="edge"><title>Node15&#45;&gt;Node6</title>
<path fill="none" stroke="midnightblue" d="M251.85,-504.478C291.638,-490.372 360,-458.117 360,-403 360,-403 360,-403 360,-289 360,-235.215 390.594,-213.555 362,-168 317.444,-97.0143 212.654,-75.9192 154.562,-69.6504"/>
<polygon fill="midnightblue" stroke="midnightblue" points="154.577,-66.1352 144.283,-68.6437 153.894,-73.1019 154.577,-66.1352"/>
</g>
<!-- Node16&#45;&gt;Node6 -->
<g id="edge30" class="edge"><title>Node16&#45;&gt;Node6</title>
<path fill="none" stroke="midnightblue" d="M484.816,-224.38C491.414,-211.309 501.333,-186.086 491,-168 466.686,-125.444 442.117,-128.596 396,-112 313.391,-82.2713 210.13,-72.1389 154.319,-68.7171"/>
<polygon fill="midnightblue" stroke="midnightblue" points="154.321,-65.2116 144.137,-68.1357 153.922,-72.2002 154.321,-65.2116"/>
</g>
<!-- Node16&#45;&gt;Node10 -->
<g id="edge29" class="edge"><title>Node16&#45;&gt;Node10</title>
<path fill="none" stroke="midnightblue" d="M453.221,-224.444C424.667,-215.32 379.267,-200.813 347.463,-190.651"/>
<polygon fill="midnightblue" stroke="midnightblue" points="348.244,-187.226 337.653,-187.516 346.114,-193.894 348.244,-187.226"/>
</g>
<!-- Node16&#45;&gt;Node11 -->
<g id="edge31" class="edge"><title>Node16&#45;&gt;Node11</title>
<path fill="none" stroke="midnightblue" d="M466.654,-224.447C445.253,-211.012 401.633,-184.77 362,-168 323.632,-151.765 277.4,-138.598 247.159,-130.794"/>
<polygon fill="midnightblue" stroke="midnightblue" points="247.722,-127.326 237.168,-128.26 246.001,-134.111 247.722,-127.326"/>
</g>
<!-- Node17 -->
<g id="node18" class="node"><title>Node17</title>
<polygon fill="white" stroke="#bfbfbf" points="448,-168.5 448,-187.5 482,-187.5 482,-168.5 448,-168.5"/>
<text text-anchor="middle" x="465" y="-175.5" font-family="Helvetica,sans-Serif" font-size="10.00">new</text>
</g>
<!-- Node16&#45;&gt;Node17 -->
<g id="edge32" class="edge"><title>Node16&#45;&gt;Node17</title>
<path fill="none" stroke="midnightblue" d="M477.523,-224.083C475.514,-216.849 472.614,-206.409 470.11,-197.397"/>
<polygon fill="midnightblue" stroke="midnightblue" points="473.48,-196.449 467.431,-187.751 466.735,-198.323 473.48,-196.449"/>
</g>
</g>
</svg>
        <g id="navigator" transform="translate(0 0)" fill="#404254">
                <rect fill="#f2f5e9" fill-opacity="0.5" stroke="#606060" stroke-width=".5" x="0" y="0" width="60" height="60"/>
                <use id="zoomplus" xlink:href="#zoomPlus" x="17" y="9" onmousedown="handleZoom(evt,'in')"/>
                <use id="zoomminus" xlink:href="#zoomMin" x="42" y="9" onmousedown="handleZoom(evt,'out')"/>
                <use id="reset" xlink:href="#resetDef" x="30" y="36" onmousedown="handleReset()"/>
                <g id="arrowUp" xlink:href="#dirArrow" transform="translate(30 24)" onmousedown="handlePan(0,-1)">
                  <use xlink:href="#rim" fill="#404040">
                        <set attributeName="fill" to="#808080" begin="arrowUp.mouseover" end="arrowUp.mouseout"/>
                  </use>
                  <path fill="none" stroke="white" stroke-width="1.5" d="M0,-3.0v7 M-2.5,-0.5L0,-3.0L2.5,-0.5"/>
                </g>
                <g id="arrowRight" xlink:href="#dirArrow" transform="rotate(90) translate(36 -43)" onmousedown="handlePan(1,0)">
                  <use xlink:href="#rim" fill="#404040">
                        <set attributeName="fill" to="#808080" begin="arrowRight.mouseover" end="arrowRight.mouseout"/>
                  </use>
                  <path fill="none" stroke="white" stroke-width="1.5" d="M0,-3.0v7 M-2.5,-0.5L0,-3.0L2.5,-0.5"/>
                </g>
                <g id="arrowDown" xlink:href="#dirArrow" transform="rotate(180) translate(-30 -48)" onmousedown="handlePan(0,1)">
                  <use xlink:href="#rim" fill="#404040">
                        <set attributeName="fill" to="#808080" begin="arrowDown.mouseover" end="arrowDown.mouseout"/>
                  </use>
                  <path fill="none" stroke="white" stroke-width="1.5" d="M0,-3.0v7 M-2.5,-0.5L0,-3.0L2.5,-0.5"/>
                </g>
                <g id="arrowLeft" xlink:href="#dirArrow" transform="rotate(270) translate(-36 17)" onmousedown="handlePan(-1,0)">
                  <use xlink:href="#rim" fill="#404040">
                        <set attributeName="fill" to="#808080" begin="arrowLeft.mouseover" end="arrowLeft.mouseout"/>
                  </use>
                  <path fill="none" stroke="white" stroke-width="1.5" d="M0,-3.0v7 M-2.5,-0.5L0,-3.0L2.5,-0.5"/>
                </g>
        </g>
        <svg viewBox="0 0 15 15" width="100%" height="30px" preserveAspectRatio="xMaxYMin meet">
         <g id="arrow_out" transform="scale(0.3 0.3)">
          <a xlink:href="_tree_set_8h__incl_org.svg" target="_base">
           <rect id="button" ry="5" rx="5" y="6" x="6" height="38" width="38"
                fill="#f2f5e9" fill-opacity="0.5" stroke="#606060" stroke-width="1.0"/>
           <path id="arrow"
             d="M 11.500037,31.436501 C 11.940474,20.09759 22.043105,11.32322 32.158766,21.979434 L 37.068811,17.246167 C 37.068811,17.246167 37.088388,32 37.088388,32 L 22.160133,31.978069 C 22.160133,31.978069 26.997745,27.140456 26.997745,27.140456 C 18.528582,18.264221 13.291696,25.230495 11.500037,31.436501 z"
             style="fill:#404040;"/>
          </a>
         </g>
        </svg>
</svg>
