<?xml version="1.0" encoding="UTF-8" standalone="no"?>
<!DOCTYPE svg PUBLIC "-//W3C//DTD SVG 1.1//EN"
 "http://www.w3.org/Graphics/SVG/1.1/DTD/svg11.dtd">
<!-- Generated by graphviz version 2.36.0 (20140111.2315)
 -->
<!-- Title: wlib/stl/TreeSet.h Pages: 1 -->
<svg width="877pt" height="644pt"
 viewBox="0.00 0.00 876.61 644.00" xmlns="http://www.w3.org/2000/svg" xmlns:xlink="http://www.w3.org/1999/xlink">
<g id="graph0" class="graph" transform="scale(1 1) rotate(0) translate(4 640)">
<title>wlib/stl/TreeSet.h</title>
<polygon fill="white" stroke="none" points="-4,4 -4,-640 872.609,-640 872.609,4 -4,4"/>
<!-- Node1 -->
<g id="node1" class="node"><title>Node1</title>
<polygon fill="#bfbfbf" stroke="black" points="169.053,-616.5 169.053,-635.5 262.053,-635.5 262.053,-616.5 169.053,-616.5"/>
<text text-anchor="middle" x="215.553" y="-623.5" font-family="Helvetica,sans-Serif" font-size="10.00">wlib/stl/TreeSet.h</text>
</g>
<!-- Node2 -->
<g id="node2" class="node"><title>Node2</title>
<g id="a_node2"><a xlink:href="../../d9/d37/_table_8h.html" target="_top" xlink:title="wlib/stl/Table.h">
<polygon fill="white" stroke="black" points="12.0525,-336.5 12.0525,-355.5 95.0525,-355.5 95.0525,-336.5 12.0525,-336.5"/>
<text text-anchor="middle" x="53.5525" y="-343.5" font-family="Helvetica,sans-Serif" font-size="10.00">wlib/stl/Table.h</text>
</a>
</g>
</g>
<!-- Node1&#45;&gt;Node2 -->
<g id="edge1" class="edge"><title>Node1&#45;&gt;Node2</title>
<path fill="none" stroke="midnightblue" d="M183.512,-616.435C140.535,-602.779 69.5525,-571.649 69.5525,-515 69.5525,-515 69.5525,-515 69.5525,-457 69.5525,-424.626 62.6817,-387.445 57.9451,-365.659"/>
<polygon fill="midnightblue" stroke="midnightblue" points="61.3299,-364.759 55.7103,-355.777 54.5023,-366.303 61.3299,-364.759"/>
</g>
<!-- Node9 -->
<g id="node9" class="node"><title>Node9</title>
<g id="a_node9"><a xlink:href="../../d5/d08/_red_black_tree_8h.html" target="_top" xlink:title="Red black tree implementation. ">
<polygon fill="white" stroke="black" points="301.053,-560.5 301.053,-579.5 422.053,-579.5 422.053,-560.5 301.053,-560.5"/>
<text text-anchor="middle" x="361.553" y="-567.5" font-family="Helvetica,sans-Serif" font-size="10.00">wlib/stl/RedBlackTree.h</text>
</a>
</g>
</g>
<!-- Node1&#45;&gt;Node9 -->
<g id="edge10" class="edge"><title>Node1&#45;&gt;Node9</title>
<path fill="none" stroke="midnightblue" d="M238.687,-616.444C263.035,-607.438 301.56,-593.189 328.975,-583.049"/>
<polygon fill="midnightblue" stroke="midnightblue" points="330.362,-586.268 338.527,-579.516 327.933,-579.703 330.362,-586.268"/>
</g>
<!-- Node3 -->
<g id="node3" class="node"><title>Node3</title>
<g id="a_node3"><a xlink:href="../../d7/d2a/_tuple_8h.html" target="_top" xlink:title="Template oriented tuple implementation. ">
<polygon fill="white" stroke="black" points="12.0525,-280.5 12.0525,-299.5 95.0525,-299.5 95.0525,-280.5 12.0525,-280.5"/>
<text text-anchor="middle" x="53.5525" y="-287.5" font-family="Helvetica,sans-Serif" font-size="10.00">wlib/stl/Tuple.h</text>
</a>
</g>
</g>
<!-- Node2&#45;&gt;Node3 -->
<g id="edge2" class="edge"><title>Node2&#45;&gt;Node3</title>
<path fill="none" stroke="midnightblue" d="M53.5525,-336.083C53.5525,-329.006 53.5525,-318.861 53.5525,-309.986"/>
<polygon fill="midnightblue" stroke="midnightblue" points="57.0526,-309.751 53.5525,-299.751 50.0526,-309.751 57.0526,-309.751"/>
</g>
<!-- Node6 -->
<g id="node6" class="node"><title>Node6</title>
<g id="a_node6"><a xlink:href="../../d2/d37/_tmp_8h.html" target="_top" xlink:title="Template helper types, structs, and metafunctions. ">
<polygon fill="white" stroke="black" points="310.053,-112.5 310.053,-131.5 401.053,-131.5 401.053,-112.5 310.053,-112.5"/>
<text text-anchor="middle" x="355.553" y="-119.5" font-family="Helvetica,sans-Serif" font-size="10.00">wlib/utility/Tmp.h</text>
</a>
</g>
</g>
<!-- Node2&#45;&gt;Node6 -->
<g id="edge9" class="edge"><title>Node2&#45;&gt;Node6</title>
<path fill="none" stroke="midnightblue" d="M38.2365,-336.408C19.5797,-324.728 -8.20121,-302.681 2.5525,-280 36.2455,-208.936 68.5776,-201.88 139.553,-168 190.545,-143.659 254.488,-132.428 299.528,-127.281"/>
<polygon fill="midnightblue" stroke="midnightblue" points="300.126,-130.737 309.693,-126.185 299.376,-123.777 300.126,-130.737"/>
</g>
<!-- Node4 -->
<g id="node4" class="node"><title>Node4</title>
<g id="a_node4"><a xlink:href="../../d4/dda/_pair_8h.html" target="_top" xlink:title="Implementation of a 2&#45;element tuple. ">
<polygon fill="white" stroke="black" points="157.553,-224.5 157.553,-243.5 233.553,-243.5 233.553,-224.5 157.553,-224.5"/>
<text text-anchor="middle" x="195.553" y="-231.5" font-family="Helvetica,sans-Serif" font-size="10.00">wlib/stl/Pair.h</text>
</a>
</g>
</g>
<!-- Node3&#45;&gt;Node4 -->
<g id="edge3" class="edge"><title>Node3&#45;&gt;Node4</title>
<path fill="none" stroke="midnightblue" d="M76.0528,-280.444C99.6299,-271.478 136.875,-257.314 163.517,-247.183"/>
<polygon fill="midnightblue" stroke="midnightblue" points="165.055,-250.342 173.157,-243.516 162.566,-243.8 165.055,-250.342"/>
</g>
<!-- Node3&#45;&gt;Node6 -->
<g id="edge8" class="edge"><title>Node3&#45;&gt;Node6</title>
<path fill="none" stroke="midnightblue" d="M59.3126,-280.18C74.7396,-257.357 119.51,-196.177 173.553,-168 213.124,-147.368 262.515,-135.928 299.855,-129.752"/>
<polygon fill="midnightblue" stroke="midnightblue" points="300.716,-133.16 310.049,-128.147 299.627,-126.245 300.716,-133.16"/>
</g>
<!-- Node5 -->
<g id="node5" class="node"><title>Node5</title>
<g id="a_node5"><a xlink:href="../../db/d2a/_utility_8h.html" target="_top" xlink:title="Various helper functions. ">
<polygon fill="white" stroke="black" points="183.053,-168.5 183.053,-187.5 280.053,-187.5 280.053,-168.5 183.053,-168.5"/>
<text text-anchor="middle" x="231.553" y="-175.5" font-family="Helvetica,sans-Serif" font-size="10.00">wlib/utility/Utility.h</text>
</a>
</g>
</g>
<!-- Node4&#45;&gt;Node5 -->
<g id="edge4" class="edge"><title>Node4&#45;&gt;Node5</title>
<path fill="none" stroke="midnightblue" d="M201.497,-224.083C206.53,-216.534 213.889,-205.495 220.066,-196.23"/>
<polygon fill="midnightblue" stroke="midnightblue" points="223.084,-198.013 225.718,-187.751 217.259,-194.13 223.084,-198.013"/>
</g>
<!-- Node5&#45;&gt;Node6 -->
<g id="edge5" class="edge"><title>Node5&#45;&gt;Node6</title>
<path fill="none" stroke="midnightblue" d="M251.201,-168.444C271.517,-159.596 303.455,-145.687 326.65,-135.586"/>
<polygon fill="midnightblue" stroke="midnightblue" points="328.225,-138.718 335.996,-131.516 325.43,-132.3 328.225,-138.718"/>
</g>
<!-- Node7 -->
<g id="node7" class="node"><title>Node7</title>
<g id="a_node7"><a xlink:href="../../d0/db6/_types_8h.html" target="_top" xlink:title="type definition of all the string types we will be using ">
<polygon fill="white" stroke="black" points="698.553,-56.5 698.553,-75.5 770.553,-75.5 770.553,-56.5 698.553,-56.5"/>
<text text-anchor="middle" x="734.553" y="-63.5" font-family="Helvetica,sans-Serif" font-size="10.00">wlib/Types.h</text>
</a>
</g>
</g>
<!-- Node6&#45;&gt;Node7 -->
<g id="edge6" class="edge"><title>Node6&#45;&gt;Node7</title>
<path fill="none" stroke="midnightblue" d="M401.269,-114.486C473.984,-104.126 615.219,-84.0027 688.281,-73.5928"/>
<polygon fill="midnightblue" stroke="midnightblue" points="689.143,-77.0054 698.549,-72.1297 688.156,-70.0754 689.143,-77.0054"/>
</g>
<!-- Node8 -->
<g id="node8" class="node"><title>Node8</title>
<polygon fill="white" stroke="#bfbfbf" points="710.053,-0.5 710.053,-19.5 759.053,-19.5 759.053,-0.5 710.053,-0.5"/>
<text text-anchor="middle" x="734.553" y="-7.5" font-family="Helvetica,sans-Serif" font-size="10.00">stdint.h</text>
</g>
<!-- Node7&#45;&gt;Node8 -->
<g id="edge7" class="edge"><title>Node7&#45;&gt;Node8</title>
<path fill="none" stroke="midnightblue" d="M734.553,-56.083C734.553,-49.0059 734.553,-38.8611 734.553,-29.9865"/>
<polygon fill="midnightblue" stroke="midnightblue" points="738.053,-29.751 734.553,-19.7511 731.053,-29.7511 738.053,-29.751"/>
</g>
<!-- Node9&#45;&gt;Node4 -->
<g id="edge36" class="edge"><title>Node9&#45;&gt;Node4</title>
<path fill="none" stroke="midnightblue" d="M301.003,-561.468C242.138,-550.36 161.553,-523.395 161.553,-459 161.553,-459 161.553,-459 161.553,-345 161.553,-311.16 176.422,-273.97 186.494,-252.661"/>
<polygon fill="midnightblue" stroke="midnightblue" points="189.697,-254.079 190.967,-243.56 183.415,-250.991 189.697,-254.079"/>
</g>
<!-- Node9&#45;&gt;Node5 -->
<g id="edge39" class="edge"><title>Node9&#45;&gt;Node5</title>
<path fill="none" stroke="midnightblue" d="M300.879,-566.474C230.366,-559.903 123.553,-537.065 123.553,-459 123.553,-459 123.553,-459 123.553,-289 123.553,-258.048 128.13,-247.258 148.553,-224 161.3,-209.483 179.904,-198.794 196.269,-191.486"/>
<polygon fill="midnightblue" stroke="midnightblue" points="197.722,-194.672 205.585,-187.57 195.01,-188.219 197.722,-194.672"/>
</g>
<!-- Node9&#45;&gt;Node7 -->
<g id="edge37" class="edge"><title>Node9&#45;&gt;Node7</title>
<path fill="none" stroke="midnightblue" d="M422.089,-567.169C545.287,-562.907 816.282,-550.595 848.553,-524 871.779,-504.858 867.553,-489.098 867.553,-459 867.553,-459 867.553,-459 867.553,-177 867.553,-126.725 810.423,-95.1005 771.049,-79.2746"/>
<polygon fill="midnightblue" stroke="midnightblue" points="772.057,-75.9123 761.467,-75.5897 769.544,-82.4459 772.057,-75.9123"/>
</g>
<!-- Node10 -->
<g id="node10" class="node"><title>Node10</title>
<g id="a_node10"><a xlink:href="../../d7/d0c/_comparator_8h.html" target="_top" xlink:title="Comparator implementation for basic types. ">
<polygon fill="white" stroke="black" points="389.553,-504.5 389.553,-523.5 499.553,-523.5 499.553,-504.5 389.553,-504.5"/>
<text text-anchor="middle" x="444.553" y="-511.5" font-family="Helvetica,sans-Serif" font-size="10.00">wlib/stl/Comparator.h</text>
</a>
</g>
</g>
<!-- Node9&#45;&gt;Node10 -->
<g id="edge11" class="edge"><title>Node9&#45;&gt;Node10</title>
<path fill="none" stroke="midnightblue" d="M374.888,-560.324C387.714,-551.979 407.337,-539.212 422.492,-529.352"/>
<polygon fill="midnightblue" stroke="midnightblue" points="424.777,-532.042 431.25,-523.655 420.959,-526.174 424.777,-532.042"/>
</g>
<!-- Node19 -->
<g id="node19" class="node"><title>Node19</title>
<g id="a_node19"><a xlink:href="../../d3/de6/_memory_8h.html" target="_top" xlink:title="Memory is a class that provides dynamic fixed size memory. ">
<polygon fill="white" stroke="black" points="304.053,-336.5 304.053,-355.5 423.053,-355.5 423.053,-336.5 304.053,-336.5"/>
<text text-anchor="middle" x="363.553" y="-343.5" font-family="Helvetica,sans-Serif" font-size="10.00">wlib/memory/Memory.h</text>
</a>
</g>
</g>
<!-- Node9&#45;&gt;Node19 -->
<g id="edge38" class="edge"><title>Node9&#45;&gt;Node19</title>
<path fill="none" stroke="midnightblue" d="M361.631,-560.297C361.925,-527.633 362.968,-411.866 363.382,-365.957"/>
<polygon fill="midnightblue" stroke="midnightblue" points="366.882,-365.915 363.472,-355.884 359.882,-365.852 366.882,-365.915"/>
</g>
<!-- Node21 -->
<g id="node21" class="node"><title>Node21</title>
<g id="a_node21"><a xlink:href="../../d7/d2f/_exceptions_8h.html" target="_top" xlink:title="Implementation of Exceptions using C style. ">
<polygon fill="white" stroke="black" points="695.553,-504.5 695.553,-523.5 839.553,-523.5 839.553,-504.5 695.553,-504.5"/>
<text text-anchor="middle" x="767.553" y="-511.5" font-family="Helvetica,sans-Serif" font-size="10.00">wlib/exceptions/Exceptions.h</text>
</a>
</g>
</g>
<!-- Node9&#45;&gt;Node21 -->
<g id="edge40" class="edge"><title>Node9&#45;&gt;Node21</title>
<path fill="none" stroke="midnightblue" d="M422.335,-560.916C494.633,-551.3 615.296,-535.251 693.119,-524.9"/>
<polygon fill="midnightblue" stroke="midnightblue" points="693.882,-528.329 703.334,-523.541 692.959,-521.391 693.882,-528.329"/>
</g>
<!-- Node10&#45;&gt;Node7 -->
<g id="edge13" class="edge"><title>Node10&#45;&gt;Node7</title>
<path fill="none" stroke="midnightblue" d="M499.919,-511.025C597.887,-504.255 791.553,-474.72 791.553,-347 791.553,-347 791.553,-347 791.553,-177 791.553,-140.3 766.232,-103.657 749.343,-83.2973"/>
<polygon fill="midnightblue" stroke="midnightblue" points="751.9,-80.9037 742.719,-75.6161 746.599,-85.475 751.9,-80.9037"/>
</g>
<!-- Node11 -->
<g id="node11" class="node"><title>Node11</title>
<polygon fill="white" stroke="#bfbfbf" points="190.053,-280.5 190.053,-299.5 239.053,-299.5 239.053,-280.5 190.053,-280.5"/>
<text text-anchor="middle" x="214.553" y="-287.5" font-family="Helvetica,sans-Serif" font-size="10.00">string.h</text>
</g>
<!-- Node10&#45;&gt;Node11 -->
<g id="edge12" class="edge"><title>Node10&#45;&gt;Node11</title>
<path fill="none" stroke="midnightblue" d="M426.991,-504.479C387.323,-484.337 290.234,-429.875 238.553,-356 228.65,-341.845 222.305,-323.116 218.642,-309.399"/>
<polygon fill="midnightblue" stroke="midnightblue" points="222.036,-308.541 216.263,-299.657 215.235,-310.202 222.036,-308.541"/>
</g>
<!-- Node12 -->
<g id="node12" class="node"><title>Node12</title>
<g id="a_node12"><a xlink:href="../../d2/dc2/_equal_8h.html" target="_top" xlink:title="wlib/stl/Equal.h">
<polygon fill="white" stroke="black" points="401.053,-448.5 401.053,-467.5 484.053,-467.5 484.053,-448.5 401.053,-448.5"/>
<text text-anchor="middle" x="442.553" y="-455.5" font-family="Helvetica,sans-Serif" font-size="10.00">wlib/stl/Equal.h</text>
</a>
</g>
</g>
<!-- Node10&#45;&gt;Node12 -->
<g id="edge14" class="edge"><title>Node10&#45;&gt;Node12</title>
<path fill="none" stroke="midnightblue" d="M444.222,-504.083C443.96,-497.006 443.584,-486.861 443.256,-477.986"/>
<polygon fill="midnightblue" stroke="midnightblue" points="446.744,-477.615 442.877,-467.751 439.749,-477.874 446.744,-477.615"/>
</g>
<!-- Node13 -->
<g id="node13" class="node"><title>Node13</title>
<g id="a_node13"><a xlink:href="../../db/db5/_string_8h.html" target="_top" xlink:title="wlib/strings/String.h">
<polygon fill="white" stroke="black" points="457.053,-392.5 457.053,-411.5 560.053,-411.5 560.053,-392.5 457.053,-392.5"/>
<text text-anchor="middle" x="508.553" y="-399.5" font-family="Helvetica,sans-Serif" font-size="10.00">wlib/strings/String.h</text>
</a>
</g>
</g>
<!-- Node10&#45;&gt;Node13 -->
<g id="edge35" class="edge"><title>Node10&#45;&gt;Node13</title>
<path fill="none" stroke="midnightblue" d="M457.109,-504.492C468.102,-496.383 483.667,-483.182 492.553,-468 500.899,-453.738 504.91,-435.267 506.826,-421.662"/>
<polygon fill="midnightblue" stroke="midnightblue" points="510.32,-421.914 507.993,-411.578 503.367,-421.109 510.32,-421.914"/>
</g>
<!-- Node12&#45;&gt;Node7 -->
<g id="edge16" class="edge"><title>Node12&#45;&gt;Node7</title>
<path fill="none" stroke="midnightblue" d="M484.173,-451.203C568.917,-438.23 753.553,-403.483 753.553,-347 753.553,-347 753.553,-347 753.553,-177 753.553,-144.489 745.393,-107.35 739.769,-85.6103"/>
<polygon fill="midnightblue" stroke="midnightblue" points="743.094,-84.498 737.115,-75.7514 736.335,-86.3175 743.094,-84.498"/>
</g>
<!-- Node12&#45;&gt;Node11 -->
<g id="edge15" class="edge"><title>Node12&#45;&gt;Node11</title>
<path fill="none" stroke="midnightblue" d="M419.626,-448.389C382.751,-433.711 309.364,-401.008 259.553,-356 244.474,-342.376 231.785,-322.768 223.764,-308.656"/>
<polygon fill="midnightblue" stroke="midnightblue" points="226.641,-306.62 218.782,-299.515 220.495,-309.97 226.641,-306.62"/>
</g>
<!-- Node12&#45;&gt;Node13 -->
<g id="edge17" class="edge"><title>Node12&#45;&gt;Node13</title>
<path fill="none" stroke="midnightblue" d="M453.157,-448.324C463.009,-440.263 477.903,-428.077 489.768,-418.369"/>
<polygon fill="midnightblue" stroke="midnightblue" points="492.232,-420.875 497.756,-411.834 487.8,-415.457 492.232,-420.875"/>
</g>
<!-- Node13&#45;&gt;Node7 -->
<g id="edge27" class="edge"><title>Node13&#45;&gt;Node7</title>
<path fill="none" stroke="midnightblue" d="M560.417,-394.343C608.754,-387.134 676.205,-374.177 695.553,-356 717.581,-335.304 715.553,-321.225 715.553,-291 715.553,-291 715.553,-291 715.553,-177 715.553,-144.489 723.712,-107.35 729.336,-85.6103"/>
<polygon fill="midnightblue" stroke="midnightblue" points="732.77,-86.3175 731.99,-75.7514 726.011,-84.498 732.77,-86.3175"/>
</g>
<!-- Node13&#45;&gt;Node11 -->
<g id="edge18" class="edge"><title>Node13&#45;&gt;Node11</title>
<path fill="none" stroke="midnightblue" d="M456.643,-396.998C411.889,-391.964 346.474,-380.748 294.553,-356 269.2,-343.916 244.867,-322.22 229.83,-307.238"/>
<polygon fill="midnightblue" stroke="midnightblue" points="231.974,-304.424 222.486,-299.71 226.964,-309.312 231.974,-304.424"/>
</g>
<!-- Node14 -->
<g id="node14" class="node"><title>Node14</title>
<g id="a_node14"><a xlink:href="../../de/d0b/_string_iterator_8h.html" target="_top" xlink:title="wlib/strings/StringIterator.h">
<polygon fill="white" stroke="black" points="441.553,-336.5 441.553,-355.5 575.553,-355.5 575.553,-336.5 441.553,-336.5"/>
<text text-anchor="middle" x="508.553" y="-343.5" font-family="Helvetica,sans-Serif" font-size="10.00">wlib/strings/StringIterator.h</text>
</a>
</g>
</g>
<!-- Node13&#45;&gt;Node14 -->
<g id="edge19" class="edge"><title>Node13&#45;&gt;Node14</title>
<path fill="none" stroke="midnightblue" d="M508.553,-392.083C508.553,-385.006 508.553,-374.861 508.553,-365.986"/>
<polygon fill="midnightblue" stroke="midnightblue" points="512.053,-365.751 508.553,-355.751 505.053,-365.751 512.053,-365.751"/>
</g>
<!-- Node18 -->
<g id="node18" class="node"><title>Node18</title>
<g id="a_node18"><a xlink:href="../../da/db8/_math_8h.html" target="_top" xlink:title="wlib/utility/Math.h">
<polygon fill="white" stroke="black" points="594.053,-336.5 594.053,-355.5 687.053,-355.5 687.053,-336.5 594.053,-336.5"/>
<text text-anchor="middle" x="640.553" y="-343.5" font-family="Helvetica,sans-Serif" font-size="10.00">wlib/utility/Math.h</text>
</a>
</g>
</g>
<!-- Node13&#45;&gt;Node18 -->
<g id="edge28" class="edge"><title>Node13&#45;&gt;Node18</title>
<path fill="none" stroke="midnightblue" d="M529.468,-392.444C551.288,-383.517 585.702,-369.439 610.445,-359.317"/>
<polygon fill="midnightblue" stroke="midnightblue" points="611.804,-362.542 619.735,-355.516 609.154,-356.063 611.804,-362.542"/>
</g>
<!-- Node13&#45;&gt;Node19 -->
<g id="edge29" class="edge"><title>Node13&#45;&gt;Node19</title>
<path fill="none" stroke="midnightblue" d="M485.577,-392.444C461.396,-383.438 423.134,-369.189 395.906,-359.049"/>
<polygon fill="midnightblue" stroke="midnightblue" points="397.013,-355.727 386.421,-355.516 394.57,-362.286 397.013,-355.727"/>
</g>
<!-- Node14&#45;&gt;Node7 -->
<g id="edge20" class="edge"><title>Node14&#45;&gt;Node7</title>
<path fill="none" stroke="midnightblue" d="M575.719,-337.255C602.787,-331.068 632.517,-319.954 653.553,-300 675.895,-278.807 677.553,-265.795 677.553,-235 677.553,-235 677.553,-235 677.553,-177 677.553,-140.3 702.873,-103.657 719.762,-83.2973"/>
<polygon fill="midnightblue" stroke="midnightblue" points="722.506,-85.475 726.386,-75.6161 717.205,-80.9037 722.506,-85.475"/>
</g>
<!-- Node15 -->
<g id="node15" class="node"><title>Node15</title>
<g id="a_node15"><a xlink:href="../../d8/dd7/_concept_8h.html" target="_top" xlink:title="Concept definitions. ">
<polygon fill="white" stroke="black" points="461.053,-280.5 461.053,-299.5 556.053,-299.5 556.053,-280.5 461.053,-280.5"/>
<text text-anchor="middle" x="508.553" y="-287.5" font-family="Helvetica,sans-Serif" font-size="10.00">wlib/stl/Concept.h</text>
</a>
</g>
</g>
<!-- Node14&#45;&gt;Node15 -->
<g id="edge21" class="edge"><title>Node14&#45;&gt;Node15</title>
<path fill="none" stroke="midnightblue" d="M508.553,-336.083C508.553,-329.006 508.553,-318.861 508.553,-309.986"/>
<polygon fill="midnightblue" stroke="midnightblue" points="512.053,-309.751 508.553,-299.751 505.053,-309.751 512.053,-309.751"/>
</g>
<!-- Node15&#45;&gt;Node4 -->
<g id="edge23" class="edge"><title>Node15&#45;&gt;Node4</title>
<path fill="none" stroke="midnightblue" d="M461.015,-280.799C402.29,-270.667 302.931,-253.525 243.856,-243.334"/>
<polygon fill="midnightblue" stroke="midnightblue" points="244.118,-239.827 233.668,-241.576 242.928,-246.725 244.118,-239.827"/>
</g>
<!-- Node15&#45;&gt;Node6 -->
<g id="edge26" class="edge"><title>Node15&#45;&gt;Node6</title>
<path fill="none" stroke="midnightblue" d="M510.713,-280.202C515.493,-258.459 524.519,-201.533 497.553,-168 476.876,-142.289 441.542,-131.029 411.294,-126.201"/>
<polygon fill="midnightblue" stroke="midnightblue" points="411.648,-122.716 401.26,-124.799 410.679,-129.649 411.648,-122.716"/>
</g>
<!-- Node16 -->
<g id="node16" class="node"><title>Node16</title>
<g id="a_node16"><a xlink:href="../../d2/db4/_wlib_8h.html" target="_top" xlink:title="wlib/Wlib.h">
<polygon fill="white" stroke="black" points="546.053,-224.5 546.053,-243.5 611.053,-243.5 611.053,-224.5 546.053,-224.5"/>
<text text-anchor="middle" x="578.553" y="-231.5" font-family="Helvetica,sans-Serif" font-size="10.00">wlib/Wlib.h</text>
</a>
</g>
</g>
<!-- Node15&#45;&gt;Node16 -->
<g id="edge22" class="edge"><title>Node15&#45;&gt;Node16</title>
<path fill="none" stroke="midnightblue" d="M519.799,-280.324C530.35,-272.185 546.353,-259.839 558.995,-250.087"/>
<polygon fill="midnightblue" stroke="midnightblue" points="561.321,-252.713 567.101,-243.834 557.045,-247.171 561.321,-252.713"/>
</g>
<!-- Node17 -->
<g id="node17" class="node"><title>Node17</title>
<g id="a_node17"><a xlink:href="../../d4/dd5/_type_traits_8h.html" target="_top" xlink:title="Metafunctions for types. ">
<polygon fill="white" stroke="black" points="384.053,-168.5 384.053,-187.5 489.053,-187.5 489.053,-168.5 384.053,-168.5"/>
<text text-anchor="middle" x="436.553" y="-175.5" font-family="Helvetica,sans-Serif" font-size="10.00">wlib/stl/TypeTraits.h</text>
</a>
</g>
</g>
<!-- Node15&#45;&gt;Node17 -->
<g id="edge24" class="edge"><title>Node15&#45;&gt;Node17</title>
<path fill="none" stroke="midnightblue" d="M502.903,-280.368C491.021,-262.215 463.259,-219.802 447.673,-195.99"/>
<polygon fill="midnightblue" stroke="midnightblue" points="450.581,-194.042 442.176,-187.591 444.724,-197.875 450.581,-194.042"/>
</g>
<!-- Node17&#45;&gt;Node6 -->
<g id="edge25" class="edge"><title>Node17&#45;&gt;Node6</title>
<path fill="none" stroke="midnightblue" d="M423.538,-168.324C411.021,-159.979 391.871,-147.212 377.081,-137.352"/>
<polygon fill="midnightblue" stroke="midnightblue" points="378.796,-134.289 368.534,-131.655 374.913,-140.114 378.796,-134.289"/>
</g>
<!-- Node19&#45;&gt;Node5 -->
<g id="edge32" class="edge"><title>Node19&#45;&gt;Node5</title>
<path fill="none" stroke="midnightblue" d="M341.162,-336.356C324.301,-328.889 301.596,-316.666 286.553,-300 259.077,-269.561 243.244,-223.077 236.13,-197.49"/>
<polygon fill="midnightblue" stroke="midnightblue" points="239.463,-196.404 233.534,-187.624 232.693,-198.185 239.463,-196.404"/>
</g>
<!-- Node19&#45;&gt;Node6 -->
<g id="edge33" class="edge"><title>Node19&#45;&gt;Node6</title>
<path fill="none" stroke="midnightblue" d="M376.617,-336.436C387.467,-328.471 402.126,-315.515 408.553,-300 411.954,-291.788 410.118,-288.75 408.553,-280 400.877,-237.089 388.232,-229.39 374.553,-188 369.422,-172.476 364.259,-154.638 360.613,-141.58"/>
<polygon fill="midnightblue" stroke="midnightblue" points="363.973,-140.601 357.94,-131.892 357.225,-142.462 363.973,-140.601"/>
</g>
<!-- Node19&#45;&gt;Node7 -->
<g id="edge31" class="edge"><title>Node19&#45;&gt;Node7</title>
<path fill="none" stroke="midnightblue" d="M414.96,-336.448C465.524,-327.51 538.771,-313.005 564.553,-300 603.936,-280.135 639.553,-279.11 639.553,-235 639.553,-235 639.553,-235 639.553,-177 639.553,-133.739 682.161,-99.0862 710.307,-80.9149"/>
<polygon fill="midnightblue" stroke="midnightblue" points="712.214,-83.851 718.865,-75.6042 708.523,-77.9032 712.214,-83.851"/>
</g>
<!-- Node19&#45;&gt;Node11 -->
<g id="edge30" class="edge"><title>Node19&#45;&gt;Node11</title>
<path fill="none" stroke="midnightblue" d="M339.943,-336.444C315.095,-327.438 275.778,-313.189 247.799,-303.049"/>
<polygon fill="midnightblue" stroke="midnightblue" points="248.646,-299.633 238.052,-299.516 246.261,-306.214 248.646,-299.633"/>
</g>
<!-- Node20 -->
<g id="node20" class="node"><title>Node20</title>
<g id="a_node20"><a xlink:href="../../d9/d8a/_new_8h.html" target="_top" xlink:title="New operators defined for Arduino boards and for other boards use the normal new. ...">
<polygon fill="white" stroke="black" points="295.553,-280.5 295.553,-299.5 399.553,-299.5 399.553,-280.5 295.553,-280.5"/>
<text text-anchor="middle" x="347.553" y="-287.5" font-family="Helvetica,sans-Serif" font-size="10.00">wlib/memory/New.h</text>
</a>
</g>
</g>
<!-- Node19&#45;&gt;Node20 -->
<g id="edge34" class="edge"><title>Node19&#45;&gt;Node20</title>
<path fill="none" stroke="midnightblue" d="M360.91,-336.083C358.767,-328.849 355.674,-318.409 353.003,-309.397"/>
<polygon fill="midnightblue" stroke="midnightblue" points="356.342,-308.345 350.145,-299.751 349.631,-310.333 356.342,-308.345"/>
</g>
<!-- Node21&#45;&gt;Node7 -->
<g id="edge42" class="edge"><title>Node21&#45;&gt;Node7</title>
<path fill="none" stroke="midnightblue" d="M778.253,-504.448C788.001,-496.116 802.125,-482.599 810.553,-468 825.6,-441.934 829.553,-433.098 829.553,-403 829.553,-403 829.553,-403 829.553,-177 829.553,-146.205 824.911,-135.949 805.553,-112 794.565,-98.4072 778.319,-87.6837 764.138,-80.1197"/>
<polygon fill="midnightblue" stroke="midnightblue" points="765.699,-76.987 755.195,-75.607 762.546,-83.2365 765.699,-76.987"/>
</g>
<!-- Node22 -->
<g id="node22" class="node"><title>Node22</title>
<polygon fill="white" stroke="#bfbfbf" points="747.553,-448.5 747.553,-467.5 801.553,-467.5 801.553,-448.5 747.553,-448.5"/>
<text text-anchor="middle" x="774.553" y="-455.5" font-family="Helvetica,sans-Serif" font-size="10.00">setjmp.h</text>
</g>
<!-- Node21&#45;&gt;Node22 -->
<g id="edge41" class="edge"><title>Node21&#45;&gt;Node22</title>
<path fill="none" stroke="midnightblue" d="M768.708,-504.083C769.636,-496.927 770.97,-486.635 772.13,-477.691"/>
<polygon fill="midnightblue" stroke="midnightblue" points="775.603,-478.118 773.418,-467.751 768.662,-477.218 775.603,-478.118"/>
</g>
</g>
</svg>
