<?xml version="1.0" encoding="UTF-8" standalone="no"?>
<!DOCTYPE svg PUBLIC "-//W3C//DTD SVG 1.1//EN"
 "http://www.w3.org/Graphics/SVG/1.1/DTD/svg11.dtd">
<!-- Generated by graphviz version 2.36.0 (20140111.2315)
 -->
<!-- Title: wlib/stl/TreeSet.h Pages: 1 -->
<!--zoomable 644 -->
<svg id="main" version="1.1" xmlns="http://www.w3.org/2000/svg" xmlns:xlink="http://www.w3.org/1999/xlink" xml:space="preserve" onload="init(evt)">
<style type="text/css"><![CDATA[
.edge:hover path { stroke: red; }
.edge:hover polygon { stroke: red; fill: red; }
]]></style>
<script type="text/javascript"><![CDATA[
var edges = document.getElementsByTagName('g');
if (edges && edges.length) {
  for (var i=0;i<edges.length;i++) {
    if (edges[i].id.substr(0,4)=='edge') {
      edges[i].setAttribute('class','edge');
    }
  }
}
]]></script>
        <defs>
                <circle id="rim" cx="0" cy="0" r="7"/>
                <circle id="rim2" cx="0" cy="0" r="3.5"/>
                <g id="zoomPlus">
                        <use xlink:href="#rim" fill="#404040">
                                <set attributeName="fill" to="#808080" begin="zoomplus.mouseover" end="zoomplus.mouseout"/>
                        </use>
                        <path d="M-4,0h8M0,-4v8" fill="none" stroke="white" stroke-width="1.5" pointer-events="none"/>
                </g>
                <g id="zoomMin">
                        <use xlink:href="#rim" fill="#404040">
                                <set attributeName="fill" to="#808080" begin="zoomminus.mouseover" end="zoomminus.mouseout"/>
                        </use>
                        <path d="M-4,0h8" fill="none" stroke="white" stroke-width="1.5" pointer-events="none"/>
                </g>
                <g id="dirArrow">
                        <path fill="none" stroke="white" stroke-width="1.5" d="M0,-3.0v7 M-2.5,-0.5L0,-3.0L2.5,-0.5"/>
                </g>
               <g id="resetDef">
                       <use xlink:href="#rim2" fill="#404040">
                               <set attributeName="fill" to="#808080" begin="reset.mouseover" end="reset.mouseout"/>
                       </use>
               </g>
        </defs>

<script type="text/javascript">
var viewWidth = 850;
var viewHeight = 644;
var sectionId = 'dynsection-0';
</script>
<script xlink:href="../../svgpan.js"/>
<svg id="graph" class="graph">
<g id="viewport">
<title>wlib/stl/TreeSet.h</title>
<polygon fill="white" stroke="none" points="-4,4 -4,-640 846,-640 846,4 -4,4"/>
<!-- Node1 -->
<g id="node1" class="node"><title>Node1</title>
<polygon fill="#bfbfbf" stroke="black" points="502.5,-616.5 502.5,-635.5 595.5,-635.5 595.5,-616.5 502.5,-616.5"/>
<text text-anchor="middle" x="549" y="-623.5" font-family="Helvetica,sans-Serif" font-size="10.00">wlib/stl/TreeSet.h</text>
</g>
<!-- Node2 -->
<g id="node2" class="node"><title>Node2</title>
<g id="a_node2"><a xlink:href="../../d9/d37/_table_8h.html" target="_top" xlink:title="Table.h">
<polygon fill="white" stroke="black" points="645.5,-336.5 645.5,-355.5 694.5,-355.5 694.5,-336.5 645.5,-336.5"/>
<text text-anchor="middle" x="670" y="-343.5" font-family="Helvetica,sans-Serif" font-size="10.00">Table.h</text>
</a>
</g>
</g>
<!-- Node1&#45;&gt;Node2 -->
<g id="edge1" class="edge"><title>Node1&#45;&gt;Node2</title>
<path fill="none" stroke="midnightblue" d="M571.759,-616.43C606.81,-601.579 670,-567.522 670,-515 670,-515 670,-515 670,-457 670,-424.948 670,-387.643 670,-365.749"/>
<polygon fill="midnightblue" stroke="midnightblue" points="673.5,-365.558 670,-355.558 666.5,-365.558 673.5,-365.558"/>
</g>
<!-- Node9 -->
<g id="node9" class="node"><title>Node9</title>
<g id="a_node9"><a xlink:href="../../d5/d08/_red_black_tree_8h.html" target="_top" xlink:title="Red black tree implementation. ">
<polygon fill="white" stroke="black" points="384.5,-560.5 384.5,-579.5 471.5,-579.5 471.5,-560.5 384.5,-560.5"/>
<text text-anchor="middle" x="428" y="-567.5" font-family="Helvetica,sans-Serif" font-size="10.00">RedBlackTree.h</text>
</a>
</g>
</g>
<!-- Node1&#45;&gt;Node9 -->
<g id="edge10" class="edge"><title>Node1&#45;&gt;Node9</title>
<path fill="none" stroke="midnightblue" d="M529.827,-616.444C510.091,-607.636 479.115,-593.812 456.507,-583.722"/>
<polygon fill="midnightblue" stroke="midnightblue" points="457.641,-580.396 447.083,-579.516 454.789,-586.788 457.641,-580.396"/>
</g>
<!-- Node3 -->
<g id="node3" class="node"><title>Node3</title>
<g id="a_node3"><a xlink:href="../../d7/d2a/_tuple_8h.html" target="_top" xlink:title="Template oriented tuple implementation. ">
<polygon fill="white" stroke="black" points="572.5,-280.5 572.5,-299.5 621.5,-299.5 621.5,-280.5 572.5,-280.5"/>
<text text-anchor="middle" x="597" y="-287.5" font-family="Helvetica,sans-Serif" font-size="10.00">Tuple.h</text>
</a>
</g>
</g>
<!-- Node2&#45;&gt;Node3 -->
<g id="edge2" class="edge"><title>Node2&#45;&gt;Node3</title>
<path fill="none" stroke="midnightblue" d="M658.271,-336.324C647.163,-328.107 630.258,-315.602 617.017,-305.807"/>
<polygon fill="midnightblue" stroke="midnightblue" points="619.063,-302.967 608.942,-299.834 614.9,-308.595 619.063,-302.967"/>
</g>
<!-- Node6 -->
<g id="node6" class="node"><title>Node6</title>
<g id="a_node6"><a xlink:href="../../d2/d37/_tmp_8h.html" target="_top" xlink:title="Template helper types, structs, and metafunctions. ">
<polygon fill="white" stroke="black" points="413,-112.5 413,-131.5 457,-131.5 457,-112.5 413,-112.5"/>
<text text-anchor="middle" x="435" y="-119.5" font-family="Helvetica,sans-Serif" font-size="10.00">Tmp.h</text>
</a>
</g>
</g>
<!-- Node2&#45;&gt;Node6 -->
<g id="edge9" class="edge"><title>Node2&#45;&gt;Node6</title>
<path fill="none" stroke="midnightblue" d="M666.006,-336.244C652.62,-307.832 606.533,-217.208 542,-168 519.487,-150.834 489.46,-138.956 466.946,-131.733"/>
<polygon fill="midnightblue" stroke="midnightblue" points="467.771,-128.325 457.184,-128.739 465.719,-135.017 467.771,-128.325"/>
</g>
<!-- Node4 -->
<g id="node4" class="node"><title>Node4</title>
<g id="a_node4"><a xlink:href="../../d4/dda/_pair_8h.html" target="_top" xlink:title="Implementation of a 2&#45;element tuple. ">
<polygon fill="white" stroke="black" points="365,-224.5 365,-243.5 407,-243.5 407,-224.5 365,-224.5"/>
<text text-anchor="middle" x="386" y="-231.5" font-family="Helvetica,sans-Serif" font-size="10.00">Pair.h</text>
</a>
</g>
</g>
<!-- Node3&#45;&gt;Node4 -->
<g id="edge3" class="edge"><title>Node3&#45;&gt;Node4</title>
<path fill="none" stroke="midnightblue" d="M572.493,-282.482C569.301,-281.642 566.073,-280.797 563,-280 511.882,-266.737 452.356,-251.683 417.001,-242.784"/>
<polygon fill="midnightblue" stroke="midnightblue" points="417.821,-239.381 407.269,-240.336 416.113,-246.169 417.821,-239.381"/>
</g>
<!-- Node3&#45;&gt;Node6 -->
<g id="edge8" class="edge"><title>Node3&#45;&gt;Node6</title>
<path fill="none" stroke="midnightblue" d="M593.292,-280.33C583.757,-258.879 556.479,-202.568 519,-168 503.853,-154.029 483.56,-143.001 466.715,-135.358"/>
<polygon fill="midnightblue" stroke="midnightblue" points="467.827,-132.026 457.26,-131.254 465.039,-138.447 467.827,-132.026"/>
</g>
<!-- Node5 -->
<g id="node5" class="node"><title>Node5</title>
<g id="a_node5"><a xlink:href="../../db/d2a/_utility_8h.html" target="_top" xlink:title="Various helper functions. ">
<polygon fill="white" stroke="black" points="279.5,-168.5 279.5,-187.5 376.5,-187.5 376.5,-168.5 279.5,-168.5"/>
<text text-anchor="middle" x="328" y="-175.5" font-family="Helvetica,sans-Serif" font-size="10.00">wlib/utility/Utility.h</text>
</a>
</g>
</g>
<!-- Node4&#45;&gt;Node5 -->
<g id="edge4" class="edge"><title>Node4&#45;&gt;Node5</title>
<path fill="none" stroke="midnightblue" d="M376.681,-224.324C368.107,-216.341 355.188,-204.313 344.812,-194.653"/>
<polygon fill="midnightblue" stroke="midnightblue" points="347.192,-192.086 337.488,-187.834 342.422,-197.21 347.192,-192.086"/>
</g>
<!-- Node5&#45;&gt;Node6 -->
<g id="edge5" class="edge"><title>Node5&#45;&gt;Node6</title>
<path fill="none" stroke="midnightblue" d="M345.191,-168.324C362.351,-159.664 388.946,-146.242 408.747,-136.249"/>
<polygon fill="midnightblue" stroke="midnightblue" points="410.501,-139.285 417.851,-131.655 407.347,-133.035 410.501,-139.285"/>
</g>
<!-- Node7 -->
<g id="node7" class="node"><title>Node7</title>
<g id="a_node7"><a xlink:href="../../d0/db6/_types_8h.html" target="_top" xlink:title="type definition of all the string types we will be using ">
<polygon fill="white" stroke="black" points="275,-56.5 275,-75.5 347,-75.5 347,-56.5 275,-56.5"/>
<text text-anchor="middle" x="311" y="-63.5" font-family="Helvetica,sans-Serif" font-size="10.00">wlib/Types.h</text>
</a>
</g>
</g>
<!-- Node6&#45;&gt;Node7 -->
<g id="edge6" class="edge"><title>Node6&#45;&gt;Node7</title>
<path fill="none" stroke="midnightblue" d="M415.352,-112.444C395.035,-103.596 363.097,-89.6875 339.902,-79.5865"/>
<polygon fill="midnightblue" stroke="midnightblue" points="341.122,-76.3002 330.556,-75.5164 338.327,-82.7181 341.122,-76.3002"/>
</g>
<!-- Node8 -->
<g id="node8" class="node"><title>Node8</title>
<polygon fill="white" stroke="#bfbfbf" points="286.5,-0.5 286.5,-19.5 335.5,-19.5 335.5,-0.5 286.5,-0.5"/>
<text text-anchor="middle" x="311" y="-7.5" font-family="Helvetica,sans-Serif" font-size="10.00">stdint.h</text>
</g>
<!-- Node7&#45;&gt;Node8 -->
<g id="edge7" class="edge"><title>Node7&#45;&gt;Node8</title>
<path fill="none" stroke="midnightblue" d="M311,-56.083C311,-49.0059 311,-38.8611 311,-29.9865"/>
<polygon fill="midnightblue" stroke="midnightblue" points="314.5,-29.751 311,-19.7511 307.5,-29.7511 314.5,-29.751"/>
</g>
<!-- Node9&#45;&gt;Node4 -->
<g id="edge36" class="edge"><title>Node9&#45;&gt;Node4</title>
<path fill="none" stroke="midnightblue" d="M442.139,-560.361C467.014,-543.953 516,-505.712 516,-459 516,-459 516,-459 516,-401 516,-367.31 497.035,-363.085 477,-336 453.296,-303.956 421.266,-270.238 402.21,-250.998"/>
<polygon fill="midnightblue" stroke="midnightblue" points="404.445,-248.283 394.899,-243.686 399.494,-253.232 404.445,-248.283"/>
</g>
<!-- Node9&#45;&gt;Node5 -->
<g id="edge39" class="edge"><title>Node9&#45;&gt;Node5</title>
<path fill="none" stroke="midnightblue" d="M384.397,-565.959C282.628,-557.667 38,-530.317 38,-459 38,-459 38,-459 38,-401 38,-278.477 203.231,-214.434 284.252,-190.395"/>
<polygon fill="midnightblue" stroke="midnightblue" points="285.531,-193.669 294.166,-187.529 283.587,-186.944 285.531,-193.669"/>
</g>
<!-- Node9&#45;&gt;Node7 -->
<g id="edge37" class="edge"><title>Node9&#45;&gt;Node7</title>
<path fill="none" stroke="midnightblue" d="M384.275,-566.587C302.424,-561.554 129.426,-548.334 75,-524 34.7318,-505.996 0,-503.11 0,-459 0,-459 0,-459 0,-177 0,-129.795 41.0357,-131.555 84,-112 142.813,-85.2309 217.326,-74.3357 264.598,-69.9346"/>
<polygon fill="midnightblue" stroke="midnightblue" points="265.178,-73.3974 274.837,-69.0434 264.571,-66.4238 265.178,-73.3974"/>
</g>
<!-- Node10 -->
<g id="node10" class="node"><title>Node10</title>
<g id="a_node10"><a xlink:href="../../d7/d0c/_comparator_8h.html" target="_top" xlink:title="Comparator implementation for basic types. ">
<polygon fill="white" stroke="black" points="390,-504.5 390,-523.5 466,-523.5 466,-504.5 390,-504.5"/>
<text text-anchor="middle" x="428" y="-511.5" font-family="Helvetica,sans-Serif" font-size="10.00">Comparator.h</text>
</a>
</g>
</g>
<!-- Node9&#45;&gt;Node10 -->
<g id="edge11" class="edge"><title>Node9&#45;&gt;Node10</title>
<path fill="none" stroke="midnightblue" d="M428,-560.083C428,-553.006 428,-542.861 428,-533.986"/>
<polygon fill="midnightblue" stroke="midnightblue" points="431.5,-533.751 428,-523.751 424.5,-533.751 431.5,-533.751"/>
</g>
<!-- Node19 -->
<g id="node19" class="node"><title>Node19</title>
<g id="a_node19"><a xlink:href="../../d3/de6/_memory_8h.html" target="_top" xlink:title="Memory is a class that provides dynamic fixed size memory. ">
<polygon fill="white" stroke="black" points="142.5,-336.5 142.5,-355.5 261.5,-355.5 261.5,-336.5 142.5,-336.5"/>
<text text-anchor="middle" x="202" y="-343.5" font-family="Helvetica,sans-Serif" font-size="10.00">wlib/memory/Memory.h</text>
</a>
</g>
</g>
<!-- Node9&#45;&gt;Node19 -->
<g id="edge38" class="edge"><title>Node9&#45;&gt;Node19</title>
<path fill="none" stroke="midnightblue" d="M413.703,-560.495C387.517,-544.5 330.887,-507.931 291,-468 257.972,-434.936 227.571,-388.867 212.304,-364.205"/>
<polygon fill="midnightblue" stroke="midnightblue" points="215.249,-362.311 207.054,-355.596 209.272,-365.956 215.249,-362.311"/>
</g>
<!-- Node21 -->
<g id="node21" class="node"><title>Node21</title>
<g id="a_node21"><a xlink:href="../../d7/d2f/_exceptions_8h.html" target="_top" xlink:title="Implementation of Exceptions using C style. ">
<polygon fill="white" stroke="black" points="698,-504.5 698,-523.5 842,-523.5 842,-504.5 698,-504.5"/>
<text text-anchor="middle" x="770" y="-511.5" font-family="Helvetica,sans-Serif" font-size="10.00">wlib/exceptions/Exceptions.h</text>
</a>
</g>
</g>
<!-- Node9&#45;&gt;Node21 -->
<g id="edge40" class="edge"><title>Node9&#45;&gt;Node21</title>
<path fill="none" stroke="midnightblue" d="M471.662,-562.106C530.926,-552.749 637.267,-535.958 705.678,-525.156"/>
<polygon fill="midnightblue" stroke="midnightblue" points="706.57,-528.559 715.902,-523.542 705.478,-521.644 706.57,-528.559"/>
</g>
<!-- Node10&#45;&gt;Node7 -->
<g id="edge13" class="edge"><title>Node10&#45;&gt;Node7</title>
<path fill="none" stroke="midnightblue" d="M459.926,-504.441C518.295,-487.032 641.834,-441.688 703,-356 734.804,-311.446 726,-289.741 726,-235 726,-235 726,-235 726,-177 726,-101.439 465.694,-76.5679 357.4,-69.4903"/>
<polygon fill="midnightblue" stroke="midnightblue" points="357.303,-65.9774 347.103,-68.8413 356.863,-72.9635 357.303,-65.9774"/>
</g>
<!-- Node11 -->
<g id="node11" class="node"><title>Node11</title>
<polygon fill="white" stroke="#bfbfbf" points="353.5,-280.5 353.5,-299.5 402.5,-299.5 402.5,-280.5 353.5,-280.5"/>
<text text-anchor="middle" x="378" y="-287.5" font-family="Helvetica,sans-Serif" font-size="10.00">string.h</text>
</g>
<!-- Node10&#45;&gt;Node11 -->
<g id="edge12" class="edge"><title>Node10&#45;&gt;Node11</title>
<path fill="none" stroke="midnightblue" d="M433.31,-504.166C448.893,-476.991 491.358,-393.037 458,-336 448.114,-319.097 429.286,-308.053 412.378,-301.137"/>
<polygon fill="midnightblue" stroke="midnightblue" points="413.32,-297.753 402.727,-297.53 410.869,-304.31 413.32,-297.753"/>
</g>
<!-- Node12 -->
<g id="node12" class="node"><title>Node12</title>
<g id="a_node12"><a xlink:href="../../d2/dc2/_equal_8h.html" target="_top" xlink:title="Equal.h">
<polygon fill="white" stroke="black" points="300,-448.5 300,-467.5 350,-467.5 350,-448.5 300,-448.5"/>
<text text-anchor="middle" x="325" y="-455.5" font-family="Helvetica,sans-Serif" font-size="10.00">Equal.h</text>
</a>
</g>
</g>
<!-- Node10&#45;&gt;Node12 -->
<g id="edge14" class="edge"><title>Node10&#45;&gt;Node12</title>
<path fill="none" stroke="midnightblue" d="M411.451,-504.324C395.008,-495.703 369.565,-482.364 350.532,-472.386"/>
<polygon fill="midnightblue" stroke="midnightblue" points="351.989,-469.198 341.508,-467.655 348.739,-475.398 351.989,-469.198"/>
</g>
<!-- Node13 -->
<g id="node13" class="node"><title>Node13</title>
<g id="a_node13"><a xlink:href="../../db/db5/_string_8h.html" target="_top" xlink:title="wlib/strings/String.h">
<polygon fill="white" stroke="black" points="318.5,-392.5 318.5,-411.5 421.5,-411.5 421.5,-392.5 318.5,-392.5"/>
<text text-anchor="middle" x="370" y="-399.5" font-family="Helvetica,sans-Serif" font-size="10.00">wlib/strings/String.h</text>
</a>
</g>
</g>
<!-- Node10&#45;&gt;Node13 -->
<g id="edge35" class="edge"><title>Node10&#45;&gt;Node13</title>
<path fill="none" stroke="midnightblue" d="M423.449,-504.368C413.962,-486.376 391.908,-444.55 379.294,-420.627"/>
<polygon fill="midnightblue" stroke="midnightblue" points="382.29,-418.805 374.53,-411.591 376.098,-422.07 382.29,-418.805"/>
</g>
<!-- Node12&#45;&gt;Node7 -->
<g id="edge16" class="edge"><title>Node12&#45;&gt;Node7</title>
<path fill="none" stroke="midnightblue" d="M299.759,-451.59C255.888,-440.912 165.353,-413.049 114,-356 75.8167,-313.582 71,-292.073 71,-235 71,-235 71,-235 71,-177 71,-92.7495 194.734,-72.7753 264.514,-68.2097"/>
<polygon fill="midnightblue" stroke="midnightblue" points="265.026,-71.6862 274.81,-67.6217 264.626,-64.6976 265.026,-71.6862"/>
</g>
<!-- Node12&#45;&gt;Node11 -->
<g id="edge15" class="edge"><title>Node12&#45;&gt;Node11</title>
<path fill="none" stroke="midnightblue" d="M319.933,-448.133C313.419,-435.586 303.557,-411.957 309,-392 318.297,-357.913 344.654,-325.472 361.97,-306.935"/>
<polygon fill="midnightblue" stroke="midnightblue" points="364.561,-309.29 368.978,-299.659 359.52,-304.433 364.561,-309.29"/>
</g>
<!-- Node12&#45;&gt;Node13 -->
<g id="edge17" class="edge"><title>Node12&#45;&gt;Node13</title>
<path fill="none" stroke="midnightblue" d="M332.431,-448.083C338.853,-440.377 348.306,-429.033 356.122,-419.653"/>
<polygon fill="midnightblue" stroke="midnightblue" points="358.994,-421.674 362.707,-411.751 353.617,-417.193 358.994,-421.674"/>
</g>
<!-- Node13&#45;&gt;Node7 -->
<g id="edge27" class="edge"><title>Node13&#45;&gt;Node7</title>
<path fill="none" stroke="midnightblue" d="M318.455,-397.837C256.767,-392.959 158.572,-381.364 133,-356 94.0746,-317.391 109,-289.825 109,-235 109,-235 109,-235 109,-177 109,-106.411 205.318,-80.8581 264.934,-71.8029"/>
<polygon fill="midnightblue" stroke="midnightblue" points="265.477,-75.261 274.886,-70.3915 264.494,-68.3304 265.477,-75.261"/>
</g>
<!-- Node13&#45;&gt;Node11 -->
<g id="edge18" class="edge"><title>Node13&#45;&gt;Node11</title>
<path fill="none" stroke="midnightblue" d="M363.133,-392.241C354.262,-379.823 340.67,-356.345 347,-336 350.229,-325.622 356.776,-315.521 363.025,-307.527"/>
<polygon fill="midnightblue" stroke="midnightblue" points="365.785,-309.682 369.517,-299.766 360.416,-305.19 365.785,-309.682"/>
</g>
<!-- Node14 -->
<g id="node14" class="node"><title>Node14</title>
<g id="a_node14"><a xlink:href="../../de/d0b/_string_iterator_8h.html" target="_top" xlink:title="StringIterator.h">
<polygon fill="white" stroke="black" points="544.5,-336.5 544.5,-355.5 625.5,-355.5 625.5,-336.5 544.5,-336.5"/>
<text text-anchor="middle" x="585" y="-343.5" font-family="Helvetica,sans-Serif" font-size="10.00">StringIterator.h</text>
</a>
</g>
</g>
<!-- Node13&#45;&gt;Node14 -->
<g id="edge19" class="edge"><title>Node13&#45;&gt;Node14</title>
<path fill="none" stroke="midnightblue" d="M404.067,-392.444C441.18,-383.122 500.661,-368.183 541.215,-357.997"/>
<polygon fill="midnightblue" stroke="midnightblue" points="542.246,-361.347 551.092,-355.516 540.541,-354.558 542.246,-361.347"/>
</g>
<!-- Node18 -->
<g id="node18" class="node"><title>Node18</title>
<g id="a_node18"><a xlink:href="../../da/db8/_math_8h.html" target="_top" xlink:title="wlib/utility/Math.h">
<polygon fill="white" stroke="black" points="356.5,-336.5 356.5,-355.5 449.5,-355.5 449.5,-336.5 356.5,-336.5"/>
<text text-anchor="middle" x="403" y="-343.5" font-family="Helvetica,sans-Serif" font-size="10.00">wlib/utility/Math.h</text>
</a>
</g>
</g>
<!-- Node13&#45;&gt;Node18 -->
<g id="edge28" class="edge"><title>Node13&#45;&gt;Node18</title>
<path fill="none" stroke="midnightblue" d="M375.449,-392.083C380.014,-384.613 386.668,-373.724 392.293,-364.52"/>
<polygon fill="midnightblue" stroke="midnightblue" points="395.424,-366.109 397.652,-355.751 389.451,-362.459 395.424,-366.109"/>
</g>
<!-- Node13&#45;&gt;Node19 -->
<g id="edge29" class="edge"><title>Node13&#45;&gt;Node19</title>
<path fill="none" stroke="midnightblue" d="M343.38,-392.444C314.994,-383.32 269.863,-368.813 238.247,-358.651"/>
<polygon fill="midnightblue" stroke="midnightblue" points="239.087,-355.244 228.496,-355.516 236.945,-361.909 239.087,-355.244"/>
</g>
<!-- Node14&#45;&gt;Node7 -->
<g id="edge20" class="edge"><title>Node14&#45;&gt;Node7</title>
<path fill="none" stroke="midnightblue" d="M598.064,-336.436C608.914,-328.471 623.573,-315.515 630,-300 633.402,-291.788 632.905,-288.401 630,-280 609.308,-220.172 587.588,-211.924 542,-168 511.527,-138.64 502.982,-130.655 465,-112 430.483,-95.0471 388.407,-83.2917 356.964,-76.0584"/>
<polygon fill="midnightblue" stroke="midnightblue" points="357.674,-72.6309 347.151,-73.868 356.149,-79.4627 357.674,-72.6309"/>
</g>
<!-- Node15 -->
<g id="node15" class="node"><title>Node15</title>
<g id="a_node15"><a xlink:href="../../d8/dd7/_concept_8h.html" target="_top" xlink:title="Concept definitions. ">
<polygon fill="white" stroke="black" points="459.5,-280.5 459.5,-299.5 554.5,-299.5 554.5,-280.5 459.5,-280.5"/>
<text text-anchor="middle" x="507" y="-287.5" font-family="Helvetica,sans-Serif" font-size="10.00">wlib/stl/Concept.h</text>
</a>
</g>
</g>
<!-- Node14&#45;&gt;Node15 -->
<g id="edge21" class="edge"><title>Node14&#45;&gt;Node15</title>
<path fill="none" stroke="midnightblue" d="M572.468,-336.324C560.414,-327.979 541.973,-315.212 527.731,-305.352"/>
<polygon fill="midnightblue" stroke="midnightblue" points="529.715,-302.469 519.501,-299.655 525.731,-308.224 529.715,-302.469"/>
</g>
<!-- Node15&#45;&gt;Node4 -->
<g id="edge22" class="edge"><title>Node15&#45;&gt;Node4</title>
<path fill="none" stroke="midnightblue" d="M487.827,-280.444C468.091,-271.636 437.115,-257.812 414.507,-247.722"/>
<polygon fill="midnightblue" stroke="midnightblue" points="415.641,-244.396 405.083,-243.516 412.789,-250.788 415.641,-244.396"/>
</g>
<!-- Node15&#45;&gt;Node6 -->
<g id="edge26" class="edge"><title>Node15&#45;&gt;Node6</title>
<path fill="none" stroke="midnightblue" d="M516.03,-280.261C527.686,-267.867 545.516,-244.418 537,-224 521.022,-185.694 482.663,-154.482 457.806,-137.346"/>
<polygon fill="midnightblue" stroke="midnightblue" points="459.586,-134.326 449.326,-131.683 455.698,-140.147 459.586,-134.326"/>
</g>
<!-- Node16 -->
<g id="node16" class="node"><title>Node16</title>
<g id="a_node16"><a xlink:href="../../d4/dd5/_type_traits_8h.html" target="_top" xlink:title="Metafunctions for types. ">
<polygon fill="white" stroke="black" points="399.5,-168.5 399.5,-187.5 470.5,-187.5 470.5,-168.5 399.5,-168.5"/>
<text text-anchor="middle" x="435" y="-175.5" font-family="Helvetica,sans-Serif" font-size="10.00">TypeTraits.h</text>
</a>
</g>
</g>
<!-- Node15&#45;&gt;Node16 -->
<g id="edge23" class="edge"><title>Node15&#45;&gt;Node16</title>
<path fill="none" stroke="midnightblue" d="M492.811,-280.374C480.799,-272.369 463.987,-259.391 454,-244 444.9,-229.977 440.047,-211.479 437.531,-197.804"/>
<polygon fill="midnightblue" stroke="midnightblue" points="440.945,-196.984 435.925,-187.654 434.031,-198.078 440.945,-196.984"/>
</g>
<!-- Node17 -->
<g id="node17" class="node"><title>Node17</title>
<g id="a_node17"><a xlink:href="../../d2/db4/_wlib_8h.html" target="_top" xlink:title="wlib/Wlib.h">
<polygon fill="white" stroke="black" points="463.5,-224.5 463.5,-243.5 528.5,-243.5 528.5,-224.5 463.5,-224.5"/>
<text text-anchor="middle" x="496" y="-231.5" font-family="Helvetica,sans-Serif" font-size="10.00">wlib/Wlib.h</text>
</a>
</g>
</g>
<!-- Node15&#45;&gt;Node17 -->
<g id="edge25" class="edge"><title>Node15&#45;&gt;Node17</title>
<path fill="none" stroke="midnightblue" d="M505.184,-280.083C503.726,-272.927 501.629,-262.635 499.807,-253.691"/>
<polygon fill="midnightblue" stroke="midnightblue" points="503.208,-252.851 497.783,-243.751 496.349,-254.248 503.208,-252.851"/>
</g>
<!-- Node16&#45;&gt;Node6 -->
<g id="edge24" class="edge"><title>Node16&#45;&gt;Node6</title>
<path fill="none" stroke="midnightblue" d="M435,-168.083C435,-161.006 435,-150.861 435,-141.986"/>
<polygon fill="midnightblue" stroke="midnightblue" points="438.5,-141.751 435,-131.751 431.5,-141.751 438.5,-141.751"/>
</g>
<!-- Node19&#45;&gt;Node5 -->
<g id="edge31" class="edge"><title>Node19&#45;&gt;Node5</title>
<path fill="none" stroke="midnightblue" d="M244.136,-336.455C265.471,-329.975 289.971,-318.839 305,-300 328.59,-270.429 330.56,-223.946 329.526,-198.045"/>
<polygon fill="midnightblue" stroke="midnightblue" points="332.999,-197.5 328.906,-187.728 326.012,-197.92 332.999,-197.5"/>
</g>
<!-- Node19&#45;&gt;Node6 -->
<g id="edge33" class="edge"><title>Node19&#45;&gt;Node6</title>
<path fill="none" stroke="midnightblue" d="M202.634,-336.487C205.221,-308.049 217.502,-215.468 270,-168 306.883,-134.65 366.121,-125.676 402.682,-123.458"/>
<polygon fill="midnightblue" stroke="midnightblue" points="402.979,-126.948 412.803,-122.981 402.649,-119.955 402.979,-126.948"/>
</g>
<!-- Node19&#45;&gt;Node7 -->
<g id="edge32" class="edge"><title>Node19&#45;&gt;Node7</title>
<path fill="none" stroke="midnightblue" d="M199.707,-336.231C195.067,-317.687 185,-273.068 185,-235 185,-235 185,-235 185,-177 185,-127.953 239.851,-95.7416 277.172,-79.5016"/>
<polygon fill="midnightblue" stroke="midnightblue" points="278.821,-82.6064 286.706,-75.5298 276.129,-76.1446 278.821,-82.6064"/>
</g>
<!-- Node19&#45;&gt;Node11 -->
<g id="edge30" class="edge"><title>Node19&#45;&gt;Node11</title>
<path fill="none" stroke="midnightblue" d="M229.888,-336.444C260.72,-326.984 310.411,-311.738 343.626,-301.546"/>
<polygon fill="midnightblue" stroke="midnightblue" points="344.833,-304.837 353.367,-298.558 342.78,-298.145 344.833,-304.837"/>
</g>
<!-- Node20 -->
<g id="node20" class="node"><title>Node20</title>
<g id="a_node20"><a xlink:href="../../d9/d8a/_new_8h.html" target="_top" xlink:title="New operators defined for Arduino boards and for other boards use the normal new. ...">
<polygon fill="white" stroke="black" points="251.5,-280.5 251.5,-299.5 296.5,-299.5 296.5,-280.5 251.5,-280.5"/>
<text text-anchor="middle" x="274" y="-287.5" font-family="Helvetica,sans-Serif" font-size="10.00">New.h</text>
</a>
</g>
</g>
<!-- Node19&#45;&gt;Node20 -->
<g id="edge34" class="edge"><title>Node19&#45;&gt;Node20</title>
<path fill="none" stroke="midnightblue" d="M213.568,-336.324C224.42,-328.185 240.881,-315.839 253.883,-306.087"/>
<polygon fill="midnightblue" stroke="midnightblue" points="256.321,-308.634 262.221,-299.834 252.121,-303.034 256.321,-308.634"/>
</g>
<!-- Node21&#45;&gt;Node7 -->
<g id="edge42" class="edge"><title>Node21&#45;&gt;Node7</title>
<path fill="none" stroke="midnightblue" d="M771.307,-504.466C774.018,-486.007 780,-440.968 780,-403 780,-403 780,-403 780,-177 780,-90.7431 475.503,-72.0735 357.211,-68.0751"/>
<polygon fill="midnightblue" stroke="midnightblue" points="357.129,-64.5709 347.023,-67.7518 356.907,-71.5673 357.129,-64.5709"/>
</g>
<!-- Node22 -->
<g id="node22" class="node"><title>Node22</title>
<polygon fill="white" stroke="#bfbfbf" points="698,-448.5 698,-467.5 752,-467.5 752,-448.5 698,-448.5"/>
<text text-anchor="middle" x="725" y="-455.5" font-family="Helvetica,sans-Serif" font-size="10.00">setjmp.h</text>
</g>
<!-- Node21&#45;&gt;Node22 -->
<g id="edge41" class="edge"><title>Node21&#45;&gt;Node22</title>
<path fill="none" stroke="midnightblue" d="M762.569,-504.083C756.147,-496.377 746.694,-485.033 738.878,-475.653"/>
<polygon fill="midnightblue" stroke="midnightblue" points="741.383,-473.193 732.293,-467.751 736.006,-477.674 741.383,-473.193"/>
</g>
</g>
</svg>
        <g id="navigator" transform="translate(0 0)" fill="#404254">
                <rect fill="#f2f5e9" fill-opacity="0.5" stroke="#606060" stroke-width=".5" x="0" y="0" width="60" height="60"/>
                <use id="zoomplus" xlink:href="#zoomPlus" x="17" y="9" onmousedown="handleZoom(evt,'in')"/>
                <use id="zoomminus" xlink:href="#zoomMin" x="42" y="9" onmousedown="handleZoom(evt,'out')"/>
                <use id="reset" xlink:href="#resetDef" x="30" y="36" onmousedown="handleReset()"/>
                <g id="arrowUp" xlink:href="#dirArrow" transform="translate(30 24)" onmousedown="handlePan(0,-1)">
                  <use xlink:href="#rim" fill="#404040">
                        <set attributeName="fill" to="#808080" begin="arrowUp.mouseover" end="arrowUp.mouseout"/>
                  </use>
                  <path fill="none" stroke="white" stroke-width="1.5" d="M0,-3.0v7 M-2.5,-0.5L0,-3.0L2.5,-0.5"/>
                </g>
                <g id="arrowRight" xlink:href="#dirArrow" transform="rotate(90) translate(36 -43)" onmousedown="handlePan(1,0)">
                  <use xlink:href="#rim" fill="#404040">
                        <set attributeName="fill" to="#808080" begin="arrowRight.mouseover" end="arrowRight.mouseout"/>
                  </use>
                  <path fill="none" stroke="white" stroke-width="1.5" d="M0,-3.0v7 M-2.5,-0.5L0,-3.0L2.5,-0.5"/>
                </g>
                <g id="arrowDown" xlink:href="#dirArrow" transform="rotate(180) translate(-30 -48)" onmousedown="handlePan(0,1)">
                  <use xlink:href="#rim" fill="#404040">
                        <set attributeName="fill" to="#808080" begin="arrowDown.mouseover" end="arrowDown.mouseout"/>
                  </use>
                  <path fill="none" stroke="white" stroke-width="1.5" d="M0,-3.0v7 M-2.5,-0.5L0,-3.0L2.5,-0.5"/>
                </g>
                <g id="arrowLeft" xlink:href="#dirArrow" transform="rotate(270) translate(-36 17)" onmousedown="handlePan(-1,0)">
                  <use xlink:href="#rim" fill="#404040">
                        <set attributeName="fill" to="#808080" begin="arrowLeft.mouseover" end="arrowLeft.mouseout"/>
                  </use>
                  <path fill="none" stroke="white" stroke-width="1.5" d="M0,-3.0v7 M-2.5,-0.5L0,-3.0L2.5,-0.5"/>
                </g>
        </g>
        <svg viewBox="0 0 15 15" width="100%" height="30px" preserveAspectRatio="xMaxYMin meet">
         <g id="arrow_out" transform="scale(0.3 0.3)">
          <a xlink:href="_tree_set_8h__incl_org.svg" target="_base">
           <rect id="button" ry="5" rx="5" y="6" x="6" height="38" width="38"
                fill="#f2f5e9" fill-opacity="0.5" stroke="#606060" stroke-width="1.0"/>
           <path id="arrow"
             d="M 11.500037,31.436501 C 11.940474,20.09759 22.043105,11.32322 32.158766,21.979434 L 37.068811,17.246167 C 37.068811,17.246167 37.088388,32 37.088388,32 L 22.160133,31.978069 C 22.160133,31.978069 26.997745,27.140456 26.997745,27.140456 C 18.528582,18.264221 13.291696,25.230495 11.500037,31.436501 z"
             style="fill:#404040;"/>
          </a>
         </g>
        </svg>
</svg>
