<?xml version="1.0" encoding="UTF-8" standalone="no"?>
<!DOCTYPE svg PUBLIC "-//W3C//DTD SVG 1.1//EN"
 "http://www.w3.org/Graphics/SVG/1.1/DTD/svg11.dtd">
<!-- Generated by graphviz version 2.38.0 (20140413.2041)
 -->
<!-- Title: wlp::StateMachine::stateEngine Pages: 1 -->
<svg width="292pt" height="186pt"
 viewBox="0.00 0.00 292.00 186.00" xmlns="http://www.w3.org/2000/svg" xmlns:xlink="http://www.w3.org/1999/xlink">
<g id="graph0" class="graph" transform="scale(1 1) rotate(0) translate(4 182)">
<title>wlp::StateMachine::stateEngine</title>
<polygon fill="white" stroke="none" points="-4,4 -4,-182 288,-182 288,4 -4,4"/>
<!-- Node23 -->
<g id="node1" class="node"><title>Node23</title>
<polygon fill="#bfbfbf" stroke="black" points="0,-73.5 0,-103.5 103,-103.5 103,-73.5 0,-73.5"/>
<text text-anchor="start" x="8" y="-91.5" font-family="Helvetica,sans-Serif" font-size="10.00">wlp::StateMachine::</text>
<text text-anchor="middle" x="51.5" y="-80.5" font-family="Helvetica,sans-Serif" font-size="10.00">stateEngine</text>
</g>
<!-- Node24 -->
<g id="node2" class="node"><title>Node24</title>
<g id="a_node2"><a xlink:href="../../d9/d8c/classwlp_1_1_entry_base.html#a61cd43e7aa28d48c26bff7a924be4a9d" target="_top" xlink:title="wlp::EntryBase::invokeEntry\lAction">
<polygon fill="white" stroke="black" points="142,-147.5 142,-177.5 281,-177.5 281,-147.5 142,-147.5"/>
<text text-anchor="start" x="150" y="-165.5" font-family="Helvetica,sans-Serif" font-size="10.00">wlp::EntryBase::invokeEntry</text>
<text text-anchor="middle" x="211.5" y="-154.5" font-family="Helvetica,sans-Serif" font-size="10.00">Action</text>
</a>
</g>
</g>
<!-- Node23&#45;&gt;Node24 -->
<g id="edge1" class="edge"><title>Node23&#45;&gt;Node24</title>
<path fill="none" stroke="midnightblue" d="M75.6884,-103.613C92.7314,-114.292 116.708,-128.438 139,-138.5 143.071,-140.337 147.326,-142.111 151.645,-143.806"/>
<polygon fill="midnightblue" stroke="midnightblue" points="150.56,-147.137 161.152,-147.383 153.025,-140.586 150.56,-147.137"/>
</g>
<!-- Node25 -->
<g id="node3" class="node"><title>Node25</title>
<g id="a_node3"><a xlink:href="../../dd/dd5/classwlp_1_1_exit_base.html#a573998901e03da76fc579375ab3a417d" target="_top" xlink:title="wlp::ExitBase::invokeExit\lAction">
<polygon fill="white" stroke="black" points="148,-98.5 148,-128.5 275,-128.5 275,-98.5 148,-98.5"/>
<text text-anchor="start" x="156" y="-116.5" font-family="Helvetica,sans-Serif" font-size="10.00">wlp::ExitBase::invokeExit</text>
<text text-anchor="middle" x="211.5" y="-105.5" font-family="Helvetica,sans-Serif" font-size="10.00">Action</text>
</a>
</g>
</g>
<!-- Node23&#45;&gt;Node25 -->
<g id="edge2" class="edge"><title>Node23&#45;&gt;Node25</title>
<path fill="none" stroke="midnightblue" d="M103.362,-96.5478C114.316,-98.2811 126.101,-100.146 137.706,-101.982"/>
<polygon fill="midnightblue" stroke="midnightblue" points="137.408,-105.478 147.833,-103.584 138.503,-98.5644 137.408,-105.478"/>
</g>
<!-- Node26 -->
<g id="node4" class="node"><title>Node26</title>
<g id="a_node4"><a xlink:href="../../d2/d06/classwlp_1_1_guard_base.html#ae04156c58d60bbcd06a11a0613e37861" target="_top" xlink:title="wlp::GuardBase::invokeGuard\lAction">
<polygon fill="white" stroke="black" points="139,-49.5 139,-79.5 284,-79.5 284,-49.5 139,-49.5"/>
<text text-anchor="start" x="147" y="-67.5" font-family="Helvetica,sans-Serif" font-size="10.00">wlp::GuardBase::invokeGuard</text>
<text text-anchor="middle" x="211.5" y="-56.5" font-family="Helvetica,sans-Serif" font-size="10.00">Action</text>
</a>
</g>
</g>
<!-- Node23&#45;&gt;Node26 -->
<g id="edge3" class="edge"><title>Node23&#45;&gt;Node26</title>
<path fill="none" stroke="midnightblue" d="M103.362,-80.7741C111.467,-79.543 120.026,-78.2428 128.631,-76.9358"/>
<polygon fill="midnightblue" stroke="midnightblue" points="129.368,-80.3641 138.729,-75.4019 128.317,-73.4434 129.368,-80.3641"/>
</g>
<!-- Node27 -->
<g id="node5" class="node"><title>Node27</title>
<g id="a_node5"><a xlink:href="../../d3/d54/classwlp_1_1_state_base.html#a4919d560418c0e59f5423df9361223a3" target="_top" xlink:title="wlp::StateBase::invokeState\lAction">
<polygon fill="white" stroke="black" points="142,-0.5 142,-30.5 281,-30.5 281,-0.5 142,-0.5"/>
<text text-anchor="start" x="150" y="-18.5" font-family="Helvetica,sans-Serif" font-size="10.00">wlp::StateBase::invokeState</text>
<text text-anchor="middle" x="211.5" y="-7.5" font-family="Helvetica,sans-Serif" font-size="10.00">Action</text>
</a>
</g>
</g>
<!-- Node23&#45;&gt;Node27 -->
<g id="edge4" class="edge"><title>Node23&#45;&gt;Node27</title>
<path fill="none" stroke="midnightblue" d="M76.9073,-73.4872C93.927,-63.3871 117.373,-50.1964 139,-40.5 143.95,-38.2808 149.161,-36.1276 154.42,-34.0769"/>
<polygon fill="midnightblue" stroke="midnightblue" points="155.772,-37.3077 163.894,-30.504 153.302,-30.758 155.772,-37.3077"/>
</g>
</g>
</svg>
