<?xml version="1.0" encoding="UTF-8" standalone="no"?>
<!DOCTYPE svg PUBLIC "-//W3C//DTD SVG 1.1//EN"
 "http://www.w3.org/Graphics/SVG/1.1/DTD/svg11.dtd">
<!-- Generated by graphviz version 2.36.0 (20140111.2315)
 -->
<!-- Title: wlp::StateMachine::stateEngine Pages: 1 -->
<svg width="290pt" height="87pt"
 viewBox="0.00 0.00 290.00 87.00" xmlns="http://www.w3.org/2000/svg" xmlns:xlink="http://www.w3.org/1999/xlink">
<g id="graph0" class="graph" transform="scale(1 1) rotate(0) translate(4 83)">
<title>wlp::StateMachine::stateEngine</title>
<polygon fill="white" stroke="none" points="-4,4 -4,-83 286,-83 286,4 -4,4"/>
<!-- Node1 -->
<g id="node1" class="node"><title>Node1</title>
<polygon fill="#bfbfbf" stroke="black" points="0,-24 0,-54 104,-54 104,-24 0,-24"/>
<text text-anchor="start" x="8" y="-42" font-family="Helvetica,sans-Serif" font-size="10.00">wlp::StateMachine::</text>
<text text-anchor="middle" x="52" y="-31" font-family="Helvetica,sans-Serif" font-size="10.00">stateEngine</text>
</g>
<!-- Node2 -->
<g id="node2" class="node"><title>Node2</title>
<g id="a_node2"><a xlink:href="../../d3/d54/classwlp_1_1_state_base.html#a4919d560418c0e59f5423df9361223a3" target="_top" xlink:title="wlp::StateBase::invokeState\lAction">
<polygon fill="white" stroke="black" points="140.5,-49 140.5,-79 281.5,-79 281.5,-49 140.5,-49"/>
<text text-anchor="start" x="148.5" y="-67" font-family="Helvetica,sans-Serif" font-size="10.00">wlp::StateBase::invokeState</text>
<text text-anchor="middle" x="211" y="-56" font-family="Helvetica,sans-Serif" font-size="10.00">Action</text>
</a>
</g>
</g>
<!-- Node1&#45;&gt;Node2 -->
<g id="edge1" class="edge"><title>Node1&#45;&gt;Node2</title>
<path fill="none" stroke="midnightblue" d="M104.408,-47.1859C112.725,-48.5103 121.504,-49.9083 130.303,-51.3095"/>
<polygon fill="midnightblue" stroke="midnightblue" points="129.797,-54.7729 140.223,-52.889 130.898,-47.86 129.797,-54.7729"/>
</g>
<!-- Node3 -->
<g id="node3" class="node"><title>Node3</title>
<g id="a_node3"><a xlink:href="../../d6/d67/classwlp_1_1_state_machine.html#a3810df25cace79edc1f46058449c9654" target="_top" xlink:title="wlp::StateMachine::\lsetCurrentState">
<polygon fill="white" stroke="black" points="159,-0 159,-30 263,-30 263,-0 159,-0"/>
<text text-anchor="start" x="167" y="-18" font-family="Helvetica,sans-Serif" font-size="10.00">wlp::StateMachine::</text>
<text text-anchor="middle" x="211" y="-7" font-family="Helvetica,sans-Serif" font-size="10.00">setCurrentState</text>
</a>
</g>
</g>
<!-- Node1&#45;&gt;Node3 -->
<g id="edge2" class="edge"><title>Node1&#45;&gt;Node3</title>
<path fill="none" stroke="midnightblue" d="M104.408,-31.1415C118.577,-28.9755 134.088,-26.6044 148.754,-24.3625"/>
<polygon fill="midnightblue" stroke="midnightblue" points="149.389,-27.8061 158.745,-22.8351 148.331,-20.8865 149.389,-27.8061"/>
</g>
</g>
</svg>
