<?xml version="1.0" encoding="UTF-8" standalone="no"?>
<!DOCTYPE svg PUBLIC "-//W3C//DTD SVG 1.1//EN"
 "http://www.w3.org/Graphics/SVG/1.1/DTD/svg11.dtd">
<!-- Generated by graphviz version 2.36.0 (20140111.2315)
 -->
<!-- Title: wlib/mem/StaticAllocatorPool.h Pages: 1 -->
<svg width="132pt" height="208pt"
 viewBox="0.00 0.00 132.00 208.00" xmlns="http://www.w3.org/2000/svg" xmlns:xlink="http://www.w3.org/1999/xlink">
<g id="graph0" class="graph" transform="scale(1 1) rotate(0) translate(4 204)">
<title>wlib/mem/StaticAllocatorPool.h</title>
<polygon fill="white" stroke="none" points="-4,4 -4,-204 128,-204 128,4 -4,4"/>
<!-- Node1 -->
<g id="node1" class="node"><title>Node1</title>
<polygon fill="#bfbfbf" stroke="black" points="-0.5,-169 -0.5,-199 124.5,-199 124.5,-169 -0.5,-169"/>
<text text-anchor="start" x="7.5" y="-187" font-family="Helvetica,sans-Serif" font-size="10.00">wlib/mem/StaticAllocator</text>
<text text-anchor="middle" x="62" y="-176" font-family="Helvetica,sans-Serif" font-size="10.00">Pool.h</text>
</g>
<!-- Node2 -->
<g id="node2" class="node"><title>Node2</title>
<g id="a_node2"><a xlink:href="../../df/d4d/_allocator_8h.html" target="_top" xlink:title="Allocator is a memory management library where allocations are always of fixed size. ">
<polygon fill="white" stroke="black" points="8,-112.5 8,-131.5 116,-131.5 116,-112.5 8,-112.5"/>
<text text-anchor="middle" x="62" y="-119.5" font-family="Helvetica,sans-Serif" font-size="10.00">wlib/mem/Allocator.h</text>
</a>
</g>
</g>
<!-- Node1&#45;&gt;Node2 -->
<g id="edge1" class="edge"><title>Node1&#45;&gt;Node2</title>
<path fill="none" stroke="midnightblue" d="M62,-168.781C62,-160.781 62,-150.689 62,-142.017"/>
<polygon fill="midnightblue" stroke="midnightblue" points="65.5001,-141.73 62,-131.731 58.5001,-141.731 65.5001,-141.73"/>
</g>
<!-- Node3 -->
<g id="node3" class="node"><title>Node3</title>
<g id="a_node3"><a xlink:href="../../d0/db6/_types_8h.html" target="_top" xlink:title="type definition of all the string types we will be using ">
<polygon fill="white" stroke="black" points="26,-56.5 26,-75.5 98,-75.5 98,-56.5 26,-56.5"/>
<text text-anchor="middle" x="62" y="-63.5" font-family="Helvetica,sans-Serif" font-size="10.00">wlib/Types.h</text>
</a>
</g>
</g>
<!-- Node2&#45;&gt;Node3 -->
<g id="edge2" class="edge"><title>Node2&#45;&gt;Node3</title>
<path fill="none" stroke="midnightblue" d="M62,-112.083C62,-105.006 62,-94.8611 62,-85.9865"/>
<polygon fill="midnightblue" stroke="midnightblue" points="65.5001,-85.751 62,-75.7511 58.5001,-85.7511 65.5001,-85.751"/>
</g>
<!-- Node4 -->
<g id="node4" class="node"><title>Node4</title>
<polygon fill="white" stroke="#bfbfbf" points="37.5,-0.5 37.5,-19.5 86.5,-19.5 86.5,-0.5 37.5,-0.5"/>
<text text-anchor="middle" x="62" y="-7.5" font-family="Helvetica,sans-Serif" font-size="10.00">stdint.h</text>
</g>
<!-- Node3&#45;&gt;Node4 -->
<g id="edge3" class="edge"><title>Node3&#45;&gt;Node4</title>
<path fill="none" stroke="midnightblue" d="M62,-56.083C62,-49.0059 62,-38.8611 62,-29.9865"/>
<polygon fill="midnightblue" stroke="midnightblue" points="65.5001,-29.751 62,-19.7511 58.5001,-29.7511 65.5001,-29.751"/>
</g>
</g>
</svg>
