<?xml version="1.0" encoding="UTF-8" standalone="no"?>
<!DOCTYPE svg PUBLIC "-//W3C//DTD SVG 1.1//EN"
 "http://www.w3.org/Graphics/SVG/1.1/DTD/svg11.dtd">
<!-- Generated by graphviz version 2.36.0 (20140111.2315)
 -->
<!-- Title: wlp::TupleImpl&lt; IndexSequence&lt; Indices...&gt;, Types...&gt; Pages: 1 -->
<svg width="164pt" height="178pt"
 viewBox="0.00 0.00 164.00 178.00" xmlns="http://www.w3.org/2000/svg" xmlns:xlink="http://www.w3.org/1999/xlink">
<g id="graph0" class="graph" transform="scale(1 1) rotate(0) translate(4 174)">
<title>wlp::TupleImpl&lt; IndexSequence&lt; Indices...&gt;, Types...&gt;</title>
<polygon fill="white" stroke="none" points="-4,4 -4,-174 160,-174 160,4 -4,4"/>
<!-- Node1 -->
<g id="node1" class="node"><title>Node1</title>
<polygon fill="#bfbfbf" stroke="black" points="-0.5,-1 -0.5,-31 156.5,-31 156.5,-1 -0.5,-1"/>
<text text-anchor="start" x="7.5" y="-19" font-family="Helvetica,sans-Serif" font-size="10.00">wlp::TupleImpl&lt; IndexSequence</text>
<text text-anchor="middle" x="78" y="-8" font-family="Helvetica,sans-Serif" font-size="10.00">&lt; Indices...&gt;, Types...&gt;</text>
</g>
<!-- Node2 -->
<g id="node2" class="node"><title>Node2</title>
<g id="a_node2"><a xlink:href="../../d1/de1/structwlp_1_1_tuple_element.html" target="_top" xlink:title="wlp::TupleElement\&lt;\l Indices, Types \&gt;">
<polygon fill="white" stroke="black" points="26,-71 26,-101 130,-101 130,-71 26,-71"/>
<text text-anchor="start" x="34" y="-89" font-family="Helvetica,sans-Serif" font-size="10.00">wlp::TupleElement&lt;</text>
<text text-anchor="middle" x="78" y="-78" font-family="Helvetica,sans-Serif" font-size="10.00"> Indices, Types &gt;</text>
</a>
</g>
</g>
<!-- Node2&#45;&gt;Node1 -->
<g id="edge1" class="edge"><title>Node2&#45;&gt;Node1</title>
<path fill="none" stroke="midnightblue" d="M78,-60.7688C78,-50.8141 78,-39.6384 78,-31.0716"/>
<polygon fill="midnightblue" stroke="midnightblue" points="74.5001,-60.9103 78,-70.9104 81.5001,-60.9104 74.5001,-60.9103"/>
</g>
<!-- Node3 -->
<g id="node3" class="node"><title>Node3</title>
<g id="a_node3"><a xlink:href="../../d6/da2/class_types.html" target="_top" xlink:title="Types">
<polygon fill="white" stroke="black" points="56,-150.5 56,-169.5 100,-169.5 100,-150.5 56,-150.5"/>
<text text-anchor="middle" x="78" y="-157.5" font-family="Helvetica,sans-Serif" font-size="10.00">Types</text>
</a>
</g>
</g>
<!-- Node3&#45;&gt;Node2 -->
<g id="edge2" class="edge"><title>Node3&#45;&gt;Node2</title>
<path fill="none" stroke="#9a32cd" stroke-dasharray="5,2" d="M78,-140.085C78,-127.915 78,-112.354 78,-101.232"/>
<polygon fill="#9a32cd" stroke="#9a32cd" points="74.5001,-140.458 78,-150.458 81.5001,-140.458 74.5001,-140.458"/>
<text text-anchor="middle" x="91.5" y="-123.5" font-family="Helvetica,sans-Serif" font-size="10.00"> value</text>
</g>
</g>
</svg>
