<?xml version="1.0" encoding="UTF-8" standalone="no"?>
<!DOCTYPE svg PUBLIC "-//W3C//DTD SVG 1.1//EN"
 "http://www.w3.org/Graphics/SVG/1.1/DTD/svg11.dtd">
<!-- Generated by graphviz version 2.36.0 (20140111.2315)
 -->
<!-- Title: wlp::HashTableNode&lt; Element &gt; Pages: 1 -->
<svg width="170pt" height="108pt"
 viewBox="0.00 0.00 170.00 108.00" xmlns="http://www.w3.org/2000/svg" xmlns:xlink="http://www.w3.org/1999/xlink">
<g id="graph0" class="graph" transform="scale(1 1) rotate(0) translate(4 104)">
<title>wlp::HashTableNode&lt; Element &gt;</title>
<polygon fill="white" stroke="none" points="-4,4 -4,-104 166,-104 166,4 -4,4"/>
<!-- Node1 -->
<g id="node1" class="node"><title>Node1</title>
<polygon fill="#bfbfbf" stroke="black" points="0,-1 0,-31 108,-31 108,-1 0,-1"/>
<text text-anchor="start" x="8" y="-19" font-family="Helvetica,sans-Serif" font-size="10.00">wlp::HashTableNode</text>
<text text-anchor="middle" x="54" y="-8" font-family="Helvetica,sans-Serif" font-size="10.00">&lt; Element &gt;</text>
</g>
<!-- Node1&#45;&gt;Node1 -->
<g id="edge2" class="edge"><title>Node1&#45;&gt;Node1</title>
<path fill="none" stroke="#9a32cd" stroke-dasharray="5,2" d="M117.964,-21.666C122.934,-20.4161 126,-18.5275 126,-16 126,-12.0547 118.529,-9.66592 108.007,-8.83371"/>
<polygon fill="#9a32cd" stroke="#9a32cd" points="117.374,-18.2152 108.007,-23.1663 118.417,-25.1371 117.374,-18.2152"/>
<text text-anchor="middle" x="144" y="-13.5" font-family="Helvetica,sans-Serif" font-size="10.00"> m_next</text>
</g>
<!-- Node2 -->
<g id="node2" class="node"><title>Node2</title>
<polygon fill="white" stroke="#bfbfbf" points="27.5,-80.5 27.5,-99.5 80.5,-99.5 80.5,-80.5 27.5,-80.5"/>
<text text-anchor="middle" x="54" y="-87.5" font-family="Helvetica,sans-Serif" font-size="10.00">Element</text>
</g>
<!-- Node2&#45;&gt;Node1 -->
<g id="edge1" class="edge"><title>Node2&#45;&gt;Node1</title>
<path fill="none" stroke="#9a32cd" stroke-dasharray="5,2" d="M54,-70.0846C54,-57.9148 54,-42.3538 54,-31.2316"/>
<polygon fill="#9a32cd" stroke="#9a32cd" points="50.5001,-70.4579 54,-80.4579 57.5001,-70.4579 50.5001,-70.4579"/>
<text text-anchor="middle" x="80" y="-53.5" font-family="Helvetica,sans-Serif" font-size="10.00"> m_element</text>
</g>
</g>
</svg>
