<?xml version="1.0" encoding="UTF-8" standalone="no"?>
<!DOCTYPE svg PUBLIC "-//W3C//DTD SVG 1.1//EN"
 "http://www.w3.org/Graphics/SVG/1.1/DTD/svg11.dtd">
<!-- Generated by graphviz version 2.36.0 (20140111.2315)
 -->
<!-- Title: wlp::hash_table::begin Pages: 1 -->
<svg width="270pt" height="66pt"
 viewBox="0.00 0.00 270.00 66.00" xmlns="http://www.w3.org/2000/svg" xmlns:xlink="http://www.w3.org/1999/xlink">
<g id="graph0" class="graph" transform="scale(1 1) rotate(0) translate(4 62)">
<title>wlp::hash_table::begin</title>
<polygon fill="white" stroke="none" points="-4,4 -4,-62 266,-62 266,4 -4,4"/>
<!-- Node1 -->
<g id="node1" class="node"><title>Node1</title>
<polygon fill="#bfbfbf" stroke="black" points="0,-19.5 0,-38.5 114,-38.5 114,-19.5 0,-19.5"/>
<text text-anchor="middle" x="57" y="-26.5" font-family="Helvetica,sans-Serif" font-size="10.00">wlp::hash_table::begin</text>
</g>
<!-- Node2 -->
<g id="node2" class="node"><title>Node2</title>
<g id="a_node2"><a xlink:href="../../dd/d65/classwlp_1_1hash__map.html#a5491e31f6f7241c12944a95ad70f0301" target="_top" xlink:title="wlp::hash_map::begin">
<polygon fill="white" stroke="black" points="150,-38.5 150,-57.5 262,-57.5 262,-38.5 150,-38.5"/>
<text text-anchor="middle" x="206" y="-45.5" font-family="Helvetica,sans-Serif" font-size="10.00">wlp::hash_map::begin</text>
</a>
</g>
</g>
<!-- Node1&#45;&gt;Node2 -->
<g id="edge1" class="edge"><title>Node1&#45;&gt;Node2</title>
<path fill="none" stroke="midnightblue" d="M124.367,-37.5781C132.921,-38.6836 141.604,-39.806 149.949,-40.8846"/>
<polygon fill="midnightblue" stroke="midnightblue" points="124.78,-34.1024 114.414,-36.2916 123.882,-41.0446 124.78,-34.1024"/>
</g>
<!-- Node3 -->
<g id="node3" class="node"><title>Node3</title>
<g id="a_node3"><a xlink:href="../../d6/de4/classwlp_1_1hash__set.html#a0d829732f7bd7da81786a8e180f2d103" target="_top" xlink:title="wlp::hash_set::begin">
<polygon fill="white" stroke="black" points="152.5,-0.5 152.5,-19.5 259.5,-19.5 259.5,-0.5 152.5,-0.5"/>
<text text-anchor="middle" x="206" y="-7.5" font-family="Helvetica,sans-Serif" font-size="10.00">wlp::hash_set::begin</text>
</a>
</g>
</g>
<!-- Node1&#45;&gt;Node3 -->
<g id="edge2" class="edge"><title>Node1&#45;&gt;Node3</title>
<path fill="none" stroke="midnightblue" d="M124.468,-20.4089C133.815,-19.2007 143.316,-17.9727 152.358,-16.8041"/>
<polygon fill="midnightblue" stroke="midnightblue" points="123.882,-16.9554 114.414,-21.7084 124.78,-23.8976 123.882,-16.9554"/>
</g>
</g>
</svg>
