<?xml version="1.0" encoding="UTF-8" standalone="no"?>
<!DOCTYPE svg PUBLIC "-//W3C//DTD SVG 1.1//EN"
 "http://www.w3.org/Graphics/SVG/1.1/DTD/svg11.dtd">
<!-- Generated by graphviz version 2.36.0 (20140111.2315)
 -->
<!-- Title: wlp::hash_table::clear Pages: 1 -->
<svg width="324pt" height="208pt"
 viewBox="0.00 0.00 324.00 208.00" xmlns="http://www.w3.org/2000/svg" xmlns:xlink="http://www.w3.org/1999/xlink">
<g id="graph0" class="graph" transform="scale(1 1) rotate(0) translate(4 204)">
<title>wlp::hash_table::clear</title>
<polygon fill="white" stroke="none" points="-4,4 -4,-204 320,-204 320,4 -4,4"/>
<!-- Node1 -->
<g id="node1" class="node"><title>Node1</title>
<polygon fill="#bfbfbf" stroke="black" points="0,-114.5 0,-133.5 112,-133.5 112,-114.5 0,-114.5"/>
<text text-anchor="middle" x="56" y="-121.5" font-family="Helvetica,sans-Serif" font-size="10.00">wlp::hash_table::clear</text>
</g>
<!-- Node2 -->
<g id="node2" class="node"><title>Node2</title>
<g id="a_node2"><a xlink:href="../../dd/d65/classwlp_1_1hash__map.html#ad7f258ea0f905ccd130a68f85af0c0c6" target="_top" xlink:title="wlp::hash_map::clear">
<polygon fill="white" stroke="black" points="177,-180.5 177,-199.5 287,-199.5 287,-180.5 177,-180.5"/>
<text text-anchor="middle" x="232" y="-187.5" font-family="Helvetica,sans-Serif" font-size="10.00">wlp::hash_map::clear</text>
</a>
</g>
</g>
<!-- Node1&#45;&gt;Node2 -->
<g id="edge1" class="edge"><title>Node1&#45;&gt;Node2</title>
<path fill="none" stroke="midnightblue" d="M81.2021,-138.636C99.1129,-148.931 124.396,-162.36 148,-171 158.134,-174.709 169.237,-177.848 179.933,-180.44"/>
<polygon fill="midnightblue" stroke="midnightblue" points="82.9551,-135.607 72.5558,-133.581 79.4216,-141.65 82.9551,-135.607"/>
</g>
<!-- Node3 -->
<g id="node3" class="node"><title>Node3</title>
<g id="a_node3"><a xlink:href="../../d6/de4/classwlp_1_1hash__set.html#aca25cde38419352cee1a7365c3237e68" target="_top" xlink:title="wlp::hash_set::clear">
<polygon fill="white" stroke="black" points="180,-142.5 180,-161.5 284,-161.5 284,-142.5 180,-142.5"/>
<text text-anchor="middle" x="232" y="-149.5" font-family="Helvetica,sans-Serif" font-size="10.00">wlp::hash_set::clear</text>
</a>
</g>
</g>
<!-- Node1&#45;&gt;Node3 -->
<g id="edge2" class="edge"><title>Node1&#45;&gt;Node3</title>
<path fill="none" stroke="midnightblue" d="M122.166,-134.486C141.231,-137.554 161.791,-140.863 179.853,-143.769"/>
<polygon fill="midnightblue" stroke="midnightblue" points="122.484,-130.993 112.055,-132.859 121.372,-137.904 122.484,-130.993"/>
</g>
<!-- Node4 -->
<g id="node4" class="node"><title>Node4</title>
<g id="a_node4"><a xlink:href="../../dc/d42/classwlp_1_1hash__table.html#a060f1c4ae27d625bf9f93383cf2472c4" target="_top" xlink:title="wlp::hash_table\&lt; Key,\l Key, Key, SetGetKey\l\&lt; Key \&gt;, SetGetVal\&lt; Key\l \&gt;, Hasher, Equals \&gt;::operator=">
<polygon fill="white" stroke="black" points="154.5,-71 154.5,-123 309.5,-123 309.5,-71 154.5,-71"/>
<text text-anchor="start" x="162.5" y="-111" font-family="Helvetica,sans-Serif" font-size="10.00">wlp::hash_table&lt; Key,</text>
<text text-anchor="start" x="162.5" y="-100" font-family="Helvetica,sans-Serif" font-size="10.00"> Key, Key, SetGetKey</text>
<text text-anchor="start" x="162.5" y="-89" font-family="Helvetica,sans-Serif" font-size="10.00">&lt; Key &gt;, SetGetVal&lt; Key</text>
<text text-anchor="middle" x="232" y="-78" font-family="Helvetica,sans-Serif" font-size="10.00"> &gt;, Hasher, Equals &gt;::operator=</text>
</a>
</g>
</g>
<!-- Node1&#45;&gt;Node4 -->
<g id="edge3" class="edge"><title>Node1&#45;&gt;Node4</title>
<path fill="none" stroke="midnightblue" d="M122.006,-113.913C132.556,-112.276 143.568,-110.567 154.365,-108.892"/>
<polygon fill="midnightblue" stroke="midnightblue" points="121.4,-110.465 112.055,-115.457 122.473,-117.382 121.4,-110.465"/>
</g>
<!-- Node5 -->
<g id="node5" class="node"><title>Node5</title>
<g id="a_node5"><a xlink:href="../../dc/d42/classwlp_1_1hash__table.html#a4030f45eb56e7b1e6eb4df72701228db" target="_top" xlink:title="wlp::hash_table\&lt; Key,\l Key, Key, SetGetKey\l\&lt; Key \&gt;, SetGetVal\&lt; Key\l \&gt;, Hasher, Equals \&gt;::~hash_table">
<polygon fill="white" stroke="black" points="148.5,-0 148.5,-52 315.5,-52 315.5,-0 148.5,-0"/>
<text text-anchor="start" x="156.5" y="-40" font-family="Helvetica,sans-Serif" font-size="10.00">wlp::hash_table&lt; Key,</text>
<text text-anchor="start" x="156.5" y="-29" font-family="Helvetica,sans-Serif" font-size="10.00"> Key, Key, SetGetKey</text>
<text text-anchor="start" x="156.5" y="-18" font-family="Helvetica,sans-Serif" font-size="10.00">&lt; Key &gt;, SetGetVal&lt; Key</text>
<text text-anchor="middle" x="232" y="-7" font-family="Helvetica,sans-Serif" font-size="10.00"> &gt;, Hasher, Equals &gt;::~hash_table</text>
</a>
</g>
</g>
<!-- Node1&#45;&gt;Node5 -->
<g id="edge4" class="edge"><title>Node1&#45;&gt;Node5</title>
<path fill="none" stroke="midnightblue" d="M77.5196,-108.363C95.5108,-95.0626 122.676,-75.9551 148,-62 154.19,-58.5887 160.769,-55.2643 167.408,-52.1017"/>
<polygon fill="midnightblue" stroke="midnightblue" points="75.3871,-105.587 69.4728,-114.378 79.578,-111.194 75.3871,-105.587"/>
</g>
</g>
</svg>
