<?xml version="1.0" encoding="UTF-8" standalone="no"?>
<!DOCTYPE svg PUBLIC "-//W3C//DTD SVG 1.1//EN"
 "http://www.w3.org/Graphics/SVG/1.1/DTD/svg11.dtd">
<!-- Generated by graphviz version 2.36.0 (20140111.2315)
 -->
<!-- Title: wlp::hash_table::end Pages: 1 -->
<svg width="290pt" height="213pt"
 viewBox="0.00 0.00 290.00 213.00" xmlns="http://www.w3.org/2000/svg" xmlns:xlink="http://www.w3.org/1999/xlink">
<g id="graph0" class="graph" transform="scale(1 1) rotate(0) translate(4 209)">
<title>wlp::hash_table::end</title>
<polygon fill="white" stroke="none" points="-4,4 -4,-209 286,-209 286,4 -4,4"/>
<!-- Node1 -->
<g id="node1" class="node"><title>Node1</title>
<polygon fill="#bfbfbf" stroke="black" points="0.5,-76.5 0.5,-95.5 107.5,-95.5 107.5,-76.5 0.5,-76.5"/>
<text text-anchor="middle" x="54" y="-83.5" font-family="Helvetica,sans-Serif" font-size="10.00">wlp::hash_table::end</text>
</g>
<!-- Node2 -->
<g id="node2" class="node"><title>Node2</title>
<g id="a_node2"><a xlink:href="../../dc/d42/classwlp_1_1hash__table.html#a0cbd49f4000f04fbf6c8b010b593e4c9" target="_top" xlink:title="wlp::hash_table\&lt; Key,\l Key, Key, SetGetKey\l\&lt; Key \&gt;, SetGetVal\&lt; Key\l \&gt;, Hasher, Equals \&gt;::begin">
<polygon fill="white" stroke="black" points="144.5,-153 144.5,-205 281.5,-205 281.5,-153 144.5,-153"/>
<text text-anchor="start" x="152.5" y="-193" font-family="Helvetica,sans-Serif" font-size="10.00">wlp::hash_table&lt; Key,</text>
<text text-anchor="start" x="152.5" y="-182" font-family="Helvetica,sans-Serif" font-size="10.00"> Key, Key, SetGetKey</text>
<text text-anchor="start" x="152.5" y="-171" font-family="Helvetica,sans-Serif" font-size="10.00">&lt; Key &gt;, SetGetVal&lt; Key</text>
<text text-anchor="middle" x="213" y="-160" font-family="Helvetica,sans-Serif" font-size="10.00"> &gt;, Hasher, Equals &gt;::begin</text>
</a>
</g>
</g>
<!-- Node1&#45;&gt;Node2 -->
<g id="edge1" class="edge"><title>Node1&#45;&gt;Node2</title>
<path fill="none" stroke="midnightblue" d="M77.813,-101.349C95.6029,-113.138 121.058,-129.612 144,-143 149.653,-146.299 155.633,-149.654 161.609,-152.923"/>
<polygon fill="midnightblue" stroke="midnightblue" points="79.5255,-98.2847 69.2626,-95.6531 75.6444,-104.11 79.5255,-98.2847"/>
</g>
<!-- Node3 -->
<g id="node3" class="node"><title>Node3</title>
<g id="a_node3"><a xlink:href="../../d6/de4/classwlp_1_1hash__set.html#a5d0a6d53cecb352353d5d96cd4123cc9" target="_top" xlink:title="wlp::hash_set::contains">
<polygon fill="white" stroke="black" points="153,-114.5 153,-133.5 273,-133.5 273,-114.5 153,-114.5"/>
<text text-anchor="middle" x="213" y="-121.5" font-family="Helvetica,sans-Serif" font-size="10.00">wlp::hash_set::contains</text>
</a>
</g>
</g>
<!-- Node1&#45;&gt;Node3 -->
<g id="edge2" class="edge"><title>Node1&#45;&gt;Node3</title>
<path fill="none" stroke="midnightblue" d="M104.447,-97.968C126.448,-103.293 151.994,-109.476 172.667,-114.48"/>
<polygon fill="midnightblue" stroke="midnightblue" points="105.16,-94.5398 94.6177,-95.589 103.514,-101.343 105.16,-94.5398"/>
</g>
<!-- Node4 -->
<g id="node4" class="node"><title>Node4</title>
<g id="a_node4"><a xlink:href="../../dd/d65/classwlp_1_1hash__map.html#a752ab6d4fd2e4eae26318dfc58b90665" target="_top" xlink:title="wlp::hash_map::contains">
<polygon fill="white" stroke="black" points="150.5,-76.5 150.5,-95.5 275.5,-95.5 275.5,-76.5 150.5,-76.5"/>
<text text-anchor="middle" x="213" y="-83.5" font-family="Helvetica,sans-Serif" font-size="10.00">wlp::hash_map::contains</text>
</a>
</g>
</g>
<!-- Node1&#45;&gt;Node4 -->
<g id="edge3" class="edge"><title>Node1&#45;&gt;Node4</title>
<path fill="none" stroke="midnightblue" d="M117.863,-86C128.606,-86 139.757,-86 150.465,-86"/>
<polygon fill="midnightblue" stroke="midnightblue" points="117.716,-82.5001 107.715,-86 117.715,-89.5001 117.716,-82.5001"/>
</g>
<!-- Node5 -->
<g id="node5" class="node"><title>Node5</title>
<g id="a_node5"><a xlink:href="../../d6/de4/classwlp_1_1hash__set.html#a27d3c5140fd5e5ee390864ad9f2bd462" target="_top" xlink:title="wlp::hash_set::end">
<polygon fill="white" stroke="black" points="163.5,-38.5 163.5,-57.5 262.5,-57.5 262.5,-38.5 163.5,-38.5"/>
<text text-anchor="middle" x="213" y="-45.5" font-family="Helvetica,sans-Serif" font-size="10.00">wlp::hash_set::end</text>
</a>
</g>
</g>
<!-- Node1&#45;&gt;Node5 -->
<g id="edge4" class="edge"><title>Node1&#45;&gt;Node5</title>
<path fill="none" stroke="midnightblue" d="M104.447,-74.032C126.448,-68.7069 151.994,-62.5238 172.667,-57.5201"/>
<polygon fill="midnightblue" stroke="midnightblue" points="103.514,-70.6567 94.6177,-76.411 105.16,-77.4602 103.514,-70.6567"/>
</g>
<!-- Node6 -->
<g id="node6" class="node"><title>Node6</title>
<g id="a_node6"><a xlink:href="../../dd/d65/classwlp_1_1hash__map.html#ad315d1698e2a3f110bec9d2d4999a9ef" target="_top" xlink:title="wlp::hash_map::end">
<polygon fill="white" stroke="black" points="161,-0.5 161,-19.5 265,-19.5 265,-0.5 161,-0.5"/>
<text text-anchor="middle" x="213" y="-7.5" font-family="Helvetica,sans-Serif" font-size="10.00">wlp::hash_map::end</text>
</a>
</g>
</g>
<!-- Node1&#45;&gt;Node6 -->
<g id="edge5" class="edge"><title>Node1&#45;&gt;Node6</title>
<path fill="none" stroke="midnightblue" d="M75.5618,-70.313C92.9841,-57.6557 119.044,-40.1759 144,-29 152.278,-25.2926 161.453,-22.141 170.313,-19.5336"/>
<polygon fill="midnightblue" stroke="midnightblue" points="73.247,-67.6718 67.2901,-76.4334 77.4107,-73.2989 73.247,-67.6718"/>
</g>
</g>
</svg>
