<?xml version="1.0" encoding="UTF-8" standalone="no"?>
<!DOCTYPE svg PUBLIC "-//W3C//DTD SVG 1.1//EN"
 "http://www.w3.org/Graphics/SVG/1.1/DTD/svg11.dtd">
<!-- Generated by graphviz version 2.36.0 (20140111.2315)
 -->
<!-- Title: wlp::hash_table::find Pages: 1 -->
<svg width="278pt" height="180pt"
 viewBox="0.00 0.00 278.00 180.00" xmlns="http://www.w3.org/2000/svg" xmlns:xlink="http://www.w3.org/1999/xlink">
<g id="graph0" class="graph" transform="scale(1 1) rotate(0) translate(4 176)">
<title>wlp::hash_table::find</title>
<polygon fill="white" stroke="none" points="-4,4 -4,-176 274,-176 274,4 -4,4"/>
<!-- Node1 -->
<g id="node1" class="node"><title>Node1</title>
<polygon fill="#bfbfbf" stroke="black" points="0.5,-76.5 0.5,-95.5 107.5,-95.5 107.5,-76.5 0.5,-76.5"/>
<text text-anchor="middle" x="54" y="-83.5" font-family="Helvetica,sans-Serif" font-size="10.00">wlp::hash_table::find</text>
</g>
<!-- Node2 -->
<g id="node2" class="node"><title>Node2</title>
<g id="a_node2"><a xlink:href="../../dd/d65/classwlp_1_1hash__map.html#a9221051ead5b11e63b7c2d271e31a583" target="_top" xlink:title="wlp::hash_map::at">
<polygon fill="white" stroke="black" points="158.5,-152.5 158.5,-171.5 255.5,-171.5 255.5,-152.5 158.5,-152.5"/>
<text text-anchor="middle" x="207" y="-159.5" font-family="Helvetica,sans-Serif" font-size="10.00">wlp::hash_map::at</text>
</a>
</g>
</g>
<!-- Node1&#45;&gt;Node2 -->
<g id="edge1" class="edge"><title>Node1&#45;&gt;Node2</title>
<path fill="none" stroke="midnightblue" d="M75.936,-101.74C93.4,-114.284 119.327,-131.58 144,-143 151.867,-146.641 160.61,-149.811 168.991,-152.463"/>
<polygon fill="midnightblue" stroke="midnightblue" points="77.7659,-98.7428 67.6264,-95.6703 73.6367,-104.395 77.7659,-98.7428"/>
</g>
<!-- Node3 -->
<g id="node3" class="node"><title>Node3</title>
<g id="a_node3"><a xlink:href="../../d6/de4/classwlp_1_1hash__set.html#a5d0a6d53cecb352353d5d96cd4123cc9" target="_top" xlink:title="wlp::hash_set::contains">
<polygon fill="white" stroke="black" points="147,-114.5 147,-133.5 267,-133.5 267,-114.5 147,-114.5"/>
<text text-anchor="middle" x="207" y="-121.5" font-family="Helvetica,sans-Serif" font-size="10.00">wlp::hash_set::contains</text>
</a>
</g>
</g>
<!-- Node1&#45;&gt;Node3 -->
<g id="edge2" class="edge"><title>Node1&#45;&gt;Node3</title>
<path fill="none" stroke="midnightblue" d="M102.843,-98.04C123.939,-103.349 148.377,-109.499 168.17,-114.48"/>
<polygon fill="midnightblue" stroke="midnightblue" points="103.656,-94.6354 93.1037,-95.589 101.947,-101.424 103.656,-94.6354"/>
</g>
<!-- Node4 -->
<g id="node4" class="node"><title>Node4</title>
<g id="a_node4"><a xlink:href="../../dd/d65/classwlp_1_1hash__map.html#a752ab6d4fd2e4eae26318dfc58b90665" target="_top" xlink:title="wlp::hash_map::contains">
<polygon fill="white" stroke="black" points="144.5,-76.5 144.5,-95.5 269.5,-95.5 269.5,-76.5 144.5,-76.5"/>
<text text-anchor="middle" x="207" y="-83.5" font-family="Helvetica,sans-Serif" font-size="10.00">wlp::hash_map::contains</text>
</a>
</g>
</g>
<!-- Node1&#45;&gt;Node4 -->
<g id="edge3" class="edge"><title>Node1&#45;&gt;Node4</title>
<path fill="none" stroke="midnightblue" d="M117.952,-86C126.704,-86 135.689,-86 144.416,-86"/>
<polygon fill="midnightblue" stroke="midnightblue" points="117.813,-82.5001 107.812,-86 117.812,-89.5001 117.813,-82.5001"/>
</g>
<!-- Node5 -->
<g id="node5" class="node"><title>Node5</title>
<g id="a_node5"><a xlink:href="../../d6/de4/classwlp_1_1hash__set.html#ae6f51c074a7979a2bb6188595f1071b2" target="_top" xlink:title="wlp::hash_set::find">
<polygon fill="white" stroke="black" points="157.5,-38.5 157.5,-57.5 256.5,-57.5 256.5,-38.5 157.5,-38.5"/>
<text text-anchor="middle" x="207" y="-45.5" font-family="Helvetica,sans-Serif" font-size="10.00">wlp::hash_set::find</text>
</a>
</g>
</g>
<!-- Node1&#45;&gt;Node5 -->
<g id="edge4" class="edge"><title>Node1&#45;&gt;Node5</title>
<path fill="none" stroke="midnightblue" d="M102.843,-73.96C123.939,-68.6512 148.377,-62.5012 168.17,-57.5201"/>
<polygon fill="midnightblue" stroke="midnightblue" points="101.947,-70.5763 93.1037,-76.411 103.656,-77.3646 101.947,-70.5763"/>
</g>
<!-- Node6 -->
<g id="node6" class="node"><title>Node6</title>
<g id="a_node6"><a xlink:href="../../dd/d65/classwlp_1_1hash__map.html#a26f208596934fd3ea0186f40c46bd500" target="_top" xlink:title="wlp::hash_map::find">
<polygon fill="white" stroke="black" points="155,-0.5 155,-19.5 259,-19.5 259,-0.5 155,-0.5"/>
<text text-anchor="middle" x="207" y="-7.5" font-family="Helvetica,sans-Serif" font-size="10.00">wlp::hash_map::find</text>
</a>
</g>
</g>
<!-- Node1&#45;&gt;Node6 -->
<g id="edge5" class="edge"><title>Node1&#45;&gt;Node6</title>
<path fill="none" stroke="midnightblue" d="M75.936,-70.2595C93.4,-57.7157 119.327,-40.4201 144,-29 151.867,-25.3588 160.61,-22.189 168.991,-19.5366"/>
<polygon fill="midnightblue" stroke="midnightblue" points="73.6367,-67.6047 67.6264,-76.3297 77.7659,-73.2572 73.6367,-67.6047"/>
</g>
</g>
</svg>
