<?xml version="1.0" encoding="UTF-8" standalone="no"?>
<!DOCTYPE svg PUBLIC "-//W3C//DTD SVG 1.1//EN"
 "http://www.w3.org/Graphics/SVG/1.1/DTD/svg11.dtd">
<!-- Generated by graphviz version 2.36.0 (20140111.2315)
 -->
<!-- Title: wlp::hash_table::end Pages: 1 -->
<svg width="290pt" height="262pt"
 viewBox="0.00 0.00 290.00 262.00" xmlns="http://www.w3.org/2000/svg" xmlns:xlink="http://www.w3.org/1999/xlink">
<g id="graph0" class="graph" transform="scale(1 1) rotate(0) translate(4 258)">
<title>wlp::hash_table::end</title>
<polygon fill="white" stroke="none" points="-4,4 -4,-258 286,-258 286,4 -4,4"/>
<!-- Node1 -->
<g id="node1" class="node"><title>Node1</title>
<polygon fill="#bfbfbf" stroke="black" points="0.5,-106.5 0.5,-125.5 107.5,-125.5 107.5,-106.5 0.5,-106.5"/>
<text text-anchor="middle" x="54" y="-113.5" font-family="Helvetica,sans-Serif" font-size="10.00">wlp::hash_table::end</text>
</g>
<!-- Node2 -->
<g id="node2" class="node"><title>Node2</title>
<g id="a_node2"><a xlink:href="../../dc/d42/classwlp_1_1hash__table.html#a0cbd49f4000f04fbf6c8b010b593e4c9" target="_top" xlink:title="wlp::hash_table\&lt; Key,\l Key, Key, SetGetKey\l\&lt; Key \&gt;, SetGetVal\&lt; Key\l \&gt;, Hasher, Equals \&gt;::begin">
<polygon fill="white" stroke="black" points="144.5,-202 144.5,-254 281.5,-254 281.5,-202 144.5,-202"/>
<text text-anchor="start" x="152.5" y="-242" font-family="Helvetica,sans-Serif" font-size="10.00">wlp::hash_table&lt; Key,</text>
<text text-anchor="start" x="152.5" y="-231" font-family="Helvetica,sans-Serif" font-size="10.00"> Key, Key, SetGetKey</text>
<text text-anchor="start" x="152.5" y="-220" font-family="Helvetica,sans-Serif" font-size="10.00">&lt; Key &gt;, SetGetVal&lt; Key</text>
<text text-anchor="middle" x="213" y="-209" font-family="Helvetica,sans-Serif" font-size="10.00"> &gt;, Hasher, Equals &gt;::begin</text>
</a>
</g>
</g>
<!-- Node1&#45;&gt;Node2 -->
<g id="edge1" class="edge"><title>Node1&#45;&gt;Node2</title>
<path fill="none" stroke="midnightblue" d="M72.4272,-132.914C89.7246,-149.197 117.426,-173.943 144,-192 148.972,-195.378 154.297,-198.681 159.697,-201.831"/>
<polygon fill="midnightblue" stroke="midnightblue" points="74.476,-130.032 64.822,-125.667 69.647,-135.1 74.476,-130.032"/>
</g>
<!-- Node3 -->
<g id="node3" class="node"><title>Node3</title>
<g id="a_node3"><a xlink:href="../../d6/de4/classwlp_1_1hash__set.html#a5d0a6d53cecb352353d5d96cd4123cc9" target="_top" xlink:title="wlp::hash_set::contains">
<polygon fill="white" stroke="black" points="153,-163.5 153,-182.5 273,-182.5 273,-163.5 153,-163.5"/>
<text text-anchor="middle" x="213" y="-170.5" font-family="Helvetica,sans-Serif" font-size="10.00">wlp::hash_set::contains</text>
</a>
</g>
</g>
<!-- Node1&#45;&gt;Node3 -->
<g id="edge2" class="edge"><title>Node1&#45;&gt;Node3</title>
<path fill="none" stroke="midnightblue" d="M84.662,-129.822C101.787,-137.508 123.86,-146.921 144,-154 153.714,-157.414 164.374,-160.634 174.314,-163.418"/>
<polygon fill="midnightblue" stroke="midnightblue" points="85.7548,-126.474 75.2025,-125.526 82.8606,-132.848 85.7548,-126.474"/>
</g>
<!-- Node4 -->
<g id="node4" class="node"><title>Node4</title>
<g id="a_node4"><a xlink:href="../../dd/d65/classwlp_1_1hash__map.html#a752ab6d4fd2e4eae26318dfc58b90665" target="_top" xlink:title="wlp::hash_map::contains">
<polygon fill="white" stroke="black" points="150.5,-125.5 150.5,-144.5 275.5,-144.5 275.5,-125.5 150.5,-125.5"/>
<text text-anchor="middle" x="213" y="-132.5" font-family="Helvetica,sans-Serif" font-size="10.00">wlp::hash_map::contains</text>
</a>
</g>
</g>
<!-- Node1&#45;&gt;Node4 -->
<g id="edge3" class="edge"><title>Node1&#45;&gt;Node4</title>
<path fill="none" stroke="midnightblue" d="M117.863,-123.608C128.606,-124.908 139.757,-126.257 150.465,-127.553"/>
<polygon fill="midnightblue" stroke="midnightblue" points="118.064,-120.106 107.715,-122.38 117.223,-127.056 118.064,-120.106"/>
</g>
<!-- Node5 -->
<g id="node5" class="node"><title>Node5</title>
<g id="a_node5"><a xlink:href="../../d6/de4/classwlp_1_1hash__set.html#a27d3c5140fd5e5ee390864ad9f2bd462" target="_top" xlink:title="wlp::hash_set::end">
<polygon fill="white" stroke="black" points="163.5,-87.5 163.5,-106.5 262.5,-106.5 262.5,-87.5 163.5,-87.5"/>
<text text-anchor="middle" x="213" y="-94.5" font-family="Helvetica,sans-Serif" font-size="10.00">wlp::hash_set::end</text>
</a>
</g>
</g>
<!-- Node1&#45;&gt;Node5 -->
<g id="edge4" class="edge"><title>Node1&#45;&gt;Node5</title>
<path fill="none" stroke="midnightblue" d="M118.023,-108.373C133.137,-106.544 149.049,-104.618 163.394,-102.882"/>
<polygon fill="midnightblue" stroke="midnightblue" points="117.223,-104.944 107.715,-109.62 118.064,-111.894 117.223,-104.944"/>
</g>
<!-- Node6 -->
<g id="node6" class="node"><title>Node6</title>
<g id="a_node6"><a xlink:href="../../dd/d65/classwlp_1_1hash__map.html#ad315d1698e2a3f110bec9d2d4999a9ef" target="_top" xlink:title="wlp::hash_map::end">
<polygon fill="white" stroke="black" points="161,-49.5 161,-68.5 265,-68.5 265,-49.5 161,-49.5"/>
<text text-anchor="middle" x="213" y="-56.5" font-family="Helvetica,sans-Serif" font-size="10.00">wlp::hash_map::end</text>
</a>
</g>
</g>
<!-- Node1&#45;&gt;Node6 -->
<g id="edge5" class="edge"><title>Node1&#45;&gt;Node6</title>
<path fill="none" stroke="midnightblue" d="M84.662,-102.178C101.787,-94.4921 123.86,-85.0789 144,-78 153.714,-74.5857 164.374,-71.3664 174.314,-68.5817"/>
<polygon fill="midnightblue" stroke="midnightblue" points="82.8606,-99.1524 75.2025,-106.474 85.7548,-105.526 82.8606,-99.1524"/>
</g>
<!-- Node7 -->
<g id="node7" class="node"><title>Node7</title>
<g id="a_node7"><a xlink:href="../../dd/d65/classwlp_1_1hash__map.html#af618638c0887e28d80cef87684f89a51" target="_top" xlink:title="wlp::hash_map::insert\l_or_assign">
<polygon fill="white" stroke="black" points="156.5,-0 156.5,-30 269.5,-30 269.5,-0 156.5,-0"/>
<text text-anchor="start" x="164.5" y="-18" font-family="Helvetica,sans-Serif" font-size="10.00">wlp::hash_map::insert</text>
<text text-anchor="middle" x="213" y="-7" font-family="Helvetica,sans-Serif" font-size="10.00">_or_assign</text>
</a>
</g>
</g>
<!-- Node1&#45;&gt;Node7 -->
<g id="edge6" class="edge"><title>Node1&#45;&gt;Node7</title>
<path fill="none" stroke="midnightblue" d="M71.3731,-98.8316C88.2459,-81.9539 115.97,-56.4057 144,-40 150.296,-36.3149 157.23,-33.0163 164.189,-30.1183"/>
<polygon fill="midnightblue" stroke="midnightblue" points="68.5104,-96.7519 64.008,-106.342 73.5085,-101.653 68.5104,-96.7519"/>
</g>
</g>
</svg>
