<?xml version="1.0" encoding="UTF-8" standalone="no"?>
<!DOCTYPE svg PUBLIC "-//W3C//DTD SVG 1.1//EN"
 "http://www.w3.org/Graphics/SVG/1.1/DTD/svg11.dtd">
<!-- Generated by graphviz version 2.36.0 (20140111.2315)
 -->
<!-- Title: wlp::hash_table::insert_unique Pages: 1 -->
<svg width="274pt" height="115pt"
 viewBox="0.00 0.00 274.00 115.00" xmlns="http://www.w3.org/2000/svg" xmlns:xlink="http://www.w3.org/1999/xlink">
<g id="graph0" class="graph" transform="scale(1 1) rotate(0) translate(4 111)">
<title>wlp::hash_table::insert_unique</title>
<polygon fill="white" stroke="none" points="-4,4 -4,-111 270,-111 270,4 -4,4"/>
<!-- Node1 -->
<g id="node1" class="node"><title>Node1</title>
<polygon fill="#bfbfbf" stroke="black" points="0.5,-44 0.5,-74 115.5,-74 115.5,-44 0.5,-44"/>
<text text-anchor="start" x="8.5" y="-62" font-family="Helvetica,sans-Serif" font-size="10.00">wlp::hash_table::insert</text>
<text text-anchor="middle" x="58" y="-51" font-family="Helvetica,sans-Serif" font-size="10.00">_unique</text>
</g>
<!-- Node2 -->
<g id="node2" class="node"><title>Node2</title>
<g id="a_node2"><a xlink:href="../../dd/d65/classwlp_1_1hash__map.html#a2fb0feea7e1b9ec199993392fdc1f2f0" target="_top" xlink:title="wlp::hash_map::insert">
<polygon fill="white" stroke="black" points="152.5,-87.5 152.5,-106.5 265.5,-106.5 265.5,-87.5 152.5,-87.5"/>
<text text-anchor="middle" x="209" y="-94.5" font-family="Helvetica,sans-Serif" font-size="10.00">wlp::hash_map::insert</text>
</a>
</g>
</g>
<!-- Node1&#45;&gt;Node2 -->
<g id="edge1" class="edge"><title>Node1&#45;&gt;Node2</title>
<path fill="none" stroke="midnightblue" d="M125.716,-76.0149C141.012,-79.9159 156.751,-83.9299 170.315,-87.3891"/>
<polygon fill="midnightblue" stroke="midnightblue" points="126.31,-72.5544 115.756,-73.4746 124.58,-79.3373 126.31,-72.5544"/>
</g>
<!-- Node3 -->
<g id="node3" class="node"><title>Node3</title>
<g id="a_node3"><a xlink:href="../../d6/de4/classwlp_1_1hash__set.html#a5e9af78da2a3dd5bb637e9fdce4128fd" target="_top" xlink:title="wlp::hash_set::insert">
<polygon fill="white" stroke="black" points="155.5,-49.5 155.5,-68.5 262.5,-68.5 262.5,-49.5 155.5,-49.5"/>
<text text-anchor="middle" x="209" y="-56.5" font-family="Helvetica,sans-Serif" font-size="10.00">wlp::hash_set::insert</text>
</a>
</g>
</g>
<!-- Node1&#45;&gt;Node3 -->
<g id="edge2" class="edge"><title>Node1&#45;&gt;Node3</title>
<path fill="none" stroke="midnightblue" d="M125.929,-59C135.781,-59 145.812,-59 155.322,-59"/>
<polygon fill="midnightblue" stroke="midnightblue" points="125.756,-55.5001 115.756,-59 125.756,-62.5001 125.756,-55.5001"/>
</g>
<!-- Node4 -->
<g id="node4" class="node"><title>Node4</title>
<g id="a_node4"><a xlink:href="../../dd/d65/classwlp_1_1hash__map.html#af618638c0887e28d80cef87684f89a51" target="_top" xlink:title="wlp::hash_map::insert\l_or_assign">
<polygon fill="white" stroke="black" points="152.5,-0 152.5,-30 265.5,-30 265.5,-0 152.5,-0"/>
<text text-anchor="start" x="160.5" y="-18" font-family="Helvetica,sans-Serif" font-size="10.00">wlp::hash_map::insert</text>
<text text-anchor="middle" x="209" y="-7" font-family="Helvetica,sans-Serif" font-size="10.00">_or_assign</text>
</a>
</g>
</g>
<!-- Node1&#45;&gt;Node4 -->
<g id="edge3" class="edge"><title>Node1&#45;&gt;Node4</title>
<path fill="none" stroke="midnightblue" d="M119.686,-41.0793C132.114,-37.4092 145.074,-33.5821 157.116,-30.0262"/>
<polygon fill="midnightblue" stroke="midnightblue" points="118.46,-37.7919 109.861,-43.9808 120.442,-44.5053 118.46,-37.7919"/>
</g>
</g>
</svg>
