<?xml version="1.0" encoding="UTF-8" standalone="no"?>
<!DOCTYPE svg PUBLIC "-//W3C//DTD SVG 1.1//EN"
 "http://www.w3.org/Graphics/SVG/1.1/DTD/svg11.dtd">
<!-- Generated by graphviz version 2.36.0 (20140111.2315)
 -->
<!-- Title: wlp::hash_table::erase Pages: 1 -->
<svg width="274pt" height="66pt"
 viewBox="0.00 0.00 274.00 66.00" xmlns="http://www.w3.org/2000/svg" xmlns:xlink="http://www.w3.org/1999/xlink">
<g id="graph0" class="graph" transform="scale(1 1) rotate(0) translate(4 62)">
<title>wlp::hash_table::erase</title>
<polygon fill="white" stroke="none" points="-4,4 -4,-62 270,-62 270,4 -4,4"/>
<!-- Node1 -->
<g id="node1" class="node"><title>Node1</title>
<polygon fill="#bfbfbf" stroke="black" points="0.5,-19.5 0.5,-38.5 115.5,-38.5 115.5,-19.5 0.5,-19.5"/>
<text text-anchor="middle" x="58" y="-26.5" font-family="Helvetica,sans-Serif" font-size="10.00">wlp::hash_table::erase</text>
</g>
<!-- Node2 -->
<g id="node2" class="node"><title>Node2</title>
<g id="a_node2"><a xlink:href="../../dd/d65/classwlp_1_1hash__map.html#a11897d9fb02f8096955a7c6ef9f9d0c3" target="_top" xlink:title="wlp::hash_map::erase">
<polygon fill="white" stroke="black" points="152.5,-38.5 152.5,-57.5 265.5,-57.5 265.5,-38.5 152.5,-38.5"/>
<text text-anchor="middle" x="209" y="-45.5" font-family="Helvetica,sans-Serif" font-size="10.00">wlp::hash_map::erase</text>
</a>
</g>
</g>
<!-- Node1&#45;&gt;Node2 -->
<g id="edge1" class="edge"><title>Node1&#45;&gt;Node2</title>
<path fill="none" stroke="midnightblue" d="M125.724,-37.5084C134.634,-38.6446 143.694,-39.7999 152.387,-40.9084"/>
<polygon fill="midnightblue" stroke="midnightblue" points="126.118,-34.0304 115.756,-36.2373 125.232,-40.9742 126.118,-34.0304"/>
</g>
<!-- Node3 -->
<g id="node3" class="node"><title>Node3</title>
<g id="a_node3"><a xlink:href="../../d6/de4/classwlp_1_1hash__set.html#a07a5ebdc0f086cbff3de808d6aa9c686" target="_top" xlink:title="wlp::hash_set::erase">
<polygon fill="white" stroke="black" points="155.5,-0.5 155.5,-19.5 262.5,-19.5 262.5,-0.5 155.5,-0.5"/>
<text text-anchor="middle" x="209" y="-7.5" font-family="Helvetica,sans-Serif" font-size="10.00">wlp::hash_set::erase</text>
</a>
</g>
</g>
<!-- Node1&#45;&gt;Node3 -->
<g id="edge2" class="edge"><title>Node1&#45;&gt;Node3</title>
<path fill="none" stroke="midnightblue" d="M125.929,-20.4654C135.781,-19.2091 145.812,-17.93 155.322,-16.7173"/>
<polygon fill="midnightblue" stroke="midnightblue" points="125.232,-17.0258 115.756,-21.7627 126.118,-23.9696 125.232,-17.0258"/>
</g>
</g>
</svg>
