<?xml version="1.0" encoding="UTF-8" standalone="no"?>
<!DOCTYPE svg PUBLIC "-//W3C//DTD SVG 1.1//EN"
 "http://www.w3.org/Graphics/SVG/1.1/DTD/svg11.dtd">
<!-- Generated by graphviz version 2.36.0 (20140111.2315)
 -->
<!-- Title: wlp::StaticString::operator+ Pages: 1 -->
<svg width="242pt" height="87pt"
 viewBox="0.00 0.00 242.00 87.00" xmlns="http://www.w3.org/2000/svg" xmlns:xlink="http://www.w3.org/1999/xlink">
<g id="graph0" class="graph" transform="scale(1 1) rotate(0) translate(4 83)">
<title>wlp::StaticString::operator+</title>
<polygon fill="white" stroke="none" points="-4,4 -4,-83 238,-83 238,4 -4,4"/>
<!-- Node1 -->
<g id="node1" class="node"><title>Node1</title>
<polygon fill="#bfbfbf" stroke="black" points="0.5,-24 0.5,-54 95.5,-54 95.5,-24 0.5,-24"/>
<text text-anchor="start" x="8.5" y="-42" font-family="Helvetica,sans-Serif" font-size="10.00">wlp::StaticString::</text>
<text text-anchor="middle" x="48" y="-31" font-family="Helvetica,sans-Serif" font-size="10.00">operator+</text>
</g>
<!-- Node2 -->
<g id="node2" class="node"><title>Node2</title>
<g id="a_node2"><a xlink:href="../../d8/db4/classwlp_1_1_dynamic_string.html#a86beafc6dac9734b29ad70a742ff68d2" target="_top" xlink:title="wlp::DynamicString\l::c_str">
<polygon fill="white" stroke="black" points="132,-49 132,-79 234,-79 234,-49 132,-49"/>
<text text-anchor="start" x="140" y="-67" font-family="Helvetica,sans-Serif" font-size="10.00">wlp::DynamicString</text>
<text text-anchor="middle" x="183" y="-56" font-family="Helvetica,sans-Serif" font-size="10.00">::c_str</text>
</a>
</g>
</g>
<!-- Node1&#45;&gt;Node2 -->
<g id="edge1" class="edge"><title>Node1&#45;&gt;Node2</title>
<path fill="none" stroke="midnightblue" d="M95.5169,-47.7438C104.007,-49.3397 112.977,-51.0257 121.797,-52.6837"/>
<polygon fill="midnightblue" stroke="midnightblue" points="121.185,-56.1298 131.659,-54.5374 122.478,-49.2502 121.185,-56.1298"/>
</g>
<!-- Node3 -->
<g id="node3" class="node"><title>Node3</title>
<g id="a_node3"><a xlink:href="../../d8/db4/classwlp_1_1_dynamic_string.html#a03c9ccc7077cbac93ecc78366385f228" target="_top" xlink:title="wlp::DynamicString\l::length">
<polygon fill="white" stroke="black" points="132,-0 132,-30 234,-30 234,-0 132,-0"/>
<text text-anchor="start" x="140" y="-18" font-family="Helvetica,sans-Serif" font-size="10.00">wlp::DynamicString</text>
<text text-anchor="middle" x="183" y="-7" font-family="Helvetica,sans-Serif" font-size="10.00">::length</text>
</a>
</g>
</g>
<!-- Node1&#45;&gt;Node3 -->
<g id="edge2" class="edge"><title>Node1&#45;&gt;Node3</title>
<path fill="none" stroke="midnightblue" d="M95.5169,-30.606C104.007,-29.0739 112.977,-27.4553 121.797,-25.8636"/>
<polygon fill="midnightblue" stroke="midnightblue" points="122.44,-29.3043 131.659,-24.0841 121.197,-22.4156 122.44,-29.3043"/>
</g>
</g>
</svg>
