<?xml version="1.0" encoding="UTF-8" standalone="no"?>
<!DOCTYPE svg PUBLIC "-//W3C//DTD SVG 1.1//EN"
 "http://www.w3.org/Graphics/SVG/1.1/DTD/svg11.dtd">
<!-- Generated by graphviz version 2.36.0 (20140111.2315)
 -->
<!-- Title: wlp::StaticString::compare Pages: 1 -->
<svg width="236pt" height="439pt"
 viewBox="0.00 0.00 236.00 439.00" xmlns="http://www.w3.org/2000/svg" xmlns:xlink="http://www.w3.org/1999/xlink">
<g id="graph0" class="graph" transform="scale(1 1) rotate(0) translate(4 435)">
<title>wlp::StaticString::compare</title>
<polygon fill="white" stroke="none" points="-4,4 -4,-435 232,-435 232,4 -4,4"/>
<!-- Node1 -->
<g id="node1" class="node"><title>Node1</title>
<polygon fill="#bfbfbf" stroke="black" points="0.5,-193 0.5,-223 95.5,-223 95.5,-193 0.5,-193"/>
<text text-anchor="start" x="8.5" y="-211" font-family="Helvetica,sans-Serif" font-size="10.00">wlp::StaticString::</text>
<text text-anchor="middle" x="48" y="-200" font-family="Helvetica,sans-Serif" font-size="10.00">compare</text>
</g>
<!-- Node2 -->
<g id="node2" class="node"><title>Node2</title>
<g id="a_node2"><a xlink:href="../../d6/d6b/classwlp_1_1_static_string.html#a1aacac36d51e5628a4ed6bc03d684ecf" target="_top" xlink:title="wlp::StaticString::\loperator!=">
<polygon fill="white" stroke="black" points="132.5,-401 132.5,-431 227.5,-431 227.5,-401 132.5,-401"/>
<text text-anchor="start" x="140.5" y="-419" font-family="Helvetica,sans-Serif" font-size="10.00">wlp::StaticString::</text>
<text text-anchor="middle" x="180" y="-408" font-family="Helvetica,sans-Serif" font-size="10.00">operator!=</text>
</a>
</g>
</g>
<!-- Node1&#45;&gt;Node2 -->
<g id="edge1" class="edge"><title>Node1&#45;&gt;Node2</title>
<path fill="none" stroke="midnightblue" d="M54.7691,-232.918C64.7142,-271.093 88.3475,-344.505 132,-391 135.543,-394.773 139.784,-398.092 144.25,-400.975"/>
<polygon fill="midnightblue" stroke="midnightblue" points="58.1444,-231.989 52.3217,-223.137 51.3537,-233.688 58.1444,-231.989"/>
</g>
<!-- Node3 -->
<g id="node3" class="node"><title>Node3</title>
<g id="a_node3"><a xlink:href="../../d5/dca/namespacewlp.html#a560e73c3f0994d3822e5df9bc013d2c3" target="_top" xlink:title="wlp::operator!=">
<polygon fill="white" stroke="black" points="139,-362.5 139,-381.5 221,-381.5 221,-362.5 139,-362.5"/>
<text text-anchor="middle" x="180" y="-369.5" font-family="Helvetica,sans-Serif" font-size="10.00">wlp::operator!=</text>
</a>
</g>
</g>
<!-- Node1&#45;&gt;Node3 -->
<g id="edge2" class="edge"><title>Node1&#45;&gt;Node3</title>
<path fill="none" stroke="midnightblue" d="M57.6513,-232.937C69.7551,-264.52 94.5528,-318.816 132,-352 136.779,-356.235 142.587,-359.669 148.468,-362.419"/>
<polygon fill="midnightblue" stroke="midnightblue" points="60.7863,-231.323 54.0332,-223.16 54.2214,-233.753 60.7863,-231.323"/>
</g>
<!-- Node4 -->
<g id="node4" class="node"><title>Node4</title>
<g id="a_node4"><a xlink:href="../../d6/d6b/classwlp_1_1_static_string.html#a887e8b29e22c8441526c6d86bc128ca3" target="_top" xlink:title="wlp::StaticString::\loperator\&lt;">
<polygon fill="white" stroke="black" points="132.5,-313 132.5,-343 227.5,-343 227.5,-313 132.5,-313"/>
<text text-anchor="start" x="140.5" y="-331" font-family="Helvetica,sans-Serif" font-size="10.00">wlp::StaticString::</text>
<text text-anchor="middle" x="180" y="-320" font-family="Helvetica,sans-Serif" font-size="10.00">operator&lt;</text>
</a>
</g>
</g>
<!-- Node1&#45;&gt;Node4 -->
<g id="edge3" class="edge"><title>Node1&#45;&gt;Node4</title>
<path fill="none" stroke="midnightblue" d="M65.4466,-231.242C80.9106,-251.915 105.58,-282.035 132,-303 136.489,-306.562 141.56,-309.865 146.668,-312.825"/>
<polygon fill="midnightblue" stroke="midnightblue" points="68.1446,-229.002 59.4044,-223.014 62.5026,-233.146 68.1446,-229.002"/>
</g>
<!-- Node5 -->
<g id="node5" class="node"><title>Node5</title>
<g id="a_node5"><a xlink:href="../../d6/d6b/classwlp_1_1_static_string.html#a3609a63f30cd506919570060c406474e" target="_top" xlink:title="wlp::StaticString::\loperator\&lt;=">
<polygon fill="white" stroke="black" points="132.5,-264 132.5,-294 227.5,-294 227.5,-264 132.5,-264"/>
<text text-anchor="start" x="140.5" y="-282" font-family="Helvetica,sans-Serif" font-size="10.00">wlp::StaticString::</text>
<text text-anchor="middle" x="180" y="-271" font-family="Helvetica,sans-Serif" font-size="10.00">operator&lt;=</text>
</a>
</g>
</g>
<!-- Node1&#45;&gt;Node5 -->
<g id="edge4" class="edge"><title>Node1&#45;&gt;Node5</title>
<path fill="none" stroke="midnightblue" d="M84.6095,-227.911C99.258,-236.056 116.414,-245.536 132,-254 137.848,-257.175 144.124,-260.542 150.125,-263.742"/>
<polygon fill="midnightblue" stroke="midnightblue" points="86.2887,-224.84 75.8491,-223.033 82.8834,-230.956 86.2887,-224.84"/>
</g>
<!-- Node6 -->
<g id="node6" class="node"><title>Node6</title>
<g id="a_node6"><a xlink:href="../../d6/d6b/classwlp_1_1_static_string.html#a15c4937e9fd74eafe758587fadb6bb28" target="_top" xlink:title="wlp::StaticString::\loperator==">
<polygon fill="white" stroke="black" points="132.5,-215 132.5,-245 227.5,-245 227.5,-215 132.5,-215"/>
<text text-anchor="start" x="140.5" y="-233" font-family="Helvetica,sans-Serif" font-size="10.00">wlp::StaticString::</text>
<text text-anchor="middle" x="180" y="-222" font-family="Helvetica,sans-Serif" font-size="10.00">operator==</text>
</a>
</g>
</g>
<!-- Node1&#45;&gt;Node6 -->
<g id="edge5" class="edge"><title>Node1&#45;&gt;Node6</title>
<path fill="none" stroke="midnightblue" d="M105.533,-217.567C114.477,-219.081 123.637,-220.631 132.322,-222.101"/>
<polygon fill="midnightblue" stroke="midnightblue" points="106.01,-214.098 95.5658,-215.88 104.842,-221 106.01,-214.098"/>
</g>
<!-- Node7 -->
<g id="node7" class="node"><title>Node7</title>
<g id="a_node7"><a xlink:href="../../d5/dca/namespacewlp.html#ae634042f246da2e2a3d78d7e61086317" target="_top" xlink:title="wlp::operator==">
<polygon fill="white" stroke="black" points="137.5,-176.5 137.5,-195.5 222.5,-195.5 222.5,-176.5 137.5,-176.5"/>
<text text-anchor="middle" x="180" y="-183.5" font-family="Helvetica,sans-Serif" font-size="10.00">wlp::operator==</text>
</a>
</g>
</g>
<!-- Node1&#45;&gt;Node7 -->
<g id="edge6" class="edge"><title>Node1&#45;&gt;Node7</title>
<path fill="none" stroke="midnightblue" d="M105.579,-198.425C116.159,-196.635 127.042,-194.793 137.08,-193.094"/>
<polygon fill="midnightblue" stroke="midnightblue" points="104.842,-195 95.5658,-200.12 106.01,-201.902 104.842,-195"/>
</g>
<!-- Node8 -->
<g id="node8" class="node"><title>Node8</title>
<g id="a_node8"><a xlink:href="../../d6/d6b/classwlp_1_1_static_string.html#adfd0de08bafb26bd6e1f1e43970af995" target="_top" xlink:title="wlp::StaticString::\loperator\&gt;">
<polygon fill="white" stroke="black" points="132.5,-127 132.5,-157 227.5,-157 227.5,-127 132.5,-127"/>
<text text-anchor="start" x="140.5" y="-145" font-family="Helvetica,sans-Serif" font-size="10.00">wlp::StaticString::</text>
<text text-anchor="middle" x="180" y="-134" font-family="Helvetica,sans-Serif" font-size="10.00">operator&gt;</text>
</a>
</g>
</g>
<!-- Node1&#45;&gt;Node8 -->
<g id="edge7" class="edge"><title>Node1&#45;&gt;Node8</title>
<path fill="none" stroke="midnightblue" d="M87.8569,-188.273C107.553,-178.273 131.092,-166.323 149.314,-157.071"/>
<polygon fill="midnightblue" stroke="midnightblue" points="86.1569,-185.21 78.8246,-192.858 89.3257,-191.452 86.1569,-185.21"/>
</g>
<!-- Node9 -->
<g id="node9" class="node"><title>Node9</title>
<g id="a_node9"><a xlink:href="../../d5/dca/namespacewlp.html#a7b682a838df6433acd42ab83479a7272" target="_top" xlink:title="wlp::operator\&gt;">
<polygon fill="white" stroke="black" points="140.5,-88.5 140.5,-107.5 219.5,-107.5 219.5,-88.5 140.5,-88.5"/>
<text text-anchor="middle" x="180" y="-95.5" font-family="Helvetica,sans-Serif" font-size="10.00">wlp::operator&gt;</text>
</a>
</g>
</g>
<!-- Node1&#45;&gt;Node9 -->
<g id="edge8" class="edge"><title>Node1&#45;&gt;Node9</title>
<path fill="none" stroke="midnightblue" d="M66.022,-184.556C81.4224,-164.694 105.669,-136.563 132,-118 137.798,-113.912 144.562,-110.426 151.122,-107.565"/>
<polygon fill="midnightblue" stroke="midnightblue" points="63.044,-182.691 59.7881,-192.773 68.6207,-186.922 63.044,-182.691"/>
</g>
<!-- Node10 -->
<g id="node10" class="node"><title>Node10</title>
<g id="a_node10"><a xlink:href="../../d6/d6b/classwlp_1_1_static_string.html#acf40e029caccf8395811813c1035eb49" target="_top" xlink:title="wlp::StaticString::\loperator\&gt;=">
<polygon fill="white" stroke="black" points="132.5,-39 132.5,-69 227.5,-69 227.5,-39 132.5,-39"/>
<text text-anchor="start" x="140.5" y="-57" font-family="Helvetica,sans-Serif" font-size="10.00">wlp::StaticString::</text>
<text text-anchor="middle" x="180" y="-46" font-family="Helvetica,sans-Serif" font-size="10.00">operator&gt;=</text>
</a>
</g>
</g>
<!-- Node1&#45;&gt;Node10 -->
<g id="edge9" class="edge"><title>Node1&#45;&gt;Node10</title>
<path fill="none" stroke="midnightblue" d="M59.9687,-183.577C73.5706,-155.48 99.0468,-109.329 132,-79 135.944,-75.3698 140.514,-72.1013 145.223,-69.2169"/>
<polygon fill="midnightblue" stroke="midnightblue" points="56.7628,-182.169 55.6599,-192.707 63.0932,-185.157 56.7628,-182.169"/>
</g>
<!-- Node11 -->
<g id="node11" class="node"><title>Node11</title>
<g id="a_node11"><a xlink:href="../../d5/dca/namespacewlp.html#a901689b30526410f4376d2f2f30fa425" target="_top" xlink:title="wlp::operator\&gt;=">
<polygon fill="white" stroke="black" points="137.5,-0.5 137.5,-19.5 222.5,-19.5 222.5,-0.5 137.5,-0.5"/>
<text text-anchor="middle" x="180" y="-7.5" font-family="Helvetica,sans-Serif" font-size="10.00">wlp::operator&gt;=</text>
</a>
</g>
</g>
<!-- Node1&#45;&gt;Node11 -->
<g id="edge10" class="edge"><title>Node1&#45;&gt;Node11</title>
<path fill="none" stroke="midnightblue" d="M54.6062,-182.81C64.245,-144.925 87.3719,-73.1361 132,-30 136.336,-25.8092 141.684,-22.4336 147.202,-19.7359"/>
<polygon fill="midnightblue" stroke="midnightblue" points="51.0959,-182.434 52.1384,-192.977 57.8984,-184.085 51.0959,-182.434"/>
</g>
</g>
</svg>
