<?xml version="1.0" encoding="UTF-8" standalone="no"?>
<!DOCTYPE svg PUBLIC "-//W3C//DTD SVG 1.1//EN"
 "http://www.w3.org/Graphics/SVG/1.1/DTD/svg11.dtd">
<!-- Generated by graphviz version 2.36.0 (20140111.2315)
 -->
<!-- Title: wlp::StaticString::operator[] Pages: 1 -->
<svg width="528pt" height="38pt"
 viewBox="0.00 0.00 528.00 38.00" xmlns="http://www.w3.org/2000/svg" xmlns:xlink="http://www.w3.org/1999/xlink">
<g id="graph0" class="graph" transform="scale(1 1) rotate(0) translate(4 34)">
<title>wlp::StaticString::operator[]</title>
<polygon fill="white" stroke="none" points="-4,4 -4,-34 524,-34 524,4 -4,4"/>
<!-- Node1 -->
<g id="node1" class="node"><title>Node1</title>
<polygon fill="#bfbfbf" stroke="black" points="0.5,-0 0.5,-30 95.5,-30 95.5,-0 0.5,-0"/>
<text text-anchor="start" x="8.5" y="-18" font-family="Helvetica,sans-Serif" font-size="10.00">wlp::StaticString::</text>
<text text-anchor="middle" x="48" y="-7" font-family="Helvetica,sans-Serif" font-size="10.00">operator[]</text>
</g>
<!-- Node2 -->
<g id="node2" class="node"><title>Node2</title>
<g id="a_node2"><a xlink:href="../../d6/d6b/classwlp_1_1_static_string.html#a4ecac20e1440fd486f77f87de6a6d32b" target="_top" xlink:title="wlp::StaticString::at">
<polygon fill="white" stroke="black" points="132.5,-5.5 132.5,-24.5 235.5,-24.5 235.5,-5.5 132.5,-5.5"/>
<text text-anchor="middle" x="184" y="-12.5" font-family="Helvetica,sans-Serif" font-size="10.00">wlp::StaticString::at</text>
</a>
</g>
</g>
<!-- Node1&#45;&gt;Node2 -->
<g id="edge1" class="edge"><title>Node1&#45;&gt;Node2</title>
<path fill="none" stroke="midnightblue" d="M95.8667,-15C104.329,-15 113.264,-15 122.058,-15"/>
<polygon fill="midnightblue" stroke="midnightblue" points="122.281,-18.5001 132.281,-15 122.281,-11.5001 122.281,-18.5001"/>
</g>
<!-- Node3 -->
<g id="node3" class="node"><title>Node3</title>
<g id="a_node3"><a xlink:href="../../d6/d6b/classwlp_1_1_static_string.html#aad996be27886424f74f6ff489196c93a" target="_top" xlink:title="wlp::StaticString::back">
<polygon fill="white" stroke="black" points="272,-5.5 272,-24.5 388,-24.5 388,-5.5 272,-5.5"/>
<text text-anchor="middle" x="330" y="-12.5" font-family="Helvetica,sans-Serif" font-size="10.00">wlp::StaticString::back</text>
</a>
</g>
</g>
<!-- Node2&#45;&gt;Node3 -->
<g id="edge2" class="edge"><title>Node2&#45;&gt;Node3</title>
<path fill="none" stroke="midnightblue" d="M235.769,-15C244.15,-15 252.952,-15 261.663,-15"/>
<polygon fill="midnightblue" stroke="midnightblue" points="261.816,-18.5001 271.816,-15 261.816,-11.5001 261.816,-18.5001"/>
</g>
<!-- Node4 -->
<g id="node4" class="node"><title>Node4</title>
<g id="a_node4"><a xlink:href="../../d6/d6b/classwlp_1_1_static_string.html#a5b80811254e586b77c385a10bc21991f" target="_top" xlink:title="wlp::StaticString::\lempty">
<polygon fill="white" stroke="black" points="424.5,-0 424.5,-30 519.5,-30 519.5,-0 424.5,-0"/>
<text text-anchor="start" x="432.5" y="-18" font-family="Helvetica,sans-Serif" font-size="10.00">wlp::StaticString::</text>
<text text-anchor="middle" x="472" y="-7" font-family="Helvetica,sans-Serif" font-size="10.00">empty</text>
</a>
</g>
</g>
<!-- Node3&#45;&gt;Node4 -->
<g id="edge3" class="edge"><title>Node3&#45;&gt;Node4</title>
<path fill="none" stroke="midnightblue" d="M388.347,-15C396.83,-15 405.568,-15 414.043,-15"/>
<polygon fill="midnightblue" stroke="midnightblue" points="414.213,-18.5001 424.213,-15 414.213,-11.5001 414.213,-18.5001"/>
</g>
</g>
</svg>
