<?xml version="1.0" encoding="UTF-8" standalone="no"?>
<!DOCTYPE svg PUBLIC "-//W3C//DTD SVG 1.1//EN"
 "http://www.w3.org/Graphics/SVG/1.1/DTD/svg11.dtd">
<!-- Generated by graphviz version 2.38.0 (20140413.2041)
 -->
<!-- Title: wlp::StaticString::clear Pages: 1 -->
<svg width="232pt" height="39pt"
 viewBox="0.00 0.00 232.00 39.00" xmlns="http://www.w3.org/2000/svg" xmlns:xlink="http://www.w3.org/1999/xlink">
<g id="graph0" class="graph" transform="scale(1 1) rotate(0) translate(4 35)">
<title>wlp::StaticString::clear</title>
<polygon fill="white" stroke="none" points="-4,4 -4,-35 228,-35 228,4 -4,4"/>
<!-- Node64 -->
<g id="node1" class="node"><title>Node64</title>
<polygon fill="#bfbfbf" stroke="black" points="0,-0.5 0,-30.5 94,-30.5 94,-0.5 0,-0.5"/>
<text text-anchor="start" x="8" y="-18.5" font-family="Helvetica,sans-Serif" font-size="10.00">wlp::StaticString::</text>
<text text-anchor="middle" x="47" y="-7.5" font-family="Helvetica,sans-Serif" font-size="10.00">clear</text>
</g>
<!-- Node65 -->
<g id="node2" class="node"><title>Node65</title>
<g id="a_node2"><a xlink:href="../../d6/d6b/classwlp_1_1_static_string.html#a45b20d464a73cf9af1114b6b7ecb5a5d" target="_top" xlink:title="wlp::StaticString::\lStaticString">
<polygon fill="white" stroke="black" points="130,-0.5 130,-30.5 224,-30.5 224,-0.5 130,-0.5"/>
<text text-anchor="start" x="138" y="-18.5" font-family="Helvetica,sans-Serif" font-size="10.00">wlp::StaticString::</text>
<text text-anchor="middle" x="177" y="-7.5" font-family="Helvetica,sans-Serif" font-size="10.00">StaticString</text>
</a>
</g>
</g>
<!-- Node64&#45;&gt;Node65 -->
<g id="edge1" class="edge"><title>Node64&#45;&gt;Node65</title>
<path fill="none" stroke="midnightblue" d="M104.442,-15.5C112.937,-15.5 121.612,-15.5 129.857,-15.5"/>
<polygon fill="midnightblue" stroke="midnightblue" points="104.211,-12.0001 94.2109,-15.5 104.211,-19.0001 104.211,-12.0001"/>
</g>
</g>
</svg>
