<?xml version="1.0" encoding="UTF-8" standalone="no"?>
<!DOCTYPE svg PUBLIC "-//W3C//DTD SVG 1.1//EN"
 "http://www.w3.org/Graphics/SVG/1.1/DTD/svg11.dtd">
<!-- Generated by graphviz version 2.36.0 (20140111.2315)
 -->
<!-- Title: wlp::StaticString::append Pages: 1 -->
<svg width="236pt" height="87pt"
 viewBox="0.00 0.00 236.00 87.00" xmlns="http://www.w3.org/2000/svg" xmlns:xlink="http://www.w3.org/1999/xlink">
<g id="graph0" class="graph" transform="scale(1 1) rotate(0) translate(4 83)">
<title>wlp::StaticString::append</title>
<polygon fill="white" stroke="none" points="-4,4 -4,-83 232,-83 232,4 -4,4"/>
<!-- Node1 -->
<g id="node1" class="node"><title>Node1</title>
<polygon fill="#bfbfbf" stroke="black" points="0.5,-24 0.5,-54 95.5,-54 95.5,-24 0.5,-24"/>
<text text-anchor="start" x="8.5" y="-42" font-family="Helvetica,sans-Serif" font-size="10.00">wlp::StaticString::</text>
<text text-anchor="middle" x="48" y="-31" font-family="Helvetica,sans-Serif" font-size="10.00">append</text>
</g>
<!-- Node2 -->
<g id="node2" class="node"><title>Node2</title>
<g id="a_node2"><a xlink:href="../../d6/d6b/classwlp_1_1_static_string.html#a522d0120ce55d5470e1e45b60e296000" target="_top" xlink:title="wlp::StaticString::\lc_str">
<polygon fill="white" stroke="black" points="132.5,-49 132.5,-79 227.5,-79 227.5,-49 132.5,-49"/>
<text text-anchor="start" x="140.5" y="-67" font-family="Helvetica,sans-Serif" font-size="10.00">wlp::StaticString::</text>
<text text-anchor="middle" x="180" y="-56" font-family="Helvetica,sans-Serif" font-size="10.00">c_str</text>
</a>
</g>
</g>
<!-- Node1&#45;&gt;Node2 -->
<g id="edge1" class="edge"><title>Node1&#45;&gt;Node2</title>
<path fill="none" stroke="midnightblue" d="M95.5658,-47.955C104.247,-49.6244 113.406,-51.3859 122.351,-53.106"/>
<polygon fill="midnightblue" stroke="midnightblue" points="121.841,-56.572 132.322,-55.0235 123.163,-49.698 121.841,-56.572"/>
</g>
<!-- Node3 -->
<g id="node3" class="node"><title>Node3</title>
<g id="a_node3"><a xlink:href="../../d6/d6b/classwlp_1_1_static_string.html#a447b3ec22025bf5012588b8651a55fb1" target="_top" xlink:title="wlp::StaticString::\llength">
<polygon fill="white" stroke="black" points="132.5,-0 132.5,-30 227.5,-30 227.5,-0 132.5,-0"/>
<text text-anchor="start" x="140.5" y="-18" font-family="Helvetica,sans-Serif" font-size="10.00">wlp::StaticString::</text>
<text text-anchor="middle" x="180" y="-7" font-family="Helvetica,sans-Serif" font-size="10.00">length</text>
</a>
</g>
</g>
<!-- Node1&#45;&gt;Node3 -->
<g id="edge2" class="edge"><title>Node1&#45;&gt;Node3</title>
<path fill="none" stroke="midnightblue" d="M95.5658,-30.4032C104.247,-28.8006 113.406,-27.1096 122.351,-25.4582"/>
<polygon fill="midnightblue" stroke="midnightblue" points="123.124,-28.8748 132.322,-23.6174 121.853,-21.9911 123.124,-28.8748"/>
</g>
</g>
</svg>
