<?xml version="1.0" encoding="UTF-8" standalone="no"?>
<!DOCTYPE svg PUBLIC "-//W3C//DTD SVG 1.1//EN"
 "http://www.w3.org/Graphics/SVG/1.1/DTD/svg11.dtd">
<!-- Generated by graphviz version 2.36.0 (20140111.2315)
 -->
<!-- Title: wlp::StaticString::at Pages: 1 -->
<svg width="244pt" height="115pt"
 viewBox="0.00 0.00 244.00 115.00" xmlns="http://www.w3.org/2000/svg" xmlns:xlink="http://www.w3.org/1999/xlink">
<g id="graph0" class="graph" transform="scale(1 1) rotate(0) translate(4 111)">
<title>wlp::StaticString::at</title>
<polygon fill="white" stroke="none" points="-4,4 -4,-111 240,-111 240,4 -4,4"/>
<!-- Node1 -->
<g id="node1" class="node"><title>Node1</title>
<polygon fill="#bfbfbf" stroke="black" points="0.5,-49.5 0.5,-68.5 103.5,-68.5 103.5,-49.5 0.5,-49.5"/>
<text text-anchor="middle" x="52" y="-56.5" font-family="Helvetica,sans-Serif" font-size="10.00">wlp::StaticString::at</text>
</g>
<!-- Node2 -->
<g id="node2" class="node"><title>Node2</title>
<g id="a_node2"><a xlink:href="../../d5/dca/namespacewlp.html#aca6b27afe37a9bd499de3e8e49004a4b" target="_top" xlink:title="wlp::operator!=">
<polygon fill="white" stroke="black" points="147,-87.5 147,-106.5 229,-106.5 229,-87.5 147,-87.5"/>
<text text-anchor="middle" x="188" y="-94.5" font-family="Helvetica,sans-Serif" font-size="10.00">wlp::operator!=</text>
</a>
</g>
</g>
<!-- Node1&#45;&gt;Node2 -->
<g id="edge1" class="edge"><title>Node1&#45;&gt;Node2</title>
<path fill="none" stroke="midnightblue" d="M96.4383,-71.3183C114.849,-76.5393 135.98,-82.5316 153.197,-87.4141"/>
<polygon fill="midnightblue" stroke="midnightblue" points="97.3894,-67.9501 86.8139,-68.589 95.4796,-74.6845 97.3894,-67.9501"/>
</g>
<!-- Node3 -->
<g id="node3" class="node"><title>Node3</title>
<g id="a_node3"><a xlink:href="../../d5/dca/namespacewlp.html#a219cc3812d6d3410a78343376451827f" target="_top" xlink:title="wlp::operator==">
<polygon fill="white" stroke="black" points="145.5,-49.5 145.5,-68.5 230.5,-68.5 230.5,-49.5 145.5,-49.5"/>
<text text-anchor="middle" x="188" y="-56.5" font-family="Helvetica,sans-Serif" font-size="10.00">wlp::operator==</text>
</a>
</g>
</g>
<!-- Node1&#45;&gt;Node3 -->
<g id="edge2" class="edge"><title>Node1&#45;&gt;Node3</title>
<path fill="none" stroke="midnightblue" d="M113.812,-59C124.507,-59 135.414,-59 145.431,-59"/>
<polygon fill="midnightblue" stroke="midnightblue" points="113.66,-55.5001 103.66,-59 113.66,-62.5001 113.66,-55.5001"/>
</g>
<!-- Node4 -->
<g id="node4" class="node"><title>Node4</title>
<g id="a_node4"><a xlink:href="../../d6/d6b/classwlp_1_1_static_string.html#a1e60e279e886dd11e7dd7e6c9c115036" target="_top" xlink:title="wlp::StaticString::\loperator[]">
<polygon fill="white" stroke="black" points="140.5,-0 140.5,-30 235.5,-30 235.5,-0 140.5,-0"/>
<text text-anchor="start" x="148.5" y="-18" font-family="Helvetica,sans-Serif" font-size="10.00">wlp::StaticString::</text>
<text text-anchor="middle" x="188" y="-7" font-family="Helvetica,sans-Serif" font-size="10.00">operator[]</text>
</a>
</g>
</g>
<!-- Node1&#45;&gt;Node4 -->
<g id="edge3" class="edge"><title>Node1&#45;&gt;Node4</title>
<path fill="none" stroke="midnightblue" d="M91.81,-46.2564C107.224,-41.1952 125.072,-35.3347 141.119,-30.0654"/>
<polygon fill="midnightblue" stroke="midnightblue" points="90.485,-43.0076 82.076,-49.4527 92.6688,-49.6582 90.485,-43.0076"/>
</g>
</g>
</svg>
