<?xml version="1.0" encoding="UTF-8" standalone="no"?>
<!DOCTYPE svg PUBLIC "-//W3C//DTD SVG 1.1//EN"
 "http://www.w3.org/Graphics/SVG/1.1/DTD/svg11.dtd">
<!-- Generated by graphviz version 2.38.0 (20140413.2041)
 -->
<!-- Title: wlp::ChainHashSet::capacity Pages: 1 -->
<svg width="258pt" height="39pt"
 viewBox="0.00 0.00 258.00 39.00" xmlns="http://www.w3.org/2000/svg" xmlns:xlink="http://www.w3.org/1999/xlink">
<g id="graph0" class="graph" transform="scale(1 1) rotate(0) translate(4 35)">
<title>wlp::ChainHashSet::capacity</title>
<polygon fill="white" stroke="none" points="-4,4 -4,-35 254,-35 254,4 -4,4"/>
<!-- Node12 -->
<g id="node1" class="node"><title>Node12</title>
<polygon fill="#bfbfbf" stroke="black" points="0,-0.5 0,-30.5 105,-30.5 105,-0.5 0,-0.5"/>
<text text-anchor="start" x="8" y="-18.5" font-family="Helvetica,sans-Serif" font-size="10.00">wlp::ChainHashSet::</text>
<text text-anchor="middle" x="52.5" y="-7.5" font-family="Helvetica,sans-Serif" font-size="10.00">capacity</text>
</g>
<!-- Node13 -->
<g id="node2" class="node"><title>Node13</title>
<g id="a_node2"><a xlink:href="../../d9/dc5/classwlp_1_1_chain_hash_map.html#ac478bc08fe37d548b80c03c19dfdf919" target="_top" xlink:title="wlp::ChainHashMap::\lcapacity">
<polygon fill="white" stroke="black" points="141,-0.5 141,-30.5 250,-30.5 250,-0.5 141,-0.5"/>
<text text-anchor="start" x="149" y="-18.5" font-family="Helvetica,sans-Serif" font-size="10.00">wlp::ChainHashMap::</text>
<text text-anchor="middle" x="195.5" y="-7.5" font-family="Helvetica,sans-Serif" font-size="10.00">capacity</text>
</a>
</g>
</g>
<!-- Node12&#45;&gt;Node13 -->
<g id="edge1" class="edge"><title>Node12&#45;&gt;Node13</title>
<path fill="none" stroke="midnightblue" d="M105.203,-15.5C113.563,-15.5 122.304,-15.5 130.907,-15.5"/>
<polygon fill="midnightblue" stroke="midnightblue" points="130.911,-19.0001 140.911,-15.5 130.911,-12.0001 130.911,-19.0001"/>
</g>
</g>
</svg>
