<?xml version="1.0" encoding="UTF-8" standalone="no"?>
<!DOCTYPE svg PUBLIC "-//W3C//DTD SVG 1.1//EN"
 "http://www.w3.org/Graphics/SVG/1.1/DTD/svg11.dtd">
<!-- Generated by graphviz version 2.36.0 (20140111.2315)
 -->
<!-- Title: wlp::ChainHashSet::empty Pages: 1 -->
<svg width="264pt" height="38pt"
 viewBox="0.00 0.00 264.00 38.00" xmlns="http://www.w3.org/2000/svg" xmlns:xlink="http://www.w3.org/1999/xlink">
<g id="graph0" class="graph" transform="scale(1 1) rotate(0) translate(4 34)">
<title>wlp::ChainHashSet::empty</title>
<polygon fill="white" stroke="none" points="-4,4 -4,-34 260,-34 260,4 -4,4"/>
<!-- Node1 -->
<g id="node1" class="node"><title>Node1</title>
<polygon fill="#bfbfbf" stroke="black" points="0.5,-0 0.5,-30 107.5,-30 107.5,-0 0.5,-0"/>
<text text-anchor="start" x="8.5" y="-18" font-family="Helvetica,sans-Serif" font-size="10.00">wlp::ChainHashSet::</text>
<text text-anchor="middle" x="54" y="-7" font-family="Helvetica,sans-Serif" font-size="10.00">empty</text>
</g>
<!-- Node2 -->
<g id="node2" class="node"><title>Node2</title>
<g id="a_node2"><a xlink:href="../../d9/dc5/classwlp_1_1_chain_hash_map.html#af0e60d0d2bee586a9e92c7b3d5e6f50d" target="_top" xlink:title="wlp::ChainHashMap::\lempty">
<polygon fill="white" stroke="black" points="144.5,-0 144.5,-30 255.5,-30 255.5,-0 144.5,-0"/>
<text text-anchor="start" x="152.5" y="-18" font-family="Helvetica,sans-Serif" font-size="10.00">wlp::ChainHashMap::</text>
<text text-anchor="middle" x="200" y="-7" font-family="Helvetica,sans-Serif" font-size="10.00">empty</text>
</a>
</g>
</g>
<!-- Node1&#45;&gt;Node2 -->
<g id="edge1" class="edge"><title>Node1&#45;&gt;Node2</title>
<path fill="none" stroke="midnightblue" d="M107.803,-15C116.341,-15 125.268,-15 134.054,-15"/>
<polygon fill="midnightblue" stroke="midnightblue" points="134.271,-18.5001 144.271,-15 134.271,-11.5001 134.271,-18.5001"/>
</g>
</g>
</svg>
