<?xml version="1.0" encoding="UTF-8" standalone="no"?>
<!DOCTYPE svg PUBLIC "-//W3C//DTD SVG 1.1//EN"
 "http://www.w3.org/Graphics/SVG/1.1/DTD/svg11.dtd">
<!-- Generated by graphviz version 2.36.0 (20140111.2315)
 -->
<!-- Title: wlp::hash_table&lt; Element, Key, Val, GetKey, GetVal, Hasher, Equals &gt; Pages: 1 -->
<!--zoomable 208 -->
<svg id="main" version="1.1" xmlns="http://www.w3.org/2000/svg" xmlns:xlink="http://www.w3.org/1999/xlink" xml:space="preserve" onload="init(evt)">
<style type="text/css"><![CDATA[
.edge:hover path { stroke: red; }
.edge:hover polygon { stroke: red; fill: red; }
]]></style>
<script type="text/javascript"><![CDATA[
var edges = document.getElementsByTagName('g');
if (edges && edges.length) {
  for (var i=0;i<edges.length;i++) {
    if (edges[i].id.substr(0,4)=='edge') {
      edges[i].setAttribute('class','edge');
    }
  }
}
]]></script>
        <defs>
                <circle id="rim" cx="0" cy="0" r="7"/>
                <circle id="rim2" cx="0" cy="0" r="3.5"/>
                <g id="zoomPlus">
                        <use xlink:href="#rim" fill="#404040">
                                <set attributeName="fill" to="#808080" begin="zoomplus.mouseover" end="zoomplus.mouseout"/>
                        </use>
                        <path d="M-4,0h8M0,-4v8" fill="none" stroke="white" stroke-width="1.5" pointer-events="none"/>
                </g>
                <g id="zoomMin">
                        <use xlink:href="#rim" fill="#404040">
                                <set attributeName="fill" to="#808080" begin="zoomminus.mouseover" end="zoomminus.mouseout"/>
                        </use>
                        <path d="M-4,0h8" fill="none" stroke="white" stroke-width="1.5" pointer-events="none"/>
                </g>
                <g id="dirArrow">
                        <path fill="none" stroke="white" stroke-width="1.5" d="M0,-3.0v7 M-2.5,-0.5L0,-3.0L2.5,-0.5"/>
                </g>
               <g id="resetDef">
                       <use xlink:href="#rim2" fill="#404040">
                               <set attributeName="fill" to="#808080" begin="reset.mouseover" end="reset.mouseout"/>
                       </use>
               </g>
        </defs>

<script type="text/javascript">
var viewWidth = 546;
var viewHeight = 208;
var sectionId = 'dynsection-0';
</script>
<script xlink:href="../../svgpan.js"/>
<svg id="graph" class="graph">
<g id="viewport">
<title>wlp::hash_table&lt; Element, Key, Val, GetKey, GetVal, Hasher, Equals &gt;</title>
<polygon fill="white" stroke="none" points="-4,4 -4,-204 542,-204 542,4 -4,4"/>
<!-- Node1 -->
<g id="node1" class="node"><title>Node1</title>
<polygon fill="#bfbfbf" stroke="black" points="155.5,-0.5 155.5,-41.5 290.5,-41.5 290.5,-0.5 155.5,-0.5"/>
<text text-anchor="start" x="163.5" y="-29.5" font-family="Helvetica,sans-Serif" font-size="10.00">wlp::hash_table&lt; Element,</text>
<text text-anchor="start" x="163.5" y="-18.5" font-family="Helvetica,sans-Serif" font-size="10.00"> Key, Val, GetKey, GetVal,</text>
<text text-anchor="middle" x="223" y="-7.5" font-family="Helvetica,sans-Serif" font-size="10.00"> Hasher, Equals &gt;</text>
</g>
<!-- Node2 -->
<g id="node2" class="node"><title>Node2</title>
<polygon fill="white" stroke="#bfbfbf" points="-0.5,-106.5 -0.5,-125.5 42.5,-125.5 42.5,-106.5 -0.5,-106.5"/>
<text text-anchor="middle" x="21" y="-113.5" font-family="Helvetica,sans-Serif" font-size="10.00">size_t</text>
</g>
<!-- Node2&#45;&gt;Node1 -->
<g id="edge1" class="edge"><title>Node2&#45;&gt;Node1</title>
<path fill="none" stroke="#9a32cd" stroke-dasharray="5,2" d="M23.4441,-96.503C26.0214,-84.3821 31.2858,-69.1441 42,-60 59.0351,-45.4612 111.251,-35.4837 155.247,-29.4136"/>
<polygon fill="#9a32cd" stroke="#9a32cd" points="19.9711,-96.05 21.7535,-106.494 26.873,-97.218 19.9711,-96.05"/>
<text text-anchor="middle" x="69" y="-74" font-family="Helvetica,sans-Serif" font-size="10.00"> m_capacity</text>
<text text-anchor="middle" x="69" y="-63" font-family="Helvetica,sans-Serif" font-size="10.00">m_size</text>
</g>
<!-- Node3 -->
<g id="node3" class="node"><title>Node3</title>
<polygon fill="white" stroke="#bfbfbf" points="73,-106.5 73,-125.5 123,-125.5 123,-106.5 73,-106.5"/>
<text text-anchor="middle" x="98" y="-113.5" font-family="Helvetica,sans-Serif" font-size="10.00">GetKey</text>
</g>
<!-- Node3&#45;&gt;Node1 -->
<g id="edge2" class="edge"><title>Node3&#45;&gt;Node1</title>
<path fill="none" stroke="#9a32cd" stroke-dasharray="5,2" d="M97.6092,-96.3108C98.3445,-84.5602 101.203,-69.8185 110,-60 121.878,-46.7431 138.528,-38.1047 155.404,-32.4779"/>
<polygon fill="#9a32cd" stroke="#9a32cd" points="94.1082,-96.3415 97.4301,-106.402 101.107,-96.4658 94.1082,-96.3415"/>
<text text-anchor="middle" x="136" y="-68.5" font-family="Helvetica,sans-Serif" font-size="10.00"> m_get_key</text>
</g>
<!-- Node4 -->
<g id="node4" class="node"><title>Node4</title>
<polygon fill="white" stroke="#bfbfbf" points="149,-106.5 149,-125.5 197,-125.5 197,-106.5 149,-106.5"/>
<text text-anchor="middle" x="173" y="-113.5" font-family="Helvetica,sans-Serif" font-size="10.00">Hasher</text>
</g>
<!-- Node4&#45;&gt;Node1 -->
<g id="edge3" class="edge"><title>Node4&#45;&gt;Node1</title>
<path fill="none" stroke="#9a32cd" stroke-dasharray="5,2" d="M167.434,-96.3096C165.19,-85.1769 164.3,-71.1014 170,-60 173.672,-52.849 179.384,-46.7416 185.722,-41.6491"/>
<polygon fill="#9a32cd" stroke="#9a32cd" points="164.099,-97.399 169.934,-106.242 170.887,-95.6902 164.099,-97.399"/>
<text text-anchor="middle" x="209" y="-68.5" font-family="Helvetica,sans-Serif" font-size="10.00"> m_hash_function</text>
</g>
<!-- Node5 -->
<g id="node5" class="node"><title>Node5</title>
<polygon fill="white" stroke="#bfbfbf" points="247,-106.5 247,-125.5 293,-125.5 293,-106.5 247,-106.5"/>
<text text-anchor="middle" x="270" y="-113.5" font-family="Helvetica,sans-Serif" font-size="10.00">uint8_t</text>
</g>
<!-- Node5&#45;&gt;Node1 -->
<g id="edge4" class="edge"><title>Node5&#45;&gt;Node1</title>
<path fill="none" stroke="#9a32cd" stroke-dasharray="5,2" d="M265.663,-96.6725C262.66,-85.6706 258.102,-71.6049 252,-60 248.678,-53.683 244.316,-47.3217 239.986,-41.6589"/>
<polygon fill="#9a32cd" stroke="#9a32cd" points="262.292,-97.6185 268.147,-106.449 269.077,-95.8947 262.292,-97.6185"/>
<text text-anchor="middle" x="291.5" y="-68.5" font-family="Helvetica,sans-Serif" font-size="10.00"> m_max_load</text>
</g>
<!-- Node6 -->
<g id="node6" class="node"><title>Node6</title>
<g id="a_node6"><a xlink:href="../../dd/d94/structwlp_1_1_hash_table_node.html" target="_top" xlink:title="wlp::HashTableNode\l\&lt; Element \&gt;">
<polygon fill="white" stroke="black" points="311,-101 311,-131 419,-131 419,-101 311,-101"/>
<text text-anchor="start" x="319" y="-119" font-family="Helvetica,sans-Serif" font-size="10.00">wlp::HashTableNode</text>
<text text-anchor="middle" x="365" y="-108" font-family="Helvetica,sans-Serif" font-size="10.00">&lt; Element &gt;</text>
</a>
</g>
</g>
<!-- Node6&#45;&gt;Node1 -->
<g id="edge5" class="edge"><title>Node6&#45;&gt;Node1</title>
<path fill="none" stroke="#9a32cd" stroke-dasharray="5,2" d="M352.736,-92.2643C345.829,-81.2528 336.314,-68.5889 325,-60 314.765,-52.2303 302.77,-45.9071 290.673,-40.8102"/>
<polygon fill="#9a32cd" stroke="#9a32cd" points="349.801,-94.1773 357.907,-101 355.825,-90.6114 349.801,-94.1773"/>
<text text-anchor="middle" x="372" y="-68.5" font-family="Helvetica,sans-Serif" font-size="10.00"> m_buckets</text>
</g>
<!-- Node6&#45;&gt;Node6 -->
<g id="edge7" class="edge"><title>Node6&#45;&gt;Node6</title>
<path fill="none" stroke="#9a32cd" stroke-dasharray="5,2" d="M428.964,-121.666C433.934,-120.416 437,-118.527 437,-116 437,-112.055 429.529,-109.666 419.007,-108.834"/>
<polygon fill="#9a32cd" stroke="#9a32cd" points="428.374,-118.215 419.007,-123.166 429.417,-125.137 428.374,-118.215"/>
<text text-anchor="middle" x="455" y="-113.5" font-family="Helvetica,sans-Serif" font-size="10.00"> m_next</text>
</g>
<!-- Node7 -->
<g id="node7" class="node"><title>Node7</title>
<polygon fill="white" stroke="#bfbfbf" points="338.5,-180.5 338.5,-199.5 391.5,-199.5 391.5,-180.5 338.5,-180.5"/>
<text text-anchor="middle" x="365" y="-187.5" font-family="Helvetica,sans-Serif" font-size="10.00">Element</text>
</g>
<!-- Node7&#45;&gt;Node6 -->
<g id="edge6" class="edge"><title>Node7&#45;&gt;Node6</title>
<path fill="none" stroke="#9a32cd" stroke-dasharray="5,2" d="M365,-170.085C365,-157.915 365,-142.354 365,-131.232"/>
<polygon fill="#9a32cd" stroke="#9a32cd" points="361.5,-170.458 365,-180.458 368.5,-170.458 361.5,-170.458"/>
<text text-anchor="middle" x="391" y="-153.5" font-family="Helvetica,sans-Serif" font-size="10.00"> m_element</text>
</g>
<!-- Node8 -->
<g id="node8" class="node"><title>Node8</title>
<polygon fill="white" stroke="#bfbfbf" points="491.5,-106.5 491.5,-125.5 538.5,-125.5 538.5,-106.5 491.5,-106.5"/>
<text text-anchor="middle" x="515" y="-113.5" font-family="Helvetica,sans-Serif" font-size="10.00">Equals</text>
</g>
<!-- Node8&#45;&gt;Node1 -->
<g id="edge8" class="edge"><title>Node8&#45;&gt;Node1</title>
<path fill="none" stroke="#9a32cd" stroke-dasharray="5,2" d="M491.37,-101.385C468.996,-89.0097 434.137,-71.0464 402,-60 366.098,-47.6593 324.71,-38.5597 290.78,-32.3642"/>
<polygon fill="#9a32cd" stroke="#9a32cd" points="489.717,-104.47 500.15,-106.31 493.141,-98.3649 489.717,-104.47"/>
<text text-anchor="middle" x="486.5" y="-68.5" font-family="Helvetica,sans-Serif" font-size="10.00"> m_key_equals</text>
</g>
</g>
</svg>
        <g id="navigator" transform="translate(0 0)" fill="#404254">
                <rect fill="#f2f5e9" fill-opacity="0.5" stroke="#606060" stroke-width=".5" x="0" y="0" width="60" height="60"/>
                <use id="zoomplus" xlink:href="#zoomPlus" x="17" y="9" onmousedown="handleZoom(evt,'in')"/>
                <use id="zoomminus" xlink:href="#zoomMin" x="42" y="9" onmousedown="handleZoom(evt,'out')"/>
                <use id="reset" xlink:href="#resetDef" x="30" y="36" onmousedown="handleReset()"/>
                <g id="arrowUp" xlink:href="#dirArrow" transform="translate(30 24)" onmousedown="handlePan(0,-1)">
                  <use xlink:href="#rim" fill="#404040">
                        <set attributeName="fill" to="#808080" begin="arrowUp.mouseover" end="arrowUp.mouseout"/>
                  </use>
                  <path fill="none" stroke="white" stroke-width="1.5" d="M0,-3.0v7 M-2.5,-0.5L0,-3.0L2.5,-0.5"/>
                </g>
                <g id="arrowRight" xlink:href="#dirArrow" transform="rotate(90) translate(36 -43)" onmousedown="handlePan(1,0)">
                  <use xlink:href="#rim" fill="#404040">
                        <set attributeName="fill" to="#808080" begin="arrowRight.mouseover" end="arrowRight.mouseout"/>
                  </use>
                  <path fill="none" stroke="white" stroke-width="1.5" d="M0,-3.0v7 M-2.5,-0.5L0,-3.0L2.5,-0.5"/>
                </g>
                <g id="arrowDown" xlink:href="#dirArrow" transform="rotate(180) translate(-30 -48)" onmousedown="handlePan(0,1)">
                  <use xlink:href="#rim" fill="#404040">
                        <set attributeName="fill" to="#808080" begin="arrowDown.mouseover" end="arrowDown.mouseout"/>
                  </use>
                  <path fill="none" stroke="white" stroke-width="1.5" d="M0,-3.0v7 M-2.5,-0.5L0,-3.0L2.5,-0.5"/>
                </g>
                <g id="arrowLeft" xlink:href="#dirArrow" transform="rotate(270) translate(-36 17)" onmousedown="handlePan(-1,0)">
                  <use xlink:href="#rim" fill="#404040">
                        <set attributeName="fill" to="#808080" begin="arrowLeft.mouseover" end="arrowLeft.mouseout"/>
                  </use>
                  <path fill="none" stroke="white" stroke-width="1.5" d="M0,-3.0v7 M-2.5,-0.5L0,-3.0L2.5,-0.5"/>
                </g>
        </g>
        <svg viewBox="0 0 15 15" width="100%" height="30px" preserveAspectRatio="xMaxYMin meet">
         <g id="arrow_out" transform="scale(0.3 0.3)">
          <a xlink:href="classwlp_1_1hash__table__coll__graph_org.svg" target="_base">
           <rect id="button" ry="5" rx="5" y="6" x="6" height="38" width="38"
                fill="#f2f5e9" fill-opacity="0.5" stroke="#606060" stroke-width="1.0"/>
           <path id="arrow"
             d="M 11.500037,31.436501 C 11.940474,20.09759 22.043105,11.32322 32.158766,21.979434 L 37.068811,17.246167 C 37.068811,17.246167 37.088388,32 37.088388,32 L 22.160133,31.978069 C 22.160133,31.978069 26.997745,27.140456 26.997745,27.140456 C 18.528582,18.264221 13.291696,25.230495 11.500037,31.436501 z"
             style="fill:#404040;"/>
          </a>
         </g>
        </svg>
</svg>
