<?xml version="1.0" encoding="UTF-8" standalone="no"?>
<!DOCTYPE svg PUBLIC "-//W3C//DTD SVG 1.1//EN"
 "http://www.w3.org/Graphics/SVG/1.1/DTD/svg11.dtd">
<!-- Generated by graphviz version 2.36.0 (20140111.2315)
 -->
<!-- Title: wlp::hash_table&lt; Element, Key, Val, GetKey, GetVal, Hasher, Equals &gt; Pages: 1 -->
<svg width="550pt" height="208pt"
 viewBox="0.00 0.00 550.00 208.00" xmlns="http://www.w3.org/2000/svg" xmlns:xlink="http://www.w3.org/1999/xlink">
<g id="graph0" class="graph" transform="scale(1 1) rotate(0) translate(4 204)">
<title>wlp::hash_table&lt; Element, Key, Val, GetKey, GetVal, Hasher, Equals &gt;</title>
<polygon fill="white" stroke="none" points="-4,4 -4,-204 546,-204 546,4 -4,4"/>
<!-- Node1 -->
<g id="node1" class="node"><title>Node1</title>
<polygon fill="#bfbfbf" stroke="black" points="159.5,-0.5 159.5,-41.5 294.5,-41.5 294.5,-0.5 159.5,-0.5"/>
<text text-anchor="start" x="167.5" y="-29.5" font-family="Helvetica,sans-Serif" font-size="10.00">wlp::hash_table&lt; Element,</text>
<text text-anchor="start" x="167.5" y="-18.5" font-family="Helvetica,sans-Serif" font-size="10.00"> Key, Val, GetKey, GetVal,</text>
<text text-anchor="middle" x="227" y="-7.5" font-family="Helvetica,sans-Serif" font-size="10.00"> Hasher, Equals &gt;</text>
</g>
<!-- Node2 -->
<g id="node2" class="node"><title>Node2</title>
<polygon fill="white" stroke="#bfbfbf" points="-0.5,-106.5 -0.5,-125.5 50.5,-125.5 50.5,-106.5 -0.5,-106.5"/>
<text text-anchor="middle" x="25" y="-113.5" font-family="Helvetica,sans-Serif" font-size="10.00">uint16_t</text>
</g>
<!-- Node2&#45;&gt;Node1 -->
<g id="edge1" class="edge"><title>Node2&#45;&gt;Node1</title>
<path fill="none" stroke="#9a32cd" stroke-dasharray="5,2" d="M27.4441,-96.503C30.0214,-84.3821 35.2858,-69.1441 46,-60 63.0351,-45.4612 115.251,-35.4837 159.247,-29.4136"/>
<polygon fill="#9a32cd" stroke="#9a32cd" points="23.9711,-96.05 25.7535,-106.494 30.873,-97.218 23.9711,-96.05"/>
<text text-anchor="middle" x="73" y="-74" font-family="Helvetica,sans-Serif" font-size="10.00"> m_capacity</text>
<text text-anchor="middle" x="73" y="-63" font-family="Helvetica,sans-Serif" font-size="10.00">m_size</text>
</g>
<!-- Node3 -->
<g id="node3" class="node"><title>Node3</title>
<polygon fill="white" stroke="#bfbfbf" points="77,-106.5 77,-125.5 127,-125.5 127,-106.5 77,-106.5"/>
<text text-anchor="middle" x="102" y="-113.5" font-family="Helvetica,sans-Serif" font-size="10.00">GetKey</text>
</g>
<!-- Node3&#45;&gt;Node1 -->
<g id="edge2" class="edge"><title>Node3&#45;&gt;Node1</title>
<path fill="none" stroke="#9a32cd" stroke-dasharray="5,2" d="M101.609,-96.3108C102.344,-84.5602 105.203,-69.8185 114,-60 125.878,-46.7431 142.528,-38.1047 159.404,-32.4779"/>
<polygon fill="#9a32cd" stroke="#9a32cd" points="98.1082,-96.3415 101.43,-106.402 105.107,-96.4658 98.1082,-96.3415"/>
<text text-anchor="middle" x="140" y="-68.5" font-family="Helvetica,sans-Serif" font-size="10.00"> m_get_key</text>
</g>
<!-- Node4 -->
<g id="node4" class="node"><title>Node4</title>
<polygon fill="white" stroke="#bfbfbf" points="153,-106.5 153,-125.5 201,-125.5 201,-106.5 153,-106.5"/>
<text text-anchor="middle" x="177" y="-113.5" font-family="Helvetica,sans-Serif" font-size="10.00">Hasher</text>
</g>
<!-- Node4&#45;&gt;Node1 -->
<g id="edge3" class="edge"><title>Node4&#45;&gt;Node1</title>
<path fill="none" stroke="#9a32cd" stroke-dasharray="5,2" d="M171.434,-96.3096C169.19,-85.1769 168.3,-71.1014 174,-60 177.672,-52.849 183.384,-46.7416 189.722,-41.6491"/>
<polygon fill="#9a32cd" stroke="#9a32cd" points="168.099,-97.399 173.934,-106.242 174.887,-95.6902 168.099,-97.399"/>
<text text-anchor="middle" x="213" y="-68.5" font-family="Helvetica,sans-Serif" font-size="10.00"> m_hash_function</text>
</g>
<!-- Node5 -->
<g id="node5" class="node"><title>Node5</title>
<polygon fill="white" stroke="#bfbfbf" points="251,-106.5 251,-125.5 297,-125.5 297,-106.5 251,-106.5"/>
<text text-anchor="middle" x="274" y="-113.5" font-family="Helvetica,sans-Serif" font-size="10.00">uint8_t</text>
</g>
<!-- Node5&#45;&gt;Node1 -->
<g id="edge4" class="edge"><title>Node5&#45;&gt;Node1</title>
<path fill="none" stroke="#9a32cd" stroke-dasharray="5,2" d="M269.663,-96.6725C266.66,-85.6706 262.102,-71.6049 256,-60 252.678,-53.683 248.316,-47.3217 243.986,-41.6589"/>
<polygon fill="#9a32cd" stroke="#9a32cd" points="266.292,-97.6185 272.147,-106.449 273.077,-95.8947 266.292,-97.6185"/>
<text text-anchor="middle" x="295.5" y="-68.5" font-family="Helvetica,sans-Serif" font-size="10.00"> m_max_load</text>
</g>
<!-- Node6 -->
<g id="node6" class="node"><title>Node6</title>
<g id="a_node6"><a xlink:href="../../dd/d94/structwlp_1_1_hash_table_node.html" target="_top" xlink:title="wlp::HashTableNode\l\&lt; Element \&gt;">
<polygon fill="white" stroke="black" points="315,-101 315,-131 423,-131 423,-101 315,-101"/>
<text text-anchor="start" x="323" y="-119" font-family="Helvetica,sans-Serif" font-size="10.00">wlp::HashTableNode</text>
<text text-anchor="middle" x="369" y="-108" font-family="Helvetica,sans-Serif" font-size="10.00">&lt; Element &gt;</text>
</a>
</g>
</g>
<!-- Node6&#45;&gt;Node1 -->
<g id="edge5" class="edge"><title>Node6&#45;&gt;Node1</title>
<path fill="none" stroke="#9a32cd" stroke-dasharray="5,2" d="M356.736,-92.2643C349.829,-81.2528 340.314,-68.5889 329,-60 318.765,-52.2303 306.77,-45.9071 294.673,-40.8102"/>
<polygon fill="#9a32cd" stroke="#9a32cd" points="353.801,-94.1773 361.907,-101 359.825,-90.6114 353.801,-94.1773"/>
<text text-anchor="middle" x="376" y="-68.5" font-family="Helvetica,sans-Serif" font-size="10.00"> m_buckets</text>
</g>
<!-- Node6&#45;&gt;Node6 -->
<g id="edge7" class="edge"><title>Node6&#45;&gt;Node6</title>
<path fill="none" stroke="#9a32cd" stroke-dasharray="5,2" d="M432.964,-121.666C437.934,-120.416 441,-118.527 441,-116 441,-112.055 433.529,-109.666 423.007,-108.834"/>
<polygon fill="#9a32cd" stroke="#9a32cd" points="432.374,-118.215 423.007,-123.166 433.417,-125.137 432.374,-118.215"/>
<text text-anchor="middle" x="459" y="-113.5" font-family="Helvetica,sans-Serif" font-size="10.00"> m_next</text>
</g>
<!-- Node7 -->
<g id="node7" class="node"><title>Node7</title>
<polygon fill="white" stroke="#bfbfbf" points="342.5,-180.5 342.5,-199.5 395.5,-199.5 395.5,-180.5 342.5,-180.5"/>
<text text-anchor="middle" x="369" y="-187.5" font-family="Helvetica,sans-Serif" font-size="10.00">Element</text>
</g>
<!-- Node7&#45;&gt;Node6 -->
<g id="edge6" class="edge"><title>Node7&#45;&gt;Node6</title>
<path fill="none" stroke="#9a32cd" stroke-dasharray="5,2" d="M369,-170.085C369,-157.915 369,-142.354 369,-131.232"/>
<polygon fill="#9a32cd" stroke="#9a32cd" points="365.5,-170.458 369,-180.458 372.5,-170.458 365.5,-170.458"/>
<text text-anchor="middle" x="395" y="-153.5" font-family="Helvetica,sans-Serif" font-size="10.00"> m_element</text>
</g>
<!-- Node8 -->
<g id="node8" class="node"><title>Node8</title>
<polygon fill="white" stroke="#bfbfbf" points="495.5,-106.5 495.5,-125.5 542.5,-125.5 542.5,-106.5 495.5,-106.5"/>
<text text-anchor="middle" x="519" y="-113.5" font-family="Helvetica,sans-Serif" font-size="10.00">Equals</text>
</g>
<!-- Node8&#45;&gt;Node1 -->
<g id="edge8" class="edge"><title>Node8&#45;&gt;Node1</title>
<path fill="none" stroke="#9a32cd" stroke-dasharray="5,2" d="M495.37,-101.385C472.996,-89.0097 438.137,-71.0464 406,-60 370.098,-47.6593 328.71,-38.5597 294.78,-32.3642"/>
<polygon fill="#9a32cd" stroke="#9a32cd" points="493.717,-104.47 504.15,-106.31 497.141,-98.3649 493.717,-104.47"/>
<text text-anchor="middle" x="490.5" y="-68.5" font-family="Helvetica,sans-Serif" font-size="10.00"> m_key_equals</text>
</g>
</g>
</svg>
