<?xml version="1.0" encoding="UTF-8" standalone="no"?>
<!DOCTYPE svg PUBLIC "-//W3C//DTD SVG 1.1//EN"
 "http://www.w3.org/Graphics/SVG/1.1/DTD/svg11.dtd">
<!-- Generated by graphviz version 2.36.0 (20140111.2315)
 -->
<!-- Title: wlib/stl/HashSet.h Pages: 1 -->
<svg width="843pt" height="588pt"
 viewBox="0.00 0.00 842.84 588.00" xmlns="http://www.w3.org/2000/svg" xmlns:xlink="http://www.w3.org/1999/xlink">
<g id="graph0" class="graph" transform="scale(1 1) rotate(0) translate(4 584)">
<title>wlib/stl/HashSet.h</title>
<polygon fill="white" stroke="none" points="-4,4 -4,-584 838.839,-584 838.839,4 -4,4"/>
<!-- Node1 -->
<g id="node1" class="node"><title>Node1</title>
<polygon fill="#bfbfbf" stroke="black" points="255.339,-560.5 255.339,-579.5 352.339,-579.5 352.339,-560.5 255.339,-560.5"/>
<text text-anchor="middle" x="303.839" y="-567.5" font-family="Helvetica,sans-Serif" font-size="10.00">wlib/stl/HashSet.h</text>
</g>
<!-- Node2 -->
<g id="node2" class="node"><title>Node2</title>
<g id="a_node2"><a xlink:href="../../d2/dc2/_equal_8h.html" target="_top" xlink:title="Equal.h">
<polygon fill="white" stroke="black" points="324.839,-448.5 324.839,-467.5 374.839,-467.5 374.839,-448.5 324.839,-448.5"/>
<text text-anchor="middle" x="349.839" y="-455.5" font-family="Helvetica,sans-Serif" font-size="10.00">Equal.h</text>
</a>
</g>
</g>
<!-- Node1&#45;&gt;Node2 -->
<g id="edge1" class="edge"><title>Node1&#45;&gt;Node2</title>
<path fill="none" stroke="midnightblue" d="M307.448,-560.368C314.939,-542.456 332.307,-500.923 342.333,-476.948"/>
<polygon fill="midnightblue" stroke="midnightblue" points="345.617,-478.168 346.246,-467.591 339.159,-475.467 345.617,-478.168"/>
</g>
<!-- Node17 -->
<g id="node17" class="node"><title>Node17</title>
<g id="a_node17"><a xlink:href="../../d2/dad/_hash_8h.html" target="_top" xlink:title="Hash.h">
<polygon fill="white" stroke="black" points="566.839,-448.5 566.839,-467.5 614.839,-467.5 614.839,-448.5 566.839,-448.5"/>
<text text-anchor="middle" x="590.839" y="-455.5" font-family="Helvetica,sans-Serif" font-size="10.00">Hash.h</text>
</a>
</g>
</g>
<!-- Node1&#45;&gt;Node17 -->
<g id="edge26" class="edge"><title>Node1&#45;&gt;Node17</title>
<path fill="none" stroke="midnightblue" d="M326.359,-560.368C377.075,-540.93 500.37,-493.674 558.935,-471.228"/>
<polygon fill="midnightblue" stroke="midnightblue" points="560.338,-474.439 568.423,-467.591 557.833,-467.902 560.338,-474.439"/>
</g>
<!-- Node19 -->
<g id="node19" class="node"><title>Node19</title>
<g id="a_node19"><a xlink:href="../../de/def/_hash_table_8h.html" target="_top" xlink:title="HashTable.h">
<polygon fill="white" stroke="black" points="229.839,-504.5 229.839,-523.5 301.839,-523.5 301.839,-504.5 229.839,-504.5"/>
<text text-anchor="middle" x="265.839" y="-511.5" font-family="Helvetica,sans-Serif" font-size="10.00">HashTable.h</text>
</a>
</g>
</g>
<!-- Node1&#45;&gt;Node19 -->
<g id="edge31" class="edge"><title>Node1&#45;&gt;Node19</title>
<path fill="none" stroke="midnightblue" d="M297.564,-560.083C292.196,-552.455 284.321,-541.264 277.76,-531.941"/>
<polygon fill="midnightblue" stroke="midnightblue" points="280.614,-529.915 271.997,-523.751 274.889,-533.943 280.614,-529.915"/>
</g>
<!-- Node22 -->
<g id="node22" class="node"><title>Node22</title>
<g id="a_node22"><a xlink:href="../../d9/d37/_table_8h.html" target="_top" xlink:title="Table.h">
<polygon fill="white" stroke="black" points="105.339,-336.5 105.339,-355.5 154.339,-355.5 154.339,-336.5 105.339,-336.5"/>
<text text-anchor="middle" x="129.839" y="-343.5" font-family="Helvetica,sans-Serif" font-size="10.00">Table.h</text>
</a>
</g>
</g>
<!-- Node1&#45;&gt;Node22 -->
<g id="edge41" class="edge"><title>Node1&#45;&gt;Node22</title>
<path fill="none" stroke="midnightblue" d="M255.211,-567.742C189.217,-563.098 73.3968,-543.891 19.8386,-468 -10.3069,-425.284 59.8404,-381.41 101.588,-360.148"/>
<polygon fill="midnightblue" stroke="midnightblue" points="103.358,-363.177 110.765,-355.602 100.251,-356.904 103.358,-363.177"/>
</g>
<!-- Node3 -->
<g id="node3" class="node"><title>Node3</title>
<polygon fill="white" stroke="#bfbfbf" points="287.339,-280.5 287.339,-299.5 336.339,-299.5 336.339,-280.5 287.339,-280.5"/>
<text text-anchor="middle" x="311.839" y="-287.5" font-family="Helvetica,sans-Serif" font-size="10.00">string.h</text>
</g>
<!-- Node2&#45;&gt;Node3 -->
<g id="edge2" class="edge"><title>Node2&#45;&gt;Node3</title>
<path fill="none" stroke="midnightblue" d="M347.796,-448.075C341.814,-421.945 324.248,-345.211 316.091,-309.577"/>
<polygon fill="midnightblue" stroke="midnightblue" points="319.443,-308.535 313.8,-299.568 312.62,-310.097 319.443,-308.535"/>
</g>
<!-- Node4 -->
<g id="node4" class="node"><title>Node4</title>
<g id="a_node4"><a xlink:href="../../d0/db6/_types_8h.html" target="_top" xlink:title="type definition of all the string types we will be using ">
<polygon fill="white" stroke="black" points="467.839,-56.5 467.839,-75.5 539.839,-75.5 539.839,-56.5 467.839,-56.5"/>
<text text-anchor="middle" x="503.839" y="-63.5" font-family="Helvetica,sans-Serif" font-size="10.00">wlib/Types.h</text>
</a>
</g>
</g>
<!-- Node2&#45;&gt;Node4 -->
<g id="edge3" class="edge"><title>Node2&#45;&gt;Node4</title>
<path fill="none" stroke="midnightblue" d="M324.838,-454.293C274.075,-447.45 158.443,-424.79 95.8386,-356 75.5806,-333.74 76.8386,-321.098 76.8386,-291 76.8386,-291 76.8386,-291 76.8386,-177 76.8386,-99.0393 347.137,-75.5015 457.622,-69.1367"/>
<polygon fill="midnightblue" stroke="midnightblue" points="458.01,-72.6207 467.801,-68.5731 457.623,-65.6314 458.01,-72.6207"/>
</g>
<!-- Node6 -->
<g id="node6" class="node"><title>Node6</title>
<g id="a_node6"><a xlink:href="../../db/db5/_string_8h.html" target="_top" xlink:title="wlib/strings/String.h">
<polygon fill="white" stroke="black" points="499.339,-392.5 499.339,-411.5 602.339,-411.5 602.339,-392.5 499.339,-392.5"/>
<text text-anchor="middle" x="550.839" y="-399.5" font-family="Helvetica,sans-Serif" font-size="10.00">wlib/strings/String.h</text>
</a>
</g>
</g>
<!-- Node2&#45;&gt;Node6 -->
<g id="edge5" class="edge"><title>Node2&#45;&gt;Node6</title>
<path fill="none" stroke="midnightblue" d="M374.889,-450.27C408.553,-441.226 468.835,-425.031 509.333,-414.151"/>
<polygon fill="midnightblue" stroke="midnightblue" points="510.425,-417.482 519.174,-411.507 508.608,-410.721 510.425,-417.482"/>
</g>
<!-- Node5 -->
<g id="node5" class="node"><title>Node5</title>
<polygon fill="white" stroke="#bfbfbf" points="479.339,-0.5 479.339,-19.5 528.339,-19.5 528.339,-0.5 479.339,-0.5"/>
<text text-anchor="middle" x="503.839" y="-7.5" font-family="Helvetica,sans-Serif" font-size="10.00">stdint.h</text>
</g>
<!-- Node4&#45;&gt;Node5 -->
<g id="edge4" class="edge"><title>Node4&#45;&gt;Node5</title>
<path fill="none" stroke="midnightblue" d="M503.839,-56.083C503.839,-49.0059 503.839,-38.8611 503.839,-29.9865"/>
<polygon fill="midnightblue" stroke="midnightblue" points="507.339,-29.751 503.839,-19.7511 500.339,-29.7511 507.339,-29.751"/>
</g>
<!-- Node6&#45;&gt;Node3 -->
<g id="edge6" class="edge"><title>Node6&#45;&gt;Node3</title>
<path fill="none" stroke="midnightblue" d="M524.187,-392.489C499.148,-384.186 460.847,-370.689 428.839,-356 394.871,-340.412 357.401,-318.753 334.239,-304.805"/>
<polygon fill="midnightblue" stroke="midnightblue" points="335.89,-301.714 325.526,-299.515 332.257,-307.697 335.89,-301.714"/>
</g>
<!-- Node6&#45;&gt;Node4 -->
<g id="edge18" class="edge"><title>Node6&#45;&gt;Node4</title>
<path fill="none" stroke="midnightblue" d="M599.801,-392.421C622.574,-386.024 648.233,-374.974 664.839,-356 701.328,-314.307 694.839,-290.406 694.839,-235 694.839,-235 694.839,-235 694.839,-177 694.839,-110.536 606.916,-83.6244 550.377,-73.1896"/>
<polygon fill="midnightblue" stroke="midnightblue" points="550.665,-69.6873 540.214,-71.4272 549.469,-76.5844 550.665,-69.6873"/>
</g>
<!-- Node7 -->
<g id="node7" class="node"><title>Node7</title>
<g id="a_node7"><a xlink:href="../../de/d0b/_string_iterator_8h.html" target="_top" xlink:title="StringIterator.h">
<polygon fill="white" stroke="black" points="575.339,-336.5 575.339,-355.5 656.339,-355.5 656.339,-336.5 575.339,-336.5"/>
<text text-anchor="middle" x="615.839" y="-343.5" font-family="Helvetica,sans-Serif" font-size="10.00">StringIterator.h</text>
</a>
</g>
</g>
<!-- Node6&#45;&gt;Node7 -->
<g id="edge7" class="edge"><title>Node6&#45;&gt;Node7</title>
<path fill="none" stroke="midnightblue" d="M561.282,-392.324C570.985,-384.263 585.654,-372.077 597.338,-362.369"/>
<polygon fill="midnightblue" stroke="midnightblue" points="599.75,-364.916 605.205,-355.834 595.277,-359.532 599.75,-364.916"/>
</g>
<!-- Node14 -->
<g id="node14" class="node"><title>Node14</title>
<g id="a_node14"><a xlink:href="../../da/db8/_math_8h.html" target="_top" xlink:title="wlib/utility/Math.h">
<polygon fill="white" stroke="black" points="713.339,-336.5 713.339,-355.5 806.339,-355.5 806.339,-336.5 713.339,-336.5"/>
<text text-anchor="middle" x="759.839" y="-343.5" font-family="Helvetica,sans-Serif" font-size="10.00">wlib/utility/Math.h</text>
</a>
</g>
</g>
<!-- Node6&#45;&gt;Node14 -->
<g id="edge19" class="edge"><title>Node6&#45;&gt;Node14</title>
<path fill="none" stroke="midnightblue" d="M583.955,-392.444C619.956,-383.142 677.609,-368.246 717.024,-358.062"/>
<polygon fill="midnightblue" stroke="midnightblue" points="718.07,-361.407 726.877,-355.516 716.319,-354.629 718.07,-361.407"/>
</g>
<!-- Node15 -->
<g id="node15" class="node"><title>Node15</title>
<g id="a_node15"><a xlink:href="../../d3/de6/_memory_8h.html" target="_top" xlink:title="Memory is a class that provides dynamic fixed size memory. ">
<polygon fill="white" stroke="black" points="438.339,-336.5 438.339,-355.5 557.339,-355.5 557.339,-336.5 438.339,-336.5"/>
<text text-anchor="middle" x="497.839" y="-343.5" font-family="Helvetica,sans-Serif" font-size="10.00">wlib/memory/Memory.h</text>
</a>
</g>
</g>
<!-- Node6&#45;&gt;Node15 -->
<g id="edge20" class="edge"><title>Node6&#45;&gt;Node15</title>
<path fill="none" stroke="midnightblue" d="M542.087,-392.083C534.369,-384.22 522.934,-372.569 513.622,-363.081"/>
<polygon fill="midnightblue" stroke="midnightblue" points="515.93,-360.436 506.428,-355.751 510.934,-365.34 515.93,-360.436"/>
</g>
<!-- Node7&#45;&gt;Node4 -->
<g id="edge8" class="edge"><title>Node7&#45;&gt;Node4</title>
<path fill="none" stroke="midnightblue" d="M621.539,-336.288C632.805,-318.205 656.839,-274.946 656.839,-235 656.839,-235 656.839,-235 656.839,-177 656.839,-123.205 593.714,-93.1341 548.558,-78.5046"/>
<polygon fill="midnightblue" stroke="midnightblue" points="549.528,-75.1411 538.94,-75.5304 547.459,-81.8286 549.528,-75.1411"/>
</g>
<!-- Node8 -->
<g id="node8" class="node"><title>Node8</title>
<g id="a_node8"><a xlink:href="../../d8/dd7/_concept_8h.html" target="_top" xlink:title="Concept definitions. ">
<polygon fill="white" stroke="black" points="393.339,-280.5 393.339,-299.5 488.339,-299.5 488.339,-280.5 393.339,-280.5"/>
<text text-anchor="middle" x="440.839" y="-287.5" font-family="Helvetica,sans-Serif" font-size="10.00">wlib/stl/Concept.h</text>
</a>
</g>
</g>
<!-- Node7&#45;&gt;Node8 -->
<g id="edge9" class="edge"><title>Node7&#45;&gt;Node8</title>
<path fill="none" stroke="midnightblue" d="M588.109,-336.444C558.413,-327.28 511.122,-312.688 478.169,-302.519"/>
<polygon fill="midnightblue" stroke="midnightblue" points="479.026,-299.121 468.438,-299.516 476.962,-305.809 479.026,-299.121"/>
</g>
<!-- Node9 -->
<g id="node9" class="node"><title>Node9</title>
<g id="a_node9"><a xlink:href="../../d4/dda/_pair_8h.html" target="_top" xlink:title="Implementation of a 2&#45;element tuple. ">
<polygon fill="white" stroke="black" points="248.839,-224.5 248.839,-243.5 290.839,-243.5 290.839,-224.5 248.839,-224.5"/>
<text text-anchor="middle" x="269.839" y="-231.5" font-family="Helvetica,sans-Serif" font-size="10.00">Pair.h</text>
</a>
</g>
</g>
<!-- Node8&#45;&gt;Node9 -->
<g id="edge10" class="edge"><title>Node8&#45;&gt;Node9</title>
<path fill="none" stroke="midnightblue" d="M413.743,-280.444C382.981,-270.729 332.898,-254.913 300.667,-244.735"/>
<polygon fill="midnightblue" stroke="midnightblue" points="301.467,-241.318 290.877,-241.644 299.359,-247.993 301.467,-241.318"/>
</g>
<!-- Node11 -->
<g id="node11" class="node"><title>Node11</title>
<g id="a_node11"><a xlink:href="../../d2/d37/_tmp_8h.html" target="_top" xlink:title="Template helper types, structs, and metafunctions. ">
<polygon fill="white" stroke="black" points="366.839,-112.5 366.839,-131.5 410.839,-131.5 410.839,-112.5 366.839,-112.5"/>
<text text-anchor="middle" x="388.839" y="-119.5" font-family="Helvetica,sans-Serif" font-size="10.00">Tmp.h</text>
</a>
</g>
</g>
<!-- Node8&#45;&gt;Node11 -->
<g id="edge17" class="edge"><title>Node8&#45;&gt;Node11</title>
<path fill="none" stroke="midnightblue" d="M438.255,-280.126C434.567,-267.571 427.5,-243.933 420.839,-224 415.447,-207.866 413.116,-204.172 407.839,-188 402.766,-172.457 397.598,-154.62 393.935,-141.568"/>
<polygon fill="midnightblue" stroke="midnightblue" points="397.294,-140.584 391.247,-131.885 390.549,-142.457 397.294,-140.584"/>
</g>
<!-- Node12 -->
<g id="node12" class="node"><title>Node12</title>
<g id="a_node12"><a xlink:href="../../d4/dd5/_type_traits_8h.html" target="_top" xlink:title="Metafunctions for types. ">
<polygon fill="white" stroke="black" points="417.339,-168.5 417.339,-187.5 488.339,-187.5 488.339,-168.5 417.339,-168.5"/>
<text text-anchor="middle" x="452.839" y="-175.5" font-family="Helvetica,sans-Serif" font-size="10.00">TypeTraits.h</text>
</a>
</g>
</g>
<!-- Node8&#45;&gt;Node12 -->
<g id="edge14" class="edge"><title>Node8&#45;&gt;Node12</title>
<path fill="none" stroke="midnightblue" d="M444.439,-280.222C447.895,-271.285 452.872,-256.942 454.839,-244 457.174,-228.633 456.419,-210.996 455.222,-197.974"/>
<polygon fill="midnightblue" stroke="midnightblue" points="458.686,-197.454 454.123,-187.892 451.728,-198.213 458.686,-197.454"/>
</g>
<!-- Node13 -->
<g id="node13" class="node"><title>Node13</title>
<g id="a_node13"><a xlink:href="../../d2/db4/_wlib_8h.html" target="_top" xlink:title="wlib/Wlib.h">
<polygon fill="white" stroke="black" points="347.339,-224.5 347.339,-243.5 412.339,-243.5 412.339,-224.5 347.339,-224.5"/>
<text text-anchor="middle" x="379.839" y="-231.5" font-family="Helvetica,sans-Serif" font-size="10.00">wlib/Wlib.h</text>
</a>
</g>
</g>
<!-- Node8&#45;&gt;Node13 -->
<g id="edge16" class="edge"><title>Node8&#45;&gt;Node13</title>
<path fill="none" stroke="midnightblue" d="M431.038,-280.324C422.021,-272.341 408.433,-260.313 397.521,-250.653"/>
<polygon fill="midnightblue" stroke="midnightblue" points="399.625,-247.842 389.818,-243.834 394.985,-253.083 399.625,-247.842"/>
</g>
<!-- Node10 -->
<g id="node10" class="node"><title>Node10</title>
<g id="a_node10"><a xlink:href="../../db/d2a/_utility_8h.html" target="_top" xlink:title="Various helper functions. ">
<polygon fill="white" stroke="black" points="242.339,-168.5 242.339,-187.5 339.339,-187.5 339.339,-168.5 242.339,-168.5"/>
<text text-anchor="middle" x="290.839" y="-175.5" font-family="Helvetica,sans-Serif" font-size="10.00">wlib/utility/Utility.h</text>
</a>
</g>
</g>
<!-- Node9&#45;&gt;Node10 -->
<g id="edge11" class="edge"><title>Node9&#45;&gt;Node10</title>
<path fill="none" stroke="midnightblue" d="M273.306,-224.083C276.15,-216.77 280.268,-206.181 283.798,-197.103"/>
<polygon fill="midnightblue" stroke="midnightblue" points="287.073,-198.34 287.435,-187.751 280.549,-195.803 287.073,-198.34"/>
</g>
<!-- Node10&#45;&gt;Node11 -->
<g id="edge12" class="edge"><title>Node10&#45;&gt;Node11</title>
<path fill="none" stroke="midnightblue" d="M306.584,-168.324C322.157,-159.743 346.216,-146.486 364.298,-136.522"/>
<polygon fill="midnightblue" stroke="midnightblue" points="366.063,-139.546 373.132,-131.655 362.685,-133.415 366.063,-139.546"/>
</g>
<!-- Node11&#45;&gt;Node4 -->
<g id="edge13" class="edge"><title>Node11&#45;&gt;Node4</title>
<path fill="none" stroke="midnightblue" d="M407.061,-112.444C425.734,-103.675 454.995,-89.9355 476.456,-79.8579"/>
<polygon fill="midnightblue" stroke="midnightblue" points="478.138,-82.935 485.702,-75.5164 475.162,-76.5988 478.138,-82.935"/>
</g>
<!-- Node12&#45;&gt;Node11 -->
<g id="edge15" class="edge"><title>Node12&#45;&gt;Node11</title>
<path fill="none" stroke="midnightblue" d="M442.556,-168.324C433.002,-160.263 418.559,-148.077 407.054,-138.369"/>
<polygon fill="midnightblue" stroke="midnightblue" points="409.208,-135.608 399.308,-131.834 404.694,-140.958 409.208,-135.608"/>
</g>
<!-- Node15&#45;&gt;Node3 -->
<g id="edge21" class="edge"><title>Node15&#45;&gt;Node3</title>
<path fill="none" stroke="midnightblue" d="M468.366,-336.444C435.176,-326.808 381.306,-311.168 346.223,-300.983"/>
<polygon fill="midnightblue" stroke="midnightblue" points="347,-297.564 336.421,-298.137 345.049,-304.286 347,-297.564"/>
</g>
<!-- Node15&#45;&gt;Node4 -->
<g id="edge23" class="edge"><title>Node15&#45;&gt;Node4</title>
<path fill="none" stroke="midnightblue" d="M535.621,-336.448C556.898,-329.816 582.416,-318.534 598.839,-300 618.884,-277.378 618.839,-265.225 618.839,-235 618.839,-235 618.839,-235 618.839,-177 618.839,-129.902 567.844,-96.7518 533.77,-79.8588"/>
<polygon fill="midnightblue" stroke="midnightblue" points="535.198,-76.6625 524.664,-75.5271 532.191,-82.9836 535.198,-76.6625"/>
</g>
<!-- Node15&#45;&gt;Node10 -->
<g id="edge22" class="edge"><title>Node15&#45;&gt;Node10</title>
<path fill="none" stroke="midnightblue" d="M463.662,-336.458C439.754,-329.353 407.917,-317.539 383.839,-300 345.081,-271.768 314.644,-222.982 300.133,-196.811"/>
<polygon fill="midnightblue" stroke="midnightblue" points="303.04,-194.828 295.214,-187.686 296.878,-198.149 303.04,-194.828"/>
</g>
<!-- Node15&#45;&gt;Node11 -->
<g id="edge24" class="edge"><title>Node15&#45;&gt;Node11</title>
<path fill="none" stroke="midnightblue" d="M500.85,-336.297C509.78,-308.794 533.3,-222.358 496.839,-168 480.032,-142.943 446.37,-131.814 421.07,-126.886"/>
<polygon fill="midnightblue" stroke="midnightblue" points="421.603,-123.426 411.155,-125.181 420.418,-130.325 421.603,-123.426"/>
</g>
<!-- Node16 -->
<g id="node16" class="node"><title>Node16</title>
<g id="a_node16"><a xlink:href="../../d9/d8a/_new_8h.html" target="_top" xlink:title="New operators defined for Arduino boards and for other boards use the normal new. ...">
<polygon fill="white" stroke="black" points="545.339,-280.5 545.339,-299.5 590.339,-299.5 590.339,-280.5 545.339,-280.5"/>
<text text-anchor="middle" x="567.839" y="-287.5" font-family="Helvetica,sans-Serif" font-size="10.00">New.h</text>
</a>
</g>
</g>
<!-- Node15&#45;&gt;Node16 -->
<g id="edge25" class="edge"><title>Node15&#45;&gt;Node16</title>
<path fill="none" stroke="midnightblue" d="M509.085,-336.324C519.636,-328.185 535.639,-315.839 548.281,-306.087"/>
<polygon fill="midnightblue" stroke="midnightblue" points="550.607,-308.713 556.387,-299.834 546.332,-303.171 550.607,-308.713"/>
</g>
<!-- Node17&#45;&gt;Node4 -->
<g id="edge27" class="edge"><title>Node17&#45;&gt;Node4</title>
<path fill="none" stroke="midnightblue" d="M615.126,-457.005C676.843,-455.619 834.839,-442.722 834.839,-347 834.839,-347 834.839,-347 834.839,-177 834.839,-117.671 640.915,-84.7198 549.935,-72.525"/>
<polygon fill="midnightblue" stroke="midnightblue" points="550.262,-69.038 539.891,-71.2073 549.351,-75.9786 550.262,-69.038"/>
</g>
<!-- Node17&#45;&gt;Node6 -->
<g id="edge30" class="edge"><title>Node17&#45;&gt;Node6</title>
<path fill="none" stroke="midnightblue" d="M584.233,-448.083C578.583,-440.455 570.294,-429.264 563.387,-419.941"/>
<polygon fill="midnightblue" stroke="midnightblue" points="566.086,-417.703 557.321,-411.751 560.461,-421.87 566.086,-417.703"/>
</g>
<!-- Node17&#45;&gt;Node14 -->
<g id="edge29" class="edge"><title>Node17&#45;&gt;Node14</title>
<path fill="none" stroke="midnightblue" d="M596.764,-448.285C606.44,-434.629 626.871,-408.088 649.839,-392 670.942,-377.218 697.631,-366.149 719.435,-358.689"/>
<polygon fill="midnightblue" stroke="midnightblue" points="720.669,-361.968 729.072,-355.515 718.478,-355.319 720.669,-361.968"/>
</g>
<!-- Node18 -->
<g id="node18" class="node"><title>Node18</title>
<g id="a_node18"><a xlink:href="../../d2/ddf/_wlib_config_8h.html" target="_top" xlink:title="Some basic definitions for compilers. ">
<polygon fill="white" stroke="black" points="659.339,-392.5 659.339,-411.5 752.339,-411.5 752.339,-392.5 659.339,-392.5"/>
<text text-anchor="middle" x="705.839" y="-399.5" font-family="Helvetica,sans-Serif" font-size="10.00">wlib/WlibConfig.h</text>
</a>
</g>
</g>
<!-- Node17&#45;&gt;Node18 -->
<g id="edge28" class="edge"><title>Node17&#45;&gt;Node18</title>
<path fill="none" stroke="midnightblue" d="M609.061,-448.444C627.734,-439.675 656.995,-425.935 678.456,-415.858"/>
<polygon fill="midnightblue" stroke="midnightblue" points="680.138,-418.935 687.702,-411.516 677.162,-412.599 680.138,-418.935"/>
</g>
<!-- Node19&#45;&gt;Node2 -->
<g id="edge33" class="edge"><title>Node19&#45;&gt;Node2</title>
<path fill="none" stroke="midnightblue" d="M279.335,-504.324C292.438,-495.9 312.55,-482.971 327.945,-473.074"/>
<polygon fill="midnightblue" stroke="midnightblue" points="329.857,-476.006 336.376,-467.655 326.072,-470.118 329.857,-476.006"/>
</g>
<!-- Node19&#45;&gt;Node3 -->
<g id="edge32" class="edge"><title>Node19&#45;&gt;Node3</title>
<path fill="none" stroke="midnightblue" d="M267.642,-504.297C274.41,-471.633 298.398,-355.866 307.91,-309.957"/>
<polygon fill="midnightblue" stroke="midnightblue" points="311.396,-310.386 309.998,-299.884 304.542,-308.966 311.396,-310.386"/>
</g>
<!-- Node19&#45;&gt;Node4 -->
<g id="edge36" class="edge"><title>Node19&#45;&gt;Node4</title>
<path fill="none" stroke="midnightblue" d="M229.405,-510.946C168.611,-506.787 50.1506,-495.328 19.8386,-468 -2.51573,-447.847 0.838576,-433.098 0.838576,-403 0.838576,-403 0.838576,-403 0.838576,-177 0.838576,-136.458 28.2913,-129.549 64.8386,-112 133.309,-79.1235 359.06,-70.1794 457.387,-67.8174"/>
<polygon fill="midnightblue" stroke="midnightblue" points="457.696,-71.3114 467.614,-67.5846 457.536,-64.3132 457.696,-71.3114"/>
</g>
<!-- Node19&#45;&gt;Node9 -->
<g id="edge35" class="edge"><title>Node19&#45;&gt;Node9</title>
<path fill="none" stroke="midnightblue" d="M264.923,-504.454C263.026,-485.971 258.839,-440.889 258.839,-403 258.839,-403 258.839,-403 258.839,-345 258.839,-312.788 263.567,-275.532 266.823,-253.692"/>
<polygon fill="midnightblue" stroke="midnightblue" points="270.325,-253.947 268.401,-243.529 263.408,-252.874 270.325,-253.947"/>
</g>
<!-- Node19&#45;&gt;Node10 -->
<g id="edge40" class="edge"><title>Node19&#45;&gt;Node10</title>
<path fill="none" stroke="midnightblue" d="M262.15,-504.455C247.172,-468.409 193.838,-325.937 239.839,-224 245.454,-211.555 256.401,-201.172 266.718,-193.527"/>
<polygon fill="midnightblue" stroke="midnightblue" points="268.845,-196.312 275.105,-187.764 264.881,-190.543 268.845,-196.312"/>
</g>
<!-- Node19&#45;&gt;Node17 -->
<g id="edge34" class="edge"><title>Node19&#45;&gt;Node17</title>
<path fill="none" stroke="midnightblue" d="M301.861,-507.015C364.978,-496.528 494.718,-474.971 556.574,-464.693"/>
<polygon fill="midnightblue" stroke="midnightblue" points="557.311,-468.119 566.602,-463.027 556.163,-461.214 557.311,-468.119"/>
</g>
<!-- Node20 -->
<g id="node20" class="node"><title>Node20</title>
<g id="a_node20"><a xlink:href="../../d7/d2f/_exceptions_8h.html" target="_top" xlink:title="Implementation of Exceptions using C style. ">
<polygon fill="white" stroke="black" points="28.8386,-448.5 28.8386,-467.5 172.839,-467.5 172.839,-448.5 28.8386,-448.5"/>
<text text-anchor="middle" x="100.839" y="-455.5" font-family="Helvetica,sans-Serif" font-size="10.00">wlib/exceptions/Exceptions.h</text>
</a>
</g>
</g>
<!-- Node19&#45;&gt;Node20 -->
<g id="edge37" class="edge"><title>Node19&#45;&gt;Node20</title>
<path fill="none" stroke="midnightblue" d="M239.694,-504.444C211.815,-495.32 167.49,-480.813 136.439,-470.651"/>
<polygon fill="midnightblue" stroke="midnightblue" points="137.454,-467.3 126.861,-467.516 135.276,-473.953 137.454,-467.3"/>
</g>
<!-- Node20&#45;&gt;Node4 -->
<g id="edge39" class="edge"><title>Node20&#45;&gt;Node4</title>
<path fill="none" stroke="midnightblue" d="M91.6903,-448.253C74.4439,-430.77 38.8386,-389.528 38.8386,-347 38.8386,-347 38.8386,-347 38.8386,-177 38.8386,-131.532 75.9999,-129.801 117.839,-112 178.079,-86.3696 368.81,-73.7383 457.57,-69.1267"/>
<polygon fill="midnightblue" stroke="midnightblue" points="457.81,-72.6191 467.619,-68.6163 457.455,-65.6281 457.81,-72.6191"/>
</g>
<!-- Node21 -->
<g id="node21" class="node"><title>Node21</title>
<polygon fill="white" stroke="#bfbfbf" points="73.8386,-392.5 73.8386,-411.5 127.839,-411.5 127.839,-392.5 73.8386,-392.5"/>
<text text-anchor="middle" x="100.839" y="-399.5" font-family="Helvetica,sans-Serif" font-size="10.00">setjmp.h</text>
</g>
<!-- Node20&#45;&gt;Node21 -->
<g id="edge38" class="edge"><title>Node20&#45;&gt;Node21</title>
<path fill="none" stroke="midnightblue" d="M100.839,-448.083C100.839,-441.006 100.839,-430.861 100.839,-421.986"/>
<polygon fill="midnightblue" stroke="midnightblue" points="104.339,-421.751 100.839,-411.751 97.3387,-421.751 104.339,-421.751"/>
</g>
<!-- Node22&#45;&gt;Node11 -->
<g id="edge45" class="edge"><title>Node22&#45;&gt;Node11</title>
<path fill="none" stroke="midnightblue" d="M128.934,-336.302C127.924,-323.559 127.208,-299.24 133.839,-280 153.52,-222.889 161.259,-202.509 210.839,-168 255.198,-137.124 318.883,-127.408 356.833,-124.366"/>
<polygon fill="midnightblue" stroke="midnightblue" points="357.083,-127.857 366.817,-123.673 356.598,-120.874 357.083,-127.857"/>
</g>
<!-- Node23 -->
<g id="node23" class="node"><title>Node23</title>
<g id="a_node23"><a xlink:href="../../d7/d2a/_tuple_8h.html" target="_top" xlink:title="Template oriented tuple implementation. ">
<polygon fill="white" stroke="black" points="143.339,-280.5 143.339,-299.5 192.339,-299.5 192.339,-280.5 143.339,-280.5"/>
<text text-anchor="middle" x="167.839" y="-287.5" font-family="Helvetica,sans-Serif" font-size="10.00">Tuple.h</text>
</a>
</g>
</g>
<!-- Node22&#45;&gt;Node23 -->
<g id="edge42" class="edge"><title>Node22&#45;&gt;Node23</title>
<path fill="none" stroke="midnightblue" d="M136.114,-336.083C141.481,-328.455 149.356,-317.264 155.917,-307.941"/>
<polygon fill="midnightblue" stroke="midnightblue" points="158.788,-309.943 161.68,-299.751 153.063,-305.915 158.788,-309.943"/>
</g>
<!-- Node23&#45;&gt;Node9 -->
<g id="edge43" class="edge"><title>Node23&#45;&gt;Node9</title>
<path fill="none" stroke="midnightblue" d="M184.227,-280.324C200.51,-271.703 225.706,-258.364 244.555,-248.386"/>
<polygon fill="midnightblue" stroke="midnightblue" points="246.291,-251.427 253.491,-243.655 243.016,-245.24 246.291,-251.427"/>
</g>
<!-- Node23&#45;&gt;Node11 -->
<g id="edge44" class="edge"><title>Node23&#45;&gt;Node11</title>
<path fill="none" stroke="midnightblue" d="M169.935,-280.488C175.821,-258.406 194.621,-198.863 232.839,-168 268.655,-139.076 322.267,-128.742 356.389,-125.05"/>
<polygon fill="midnightblue" stroke="midnightblue" points="357.111,-128.498 366.736,-124.07 356.45,-121.529 357.111,-128.498"/>
</g>
</g>
</svg>
