<?xml version="1.0" encoding="UTF-8" standalone="no"?>
<!DOCTYPE svg PUBLIC "-//W3C//DTD SVG 1.1//EN"
 "http://www.w3.org/Graphics/SVG/1.1/DTD/svg11.dtd">
<!-- Generated by graphviz version 2.36.0 (20140111.2315)
 -->
<!-- Title: wlib/stl/HashSet.h Pages: 1 -->
<!--zoomable 588 -->
<svg id="main" version="1.1" xmlns="http://www.w3.org/2000/svg" xmlns:xlink="http://www.w3.org/1999/xlink" xml:space="preserve" onload="init(evt)">
<style type="text/css"><![CDATA[
.edge:hover path { stroke: red; }
.edge:hover polygon { stroke: red; fill: red; }
]]></style>
<script type="text/javascript"><![CDATA[
var edges = document.getElementsByTagName('g');
if (edges && edges.length) {
  for (var i=0;i<edges.length;i++) {
    if (edges[i].id.substr(0,4)=='edge') {
      edges[i].setAttribute('class','edge');
    }
  }
}
]]></script>
        <defs>
                <circle id="rim" cx="0" cy="0" r="7"/>
                <circle id="rim2" cx="0" cy="0" r="3.5"/>
                <g id="zoomPlus">
                        <use xlink:href="#rim" fill="#404040">
                                <set attributeName="fill" to="#808080" begin="zoomplus.mouseover" end="zoomplus.mouseout"/>
                        </use>
                        <path d="M-4,0h8M0,-4v8" fill="none" stroke="white" stroke-width="1.5" pointer-events="none"/>
                </g>
                <g id="zoomMin">
                        <use xlink:href="#rim" fill="#404040">
                                <set attributeName="fill" to="#808080" begin="zoomminus.mouseover" end="zoomminus.mouseout"/>
                        </use>
                        <path d="M-4,0h8" fill="none" stroke="white" stroke-width="1.5" pointer-events="none"/>
                </g>
                <g id="dirArrow">
                        <path fill="none" stroke="white" stroke-width="1.5" d="M0,-3.0v7 M-2.5,-0.5L0,-3.0L2.5,-0.5"/>
                </g>
               <g id="resetDef">
                       <use xlink:href="#rim2" fill="#404040">
                               <set attributeName="fill" to="#808080" begin="reset.mouseover" end="reset.mouseout"/>
                       </use>
               </g>
        </defs>

<script type="text/javascript">
var viewWidth = 987;
var viewHeight = 588;
var sectionId = 'dynsection-0';
</script>
<script xlink:href="../../svgpan.js"/>
<svg id="graph" class="graph">
<g id="viewport">
<title>wlib/stl/HashSet.h</title>
<polygon fill="white" stroke="none" points="-4,4 -4,-584 983.467,-584 983.467,4 -4,4"/>
<!-- Node1 -->
<g id="node1" class="node"><title>Node1</title>
<polygon fill="#bfbfbf" stroke="black" points="556.5,-560.5 556.5,-579.5 653.5,-579.5 653.5,-560.5 556.5,-560.5"/>
<text text-anchor="middle" x="605" y="-567.5" font-family="Helvetica,sans-Serif" font-size="10.00">wlib/stl/HashSet.h</text>
</g>
<!-- Node2 -->
<g id="node2" class="node"><title>Node2</title>
<g id="a_node2"><a xlink:href="../../d2/dc2/_equal_8h.html" target="_top" xlink:title="wlib/stl/Equal.h">
<polygon fill="white" stroke="black" points="510.5,-448.5 510.5,-467.5 593.5,-467.5 593.5,-448.5 510.5,-448.5"/>
<text text-anchor="middle" x="552" y="-455.5" font-family="Helvetica,sans-Serif" font-size="10.00">wlib/stl/Equal.h</text>
</a>
</g>
</g>
<!-- Node1&#45;&gt;Node2 -->
<g id="edge1" class="edge"><title>Node1&#45;&gt;Node2</title>
<path fill="none" stroke="midnightblue" d="M600.841,-560.368C592.172,-542.376 572.02,-500.55 560.493,-476.627"/>
<polygon fill="midnightblue" stroke="midnightblue" points="563.633,-475.081 556.14,-467.591 557.327,-478.119 563.633,-475.081"/>
</g>
<!-- Node17 -->
<g id="node17" class="node"><title>Node17</title>
<g id="a_node17"><a xlink:href="../../d2/dad/_hash_8h.html" target="_top" xlink:title="wlib/stl/Hash.h">
<polygon fill="white" stroke="black" points="667,-448.5 667,-467.5 749,-467.5 749,-448.5 667,-448.5"/>
<text text-anchor="middle" x="708" y="-455.5" font-family="Helvetica,sans-Serif" font-size="10.00">wlib/stl/Hash.h</text>
</a>
</g>
</g>
<!-- Node1&#45;&gt;Node17 -->
<g id="edge26" class="edge"><title>Node1&#45;&gt;Node17</title>
<path fill="none" stroke="midnightblue" d="M613.082,-560.368C630.306,-541.974 670.853,-498.671 692.97,-475.052"/>
<polygon fill="midnightblue" stroke="midnightblue" points="695.675,-477.283 699.955,-467.591 690.565,-472.499 695.675,-477.283"/>
</g>
<!-- Node19 -->
<g id="node19" class="node"><title>Node19</title>
<g id="a_node19"><a xlink:href="../../de/def/_hash_table_8h.html" target="_top" xlink:title="wlib/stl/HashTable.h">
<polygon fill="white" stroke="black" points="412,-504.5 412,-523.5 518,-523.5 518,-504.5 412,-504.5"/>
<text text-anchor="middle" x="465" y="-511.5" font-family="Helvetica,sans-Serif" font-size="10.00">wlib/stl/HashTable.h</text>
</a>
</g>
</g>
<!-- Node1&#45;&gt;Node19 -->
<g id="edge31" class="edge"><title>Node1&#45;&gt;Node19</title>
<path fill="none" stroke="midnightblue" d="M582.817,-560.444C559.572,-551.478 522.851,-537.314 496.585,-527.183"/>
<polygon fill="midnightblue" stroke="midnightblue" points="497.669,-523.85 487.08,-523.516 495.15,-530.381 497.669,-523.85"/>
</g>
<!-- Node22 -->
<g id="node22" class="node"><title>Node22</title>
<g id="a_node22"><a xlink:href="../../d9/d37/_table_8h.html" target="_top" xlink:title="wlib/stl/Table.h">
<polygon fill="white" stroke="black" points="867.5,-336.5 867.5,-355.5 950.5,-355.5 950.5,-336.5 867.5,-336.5"/>
<text text-anchor="middle" x="909" y="-343.5" font-family="Helvetica,sans-Serif" font-size="10.00">wlib/stl/Table.h</text>
</a>
</g>
</g>
<!-- Node1&#45;&gt;Node22 -->
<g id="edge41" class="edge"><title>Node1&#45;&gt;Node22</title>
<path fill="none" stroke="midnightblue" d="M653.729,-561.791C728.399,-547.833 868.883,-509.398 930,-412 939.321,-397.146 930.867,-377.764 922.062,-364.042"/>
<polygon fill="midnightblue" stroke="midnightblue" points="924.731,-361.751 916.125,-355.571 918.999,-365.769 924.731,-361.751"/>
</g>
<!-- Node3 -->
<g id="node3" class="node"><title>Node3</title>
<polygon fill="white" stroke="#bfbfbf" points="466.5,-280.5 466.5,-299.5 515.5,-299.5 515.5,-280.5 466.5,-280.5"/>
<text text-anchor="middle" x="491" y="-287.5" font-family="Helvetica,sans-Serif" font-size="10.00">string.h</text>
</g>
<!-- Node2&#45;&gt;Node3 -->
<g id="edge2" class="edge"><title>Node2&#45;&gt;Node3</title>
<path fill="none" stroke="midnightblue" d="M548.72,-448.075C539.077,-421.832 510.676,-344.545 497.657,-309.117"/>
<polygon fill="midnightblue" stroke="midnightblue" points="500.883,-307.747 494.149,-299.568 494.313,-310.162 500.883,-307.747"/>
</g>
<!-- Node4 -->
<g id="node4" class="node"><title>Node4</title>
<g id="a_node4"><a xlink:href="../../d0/db6/_types_8h.html" target="_top" xlink:title="type definition of all the string types we will be using ">
<polygon fill="white" stroke="black" points="344,-56.5 344,-75.5 416,-75.5 416,-56.5 344,-56.5"/>
<text text-anchor="middle" x="380" y="-63.5" font-family="Helvetica,sans-Serif" font-size="10.00">wlib/Types.h</text>
</a>
</g>
</g>
<!-- Node2&#45;&gt;Node4 -->
<g id="edge3" class="edge"><title>Node2&#45;&gt;Node4</title>
<path fill="none" stroke="midnightblue" d="M510.406,-455.615C419.262,-450.136 210,-423.164 210,-291 210,-291 210,-291 210,-177 210,-117.678 283.868,-88.767 334.219,-75.9505"/>
<polygon fill="midnightblue" stroke="midnightblue" points="335.051,-79.3505 343.947,-73.5976 333.405,-72.5467 335.051,-79.3505"/>
</g>
<!-- Node6 -->
<g id="node6" class="node"><title>Node6</title>
<g id="a_node6"><a xlink:href="../../db/db5/_string_8h.html" target="_top" xlink:title="wlib/strings/String.h">
<polygon fill="white" stroke="black" points="588.5,-392.5 588.5,-411.5 691.5,-411.5 691.5,-392.5 588.5,-392.5"/>
<text text-anchor="middle" x="640" y="-399.5" font-family="Helvetica,sans-Serif" font-size="10.00">wlib/strings/String.h</text>
</a>
</g>
</g>
<!-- Node2&#45;&gt;Node6 -->
<g id="edge5" class="edge"><title>Node2&#45;&gt;Node6</title>
<path fill="none" stroke="midnightblue" d="M566.139,-448.324C579.866,-439.9 600.936,-426.971 617.064,-417.074"/>
<polygon fill="midnightblue" stroke="midnightblue" points="619.204,-419.868 625.896,-411.655 615.543,-413.902 619.204,-419.868"/>
</g>
<!-- Node5 -->
<g id="node5" class="node"><title>Node5</title>
<polygon fill="white" stroke="#bfbfbf" points="355.5,-0.5 355.5,-19.5 404.5,-19.5 404.5,-0.5 355.5,-0.5"/>
<text text-anchor="middle" x="380" y="-7.5" font-family="Helvetica,sans-Serif" font-size="10.00">stdint.h</text>
</g>
<!-- Node4&#45;&gt;Node5 -->
<g id="edge4" class="edge"><title>Node4&#45;&gt;Node5</title>
<path fill="none" stroke="midnightblue" d="M380,-56.083C380,-49.0059 380,-38.8611 380,-29.9865"/>
<polygon fill="midnightblue" stroke="midnightblue" points="383.5,-29.751 380,-19.7511 376.5,-29.7511 383.5,-29.751"/>
</g>
<!-- Node6&#45;&gt;Node3 -->
<g id="edge6" class="edge"><title>Node6&#45;&gt;Node3</title>
<path fill="none" stroke="midnightblue" d="M625.968,-392.45C611.819,-383.69 589.488,-369.483 571,-356 549.041,-339.985 524.98,-320.095 509.04,-306.564"/>
<polygon fill="midnightblue" stroke="midnightblue" points="510.961,-303.602 501.085,-299.766 506.413,-308.924 510.961,-303.602"/>
</g>
<!-- Node6&#45;&gt;Node4 -->
<g id="edge18" class="edge"><title>Node6&#45;&gt;Node4</title>
<path fill="none" stroke="midnightblue" d="M652.392,-392.355C671.87,-379.028 711.138,-353.206 747,-336 789.212,-315.748 814.951,-335.042 846,-300 885.067,-255.909 881.503,-222.017 858,-168 843.704,-135.143 832.46,-127.175 800,-112 734.606,-81.4297 521.405,-71.2651 426.404,-68.2005"/>
<polygon fill="midnightblue" stroke="midnightblue" points="426.336,-64.6968 416.232,-67.885 426.119,-71.6934 426.336,-64.6968"/>
</g>
<!-- Node7 -->
<g id="node7" class="node"><title>Node7</title>
<g id="a_node7"><a xlink:href="../../de/d0b/_string_iterator_8h.html" target="_top" xlink:title="wlib/strings/StringIterator.h">
<polygon fill="white" stroke="black" points="276,-336.5 276,-355.5 410,-355.5 410,-336.5 276,-336.5"/>
<text text-anchor="middle" x="343" y="-343.5" font-family="Helvetica,sans-Serif" font-size="10.00">wlib/strings/StringIterator.h</text>
</a>
</g>
</g>
<!-- Node6&#45;&gt;Node7 -->
<g id="edge7" class="edge"><title>Node6&#45;&gt;Node7</title>
<path fill="none" stroke="midnightblue" d="M592.939,-392.444C540.585,-382.925 456.01,-367.547 399.96,-357.356"/>
<polygon fill="midnightblue" stroke="midnightblue" points="400.305,-353.862 389.84,-355.516 399.053,-360.749 400.305,-353.862"/>
</g>
<!-- Node14 -->
<g id="node14" class="node"><title>Node14</title>
<g id="a_node14"><a xlink:href="../../da/db8/_math_8h.html" target="_top" xlink:title="wlib/utility/Math.h">
<polygon fill="white" stroke="black" points="756.5,-336.5 756.5,-355.5 849.5,-355.5 849.5,-336.5 756.5,-336.5"/>
<text text-anchor="middle" x="803" y="-343.5" font-family="Helvetica,sans-Serif" font-size="10.00">wlib/utility/Math.h</text>
</a>
</g>
</g>
<!-- Node6&#45;&gt;Node14 -->
<g id="edge19" class="edge"><title>Node6&#45;&gt;Node14</title>
<path fill="none" stroke="midnightblue" d="M665.828,-392.444C693.249,-383.359 736.777,-368.939 767.432,-358.783"/>
<polygon fill="midnightblue" stroke="midnightblue" points="768.901,-361.984 777.293,-355.516 766.7,-355.339 768.901,-361.984"/>
</g>
<!-- Node15 -->
<g id="node15" class="node"><title>Node15</title>
<g id="a_node15"><a xlink:href="../../d3/de6/_memory_8h.html" target="_top" xlink:title="Memory is a class that provides dynamic fixed size memory. ">
<polygon fill="white" stroke="black" points="580.5,-336.5 580.5,-355.5 699.5,-355.5 699.5,-336.5 580.5,-336.5"/>
<text text-anchor="middle" x="640" y="-343.5" font-family="Helvetica,sans-Serif" font-size="10.00">wlib/memory/Memory.h</text>
</a>
</g>
</g>
<!-- Node6&#45;&gt;Node15 -->
<g id="edge20" class="edge"><title>Node6&#45;&gt;Node15</title>
<path fill="none" stroke="midnightblue" d="M640,-392.083C640,-385.006 640,-374.861 640,-365.986"/>
<polygon fill="midnightblue" stroke="midnightblue" points="643.5,-365.751 640,-355.751 636.5,-365.751 643.5,-365.751"/>
</g>
<!-- Node7&#45;&gt;Node4 -->
<g id="edge8" class="edge"><title>Node7&#45;&gt;Node4</title>
<path fill="none" stroke="midnightblue" d="M327.313,-336.396C300.33,-320.314 248,-282.943 248,-235 248,-235 248,-235 248,-177 248,-126.812 305.012,-95.081 344.099,-79.2238"/>
<polygon fill="midnightblue" stroke="midnightblue" points="345.55,-82.4151 353.605,-75.5327 343.016,-75.8898 345.55,-82.4151"/>
</g>
<!-- Node8 -->
<g id="node8" class="node"><title>Node8</title>
<g id="a_node8"><a xlink:href="../../d8/dd7/_concept_8h.html" target="_top" xlink:title="Concept definitions. ">
<polygon fill="white" stroke="black" points="314.5,-280.5 314.5,-299.5 409.5,-299.5 409.5,-280.5 314.5,-280.5"/>
<text text-anchor="middle" x="362" y="-287.5" font-family="Helvetica,sans-Serif" font-size="10.00">wlib/stl/Concept.h</text>
</a>
</g>
</g>
<!-- Node7&#45;&gt;Node8 -->
<g id="edge9" class="edge"><title>Node7&#45;&gt;Node8</title>
<path fill="none" stroke="midnightblue" d="M346.137,-336.083C348.683,-328.849 352.356,-318.409 355.527,-309.397"/>
<polygon fill="midnightblue" stroke="midnightblue" points="358.903,-310.346 358.921,-299.751 352.3,-308.023 358.903,-310.346"/>
</g>
<!-- Node9 -->
<g id="node9" class="node"><title>Node9</title>
<g id="a_node9"><a xlink:href="../../d2/db4/_wlib_8h.html" target="_top" xlink:title="wlib/Wlib.h">
<polygon fill="white" stroke="black" points="390.5,-224.5 390.5,-243.5 455.5,-243.5 455.5,-224.5 390.5,-224.5"/>
<text text-anchor="middle" x="423" y="-231.5" font-family="Helvetica,sans-Serif" font-size="10.00">wlib/Wlib.h</text>
</a>
</g>
</g>
<!-- Node8&#45;&gt;Node9 -->
<g id="edge10" class="edge"><title>Node8&#45;&gt;Node9</title>
<path fill="none" stroke="midnightblue" d="M371.801,-280.324C380.818,-272.341 394.406,-260.313 405.318,-250.653"/>
<polygon fill="midnightblue" stroke="midnightblue" points="407.853,-253.083 413.021,-243.834 403.213,-247.842 407.853,-253.083"/>
</g>
<!-- Node10 -->
<g id="node10" class="node"><title>Node10</title>
<g id="a_node10"><a xlink:href="../../d4/dda/_pair_8h.html" target="_top" xlink:title="Implementation of a 2&#45;element tuple. ">
<polygon fill="white" stroke="black" points="474,-224.5 474,-243.5 550,-243.5 550,-224.5 474,-224.5"/>
<text text-anchor="middle" x="512" y="-231.5" font-family="Helvetica,sans-Serif" font-size="10.00">wlib/stl/Pair.h</text>
</a>
</g>
</g>
<!-- Node8&#45;&gt;Node10 -->
<g id="edge11" class="edge"><title>Node8&#45;&gt;Node10</title>
<path fill="none" stroke="midnightblue" d="M385.768,-280.444C410.893,-271.399 450.711,-257.064 478.9,-246.916"/>
<polygon fill="midnightblue" stroke="midnightblue" points="480.12,-250.197 488.343,-243.516 477.749,-243.611 480.12,-250.197"/>
</g>
<!-- Node12 -->
<g id="node12" class="node"><title>Node12</title>
<g id="a_node12"><a xlink:href="../../d2/d37/_tmp_8h.html" target="_top" xlink:title="Template helper types, structs, and metafunctions. ">
<polygon fill="white" stroke="black" points="466.5,-112.5 466.5,-131.5 557.5,-131.5 557.5,-112.5 466.5,-112.5"/>
<text text-anchor="middle" x="512" y="-119.5" font-family="Helvetica,sans-Serif" font-size="10.00">wlib/utility/Tmp.h</text>
</a>
</g>
</g>
<!-- Node8&#45;&gt;Node12 -->
<g id="edge17" class="edge"><title>Node8&#45;&gt;Node12</title>
<path fill="none" stroke="midnightblue" d="M353.78,-280.47C334.416,-259.34 289.632,-203.701 318,-168 335.039,-146.556 405.296,-134.419 456.371,-128.282"/>
<polygon fill="midnightblue" stroke="midnightblue" points="456.777,-131.759 466.309,-127.134 455.973,-124.805 456.777,-131.759"/>
</g>
<!-- Node13 -->
<g id="node13" class="node"><title>Node13</title>
<g id="a_node13"><a xlink:href="../../d4/dd5/_type_traits_8h.html" target="_top" xlink:title="Metafunctions for types. ">
<polygon fill="white" stroke="black" points="327.5,-168.5 327.5,-187.5 432.5,-187.5 432.5,-168.5 327.5,-168.5"/>
<text text-anchor="middle" x="380" y="-175.5" font-family="Helvetica,sans-Serif" font-size="10.00">wlib/stl/TypeTraits.h</text>
</a>
</g>
</g>
<!-- Node8&#45;&gt;Node13 -->
<g id="edge15" class="edge"><title>Node8&#45;&gt;Node13</title>
<path fill="none" stroke="midnightblue" d="M363.412,-280.368C366.317,-262.617 373.018,-221.666 376.957,-197.597"/>
<polygon fill="midnightblue" stroke="midnightblue" points="380.433,-198.025 378.594,-187.591 373.525,-196.895 380.433,-198.025"/>
</g>
<!-- Node11 -->
<g id="node11" class="node"><title>Node11</title>
<g id="a_node11"><a xlink:href="../../db/d2a/_utility_8h.html" target="_top" xlink:title="Various helper functions. ">
<polygon fill="white" stroke="black" points="463.5,-168.5 463.5,-187.5 560.5,-187.5 560.5,-168.5 463.5,-168.5"/>
<text text-anchor="middle" x="512" y="-175.5" font-family="Helvetica,sans-Serif" font-size="10.00">wlib/utility/Utility.h</text>
</a>
</g>
</g>
<!-- Node10&#45;&gt;Node11 -->
<g id="edge12" class="edge"><title>Node10&#45;&gt;Node11</title>
<path fill="none" stroke="midnightblue" d="M512,-224.083C512,-217.006 512,-206.861 512,-197.986"/>
<polygon fill="midnightblue" stroke="midnightblue" points="515.5,-197.751 512,-187.751 508.5,-197.751 515.5,-197.751"/>
</g>
<!-- Node11&#45;&gt;Node12 -->
<g id="edge13" class="edge"><title>Node11&#45;&gt;Node12</title>
<path fill="none" stroke="midnightblue" d="M512,-168.083C512,-161.006 512,-150.861 512,-141.986"/>
<polygon fill="midnightblue" stroke="midnightblue" points="515.5,-141.751 512,-131.751 508.5,-141.751 515.5,-141.751"/>
</g>
<!-- Node12&#45;&gt;Node4 -->
<g id="edge14" class="edge"><title>Node12&#45;&gt;Node4</title>
<path fill="none" stroke="midnightblue" d="M491.084,-112.444C469.264,-103.517 434.85,-89.4387 410.108,-79.3168"/>
<polygon fill="midnightblue" stroke="midnightblue" points="411.399,-76.0634 400.818,-75.5164 408.748,-82.5422 411.399,-76.0634"/>
</g>
<!-- Node13&#45;&gt;Node12 -->
<g id="edge16" class="edge"><title>Node13&#45;&gt;Node12</title>
<path fill="none" stroke="midnightblue" d="M400.916,-168.444C422.736,-159.517 457.15,-145.439 481.892,-135.317"/>
<polygon fill="midnightblue" stroke="midnightblue" points="483.252,-138.542 491.182,-131.516 480.601,-132.063 483.252,-138.542"/>
</g>
<!-- Node15&#45;&gt;Node3 -->
<g id="edge21" class="edge"><title>Node15&#45;&gt;Node3</title>
<path fill="none" stroke="midnightblue" d="M616.391,-336.444C591.542,-327.438 552.226,-313.189 524.246,-303.049"/>
<polygon fill="midnightblue" stroke="midnightblue" points="525.093,-299.633 514.499,-299.516 522.708,-306.214 525.093,-299.633"/>
</g>
<!-- Node15&#45;&gt;Node4 -->
<g id="edge22" class="edge"><title>Node15&#45;&gt;Node4</title>
<path fill="none" stroke="midnightblue" d="M699.753,-336.872C746.369,-329.379 806.116,-316.865 824,-300 845.99,-279.263 844,-265.225 844,-235 844,-235 844,-235 844,-177 844,-91.7149 543.457,-72.4573 426.132,-68.1888"/>
<polygon fill="midnightblue" stroke="midnightblue" points="426.137,-64.687 416.023,-67.8419 425.897,-71.6829 426.137,-64.687"/>
</g>
<!-- Node15&#45;&gt;Node11 -->
<g id="edge23" class="edge"><title>Node15&#45;&gt;Node11</title>
<path fill="none" stroke="midnightblue" d="M612.327,-336.46C595.004,-329.559 573.957,-317.982 563,-300 545.4,-271.115 573.096,-254.747 559,-224 553.465,-211.927 543.102,-201.453 533.512,-193.655"/>
<polygon fill="midnightblue" stroke="midnightblue" points="535.507,-190.775 525.425,-187.518 531.275,-196.351 535.507,-190.775"/>
</g>
<!-- Node15&#45;&gt;Node12 -->
<g id="edge24" class="edge"><title>Node15&#45;&gt;Node12</title>
<path fill="none" stroke="midnightblue" d="M653.203,-336.439C669.63,-324.62 694.44,-302.236 685,-280 655.592,-210.728 577.932,-159.396 537.415,-136.388"/>
<polygon fill="midnightblue" stroke="midnightblue" points="539.105,-133.324 528.663,-131.532 535.709,-139.445 539.105,-133.324"/>
</g>
<!-- Node16 -->
<g id="node16" class="node"><title>Node16</title>
<g id="a_node16"><a xlink:href="../../d9/d8a/_new_8h.html" target="_top" xlink:title="New operators defined for Arduino boards and for other boards use the normal new. ...">
<polygon fill="white" stroke="black" points="572,-280.5 572,-299.5 676,-299.5 676,-280.5 572,-280.5"/>
<text text-anchor="middle" x="624" y="-287.5" font-family="Helvetica,sans-Serif" font-size="10.00">wlib/memory/New.h</text>
</a>
</g>
</g>
<!-- Node15&#45;&gt;Node16 -->
<g id="edge25" class="edge"><title>Node15&#45;&gt;Node16</title>
<path fill="none" stroke="midnightblue" d="M637.358,-336.083C635.214,-328.849 632.121,-318.409 629.451,-309.397"/>
<polygon fill="midnightblue" stroke="midnightblue" points="632.79,-308.345 626.593,-299.751 626.078,-310.333 632.79,-308.345"/>
</g>
<!-- Node17&#45;&gt;Node4 -->
<g id="edge27" class="edge"><title>Node17&#45;&gt;Node4</title>
<path fill="none" stroke="midnightblue" d="M720.063,-448.405C739.843,-434.673 780.8,-407.735 819,-392 878.404,-367.531 912.52,-400.354 959,-356 980.867,-335.133 979,-321.225 979,-291 979,-291 979,-291 979,-177 979,-105.565 901.075,-130.211 832,-112 687.392,-73.8746 508.993,-67.5403 426.22,-66.8182"/>
<polygon fill="midnightblue" stroke="midnightblue" points="426.156,-63.3178 416.134,-66.7543 426.112,-70.3176 426.156,-63.3178"/>
</g>
<!-- Node17&#45;&gt;Node6 -->
<g id="edge30" class="edge"><title>Node17&#45;&gt;Node6</title>
<path fill="none" stroke="midnightblue" d="M697.075,-448.324C686.825,-440.185 671.279,-427.839 658.999,-418.087"/>
<polygon fill="midnightblue" stroke="midnightblue" points="661.132,-415.312 651.124,-411.834 656.779,-420.794 661.132,-415.312"/>
</g>
<!-- Node17&#45;&gt;Node14 -->
<g id="edge29" class="edge"><title>Node17&#45;&gt;Node14</title>
<path fill="none" stroke="midnightblue" d="M715.454,-448.368C731.271,-430.055 768.412,-387.049 788.869,-363.362"/>
<polygon fill="midnightblue" stroke="midnightblue" points="791.693,-365.447 795.58,-355.591 786.395,-360.872 791.693,-365.447"/>
</g>
<!-- Node18 -->
<g id="node18" class="node"><title>Node18</title>
<g id="a_node18"><a xlink:href="../../d2/ddf/_wlib_config_8h.html" target="_top" xlink:title="Some basic definitions for compilers. ">
<polygon fill="white" stroke="black" points="828.5,-392.5 828.5,-411.5 921.5,-411.5 921.5,-392.5 828.5,-392.5"/>
<text text-anchor="middle" x="875" y="-399.5" font-family="Helvetica,sans-Serif" font-size="10.00">wlib/WlibConfig.h</text>
</a>
</g>
</g>
<!-- Node17&#45;&gt;Node18 -->
<g id="edge28" class="edge"><title>Node17&#45;&gt;Node18</title>
<path fill="none" stroke="midnightblue" d="M734.462,-448.444C762.678,-439.32 807.54,-424.813 838.968,-414.651"/>
<polygon fill="midnightblue" stroke="midnightblue" points="840.224,-417.923 848.662,-411.516 838.07,-411.263 840.224,-417.923"/>
</g>
<!-- Node19&#45;&gt;Node2 -->
<g id="edge33" class="edge"><title>Node19&#45;&gt;Node2</title>
<path fill="none" stroke="midnightblue" d="M478.978,-504.324C492.55,-495.9 513.38,-482.971 529.325,-473.074"/>
<polygon fill="midnightblue" stroke="midnightblue" points="531.406,-475.902 538.057,-467.655 527.714,-469.954 531.406,-475.902"/>
</g>
<!-- Node19&#45;&gt;Node3 -->
<g id="edge32" class="edge"><title>Node19&#45;&gt;Node3</title>
<path fill="none" stroke="midnightblue" d="M466.019,-504.297C469.845,-471.633 483.403,-355.866 488.78,-309.957"/>
<polygon fill="midnightblue" stroke="midnightblue" points="492.272,-310.223 489.96,-299.884 485.32,-309.409 492.272,-310.223"/>
</g>
<!-- Node19&#45;&gt;Node4 -->
<g id="edge36" class="edge"><title>Node19&#45;&gt;Node4</title>
<path fill="none" stroke="midnightblue" d="M412.955,-504.468C328.759,-489.175 172,-453.871 172,-403 172,-403 172,-403 172,-177 172,-104.402 272.242,-79.5885 333.547,-71.2015"/>
<polygon fill="midnightblue" stroke="midnightblue" points="334.289,-74.6355 343.769,-69.9047 333.408,-67.6912 334.289,-74.6355"/>
</g>
<!-- Node19&#45;&gt;Node10 -->
<g id="edge35" class="edge"><title>Node19&#45;&gt;Node10</title>
<path fill="none" stroke="midnightblue" d="M461.359,-504.338C453.989,-485.996 438,-441.738 438,-403 438,-403 438,-403 438,-345 438,-314.902 440.387,-305.097 457,-280 465.168,-267.661 477.754,-257.007 488.827,-249.166"/>
<polygon fill="midnightblue" stroke="midnightblue" points="490.914,-251.981 497.269,-243.504 487.014,-246.168 490.914,-251.981"/>
</g>
<!-- Node19&#45;&gt;Node11 -->
<g id="edge40" class="edge"><title>Node19&#45;&gt;Node11</title>
<path fill="none" stroke="midnightblue" d="M438.189,-504.425C378.051,-483.472 239.713,-424.81 267,-336 293.267,-250.511 400.365,-208.179 463.94,-190.198"/>
<polygon fill="midnightblue" stroke="midnightblue" points="465.027,-193.529 473.751,-187.518 463.182,-186.776 465.027,-193.529"/>
</g>
<!-- Node19&#45;&gt;Node17 -->
<g id="edge34" class="edge"><title>Node19&#45;&gt;Node17</title>
<path fill="none" stroke="midnightblue" d="M503.504,-504.444C545.806,-495.043 613.819,-479.929 659.673,-469.739"/>
<polygon fill="midnightblue" stroke="midnightblue" points="660.673,-473.102 669.676,-467.516 659.155,-466.269 660.673,-473.102"/>
</g>
<!-- Node20 -->
<g id="node20" class="node"><title>Node20</title>
<g id="a_node20"><a xlink:href="../../d7/d2f/_exceptions_8h.html" target="_top" xlink:title="Implementation of Exceptions using C style. ">
<polygon fill="white" stroke="black" points="0,-448.5 0,-467.5 144,-467.5 144,-448.5 0,-448.5"/>
<text text-anchor="middle" x="72" y="-455.5" font-family="Helvetica,sans-Serif" font-size="10.00">wlib/exceptions/Exceptions.h</text>
</a>
</g>
</g>
<!-- Node19&#45;&gt;Node20 -->
<g id="edge37" class="edge"><title>Node19&#45;&gt;Node20</title>
<path fill="none" stroke="midnightblue" d="M411.998,-505.717C342.921,-496.226 221.824,-479.587 144.346,-468.941"/>
<polygon fill="midnightblue" stroke="midnightblue" points="144.566,-465.438 134.182,-467.544 143.613,-472.373 144.566,-465.438"/>
</g>
<!-- Node20&#45;&gt;Node4 -->
<g id="edge39" class="edge"><title>Node20&#45;&gt;Node4</title>
<path fill="none" stroke="midnightblue" d="M70.6927,-448.466C67.9821,-430.007 62,-384.968 62,-347 62,-347 62,-347 62,-177 62,-120.175 245.652,-86.1906 333.824,-73.1493"/>
<polygon fill="midnightblue" stroke="midnightblue" points="334.437,-76.5971 343.831,-71.6986 333.432,-69.6696 334.437,-76.5971"/>
</g>
<!-- Node21 -->
<g id="node21" class="node"><title>Node21</title>
<polygon fill="white" stroke="#bfbfbf" points="90,-392.5 90,-411.5 144,-411.5 144,-392.5 90,-392.5"/>
<text text-anchor="middle" x="117" y="-399.5" font-family="Helvetica,sans-Serif" font-size="10.00">setjmp.h</text>
</g>
<!-- Node20&#45;&gt;Node21 -->
<g id="edge38" class="edge"><title>Node20&#45;&gt;Node21</title>
<path fill="none" stroke="midnightblue" d="M79.4308,-448.083C85.8527,-440.377 95.3056,-429.033 103.122,-419.653"/>
<polygon fill="midnightblue" stroke="midnightblue" points="105.994,-421.674 109.707,-411.751 100.617,-417.193 105.994,-421.674"/>
</g>
<!-- Node22&#45;&gt;Node12 -->
<g id="edge45" class="edge"><title>Node22&#45;&gt;Node12</title>
<path fill="none" stroke="midnightblue" d="M903.595,-336.211C885.063,-306.904 820.818,-211.891 741,-168 686.972,-138.291 616.258,-128.001 567.787,-124.541"/>
<polygon fill="midnightblue" stroke="midnightblue" points="567.998,-121.048 557.795,-123.902 567.552,-128.034 567.998,-121.048"/>
</g>
<!-- Node23 -->
<g id="node23" class="node"><title>Node23</title>
<g id="a_node23"><a xlink:href="../../d7/d2a/_tuple_8h.html" target="_top" xlink:title="Template oriented tuple implementation. ">
<polygon fill="white" stroke="black" points="732.5,-280.5 732.5,-299.5 815.5,-299.5 815.5,-280.5 732.5,-280.5"/>
<text text-anchor="middle" x="774" y="-287.5" font-family="Helvetica,sans-Serif" font-size="10.00">wlib/stl/Tuple.h</text>
</a>
</g>
</g>
<!-- Node22&#45;&gt;Node23 -->
<g id="edge42" class="edge"><title>Node22&#45;&gt;Node23</title>
<path fill="none" stroke="midnightblue" d="M887.609,-336.444C865.293,-327.517 830.097,-313.439 804.792,-303.317"/>
<polygon fill="midnightblue" stroke="midnightblue" points="805.876,-299.981 795.291,-299.516 803.276,-306.48 805.876,-299.981"/>
</g>
<!-- Node23&#45;&gt;Node10 -->
<g id="edge43" class="edge"><title>Node23&#45;&gt;Node10</title>
<path fill="none" stroke="midnightblue" d="M732.485,-280.444C685.644,-270.789 609.562,-255.108 560.151,-244.924"/>
<polygon fill="midnightblue" stroke="midnightblue" points="560.838,-241.492 550.337,-242.902 559.425,-248.348 560.838,-241.492"/>
</g>
<!-- Node23&#45;&gt;Node12 -->
<g id="edge44" class="edge"><title>Node23&#45;&gt;Node12</title>
<path fill="none" stroke="midnightblue" d="M772.682,-280.371C768.789,-258.007 755.191,-197.843 718,-168 695.2,-149.705 620.674,-136.723 567.834,-129.546"/>
<polygon fill="midnightblue" stroke="midnightblue" points="568.281,-126.074 557.907,-128.23 567.361,-133.014 568.281,-126.074"/>
</g>
</g>
</svg>
        <g id="navigator" transform="translate(0 0)" fill="#404254">
                <rect fill="#f2f5e9" fill-opacity="0.5" stroke="#606060" stroke-width=".5" x="0" y="0" width="60" height="60"/>
                <use id="zoomplus" xlink:href="#zoomPlus" x="17" y="9" onmousedown="handleZoom(evt,'in')"/>
                <use id="zoomminus" xlink:href="#zoomMin" x="42" y="9" onmousedown="handleZoom(evt,'out')"/>
                <use id="reset" xlink:href="#resetDef" x="30" y="36" onmousedown="handleReset()"/>
                <g id="arrowUp" xlink:href="#dirArrow" transform="translate(30 24)" onmousedown="handlePan(0,-1)">
                  <use xlink:href="#rim" fill="#404040">
                        <set attributeName="fill" to="#808080" begin="arrowUp.mouseover" end="arrowUp.mouseout"/>
                  </use>
                  <path fill="none" stroke="white" stroke-width="1.5" d="M0,-3.0v7 M-2.5,-0.5L0,-3.0L2.5,-0.5"/>
                </g>
                <g id="arrowRight" xlink:href="#dirArrow" transform="rotate(90) translate(36 -43)" onmousedown="handlePan(1,0)">
                  <use xlink:href="#rim" fill="#404040">
                        <set attributeName="fill" to="#808080" begin="arrowRight.mouseover" end="arrowRight.mouseout"/>
                  </use>
                  <path fill="none" stroke="white" stroke-width="1.5" d="M0,-3.0v7 M-2.5,-0.5L0,-3.0L2.5,-0.5"/>
                </g>
                <g id="arrowDown" xlink:href="#dirArrow" transform="rotate(180) translate(-30 -48)" onmousedown="handlePan(0,1)">
                  <use xlink:href="#rim" fill="#404040">
                        <set attributeName="fill" to="#808080" begin="arrowDown.mouseover" end="arrowDown.mouseout"/>
                  </use>
                  <path fill="none" stroke="white" stroke-width="1.5" d="M0,-3.0v7 M-2.5,-0.5L0,-3.0L2.5,-0.5"/>
                </g>
                <g id="arrowLeft" xlink:href="#dirArrow" transform="rotate(270) translate(-36 17)" onmousedown="handlePan(-1,0)">
                  <use xlink:href="#rim" fill="#404040">
                        <set attributeName="fill" to="#808080" begin="arrowLeft.mouseover" end="arrowLeft.mouseout"/>
                  </use>
                  <path fill="none" stroke="white" stroke-width="1.5" d="M0,-3.0v7 M-2.5,-0.5L0,-3.0L2.5,-0.5"/>
                </g>
        </g>
        <svg viewBox="0 0 15 15" width="100%" height="30px" preserveAspectRatio="xMaxYMin meet">
         <g id="arrow_out" transform="scale(0.3 0.3)">
          <a xlink:href="_hash_set_8h__incl_org.svg" target="_base">
           <rect id="button" ry="5" rx="5" y="6" x="6" height="38" width="38"
                fill="#f2f5e9" fill-opacity="0.5" stroke="#606060" stroke-width="1.0"/>
           <path id="arrow"
             d="M 11.500037,31.436501 C 11.940474,20.09759 22.043105,11.32322 32.158766,21.979434 L 37.068811,17.246167 C 37.068811,17.246167 37.088388,32 37.088388,32 L 22.160133,31.978069 C 22.160133,31.978069 26.997745,27.140456 26.997745,27.140456 C 18.528582,18.264221 13.291696,25.230495 11.500037,31.436501 z"
             style="fill:#404040;"/>
          </a>
         </g>
        </svg>
</svg>
