<?xml version="1.0" encoding="UTF-8" standalone="no"?>
<!DOCTYPE svg PUBLIC "-//W3C//DTD SVG 1.1//EN"
 "http://www.w3.org/Graphics/SVG/1.1/DTD/svg11.dtd">
<!-- Generated by graphviz version 2.36.0 (20140111.2315)
 -->
<!-- Title: wlib/stl/HashSet.h Pages: 1 -->
<!--zoomable 308 -->
<svg id="main" version="1.1" xmlns="http://www.w3.org/2000/svg" xmlns:xlink="http://www.w3.org/1999/xlink" xml:space="preserve" onload="init(evt)">
<style type="text/css"><![CDATA[
.edge:hover path { stroke: red; }
.edge:hover polygon { stroke: red; fill: red; }
]]></style>
<script type="text/javascript"><![CDATA[
var edges = document.getElementsByTagName('g');
if (edges && edges.length) {
  for (var i=0;i<edges.length;i++) {
    if (edges[i].id.substr(0,4)=='edge') {
      edges[i].setAttribute('class','edge');
    }
  }
}
]]></script>
        <defs>
                <circle id="rim" cx="0" cy="0" r="7"/>
                <circle id="rim2" cx="0" cy="0" r="3.5"/>
                <g id="zoomPlus">
                        <use xlink:href="#rim" fill="#404040">
                                <set attributeName="fill" to="#808080" begin="zoomplus.mouseover" end="zoomplus.mouseout"/>
                        </use>
                        <path d="M-4,0h8M0,-4v8" fill="none" stroke="white" stroke-width="1.5" pointer-events="none"/>
                </g>
                <g id="zoomMin">
                        <use xlink:href="#rim" fill="#404040">
                                <set attributeName="fill" to="#808080" begin="zoomminus.mouseover" end="zoomminus.mouseout"/>
                        </use>
                        <path d="M-4,0h8" fill="none" stroke="white" stroke-width="1.5" pointer-events="none"/>
                </g>
                <g id="dirArrow">
                        <path fill="none" stroke="white" stroke-width="1.5" d="M0,-3.0v7 M-2.5,-0.5L0,-3.0L2.5,-0.5"/>
                </g>
               <g id="resetDef">
                       <use xlink:href="#rim2" fill="#404040">
                               <set attributeName="fill" to="#808080" begin="reset.mouseover" end="reset.mouseout"/>
                       </use>
               </g>
        </defs>

<script type="text/javascript">
var viewWidth = 853;
var viewHeight = 308;
var sectionId = 'dynsection-0';
</script>
<script xlink:href="../../svgpan.js"/>
<svg id="graph" class="graph">
<g id="viewport">
<title>wlib/stl/HashSet.h</title>
<polygon fill="white" stroke="none" points="-4,4 -4,-304 849,-304 849,4 -4,4"/>
<!-- Node1 -->
<g id="node1" class="node"><title>Node1</title>
<polygon fill="#bfbfbf" stroke="black" points="397.5,-280.5 397.5,-299.5 494.5,-299.5 494.5,-280.5 397.5,-280.5"/>
<text text-anchor="middle" x="446" y="-287.5" font-family="Helvetica,sans-Serif" font-size="10.00">wlib/stl/HashSet.h</text>
</g>
<!-- Node2 -->
<g id="node2" class="node"><title>Node2</title>
<g id="a_node2"><a xlink:href="../../d2/dc2/_equal_8h.html" target="_top" xlink:title="wlib/stl/Equal.h">
<polygon fill="white" stroke="black" points="370.5,-168.5 370.5,-187.5 453.5,-187.5 453.5,-168.5 370.5,-168.5"/>
<text text-anchor="middle" x="412" y="-175.5" font-family="Helvetica,sans-Serif" font-size="10.00">wlib/stl/Equal.h</text>
</a>
</g>
</g>
<!-- Node1&#45;&gt;Node2 -->
<g id="edge1" class="edge"><title>Node1&#45;&gt;Node2</title>
<path fill="none" stroke="midnightblue" d="M441.17,-280.291C436.428,-271.408 429.3,-257.107 425,-244 420.006,-228.777 416.599,-210.888 414.53,-197.734"/>
<polygon fill="midnightblue" stroke="midnightblue" points="417.956,-196.971 413.05,-187.581 411.029,-197.981 417.956,-196.971"/>
</g>
<!-- Node11 -->
<g id="node11" class="node"><title>Node11</title>
<g id="a_node11"><a xlink:href="../../d2/dad/_hash_8h.html" target="_top" xlink:title="wlib/stl/Hash.h">
<polygon fill="white" stroke="black" points="270,-168.5 270,-187.5 352,-187.5 352,-168.5 270,-168.5"/>
<text text-anchor="middle" x="311" y="-175.5" font-family="Helvetica,sans-Serif" font-size="10.00">wlib/stl/Hash.h</text>
</a>
</g>
</g>
<!-- Node1&#45;&gt;Node11 -->
<g id="edge11" class="edge"><title>Node1&#45;&gt;Node11</title>
<path fill="none" stroke="midnightblue" d="M435.407,-280.368C412.536,-261.733 358.29,-217.532 329.573,-194.134"/>
<polygon fill="midnightblue" stroke="midnightblue" points="331.507,-191.195 321.544,-187.591 327.086,-196.622 331.507,-191.195"/>
</g>
<!-- Node12 -->
<g id="node12" class="node"><title>Node12</title>
<g id="a_node12"><a xlink:href="../../de/def/_hash_table_8h.html" target="_top" xlink:title="wlib/stl/HashTable.h">
<polygon fill="white" stroke="black" points="434,-224.5 434,-243.5 540,-243.5 540,-224.5 434,-224.5"/>
<text text-anchor="middle" x="487" y="-231.5" font-family="Helvetica,sans-Serif" font-size="10.00">wlib/stl/HashTable.h</text>
</a>
</g>
</g>
<!-- Node1&#45;&gt;Node12 -->
<g id="edge13" class="edge"><title>Node1&#45;&gt;Node12</title>
<path fill="none" stroke="midnightblue" d="M452.77,-280.083C458.562,-272.455 467.058,-261.264 474.138,-251.941"/>
<polygon fill="midnightblue" stroke="midnightblue" points="477.096,-253.832 480.356,-243.751 471.521,-249.599 477.096,-253.832"/>
</g>
<!-- Node15 -->
<g id="node15" class="node"><title>Node15</title>
<g id="a_node15"><a xlink:href="../../d9/d37/_table_8h.html" target="_top" xlink:title="wlib/stl/Table.h">
<polygon fill="white" stroke="black" points="600.5,-224.5 600.5,-243.5 683.5,-243.5 683.5,-224.5 600.5,-224.5"/>
<text text-anchor="middle" x="642" y="-231.5" font-family="Helvetica,sans-Serif" font-size="10.00">wlib/stl/Table.h</text>
</a>
</g>
</g>
<!-- Node1&#45;&gt;Node15 -->
<g id="edge20" class="edge"><title>Node1&#45;&gt;Node15</title>
<path fill="none" stroke="midnightblue" d="M477.057,-280.444C510.603,-271.201 564.197,-256.436 601.141,-246.257"/>
<polygon fill="midnightblue" stroke="midnightblue" points="602.377,-249.547 611.089,-243.516 600.518,-242.798 602.377,-249.547"/>
</g>
<!-- Node3 -->
<g id="node3" class="node"><title>Node3</title>
<polygon fill="white" stroke="#bfbfbf" points="457.5,-56.5 457.5,-75.5 506.5,-75.5 506.5,-56.5 457.5,-56.5"/>
<text text-anchor="middle" x="482" y="-63.5" font-family="Helvetica,sans-Serif" font-size="10.00">string.h</text>
</g>
<!-- Node2&#45;&gt;Node3 -->
<g id="edge2" class="edge"><title>Node2&#45;&gt;Node3</title>
<path fill="none" stroke="midnightblue" d="M417.493,-168.368C428.994,-150.296 455.797,-108.176 470.986,-84.3074"/>
<polygon fill="midnightblue" stroke="midnightblue" points="474.117,-85.9071 476.533,-75.5914 468.211,-82.149 474.117,-85.9071"/>
</g>
<!-- Node4 -->
<g id="node4" class="node"><title>Node4</title>
<g id="a_node4"><a xlink:href="../../db/db5/_string_8h.html" target="_top" xlink:title="wlib/strings/String.h">
<polygon fill="white" stroke="black" points="277.5,-112.5 277.5,-131.5 380.5,-131.5 380.5,-112.5 277.5,-112.5"/>
<text text-anchor="middle" x="329" y="-119.5" font-family="Helvetica,sans-Serif" font-size="10.00">wlib/strings/String.h</text>
</a>
</g>
</g>
<!-- Node2&#45;&gt;Node4 -->
<g id="edge3" class="edge"><title>Node2&#45;&gt;Node4</title>
<path fill="none" stroke="midnightblue" d="M398.665,-168.324C385.838,-159.979 366.215,-147.212 351.06,-137.352"/>
<polygon fill="midnightblue" stroke="midnightblue" points="352.593,-134.174 342.302,-131.655 348.776,-140.042 352.593,-134.174"/>
</g>
<!-- Node4&#45;&gt;Node3 -->
<g id="edge10" class="edge"><title>Node4&#45;&gt;Node3</title>
<path fill="none" stroke="midnightblue" d="M353.243,-112.444C378.871,-103.399 419.485,-89.064 448.238,-78.9158"/>
<polygon fill="midnightblue" stroke="midnightblue" points="449.605,-82.1452 457.87,-75.5164 447.275,-75.5442 449.605,-82.1452"/>
</g>
<!-- Node5 -->
<g id="node5" class="node"><title>Node5</title>
<g id="a_node5"><a xlink:href="../../de/d0b/_string_iterator_8h.html" target="_top" xlink:title="wlib/strings/StringIterator.h">
<polygon fill="white" stroke="black" points="0,-56.5 0,-75.5 134,-75.5 134,-56.5 0,-56.5"/>
<text text-anchor="middle" x="67" y="-63.5" font-family="Helvetica,sans-Serif" font-size="10.00">wlib/strings/StringIterator.h</text>
</a>
</g>
</g>
<!-- Node4&#45;&gt;Node5 -->
<g id="edge4" class="edge"><title>Node4&#45;&gt;Node5</title>
<path fill="none" stroke="midnightblue" d="M287.485,-112.444C241.588,-102.984 167.62,-87.7384 118.174,-77.5472"/>
<polygon fill="midnightblue" stroke="midnightblue" points="118.821,-74.1072 108.32,-75.5164 117.408,-80.9631 118.821,-74.1072"/>
</g>
<!-- Node7 -->
<g id="node7" class="node"><title>Node7</title>
<polygon fill="white" stroke="#bfbfbf" points="152.5,-56.5 152.5,-75.5 267.5,-75.5 267.5,-56.5 152.5,-56.5"/>
<text text-anchor="middle" x="210" y="-63.5" font-family="Helvetica,sans-Serif" font-size="10.00">wlib/tmp/NullptrType.h</text>
</g>
<!-- Node4&#45;&gt;Node7 -->
<g id="edge6" class="edge"><title>Node4&#45;&gt;Node7</title>
<path fill="none" stroke="midnightblue" d="M310.144,-112.444C290.734,-103.636 260.27,-89.8116 238.035,-79.722"/>
<polygon fill="midnightblue" stroke="midnightblue" points="239.32,-76.4615 228.768,-75.5164 236.428,-82.836 239.32,-76.4615"/>
</g>
<!-- Node8 -->
<g id="node8" class="node"><title>Node8</title>
<g id="a_node8"><a xlink:href="../../de/d35/_helper_8h.html" target="_top" xlink:title="wlib/stl/Helper.h">
<polygon fill="white" stroke="black" points="285.5,-56.5 285.5,-75.5 372.5,-75.5 372.5,-56.5 285.5,-56.5"/>
<text text-anchor="middle" x="329" y="-63.5" font-family="Helvetica,sans-Serif" font-size="10.00">wlib/stl/Helper.h</text>
</a>
</g>
</g>
<!-- Node4&#45;&gt;Node8 -->
<g id="edge7" class="edge"><title>Node4&#45;&gt;Node8</title>
<path fill="none" stroke="midnightblue" d="M329,-112.083C329,-105.006 329,-94.8611 329,-85.9865"/>
<polygon fill="midnightblue" stroke="midnightblue" points="332.5,-85.751 329,-75.7511 325.5,-85.7511 332.5,-85.751"/>
</g>
<!-- Node10 -->
<g id="node10" class="node"><title>Node10</title>
<polygon fill="white" stroke="#bfbfbf" points="390.5,-56.5 390.5,-75.5 439.5,-75.5 439.5,-56.5 390.5,-56.5"/>
<text text-anchor="middle" x="415" y="-63.5" font-family="Helvetica,sans-Serif" font-size="10.00">stdint.h</text>
</g>
<!-- Node4&#45;&gt;Node10 -->
<g id="edge9" class="edge"><title>Node4&#45;&gt;Node10</title>
<path fill="none" stroke="midnightblue" d="M342.817,-112.324C356.233,-103.9 376.824,-90.9709 392.586,-81.0741"/>
<polygon fill="midnightblue" stroke="midnightblue" points="394.609,-83.9364 401.217,-75.6545 390.887,-78.0081 394.609,-83.9364"/>
</g>
<!-- Node6 -->
<g id="node6" class="node"><title>Node6</title>
<polygon fill="white" stroke="#bfbfbf" points="41,-0.5 41,-19.5 93,-19.5 93,-0.5 41,-0.5"/>
<text text-anchor="middle" x="67" y="-7.5" font-family="Helvetica,sans-Serif" font-size="10.00">stddef.h</text>
</g>
<!-- Node5&#45;&gt;Node6 -->
<g id="edge5" class="edge"><title>Node5&#45;&gt;Node6</title>
<path fill="none" stroke="midnightblue" d="M67,-56.083C67,-49.0059 67,-38.8611 67,-29.9865"/>
<polygon fill="midnightblue" stroke="midnightblue" points="70.5001,-29.751 67,-19.7511 63.5001,-29.7511 70.5001,-29.751"/>
</g>
<!-- Node9 -->
<g id="node9" class="node"><title>Node9</title>
<polygon fill="white" stroke="#bfbfbf" points="405,-0.5 405,-19.5 465,-19.5 465,-0.5 405,-0.5"/>
<text text-anchor="middle" x="435" y="-7.5" font-family="Helvetica,sans-Serif" font-size="10.00">wlib/utility</text>
</g>
<!-- Node8&#45;&gt;Node9 -->
<g id="edge8" class="edge"><title>Node8&#45;&gt;Node9</title>
<path fill="none" stroke="midnightblue" d="M346.031,-56.324C363.03,-47.6641 389.376,-34.2424 408.993,-24.249"/>
<polygon fill="midnightblue" stroke="midnightblue" points="410.69,-27.3125 418.012,-19.6545 407.512,-21.0752 410.69,-27.3125"/>
</g>
<!-- Node11&#45;&gt;Node4 -->
<g id="edge12" class="edge"><title>Node11&#45;&gt;Node4</title>
<path fill="none" stroke="midnightblue" d="M313.972,-168.083C316.384,-160.849 319.864,-150.409 322.868,-141.397"/>
<polygon fill="midnightblue" stroke="midnightblue" points="326.241,-142.345 326.083,-131.751 319.6,-140.131 326.241,-142.345"/>
</g>
<!-- Node12&#45;&gt;Node2 -->
<g id="edge14" class="edge"><title>Node12&#45;&gt;Node2</title>
<path fill="none" stroke="midnightblue" d="M474.95,-224.324C463.537,-216.107 446.169,-203.602 432.565,-193.807"/>
<polygon fill="midnightblue" stroke="midnightblue" points="434.43,-190.837 424.269,-187.834 430.34,-196.517 434.43,-190.837"/>
</g>
<!-- Node12&#45;&gt;Node3 -->
<g id="edge19" class="edge"><title>Node12&#45;&gt;Node3</title>
<path fill="none" stroke="midnightblue" d="M486.731,-224.075C485.944,-197.945 483.633,-121.211 482.56,-85.577"/>
<polygon fill="midnightblue" stroke="midnightblue" points="486.058,-85.4582 482.258,-75.5681 479.061,-85.669 486.058,-85.4582"/>
</g>
<!-- Node12&#45;&gt;Node11 -->
<g id="edge15" class="edge"><title>Node12&#45;&gt;Node11</title>
<path fill="none" stroke="midnightblue" d="M459.112,-224.444C429.246,-215.28 381.685,-200.688 348.544,-190.519"/>
<polygon fill="midnightblue" stroke="midnightblue" points="349.344,-187.104 338.757,-187.516 347.291,-193.796 349.344,-187.104"/>
</g>
<!-- Node13 -->
<g id="node13" class="node"><title>Node13</title>
<g id="a_node13"><a xlink:href="../../d4/dda/_pair_8h.html" target="_top" xlink:title="Implementation of a 2&#45;element tuple. ">
<polygon fill="white" stroke="black" points="510,-112.5 510,-131.5 586,-131.5 586,-112.5 510,-112.5"/>
<text text-anchor="middle" x="548" y="-119.5" font-family="Helvetica,sans-Serif" font-size="10.00">wlib/stl/Pair.h</text>
</a>
</g>
</g>
<!-- Node12&#45;&gt;Node13 -->
<g id="edge16" class="edge"><title>Node12&#45;&gt;Node13</title>
<path fill="none" stroke="midnightblue" d="M491.787,-224.368C501.764,-206.376 524.958,-164.55 538.225,-140.627"/>
<polygon fill="midnightblue" stroke="midnightblue" points="541.447,-142.034 543.236,-131.591 535.325,-138.639 541.447,-142.034"/>
</g>
<!-- Node14 -->
<g id="node14" class="node"><title>Node14</title>
<polygon fill="white" stroke="#bfbfbf" points="548,-168.5 548,-187.5 620,-187.5 620,-168.5 548,-168.5"/>
<text text-anchor="middle" x="584" y="-175.5" font-family="Helvetica,sans-Serif" font-size="10.00">wlib/memory</text>
</g>
<!-- Node12&#45;&gt;Node14 -->
<g id="edge18" class="edge"><title>Node12&#45;&gt;Node14</title>
<path fill="none" stroke="midnightblue" d="M502.585,-224.324C517.999,-215.743 541.812,-202.486 559.71,-192.522"/>
<polygon fill="midnightblue" stroke="midnightblue" points="561.419,-195.577 568.454,-187.655 558.014,-189.461 561.419,-195.577"/>
</g>
<!-- Node13&#45;&gt;Node9 -->
<g id="edge17" class="edge"><title>Node13&#45;&gt;Node9</title>
<path fill="none" stroke="midnightblue" d="M545.461,-112.457C541.111,-99.0365 531.112,-72.8131 515,-56 501.761,-42.1844 483.34,-31.4288 467.512,-23.9022"/>
<polygon fill="midnightblue" stroke="midnightblue" points="468.616,-20.5602 458.061,-19.6346 465.735,-26.9399 468.616,-20.5602"/>
</g>
<!-- Node16 -->
<g id="node16" class="node"><title>Node16</title>
<g id="a_node16"><a xlink:href="../../d7/d2a/_tuple_8h.html" target="_top" xlink:title="Template oriented tuple implementation. ">
<polygon fill="white" stroke="black" points="638.5,-168.5 638.5,-187.5 721.5,-187.5 721.5,-168.5 638.5,-168.5"/>
<text text-anchor="middle" x="680" y="-175.5" font-family="Helvetica,sans-Serif" font-size="10.00">wlib/stl/Tuple.h</text>
</a>
</g>
</g>
<!-- Node15&#45;&gt;Node16 -->
<g id="edge21" class="edge"><title>Node15&#45;&gt;Node16</title>
<path fill="none" stroke="midnightblue" d="M648.275,-224.083C653.642,-216.455 661.518,-205.264 668.079,-195.941"/>
<polygon fill="midnightblue" stroke="midnightblue" points="670.949,-197.943 673.842,-187.751 665.225,-193.915 670.949,-197.943"/>
</g>
<!-- Node16&#45;&gt;Node13 -->
<g id="edge23" class="edge"><title>Node16&#45;&gt;Node13</title>
<path fill="none" stroke="midnightblue" d="M659.084,-168.444C637.264,-159.517 602.85,-145.439 578.108,-135.317"/>
<polygon fill="midnightblue" stroke="midnightblue" points="579.399,-132.063 568.818,-131.516 576.748,-138.542 579.399,-132.063"/>
</g>
<!-- Node17 -->
<g id="node17" class="node"><title>Node17</title>
<polygon fill="white" stroke="#bfbfbf" points="607.5,-112.5 607.5,-131.5 744.5,-131.5 744.5,-112.5 607.5,-112.5"/>
<text text-anchor="middle" x="676" y="-119.5" font-family="Helvetica,sans-Serif" font-size="10.00">wlib/tmp/IntegralConstant.h</text>
</g>
<!-- Node16&#45;&gt;Node17 -->
<g id="edge22" class="edge"><title>Node16&#45;&gt;Node17</title>
<path fill="none" stroke="midnightblue" d="M679.339,-168.083C678.815,-161.006 678.064,-150.861 677.406,-141.986"/>
<polygon fill="midnightblue" stroke="midnightblue" points="680.877,-141.465 676.648,-131.751 673.897,-141.982 680.877,-141.465"/>
</g>
<!-- Node18 -->
<g id="node18" class="node"><title>Node18</title>
<polygon fill="white" stroke="#bfbfbf" points="762.5,-112.5 762.5,-131.5 845.5,-131.5 845.5,-112.5 762.5,-112.5"/>
<text text-anchor="middle" x="804" y="-119.5" font-family="Helvetica,sans-Serif" font-size="10.00">wlib/type_traits</text>
</g>
<!-- Node16&#45;&gt;Node18 -->
<g id="edge24" class="edge"><title>Node16&#45;&gt;Node18</title>
<path fill="none" stroke="midnightblue" d="M699.648,-168.444C719.965,-159.596 751.903,-145.687 775.098,-135.586"/>
<polygon fill="midnightblue" stroke="midnightblue" points="776.673,-138.718 784.444,-131.516 773.878,-132.3 776.673,-138.718"/>
</g>
</g>
</svg>
        <g id="navigator" transform="translate(0 0)" fill="#404254">
                <rect fill="#f2f5e9" fill-opacity="0.5" stroke="#606060" stroke-width=".5" x="0" y="0" width="60" height="60"/>
                <use id="zoomplus" xlink:href="#zoomPlus" x="17" y="9" onmousedown="handleZoom(evt,'in')"/>
                <use id="zoomminus" xlink:href="#zoomMin" x="42" y="9" onmousedown="handleZoom(evt,'out')"/>
                <use id="reset" xlink:href="#resetDef" x="30" y="36" onmousedown="handleReset()"/>
                <g id="arrowUp" xlink:href="#dirArrow" transform="translate(30 24)" onmousedown="handlePan(0,-1)">
                  <use xlink:href="#rim" fill="#404040">
                        <set attributeName="fill" to="#808080" begin="arrowUp.mouseover" end="arrowUp.mouseout"/>
                  </use>
                  <path fill="none" stroke="white" stroke-width="1.5" d="M0,-3.0v7 M-2.5,-0.5L0,-3.0L2.5,-0.5"/>
                </g>
                <g id="arrowRight" xlink:href="#dirArrow" transform="rotate(90) translate(36 -43)" onmousedown="handlePan(1,0)">
                  <use xlink:href="#rim" fill="#404040">
                        <set attributeName="fill" to="#808080" begin="arrowRight.mouseover" end="arrowRight.mouseout"/>
                  </use>
                  <path fill="none" stroke="white" stroke-width="1.5" d="M0,-3.0v7 M-2.5,-0.5L0,-3.0L2.5,-0.5"/>
                </g>
                <g id="arrowDown" xlink:href="#dirArrow" transform="rotate(180) translate(-30 -48)" onmousedown="handlePan(0,1)">
                  <use xlink:href="#rim" fill="#404040">
                        <set attributeName="fill" to="#808080" begin="arrowDown.mouseover" end="arrowDown.mouseout"/>
                  </use>
                  <path fill="none" stroke="white" stroke-width="1.5" d="M0,-3.0v7 M-2.5,-0.5L0,-3.0L2.5,-0.5"/>
                </g>
                <g id="arrowLeft" xlink:href="#dirArrow" transform="rotate(270) translate(-36 17)" onmousedown="handlePan(-1,0)">
                  <use xlink:href="#rim" fill="#404040">
                        <set attributeName="fill" to="#808080" begin="arrowLeft.mouseover" end="arrowLeft.mouseout"/>
                  </use>
                  <path fill="none" stroke="white" stroke-width="1.5" d="M0,-3.0v7 M-2.5,-0.5L0,-3.0L2.5,-0.5"/>
                </g>
        </g>
        <svg viewBox="0 0 15 15" width="100%" height="30px" preserveAspectRatio="xMaxYMin meet">
         <g id="arrow_out" transform="scale(0.3 0.3)">
          <a xlink:href="_hash_set_8h__incl_org.svg" target="_base">
           <rect id="button" ry="5" rx="5" y="6" x="6" height="38" width="38"
                fill="#f2f5e9" fill-opacity="0.5" stroke="#606060" stroke-width="1.0"/>
           <path id="arrow"
             d="M 11.500037,31.436501 C 11.940474,20.09759 22.043105,11.32322 32.158766,21.979434 L 37.068811,17.246167 C 37.068811,17.246167 37.088388,32 37.088388,32 L 22.160133,31.978069 C 22.160133,31.978069 26.997745,27.140456 26.997745,27.140456 C 18.528582,18.264221 13.291696,25.230495 11.500037,31.436501 z"
             style="fill:#404040;"/>
          </a>
         </g>
        </svg>
</svg>
