<?xml version="1.0" encoding="UTF-8" standalone="no"?>
<!DOCTYPE svg PUBLIC "-//W3C//DTD SVG 1.1//EN"
 "http://www.w3.org/Graphics/SVG/1.1/DTD/svg11.dtd">
<!-- Generated by graphviz version 2.36.0 (20140111.2315)
 -->
<!-- Title: wlib/stl/Hash.h Pages: 1 -->
<!--zoomable 476 -->
<svg id="main" version="1.1" xmlns="http://www.w3.org/2000/svg" xmlns:xlink="http://www.w3.org/1999/xlink" xml:space="preserve" onload="init(evt)">
<style type="text/css"><![CDATA[
.edge:hover path { stroke: red; }
.edge:hover polygon { stroke: red; fill: red; }
]]></style>
<script type="text/javascript"><![CDATA[
var edges = document.getElementsByTagName('g');
if (edges && edges.length) {
  for (var i=0;i<edges.length;i++) {
    if (edges[i].id.substr(0,4)=='edge') {
      edges[i].setAttribute('class','edge');
    }
  }
}
]]></script>
        <defs>
                <circle id="rim" cx="0" cy="0" r="7"/>
                <circle id="rim2" cx="0" cy="0" r="3.5"/>
                <g id="zoomPlus">
                        <use xlink:href="#rim" fill="#404040">
                                <set attributeName="fill" to="#808080" begin="zoomplus.mouseover" end="zoomplus.mouseout"/>
                        </use>
                        <path d="M-4,0h8M0,-4v8" fill="none" stroke="white" stroke-width="1.5" pointer-events="none"/>
                </g>
                <g id="zoomMin">
                        <use xlink:href="#rim" fill="#404040">
                                <set attributeName="fill" to="#808080" begin="zoomminus.mouseover" end="zoomminus.mouseout"/>
                        </use>
                        <path d="M-4,0h8" fill="none" stroke="white" stroke-width="1.5" pointer-events="none"/>
                </g>
                <g id="dirArrow">
                        <path fill="none" stroke="white" stroke-width="1.5" d="M0,-3.0v7 M-2.5,-0.5L0,-3.0L2.5,-0.5"/>
                </g>
               <g id="resetDef">
                       <use xlink:href="#rim2" fill="#404040">
                               <set attributeName="fill" to="#808080" begin="reset.mouseover" end="reset.mouseout"/>
                       </use>
               </g>
        </defs>

<script type="text/javascript">
var viewWidth = 627;
var viewHeight = 476;
var sectionId = 'dynsection-0';
</script>
<script xlink:href="../../svgpan.js"/>
<svg id="graph" class="graph">
<g id="viewport">
<title>wlib/stl/Hash.h</title>
<polygon fill="white" stroke="none" points="-4,4 -4,-472 623,-472 623,4 -4,4"/>
<!-- Node1 -->
<g id="node1" class="node"><title>Node1</title>
<polygon fill="#bfbfbf" stroke="black" points="72,-448.5 72,-467.5 154,-467.5 154,-448.5 72,-448.5"/>
<text text-anchor="middle" x="113" y="-455.5" font-family="Helvetica,sans-Serif" font-size="10.00">wlib/stl/Hash.h</text>
</g>
<!-- Node2 -->
<g id="node2" class="node"><title>Node2</title>
<g id="a_node2"><a xlink:href="../../d0/db6/_types_8h.html" target="_top" xlink:title="type definition of all the string types we will be using ">
<polygon fill="white" stroke="black" points="180,-56.5 180,-75.5 252,-75.5 252,-56.5 180,-56.5"/>
<text text-anchor="middle" x="216" y="-63.5" font-family="Helvetica,sans-Serif" font-size="10.00">wlib/Types.h</text>
</a>
</g>
</g>
<!-- Node1&#45;&gt;Node2 -->
<g id="edge1" class="edge"><title>Node1&#45;&gt;Node2</title>
<path fill="none" stroke="midnightblue" d="M79.9838,-448.354C60.0326,-441.541 35.5376,-430.102 20,-412 0.313666,-389.065 0,-377.225 0,-347 0,-347 0,-347 0,-177 0,-101.459 106.203,-77.7715 169.67,-70.3606"/>
<polygon fill="midnightblue" stroke="midnightblue" points="170.277,-73.8156 179.846,-69.268 169.53,-66.8555 170.277,-73.8156"/>
</g>
<!-- Node4 -->
<g id="node4" class="node"><title>Node4</title>
<g id="a_node4"><a xlink:href="../../d2/ddf/_wlib_config_8h.html" target="_top" xlink:title="Some basic definitions for compilers. ">
<polygon fill="white" stroke="black" points="29.5,-392.5 29.5,-411.5 122.5,-411.5 122.5,-392.5 29.5,-392.5"/>
<text text-anchor="middle" x="76" y="-399.5" font-family="Helvetica,sans-Serif" font-size="10.00">wlib/WlibConfig.h</text>
</a>
</g>
</g>
<!-- Node1&#45;&gt;Node4 -->
<g id="edge3" class="edge"><title>Node1&#45;&gt;Node4</title>
<path fill="none" stroke="midnightblue" d="M106.89,-448.083C101.718,-440.534 94.1539,-429.495 87.8056,-420.23"/>
<polygon fill="midnightblue" stroke="midnightblue" points="90.5357,-418.022 81.9961,-411.751 84.7612,-421.979 90.5357,-418.022"/>
</g>
<!-- Node5 -->
<g id="node5" class="node"><title>Node5</title>
<g id="a_node5"><a xlink:href="../../da/db8/_math_8h.html" target="_top" xlink:title="wlib/utility/Math.h">
<polygon fill="white" stroke="black" points="104.5,-336.5 104.5,-355.5 197.5,-355.5 197.5,-336.5 104.5,-336.5"/>
<text text-anchor="middle" x="151" y="-343.5" font-family="Helvetica,sans-Serif" font-size="10.00">wlib/utility/Math.h</text>
</a>
</g>
</g>
<!-- Node1&#45;&gt;Node5 -->
<g id="edge4" class="edge"><title>Node1&#45;&gt;Node5</title>
<path fill="none" stroke="midnightblue" d="M116.662,-448.453C120.458,-439.459 126.461,-424.853 131,-412 136.468,-396.518 141.897,-378.676 145.716,-365.606"/>
<polygon fill="midnightblue" stroke="midnightblue" points="149.105,-366.485 148.511,-355.907 142.379,-364.547 149.105,-366.485"/>
</g>
<!-- Node6 -->
<g id="node6" class="node"><title>Node6</title>
<g id="a_node6"><a xlink:href="../../db/db5/_string_8h.html" target="_top" xlink:title="wlib/strings/String.h">
<polygon fill="white" stroke="black" points="280.5,-392.5 280.5,-411.5 383.5,-411.5 383.5,-392.5 280.5,-392.5"/>
<text text-anchor="middle" x="332" y="-399.5" font-family="Helvetica,sans-Serif" font-size="10.00">wlib/strings/String.h</text>
</a>
</g>
</g>
<!-- Node1&#45;&gt;Node6 -->
<g id="edge5" class="edge"><title>Node1&#45;&gt;Node6</title>
<path fill="none" stroke="midnightblue" d="M147.701,-448.444C185.585,-439.102 246.349,-424.119 287.662,-413.933"/>
<polygon fill="midnightblue" stroke="midnightblue" points="288.59,-417.309 297.461,-411.516 286.914,-410.512 288.59,-417.309"/>
</g>
<!-- Node3 -->
<g id="node3" class="node"><title>Node3</title>
<polygon fill="white" stroke="#bfbfbf" points="191.5,-0.5 191.5,-19.5 240.5,-19.5 240.5,-0.5 191.5,-0.5"/>
<text text-anchor="middle" x="216" y="-7.5" font-family="Helvetica,sans-Serif" font-size="10.00">stdint.h</text>
</g>
<!-- Node2&#45;&gt;Node3 -->
<g id="edge2" class="edge"><title>Node2&#45;&gt;Node3</title>
<path fill="none" stroke="midnightblue" d="M216,-56.083C216,-49.0059 216,-38.8611 216,-29.9865"/>
<polygon fill="midnightblue" stroke="midnightblue" points="219.5,-29.751 216,-19.7511 212.5,-29.7511 219.5,-29.751"/>
</g>
<!-- Node6&#45;&gt;Node2 -->
<g id="edge18" class="edge"><title>Node6&#45;&gt;Node2</title>
<path fill="none" stroke="midnightblue" d="M381.992,-392.457C464.219,-376.971 619,-341.159 619,-291 619,-291 619,-291 619,-177 619,-103.742 368.028,-77.6036 262.194,-69.8381"/>
<polygon fill="midnightblue" stroke="midnightblue" points="262.341,-66.3398 252.118,-69.1224 261.845,-73.3222 262.341,-66.3398"/>
</g>
<!-- Node6&#45;&gt;Node5 -->
<g id="edge19" class="edge"><title>Node6&#45;&gt;Node5</title>
<path fill="none" stroke="midnightblue" d="M303.32,-392.444C272.473,-383.241 223.272,-368.562 189.171,-358.388"/>
<polygon fill="midnightblue" stroke="midnightblue" points="190.129,-355.021 179.546,-355.516 188.128,-361.729 190.129,-355.021"/>
</g>
<!-- Node7 -->
<g id="node7" class="node"><title>Node7</title>
<polygon fill="white" stroke="#bfbfbf" points="541.5,-168.5 541.5,-187.5 590.5,-187.5 590.5,-168.5 541.5,-168.5"/>
<text text-anchor="middle" x="566" y="-175.5" font-family="Helvetica,sans-Serif" font-size="10.00">string.h</text>
</g>
<!-- Node6&#45;&gt;Node7 -->
<g id="edge6" class="edge"><title>Node6&#45;&gt;Node7</title>
<path fill="none" stroke="midnightblue" d="M341.173,-392.297C376.486,-358.796 503.938,-237.88 549.59,-194.569"/>
<polygon fill="midnightblue" stroke="midnightblue" points="552.045,-197.064 556.89,-187.643 547.227,-191.986 552.045,-197.064"/>
</g>
<!-- Node8 -->
<g id="node8" class="node"><title>Node8</title>
<g id="a_node8"><a xlink:href="../../de/d0b/_string_iterator_8h.html" target="_top" xlink:title="wlib/strings/StringIterator.h">
<polygon fill="white" stroke="black" points="216,-336.5 216,-355.5 350,-355.5 350,-336.5 216,-336.5"/>
<text text-anchor="middle" x="283" y="-343.5" font-family="Helvetica,sans-Serif" font-size="10.00">wlib/strings/StringIterator.h</text>
</a>
</g>
</g>
<!-- Node6&#45;&gt;Node8 -->
<g id="edge7" class="edge"><title>Node6&#45;&gt;Node8</title>
<path fill="none" stroke="midnightblue" d="M323.909,-392.083C316.845,-384.298 306.412,-372.801 297.851,-363.367"/>
<polygon fill="midnightblue" stroke="midnightblue" points="300.253,-360.805 290.941,-355.751 295.069,-365.509 300.253,-360.805"/>
</g>
<!-- Node15 -->
<g id="node15" class="node"><title>Node15</title>
<g id="a_node15"><a xlink:href="../../d3/de6/_memory_8h.html" target="_top" xlink:title="Memory is a class that provides dynamic fixed size memory. ">
<polygon fill="white" stroke="black" points="351.5,-224.5 351.5,-243.5 470.5,-243.5 470.5,-224.5 351.5,-224.5"/>
<text text-anchor="middle" x="411" y="-231.5" font-family="Helvetica,sans-Serif" font-size="10.00">wlib/memory/Memory.h</text>
</a>
</g>
</g>
<!-- Node6&#45;&gt;Node15 -->
<g id="edge20" class="edge"><title>Node6&#45;&gt;Node15</title>
<path fill="none" stroke="midnightblue" d="M337.741,-392.236C343.471,-383.31 352.357,-368.976 359,-356 377.161,-320.524 394.698,-277.263 404.042,-253.264"/>
<polygon fill="midnightblue" stroke="midnightblue" points="407.401,-254.28 407.731,-243.691 400.869,-251.763 407.401,-254.28"/>
</g>
<!-- Node8&#45;&gt;Node2 -->
<g id="edge8" class="edge"><title>Node8&#45;&gt;Node2</title>
<path fill="none" stroke="midnightblue" d="M245.79,-336.468C177.252,-319.666 38,-279.993 38,-235 38,-235 38,-235 38,-177 38,-114.887 117.402,-86.6748 170.143,-74.7866"/>
<polygon fill="midnightblue" stroke="midnightblue" points="170.93,-78.1974 179.979,-72.6868 169.469,-71.3517 170.93,-78.1974"/>
</g>
<!-- Node9 -->
<g id="node9" class="node"><title>Node9</title>
<g id="a_node9"><a xlink:href="../../d8/dd7/_concept_8h.html" target="_top" xlink:title="Concept definitions. ">
<polygon fill="white" stroke="black" points="156.5,-280.5 156.5,-299.5 251.5,-299.5 251.5,-280.5 156.5,-280.5"/>
<text text-anchor="middle" x="204" y="-287.5" font-family="Helvetica,sans-Serif" font-size="10.00">wlib/stl/Concept.h</text>
</a>
</g>
</g>
<!-- Node8&#45;&gt;Node9 -->
<g id="edge9" class="edge"><title>Node8&#45;&gt;Node9</title>
<path fill="none" stroke="midnightblue" d="M270.307,-336.324C258.099,-327.979 239.422,-315.212 224.997,-305.352"/>
<polygon fill="midnightblue" stroke="midnightblue" points="226.892,-302.408 216.661,-299.655 222.942,-308.187 226.892,-302.408"/>
</g>
<!-- Node10 -->
<g id="node10" class="node"><title>Node10</title>
<g id="a_node10"><a xlink:href="../../d2/db4/_wlib_8h.html" target="_top" xlink:title="wlib/Wlib.h">
<polygon fill="white" stroke="black" points="110.5,-224.5 110.5,-243.5 175.5,-243.5 175.5,-224.5 110.5,-224.5"/>
<text text-anchor="middle" x="143" y="-231.5" font-family="Helvetica,sans-Serif" font-size="10.00">wlib/Wlib.h</text>
</a>
</g>
</g>
<!-- Node9&#45;&gt;Node10 -->
<g id="edge10" class="edge"><title>Node9&#45;&gt;Node10</title>
<path fill="none" stroke="midnightblue" d="M194.199,-280.324C185.182,-272.341 171.594,-260.313 160.682,-250.653"/>
<polygon fill="midnightblue" stroke="midnightblue" points="162.787,-247.842 152.979,-243.834 158.147,-253.083 162.787,-247.842"/>
</g>
<!-- Node11 -->
<g id="node11" class="node"><title>Node11</title>
<g id="a_node11"><a xlink:href="../../d4/dda/_pair_8h.html" target="_top" xlink:title="Implementation of a 2&#45;element tuple. ">
<polygon fill="white" stroke="black" points="235,-224.5 235,-243.5 311,-243.5 311,-224.5 235,-224.5"/>
<text text-anchor="middle" x="273" y="-231.5" font-family="Helvetica,sans-Serif" font-size="10.00">wlib/stl/Pair.h</text>
</a>
</g>
</g>
<!-- Node9&#45;&gt;Node11 -->
<g id="edge11" class="edge"><title>Node9&#45;&gt;Node11</title>
<path fill="none" stroke="midnightblue" d="M215.086,-280.324C225.486,-272.185 241.261,-259.839 253.722,-250.087"/>
<polygon fill="midnightblue" stroke="midnightblue" points="255.994,-252.753 261.712,-243.834 251.68,-247.241 255.994,-252.753"/>
</g>
<!-- Node13 -->
<g id="node13" class="node"><title>Node13</title>
<g id="a_node13"><a xlink:href="../../d2/d37/_tmp_8h.html" target="_top" xlink:title="Template helper types, structs, and metafunctions. ">
<polygon fill="white" stroke="black" points="170.5,-112.5 170.5,-131.5 261.5,-131.5 261.5,-112.5 170.5,-112.5"/>
<text text-anchor="middle" x="216" y="-119.5" font-family="Helvetica,sans-Serif" font-size="10.00">wlib/utility/Tmp.h</text>
</a>
</g>
</g>
<!-- Node9&#45;&gt;Node13 -->
<g id="edge17" class="edge"><title>Node9&#45;&gt;Node13</title>
<path fill="none" stroke="midnightblue" d="M159.667,-280.461C138.543,-274.043 114.907,-262.961 101,-244 80.9611,-216.678 75.6626,-195.823 95,-168 109.84,-146.648 136.08,-135.407 160.34,-129.498"/>
<polygon fill="midnightblue" stroke="midnightblue" points="161.193,-132.894 170.219,-127.347 159.703,-126.054 161.193,-132.894"/>
</g>
<!-- Node14 -->
<g id="node14" class="node"><title>Node14</title>
<g id="a_node14"><a xlink:href="../../d4/dd5/_type_traits_8h.html" target="_top" xlink:title="Metafunctions for types. ">
<polygon fill="white" stroke="black" points="104.5,-168.5 104.5,-187.5 209.5,-187.5 209.5,-168.5 104.5,-168.5"/>
<text text-anchor="middle" x="157" y="-175.5" font-family="Helvetica,sans-Serif" font-size="10.00">wlib/stl/TypeTraits.h</text>
</a>
</g>
</g>
<!-- Node9&#45;&gt;Node14 -->
<g id="edge15" class="edge"><title>Node9&#45;&gt;Node14</title>
<path fill="none" stroke="midnightblue" d="M202.047,-280.347C199.027,-267.66 192.655,-243.41 184,-224 179.733,-214.431 173.851,-204.378 168.666,-196.207"/>
<polygon fill="midnightblue" stroke="midnightblue" points="171.448,-194.066 163.038,-187.622 165.593,-197.904 171.448,-194.066"/>
</g>
<!-- Node12 -->
<g id="node12" class="node"><title>Node12</title>
<g id="a_node12"><a xlink:href="../../db/d2a/_utility_8h.html" target="_top" xlink:title="Various helper functions. ">
<polygon fill="white" stroke="black" points="227.5,-168.5 227.5,-187.5 324.5,-187.5 324.5,-168.5 227.5,-168.5"/>
<text text-anchor="middle" x="276" y="-175.5" font-family="Helvetica,sans-Serif" font-size="10.00">wlib/utility/Utility.h</text>
</a>
</g>
</g>
<!-- Node11&#45;&gt;Node12 -->
<g id="edge12" class="edge"><title>Node11&#45;&gt;Node12</title>
<path fill="none" stroke="midnightblue" d="M273.495,-224.083C273.889,-217.006 274.452,-206.861 274.945,-197.986"/>
<polygon fill="midnightblue" stroke="midnightblue" points="278.454,-197.93 275.514,-187.751 271.464,-197.542 278.454,-197.93"/>
</g>
<!-- Node12&#45;&gt;Node13 -->
<g id="edge13" class="edge"><title>Node12&#45;&gt;Node13</title>
<path fill="none" stroke="midnightblue" d="M266.36,-168.324C257.49,-160.341 244.125,-148.313 233.392,-138.653"/>
<polygon fill="midnightblue" stroke="midnightblue" points="235.59,-135.922 225.815,-131.834 230.907,-141.125 235.59,-135.922"/>
</g>
<!-- Node13&#45;&gt;Node2 -->
<g id="edge14" class="edge"><title>Node13&#45;&gt;Node2</title>
<path fill="none" stroke="midnightblue" d="M216,-112.083C216,-105.006 216,-94.8611 216,-85.9865"/>
<polygon fill="midnightblue" stroke="midnightblue" points="219.5,-85.751 216,-75.7511 212.5,-85.7511 219.5,-85.751"/>
</g>
<!-- Node14&#45;&gt;Node13 -->
<g id="edge16" class="edge"><title>Node14&#45;&gt;Node13</title>
<path fill="none" stroke="midnightblue" d="M166.479,-168.324C175.201,-160.341 188.343,-148.313 198.898,-138.653"/>
<polygon fill="midnightblue" stroke="midnightblue" points="201.334,-141.167 206.348,-131.834 196.608,-136.004 201.334,-141.167"/>
</g>
<!-- Node15&#45;&gt;Node2 -->
<g id="edge22" class="edge"><title>Node15&#45;&gt;Node2</title>
<path fill="none" stroke="midnightblue" d="M439.122,-224.454C469.644,-213.665 511.801,-193.407 494,-168 441.386,-92.9064 326.92,-73.4312 262.483,-68.5203"/>
<polygon fill="midnightblue" stroke="midnightblue" points="262.418,-65.0081 252.205,-67.8284 261.948,-71.9923 262.418,-65.0081"/>
</g>
<!-- Node15&#45;&gt;Node7 -->
<g id="edge21" class="edge"><title>Node15&#45;&gt;Node7</title>
<path fill="none" stroke="midnightblue" d="M435.56,-224.444C461.523,-215.399 502.668,-201.064 531.797,-190.916"/>
<polygon fill="midnightblue" stroke="midnightblue" points="533.263,-194.112 541.555,-187.516 530.96,-187.501 533.263,-194.112"/>
</g>
<!-- Node15&#45;&gt;Node12 -->
<g id="edge23" class="edge"><title>Node15&#45;&gt;Node12</title>
<path fill="none" stroke="midnightblue" d="M389.609,-224.444C367.293,-215.517 332.097,-201.439 306.792,-191.317"/>
<polygon fill="midnightblue" stroke="midnightblue" points="307.876,-187.981 297.291,-187.516 305.276,-194.48 307.876,-187.981"/>
</g>
<!-- Node15&#45;&gt;Node13 -->
<g id="edge24" class="edge"><title>Node15&#45;&gt;Node13</title>
<path fill="none" stroke="midnightblue" d="M402.598,-224.365C389.027,-210.817 360.969,-184.423 333,-168 308.697,-153.729 279.042,-142.381 255.669,-134.651"/>
<polygon fill="midnightblue" stroke="midnightblue" points="256.662,-131.294 246.071,-131.561 254.517,-137.957 256.662,-131.294"/>
</g>
<!-- Node16 -->
<g id="node16" class="node"><title>Node16</title>
<g id="a_node16"><a xlink:href="../../d9/d8a/_new_8h.html" target="_top" xlink:title="New operators defined for Arduino boards and for other boards use the normal new. ...">
<polygon fill="white" stroke="black" points="381,-168.5 381,-187.5 485,-187.5 485,-168.5 381,-168.5"/>
<text text-anchor="middle" x="433" y="-175.5" font-family="Helvetica,sans-Serif" font-size="10.00">wlib/memory/New.h</text>
</a>
</g>
</g>
<!-- Node15&#45;&gt;Node16 -->
<g id="edge25" class="edge"><title>Node15&#45;&gt;Node16</title>
<path fill="none" stroke="midnightblue" d="M414.633,-224.083C417.612,-216.77 421.926,-206.181 425.625,-197.103"/>
<polygon fill="midnightblue" stroke="midnightblue" points="428.903,-198.333 429.435,-187.751 422.42,-195.691 428.903,-198.333"/>
</g>
</g>
</svg>
        <g id="navigator" transform="translate(0 0)" fill="#404254">
                <rect fill="#f2f5e9" fill-opacity="0.5" stroke="#606060" stroke-width=".5" x="0" y="0" width="60" height="60"/>
                <use id="zoomplus" xlink:href="#zoomPlus" x="17" y="9" onmousedown="handleZoom(evt,'in')"/>
                <use id="zoomminus" xlink:href="#zoomMin" x="42" y="9" onmousedown="handleZoom(evt,'out')"/>
                <use id="reset" xlink:href="#resetDef" x="30" y="36" onmousedown="handleReset()"/>
                <g id="arrowUp" xlink:href="#dirArrow" transform="translate(30 24)" onmousedown="handlePan(0,-1)">
                  <use xlink:href="#rim" fill="#404040">
                        <set attributeName="fill" to="#808080" begin="arrowUp.mouseover" end="arrowUp.mouseout"/>
                  </use>
                  <path fill="none" stroke="white" stroke-width="1.5" d="M0,-3.0v7 M-2.5,-0.5L0,-3.0L2.5,-0.5"/>
                </g>
                <g id="arrowRight" xlink:href="#dirArrow" transform="rotate(90) translate(36 -43)" onmousedown="handlePan(1,0)">
                  <use xlink:href="#rim" fill="#404040">
                        <set attributeName="fill" to="#808080" begin="arrowRight.mouseover" end="arrowRight.mouseout"/>
                  </use>
                  <path fill="none" stroke="white" stroke-width="1.5" d="M0,-3.0v7 M-2.5,-0.5L0,-3.0L2.5,-0.5"/>
                </g>
                <g id="arrowDown" xlink:href="#dirArrow" transform="rotate(180) translate(-30 -48)" onmousedown="handlePan(0,1)">
                  <use xlink:href="#rim" fill="#404040">
                        <set attributeName="fill" to="#808080" begin="arrowDown.mouseover" end="arrowDown.mouseout"/>
                  </use>
                  <path fill="none" stroke="white" stroke-width="1.5" d="M0,-3.0v7 M-2.5,-0.5L0,-3.0L2.5,-0.5"/>
                </g>
                <g id="arrowLeft" xlink:href="#dirArrow" transform="rotate(270) translate(-36 17)" onmousedown="handlePan(-1,0)">
                  <use xlink:href="#rim" fill="#404040">
                        <set attributeName="fill" to="#808080" begin="arrowLeft.mouseover" end="arrowLeft.mouseout"/>
                  </use>
                  <path fill="none" stroke="white" stroke-width="1.5" d="M0,-3.0v7 M-2.5,-0.5L0,-3.0L2.5,-0.5"/>
                </g>
        </g>
        <svg viewBox="0 0 15 15" width="100%" height="30px" preserveAspectRatio="xMaxYMin meet">
         <g id="arrow_out" transform="scale(0.3 0.3)">
          <a xlink:href="_hash_8h__incl_org.svg" target="_base">
           <rect id="button" ry="5" rx="5" y="6" x="6" height="38" width="38"
                fill="#f2f5e9" fill-opacity="0.5" stroke="#606060" stroke-width="1.0"/>
           <path id="arrow"
             d="M 11.500037,31.436501 C 11.940474,20.09759 22.043105,11.32322 32.158766,21.979434 L 37.068811,17.246167 C 37.068811,17.246167 37.088388,32 37.088388,32 L 22.160133,31.978069 C 22.160133,31.978069 26.997745,27.140456 26.997745,27.140456 C 18.528582,18.264221 13.291696,25.230495 11.500037,31.436501 z"
             style="fill:#404040;"/>
          </a>
         </g>
        </svg>
</svg>
