<?xml version="1.0" encoding="UTF-8" standalone="no"?>
<!DOCTYPE svg PUBLIC "-//W3C//DTD SVG 1.1//EN"
 "http://www.w3.org/Graphics/SVG/1.1/DTD/svg11.dtd">
<!-- Generated by graphviz version 2.36.0 (20140111.2315)
 -->
<!-- Title: stl/Hash.h Pages: 1 -->
<svg width="523pt" height="476pt"
 viewBox="0.00 0.00 523.00 476.00" xmlns="http://www.w3.org/2000/svg" xmlns:xlink="http://www.w3.org/1999/xlink">
<g id="graph0" class="graph" transform="scale(1 1) rotate(0) translate(4 472)">
<title>stl/Hash.h</title>
<polygon fill="white" stroke="none" points="-4,4 -4,-472 519,-472 519,4 -4,4"/>
<!-- Node1 -->
<g id="node1" class="node"><title>Node1</title>
<polygon fill="#bfbfbf" stroke="black" points="249,-448.5 249,-467.5 311,-467.5 311,-448.5 249,-448.5"/>
<text text-anchor="middle" x="280" y="-455.5" font-family="Helvetica,sans-Serif" font-size="10.00">stl/Hash.h</text>
</g>
<!-- Node2 -->
<g id="node2" class="node"><title>Node2</title>
<g id="a_node2"><a xlink:href="../../d0/db6/_types_8h.html" target="_top" xlink:title="type definition of all the string types we will be using ">
<polygon fill="white" stroke="black" points="277.5,-56.5 277.5,-75.5 338.5,-75.5 338.5,-56.5 277.5,-56.5"/>
<text text-anchor="middle" x="308" y="-63.5" font-family="Helvetica,sans-Serif" font-size="10.00">../Types.h</text>
</a>
</g>
</g>
<!-- Node1&#45;&gt;Node2 -->
<g id="edge1" class="edge"><title>Node1&#45;&gt;Node2</title>
<path fill="none" stroke="midnightblue" d="M311.206,-456.33C375.131,-453.132 515,-435.968 515,-347 515,-347 515,-347 515,-177 515,-102.366 408.771,-78.2129 348.511,-70.5155"/>
<polygon fill="midnightblue" stroke="midnightblue" points="348.885,-67.0355 338.544,-69.3383 348.064,-73.9872 348.885,-67.0355"/>
</g>
<!-- Node4 -->
<g id="node4" class="node"><title>Node4</title>
<g id="a_node4"><a xlink:href="../../d2/ddf/_wlib_config_8h.html" target="_top" xlink:title="Some basic definitions for compilers. ">
<polygon fill="white" stroke="black" points="187,-392.5 187,-411.5 269,-411.5 269,-392.5 187,-392.5"/>
<text text-anchor="middle" x="228" y="-399.5" font-family="Helvetica,sans-Serif" font-size="10.00">../WlibConfig.h</text>
</a>
</g>
</g>
<!-- Node1&#45;&gt;Node4 -->
<g id="edge3" class="edge"><title>Node1&#45;&gt;Node4</title>
<path fill="none" stroke="midnightblue" d="M271.413,-448.083C263.841,-440.22 252.622,-428.569 243.486,-419.081"/>
<polygon fill="midnightblue" stroke="midnightblue" points="245.885,-416.527 236.427,-411.751 240.842,-421.382 245.885,-416.527"/>
</g>
<!-- Node5 -->
<g id="node5" class="node"><title>Node5</title>
<g id="a_node5"><a xlink:href="../../da/db8/_math_8h.html" target="_top" xlink:title="../utility/Math.h">
<polygon fill="white" stroke="black" points="118,-336.5 118,-355.5 200,-355.5 200,-336.5 118,-336.5"/>
<text text-anchor="middle" x="159" y="-343.5" font-family="Helvetica,sans-Serif" font-size="10.00">../utility/Math.h</text>
</a>
</g>
</g>
<!-- Node1&#45;&gt;Node5 -->
<g id="edge4" class="edge"><title>Node1&#45;&gt;Node5</title>
<path fill="none" stroke="midnightblue" d="M248.59,-450.601C225.936,-444.414 196.247,-432.811 178,-412 166.747,-399.165 162.146,-379.982 160.272,-365.779"/>
<polygon fill="midnightblue" stroke="midnightblue" points="163.741,-365.282 159.279,-355.673 156.774,-365.967 163.741,-365.282"/>
</g>
<!-- Node6 -->
<g id="node6" class="node"><title>Node6</title>
<g id="a_node6"><a xlink:href="../../db/db5/_string_8h.html" target="_top" xlink:title="../strings/String.h">
<polygon fill="white" stroke="black" points="287,-392.5 287,-411.5 379,-411.5 379,-392.5 287,-392.5"/>
<text text-anchor="middle" x="333" y="-399.5" font-family="Helvetica,sans-Serif" font-size="10.00">../strings/String.h</text>
</a>
</g>
</g>
<!-- Node1&#45;&gt;Node6 -->
<g id="edge5" class="edge"><title>Node1&#45;&gt;Node6</title>
<path fill="none" stroke="midnightblue" d="M288.752,-448.083C296.47,-440.22 307.905,-428.569 317.217,-419.081"/>
<polygon fill="midnightblue" stroke="midnightblue" points="319.904,-421.34 324.411,-411.751 314.908,-416.436 319.904,-421.34"/>
</g>
<!-- Node3 -->
<g id="node3" class="node"><title>Node3</title>
<polygon fill="white" stroke="#bfbfbf" points="283.5,-0.5 283.5,-19.5 332.5,-19.5 332.5,-0.5 283.5,-0.5"/>
<text text-anchor="middle" x="308" y="-7.5" font-family="Helvetica,sans-Serif" font-size="10.00">stdint.h</text>
</g>
<!-- Node2&#45;&gt;Node3 -->
<g id="edge2" class="edge"><title>Node2&#45;&gt;Node3</title>
<path fill="none" stroke="midnightblue" d="M308,-56.083C308,-49.0059 308,-38.8611 308,-29.9865"/>
<polygon fill="midnightblue" stroke="midnightblue" points="311.5,-29.751 308,-19.7511 304.5,-29.7511 311.5,-29.751"/>
</g>
<!-- Node6&#45;&gt;Node2 -->
<g id="edge18" class="edge"><title>Node6&#45;&gt;Node2</title>
<path fill="none" stroke="midnightblue" d="M364.246,-392.415C406.597,-378.655 477,-347.313 477,-291 477,-291 477,-291 477,-177 477,-115.918 398.495,-87.0006 348.497,-74.7775"/>
<polygon fill="midnightblue" stroke="midnightblue" points="349.137,-71.333 338.605,-72.4839 347.556,-78.1521 349.137,-71.333"/>
</g>
<!-- Node6&#45;&gt;Node5 -->
<g id="edge19" class="edge"><title>Node6&#45;&gt;Node5</title>
<path fill="none" stroke="midnightblue" d="M305.429,-392.444C275.903,-383.28 228.882,-368.688 196.117,-358.519"/>
<polygon fill="midnightblue" stroke="midnightblue" points="197.03,-355.138 186.442,-355.516 194.955,-361.823 197.03,-355.138"/>
</g>
<!-- Node7 -->
<g id="node7" class="node"><title>Node7</title>
<polygon fill="white" stroke="#bfbfbf" points="399.5,-168.5 399.5,-187.5 448.5,-187.5 448.5,-168.5 399.5,-168.5"/>
<text text-anchor="middle" x="424" y="-175.5" font-family="Helvetica,sans-Serif" font-size="10.00">string.h</text>
</g>
<!-- Node6&#45;&gt;Node7 -->
<g id="edge6" class="edge"><title>Node6&#45;&gt;Node7</title>
<path fill="none" stroke="midnightblue" d="M336.567,-392.297C350.014,-359.494 397.814,-242.884 416.467,-197.377"/>
<polygon fill="midnightblue" stroke="midnightblue" points="419.804,-198.464 420.358,-187.884 413.327,-195.809 419.804,-198.464"/>
</g>
<!-- Node8 -->
<g id="node8" class="node"><title>Node8</title>
<g id="a_node8"><a xlink:href="../../de/d0b/_string_iterator_8h.html" target="_top" xlink:title="StringIterator.h">
<polygon fill="white" stroke="black" points="218.5,-336.5 218.5,-355.5 299.5,-355.5 299.5,-336.5 218.5,-336.5"/>
<text text-anchor="middle" x="259" y="-343.5" font-family="Helvetica,sans-Serif" font-size="10.00">StringIterator.h</text>
</a>
</g>
</g>
<!-- Node6&#45;&gt;Node8 -->
<g id="edge7" class="edge"><title>Node6&#45;&gt;Node8</title>
<path fill="none" stroke="midnightblue" d="M321.111,-392.324C309.85,-384.107 292.713,-371.602 279.291,-361.807"/>
<polygon fill="midnightblue" stroke="midnightblue" points="281.247,-358.901 271.106,-355.834 277.12,-364.556 281.247,-358.901"/>
</g>
<!-- Node15 -->
<g id="node15" class="node"><title>Node15</title>
<g id="a_node15"><a xlink:href="../../d3/de6/_memory_8h.html" target="_top" xlink:title="Memory is a class that provides dynamic fixed size memory. ">
<polygon fill="white" stroke="black" points="262.5,-224.5 262.5,-243.5 369.5,-243.5 369.5,-224.5 262.5,-224.5"/>
<text text-anchor="middle" x="316" y="-231.5" font-family="Helvetica,sans-Serif" font-size="10.00">../memory/Memory.h</text>
</a>
</g>
</g>
<!-- Node6&#45;&gt;Node15 -->
<g id="edge20" class="edge"><title>Node6&#45;&gt;Node15</title>
<path fill="none" stroke="midnightblue" d="M332.086,-392.075C329.41,-365.945 321.552,-289.211 317.902,-253.577"/>
<polygon fill="midnightblue" stroke="midnightblue" points="321.378,-253.159 316.877,-243.568 314.415,-253.873 321.378,-253.159"/>
</g>
<!-- Node8&#45;&gt;Node2 -->
<g id="edge8" class="edge"><title>Node8&#45;&gt;Node2</title>
<path fill="none" stroke="midnightblue" d="M218.246,-336.542C145.308,-320.224 0,-281.837 0,-235 0,-235 0,-235 0,-177 0,-120.858 183.786,-85.8141 267.42,-72.7733"/>
<polygon fill="midnightblue" stroke="midnightblue" points="267.986,-76.2276 277.342,-71.2565 266.928,-69.308 267.986,-76.2276"/>
</g>
<!-- Node9 -->
<g id="node9" class="node"><title>Node9</title>
<g id="a_node9"><a xlink:href="../../d8/dd7/_concept_8h.html" target="_top" xlink:title="Concept definitions. ">
<polygon fill="white" stroke="black" points="106,-280.5 106,-299.5 190,-299.5 190,-280.5 106,-280.5"/>
<text text-anchor="middle" x="148" y="-287.5" font-family="Helvetica,sans-Serif" font-size="10.00">../stl/Concept.h</text>
</a>
</g>
</g>
<!-- Node8&#45;&gt;Node9 -->
<g id="edge9" class="edge"><title>Node8&#45;&gt;Node9</title>
<path fill="none" stroke="midnightblue" d="M241.166,-336.324C223.284,-327.625 195.525,-314.12 174.954,-304.113"/>
<polygon fill="midnightblue" stroke="midnightblue" points="176.313,-300.882 165.79,-299.655 173.251,-307.177 176.313,-300.882"/>
</g>
<!-- Node10 -->
<g id="node10" class="node"><title>Node10</title>
<g id="a_node10"><a xlink:href="../../d4/dda/_pair_8h.html" target="_top" xlink:title="Implementation of a 2&#45;element tuple. ">
<polygon fill="white" stroke="black" points="177,-224.5 177,-243.5 219,-243.5 219,-224.5 177,-224.5"/>
<text text-anchor="middle" x="198" y="-231.5" font-family="Helvetica,sans-Serif" font-size="10.00">Pair.h</text>
</a>
</g>
</g>
<!-- Node9&#45;&gt;Node10 -->
<g id="edge10" class="edge"><title>Node9&#45;&gt;Node10</title>
<path fill="none" stroke="midnightblue" d="M156.256,-280.083C163.465,-272.298 174.11,-260.801 182.846,-251.367"/>
<polygon fill="midnightblue" stroke="midnightblue" points="185.671,-253.467 189.897,-243.751 180.535,-248.711 185.671,-253.467"/>
</g>
<!-- Node12 -->
<g id="node12" class="node"><title>Node12</title>
<g id="a_node12"><a xlink:href="../../d2/d37/_tmp_8h.html" target="_top" xlink:title="Template helper types, structs, and metafunctions. ">
<polygon fill="white" stroke="black" points="177,-112.5 177,-131.5 221,-131.5 221,-112.5 177,-112.5"/>
<text text-anchor="middle" x="199" y="-119.5" font-family="Helvetica,sans-Serif" font-size="10.00">Tmp.h</text>
</a>
</g>
</g>
<!-- Node9&#45;&gt;Node12 -->
<g id="edge17" class="edge"><title>Node9&#45;&gt;Node12</title>
<path fill="none" stroke="midnightblue" d="M145.531,-280.272C140.18,-259.619 129.359,-206.595 147,-168 152.777,-155.36 164.052,-144.911 174.631,-137.274"/>
<polygon fill="midnightblue" stroke="midnightblue" points="176.849,-140.001 183.217,-131.533 172.958,-134.182 176.849,-140.001"/>
</g>
<!-- Node13 -->
<g id="node13" class="node"><title>Node13</title>
<g id="a_node13"><a xlink:href="../../d4/dd5/_type_traits_8h.html" target="_top" xlink:title="Metafunctions for types. ">
<polygon fill="white" stroke="black" points="28.5,-168.5 28.5,-187.5 99.5,-187.5 99.5,-168.5 28.5,-168.5"/>
<text text-anchor="middle" x="64" y="-175.5" font-family="Helvetica,sans-Serif" font-size="10.00">TypeTraits.h</text>
</a>
</g>
</g>
<!-- Node9&#45;&gt;Node13 -->
<g id="edge14" class="edge"><title>Node9&#45;&gt;Node13</title>
<path fill="none" stroke="midnightblue" d="M110.032,-280.411C90.5921,-273.883 68.6236,-262.715 57,-244 48.3151,-230.017 51.7174,-211.015 56.2988,-197.169"/>
<polygon fill="midnightblue" stroke="midnightblue" points="59.5954,-198.347 59.8515,-187.755 53.0462,-195.875 59.5954,-198.347"/>
</g>
<!-- Node14 -->
<g id="node14" class="node"><title>Node14</title>
<g id="a_node14"><a xlink:href="../../d2/db4/_wlib_8h.html" target="_top" xlink:title="../Wlib.h">
<polygon fill="white" stroke="black" points="66.5,-224.5 66.5,-243.5 119.5,-243.5 119.5,-224.5 66.5,-224.5"/>
<text text-anchor="middle" x="93" y="-231.5" font-family="Helvetica,sans-Serif" font-size="10.00">../Wlib.h</text>
</a>
</g>
</g>
<!-- Node9&#45;&gt;Node14 -->
<g id="edge16" class="edge"><title>Node9&#45;&gt;Node14</title>
<path fill="none" stroke="midnightblue" d="M138.918,-280.083C130.829,-272.141 118.805,-260.335 109.09,-250.797"/>
<polygon fill="midnightblue" stroke="midnightblue" points="111.501,-248.26 101.913,-243.751 106.597,-253.254 111.501,-248.26"/>
</g>
<!-- Node11 -->
<g id="node11" class="node"><title>Node11</title>
<g id="a_node11"><a xlink:href="../../db/d2a/_utility_8h.html" target="_top" xlink:title="Various helper functions. ">
<polygon fill="white" stroke="black" points="156,-168.5 156,-187.5 242,-187.5 242,-168.5 156,-168.5"/>
<text text-anchor="middle" x="199" y="-175.5" font-family="Helvetica,sans-Serif" font-size="10.00">../utility/Utility.h</text>
</a>
</g>
</g>
<!-- Node10&#45;&gt;Node11 -->
<g id="edge11" class="edge"><title>Node10&#45;&gt;Node11</title>
<path fill="none" stroke="midnightblue" d="M198.165,-224.083C198.296,-217.006 198.484,-206.861 198.648,-197.986"/>
<polygon fill="midnightblue" stroke="midnightblue" points="202.152,-197.814 198.838,-187.751 195.153,-197.685 202.152,-197.814"/>
</g>
<!-- Node11&#45;&gt;Node12 -->
<g id="edge12" class="edge"><title>Node11&#45;&gt;Node12</title>
<path fill="none" stroke="midnightblue" d="M199,-168.083C199,-161.006 199,-150.861 199,-141.986"/>
<polygon fill="midnightblue" stroke="midnightblue" points="202.5,-141.751 199,-131.751 195.5,-141.751 202.5,-141.751"/>
</g>
<!-- Node12&#45;&gt;Node2 -->
<g id="edge13" class="edge"><title>Node12&#45;&gt;Node2</title>
<path fill="none" stroke="midnightblue" d="M216.513,-112.324C234.072,-103.625 261.331,-90.1202 281.531,-80.113"/>
<polygon fill="midnightblue" stroke="midnightblue" points="283.124,-83.23 290.531,-75.6545 280.016,-76.9575 283.124,-83.23"/>
</g>
<!-- Node13&#45;&gt;Node12 -->
<g id="edge15" class="edge"><title>Node13&#45;&gt;Node12</title>
<path fill="none" stroke="midnightblue" d="M85.3912,-168.444C107.707,-159.517 142.903,-145.439 168.208,-135.317"/>
<polygon fill="midnightblue" stroke="midnightblue" points="169.724,-138.48 177.709,-131.516 167.124,-131.981 169.724,-138.48"/>
</g>
<!-- Node15&#45;&gt;Node2 -->
<g id="edge23" class="edge"><title>Node15&#45;&gt;Node2</title>
<path fill="none" stroke="midnightblue" d="M315.57,-224.075C314.311,-197.945 310.613,-121.211 308.895,-85.577"/>
<polygon fill="midnightblue" stroke="midnightblue" points="312.39,-85.388 308.413,-75.5681 305.398,-85.725 312.39,-85.388"/>
</g>
<!-- Node15&#45;&gt;Node7 -->
<g id="edge21" class="edge"><title>Node15&#45;&gt;Node7</title>
<path fill="none" stroke="midnightblue" d="M333.352,-224.324C350.672,-215.664 377.515,-202.242 397.502,-192.249"/>
<polygon fill="midnightblue" stroke="midnightblue" points="399.312,-195.257 406.691,-187.655 396.181,-188.996 399.312,-195.257"/>
</g>
<!-- Node15&#45;&gt;Node11 -->
<g id="edge22" class="edge"><title>Node15&#45;&gt;Node11</title>
<path fill="none" stroke="midnightblue" d="M297.461,-224.444C278.377,-215.636 248.425,-201.812 226.564,-191.722"/>
<polygon fill="midnightblue" stroke="midnightblue" points="227.999,-188.529 217.452,-187.516 225.065,-194.885 227.999,-188.529"/>
</g>
<!-- Node15&#45;&gt;Node12 -->
<g id="edge24" class="edge"><title>Node15&#45;&gt;Node12</title>
<path fill="none" stroke="midnightblue" d="M307.776,-224.389C295.622,-211.753 272.031,-187.568 251,-168 240.074,-157.834 227.42,-146.867 217.331,-138.305"/>
<polygon fill="midnightblue" stroke="midnightblue" points="219.455,-135.518 209.553,-131.749 214.943,-140.87 219.455,-135.518"/>
</g>
<!-- Node16 -->
<g id="node16" class="node"><title>Node16</title>
<g id="a_node16"><a xlink:href="../../d9/d8a/_new_8h.html" target="_top" xlink:title="New operators defined for Arduino boards and for other boards use the normal new. ...">
<polygon fill="white" stroke="black" points="336.5,-168.5 336.5,-187.5 381.5,-187.5 381.5,-168.5 336.5,-168.5"/>
<text text-anchor="middle" x="359" y="-175.5" font-family="Helvetica,sans-Serif" font-size="10.00">New.h</text>
</a>
</g>
</g>
<!-- Node15&#45;&gt;Node16 -->
<g id="edge25" class="edge"><title>Node15&#45;&gt;Node16</title>
<path fill="none" stroke="midnightblue" d="M323.101,-224.083C329.237,-216.377 338.27,-205.033 345.739,-195.653"/>
<polygon fill="midnightblue" stroke="midnightblue" points="348.54,-197.754 352.032,-187.751 343.064,-193.394 348.54,-197.754"/>
</g>
<!-- Node17 -->
<g id="node17" class="node"><title>Node17</title>
<polygon fill="white" stroke="#bfbfbf" points="336,-112.5 336,-131.5 384,-131.5 384,-112.5 336,-112.5"/>
<text text-anchor="middle" x="360" y="-119.5" font-family="Helvetica,sans-Serif" font-size="10.00">stdlib.h</text>
</g>
<!-- Node16&#45;&gt;Node17 -->
<g id="edge26" class="edge"><title>Node16&#45;&gt;Node17</title>
<path fill="none" stroke="midnightblue" d="M359.165,-168.083C359.296,-161.006 359.484,-150.861 359.648,-141.986"/>
<polygon fill="midnightblue" stroke="midnightblue" points="363.152,-141.814 359.838,-131.751 356.153,-141.685 363.152,-141.814"/>
</g>
</g>
</svg>
