<?xml version="1.0" encoding="UTF-8" standalone="no"?>
<!DOCTYPE svg PUBLIC "-//W3C//DTD SVG 1.1//EN"
 "http://www.w3.org/Graphics/SVG/1.1/DTD/svg11.dtd">
<!-- Generated by graphviz version 2.36.0 (20140111.2315)
 -->
<!-- Title: stl/ArrayHeap.h Pages: 1 -->
<!--zoomable 588 -->
<svg id="main" version="1.1" xmlns="http://www.w3.org/2000/svg" xmlns:xlink="http://www.w3.org/1999/xlink" xml:space="preserve" onload="init(evt)">
<style type="text/css"><![CDATA[
.edge:hover path { stroke: red; }
.edge:hover polygon { stroke: red; fill: red; }
]]></style>
<script type="text/javascript"><![CDATA[
var edges = document.getElementsByTagName('g');
if (edges && edges.length) {
  for (var i=0;i<edges.length;i++) {
    if (edges[i].id.substr(0,4)=='edge') {
      edges[i].setAttribute('class','edge');
    }
  }
}
]]></script>
        <defs>
                <circle id="rim" cx="0" cy="0" r="7"/>
                <circle id="rim2" cx="0" cy="0" r="3.5"/>
                <g id="zoomPlus">
                        <use xlink:href="#rim" fill="#404040">
                                <set attributeName="fill" to="#808080" begin="zoomplus.mouseover" end="zoomplus.mouseout"/>
                        </use>
                        <path d="M-4,0h8M0,-4v8" fill="none" stroke="white" stroke-width="1.5" pointer-events="none"/>
                </g>
                <g id="zoomMin">
                        <use xlink:href="#rim" fill="#404040">
                                <set attributeName="fill" to="#808080" begin="zoomminus.mouseover" end="zoomminus.mouseout"/>
                        </use>
                        <path d="M-4,0h8" fill="none" stroke="white" stroke-width="1.5" pointer-events="none"/>
                </g>
                <g id="dirArrow">
                        <path fill="none" stroke="white" stroke-width="1.5" d="M0,-3.0v7 M-2.5,-0.5L0,-3.0L2.5,-0.5"/>
                </g>
               <g id="resetDef">
                       <use xlink:href="#rim2" fill="#404040">
                               <set attributeName="fill" to="#808080" begin="reset.mouseover" end="reset.mouseout"/>
                       </use>
               </g>
        </defs>

<script type="text/javascript">
var viewWidth = 677;
var viewHeight = 588;
var sectionId = 'dynsection-0';
</script>
<script xlink:href="../../svgpan.js"/>
<svg id="graph" class="graph">
<g id="viewport">
<title>stl/ArrayHeap.h</title>
<polygon fill="white" stroke="none" points="-4,4 -4,-584 673.016,-584 673.016,4 -4,4"/>
<!-- Node1 -->
<g id="node1" class="node"><title>Node1</title>
<polygon fill="#bfbfbf" stroke="black" points="377.5,-560.5 377.5,-579.5 462.5,-579.5 462.5,-560.5 377.5,-560.5"/>
<text text-anchor="middle" x="420" y="-567.5" font-family="Helvetica,sans-Serif" font-size="10.00">stl/ArrayHeap.h</text>
</g>
<!-- Node2 -->
<g id="node2" class="node"><title>Node2</title>
<g id="a_node2"><a xlink:href="../../d2/db9/_array_list_8h.html" target="_top" xlink:title="List implementation using an array. ">
<polygon fill="white" stroke="black" points="548,-280.5 548,-299.5 612,-299.5 612,-280.5 548,-280.5"/>
<text text-anchor="middle" x="580" y="-287.5" font-family="Helvetica,sans-Serif" font-size="10.00">ArrayList.h</text>
</a>
</g>
</g>
<!-- Node1&#45;&gt;Node2 -->
<g id="edge1" class="edge"><title>Node1&#45;&gt;Node2</title>
<path fill="none" stroke="midnightblue" d="M448.386,-560.424C488.515,-546.338 557,-514.21 557,-459 557,-459 557,-459 557,-401 557,-368.12 566.968,-330.86 573.779,-309.235"/>
<polygon fill="midnightblue" stroke="midnightblue" points="577.112,-310.303 576.898,-299.711 570.46,-308.125 577.112,-310.303"/>
</g>
<!-- Node6 -->
<g id="node6" class="node"><title>Node6</title>
<g id="a_node6"><a xlink:href="../../db/d2a/_utility_8h.html" target="_top" xlink:title="Various helper functions. ">
<polygon fill="white" stroke="black" points="436,-168.5 436,-187.5 522,-187.5 522,-168.5 436,-168.5"/>
<text text-anchor="middle" x="479" y="-175.5" font-family="Helvetica,sans-Serif" font-size="10.00">../utility/Utility.h</text>
</a>
</g>
</g>
<!-- Node1&#45;&gt;Node6 -->
<g id="edge35" class="edge"><title>Node1&#45;&gt;Node6</title>
<path fill="none" stroke="midnightblue" d="M431.543,-560.433C452.804,-543.571 496,-503.799 496,-459 496,-459 496,-459 496,-345 496,-291.311 487.091,-228.361 482.172,-197.695"/>
<polygon fill="midnightblue" stroke="midnightblue" points="485.589,-196.906 480.509,-187.609 478.682,-198.045 485.589,-196.906"/>
</g>
<!-- Node9 -->
<g id="node9" class="node"><title>Node9</title>
<g id="a_node9"><a xlink:href="../../d7/d0c/_comparator_8h.html" target="_top" xlink:title="Comparator implementation for basic types. ">
<polygon fill="white" stroke="black" points="96,-504.5 96,-523.5 172,-523.5 172,-504.5 96,-504.5"/>
<text text-anchor="middle" x="134" y="-511.5" font-family="Helvetica,sans-Serif" font-size="10.00">Comparator.h</text>
</a>
</g>
</g>
<!-- Node1&#45;&gt;Node9 -->
<g id="edge12" class="edge"><title>Node1&#45;&gt;Node9</title>
<path fill="none" stroke="midnightblue" d="M377.492,-560.974C325.304,-551.12 237.007,-534.449 182.302,-524.12"/>
<polygon fill="midnightblue" stroke="midnightblue" points="182.637,-520.622 172.162,-522.205 181.339,-527.5 182.637,-520.622"/>
</g>
<!-- Node14 -->
<g id="node14" class="node"><title>Node14</title>
<g id="a_node14"><a xlink:href="../../d8/dd7/_concept_8h.html" target="_top" xlink:title="Concept definitions. ">
<polygon fill="white" stroke="black" points="270,-280.5 270,-299.5 354,-299.5 354,-280.5 270,-280.5"/>
<text text-anchor="middle" x="312" y="-287.5" font-family="Helvetica,sans-Serif" font-size="10.00">../stl/Concept.h</text>
</a>
</g>
</g>
<!-- Node1&#45;&gt;Node14 -->
<g id="edge33" class="edge"><title>Node1&#45;&gt;Node14</title>
<path fill="none" stroke="midnightblue" d="M414.716,-560.231C404.275,-542.043 382,-498.601 382,-459 382,-459 382,-459 382,-401 382,-370.902 379.143,-361.402 363,-336 355.479,-324.165 343.962,-313.627 333.774,-305.73"/>
<polygon fill="midnightblue" stroke="midnightblue" points="335.774,-302.856 325.646,-299.746 331.624,-308.493 335.774,-302.856"/>
</g>
<!-- Node16 -->
<g id="node16" class="node"><title>Node16</title>
<g id="a_node16"><a xlink:href="../../d4/dd5/_type_traits_8h.html" target="_top" xlink:title="Metafunctions for types. ">
<polygon fill="white" stroke="black" points="384.5,-224.5 384.5,-243.5 455.5,-243.5 455.5,-224.5 384.5,-224.5"/>
<text text-anchor="middle" x="420" y="-231.5" font-family="Helvetica,sans-Serif" font-size="10.00">TypeTraits.h</text>
</a>
</g>
</g>
<!-- Node1&#45;&gt;Node16 -->
<g id="edge34" class="edge"><title>Node1&#45;&gt;Node16</title>
<path fill="none" stroke="midnightblue" d="M420,-560.442C420,-541.936 420,-496.812 420,-459 420,-459 420,-459 420,-345 420,-312.948 420,-275.643 420,-253.749"/>
<polygon fill="midnightblue" stroke="midnightblue" points="423.5,-253.558 420,-243.558 416.5,-253.558 423.5,-253.558"/>
</g>
<!-- Node3 -->
<g id="node3" class="node"><title>Node3</title>
<g id="a_node3"><a xlink:href="../../d0/db6/_types_8h.html" target="_top" xlink:title="type definition of all the string types we will be using ">
<polygon fill="white" stroke="black" points="155.5,-56.5 155.5,-75.5 216.5,-75.5 216.5,-56.5 155.5,-56.5"/>
<text text-anchor="middle" x="186" y="-63.5" font-family="Helvetica,sans-Serif" font-size="10.00">../Types.h</text>
</a>
</g>
</g>
<!-- Node2&#45;&gt;Node3 -->
<g id="edge2" class="edge"><title>Node2&#45;&gt;Node3</title>
<path fill="none" stroke="midnightblue" d="M612.011,-281.242C631.292,-274.741 654.306,-263.317 666,-244 670.603,-236.396 668.859,-232.417 666,-224 641.474,-151.788 607.642,-138.143 536,-112 429.199,-73.0276 293.323,-66.9107 226.644,-66.4947"/>
<polygon fill="midnightblue" stroke="midnightblue" points="226.56,-62.9946 216.552,-66.4727 226.544,-69.9945 226.56,-62.9946"/>
</g>
<!-- Node5 -->
<g id="node5" class="node"><title>Node5</title>
<g id="a_node5"><a xlink:href="../../d3/de6/_memory_8h.html" target="_top" xlink:title="Memory is a class that provides dynamic fixed size memory. ">
<polygon fill="white" stroke="black" points="550.5,-224.5 550.5,-243.5 657.5,-243.5 657.5,-224.5 550.5,-224.5"/>
<text text-anchor="middle" x="604" y="-231.5" font-family="Helvetica,sans-Serif" font-size="10.00">../memory/Memory.h</text>
</a>
</g>
</g>
<!-- Node2&#45;&gt;Node5 -->
<g id="edge4" class="edge"><title>Node2&#45;&gt;Node5</title>
<path fill="none" stroke="midnightblue" d="M583.963,-280.083C587.213,-272.77 591.919,-262.181 595.954,-253.103"/>
<polygon fill="midnightblue" stroke="midnightblue" points="599.248,-254.311 600.111,-243.751 592.851,-251.468 599.248,-254.311"/>
</g>
<!-- Node2&#45;&gt;Node6 -->
<g id="edge11" class="edge"><title>Node2&#45;&gt;Node6</title>
<path fill="none" stroke="midnightblue" d="M572.075,-280.368C555.186,-261.974 515.425,-218.671 493.739,-195.052"/>
<polygon fill="midnightblue" stroke="midnightblue" points="496.23,-192.59 486.888,-187.591 491.074,-197.325 496.23,-192.59"/>
</g>
<!-- Node4 -->
<g id="node4" class="node"><title>Node4</title>
<polygon fill="white" stroke="#bfbfbf" points="161.5,-0.5 161.5,-19.5 210.5,-19.5 210.5,-0.5 161.5,-0.5"/>
<text text-anchor="middle" x="186" y="-7.5" font-family="Helvetica,sans-Serif" font-size="10.00">stdint.h</text>
</g>
<!-- Node3&#45;&gt;Node4 -->
<g id="edge3" class="edge"><title>Node3&#45;&gt;Node4</title>
<path fill="none" stroke="midnightblue" d="M186,-56.083C186,-49.0059 186,-38.8611 186,-29.9865"/>
<polygon fill="midnightblue" stroke="midnightblue" points="189.5,-29.751 186,-19.7511 182.5,-29.7511 189.5,-29.751"/>
</g>
<!-- Node5&#45;&gt;Node3 -->
<g id="edge8" class="edge"><title>Node5&#45;&gt;Node3</title>
<path fill="none" stroke="midnightblue" d="M607.071,-224.468C611.305,-211.061 617.127,-184.857 605,-168 560.67,-106.379 323.416,-78.9917 226.889,-70.2806"/>
<polygon fill="midnightblue" stroke="midnightblue" points="226.913,-66.7693 216.644,-69.3789 226.299,-73.7423 226.913,-66.7693"/>
</g>
<!-- Node5&#45;&gt;Node6 -->
<g id="edge5" class="edge"><title>Node5&#45;&gt;Node6</title>
<path fill="none" stroke="midnightblue" d="M584.193,-224.444C563.713,-215.596 531.517,-201.687 508.135,-191.586"/>
<polygon fill="midnightblue" stroke="midnightblue" points="509.282,-188.269 498.714,-187.516 506.506,-194.695 509.282,-188.269"/>
</g>
<!-- Node7 -->
<g id="node7" class="node"><title>Node7</title>
<g id="a_node7"><a xlink:href="../../d2/d37/_tmp_8h.html" target="_top" xlink:title="Template helper types, structs, and metafunctions. ">
<polygon fill="white" stroke="black" points="386,-112.5 386,-131.5 430,-131.5 430,-112.5 386,-112.5"/>
<text text-anchor="middle" x="408" y="-119.5" font-family="Helvetica,sans-Serif" font-size="10.00">Tmp.h</text>
</a>
</g>
</g>
<!-- Node5&#45;&gt;Node7 -->
<g id="edge9" class="edge"><title>Node5&#45;&gt;Node7</title>
<path fill="none" stroke="midnightblue" d="M603.898,-224.476C603.252,-210.598 599.898,-183.15 584,-168 544.89,-130.731 479.32,-123.189 440.209,-122.279"/>
<polygon fill="midnightblue" stroke="midnightblue" points="440.195,-118.779 430.16,-122.178 440.124,-125.778 440.195,-118.779"/>
</g>
<!-- Node8 -->
<g id="node8" class="node"><title>Node8</title>
<polygon fill="white" stroke="#bfbfbf" points="540.5,-168.5 540.5,-187.5 575.5,-187.5 575.5,-168.5 540.5,-168.5"/>
<text text-anchor="middle" x="558" y="-175.5" font-family="Helvetica,sans-Serif" font-size="10.00">new</text>
</g>
<!-- Node5&#45;&gt;Node8 -->
<g id="edge10" class="edge"><title>Node5&#45;&gt;Node8</title>
<path fill="none" stroke="midnightblue" d="M596.404,-224.083C589.773,-216.298 579.979,-204.801 571.942,-195.367"/>
<polygon fill="midnightblue" stroke="midnightblue" points="574.604,-193.094 565.455,-187.751 569.275,-197.633 574.604,-193.094"/>
</g>
<!-- Node6&#45;&gt;Node7 -->
<g id="edge6" class="edge"><title>Node6&#45;&gt;Node7</title>
<path fill="none" stroke="midnightblue" d="M467.593,-168.324C456.891,-160.185 440.659,-147.839 427.837,-138.087"/>
<polygon fill="midnightblue" stroke="midnightblue" points="429.693,-135.102 419.615,-131.834 425.456,-140.673 429.693,-135.102"/>
</g>
<!-- Node7&#45;&gt;Node3 -->
<g id="edge7" class="edge"><title>Node7&#45;&gt;Node3</title>
<path fill="none" stroke="midnightblue" d="M385.902,-115.625C348.813,-106.603 273.505,-88.2851 226.649,-76.8876"/>
<polygon fill="midnightblue" stroke="midnightblue" points="227.365,-73.4597 216.821,-74.4969 225.71,-80.2614 227.365,-73.4597"/>
</g>
<!-- Node9&#45;&gt;Node3 -->
<g id="edge14" class="edge"><title>Node9&#45;&gt;Node3</title>
<path fill="none" stroke="midnightblue" d="M100.701,-504.463C79.2442,-497.563 51.922,-485.987 33,-468 9.51797,-445.678 0,-435.399 0,-403 0,-403 0,-403 0,-177 0,-110.035 90.4254,-82.9755 145.178,-72.7287"/>
<polygon fill="midnightblue" stroke="midnightblue" points="146.043,-76.1303 155.286,-70.9508 144.831,-69.2361 146.043,-76.1303"/>
</g>
<!-- Node10 -->
<g id="node10" class="node"><title>Node10</title>
<polygon fill="white" stroke="#bfbfbf" points="66.5,-336.5 66.5,-355.5 115.5,-355.5 115.5,-336.5 66.5,-336.5"/>
<text text-anchor="middle" x="91" y="-343.5" font-family="Helvetica,sans-Serif" font-size="10.00">string.h</text>
</g>
<!-- Node9&#45;&gt;Node10 -->
<g id="edge13" class="edge"><title>Node9&#45;&gt;Node10</title>
<path fill="none" stroke="midnightblue" d="M131.688,-504.075C124.92,-477.945 105.043,-401.211 95.8121,-365.577"/>
<polygon fill="midnightblue" stroke="midnightblue" points="99.1153,-364.371 93.2195,-355.568 92.3389,-366.126 99.1153,-364.371"/>
</g>
<!-- Node11 -->
<g id="node11" class="node"><title>Node11</title>
<g id="a_node11"><a xlink:href="../../d2/dc2/_equal_8h.html" target="_top" xlink:title="stl/Equal.h">
<polygon fill="white" stroke="black" points="42.5,-448.5 42.5,-467.5 105.5,-467.5 105.5,-448.5 42.5,-448.5"/>
<text text-anchor="middle" x="74" y="-455.5" font-family="Helvetica,sans-Serif" font-size="10.00">stl/Equal.h</text>
</a>
</g>
</g>
<!-- Node9&#45;&gt;Node11 -->
<g id="edge15" class="edge"><title>Node9&#45;&gt;Node11</title>
<path fill="none" stroke="midnightblue" d="M124.36,-504.324C115.49,-496.341 102.125,-484.313 91.3921,-474.653"/>
<polygon fill="midnightblue" stroke="midnightblue" points="93.5898,-471.922 83.8154,-467.834 88.907,-477.125 93.5898,-471.922"/>
</g>
<!-- Node12 -->
<g id="node12" class="node"><title>Node12</title>
<g id="a_node12"><a xlink:href="../../db/db5/_string_8h.html" target="_top" xlink:title="../strings/String.h">
<polygon fill="white" stroke="black" points="162,-392.5 162,-411.5 254,-411.5 254,-392.5 162,-392.5"/>
<text text-anchor="middle" x="208" y="-399.5" font-family="Helvetica,sans-Serif" font-size="10.00">../strings/String.h</text>
</a>
</g>
</g>
<!-- Node9&#45;&gt;Node12 -->
<g id="edge32" class="edge"><title>Node9&#45;&gt;Node12</title>
<path fill="none" stroke="midnightblue" d="M139.807,-504.368C152.019,-486.215 180.552,-443.802 196.57,-419.99"/>
<polygon fill="midnightblue" stroke="midnightblue" points="199.543,-421.842 202.22,-411.591 193.734,-417.935 199.543,-421.842"/>
</g>
<!-- Node11&#45;&gt;Node3 -->
<g id="edge17" class="edge"><title>Node11&#45;&gt;Node3</title>
<path fill="none" stroke="midnightblue" d="M69.1449,-448.473C59.3184,-430.386 38,-386.585 38,-347 38,-347 38,-347 38,-177 38,-123.129 101.946,-92.5511 145.772,-77.9206"/>
<polygon fill="midnightblue" stroke="midnightblue" points="146.87,-81.2441 155.334,-74.8715 144.744,-74.575 146.87,-81.2441"/>
</g>
<!-- Node11&#45;&gt;Node10 -->
<g id="edge16" class="edge"><title>Node11&#45;&gt;Node10</title>
<path fill="none" stroke="midnightblue" d="M75.334,-448.368C78.0774,-430.617 84.4061,-389.666 88.1259,-365.597"/>
<polygon fill="midnightblue" stroke="midnightblue" points="91.6038,-366.009 89.6722,-355.591 84.6859,-364.94 91.6038,-366.009"/>
</g>
<!-- Node11&#45;&gt;Node12 -->
<g id="edge18" class="edge"><title>Node11&#45;&gt;Node12</title>
<path fill="none" stroke="midnightblue" d="M95.2327,-448.444C117.384,-439.517 152.319,-425.439 177.436,-415.317"/>
<polygon fill="midnightblue" stroke="midnightblue" points="178.9,-418.501 186.867,-411.516 176.283,-412.008 178.9,-418.501"/>
</g>
<!-- Node12&#45;&gt;Node3 -->
<g id="edge29" class="edge"><title>Node12&#45;&gt;Node3</title>
<path fill="none" stroke="midnightblue" d="M196.392,-392.233C186.196,-383.949 171.673,-370.638 163,-356 147.658,-330.106 144,-321.098 144,-291 144,-291 144,-291 144,-177 144,-142.412 162.348,-105.492 174.79,-84.4322"/>
<polygon fill="midnightblue" stroke="midnightblue" points="177.907,-86.0448 180.16,-75.6923 171.943,-82.38 177.907,-86.0448"/>
</g>
<!-- Node12&#45;&gt;Node5 -->
<g id="edge31" class="edge"><title>Node12&#45;&gt;Node5</title>
<path fill="none" stroke="midnightblue" d="M244.328,-392.457C276.142,-384.505 323.351,-371.558 363,-356 445.657,-323.566 538.115,-272.778 580.486,-248.633"/>
<polygon fill="midnightblue" stroke="midnightblue" points="582.278,-251.64 589.214,-243.631 578.797,-245.566 582.278,-251.64"/>
</g>
<!-- Node12&#45;&gt;Node10 -->
<g id="edge19" class="edge"><title>Node12&#45;&gt;Node10</title>
<path fill="none" stroke="midnightblue" d="M189.461,-392.444C170.377,-383.636 140.425,-369.812 118.564,-359.722"/>
<polygon fill="midnightblue" stroke="midnightblue" points="119.999,-356.529 109.452,-355.516 117.065,-362.885 119.999,-356.529"/>
</g>
<!-- Node13 -->
<g id="node13" class="node"><title>Node13</title>
<g id="a_node13"><a xlink:href="../../de/d0b/_string_iterator_8h.html" target="_top" xlink:title="StringIterator.h">
<polygon fill="white" stroke="black" points="172.5,-336.5 172.5,-355.5 253.5,-355.5 253.5,-336.5 172.5,-336.5"/>
<text text-anchor="middle" x="213" y="-343.5" font-family="Helvetica,sans-Serif" font-size="10.00">StringIterator.h</text>
</a>
</g>
</g>
<!-- Node12&#45;&gt;Node13 -->
<g id="edge20" class="edge"><title>Node12&#45;&gt;Node13</title>
<path fill="none" stroke="midnightblue" d="M208.826,-392.083C209.481,-385.006 210.42,-374.861 211.242,-365.986"/>
<polygon fill="midnightblue" stroke="midnightblue" points="214.753,-366.031 212.19,-355.751 207.783,-365.386 214.753,-366.031"/>
</g>
<!-- Node18 -->
<g id="node18" class="node"><title>Node18</title>
<g id="a_node18"><a xlink:href="../../da/db8/_math_8h.html" target="_top" xlink:title="../utility/Math.h">
<polygon fill="white" stroke="black" points="272,-336.5 272,-355.5 354,-355.5 354,-336.5 272,-336.5"/>
<text text-anchor="middle" x="313" y="-343.5" font-family="Helvetica,sans-Serif" font-size="10.00">../utility/Math.h</text>
</a>
</g>
</g>
<!-- Node12&#45;&gt;Node18 -->
<g id="edge30" class="edge"><title>Node12&#45;&gt;Node18</title>
<path fill="none" stroke="midnightblue" d="M224.87,-392.324C241.709,-383.664 267.807,-370.242 287.238,-360.249"/>
<polygon fill="midnightblue" stroke="midnightblue" points="288.88,-363.341 296.172,-355.655 285.678,-357.116 288.88,-363.341"/>
</g>
<!-- Node13&#45;&gt;Node3 -->
<g id="edge21" class="edge"><title>Node13&#45;&gt;Node3</title>
<path fill="none" stroke="midnightblue" d="M209.359,-336.338C201.989,-317.996 186,-273.738 186,-235 186,-235 186,-235 186,-177 186,-144.948 186,-107.643 186,-85.7489"/>
<polygon fill="midnightblue" stroke="midnightblue" points="189.5,-85.5577 186,-75.5578 182.5,-85.5578 189.5,-85.5577"/>
</g>
<!-- Node13&#45;&gt;Node14 -->
<g id="edge22" class="edge"><title>Node13&#45;&gt;Node14</title>
<path fill="none" stroke="midnightblue" d="M228.906,-336.324C244.638,-327.743 268.942,-314.486 287.209,-304.522"/>
<polygon fill="midnightblue" stroke="midnightblue" points="289.03,-307.516 296.133,-299.655 285.678,-301.37 289.03,-307.516"/>
</g>
<!-- Node14&#45;&gt;Node7 -->
<g id="edge28" class="edge"><title>Node14&#45;&gt;Node7</title>
<path fill="none" stroke="midnightblue" d="M289.681,-280.381C264.651,-269.305 229.243,-248.55 243,-224 271.395,-173.327 336.729,-145.025 376.133,-131.994"/>
<polygon fill="midnightblue" stroke="midnightblue" points="377.317,-135.29 385.793,-128.933 375.203,-128.617 377.317,-135.29"/>
</g>
<!-- Node15 -->
<g id="node15" class="node"><title>Node15</title>
<g id="a_node15"><a xlink:href="../../d4/dda/_pair_8h.html" target="_top" xlink:title="Implementation of a 2&#45;element tuple. ">
<polygon fill="white" stroke="black" points="324,-224.5 324,-243.5 366,-243.5 366,-224.5 324,-224.5"/>
<text text-anchor="middle" x="345" y="-231.5" font-family="Helvetica,sans-Serif" font-size="10.00">Pair.h</text>
</a>
</g>
</g>
<!-- Node14&#45;&gt;Node15 -->
<g id="edge23" class="edge"><title>Node14&#45;&gt;Node15</title>
<path fill="none" stroke="midnightblue" d="M317.449,-280.083C322.014,-272.613 328.668,-261.724 334.293,-252.52"/>
<polygon fill="midnightblue" stroke="midnightblue" points="337.424,-254.109 339.652,-243.751 331.451,-250.459 337.424,-254.109"/>
</g>
<!-- Node14&#45;&gt;Node16 -->
<g id="edge25" class="edge"><title>Node14&#45;&gt;Node16</title>
<path fill="none" stroke="midnightblue" d="M329.352,-280.324C346.672,-271.664 373.515,-258.242 393.502,-248.249"/>
<polygon fill="midnightblue" stroke="midnightblue" points="395.312,-251.257 402.691,-243.655 392.181,-244.996 395.312,-251.257"/>
</g>
<!-- Node17 -->
<g id="node17" class="node"><title>Node17</title>
<g id="a_node17"><a xlink:href="../../d2/db4/_wlib_8h.html" target="_top" xlink:title="../Wlib.h">
<polygon fill="white" stroke="black" points="252.5,-224.5 252.5,-243.5 305.5,-243.5 305.5,-224.5 252.5,-224.5"/>
<text text-anchor="middle" x="279" y="-231.5" font-family="Helvetica,sans-Serif" font-size="10.00">../Wlib.h</text>
</a>
</g>
</g>
<!-- Node14&#45;&gt;Node17 -->
<g id="edge27" class="edge"><title>Node14&#45;&gt;Node17</title>
<path fill="none" stroke="midnightblue" d="M306.551,-280.083C301.986,-272.613 295.332,-261.724 289.707,-252.52"/>
<polygon fill="midnightblue" stroke="midnightblue" points="292.549,-250.459 284.348,-243.751 286.576,-254.109 292.549,-250.459"/>
</g>
<!-- Node15&#45;&gt;Node6 -->
<g id="edge24" class="edge"><title>Node15&#45;&gt;Node6</title>
<path fill="none" stroke="midnightblue" d="M366.233,-224.444C388.384,-215.517 423.319,-201.439 448.436,-191.317"/>
<polygon fill="midnightblue" stroke="midnightblue" points="449.9,-194.501 457.867,-187.516 447.283,-188.008 449.9,-194.501"/>
</g>
<!-- Node16&#45;&gt;Node7 -->
<g id="edge26" class="edge"><title>Node16&#45;&gt;Node7</title>
<path fill="none" stroke="midnightblue" d="M419.058,-224.368C417.122,-206.617 412.655,-165.666 410.029,-141.597"/>
<polygon fill="midnightblue" stroke="midnightblue" points="413.501,-141.153 408.937,-131.591 406.542,-141.912 413.501,-141.153"/>
</g>
</g>
</svg>
        <g id="navigator" transform="translate(0 0)" fill="#404254">
                <rect fill="#f2f5e9" fill-opacity="0.5" stroke="#606060" stroke-width=".5" x="0" y="0" width="60" height="60"/>
                <use id="zoomplus" xlink:href="#zoomPlus" x="17" y="9" onmousedown="handleZoom(evt,'in')"/>
                <use id="zoomminus" xlink:href="#zoomMin" x="42" y="9" onmousedown="handleZoom(evt,'out')"/>
                <use id="reset" xlink:href="#resetDef" x="30" y="36" onmousedown="handleReset()"/>
                <g id="arrowUp" xlink:href="#dirArrow" transform="translate(30 24)" onmousedown="handlePan(0,-1)">
                  <use xlink:href="#rim" fill="#404040">
                        <set attributeName="fill" to="#808080" begin="arrowUp.mouseover" end="arrowUp.mouseout"/>
                  </use>
                  <path fill="none" stroke="white" stroke-width="1.5" d="M0,-3.0v7 M-2.5,-0.5L0,-3.0L2.5,-0.5"/>
                </g>
                <g id="arrowRight" xlink:href="#dirArrow" transform="rotate(90) translate(36 -43)" onmousedown="handlePan(1,0)">
                  <use xlink:href="#rim" fill="#404040">
                        <set attributeName="fill" to="#808080" begin="arrowRight.mouseover" end="arrowRight.mouseout"/>
                  </use>
                  <path fill="none" stroke="white" stroke-width="1.5" d="M0,-3.0v7 M-2.5,-0.5L0,-3.0L2.5,-0.5"/>
                </g>
                <g id="arrowDown" xlink:href="#dirArrow" transform="rotate(180) translate(-30 -48)" onmousedown="handlePan(0,1)">
                  <use xlink:href="#rim" fill="#404040">
                        <set attributeName="fill" to="#808080" begin="arrowDown.mouseover" end="arrowDown.mouseout"/>
                  </use>
                  <path fill="none" stroke="white" stroke-width="1.5" d="M0,-3.0v7 M-2.5,-0.5L0,-3.0L2.5,-0.5"/>
                </g>
                <g id="arrowLeft" xlink:href="#dirArrow" transform="rotate(270) translate(-36 17)" onmousedown="handlePan(-1,0)">
                  <use xlink:href="#rim" fill="#404040">
                        <set attributeName="fill" to="#808080" begin="arrowLeft.mouseover" end="arrowLeft.mouseout"/>
                  </use>
                  <path fill="none" stroke="white" stroke-width="1.5" d="M0,-3.0v7 M-2.5,-0.5L0,-3.0L2.5,-0.5"/>
                </g>
        </g>
        <svg viewBox="0 0 15 15" width="100%" height="30px" preserveAspectRatio="xMaxYMin meet">
         <g id="arrow_out" transform="scale(0.3 0.3)">
          <a xlink:href="_array_heap_8h__incl_org.svg" target="_base">
           <rect id="button" ry="5" rx="5" y="6" x="6" height="38" width="38"
                fill="#f2f5e9" fill-opacity="0.5" stroke="#606060" stroke-width="1.0"/>
           <path id="arrow"
             d="M 11.500037,31.436501 C 11.940474,20.09759 22.043105,11.32322 32.158766,21.979434 L 37.068811,17.246167 C 37.068811,17.246167 37.088388,32 37.088388,32 L 22.160133,31.978069 C 22.160133,31.978069 26.997745,27.140456 26.997745,27.140456 C 18.528582,18.264221 13.291696,25.230495 11.500037,31.436501 z"
             style="fill:#404040;"/>
          </a>
         </g>
        </svg>
</svg>
