<?xml version="1.0" encoding="UTF-8" standalone="no"?>
<!DOCTYPE svg PUBLIC "-//W3C//DTD SVG 1.1//EN"
 "http://www.w3.org/Graphics/SVG/1.1/DTD/svg11.dtd">
<!-- Generated by graphviz version 2.36.0 (20140111.2315)
 -->
<!-- Title: wlib/stl/ArrayHeap.h Pages: 1 -->
<!--zoomable 588 -->
<svg id="main" version="1.1" xmlns="http://www.w3.org/2000/svg" xmlns:xlink="http://www.w3.org/1999/xlink" xml:space="preserve" onload="init(evt)">
<style type="text/css"><![CDATA[
.edge:hover path { stroke: red; }
.edge:hover polygon { stroke: red; fill: red; }
]]></style>
<script type="text/javascript"><![CDATA[
var edges = document.getElementsByTagName('g');
if (edges && edges.length) {
  for (var i=0;i<edges.length;i++) {
    if (edges[i].id.substr(0,4)=='edge') {
      edges[i].setAttribute('class','edge');
    }
  }
}
]]></script>
        <defs>
                <circle id="rim" cx="0" cy="0" r="7"/>
                <circle id="rim2" cx="0" cy="0" r="3.5"/>
                <g id="zoomPlus">
                        <use xlink:href="#rim" fill="#404040">
                                <set attributeName="fill" to="#808080" begin="zoomplus.mouseover" end="zoomplus.mouseout"/>
                        </use>
                        <path d="M-4,0h8M0,-4v8" fill="none" stroke="white" stroke-width="1.5" pointer-events="none"/>
                </g>
                <g id="zoomMin">
                        <use xlink:href="#rim" fill="#404040">
                                <set attributeName="fill" to="#808080" begin="zoomminus.mouseover" end="zoomminus.mouseout"/>
                        </use>
                        <path d="M-4,0h8" fill="none" stroke="white" stroke-width="1.5" pointer-events="none"/>
                </g>
                <g id="dirArrow">
                        <path fill="none" stroke="white" stroke-width="1.5" d="M0,-3.0v7 M-2.5,-0.5L0,-3.0L2.5,-0.5"/>
                </g>
               <g id="resetDef">
                       <use xlink:href="#rim2" fill="#404040">
                               <set attributeName="fill" to="#808080" begin="reset.mouseover" end="reset.mouseout"/>
                       </use>
               </g>
        </defs>

<script type="text/javascript">
var viewWidth = 907;
var viewHeight = 588;
var sectionId = 'dynsection-0';
</script>
<script xlink:href="../../svgpan.js"/>
<svg id="graph" class="graph">
<g id="viewport">
<title>wlib/stl/ArrayHeap.h</title>
<polygon fill="white" stroke="none" points="-4,4 -4,-584 903.293,-584 903.293,4 -4,4"/>
<!-- Node1 -->
<g id="node1" class="node"><title>Node1</title>
<polygon fill="#bfbfbf" stroke="black" points="261.793,-560.5 261.793,-579.5 366.793,-579.5 366.793,-560.5 261.793,-560.5"/>
<text text-anchor="middle" x="314.293" y="-567.5" font-family="Helvetica,sans-Serif" font-size="10.00">wlib/stl/ArrayHeap.h</text>
</g>
<!-- Node2 -->
<g id="node2" class="node"><title>Node2</title>
<g id="a_node2"><a xlink:href="../../d2/db9/_array_list_8h.html" target="_top" xlink:title="List implementation using an array. ">
<polygon fill="white" stroke="black" points="154.293,-280.5 154.293,-299.5 218.293,-299.5 218.293,-280.5 154.293,-280.5"/>
<text text-anchor="middle" x="186.293" y="-287.5" font-family="Helvetica,sans-Serif" font-size="10.00">ArrayList.h</text>
</a>
</g>
</g>
<!-- Node1&#45;&gt;Node2 -->
<g id="edge1" class="edge"><title>Node1&#45;&gt;Node2</title>
<path fill="none" stroke="midnightblue" d="M295.481,-560.49C264.538,-545.053 206.293,-509.315 206.293,-459 206.293,-459 206.293,-459 206.293,-401 206.293,-368.438 197.705,-331.315 191.784,-309.592"/>
<polygon fill="midnightblue" stroke="midnightblue" points="195.086,-308.408 188.99,-299.742 188.351,-310.317 195.086,-308.408"/>
</g>
<!-- Node7 -->
<g id="node7" class="node"><title>Node7</title>
<g id="a_node7"><a xlink:href="../../db/d2a/_utility_8h.html" target="_top" xlink:title="Various helper functions. ">
<polygon fill="white" stroke="black" points="286.793,-168.5 286.793,-187.5 383.793,-187.5 383.793,-168.5 286.793,-168.5"/>
<text text-anchor="middle" x="335.293" y="-175.5" font-family="Helvetica,sans-Serif" font-size="10.00">wlib/utility/Utility.h</text>
</a>
</g>
</g>
<!-- Node1&#45;&gt;Node7 -->
<g id="edge39" class="edge"><title>Node1&#45;&gt;Node7</title>
<path fill="none" stroke="midnightblue" d="M314.293,-560.442C314.293,-541.936 314.293,-496.812 314.293,-459 314.293,-459 314.293,-459 314.293,-289 314.293,-256.384 323.311,-219.278 329.528,-197.573"/>
<polygon fill="midnightblue" stroke="midnightblue" points="332.959,-198.315 332.461,-187.732 326.25,-196.316 332.959,-198.315"/>
</g>
<!-- Node12 -->
<g id="node12" class="node"><title>Node12</title>
<g id="a_node12"><a xlink:href="../../d7/d0c/_comparator_8h.html" target="_top" xlink:title="Comparator implementation for basic types. ">
<polygon fill="white" stroke="black" points="747.293,-504.5 747.293,-523.5 823.293,-523.5 823.293,-504.5 747.293,-504.5"/>
<text text-anchor="middle" x="785.293" y="-511.5" font-family="Helvetica,sans-Serif" font-size="10.00">Comparator.h</text>
</a>
</g>
</g>
<!-- Node1&#45;&gt;Node12 -->
<g id="edge16" class="edge"><title>Node1&#45;&gt;Node12</title>
<path fill="none" stroke="midnightblue" d="M366.952,-562.963C459.084,-552.4 648.165,-530.722 737.075,-520.528"/>
<polygon fill="midnightblue" stroke="midnightblue" points="737.616,-523.989 747.152,-519.373 736.818,-517.035 737.616,-523.989"/>
</g>
<!-- Node16 -->
<g id="node16" class="node"><title>Node16</title>
<g id="a_node16"><a xlink:href="../../d8/dd7/_concept_8h.html" target="_top" xlink:title="Concept definitions. ">
<polygon fill="white" stroke="black" points="353.793,-280.5 353.793,-299.5 448.793,-299.5 448.793,-280.5 353.793,-280.5"/>
<text text-anchor="middle" x="401.293" y="-287.5" font-family="Helvetica,sans-Serif" font-size="10.00">wlib/stl/Concept.h</text>
</a>
</g>
</g>
<!-- Node1&#45;&gt;Node16 -->
<g id="edge37" class="edge"><title>Node1&#45;&gt;Node16</title>
<path fill="none" stroke="midnightblue" d="M322.03,-560.306C336.961,-542.594 368.293,-500.485 368.293,-459 368.293,-459 368.293,-459 368.293,-401 368.293,-367.245 382.725,-330.028 392.501,-308.691"/>
<polygon fill="midnightblue" stroke="midnightblue" points="395.702,-310.11 396.843,-299.576 389.382,-307.099 395.702,-310.11"/>
</g>
<!-- Node18 -->
<g id="node18" class="node"><title>Node18</title>
<g id="a_node18"><a xlink:href="../../d4/dd5/_type_traits_8h.html" target="_top" xlink:title="Metafunctions for types. ">
<polygon fill="white" stroke="black" points="214.793,-224.5 214.793,-243.5 285.793,-243.5 285.793,-224.5 214.793,-224.5"/>
<text text-anchor="middle" x="250.293" y="-231.5" font-family="Helvetica,sans-Serif" font-size="10.00">TypeTraits.h</text>
</a>
</g>
</g>
<!-- Node1&#45;&gt;Node18 -->
<g id="edge38" class="edge"><title>Node1&#45;&gt;Node18</title>
<path fill="none" stroke="midnightblue" d="M306.986,-560.231C292.884,-542.385 263.293,-500.047 263.293,-459 263.293,-459 263.293,-459 263.293,-345 263.293,-312.576 257.654,-275.146 253.804,-253.369"/>
<polygon fill="midnightblue" stroke="midnightblue" points="257.243,-252.72 251.993,-243.517 250.358,-253.985 257.243,-252.72"/>
</g>
<!-- Node3 -->
<g id="node3" class="node"><title>Node3</title>
<g id="a_node3"><a xlink:href="../../d0/db6/_types_8h.html" target="_top" xlink:title="type definition of all the string types we will be using ">
<polygon fill="white" stroke="black" points="595.293,-56.5 595.293,-75.5 667.293,-75.5 667.293,-56.5 595.293,-56.5"/>
<text text-anchor="middle" x="631.293" y="-63.5" font-family="Helvetica,sans-Serif" font-size="10.00">wlib/Types.h</text>
</a>
</g>
</g>
<!-- Node2&#45;&gt;Node3 -->
<g id="edge2" class="edge"><title>Node2&#45;&gt;Node3</title>
<path fill="none" stroke="midnightblue" d="M154.208,-289.458C94.4333,-288.99 -25.2709,-281.109 5.29304,-224 47.8114,-144.554 89.3536,-142.08 174.293,-112 249.143,-85.493 484.213,-72.9909 584.839,-68.7481"/>
<polygon fill="midnightblue" stroke="midnightblue" points="585.157,-72.238 595.004,-68.3284 584.868,-65.244 585.157,-72.238"/>
</g>
<!-- Node5 -->
<g id="node5" class="node"><title>Node5</title>
<g id="a_node5"><a xlink:href="../../d3/de6/_memory_8h.html" target="_top" xlink:title="Memory is a class that provides dynamic fixed size memory. ">
<polygon fill="white" stroke="black" points="440.793,-224.5 440.793,-243.5 559.793,-243.5 559.793,-224.5 440.793,-224.5"/>
<text text-anchor="middle" x="500.293" y="-231.5" font-family="Helvetica,sans-Serif" font-size="10.00">wlib/memory/Memory.h</text>
</a>
</g>
</g>
<!-- Node2&#45;&gt;Node5 -->
<g id="edge4" class="edge"><title>Node2&#45;&gt;Node5</title>
<path fill="none" stroke="midnightblue" d="M218.421,-283.475C270.572,-274.506 374.454,-256.641 440.498,-245.283"/>
<polygon fill="midnightblue" stroke="midnightblue" points="441.497,-248.663 450.759,-243.519 440.311,-241.764 441.497,-248.663"/>
</g>
<!-- Node2&#45;&gt;Node7 -->
<g id="edge12" class="edge"><title>Node2&#45;&gt;Node7</title>
<path fill="none" stroke="midnightblue" d="M186.416,-280.185C187.086,-266.391 190.375,-239.666 205.293,-224 224.05,-204.303 251.845,-193.226 276.925,-186.996"/>
<polygon fill="midnightblue" stroke="midnightblue" points="277.767,-190.394 286.742,-184.763 276.215,-183.569 277.767,-190.394"/>
</g>
<!-- Node10 -->
<g id="node10" class="node"><title>Node10</title>
<g id="a_node10"><a xlink:href="../../d7/d2f/_exceptions_8h.html" target="_top" xlink:title="Implementation of Exceptions using C style. ">
<polygon fill="white" stroke="black" points="14.293,-224.5 14.293,-243.5 158.293,-243.5 158.293,-224.5 14.293,-224.5"/>
<text text-anchor="middle" x="86.293" y="-231.5" font-family="Helvetica,sans-Serif" font-size="10.00">wlib/exceptions/Exceptions.h</text>
</a>
</g>
</g>
<!-- Node2&#45;&gt;Node10 -->
<g id="edge13" class="edge"><title>Node2&#45;&gt;Node10</title>
<path fill="none" stroke="midnightblue" d="M170.226,-280.324C154.335,-271.743 129.786,-258.486 111.335,-248.522"/>
<polygon fill="midnightblue" stroke="midnightblue" points="112.782,-245.326 102.32,-243.655 109.456,-251.486 112.782,-245.326"/>
</g>
<!-- Node4 -->
<g id="node4" class="node"><title>Node4</title>
<polygon fill="white" stroke="#bfbfbf" points="606.793,-0.5 606.793,-19.5 655.793,-19.5 655.793,-0.5 606.793,-0.5"/>
<text text-anchor="middle" x="631.293" y="-7.5" font-family="Helvetica,sans-Serif" font-size="10.00">stdint.h</text>
</g>
<!-- Node3&#45;&gt;Node4 -->
<g id="edge3" class="edge"><title>Node3&#45;&gt;Node4</title>
<path fill="none" stroke="midnightblue" d="M631.293,-56.083C631.293,-49.0059 631.293,-38.8611 631.293,-29.9865"/>
<polygon fill="midnightblue" stroke="midnightblue" points="634.793,-29.751 631.293,-19.7511 627.793,-29.7511 634.793,-29.751"/>
</g>
<!-- Node5&#45;&gt;Node3 -->
<g id="edge9" class="edge"><title>Node5&#45;&gt;Node3</title>
<path fill="none" stroke="midnightblue" d="M507.336,-224.075C528.314,-197.493 590.622,-118.538 618.064,-83.7633"/>
<polygon fill="midnightblue" stroke="midnightblue" points="621.084,-85.5864 624.531,-75.5681 615.589,-81.2499 621.084,-85.5864"/>
</g>
<!-- Node6 -->
<g id="node6" class="node"><title>Node6</title>
<polygon fill="white" stroke="#bfbfbf" points="749.793,-168.5 749.793,-187.5 798.793,-187.5 798.793,-168.5 749.793,-168.5"/>
<text text-anchor="middle" x="774.293" y="-175.5" font-family="Helvetica,sans-Serif" font-size="10.00">string.h</text>
</g>
<!-- Node5&#45;&gt;Node6 -->
<g id="edge5" class="edge"><title>Node5&#45;&gt;Node6</title>
<path fill="none" stroke="midnightblue" d="M543.709,-224.444C597.948,-213.754 689.672,-195.677 739.52,-185.853"/>
<polygon fill="midnightblue" stroke="midnightblue" points="740.359,-189.255 749.493,-183.888 739.005,-182.387 740.359,-189.255"/>
</g>
<!-- Node5&#45;&gt;Node7 -->
<g id="edge6" class="edge"><title>Node5&#45;&gt;Node7</title>
<path fill="none" stroke="midnightblue" d="M474.148,-224.444C446.27,-215.32 401.945,-200.813 370.893,-190.651"/>
<polygon fill="midnightblue" stroke="midnightblue" points="371.908,-187.3 361.315,-187.516 369.731,-193.953 371.908,-187.3"/>
</g>
<!-- Node8 -->
<g id="node8" class="node"><title>Node8</title>
<g id="a_node8"><a xlink:href="../../d2/d37/_tmp_8h.html" target="_top" xlink:title="Template helper types, structs, and metafunctions. ">
<polygon fill="white" stroke="black" points="390.293,-112.5 390.293,-131.5 434.293,-131.5 434.293,-112.5 390.293,-112.5"/>
<text text-anchor="middle" x="412.293" y="-119.5" font-family="Helvetica,sans-Serif" font-size="10.00">Tmp.h</text>
</a>
</g>
</g>
<!-- Node5&#45;&gt;Node8 -->
<g id="edge10" class="edge"><title>Node5&#45;&gt;Node8</title>
<path fill="none" stroke="midnightblue" d="M493.388,-224.368C478.801,-206.135 444.634,-163.426 425.633,-139.675"/>
<polygon fill="midnightblue" stroke="midnightblue" points="428.146,-137.214 419.166,-131.591 422.68,-141.587 428.146,-137.214"/>
</g>
<!-- Node9 -->
<g id="node9" class="node"><title>Node9</title>
<g id="a_node9"><a xlink:href="../../d9/d8a/_new_8h.html" target="_top" xlink:title="New operators defined for Arduino boards and for other boards use the normal new. ...">
<polygon fill="white" stroke="black" points="478.793,-168.5 478.793,-187.5 523.793,-187.5 523.793,-168.5 478.793,-168.5"/>
<text text-anchor="middle" x="501.293" y="-175.5" font-family="Helvetica,sans-Serif" font-size="10.00">New.h</text>
</a>
</g>
</g>
<!-- Node5&#45;&gt;Node9 -->
<g id="edge11" class="edge"><title>Node5&#45;&gt;Node9</title>
<path fill="none" stroke="midnightblue" d="M500.458,-224.083C500.589,-217.006 500.777,-206.861 500.941,-197.986"/>
<polygon fill="midnightblue" stroke="midnightblue" points="504.445,-197.814 501.131,-187.751 497.446,-197.685 504.445,-197.814"/>
</g>
<!-- Node7&#45;&gt;Node8 -->
<g id="edge7" class="edge"><title>Node7&#45;&gt;Node8</title>
<path fill="none" stroke="midnightblue" d="M347.664,-168.324C359.452,-160.058 377.425,-147.453 391.429,-137.632"/>
<polygon fill="midnightblue" stroke="midnightblue" points="393.775,-140.262 399.952,-131.655 389.755,-134.531 393.775,-140.262"/>
</g>
<!-- Node8&#45;&gt;Node3 -->
<g id="edge8" class="edge"><title>Node8&#45;&gt;Node3</title>
<path fill="none" stroke="midnightblue" d="M434.497,-115.525C470.057,-106.757 540.47,-89.3948 586.711,-77.9929"/>
<polygon fill="midnightblue" stroke="midnightblue" points="587.604,-81.3775 596.476,-75.5851 585.928,-74.581 587.604,-81.3775"/>
</g>
<!-- Node10&#45;&gt;Node3 -->
<g id="edge15" class="edge"><title>Node10&#45;&gt;Node3</title>
<path fill="none" stroke="midnightblue" d="M86.1666,-224.397C86.4583,-210.406 89.193,-182.798 105.293,-168 175.333,-103.622 469.435,-77.633 584.685,-69.7931"/>
<polygon fill="midnightblue" stroke="midnightblue" points="585.198,-73.2669 594.943,-69.1113 584.733,-66.2823 585.198,-73.2669"/>
</g>
<!-- Node11 -->
<g id="node11" class="node"><title>Node11</title>
<polygon fill="white" stroke="#bfbfbf" points="114.293,-168.5 114.293,-187.5 168.293,-187.5 168.293,-168.5 114.293,-168.5"/>
<text text-anchor="middle" x="141.293" y="-175.5" font-family="Helvetica,sans-Serif" font-size="10.00">setjmp.h</text>
</g>
<!-- Node10&#45;&gt;Node11 -->
<g id="edge14" class="edge"><title>Node10&#45;&gt;Node11</title>
<path fill="none" stroke="midnightblue" d="M95.3752,-224.083C103.464,-216.141 115.488,-204.335 125.203,-194.797"/>
<polygon fill="midnightblue" stroke="midnightblue" points="127.696,-197.254 132.38,-187.751 122.792,-192.26 127.696,-197.254"/>
</g>
<!-- Node12&#45;&gt;Node3 -->
<g id="edge18" class="edge"><title>Node12&#45;&gt;Node3</title>
<path fill="none" stroke="midnightblue" d="M805.938,-504.421C838.789,-489.231 899.293,-454.293 899.293,-403 899.293,-403 899.293,-403 899.293,-177 899.293,-82.3707 754.528,-67.4207 677.791,-66.1433"/>
<polygon fill="midnightblue" stroke="midnightblue" points="677.469,-62.6402 667.437,-66.0469 677.404,-69.6399 677.469,-62.6402"/>
</g>
<!-- Node12&#45;&gt;Node6 -->
<g id="edge17" class="edge"><title>Node12&#45;&gt;Node6</title>
<path fill="none" stroke="midnightblue" d="M796.836,-504.433C818.097,-487.571 861.293,-447.799 861.293,-403 861.293,-403 861.293,-403 861.293,-345 861.293,-283.961 814.576,-223.241 789.609,-195.149"/>
<polygon fill="midnightblue" stroke="midnightblue" points="791.964,-192.537 782.635,-187.514 786.795,-197.258 791.964,-192.537"/>
</g>
<!-- Node13 -->
<g id="node13" class="node"><title>Node13</title>
<g id="a_node13"><a xlink:href="../../d2/dc2/_equal_8h.html" target="_top" xlink:title="Equal.h">
<polygon fill="white" stroke="black" points="760.293,-448.5 760.293,-467.5 810.293,-467.5 810.293,-448.5 760.293,-448.5"/>
<text text-anchor="middle" x="785.293" y="-455.5" font-family="Helvetica,sans-Serif" font-size="10.00">Equal.h</text>
</a>
</g>
</g>
<!-- Node12&#45;&gt;Node13 -->
<g id="edge19" class="edge"><title>Node12&#45;&gt;Node13</title>
<path fill="none" stroke="midnightblue" d="M785.293,-504.083C785.293,-497.006 785.293,-486.861 785.293,-477.986"/>
<polygon fill="midnightblue" stroke="midnightblue" points="788.793,-477.751 785.293,-467.751 781.793,-477.751 788.793,-477.751"/>
</g>
<!-- Node14 -->
<g id="node14" class="node"><title>Node14</title>
<g id="a_node14"><a xlink:href="../../db/db5/_string_8h.html" target="_top" xlink:title="wlib/strings/String.h">
<polygon fill="white" stroke="black" points="653.793,-392.5 653.793,-411.5 756.793,-411.5 756.793,-392.5 653.793,-392.5"/>
<text text-anchor="middle" x="705.293" y="-399.5" font-family="Helvetica,sans-Serif" font-size="10.00">wlib/strings/String.h</text>
</a>
</g>
</g>
<!-- Node12&#45;&gt;Node14 -->
<g id="edge36" class="edge"><title>Node12&#45;&gt;Node14</title>
<path fill="none" stroke="midnightblue" d="M778.695,-504.433C771.785,-495.423 760.657,-480.804 751.293,-468 739.604,-452.017 726.595,-433.571 717.402,-420.421"/>
<polygon fill="midnightblue" stroke="midnightblue" points="720.047,-418.095 711.456,-411.894 714.305,-422.099 720.047,-418.095"/>
</g>
<!-- Node13&#45;&gt;Node3 -->
<g id="edge21" class="edge"><title>Node13&#45;&gt;Node3</title>
<path fill="none" stroke="midnightblue" d="M789.316,-448.176C805.619,-411.01 863.274,-264.668 807.293,-168 779.181,-119.455 717.947,-92.2245 675.672,-78.5746"/>
<polygon fill="midnightblue" stroke="midnightblue" points="676.485,-75.1624 665.897,-75.5496 674.415,-81.8496 676.485,-75.1624"/>
</g>
<!-- Node13&#45;&gt;Node6 -->
<g id="edge20" class="edge"><title>Node13&#45;&gt;Node6</title>
<path fill="none" stroke="midnightblue" d="M785.293,-448.442C785.293,-429.936 785.293,-384.812 785.293,-347 785.293,-347 785.293,-347 785.293,-289 785.293,-256.788 780.565,-219.532 777.308,-197.692"/>
<polygon fill="midnightblue" stroke="midnightblue" points="780.723,-196.874 775.731,-187.529 773.806,-197.947 780.723,-196.874"/>
</g>
<!-- Node13&#45;&gt;Node14 -->
<g id="edge22" class="edge"><title>Node13&#45;&gt;Node14</title>
<path fill="none" stroke="midnightblue" d="M772.44,-448.324C760.077,-439.979 741.163,-427.212 726.556,-417.352"/>
<polygon fill="midnightblue" stroke="midnightblue" points="728.361,-414.348 718.115,-411.655 724.445,-420.15 728.361,-414.348"/>
</g>
<!-- Node14&#45;&gt;Node3 -->
<g id="edge33" class="edge"><title>Node14&#45;&gt;Node3</title>
<path fill="none" stroke="midnightblue" d="M705.816,-392.446C706.9,-373.948 709.293,-328.837 709.293,-291 709.293,-291 709.293,-291 709.293,-177 709.293,-136.967 674.491,-101.336 651.38,-82.0874"/>
<polygon fill="midnightblue" stroke="midnightblue" points="653.473,-79.2799 643.481,-75.7595 649.097,-84.7432 653.473,-79.2799"/>
</g>
<!-- Node14&#45;&gt;Node5 -->
<g id="edge35" class="edge"><title>Node14&#45;&gt;Node5</title>
<path fill="none" stroke="midnightblue" d="M694.56,-392.309C661.488,-365.528 560.848,-284.035 518.928,-250.09"/>
<polygon fill="midnightblue" stroke="midnightblue" points="520.894,-247.178 510.92,-243.605 516.489,-252.618 520.894,-247.178"/>
</g>
<!-- Node14&#45;&gt;Node6 -->
<g id="edge23" class="edge"><title>Node14&#45;&gt;Node6</title>
<path fill="none" stroke="midnightblue" d="M709.002,-392.469C712.836,-383.489 718.869,-368.893 723.293,-356 742.882,-298.907 761.309,-229.786 769.639,-197.408"/>
<polygon fill="midnightblue" stroke="midnightblue" points="773.068,-198.123 772.149,-187.568 766.286,-196.393 773.068,-198.123"/>
</g>
<!-- Node15 -->
<g id="node15" class="node"><title>Node15</title>
<g id="a_node15"><a xlink:href="../../de/d0b/_string_iterator_8h.html" target="_top" xlink:title="StringIterator.h">
<polygon fill="white" stroke="black" points="523.793,-336.5 523.793,-355.5 604.793,-355.5 604.793,-336.5 523.793,-336.5"/>
<text text-anchor="middle" x="564.293" y="-343.5" font-family="Helvetica,sans-Serif" font-size="10.00">StringIterator.h</text>
</a>
</g>
</g>
<!-- Node14&#45;&gt;Node15 -->
<g id="edge24" class="edge"><title>Node14&#45;&gt;Node15</title>
<path fill="none" stroke="midnightblue" d="M682.951,-392.444C659.54,-383.478 622.557,-369.314 596.103,-359.183"/>
<polygon fill="midnightblue" stroke="midnightblue" points="597.121,-355.824 586.53,-355.516 594.617,-362.361 597.121,-355.824"/>
</g>
<!-- Node20 -->
<g id="node20" class="node"><title>Node20</title>
<g id="a_node20"><a xlink:href="../../da/db8/_math_8h.html" target="_top" xlink:title="wlib/utility/Math.h">
<polygon fill="white" stroke="black" points="412.793,-336.5 412.793,-355.5 505.793,-355.5 505.793,-336.5 412.793,-336.5"/>
<text text-anchor="middle" x="459.293" y="-343.5" font-family="Helvetica,sans-Serif" font-size="10.00">wlib/utility/Math.h</text>
</a>
</g>
</g>
<!-- Node14&#45;&gt;Node20 -->
<g id="edge34" class="edge"><title>Node14&#45;&gt;Node20</title>
<path fill="none" stroke="midnightblue" d="M666.314,-392.444C623.4,-383.023 554.348,-367.866 507.924,-357.675"/>
<polygon fill="midnightblue" stroke="midnightblue" points="508.608,-354.242 498.09,-355.516 507.107,-361.079 508.608,-354.242"/>
</g>
<!-- Node15&#45;&gt;Node3 -->
<g id="edge25" class="edge"><title>Node15&#45;&gt;Node3</title>
<path fill="none" stroke="midnightblue" d="M582.931,-336.441C613.587,-320.932 671.293,-285.087 671.293,-235 671.293,-235 671.293,-235 671.293,-177 671.293,-142.617 653.819,-105.631 641.97,-84.503"/>
<polygon fill="midnightblue" stroke="midnightblue" points="644.916,-82.6071 636.855,-75.7315 638.869,-86.1332 644.916,-82.6071"/>
</g>
<!-- Node15&#45;&gt;Node16 -->
<g id="edge26" class="edge"><title>Node15&#45;&gt;Node16</title>
<path fill="none" stroke="midnightblue" d="M538.465,-336.444C511.044,-327.359 467.516,-312.939 436.861,-302.783"/>
<polygon fill="midnightblue" stroke="midnightblue" points="437.593,-299.339 427,-299.516 435.392,-305.984 437.593,-299.339"/>
</g>
<!-- Node16&#45;&gt;Node8 -->
<g id="edge32" class="edge"><title>Node16&#45;&gt;Node8</title>
<path fill="none" stroke="midnightblue" d="M401.884,-280.075C403.616,-253.945 408.701,-177.211 411.062,-141.577"/>
<polygon fill="midnightblue" stroke="midnightblue" points="414.556,-141.778 411.725,-131.568 407.572,-141.315 414.556,-141.778"/>
</g>
<!-- Node17 -->
<g id="node17" class="node"><title>Node17</title>
<g id="a_node17"><a xlink:href="../../d4/dda/_pair_8h.html" target="_top" xlink:title="Implementation of a 2&#45;element tuple. ">
<polygon fill="white" stroke="black" points="342.293,-224.5 342.293,-243.5 384.293,-243.5 384.293,-224.5 342.293,-224.5"/>
<text text-anchor="middle" x="363.293" y="-231.5" font-family="Helvetica,sans-Serif" font-size="10.00">Pair.h</text>
</a>
</g>
</g>
<!-- Node16&#45;&gt;Node17 -->
<g id="edge27" class="edge"><title>Node16&#45;&gt;Node17</title>
<path fill="none" stroke="midnightblue" d="M395.018,-280.083C389.651,-272.455 381.775,-261.264 375.214,-251.941"/>
<polygon fill="midnightblue" stroke="midnightblue" points="378.069,-249.915 369.451,-243.751 372.344,-253.943 378.069,-249.915"/>
</g>
<!-- Node16&#45;&gt;Node18 -->
<g id="edge29" class="edge"><title>Node16&#45;&gt;Node18</title>
<path fill="none" stroke="midnightblue" d="M377.367,-280.444C352.074,-271.399 311.991,-257.064 283.613,-246.916"/>
<polygon fill="midnightblue" stroke="midnightblue" points="284.702,-243.588 274.108,-243.516 282.345,-250.179 284.702,-243.588"/>
</g>
<!-- Node19 -->
<g id="node19" class="node"><title>Node19</title>
<g id="a_node19"><a xlink:href="../../d2/db4/_wlib_8h.html" target="_top" xlink:title="wlib/Wlib.h">
<polygon fill="white" stroke="black" points="577.793,-224.5 577.793,-243.5 642.793,-243.5 642.793,-224.5 577.793,-224.5"/>
<text text-anchor="middle" x="610.293" y="-231.5" font-family="Helvetica,sans-Serif" font-size="10.00">wlib/Wlib.h</text>
</a>
</g>
</g>
<!-- Node16&#45;&gt;Node19 -->
<g id="edge31" class="edge"><title>Node16&#45;&gt;Node19</title>
<path fill="none" stroke="midnightblue" d="M434.41,-280.444C470.517,-271.115 528.402,-256.158 567.826,-245.972"/>
<polygon fill="midnightblue" stroke="midnightblue" points="568.869,-249.318 577.675,-243.428 567.118,-242.54 568.869,-249.318"/>
</g>
<!-- Node17&#45;&gt;Node7 -->
<g id="edge28" class="edge"><title>Node17&#45;&gt;Node7</title>
<path fill="none" stroke="midnightblue" d="M358.669,-224.083C354.837,-216.691 349.269,-205.953 344.528,-196.811"/>
<polygon fill="midnightblue" stroke="midnightblue" points="347.541,-195.018 339.831,-187.751 341.327,-198.24 347.541,-195.018"/>
</g>
<!-- Node18&#45;&gt;Node8 -->
<g id="edge30" class="edge"><title>Node18&#45;&gt;Node8</title>
<path fill="none" stroke="midnightblue" d="M251.593,-224.102C254.086,-210.195 260.833,-183.316 277.293,-168 305.687,-141.579 350.025,-130.64 380.074,-126.131"/>
<polygon fill="midnightblue" stroke="midnightblue" points="380.613,-129.59 390.057,-124.789 379.68,-122.652 380.613,-129.59"/>
</g>
</g>
</svg>
        <g id="navigator" transform="translate(0 0)" fill="#404254">
                <rect fill="#f2f5e9" fill-opacity="0.5" stroke="#606060" stroke-width=".5" x="0" y="0" width="60" height="60"/>
                <use id="zoomplus" xlink:href="#zoomPlus" x="17" y="9" onmousedown="handleZoom(evt,'in')"/>
                <use id="zoomminus" xlink:href="#zoomMin" x="42" y="9" onmousedown="handleZoom(evt,'out')"/>
                <use id="reset" xlink:href="#resetDef" x="30" y="36" onmousedown="handleReset()"/>
                <g id="arrowUp" xlink:href="#dirArrow" transform="translate(30 24)" onmousedown="handlePan(0,-1)">
                  <use xlink:href="#rim" fill="#404040">
                        <set attributeName="fill" to="#808080" begin="arrowUp.mouseover" end="arrowUp.mouseout"/>
                  </use>
                  <path fill="none" stroke="white" stroke-width="1.5" d="M0,-3.0v7 M-2.5,-0.5L0,-3.0L2.5,-0.5"/>
                </g>
                <g id="arrowRight" xlink:href="#dirArrow" transform="rotate(90) translate(36 -43)" onmousedown="handlePan(1,0)">
                  <use xlink:href="#rim" fill="#404040">
                        <set attributeName="fill" to="#808080" begin="arrowRight.mouseover" end="arrowRight.mouseout"/>
                  </use>
                  <path fill="none" stroke="white" stroke-width="1.5" d="M0,-3.0v7 M-2.5,-0.5L0,-3.0L2.5,-0.5"/>
                </g>
                <g id="arrowDown" xlink:href="#dirArrow" transform="rotate(180) translate(-30 -48)" onmousedown="handlePan(0,1)">
                  <use xlink:href="#rim" fill="#404040">
                        <set attributeName="fill" to="#808080" begin="arrowDown.mouseover" end="arrowDown.mouseout"/>
                  </use>
                  <path fill="none" stroke="white" stroke-width="1.5" d="M0,-3.0v7 M-2.5,-0.5L0,-3.0L2.5,-0.5"/>
                </g>
                <g id="arrowLeft" xlink:href="#dirArrow" transform="rotate(270) translate(-36 17)" onmousedown="handlePan(-1,0)">
                  <use xlink:href="#rim" fill="#404040">
                        <set attributeName="fill" to="#808080" begin="arrowLeft.mouseover" end="arrowLeft.mouseout"/>
                  </use>
                  <path fill="none" stroke="white" stroke-width="1.5" d="M0,-3.0v7 M-2.5,-0.5L0,-3.0L2.5,-0.5"/>
                </g>
        </g>
        <svg viewBox="0 0 15 15" width="100%" height="30px" preserveAspectRatio="xMaxYMin meet">
         <g id="arrow_out" transform="scale(0.3 0.3)">
          <a xlink:href="_array_heap_8h__incl_org.svg" target="_base">
           <rect id="button" ry="5" rx="5" y="6" x="6" height="38" width="38"
                fill="#f2f5e9" fill-opacity="0.5" stroke="#606060" stroke-width="1.0"/>
           <path id="arrow"
             d="M 11.500037,31.436501 C 11.940474,20.09759 22.043105,11.32322 32.158766,21.979434 L 37.068811,17.246167 C 37.068811,17.246167 37.088388,32 37.088388,32 L 22.160133,31.978069 C 22.160133,31.978069 26.997745,27.140456 26.997745,27.140456 C 18.528582,18.264221 13.291696,25.230495 11.500037,31.436501 z"
             style="fill:#404040;"/>
          </a>
         </g>
        </svg>
</svg>
