<?xml version="1.0" encoding="UTF-8" standalone="no"?>
<!DOCTYPE svg PUBLIC "-//W3C//DTD SVG 1.1//EN"
 "http://www.w3.org/Graphics/SVG/1.1/DTD/svg11.dtd">
<!-- Generated by graphviz version 2.36.0 (20140111.2315)
 -->
<!-- Title: stl/ArrayHeap.h Pages: 1 -->
<svg width="928pt" height="588pt"
 viewBox="0.00 0.00 928.00 588.00" xmlns="http://www.w3.org/2000/svg" xmlns:xlink="http://www.w3.org/1999/xlink">
<g id="graph0" class="graph" transform="scale(1 1) rotate(0) translate(4 584)">
<title>stl/ArrayHeap.h</title>
<polygon fill="white" stroke="none" points="-4,4 -4,-584 924,-584 924,4 -4,4"/>
<!-- Node1 -->
<g id="node1" class="node"><title>Node1</title>
<polygon fill="#bfbfbf" stroke="black" points="231.5,-560.5 231.5,-579.5 316.5,-579.5 316.5,-560.5 231.5,-560.5"/>
<text text-anchor="middle" x="274" y="-567.5" font-family="Helvetica,sans-Serif" font-size="10.00">stl/ArrayHeap.h</text>
</g>
<!-- Node2 -->
<g id="node2" class="node"><title>Node2</title>
<g id="a_node2"><a xlink:href="../../d2/db9/_array_list_8h.html" target="_top" xlink:title="List implementation using an array. ">
<polygon fill="white" stroke="black" points="177,-392.5 177,-411.5 241,-411.5 241,-392.5 177,-392.5"/>
<text text-anchor="middle" x="209" y="-399.5" font-family="Helvetica,sans-Serif" font-size="10.00">ArrayList.h</text>
</a>
</g>
</g>
<!-- Node1&#45;&gt;Node2 -->
<g id="edge1" class="edge"><title>Node1&#45;&gt;Node2</title>
<path fill="none" stroke="midnightblue" d="M270.505,-560.075C260.229,-533.832 229.967,-456.545 216.094,-421.117"/>
<polygon fill="midnightblue" stroke="midnightblue" points="219.26,-419.604 212.355,-411.568 212.742,-422.156 219.26,-419.604"/>
</g>
<!-- Node7 -->
<g id="node7" class="node"><title>Node7</title>
<g id="a_node7"><a xlink:href="../../db/d2a/_utility_8h.html" target="_top" xlink:title="Various helper functions. ">
<polygon fill="white" stroke="black" points="254,-168.5 254,-187.5 340,-187.5 340,-168.5 254,-168.5"/>
<text text-anchor="middle" x="297" y="-175.5" font-family="Helvetica,sans-Serif" font-size="10.00">../utility/Utility.h</text>
</a>
</g>
</g>
<!-- Node1&#45;&gt;Node7 -->
<g id="edge37" class="edge"><title>Node1&#45;&gt;Node7</title>
<path fill="none" stroke="midnightblue" d="M289.357,-560.31C315.772,-544.093 367,-506.515 367,-459 367,-459 367,-459 367,-401 367,-322.121 390.977,-293.675 354,-224 347.077,-210.954 334.554,-200.425 323.007,-192.841"/>
<polygon fill="midnightblue" stroke="midnightblue" points="324.833,-189.855 314.476,-187.623 321.18,-195.827 324.833,-189.855"/>
</g>
<!-- Node11 -->
<g id="node11" class="node"><title>Node11</title>
<g id="a_node11"><a xlink:href="../../d7/d0c/_comparator_8h.html" target="_top" xlink:title="Comparator implementation for basic types. ">
<polygon fill="white" stroke="black" points="768,-504.5 768,-523.5 844,-523.5 844,-504.5 768,-504.5"/>
<text text-anchor="middle" x="806" y="-511.5" font-family="Helvetica,sans-Serif" font-size="10.00">Comparator.h</text>
</a>
</g>
</g>
<!-- Node1&#45;&gt;Node11 -->
<g id="edge14" class="edge"><title>Node1&#45;&gt;Node11</title>
<path fill="none" stroke="midnightblue" d="M316.636,-564.672C414.491,-554.74 654.672,-530.36 757.74,-519.899"/>
<polygon fill="midnightblue" stroke="midnightblue" points="758.267,-523.363 767.863,-518.871 757.56,-516.399 758.267,-523.363"/>
</g>
<!-- Node15 -->
<g id="node15" class="node"><title>Node15</title>
<g id="a_node15"><a xlink:href="../../d8/dd7/_concept_8h.html" target="_top" xlink:title="Concept definitions. ">
<polygon fill="white" stroke="black" points="232,-280.5 232,-299.5 316,-299.5 316,-280.5 232,-280.5"/>
<text text-anchor="middle" x="274" y="-287.5" font-family="Helvetica,sans-Serif" font-size="10.00">../stl/Concept.h</text>
</a>
</g>
</g>
<!-- Node1&#45;&gt;Node15 -->
<g id="edge35" class="edge"><title>Node1&#45;&gt;Node15</title>
<path fill="none" stroke="midnightblue" d="M274,-560.442C274,-541.936 274,-496.812 274,-459 274,-459 274,-459 274,-401 274,-368.948 274,-331.643 274,-309.749"/>
<polygon fill="midnightblue" stroke="midnightblue" points="277.5,-309.558 274,-299.558 270.5,-309.558 277.5,-309.558"/>
</g>
<!-- Node17 -->
<g id="node17" class="node"><title>Node17</title>
<g id="a_node17"><a xlink:href="../../d4/dd5/_type_traits_8h.html" target="_top" xlink:title="Metafunctions for types. ">
<polygon fill="white" stroke="black" points="66.5,-224.5 66.5,-243.5 137.5,-243.5 137.5,-224.5 66.5,-224.5"/>
<text text-anchor="middle" x="102" y="-231.5" font-family="Helvetica,sans-Serif" font-size="10.00">TypeTraits.h</text>
</a>
</g>
</g>
<!-- Node1&#45;&gt;Node17 -->
<g id="edge36" class="edge"><title>Node1&#45;&gt;Node17</title>
<path fill="none" stroke="midnightblue" d="M231.488,-561.1C154.527,-545.577 0,-508.273 0,-459 0,-459 0,-459 0,-345 0,-300.392 45.6604,-266.234 75.8815,-248.511"/>
<polygon fill="midnightblue" stroke="midnightblue" points="77.7021,-251.503 84.6971,-243.545 74.2665,-245.404 77.7021,-251.503"/>
</g>
<!-- Node3 -->
<g id="node3" class="node"><title>Node3</title>
<g id="a_node3"><a xlink:href="../../d0/db6/_types_8h.html" target="_top" xlink:title="type definition of all the string types we will be using ">
<polygon fill="white" stroke="black" points="561.5,-56.5 561.5,-75.5 622.5,-75.5 622.5,-56.5 561.5,-56.5"/>
<text text-anchor="middle" x="592" y="-63.5" font-family="Helvetica,sans-Serif" font-size="10.00">../Types.h</text>
</a>
</g>
</g>
<!-- Node2&#45;&gt;Node3 -->
<g id="edge2" class="edge"><title>Node2&#45;&gt;Node3</title>
<path fill="none" stroke="midnightblue" d="M176.836,-395.379C127.302,-384.669 38,-356.304 38,-291 38,-291 38,-291 38,-177 38,-72.3239 423.317,-65.7358 551.26,-66.4335"/>
<polygon fill="midnightblue" stroke="midnightblue" points="551.4,-69.9345 561.425,-66.5076 551.451,-62.9347 551.4,-69.9345"/>
</g>
<!-- Node5 -->
<g id="node5" class="node"><title>Node5</title>
<g id="a_node5"><a xlink:href="../../d3/de6/_memory_8h.html" target="_top" xlink:title="Memory is a class that provides dynamic fixed size memory. ">
<polygon fill="white" stroke="black" points="494.5,-336.5 494.5,-355.5 601.5,-355.5 601.5,-336.5 494.5,-336.5"/>
<text text-anchor="middle" x="548" y="-343.5" font-family="Helvetica,sans-Serif" font-size="10.00">../memory/Memory.h</text>
</a>
</g>
</g>
<!-- Node2&#45;&gt;Node5 -->
<g id="edge4" class="edge"><title>Node2&#45;&gt;Node5</title>
<path fill="none" stroke="midnightblue" d="M241.198,-395.871C296.919,-386.995 412.286,-368.618 484.587,-357.101"/>
<polygon fill="midnightblue" stroke="midnightblue" points="485.168,-360.553 494.493,-355.523 484.067,-353.64 485.168,-360.553"/>
</g>
<!-- Node2&#45;&gt;Node7 -->
<g id="edge13" class="edge"><title>Node2&#45;&gt;Node7</title>
<path fill="none" stroke="midnightblue" d="M207.14,-392.429C201.748,-365.317 188.587,-279.917 223,-224 231.921,-209.504 247.423,-199.029 261.94,-191.853"/>
<polygon fill="midnightblue" stroke="midnightblue" points="263.612,-194.938 271.259,-187.605 260.708,-188.568 263.612,-194.938"/>
</g>
<!-- Node4 -->
<g id="node4" class="node"><title>Node4</title>
<polygon fill="white" stroke="#bfbfbf" points="567.5,-0.5 567.5,-19.5 616.5,-19.5 616.5,-0.5 567.5,-0.5"/>
<text text-anchor="middle" x="592" y="-7.5" font-family="Helvetica,sans-Serif" font-size="10.00">stdint.h</text>
</g>
<!-- Node3&#45;&gt;Node4 -->
<g id="edge3" class="edge"><title>Node3&#45;&gt;Node4</title>
<path fill="none" stroke="midnightblue" d="M592,-56.083C592,-49.0059 592,-38.8611 592,-29.9865"/>
<polygon fill="midnightblue" stroke="midnightblue" points="595.5,-29.751 592,-19.7511 588.5,-29.7511 595.5,-29.751"/>
</g>
<!-- Node5&#45;&gt;Node3 -->
<g id="edge9" class="edge"><title>Node5&#45;&gt;Node3</title>
<path fill="none" stroke="midnightblue" d="M554.118,-336.349C566.208,-318.377 592,-275.314 592,-235 592,-235 592,-235 592,-177 592,-144.948 592,-107.643 592,-85.7489"/>
<polygon fill="midnightblue" stroke="midnightblue" points="595.5,-85.5577 592,-75.5578 588.5,-85.5578 595.5,-85.5577"/>
</g>
<!-- Node6 -->
<g id="node6" class="node"><title>Node6</title>
<polygon fill="white" stroke="#bfbfbf" points="755.5,-280.5 755.5,-299.5 804.5,-299.5 804.5,-280.5 755.5,-280.5"/>
<text text-anchor="middle" x="780" y="-287.5" font-family="Helvetica,sans-Serif" font-size="10.00">string.h</text>
</g>
<!-- Node5&#45;&gt;Node6 -->
<g id="edge5" class="edge"><title>Node5&#45;&gt;Node6</title>
<path fill="none" stroke="midnightblue" d="M584.761,-336.444C628.882,-326.174 702.298,-309.086 745.424,-299.048"/>
<polygon fill="midnightblue" stroke="midnightblue" points="746.235,-302.453 755.181,-296.777 744.648,-295.635 746.235,-302.453"/>
</g>
<!-- Node5&#45;&gt;Node7 -->
<g id="edge6" class="edge"><title>Node5&#45;&gt;Node7</title>
<path fill="none" stroke="midnightblue" d="M531.14,-336.486C515.096,-328.08 490.569,-314.422 471,-300 430.737,-270.325 429.272,-252.255 388,-224 369.139,-211.087 346.033,-199.709 327.824,-191.624"/>
<polygon fill="midnightblue" stroke="midnightblue" points="329.1,-188.363 318.533,-187.594 326.315,-194.785 329.1,-188.363"/>
</g>
<!-- Node8 -->
<g id="node8" class="node"><title>Node8</title>
<g id="a_node8"><a xlink:href="../../d2/d37/_tmp_8h.html" target="_top" xlink:title="Template helper types, structs, and metafunctions. ">
<polygon fill="white" stroke="black" points="275,-112.5 275,-131.5 319,-131.5 319,-112.5 275,-112.5"/>
<text text-anchor="middle" x="297" y="-119.5" font-family="Helvetica,sans-Serif" font-size="10.00">Tmp.h</text>
</a>
</g>
</g>
<!-- Node5&#45;&gt;Node8 -->
<g id="edge10" class="edge"><title>Node5&#45;&gt;Node8</title>
<path fill="none" stroke="midnightblue" d="M549.787,-336.336C553.687,-314.899 560.679,-258.616 535,-224 485.212,-156.884 381.967,-133.97 329.348,-126.464"/>
<polygon fill="midnightblue" stroke="midnightblue" points="329.601,-122.967 319.228,-125.122 328.681,-129.906 329.601,-122.967"/>
</g>
<!-- Node9 -->
<g id="node9" class="node"><title>Node9</title>
<g id="a_node9"><a xlink:href="../../d9/d8a/_new_8h.html" target="_top" xlink:title="New operators defined for Arduino boards and for other boards use the normal new. ...">
<polygon fill="white" stroke="black" points="480.5,-280.5 480.5,-299.5 525.5,-299.5 525.5,-280.5 480.5,-280.5"/>
<text text-anchor="middle" x="503" y="-287.5" font-family="Helvetica,sans-Serif" font-size="10.00">New.h</text>
</a>
</g>
</g>
<!-- Node5&#45;&gt;Node9 -->
<g id="edge11" class="edge"><title>Node5&#45;&gt;Node9</title>
<path fill="none" stroke="midnightblue" d="M540.569,-336.083C534.147,-328.377 524.694,-317.033 516.878,-307.653"/>
<polygon fill="midnightblue" stroke="midnightblue" points="519.383,-305.193 510.293,-299.751 514.006,-309.674 519.383,-305.193"/>
</g>
<!-- Node7&#45;&gt;Node8 -->
<g id="edge7" class="edge"><title>Node7&#45;&gt;Node8</title>
<path fill="none" stroke="midnightblue" d="M297,-168.083C297,-161.006 297,-150.861 297,-141.986"/>
<polygon fill="midnightblue" stroke="midnightblue" points="300.5,-141.751 297,-131.751 293.5,-141.751 300.5,-141.751"/>
</g>
<!-- Node8&#45;&gt;Node3 -->
<g id="edge8" class="edge"><title>Node8&#45;&gt;Node3</title>
<path fill="none" stroke="midnightblue" d="M319.173,-116.941C368.548,-107.903 488.168,-86.0064 551.348,-74.4413"/>
<polygon fill="midnightblue" stroke="midnightblue" points="552.147,-77.8534 561.353,-72.6099 550.886,-70.9678 552.147,-77.8534"/>
</g>
<!-- Node10 -->
<g id="node10" class="node"><title>Node10</title>
<polygon fill="white" stroke="#bfbfbf" points="478,-224.5 478,-243.5 526,-243.5 526,-224.5 478,-224.5"/>
<text text-anchor="middle" x="502" y="-231.5" font-family="Helvetica,sans-Serif" font-size="10.00">stdlib.h</text>
</g>
<!-- Node9&#45;&gt;Node10 -->
<g id="edge12" class="edge"><title>Node9&#45;&gt;Node10</title>
<path fill="none" stroke="midnightblue" d="M502.835,-280.083C502.704,-273.006 502.516,-262.861 502.352,-253.986"/>
<polygon fill="midnightblue" stroke="midnightblue" points="505.847,-253.685 502.162,-243.751 498.848,-253.814 505.847,-253.685"/>
</g>
<!-- Node11&#45;&gt;Node3 -->
<g id="edge16" class="edge"><title>Node11&#45;&gt;Node3</title>
<path fill="none" stroke="midnightblue" d="M826.645,-504.421C859.496,-489.231 920,-454.293 920,-403 920,-403 920,-403 920,-177 920,-128.733 877.206,-131.378 833,-112 766.72,-82.9459 682.174,-72.6351 632.862,-68.9864"/>
<polygon fill="midnightblue" stroke="midnightblue" points="632.812,-65.475 622.597,-68.2861 632.336,-72.4588 632.812,-65.475"/>
</g>
<!-- Node11&#45;&gt;Node6 -->
<g id="edge15" class="edge"><title>Node11&#45;&gt;Node6</title>
<path fill="none" stroke="midnightblue" d="M817.266,-504.427C826.966,-496.275 840.279,-483.046 846,-468 849.159,-459.691 847.654,-456.734 846,-448 835.862,-394.467 806.122,-336.654 790.252,-308.461"/>
<polygon fill="midnightblue" stroke="midnightblue" points="793.284,-306.712 785.273,-299.779 787.212,-310.195 793.284,-306.712"/>
</g>
<!-- Node12 -->
<g id="node12" class="node"><title>Node12</title>
<g id="a_node12"><a xlink:href="../../d2/dc2/_equal_8h.html" target="_top" xlink:title="stl/Equal.h">
<polygon fill="white" stroke="black" points="774.5,-448.5 774.5,-467.5 837.5,-467.5 837.5,-448.5 774.5,-448.5"/>
<text text-anchor="middle" x="806" y="-455.5" font-family="Helvetica,sans-Serif" font-size="10.00">stl/Equal.h</text>
</a>
</g>
</g>
<!-- Node11&#45;&gt;Node12 -->
<g id="edge17" class="edge"><title>Node11&#45;&gt;Node12</title>
<path fill="none" stroke="midnightblue" d="M806,-504.083C806,-497.006 806,-486.861 806,-477.986"/>
<polygon fill="midnightblue" stroke="midnightblue" points="809.5,-477.751 806,-467.751 802.5,-477.751 809.5,-477.751"/>
</g>
<!-- Node13 -->
<g id="node13" class="node"><title>Node13</title>
<g id="a_node13"><a xlink:href="../../db/db5/_string_8h.html" target="_top" xlink:title="../strings/String.h">
<polygon fill="white" stroke="black" points="653,-392.5 653,-411.5 745,-411.5 745,-392.5 653,-392.5"/>
<text text-anchor="middle" x="699" y="-399.5" font-family="Helvetica,sans-Serif" font-size="10.00">../strings/String.h</text>
</a>
</g>
</g>
<!-- Node11&#45;&gt;Node13 -->
<g id="edge34" class="edge"><title>Node11&#45;&gt;Node13</title>
<path fill="none" stroke="midnightblue" d="M797.604,-504.368C779.711,-485.974 737.589,-442.671 714.614,-419.052"/>
<polygon fill="midnightblue" stroke="midnightblue" points="716.839,-416.319 707.357,-411.591 711.821,-421.2 716.839,-416.319"/>
</g>
<!-- Node12&#45;&gt;Node3 -->
<g id="edge19" class="edge"><title>Node12&#45;&gt;Node3</title>
<path fill="none" stroke="midnightblue" d="M811.284,-448.231C821.725,-430.043 844,-386.601 844,-347 844,-347 844,-347 844,-177 844,-86.0024 704.273,-69.5318 632.909,-67.0538"/>
<polygon fill="midnightblue" stroke="midnightblue" points="632.991,-63.5549 622.9,-66.7826 632.802,-70.5523 632.991,-63.5549"/>
</g>
<!-- Node12&#45;&gt;Node6 -->
<g id="edge18" class="edge"><title>Node12&#45;&gt;Node6</title>
<path fill="none" stroke="midnightblue" d="M804.602,-448.075C800.51,-421.945 788.491,-345.211 782.91,-309.577"/>
<polygon fill="midnightblue" stroke="midnightblue" points="786.347,-308.906 781.342,-299.568 779.432,-309.989 786.347,-308.906"/>
</g>
<!-- Node12&#45;&gt;Node13 -->
<g id="edge20" class="edge"><title>Node12&#45;&gt;Node13</title>
<path fill="none" stroke="midnightblue" d="M788.809,-448.324C771.649,-439.664 745.054,-426.242 725.253,-416.249"/>
<polygon fill="midnightblue" stroke="midnightblue" points="726.653,-413.035 716.149,-411.655 723.499,-419.285 726.653,-413.035"/>
</g>
<!-- Node13&#45;&gt;Node3 -->
<g id="edge31" class="edge"><title>Node13&#45;&gt;Node3</title>
<path fill="none" stroke="midnightblue" d="M685.626,-392.195C674.303,-384.075 658.447,-371.029 649,-356 632.982,-330.518 630,-321.098 630,-291 630,-291 630,-291 630,-177 630,-142.813 613.4,-105.764 602.143,-84.5707"/>
<polygon fill="midnightblue" stroke="midnightblue" points="605.181,-82.832 597.284,-75.769 599.053,-86.2151 605.181,-82.832"/>
</g>
<!-- Node13&#45;&gt;Node5 -->
<g id="edge33" class="edge"><title>Node13&#45;&gt;Node5</title>
<path fill="none" stroke="midnightblue" d="M675.074,-392.444C649.781,-383.399 609.698,-369.064 581.32,-358.916"/>
<polygon fill="midnightblue" stroke="midnightblue" points="582.409,-355.588 571.814,-355.516 580.052,-362.179 582.409,-355.588"/>
</g>
<!-- Node13&#45;&gt;Node6 -->
<g id="edge21" class="edge"><title>Node13&#45;&gt;Node6</title>
<path fill="none" stroke="midnightblue" d="M710.937,-392.447C721.916,-384.114 738.098,-370.597 749,-356 759.744,-341.615 768.189,-322.914 773.534,-309.266"/>
<polygon fill="midnightblue" stroke="midnightblue" points="776.93,-310.177 777.14,-299.584 770.37,-307.733 776.93,-310.177"/>
</g>
<!-- Node14 -->
<g id="node14" class="node"><title>Node14</title>
<g id="a_node14"><a xlink:href="../../de/d0b/_string_iterator_8h.html" target="_top" xlink:title="StringIterator.h">
<polygon fill="white" stroke="black" points="395.5,-336.5 395.5,-355.5 476.5,-355.5 476.5,-336.5 395.5,-336.5"/>
<text text-anchor="middle" x="436" y="-343.5" font-family="Helvetica,sans-Serif" font-size="10.00">StringIterator.h</text>
</a>
</g>
</g>
<!-- Node13&#45;&gt;Node14 -->
<g id="edge22" class="edge"><title>Node13&#45;&gt;Node14</title>
<path fill="none" stroke="midnightblue" d="M657.327,-392.444C610.984,-382.928 536.129,-367.559 486.496,-357.368"/>
<polygon fill="midnightblue" stroke="midnightblue" points="487.114,-353.922 476.614,-355.339 485.706,-360.779 487.114,-353.922"/>
</g>
<!-- Node19 -->
<g id="node19" class="node"><title>Node19</title>
<g id="a_node19"><a xlink:href="../../da/db8/_math_8h.html" target="_top" xlink:title="../utility/Math.h">
<polygon fill="white" stroke="black" points="658,-336.5 658,-355.5 740,-355.5 740,-336.5 658,-336.5"/>
<text text-anchor="middle" x="699" y="-343.5" font-family="Helvetica,sans-Serif" font-size="10.00">../utility/Math.h</text>
</a>
</g>
</g>
<!-- Node13&#45;&gt;Node19 -->
<g id="edge32" class="edge"><title>Node13&#45;&gt;Node19</title>
<path fill="none" stroke="midnightblue" d="M699,-392.083C699,-385.006 699,-374.861 699,-365.986"/>
<polygon fill="midnightblue" stroke="midnightblue" points="702.5,-365.751 699,-355.751 695.5,-365.751 702.5,-365.751"/>
</g>
<!-- Node14&#45;&gt;Node3 -->
<g id="edge23" class="edge"><title>Node14&#45;&gt;Node3</title>
<path fill="none" stroke="midnightblue" d="M432.763,-336.301C426.212,-317.889 412,-273.507 412,-235 412,-235 412,-235 412,-177 412,-112.108 498.23,-84.3484 551.324,-73.4065"/>
<polygon fill="midnightblue" stroke="midnightblue" points="552.316,-76.7792 561.465,-71.4364 550.981,-69.9077 552.316,-76.7792"/>
</g>
<!-- Node14&#45;&gt;Node15 -->
<g id="edge24" class="edge"><title>Node14&#45;&gt;Node15</title>
<path fill="none" stroke="midnightblue" d="M410.331,-336.444C383.077,-327.359 339.816,-312.939 309.349,-302.783"/>
<polygon fill="midnightblue" stroke="midnightblue" points="310.143,-299.358 299.549,-299.516 307.929,-305.999 310.143,-299.358"/>
</g>
<!-- Node15&#45;&gt;Node8 -->
<g id="edge30" class="edge"><title>Node15&#45;&gt;Node8</title>
<path fill="none" stroke="midnightblue" d="M258.266,-280.236C246.111,-272.481 230.188,-259.929 223,-244 219.344,-235.898 221.346,-232.734 223,-224 227.976,-197.726 229.552,-189.827 245,-168 253.298,-156.275 265.281,-145.632 275.654,-137.643"/>
<polygon fill="midnightblue" stroke="midnightblue" points="277.895,-140.34 283.871,-131.591 273.744,-134.703 277.895,-140.34"/>
</g>
<!-- Node16 -->
<g id="node16" class="node"><title>Node16</title>
<g id="a_node16"><a xlink:href="../../d4/dda/_pair_8h.html" target="_top" xlink:title="Implementation of a 2&#45;element tuple. ">
<polygon fill="white" stroke="black" points="232,-224.5 232,-243.5 274,-243.5 274,-224.5 232,-224.5"/>
<text text-anchor="middle" x="253" y="-231.5" font-family="Helvetica,sans-Serif" font-size="10.00">Pair.h</text>
</a>
</g>
</g>
<!-- Node15&#45;&gt;Node16 -->
<g id="edge25" class="edge"><title>Node15&#45;&gt;Node16</title>
<path fill="none" stroke="midnightblue" d="M270.532,-280.083C267.688,-272.77 263.571,-262.181 260.04,-253.103"/>
<polygon fill="midnightblue" stroke="midnightblue" points="263.29,-251.803 256.403,-243.751 256.766,-254.34 263.29,-251.803"/>
</g>
<!-- Node15&#45;&gt;Node17 -->
<g id="edge27" class="edge"><title>Node15&#45;&gt;Node17</title>
<path fill="none" stroke="midnightblue" d="M246.746,-280.444C217.559,-271.28 171.079,-256.688 138.691,-246.519"/>
<polygon fill="midnightblue" stroke="midnightblue" points="139.716,-243.173 129.126,-243.516 137.619,-249.851 139.716,-243.173"/>
</g>
<!-- Node18 -->
<g id="node18" class="node"><title>Node18</title>
<g id="a_node18"><a xlink:href="../../d2/db4/_wlib_8h.html" target="_top" xlink:title="../Wlib.h">
<polygon fill="white" stroke="black" points="292.5,-224.5 292.5,-243.5 345.5,-243.5 345.5,-224.5 292.5,-224.5"/>
<text text-anchor="middle" x="319" y="-231.5" font-family="Helvetica,sans-Serif" font-size="10.00">../Wlib.h</text>
</a>
</g>
</g>
<!-- Node15&#45;&gt;Node18 -->
<g id="edge29" class="edge"><title>Node15&#45;&gt;Node18</title>
<path fill="none" stroke="midnightblue" d="M281.431,-280.083C287.853,-272.377 297.306,-261.033 305.122,-251.653"/>
<polygon fill="midnightblue" stroke="midnightblue" points="307.994,-253.674 311.707,-243.751 302.617,-249.193 307.994,-253.674"/>
</g>
<!-- Node16&#45;&gt;Node7 -->
<g id="edge26" class="edge"><title>Node16&#45;&gt;Node7</title>
<path fill="none" stroke="midnightblue" d="M260.266,-224.083C266.545,-216.377 275.788,-205.033 283.431,-195.653"/>
<polygon fill="midnightblue" stroke="midnightblue" points="286.266,-197.714 289.869,-187.751 280.839,-193.293 286.266,-197.714"/>
</g>
<!-- Node17&#45;&gt;Node8 -->
<g id="edge28" class="edge"><title>Node17&#45;&gt;Node8</title>
<path fill="none" stroke="midnightblue" d="M106.295,-224.471C113.719,-210.586 130.265,-183.127 152,-168 186.306,-144.124 233.748,-132.561 264.888,-127.218"/>
<polygon fill="midnightblue" stroke="midnightblue" points="265.46,-130.671 274.782,-125.635 264.354,-123.759 265.46,-130.671"/>
</g>
</g>
</svg>
