<?xml version="1.0" encoding="UTF-8" standalone="no"?>
<!DOCTYPE svg PUBLIC "-//W3C//DTD SVG 1.1//EN"
 "http://www.w3.org/Graphics/SVG/1.1/DTD/svg11.dtd">
<!-- Generated by graphviz version 2.36.0 (20140111.2315)
 -->
<!-- Title: stl/ArrayHeap.h Pages: 1 -->
<svg width="926pt" height="588pt"
 viewBox="0.00 0.00 926.00 588.00" xmlns="http://www.w3.org/2000/svg" xmlns:xlink="http://www.w3.org/1999/xlink">
<g id="graph0" class="graph" transform="scale(1 1) rotate(0) translate(4 584)">
<title>stl/ArrayHeap.h</title>
<polygon fill="white" stroke="none" points="-4,4 -4,-584 922,-584 922,4 -4,4"/>
<!-- Node1 -->
<g id="node1" class="node"><title>Node1</title>
<polygon fill="#bfbfbf" stroke="black" points="231.5,-560.5 231.5,-579.5 316.5,-579.5 316.5,-560.5 231.5,-560.5"/>
<text text-anchor="middle" x="274" y="-567.5" font-family="Helvetica,sans-Serif" font-size="10.00">stl/ArrayHeap.h</text>
</g>
<!-- Node2 -->
<g id="node2" class="node"><title>Node2</title>
<g id="a_node2"><a xlink:href="../../d2/db9/_array_list_8h.html" target="_top" xlink:title="List implementation using an array. ">
<polygon fill="white" stroke="black" points="177,-392.5 177,-411.5 241,-411.5 241,-392.5 177,-392.5"/>
<text text-anchor="middle" x="209" y="-399.5" font-family="Helvetica,sans-Serif" font-size="10.00">ArrayList.h</text>
</a>
</g>
</g>
<!-- Node1&#45;&gt;Node2 -->
<g id="edge1" class="edge"><title>Node1&#45;&gt;Node2</title>
<path fill="none" stroke="midnightblue" d="M270.505,-560.075C260.229,-533.832 229.967,-456.545 216.094,-421.117"/>
<polygon fill="midnightblue" stroke="midnightblue" points="219.26,-419.604 212.355,-411.568 212.742,-422.156 219.26,-419.604"/>
</g>
<!-- Node7 -->
<g id="node7" class="node"><title>Node7</title>
<g id="a_node7"><a xlink:href="../../db/d2a/_utility_8h.html" target="_top" xlink:title="Various helper functions. ">
<polygon fill="white" stroke="black" points="254,-168.5 254,-187.5 340,-187.5 340,-168.5 254,-168.5"/>
<text text-anchor="middle" x="297" y="-175.5" font-family="Helvetica,sans-Serif" font-size="10.00">../utility/Utility.h</text>
</a>
</g>
</g>
<!-- Node1&#45;&gt;Node7 -->
<g id="edge37" class="edge"><title>Node1&#45;&gt;Node7</title>
<path fill="none" stroke="midnightblue" d="M288.621,-560.482C314.344,-544.272 365,-506.339 365,-459 365,-459 365,-459 365,-401 365,-322.182 390.557,-293.828 354,-224 347.15,-210.915 334.634,-200.383 323.072,-192.807"/>
<polygon fill="midnightblue" stroke="midnightblue" points="324.886,-189.814 314.526,-187.597 321.242,-195.791 324.886,-189.814"/>
</g>
<!-- Node11 -->
<g id="node11" class="node"><title>Node11</title>
<g id="a_node11"><a xlink:href="../../d7/d0c/_comparator_8h.html" target="_top" xlink:title="Comparator implementation for basic types. ">
<polygon fill="white" stroke="black" points="766,-504.5 766,-523.5 842,-523.5 842,-504.5 766,-504.5"/>
<text text-anchor="middle" x="804" y="-511.5" font-family="Helvetica,sans-Serif" font-size="10.00">Comparator.h</text>
</a>
</g>
</g>
<!-- Node1&#45;&gt;Node11 -->
<g id="edge14" class="edge"><title>Node1&#45;&gt;Node11</title>
<path fill="none" stroke="midnightblue" d="M316.923,-564.627C414.607,-554.674 652.98,-530.387 755.652,-519.926"/>
<polygon fill="midnightblue" stroke="midnightblue" points="756.145,-523.394 765.739,-518.898 755.436,-516.43 756.145,-523.394"/>
</g>
<!-- Node15 -->
<g id="node15" class="node"><title>Node15</title>
<g id="a_node15"><a xlink:href="../../d8/dd7/_concept_8h.html" target="_top" xlink:title="Concept definitions. ">
<polygon fill="white" stroke="black" points="232,-280.5 232,-299.5 316,-299.5 316,-280.5 232,-280.5"/>
<text text-anchor="middle" x="274" y="-287.5" font-family="Helvetica,sans-Serif" font-size="10.00">../stl/Concept.h</text>
</a>
</g>
</g>
<!-- Node1&#45;&gt;Node15 -->
<g id="edge35" class="edge"><title>Node1&#45;&gt;Node15</title>
<path fill="none" stroke="midnightblue" d="M274,-560.442C274,-541.936 274,-496.812 274,-459 274,-459 274,-459 274,-401 274,-368.948 274,-331.643 274,-309.749"/>
<polygon fill="midnightblue" stroke="midnightblue" points="277.5,-309.558 274,-299.558 270.5,-309.558 277.5,-309.558"/>
</g>
<!-- Node17 -->
<g id="node17" class="node"><title>Node17</title>
<g id="a_node17"><a xlink:href="../../d4/dd5/_type_traits_8h.html" target="_top" xlink:title="Metafunctions for types. ">
<polygon fill="white" stroke="black" points="66.5,-224.5 66.5,-243.5 137.5,-243.5 137.5,-224.5 66.5,-224.5"/>
<text text-anchor="middle" x="102" y="-231.5" font-family="Helvetica,sans-Serif" font-size="10.00">TypeTraits.h</text>
</a>
</g>
</g>
<!-- Node1&#45;&gt;Node17 -->
<g id="edge36" class="edge"><title>Node1&#45;&gt;Node17</title>
<path fill="none" stroke="midnightblue" d="M231.488,-561.1C154.527,-545.577 0,-508.273 0,-459 0,-459 0,-459 0,-345 0,-300.392 45.6604,-266.234 75.8815,-248.511"/>
<polygon fill="midnightblue" stroke="midnightblue" points="77.7021,-251.503 84.6971,-243.545 74.2665,-245.404 77.7021,-251.503"/>
</g>
<!-- Node3 -->
<g id="node3" class="node"><title>Node3</title>
<g id="a_node3"><a xlink:href="../../d0/db6/_types_8h.html" target="_top" xlink:title="type definition of all the string types we will be using ">
<polygon fill="white" stroke="black" points="559.5,-56.5 559.5,-75.5 620.5,-75.5 620.5,-56.5 559.5,-56.5"/>
<text text-anchor="middle" x="590" y="-63.5" font-family="Helvetica,sans-Serif" font-size="10.00">../Types.h</text>
</a>
</g>
</g>
<!-- Node2&#45;&gt;Node3 -->
<g id="edge2" class="edge"><title>Node2&#45;&gt;Node3</title>
<path fill="none" stroke="midnightblue" d="M176.836,-395.379C127.302,-384.669 38,-356.304 38,-291 38,-291 38,-291 38,-177 38,-72.8062 421.051,-65.8722 548.97,-66.4615"/>
<polygon fill="midnightblue" stroke="midnightblue" points="549.117,-69.9624 559.139,-66.527 549.162,-62.9626 549.117,-69.9624"/>
</g>
<!-- Node5 -->
<g id="node5" class="node"><title>Node5</title>
<g id="a_node5"><a xlink:href="../../d3/de6/_memory_8h.html" target="_top" xlink:title="Memory is a class that provides dynamic fixed size memory. ">
<polygon fill="white" stroke="black" points="492.5,-336.5 492.5,-355.5 599.5,-355.5 599.5,-336.5 492.5,-336.5"/>
<text text-anchor="middle" x="546" y="-343.5" font-family="Helvetica,sans-Serif" font-size="10.00">../memory/Memory.h</text>
</a>
</g>
</g>
<!-- Node2&#45;&gt;Node5 -->
<g id="edge4" class="edge"><title>Node2&#45;&gt;Node5</title>
<path fill="none" stroke="midnightblue" d="M241.008,-395.871C296.287,-387.013 410.618,-368.693 482.52,-357.172"/>
<polygon fill="midnightblue" stroke="midnightblue" points="483.488,-360.561 492.808,-355.523 482.381,-353.65 483.488,-360.561"/>
</g>
<!-- Node2&#45;&gt;Node7 -->
<g id="edge13" class="edge"><title>Node2&#45;&gt;Node7</title>
<path fill="none" stroke="midnightblue" d="M207.14,-392.429C201.748,-365.317 188.587,-279.917 223,-224 231.921,-209.504 247.423,-199.029 261.94,-191.853"/>
<polygon fill="midnightblue" stroke="midnightblue" points="263.612,-194.938 271.259,-187.605 260.708,-188.568 263.612,-194.938"/>
</g>
<!-- Node4 -->
<g id="node4" class="node"><title>Node4</title>
<polygon fill="white" stroke="#bfbfbf" points="565.5,-0.5 565.5,-19.5 614.5,-19.5 614.5,-0.5 565.5,-0.5"/>
<text text-anchor="middle" x="590" y="-7.5" font-family="Helvetica,sans-Serif" font-size="10.00">stdint.h</text>
</g>
<!-- Node3&#45;&gt;Node4 -->
<g id="edge3" class="edge"><title>Node3&#45;&gt;Node4</title>
<path fill="none" stroke="midnightblue" d="M590,-56.083C590,-49.0059 590,-38.8611 590,-29.9865"/>
<polygon fill="midnightblue" stroke="midnightblue" points="593.5,-29.751 590,-19.7511 586.5,-29.7511 593.5,-29.751"/>
</g>
<!-- Node5&#45;&gt;Node3 -->
<g id="edge9" class="edge"><title>Node5&#45;&gt;Node3</title>
<path fill="none" stroke="midnightblue" d="M552.118,-336.349C564.208,-318.377 590,-275.314 590,-235 590,-235 590,-235 590,-177 590,-144.948 590,-107.643 590,-85.7489"/>
<polygon fill="midnightblue" stroke="midnightblue" points="593.5,-85.5577 590,-75.5578 586.5,-85.5578 593.5,-85.5577"/>
</g>
<!-- Node6 -->
<g id="node6" class="node"><title>Node6</title>
<polygon fill="white" stroke="#bfbfbf" points="753.5,-280.5 753.5,-299.5 802.5,-299.5 802.5,-280.5 753.5,-280.5"/>
<text text-anchor="middle" x="778" y="-287.5" font-family="Helvetica,sans-Serif" font-size="10.00">string.h</text>
</g>
<!-- Node5&#45;&gt;Node6 -->
<g id="edge5" class="edge"><title>Node5&#45;&gt;Node6</title>
<path fill="none" stroke="midnightblue" d="M582.761,-336.444C626.882,-326.174 700.298,-309.086 743.424,-299.048"/>
<polygon fill="midnightblue" stroke="midnightblue" points="744.235,-302.453 753.181,-296.777 742.648,-295.635 744.235,-302.453"/>
</g>
<!-- Node5&#45;&gt;Node7 -->
<g id="edge6" class="edge"><title>Node5&#45;&gt;Node7</title>
<path fill="none" stroke="midnightblue" d="M528.792,-336.379C512.715,-327.998 488.356,-314.449 469,-300 429.44,-270.471 428.564,-252.134 388,-224 369.218,-210.973 346.111,-199.596 327.881,-191.54"/>
<polygon fill="midnightblue" stroke="midnightblue" points="329.147,-188.275 318.579,-187.529 326.375,-194.702 329.147,-188.275"/>
</g>
<!-- Node8 -->
<g id="node8" class="node"><title>Node8</title>
<g id="a_node8"><a xlink:href="../../d2/d37/_tmp_8h.html" target="_top" xlink:title="Template helper types, structs, and metafunctions. ">
<polygon fill="white" stroke="black" points="275,-112.5 275,-131.5 319,-131.5 319,-112.5 275,-112.5"/>
<text text-anchor="middle" x="297" y="-119.5" font-family="Helvetica,sans-Serif" font-size="10.00">Tmp.h</text>
</a>
</g>
</g>
<!-- Node5&#45;&gt;Node8 -->
<g id="edge10" class="edge"><title>Node5&#45;&gt;Node8</title>
<path fill="none" stroke="midnightblue" d="M547.243,-336.305C549.82,-314.797 553.473,-258.365 527,-224 477.928,-160.297 380.229,-135.964 329.407,-127.334"/>
<polygon fill="midnightblue" stroke="midnightblue" points="329.735,-123.842 319.308,-125.723 328.631,-130.755 329.735,-123.842"/>
</g>
<!-- Node9 -->
<g id="node9" class="node"><title>Node9</title>
<g id="a_node9"><a xlink:href="../../d9/d8a/_new_8h.html" target="_top" xlink:title="New operators defined for Arduino boards and for other boards use the normal new. ...">
<polygon fill="white" stroke="black" points="478.5,-280.5 478.5,-299.5 523.5,-299.5 523.5,-280.5 478.5,-280.5"/>
<text text-anchor="middle" x="501" y="-287.5" font-family="Helvetica,sans-Serif" font-size="10.00">New.h</text>
</a>
</g>
</g>
<!-- Node5&#45;&gt;Node9 -->
<g id="edge11" class="edge"><title>Node5&#45;&gt;Node9</title>
<path fill="none" stroke="midnightblue" d="M538.569,-336.083C532.147,-328.377 522.694,-317.033 514.878,-307.653"/>
<polygon fill="midnightblue" stroke="midnightblue" points="517.383,-305.193 508.293,-299.751 512.006,-309.674 517.383,-305.193"/>
</g>
<!-- Node7&#45;&gt;Node8 -->
<g id="edge7" class="edge"><title>Node7&#45;&gt;Node8</title>
<path fill="none" stroke="midnightblue" d="M297,-168.083C297,-161.006 297,-150.861 297,-141.986"/>
<polygon fill="midnightblue" stroke="midnightblue" points="300.5,-141.751 297,-131.751 293.5,-141.751 300.5,-141.751"/>
</g>
<!-- Node8&#45;&gt;Node3 -->
<g id="edge8" class="edge"><title>Node8&#45;&gt;Node3</title>
<path fill="none" stroke="midnightblue" d="M319.023,-116.941C367.937,-107.926 486.262,-86.1189 549.139,-74.5307"/>
<polygon fill="midnightblue" stroke="midnightblue" points="549.903,-77.949 559.103,-72.6944 548.634,-71.0649 549.903,-77.949"/>
</g>
<!-- Node10 -->
<g id="node10" class="node"><title>Node10</title>
<polygon fill="white" stroke="#bfbfbf" points="483.5,-224.5 483.5,-243.5 518.5,-243.5 518.5,-224.5 483.5,-224.5"/>
<text text-anchor="middle" x="501" y="-231.5" font-family="Helvetica,sans-Serif" font-size="10.00">new</text>
</g>
<!-- Node9&#45;&gt;Node10 -->
<g id="edge12" class="edge"><title>Node9&#45;&gt;Node10</title>
<path fill="none" stroke="midnightblue" d="M501,-280.083C501,-273.006 501,-262.861 501,-253.986"/>
<polygon fill="midnightblue" stroke="midnightblue" points="504.5,-253.751 501,-243.751 497.5,-253.751 504.5,-253.751"/>
</g>
<!-- Node11&#45;&gt;Node3 -->
<g id="edge16" class="edge"><title>Node11&#45;&gt;Node3</title>
<path fill="none" stroke="midnightblue" d="M824.645,-504.421C857.496,-489.231 918,-454.293 918,-403 918,-403 918,-403 918,-177 918,-128.733 875.206,-131.378 831,-112 764.72,-82.9459 680.174,-72.6351 630.862,-68.9864"/>
<polygon fill="midnightblue" stroke="midnightblue" points="630.812,-65.475 620.597,-68.2861 630.336,-72.4588 630.812,-65.475"/>
</g>
<!-- Node11&#45;&gt;Node6 -->
<g id="edge15" class="edge"><title>Node11&#45;&gt;Node6</title>
<path fill="none" stroke="midnightblue" d="M815.266,-504.427C824.966,-496.275 838.279,-483.046 844,-468 847.159,-459.691 845.654,-456.734 844,-448 833.862,-394.467 804.122,-336.654 788.252,-308.461"/>
<polygon fill="midnightblue" stroke="midnightblue" points="791.284,-306.712 783.273,-299.779 785.212,-310.195 791.284,-306.712"/>
</g>
<!-- Node12 -->
<g id="node12" class="node"><title>Node12</title>
<g id="a_node12"><a xlink:href="../../d2/dc2/_equal_8h.html" target="_top" xlink:title="stl/Equal.h">
<polygon fill="white" stroke="black" points="772.5,-448.5 772.5,-467.5 835.5,-467.5 835.5,-448.5 772.5,-448.5"/>
<text text-anchor="middle" x="804" y="-455.5" font-family="Helvetica,sans-Serif" font-size="10.00">stl/Equal.h</text>
</a>
</g>
</g>
<!-- Node11&#45;&gt;Node12 -->
<g id="edge17" class="edge"><title>Node11&#45;&gt;Node12</title>
<path fill="none" stroke="midnightblue" d="M804,-504.083C804,-497.006 804,-486.861 804,-477.986"/>
<polygon fill="midnightblue" stroke="midnightblue" points="807.5,-477.751 804,-467.751 800.5,-477.751 807.5,-477.751"/>
</g>
<!-- Node13 -->
<g id="node13" class="node"><title>Node13</title>
<g id="a_node13"><a xlink:href="../../db/db5/_string_8h.html" target="_top" xlink:title="../strings/String.h">
<polygon fill="white" stroke="black" points="651,-392.5 651,-411.5 743,-411.5 743,-392.5 651,-392.5"/>
<text text-anchor="middle" x="697" y="-399.5" font-family="Helvetica,sans-Serif" font-size="10.00">../strings/String.h</text>
</a>
</g>
</g>
<!-- Node11&#45;&gt;Node13 -->
<g id="edge34" class="edge"><title>Node11&#45;&gt;Node13</title>
<path fill="none" stroke="midnightblue" d="M795.604,-504.368C777.711,-485.974 735.589,-442.671 712.614,-419.052"/>
<polygon fill="midnightblue" stroke="midnightblue" points="714.839,-416.319 705.357,-411.591 709.821,-421.2 714.839,-416.319"/>
</g>
<!-- Node12&#45;&gt;Node3 -->
<g id="edge19" class="edge"><title>Node12&#45;&gt;Node3</title>
<path fill="none" stroke="midnightblue" d="M809.284,-448.231C819.725,-430.043 842,-386.601 842,-347 842,-347 842,-347 842,-177 842,-86.0024 702.273,-69.5318 630.909,-67.0538"/>
<polygon fill="midnightblue" stroke="midnightblue" points="630.991,-63.5549 620.9,-66.7826 630.802,-70.5523 630.991,-63.5549"/>
</g>
<!-- Node12&#45;&gt;Node6 -->
<g id="edge18" class="edge"><title>Node12&#45;&gt;Node6</title>
<path fill="none" stroke="midnightblue" d="M802.602,-448.075C798.51,-421.945 786.491,-345.211 780.91,-309.577"/>
<polygon fill="midnightblue" stroke="midnightblue" points="784.347,-308.906 779.342,-299.568 777.432,-309.989 784.347,-308.906"/>
</g>
<!-- Node12&#45;&gt;Node13 -->
<g id="edge20" class="edge"><title>Node12&#45;&gt;Node13</title>
<path fill="none" stroke="midnightblue" d="M786.809,-448.324C769.649,-439.664 743.054,-426.242 723.253,-416.249"/>
<polygon fill="midnightblue" stroke="midnightblue" points="724.653,-413.035 714.149,-411.655 721.499,-419.285 724.653,-413.035"/>
</g>
<!-- Node13&#45;&gt;Node3 -->
<g id="edge31" class="edge"><title>Node13&#45;&gt;Node3</title>
<path fill="none" stroke="midnightblue" d="M683.626,-392.195C672.303,-384.075 656.447,-371.029 647,-356 630.982,-330.518 628,-321.098 628,-291 628,-291 628,-291 628,-177 628,-142.813 611.4,-105.764 600.143,-84.5707"/>
<polygon fill="midnightblue" stroke="midnightblue" points="603.181,-82.832 595.284,-75.769 597.053,-86.2151 603.181,-82.832"/>
</g>
<!-- Node13&#45;&gt;Node5 -->
<g id="edge33" class="edge"><title>Node13&#45;&gt;Node5</title>
<path fill="none" stroke="midnightblue" d="M673.074,-392.444C647.781,-383.399 607.698,-369.064 579.32,-358.916"/>
<polygon fill="midnightblue" stroke="midnightblue" points="580.409,-355.588 569.814,-355.516 578.052,-362.179 580.409,-355.588"/>
</g>
<!-- Node13&#45;&gt;Node6 -->
<g id="edge21" class="edge"><title>Node13&#45;&gt;Node6</title>
<path fill="none" stroke="midnightblue" d="M708.937,-392.447C719.916,-384.114 736.098,-370.597 747,-356 757.744,-341.615 766.189,-322.914 771.534,-309.266"/>
<polygon fill="midnightblue" stroke="midnightblue" points="774.93,-310.177 775.14,-299.584 768.37,-307.733 774.93,-310.177"/>
</g>
<!-- Node14 -->
<g id="node14" class="node"><title>Node14</title>
<g id="a_node14"><a xlink:href="../../de/d0b/_string_iterator_8h.html" target="_top" xlink:title="StringIterator.h">
<polygon fill="white" stroke="black" points="393.5,-336.5 393.5,-355.5 474.5,-355.5 474.5,-336.5 393.5,-336.5"/>
<text text-anchor="middle" x="434" y="-343.5" font-family="Helvetica,sans-Serif" font-size="10.00">StringIterator.h</text>
</a>
</g>
</g>
<!-- Node13&#45;&gt;Node14 -->
<g id="edge22" class="edge"><title>Node13&#45;&gt;Node14</title>
<path fill="none" stroke="midnightblue" d="M655.327,-392.444C608.984,-382.928 534.129,-367.559 484.496,-357.368"/>
<polygon fill="midnightblue" stroke="midnightblue" points="485.114,-353.922 474.614,-355.339 483.706,-360.779 485.114,-353.922"/>
</g>
<!-- Node19 -->
<g id="node19" class="node"><title>Node19</title>
<g id="a_node19"><a xlink:href="../../da/db8/_math_8h.html" target="_top" xlink:title="../utility/Math.h">
<polygon fill="white" stroke="black" points="656,-336.5 656,-355.5 738,-355.5 738,-336.5 656,-336.5"/>
<text text-anchor="middle" x="697" y="-343.5" font-family="Helvetica,sans-Serif" font-size="10.00">../utility/Math.h</text>
</a>
</g>
</g>
<!-- Node13&#45;&gt;Node19 -->
<g id="edge32" class="edge"><title>Node13&#45;&gt;Node19</title>
<path fill="none" stroke="midnightblue" d="M697,-392.083C697,-385.006 697,-374.861 697,-365.986"/>
<polygon fill="midnightblue" stroke="midnightblue" points="700.5,-365.751 697,-355.751 693.5,-365.751 700.5,-365.751"/>
</g>
<!-- Node14&#45;&gt;Node3 -->
<g id="edge23" class="edge"><title>Node14&#45;&gt;Node3</title>
<path fill="none" stroke="midnightblue" d="M431.033,-336.279C425.028,-317.824 412,-273.367 412,-235 412,-235 412,-235 412,-177 412,-112.803 496.821,-84.8194 549.358,-73.6441"/>
<polygon fill="midnightblue" stroke="midnightblue" points="550.286,-77.0279 559.401,-71.6275 548.907,-70.1649 550.286,-77.0279"/>
</g>
<!-- Node14&#45;&gt;Node15 -->
<g id="edge24" class="edge"><title>Node14&#45;&gt;Node15</title>
<path fill="none" stroke="midnightblue" d="M408.648,-336.444C381.731,-327.359 339.004,-312.939 308.913,-302.783"/>
<polygon fill="midnightblue" stroke="midnightblue" points="309.828,-299.398 299.234,-299.516 307.59,-306.031 309.828,-299.398"/>
</g>
<!-- Node15&#45;&gt;Node8 -->
<g id="edge30" class="edge"><title>Node15&#45;&gt;Node8</title>
<path fill="none" stroke="midnightblue" d="M258.266,-280.236C246.111,-272.481 230.188,-259.929 223,-244 219.344,-235.898 221.346,-232.734 223,-224 227.976,-197.726 229.552,-189.827 245,-168 253.298,-156.275 265.281,-145.632 275.654,-137.643"/>
<polygon fill="midnightblue" stroke="midnightblue" points="277.895,-140.34 283.871,-131.591 273.744,-134.703 277.895,-140.34"/>
</g>
<!-- Node16 -->
<g id="node16" class="node"><title>Node16</title>
<g id="a_node16"><a xlink:href="../../d4/dda/_pair_8h.html" target="_top" xlink:title="Implementation of a 2&#45;element tuple. ">
<polygon fill="white" stroke="black" points="232,-224.5 232,-243.5 274,-243.5 274,-224.5 232,-224.5"/>
<text text-anchor="middle" x="253" y="-231.5" font-family="Helvetica,sans-Serif" font-size="10.00">Pair.h</text>
</a>
</g>
</g>
<!-- Node15&#45;&gt;Node16 -->
<g id="edge25" class="edge"><title>Node15&#45;&gt;Node16</title>
<path fill="none" stroke="midnightblue" d="M270.532,-280.083C267.688,-272.77 263.571,-262.181 260.04,-253.103"/>
<polygon fill="midnightblue" stroke="midnightblue" points="263.29,-251.803 256.403,-243.751 256.766,-254.34 263.29,-251.803"/>
</g>
<!-- Node15&#45;&gt;Node17 -->
<g id="edge27" class="edge"><title>Node15&#45;&gt;Node17</title>
<path fill="none" stroke="midnightblue" d="M246.746,-280.444C217.559,-271.28 171.079,-256.688 138.691,-246.519"/>
<polygon fill="midnightblue" stroke="midnightblue" points="139.716,-243.173 129.126,-243.516 137.619,-249.851 139.716,-243.173"/>
</g>
<!-- Node18 -->
<g id="node18" class="node"><title>Node18</title>
<g id="a_node18"><a xlink:href="../../d2/db4/_wlib_8h.html" target="_top" xlink:title="../Wlib.h">
<polygon fill="white" stroke="black" points="292.5,-224.5 292.5,-243.5 345.5,-243.5 345.5,-224.5 292.5,-224.5"/>
<text text-anchor="middle" x="319" y="-231.5" font-family="Helvetica,sans-Serif" font-size="10.00">../Wlib.h</text>
</a>
</g>
</g>
<!-- Node15&#45;&gt;Node18 -->
<g id="edge29" class="edge"><title>Node15&#45;&gt;Node18</title>
<path fill="none" stroke="midnightblue" d="M281.431,-280.083C287.853,-272.377 297.306,-261.033 305.122,-251.653"/>
<polygon fill="midnightblue" stroke="midnightblue" points="307.994,-253.674 311.707,-243.751 302.617,-249.193 307.994,-253.674"/>
</g>
<!-- Node16&#45;&gt;Node7 -->
<g id="edge26" class="edge"><title>Node16&#45;&gt;Node7</title>
<path fill="none" stroke="midnightblue" d="M260.266,-224.083C266.545,-216.377 275.788,-205.033 283.431,-195.653"/>
<polygon fill="midnightblue" stroke="midnightblue" points="286.266,-197.714 289.869,-187.751 280.839,-193.293 286.266,-197.714"/>
</g>
<!-- Node17&#45;&gt;Node8 -->
<g id="edge28" class="edge"><title>Node17&#45;&gt;Node8</title>
<path fill="none" stroke="midnightblue" d="M106.295,-224.471C113.719,-210.586 130.265,-183.127 152,-168 186.306,-144.124 233.748,-132.561 264.888,-127.218"/>
<polygon fill="midnightblue" stroke="midnightblue" points="265.46,-130.671 274.782,-125.635 264.354,-123.759 265.46,-130.671"/>
</g>
</g>
</svg>
