<?xml version="1.0" encoding="UTF-8" standalone="no"?>
<!DOCTYPE svg PUBLIC "-//W3C//DTD SVG 1.1//EN"
 "http://www.w3.org/Graphics/SVG/1.1/DTD/svg11.dtd">
<!-- Generated by graphviz version 2.36.0 (20140111.2315)
 -->
<!-- Title: wlib/stl/ArrayHeap.h Pages: 1 -->
<!--zoomable 588 -->
<svg id="main" version="1.1" xmlns="http://www.w3.org/2000/svg" xmlns:xlink="http://www.w3.org/1999/xlink" xml:space="preserve" onload="init(evt)">
<style type="text/css"><![CDATA[
.edge:hover path { stroke: red; }
.edge:hover polygon { stroke: red; fill: red; }
]]></style>
<script type="text/javascript"><![CDATA[
var edges = document.getElementsByTagName('g');
if (edges && edges.length) {
  for (var i=0;i<edges.length;i++) {
    if (edges[i].id.substr(0,4)=='edge') {
      edges[i].setAttribute('class','edge');
    }
  }
}
]]></script>
        <defs>
                <circle id="rim" cx="0" cy="0" r="7"/>
                <circle id="rim2" cx="0" cy="0" r="3.5"/>
                <g id="zoomPlus">
                        <use xlink:href="#rim" fill="#404040">
                                <set attributeName="fill" to="#808080" begin="zoomplus.mouseover" end="zoomplus.mouseout"/>
                        </use>
                        <path d="M-4,0h8M0,-4v8" fill="none" stroke="white" stroke-width="1.5" pointer-events="none"/>
                </g>
                <g id="zoomMin">
                        <use xlink:href="#rim" fill="#404040">
                                <set attributeName="fill" to="#808080" begin="zoomminus.mouseover" end="zoomminus.mouseout"/>
                        </use>
                        <path d="M-4,0h8" fill="none" stroke="white" stroke-width="1.5" pointer-events="none"/>
                </g>
                <g id="dirArrow">
                        <path fill="none" stroke="white" stroke-width="1.5" d="M0,-3.0v7 M-2.5,-0.5L0,-3.0L2.5,-0.5"/>
                </g>
               <g id="resetDef">
                       <use xlink:href="#rim2" fill="#404040">
                               <set attributeName="fill" to="#808080" begin="reset.mouseover" end="reset.mouseout"/>
                       </use>
               </g>
        </defs>

<script type="text/javascript">
var viewWidth = 975;
var viewHeight = 588;
var sectionId = 'dynsection-0';
</script>
<script xlink:href="../../svgpan.js"/>
<svg id="graph" class="graph">
<g id="viewport">
<title>wlib/stl/ArrayHeap.h</title>
<polygon fill="white" stroke="none" points="-4,4 -4,-584 971.017,-584 971.017,4 -4,4"/>
<!-- Node1 -->
<g id="node1" class="node"><title>Node1</title>
<polygon fill="#bfbfbf" stroke="black" points="295.517,-560.5 295.517,-579.5 400.517,-579.5 400.517,-560.5 295.517,-560.5"/>
<text text-anchor="middle" x="348.017" y="-567.5" font-family="Helvetica,sans-Serif" font-size="10.00">wlib/stl/ArrayHeap.h</text>
</g>
<!-- Node2 -->
<g id="node2" class="node"><title>Node2</title>
<g id="a_node2"><a xlink:href="../../d2/db9/_array_list_8h.html" target="_top" xlink:title="List implementation using an array. ">
<polygon fill="white" stroke="black" points="137.017,-280.5 137.017,-299.5 235.017,-299.5 235.017,-280.5 137.017,-280.5"/>
<text text-anchor="middle" x="186.017" y="-287.5" font-family="Helvetica,sans-Serif" font-size="10.00">wlib/stl/ArrayList.h</text>
</a>
</g>
</g>
<!-- Node1&#45;&gt;Node2 -->
<g id="edge1" class="edge"><title>Node1&#45;&gt;Node2</title>
<path fill="none" stroke="midnightblue" d="M322.531,-560.407C284.936,-545.928 219.017,-512.862 219.017,-459 219.017,-459 219.017,-459 219.017,-401 219.017,-367.245 204.585,-330.028 194.809,-308.691"/>
<polygon fill="midnightblue" stroke="midnightblue" points="197.928,-307.099 190.467,-299.576 191.608,-310.11 197.928,-307.099"/>
</g>
<!-- Node7 -->
<g id="node7" class="node"><title>Node7</title>
<g id="a_node7"><a xlink:href="../../db/d2a/_utility_8h.html" target="_top" xlink:title="Various helper functions. ">
<polygon fill="white" stroke="black" points="354.517,-168.5 354.517,-187.5 451.517,-187.5 451.517,-168.5 354.517,-168.5"/>
<text text-anchor="middle" x="403.017" y="-175.5" font-family="Helvetica,sans-Serif" font-size="10.00">wlib/utility/Utility.h</text>
</a>
</g>
</g>
<!-- Node1&#45;&gt;Node7 -->
<g id="edge39" class="edge"><title>Node1&#45;&gt;Node7</title>
<path fill="none" stroke="midnightblue" d="M348.017,-560.442C348.017,-541.936 348.017,-496.812 348.017,-459 348.017,-459 348.017,-459 348.017,-289 348.017,-258.902 353.13,-250.703 367.017,-224 372.43,-213.591 380.438,-203.276 387.527,-195.153"/>
<polygon fill="midnightblue" stroke="midnightblue" points="390.289,-197.319 394.436,-187.569 385.114,-192.605 390.289,-197.319"/>
</g>
<!-- Node12 -->
<g id="node12" class="node"><title>Node12</title>
<g id="a_node12"><a xlink:href="../../d7/d0c/_comparator_8h.html" target="_top" xlink:title="Comparator implementation for basic types. ">
<polygon fill="white" stroke="black" points="798.017,-504.5 798.017,-523.5 908.017,-523.5 908.017,-504.5 798.017,-504.5"/>
<text text-anchor="middle" x="853.017" y="-511.5" font-family="Helvetica,sans-Serif" font-size="10.00">wlib/stl/Comparator.h</text>
</a>
</g>
</g>
<!-- Node1&#45;&gt;Node12 -->
<g id="edge16" class="edge"><title>Node1&#45;&gt;Node12</title>
<path fill="none" stroke="midnightblue" d="M400.632,-563.374C493.563,-553.437 686.487,-532.807 787.743,-521.98"/>
<polygon fill="midnightblue" stroke="midnightblue" points="788.272,-525.443 797.843,-520.9 787.528,-518.483 788.272,-525.443"/>
</g>
<!-- Node16 -->
<g id="node16" class="node"><title>Node16</title>
<g id="a_node16"><a xlink:href="../../d8/dd7/_concept_8h.html" target="_top" xlink:title="Concept definitions. ">
<polygon fill="white" stroke="black" points="404.517,-280.5 404.517,-299.5 499.517,-299.5 499.517,-280.5 404.517,-280.5"/>
<text text-anchor="middle" x="452.017" y="-287.5" font-family="Helvetica,sans-Serif" font-size="10.00">wlib/stl/Concept.h</text>
</a>
</g>
</g>
<!-- Node1&#45;&gt;Node16 -->
<g id="edge37" class="edge"><title>Node1&#45;&gt;Node16</title>
<path fill="none" stroke="midnightblue" d="M354.274,-560.37C366.639,-542.437 393.017,-499.442 393.017,-459 393.017,-459 393.017,-459 393.017,-401 393.017,-364.024 419.226,-327.472 436.708,-307.205"/>
<polygon fill="midnightblue" stroke="midnightblue" points="439.492,-309.343 443.564,-299.562 434.281,-304.669 439.492,-309.343"/>
</g>
<!-- Node19 -->
<g id="node19" class="node"><title>Node19</title>
<g id="a_node19"><a xlink:href="../../d4/dd5/_type_traits_8h.html" target="_top" xlink:title="Metafunctions for types. ">
<polygon fill="white" stroke="black" points="214.517,-224.5 214.517,-243.5 319.517,-243.5 319.517,-224.5 214.517,-224.5"/>
<text text-anchor="middle" x="267.017" y="-231.5" font-family="Helvetica,sans-Serif" font-size="10.00">wlib/stl/TypeTraits.h</text>
</a>
</g>
</g>
<!-- Node1&#45;&gt;Node19 -->
<g id="edge38" class="edge"><title>Node1&#45;&gt;Node19</title>
<path fill="none" stroke="midnightblue" d="M339.564,-560.438C323.25,-542.962 289.017,-501.258 289.017,-459 289.017,-459 289.017,-459 289.017,-345 289.017,-312.328 279.57,-275.24 273.057,-253.553"/>
<polygon fill="midnightblue" stroke="midnightblue" points="276.308,-252.222 269.984,-243.721 269.626,-254.31 276.308,-252.222"/>
</g>
<!-- Node3 -->
<g id="node3" class="node"><title>Node3</title>
<g id="a_node3"><a xlink:href="../../d0/db6/_types_8h.html" target="_top" xlink:title="type definition of all the string types we will be using ">
<polygon fill="white" stroke="black" points="678.017,-56.5 678.017,-75.5 750.017,-75.5 750.017,-56.5 678.017,-56.5"/>
<text text-anchor="middle" x="714.017" y="-63.5" font-family="Helvetica,sans-Serif" font-size="10.00">wlib/Types.h</text>
</a>
</g>
</g>
<!-- Node2&#45;&gt;Node3 -->
<g id="edge2" class="edge"><title>Node2&#45;&gt;Node3</title>
<path fill="none" stroke="midnightblue" d="M136.979,-289.136C74.332,-287.231 -22.8687,-276.105 5.01694,-224 47.8855,-143.899 90.0005,-141.24 176.017,-112 266.59,-81.2107 554.784,-70.9114 667.858,-68.0016"/>
<polygon fill="midnightblue" stroke="midnightblue" points="668.015,-71.4989 677.924,-67.7503 667.84,-64.5011 668.015,-71.4989"/>
</g>
<!-- Node5 -->
<g id="node5" class="node"><title>Node5</title>
<g id="a_node5"><a xlink:href="../../d3/de6/_memory_8h.html" target="_top" xlink:title="Memory is a class that provides dynamic fixed size memory. ">
<polygon fill="white" stroke="black" points="508.517,-224.5 508.517,-243.5 627.517,-243.5 627.517,-224.5 508.517,-224.5"/>
<text text-anchor="middle" x="568.017" y="-231.5" font-family="Helvetica,sans-Serif" font-size="10.00">wlib/memory/Memory.h</text>
</a>
</g>
</g>
<!-- Node2&#45;&gt;Node5 -->
<g id="edge4" class="edge"><title>Node2&#45;&gt;Node5</title>
<path fill="none" stroke="midnightblue" d="M235.175,-282.051C302.093,-272.591 422.23,-255.609 498.396,-244.842"/>
<polygon fill="midnightblue" stroke="midnightblue" points="498.969,-248.296 508.38,-243.43 497.989,-241.365 498.969,-248.296"/>
</g>
<!-- Node2&#45;&gt;Node7 -->
<g id="edge12" class="edge"><title>Node2&#45;&gt;Node7</title>
<path fill="none" stroke="midnightblue" d="M185.929,-280.439C186.277,-266.508 189.09,-238.985 205.017,-224 224.934,-205.26 293.44,-192.706 344.322,-185.723"/>
<polygon fill="midnightblue" stroke="midnightblue" points="344.793,-189.191 354.243,-184.401 343.869,-182.253 344.793,-189.191"/>
</g>
<!-- Node10 -->
<g id="node10" class="node"><title>Node10</title>
<g id="a_node10"><a xlink:href="../../d7/d2f/_exceptions_8h.html" target="_top" xlink:title="Implementation of Exceptions using C style. ">
<polygon fill="white" stroke="black" points="14.0169,-224.5 14.0169,-243.5 158.017,-243.5 158.017,-224.5 14.0169,-224.5"/>
<text text-anchor="middle" x="86.0169" y="-231.5" font-family="Helvetica,sans-Serif" font-size="10.00">wlib/exceptions/Exceptions.h</text>
</a>
</g>
</g>
<!-- Node2&#45;&gt;Node10 -->
<g id="edge13" class="edge"><title>Node2&#45;&gt;Node10</title>
<path fill="none" stroke="midnightblue" d="M169.95,-280.324C154.059,-271.743 129.51,-258.486 111.058,-248.522"/>
<polygon fill="midnightblue" stroke="midnightblue" points="112.506,-245.326 102.044,-243.655 109.18,-251.486 112.506,-245.326"/>
</g>
<!-- Node4 -->
<g id="node4" class="node"><title>Node4</title>
<polygon fill="white" stroke="#bfbfbf" points="689.517,-0.5 689.517,-19.5 738.517,-19.5 738.517,-0.5 689.517,-0.5"/>
<text text-anchor="middle" x="714.017" y="-7.5" font-family="Helvetica,sans-Serif" font-size="10.00">stdint.h</text>
</g>
<!-- Node3&#45;&gt;Node4 -->
<g id="edge3" class="edge"><title>Node3&#45;&gt;Node4</title>
<path fill="none" stroke="midnightblue" d="M714.017,-56.083C714.017,-49.0059 714.017,-38.8611 714.017,-29.9865"/>
<polygon fill="midnightblue" stroke="midnightblue" points="717.517,-29.751 714.017,-19.7511 710.517,-29.7511 717.517,-29.751"/>
</g>
<!-- Node5&#45;&gt;Node3 -->
<g id="edge6" class="edge"><title>Node5&#45;&gt;Node3</title>
<path fill="none" stroke="midnightblue" d="M596.989,-224.424C616.615,-217.357 641.979,-205.603 659.017,-188 687.536,-158.536 702.963,-111.673 709.733,-85.7639"/>
<polygon fill="midnightblue" stroke="midnightblue" points="713.203,-86.308 712.183,-75.7624 706.404,-84.642 713.203,-86.308"/>
</g>
<!-- Node6 -->
<g id="node6" class="node"><title>Node6</title>
<polygon fill="white" stroke="#bfbfbf" points="817.517,-168.5 817.517,-187.5 866.517,-187.5 866.517,-168.5 817.517,-168.5"/>
<text text-anchor="middle" x="842.017" y="-175.5" font-family="Helvetica,sans-Serif" font-size="10.00">string.h</text>
</g>
<!-- Node5&#45;&gt;Node6 -->
<g id="edge5" class="edge"><title>Node5&#45;&gt;Node6</title>
<path fill="none" stroke="midnightblue" d="M611.433,-224.444C665.671,-213.754 757.396,-195.677 807.244,-185.853"/>
<polygon fill="midnightblue" stroke="midnightblue" points="808.083,-189.255 817.217,-183.888 806.729,-182.387 808.083,-189.255"/>
</g>
<!-- Node5&#45;&gt;Node7 -->
<g id="edge7" class="edge"><title>Node5&#45;&gt;Node7</title>
<path fill="none" stroke="midnightblue" d="M541.872,-224.444C513.994,-215.32 469.669,-200.813 438.617,-190.651"/>
<polygon fill="midnightblue" stroke="midnightblue" points="439.632,-187.3 429.039,-187.516 437.455,-193.953 439.632,-187.3"/>
</g>
<!-- Node8 -->
<g id="node8" class="node"><title>Node8</title>
<g id="a_node8"><a xlink:href="../../d2/d37/_tmp_8h.html" target="_top" xlink:title="Template helper types, structs, and metafunctions. ">
<polygon fill="white" stroke="black" points="434.517,-112.5 434.517,-131.5 525.517,-131.5 525.517,-112.5 434.517,-112.5"/>
<text text-anchor="middle" x="480.017" y="-119.5" font-family="Helvetica,sans-Serif" font-size="10.00">wlib/utility/Tmp.h</text>
</a>
</g>
</g>
<!-- Node5&#45;&gt;Node8 -->
<g id="edge10" class="edge"><title>Node5&#45;&gt;Node8</title>
<path fill="none" stroke="midnightblue" d="M561.112,-224.368C546.525,-206.135 512.358,-163.426 493.357,-139.675"/>
<polygon fill="midnightblue" stroke="midnightblue" points="495.87,-137.214 486.89,-131.591 490.404,-141.587 495.87,-137.214"/>
</g>
<!-- Node9 -->
<g id="node9" class="node"><title>Node9</title>
<g id="a_node9"><a xlink:href="../../d9/d8a/_new_8h.html" target="_top" xlink:title="New operators defined for Arduino boards and for other boards use the normal new. ...">
<polygon fill="white" stroke="black" points="546.017,-168.5 546.017,-187.5 650.017,-187.5 650.017,-168.5 546.017,-168.5"/>
<text text-anchor="middle" x="598.017" y="-175.5" font-family="Helvetica,sans-Serif" font-size="10.00">wlib/memory/New.h</text>
</a>
</g>
</g>
<!-- Node5&#45;&gt;Node9 -->
<g id="edge11" class="edge"><title>Node5&#45;&gt;Node9</title>
<path fill="none" stroke="midnightblue" d="M572.971,-224.083C577.121,-216.613 583.17,-205.724 588.284,-196.52"/>
<polygon fill="midnightblue" stroke="midnightblue" points="591.358,-198.192 593.155,-187.751 585.239,-194.793 591.358,-198.192"/>
</g>
<!-- Node7&#45;&gt;Node8 -->
<g id="edge8" class="edge"><title>Node7&#45;&gt;Node8</title>
<path fill="none" stroke="midnightblue" d="M415.388,-168.324C427.175,-160.058 445.149,-147.453 459.152,-137.632"/>
<polygon fill="midnightblue" stroke="midnightblue" points="461.499,-140.262 467.676,-131.655 457.479,-134.531 461.499,-140.262"/>
</g>
<!-- Node8&#45;&gt;Node3 -->
<g id="edge9" class="edge"><title>Node8&#45;&gt;Node3</title>
<path fill="none" stroke="midnightblue" d="M517.095,-112.444C557.984,-103.008 623.818,-87.8151 667.978,-77.6243"/>
<polygon fill="midnightblue" stroke="midnightblue" points="668.924,-80.998 677.881,-75.339 667.35,-74.1773 668.924,-80.998"/>
</g>
<!-- Node10&#45;&gt;Node3 -->
<g id="edge15" class="edge"><title>Node10&#45;&gt;Node3</title>
<path fill="none" stroke="midnightblue" d="M85.8461,-224.348C86.074,-210.287 88.719,-182.58 105.017,-168 188.341,-93.458 540.343,-73.333 667.746,-68.4378"/>
<polygon fill="midnightblue" stroke="midnightblue" points="668.083,-71.9278 677.947,-68.0601 667.824,-64.9325 668.083,-71.9278"/>
</g>
<!-- Node11 -->
<g id="node11" class="node"><title>Node11</title>
<polygon fill="white" stroke="#bfbfbf" points="114.017,-168.5 114.017,-187.5 168.017,-187.5 168.017,-168.5 114.017,-168.5"/>
<text text-anchor="middle" x="141.017" y="-175.5" font-family="Helvetica,sans-Serif" font-size="10.00">setjmp.h</text>
</g>
<!-- Node10&#45;&gt;Node11 -->
<g id="edge14" class="edge"><title>Node10&#45;&gt;Node11</title>
<path fill="none" stroke="midnightblue" d="M95.0991,-224.083C103.188,-216.141 115.212,-204.335 124.927,-194.797"/>
<polygon fill="midnightblue" stroke="midnightblue" points="127.42,-197.254 132.104,-187.751 122.516,-192.26 127.42,-197.254"/>
</g>
<!-- Node12&#45;&gt;Node3 -->
<g id="edge18" class="edge"><title>Node12&#45;&gt;Node3</title>
<path fill="none" stroke="midnightblue" d="M873.661,-504.421C906.513,-489.231 967.017,-454.293 967.017,-403 967.017,-403 967.017,-403 967.017,-177 967.017,-87.9816 833.662,-70.2398 760.587,-67.2003"/>
<polygon fill="midnightblue" stroke="midnightblue" points="760.378,-63.6913 750.266,-66.8517 760.142,-70.6873 760.378,-63.6913"/>
</g>
<!-- Node12&#45;&gt;Node6 -->
<g id="edge17" class="edge"><title>Node12&#45;&gt;Node6</title>
<path fill="none" stroke="midnightblue" d="M865.603,-504.286C876.722,-496.038 892.725,-482.749 903.017,-468 920.822,-442.484 929.017,-434.114 929.017,-403 929.017,-403 929.017,-403 929.017,-345 929.017,-283.961 882.3,-223.241 857.333,-195.149"/>
<polygon fill="midnightblue" stroke="midnightblue" points="859.687,-192.537 850.359,-187.514 854.519,-197.258 859.687,-192.537"/>
</g>
<!-- Node13 -->
<g id="node13" class="node"><title>Node13</title>
<g id="a_node13"><a xlink:href="../../d2/dc2/_equal_8h.html" target="_top" xlink:title="wlib/stl/Equal.h">
<polygon fill="white" stroke="black" points="811.517,-448.5 811.517,-467.5 894.517,-467.5 894.517,-448.5 811.517,-448.5"/>
<text text-anchor="middle" x="853.017" y="-455.5" font-family="Helvetica,sans-Serif" font-size="10.00">wlib/stl/Equal.h</text>
</a>
</g>
</g>
<!-- Node12&#45;&gt;Node13 -->
<g id="edge19" class="edge"><title>Node12&#45;&gt;Node13</title>
<path fill="none" stroke="midnightblue" d="M853.017,-504.083C853.017,-497.006 853.017,-486.861 853.017,-477.986"/>
<polygon fill="midnightblue" stroke="midnightblue" points="856.517,-477.751 853.017,-467.751 849.517,-477.751 856.517,-477.751"/>
</g>
<!-- Node14 -->
<g id="node14" class="node"><title>Node14</title>
<g id="a_node14"><a xlink:href="../../db/db5/_string_8h.html" target="_top" xlink:title="wlib/strings/String.h">
<polygon fill="white" stroke="black" points="721.517,-392.5 721.517,-411.5 824.517,-411.5 824.517,-392.5 721.517,-392.5"/>
<text text-anchor="middle" x="773.017" y="-399.5" font-family="Helvetica,sans-Serif" font-size="10.00">wlib/strings/String.h</text>
</a>
</g>
</g>
<!-- Node12&#45;&gt;Node14 -->
<g id="edge36" class="edge"><title>Node12&#45;&gt;Node14</title>
<path fill="none" stroke="midnightblue" d="M841.037,-504.478C830.029,-496.167 813.827,-482.665 803.017,-468 792.427,-453.633 784.277,-434.93 779.163,-421.277"/>
<polygon fill="midnightblue" stroke="midnightblue" points="782.368,-419.842 775.724,-411.589 775.771,-422.184 782.368,-419.842"/>
</g>
<!-- Node13&#45;&gt;Node3 -->
<g id="edge21" class="edge"><title>Node13&#45;&gt;Node3</title>
<path fill="none" stroke="midnightblue" d="M856.939,-448.234C872.835,-411.297 929.088,-265.75 875.017,-168 849.213,-121.352 791.854,-93.3558 753.047,-79.0487"/>
<polygon fill="midnightblue" stroke="midnightblue" points="753.718,-75.5736 743.123,-75.5375 751.383,-82.1727 753.718,-75.5736"/>
</g>
<!-- Node13&#45;&gt;Node6 -->
<g id="edge20" class="edge"><title>Node13&#45;&gt;Node6</title>
<path fill="none" stroke="midnightblue" d="M853.017,-448.442C853.017,-429.936 853.017,-384.812 853.017,-347 853.017,-347 853.017,-347 853.017,-289 853.017,-256.788 848.289,-219.532 845.032,-197.692"/>
<polygon fill="midnightblue" stroke="midnightblue" points="848.447,-196.874 843.455,-187.529 841.53,-197.947 848.447,-196.874"/>
</g>
<!-- Node13&#45;&gt;Node14 -->
<g id="edge22" class="edge"><title>Node13&#45;&gt;Node14</title>
<path fill="none" stroke="midnightblue" d="M840.164,-448.324C827.801,-439.979 808.887,-427.212 794.28,-417.352"/>
<polygon fill="midnightblue" stroke="midnightblue" points="796.085,-414.348 785.838,-411.655 792.169,-420.15 796.085,-414.348"/>
</g>
<!-- Node14&#45;&gt;Node3 -->
<g id="edge33" class="edge"><title>Node14&#45;&gt;Node3</title>
<path fill="none" stroke="midnightblue" d="M773.54,-392.446C774.624,-373.948 777.017,-328.837 777.017,-291 777.017,-291 777.017,-291 777.017,-177 777.017,-139.475 749.069,-103.139 730.402,-83.0548"/>
<polygon fill="midnightblue" stroke="midnightblue" points="732.779,-80.4771 723.313,-75.7181 727.745,-85.3414 732.779,-80.4771"/>
</g>
<!-- Node14&#45;&gt;Node5 -->
<g id="edge35" class="edge"><title>Node14&#45;&gt;Node5</title>
<path fill="none" stroke="midnightblue" d="M762.284,-392.309C729.211,-365.528 628.572,-284.035 586.652,-250.09"/>
<polygon fill="midnightblue" stroke="midnightblue" points="588.618,-247.178 578.644,-243.605 584.213,-252.618 588.618,-247.178"/>
</g>
<!-- Node14&#45;&gt;Node6 -->
<g id="edge23" class="edge"><title>Node14&#45;&gt;Node6</title>
<path fill="none" stroke="midnightblue" d="M776.726,-392.469C780.56,-383.489 786.593,-368.893 791.017,-356 810.606,-298.907 829.033,-229.786 837.363,-197.408"/>
<polygon fill="midnightblue" stroke="midnightblue" points="840.792,-198.123 839.873,-187.568 834.01,-196.393 840.792,-198.123"/>
</g>
<!-- Node15 -->
<g id="node15" class="node"><title>Node15</title>
<g id="a_node15"><a xlink:href="../../de/d0b/_string_iterator_8h.html" target="_top" xlink:title="wlib/strings/StringIterator.h">
<polygon fill="white" stroke="black" points="539.017,-336.5 539.017,-355.5 673.017,-355.5 673.017,-336.5 539.017,-336.5"/>
<text text-anchor="middle" x="606.017" y="-343.5" font-family="Helvetica,sans-Serif" font-size="10.00">wlib/strings/StringIterator.h</text>
</a>
</g>
</g>
<!-- Node14&#45;&gt;Node15 -->
<g id="edge24" class="edge"><title>Node14&#45;&gt;Node15</title>
<path fill="none" stroke="midnightblue" d="M746.555,-392.444C718.339,-383.32 673.476,-368.813 642.048,-358.651"/>
<polygon fill="midnightblue" stroke="midnightblue" points="642.947,-355.263 632.355,-355.516 640.793,-361.923 642.947,-355.263"/>
</g>
<!-- Node20 -->
<g id="node20" class="node"><title>Node20</title>
<g id="a_node20"><a xlink:href="../../da/db8/_math_8h.html" target="_top" xlink:title="wlib/utility/Math.h">
<polygon fill="white" stroke="black" points="427.517,-336.5 427.517,-355.5 520.517,-355.5 520.517,-336.5 427.517,-336.5"/>
<text text-anchor="middle" x="474.017" y="-343.5" font-family="Helvetica,sans-Serif" font-size="10.00">wlib/utility/Math.h</text>
</a>
</g>
</g>
<!-- Node14&#45;&gt;Node20 -->
<g id="edge34" class="edge"><title>Node14&#45;&gt;Node20</title>
<path fill="none" stroke="midnightblue" d="M725.639,-392.444C672.778,-382.897 587.286,-367.457 530.863,-357.267"/>
<polygon fill="midnightblue" stroke="midnightblue" points="531.143,-353.761 520.681,-355.428 529.899,-360.649 531.143,-353.761"/>
</g>
<!-- Node15&#45;&gt;Node3 -->
<g id="edge25" class="edge"><title>Node15&#45;&gt;Node3</title>
<path fill="none" stroke="midnightblue" d="M632.931,-336.41C671.794,-322.126 739.017,-289.535 739.017,-235 739.017,-235 739.017,-235 739.017,-177 739.017,-143.995 728.183,-106.774 720.779,-85.1916"/>
<polygon fill="midnightblue" stroke="midnightblue" points="724.045,-83.9302 717.389,-75.6873 717.452,-86.282 724.045,-83.9302"/>
</g>
<!-- Node15&#45;&gt;Node16 -->
<g id="edge26" class="edge"><title>Node15&#45;&gt;Node16</title>
<path fill="none" stroke="midnightblue" d="M581.615,-336.444C555.82,-327.399 514.94,-313.064 485.999,-302.916"/>
<polygon fill="midnightblue" stroke="midnightblue" points="486.899,-299.523 476.305,-299.516 484.583,-306.128 486.899,-299.523"/>
</g>
<!-- Node16&#45;&gt;Node8 -->
<g id="edge32" class="edge"><title>Node16&#45;&gt;Node8</title>
<path fill="none" stroke="midnightblue" d="M453.849,-280.393C455.748,-271.351 458.75,-256.706 461.017,-244 467.469,-207.84 473.864,-165.389 477.342,-141.599"/>
<polygon fill="midnightblue" stroke="midnightblue" points="480.831,-141.928 478.802,-131.529 473.903,-140.923 480.831,-141.928"/>
</g>
<!-- Node17 -->
<g id="node17" class="node"><title>Node17</title>
<g id="a_node17"><a xlink:href="../../d2/db4/_wlib_8h.html" target="_top" xlink:title="wlib/Wlib.h">
<polygon fill="white" stroke="black" points="645.517,-224.5 645.517,-243.5 710.517,-243.5 710.517,-224.5 645.517,-224.5"/>
<text text-anchor="middle" x="678.017" y="-231.5" font-family="Helvetica,sans-Serif" font-size="10.00">wlib/Wlib.h</text>
</a>
</g>
</g>
<!-- Node16&#45;&gt;Node17 -->
<g id="edge27" class="edge"><title>Node16&#45;&gt;Node17</title>
<path fill="none" stroke="midnightblue" d="M487.827,-280.444C527.926,-270.862 592.866,-255.346 635.508,-245.157"/>
<polygon fill="midnightblue" stroke="midnightblue" points="636.396,-248.543 645.309,-242.815 634.77,-241.735 636.396,-248.543"/>
</g>
<!-- Node18 -->
<g id="node18" class="node"><title>Node18</title>
<g id="a_node18"><a xlink:href="../../d4/dda/_pair_8h.html" target="_top" xlink:title="Implementation of a 2&#45;element tuple. ">
<polygon fill="white" stroke="black" points="376.017,-224.5 376.017,-243.5 452.017,-243.5 452.017,-224.5 376.017,-224.5"/>
<text text-anchor="middle" x="414.017" y="-231.5" font-family="Helvetica,sans-Serif" font-size="10.00">wlib/stl/Pair.h</text>
</a>
</g>
</g>
<!-- Node16&#45;&gt;Node18 -->
<g id="edge28" class="edge"><title>Node16&#45;&gt;Node18</title>
<path fill="none" stroke="midnightblue" d="M445.742,-280.083C440.374,-272.455 432.499,-261.264 425.938,-251.941"/>
<polygon fill="midnightblue" stroke="midnightblue" points="428.792,-249.915 420.175,-243.751 423.068,-253.943 428.792,-249.915"/>
</g>
<!-- Node16&#45;&gt;Node19 -->
<g id="edge30" class="edge"><title>Node16&#45;&gt;Node19</title>
<path fill="none" stroke="midnightblue" d="M422.703,-280.444C391.175,-271.241 340.886,-256.562 306.031,-246.388"/>
<polygon fill="midnightblue" stroke="midnightblue" points="306.774,-242.959 296.194,-243.516 304.812,-249.678 306.774,-242.959"/>
</g>
<!-- Node18&#45;&gt;Node7 -->
<g id="edge29" class="edge"><title>Node18&#45;&gt;Node7</title>
<path fill="none" stroke="midnightblue" d="M412.201,-224.083C410.743,-216.927 408.646,-206.635 406.824,-197.691"/>
<polygon fill="midnightblue" stroke="midnightblue" points="410.225,-196.851 404.8,-187.751 403.366,-198.248 410.225,-196.851"/>
</g>
<!-- Node19&#45;&gt;Node8 -->
<g id="edge31" class="edge"><title>Node19&#45;&gt;Node8</title>
<path fill="none" stroke="midnightblue" d="M275.332,-224.213C288.784,-210.458 316.682,-183.784 345.017,-168 372.384,-152.755 405.761,-141.572 432.48,-134.167"/>
<polygon fill="midnightblue" stroke="midnightblue" points="433.617,-137.486 442.368,-131.514 431.802,-130.725 433.617,-137.486"/>
</g>
</g>
</svg>
        <g id="navigator" transform="translate(0 0)" fill="#404254">
                <rect fill="#f2f5e9" fill-opacity="0.5" stroke="#606060" stroke-width=".5" x="0" y="0" width="60" height="60"/>
                <use id="zoomplus" xlink:href="#zoomPlus" x="17" y="9" onmousedown="handleZoom(evt,'in')"/>
                <use id="zoomminus" xlink:href="#zoomMin" x="42" y="9" onmousedown="handleZoom(evt,'out')"/>
                <use id="reset" xlink:href="#resetDef" x="30" y="36" onmousedown="handleReset()"/>
                <g id="arrowUp" xlink:href="#dirArrow" transform="translate(30 24)" onmousedown="handlePan(0,-1)">
                  <use xlink:href="#rim" fill="#404040">
                        <set attributeName="fill" to="#808080" begin="arrowUp.mouseover" end="arrowUp.mouseout"/>
                  </use>
                  <path fill="none" stroke="white" stroke-width="1.5" d="M0,-3.0v7 M-2.5,-0.5L0,-3.0L2.5,-0.5"/>
                </g>
                <g id="arrowRight" xlink:href="#dirArrow" transform="rotate(90) translate(36 -43)" onmousedown="handlePan(1,0)">
                  <use xlink:href="#rim" fill="#404040">
                        <set attributeName="fill" to="#808080" begin="arrowRight.mouseover" end="arrowRight.mouseout"/>
                  </use>
                  <path fill="none" stroke="white" stroke-width="1.5" d="M0,-3.0v7 M-2.5,-0.5L0,-3.0L2.5,-0.5"/>
                </g>
                <g id="arrowDown" xlink:href="#dirArrow" transform="rotate(180) translate(-30 -48)" onmousedown="handlePan(0,1)">
                  <use xlink:href="#rim" fill="#404040">
                        <set attributeName="fill" to="#808080" begin="arrowDown.mouseover" end="arrowDown.mouseout"/>
                  </use>
                  <path fill="none" stroke="white" stroke-width="1.5" d="M0,-3.0v7 M-2.5,-0.5L0,-3.0L2.5,-0.5"/>
                </g>
                <g id="arrowLeft" xlink:href="#dirArrow" transform="rotate(270) translate(-36 17)" onmousedown="handlePan(-1,0)">
                  <use xlink:href="#rim" fill="#404040">
                        <set attributeName="fill" to="#808080" begin="arrowLeft.mouseover" end="arrowLeft.mouseout"/>
                  </use>
                  <path fill="none" stroke="white" stroke-width="1.5" d="M0,-3.0v7 M-2.5,-0.5L0,-3.0L2.5,-0.5"/>
                </g>
        </g>
        <svg viewBox="0 0 15 15" width="100%" height="30px" preserveAspectRatio="xMaxYMin meet">
         <g id="arrow_out" transform="scale(0.3 0.3)">
          <a xlink:href="_array_heap_8h__incl_org.svg" target="_base">
           <rect id="button" ry="5" rx="5" y="6" x="6" height="38" width="38"
                fill="#f2f5e9" fill-opacity="0.5" stroke="#606060" stroke-width="1.0"/>
           <path id="arrow"
             d="M 11.500037,31.436501 C 11.940474,20.09759 22.043105,11.32322 32.158766,21.979434 L 37.068811,17.246167 C 37.068811,17.246167 37.088388,32 37.088388,32 L 22.160133,31.978069 C 22.160133,31.978069 26.997745,27.140456 26.997745,27.140456 C 18.528582,18.264221 13.291696,25.230495 11.500037,31.436501 z"
             style="fill:#404040;"/>
          </a>
         </g>
        </svg>
</svg>
