<?xml version="1.0" encoding="UTF-8" standalone="no"?>
<!DOCTYPE svg PUBLIC "-//W3C//DTD SVG 1.1//EN"
 "http://www.w3.org/Graphics/SVG/1.1/DTD/svg11.dtd">
<!-- Generated by graphviz version 2.38.0 (20140413.2041)
 -->
<!-- Title: stl/Hash.h Pages: 1 -->
<svg width="221pt" height="140pt"
 viewBox="0.00 0.00 220.50 140.00" xmlns="http://www.w3.org/2000/svg" xmlns:xlink="http://www.w3.org/1999/xlink">
<g id="graph0" class="graph" transform="scale(1 1) rotate(0) translate(4 136)">
<title>stl/Hash.h</title>
<polygon fill="white" stroke="none" points="-4,4 -4,-136 216.5,-136 216.5,4 -4,4"/>
<!-- Node14 -->
<g id="node1" class="node"><title>Node14</title>
<polygon fill="#bfbfbf" stroke="black" points="109.5,-112.5 109.5,-131.5 170.5,-131.5 170.5,-112.5 109.5,-112.5"/>
<text text-anchor="middle" x="140" y="-119.5" font-family="Helvetica,sans-Serif" font-size="10.00">stl/Hash.h</text>
</g>
<!-- Node15 -->
<g id="node2" class="node"><title>Node15</title>
<g id="a_node2"><a xlink:href="../../d3/dbe/_chain_map_8h.html" target="_top" xlink:title="Hasher map implementation. ">
<polygon fill="white" stroke="black" points="0,-56.5 0,-75.5 82,-75.5 82,-56.5 0,-56.5"/>
<text text-anchor="middle" x="41" y="-63.5" font-family="Helvetica,sans-Serif" font-size="10.00">stl/ChainMap.h</text>
</a>
</g>
</g>
<!-- Node14&#45;&gt;Node15 -->
<g id="edge1" class="edge"><title>Node14&#45;&gt;Node15</title>
<path fill="none" stroke="midnightblue" d="M115.163,-107.453C96.8864,-97.4835 72.5844,-84.2279 56.8666,-75.6545"/>
<polygon fill="midnightblue" stroke="midnightblue" points="113.639,-110.608 124.094,-112.324 116.991,-104.463 113.639,-110.608"/>
</g>
<!-- Node17 -->
<g id="node4" class="node"><title>Node17</title>
<g id="a_node4"><a xlink:href="../../d5/d7a/_open_map_8h.html" target="_top" xlink:title="Hash map implementation. ">
<polygon fill="white" stroke="black" points="100,-56.5 100,-75.5 180,-75.5 180,-56.5 100,-56.5"/>
<text text-anchor="middle" x="140" y="-63.5" font-family="Helvetica,sans-Serif" font-size="10.00">stl/OpenMap.h</text>
</a>
</g>
</g>
<!-- Node14&#45;&gt;Node17 -->
<g id="edge3" class="edge"><title>Node14&#45;&gt;Node17</title>
<path fill="none" stroke="midnightblue" d="M140,-101.805C140,-92.9102 140,-82.7798 140,-75.7511"/>
<polygon fill="midnightblue" stroke="midnightblue" points="136.5,-102.083 140,-112.083 143.5,-102.083 136.5,-102.083"/>
</g>
<!-- Node18 -->
<g id="node5" class="node"><title>Node18</title>
<g id="a_node5"><a xlink:href="../../d0/de6/_open_set_8h.html" target="_top" xlink:title="Hash set implementation. ">
<polygon fill="white" stroke="black" points="135.5,-0.5 135.5,-19.5 212.5,-19.5 212.5,-0.5 135.5,-0.5"/>
<text text-anchor="middle" x="174" y="-7.5" font-family="Helvetica,sans-Serif" font-size="10.00">stl/OpenSet.h</text>
</a>
</g>
</g>
<!-- Node14&#45;&gt;Node18 -->
<g id="edge5" class="edge"><title>Node14&#45;&gt;Node18</title>
<path fill="none" stroke="midnightblue" d="M163.096,-106.354C173.042,-98.6586 183.61,-88.268 189,-76 197.385,-56.9145 186.563,-32.5329 179.398,-19.7385"/>
<polygon fill="midnightblue" stroke="midnightblue" points="160.748,-103.73 154.661,-112.402 164.828,-109.419 160.748,-103.73"/>
</g>
<!-- Node16 -->
<g id="node3" class="node"><title>Node16</title>
<g id="a_node3"><a xlink:href="../../d6/d59/_chain_set_8h.html" target="_top" xlink:title="Hash set implementation. ">
<polygon fill="white" stroke="black" points="2,-0.5 2,-19.5 80,-19.5 80,-0.5 2,-0.5"/>
<text text-anchor="middle" x="41" y="-7.5" font-family="Helvetica,sans-Serif" font-size="10.00">stl/ChainSet.h</text>
</a>
</g>
</g>
<!-- Node15&#45;&gt;Node16 -->
<g id="edge2" class="edge"><title>Node15&#45;&gt;Node16</title>
<path fill="none" stroke="midnightblue" d="M41,-45.8045C41,-36.9102 41,-26.7798 41,-19.7511"/>
<polygon fill="midnightblue" stroke="midnightblue" points="37.5001,-46.083 41,-56.083 44.5001,-46.083 37.5001,-46.083"/>
</g>
<!-- Node17&#45;&gt;Node18 -->
<g id="edge4" class="edge"><title>Node17&#45;&gt;Node18</title>
<path fill="none" stroke="midnightblue" d="M150.977,-47.5656C156.827,-38.2747 163.77,-27.2484 168.49,-19.7511"/>
<polygon fill="midnightblue" stroke="midnightblue" points="147.981,-45.7558 145.614,-56.083 153.904,-49.4855 147.981,-45.7558"/>
</g>
</g>
</svg>
