<?xml version="1.0" encoding="UTF-8" standalone="no"?>
<!DOCTYPE svg PUBLIC "-//W3C//DTD SVG 1.1//EN"
 "http://www.w3.org/Graphics/SVG/1.1/DTD/svg11.dtd">
<!-- Generated by graphviz version 2.36.0 (20140111.2315)
 -->
<!-- Title: wlp::LinkedList&lt; T &gt; Pages: 1 -->
<svg width="259pt" height="176pt"
 viewBox="0.00 0.00 259.00 176.00" xmlns="http://www.w3.org/2000/svg" xmlns:xlink="http://www.w3.org/1999/xlink">
<g id="graph0" class="graph" transform="scale(1 1) rotate(0) translate(4 172)">
<title>wlp::LinkedList&lt; T &gt;</title>
<polygon fill="white" stroke="none" points="-4,4 -4,-172 255,-172 255,4 -4,4"/>
<!-- Node1 -->
<g id="node1" class="node"><title>Node1</title>
<polygon fill="#bfbfbf" stroke="black" points="13,-0.5 13,-19.5 119,-19.5 119,-0.5 13,-0.5"/>
<text text-anchor="middle" x="66" y="-7.5" font-family="Helvetica,sans-Serif" font-size="10.00">wlp::LinkedList&lt; T &gt;</text>
</g>
<!-- Node2 -->
<g id="node2" class="node"><title>Node2</title>
<polygon fill="white" stroke="#bfbfbf" points="-0.5,-79.5 -0.5,-98.5 50.5,-98.5 50.5,-79.5 -0.5,-79.5"/>
<text text-anchor="middle" x="25" y="-86.5" font-family="Helvetica,sans-Serif" font-size="10.00">uint16_t</text>
</g>
<!-- Node2&#45;&gt;Node1 -->
<g id="edge1" class="edge"><title>Node2&#45;&gt;Node1</title>
<path fill="none" stroke="#9a32cd" stroke-dasharray="5,2" d="M33.9446,-70.511C38.9056,-60.8844 45.223,-48.7449 51,-38 54.2503,-31.9546 58.0003,-25.2046 60.9377,-19.966"/>
<polygon fill="#9a32cd" stroke="#9a32cd" points="30.799,-68.9748 29.3454,-79.4694 37.0263,-72.1719 30.799,-68.9748"/>
<text text-anchor="middle" x="68.5" y="-46.5" font-family="Helvetica,sans-Serif" font-size="10.00"> m_size</text>
</g>
<!-- Node3 -->
<g id="node3" class="node"><title>Node3</title>
<g id="a_node3"><a xlink:href="../../d7/d74/structwlp_1_1_linked_list_node.html" target="_top" xlink:title="wlp::LinkedListNode\&lt; T \&gt;">
<polygon fill="white" stroke="black" points="68.5,-79.5 68.5,-98.5 197.5,-98.5 197.5,-79.5 68.5,-79.5"/>
<text text-anchor="middle" x="133" y="-86.5" font-family="Helvetica,sans-Serif" font-size="10.00">wlp::LinkedListNode&lt; T &gt;</text>
</a>
</g>
</g>
<!-- Node3&#45;&gt;Node1 -->
<g id="edge2" class="edge"><title>Node3&#45;&gt;Node1</title>
<path fill="none" stroke="#9a32cd" stroke-dasharray="5,2" d="M118.695,-71.5596C104.921,-55.7297 84.6124,-32.3904 73.6653,-19.8094"/>
<polygon fill="#9a32cd" stroke="#9a32cd" points="116.369,-74.219 125.574,-79.4655 121.65,-69.624 116.369,-74.219"/>
<text text-anchor="middle" x="126" y="-52" font-family="Helvetica,sans-Serif" font-size="10.00"> m_head</text>
<text text-anchor="middle" x="126" y="-41" font-family="Helvetica,sans-Serif" font-size="10.00">m_tail</text>
</g>
<!-- Node3&#45;&gt;Node3 -->
<g id="edge3" class="edge"><title>Node3&#45;&gt;Node3</title>
<path fill="none" stroke="#9a32cd" stroke-dasharray="5,2" d="M207.655,-93.4411C212.242,-92.3895 215,-90.9092 215,-89 215,-85.9453 207.94,-83.9884 197.625,-83.1293"/>
<polygon fill="#9a32cd" stroke="#9a32cd" points="207.031,-89.9946 197.625,-94.8707 208.019,-96.9245 207.031,-89.9946"/>
<text text-anchor="middle" x="233" y="-92" font-family="Helvetica,sans-Serif" font-size="10.00"> m_prev</text>
<text text-anchor="middle" x="233" y="-81" font-family="Helvetica,sans-Serif" font-size="10.00">m_next</text>
</g>
<!-- Node4 -->
<g id="node4" class="node"><title>Node4</title>
<polygon fill="white" stroke="#bfbfbf" points="118.5,-148.5 118.5,-167.5 147.5,-167.5 147.5,-148.5 118.5,-148.5"/>
<text text-anchor="middle" x="133" y="-155.5" font-family="Helvetica,sans-Serif" font-size="10.00">T</text>
</g>
<!-- Node4&#45;&gt;Node3 -->
<g id="edge4" class="edge"><title>Node4&#45;&gt;Node3</title>
<path fill="none" stroke="#9a32cd" stroke-dasharray="5,2" d="M133,-138.018C133,-125.034 133,-108.442 133,-98.5494"/>
<polygon fill="#9a32cd" stroke="#9a32cd" points="129.5,-138.241 133,-148.241 136.5,-138.241 129.5,-138.241"/>
<text text-anchor="middle" x="148" y="-121.5" font-family="Helvetica,sans-Serif" font-size="10.00"> m_val</text>
</g>
</g>
</svg>
