<?xml version="1.0" encoding="UTF-8" standalone="no"?>
<!DOCTYPE svg PUBLIC "-//W3C//DTD SVG 1.1//EN"
 "http://www.w3.org/Graphics/SVG/1.1/DTD/svg11.dtd">
<!-- Generated by graphviz version 2.38.0 (20140413.2041)
 -->
<!-- Title: wlp::LinkedList&lt; T &gt; Pages: 1 -->
<svg width="256pt" height="175pt"
 viewBox="0.00 0.00 256.00 175.00" xmlns="http://www.w3.org/2000/svg" xmlns:xlink="http://www.w3.org/1999/xlink">
<g id="graph0" class="graph" transform="scale(1 1) rotate(0) translate(4 171)">
<title>wlp::LinkedList&lt; T &gt;</title>
<polygon fill="white" stroke="none" points="-4,4 -4,-171 252,-171 252,4 -4,4"/>
<!-- Node1 -->
<g id="node1" class="node"><title>Node1</title>
<polygon fill="#bfbfbf" stroke="black" points="14.5,-0.5 14.5,-19.5 118.5,-19.5 118.5,-0.5 14.5,-0.5"/>
<text text-anchor="middle" x="66.5" y="-7.5" font-family="Helvetica,sans-Serif" font-size="10.00">wlp::LinkedList&lt; T &gt;</text>
</g>
<!-- Node2 -->
<g id="node2" class="node"><title>Node2</title>
<polygon fill="white" stroke="#bfbfbf" points="0,-79.5 0,-98.5 51,-98.5 51,-79.5 0,-79.5"/>
<text text-anchor="middle" x="25.5" y="-86.5" font-family="Helvetica,sans-Serif" font-size="10.00">uint16_t</text>
</g>
<!-- Node2&#45;&gt;Node1 -->
<g id="edge1" class="edge"><title>Node2&#45;&gt;Node1</title>
<path fill="none" stroke="#9a32cd" stroke-dasharray="5,2" d="M34.061,-70.1096C38.7532,-60.5048 44.7668,-48.512 50.5,-38 53.8394,-31.8771 57.8394,-25.1271 61.0046,-19.9078"/>
<polygon fill="#9a32cd" stroke="#9a32cd" points="30.7655,-68.885 29.5639,-79.4115 37.0676,-71.9319 30.7655,-68.885"/>
<text text-anchor="middle" x="68" y="-46.5" font-family="Helvetica,sans-Serif" font-size="10.00"> m_size</text>
</g>
<!-- Node3 -->
<g id="node3" class="node"><title>Node3</title>
<g id="a_node3"><a xlink:href="../../d7/d74/structwlp_1_1_linked_list_node.html" target="_top" xlink:title="wlp::LinkedListNode\&lt; T \&gt;">
<polygon fill="white" stroke="black" points="69,-79.5 69,-98.5 196,-98.5 196,-79.5 69,-79.5"/>
<text text-anchor="middle" x="132.5" y="-86.5" font-family="Helvetica,sans-Serif" font-size="10.00">wlp::LinkedListNode&lt; T &gt;</text>
</a>
</g>
</g>
<!-- Node3&#45;&gt;Node1 -->
<g id="edge2" class="edge"><title>Node3&#45;&gt;Node1</title>
<path fill="none" stroke="#9a32cd" stroke-dasharray="5,2" d="M118.408,-71.5596C104.84,-55.7297 84.8346,-32.3904 74.0509,-19.8094"/>
<polygon fill="#9a32cd" stroke="#9a32cd" points="116.019,-74.1506 125.185,-79.4655 121.334,-69.5951 116.019,-74.1506"/>
<text text-anchor="middle" x="125.5" y="-52" font-family="Helvetica,sans-Serif" font-size="10.00"> m_head</text>
<text text-anchor="middle" x="125.5" y="-41" font-family="Helvetica,sans-Serif" font-size="10.00">m_tail</text>
</g>
<!-- Node3&#45;&gt;Node3 -->
<g id="edge3" class="edge"><title>Node3&#45;&gt;Node3</title>
<path fill="none" stroke="#9a32cd" stroke-dasharray="5,2" d="M206.042,-93.5874C210.994,-92.5286 214,-90.9995 214,-89 214,-85.8789 206.674,-83.9038 196.058,-83.0748"/>
<polygon fill="#9a32cd" stroke="#9a32cd" points="205.505,-90.1279 196.058,-94.9252 206.434,-97.0659 205.505,-90.1279"/>
<text text-anchor="middle" x="231" y="-92" font-family="Helvetica,sans-Serif" font-size="10.00"> m_prev</text>
<text text-anchor="middle" x="231" y="-81" font-family="Helvetica,sans-Serif" font-size="10.00">m_next</text>
</g>
<!-- Node4 -->
<g id="node4" class="node"><title>Node4</title>
<polygon fill="white" stroke="#bfbfbf" points="118,-147.5 118,-166.5 147,-166.5 147,-147.5 118,-147.5"/>
<text text-anchor="middle" x="132.5" y="-154.5" font-family="Helvetica,sans-Serif" font-size="10.00">T</text>
</g>
<!-- Node4&#45;&gt;Node3 -->
<g id="edge4" class="edge"><title>Node4&#45;&gt;Node3</title>
<path fill="none" stroke="#9a32cd" stroke-dasharray="5,2" d="M132.5,-137.041C132.5,-124.472 132.5,-108.563 132.5,-98.8411"/>
<polygon fill="#9a32cd" stroke="#9a32cd" points="129,-137.372 132.5,-147.372 136,-137.372 129,-137.372"/>
<text text-anchor="middle" x="146.5" y="-121" font-family="Helvetica,sans-Serif" font-size="10.00"> m_val</text>
</g>
</g>
</svg>
