<?xml version="1.0" encoding="UTF-8" standalone="no"?>
<!DOCTYPE svg PUBLIC "-//W3C//DTD SVG 1.1//EN"
 "http://www.w3.org/Graphics/SVG/1.1/DTD/svg11.dtd">
<!-- Generated by graphviz version 2.38.0 (20140413.2041)
 -->
<!-- Title: stl/RedBlackTree.h Pages: 1 -->
<svg width="174pt" height="84pt"
 viewBox="0.00 0.00 174.00 84.00" xmlns="http://www.w3.org/2000/svg" xmlns:xlink="http://www.w3.org/1999/xlink">
<g id="graph0" class="graph" transform="scale(1 1) rotate(0) translate(4 80)">
<title>stl/RedBlackTree.h</title>
<polygon fill="white" stroke="none" points="-4,4 -4,-80 170,-80 170,4 -4,4"/>
<!-- Node17 -->
<g id="node1" class="node"><title>Node17</title>
<polygon fill="#bfbfbf" stroke="black" points="34.5,-56.5 34.5,-75.5 133.5,-75.5 133.5,-56.5 34.5,-56.5"/>
<text text-anchor="middle" x="84" y="-63.5" font-family="Helvetica,sans-Serif" font-size="10.00">stl/RedBlackTree.h</text>
</g>
<!-- Node18 -->
<g id="node2" class="node"><title>Node18</title>
<g id="a_node2"><a xlink:href="../../df/d87/_tree_map_8h.html" target="_top" xlink:title="Map implementation using red black tree. ">
<polygon fill="white" stroke="black" points="0,-0.5 0,-19.5 76,-19.5 76,-0.5 0,-0.5"/>
<text text-anchor="middle" x="38" y="-7.5" font-family="Helvetica,sans-Serif" font-size="10.00">stl/TreeMap.h</text>
</a>
</g>
</g>
<!-- Node17&#45;&gt;Node18 -->
<g id="edge1" class="edge"><title>Node17&#45;&gt;Node18</title>
<path fill="none" stroke="midnightblue" d="M69.886,-48.4314C61.824,-38.9673 52.0408,-27.4827 45.4546,-19.7511"/>
<polygon fill="midnightblue" stroke="midnightblue" points="67.255,-50.7402 76.404,-56.083 72.5837,-46.2009 67.255,-50.7402"/>
</g>
<!-- Node19 -->
<g id="node3" class="node"><title>Node19</title>
<g id="a_node3"><a xlink:href="../../dd/dba/_tree_set_8h.html" target="_top" xlink:title="Set implementation using red black tree. ">
<polygon fill="white" stroke="black" points="94,-0.5 94,-19.5 166,-19.5 166,-0.5 94,-0.5"/>
<text text-anchor="middle" x="130" y="-7.5" font-family="Helvetica,sans-Serif" font-size="10.00">stl/TreeSet.h</text>
</a>
</g>
</g>
<!-- Node17&#45;&gt;Node19 -->
<g id="edge2" class="edge"><title>Node17&#45;&gt;Node19</title>
<path fill="none" stroke="midnightblue" d="M98.114,-48.4314C106.176,-38.9673 115.959,-27.4827 122.545,-19.7511"/>
<polygon fill="midnightblue" stroke="midnightblue" points="95.4163,-46.2009 91.596,-56.083 100.745,-50.7402 95.4163,-46.2009"/>
</g>
</g>
</svg>
