<?xml version="1.0" encoding="UTF-8" standalone="no"?>
<!DOCTYPE svg PUBLIC "-//W3C//DTD SVG 1.1//EN"
 "http://www.w3.org/Graphics/SVG/1.1/DTD/svg11.dtd">
<!-- Generated by graphviz version 2.38.0 (20140413.2041)
 -->
<!-- Title: wlp::StaticString&lt; tSize &gt; Pages: 1 -->
<svg width="122pt" height="106pt"
 viewBox="0.00 0.00 121.50 106.00" xmlns="http://www.w3.org/2000/svg" xmlns:xlink="http://www.w3.org/1999/xlink">
<g id="graph0" class="graph" transform="scale(1 1) rotate(0) translate(4 102)">
<title>wlp::StaticString&lt; tSize &gt;</title>
<polygon fill="white" stroke="none" points="-4,4 -4,-102 117.5,-102 117.5,4 -4,4"/>
<!-- Node1 -->
<g id="node1" class="node"><title>Node1</title>
<polygon fill="#bfbfbf" stroke="black" points="8.5,-0.5 8.5,-30.5 102.5,-30.5 102.5,-0.5 8.5,-0.5"/>
<text text-anchor="start" x="16.5" y="-18.5" font-family="Helvetica,sans-Serif" font-size="10.00">wlp::StaticString&lt;</text>
<text text-anchor="middle" x="55.5" y="-7.5" font-family="Helvetica,sans-Serif" font-size="10.00"> tSize &gt;</text>
</g>
<!-- Node2 -->
<g id="node2" class="node"><title>Node2</title>
<polygon fill="white" stroke="#bfbfbf" points="0,-78.5 0,-97.5 51,-97.5 51,-78.5 0,-78.5"/>
<text text-anchor="middle" x="25.5" y="-85.5" font-family="Helvetica,sans-Serif" font-size="10.00">uint16_t</text>
</g>
<!-- Node2&#45;&gt;Node1 -->
<g id="edge1" class="edge"><title>Node2&#45;&gt;Node1</title>
<path fill="none" stroke="#9a32cd" stroke-dasharray="5,2" d="M28.6495,-68.0878C30.033,-61.8629 31.9402,-55.0024 34.5,-49 37.188,-42.6971 41.0678,-36.2574 44.7629,-30.7905"/>
<polygon fill="#9a32cd" stroke="#9a32cd" points="25.1404,-67.8035 26.6971,-78.2834 32.0155,-69.1201 25.1404,-67.8035"/>
<text text-anchor="middle" x="49.5" y="-52" font-family="Helvetica,sans-Serif" font-size="10.00"> m_len</text>
</g>
<!-- Node3 -->
<g id="node3" class="node"><title>Node3</title>
<polygon fill="white" stroke="#bfbfbf" points="69,-78.5 69,-97.5 104,-97.5 104,-78.5 69,-78.5"/>
<text text-anchor="middle" x="86.5" y="-85.5" font-family="Helvetica,sans-Serif" font-size="10.00">char</text>
</g>
<!-- Node3&#45;&gt;Node1 -->
<g id="edge2" class="edge"><title>Node3&#45;&gt;Node1</title>
<path fill="none" stroke="#9a32cd" stroke-dasharray="5,2" d="M78.5692,-68.9637C73.3214,-57.0293 66.5394,-41.6057 61.6895,-30.5762"/>
<polygon fill="#9a32cd" stroke="#9a32cd" points="75.4696,-70.61 82.6988,-78.3553 81.8775,-67.7924 75.4696,-70.61"/>
<text text-anchor="middle" x="93.5" y="-52" font-family="Helvetica,sans-Serif" font-size="10.00"> m_buffer</text>
</g>
</g>
</svg>
