<?xml version="1.0" encoding="UTF-8" standalone="no"?>
<!DOCTYPE svg PUBLIC "-//W3C//DTD SVG 1.1//EN"
 "http://www.w3.org/Graphics/SVG/1.1/DTD/svg11.dtd">
<!-- Generated by graphviz version 2.36.0 (20140111.2315)
 -->
<!-- Title: wlp::StaticString&lt; tSize &gt; Pages: 1 -->
<svg width="124pt" height="108pt"
 viewBox="0.00 0.00 124.00 108.00" xmlns="http://www.w3.org/2000/svg" xmlns:xlink="http://www.w3.org/1999/xlink">
<g id="graph0" class="graph" transform="scale(1 1) rotate(0) translate(4 104)">
<title>wlp::StaticString&lt; tSize &gt;</title>
<polygon fill="white" stroke="none" points="-4,4 -4,-104 120,-104 120,4 -4,4"/>
<!-- Node1 -->
<g id="node1" class="node"><title>Node1</title>
<polygon fill="#bfbfbf" stroke="black" points="7.5,-1 7.5,-31 102.5,-31 102.5,-1 7.5,-1"/>
<text text-anchor="start" x="15.5" y="-19" font-family="Helvetica,sans-Serif" font-size="10.00">wlp::StaticString&lt;</text>
<text text-anchor="middle" x="55" y="-8" font-family="Helvetica,sans-Serif" font-size="10.00"> tSize &gt;</text>
</g>
<!-- Node2 -->
<g id="node2" class="node"><title>Node2</title>
<polygon fill="white" stroke="#bfbfbf" points="-0.5,-80.5 -0.5,-99.5 50.5,-99.5 50.5,-80.5 -0.5,-80.5"/>
<text text-anchor="middle" x="25" y="-87.5" font-family="Helvetica,sans-Serif" font-size="10.00">uint16_t</text>
</g>
<!-- Node2&#45;&gt;Node1 -->
<g id="edge1" class="edge"><title>Node2&#45;&gt;Node1</title>
<path fill="none" stroke="#9a32cd" stroke-dasharray="5,2" d="M27.9642,-70.331C29.3565,-63.7527 31.3164,-56.405 34,-50 36.7292,-43.4862 40.7067,-36.8185 44.4679,-31.1971"/>
<polygon fill="#9a32cd" stroke="#9a32cd" points="24.4838,-69.9069 26.1294,-80.3731 31.3698,-71.165 24.4838,-69.9069"/>
<text text-anchor="middle" x="49" y="-53.5" font-family="Helvetica,sans-Serif" font-size="10.00"> m_len</text>
</g>
<!-- Node3 -->
<g id="node3" class="node"><title>Node3</title>
<polygon fill="white" stroke="#bfbfbf" points="68.5,-80.5 68.5,-99.5 103.5,-99.5 103.5,-80.5 68.5,-80.5"/>
<text text-anchor="middle" x="86" y="-87.5" font-family="Helvetica,sans-Serif" font-size="10.00">char</text>
</g>
<!-- Node3&#45;&gt;Node1 -->
<g id="edge2" class="edge"><title>Node3&#45;&gt;Node1</title>
<path fill="none" stroke="#9a32cd" stroke-dasharray="5,2" d="M78.3378,-71.2038C73.0324,-58.8816 66.0643,-42.6978 61.1275,-31.2316"/>
<polygon fill="#9a32cd" stroke="#9a32cd" points="75.1528,-72.6572 82.3222,-80.4579 81.5822,-69.8889 75.1528,-72.6572"/>
<text text-anchor="middle" x="95" y="-53.5" font-family="Helvetica,sans-Serif" font-size="10.00"> m_buffer</text>
</g>
</g>
</svg>
