<?xml version="1.0" encoding="UTF-8" standalone="no"?>
<!DOCTYPE svg PUBLIC "-//W3C//DTD SVG 1.1//EN"
 "http://www.w3.org/Graphics/SVG/1.1/DTD/svg11.dtd">
<!-- Generated by graphviz version 2.36.0 (20140111.2315)
 -->
<!-- Title: wlp::static_string::append Pages: 1 -->
<svg width="228pt" height="87pt"
 viewBox="0.00 0.00 228.00 87.00" xmlns="http://www.w3.org/2000/svg" xmlns:xlink="http://www.w3.org/1999/xlink">
<g id="graph0" class="graph" transform="scale(1 1) rotate(0) translate(4 83)">
<title>wlp::static_string::append</title>
<polygon fill="white" stroke="none" points="-4,4 -4,-83 224,-83 224,4 -4,4"/>
<!-- Node1 -->
<g id="node1" class="node"><title>Node1</title>
<polygon fill="#bfbfbf" stroke="black" points="0.5,-24 0.5,-54 91.5,-54 91.5,-24 0.5,-24"/>
<text text-anchor="start" x="8.5" y="-42" font-family="Helvetica,sans-Serif" font-size="10.00">wlp::static_string</text>
<text text-anchor="middle" x="46" y="-31" font-family="Helvetica,sans-Serif" font-size="10.00">::append</text>
</g>
<!-- Node2 -->
<g id="node2" class="node"><title>Node2</title>
<g id="a_node2"><a xlink:href="../../d7/d08/classwlp_1_1static__string.html#ac63b01cc15d6cd789c72b8ad0cf4b573" target="_top" xlink:title="wlp::static_string\l::append">
<polygon fill="white" stroke="black" points="128.5,-49 128.5,-79 219.5,-79 219.5,-49 128.5,-49"/>
<text text-anchor="start" x="136.5" y="-67" font-family="Helvetica,sans-Serif" font-size="10.00">wlp::static_string</text>
<text text-anchor="middle" x="174" y="-56" font-family="Helvetica,sans-Serif" font-size="10.00">::append</text>
</a>
</g>
</g>
<!-- Node1&#45;&gt;Node2 -->
<g id="edge1" class="edge"><title>Node1&#45;&gt;Node2</title>
<path fill="none" stroke="midnightblue" d="M101.699,-49.853C110.606,-51.6202 119.738,-53.4322 128.367,-55.1442"/>
<polygon fill="midnightblue" stroke="midnightblue" points="102.268,-46.3976 91.7777,-47.8845 100.905,-53.2638 102.268,-46.3976"/>
</g>
<!-- Node3 -->
<g id="node3" class="node"><title>Node3</title>
<g id="a_node3"><a xlink:href="../../d7/d08/classwlp_1_1static__string.html#ab9c41e2861482173d8a0752934754d07" target="_top" xlink:title="wlp::static_string\l::operator+=">
<polygon fill="white" stroke="black" points="128.5,-0 128.5,-30 219.5,-30 219.5,-0 128.5,-0"/>
<text text-anchor="start" x="136.5" y="-18" font-family="Helvetica,sans-Serif" font-size="10.00">wlp::static_string</text>
<text text-anchor="middle" x="174" y="-7" font-family="Helvetica,sans-Serif" font-size="10.00">::operator+=</text>
</a>
</g>
</g>
<!-- Node1&#45;&gt;Node3 -->
<g id="edge2" class="edge"><title>Node1&#45;&gt;Node3</title>
<path fill="none" stroke="midnightblue" d="M101.699,-28.5811C110.606,-26.8846 119.738,-25.1451 128.367,-23.5016"/>
<polygon fill="midnightblue" stroke="midnightblue" points="100.946,-25.1615 91.7777,-30.4709 102.256,-32.0379 100.946,-25.1615"/>
</g>
</g>
</svg>
