<?xml version="1.0" encoding="UTF-8" standalone="no"?>
<!DOCTYPE svg PUBLIC "-//W3C//DTD SVG 1.1//EN"
 "http://www.w3.org/Graphics/SVG/1.1/DTD/svg11.dtd">
<!-- Generated by graphviz version 2.36.0 (20140111.2315)
 -->
<!-- Title: wlp::static_string::operator== Pages: 1 -->
<svg width="356pt" height="38pt"
 viewBox="0.00 0.00 356.00 38.00" xmlns="http://www.w3.org/2000/svg" xmlns:xlink="http://www.w3.org/1999/xlink">
<g id="graph0" class="graph" transform="scale(1 1) rotate(0) translate(4 34)">
<title>wlp::static_string::operator==</title>
<polygon fill="white" stroke="none" points="-4,4 -4,-34 352,-34 352,4 -4,4"/>
<!-- Node1 -->
<g id="node1" class="node"><title>Node1</title>
<polygon fill="#bfbfbf" stroke="black" points="0.5,-0 0.5,-30 91.5,-30 91.5,-0 0.5,-0"/>
<text text-anchor="start" x="8.5" y="-18" font-family="Helvetica,sans-Serif" font-size="10.00">wlp::static_string</text>
<text text-anchor="middle" x="46" y="-7" font-family="Helvetica,sans-Serif" font-size="10.00">::operator==</text>
</g>
<!-- Node2 -->
<g id="node2" class="node"><title>Node2</title>
<g id="a_node2"><a xlink:href="../../d7/d08/classwlp_1_1static__string.html#afab65b44dc6e052df5d55e58e3ec500b" target="_top" xlink:title="wlp::static_string\l::compare">
<polygon fill="white" stroke="black" points="128.5,-0 128.5,-30 219.5,-30 219.5,-0 128.5,-0"/>
<text text-anchor="start" x="136.5" y="-18" font-family="Helvetica,sans-Serif" font-size="10.00">wlp::static_string</text>
<text text-anchor="middle" x="174" y="-7" font-family="Helvetica,sans-Serif" font-size="10.00">::compare</text>
</a>
</g>
</g>
<!-- Node1&#45;&gt;Node2 -->
<g id="edge1" class="edge"><title>Node1&#45;&gt;Node2</title>
<path fill="none" stroke="midnightblue" d="M91.7777,-15C100.319,-15 109.349,-15 118.162,-15"/>
<polygon fill="midnightblue" stroke="midnightblue" points="118.367,-18.5001 128.367,-15 118.366,-11.5001 118.367,-18.5001"/>
</g>
<!-- Node3 -->
<g id="node3" class="node"><title>Node3</title>
<g id="a_node3"><a xlink:href="../../d7/d08/classwlp_1_1static__string.html#a67b50dc817b02a9f1b9b20bbd1b638f0" target="_top" xlink:title="wlp::static_string\l::c_str">
<polygon fill="white" stroke="black" points="256.5,-0 256.5,-30 347.5,-30 347.5,-0 256.5,-0"/>
<text text-anchor="start" x="264.5" y="-18" font-family="Helvetica,sans-Serif" font-size="10.00">wlp::static_string</text>
<text text-anchor="middle" x="302" y="-7" font-family="Helvetica,sans-Serif" font-size="10.00">::c_str</text>
</a>
</g>
</g>
<!-- Node2&#45;&gt;Node3 -->
<g id="edge2" class="edge"><title>Node2&#45;&gt;Node3</title>
<path fill="none" stroke="midnightblue" d="M219.778,-15C228.319,-15 237.349,-15 246.162,-15"/>
<polygon fill="midnightblue" stroke="midnightblue" points="246.367,-18.5001 256.367,-15 246.366,-11.5001 246.367,-18.5001"/>
</g>
</g>
</svg>
