<?xml version="1.0" encoding="UTF-8" standalone="no"?>
<!DOCTYPE svg PUBLIC "-//W3C//DTD SVG 1.1//EN"
 "http://www.w3.org/Graphics/SVG/1.1/DTD/svg11.dtd">
<!-- Generated by graphviz version 2.36.0 (20140111.2315)
 -->
<!-- Title: wlp::static_string::c_str Pages: 1 -->
<!--zoomable 608 -->
<svg id="main" version="1.1" xmlns="http://www.w3.org/2000/svg" xmlns:xlink="http://www.w3.org/1999/xlink" xml:space="preserve" onload="init(evt)">
<style type="text/css"><![CDATA[
.edge:hover path { stroke: red; }
.edge:hover polygon { stroke: red; fill: red; }
]]></style>
<script type="text/javascript"><![CDATA[
var edges = document.getElementsByTagName('g');
if (edges && edges.length) {
  for (var i=0;i<edges.length;i++) {
    if (edges[i].id.substr(0,4)=='edge') {
      edges[i].setAttribute('class','edge');
    }
  }
}
]]></script>
        <defs>
                <circle id="rim" cx="0" cy="0" r="7"/>
                <circle id="rim2" cx="0" cy="0" r="3.5"/>
                <g id="zoomPlus">
                        <use xlink:href="#rim" fill="#404040">
                                <set attributeName="fill" to="#808080" begin="zoomplus.mouseover" end="zoomplus.mouseout"/>
                        </use>
                        <path d="M-4,0h8M0,-4v8" fill="none" stroke="white" stroke-width="1.5" pointer-events="none"/>
                </g>
                <g id="zoomMin">
                        <use xlink:href="#rim" fill="#404040">
                                <set attributeName="fill" to="#808080" begin="zoomminus.mouseover" end="zoomminus.mouseout"/>
                        </use>
                        <path d="M-4,0h8" fill="none" stroke="white" stroke-width="1.5" pointer-events="none"/>
                </g>
                <g id="dirArrow">
                        <path fill="none" stroke="white" stroke-width="1.5" d="M0,-3.0v7 M-2.5,-0.5L0,-3.0L2.5,-0.5"/>
                </g>
               <g id="resetDef">
                       <use xlink:href="#rim2" fill="#404040">
                               <set attributeName="fill" to="#808080" begin="reset.mouseover" end="reset.mouseout"/>
                       </use>
               </g>
        </defs>

<script type="text/javascript">
var viewWidth = 398;
var viewHeight = 608;
var sectionId = 'dynsection-13';
</script>
<script xlink:href="../../svgpan.js"/>
<svg id="graph" class="graph">
<g id="viewport">
<title>wlp::static_string::c_str</title>
<polygon fill="white" stroke="none" points="-4,4 -4,-604 394,-604 394,4 -4,4"/>
<!-- Node1 -->
<g id="node1" class="node"><title>Node1</title>
<polygon fill="#bfbfbf" stroke="black" points="0.5,-300 0.5,-330 91.5,-330 91.5,-300 0.5,-300"/>
<text text-anchor="start" x="8.5" y="-318" font-family="Helvetica,sans-Serif" font-size="10.00">wlp::static_string</text>
<text text-anchor="middle" x="46" y="-307" font-family="Helvetica,sans-Serif" font-size="10.00">::c_str</text>
</g>
<!-- Node2 -->
<g id="node2" class="node"><title>Node2</title>
<g id="a_node2"><a xlink:href="../../d6/de0/structwlp_1_1comparator_3_01static__string_3_01t_size_01_4_01_4.html#a937517c09e4735149ffd2e42ac44abd2" target="_top" xlink:title="wlp::comparator\&lt; static\l_string\&lt; tSize \&gt; \&gt;::__eq__">
<polygon fill="white" stroke="black" points="128.5,-570 128.5,-600 261.5,-600 261.5,-570 128.5,-570"/>
<text text-anchor="start" x="136.5" y="-588" font-family="Helvetica,sans-Serif" font-size="10.00">wlp::comparator&lt; static</text>
<text text-anchor="middle" x="195" y="-577" font-family="Helvetica,sans-Serif" font-size="10.00">_string&lt; tSize &gt; &gt;::__eq__</text>
</a>
</g>
</g>
<!-- Node1&#45;&gt;Node2 -->
<g id="edge1" class="edge"><title>Node1&#45;&gt;Node2</title>
<path fill="none" stroke="midnightblue" d="M48.3817,-340.229C52.3854,-389.083 67.9236,-497.296 128,-560 131.73,-563.893 136.127,-567.186 140.852,-569.971"/>
<polygon fill="midnightblue" stroke="midnightblue" points="51.8693,-339.93 47.6569,-330.208 44.8875,-340.435 51.8693,-339.93"/>
</g>
<!-- Node3 -->
<g id="node3" class="node"><title>Node3</title>
<g id="a_node3"><a xlink:href="../../d6/de0/structwlp_1_1comparator_3_01static__string_3_01t_size_01_4_01_4.html#a00662bb2e2012323c4b6df34e331a6ec" target="_top" xlink:title="wlp::comparator\&lt; static\l_string\&lt; tSize \&gt; \&gt;::__ge__">
<polygon fill="white" stroke="black" points="128.5,-521 128.5,-551 261.5,-551 261.5,-521 128.5,-521"/>
<text text-anchor="start" x="136.5" y="-539" font-family="Helvetica,sans-Serif" font-size="10.00">wlp::comparator&lt; static</text>
<text text-anchor="middle" x="195" y="-528" font-family="Helvetica,sans-Serif" font-size="10.00">_string&lt; tSize &gt; &gt;::__ge__</text>
</a>
</g>
</g>
<!-- Node1&#45;&gt;Node3 -->
<g id="edge2" class="edge"><title>Node1&#45;&gt;Node3</title>
<path fill="none" stroke="midnightblue" d="M50.7919,-340.02C58.29,-381.142 78.7668,-463.213 128,-511 131.956,-514.84 136.561,-518.103 141.464,-520.872"/>
<polygon fill="midnightblue" stroke="midnightblue" points="54.2191,-339.296 49.0815,-330.03 47.3195,-340.478 54.2191,-339.296"/>
</g>
<!-- Node4 -->
<g id="node4" class="node"><title>Node4</title>
<g id="a_node4"><a xlink:href="../../d6/de0/structwlp_1_1comparator_3_01static__string_3_01t_size_01_4_01_4.html#a964439657ebd45dd7f3beb1fe40d3024" target="_top" xlink:title="wlp::comparator\&lt; static\l_string\&lt; tSize \&gt; \&gt;::__gt__">
<polygon fill="white" stroke="black" points="129.5,-472 129.5,-502 260.5,-502 260.5,-472 129.5,-472"/>
<text text-anchor="start" x="137.5" y="-490" font-family="Helvetica,sans-Serif" font-size="10.00">wlp::comparator&lt; static</text>
<text text-anchor="middle" x="195" y="-479" font-family="Helvetica,sans-Serif" font-size="10.00">_string&lt; tSize &gt; &gt;::__gt__</text>
</a>
</g>
</g>
<!-- Node1&#45;&gt;Node4 -->
<g id="edge3" class="edge"><title>Node1&#45;&gt;Node4</title>
<path fill="none" stroke="midnightblue" d="M54.6174,-339.77C65.76,-372.125 89.4712,-428.572 128,-462 132.442,-465.854 137.539,-469.142 142.889,-471.94"/>
<polygon fill="midnightblue" stroke="midnightblue" points="57.905,-338.564 51.4384,-330.172 51.26,-340.765 57.905,-338.564"/>
</g>
<!-- Node5 -->
<g id="node5" class="node"><title>Node5</title>
<g id="a_node5"><a xlink:href="../../d6/de0/structwlp_1_1comparator_3_01static__string_3_01t_size_01_4_01_4.html#a4f2b1676caadf1140eac2a096cb06b7b" target="_top" xlink:title="wlp::comparator\&lt; static\l_string\&lt; tSize \&gt; \&gt;::__le__">
<polygon fill="white" stroke="black" points="130,-423 130,-453 260,-453 260,-423 130,-423"/>
<text text-anchor="start" x="138" y="-441" font-family="Helvetica,sans-Serif" font-size="10.00">wlp::comparator&lt; static</text>
<text text-anchor="middle" x="195" y="-430" font-family="Helvetica,sans-Serif" font-size="10.00">_string&lt; tSize &gt; &gt;::__le__</text>
</a>
</g>
</g>
<!-- Node1&#45;&gt;Node5 -->
<g id="edge4" class="edge"><title>Node1&#45;&gt;Node5</title>
<path fill="none" stroke="midnightblue" d="M61.4308,-338.742C75.852,-360.698 99.8843,-392.882 128,-413 133.281,-416.779 139.205,-420.065 145.278,-422.9"/>
<polygon fill="midnightblue" stroke="midnightblue" points="64.1915,-336.563 55.8549,-330.024 58.2944,-340.334 64.1915,-336.563"/>
</g>
<!-- Node6 -->
<g id="node6" class="node"><title>Node6</title>
<g id="a_node6"><a xlink:href="../../d6/de0/structwlp_1_1comparator_3_01static__string_3_01t_size_01_4_01_4.html#a877f499983aff377cc1c921e600b1bc7" target="_top" xlink:title="wlp::comparator\&lt; static\l_string\&lt; tSize \&gt; \&gt;::__lt__">
<polygon fill="white" stroke="black" points="131,-374 131,-404 259,-404 259,-374 131,-374"/>
<text text-anchor="start" x="139" y="-392" font-family="Helvetica,sans-Serif" font-size="10.00">wlp::comparator&lt; static</text>
<text text-anchor="middle" x="195" y="-381" font-family="Helvetica,sans-Serif" font-size="10.00">_string&lt; tSize &gt; &gt;::__lt__</text>
</a>
</g>
</g>
<!-- Node1&#45;&gt;Node6 -->
<g id="edge5" class="edge"><title>Node1&#45;&gt;Node6</title>
<path fill="none" stroke="midnightblue" d="M78.1409,-335.664C92.9003,-344.978 110.99,-355.719 128,-364 135.271,-367.54 143.18,-370.916 150.914,-373.978"/>
<polygon fill="midnightblue" stroke="midnightblue" points="79.7304,-332.526 69.4209,-330.083 75.9572,-338.422 79.7304,-332.526"/>
</g>
<!-- Node7 -->
<g id="node7" class="node"><title>Node7</title>
<g id="a_node7"><a xlink:href="../../d6/de0/structwlp_1_1comparator_3_01static__string_3_01t_size_01_4_01_4.html#a4b989554a5a6b4e026704dba4a9bea10" target="_top" xlink:title="wlp::comparator\&lt; static\l_string\&lt; tSize \&gt; \&gt;::__ne__">
<polygon fill="white" stroke="black" points="128.5,-325 128.5,-355 261.5,-355 261.5,-325 128.5,-325"/>
<text text-anchor="start" x="136.5" y="-343" font-family="Helvetica,sans-Serif" font-size="10.00">wlp::comparator&lt; static</text>
<text text-anchor="middle" x="195" y="-332" font-family="Helvetica,sans-Serif" font-size="10.00">_string&lt; tSize &gt; &gt;::__ne__</text>
</a>
</g>
</g>
<!-- Node1&#45;&gt;Node7 -->
<g id="edge6" class="edge"><title>Node1&#45;&gt;Node7</title>
<path fill="none" stroke="midnightblue" d="M101.586,-324.283C110.353,-325.774 119.505,-327.331 128.495,-328.86"/>
<polygon fill="midnightblue" stroke="midnightblue" points="101.949,-320.795 91.5038,-322.569 100.775,-327.696 101.949,-320.795"/>
</g>
<!-- Node8 -->
<g id="node8" class="node"><title>Node8</title>
<g id="a_node8"><a xlink:href="../../d7/d08/classwlp_1_1static__string.html#abfc22b62edf0a28ec49c7e99b63346e3" target="_top" xlink:title="wlp::static_string\l::append">
<polygon fill="white" stroke="black" points="149.5,-276 149.5,-306 240.5,-306 240.5,-276 149.5,-276"/>
<text text-anchor="start" x="157.5" y="-294" font-family="Helvetica,sans-Serif" font-size="10.00">wlp::static_string</text>
<text text-anchor="middle" x="195" y="-283" font-family="Helvetica,sans-Serif" font-size="10.00">::append</text>
</a>
</g>
</g>
<!-- Node1&#45;&gt;Node8 -->
<g id="edge7" class="edge"><title>Node1&#45;&gt;Node8</title>
<path fill="none" stroke="midnightblue" d="M101.633,-306.08C117.369,-303.511 134.343,-300.74 149.394,-298.283"/>
<polygon fill="midnightblue" stroke="midnightblue" points="100.809,-302.668 91.5038,-307.734 101.937,-309.577 100.809,-302.668"/>
</g>
<!-- Node11 -->
<g id="node11" class="node"><title>Node11</title>
<g id="a_node11"><a xlink:href="../../d7/d08/classwlp_1_1static__string.html#afab65b44dc6e052df5d55e58e3ec500b" target="_top" xlink:title="wlp::static_string\l::compare">
<polygon fill="white" stroke="black" points="149.5,-227 149.5,-257 240.5,-257 240.5,-227 149.5,-227"/>
<text text-anchor="start" x="157.5" y="-245" font-family="Helvetica,sans-Serif" font-size="10.00">wlp::static_string</text>
<text text-anchor="middle" x="195" y="-234" font-family="Helvetica,sans-Serif" font-size="10.00">::compare</text>
</a>
</g>
</g>
<!-- Node1&#45;&gt;Node11 -->
<g id="edge10" class="edge"><title>Node1&#45;&gt;Node11</title>
<path fill="none" stroke="midnightblue" d="M78.8305,-294.407C93.4811,-285.383 111.289,-275.042 128,-267 135.287,-263.493 143.203,-260.133 150.94,-257.077"/>
<polygon fill="midnightblue" stroke="midnightblue" points="76.7843,-291.558 70.1546,-299.822 80.4909,-297.496 76.7843,-291.558"/>
</g>
<!-- Node22 -->
<g id="node22" class="node"><title>Node22</title>
<g id="a_node22"><a xlink:href="../../d0/d87/structwlp_1_1equals_3_01static__string_3_01t_size_01_4_01_4.html#a28cdc01cfaef6007dfd69fc19859948f" target="_top" xlink:title="wlp::equals\&lt; static\l_string\&lt; tSize \&gt; \&gt;::\loperator()">
<polygon fill="white" stroke="black" points="144.5,-167.5 144.5,-208.5 245.5,-208.5 245.5,-167.5 144.5,-167.5"/>
<text text-anchor="start" x="152.5" y="-196.5" font-family="Helvetica,sans-Serif" font-size="10.00">wlp::equals&lt; static</text>
<text text-anchor="start" x="152.5" y="-185.5" font-family="Helvetica,sans-Serif" font-size="10.00">_string&lt; tSize &gt; &gt;::</text>
<text text-anchor="middle" x="195" y="-174.5" font-family="Helvetica,sans-Serif" font-size="10.00">operator()</text>
</a>
</g>
</g>
<!-- Node1&#45;&gt;Node22 -->
<g id="edge21" class="edge"><title>Node1&#45;&gt;Node22</title>
<path fill="none" stroke="midnightblue" d="M61.9166,-291.219C76.5347,-269.506 100.57,-237.725 128,-217 132.993,-213.228 138.553,-209.823 144.269,-206.785"/>
<polygon fill="midnightblue" stroke="midnightblue" points="58.8137,-289.568 56.2458,-299.847 64.6633,-293.413 58.8137,-289.568"/>
</g>
<!-- Node23 -->
<g id="node23" class="node"><title>Node23</title>
<g id="a_node23"><a xlink:href="../../d3/d5c/structwlp_1_1equals_3_01const_01static__string_3_01t_size_01_4_01_4.html#a6cf287134fefa69736e27767a2ad9271" target="_top" xlink:title="wlp::equals\&lt; const\l static_string\&lt; tSize\l \&gt; \&gt;::operator()">
<polygon fill="white" stroke="black" points="143,-107.5 143,-148.5 247,-148.5 247,-107.5 143,-107.5"/>
<text text-anchor="start" x="151" y="-136.5" font-family="Helvetica,sans-Serif" font-size="10.00">wlp::equals&lt; const</text>
<text text-anchor="start" x="151" y="-125.5" font-family="Helvetica,sans-Serif" font-size="10.00"> static_string&lt; tSize</text>
<text text-anchor="middle" x="195" y="-114.5" font-family="Helvetica,sans-Serif" font-size="10.00"> &gt; &gt;::operator()</text>
</a>
</g>
</g>
<!-- Node1&#45;&gt;Node23 -->
<g id="edge22" class="edge"><title>Node1&#45;&gt;Node23</title>
<path fill="none" stroke="midnightblue" d="M54.0298,-290.424C64.8386,-256.578 88.5327,-195.554 128,-158 132.377,-153.835 137.433,-150.178 142.759,-146.984"/>
<polygon fill="midnightblue" stroke="midnightblue" points="50.6793,-289.412 51.0859,-299.999 57.3702,-291.469 50.6793,-289.412"/>
</g>
<!-- Node24 -->
<g id="node24" class="node"><title>Node24</title>
<g id="a_node24"><a xlink:href="../../d5/dca/namespacewlp.html#a50f7a7bc87a2e8e8df9291ddde1f645c" target="_top" xlink:title="wlp::operator+">
<polygon fill="white" stroke="black" points="155.5,-69.5 155.5,-88.5 234.5,-88.5 234.5,-69.5 155.5,-69.5"/>
<text text-anchor="middle" x="195" y="-76.5" font-family="Helvetica,sans-Serif" font-size="10.00">wlp::operator+</text>
</a>
</g>
</g>
<!-- Node1&#45;&gt;Node24 -->
<g id="edge23" class="edge"><title>Node1&#45;&gt;Node24</title>
<path fill="none" stroke="midnightblue" d="M49.1706,-289.737C54.4171,-244.604 71.8449,-149.992 128,-98 135.524,-91.0334 145.442,-86.6032 155.295,-83.7916"/>
<polygon fill="midnightblue" stroke="midnightblue" points="45.6733,-289.529 48.1064,-299.84 52.6348,-290.262 45.6733,-289.529"/>
</g>
<!-- Node25 -->
<g id="node25" class="node"><title>Node25</title>
<g id="a_node25"><a xlink:href="../../d7/d08/classwlp_1_1static__string.html#aade0bb3acbfb67047fe7027148b6b9d1" target="_top" xlink:title="wlp::static_string\l::static_string">
<polygon fill="white" stroke="black" points="149.5,-20 149.5,-50 240.5,-50 240.5,-20 149.5,-20"/>
<text text-anchor="start" x="157.5" y="-38" font-family="Helvetica,sans-Serif" font-size="10.00">wlp::static_string</text>
<text text-anchor="middle" x="195" y="-27" font-family="Helvetica,sans-Serif" font-size="10.00">::static_string</text>
</a>
</g>
</g>
<!-- Node1&#45;&gt;Node25 -->
<g id="edge24" class="edge"><title>Node1&#45;&gt;Node25</title>
<path fill="none" stroke="midnightblue" d="M47.9879,-289.806C51.2962,-239.507 65.6637,-125.831 128,-60 133.897,-53.7721 141.504,-49.0809 149.445,-45.5516"/>
<polygon fill="midnightblue" stroke="midnightblue" points="44.4924,-289.629 47.4237,-299.811 51.4813,-290.024 44.4924,-289.629"/>
</g>
<!-- Node9 -->
<g id="node9" class="node"><title>Node9</title>
<g id="a_node9"><a xlink:href="../../d7/d08/classwlp_1_1static__string.html#ac63b01cc15d6cd789c72b8ad0cf4b573" target="_top" xlink:title="wlp::static_string\l::append">
<polygon fill="white" stroke="black" points="298.5,-496 298.5,-526 389.5,-526 389.5,-496 298.5,-496"/>
<text text-anchor="start" x="306.5" y="-514" font-family="Helvetica,sans-Serif" font-size="10.00">wlp::static_string</text>
<text text-anchor="middle" x="344" y="-503" font-family="Helvetica,sans-Serif" font-size="10.00">::append</text>
</a>
</g>
</g>
<!-- Node8&#45;&gt;Node9 -->
<g id="edge8" class="edge"><title>Node8&#45;&gt;Node9</title>
<path fill="none" stroke="midnightblue" d="M249.834,-305.761C254.38,-308.597 258.55,-311.975 262,-316 312.265,-374.635 252.114,-423.878 298,-486 300.761,-489.738 304.257,-492.989 308.076,-495.797"/>
<polygon fill="midnightblue" stroke="midnightblue" points="251.193,-302.521 240.715,-300.95 247.926,-308.712 251.193,-302.521"/>
</g>
<!-- Node10 -->
<g id="node10" class="node"><title>Node10</title>
<g id="a_node10"><a xlink:href="../../d7/d08/classwlp_1_1static__string.html#ab9c41e2861482173d8a0752934754d07" target="_top" xlink:title="wlp::static_string\l::operator+=">
<polygon fill="white" stroke="black" points="298.5,-447 298.5,-477 389.5,-477 389.5,-447 298.5,-447"/>
<text text-anchor="start" x="306.5" y="-465" font-family="Helvetica,sans-Serif" font-size="10.00">wlp::static_string</text>
<text text-anchor="middle" x="344" y="-454" font-family="Helvetica,sans-Serif" font-size="10.00">::operator+=</text>
</a>
</g>
</g>
<!-- Node8&#45;&gt;Node10 -->
<g id="edge9" class="edge"><title>Node8&#45;&gt;Node10</title>
<path fill="none" stroke="midnightblue" d="M249.699,-306.173C254.236,-308.926 258.441,-312.172 262,-316 300.202,-357.094 262.876,-393.247 298,-437 301.021,-440.763 304.77,-444.051 308.805,-446.897"/>
<polygon fill="midnightblue" stroke="midnightblue" points="251.133,-302.974 240.646,-301.466 247.904,-309.185 251.133,-302.974"/>
</g>
<!-- Node12 -->
<g id="node12" class="node"><title>Node12</title>
<g id="a_node12"><a xlink:href="../../d7/d08/classwlp_1_1static__string.html#a02dcfe744859a85fa05f81ec783f6151" target="_top" xlink:title="wlp::static_string\l::operator==">
<polygon fill="white" stroke="black" points="298.5,-398 298.5,-428 389.5,-428 389.5,-398 298.5,-398"/>
<text text-anchor="start" x="306.5" y="-416" font-family="Helvetica,sans-Serif" font-size="10.00">wlp::static_string</text>
<text text-anchor="middle" x="344" y="-405" font-family="Helvetica,sans-Serif" font-size="10.00">::operator==</text>
</a>
</g>
</g>
<!-- Node11&#45;&gt;Node12 -->
<g id="edge11" class="edge"><title>Node11&#45;&gt;Node12</title>
<path fill="none" stroke="midnightblue" d="M249.699,-257.173C254.236,-259.926 258.441,-263.172 262,-267 300.202,-308.094 262.876,-344.247 298,-388 301.021,-391.763 304.77,-395.051 308.805,-397.897"/>
<polygon fill="midnightblue" stroke="midnightblue" points="251.133,-253.974 240.646,-252.466 247.904,-260.185 251.133,-253.974"/>
</g>
<!-- Node13 -->
<g id="node13" class="node"><title>Node13</title>
<g id="a_node13"><a xlink:href="../../d7/d08/classwlp_1_1static__string.html#a7c5f1e0861cb228a20da86b2152ae321" target="_top" xlink:title="wlp::static_string\l::operator!=">
<polygon fill="white" stroke="black" points="298.5,-349 298.5,-379 389.5,-379 389.5,-349 298.5,-349"/>
<text text-anchor="start" x="306.5" y="-367" font-family="Helvetica,sans-Serif" font-size="10.00">wlp::static_string</text>
<text text-anchor="middle" x="344" y="-356" font-family="Helvetica,sans-Serif" font-size="10.00">::operator!=</text>
</a>
</g>
</g>
<!-- Node11&#45;&gt;Node13 -->
<g id="edge12" class="edge"><title>Node11&#45;&gt;Node13</title>
<path fill="none" stroke="midnightblue" d="M249.779,-258.273C254.174,-260.792 258.329,-263.684 262,-267 288.55,-290.982 273.257,-313.158 298,-339 301.585,-342.744 305.855,-346.075 310.316,-348.988"/>
<polygon fill="midnightblue" stroke="midnightblue" points="251.007,-254.973 240.5,-253.609 247.863,-261.227 251.007,-254.973"/>
</g>
<!-- Node14 -->
<g id="node14" class="node"><title>Node14</title>
<g id="a_node14"><a xlink:href="../../d7/d08/classwlp_1_1static__string.html#a9a0af415c97c2cd2b8e6e6291a3cfdb1" target="_top" xlink:title="wlp::static_string\l::operator\&gt;">
<polygon fill="white" stroke="black" points="298.5,-300 298.5,-330 389.5,-330 389.5,-300 298.5,-300"/>
<text text-anchor="start" x="306.5" y="-318" font-family="Helvetica,sans-Serif" font-size="10.00">wlp::static_string</text>
<text text-anchor="middle" x="344" y="-307" font-family="Helvetica,sans-Serif" font-size="10.00">::operator&gt;</text>
</a>
</g>
</g>
<!-- Node11&#45;&gt;Node14 -->
<g id="edge13" class="edge"><title>Node11&#45;&gt;Node14</title>
<path fill="none" stroke="midnightblue" d="M248.809,-260.876C253.322,-262.828 257.774,-264.878 262,-267 278.968,-275.519 281.694,-280.274 298,-290 303.526,-293.296 309.504,-296.716 315.241,-299.929"/>
<polygon fill="midnightblue" stroke="midnightblue" points="250.088,-257.617 239.51,-257.016 247.404,-264.082 250.088,-257.617"/>
</g>
<!-- Node15 -->
<g id="node15" class="node"><title>Node15</title>
<g id="a_node15"><a xlink:href="../../d7/d08/classwlp_1_1static__string.html#a2a52224276476395336a45655227efff" target="_top" xlink:title="wlp::static_string\l::operator\&gt;=">
<polygon fill="white" stroke="black" points="298.5,-251 298.5,-281 389.5,-281 389.5,-251 298.5,-251"/>
<text text-anchor="start" x="306.5" y="-269" font-family="Helvetica,sans-Serif" font-size="10.00">wlp::static_string</text>
<text text-anchor="middle" x="344" y="-258" font-family="Helvetica,sans-Serif" font-size="10.00">::operator&gt;=</text>
</a>
</g>
</g>
<!-- Node11&#45;&gt;Node15 -->
<g id="edge14" class="edge"><title>Node11&#45;&gt;Node15</title>
<path fill="none" stroke="midnightblue" d="M250.633,-250.92C266.369,-253.489 283.343,-256.26 298.394,-258.717"/>
<polygon fill="midnightblue" stroke="midnightblue" points="250.937,-247.423 240.504,-249.266 249.809,-254.332 250.937,-247.423"/>
</g>
<!-- Node16 -->
<g id="node16" class="node"><title>Node16</title>
<g id="a_node16"><a xlink:href="../../d7/d08/classwlp_1_1static__string.html#ada5be06a55f885c74bd585ee7e41a616" target="_top" xlink:title="wlp::static_string\l::operator\&lt;">
<polygon fill="white" stroke="black" points="298.5,-202 298.5,-232 389.5,-232 389.5,-202 298.5,-202"/>
<text text-anchor="start" x="306.5" y="-220" font-family="Helvetica,sans-Serif" font-size="10.00">wlp::static_string</text>
<text text-anchor="middle" x="344" y="-209" font-family="Helvetica,sans-Serif" font-size="10.00">::operator&lt;</text>
</a>
</g>
</g>
<!-- Node11&#45;&gt;Node16 -->
<g id="edge15" class="edge"><title>Node11&#45;&gt;Node16</title>
<path fill="none" stroke="midnightblue" d="M250.633,-232.709C266.369,-230.032 283.343,-227.146 298.394,-224.586"/>
<polygon fill="midnightblue" stroke="midnightblue" points="249.775,-229.304 240.504,-234.431 250.949,-236.205 249.775,-229.304"/>
</g>
<!-- Node17 -->
<g id="node17" class="node"><title>Node17</title>
<g id="a_node17"><a xlink:href="../../d7/d08/classwlp_1_1static__string.html#a8c0c385b065e8cbfb8fbd017cd8ab0a4" target="_top" xlink:title="wlp::static_string\l::operator\&lt;=">
<polygon fill="white" stroke="black" points="298.5,-153 298.5,-183 389.5,-183 389.5,-153 298.5,-153"/>
<text text-anchor="start" x="306.5" y="-171" font-family="Helvetica,sans-Serif" font-size="10.00">wlp::static_string</text>
<text text-anchor="middle" x="344" y="-160" font-family="Helvetica,sans-Serif" font-size="10.00">::operator&lt;=</text>
</a>
</g>
</g>
<!-- Node11&#45;&gt;Node17 -->
<g id="edge16" class="edge"><title>Node11&#45;&gt;Node17</title>
<path fill="none" stroke="midnightblue" d="M249.657,-222.962C253.89,-221.072 258.051,-219.079 262,-217 279.237,-207.926 281.378,-202.156 298,-192 302.987,-188.953 308.393,-185.882 313.671,-183.002"/>
<polygon fill="midnightblue" stroke="midnightblue" points="248.162,-219.794 240.329,-226.928 250.901,-226.236 248.162,-219.794"/>
</g>
<!-- Node18 -->
<g id="node18" class="node"><title>Node18</title>
<g id="a_node18"><a xlink:href="../../d5/dca/namespacewlp.html#a28a9efb904021ac563b9d23aac1866a9" target="_top" xlink:title="wlp::operator==">
<polygon fill="white" stroke="black" points="301.5,-114.5 301.5,-133.5 386.5,-133.5 386.5,-114.5 301.5,-114.5"/>
<text text-anchor="middle" x="344" y="-121.5" font-family="Helvetica,sans-Serif" font-size="10.00">wlp::operator==</text>
</a>
</g>
</g>
<!-- Node11&#45;&gt;Node18 -->
<g id="edge17" class="edge"><title>Node11&#45;&gt;Node18</title>
<path fill="none" stroke="midnightblue" d="M249.818,-225.769C254.204,-223.241 258.347,-220.336 262,-217 289.008,-192.337 271.459,-168.164 298,-143 301.939,-139.266 306.72,-136.211 311.678,-133.73"/>
<polygon fill="midnightblue" stroke="midnightblue" points="247.901,-222.816 240.549,-230.445 251.054,-229.066 247.901,-222.816"/>
</g>
<!-- Node19 -->
<g id="node19" class="node"><title>Node19</title>
<g id="a_node19"><a xlink:href="../../d5/dca/namespacewlp.html#a6f47b3d92809e5f8a8e90a1a38a5090c" target="_top" xlink:title="wlp::operator!=">
<polygon fill="white" stroke="black" points="303,-76.5 303,-95.5 385,-95.5 385,-76.5 303,-76.5"/>
<text text-anchor="middle" x="344" y="-83.5" font-family="Helvetica,sans-Serif" font-size="10.00">wlp::operator!=</text>
</a>
</g>
</g>
<!-- Node11&#45;&gt;Node19 -->
<g id="edge18" class="edge"><title>Node11&#45;&gt;Node19</title>
<path fill="none" stroke="midnightblue" d="M249.612,-226.745C254.167,-224.009 258.4,-220.789 262,-217 298.015,-179.096 262.7,-143.571 298,-105 301.55,-101.121 306.019,-98.0069 310.755,-95.5141"/>
<polygon fill="midnightblue" stroke="midnightblue" points="247.817,-223.733 240.538,-231.432 251.029,-229.953 247.817,-223.733"/>
</g>
<!-- Node20 -->
<g id="node20" class="node"><title>Node20</title>
<g id="a_node20"><a xlink:href="../../d5/dca/namespacewlp.html#a224fe9e869a4e86c488d0e3284dfc524" target="_top" xlink:title="wlp::operator\&gt;">
<polygon fill="white" stroke="black" points="304.5,-38.5 304.5,-57.5 383.5,-57.5 383.5,-38.5 304.5,-38.5"/>
<text text-anchor="middle" x="344" y="-45.5" font-family="Helvetica,sans-Serif" font-size="10.00">wlp::operator&gt;</text>
</a>
</g>
</g>
<!-- Node11&#45;&gt;Node20 -->
<g id="edge19" class="edge"><title>Node11&#45;&gt;Node20</title>
<path fill="none" stroke="midnightblue" d="M249.723,-227.142C254.291,-224.326 258.496,-220.978 262,-217 307.317,-165.553 253.654,-119.286 298,-67 301.291,-63.1195 305.512,-60.0143 310.045,-57.5342"/>
<polygon fill="midnightblue" stroke="midnightblue" points="247.813,-224.191 240.577,-231.93 251.06,-230.393 247.813,-224.191"/>
</g>
<!-- Node21 -->
<g id="node21" class="node"><title>Node21</title>
<g id="a_node21"><a xlink:href="../../d5/dca/namespacewlp.html#a76b7381cbac186dab6cb624376182e3c" target="_top" xlink:title="wlp::operator\&gt;=">
<polygon fill="white" stroke="black" points="301.5,-0.5 301.5,-19.5 386.5,-19.5 386.5,-0.5 301.5,-0.5"/>
<text text-anchor="middle" x="344" y="-7.5" font-family="Helvetica,sans-Serif" font-size="10.00">wlp::operator&gt;=</text>
</a>
</g>
</g>
<!-- Node11&#45;&gt;Node21 -->
<g id="edge20" class="edge"><title>Node11&#45;&gt;Node21</title>
<path fill="none" stroke="midnightblue" d="M249.915,-227.308C254.446,-224.459 258.589,-221.058 262,-217 316.738,-151.875 244.49,-95.1381 298,-29 301.094,-25.1762 305.095,-22.1097 309.435,-19.6538"/>
<polygon fill="midnightblue" stroke="midnightblue" points="248.01,-224.357 240.816,-232.136 251.291,-230.541 248.01,-224.357"/>
</g>
</g>
</svg>
        <g id="navigator" transform="translate(0 0)" fill="#404254">
                <rect fill="#f2f5e9" fill-opacity="0.5" stroke="#606060" stroke-width=".5" x="0" y="0" width="60" height="60"/>
                <use id="zoomplus" xlink:href="#zoomPlus" x="17" y="9" onmousedown="handleZoom(evt,'in')"/>
                <use id="zoomminus" xlink:href="#zoomMin" x="42" y="9" onmousedown="handleZoom(evt,'out')"/>
                <use id="reset" xlink:href="#resetDef" x="30" y="36" onmousedown="handleReset()"/>
                <g id="arrowUp" xlink:href="#dirArrow" transform="translate(30 24)" onmousedown="handlePan(0,-1)">
                  <use xlink:href="#rim" fill="#404040">
                        <set attributeName="fill" to="#808080" begin="arrowUp.mouseover" end="arrowUp.mouseout"/>
                  </use>
                  <path fill="none" stroke="white" stroke-width="1.5" d="M0,-3.0v7 M-2.5,-0.5L0,-3.0L2.5,-0.5"/>
                </g>
                <g id="arrowRight" xlink:href="#dirArrow" transform="rotate(90) translate(36 -43)" onmousedown="handlePan(1,0)">
                  <use xlink:href="#rim" fill="#404040">
                        <set attributeName="fill" to="#808080" begin="arrowRight.mouseover" end="arrowRight.mouseout"/>
                  </use>
                  <path fill="none" stroke="white" stroke-width="1.5" d="M0,-3.0v7 M-2.5,-0.5L0,-3.0L2.5,-0.5"/>
                </g>
                <g id="arrowDown" xlink:href="#dirArrow" transform="rotate(180) translate(-30 -48)" onmousedown="handlePan(0,1)">
                  <use xlink:href="#rim" fill="#404040">
                        <set attributeName="fill" to="#808080" begin="arrowDown.mouseover" end="arrowDown.mouseout"/>
                  </use>
                  <path fill="none" stroke="white" stroke-width="1.5" d="M0,-3.0v7 M-2.5,-0.5L0,-3.0L2.5,-0.5"/>
                </g>
                <g id="arrowLeft" xlink:href="#dirArrow" transform="rotate(270) translate(-36 17)" onmousedown="handlePan(-1,0)">
                  <use xlink:href="#rim" fill="#404040">
                        <set attributeName="fill" to="#808080" begin="arrowLeft.mouseover" end="arrowLeft.mouseout"/>
                  </use>
                  <path fill="none" stroke="white" stroke-width="1.5" d="M0,-3.0v7 M-2.5,-0.5L0,-3.0L2.5,-0.5"/>
                </g>
        </g>
        <svg viewBox="0 0 15 15" width="100%" height="30px" preserveAspectRatio="xMaxYMin meet">
         <g id="arrow_out" transform="scale(0.3 0.3)">
          <a xlink:href="classwlp_1_1static__string_acee129ebfa86184c2da91f86fac25ca0_icgraph_org.svg" target="_base">
           <rect id="button" ry="5" rx="5" y="6" x="6" height="38" width="38"
                fill="#f2f5e9" fill-opacity="0.5" stroke="#606060" stroke-width="1.0"/>
           <path id="arrow"
             d="M 11.500037,31.436501 C 11.940474,20.09759 22.043105,11.32322 32.158766,21.979434 L 37.068811,17.246167 C 37.068811,17.246167 37.088388,32 37.088388,32 L 22.160133,31.978069 C 22.160133,31.978069 26.997745,27.140456 26.997745,27.140456 C 18.528582,18.264221 13.291696,25.230495 11.500037,31.436501 z"
             style="fill:#404040;"/>
          </a>
         </g>
        </svg>
</svg>
