<?xml version="1.0" encoding="UTF-8" standalone="no"?>
<!DOCTYPE svg PUBLIC "-//W3C//DTD SVG 1.1//EN"
 "http://www.w3.org/Graphics/SVG/1.1/DTD/svg11.dtd">
<!-- Generated by graphviz version 2.36.0 (20140111.2315)
 -->
<!-- Title: wlp::static_string::length Pages: 1 -->
<svg width="382pt" height="264pt"
 viewBox="0.00 0.00 382.00 264.00" xmlns="http://www.w3.org/2000/svg" xmlns:xlink="http://www.w3.org/1999/xlink">
<g id="graph0" class="graph" transform="scale(1 1) rotate(0) translate(4 260)">
<title>wlp::static_string::length</title>
<polygon fill="white" stroke="none" points="-4,4 -4,-260 378,-260 378,4 -4,4"/>
<!-- Node1 -->
<g id="node1" class="node"><title>Node1</title>
<polygon fill="#bfbfbf" stroke="black" points="0.5,-101 0.5,-131 91.5,-131 91.5,-101 0.5,-101"/>
<text text-anchor="start" x="8.5" y="-119" font-family="Helvetica,sans-Serif" font-size="10.00">wlp::static_string</text>
<text text-anchor="middle" x="46" y="-108" font-family="Helvetica,sans-Serif" font-size="10.00">::length</text>
</g>
<!-- Node2 -->
<g id="node2" class="node"><title>Node2</title>
<g id="a_node2"><a xlink:href="../../d7/d08/classwlp_1_1static__string.html#abfc22b62edf0a28ec49c7e99b63346e3" target="_top" xlink:title="wlp::static_string\l::append">
<polygon fill="white" stroke="black" points="141.5,-202 141.5,-232 232.5,-232 232.5,-202 141.5,-202"/>
<text text-anchor="start" x="149.5" y="-220" font-family="Helvetica,sans-Serif" font-size="10.00">wlp::static_string</text>
<text text-anchor="middle" x="187" y="-209" font-family="Helvetica,sans-Serif" font-size="10.00">::append</text>
</a>
</g>
</g>
<!-- Node1&#45;&gt;Node2 -->
<g id="edge1" class="edge"><title>Node1&#45;&gt;Node2</title>
<path fill="none" stroke="midnightblue" d="M67.0449,-138.633C82.4753,-155.045 104.994,-176.918 128,-192 133.594,-195.667 139.815,-199.006 146.047,-201.965"/>
<polygon fill="midnightblue" stroke="midnightblue" points="69.4209,-136.046 60.0684,-131.068 64.2751,-140.792 69.4209,-136.046"/>
</g>
<!-- Node5 -->
<g id="node5" class="node"><title>Node5</title>
<g id="a_node5"><a xlink:href="../../d5/dca/namespacewlp.html#a802753869a0f3cdcd08c0857d34ac157" target="_top" xlink:title="wlp::hash_static_string">
<polygon fill="white" stroke="black" points="128.5,-163.5 128.5,-182.5 245.5,-182.5 245.5,-163.5 128.5,-163.5"/>
<text text-anchor="middle" x="187" y="-170.5" font-family="Helvetica,sans-Serif" font-size="10.00">wlp::hash_static_string</text>
</a>
</g>
</g>
<!-- Node1&#45;&gt;Node5 -->
<g id="edge4" class="edge"><title>Node1&#45;&gt;Node5</title>
<path fill="none" stroke="midnightblue" d="M86.2271,-135.581C99.3578,-141.818 114.174,-148.516 128,-154 136.471,-157.36 145.795,-160.606 154.445,-163.437"/>
<polygon fill="midnightblue" stroke="midnightblue" points="87.531,-132.324 77.002,-131.145 84.4975,-138.633 87.531,-132.324"/>
</g>
<!-- Node6 -->
<g id="node6" class="node"><title>Node6</title>
<g id="a_node6"><a xlink:href="../../d5/dca/namespacewlp.html#a843ddc0c0aa7208e4f02bdb21f55de5d" target="_top" xlink:title="wlp::operator!=">
<polygon fill="white" stroke="black" points="146,-125.5 146,-144.5 228,-144.5 228,-125.5 146,-125.5"/>
<text text-anchor="middle" x="187" y="-132.5" font-family="Helvetica,sans-Serif" font-size="10.00">wlp::operator!=</text>
</a>
</g>
</g>
<!-- Node1&#45;&gt;Node6 -->
<g id="edge5" class="edge"><title>Node1&#45;&gt;Node6</title>
<path fill="none" stroke="midnightblue" d="M101.692,-123.476C116.32,-125.475 131.865,-127.6 145.571,-129.474"/>
<polygon fill="midnightblue" stroke="midnightblue" points="102.128,-120.003 91.7456,-122.116 101.179,-126.938 102.128,-120.003"/>
</g>
<!-- Node7 -->
<g id="node7" class="node"><title>Node7</title>
<g id="a_node7"><a xlink:href="../../d5/dca/namespacewlp.html#a50f7a7bc87a2e8e8df9291ddde1f645c" target="_top" xlink:title="wlp::operator+">
<polygon fill="white" stroke="black" points="147.5,-87.5 147.5,-106.5 226.5,-106.5 226.5,-87.5 147.5,-87.5"/>
<text text-anchor="middle" x="187" y="-94.5" font-family="Helvetica,sans-Serif" font-size="10.00">wlp::operator+</text>
</a>
</g>
</g>
<!-- Node1&#45;&gt;Node7 -->
<g id="edge6" class="edge"><title>Node1&#45;&gt;Node7</title>
<path fill="none" stroke="midnightblue" d="M102.064,-108.473C117.244,-106.398 133.386,-104.192 147.416,-102.274"/>
<polygon fill="midnightblue" stroke="midnightblue" points="101.179,-105.062 91.7456,-109.884 102.127,-111.997 101.179,-105.062"/>
</g>
<!-- Node8 -->
<g id="node8" class="node"><title>Node8</title>
<g id="a_node8"><a xlink:href="../../d5/dca/namespacewlp.html#a6faddcfc9f1f95e39d296f2bd9968eef" target="_top" xlink:title="wlp::operator==">
<polygon fill="white" stroke="black" points="144.5,-49.5 144.5,-68.5 229.5,-68.5 229.5,-49.5 144.5,-49.5"/>
<text text-anchor="middle" x="187" y="-56.5" font-family="Helvetica,sans-Serif" font-size="10.00">wlp::operator==</text>
</a>
</g>
</g>
<!-- Node1&#45;&gt;Node8 -->
<g id="edge7" class="edge"><title>Node1&#45;&gt;Node8</title>
<path fill="none" stroke="midnightblue" d="M86.2271,-96.4191C99.3578,-90.1823 114.174,-83.4841 128,-78 136.471,-74.6402 145.795,-71.3935 154.445,-68.5632"/>
<polygon fill="midnightblue" stroke="midnightblue" points="84.4975,-93.3671 77.002,-100.855 87.531,-99.6757 84.4975,-93.3671"/>
</g>
<!-- Node9 -->
<g id="node9" class="node"><title>Node9</title>
<g id="a_node9"><a xlink:href="../../d7/d08/classwlp_1_1static__string.html#abec30fd07da1de72e048d0e260169ed5" target="_top" xlink:title="wlp::static_string\l::substr">
<polygon fill="white" stroke="black" points="141.5,-0 141.5,-30 232.5,-30 232.5,-0 141.5,-0"/>
<text text-anchor="start" x="149.5" y="-18" font-family="Helvetica,sans-Serif" font-size="10.00">wlp::static_string</text>
<text text-anchor="middle" x="187" y="-7" font-family="Helvetica,sans-Serif" font-size="10.00">::substr</text>
</a>
</g>
</g>
<!-- Node1&#45;&gt;Node9 -->
<g id="edge8" class="edge"><title>Node1&#45;&gt;Node9</title>
<path fill="none" stroke="midnightblue" d="M67.0449,-93.3673C82.4753,-76.955 104.994,-55.0817 128,-40 133.594,-36.333 139.815,-32.994 146.047,-30.0351"/>
<polygon fill="midnightblue" stroke="midnightblue" points="64.2751,-91.208 60.0684,-100.932 69.4209,-95.9537 64.2751,-91.208"/>
</g>
<!-- Node3 -->
<g id="node3" class="node"><title>Node3</title>
<g id="a_node3"><a xlink:href="../../d7/d08/classwlp_1_1static__string.html#ac63b01cc15d6cd789c72b8ad0cf4b573" target="_top" xlink:title="wlp::static_string\l::append">
<polygon fill="white" stroke="black" points="282.5,-226 282.5,-256 373.5,-256 373.5,-226 282.5,-226"/>
<text text-anchor="start" x="290.5" y="-244" font-family="Helvetica,sans-Serif" font-size="10.00">wlp::static_string</text>
<text text-anchor="middle" x="328" y="-233" font-family="Helvetica,sans-Serif" font-size="10.00">::append</text>
</a>
</g>
</g>
<!-- Node2&#45;&gt;Node3 -->
<g id="edge2" class="edge"><title>Node2&#45;&gt;Node3</title>
<path fill="none" stroke="midnightblue" d="M242.63,-226.433C255.79,-228.705 269.695,-231.106 282.338,-233.289"/>
<polygon fill="midnightblue" stroke="midnightblue" points="243.195,-222.978 232.746,-224.726 242.004,-229.876 243.195,-222.978"/>
</g>
<!-- Node4 -->
<g id="node4" class="node"><title>Node4</title>
<g id="a_node4"><a xlink:href="../../d7/d08/classwlp_1_1static__string.html#ab9c41e2861482173d8a0752934754d07" target="_top" xlink:title="wlp::static_string\l::operator+=">
<polygon fill="white" stroke="black" points="282.5,-177 282.5,-207 373.5,-207 373.5,-177 282.5,-177"/>
<text text-anchor="start" x="290.5" y="-195" font-family="Helvetica,sans-Serif" font-size="10.00">wlp::static_string</text>
<text text-anchor="middle" x="328" y="-184" font-family="Helvetica,sans-Serif" font-size="10.00">::operator+=</text>
</a>
</g>
</g>
<!-- Node2&#45;&gt;Node4 -->
<g id="edge3" class="edge"><title>Node2&#45;&gt;Node4</title>
<path fill="none" stroke="midnightblue" d="M242.63,-207.174C255.79,-204.808 269.695,-202.307 282.338,-200.033"/>
<polygon fill="midnightblue" stroke="midnightblue" points="241.968,-203.737 232.746,-208.952 243.207,-210.627 241.968,-203.737"/>
</g>
</g>
</svg>
