<?xml version="1.0" encoding="UTF-8" standalone="no"?>
<!DOCTYPE svg PUBLIC "-//W3C//DTD SVG 1.1//EN"
 "http://www.w3.org/Graphics/SVG/1.1/DTD/svg11.dtd">
<!-- Generated by graphviz version 2.36.0 (20140111.2315)
 -->
<!-- Title: wlp::static_string::operator+= Pages: 1 -->
<svg width="356pt" height="87pt"
 viewBox="0.00 0.00 356.00 87.00" xmlns="http://www.w3.org/2000/svg" xmlns:xlink="http://www.w3.org/1999/xlink">
<g id="graph0" class="graph" transform="scale(1 1) rotate(0) translate(4 83)">
<title>wlp::static_string::operator+=</title>
<polygon fill="white" stroke="none" points="-4,4 -4,-83 352,-83 352,4 -4,4"/>
<!-- Node1 -->
<g id="node1" class="node"><title>Node1</title>
<polygon fill="#bfbfbf" stroke="black" points="0.5,-24 0.5,-54 91.5,-54 91.5,-24 0.5,-24"/>
<text text-anchor="start" x="8.5" y="-42" font-family="Helvetica,sans-Serif" font-size="10.00">wlp::static_string</text>
<text text-anchor="middle" x="46" y="-31" font-family="Helvetica,sans-Serif" font-size="10.00">::operator+=</text>
</g>
<!-- Node2 -->
<g id="node2" class="node"><title>Node2</title>
<g id="a_node2"><a xlink:href="../../d7/d08/classwlp_1_1static__string.html#abfc22b62edf0a28ec49c7e99b63346e3" target="_top" xlink:title="wlp::static_string\l::append">
<polygon fill="white" stroke="black" points="128.5,-24 128.5,-54 219.5,-54 219.5,-24 128.5,-24"/>
<text text-anchor="start" x="136.5" y="-42" font-family="Helvetica,sans-Serif" font-size="10.00">wlp::static_string</text>
<text text-anchor="middle" x="174" y="-31" font-family="Helvetica,sans-Serif" font-size="10.00">::append</text>
</a>
</g>
</g>
<!-- Node1&#45;&gt;Node2 -->
<g id="edge1" class="edge"><title>Node1&#45;&gt;Node2</title>
<path fill="none" stroke="midnightblue" d="M91.7777,-39C100.319,-39 109.349,-39 118.162,-39"/>
<polygon fill="midnightblue" stroke="midnightblue" points="118.367,-42.5001 128.367,-39 118.366,-35.5001 118.367,-42.5001"/>
</g>
<!-- Node3 -->
<g id="node3" class="node"><title>Node3</title>
<g id="a_node3"><a xlink:href="../../d7/d08/classwlp_1_1static__string.html#acee129ebfa86184c2da91f86fac25ca0" target="_top" xlink:title="wlp::static_string\l::c_str">
<polygon fill="white" stroke="black" points="256.5,-49 256.5,-79 347.5,-79 347.5,-49 256.5,-49"/>
<text text-anchor="start" x="264.5" y="-67" font-family="Helvetica,sans-Serif" font-size="10.00">wlp::static_string</text>
<text text-anchor="middle" x="302" y="-56" font-family="Helvetica,sans-Serif" font-size="10.00">::c_str</text>
</a>
</g>
</g>
<!-- Node2&#45;&gt;Node3 -->
<g id="edge2" class="edge"><title>Node2&#45;&gt;Node3</title>
<path fill="none" stroke="midnightblue" d="M219.778,-47.8845C228.412,-49.5976 237.545,-51.4098 246.45,-53.1765"/>
<polygon fill="midnightblue" stroke="midnightblue" points="245.877,-56.631 256.367,-55.1442 247.239,-49.7648 245.877,-56.631"/>
</g>
<!-- Node4 -->
<g id="node4" class="node"><title>Node4</title>
<g id="a_node4"><a xlink:href="../../d7/d08/classwlp_1_1static__string.html#a56507a4939d6663a947a227503c40214" target="_top" xlink:title="wlp::static_string\l::length">
<polygon fill="white" stroke="black" points="256.5,-0 256.5,-30 347.5,-30 347.5,-0 256.5,-0"/>
<text text-anchor="start" x="264.5" y="-18" font-family="Helvetica,sans-Serif" font-size="10.00">wlp::static_string</text>
<text text-anchor="middle" x="302" y="-7" font-family="Helvetica,sans-Serif" font-size="10.00">::length</text>
</a>
</g>
</g>
<!-- Node2&#45;&gt;Node4 -->
<g id="edge3" class="edge"><title>Node2&#45;&gt;Node4</title>
<path fill="none" stroke="midnightblue" d="M219.778,-30.4709C228.412,-28.8263 237.545,-27.0866 246.45,-25.3906"/>
<polygon fill="midnightblue" stroke="midnightblue" points="247.198,-28.811 256.367,-23.5016 245.888,-21.9346 247.198,-28.811"/>
</g>
</g>
</svg>
