<?xml version="1.0" encoding="UTF-8" standalone="no"?>
<!DOCTYPE svg PUBLIC "-//W3C//DTD SVG 1.1//EN"
 "http://www.w3.org/Graphics/SVG/1.1/DTD/svg11.dtd">
<!-- Generated by graphviz version 2.38.0 (20140413.2041)
 -->
<!-- Title: B1 Pages: 1 -->
<svg width="310pt" height="84pt"
 viewBox="0.00 0.00 310.00 84.00" xmlns="http://www.w3.org/2000/svg" xmlns:xlink="http://www.w3.org/1999/xlink">
<g id="graph0" class="graph" transform="scale(1 1) rotate(0) translate(4 80)">
<title>B1</title>
<polygon fill="white" stroke="none" points="-4,4 -4,-80 306,-80 306,4 -4,4"/>
<!-- Node0 -->
<g id="node1" class="node"><title>Node0</title>
<polygon fill="#bfbfbf" stroke="black" points="131.5,-56.5 131.5,-75.5 160.5,-75.5 160.5,-56.5 131.5,-56.5"/>
<text text-anchor="middle" x="146" y="-63.5" font-family="Helvetica,sans-Serif" font-size="10.00">B1</text>
</g>
<!-- Node1 -->
<g id="node2" class="node"><title>Node1</title>
<g id="a_node2"><a xlink:href="../../df/d32/structwlp_1_1and___3_01_b1_01_4.html" target="_top" xlink:title="wlp::and_\&lt; B1 \&gt;">
<polygon fill="white" stroke="black" points="0,-0.5 0,-19.5 88,-19.5 88,-0.5 0,-0.5"/>
<text text-anchor="middle" x="44" y="-7.5" font-family="Helvetica,sans-Serif" font-size="10.00">wlp::and_&lt; B1 &gt;</text>
</a>
</g>
</g>
<!-- Node0&#45;&gt;Node1 -->
<g id="edge1" class="edge"><title>Node0&#45;&gt;Node1</title>
<path fill="none" stroke="midnightblue" d="M122.432,-52.5229C103.378,-42.4354 77.0508,-28.4975 60.2732,-19.6152"/>
<polygon fill="midnightblue" stroke="midnightblue" points="120.91,-55.6774 131.386,-57.2631 124.186,-49.4909 120.91,-55.6774"/>
</g>
<!-- Node2 -->
<g id="node3" class="node"><title>Node2</title>
<g id="a_node3"><a xlink:href="../../d1/d2b/structwlp_1_1or___3_01_b1_01_4.html" target="_top" xlink:title="wlp::or_\&lt; B1 \&gt;">
<polygon fill="white" stroke="black" points="106,-0.5 106,-19.5 186,-19.5 186,-0.5 106,-0.5"/>
<text text-anchor="middle" x="146" y="-7.5" font-family="Helvetica,sans-Serif" font-size="10.00">wlp::or_&lt; B1 &gt;</text>
</a>
</g>
</g>
<!-- Node0&#45;&gt;Node2 -->
<g id="edge2" class="edge"><title>Node0&#45;&gt;Node2</title>
<path fill="none" stroke="midnightblue" d="M146,-45.8045C146,-36.9102 146,-26.7798 146,-19.7511"/>
<polygon fill="midnightblue" stroke="midnightblue" points="142.5,-46.083 146,-56.083 149.5,-46.083 142.5,-46.083"/>
</g>
<!-- Node3 -->
<g id="node4" class="node"><title>Node3</title>
<g id="a_node4"><a xlink:href="../../d8/d7b/structwlp_1_1or___3_01_b1_00_01_b2_01_4.html" target="_top" xlink:title="wlp::or_\&lt; B1, B2 \&gt;">
<polygon fill="white" stroke="black" points="204,-0.5 204,-19.5 302,-19.5 302,-0.5 204,-0.5"/>
<text text-anchor="middle" x="253" y="-7.5" font-family="Helvetica,sans-Serif" font-size="10.00">wlp::or_&lt; B1, B2 &gt;</text>
</a>
</g>
</g>
<!-- Node0&#45;&gt;Node3 -->
<g id="edge3" class="edge"><title>Node0&#45;&gt;Node3</title>
<path fill="none" stroke="midnightblue" d="M170.023,-52.8764C190.139,-42.7242 218.339,-28.4927 236.134,-19.5118"/>
<polygon fill="midnightblue" stroke="midnightblue" points="168.228,-49.8614 160.878,-57.4915 171.382,-56.1106 168.228,-49.8614"/>
</g>
</g>
</svg>
