<?xml version="1.0" encoding="UTF-8" standalone="no"?>
<!DOCTYPE svg PUBLIC "-//W3C//DTD SVG 1.1//EN"
 "http://www.w3.org/Graphics/SVG/1.1/DTD/svg11.dtd">
<!-- Generated by graphviz version 2.36.0 (20140111.2315)
 -->
<!-- Title: wlib/stl/Equal.h Pages: 1 -->
<svg width="719pt" height="196pt"
 viewBox="0.00 0.00 719.00 196.00" xmlns="http://www.w3.org/2000/svg" xmlns:xlink="http://www.w3.org/1999/xlink">
<g id="graph0" class="graph" transform="scale(1 1) rotate(0) translate(4 192)">
<title>wlib/stl/Equal.h</title>
<polygon fill="white" stroke="none" points="-4,4 -4,-192 715,-192 715,4 -4,4"/>
<!-- Node1 -->
<g id="node1" class="node"><title>Node1</title>
<polygon fill="#bfbfbf" stroke="black" points="421.5,-168.5 421.5,-187.5 504.5,-187.5 504.5,-168.5 421.5,-168.5"/>
<text text-anchor="middle" x="463" y="-175.5" font-family="Helvetica,sans-Serif" font-size="10.00">wlib/stl/Equal.h</text>
</g>
<!-- Node2 -->
<g id="node2" class="node"><title>Node2</title>
<g id="a_node2"><a xlink:href="../../d7/d0c/_comparator_8h.html" target="_top" xlink:title="Comparator implementation for basic types. ">
<polygon fill="white" stroke="black" points="128,-112.5 128,-131.5 238,-131.5 238,-112.5 128,-112.5"/>
<text text-anchor="middle" x="183" y="-119.5" font-family="Helvetica,sans-Serif" font-size="10.00">wlib/stl/Comparator.h</text>
</a>
</g>
</g>
<!-- Node1&#45;&gt;Node2 -->
<g id="edge1" class="edge"><title>Node1&#45;&gt;Node2</title>
<path fill="none" stroke="midnightblue" d="M411.532,-167.074C358.653,-156.876 277.198,-141.167 227.158,-131.516"/>
<polygon fill="midnightblue" stroke="midnightblue" points="410.902,-170.517 421.384,-168.974 412.227,-163.644 410.902,-170.517"/>
</g>
<!-- Node7 -->
<g id="node7" class="node"><title>Node7</title>
<g id="a_node7"><a xlink:href="../../dd/d0b/_hash_map_8h.html" target="_top" xlink:title="wlib/stl/HashMap.h">
<polygon fill="white" stroke="black" points="261.5,-56.5 261.5,-75.5 362.5,-75.5 362.5,-56.5 261.5,-56.5"/>
<text text-anchor="middle" x="312" y="-63.5" font-family="Helvetica,sans-Serif" font-size="10.00">wlib/stl/HashMap.h</text>
</a>
</g>
</g>
<!-- Node1&#45;&gt;Node7 -->
<g id="edge6" class="edge"><title>Node1&#45;&gt;Node7</title>
<path fill="none" stroke="midnightblue" d="M411.002,-174.239C379.86,-169.706 342.14,-158.598 320,-132 306.616,-115.921 308.339,-89.3765 310.366,-75.717"/>
<polygon fill="midnightblue" stroke="midnightblue" points="410.92,-177.757 421.279,-175.538 411.797,-170.812 410.92,-177.757"/>
</g>
<!-- Node8 -->
<g id="node8" class="node"><title>Node8</title>
<g id="a_node8"><a xlink:href="../../d2/dfc/_hash_set_8h.html" target="_top" xlink:title="wlib/stl/HashSet.h">
<polygon fill="white" stroke="black" points="380.5,-56.5 380.5,-75.5 477.5,-75.5 477.5,-56.5 380.5,-56.5"/>
<text text-anchor="middle" x="429" y="-63.5" font-family="Helvetica,sans-Serif" font-size="10.00">wlib/stl/HashSet.h</text>
</a>
</g>
</g>
<!-- Node1&#45;&gt;Node8 -->
<g id="edge7" class="edge"><title>Node1&#45;&gt;Node8</title>
<path fill="none" stroke="midnightblue" d="M457.331,-158.521C453.335,-145.51 447.853,-127.685 443,-112 439.082,-99.3376 434.517,-84.6807 431.692,-75.6243"/>
<polygon fill="midnightblue" stroke="midnightblue" points="454.011,-159.633 460.291,-168.166 460.703,-157.579 454.011,-159.633"/>
</g>
<!-- Node9 -->
<g id="node9" class="node"><title>Node9</title>
<g id="a_node9"><a xlink:href="../../de/def/_hash_table_8h.html" target="_top" xlink:title="wlib/stl/HashTable.h">
<polygon fill="white" stroke="black" points="329,-112.5 329,-131.5 435,-131.5 435,-112.5 329,-112.5"/>
<text text-anchor="middle" x="382" y="-119.5" font-family="Helvetica,sans-Serif" font-size="10.00">wlib/stl/HashTable.h</text>
</a>
</g>
</g>
<!-- Node1&#45;&gt;Node9 -->
<g id="edge8" class="edge"><title>Node1&#45;&gt;Node9</title>
<path fill="none" stroke="midnightblue" d="M441.433,-162.622C426.636,-152.757 407.488,-139.992 394.982,-131.655"/>
<polygon fill="midnightblue" stroke="midnightblue" points="439.724,-165.689 449.986,-168.324 443.607,-159.865 439.724,-165.689"/>
</g>
<!-- Node10 -->
<g id="node10" class="node"><title>Node10</title>
<g id="a_node10"><a xlink:href="../../d5/d7a/_open_map_8h.html" target="_top" xlink:title="Hash map implementation. ">
<polygon fill="white" stroke="black" points="495.5,-56.5 495.5,-75.5 596.5,-75.5 596.5,-56.5 495.5,-56.5"/>
<text text-anchor="middle" x="546" y="-63.5" font-family="Helvetica,sans-Serif" font-size="10.00">wlib/stl/OpenMap.h</text>
</a>
</g>
</g>
<!-- Node1&#45;&gt;Node10 -->
<g id="edge11" class="edge"><title>Node1&#45;&gt;Node10</title>
<path fill="none" stroke="midnightblue" d="M475.622,-160.272C493.563,-136.494 525.787,-93.7889 539.517,-75.5914"/>
<polygon fill="midnightblue" stroke="midnightblue" points="472.742,-158.278 469.513,-168.368 478.33,-162.494 472.742,-158.278"/>
</g>
<!-- Node11 -->
<g id="node11" class="node"><title>Node11</title>
<g id="a_node11"><a xlink:href="../../d0/de6/_open_set_8h.html" target="_top" xlink:title="Hash set implementation. ">
<polygon fill="white" stroke="black" points="614.5,-56.5 614.5,-75.5 711.5,-75.5 711.5,-56.5 614.5,-56.5"/>
<text text-anchor="middle" x="663" y="-63.5" font-family="Helvetica,sans-Serif" font-size="10.00">wlib/stl/OpenSet.h</text>
</a>
</g>
</g>
<!-- Node1&#45;&gt;Node11 -->
<g id="edge12" class="edge"><title>Node1&#45;&gt;Node11</title>
<path fill="none" stroke="midnightblue" d="M514.72,-169.817C561.12,-162.376 624.65,-149.393 643,-132 658.939,-116.892 662.274,-89.425 662.907,-75.5333"/>
<polygon fill="midnightblue" stroke="midnightblue" points="514.148,-166.364 504.808,-171.366 515.228,-173.281 514.148,-166.364"/>
</g>
<!-- Node12 -->
<g id="node12" class="node"><title>Node12</title>
<g id="a_node12"><a xlink:href="../../d8/d2e/_open_table_8h.html" target="_top" xlink:title="wlib/stl/OpenTable.h">
<polygon fill="white" stroke="black" points="529,-112.5 529,-131.5 635,-131.5 635,-112.5 529,-112.5"/>
<text text-anchor="middle" x="582" y="-119.5" font-family="Helvetica,sans-Serif" font-size="10.00">wlib/stl/OpenTable.h</text>
</a>
</g>
</g>
<!-- Node1&#45;&gt;Node12 -->
<g id="edge13" class="edge"><title>Node1&#45;&gt;Node12</title>
<path fill="none" stroke="midnightblue" d="M491.137,-164.232C513.396,-154.131 543.856,-140.309 563.232,-131.516"/>
<polygon fill="midnightblue" stroke="midnightblue" points="489.516,-161.124 481.856,-168.444 492.409,-167.498 489.516,-161.124"/>
</g>
<!-- Node3 -->
<g id="node3" class="node"><title>Node3</title>
<g id="a_node3"><a xlink:href="../../df/d03/_array_heap_8h.html" target="_top" xlink:title="Heap manipulation and implementation. ">
<polygon fill="white" stroke="black" points="-0.5,-56.5 -0.5,-75.5 104.5,-75.5 104.5,-56.5 -0.5,-56.5"/>
<text text-anchor="middle" x="52" y="-63.5" font-family="Helvetica,sans-Serif" font-size="10.00">wlib/stl/ArrayHeap.h</text>
</a>
</g>
</g>
<!-- Node2&#45;&gt;Node3 -->
<g id="edge2" class="edge"><title>Node2&#45;&gt;Node3</title>
<path fill="none" stroke="midnightblue" d="M152.683,-108.503C128.124,-98.3795 94.182,-84.388 72.6602,-75.5164"/>
<polygon fill="midnightblue" stroke="midnightblue" points="151.663,-111.868 162.243,-112.444 154.331,-105.397 151.663,-111.868"/>
</g>
<!-- Node4 -->
<g id="node4" class="node"><title>Node4</title>
<g id="a_node4"><a xlink:href="../../d5/d08/_red_black_tree_8h.html" target="_top" xlink:title="Red black tree implementation. ">
<polygon fill="white" stroke="black" points="122.5,-56.5 122.5,-75.5 243.5,-75.5 243.5,-56.5 122.5,-56.5"/>
<text text-anchor="middle" x="183" y="-63.5" font-family="Helvetica,sans-Serif" font-size="10.00">wlib/stl/RedBlackTree.h</text>
</a>
</g>
</g>
<!-- Node2&#45;&gt;Node4 -->
<g id="edge3" class="edge"><title>Node2&#45;&gt;Node4</title>
<path fill="none" stroke="midnightblue" d="M183,-101.805C183,-92.9102 183,-82.7798 183,-75.7511"/>
<polygon fill="midnightblue" stroke="midnightblue" points="179.5,-102.083 183,-112.083 186.5,-102.083 179.5,-102.083"/>
</g>
<!-- Node5 -->
<g id="node5" class="node"><title>Node5</title>
<g id="a_node5"><a xlink:href="../../df/d87/_tree_map_8h.html" target="_top" xlink:title="Map implementation using red black tree. ">
<polygon fill="white" stroke="black" points="77.5,-0.5 77.5,-19.5 174.5,-19.5 174.5,-0.5 77.5,-0.5"/>
<text text-anchor="middle" x="126" y="-7.5" font-family="Helvetica,sans-Serif" font-size="10.00">wlib/stl/TreeMap.h</text>
</a>
</g>
</g>
<!-- Node4&#45;&gt;Node5 -->
<g id="edge4" class="edge"><title>Node4&#45;&gt;Node5</title>
<path fill="none" stroke="midnightblue" d="M166.379,-49.2533C156.266,-39.6731 143.723,-27.7906 135.325,-19.8339"/>
<polygon fill="midnightblue" stroke="midnightblue" points="164.175,-51.9873 173.842,-56.324 168.99,-46.9056 164.175,-51.9873"/>
</g>
<!-- Node6 -->
<g id="node6" class="node"><title>Node6</title>
<g id="a_node6"><a xlink:href="../../dd/dba/_tree_set_8h.html" target="_top" xlink:title="Set implementation using red black tree. ">
<polygon fill="white" stroke="black" points="192.5,-0.5 192.5,-19.5 285.5,-19.5 285.5,-0.5 192.5,-0.5"/>
<text text-anchor="middle" x="239" y="-7.5" font-family="Helvetica,sans-Serif" font-size="10.00">wlib/stl/TreeSet.h</text>
</a>
</g>
</g>
<!-- Node4&#45;&gt;Node6 -->
<g id="edge5" class="edge"><title>Node4&#45;&gt;Node6</title>
<path fill="none" stroke="midnightblue" d="M199.33,-49.2533C209.265,-39.6731 221.588,-27.7906 229.839,-19.8339"/>
<polygon fill="midnightblue" stroke="midnightblue" points="196.766,-46.8631 191.997,-56.324 201.625,-51.902 196.766,-46.8631"/>
</g>
<!-- Node9&#45;&gt;Node7 -->
<g id="edge9" class="edge"><title>Node9&#45;&gt;Node7</title>
<path fill="none" stroke="midnightblue" d="M362.686,-106.101C350.088,-96.3824 334.072,-84.0269 323.451,-75.8339"/>
<polygon fill="midnightblue" stroke="midnightblue" points="360.698,-108.987 370.753,-112.324 364.973,-103.445 360.698,-108.987"/>
</g>
<!-- Node9&#45;&gt;Node8 -->
<g id="edge10" class="edge"><title>Node9&#45;&gt;Node8</title>
<path fill="none" stroke="midnightblue" d="M396.421,-104.431C404.658,-94.9673 414.654,-83.4827 421.383,-75.7511"/>
<polygon fill="midnightblue" stroke="midnightblue" points="393.686,-102.242 389.761,-112.083 398.966,-106.838 393.686,-102.242"/>
</g>
<!-- Node12&#45;&gt;Node10 -->
<g id="edge14" class="edge"><title>Node12&#45;&gt;Node10</title>
<path fill="none" stroke="midnightblue" d="M570.377,-103.566C564.183,-94.2747 556.832,-83.2484 551.834,-75.7511"/>
<polygon fill="midnightblue" stroke="midnightblue" points="567.596,-105.704 576.055,-112.083 573.42,-101.821 567.596,-105.704"/>
</g>
<!-- Node12&#45;&gt;Node11 -->
<g id="edge15" class="edge"><title>Node12&#45;&gt;Node11</title>
<path fill="none" stroke="midnightblue" d="M603.567,-106.622C618.364,-96.7574 637.512,-83.9919 650.018,-75.6545"/>
<polygon fill="midnightblue" stroke="midnightblue" points="601.393,-103.865 595.014,-112.324 605.276,-109.689 601.393,-103.865"/>
</g>
</g>
</svg>
