<?xml version="1.0" encoding="UTF-8" standalone="no"?>
<!DOCTYPE svg PUBLIC "-//W3C//DTD SVG 1.1//EN"
 "http://www.w3.org/Graphics/SVG/1.1/DTD/svg11.dtd">
<!-- Generated by graphviz version 2.38.0 (20140413.2041)
 -->
<!-- Title: stl/Equal.h Pages: 1 -->
<svg width="436pt" height="196pt"
 viewBox="0.00 0.00 435.50 196.00" xmlns="http://www.w3.org/2000/svg" xmlns:xlink="http://www.w3.org/1999/xlink">
<g id="graph0" class="graph" transform="scale(1 1) rotate(0) translate(4 192)">
<title>stl/Equal.h</title>
<polygon fill="white" stroke="none" points="-4,4 -4,-192 431.5,-192 431.5,4 -4,4"/>
<!-- Node13 -->
<g id="node1" class="node"><title>Node13</title>
<polygon fill="#bfbfbf" stroke="black" points="273.5,-168.5 273.5,-187.5 336.5,-187.5 336.5,-168.5 273.5,-168.5"/>
<text text-anchor="middle" x="305" y="-175.5" font-family="Helvetica,sans-Serif" font-size="10.00">stl/Equal.h</text>
</g>
<!-- Node14 -->
<g id="node2" class="node"><title>Node14</title>
<g id="a_node2"><a xlink:href="../../d7/d0c/_comparator_8h.html" target="_top" xlink:title="Comparator implementation for basic types. ">
<polygon fill="white" stroke="black" points="107.5,-112.5 107.5,-131.5 196.5,-131.5 196.5,-112.5 107.5,-112.5"/>
<text text-anchor="middle" x="152" y="-119.5" font-family="Helvetica,sans-Serif" font-size="10.00">stl/Comparator.h</text>
</a>
</g>
</g>
<!-- Node13&#45;&gt;Node14 -->
<g id="edge1" class="edge"><title>Node13&#45;&gt;Node14</title>
<path fill="none" stroke="midnightblue" d="M271.111,-165.039C242.323,-154.879 201.713,-140.546 176.13,-131.516"/>
<polygon fill="midnightblue" stroke="midnightblue" points="270.162,-168.416 280.757,-168.444 272.492,-161.815 270.162,-168.416"/>
</g>
<!-- Node19 -->
<g id="node7" class="node"><title>Node19</title>
<g id="a_node7"><a xlink:href="../../d3/dbe/_chain_map_8h.html" target="_top" xlink:title="Hasher map implementation. ">
<polygon fill="white" stroke="black" points="215,-112.5 215,-131.5 297,-131.5 297,-112.5 215,-112.5"/>
<text text-anchor="middle" x="256" y="-119.5" font-family="Helvetica,sans-Serif" font-size="10.00">stl/ChainMap.h</text>
</a>
</g>
</g>
<!-- Node13&#45;&gt;Node19 -->
<g id="edge6" class="edge"><title>Node13&#45;&gt;Node19</title>
<path fill="none" stroke="midnightblue" d="M289.966,-160.431C281.378,-150.967 270.957,-139.483 263.941,-131.751"/>
<polygon fill="midnightblue" stroke="midnightblue" points="287.597,-163.029 296.909,-168.083 292.781,-158.325 287.597,-163.029"/>
</g>
<!-- Node21 -->
<g id="node9" class="node"><title>Node21</title>
<g id="a_node9"><a xlink:href="../../d5/d7a/_open_map_8h.html" target="_top" xlink:title="Hash map implementation. ">
<polygon fill="white" stroke="black" points="315,-112.5 315,-131.5 395,-131.5 395,-112.5 315,-112.5"/>
<text text-anchor="middle" x="355" y="-119.5" font-family="Helvetica,sans-Serif" font-size="10.00">stl/OpenMap.h</text>
</a>
</g>
</g>
<!-- Node13&#45;&gt;Node21 -->
<g id="edge8" class="edge"><title>Node13&#45;&gt;Node21</title>
<path fill="none" stroke="midnightblue" d="M320.076,-160.718C328.889,-151.2 339.666,-139.561 346.897,-131.751"/>
<polygon fill="midnightblue" stroke="midnightblue" points="317.482,-158.367 313.256,-168.083 322.619,-163.123 317.482,-158.367"/>
</g>
<!-- Node22 -->
<g id="node10" class="node"><title>Node22</title>
<g id="a_node10"><a xlink:href="../../d0/de6/_open_set_8h.html" target="_top" xlink:title="Hash set implementation. ">
<polygon fill="white" stroke="black" points="350.5,-56.5 350.5,-75.5 427.5,-75.5 427.5,-56.5 350.5,-56.5"/>
<text text-anchor="middle" x="389" y="-63.5" font-family="Helvetica,sans-Serif" font-size="10.00">stl/OpenSet.h</text>
</a>
</g>
</g>
<!-- Node13&#45;&gt;Node22 -->
<g id="edge10" class="edge"><title>Node13&#45;&gt;Node22</title>
<path fill="none" stroke="midnightblue" d="M346.552,-169.193C367.583,-162.913 391.294,-151.733 404,-132 415.411,-114.278 403.016,-88.9015 394.896,-75.7114"/>
<polygon fill="midnightblue" stroke="midnightblue" points="345.557,-165.836 336.815,-171.822 347.382,-172.594 345.557,-165.836"/>
</g>
<!-- Node15 -->
<g id="node3" class="node"><title>Node15</title>
<g id="a_node3"><a xlink:href="../../df/d03/_array_heap_8h.html" target="_top" xlink:title="Heap manipulation and implementation. ">
<polygon fill="white" stroke="black" points="0,-56.5 0,-75.5 84,-75.5 84,-56.5 0,-56.5"/>
<text text-anchor="middle" x="42" y="-63.5" font-family="Helvetica,sans-Serif" font-size="10.00">stl/ArrayHeap.h</text>
</a>
</g>
</g>
<!-- Node14&#45;&gt;Node15 -->
<g id="edge2" class="edge"><title>Node14&#45;&gt;Node15</title>
<path fill="none" stroke="midnightblue" d="M125.238,-107.862C104.841,-97.8492 77.3341,-84.3458 59.6295,-75.6545"/>
<polygon fill="midnightblue" stroke="midnightblue" points="123.808,-111.059 134.327,-112.324 126.892,-104.775 123.808,-111.059"/>
</g>
<!-- Node16 -->
<g id="node4" class="node"><title>Node16</title>
<g id="a_node4"><a xlink:href="../../d5/d08/_red_black_tree_8h.html" target="_top" xlink:title="Red black tree implementation. ">
<polygon fill="white" stroke="black" points="102.5,-56.5 102.5,-75.5 201.5,-75.5 201.5,-56.5 102.5,-56.5"/>
<text text-anchor="middle" x="152" y="-63.5" font-family="Helvetica,sans-Serif" font-size="10.00">stl/RedBlackTree.h</text>
</a>
</g>
</g>
<!-- Node14&#45;&gt;Node16 -->
<g id="edge3" class="edge"><title>Node14&#45;&gt;Node16</title>
<path fill="none" stroke="midnightblue" d="M152,-101.805C152,-92.9102 152,-82.7798 152,-75.7511"/>
<polygon fill="midnightblue" stroke="midnightblue" points="148.5,-102.083 152,-112.083 155.5,-102.083 148.5,-102.083"/>
</g>
<!-- Node17 -->
<g id="node5" class="node"><title>Node17</title>
<g id="a_node5"><a xlink:href="../../df/d87/_tree_map_8h.html" target="_top" xlink:title="Map implementation using red black tree. ">
<polygon fill="white" stroke="black" points="68,-0.5 68,-19.5 144,-19.5 144,-0.5 68,-0.5"/>
<text text-anchor="middle" x="106" y="-7.5" font-family="Helvetica,sans-Serif" font-size="10.00">stl/TreeMap.h</text>
</a>
</g>
</g>
<!-- Node16&#45;&gt;Node17 -->
<g id="edge4" class="edge"><title>Node16&#45;&gt;Node17</title>
<path fill="none" stroke="midnightblue" d="M137.886,-48.4314C129.824,-38.9673 120.041,-27.4827 113.455,-19.7511"/>
<polygon fill="midnightblue" stroke="midnightblue" points="135.255,-50.7402 144.404,-56.083 140.584,-46.2009 135.255,-50.7402"/>
</g>
<!-- Node18 -->
<g id="node6" class="node"><title>Node18</title>
<g id="a_node6"><a xlink:href="../../dd/dba/_tree_set_8h.html" target="_top" xlink:title="Set implementation using red black tree. ">
<polygon fill="white" stroke="black" points="162,-0.5 162,-19.5 234,-19.5 234,-0.5 162,-0.5"/>
<text text-anchor="middle" x="198" y="-7.5" font-family="Helvetica,sans-Serif" font-size="10.00">stl/TreeSet.h</text>
</a>
</g>
</g>
<!-- Node16&#45;&gt;Node18 -->
<g id="edge5" class="edge"><title>Node16&#45;&gt;Node18</title>
<path fill="none" stroke="midnightblue" d="M166.114,-48.4314C174.176,-38.9673 183.959,-27.4827 190.545,-19.7511"/>
<polygon fill="midnightblue" stroke="midnightblue" points="163.416,-46.2009 159.596,-56.083 168.745,-50.7402 163.416,-46.2009"/>
</g>
<!-- Node20 -->
<g id="node8" class="node"><title>Node20</title>
<g id="a_node8"><a xlink:href="../../d6/d59/_chain_set_8h.html" target="_top" xlink:title="Hash set implementation. ">
<polygon fill="white" stroke="black" points="220,-56.5 220,-75.5 298,-75.5 298,-56.5 220,-56.5"/>
<text text-anchor="middle" x="259" y="-63.5" font-family="Helvetica,sans-Serif" font-size="10.00">stl/ChainSet.h</text>
</a>
</g>
</g>
<!-- Node19&#45;&gt;Node20 -->
<g id="edge7" class="edge"><title>Node19&#45;&gt;Node20</title>
<path fill="none" stroke="midnightblue" d="M257.066,-101.805C257.561,-92.9102 258.123,-82.7798 258.514,-75.7511"/>
<polygon fill="midnightblue" stroke="midnightblue" points="253.556,-101.904 256.495,-112.083 260.545,-102.293 253.556,-101.904"/>
</g>
<!-- Node21&#45;&gt;Node22 -->
<g id="edge9" class="edge"><title>Node21&#45;&gt;Node22</title>
<path fill="none" stroke="midnightblue" d="M365.977,-103.566C371.827,-94.2747 378.77,-83.2484 383.49,-75.7511"/>
<polygon fill="midnightblue" stroke="midnightblue" points="362.981,-101.756 360.614,-112.083 368.904,-105.486 362.981,-101.756"/>
</g>
</g>
</svg>
