<?xml version="1.0" encoding="UTF-8" standalone="no"?>
<!DOCTYPE svg PUBLIC "-//W3C//DTD SVG 1.1//EN"
 "http://www.w3.org/Graphics/SVG/1.1/DTD/svg11.dtd">
<!-- Generated by graphviz version 2.36.0 (20140111.2315)
 -->
<!-- Title: Wlib.h Pages: 1 -->
<svg width="638pt" height="420pt"
 viewBox="0.00 0.00 638.00 420.00" xmlns="http://www.w3.org/2000/svg" xmlns:xlink="http://www.w3.org/1999/xlink">
<g id="graph0" class="graph" transform="scale(1 1) rotate(0) translate(4 416)">
<title>Wlib.h</title>
<polygon fill="white" stroke="none" points="-4,4 -4,-416 634,-416 634,4 -4,4"/>
<!-- Node1 -->
<g id="node1" class="node"><title>Node1</title>
<polygon fill="#bfbfbf" stroke="black" points="303,-392.5 303,-411.5 347,-411.5 347,-392.5 303,-392.5"/>
<text text-anchor="middle" x="325" y="-399.5" font-family="Helvetica,sans-Serif" font-size="10.00">Wlib.h</text>
</g>
<!-- Node2 -->
<g id="node2" class="node"><title>Node2</title>
<g id="a_node2"><a xlink:href="../../de/d6d/_bitset_8h.html" target="_top" xlink:title="Bitset is a class that provides bits manipulation methods. ">
<polygon fill="white" stroke="black" points="41,-168.5 41,-187.5 105,-187.5 105,-168.5 41,-168.5"/>
<text text-anchor="middle" x="73" y="-175.5" font-family="Helvetica,sans-Serif" font-size="10.00">stl/Bitset.h</text>
</a>
</g>
</g>
<!-- Node1&#45;&gt;Node2 -->
<g id="edge1" class="edge"><title>Node1&#45;&gt;Node2</title>
<path fill="none" stroke="midnightblue" d="M293.15,-390.546C272.36,-382.851 245.238,-371.111 224,-356 153.568,-305.889 95.3721,-215.871 78.1722,-187.683"/>
<polygon fill="midnightblue" stroke="midnightblue" points="292.199,-393.923 302.794,-393.996 294.557,-387.332 292.199,-393.923"/>
</g>
<!-- Node5 -->
<g id="node5" class="node"><title>Node5</title>
<g id="a_node5"><a xlink:href="../../d8/dd7/_concept_8h.html" target="_top" xlink:title="Concept definitions. ">
<polygon fill="white" stroke="black" points="233.5,-336.5 233.5,-355.5 308.5,-355.5 308.5,-336.5 233.5,-336.5"/>
<text text-anchor="middle" x="271" y="-343.5" font-family="Helvetica,sans-Serif" font-size="10.00">stl/Concept.h</text>
</a>
</g>
</g>
<!-- Node1&#45;&gt;Node5 -->
<g id="edge4" class="edge"><title>Node1&#45;&gt;Node5</title>
<path fill="none" stroke="midnightblue" d="M309.002,-385.002C299.433,-375.433 287.639,-363.639 279.751,-355.751"/>
<polygon fill="midnightblue" stroke="midnightblue" points="306.537,-387.487 316.083,-392.083 311.487,-382.537 306.537,-387.487"/>
</g>
<!-- Node22 -->
<g id="node22" class="node"><title>Node22</title>
<g id="a_node22"><a xlink:href="../../df/dcf/_state_machine_8h.html" target="_top" xlink:title="fsm/StateMachine.h">
<polygon fill="white" stroke="black" points="327,-336.5 327,-355.5 431,-355.5 431,-336.5 327,-336.5"/>
<text text-anchor="middle" x="379" y="-343.5" font-family="Helvetica,sans-Serif" font-size="10.00">fsm/StateMachine.h</text>
</a>
</g>
</g>
<!-- Node1&#45;&gt;Node22 -->
<g id="edge30" class="edge"><title>Node1&#45;&gt;Node22</title>
<path fill="none" stroke="midnightblue" d="M340.998,-385.002C350.567,-375.433 362.361,-363.639 370.249,-355.751"/>
<polygon fill="midnightblue" stroke="midnightblue" points="338.513,-382.537 333.917,-392.083 343.463,-387.487 338.513,-382.537"/>
</g>
<!-- Node23 -->
<g id="node23" class="node"><title>Node23</title>
<g id="a_node23"><a xlink:href="../../df/d64/_memory_8cpp.html" target="_top" xlink:title="Implementation of Memory functions. ">
<polygon fill="white" stroke="black" points="449.5,-336.5 449.5,-355.5 558.5,-355.5 558.5,-336.5 449.5,-336.5"/>
<text text-anchor="middle" x="504" y="-343.5" font-family="Helvetica,sans-Serif" font-size="10.00">memory/Memory.cpp</text>
</a>
</g>
</g>
<!-- Node1&#45;&gt;Node23 -->
<g id="edge31" class="edge"><title>Node1&#45;&gt;Node23</title>
<path fill="none" stroke="midnightblue" d="M357.147,-391.302C390.938,-381.108 443.575,-365.229 475.801,-355.507"/>
<polygon fill="midnightblue" stroke="midnightblue" points="355.871,-388.031 347.309,-394.27 357.893,-394.733 355.871,-388.031"/>
</g>
<!-- Node3 -->
<g id="node3" class="node"><title>Node3</title>
<g id="a_node3"><a xlink:href="../../de/d66/_packet_constructor_8h.html" target="_top" xlink:title="comm/PacketConstructor.h">
<polygon fill="white" stroke="black" points="4.5,-112.5 4.5,-131.5 141.5,-131.5 141.5,-112.5 4.5,-112.5"/>
<text text-anchor="middle" x="73" y="-119.5" font-family="Helvetica,sans-Serif" font-size="10.00">comm/PacketConstructor.h</text>
</a>
</g>
</g>
<!-- Node2&#45;&gt;Node3 -->
<g id="edge2" class="edge"><title>Node2&#45;&gt;Node3</title>
<path fill="none" stroke="midnightblue" d="M73,-157.805C73,-148.91 73,-138.78 73,-131.751"/>
<polygon fill="midnightblue" stroke="midnightblue" points="69.5001,-158.083 73,-168.083 76.5001,-158.083 69.5001,-158.083"/>
</g>
<!-- Node4 -->
<g id="node4" class="node"><title>Node4</title>
<g id="a_node4"><a xlink:href="../../d9/dde/_packet_constructor_8cpp.html" target="_top" xlink:title="Creates a packet for sending data from the slave systems to the main computer. ">
<polygon fill="white" stroke="black" points="-0.5,-56.5 -0.5,-75.5 146.5,-75.5 146.5,-56.5 -0.5,-56.5"/>
<text text-anchor="middle" x="73" y="-63.5" font-family="Helvetica,sans-Serif" font-size="10.00">comm/PacketConstructor.cpp</text>
</a>
</g>
</g>
<!-- Node3&#45;&gt;Node4 -->
<g id="edge3" class="edge"><title>Node3&#45;&gt;Node4</title>
<path fill="none" stroke="midnightblue" d="M73,-101.805C73,-92.9102 73,-82.7798 73,-75.7511"/>
<polygon fill="midnightblue" stroke="midnightblue" points="69.5001,-102.083 73,-112.083 76.5001,-102.083 69.5001,-102.083"/>
</g>
<!-- Node6 -->
<g id="node6" class="node"><title>Node6</title>
<g id="a_node6"><a xlink:href="../../de/d0b/_string_iterator_8h.html" target="_top" xlink:title="strings/StringIterator.h">
<polygon fill="white" stroke="black" points="214.5,-280.5 214.5,-299.5 327.5,-299.5 327.5,-280.5 214.5,-280.5"/>
<text text-anchor="middle" x="271" y="-287.5" font-family="Helvetica,sans-Serif" font-size="10.00">strings/StringIterator.h</text>
</a>
</g>
</g>
<!-- Node5&#45;&gt;Node6 -->
<g id="edge5" class="edge"><title>Node5&#45;&gt;Node6</title>
<path fill="none" stroke="midnightblue" d="M271,-325.805C271,-316.91 271,-306.78 271,-299.751"/>
<polygon fill="midnightblue" stroke="midnightblue" points="267.5,-326.083 271,-336.083 274.5,-326.083 267.5,-326.083"/>
</g>
<!-- Node9 -->
<g id="node9" class="node"><title>Node9</title>
<g id="a_node9"><a xlink:href="../../df/d03/_array_heap_8h.html" target="_top" xlink:title="Heap manipulation and implementation. ">
<polygon fill="white" stroke="black" points="545.5,-56.5 545.5,-75.5 630.5,-75.5 630.5,-56.5 545.5,-56.5"/>
<text text-anchor="middle" x="588" y="-63.5" font-family="Helvetica,sans-Serif" font-size="10.00">stl/ArrayHeap.h</text>
</a>
</g>
</g>
<!-- Node5&#45;&gt;Node9 -->
<g id="edge29" class="edge"><title>Node5&#45;&gt;Node9</title>
<path fill="none" stroke="midnightblue" d="M316.561,-333.992C404.051,-312.213 587,-263.288 587,-235 587,-235 587,-235 587,-177 587,-139.186 587.598,-94.0629 587.869,-75.5575"/>
<polygon fill="midnightblue" stroke="midnightblue" points="315.501,-330.649 306.635,-336.449 317.183,-337.444 315.501,-330.649"/>
</g>
<!-- Node7 -->
<g id="node7" class="node"><title>Node7</title>
<g id="a_node7"><a xlink:href="../../d8/d65/_static_string_8h.html" target="_top" xlink:title="StaticString provides a String that is on stack and is of fixed size. ">
<polygon fill="white" stroke="black" points="300,-224.5 300,-243.5 408,-243.5 408,-224.5 300,-224.5"/>
<text text-anchor="middle" x="354" y="-231.5" font-family="Helvetica,sans-Serif" font-size="10.00">strings/StaticString.h</text>
</a>
</g>
</g>
<!-- Node6&#45;&gt;Node7 -->
<g id="edge6" class="edge"><title>Node6&#45;&gt;Node7</title>
<path fill="none" stroke="midnightblue" d="M293.099,-274.622C308.262,-264.757 327.883,-251.992 340.698,-243.655"/>
<polygon fill="midnightblue" stroke="midnightblue" points="290.809,-271.937 284.335,-280.324 294.626,-277.804 290.809,-271.937"/>
</g>
<!-- Node20 -->
<g id="node20" class="node"><title>Node20</title>
<g id="a_node20"><a xlink:href="../../d6/d60/_dynamic_string_8h.html" target="_top" xlink:title="DynamicString is a class that provides dynamic strings and functions for dynamic strings. ">
<polygon fill="white" stroke="black" points="128,-224.5 128,-243.5 250,-243.5 250,-224.5 128,-224.5"/>
<text text-anchor="middle" x="189" y="-231.5" font-family="Helvetica,sans-Serif" font-size="10.00">strings/DynamicString.h</text>
</a>
</g>
</g>
<!-- Node6&#45;&gt;Node20 -->
<g id="edge26" class="edge"><title>Node6&#45;&gt;Node20</title>
<path fill="none" stroke="midnightblue" d="M249.167,-274.622C234.187,-264.757 214.803,-251.992 202.142,-243.655"/>
<polygon fill="midnightblue" stroke="midnightblue" points="247.549,-277.747 257.825,-280.324 251.399,-271.901 247.549,-277.747"/>
</g>
<!-- Node7&#45;&gt;Node2 -->
<g id="edge7" class="edge"><title>Node7&#45;&gt;Node2</title>
<path fill="none" stroke="midnightblue" d="M296.073,-222.654C247.403,-213.838 176.053,-200.625 114,-188 111.144,-187.419 108.179,-186.8 105.209,-186.168"/>
<polygon fill="midnightblue" stroke="midnightblue" points="295.64,-226.132 306.103,-224.467 296.885,-219.244 295.64,-226.132"/>
</g>
<!-- Node8 -->
<g id="node8" class="node"><title>Node8</title>
<g id="a_node8"><a xlink:href="../../d7/d0c/_comparator_8h.html" target="_top" xlink:title="Comparator implementation for basic types. ">
<polygon fill="white" stroke="black" points="468.5,-112.5 468.5,-131.5 557.5,-131.5 557.5,-112.5 468.5,-112.5"/>
<text text-anchor="middle" x="513" y="-119.5" font-family="Helvetica,sans-Serif" font-size="10.00">stl/Comparator.h</text>
</a>
</g>
</g>
<!-- Node7&#45;&gt;Node8 -->
<g id="edge8" class="edge"><title>Node7&#45;&gt;Node8</title>
<path fill="none" stroke="midnightblue" d="M376.628,-219.23C390.707,-210.522 409.099,-198.892 425,-188 453.206,-168.68 485.253,-144.394 501.795,-131.677"/>
<polygon fill="midnightblue" stroke="midnightblue" points="374.753,-216.274 368.067,-224.494 378.419,-222.237 374.753,-216.274"/>
</g>
<!-- Node13 -->
<g id="node13" class="node"><title>Node13</title>
<g id="a_node13"><a xlink:href="../../d2/dc2/_equal_8h.html" target="_top" xlink:title="stl/Equal.h">
<polygon fill="white" stroke="black" points="353.5,-168.5 353.5,-187.5 416.5,-187.5 416.5,-168.5 353.5,-168.5"/>
<text text-anchor="middle" x="385" y="-175.5" font-family="Helvetica,sans-Serif" font-size="10.00">stl/Equal.h</text>
</a>
</g>
</g>
<!-- Node7&#45;&gt;Node13 -->
<g id="edge13" class="edge"><title>Node7&#45;&gt;Node13</title>
<path fill="none" stroke="midnightblue" d="M364.176,-215.275C369.474,-206.045 375.717,-195.17 379.976,-187.751"/>
<polygon fill="midnightblue" stroke="midnightblue" points="361.062,-213.668 359.119,-224.083 367.133,-217.153 361.062,-213.668"/>
</g>
<!-- Node18 -->
<g id="node18" class="node"><title>Node18</title>
<g id="a_node18"><a xlink:href="../../d2/dad/_hash_8h.html" target="_top" xlink:title="stl/Hash.h">
<polygon fill="white" stroke="black" points="273,-168.5 273,-187.5 335,-187.5 335,-168.5 273,-168.5"/>
<text text-anchor="middle" x="304" y="-175.5" font-family="Helvetica,sans-Serif" font-size="10.00">stl/Hash.h</text>
</a>
</g>
</g>
<!-- Node7&#45;&gt;Node18 -->
<g id="edge20" class="edge"><title>Node7&#45;&gt;Node18</title>
<path fill="none" stroke="midnightblue" d="M338.924,-216.718C330.111,-207.2 319.334,-195.561 312.103,-187.751"/>
<polygon fill="midnightblue" stroke="midnightblue" points="336.381,-219.123 345.744,-224.083 341.518,-214.367 336.381,-219.123"/>
</g>
<!-- Node19 -->
<g id="node19" class="node"><title>Node19</title>
<g id="a_node19"><a xlink:href="../../db/db5/_string_8h.html" target="_top" xlink:title="strings/String.h">
<polygon fill="white" stroke="black" points="473.5,-168.5 473.5,-187.5 556.5,-187.5 556.5,-168.5 473.5,-168.5"/>
<text text-anchor="middle" x="515" y="-175.5" font-family="Helvetica,sans-Serif" font-size="10.00">strings/String.h</text>
</a>
</g>
</g>
<!-- Node7&#45;&gt;Node19 -->
<g id="edge24" class="edge"><title>Node7&#45;&gt;Node19</title>
<path fill="none" stroke="midnightblue" d="M389.265,-221.172C419.581,-211.004 462.57,-196.585 489.608,-187.516"/>
<polygon fill="midnightblue" stroke="midnightblue" points="387.879,-217.945 379.511,-224.444 390.105,-224.582 387.879,-217.945"/>
</g>
<!-- Node8&#45;&gt;Node9 -->
<g id="edge9" class="edge"><title>Node8&#45;&gt;Node9</title>
<path fill="none" stroke="midnightblue" d="M533.305,-106.38C546.861,-96.6204 564.242,-84.1057 575.731,-75.8339"/>
<polygon fill="midnightblue" stroke="midnightblue" points="531.12,-103.641 525.05,-112.324 535.21,-109.321 531.12,-103.641"/>
</g>
<!-- Node10 -->
<g id="node10" class="node"><title>Node10</title>
<g id="a_node10"><a xlink:href="../../d5/d08/_red_black_tree_8h.html" target="_top" xlink:title="Red black tree implementation. ">
<polygon fill="white" stroke="black" points="426.5,-56.5 426.5,-75.5 527.5,-75.5 527.5,-56.5 426.5,-56.5"/>
<text text-anchor="middle" x="477" y="-63.5" font-family="Helvetica,sans-Serif" font-size="10.00">stl/RedBlackTree.h</text>
</a>
</g>
</g>
<!-- Node8&#45;&gt;Node10 -->
<g id="edge10" class="edge"><title>Node8&#45;&gt;Node10</title>
<path fill="none" stroke="midnightblue" d="M501.377,-103.566C495.183,-94.2747 487.832,-83.2484 482.834,-75.7511"/>
<polygon fill="midnightblue" stroke="midnightblue" points="498.596,-105.704 507.055,-112.083 504.42,-101.821 498.596,-105.704"/>
</g>
<!-- Node11 -->
<g id="node11" class="node"><title>Node11</title>
<g id="a_node11"><a xlink:href="../../df/d87/_tree_map_8h.html" target="_top" xlink:title="Map implementation using red black tree. ">
<polygon fill="white" stroke="black" points="391.5,-0.5 391.5,-19.5 468.5,-19.5 468.5,-0.5 391.5,-0.5"/>
<text text-anchor="middle" x="430" y="-7.5" font-family="Helvetica,sans-Serif" font-size="10.00">stl/TreeMap.h</text>
</a>
</g>
</g>
<!-- Node10&#45;&gt;Node11 -->
<g id="edge11" class="edge"><title>Node10&#45;&gt;Node11</title>
<path fill="none" stroke="midnightblue" d="M462.579,-48.4314C454.342,-38.9673 444.346,-27.4827 437.617,-19.7511"/>
<polygon fill="midnightblue" stroke="midnightblue" points="460.034,-50.8378 469.239,-56.083 465.314,-46.2421 460.034,-50.8378"/>
</g>
<!-- Node12 -->
<g id="node12" class="node"><title>Node12</title>
<g id="a_node12"><a xlink:href="../../dd/dba/_tree_set_8h.html" target="_top" xlink:title="Set implementation using red black tree. ">
<polygon fill="white" stroke="black" points="486.5,-0.5 486.5,-19.5 559.5,-19.5 559.5,-0.5 486.5,-0.5"/>
<text text-anchor="middle" x="523" y="-7.5" font-family="Helvetica,sans-Serif" font-size="10.00">stl/TreeSet.h</text>
</a>
</g>
</g>
<!-- Node10&#45;&gt;Node12 -->
<g id="edge12" class="edge"><title>Node10&#45;&gt;Node12</title>
<path fill="none" stroke="midnightblue" d="M491.114,-48.4314C499.176,-38.9673 508.959,-27.4827 515.545,-19.7511"/>
<polygon fill="midnightblue" stroke="midnightblue" points="488.416,-46.2009 484.596,-56.083 493.745,-50.7402 488.416,-46.2009"/>
</g>
<!-- Node13&#45;&gt;Node8 -->
<g id="edge14" class="edge"><title>Node13&#45;&gt;Node8</title>
<path fill="none" stroke="midnightblue" d="M414.623,-164.503C438.619,-154.38 471.784,-140.388 492.813,-131.516"/>
<polygon fill="midnightblue" stroke="midnightblue" points="413.135,-161.332 405.282,-168.444 415.856,-167.781 413.135,-161.332"/>
</g>
<!-- Node14 -->
<g id="node14" class="node"><title>Node14</title>
<g id="a_node14"><a xlink:href="../../d3/dbe/_chain_map_8h.html" target="_top" xlink:title="Hasher map implementation. ">
<polygon fill="white" stroke="black" points="328.5,-112.5 328.5,-131.5 411.5,-131.5 411.5,-112.5 328.5,-112.5"/>
<text text-anchor="middle" x="370" y="-119.5" font-family="Helvetica,sans-Serif" font-size="10.00">stl/ChainMap.h</text>
</a>
</g>
</g>
<!-- Node13&#45;&gt;Node14 -->
<g id="edge15" class="edge"><title>Node13&#45;&gt;Node14</title>
<path fill="none" stroke="midnightblue" d="M379.832,-158.396C377.323,-149.362 374.427,-138.936 372.431,-131.751"/>
<polygon fill="midnightblue" stroke="midnightblue" points="376.474,-159.385 382.523,-168.083 383.219,-157.511 376.474,-159.385"/>
</g>
<!-- Node16 -->
<g id="node16" class="node"><title>Node16</title>
<g id="a_node16"><a xlink:href="../../d5/d7a/_open_map_8h.html" target="_top" xlink:title="Hash map implementation. ">
<polygon fill="white" stroke="black" points="230,-112.5 230,-131.5 310,-131.5 310,-112.5 230,-112.5"/>
<text text-anchor="middle" x="270" y="-119.5" font-family="Helvetica,sans-Serif" font-size="10.00">stl/OpenMap.h</text>
</a>
</g>
</g>
<!-- Node13&#45;&gt;Node16 -->
<g id="edge17" class="edge"><title>Node13&#45;&gt;Node16</title>
<path fill="none" stroke="midnightblue" d="M357.519,-164.096C336.034,-154.007 306.778,-140.27 288.137,-131.516"/>
<polygon fill="midnightblue" stroke="midnightblue" points="356.238,-167.361 366.778,-168.444 359.214,-161.025 356.238,-167.361"/>
</g>
<!-- Node17 -->
<g id="node17" class="node"><title>Node17</title>
<g id="a_node17"><a xlink:href="../../d0/de6/_open_set_8h.html" target="_top" xlink:title="Hash set implementation. ">
<polygon fill="white" stroke="black" points="231.5,-56.5 231.5,-75.5 308.5,-75.5 308.5,-56.5 231.5,-56.5"/>
<text text-anchor="middle" x="270" y="-63.5" font-family="Helvetica,sans-Serif" font-size="10.00">stl/OpenSet.h</text>
</a>
</g>
</g>
<!-- Node13&#45;&gt;Node17 -->
<g id="edge19" class="edge"><title>Node13&#45;&gt;Node17</title>
<path fill="none" stroke="midnightblue" d="M403.427,-161.238C417.134,-147.581 431.619,-127.617 420,-112 413.062,-102.675 348.465,-85.7294 306.334,-75.5045"/>
<polygon fill="midnightblue" stroke="midnightblue" points="400.988,-158.728 396.064,-168.109 405.763,-163.846 400.988,-158.728"/>
</g>
<!-- Node15 -->
<g id="node15" class="node"><title>Node15</title>
<g id="a_node15"><a xlink:href="../../d6/d59/_chain_set_8h.html" target="_top" xlink:title="Hash set implementation. ">
<polygon fill="white" stroke="black" points="329.5,-56.5 329.5,-75.5 408.5,-75.5 408.5,-56.5 329.5,-56.5"/>
<text text-anchor="middle" x="369" y="-63.5" font-family="Helvetica,sans-Serif" font-size="10.00">stl/ChainSet.h</text>
</a>
</g>
</g>
<!-- Node14&#45;&gt;Node15 -->
<g id="edge16" class="edge"><title>Node14&#45;&gt;Node15</title>
<path fill="none" stroke="midnightblue" d="M369.645,-101.805C369.48,-92.9102 369.292,-82.7798 369.162,-75.7511"/>
<polygon fill="midnightblue" stroke="midnightblue" points="366.15,-102.15 369.835,-112.083 373.149,-102.02 366.15,-102.15"/>
</g>
<!-- Node16&#45;&gt;Node17 -->
<g id="edge18" class="edge"><title>Node16&#45;&gt;Node17</title>
<path fill="none" stroke="midnightblue" d="M270,-101.805C270,-92.9102 270,-82.7798 270,-75.7511"/>
<polygon fill="midnightblue" stroke="midnightblue" points="266.5,-102.083 270,-112.083 273.5,-102.083 266.5,-102.083"/>
</g>
<!-- Node18&#45;&gt;Node14 -->
<g id="edge21" class="edge"><title>Node18&#45;&gt;Node14</title>
<path fill="none" stroke="midnightblue" d="M322.554,-161.82C334.378,-152.145 349.286,-139.948 359.203,-131.834"/>
<polygon fill="midnightblue" stroke="midnightblue" points="320.127,-159.283 314.604,-168.324 324.56,-164.7 320.127,-159.283"/>
</g>
<!-- Node18&#45;&gt;Node16 -->
<g id="edge22" class="edge"><title>Node18&#45;&gt;Node16</title>
<path fill="none" stroke="midnightblue" d="M293.023,-159.566C287.173,-150.275 280.23,-139.248 275.51,-131.751"/>
<polygon fill="midnightblue" stroke="midnightblue" points="290.096,-161.486 298.386,-168.083 296.019,-157.756 290.096,-161.486"/>
</g>
<!-- Node18&#45;&gt;Node17 -->
<g id="edge23" class="edge"><title>Node18&#45;&gt;Node17</title>
<path fill="none" stroke="midnightblue" d="M263.317,-165.124C247.202,-158.204 230.322,-147.659 221,-132 208.204,-110.507 236.527,-87.662 255.225,-75.6092"/>
<polygon fill="midnightblue" stroke="midnightblue" points="262.066,-168.393 272.654,-168.791 264.625,-161.877 262.066,-168.393"/>
</g>
<!-- Node19&#45;&gt;Node8 -->
<g id="edge25" class="edge"><title>Node19&#45;&gt;Node8</title>
<path fill="none" stroke="midnightblue" d="M514.289,-157.805C513.96,-148.91 513.584,-138.78 513.324,-131.751"/>
<polygon fill="midnightblue" stroke="midnightblue" points="510.802,-158.219 514.67,-168.083 517.797,-157.96 510.802,-158.219"/>
</g>
<!-- Node20&#45;&gt;Node2 -->
<g id="edge27" class="edge"><title>Node20&#45;&gt;Node2</title>
<path fill="none" stroke="midnightblue" d="M161.28,-220.096C139.608,-210.007 110.098,-196.27 91.2946,-187.516"/>
<polygon fill="midnightblue" stroke="midnightblue" points="160.077,-223.396 170.619,-224.444 163.031,-217.05 160.077,-223.396"/>
</g>
<!-- Node21 -->
<g id="node21" class="node"><title>Node21</title>
<g id="a_node21"><a xlink:href="../../d9/d8a/_dynamic_string_8cpp.html" target="_top" xlink:title="DynamicString is a class that provides dynamic strings and functions for dynamic strings. ">
<polygon fill="white" stroke="black" points="123,-168.5 123,-187.5 255,-187.5 255,-168.5 123,-168.5"/>
<text text-anchor="middle" x="189" y="-175.5" font-family="Helvetica,sans-Serif" font-size="10.00">strings/DynamicString.cpp</text>
</a>
</g>
</g>
<!-- Node20&#45;&gt;Node21 -->
<g id="edge28" class="edge"><title>Node20&#45;&gt;Node21</title>
<path fill="none" stroke="midnightblue" d="M189,-213.805C189,-204.91 189,-194.78 189,-187.751"/>
<polygon fill="midnightblue" stroke="midnightblue" points="185.5,-214.083 189,-224.083 192.5,-214.083 185.5,-214.083"/>
</g>
</g>
</svg>
