<?xml version="1.0" encoding="UTF-8" standalone="no"?>
<!DOCTYPE svg PUBLIC "-//W3C//DTD SVG 1.1//EN"
 "http://www.w3.org/Graphics/SVG/1.1/DTD/svg11.dtd">
<!-- Generated by graphviz version 2.36.0 (20140111.2315)
 -->
<!-- Title: Wlib.h Pages: 1 -->
<svg width="624pt" height="420pt"
 viewBox="0.00 0.00 624.00 420.00" xmlns="http://www.w3.org/2000/svg" xmlns:xlink="http://www.w3.org/1999/xlink">
<g id="graph0" class="graph" transform="scale(1 1) rotate(0) translate(4 416)">
<title>Wlib.h</title>
<polygon fill="white" stroke="none" points="-4,4 -4,-416 620,-416 620,4 -4,4"/>
<!-- Node1 -->
<g id="node1" class="node"><title>Node1</title>
<polygon fill="#bfbfbf" stroke="black" points="361,-392.5 361,-411.5 405,-411.5 405,-392.5 361,-392.5"/>
<text text-anchor="middle" x="383" y="-399.5" font-family="Helvetica,sans-Serif" font-size="10.00">Wlib.h</text>
</g>
<!-- Node2 -->
<g id="node2" class="node"><title>Node2</title>
<g id="a_node2"><a xlink:href="../../de/d6d/_bitset_8h.html" target="_top" xlink:title="Bitset is a class that provides bits manipulation methods. ">
<polygon fill="white" stroke="black" points="135,-168.5 135,-187.5 199,-187.5 199,-168.5 135,-168.5"/>
<text text-anchor="middle" x="167" y="-175.5" font-family="Helvetica,sans-Serif" font-size="10.00">stl/Bitset.h</text>
</a>
</g>
</g>
<!-- Node1&#45;&gt;Node2 -->
<g id="edge1" class="edge"><title>Node1&#45;&gt;Node2</title>
<path fill="none" stroke="midnightblue" d="M351.303,-392.117C329.97,-384.959 302.162,-373.221 282,-356 222.369,-305.068 182.073,-215.602 170.455,-187.617"/>
<polygon fill="midnightblue" stroke="midnightblue" points="350.305,-395.472 360.896,-395.177 352.433,-388.804 350.305,-395.472"/>
</g>
<!-- Node5 -->
<g id="node5" class="node"><title>Node5</title>
<g id="a_node5"><a xlink:href="../../d8/dd7/_concept_8h.html" target="_top" xlink:title="Concept definitions. ">
<polygon fill="white" stroke="black" points="291.5,-336.5 291.5,-355.5 366.5,-355.5 366.5,-336.5 291.5,-336.5"/>
<text text-anchor="middle" x="329" y="-343.5" font-family="Helvetica,sans-Serif" font-size="10.00">stl/Concept.h</text>
</a>
</g>
</g>
<!-- Node1&#45;&gt;Node5 -->
<g id="edge4" class="edge"><title>Node1&#45;&gt;Node5</title>
<path fill="none" stroke="midnightblue" d="M367.002,-385.002C357.433,-375.433 345.639,-363.639 337.751,-355.751"/>
<polygon fill="midnightblue" stroke="midnightblue" points="364.537,-387.487 374.083,-392.083 369.487,-382.537 364.537,-387.487"/>
</g>
<!-- Node20 -->
<g id="node20" class="node"><title>Node20</title>
<g id="a_node20"><a xlink:href="../../df/dcf/_state_machine_8h.html" target="_top" xlink:title="fsm/StateMachine.h">
<polygon fill="white" stroke="black" points="385,-336.5 385,-355.5 489,-355.5 489,-336.5 385,-336.5"/>
<text text-anchor="middle" x="437" y="-343.5" font-family="Helvetica,sans-Serif" font-size="10.00">fsm/StateMachine.h</text>
</a>
</g>
</g>
<!-- Node1&#45;&gt;Node20 -->
<g id="edge26" class="edge"><title>Node1&#45;&gt;Node20</title>
<path fill="none" stroke="midnightblue" d="M398.998,-385.002C408.567,-375.433 420.361,-363.639 428.249,-355.751"/>
<polygon fill="midnightblue" stroke="midnightblue" points="396.513,-382.537 391.917,-392.083 401.463,-387.487 396.513,-382.537"/>
</g>
<!-- Node21 -->
<g id="node21" class="node"><title>Node21</title>
<g id="a_node21"><a xlink:href="../../df/d64/_memory_8cpp.html" target="_top" xlink:title="Implementation of Memory functions. ">
<polygon fill="white" stroke="black" points="507.5,-336.5 507.5,-355.5 616.5,-355.5 616.5,-336.5 507.5,-336.5"/>
<text text-anchor="middle" x="562" y="-343.5" font-family="Helvetica,sans-Serif" font-size="10.00">memory/Memory.cpp</text>
</a>
</g>
</g>
<!-- Node1&#45;&gt;Node21 -->
<g id="edge27" class="edge"><title>Node1&#45;&gt;Node21</title>
<path fill="none" stroke="midnightblue" d="M415.147,-391.302C448.938,-381.108 501.575,-365.229 533.801,-355.507"/>
<polygon fill="midnightblue" stroke="midnightblue" points="413.871,-388.031 405.309,-394.27 415.893,-394.733 413.871,-388.031"/>
</g>
<!-- Node3 -->
<g id="node3" class="node"><title>Node3</title>
<g id="a_node3"><a xlink:href="../../de/d66/_packet_constructor_8h.html" target="_top" xlink:title="comm/PacketConstructor.h">
<polygon fill="white" stroke="black" points="4.5,-112.5 4.5,-131.5 141.5,-131.5 141.5,-112.5 4.5,-112.5"/>
<text text-anchor="middle" x="73" y="-119.5" font-family="Helvetica,sans-Serif" font-size="10.00">comm/PacketConstructor.h</text>
</a>
</g>
</g>
<!-- Node2&#45;&gt;Node3 -->
<g id="edge2" class="edge"><title>Node2&#45;&gt;Node3</title>
<path fill="none" stroke="midnightblue" d="M142.938,-163.177C125.641,-153.241 102.852,-140.149 88.0652,-131.655"/>
<polygon fill="midnightblue" stroke="midnightblue" points="141.483,-166.378 151.897,-168.324 144.97,-160.308 141.483,-166.378"/>
</g>
<!-- Node4 -->
<g id="node4" class="node"><title>Node4</title>
<g id="a_node4"><a xlink:href="../../d9/dde/_packet_constructor_8cpp.html" target="_top" xlink:title="Creates a packet for sending data from the slave systems to the main computer. ">
<polygon fill="white" stroke="black" points="-0.5,-56.5 -0.5,-75.5 146.5,-75.5 146.5,-56.5 -0.5,-56.5"/>
<text text-anchor="middle" x="73" y="-63.5" font-family="Helvetica,sans-Serif" font-size="10.00">comm/PacketConstructor.cpp</text>
</a>
</g>
</g>
<!-- Node3&#45;&gt;Node4 -->
<g id="edge3" class="edge"><title>Node3&#45;&gt;Node4</title>
<path fill="none" stroke="midnightblue" d="M73,-101.805C73,-92.9102 73,-82.7798 73,-75.7511"/>
<polygon fill="midnightblue" stroke="midnightblue" points="69.5001,-102.083 73,-112.083 76.5001,-102.083 69.5001,-102.083"/>
</g>
<!-- Node6 -->
<g id="node6" class="node"><title>Node6</title>
<g id="a_node6"><a xlink:href="../../de/d0b/_string_iterator_8h.html" target="_top" xlink:title="strings/StringIterator.h">
<polygon fill="white" stroke="black" points="272.5,-280.5 272.5,-299.5 385.5,-299.5 385.5,-280.5 272.5,-280.5"/>
<text text-anchor="middle" x="329" y="-287.5" font-family="Helvetica,sans-Serif" font-size="10.00">strings/StringIterator.h</text>
</a>
</g>
</g>
<!-- Node5&#45;&gt;Node6 -->
<g id="edge5" class="edge"><title>Node5&#45;&gt;Node6</title>
<path fill="none" stroke="midnightblue" d="M329,-325.805C329,-316.91 329,-306.78 329,-299.751"/>
<polygon fill="midnightblue" stroke="midnightblue" points="325.5,-326.083 329,-336.083 332.5,-326.083 325.5,-326.083"/>
</g>
<!-- Node9 -->
<g id="node9" class="node"><title>Node9</title>
<g id="a_node9"><a xlink:href="../../df/d03/_array_heap_8h.html" target="_top" xlink:title="Heap manipulation and implementation. ">
<polygon fill="white" stroke="black" points="513.5,-56.5 513.5,-75.5 598.5,-75.5 598.5,-56.5 513.5,-56.5"/>
<text text-anchor="middle" x="556" y="-63.5" font-family="Helvetica,sans-Serif" font-size="10.00">stl/ArrayHeap.h</text>
</a>
</g>
</g>
<!-- Node5&#45;&gt;Node9 -->
<g id="edge25" class="edge"><title>Node5&#45;&gt;Node9</title>
<path fill="none" stroke="midnightblue" d="M371.694,-333.658C437.45,-314.916 556,-275.509 556,-235 556,-235 556,-235 556,-177 556,-139.188 556,-94.0636 556,-75.5578"/>
<polygon fill="midnightblue" stroke="midnightblue" points="370.689,-330.305 362.008,-336.379 372.582,-337.044 370.689,-330.305"/>
</g>
<!-- Node7 -->
<g id="node7" class="node"><title>Node7</title>
<g id="a_node7"><a xlink:href="../../db/db5/_string_8h.html" target="_top" xlink:title="strings/String.h">
<polygon fill="white" stroke="black" points="287.5,-224.5 287.5,-243.5 370.5,-243.5 370.5,-224.5 287.5,-224.5"/>
<text text-anchor="middle" x="329" y="-231.5" font-family="Helvetica,sans-Serif" font-size="10.00">strings/String.h</text>
</a>
</g>
</g>
<!-- Node6&#45;&gt;Node7 -->
<g id="edge6" class="edge"><title>Node6&#45;&gt;Node7</title>
<path fill="none" stroke="midnightblue" d="M329,-269.805C329,-260.91 329,-250.78 329,-243.751"/>
<polygon fill="midnightblue" stroke="midnightblue" points="325.5,-270.083 329,-280.083 332.5,-270.083 325.5,-270.083"/>
</g>
<!-- Node7&#45;&gt;Node2 -->
<g id="edge7" class="edge"><title>Node7&#45;&gt;Node2</title>
<path fill="none" stroke="midnightblue" d="M293.516,-221.172C263.012,-211.004 219.755,-196.585 192.549,-187.516"/>
<polygon fill="midnightblue" stroke="midnightblue" points="292.737,-224.602 303.331,-224.444 294.951,-217.961 292.737,-224.602"/>
</g>
<!-- Node8 -->
<g id="node8" class="node"><title>Node8</title>
<g id="a_node8"><a xlink:href="../../d7/d0c/_comparator_8h.html" target="_top" xlink:title="Comparator implementation for basic types. ">
<polygon fill="white" stroke="black" points="437.5,-112.5 437.5,-131.5 526.5,-131.5 526.5,-112.5 437.5,-112.5"/>
<text text-anchor="middle" x="482" y="-119.5" font-family="Helvetica,sans-Serif" font-size="10.00">stl/Comparator.h</text>
</a>
</g>
</g>
<!-- Node7&#45;&gt;Node8 -->
<g id="edge8" class="edge"><title>Node7&#45;&gt;Node8</title>
<path fill="none" stroke="midnightblue" d="M380.845,-232.214C414.772,-228.686 456.942,-217.959 480,-188 492.67,-171.538 488.16,-145.161 484.621,-131.626"/>
<polygon fill="midnightblue" stroke="midnightblue" points="380.276,-228.75 370.611,-233.092 380.874,-235.725 380.276,-228.75"/>
</g>
<!-- Node13 -->
<g id="node13" class="node"><title>Node13</title>
<g id="a_node13"><a xlink:href="../../d2/dc2/_equal_8h.html" target="_top" xlink:title="stl/Equal.h">
<polygon fill="white" stroke="black" points="297.5,-168.5 297.5,-187.5 360.5,-187.5 360.5,-168.5 297.5,-168.5"/>
<text text-anchor="middle" x="329" y="-175.5" font-family="Helvetica,sans-Serif" font-size="10.00">stl/Equal.h</text>
</a>
</g>
</g>
<!-- Node7&#45;&gt;Node13 -->
<g id="edge13" class="edge"><title>Node7&#45;&gt;Node13</title>
<path fill="none" stroke="midnightblue" d="M329,-213.805C329,-204.91 329,-194.78 329,-187.751"/>
<polygon fill="midnightblue" stroke="midnightblue" points="325.5,-214.083 329,-224.083 332.5,-214.083 325.5,-214.083"/>
</g>
<!-- Node18 -->
<g id="node18" class="node"><title>Node18</title>
<g id="a_node18"><a xlink:href="../../d2/dad/_hash_8h.html" target="_top" xlink:title="stl/Hash.h">
<polygon fill="white" stroke="black" points="217,-168.5 217,-187.5 279,-187.5 279,-168.5 217,-168.5"/>
<text text-anchor="middle" x="248" y="-175.5" font-family="Helvetica,sans-Serif" font-size="10.00">stl/Hash.h</text>
</a>
</g>
</g>
<!-- Node7&#45;&gt;Node18 -->
<g id="edge20" class="edge"><title>Node7&#45;&gt;Node18</title>
<path fill="none" stroke="midnightblue" d="M307.433,-218.622C292.636,-208.757 273.488,-195.992 260.982,-187.655"/>
<polygon fill="midnightblue" stroke="midnightblue" points="305.724,-221.689 315.986,-224.324 309.607,-215.865 305.724,-221.689"/>
</g>
<!-- Node19 -->
<g id="node19" class="node"><title>Node19</title>
<g id="a_node19"><a xlink:href="../../d9/dae/_string_8cpp.html" target="_top" xlink:title="strings/String.cpp">
<polygon fill="white" stroke="black" points="378.5,-168.5 378.5,-187.5 471.5,-187.5 471.5,-168.5 378.5,-168.5"/>
<text text-anchor="middle" x="425" y="-175.5" font-family="Helvetica,sans-Serif" font-size="10.00">strings/String.cpp</text>
</a>
</g>
</g>
<!-- Node7&#45;&gt;Node19 -->
<g id="edge24" class="edge"><title>Node7&#45;&gt;Node19</title>
<path fill="none" stroke="midnightblue" d="M353.574,-219.177C371.239,-209.241 394.513,-196.149 409.614,-187.655"/>
<polygon fill="midnightblue" stroke="midnightblue" points="351.424,-216.371 344.424,-224.324 354.856,-222.472 351.424,-216.371"/>
</g>
<!-- Node8&#45;&gt;Node9 -->
<g id="edge9" class="edge"><title>Node8&#45;&gt;Node9</title>
<path fill="none" stroke="midnightblue" d="M502.034,-106.38C515.409,-96.6204 532.559,-84.1057 543.894,-75.8339"/>
<polygon fill="midnightblue" stroke="midnightblue" points="499.904,-103.602 493.889,-112.324 504.03,-109.257 499.904,-103.602"/>
</g>
<!-- Node10 -->
<g id="node10" class="node"><title>Node10</title>
<g id="a_node10"><a xlink:href="../../d5/d08/_red_black_tree_8h.html" target="_top" xlink:title="Red black tree implementation. ">
<polygon fill="white" stroke="black" points="394.5,-56.5 394.5,-75.5 495.5,-75.5 495.5,-56.5 394.5,-56.5"/>
<text text-anchor="middle" x="445" y="-63.5" font-family="Helvetica,sans-Serif" font-size="10.00">stl/RedBlackTree.h</text>
</a>
</g>
</g>
<!-- Node8&#45;&gt;Node10 -->
<g id="edge10" class="edge"><title>Node8&#45;&gt;Node10</title>
<path fill="none" stroke="midnightblue" d="M470.054,-103.566C463.688,-94.2747 456.133,-83.2484 450.996,-75.7511"/>
<polygon fill="midnightblue" stroke="midnightblue" points="467.351,-105.812 475.89,-112.083 473.125,-101.855 467.351,-105.812"/>
</g>
<!-- Node11 -->
<g id="node11" class="node"><title>Node11</title>
<g id="a_node11"><a xlink:href="../../df/d87/_tree_map_8h.html" target="_top" xlink:title="Map implementation using red black tree. ">
<polygon fill="white" stroke="black" points="359.5,-0.5 359.5,-19.5 436.5,-19.5 436.5,-0.5 359.5,-0.5"/>
<text text-anchor="middle" x="398" y="-7.5" font-family="Helvetica,sans-Serif" font-size="10.00">stl/TreeMap.h</text>
</a>
</g>
</g>
<!-- Node10&#45;&gt;Node11 -->
<g id="edge11" class="edge"><title>Node10&#45;&gt;Node11</title>
<path fill="none" stroke="midnightblue" d="M430.579,-48.4314C422.342,-38.9673 412.346,-27.4827 405.617,-19.7511"/>
<polygon fill="midnightblue" stroke="midnightblue" points="428.034,-50.8378 437.239,-56.083 433.314,-46.2421 428.034,-50.8378"/>
</g>
<!-- Node12 -->
<g id="node12" class="node"><title>Node12</title>
<g id="a_node12"><a xlink:href="../../dd/dba/_tree_set_8h.html" target="_top" xlink:title="Set implementation using red black tree. ">
<polygon fill="white" stroke="black" points="454.5,-0.5 454.5,-19.5 527.5,-19.5 527.5,-0.5 454.5,-0.5"/>
<text text-anchor="middle" x="491" y="-7.5" font-family="Helvetica,sans-Serif" font-size="10.00">stl/TreeSet.h</text>
</a>
</g>
</g>
<!-- Node10&#45;&gt;Node12 -->
<g id="edge12" class="edge"><title>Node10&#45;&gt;Node12</title>
<path fill="none" stroke="midnightblue" d="M459.114,-48.4314C467.176,-38.9673 476.959,-27.4827 483.545,-19.7511"/>
<polygon fill="midnightblue" stroke="midnightblue" points="456.416,-46.2009 452.596,-56.083 461.745,-50.7402 456.416,-46.2009"/>
</g>
<!-- Node13&#45;&gt;Node8 -->
<g id="edge14" class="edge"><title>Node13&#45;&gt;Node8</title>
<path fill="none" stroke="midnightblue" d="M362.889,-165.039C391.677,-154.879 432.287,-140.546 457.87,-131.516"/>
<polygon fill="midnightblue" stroke="midnightblue" points="361.508,-161.815 353.243,-168.444 363.838,-168.416 361.508,-161.815"/>
</g>
<!-- Node14 -->
<g id="node14" class="node"><title>Node14</title>
<g id="a_node14"><a xlink:href="../../d3/dbe/_chain_map_8h.html" target="_top" xlink:title="Hasher map implementation. ">
<polygon fill="white" stroke="black" points="296.5,-112.5 296.5,-131.5 379.5,-131.5 379.5,-112.5 296.5,-112.5"/>
<text text-anchor="middle" x="338" y="-119.5" font-family="Helvetica,sans-Serif" font-size="10.00">stl/ChainMap.h</text>
</a>
</g>
</g>
<!-- Node13&#45;&gt;Node14 -->
<g id="edge15" class="edge"><title>Node13&#45;&gt;Node14</title>
<path fill="none" stroke="midnightblue" d="M332.15,-158.101C333.644,-149.136 335.357,-138.858 336.541,-131.751"/>
<polygon fill="midnightblue" stroke="midnightblue" points="328.678,-157.644 330.486,-168.083 335.583,-158.794 328.678,-157.644"/>
</g>
<!-- Node16 -->
<g id="node16" class="node"><title>Node16</title>
<g id="a_node16"><a xlink:href="../../d5/d7a/_open_map_8h.html" target="_top" xlink:title="Hash map implementation. ">
<polygon fill="white" stroke="black" points="198,-112.5 198,-131.5 278,-131.5 278,-112.5 198,-112.5"/>
<text text-anchor="middle" x="238" y="-119.5" font-family="Helvetica,sans-Serif" font-size="10.00">stl/OpenMap.h</text>
</a>
</g>
</g>
<!-- Node13&#45;&gt;Node16 -->
<g id="edge17" class="edge"><title>Node13&#45;&gt;Node16</title>
<path fill="none" stroke="midnightblue" d="M305.706,-163.177C288.961,-153.241 266.9,-140.149 252.584,-131.655"/>
<polygon fill="midnightblue" stroke="midnightblue" points="303.993,-166.231 314.379,-168.324 307.566,-160.211 303.993,-166.231"/>
</g>
<!-- Node17 -->
<g id="node17" class="node"><title>Node17</title>
<g id="a_node17"><a xlink:href="../../d0/de6/_open_set_8h.html" target="_top" xlink:title="Hash set implementation. ">
<polygon fill="white" stroke="black" points="199.5,-56.5 199.5,-75.5 276.5,-75.5 276.5,-56.5 199.5,-56.5"/>
<text text-anchor="middle" x="238" y="-63.5" font-family="Helvetica,sans-Serif" font-size="10.00">stl/OpenSet.h</text>
</a>
</g>
</g>
<!-- Node13&#45;&gt;Node17 -->
<g id="edge19" class="edge"><title>Node13&#45;&gt;Node17</title>
<path fill="none" stroke="midnightblue" d="M355.941,-163.45C377.537,-150.751 402.09,-130.937 388,-112 381.062,-102.675 316.465,-85.7294 274.334,-75.5045"/>
<polygon fill="midnightblue" stroke="midnightblue" points="354.024,-160.512 346.988,-168.433 357.428,-166.628 354.024,-160.512"/>
</g>
<!-- Node15 -->
<g id="node15" class="node"><title>Node15</title>
<g id="a_node15"><a xlink:href="../../d6/d59/_chain_set_8h.html" target="_top" xlink:title="Hash set implementation. ">
<polygon fill="white" stroke="black" points="297.5,-56.5 297.5,-75.5 376.5,-75.5 376.5,-56.5 297.5,-56.5"/>
<text text-anchor="middle" x="337" y="-63.5" font-family="Helvetica,sans-Serif" font-size="10.00">stl/ChainSet.h</text>
</a>
</g>
</g>
<!-- Node14&#45;&gt;Node15 -->
<g id="edge16" class="edge"><title>Node14&#45;&gt;Node15</title>
<path fill="none" stroke="midnightblue" d="M337.645,-101.805C337.48,-92.9102 337.292,-82.7798 337.162,-75.7511"/>
<polygon fill="midnightblue" stroke="midnightblue" points="334.15,-102.15 337.835,-112.083 341.149,-102.02 334.15,-102.15"/>
</g>
<!-- Node16&#45;&gt;Node17 -->
<g id="edge18" class="edge"><title>Node16&#45;&gt;Node17</title>
<path fill="none" stroke="midnightblue" d="M238,-101.805C238,-92.9102 238,-82.7798 238,-75.7511"/>
<polygon fill="midnightblue" stroke="midnightblue" points="234.5,-102.083 238,-112.083 241.5,-102.083 234.5,-102.083"/>
</g>
<!-- Node18&#45;&gt;Node14 -->
<g id="edge21" class="edge"><title>Node18&#45;&gt;Node14</title>
<path fill="none" stroke="midnightblue" d="M271.038,-163.177C287.599,-153.241 309.418,-140.149 323.576,-131.655"/>
<polygon fill="midnightblue" stroke="midnightblue" points="269.234,-160.178 262.46,-168.324 272.836,-166.18 269.234,-160.178"/>
</g>
<!-- Node18&#45;&gt;Node16 -->
<g id="edge22" class="edge"><title>Node18&#45;&gt;Node16</title>
<path fill="none" stroke="midnightblue" d="M244.5,-158.101C242.84,-149.136 240.937,-138.858 239.621,-131.751"/>
<polygon fill="midnightblue" stroke="midnightblue" points="241.086,-158.888 246.349,-168.083 247.969,-157.613 241.086,-158.888"/>
</g>
<!-- Node18&#45;&gt;Node17 -->
<g id="edge23" class="edge"><title>Node18&#45;&gt;Node17</title>
<path fill="none" stroke="midnightblue" d="M220.171,-163.274C208.265,-155.806 195.603,-145.341 189,-132 177.967,-109.709 205.264,-87.3453 223.403,-75.545"/>
<polygon fill="midnightblue" stroke="midnightblue" points="218.609,-166.413 229.016,-168.398 222.118,-160.357 218.609,-166.413"/>
</g>
</g>
</svg>
