<?xml version="1.0" encoding="UTF-8" standalone="no"?>
<!DOCTYPE svg PUBLIC "-//W3C//DTD SVG 1.1//EN"
 "http://www.w3.org/Graphics/SVG/1.1/DTD/svg11.dtd">
<!-- Generated by graphviz version 2.38.0 (20140413.2041)
 -->
<!-- Title: stl/LinkedList.h Pages: 1 -->
<svg width="294pt" height="308pt"
 viewBox="0.00 0.00 294.00 308.00" xmlns="http://www.w3.org/2000/svg" xmlns:xlink="http://www.w3.org/1999/xlink">
<g id="graph0" class="graph" transform="scale(1 1) rotate(0) translate(4 304)">
<title>stl/LinkedList.h</title>
<polygon fill="white" stroke="none" points="-4,4 -4,-304 290,-304 290,4 -4,4"/>
<!-- Node0 -->
<g id="node1" class="node"><title>Node0</title>
<polygon fill="#bfbfbf" stroke="black" points="94,-280.5 94,-299.5 177,-299.5 177,-280.5 94,-280.5"/>
<text text-anchor="middle" x="135.5" y="-287.5" font-family="Helvetica,sans-Serif" font-size="10.00">stl/LinkedList.h</text>
</g>
<!-- Node1 -->
<g id="node2" class="node"><title>Node1</title>
<g id="a_node2"><a xlink:href="../../d3/de6/_memory_8h.html" target="_top" xlink:title="Memory is a class that provides dynamic fixed size memory. ">
<polygon fill="white" stroke="black" points="86.5,-224.5 86.5,-243.5 184.5,-243.5 184.5,-224.5 86.5,-224.5"/>
<text text-anchor="middle" x="135.5" y="-231.5" font-family="Helvetica,sans-Serif" font-size="10.00">memory/Memory.h</text>
</a>
</g>
</g>
<!-- Node0&#45;&gt;Node1 -->
<g id="edge1" class="edge"><title>Node0&#45;&gt;Node1</title>
<path fill="none" stroke="midnightblue" d="M135.5,-280.083C135.5,-273.006 135.5,-262.861 135.5,-253.986"/>
<polygon fill="midnightblue" stroke="midnightblue" points="139,-253.751 135.5,-243.751 132,-253.751 139,-253.751"/>
</g>
<!-- Node2 -->
<g id="node3" class="node"><title>Node2</title>
<g id="a_node3"><a xlink:href="../../db/d2a/_utility_8h.html" target="_top" xlink:title="Various helper functions. ">
<polygon fill="white" stroke="black" points="0,-168.5 0,-187.5 85,-187.5 85,-168.5 0,-168.5"/>
<text text-anchor="middle" x="42.5" y="-175.5" font-family="Helvetica,sans-Serif" font-size="10.00">../utility/Utility.h</text>
</a>
</g>
</g>
<!-- Node0&#45;&gt;Node2 -->
<g id="edge11" class="edge"><title>Node0&#45;&gt;Node2</title>
<path fill="none" stroke="midnightblue" d="M121.254,-280.396C108.594,-272.222 90.1807,-258.981 77.5,-244 65.4904,-229.812 55.855,-210.838 49.7582,-197.054"/>
<polygon fill="midnightblue" stroke="midnightblue" points="52.9189,-195.542 45.8049,-187.691 46.4701,-198.265 52.9189,-195.542"/>
</g>
<!-- Node7 -->
<g id="node8" class="node"><title>Node7</title>
<g id="a_node8"><a xlink:href="../../df/d4d/_allocator_8h.html" target="_top" xlink:title="Allocator is a memory management library where allocations are always of fixed size. ">
<polygon fill="white" stroke="black" points="185,-112.5 185,-131.5 286,-131.5 286,-112.5 185,-112.5"/>
<text text-anchor="middle" x="235.5" y="-119.5" font-family="Helvetica,sans-Serif" font-size="10.00">memory/Allocator.h</text>
</a>
</g>
</g>
<!-- Node0&#45;&gt;Node7 -->
<g id="edge9" class="edge"><title>Node0&#45;&gt;Node7</title>
<path fill="none" stroke="midnightblue" d="M149.804,-280.444C162.503,-272.303 180.94,-259.082 193.5,-244 211.436,-222.462 213.216,-214.446 222.5,-188 227.807,-172.883 231.186,-154.984 233.165,-141.801"/>
<polygon fill="midnightblue" stroke="midnightblue" points="236.671,-141.999 234.557,-131.617 229.735,-141.051 236.671,-141.999"/>
</g>
<!-- Node1&#45;&gt;Node2 -->
<g id="edge2" class="edge"><title>Node1&#45;&gt;Node2</title>
<path fill="none" stroke="midnightblue" d="M120.558,-224.324C105.915,-215.822 83.3663,-202.729 66.2623,-192.797"/>
<polygon fill="midnightblue" stroke="midnightblue" points="67.8104,-189.649 57.405,-187.655 64.2954,-195.703 67.8104,-189.649"/>
</g>
<!-- Node3 -->
<g id="node4" class="node"><title>Node3</title>
<g id="a_node4"><a xlink:href="../../d2/d37/_tmp_8h.html" target="_top" xlink:title="Template helper types, structs, and metafunctions. ">
<polygon fill="white" stroke="black" points="79.5,-112.5 79.5,-131.5 123.5,-131.5 123.5,-112.5 79.5,-112.5"/>
<text text-anchor="middle" x="101.5" y="-119.5" font-family="Helvetica,sans-Serif" font-size="10.00">Tmp.h</text>
</a>
</g>
</g>
<!-- Node1&#45;&gt;Node3 -->
<g id="edge7" class="edge"><title>Node1&#45;&gt;Node3</title>
<path fill="none" stroke="midnightblue" d="M132.832,-224.368C127.32,-206.537 114.573,-165.295 107.148,-141.272"/>
<polygon fill="midnightblue" stroke="midnightblue" points="110.453,-140.112 104.156,-131.591 103.765,-142.179 110.453,-140.112"/>
</g>
<!-- Node4 -->
<g id="node5" class="node"><title>Node4</title>
<g id="a_node5"><a xlink:href="../../d0/db6/_types_8h.html" target="_top" xlink:title="type definition of all the string types we will be using ">
<polygon fill="white" stroke="black" points="121.5,-56.5 121.5,-75.5 181.5,-75.5 181.5,-56.5 121.5,-56.5"/>
<text text-anchor="middle" x="151.5" y="-63.5" font-family="Helvetica,sans-Serif" font-size="10.00">../Types.h</text>
</a>
</g>
</g>
<!-- Node1&#45;&gt;Node4 -->
<g id="edge6" class="edge"><title>Node1&#45;&gt;Node4</title>
<path fill="none" stroke="midnightblue" d="M136.36,-224.075C138.879,-197.945 146.275,-121.211 149.709,-85.577"/>
<polygon fill="midnightblue" stroke="midnightblue" points="153.199,-85.8578 150.674,-75.5681 146.231,-85.1862 153.199,-85.8578"/>
</g>
<!-- Node6 -->
<g id="node7" class="node"><title>Node6</title>
<polygon fill="white" stroke="#bfbfbf" points="179.5,-168.5 179.5,-187.5 213.5,-187.5 213.5,-168.5 179.5,-168.5"/>
<text text-anchor="middle" x="196.5" y="-175.5" font-family="Helvetica,sans-Serif" font-size="10.00">new</text>
</g>
<!-- Node1&#45;&gt;Node6 -->
<g id="edge8" class="edge"><title>Node1&#45;&gt;Node6</title>
<path fill="none" stroke="midnightblue" d="M145.301,-224.324C154.318,-216.341 167.906,-204.313 178.818,-194.653"/>
<polygon fill="midnightblue" stroke="midnightblue" points="181.353,-197.083 186.521,-187.834 176.713,-191.842 181.353,-197.083"/>
</g>
<!-- Node2&#45;&gt;Node3 -->
<g id="edge3" class="edge"><title>Node2&#45;&gt;Node3</title>
<path fill="none" stroke="midnightblue" d="M51.9794,-168.324C60.7011,-160.341 73.8435,-148.313 84.3978,-138.653"/>
<polygon fill="midnightblue" stroke="midnightblue" points="86.8345,-141.167 91.8481,-131.834 82.1083,-136.004 86.8345,-141.167"/>
</g>
<!-- Node3&#45;&gt;Node4 -->
<g id="edge4" class="edge"><title>Node3&#45;&gt;Node4</title>
<path fill="none" stroke="midnightblue" d="M109.756,-112.083C116.965,-104.298 127.61,-92.8015 136.346,-83.3665"/>
<polygon fill="midnightblue" stroke="midnightblue" points="139.171,-85.4666 143.397,-75.7511 134.035,-80.7108 139.171,-85.4666"/>
</g>
<!-- Node5 -->
<g id="node6" class="node"><title>Node5</title>
<polygon fill="white" stroke="#bfbfbf" points="127,-0.5 127,-19.5 176,-19.5 176,-0.5 127,-0.5"/>
<text text-anchor="middle" x="151.5" y="-7.5" font-family="Helvetica,sans-Serif" font-size="10.00">stdint.h</text>
</g>
<!-- Node4&#45;&gt;Node5 -->
<g id="edge5" class="edge"><title>Node4&#45;&gt;Node5</title>
<path fill="none" stroke="midnightblue" d="M151.5,-56.083C151.5,-49.0059 151.5,-38.8611 151.5,-29.9865"/>
<polygon fill="midnightblue" stroke="midnightblue" points="155,-29.751 151.5,-19.7511 148,-29.7511 155,-29.751"/>
</g>
<!-- Node7&#45;&gt;Node4 -->
<g id="edge10" class="edge"><title>Node7&#45;&gt;Node4</title>
<path fill="none" stroke="midnightblue" d="M222.004,-112.324C208.9,-103.9 188.788,-90.9709 173.393,-81.0741"/>
<polygon fill="midnightblue" stroke="midnightblue" points="175.267,-78.118 164.963,-75.6545 171.482,-84.0063 175.267,-78.118"/>
</g>
</g>
</svg>
