<?xml version="1.0" encoding="UTF-8" standalone="no"?>
<!DOCTYPE svg PUBLIC "-//W3C//DTD SVG 1.1//EN"
 "http://www.w3.org/Graphics/SVG/1.1/DTD/svg11.dtd">
<!-- Generated by graphviz version 2.36.0 (20140111.2315)
 -->
<!-- Title: stl/LinkedList.h Pages: 1 -->
<svg width="371pt" height="308pt"
 viewBox="0.00 0.00 371.00 308.00" xmlns="http://www.w3.org/2000/svg" xmlns:xlink="http://www.w3.org/1999/xlink">
<g id="graph0" class="graph" transform="scale(1 1) rotate(0) translate(4 304)">
<title>stl/LinkedList.h</title>
<polygon fill="white" stroke="none" points="-4,4 -4,-304 367,-304 367,4 -4,4"/>
<!-- Node1 -->
<g id="node1" class="node"><title>Node1</title>
<polygon fill="#bfbfbf" stroke="black" points="140.5,-280.5 140.5,-299.5 223.5,-299.5 223.5,-280.5 140.5,-280.5"/>
<text text-anchor="middle" x="182" y="-287.5" font-family="Helvetica,sans-Serif" font-size="10.00">stl/LinkedList.h</text>
</g>
<!-- Node2 -->
<g id="node2" class="node"><title>Node2</title>
<g id="a_node2"><a xlink:href="../../d3/de6/_memory_8h.html" target="_top" xlink:title="Memory is a class that provides dynamic fixed size memory. ">
<polygon fill="white" stroke="black" points="133,-224.5 133,-243.5 231,-243.5 231,-224.5 133,-224.5"/>
<text text-anchor="middle" x="182" y="-231.5" font-family="Helvetica,sans-Serif" font-size="10.00">memory/Memory.h</text>
</a>
</g>
</g>
<!-- Node1&#45;&gt;Node2 -->
<g id="edge1" class="edge"><title>Node1&#45;&gt;Node2</title>
<path fill="none" stroke="midnightblue" d="M182,-280.083C182,-273.006 182,-262.861 182,-253.986"/>
<polygon fill="midnightblue" stroke="midnightblue" points="185.5,-253.751 182,-243.751 178.5,-253.751 185.5,-253.751"/>
</g>
<!-- Node4 -->
<g id="node4" class="node"><title>Node4</title>
<g id="a_node4"><a xlink:href="../../db/d2a/_utility_8h.html" target="_top" xlink:title="Various helper functions. ">
<polygon fill="white" stroke="black" points="0,-168.5 0,-187.5 86,-187.5 86,-168.5 0,-168.5"/>
<text text-anchor="middle" x="43" y="-175.5" font-family="Helvetica,sans-Serif" font-size="10.00">../utility/Utility.h</text>
</a>
</g>
</g>
<!-- Node1&#45;&gt;Node4 -->
<g id="edge13" class="edge"><title>Node1&#45;&gt;Node4</title>
<path fill="none" stroke="midnightblue" d="M170.839,-280.427C159.129,-271.413 140.208,-256.79 124,-244 102.622,-227.131 78.2759,-207.543 61.9045,-194.315"/>
<polygon fill="midnightblue" stroke="midnightblue" points="63.6754,-191.245 53.6992,-187.678 59.2732,-196.688 63.6754,-191.245"/>
</g>
<!-- Node10 -->
<g id="node10" class="node"><title>Node10</title>
<g id="a_node10"><a xlink:href="../../df/d4d/_allocator_8h.html" target="_top" xlink:title="Allocator is a memory management library where allocations are always of fixed size. ">
<polygon fill="white" stroke="black" points="261.5,-224.5 261.5,-243.5 362.5,-243.5 362.5,-224.5 261.5,-224.5"/>
<text text-anchor="middle" x="312" y="-231.5" font-family="Helvetica,sans-Serif" font-size="10.00">memory/Allocator.h</text>
</a>
</g>
</g>
<!-- Node1&#45;&gt;Node10 -->
<g id="edge11" class="edge"><title>Node1&#45;&gt;Node10</title>
<path fill="none" stroke="midnightblue" d="M202.599,-280.444C223.993,-271.557 257.681,-257.563 282.024,-247.451"/>
<polygon fill="midnightblue" stroke="midnightblue" points="283.605,-250.585 291.497,-243.516 280.92,-244.12 283.605,-250.585"/>
</g>
<!-- Node3 -->
<g id="node3" class="node"><title>Node3</title>
<polygon fill="white" stroke="#bfbfbf" points="104.5,-168.5 104.5,-187.5 153.5,-187.5 153.5,-168.5 104.5,-168.5"/>
<text text-anchor="middle" x="129" y="-175.5" font-family="Helvetica,sans-Serif" font-size="10.00">string.h</text>
</g>
<!-- Node2&#45;&gt;Node3 -->
<g id="edge2" class="edge"><title>Node2&#45;&gt;Node3</title>
<path fill="none" stroke="midnightblue" d="M173.248,-224.083C165.53,-216.22 154.095,-204.569 144.783,-195.081"/>
<polygon fill="midnightblue" stroke="midnightblue" points="147.092,-192.436 137.589,-187.751 142.096,-197.34 147.092,-192.436"/>
</g>
<!-- Node2&#45;&gt;Node4 -->
<g id="edge3" class="edge"><title>Node2&#45;&gt;Node4</title>
<path fill="none" stroke="midnightblue" d="M159.975,-224.444C136.896,-215.478 100.438,-201.314 74.3591,-191.183"/>
<polygon fill="midnightblue" stroke="midnightblue" points="75.5107,-187.875 64.9219,-187.516 72.9758,-194.4 75.5107,-187.875"/>
</g>
<!-- Node5 -->
<g id="node5" class="node"><title>Node5</title>
<g id="a_node5"><a xlink:href="../../d2/d37/_tmp_8h.html" target="_top" xlink:title="Template helper types, structs, and metafunctions. ">
<polygon fill="white" stroke="black" points="148,-112.5 148,-131.5 192,-131.5 192,-112.5 148,-112.5"/>
<text text-anchor="middle" x="170" y="-119.5" font-family="Helvetica,sans-Serif" font-size="10.00">Tmp.h</text>
</a>
</g>
</g>
<!-- Node2&#45;&gt;Node5 -->
<g id="edge8" class="edge"><title>Node2&#45;&gt;Node5</title>
<path fill="none" stroke="midnightblue" d="M181.058,-224.368C179.122,-206.617 174.655,-165.666 172.029,-141.597"/>
<polygon fill="midnightblue" stroke="midnightblue" points="175.501,-141.153 170.937,-131.591 168.542,-141.912 175.501,-141.153"/>
</g>
<!-- Node6 -->
<g id="node6" class="node"><title>Node6</title>
<g id="a_node6"><a xlink:href="../../d0/db6/_types_8h.html" target="_top" xlink:title="type definition of all the string types we will be using ">
<polygon fill="white" stroke="black" points="189.5,-56.5 189.5,-75.5 250.5,-75.5 250.5,-56.5 189.5,-56.5"/>
<text text-anchor="middle" x="220" y="-63.5" font-family="Helvetica,sans-Serif" font-size="10.00">../Types.h</text>
</a>
</g>
</g>
<!-- Node2&#45;&gt;Node6 -->
<g id="edge7" class="edge"><title>Node2&#45;&gt;Node6</title>
<path fill="none" stroke="midnightblue" d="M184.043,-224.075C190.025,-197.945 207.59,-121.211 215.747,-85.577"/>
<polygon fill="midnightblue" stroke="midnightblue" points="219.219,-86.097 218.039,-75.5681 212.395,-84.5349 219.219,-86.097"/>
</g>
<!-- Node8 -->
<g id="node8" class="node"><title>Node8</title>
<g id="a_node8"><a xlink:href="../../d9/d8a/_new_8h.html" target="_top" xlink:title="New operators defined for Arduino boards and for other boards use the normal new. ...">
<polygon fill="white" stroke="black" points="248.5,-168.5 248.5,-187.5 293.5,-187.5 293.5,-168.5 248.5,-168.5"/>
<text text-anchor="middle" x="271" y="-175.5" font-family="Helvetica,sans-Serif" font-size="10.00">New.h</text>
</a>
</g>
</g>
<!-- Node2&#45;&gt;Node8 -->
<g id="edge9" class="edge"><title>Node2&#45;&gt;Node8</title>
<path fill="none" stroke="midnightblue" d="M196.299,-224.324C210.183,-215.9 231.492,-202.971 247.804,-193.074"/>
<polygon fill="midnightblue" stroke="midnightblue" points="250.002,-195.834 256.736,-187.655 246.371,-189.85 250.002,-195.834"/>
</g>
<!-- Node4&#45;&gt;Node5 -->
<g id="edge4" class="edge"><title>Node4&#45;&gt;Node5</title>
<path fill="none" stroke="midnightblue" d="M63.1235,-168.444C84.0243,-159.557 116.935,-145.563 140.716,-135.451"/>
<polygon fill="midnightblue" stroke="midnightblue" points="142.138,-138.65 149.971,-131.516 139.398,-132.208 142.138,-138.65"/>
</g>
<!-- Node5&#45;&gt;Node6 -->
<g id="edge5" class="edge"><title>Node5&#45;&gt;Node6</title>
<path fill="none" stroke="midnightblue" d="M178.256,-112.083C185.465,-104.298 196.11,-92.8015 204.846,-83.3665"/>
<polygon fill="midnightblue" stroke="midnightblue" points="207.671,-85.4666 211.897,-75.7511 202.535,-80.7108 207.671,-85.4666"/>
</g>
<!-- Node7 -->
<g id="node7" class="node"><title>Node7</title>
<polygon fill="white" stroke="#bfbfbf" points="195.5,-0.5 195.5,-19.5 244.5,-19.5 244.5,-0.5 195.5,-0.5"/>
<text text-anchor="middle" x="220" y="-7.5" font-family="Helvetica,sans-Serif" font-size="10.00">stdint.h</text>
</g>
<!-- Node6&#45;&gt;Node7 -->
<g id="edge6" class="edge"><title>Node6&#45;&gt;Node7</title>
<path fill="none" stroke="midnightblue" d="M220,-56.083C220,-49.0059 220,-38.8611 220,-29.9865"/>
<polygon fill="midnightblue" stroke="midnightblue" points="223.5,-29.751 220,-19.7511 216.5,-29.7511 223.5,-29.751"/>
</g>
<!-- Node9 -->
<g id="node9" class="node"><title>Node9</title>
<polygon fill="white" stroke="#bfbfbf" points="248,-112.5 248,-131.5 296,-131.5 296,-112.5 248,-112.5"/>
<text text-anchor="middle" x="272" y="-119.5" font-family="Helvetica,sans-Serif" font-size="10.00">stdlib.h</text>
</g>
<!-- Node8&#45;&gt;Node9 -->
<g id="edge10" class="edge"><title>Node8&#45;&gt;Node9</title>
<path fill="none" stroke="midnightblue" d="M271.165,-168.083C271.296,-161.006 271.484,-150.861 271.648,-141.986"/>
<polygon fill="midnightblue" stroke="midnightblue" points="275.152,-141.814 271.838,-131.751 268.153,-141.685 275.152,-141.814"/>
</g>
<!-- Node10&#45;&gt;Node6 -->
<g id="edge12" class="edge"><title>Node10&#45;&gt;Node6</title>
<path fill="none" stroke="midnightblue" d="M314.192,-224.21C318.959,-202.967 328.081,-147.943 305,-112 294.818,-96.1444 277.095,-85.5232 260.459,-78.6026"/>
<polygon fill="midnightblue" stroke="midnightblue" points="261.445,-75.233 250.854,-74.9439 258.953,-81.7745 261.445,-75.233"/>
</g>
</g>
</svg>
