<?xml version="1.0" encoding="UTF-8" standalone="no"?>
<!DOCTYPE svg PUBLIC "-//W3C//DTD SVG 1.1//EN"
 "http://www.w3.org/Graphics/SVG/1.1/DTD/svg11.dtd">
<!-- Generated by graphviz version 2.36.0 (20140111.2315)
 -->
<!-- Title: comm/PacketConstructor.cpp Pages: 1 -->
<svg width="526pt" height="588pt"
 viewBox="0.00 0.00 525.76 588.00" xmlns="http://www.w3.org/2000/svg" xmlns:xlink="http://www.w3.org/1999/xlink">
<g id="graph0" class="graph" transform="scale(1 1) rotate(0) translate(4 584)">
<title>comm/PacketConstructor.cpp</title>
<polygon fill="white" stroke="none" points="-4,4 -4,-584 521.759,-584 521.759,4 -4,4"/>
<!-- Node1 -->
<g id="node1" class="node"><title>Node1</title>
<polygon fill="#bfbfbf" stroke="black" points="-0.5,-560.5 -0.5,-579.5 146.5,-579.5 146.5,-560.5 -0.5,-560.5"/>
<text text-anchor="middle" x="73" y="-567.5" font-family="Helvetica,sans-Serif" font-size="10.00">comm/PacketConstructor.cpp</text>
</g>
<!-- Node2 -->
<g id="node2" class="node"><title>Node2</title>
<g id="a_node2"><a xlink:href="../../de/d66/_packet_constructor_8h.html" target="_top" xlink:title="PacketConstructor.h">
<polygon fill="white" stroke="black" points="19.5,-504.5 19.5,-523.5 126.5,-523.5 126.5,-504.5 19.5,-504.5"/>
<text text-anchor="middle" x="73" y="-511.5" font-family="Helvetica,sans-Serif" font-size="10.00">PacketConstructor.h</text>
</a>
</g>
</g>
<!-- Node1&#45;&gt;Node2 -->
<g id="edge1" class="edge"><title>Node1&#45;&gt;Node2</title>
<path fill="none" stroke="midnightblue" d="M73,-560.083C73,-553.006 73,-542.861 73,-533.986"/>
<polygon fill="midnightblue" stroke="midnightblue" points="76.5001,-533.751 73,-523.751 69.5001,-533.751 76.5001,-533.751"/>
</g>
<!-- Node3 -->
<g id="node3" class="node"><title>Node3</title>
<g id="a_node3"><a xlink:href="../../d0/db6/_types_8h.html" target="_top" xlink:title="type definition of all the string types we will be using ">
<polygon fill="white" stroke="black" points="109.5,-56.5 109.5,-75.5 170.5,-75.5 170.5,-56.5 109.5,-56.5"/>
<text text-anchor="middle" x="140" y="-63.5" font-family="Helvetica,sans-Serif" font-size="10.00">../Types.h</text>
</a>
</g>
</g>
<!-- Node2&#45;&gt;Node3 -->
<g id="edge2" class="edge"><title>Node2&#45;&gt;Node3</title>
<path fill="none" stroke="midnightblue" d="M62.0647,-504.297C41.923,-487.203 1,-447.051 1,-403 1,-403 1,-403 1,-177 1,-125.575 60.2251,-94.4164 101.357,-78.9776"/>
<polygon fill="midnightblue" stroke="midnightblue" points="102.632,-82.2387 110.861,-75.5652 100.267,-75.6505 102.632,-82.2387"/>
</g>
<!-- Node5 -->
<g id="node5" class="node"><title>Node5</title>
<g id="a_node5"><a xlink:href="../../de/d6d/_bitset_8h.html" target="_top" xlink:title="Bitset is a class that provides bits manipulation methods. ">
<polygon fill="white" stroke="black" points="109.5,-448.5 109.5,-467.5 182.5,-467.5 182.5,-448.5 109.5,-448.5"/>
<text text-anchor="middle" x="146" y="-455.5" font-family="Helvetica,sans-Serif" font-size="10.00">../stl/Bitset.h</text>
</a>
</g>
</g>
<!-- Node2&#45;&gt;Node5 -->
<g id="edge4" class="edge"><title>Node2&#45;&gt;Node5</title>
<path fill="none" stroke="midnightblue" d="M84.7287,-504.324C95.8374,-496.107 112.742,-483.602 125.983,-473.807"/>
<polygon fill="midnightblue" stroke="midnightblue" points="128.1,-476.595 134.058,-467.834 123.937,-470.967 128.1,-476.595"/>
</g>
<!-- Node4 -->
<g id="node4" class="node"><title>Node4</title>
<polygon fill="white" stroke="#bfbfbf" points="115.5,-0.5 115.5,-19.5 164.5,-19.5 164.5,-0.5 115.5,-0.5"/>
<text text-anchor="middle" x="140" y="-7.5" font-family="Helvetica,sans-Serif" font-size="10.00">stdint.h</text>
</g>
<!-- Node3&#45;&gt;Node4 -->
<g id="edge3" class="edge"><title>Node3&#45;&gt;Node4</title>
<path fill="none" stroke="midnightblue" d="M140,-56.083C140,-49.0059 140,-38.8611 140,-29.9865"/>
<polygon fill="midnightblue" stroke="midnightblue" points="143.5,-29.751 140,-19.7511 136.5,-29.7511 143.5,-29.751"/>
</g>
<!-- Node5&#45;&gt;Node3 -->
<g id="edge7" class="edge"><title>Node5&#45;&gt;Node3</title>
<path fill="none" stroke="midnightblue" d="M127.362,-448.441C96.7058,-432.932 39,-397.087 39,-347 39,-347 39,-347 39,-177 39,-132.593 84.2128,-98.3671 114.138,-80.5772"/>
<polygon fill="midnightblue" stroke="midnightblue" points="115.92,-83.5901 122.867,-75.5909 112.447,-77.5119 115.92,-83.5901"/>
</g>
<!-- Node6 -->
<g id="node6" class="node"><title>Node6</title>
<polygon fill="white" stroke="#bfbfbf" points="353.5,-392.5 353.5,-411.5 400.5,-411.5 400.5,-392.5 353.5,-392.5"/>
<text text-anchor="middle" x="377" y="-399.5" font-family="Helvetica,sans-Serif" font-size="10.00">math.h</text>
</g>
<!-- Node5&#45;&gt;Node6 -->
<g id="edge5" class="edge"><title>Node5&#45;&gt;Node6</title>
<path fill="none" stroke="midnightblue" d="M182.604,-449.172C220.405,-440.98 281.327,-427.475 343.289,-412.095"/>
<polygon fill="midnightblue" stroke="midnightblue" points="344.384,-415.429 353.239,-409.611 342.689,-408.637 344.384,-415.429"/>
</g>
<!-- Node7 -->
<g id="node7" class="node"><title>Node7</title>
<polygon fill="white" stroke="#bfbfbf" points="245.5,-280.5 245.5,-299.5 294.5,-299.5 294.5,-280.5 245.5,-280.5"/>
<text text-anchor="middle" x="270" y="-287.5" font-family="Helvetica,sans-Serif" font-size="10.00">string.h</text>
</g>
<!-- Node5&#45;&gt;Node7 -->
<g id="edge6" class="edge"><title>Node5&#45;&gt;Node7</title>
<path fill="none" stroke="midnightblue" d="M152.667,-448.075C172.523,-421.493 231.502,-342.538 257.478,-307.763"/>
<polygon fill="midnightblue" stroke="midnightblue" points="260.419,-309.674 263.6,-299.568 254.811,-305.485 260.419,-309.674"/>
</g>
<!-- Node8 -->
<g id="node8" class="node"><title>Node8</title>
<g id="a_node8"><a xlink:href="../../d2/db4/_wlib_8h.html" target="_top" xlink:title="../Wlib.h">
<polygon fill="white" stroke="black" points="105.5,-224.5 105.5,-243.5 158.5,-243.5 158.5,-224.5 105.5,-224.5"/>
<text text-anchor="middle" x="132" y="-231.5" font-family="Helvetica,sans-Serif" font-size="10.00">../Wlib.h</text>
</a>
</g>
</g>
<!-- Node5&#45;&gt;Node8 -->
<g id="edge8" class="edge"><title>Node5&#45;&gt;Node8</title>
<path fill="none" stroke="midnightblue" d="M139.969,-448.341C128.653,-431.503 104.603,-392.769 96,-356 87.262,-318.654 107.293,-275.824 120.844,-252.459"/>
<polygon fill="midnightblue" stroke="midnightblue" points="123.957,-254.075 126.152,-243.71 117.973,-250.444 123.957,-254.075"/>
</g>
<!-- Node9 -->
<g id="node9" class="node"><title>Node9</title>
<g id="a_node9"><a xlink:href="../../db/db5/_string_8h.html" target="_top" xlink:title="../strings/String.h">
<polygon fill="white" stroke="black" points="243,-392.5 243,-411.5 335,-411.5 335,-392.5 243,-392.5"/>
<text text-anchor="middle" x="289" y="-399.5" font-family="Helvetica,sans-Serif" font-size="10.00">../strings/String.h</text>
</a>
</g>
</g>
<!-- Node5&#45;&gt;Node9 -->
<g id="edge9" class="edge"><title>Node5&#45;&gt;Node9</title>
<path fill="none" stroke="midnightblue" d="M168.659,-448.444C192.402,-439.478 229.909,-425.314 256.738,-415.183"/>
<polygon fill="midnightblue" stroke="midnightblue" points="258.329,-418.324 266.447,-411.516 255.856,-411.775 258.329,-418.324"/>
</g>
<!-- Node9&#45;&gt;Node3 -->
<g id="edge22" class="edge"><title>Node9&#45;&gt;Node3</title>
<path fill="none" stroke="midnightblue" d="M334.203,-392.483C393.826,-381.073 491.97,-361.609 498,-356 520.038,-335.501 517,-321.098 517,-291 517,-291 517,-291 517,-177 517,-107.516 278.016,-78.9461 180.599,-70.1865"/>
<polygon fill="midnightblue" stroke="midnightblue" points="180.799,-66.6908 170.532,-69.3069 180.189,-73.6642 180.799,-66.6908"/>
</g>
<!-- Node9&#45;&gt;Node7 -->
<g id="edge10" class="edge"><title>Node9&#45;&gt;Node7</title>
<path fill="none" stroke="midnightblue" d="M284.719,-392.291C280.592,-383.408 274.602,-369.106 272,-356 268.939,-340.583 268.616,-322.711 268.958,-309.613"/>
<polygon fill="midnightblue" stroke="midnightblue" points="272.459,-309.651 269.378,-299.514 265.465,-309.36 272.459,-309.651"/>
</g>
<!-- Node10 -->
<g id="node10" class="node"><title>Node10</title>
<g id="a_node10"><a xlink:href="../../de/d0b/_string_iterator_8h.html" target="_top" xlink:title="StringIterator.h">
<polygon fill="white" stroke="black" points="105.5,-336.5 105.5,-355.5 186.5,-355.5 186.5,-336.5 105.5,-336.5"/>
<text text-anchor="middle" x="146" y="-343.5" font-family="Helvetica,sans-Serif" font-size="10.00">StringIterator.h</text>
</a>
</g>
</g>
<!-- Node9&#45;&gt;Node10 -->
<g id="edge11" class="edge"><title>Node9&#45;&gt;Node10</title>
<path fill="none" stroke="midnightblue" d="M266.341,-392.444C242.598,-383.478 205.091,-369.314 178.262,-359.183"/>
<polygon fill="midnightblue" stroke="midnightblue" points="179.144,-355.775 168.553,-355.516 176.671,-362.324 179.144,-355.775"/>
</g>
<!-- Node16 -->
<g id="node16" class="node"><title>Node16</title>
<g id="a_node16"><a xlink:href="../../da/db8/_math_8h.html" target="_top" xlink:title="../utility/Math.h">
<polygon fill="white" stroke="black" points="407,-336.5 407,-355.5 489,-355.5 489,-336.5 407,-336.5"/>
<text text-anchor="middle" x="448" y="-343.5" font-family="Helvetica,sans-Serif" font-size="10.00">../utility/Math.h</text>
</a>
</g>
</g>
<!-- Node9&#45;&gt;Node16 -->
<g id="edge23" class="edge"><title>Node9&#45;&gt;Node16</title>
<path fill="none" stroke="midnightblue" d="M314.194,-392.444C340.943,-383.359 383.403,-368.939 413.305,-358.783"/>
<polygon fill="midnightblue" stroke="midnightblue" points="414.581,-362.046 422.924,-355.516 412.329,-355.418 414.581,-362.046"/>
</g>
<!-- Node17 -->
<g id="node17" class="node"><title>Node17</title>
<g id="a_node17"><a xlink:href="../../d3/de6/_memory_8h.html" target="_top" xlink:title="Memory is a class that provides dynamic fixed size memory. ">
<polygon fill="white" stroke="black" points="281.5,-336.5 281.5,-355.5 388.5,-355.5 388.5,-336.5 281.5,-336.5"/>
<text text-anchor="middle" x="335" y="-343.5" font-family="Helvetica,sans-Serif" font-size="10.00">../memory/Memory.h</text>
</a>
</g>
</g>
<!-- Node9&#45;&gt;Node17 -->
<g id="edge24" class="edge"><title>Node9&#45;&gt;Node17</title>
<path fill="none" stroke="midnightblue" d="M296.596,-392.083C303.227,-384.298 313.021,-372.801 321.058,-363.367"/>
<polygon fill="midnightblue" stroke="midnightblue" points="323.725,-365.633 327.545,-355.751 318.396,-361.094 323.725,-365.633"/>
</g>
<!-- Node10&#45;&gt;Node3 -->
<g id="edge12" class="edge"><title>Node10&#45;&gt;Node3</title>
<path fill="none" stroke="midnightblue" d="M139.969,-336.341C128.653,-319.503 104.603,-280.769 96,-244 82.3304,-185.576 113.005,-116.665 129.866,-84.8023"/>
<polygon fill="midnightblue" stroke="midnightblue" points="133.051,-86.2721 134.781,-75.8194 126.911,-82.9119 133.051,-86.2721"/>
</g>
<!-- Node11 -->
<g id="node11" class="node"><title>Node11</title>
<g id="a_node11"><a xlink:href="../../d8/dd7/_concept_8h.html" target="_top" xlink:title="Concept definitions. ">
<polygon fill="white" stroke="black" points="144,-280.5 144,-299.5 228,-299.5 228,-280.5 144,-280.5"/>
<text text-anchor="middle" x="186" y="-287.5" font-family="Helvetica,sans-Serif" font-size="10.00">../stl/Concept.h</text>
</a>
</g>
</g>
<!-- Node10&#45;&gt;Node11 -->
<g id="edge13" class="edge"><title>Node10&#45;&gt;Node11</title>
<path fill="none" stroke="midnightblue" d="M152.605,-336.083C158.255,-328.455 166.545,-317.264 173.451,-307.941"/>
<polygon fill="midnightblue" stroke="midnightblue" points="176.378,-309.87 179.518,-299.751 170.753,-305.703 176.378,-309.87"/>
</g>
<!-- Node11&#45;&gt;Node8 -->
<g id="edge20" class="edge"><title>Node11&#45;&gt;Node8</title>
<path fill="none" stroke="midnightblue" d="M177.083,-280.083C169.22,-272.22 157.569,-260.569 148.081,-251.081"/>
<polygon fill="midnightblue" stroke="midnightblue" points="150.297,-248.347 140.751,-243.751 145.347,-253.297 150.297,-248.347"/>
</g>
<!-- Node12 -->
<g id="node12" class="node"><title>Node12</title>
<g id="a_node12"><a xlink:href="../../d4/dda/_pair_8h.html" target="_top" xlink:title="Implementation of a 2&#45;element tuple. ">
<polygon fill="white" stroke="black" points="256,-224.5 256,-243.5 298,-243.5 298,-224.5 256,-224.5"/>
<text text-anchor="middle" x="277" y="-231.5" font-family="Helvetica,sans-Serif" font-size="10.00">Pair.h</text>
</a>
</g>
</g>
<!-- Node11&#45;&gt;Node12 -->
<g id="edge14" class="edge"><title>Node11&#45;&gt;Node12</title>
<path fill="none" stroke="midnightblue" d="M200.621,-280.324C214.949,-271.822 237.013,-258.729 253.749,-248.797"/>
<polygon fill="midnightblue" stroke="midnightblue" points="255.602,-251.768 262.416,-243.655 252.03,-245.748 255.602,-251.768"/>
</g>
<!-- Node14 -->
<g id="node14" class="node"><title>Node14</title>
<g id="a_node14"><a xlink:href="../../d2/d37/_tmp_8h.html" target="_top" xlink:title="Template helper types, structs, and metafunctions. ">
<polygon fill="white" stroke="black" points="181,-112.5 181,-131.5 225,-131.5 225,-112.5 181,-112.5"/>
<text text-anchor="middle" x="203" y="-119.5" font-family="Helvetica,sans-Serif" font-size="10.00">Tmp.h</text>
</a>
</g>
</g>
<!-- Node11&#45;&gt;Node14 -->
<g id="edge21" class="edge"><title>Node11&#45;&gt;Node14</title>
<path fill="none" stroke="midnightblue" d="M183.455,-280.341C176.793,-257.608 159.269,-197.331 158,-188 156.802,-179.192 154.598,-176.212 158,-168 162.92,-156.121 172.667,-145.743 181.834,-137.956"/>
<polygon fill="midnightblue" stroke="midnightblue" points="184.253,-140.506 189.936,-131.564 179.917,-135.01 184.253,-140.506"/>
</g>
<!-- Node15 -->
<g id="node15" class="node"><title>Node15</title>
<g id="a_node15"><a xlink:href="../../d4/dd5/_type_traits_8h.html" target="_top" xlink:title="Metafunctions for types. ">
<polygon fill="white" stroke="black" points="167.5,-168.5 167.5,-187.5 238.5,-187.5 238.5,-168.5 167.5,-168.5"/>
<text text-anchor="middle" x="203" y="-175.5" font-family="Helvetica,sans-Serif" font-size="10.00">TypeTraits.h</text>
</a>
</g>
</g>
<!-- Node11&#45;&gt;Node15 -->
<g id="edge18" class="edge"><title>Node11&#45;&gt;Node15</title>
<path fill="none" stroke="midnightblue" d="M189.771,-280.234C193.408,-271.307 198.69,-256.972 201,-244 203.725,-228.698 204.098,-211.055 203.86,-198.015"/>
<polygon fill="midnightblue" stroke="midnightblue" points="207.355,-197.799 203.538,-187.915 200.358,-198.022 207.355,-197.799"/>
</g>
<!-- Node13 -->
<g id="node13" class="node"><title>Node13</title>
<g id="a_node13"><a xlink:href="../../db/d2a/_utility_8h.html" target="_top" xlink:title="Various helper functions. ">
<polygon fill="white" stroke="black" points="257,-168.5 257,-187.5 343,-187.5 343,-168.5 257,-168.5"/>
<text text-anchor="middle" x="300" y="-175.5" font-family="Helvetica,sans-Serif" font-size="10.00">../utility/Utility.h</text>
</a>
</g>
</g>
<!-- Node12&#45;&gt;Node13 -->
<g id="edge15" class="edge"><title>Node12&#45;&gt;Node13</title>
<path fill="none" stroke="midnightblue" d="M280.798,-224.083C283.913,-216.77 288.423,-206.181 292.289,-197.103"/>
<polygon fill="midnightblue" stroke="midnightblue" points="295.574,-198.323 296.273,-187.751 289.134,-195.58 295.574,-198.323"/>
</g>
<!-- Node13&#45;&gt;Node14 -->
<g id="edge16" class="edge"><title>Node13&#45;&gt;Node14</title>
<path fill="none" stroke="midnightblue" d="M284.415,-168.324C269.001,-159.743 245.188,-146.486 227.29,-136.522"/>
<polygon fill="midnightblue" stroke="midnightblue" points="228.986,-133.461 218.546,-131.655 225.581,-139.577 228.986,-133.461"/>
</g>
<!-- Node14&#45;&gt;Node3 -->
<g id="edge17" class="edge"><title>Node14&#45;&gt;Node3</title>
<path fill="none" stroke="midnightblue" d="M192.878,-112.324C183.474,-104.263 169.256,-92.0765 157.931,-82.3695"/>
<polygon fill="midnightblue" stroke="midnightblue" points="160.177,-79.6844 150.306,-75.8339 155.621,-84.9993 160.177,-79.6844"/>
</g>
<!-- Node15&#45;&gt;Node14 -->
<g id="edge19" class="edge"><title>Node15&#45;&gt;Node14</title>
<path fill="none" stroke="midnightblue" d="M203,-168.083C203,-161.006 203,-150.861 203,-141.986"/>
<polygon fill="midnightblue" stroke="midnightblue" points="206.5,-141.751 203,-131.751 199.5,-141.751 206.5,-141.751"/>
</g>
<!-- Node17&#45;&gt;Node3 -->
<g id="edge27" class="edge"><title>Node17&#45;&gt;Node3</title>
<path fill="none" stroke="midnightblue" d="M346.239,-336.364C366.94,-319.385 409,-279.422 409,-235 409,-235 409,-235 409,-177 409,-128.269 255.846,-90.4501 180.663,-74.8205"/>
<polygon fill="midnightblue" stroke="midnightblue" points="181.094,-71.3363 170.596,-72.7635 179.693,-78.1946 181.094,-71.3363"/>
</g>
<!-- Node17&#45;&gt;Node7 -->
<g id="edge25" class="edge"><title>Node17&#45;&gt;Node7</title>
<path fill="none" stroke="midnightblue" d="M324.557,-336.324C314.854,-328.263 300.185,-316.077 288.5,-306.369"/>
<polygon fill="midnightblue" stroke="midnightblue" points="290.562,-303.532 280.633,-299.834 286.089,-308.916 290.562,-303.532"/>
</g>
<!-- Node17&#45;&gt;Node13 -->
<g id="edge26" class="edge"><title>Node17&#45;&gt;Node13</title>
<path fill="none" stroke="midnightblue" d="M333.118,-336.075C327.609,-309.945 311.43,-233.211 303.917,-197.577"/>
<polygon fill="midnightblue" stroke="midnightblue" points="307.294,-196.631 301.807,-187.568 300.445,-198.075 307.294,-196.631"/>
</g>
<!-- Node17&#45;&gt;Node14 -->
<g id="edge28" class="edge"><title>Node17&#45;&gt;Node14</title>
<path fill="none" stroke="midnightblue" d="M339.596,-336.164C353.401,-308.267 391.202,-220.79 352,-168 325.282,-132.021 270.649,-123.773 235.482,-122.425"/>
<polygon fill="midnightblue" stroke="midnightblue" points="235.319,-118.921 225.246,-122.206 235.168,-125.92 235.319,-118.921"/>
</g>
<!-- Node18 -->
<g id="node18" class="node"><title>Node18</title>
<g id="a_node18"><a xlink:href="../../d9/d8a/_new_8h.html" target="_top" xlink:title="New operators defined for Arduino boards and for other boards use the normal new. ...">
<polygon fill="white" stroke="black" points="437.5,-280.5 437.5,-299.5 482.5,-299.5 482.5,-280.5 437.5,-280.5"/>
<text text-anchor="middle" x="460" y="-287.5" font-family="Helvetica,sans-Serif" font-size="10.00">New.h</text>
</a>
</g>
</g>
<!-- Node17&#45;&gt;Node18 -->
<g id="edge29" class="edge"><title>Node17&#45;&gt;Node18</title>
<path fill="none" stroke="midnightblue" d="M354.807,-336.444C375.287,-327.596 407.483,-313.687 430.865,-303.586"/>
<polygon fill="midnightblue" stroke="midnightblue" points="432.494,-306.695 440.286,-299.516 429.718,-300.269 432.494,-306.695"/>
</g>
<!-- Node19 -->
<g id="node19" class="node"><title>Node19</title>
<polygon fill="white" stroke="#bfbfbf" points="437,-224.5 437,-243.5 485,-243.5 485,-224.5 437,-224.5"/>
<text text-anchor="middle" x="461" y="-231.5" font-family="Helvetica,sans-Serif" font-size="10.00">stdlib.h</text>
</g>
<!-- Node18&#45;&gt;Node19 -->
<g id="edge30" class="edge"><title>Node18&#45;&gt;Node19</title>
<path fill="none" stroke="midnightblue" d="M460.165,-280.083C460.296,-273.006 460.484,-262.861 460.648,-253.986"/>
<polygon fill="midnightblue" stroke="midnightblue" points="464.152,-253.814 460.838,-243.751 457.153,-253.685 464.152,-253.814"/>
</g>
</g>
</svg>
