<?xml version="1.0" encoding="UTF-8" standalone="no"?>
<!DOCTYPE svg PUBLIC "-//W3C//DTD SVG 1.1//EN"
 "http://www.w3.org/Graphics/SVG/1.1/DTD/svg11.dtd">
<!-- Generated by graphviz version 2.36.0 (20140111.2315)
 -->
<!-- Title: comm/PacketConstructor.cpp Pages: 1 -->
<svg width="526pt" height="588pt"
 viewBox="0.00 0.00 525.76 588.00" xmlns="http://www.w3.org/2000/svg" xmlns:xlink="http://www.w3.org/1999/xlink">
<g id="graph0" class="graph" transform="scale(1 1) rotate(0) translate(4 584)">
<title>comm/PacketConstructor.cpp</title>
<polygon fill="white" stroke="none" points="-4,4 -4,-584 521.759,-584 521.759,4 -4,4"/>
<!-- Node1 -->
<g id="node1" class="node"><title>Node1</title>
<polygon fill="#bfbfbf" stroke="black" points="-0.5,-560.5 -0.5,-579.5 146.5,-579.5 146.5,-560.5 -0.5,-560.5"/>
<text text-anchor="middle" x="73" y="-567.5" font-family="Helvetica,sans-Serif" font-size="10.00">comm/PacketConstructor.cpp</text>
</g>
<!-- Node2 -->
<g id="node2" class="node"><title>Node2</title>
<g id="a_node2"><a xlink:href="../../de/d66/_packet_constructor_8h.html" target="_top" xlink:title="PacketConstructor.h">
<polygon fill="white" stroke="black" points="19.5,-504.5 19.5,-523.5 126.5,-523.5 126.5,-504.5 19.5,-504.5"/>
<text text-anchor="middle" x="73" y="-511.5" font-family="Helvetica,sans-Serif" font-size="10.00">PacketConstructor.h</text>
</a>
</g>
</g>
<!-- Node1&#45;&gt;Node2 -->
<g id="edge1" class="edge"><title>Node1&#45;&gt;Node2</title>
<path fill="none" stroke="midnightblue" d="M73,-560.083C73,-553.006 73,-542.861 73,-533.986"/>
<polygon fill="midnightblue" stroke="midnightblue" points="76.5001,-533.751 73,-523.751 69.5001,-533.751 76.5001,-533.751"/>
</g>
<!-- Node3 -->
<g id="node3" class="node"><title>Node3</title>
<g id="a_node3"><a xlink:href="../../d0/db6/_types_8h.html" target="_top" xlink:title="type definition of all the string types we will be using ">
<polygon fill="white" stroke="black" points="108.5,-56.5 108.5,-75.5 169.5,-75.5 169.5,-56.5 108.5,-56.5"/>
<text text-anchor="middle" x="139" y="-63.5" font-family="Helvetica,sans-Serif" font-size="10.00">../Types.h</text>
</a>
</g>
</g>
<!-- Node2&#45;&gt;Node3 -->
<g id="edge2" class="edge"><title>Node2&#45;&gt;Node3</title>
<path fill="none" stroke="midnightblue" d="M62.0647,-504.297C41.923,-487.203 1,-447.051 1,-403 1,-403 1,-403 1,-177 1,-125.66 60.1253,-94.4014 100.974,-78.9312"/>
<polygon fill="midnightblue" stroke="midnightblue" points="102.197,-82.2108 110.406,-75.5128 99.8121,-75.6296 102.197,-82.2108"/>
</g>
<!-- Node5 -->
<g id="node5" class="node"><title>Node5</title>
<g id="a_node5"><a xlink:href="../../de/d6d/_bitset_8h.html" target="_top" xlink:title="Bitset is a class that provides bits manipulation methods. ">
<polygon fill="white" stroke="black" points="109.5,-448.5 109.5,-467.5 182.5,-467.5 182.5,-448.5 109.5,-448.5"/>
<text text-anchor="middle" x="146" y="-455.5" font-family="Helvetica,sans-Serif" font-size="10.00">../stl/Bitset.h</text>
</a>
</g>
</g>
<!-- Node2&#45;&gt;Node5 -->
<g id="edge4" class="edge"><title>Node2&#45;&gt;Node5</title>
<path fill="none" stroke="midnightblue" d="M84.7287,-504.324C95.8374,-496.107 112.742,-483.602 125.983,-473.807"/>
<polygon fill="midnightblue" stroke="midnightblue" points="128.1,-476.595 134.058,-467.834 123.937,-470.967 128.1,-476.595"/>
</g>
<!-- Node4 -->
<g id="node4" class="node"><title>Node4</title>
<polygon fill="white" stroke="#bfbfbf" points="114.5,-0.5 114.5,-19.5 163.5,-19.5 163.5,-0.5 114.5,-0.5"/>
<text text-anchor="middle" x="139" y="-7.5" font-family="Helvetica,sans-Serif" font-size="10.00">stdint.h</text>
</g>
<!-- Node3&#45;&gt;Node4 -->
<g id="edge3" class="edge"><title>Node3&#45;&gt;Node4</title>
<path fill="none" stroke="midnightblue" d="M139,-56.083C139,-49.0059 139,-38.8611 139,-29.9865"/>
<polygon fill="midnightblue" stroke="midnightblue" points="142.5,-29.751 139,-19.7511 135.5,-29.7511 142.5,-29.751"/>
</g>
<!-- Node5&#45;&gt;Node3 -->
<g id="edge7" class="edge"><title>Node5&#45;&gt;Node3</title>
<path fill="none" stroke="midnightblue" d="M127.362,-448.441C96.7058,-432.932 39,-397.087 39,-347 39,-347 39,-347 39,-177 39,-132.984 83.38,-98.7956 113.01,-80.875"/>
<polygon fill="midnightblue" stroke="midnightblue" points="115.144,-83.683 122.036,-75.6363 111.631,-77.6286 115.144,-83.683"/>
</g>
<!-- Node6 -->
<g id="node6" class="node"><title>Node6</title>
<polygon fill="white" stroke="#bfbfbf" points="353.5,-392.5 353.5,-411.5 400.5,-411.5 400.5,-392.5 353.5,-392.5"/>
<text text-anchor="middle" x="377" y="-399.5" font-family="Helvetica,sans-Serif" font-size="10.00">math.h</text>
</g>
<!-- Node5&#45;&gt;Node6 -->
<g id="edge5" class="edge"><title>Node5&#45;&gt;Node6</title>
<path fill="none" stroke="midnightblue" d="M182.604,-449.172C220.405,-440.98 281.327,-427.475 343.289,-412.095"/>
<polygon fill="midnightblue" stroke="midnightblue" points="344.384,-415.429 353.239,-409.611 342.689,-408.637 344.384,-415.429"/>
</g>
<!-- Node7 -->
<g id="node7" class="node"><title>Node7</title>
<polygon fill="white" stroke="#bfbfbf" points="245.5,-280.5 245.5,-299.5 294.5,-299.5 294.5,-280.5 245.5,-280.5"/>
<text text-anchor="middle" x="270" y="-287.5" font-family="Helvetica,sans-Serif" font-size="10.00">string.h</text>
</g>
<!-- Node5&#45;&gt;Node7 -->
<g id="edge6" class="edge"><title>Node5&#45;&gt;Node7</title>
<path fill="none" stroke="midnightblue" d="M152.667,-448.075C172.523,-421.493 231.502,-342.538 257.478,-307.763"/>
<polygon fill="midnightblue" stroke="midnightblue" points="260.419,-309.674 263.6,-299.568 254.811,-305.485 260.419,-309.674"/>
</g>
<!-- Node8 -->
<g id="node8" class="node"><title>Node8</title>
<g id="a_node8"><a xlink:href="../../d2/db4/_wlib_8h.html" target="_top" xlink:title="../Wlib.h">
<polygon fill="white" stroke="black" points="105.5,-224.5 105.5,-243.5 158.5,-243.5 158.5,-224.5 105.5,-224.5"/>
<text text-anchor="middle" x="132" y="-231.5" font-family="Helvetica,sans-Serif" font-size="10.00">../Wlib.h</text>
</a>
</g>
</g>
<!-- Node5&#45;&gt;Node8 -->
<g id="edge8" class="edge"><title>Node5&#45;&gt;Node8</title>
<path fill="none" stroke="midnightblue" d="M139.969,-448.341C128.653,-431.503 104.603,-392.769 96,-356 87.262,-318.654 107.293,-275.824 120.844,-252.459"/>
<polygon fill="midnightblue" stroke="midnightblue" points="123.957,-254.075 126.152,-243.71 117.973,-250.444 123.957,-254.075"/>
</g>
<!-- Node9 -->
<g id="node9" class="node"><title>Node9</title>
<g id="a_node9"><a xlink:href="../../db/db5/_string_8h.html" target="_top" xlink:title="../strings/String.h">
<polygon fill="white" stroke="black" points="243,-392.5 243,-411.5 335,-411.5 335,-392.5 243,-392.5"/>
<text text-anchor="middle" x="289" y="-399.5" font-family="Helvetica,sans-Serif" font-size="10.00">../strings/String.h</text>
</a>
</g>
</g>
<!-- Node5&#45;&gt;Node9 -->
<g id="edge9" class="edge"><title>Node5&#45;&gt;Node9</title>
<path fill="none" stroke="midnightblue" d="M168.659,-448.444C192.402,-439.478 229.909,-425.314 256.738,-415.183"/>
<polygon fill="midnightblue" stroke="midnightblue" points="258.329,-418.324 266.447,-411.516 255.856,-411.775 258.329,-418.324"/>
</g>
<!-- Node9&#45;&gt;Node3 -->
<g id="edge22" class="edge"><title>Node9&#45;&gt;Node3</title>
<path fill="none" stroke="midnightblue" d="M334.203,-392.483C393.826,-381.073 491.97,-361.609 498,-356 520.038,-335.501 517,-321.098 517,-291 517,-291 517,-291 517,-177 517,-107.346 277.382,-78.8769 179.706,-70.1654"/>
<polygon fill="midnightblue" stroke="midnightblue" points="179.878,-66.6672 169.613,-69.2908 179.274,-73.6411 179.878,-66.6672"/>
</g>
<!-- Node9&#45;&gt;Node7 -->
<g id="edge10" class="edge"><title>Node9&#45;&gt;Node7</title>
<path fill="none" stroke="midnightblue" d="M284.719,-392.291C280.592,-383.408 274.602,-369.106 272,-356 268.939,-340.583 268.616,-322.711 268.958,-309.613"/>
<polygon fill="midnightblue" stroke="midnightblue" points="272.459,-309.651 269.378,-299.514 265.465,-309.36 272.459,-309.651"/>
</g>
<!-- Node10 -->
<g id="node10" class="node"><title>Node10</title>
<g id="a_node10"><a xlink:href="../../de/d0b/_string_iterator_8h.html" target="_top" xlink:title="StringIterator.h">
<polygon fill="white" stroke="black" points="105.5,-336.5 105.5,-355.5 186.5,-355.5 186.5,-336.5 105.5,-336.5"/>
<text text-anchor="middle" x="146" y="-343.5" font-family="Helvetica,sans-Serif" font-size="10.00">StringIterator.h</text>
</a>
</g>
</g>
<!-- Node9&#45;&gt;Node10 -->
<g id="edge11" class="edge"><title>Node9&#45;&gt;Node10</title>
<path fill="none" stroke="midnightblue" d="M266.341,-392.444C242.598,-383.478 205.091,-369.314 178.262,-359.183"/>
<polygon fill="midnightblue" stroke="midnightblue" points="179.144,-355.775 168.553,-355.516 176.671,-362.324 179.144,-355.775"/>
</g>
<!-- Node16 -->
<g id="node16" class="node"><title>Node16</title>
<g id="a_node16"><a xlink:href="../../da/db8/_math_8h.html" target="_top" xlink:title="../utility/Math.h">
<polygon fill="white" stroke="black" points="407,-336.5 407,-355.5 489,-355.5 489,-336.5 407,-336.5"/>
<text text-anchor="middle" x="448" y="-343.5" font-family="Helvetica,sans-Serif" font-size="10.00">../utility/Math.h</text>
</a>
</g>
</g>
<!-- Node9&#45;&gt;Node16 -->
<g id="edge23" class="edge"><title>Node9&#45;&gt;Node16</title>
<path fill="none" stroke="midnightblue" d="M314.194,-392.444C340.943,-383.359 383.403,-368.939 413.305,-358.783"/>
<polygon fill="midnightblue" stroke="midnightblue" points="414.581,-362.046 422.924,-355.516 412.329,-355.418 414.581,-362.046"/>
</g>
<!-- Node17 -->
<g id="node17" class="node"><title>Node17</title>
<g id="a_node17"><a xlink:href="../../d3/de6/_memory_8h.html" target="_top" xlink:title="Memory is a class that provides dynamic fixed size memory. ">
<polygon fill="white" stroke="black" points="281.5,-336.5 281.5,-355.5 388.5,-355.5 388.5,-336.5 281.5,-336.5"/>
<text text-anchor="middle" x="335" y="-343.5" font-family="Helvetica,sans-Serif" font-size="10.00">../memory/Memory.h</text>
</a>
</g>
</g>
<!-- Node9&#45;&gt;Node17 -->
<g id="edge24" class="edge"><title>Node9&#45;&gt;Node17</title>
<path fill="none" stroke="midnightblue" d="M296.596,-392.083C303.227,-384.298 313.021,-372.801 321.058,-363.367"/>
<polygon fill="midnightblue" stroke="midnightblue" points="323.725,-365.633 327.545,-355.751 318.396,-361.094 323.725,-365.633"/>
</g>
<!-- Node10&#45;&gt;Node3 -->
<g id="edge12" class="edge"><title>Node10&#45;&gt;Node3</title>
<path fill="none" stroke="midnightblue" d="M139.969,-336.341C128.653,-319.503 104.603,-280.769 96,-244 82.3482,-185.653 112.466,-116.705 129.037,-84.8178"/>
<polygon fill="midnightblue" stroke="midnightblue" points="132.218,-86.293 133.868,-75.8276 126.052,-82.9794 132.218,-86.293"/>
</g>
<!-- Node11 -->
<g id="node11" class="node"><title>Node11</title>
<g id="a_node11"><a xlink:href="../../d8/dd7/_concept_8h.html" target="_top" xlink:title="Concept definitions. ">
<polygon fill="white" stroke="black" points="144,-280.5 144,-299.5 228,-299.5 228,-280.5 144,-280.5"/>
<text text-anchor="middle" x="186" y="-287.5" font-family="Helvetica,sans-Serif" font-size="10.00">../stl/Concept.h</text>
</a>
</g>
</g>
<!-- Node10&#45;&gt;Node11 -->
<g id="edge13" class="edge"><title>Node10&#45;&gt;Node11</title>
<path fill="none" stroke="midnightblue" d="M152.605,-336.083C158.255,-328.455 166.545,-317.264 173.451,-307.941"/>
<polygon fill="midnightblue" stroke="midnightblue" points="176.378,-309.87 179.518,-299.751 170.753,-305.703 176.378,-309.87"/>
</g>
<!-- Node11&#45;&gt;Node8 -->
<g id="edge20" class="edge"><title>Node11&#45;&gt;Node8</title>
<path fill="none" stroke="midnightblue" d="M177.083,-280.083C169.22,-272.22 157.569,-260.569 148.081,-251.081"/>
<polygon fill="midnightblue" stroke="midnightblue" points="150.297,-248.347 140.751,-243.751 145.347,-253.297 150.297,-248.347"/>
</g>
<!-- Node12 -->
<g id="node12" class="node"><title>Node12</title>
<g id="a_node12"><a xlink:href="../../d4/dda/_pair_8h.html" target="_top" xlink:title="Implementation of a 2&#45;element tuple. ">
<polygon fill="white" stroke="black" points="253,-224.5 253,-243.5 295,-243.5 295,-224.5 253,-224.5"/>
<text text-anchor="middle" x="274" y="-231.5" font-family="Helvetica,sans-Serif" font-size="10.00">Pair.h</text>
</a>
</g>
</g>
<!-- Node11&#45;&gt;Node12 -->
<g id="edge14" class="edge"><title>Node11&#45;&gt;Node12</title>
<path fill="none" stroke="midnightblue" d="M200.139,-280.324C213.866,-271.9 234.936,-258.971 251.064,-249.074"/>
<polygon fill="midnightblue" stroke="midnightblue" points="253.204,-251.868 259.896,-243.655 249.543,-245.902 253.204,-251.868"/>
</g>
<!-- Node14 -->
<g id="node14" class="node"><title>Node14</title>
<g id="a_node14"><a xlink:href="../../d2/d37/_tmp_8h.html" target="_top" xlink:title="Template helper types, structs, and metafunctions. ">
<polygon fill="white" stroke="black" points="179,-112.5 179,-131.5 223,-131.5 223,-112.5 179,-112.5"/>
<text text-anchor="middle" x="201" y="-119.5" font-family="Helvetica,sans-Serif" font-size="10.00">Tmp.h</text>
</a>
</g>
</g>
<!-- Node11&#45;&gt;Node14 -->
<g id="edge21" class="edge"><title>Node11&#45;&gt;Node14</title>
<path fill="none" stroke="midnightblue" d="M183.453,-280.159C179.838,-267.643 172.994,-244.051 167,-224 162.208,-207.971 158.472,-204.547 156,-188 154.687,-179.209 152.598,-176.212 156,-168 160.92,-156.121 170.667,-145.743 179.834,-137.956"/>
<polygon fill="midnightblue" stroke="midnightblue" points="182.253,-140.506 187.936,-131.564 177.917,-135.01 182.253,-140.506"/>
</g>
<!-- Node15 -->
<g id="node15" class="node"><title>Node15</title>
<g id="a_node15"><a xlink:href="../../d4/dd5/_type_traits_8h.html" target="_top" xlink:title="Metafunctions for types. ">
<polygon fill="white" stroke="black" points="165.5,-168.5 165.5,-187.5 236.5,-187.5 236.5,-168.5 165.5,-168.5"/>
<text text-anchor="middle" x="201" y="-175.5" font-family="Helvetica,sans-Serif" font-size="10.00">TypeTraits.h</text>
</a>
</g>
</g>
<!-- Node11&#45;&gt;Node15 -->
<g id="edge18" class="edge"><title>Node11&#45;&gt;Node15</title>
<path fill="none" stroke="midnightblue" d="M189.856,-280.249C193.558,-271.333 198.889,-257.006 201,-244 203.489,-228.665 203.301,-211.025 202.595,-197.994"/>
<polygon fill="midnightblue" stroke="midnightblue" points="206.079,-197.638 201.896,-187.904 199.096,-198.122 206.079,-197.638"/>
</g>
<!-- Node13 -->
<g id="node13" class="node"><title>Node13</title>
<g id="a_node13"><a xlink:href="../../db/d2a/_utility_8h.html" target="_top" xlink:title="Various helper functions. ">
<polygon fill="white" stroke="black" points="255,-168.5 255,-187.5 341,-187.5 341,-168.5 255,-168.5"/>
<text text-anchor="middle" x="298" y="-175.5" font-family="Helvetica,sans-Serif" font-size="10.00">../utility/Utility.h</text>
</a>
</g>
</g>
<!-- Node12&#45;&gt;Node13 -->
<g id="edge15" class="edge"><title>Node12&#45;&gt;Node13</title>
<path fill="none" stroke="midnightblue" d="M277.963,-224.083C281.213,-216.77 285.919,-206.181 289.954,-197.103"/>
<polygon fill="midnightblue" stroke="midnightblue" points="293.248,-198.311 294.111,-187.751 286.851,-195.468 293.248,-198.311"/>
</g>
<!-- Node13&#45;&gt;Node14 -->
<g id="edge16" class="edge"><title>Node13&#45;&gt;Node14</title>
<path fill="none" stroke="midnightblue" d="M282.415,-168.324C267.001,-159.743 243.188,-146.486 225.29,-136.522"/>
<polygon fill="midnightblue" stroke="midnightblue" points="226.986,-133.461 216.546,-131.655 223.581,-139.577 226.986,-133.461"/>
</g>
<!-- Node14&#45;&gt;Node3 -->
<g id="edge17" class="edge"><title>Node14&#45;&gt;Node3</title>
<path fill="none" stroke="midnightblue" d="M191.039,-112.324C181.873,-104.341 168.063,-92.3128 156.972,-82.6529"/>
<polygon fill="midnightblue" stroke="midnightblue" points="158.982,-79.7624 149.143,-75.8339 154.385,-85.041 158.982,-79.7624"/>
</g>
<!-- Node15&#45;&gt;Node14 -->
<g id="edge19" class="edge"><title>Node15&#45;&gt;Node14</title>
<path fill="none" stroke="midnightblue" d="M201,-168.083C201,-161.006 201,-150.861 201,-141.986"/>
<polygon fill="midnightblue" stroke="midnightblue" points="204.5,-141.751 201,-131.751 197.5,-141.751 204.5,-141.751"/>
</g>
<!-- Node17&#45;&gt;Node3 -->
<g id="edge27" class="edge"><title>Node17&#45;&gt;Node3</title>
<path fill="none" stroke="midnightblue" d="M345.935,-336.297C366.077,-319.203 407,-279.051 407,-235 407,-235 407,-235 407,-177 407,-79.9689 254.793,-66.7131 179.79,-66.0714"/>
<polygon fill="midnightblue" stroke="midnightblue" points="179.748,-62.5714 169.743,-66.0571 179.738,-69.5714 179.748,-62.5714"/>
</g>
<!-- Node17&#45;&gt;Node7 -->
<g id="edge25" class="edge"><title>Node17&#45;&gt;Node7</title>
<path fill="none" stroke="midnightblue" d="M324.557,-336.324C314.854,-328.263 300.185,-316.077 288.5,-306.369"/>
<polygon fill="midnightblue" stroke="midnightblue" points="290.562,-303.532 280.633,-299.834 286.089,-308.916 290.562,-303.532"/>
</g>
<!-- Node17&#45;&gt;Node13 -->
<g id="edge26" class="edge"><title>Node17&#45;&gt;Node13</title>
<path fill="none" stroke="midnightblue" d="M333.011,-336.075C327.187,-309.945 310.083,-233.211 302.141,-197.577"/>
<polygon fill="midnightblue" stroke="midnightblue" points="305.502,-196.567 299.91,-187.568 298.669,-198.09 305.502,-196.567"/>
</g>
<!-- Node17&#45;&gt;Node14 -->
<g id="edge28" class="edge"><title>Node17&#45;&gt;Node14</title>
<path fill="none" stroke="midnightblue" d="M339.442,-336.16C352.772,-308.249 389.162,-220.737 350,-168 323.282,-132.021 268.649,-123.773 233.482,-122.425"/>
<polygon fill="midnightblue" stroke="midnightblue" points="233.319,-118.921 223.246,-122.206 233.168,-125.92 233.319,-118.921"/>
</g>
<!-- Node18 -->
<g id="node18" class="node"><title>Node18</title>
<g id="a_node18"><a xlink:href="../../d9/d8a/_new_8h.html" target="_top" xlink:title="New operators defined for Arduino boards and for other boards use the normal new. ...">
<polygon fill="white" stroke="black" points="435.5,-280.5 435.5,-299.5 480.5,-299.5 480.5,-280.5 435.5,-280.5"/>
<text text-anchor="middle" x="458" y="-287.5" font-family="Helvetica,sans-Serif" font-size="10.00">New.h</text>
</a>
</g>
</g>
<!-- Node17&#45;&gt;Node18 -->
<g id="edge29" class="edge"><title>Node17&#45;&gt;Node18</title>
<path fill="none" stroke="midnightblue" d="M354.49,-336.444C374.642,-327.596 406.323,-313.687 429.331,-303.586"/>
<polygon fill="midnightblue" stroke="midnightblue" points="430.852,-306.741 438.601,-299.516 428.038,-300.332 430.852,-306.741"/>
</g>
<!-- Node19 -->
<g id="node19" class="node"><title>Node19</title>
<polygon fill="white" stroke="#bfbfbf" points="440.5,-224.5 440.5,-243.5 475.5,-243.5 475.5,-224.5 440.5,-224.5"/>
<text text-anchor="middle" x="458" y="-231.5" font-family="Helvetica,sans-Serif" font-size="10.00">new</text>
</g>
<!-- Node18&#45;&gt;Node19 -->
<g id="edge30" class="edge"><title>Node18&#45;&gt;Node19</title>
<path fill="none" stroke="midnightblue" d="M458,-280.083C458,-273.006 458,-262.861 458,-253.986"/>
<polygon fill="midnightblue" stroke="midnightblue" points="461.5,-253.751 458,-243.751 454.5,-253.751 461.5,-253.751"/>
</g>
</g>
</svg>
