<?xml version="1.0" encoding="UTF-8" standalone="no"?>
<!DOCTYPE svg PUBLIC "-//W3C//DTD SVG 1.1//EN"
 "http://www.w3.org/Graphics/SVG/1.1/DTD/svg11.dtd">
<!-- Generated by graphviz version 2.38.0 (20140413.2041)
 -->
<!-- Title: wlp::__is_floating_point_helper&lt; long double &gt; Pages: 1 -->
<svg width="109pt" height="174pt"
 viewBox="0.00 0.00 109.00 174.00" xmlns="http://www.w3.org/2000/svg" xmlns:xlink="http://www.w3.org/1999/xlink">
<g id="graph0" class="graph" transform="scale(1 1) rotate(0) translate(4 170)">
<title>wlp::__is_floating_point_helper&lt; long double &gt;</title>
<polygon fill="white" stroke="none" points="-4,4 -4,-170 105,-170 105,4 -4,4"/>
<!-- Node2 -->
<g id="node1" class="node"><title>Node2</title>
<polygon fill="#bfbfbf" stroke="black" points="0,-0.5 0,-41.5 101,-41.5 101,-0.5 0,-0.5"/>
<text text-anchor="start" x="8" y="-29.5" font-family="Helvetica,sans-Serif" font-size="10.00">wlp::__is_floating</text>
<text text-anchor="start" x="8" y="-18.5" font-family="Helvetica,sans-Serif" font-size="10.00">_point_helper&lt; long</text>
<text text-anchor="middle" x="50.5" y="-7.5" font-family="Helvetica,sans-Serif" font-size="10.00"> double &gt;</text>
</g>
<!-- Node3 -->
<g id="node2" class="node"><title>Node3</title>
<g id="a_node2"><a xlink:href="../../d3/d8d/structwlp_1_1integral__constant.html" target="_top" xlink:title="true_type">
<polygon fill="white" stroke="black" points="22,-79.5 22,-98.5 79,-98.5 79,-79.5 22,-79.5"/>
<text text-anchor="middle" x="50.5" y="-86.5" font-family="Helvetica,sans-Serif" font-size="10.00">true_type</text>
</a>
</g>
</g>
<!-- Node3&#45;&gt;Node2 -->
<g id="edge1" class="edge"><title>Node3&#45;&gt;Node2</title>
<path fill="none" stroke="midnightblue" d="M50.5,-69.2462C50.5,-60.647 50.5,-50.4506 50.5,-41.7351"/>
<polygon fill="midnightblue" stroke="midnightblue" points="47.0001,-69.3716 50.5,-79.3717 54.0001,-69.3717 47.0001,-69.3716"/>
</g>
<!-- Node4 -->
<g id="node3" class="node"><title>Node4</title>
<polygon fill="white" stroke="#bfbfbf" points="36,-146.5 36,-165.5 65,-165.5 65,-146.5 36,-146.5"/>
<text text-anchor="middle" x="50.5" y="-153.5" font-family="Helvetica,sans-Serif" font-size="10.00">T</text>
</g>
<!-- Node4&#45;&gt;Node3 -->
<g id="edge2" class="edge"><title>Node4&#45;&gt;Node3</title>
<path fill="none" stroke="#9a32cd" stroke-dasharray="5,2" d="M50.5,-136.037C50.5,-123.67 50.5,-108.12 50.5,-98.6273"/>
<polygon fill="#9a32cd" stroke="#9a32cd" points="47.0001,-136.234 50.5,-146.234 54.0001,-136.234 47.0001,-136.234"/>
<text text-anchor="middle" x="63" y="-120" font-family="Helvetica,sans-Serif" font-size="10.00"> value</text>
</g>
</g>
</svg>
