<?xml version="1.0" encoding="UTF-8" standalone="no"?>
<!DOCTYPE svg PUBLIC "-//W3C//DTD SVG 1.1//EN"
 "http://www.w3.org/Graphics/SVG/1.1/DTD/svg11.dtd">
<!-- Generated by graphviz version 2.36.0 (20140111.2315)
 -->
<!-- Title: __encode_float18 Pages: 1 -->
<svg width="392pt" height="38pt"
 viewBox="0.00 0.00 392.00 38.00" xmlns="http://www.w3.org/2000/svg" xmlns:xlink="http://www.w3.org/1999/xlink">
<g id="graph0" class="graph" transform="scale(1 1) rotate(0) translate(4 34)">
<title>__encode_float18</title>
<polygon fill="white" stroke="none" points="-4,4 -4,-34 388,-34 388,4 -4,4"/>
<!-- Node1 -->
<g id="node1" class="node"><title>Node1</title>
<polygon fill="#bfbfbf" stroke="black" points="0.5,-5.5 0.5,-24.5 93.5,-24.5 93.5,-5.5 0.5,-5.5"/>
<text text-anchor="middle" x="47" y="-12.5" font-family="Helvetica,sans-Serif" font-size="10.00">__encode_float18</text>
</g>
<!-- Node2 -->
<g id="node2" class="node"><title>Node2</title>
<g id="a_node2"><a xlink:href="../../d3/dff/structwlp_1_1____packet__maker.html#ac92621e6244b3cdd4fdb8ee6ad81d3f8" target="_top" xlink:title="wlp::__packet_maker\l::build">
<polygon fill="white" stroke="black" points="130,-0 130,-30 240,-30 240,-0 130,-0"/>
<text text-anchor="start" x="138" y="-18" font-family="Helvetica,sans-Serif" font-size="10.00">wlp::__packet_maker</text>
<text text-anchor="middle" x="185" y="-7" font-family="Helvetica,sans-Serif" font-size="10.00">::build</text>
</a>
</g>
</g>
<!-- Node1&#45;&gt;Node2 -->
<g id="edge1" class="edge"><title>Node1&#45;&gt;Node2</title>
<path fill="none" stroke="midnightblue" d="M103.908,-15C112.443,-15 121.242,-15 129.741,-15"/>
<polygon fill="midnightblue" stroke="midnightblue" points="103.664,-11.5001 93.6644,-15 103.664,-18.5001 103.664,-11.5001"/>
</g>
<!-- Node3 -->
<g id="node3" class="node"><title>Node3</title>
<g id="a_node3"><a xlink:href="../../d5/dca/namespacewlp.html#aa1384f17c6fe7e60d71f1075a709df29" target="_top" xlink:title="wlp::make_packet64">
<polygon fill="white" stroke="black" points="276.5,-5.5 276.5,-24.5 383.5,-24.5 383.5,-5.5 276.5,-5.5"/>
<text text-anchor="middle" x="330" y="-12.5" font-family="Helvetica,sans-Serif" font-size="10.00">wlp::make_packet64</text>
</a>
</g>
</g>
<!-- Node2&#45;&gt;Node3 -->
<g id="edge2" class="edge"><title>Node2&#45;&gt;Node3</title>
<path fill="none" stroke="midnightblue" d="M250.203,-15C258.925,-15 267.794,-15 276.282,-15"/>
<polygon fill="midnightblue" stroke="midnightblue" points="250.062,-11.5001 240.062,-15 250.062,-18.5001 250.062,-11.5001"/>
</g>
</g>
</svg>
