<?xml version="1.0" encoding="UTF-8" standalone="no"?>
<!DOCTYPE svg PUBLIC "-//W3C//DTD SVG 1.1//EN"
 "http://www.w3.org/Graphics/SVG/1.1/DTD/svg11.dtd">
<!-- Generated by graphviz version 2.36.0 (20140111.2315)
 -->
<!-- Title: __set_packet_name Pages: 1 -->
<svg width="402pt" height="38pt"
 viewBox="0.00 0.00 402.00 38.00" xmlns="http://www.w3.org/2000/svg" xmlns:xlink="http://www.w3.org/1999/xlink">
<g id="graph0" class="graph" transform="scale(1 1) rotate(0) translate(4 34)">
<title>__set_packet_name</title>
<polygon fill="white" stroke="none" points="-4,4 -4,-34 398,-34 398,4 -4,4"/>
<!-- Node1 -->
<g id="node1" class="node"><title>Node1</title>
<polygon fill="#bfbfbf" stroke="black" points="0,-5.5 0,-24.5 104,-24.5 104,-5.5 0,-5.5"/>
<text text-anchor="middle" x="52" y="-12.5" font-family="Helvetica,sans-Serif" font-size="10.00">__set_packet_name</text>
</g>
<!-- Node2 -->
<g id="node2" class="node"><title>Node2</title>
<g id="a_node2"><a xlink:href="../../d3/dff/structwlp_1_1____packet__maker.html#ac92621e6244b3cdd4fdb8ee6ad81d3f8" target="_top" xlink:title="wlp::__packet_maker\l::build">
<polygon fill="white" stroke="black" points="140,-0 140,-30 250,-30 250,-0 140,-0"/>
<text text-anchor="start" x="148" y="-18" font-family="Helvetica,sans-Serif" font-size="10.00">wlp::__packet_maker</text>
<text text-anchor="middle" x="195" y="-7" font-family="Helvetica,sans-Serif" font-size="10.00">::build</text>
</a>
</g>
</g>
<!-- Node1&#45;&gt;Node2 -->
<g id="edge1" class="edge"><title>Node1&#45;&gt;Node2</title>
<path fill="none" stroke="midnightblue" d="M114.425,-15C122.82,-15 131.39,-15 139.648,-15"/>
<polygon fill="midnightblue" stroke="midnightblue" points="114.303,-11.5001 104.303,-15 114.303,-18.5001 114.303,-11.5001"/>
</g>
<!-- Node3 -->
<g id="node3" class="node"><title>Node3</title>
<g id="a_node3"><a xlink:href="../../d5/dca/namespacewlp.html#aa1384f17c6fe7e60d71f1075a709df29" target="_top" xlink:title="wlp::make_packet64">
<polygon fill="white" stroke="black" points="286.5,-5.5 286.5,-24.5 393.5,-24.5 393.5,-5.5 286.5,-5.5"/>
<text text-anchor="middle" x="340" y="-12.5" font-family="Helvetica,sans-Serif" font-size="10.00">wlp::make_packet64</text>
</a>
</g>
</g>
<!-- Node2&#45;&gt;Node3 -->
<g id="edge2" class="edge"><title>Node2&#45;&gt;Node3</title>
<path fill="none" stroke="midnightblue" d="M260.203,-15C268.925,-15 277.794,-15 286.282,-15"/>
<polygon fill="midnightblue" stroke="midnightblue" points="260.062,-11.5001 250.062,-15 260.062,-18.5001 260.062,-11.5001"/>
</g>
</g>
</svg>
