<?xml version="1.0" encoding="UTF-8" standalone="no"?>
<!DOCTYPE svg PUBLIC "-//W3C//DTD SVG 1.1//EN"
 "http://www.w3.org/Graphics/SVG/1.1/DTD/svg11.dtd">
<!-- Generated by graphviz version 2.36.0 (20140111.2315)
 -->
<!-- Title: __set_packet_type Pages: 1 -->
<svg width="398pt" height="38pt"
 viewBox="0.00 0.00 398.00 38.00" xmlns="http://www.w3.org/2000/svg" xmlns:xlink="http://www.w3.org/1999/xlink">
<g id="graph0" class="graph" transform="scale(1 1) rotate(0) translate(4 34)">
<title>__set_packet_type</title>
<polygon fill="white" stroke="none" points="-4,4 -4,-34 394,-34 394,4 -4,4"/>
<!-- Node1 -->
<g id="node1" class="node"><title>Node1</title>
<polygon fill="#bfbfbf" stroke="black" points="0.5,-5.5 0.5,-24.5 99.5,-24.5 99.5,-5.5 0.5,-5.5"/>
<text text-anchor="middle" x="50" y="-12.5" font-family="Helvetica,sans-Serif" font-size="10.00">__set_packet_type</text>
</g>
<!-- Node2 -->
<g id="node2" class="node"><title>Node2</title>
<g id="a_node2"><a xlink:href="../../d3/dff/structwlp_1_1____packet__maker.html#ac92621e6244b3cdd4fdb8ee6ad81d3f8" target="_top" xlink:title="wlp::__packet_maker\l::build">
<polygon fill="white" stroke="black" points="136,-0 136,-30 246,-30 246,-0 136,-0"/>
<text text-anchor="start" x="144" y="-18" font-family="Helvetica,sans-Serif" font-size="10.00">wlp::__packet_maker</text>
<text text-anchor="middle" x="191" y="-7" font-family="Helvetica,sans-Serif" font-size="10.00">::build</text>
</a>
</g>
</g>
<!-- Node1&#45;&gt;Node2 -->
<g id="edge1" class="edge"><title>Node1&#45;&gt;Node2</title>
<path fill="none" stroke="midnightblue" d="M109.698,-15C118.407,-15 127.347,-15 135.954,-15"/>
<polygon fill="midnightblue" stroke="midnightblue" points="109.615,-11.5001 99.6155,-15 109.615,-18.5001 109.615,-11.5001"/>
</g>
<!-- Node3 -->
<g id="node3" class="node"><title>Node3</title>
<g id="a_node3"><a xlink:href="../../d5/dca/namespacewlp.html#aa1384f17c6fe7e60d71f1075a709df29" target="_top" xlink:title="wlp::make_packet64">
<polygon fill="white" stroke="black" points="282.5,-5.5 282.5,-24.5 389.5,-24.5 389.5,-5.5 282.5,-5.5"/>
<text text-anchor="middle" x="336" y="-12.5" font-family="Helvetica,sans-Serif" font-size="10.00">wlp::make_packet64</text>
</a>
</g>
</g>
<!-- Node2&#45;&gt;Node3 -->
<g id="edge2" class="edge"><title>Node2&#45;&gt;Node3</title>
<path fill="none" stroke="midnightblue" d="M256.203,-15C264.925,-15 273.794,-15 282.282,-15"/>
<polygon fill="midnightblue" stroke="midnightblue" points="256.062,-11.5001 246.062,-15 256.062,-18.5001 256.062,-11.5001"/>
</g>
</g>
</svg>
