<?xml version="1.0" encoding="UTF-8" standalone="no"?>
<!DOCTYPE svg PUBLIC "-//W3C//DTD SVG 1.1//EN"
 "http://www.w3.org/Graphics/SVG/1.1/DTD/svg11.dtd">
<!-- Generated by graphviz version 2.38.0 (20140413.2041)
 -->
<!-- Title: wlp::WeakPtr::reset Pages: 1 -->
<svg width="706pt" height="66pt"
 viewBox="0.00 0.00 706.00 66.00" xmlns="http://www.w3.org/2000/svg" xmlns:xlink="http://www.w3.org/1999/xlink">
<g id="graph0" class="graph" transform="scale(1 1) rotate(0) translate(4 62)">
<title>wlp::WeakPtr::reset</title>
<polygon fill="white" stroke="none" points="-4,4 -4,-62 702,-62 702,4 -4,4"/>
<!-- Node25 -->
<g id="node1" class="node"><title>Node25</title>
<polygon fill="#bfbfbf" stroke="black" points="0,-19.5 0,-38.5 103,-38.5 103,-19.5 0,-19.5"/>
<text text-anchor="middle" x="51.5" y="-26.5" font-family="Helvetica,sans-Serif" font-size="10.00">wlp::WeakPtr::reset</text>
</g>
<!-- Node26 -->
<g id="node2" class="node"><title>Node26</title>
<g id="a_node2"><a xlink:href="../../d8/d0b/classwlp_1_1_weak_ptr.html#a4f71c173d7f12d3d6af71eabf2226df7" target="_top" xlink:title="wlp::WeakPtr::swap">
<polygon fill="white" stroke="black" points="139,-19.5 139,-38.5 243,-38.5 243,-19.5 139,-19.5"/>
<text text-anchor="middle" x="191" y="-26.5" font-family="Helvetica,sans-Serif" font-size="10.00">wlp::WeakPtr::swap</text>
</a>
</g>
</g>
<!-- Node25&#45;&gt;Node26 -->
<g id="edge1" class="edge"><title>Node25&#45;&gt;Node26</title>
<path fill="none" stroke="midnightblue" d="M103.309,-29C111.576,-29 120.215,-29 128.701,-29"/>
<polygon fill="midnightblue" stroke="midnightblue" points="128.941,-32.5001 138.941,-29 128.94,-25.5001 128.941,-32.5001"/>
</g>
<!-- Node27 -->
<g id="node3" class="node"><title>Node27</title>
<g id="a_node3"><a xlink:href="../../d5/dca/namespacewlp.html#a14fbfebbc21b2593185c686b26a9d8fb" target="_top" xlink:title="wlp::swap">
<polygon fill="white" stroke="black" points="307.5,-38.5 307.5,-57.5 366.5,-57.5 366.5,-38.5 307.5,-38.5"/>
<text text-anchor="middle" x="337" y="-45.5" font-family="Helvetica,sans-Serif" font-size="10.00">wlp::swap</text>
</a>
</g>
</g>
<!-- Node26&#45;&gt;Node27 -->
<g id="edge2" class="edge"><title>Node26&#45;&gt;Node27</title>
<path fill="none" stroke="midnightblue" d="M243.174,-35.7522C260.982,-38.1018 280.649,-40.6967 297.279,-42.891"/>
<polygon fill="midnightblue" stroke="midnightblue" points="296.826,-46.3614 307.197,-44.1997 297.741,-39.4215 296.826,-46.3614"/>
</g>
<!-- Node30 -->
<g id="node6" class="node"><title>Node30</title>
<g id="a_node6"><a xlink:href="../../d4/d8d/classwlp_1_1_weak_count.html#ab6913243767479e90b2df62cff1155a2" target="_top" xlink:title="wlp::WeakCount::swap">
<polygon fill="white" stroke="black" points="279,-0.5 279,-19.5 395,-19.5 395,-0.5 279,-0.5"/>
<text text-anchor="middle" x="337" y="-7.5" font-family="Helvetica,sans-Serif" font-size="10.00">wlp::WeakCount::swap</text>
</a>
</g>
</g>
<!-- Node26&#45;&gt;Node30 -->
<g id="edge6" class="edge"><title>Node26&#45;&gt;Node30</title>
<path fill="none" stroke="midnightblue" d="M243.174,-22.2478C251.425,-21.1592 260.075,-20.0179 268.637,-18.8882"/>
<polygon fill="midnightblue" stroke="midnightblue" points="269.162,-22.3493 278.619,-17.5712 268.247,-15.4094 269.162,-22.3493"/>
</g>
<!-- Node28 -->
<g id="node4" class="node"><title>Node28</title>
<g id="a_node4"><a xlink:href="../../d1/d52/classwlp_1_1_shared_ptr.html#aeb4cc93940627a04b0414bad11b4c020" target="_top" xlink:title="wlp::SharedPtr::swap">
<polygon fill="white" stroke="black" points="431,-38.5 431,-57.5 540,-57.5 540,-38.5 431,-38.5"/>
<text text-anchor="middle" x="485.5" y="-45.5" font-family="Helvetica,sans-Serif" font-size="10.00">wlp::SharedPtr::swap</text>
</a>
</g>
</g>
<!-- Node27&#45;&gt;Node28 -->
<g id="edge3" class="edge"><title>Node27&#45;&gt;Node28</title>
<path fill="none" stroke="midnightblue" d="M366.594,-42.519C382.052,-41.5048 401.801,-41.0985 420.696,-41.3001"/>
<polygon fill="midnightblue" stroke="midnightblue" points="420.715,-44.8008 430.772,-41.4677 420.831,-37.8018 420.715,-44.8008"/>
</g>
<!-- Node28&#45;&gt;Node27 -->
<g id="edge5" class="edge"><title>Node28&#45;&gt;Node27</title>
<path fill="none" stroke="midnightblue" d="M430.772,-54.5323C412.943,-54.9388 393.45,-54.776 376.954,-54.044"/>
<polygon fill="midnightblue" stroke="midnightblue" points="376.77,-50.5289 366.594,-53.481 376.39,-57.5186 376.77,-50.5289"/>
</g>
<!-- Node29 -->
<g id="node5" class="node"><title>Node29</title>
<g id="a_node5"><a xlink:href="../../da/dbb/classwlp_1_1_shared_count.html#ad9de7cb486018b547abbf4416fb31029" target="_top" xlink:title="wlp::SharedCount::swap">
<polygon fill="white" stroke="black" points="576,-38.5 576,-57.5 698,-57.5 698,-38.5 576,-38.5"/>
<text text-anchor="middle" x="637" y="-45.5" font-family="Helvetica,sans-Serif" font-size="10.00">wlp::SharedCount::swap</text>
</a>
</g>
</g>
<!-- Node28&#45;&gt;Node29 -->
<g id="edge4" class="edge"><title>Node28&#45;&gt;Node29</title>
<path fill="none" stroke="midnightblue" d="M540.051,-48C548.421,-48 557.178,-48 565.853,-48"/>
<polygon fill="midnightblue" stroke="midnightblue" points="565.969,-51.5001 575.969,-48 565.969,-44.5001 565.969,-51.5001"/>
</g>
</g>
</svg>
