<?xml version="1.0" encoding="UTF-8" standalone="no"?>
<!DOCTYPE svg PUBLIC "-//W3C//DTD SVG 1.1//EN"
 "http://www.w3.org/Graphics/SVG/1.1/DTD/svg11.dtd">
<!-- Generated by graphviz version 2.36.0 (20140111.2315)
 -->
<!-- Title: wlp::tuple_size&lt; Tuple&lt; Types...&gt; &gt; Pages: 1 -->
<svg width="122pt" height="118pt"
 viewBox="0.00 0.00 122.00 118.00" xmlns="http://www.w3.org/2000/svg" xmlns:xlink="http://www.w3.org/1999/xlink">
<g id="graph0" class="graph" transform="scale(1 1) rotate(0) translate(4 114)">
<title>wlp::tuple_size&lt; Tuple&lt; Types...&gt; &gt;</title>
<polygon fill="white" stroke="none" points="-4,4 -4,-114 118,-114 118,4 -4,4"/>
<!-- Node1 -->
<g id="node1" class="node"><title>Node1</title>
<polygon fill="#bfbfbf" stroke="black" points="-0.5,-1 -0.5,-31 114.5,-31 114.5,-1 -0.5,-1"/>
<text text-anchor="start" x="7.5" y="-19" font-family="Helvetica,sans-Serif" font-size="10.00">wlp::tuple_size&lt; Tuple</text>
<text text-anchor="middle" x="57" y="-8" font-family="Helvetica,sans-Serif" font-size="10.00">&lt; Types...&gt; &gt;</text>
</g>
<!-- Node2 -->
<g id="node2" class="node"><title>Node2</title>
<g id="a_node2"><a xlink:href="../../d3/d8d/structwlp_1_1integral__constant.html" target="_top" xlink:title="wlp::integral_constant\l\&lt; size_type, sizeof...\l(Types)\&gt;">
<polygon fill="white" stroke="black" points="1,-68.5 1,-109.5 113,-109.5 113,-68.5 1,-68.5"/>
<text text-anchor="start" x="9" y="-97.5" font-family="Helvetica,sans-Serif" font-size="10.00">wlp::integral_constant</text>
<text text-anchor="start" x="9" y="-86.5" font-family="Helvetica,sans-Serif" font-size="10.00">&lt; size_type, sizeof...</text>
<text text-anchor="middle" x="57" y="-75.5" font-family="Helvetica,sans-Serif" font-size="10.00">(Types)&gt;</text>
</a>
</g>
</g>
<!-- Node2&#45;&gt;Node1 -->
<g id="edge1" class="edge"><title>Node2&#45;&gt;Node1</title>
<path fill="none" stroke="midnightblue" d="M57,-58.0188C57,-48.6567 57,-38.7696 57,-31.0485"/>
<polygon fill="midnightblue" stroke="midnightblue" points="53.5001,-58.2225 57,-68.2225 60.5001,-58.2226 53.5001,-58.2225"/>
</g>
</g>
</svg>
