<?xml version="1.0" encoding="UTF-8" standalone="no"?>
<!DOCTYPE svg PUBLIC "-//W3C//DTD SVG 1.1//EN"
 "http://www.w3.org/Graphics/SVG/1.1/DTD/svg11.dtd">
<!-- Generated by graphviz version 2.36.0 (20140111.2315)
 -->
<!-- Title: utility/Utility.h Pages: 1 -->
<!--zoomable 476 -->
<svg id="main" version="1.1" xmlns="http://www.w3.org/2000/svg" xmlns:xlink="http://www.w3.org/1999/xlink" xml:space="preserve" onload="init(evt)">
<style type="text/css"><![CDATA[
.edge:hover path { stroke: red; }
.edge:hover polygon { stroke: red; fill: red; }
]]></style>
<script type="text/javascript"><![CDATA[
var edges = document.getElementsByTagName('g');
if (edges && edges.length) {
  for (var i=0;i<edges.length;i++) {
    if (edges[i].id.substr(0,4)=='edge') {
      edges[i].setAttribute('class','edge');
    }
  }
}
]]></script>
        <defs>
                <circle id="rim" cx="0" cy="0" r="7"/>
                <circle id="rim2" cx="0" cy="0" r="3.5"/>
                <g id="zoomPlus">
                        <use xlink:href="#rim" fill="#404040">
                                <set attributeName="fill" to="#808080" begin="zoomplus.mouseover" end="zoomplus.mouseout"/>
                        </use>
                        <path d="M-4,0h8M0,-4v8" fill="none" stroke="white" stroke-width="1.5" pointer-events="none"/>
                </g>
                <g id="zoomMin">
                        <use xlink:href="#rim" fill="#404040">
                                <set attributeName="fill" to="#808080" begin="zoomminus.mouseover" end="zoomminus.mouseout"/>
                        </use>
                        <path d="M-4,0h8" fill="none" stroke="white" stroke-width="1.5" pointer-events="none"/>
                </g>
                <g id="dirArrow">
                        <path fill="none" stroke="white" stroke-width="1.5" d="M0,-3.0v7 M-2.5,-0.5L0,-3.0L2.5,-0.5"/>
                </g>
               <g id="resetDef">
                       <use xlink:href="#rim2" fill="#404040">
                               <set attributeName="fill" to="#808080" begin="reset.mouseover" end="reset.mouseout"/>
                       </use>
               </g>
        </defs>

<script type="text/javascript">
var viewWidth = 1605;
var viewHeight = 476;
var sectionId = 'dynsection-1';
</script>
<script xlink:href="../../svgpan.js"/>
<svg id="graph" class="graph">
<g id="viewport">
<title>utility/Utility.h</title>
<polygon fill="white" stroke="none" points="-4,4 -4,-472 1601,-472 1601,4 -4,4"/>
<!-- Node1 -->
<g id="node1" class="node"><title>Node1</title>
<polygon fill="#bfbfbf" stroke="black" points="747.5,-448.5 747.5,-467.5 824.5,-467.5 824.5,-448.5 747.5,-448.5"/>
<text text-anchor="middle" x="786" y="-455.5" font-family="Helvetica,sans-Serif" font-size="10.00">utility/Utility.h</text>
</g>
<!-- Node2 -->
<g id="node2" class="node"><title>Node2</title>
<g id="a_node2"><a xlink:href="../../d4/dda/_pair_8h.html" target="_top" xlink:title="Implementation of a 2&#45;element tuple. ">
<polygon fill="white" stroke="black" points="585,-392.5 585,-411.5 641,-411.5 641,-392.5 585,-392.5"/>
<text text-anchor="middle" x="613" y="-399.5" font-family="Helvetica,sans-Serif" font-size="10.00">stl/Pair.h</text>
</a>
</g>
</g>
<!-- Node1&#45;&gt;Node2 -->
<g id="edge1" class="edge"><title>Node1&#45;&gt;Node2</title>
<path fill="none" stroke="midnightblue" d="M748.953,-445.436C716.336,-435.255 669.59,-420.664 640.284,-411.516"/>
<polygon fill="midnightblue" stroke="midnightblue" points="747.999,-448.805 758.588,-448.444 750.085,-442.123 747.999,-448.805"/>
</g>
<!-- Node10 -->
<g id="node10" class="node"><title>Node10</title>
<g id="a_node10"><a xlink:href="../../df/d03/_array_heap_8h.html" target="_top" xlink:title="Heap manipulation and implementation. ">
<polygon fill="white" stroke="black" points="-0.5,-56.5 -0.5,-75.5 84.5,-75.5 84.5,-56.5 -0.5,-56.5"/>
<text text-anchor="middle" x="42" y="-63.5" font-family="Helvetica,sans-Serif" font-size="10.00">stl/ArrayHeap.h</text>
</a>
</g>
</g>
<!-- Node1&#45;&gt;Node10 -->
<g id="edge45" class="edge"><title>Node1&#45;&gt;Node10</title>
<path fill="none" stroke="midnightblue" d="M737.271,-455.305C566.298,-448.719 4,-421.404 4,-347 4,-347 4,-347 4,-177 4,-137.399 26.2749,-93.957 36.7163,-75.769"/>
<polygon fill="midnightblue" stroke="midnightblue" points="737.362,-458.811 747.487,-455.691 737.627,-451.816 737.362,-458.811"/>
</g>
<!-- Node11 -->
<g id="node11" class="node"><title>Node11</title>
<g id="a_node11"><a xlink:href="../../d5/d08/_red_black_tree_8h.html" target="_top" xlink:title="Red black tree implementation. ">
<polygon fill="white" stroke="black" points="905.5,-56.5 905.5,-75.5 1006.5,-75.5 1006.5,-56.5 905.5,-56.5"/>
<text text-anchor="middle" x="956" y="-63.5" font-family="Helvetica,sans-Serif" font-size="10.00">stl/RedBlackTree.h</text>
</a>
</g>
</g>
<!-- Node1&#45;&gt;Node11 -->
<g id="edge49" class="edge"><title>Node1&#45;&gt;Node11</title>
<path fill="none" stroke="midnightblue" d="M834.574,-457.356C925.871,-457.004 1128.76,-451.371 1294,-412 1369.87,-393.924 1457,-424.992 1457,-347 1457,-347 1457,-347 1457,-177 1457,-85.5001 1134.16,-70.0184 1006.8,-67.4709"/>
<polygon fill="midnightblue" stroke="midnightblue" points="834.518,-453.856 824.524,-457.374 834.531,-460.856 834.518,-453.856"/>
</g>
<!-- Node15 -->
<g id="node15" class="node"><title>Node15</title>
<g id="a_node15"><a xlink:href="../../d3/dbe/_chain_map_8h.html" target="_top" xlink:title="Hasher map implementation. ">
<polygon fill="white" stroke="black" points="583.5,-112.5 583.5,-131.5 666.5,-131.5 666.5,-112.5 583.5,-112.5"/>
<text text-anchor="middle" x="625" y="-119.5" font-family="Helvetica,sans-Serif" font-size="10.00">stl/ChainMap.h</text>
</a>
</g>
</g>
<!-- Node1&#45;&gt;Node15 -->
<g id="edge46" class="edge"><title>Node1&#45;&gt;Node15</title>
<path fill="none" stroke="midnightblue" d="M777.424,-439.208C747.788,-377.728 650.358,-175.607 629.114,-131.535"/>
<polygon fill="midnightblue" stroke="midnightblue" points="774.363,-440.92 781.858,-448.408 780.669,-437.88 774.363,-440.92"/>
</g>
<!-- Node17 -->
<g id="node17" class="node"><title>Node17</title>
<g id="a_node17"><a xlink:href="../../d5/d7a/_open_map_8h.html" target="_top" xlink:title="Hash map implementation. ">
<polygon fill="white" stroke="black" points="429,-112.5 429,-131.5 509,-131.5 509,-112.5 429,-112.5"/>
<text text-anchor="middle" x="469" y="-119.5" font-family="Helvetica,sans-Serif" font-size="10.00">stl/OpenMap.h</text>
</a>
</g>
</g>
<!-- Node1&#45;&gt;Node17 -->
<g id="edge48" class="edge"><title>Node1&#45;&gt;Node17</title>
<path fill="none" stroke="midnightblue" d="M737.154,-452.183C639.829,-441.229 431,-410.344 431,-347 431,-347 431,-347 431,-233 431,-193.399 453.275,-149.957 463.716,-131.769"/>
<polygon fill="midnightblue" stroke="midnightblue" points="737.01,-455.689 747.333,-453.302 737.775,-448.731 737.01,-455.689"/>
</g>
<!-- Node22 -->
<g id="node22" class="node"><title>Node22</title>
<g id="a_node22"><a xlink:href="../../d3/de6/_memory_8h.html" target="_top" xlink:title="Memory is a class that provides dynamic fixed size memory. ">
<polygon fill="white" stroke="black" points="785,-280.5 785,-299.5 883,-299.5 883,-280.5 785,-280.5"/>
<text text-anchor="middle" x="834" y="-287.5" font-family="Helvetica,sans-Serif" font-size="10.00">memory/Memory.h</text>
</a>
</g>
</g>
<!-- Node1&#45;&gt;Node22 -->
<g id="edge30" class="edge"><title>Node1&#45;&gt;Node22</title>
<path fill="none" stroke="midnightblue" d="M791.38,-438.395C801.734,-402.585 824.07,-325.342 831.522,-299.568"/>
<polygon fill="midnightblue" stroke="midnightblue" points="787.996,-437.496 788.581,-448.075 794.721,-439.441 787.996,-437.496"/>
</g>
<!-- Node26 -->
<g id="node26" class="node"><title>Node26</title>
<g id="a_node26"><a xlink:href="../../d2/db9/_array_list_8h.html" target="_top" xlink:title="List implementation using an array. ">
<polygon fill="white" stroke="black" points="212.5,-224.5 212.5,-243.5 289.5,-243.5 289.5,-224.5 212.5,-224.5"/>
<text text-anchor="middle" x="251" y="-231.5" font-family="Helvetica,sans-Serif" font-size="10.00">stl/ArrayList.h</text>
</a>
</g>
</g>
<!-- Node1&#45;&gt;Node26 -->
<g id="edge44" class="edge"><title>Node1&#45;&gt;Node26</title>
<path fill="none" stroke="midnightblue" d="M737.412,-456.017C665.887,-453.47 528.658,-444.377 417,-412 361.246,-395.833 338.683,-398.369 299,-356 267.484,-322.351 255.716,-265.494 252.236,-243.784"/>
<polygon fill="midnightblue" stroke="midnightblue" points="737.368,-459.517 747.477,-456.347 737.597,-452.521 737.368,-459.517"/>
</g>
<!-- Node27 -->
<g id="node27" class="node"><title>Node27</title>
<g id="a_node27"><a xlink:href="../../de/dc6/_linked_list_8h.html" target="_top" xlink:title="stl/LinkedList.h">
<polygon fill="white" stroke="black" points="1307.5,-224.5 1307.5,-243.5 1390.5,-243.5 1390.5,-224.5 1307.5,-224.5"/>
<text text-anchor="middle" x="1349" y="-231.5" font-family="Helvetica,sans-Serif" font-size="10.00">stl/LinkedList.h</text>
</a>
</g>
</g>
<!-- Node1&#45;&gt;Node27 -->
<g id="edge47" class="edge"><title>Node1&#45;&gt;Node27</title>
<path fill="none" stroke="midnightblue" d="M817.155,-444.715C919.034,-404.543 1240.72,-277.696 1327.34,-243.541"/>
<polygon fill="midnightblue" stroke="midnightblue" points="815.744,-441.509 807.725,-448.433 818.312,-448.021 815.744,-441.509"/>
</g>
<!-- Node29 -->
<g id="node29" class="node"><title>Node29</title>
<g id="a_node29"><a xlink:href="../../d1/d13/_shared_ptr_8h.html" target="_top" xlink:title="Shared pointer implementation. ">
<polygon fill="white" stroke="black" points="1277,-168.5 1277,-187.5 1359,-187.5 1359,-168.5 1277,-168.5"/>
<text text-anchor="middle" x="1318" y="-175.5" font-family="Helvetica,sans-Serif" font-size="10.00">stl/SharedPtr.h</text>
</a>
</g>
</g>
<!-- Node1&#45;&gt;Node29 -->
<g id="edge50" class="edge"><title>Node1&#45;&gt;Node29</title>
<path fill="none" stroke="midnightblue" d="M834.824,-453.669C983.245,-442.898 1419,-406.23 1419,-347 1419,-347 1419,-347 1419,-289 1419,-258.775 1418.03,-247.482 1399,-224 1384.82,-206.503 1361.92,-194.685 1344.09,-187.568"/>
<polygon fill="midnightblue" stroke="midnightblue" points="834.368,-450.193 824.644,-454.4 834.869,-457.175 834.368,-450.193"/>
</g>
<!-- Node30 -->
<g id="node30" class="node"><title>Node30</title>
<g id="a_node30"><a xlink:href="../../d0/d55/_allocator_8cpp.html" target="_top" xlink:title="Implementation of Allocator. ">
<polygon fill="white" stroke="black" points="1485,-392.5 1485,-411.5 1597,-411.5 1597,-392.5 1485,-392.5"/>
<text text-anchor="middle" x="1541" y="-399.5" font-family="Helvetica,sans-Serif" font-size="10.00">memory/Allocator.cpp</text>
</a>
</g>
</g>
<!-- Node1&#45;&gt;Node30 -->
<g id="edge43" class="edge"><title>Node1&#45;&gt;Node30</title>
<path fill="none" stroke="midnightblue" d="M834.699,-454.844C947.026,-449.644 1232.88,-435.106 1471,-412 1475.51,-411.562 1480.18,-411.063 1484.87,-410.529"/>
<polygon fill="midnightblue" stroke="midnightblue" points="834.521,-451.349 824.693,-455.304 834.843,-458.341 834.521,-451.349"/>
</g>
<!-- Node3 -->
<g id="node3" class="node"><title>Node3</title>
<g id="a_node3"><a xlink:href="../../d8/dd7/_concept_8h.html" target="_top" xlink:title="Concept definitions. ">
<polygon fill="white" stroke="black" points="308.5,-336.5 308.5,-355.5 383.5,-355.5 383.5,-336.5 308.5,-336.5"/>
<text text-anchor="middle" x="346" y="-343.5" font-family="Helvetica,sans-Serif" font-size="10.00">stl/Concept.h</text>
</a>
</g>
</g>
<!-- Node2&#45;&gt;Node3 -->
<g id="edge2" class="edge"><title>Node2&#45;&gt;Node3</title>
<path fill="none" stroke="midnightblue" d="M575.009,-393.316C524.212,-383.043 434.691,-364.938 383.927,-354.671"/>
<polygon fill="midnightblue" stroke="midnightblue" points="574.436,-396.771 584.931,-395.323 575.823,-389.91 574.436,-396.771"/>
</g>
<!-- Node2&#45;&gt;Node11 -->
<g id="edge28" class="edge"><title>Node2&#45;&gt;Node11</title>
<path fill="none" stroke="midnightblue" d="M642.038,-387.648C655.602,-380.093 670.94,-369.446 681,-356 699.107,-331.799 701,-321.225 701,-291 701,-291 701,-291 701,-177 701,-88.8885 830.95,-70.5201 905.315,-67.2224"/>
<polygon fill="midnightblue" stroke="midnightblue" points="640.246,-384.636 633.017,-392.381 643.498,-390.834 640.246,-384.636"/>
</g>
<!-- Node2&#45;&gt;Node15 -->
<g id="edge26" class="edge"><title>Node2&#45;&gt;Node15</title>
<path fill="none" stroke="midnightblue" d="M607.46,-382.656C605.292,-374.566 603.071,-364.893 602,-356 600.937,-347.175 601.644,-344.882 602,-336 604.002,-286.102 605.569,-273.642 611,-224 614.754,-189.685 620.912,-149.045 623.634,-131.626"/>
<polygon fill="midnightblue" stroke="midnightblue" points="604.156,-383.833 610.27,-392.486 610.887,-381.909 604.156,-383.833"/>
</g>
<!-- Node2&#45;&gt;Node17 -->
<g id="edge27" class="edge"><title>Node2&#45;&gt;Node17</title>
<path fill="none" stroke="midnightblue" d="M575.346,-390.268C532.68,-375.528 469,-344.557 469,-291 469,-291 469,-291 469,-233 469,-195.188 469,-150.064 469,-131.558"/>
<polygon fill="midnightblue" stroke="midnightblue" points="574.3,-393.608 584.894,-393.42 576.495,-386.961 574.3,-393.608"/>
</g>
<!-- Node21 -->
<g id="node21" class="node"><title>Node21</title>
<g id="a_node21"><a xlink:href="../../d7/d2a/_tuple_8h.html" target="_top" xlink:title="Template oriented tuple implementation. ">
<polygon fill="white" stroke="black" points="611,-336.5 611,-355.5 673,-355.5 673,-336.5 611,-336.5"/>
<text text-anchor="middle" x="642" y="-343.5" font-family="Helvetica,sans-Serif" font-size="10.00">stl/Tuple.h</text>
</a>
</g>
</g>
<!-- Node2&#45;&gt;Node21 -->
<g id="edge29" class="edge"><title>Node2&#45;&gt;Node21</title>
<path fill="none" stroke="midnightblue" d="M622.676,-382.983C627.598,-373.817 633.358,-363.092 637.3,-355.751"/>
<polygon fill="midnightblue" stroke="midnightblue" points="619.437,-381.617 617.789,-392.083 625.604,-384.929 619.437,-381.617"/>
</g>
<!-- Node4 -->
<g id="node4" class="node"><title>Node4</title>
<g id="a_node4"><a xlink:href="../../de/d0b/_string_iterator_8h.html" target="_top" xlink:title="strings/StringIterator.h">
<polygon fill="white" stroke="black" points="289.5,-280.5 289.5,-299.5 402.5,-299.5 402.5,-280.5 289.5,-280.5"/>
<text text-anchor="middle" x="346" y="-287.5" font-family="Helvetica,sans-Serif" font-size="10.00">strings/StringIterator.h</text>
</a>
</g>
</g>
<!-- Node3&#45;&gt;Node4 -->
<g id="edge3" class="edge"><title>Node3&#45;&gt;Node4</title>
<path fill="none" stroke="midnightblue" d="M346,-325.805C346,-316.91 346,-306.78 346,-299.751"/>
<polygon fill="midnightblue" stroke="midnightblue" points="342.5,-326.083 346,-336.083 349.5,-326.083 342.5,-326.083"/>
</g>
<!-- Node3&#45;&gt;Node10 -->
<g id="edge25" class="edge"><title>Node3&#45;&gt;Node10</title>
<path fill="none" stroke="midnightblue" d="M298.43,-337.904C212.906,-323.797 42,-288.867 42,-235 42,-235 42,-235 42,-177 42,-139.188 42,-94.0636 42,-75.5578"/>
<polygon fill="midnightblue" stroke="midnightblue" points="297.988,-341.378 308.419,-339.521 299.107,-334.468 297.988,-341.378"/>
</g>
<!-- Node5 -->
<g id="node5" class="node"><title>Node5</title>
<g id="a_node5"><a xlink:href="../../db/db5/_string_8h.html" target="_top" xlink:title="strings/String.h">
<polygon fill="white" stroke="black" points="307.5,-224.5 307.5,-243.5 390.5,-243.5 390.5,-224.5 307.5,-224.5"/>
<text text-anchor="middle" x="349" y="-231.5" font-family="Helvetica,sans-Serif" font-size="10.00">strings/String.h</text>
</a>
</g>
</g>
<!-- Node4&#45;&gt;Node5 -->
<g id="edge4" class="edge"><title>Node4&#45;&gt;Node5</title>
<path fill="none" stroke="midnightblue" d="M347.066,-269.805C347.561,-260.91 348.123,-250.78 348.514,-243.751"/>
<polygon fill="midnightblue" stroke="midnightblue" points="343.556,-269.904 346.495,-280.083 350.545,-270.293 343.556,-269.904"/>
</g>
<!-- Node6 -->
<g id="node6" class="node"><title>Node6</title>
<g id="a_node6"><a xlink:href="../../de/d6d/_bitset_8h.html" target="_top" xlink:title="Bitset is a class that provides bits manipulation methods. ">
<polygon fill="white" stroke="black" points="108,-168.5 108,-187.5 172,-187.5 172,-168.5 108,-168.5"/>
<text text-anchor="middle" x="140" y="-175.5" font-family="Helvetica,sans-Serif" font-size="10.00">stl/Bitset.h</text>
</a>
</g>
</g>
<!-- Node5&#45;&gt;Node6 -->
<g id="edge5" class="edge"><title>Node5&#45;&gt;Node6</title>
<path fill="none" stroke="midnightblue" d="M305.955,-221.878C266.236,-211.616 208.144,-196.607 172.275,-187.339"/>
<polygon fill="midnightblue" stroke="midnightblue" points="305.326,-225.331 315.883,-224.444 307.077,-218.553 305.326,-225.331"/>
</g>
<!-- Node9 -->
<g id="node9" class="node"><title>Node9</title>
<g id="a_node9"><a xlink:href="../../d7/d0c/_comparator_8h.html" target="_top" xlink:title="Comparator implementation for basic types. ">
<polygon fill="white" stroke="black" points="263.5,-112.5 263.5,-131.5 352.5,-131.5 352.5,-112.5 263.5,-112.5"/>
<text text-anchor="middle" x="308" y="-119.5" font-family="Helvetica,sans-Serif" font-size="10.00">stl/Comparator.h</text>
</a>
</g>
</g>
<!-- Node5&#45;&gt;Node9 -->
<g id="edge8" class="edge"><title>Node5&#45;&gt;Node9</title>
<path fill="none" stroke="midnightblue" d="M299.098,-222.046C266.676,-213.803 228.698,-201.62 219,-188 200.411,-161.894 244.248,-142.123 276.78,-131.574"/>
<polygon fill="midnightblue" stroke="midnightblue" points="298.397,-225.478 308.944,-224.475 300.073,-218.682 298.397,-225.478"/>
</g>
<!-- Node14 -->
<g id="node14" class="node"><title>Node14</title>
<g id="a_node14"><a xlink:href="../../d2/dc2/_equal_8h.html" target="_top" xlink:title="stl/Equal.h">
<polygon fill="white" stroke="black" points="228.5,-168.5 228.5,-187.5 291.5,-187.5 291.5,-168.5 228.5,-168.5"/>
<text text-anchor="middle" x="260" y="-175.5" font-family="Helvetica,sans-Serif" font-size="10.00">stl/Equal.h</text>
</a>
</g>
</g>
<!-- Node5&#45;&gt;Node14 -->
<g id="edge13" class="edge"><title>Node5&#45;&gt;Node14</title>
<path fill="none" stroke="midnightblue" d="M325.762,-218.901C309.442,-208.999 288.135,-196.071 274.264,-187.655"/>
<polygon fill="midnightblue" stroke="midnightblue" points="324.336,-222.129 334.701,-224.324 327.967,-216.144 324.336,-222.129"/>
</g>
<!-- Node19 -->
<g id="node19" class="node"><title>Node19</title>
<g id="a_node19"><a xlink:href="../../d2/dad/_hash_8h.html" target="_top" xlink:title="stl/Hash.h">
<polygon fill="white" stroke="black" points="535,-168.5 535,-187.5 597,-187.5 597,-168.5 535,-168.5"/>
<text text-anchor="middle" x="566" y="-175.5" font-family="Helvetica,sans-Serif" font-size="10.00">stl/Hash.h</text>
</a>
</g>
</g>
<!-- Node5&#45;&gt;Node19 -->
<g id="edge20" class="edge"><title>Node5&#45;&gt;Node19</title>
<path fill="none" stroke="midnightblue" d="M393.11,-222.023C435.276,-211.53 497.77,-195.979 534.941,-186.729"/>
<polygon fill="midnightblue" stroke="midnightblue" points="392.243,-218.632 383.384,-224.444 393.934,-225.425 392.243,-218.632"/>
</g>
<!-- Node20 -->
<g id="node20" class="node"><title>Node20</title>
<g id="a_node20"><a xlink:href="../../d9/dae/_string_8cpp.html" target="_top" xlink:title="strings/String.cpp">
<polygon fill="white" stroke="black" points="309.5,-168.5 309.5,-187.5 402.5,-187.5 402.5,-168.5 309.5,-168.5"/>
<text text-anchor="middle" x="356" y="-175.5" font-family="Helvetica,sans-Serif" font-size="10.00">strings/String.cpp</text>
</a>
</g>
</g>
<!-- Node5&#45;&gt;Node20 -->
<g id="edge24" class="edge"><title>Node5&#45;&gt;Node20</title>
<path fill="none" stroke="midnightblue" d="M351.45,-214.101C352.612,-205.136 353.944,-194.858 354.866,-187.751"/>
<polygon fill="midnightblue" stroke="midnightblue" points="347.971,-213.716 350.156,-224.083 354.912,-214.616 347.971,-213.716"/>
</g>
<!-- Node7 -->
<g id="node7" class="node"><title>Node7</title>
<g id="a_node7"><a xlink:href="../../de/d66/_packet_constructor_8h.html" target="_top" xlink:title="comm/PacketConstructor.h">
<polygon fill="white" stroke="black" points="108.5,-112.5 108.5,-131.5 245.5,-131.5 245.5,-112.5 108.5,-112.5"/>
<text text-anchor="middle" x="177" y="-119.5" font-family="Helvetica,sans-Serif" font-size="10.00">comm/PacketConstructor.h</text>
</a>
</g>
</g>
<!-- Node6&#45;&gt;Node7 -->
<g id="edge6" class="edge"><title>Node6&#45;&gt;Node7</title>
<path fill="none" stroke="midnightblue" d="M151.946,-159.566C158.312,-150.275 165.867,-139.248 171.004,-131.751"/>
<polygon fill="midnightblue" stroke="midnightblue" points="148.875,-157.855 146.11,-168.083 154.649,-161.812 148.875,-157.855"/>
</g>
<!-- Node8 -->
<g id="node8" class="node"><title>Node8</title>
<g id="a_node8"><a xlink:href="../../d9/dde/_packet_constructor_8cpp.html" target="_top" xlink:title="Creates a packet for sending data from the slave systems to the main computer. ">
<polygon fill="white" stroke="black" points="103.5,-56.5 103.5,-75.5 250.5,-75.5 250.5,-56.5 103.5,-56.5"/>
<text text-anchor="middle" x="177" y="-63.5" font-family="Helvetica,sans-Serif" font-size="10.00">comm/PacketConstructor.cpp</text>
</a>
</g>
</g>
<!-- Node7&#45;&gt;Node8 -->
<g id="edge7" class="edge"><title>Node7&#45;&gt;Node8</title>
<path fill="none" stroke="midnightblue" d="M177,-101.805C177,-92.9102 177,-82.7798 177,-75.7511"/>
<polygon fill="midnightblue" stroke="midnightblue" points="173.5,-102.083 177,-112.083 180.5,-102.083 173.5,-102.083"/>
</g>
<!-- Node9&#45;&gt;Node10 -->
<g id="edge9" class="edge"><title>Node9&#45;&gt;Node10</title>
<path fill="none" stroke="midnightblue" d="M255.832,-110.41C205.561,-100.204 130.468,-84.9597 83.9513,-75.5164"/>
<polygon fill="midnightblue" stroke="midnightblue" points="255.355,-113.884 265.852,-112.444 256.748,-107.024 255.355,-113.884"/>
</g>
<!-- Node9&#45;&gt;Node11 -->
<g id="edge10" class="edge"><title>Node9&#45;&gt;Node11</title>
<path fill="none" stroke="midnightblue" d="M362.532,-116.456C486.052,-106.162 785.733,-81.1889 905.408,-71.216"/>
<polygon fill="midnightblue" stroke="midnightblue" points="362.214,-112.97 352.54,-117.288 362.796,-119.946 362.214,-112.97"/>
</g>
<!-- Node12 -->
<g id="node12" class="node"><title>Node12</title>
<g id="a_node12"><a xlink:href="../../df/d87/_tree_map_8h.html" target="_top" xlink:title="Map implementation using red black tree. ">
<polygon fill="white" stroke="black" points="870.5,-0.5 870.5,-19.5 947.5,-19.5 947.5,-0.5 870.5,-0.5"/>
<text text-anchor="middle" x="909" y="-7.5" font-family="Helvetica,sans-Serif" font-size="10.00">stl/TreeMap.h</text>
</a>
</g>
</g>
<!-- Node11&#45;&gt;Node12 -->
<g id="edge11" class="edge"><title>Node11&#45;&gt;Node12</title>
<path fill="none" stroke="midnightblue" d="M941.579,-48.4314C933.342,-38.9673 923.346,-27.4827 916.617,-19.7511"/>
<polygon fill="midnightblue" stroke="midnightblue" points="939.034,-50.8378 948.239,-56.083 944.314,-46.2421 939.034,-50.8378"/>
</g>
<!-- Node13 -->
<g id="node13" class="node"><title>Node13</title>
<g id="a_node13"><a xlink:href="../../dd/dba/_tree_set_8h.html" target="_top" xlink:title="Set implementation using red black tree. ">
<polygon fill="white" stroke="black" points="965.5,-0.5 965.5,-19.5 1038.5,-19.5 1038.5,-0.5 965.5,-0.5"/>
<text text-anchor="middle" x="1002" y="-7.5" font-family="Helvetica,sans-Serif" font-size="10.00">stl/TreeSet.h</text>
</a>
</g>
</g>
<!-- Node11&#45;&gt;Node13 -->
<g id="edge12" class="edge"><title>Node11&#45;&gt;Node13</title>
<path fill="none" stroke="midnightblue" d="M970.114,-48.4314C978.176,-38.9673 987.959,-27.4827 994.545,-19.7511"/>
<polygon fill="midnightblue" stroke="midnightblue" points="967.416,-46.2009 963.596,-56.083 972.745,-50.7402 967.416,-46.2009"/>
</g>
<!-- Node14&#45;&gt;Node9 -->
<g id="edge14" class="edge"><title>Node14&#45;&gt;Node9</title>
<path fill="none" stroke="midnightblue" d="M274.728,-160.431C283.14,-150.967 293.349,-139.483 300.221,-131.751"/>
<polygon fill="midnightblue" stroke="midnightblue" points="271.954,-158.284 267.926,-168.083 277.186,-162.934 271.954,-158.284"/>
</g>
<!-- Node14&#45;&gt;Node15 -->
<g id="edge15" class="edge"><title>Node14&#45;&gt;Node15</title>
<path fill="none" stroke="midnightblue" d="M301.785,-167.79C408.382,-148.757 523.118,-134.588 583.267,-127.645"/>
<polygon fill="midnightblue" stroke="midnightblue" points="301.047,-164.366 291.828,-169.586 302.29,-171.255 301.047,-164.366"/>
</g>
<!-- Node14&#45;&gt;Node17 -->
<g id="edge17" class="edge"><title>Node14&#45;&gt;Node17</title>
<path fill="none" stroke="midnightblue" d="M301.585,-166.256C341.037,-156.062 399.547,-140.945 435.921,-131.547"/>
<polygon fill="midnightblue" stroke="midnightblue" points="300.549,-162.908 291.743,-168.799 302.3,-169.686 300.549,-162.908"/>
</g>
<!-- Node18 -->
<g id="node18" class="node"><title>Node18</title>
<g id="a_node18"><a xlink:href="../../d0/de6/_open_set_8h.html" target="_top" xlink:title="Hash set implementation. ">
<polygon fill="white" stroke="black" points="430.5,-56.5 430.5,-75.5 507.5,-75.5 507.5,-56.5 430.5,-56.5"/>
<text text-anchor="middle" x="469" y="-63.5" font-family="Helvetica,sans-Serif" font-size="10.00">stl/OpenSet.h</text>
</a>
</g>
</g>
<!-- Node14&#45;&gt;Node18 -->
<g id="edge19" class="edge"><title>Node14&#45;&gt;Node18</title>
<path fill="none" stroke="midnightblue" d="M290.609,-164.519C310.878,-155.974 337.886,-144.047 361,-132 396.319,-113.592 436.006,-88.5046 455.998,-75.5393"/>
<polygon fill="midnightblue" stroke="midnightblue" points="289.126,-161.346 281.247,-168.428 291.823,-167.805 289.126,-161.346"/>
</g>
<!-- Node16 -->
<g id="node16" class="node"><title>Node16</title>
<g id="a_node16"><a xlink:href="../../d6/d59/_chain_set_8h.html" target="_top" xlink:title="Hash set implementation. ">
<polygon fill="white" stroke="black" points="585.5,-56.5 585.5,-75.5 664.5,-75.5 664.5,-56.5 585.5,-56.5"/>
<text text-anchor="middle" x="625" y="-63.5" font-family="Helvetica,sans-Serif" font-size="10.00">stl/ChainSet.h</text>
</a>
</g>
</g>
<!-- Node15&#45;&gt;Node16 -->
<g id="edge16" class="edge"><title>Node15&#45;&gt;Node16</title>
<path fill="none" stroke="midnightblue" d="M625,-101.805C625,-92.9102 625,-82.7798 625,-75.7511"/>
<polygon fill="midnightblue" stroke="midnightblue" points="621.5,-102.083 625,-112.083 628.5,-102.083 621.5,-102.083"/>
</g>
<!-- Node17&#45;&gt;Node18 -->
<g id="edge18" class="edge"><title>Node17&#45;&gt;Node18</title>
<path fill="none" stroke="midnightblue" d="M469,-101.805C469,-92.9102 469,-82.7798 469,-75.7511"/>
<polygon fill="midnightblue" stroke="midnightblue" points="465.5,-102.083 469,-112.083 472.5,-102.083 465.5,-102.083"/>
</g>
<!-- Node19&#45;&gt;Node15 -->
<g id="edge21" class="edge"><title>Node19&#45;&gt;Node15</title>
<path fill="none" stroke="midnightblue" d="M582.895,-161.537C593.415,-151.909 606.569,-139.869 615.348,-131.834"/>
<polygon fill="midnightblue" stroke="midnightblue" points="580.493,-158.99 575.479,-168.324 585.219,-164.154 580.493,-158.99"/>
</g>
<!-- Node19&#45;&gt;Node17 -->
<g id="edge22" class="edge"><title>Node19&#45;&gt;Node17</title>
<path fill="none" stroke="midnightblue" d="M541.665,-163.453C523.757,-153.483 499.946,-140.228 484.546,-131.655"/>
<polygon fill="midnightblue" stroke="midnightblue" points="539.975,-166.518 550.415,-168.324 543.38,-160.402 539.975,-166.518"/>
</g>
<!-- Node19&#45;&gt;Node18 -->
<g id="edge23" class="edge"><title>Node19&#45;&gt;Node18</title>
<path fill="none" stroke="midnightblue" d="M554.659,-159.818C545.423,-146.299 531.712,-127.261 518,-112 505.803,-98.4256 489.997,-84.4657 479.682,-75.7669"/>
<polygon fill="midnightblue" stroke="midnightblue" points="551.798,-161.836 560.283,-168.181 557.607,-157.93 551.798,-161.836"/>
</g>
<!-- Node22&#45;&gt;Node5 -->
<g id="edge31" class="edge"><title>Node22&#45;&gt;Node5</title>
<path fill="none" stroke="midnightblue" d="M774.634,-282.39C675.048,-271.302 476.796,-249.229 390.615,-239.633"/>
<polygon fill="midnightblue" stroke="midnightblue" points="774.501,-285.897 784.827,-283.525 775.275,-278.94 774.501,-285.897"/>
</g>
<!-- Node22&#45;&gt;Node11 -->
<g id="edge40" class="edge"><title>Node22&#45;&gt;Node11</title>
<path fill="none" stroke="midnightblue" d="M893.358,-289.681C977.559,-289.234 1125.24,-282.758 1159,-244 1222.88,-170.664 1048.94,-99.6513 981.471,-75.5998"/>
<polygon fill="midnightblue" stroke="midnightblue" points="893.157,-286.182 883.166,-289.708 893.175,-293.182 893.157,-286.182"/>
</g>
<!-- Node22&#45;&gt;Node15 -->
<g id="edge37" class="edge"><title>Node22&#45;&gt;Node15</title>
<path fill="none" stroke="midnightblue" d="M808.19,-275.569C793.048,-267.244 773.841,-255.895 758,-244 718.525,-214.358 713.672,-201.047 677,-168 662.632,-155.052 645.625,-140.471 635.073,-131.509"/>
<polygon fill="midnightblue" stroke="midnightblue" points="806.564,-278.669 817.026,-280.34 809.89,-272.509 806.564,-278.669"/>
</g>
<!-- Node22&#45;&gt;Node17 -->
<g id="edge39" class="edge"><title>Node22&#45;&gt;Node17</title>
<path fill="none" stroke="midnightblue" d="M774.756,-279.283C709.539,-266.479 603.658,-239.31 526,-188 502.958,-172.776 483.593,-145.857 474.522,-131.92"/>
<polygon fill="midnightblue" stroke="midnightblue" points="774.383,-282.775 784.863,-281.216 775.698,-275.9 774.383,-282.775"/>
</g>
<!-- Node23 -->
<g id="node23" class="node"><title>Node23</title>
<g id="a_node23"><a xlink:href="../../d7/d9e/_exceptions_8cpp.html" target="_top" xlink:title="Implementation of Exceptions using C style. ">
<polygon fill="white" stroke="black" points="767,-224.5 767,-243.5 901,-243.5 901,-224.5 767,-224.5"/>
<text text-anchor="middle" x="834" y="-231.5" font-family="Helvetica,sans-Serif" font-size="10.00">exceptions/Exceptions.cpp</text>
</a>
</g>
</g>
<!-- Node22&#45;&gt;Node23 -->
<g id="edge32" class="edge"><title>Node22&#45;&gt;Node23</title>
<path fill="none" stroke="midnightblue" d="M834,-269.805C834,-260.91 834,-250.78 834,-243.751"/>
<polygon fill="midnightblue" stroke="midnightblue" points="830.5,-270.083 834,-280.083 837.5,-270.083 830.5,-270.083"/>
</g>
<!-- Node24 -->
<g id="node24" class="node"><title>Node24</title>
<g id="a_node24"><a xlink:href="../../df/dcf/_state_machine_8h.html" target="_top" xlink:title="fsm/StateMachine.h">
<polygon fill="white" stroke="black" points="919,-224.5 919,-243.5 1023,-243.5 1023,-224.5 919,-224.5"/>
<text text-anchor="middle" x="971" y="-231.5" font-family="Helvetica,sans-Serif" font-size="10.00">fsm/StateMachine.h</text>
</a>
</g>
</g>
<!-- Node22&#45;&gt;Node24 -->
<g id="edge33" class="edge"><title>Node22&#45;&gt;Node24</title>
<path fill="none" stroke="midnightblue" d="M865.023,-276.772C890.757,-266.629 926.686,-252.467 949.394,-243.516"/>
<polygon fill="midnightblue" stroke="midnightblue" points="863.728,-273.52 855.708,-280.444 866.295,-280.033 863.728,-273.52"/>
</g>
<!-- Node25 -->
<g id="node25" class="node"><title>Node25</title>
<g id="a_node25"><a xlink:href="../../df/d64/_memory_8cpp.html" target="_top" xlink:title="Implementation of Memory functions. ">
<polygon fill="white" stroke="black" points="1041.5,-224.5 1041.5,-243.5 1150.5,-243.5 1150.5,-224.5 1041.5,-224.5"/>
<text text-anchor="middle" x="1096" y="-231.5" font-family="Helvetica,sans-Serif" font-size="10.00">memory/Memory.cpp</text>
</a>
</g>
</g>
<!-- Node22&#45;&gt;Node25 -->
<g id="edge34" class="edge"><title>Node22&#45;&gt;Node25</title>
<path fill="none" stroke="midnightblue" d="M885.383,-278.41C934.898,-268.204 1008.86,-252.96 1054.68,-243.516"/>
<polygon fill="midnightblue" stroke="midnightblue" points="884.602,-274.997 875.515,-280.444 886.015,-281.853 884.602,-274.997"/>
</g>
<!-- Node22&#45;&gt;Node26 -->
<g id="edge35" class="edge"><title>Node22&#45;&gt;Node26</title>
<path fill="none" stroke="midnightblue" d="M774.546,-286.061C675.412,-280.702 470.227,-267.652 298,-244 295.284,-243.627 292.487,-243.201 289.675,-242.741"/>
<polygon fill="midnightblue" stroke="midnightblue" points="774.494,-289.563 784.666,-286.601 774.867,-282.573 774.494,-289.563"/>
</g>
<!-- Node22&#45;&gt;Node27 -->
<g id="edge38" class="edge"><title>Node22&#45;&gt;Node27</title>
<path fill="none" stroke="midnightblue" d="M893.355,-284.734C981.765,-278.042 1153.18,-263.77 1298,-244 1301.03,-243.587 1304.15,-243.124 1307.29,-242.633"/>
<polygon fill="midnightblue" stroke="midnightblue" points="892.96,-281.253 883.251,-285.493 893.485,-288.234 892.96,-281.253"/>
</g>
<!-- Node28 -->
<g id="node28" class="node"><title>Node28</title>
<g id="a_node28"><a xlink:href="../../d8/df6/_unique_ptr_8h.html" target="_top" xlink:title="Unique pointer implementation. ">
<polygon fill="white" stroke="black" points="1207,-224.5 1207,-243.5 1289,-243.5 1289,-224.5 1207,-224.5"/>
<text text-anchor="middle" x="1248" y="-231.5" font-family="Helvetica,sans-Serif" font-size="10.00">stl/UniquePtr.h</text>
</a>
</g>
</g>
<!-- Node22&#45;&gt;Node28 -->
<g id="edge41" class="edge"><title>Node22&#45;&gt;Node28</title>
<path fill="none" stroke="midnightblue" d="M893.274,-282.26C964.526,-273.999 1087.67,-259.213 1193,-244 1197.5,-243.35 1202.2,-242.635 1206.88,-241.901"/>
<polygon fill="midnightblue" stroke="midnightblue" points="892.678,-278.806 883.146,-283.431 893.482,-285.759 892.678,-278.806"/>
</g>
<!-- Node26&#45;&gt;Node10 -->
<g id="edge36" class="edge"><title>Node26&#45;&gt;Node10</title>
<path fill="none" stroke="midnightblue" d="M201.981,-228.853C169.501,-223.814 127.74,-212.662 99,-188 80.4967,-172.122 53.9944,-100.871 45.0675,-75.7784"/>
<polygon fill="midnightblue" stroke="midnightblue" points="201.783,-232.359 212.172,-230.284 202.756,-225.427 201.783,-232.359"/>
</g>
<!-- Node28&#45;&gt;Node29 -->
<g id="edge42" class="edge"><title>Node28&#45;&gt;Node29</title>
<path fill="none" stroke="midnightblue" d="M1267.31,-218.101C1279.91,-208.382 1295.93,-196.027 1306.55,-187.834"/>
<polygon fill="midnightblue" stroke="midnightblue" points="1265.03,-215.445 1259.25,-224.324 1269.3,-220.987 1265.03,-215.445"/>
</g>
</g>
</svg>
        <g id="navigator" transform="translate(0 0)" fill="#404254">
                <rect fill="#f2f5e9" fill-opacity="0.5" stroke="#606060" stroke-width=".5" x="0" y="0" width="60" height="60"/>
                <use id="zoomplus" xlink:href="#zoomPlus" x="17" y="9" onmousedown="handleZoom(evt,'in')"/>
                <use id="zoomminus" xlink:href="#zoomMin" x="42" y="9" onmousedown="handleZoom(evt,'out')"/>
                <use id="reset" xlink:href="#resetDef" x="30" y="36" onmousedown="handleReset()"/>
                <g id="arrowUp" xlink:href="#dirArrow" transform="translate(30 24)" onmousedown="handlePan(0,-1)">
                  <use xlink:href="#rim" fill="#404040">
                        <set attributeName="fill" to="#808080" begin="arrowUp.mouseover" end="arrowUp.mouseout"/>
                  </use>
                  <path fill="none" stroke="white" stroke-width="1.5" d="M0,-3.0v7 M-2.5,-0.5L0,-3.0L2.5,-0.5"/>
                </g>
                <g id="arrowRight" xlink:href="#dirArrow" transform="rotate(90) translate(36 -43)" onmousedown="handlePan(1,0)">
                  <use xlink:href="#rim" fill="#404040">
                        <set attributeName="fill" to="#808080" begin="arrowRight.mouseover" end="arrowRight.mouseout"/>
                  </use>
                  <path fill="none" stroke="white" stroke-width="1.5" d="M0,-3.0v7 M-2.5,-0.5L0,-3.0L2.5,-0.5"/>
                </g>
                <g id="arrowDown" xlink:href="#dirArrow" transform="rotate(180) translate(-30 -48)" onmousedown="handlePan(0,1)">
                  <use xlink:href="#rim" fill="#404040">
                        <set attributeName="fill" to="#808080" begin="arrowDown.mouseover" end="arrowDown.mouseout"/>
                  </use>
                  <path fill="none" stroke="white" stroke-width="1.5" d="M0,-3.0v7 M-2.5,-0.5L0,-3.0L2.5,-0.5"/>
                </g>
                <g id="arrowLeft" xlink:href="#dirArrow" transform="rotate(270) translate(-36 17)" onmousedown="handlePan(-1,0)">
                  <use xlink:href="#rim" fill="#404040">
                        <set attributeName="fill" to="#808080" begin="arrowLeft.mouseover" end="arrowLeft.mouseout"/>
                  </use>
                  <path fill="none" stroke="white" stroke-width="1.5" d="M0,-3.0v7 M-2.5,-0.5L0,-3.0L2.5,-0.5"/>
                </g>
        </g>
        <svg viewBox="0 0 15 15" width="100%" height="30px" preserveAspectRatio="xMaxYMin meet">
         <g id="arrow_out" transform="scale(0.3 0.3)">
          <a xlink:href="_utility_8h__dep__incl_org.svg" target="_base">
           <rect id="button" ry="5" rx="5" y="6" x="6" height="38" width="38"
                fill="#f2f5e9" fill-opacity="0.5" stroke="#606060" stroke-width="1.0"/>
           <path id="arrow"
             d="M 11.500037,31.436501 C 11.940474,20.09759 22.043105,11.32322 32.158766,21.979434 L 37.068811,17.246167 C 37.068811,17.246167 37.088388,32 37.088388,32 L 22.160133,31.978069 C 22.160133,31.978069 26.997745,27.140456 26.997745,27.140456 C 18.528582,18.264221 13.291696,25.230495 11.500037,31.436501 z"
             style="fill:#404040;"/>
          </a>
         </g>
        </svg>
</svg>
