<?xml version="1.0" encoding="UTF-8" standalone="no"?>
<!DOCTYPE svg PUBLIC "-//W3C//DTD SVG 1.1//EN"
 "http://www.w3.org/Graphics/SVG/1.1/DTD/svg11.dtd">
<!-- Generated by graphviz version 2.36.0 (20140111.2315)
 -->
<!-- Title: wlib/utility/Utility.h Pages: 1 -->
<!--zoomable 476 -->
<svg id="main" version="1.1" xmlns="http://www.w3.org/2000/svg" xmlns:xlink="http://www.w3.org/1999/xlink" xml:space="preserve" onload="init(evt)">
<style type="text/css"><![CDATA[
.edge:hover path { stroke: red; }
.edge:hover polygon { stroke: red; fill: red; }
]]></style>
<script type="text/javascript"><![CDATA[
var edges = document.getElementsByTagName('g');
if (edges && edges.length) {
  for (var i=0;i<edges.length;i++) {
    if (edges[i].id.substr(0,4)=='edge') {
      edges[i].setAttribute('class','edge');
    }
  }
}
]]></script>
        <defs>
                <circle id="rim" cx="0" cy="0" r="7"/>
                <circle id="rim2" cx="0" cy="0" r="3.5"/>
                <g id="zoomPlus">
                        <use xlink:href="#rim" fill="#404040">
                                <set attributeName="fill" to="#808080" begin="zoomplus.mouseover" end="zoomplus.mouseout"/>
                        </use>
                        <path d="M-4,0h8M0,-4v8" fill="none" stroke="white" stroke-width="1.5" pointer-events="none"/>
                </g>
                <g id="zoomMin">
                        <use xlink:href="#rim" fill="#404040">
                                <set attributeName="fill" to="#808080" begin="zoomminus.mouseover" end="zoomminus.mouseout"/>
                        </use>
                        <path d="M-4,0h8" fill="none" stroke="white" stroke-width="1.5" pointer-events="none"/>
                </g>
                <g id="dirArrow">
                        <path fill="none" stroke="white" stroke-width="1.5" d="M0,-3.0v7 M-2.5,-0.5L0,-3.0L2.5,-0.5"/>
                </g>
               <g id="resetDef">
                       <use xlink:href="#rim2" fill="#404040">
                               <set attributeName="fill" to="#808080" begin="reset.mouseover" end="reset.mouseout"/>
                       </use>
               </g>
        </defs>

<script type="text/javascript">
var viewWidth = 1893;
var viewHeight = 476;
var sectionId = 'dynsection-1';
</script>
<script xlink:href="../../svgpan.js"/>
<svg id="graph" class="graph">
<g id="viewport">
<title>wlib/utility/Utility.h</title>
<polygon fill="white" stroke="none" points="-4,4 -4,-472 1888.95,-472 1888.95,4 -4,4"/>
<!-- Node1 -->
<g id="node1" class="node"><title>Node1</title>
<polygon fill="#bfbfbf" stroke="black" points="1020.5,-448.5 1020.5,-467.5 1117.5,-467.5 1117.5,-448.5 1020.5,-448.5"/>
<text text-anchor="middle" x="1069" y="-455.5" font-family="Helvetica,sans-Serif" font-size="10.00">wlib/utility/Utility.h</text>
</g>
<!-- Node2 -->
<g id="node2" class="node"><title>Node2</title>
<g id="a_node2"><a xlink:href="../../d3/de6/_memory_8h.html" target="_top" xlink:title="Memory is a class that provides dynamic fixed size memory. ">
<polygon fill="white" stroke="black" points="708.5,-392.5 708.5,-411.5 827.5,-411.5 827.5,-392.5 708.5,-392.5"/>
<text text-anchor="middle" x="768" y="-399.5" font-family="Helvetica,sans-Serif" font-size="10.00">wlib/memory/Memory.h</text>
</a>
</g>
</g>
<!-- Node1&#45;&gt;Node2 -->
<g id="edge1" class="edge"><title>Node1&#45;&gt;Node2</title>
<path fill="none" stroke="midnightblue" d="M1011.39,-446.664C954.504,-436.459 868.548,-421.039 815.471,-411.516"/>
<polygon fill="midnightblue" stroke="midnightblue" points="1010.84,-450.123 1021.31,-448.444 1012.08,-443.233 1010.84,-450.123"/>
</g>
<!-- Node6 -->
<g id="node6" class="node"><title>Node6</title>
<g id="a_node6"><a xlink:href="../../d2/db9/_array_list_8h.html" target="_top" xlink:title="List implementation using an array. ">
<polygon fill="white" stroke="black" points="28,-336.5 28,-355.5 126,-355.5 126,-336.5 28,-336.5"/>
<text text-anchor="middle" x="77" y="-343.5" font-family="Helvetica,sans-Serif" font-size="10.00">wlib/stl/ArrayList.h</text>
</a>
</g>
</g>
<!-- Node1&#45;&gt;Node6 -->
<g id="edge44" class="edge"><title>Node1&#45;&gt;Node6</title>
<path fill="none" stroke="midnightblue" d="M1010.04,-456.65C818.088,-455.165 218.917,-447.689 140,-412 113.08,-399.826 91.7224,-370.478 82.2756,-355.745"/>
<polygon fill="midnightblue" stroke="midnightblue" points="1010.19,-460.151 1020.21,-456.726 1010.24,-453.151 1010.19,-460.151"/>
</g>
<!-- Node7 -->
<g id="node7" class="node"><title>Node7</title>
<g id="a_node7"><a xlink:href="../../df/d03/_array_heap_8h.html" target="_top" xlink:title="Heap manipulation and implementation. ">
<polygon fill="white" stroke="black" points="216.5,-56.5 216.5,-75.5 321.5,-75.5 321.5,-56.5 216.5,-56.5"/>
<text text-anchor="middle" x="269" y="-63.5" font-family="Helvetica,sans-Serif" font-size="10.00">wlib/stl/ArrayHeap.h</text>
</a>
</g>
</g>
<!-- Node1&#45;&gt;Node7 -->
<g id="edge43" class="edge"><title>Node1&#45;&gt;Node7</title>
<path fill="none" stroke="midnightblue" d="M1010.3,-455.925C814.924,-452.117 194.025,-438.073 108,-412 54.3855,-395.75 0,-403.023 0,-347 0,-347 0,-347 0,-177 0,-129.005 148.567,-91.5939 224.881,-75.5431"/>
<polygon fill="midnightblue" stroke="midnightblue" points="1010.31,-459.426 1020.38,-456.12 1010.45,-452.427 1010.31,-459.426"/>
</g>
<!-- Node8 -->
<g id="node8" class="node"><title>Node8</title>
<g id="a_node8"><a xlink:href="../../de/dc6/_linked_list_8h.html" target="_top" xlink:title="wlib/stl/LinkedList.h">
<polygon fill="white" stroke="black" points="880.5,-336.5 880.5,-355.5 983.5,-355.5 983.5,-336.5 880.5,-336.5"/>
<text text-anchor="middle" x="932" y="-343.5" font-family="Helvetica,sans-Serif" font-size="10.00">wlib/stl/LinkedList.h</text>
</a>
</g>
</g>
<!-- Node1&#45;&gt;Node8 -->
<g id="edge47" class="edge"><title>Node1&#45;&gt;Node8</title>
<path fill="none" stroke="midnightblue" d="M1050.09,-441.816C1020.91,-418.387 965.864,-374.19 942.7,-355.591"/>
<polygon fill="midnightblue" stroke="midnightblue" points="1048.26,-444.837 1058.25,-448.368 1052.64,-439.378 1048.26,-444.837"/>
</g>
<!-- Node9 -->
<g id="node9" class="node"><title>Node9</title>
<g id="a_node9"><a xlink:href="../../d8/d2e/_open_table_8h.html" target="_top" xlink:title="wlib/stl/OpenTable.h">
<polygon fill="white" stroke="black" points="824,-112.5 824,-131.5 930,-131.5 930,-112.5 824,-112.5"/>
<text text-anchor="middle" x="877" y="-119.5" font-family="Helvetica,sans-Serif" font-size="10.00">wlib/stl/OpenTable.h</text>
</a>
</g>
</g>
<!-- Node1&#45;&gt;Node9 -->
<g id="edge50" class="edge"><title>Node1&#45;&gt;Node9</title>
<path fill="none" stroke="midnightblue" d="M1058.57,-439.605C1033.07,-396.983 965.741,-283.822 912,-188 900.841,-168.102 888.279,-144.45 881.66,-131.884"/>
<polygon fill="midnightblue" stroke="midnightblue" points="1055.6,-441.458 1063.74,-448.239 1061.6,-437.862 1055.6,-441.458"/>
</g>
<!-- Node10 -->
<g id="node10" class="node"><title>Node10</title>
<g id="a_node10"><a xlink:href="../../d5/d7a/_open_map_8h.html" target="_top" xlink:title="Hash map implementation. ">
<polygon fill="white" stroke="black" points="1177.5,-56.5 1177.5,-75.5 1278.5,-75.5 1278.5,-56.5 1177.5,-56.5"/>
<text text-anchor="middle" x="1228" y="-63.5" font-family="Helvetica,sans-Serif" font-size="10.00">wlib/stl/OpenMap.h</text>
</a>
</g>
</g>
<!-- Node1&#45;&gt;Node10 -->
<g id="edge48" class="edge"><title>Node1&#45;&gt;Node10</title>
<path fill="none" stroke="midnightblue" d="M1066.17,-438.081C1063.59,-424.613 1058.95,-406.422 1051,-392 972.459,-249.454 706.329,-233.155 815,-112 838.809,-85.4561 1072.27,-73.0692 1177.28,-68.8064"/>
<polygon fill="midnightblue" stroke="midnightblue" points="1062.75,-438.824 1067.87,-448.096 1069.65,-437.651 1062.75,-438.824"/>
</g>
<!-- Node11 -->
<g id="node11" class="node"><title>Node11</title>
<g id="a_node11"><a xlink:href="../../d0/de6/_open_set_8h.html" target="_top" xlink:title="Hash set implementation. ">
<polygon fill="white" stroke="black" points="869.5,-56.5 869.5,-75.5 966.5,-75.5 966.5,-56.5 869.5,-56.5"/>
<text text-anchor="middle" x="918" y="-63.5" font-family="Helvetica,sans-Serif" font-size="10.00">wlib/stl/OpenSet.h</text>
</a>
</g>
</g>
<!-- Node1&#45;&gt;Node11 -->
<g id="edge49" class="edge"><title>Node1&#45;&gt;Node11</title>
<path fill="none" stroke="midnightblue" d="M1010.25,-456.35C857.549,-454.202 451.021,-445.421 321,-412 264.777,-397.548 234.895,-404.503 203,-356 52.3107,-126.848 260.486,-204.658 594,-112 689.482,-85.473 805.337,-74.2012 869.426,-69.7129"/>
<polygon fill="midnightblue" stroke="midnightblue" points="1010.32,-459.852 1020.37,-456.488 1010.41,-452.852 1010.32,-459.852"/>
</g>
<!-- Node12 -->
<g id="node12" class="node"><title>Node12</title>
<g id="a_node12"><a xlink:href="../../d5/d08/_red_black_tree_8h.html" target="_top" xlink:title="Red black tree implementation. ">
<polygon fill="white" stroke="black" points="1488.5,-56.5 1488.5,-75.5 1609.5,-75.5 1609.5,-56.5 1488.5,-56.5"/>
<text text-anchor="middle" x="1549" y="-63.5" font-family="Helvetica,sans-Serif" font-size="10.00">wlib/stl/RedBlackTree.h</text>
</a>
</g>
</g>
<!-- Node1&#45;&gt;Node12 -->
<g id="edge73" class="edge"><title>Node1&#45;&gt;Node12</title>
<path fill="none" stroke="midnightblue" d="M1127.67,-452.056C1267.84,-439.595 1618.42,-404.41 1725,-356 1767.03,-336.911 1806,-337.158 1806,-291 1806,-291 1806,-291 1806,-177 1806,-131.188 1766.93,-132.569 1726,-112 1689.17,-93.493 1644.1,-82.1779 1608.66,-75.5228"/>
<polygon fill="midnightblue" stroke="midnightblue" points="1127.21,-448.583 1117.55,-452.948 1127.82,-455.556 1127.21,-448.583"/>
</g>
<!-- Node16 -->
<g id="node16" class="node"><title>Node16</title>
<g id="a_node16"><a xlink:href="../../d1/d13/_shared_ptr_8h.html" target="_top" xlink:title="Shared pointer implementation. ">
<polygon fill="white" stroke="black" points="210,-280.5 210,-299.5 312,-299.5 312,-280.5 210,-280.5"/>
<text text-anchor="middle" x="261" y="-287.5" font-family="Helvetica,sans-Serif" font-size="10.00">wlib/stl/SharedPtr.h</text>
</a>
</g>
</g>
<!-- Node1&#45;&gt;Node16 -->
<g id="edge74" class="edge"><title>Node1&#45;&gt;Node16</title>
<path fill="none" stroke="midnightblue" d="M1010.22,-454.516C825.24,-446.102 264.187,-415.815 211,-356 193.877,-336.743 225.961,-312.223 246.231,-299.509"/>
<polygon fill="midnightblue" stroke="midnightblue" points="1010.15,-458.016 1020.3,-454.969 1010.46,-451.023 1010.15,-458.016"/>
</g>
<!-- Node23 -->
<g id="node23" class="node"><title>Node23</title>
<g id="a_node23"><a xlink:href="../../dd/d0b/_hash_map_8h.html" target="_top" xlink:title="wlib/stl/HashMap.h">
<polygon fill="white" stroke="black" points="1627.5,-56.5 1627.5,-75.5 1728.5,-75.5 1728.5,-56.5 1627.5,-56.5"/>
<text text-anchor="middle" x="1678" y="-63.5" font-family="Helvetica,sans-Serif" font-size="10.00">wlib/stl/HashMap.h</text>
</a>
</g>
</g>
<!-- Node1&#45;&gt;Node23 -->
<g id="edge45" class="edge"><title>Node1&#45;&gt;Node23</title>
<path fill="none" stroke="midnightblue" d="M1127.71,-457.48C1301.77,-458.383 1806.48,-457.052 1864,-412 1887.8,-393.363 1884,-377.225 1884,-347 1884,-347 1884,-347 1884,-177 1884,-106.759 1789.65,-81.21 1728.66,-72.0323"/>
<polygon fill="midnightblue" stroke="midnightblue" points="1127.73,-453.98 1117.71,-457.424 1127.69,-460.98 1127.73,-453.98"/>
</g>
<!-- Node25 -->
<g id="node25" class="node"><title>Node25</title>
<g id="a_node25"><a xlink:href="../../de/def/_hash_table_8h.html" target="_top" xlink:title="wlib/stl/HashTable.h">
<polygon fill="white" stroke="black" points="1596,-112.5 1596,-131.5 1702,-131.5 1702,-112.5 1596,-112.5"/>
<text text-anchor="middle" x="1649" y="-119.5" font-family="Helvetica,sans-Serif" font-size="10.00">wlib/stl/HashTable.h</text>
</a>
</g>
</g>
<!-- Node1&#45;&gt;Node25 -->
<g id="edge46" class="edge"><title>Node1&#45;&gt;Node25</title>
<path fill="none" stroke="midnightblue" d="M1127.74,-454.426C1189.85,-450.3 1290,-439.608 1372,-412 1421.01,-395.498 1434.93,-389.881 1474,-356 1557.71,-283.417 1626.27,-164.503 1644.34,-131.646"/>
<polygon fill="midnightblue" stroke="midnightblue" points="1127.49,-450.935 1117.72,-455.056 1127.92,-457.921 1127.49,-450.935"/>
</g>
<!-- Node28 -->
<g id="node28" class="node"><title>Node28</title>
<g id="a_node28"><a xlink:href="../../d0/d55/_allocator_8cpp.html" target="_top" xlink:title="Implementation of Allocator. ">
<polygon fill="white" stroke="black" points="1610,-392.5 1610,-411.5 1742,-411.5 1742,-392.5 1610,-392.5"/>
<text text-anchor="middle" x="1676" y="-399.5" font-family="Helvetica,sans-Serif" font-size="10.00">wlib/memory/Allocator.cpp</text>
</a>
</g>
</g>
<!-- Node1&#45;&gt;Node28 -->
<g id="edge41" class="edge"><title>Node1&#45;&gt;Node28</title>
<path fill="none" stroke="midnightblue" d="M1127.96,-452.485C1225.43,-444.904 1426.28,-428.79 1596,-412 1600.45,-411.56 1605.04,-411.089 1609.66,-410.602"/>
<polygon fill="midnightblue" stroke="midnightblue" points="1127.42,-449.016 1117.72,-453.279 1127.96,-455.995 1127.42,-449.016"/>
</g>
<!-- Node29 -->
<g id="node29" class="node"><title>Node29</title>
<g id="a_node29"><a xlink:href="../../d1/d65/_array2_d_8h.html" target="_top" xlink:title="wlib/stl/Array2D.h">
<polygon fill="white" stroke="black" points="1760.5,-392.5 1760.5,-411.5 1855.5,-411.5 1855.5,-392.5 1760.5,-392.5"/>
<text text-anchor="middle" x="1808" y="-399.5" font-family="Helvetica,sans-Serif" font-size="10.00">wlib/stl/Array2D.h</text>
</a>
</g>
</g>
<!-- Node1&#45;&gt;Node29 -->
<g id="edge42" class="edge"><title>Node1&#45;&gt;Node29</title>
<path fill="none" stroke="midnightblue" d="M1127.78,-454.919C1246.07,-450.334 1521.2,-437.67 1751,-412 1754.09,-411.655 1757.26,-411.262 1760.46,-410.837"/>
<polygon fill="midnightblue" stroke="midnightblue" points="1127.37,-451.432 1117.51,-455.312 1127.63,-458.427 1127.37,-451.432"/>
</g>
<!-- Node30 -->
<g id="node30" class="node"><title>Node30</title>
<g id="a_node30"><a xlink:href="../../d4/dda/_pair_8h.html" target="_top" xlink:title="Implementation of a 2&#45;element tuple. ">
<polygon fill="white" stroke="black" points="1287,-392.5 1287,-411.5 1363,-411.5 1363,-392.5 1287,-392.5"/>
<text text-anchor="middle" x="1325" y="-399.5" font-family="Helvetica,sans-Serif" font-size="10.00">wlib/stl/Pair.h</text>
</a>
</g>
</g>
<!-- Node1&#45;&gt;Node30 -->
<g id="edge51" class="edge"><title>Node1&#45;&gt;Node30</title>
<path fill="none" stroke="midnightblue" d="M1119.35,-446.379C1168.5,-436.013 1242.18,-420.47 1286.72,-411.075"/>
<polygon fill="midnightblue" stroke="midnightblue" points="1118.63,-442.955 1109.56,-448.444 1120.07,-449.804 1118.63,-442.955"/>
</g>
<!-- Node3 -->
<g id="node3" class="node"><title>Node3</title>
<g id="a_node3"><a xlink:href="../../d7/d9e/_exceptions_8cpp.html" target="_top" xlink:title="Implementation of Exceptions using C style. ">
<polygon fill="white" stroke="black" points="340.5,-336.5 340.5,-355.5 495.5,-355.5 495.5,-336.5 340.5,-336.5"/>
<text text-anchor="middle" x="418" y="-343.5" font-family="Helvetica,sans-Serif" font-size="10.00">wlib/exceptions/Exceptions.cpp</text>
</a>
</g>
</g>
<!-- Node2&#45;&gt;Node3 -->
<g id="edge2" class="edge"><title>Node2&#45;&gt;Node3</title>
<path fill="none" stroke="midnightblue" d="M702.645,-390.917C636.523,-380.715 535.428,-365.117 473.199,-355.516"/>
<polygon fill="midnightblue" stroke="midnightblue" points="702.125,-394.378 712.541,-392.444 703.192,-387.46 702.125,-394.378"/>
</g>
<!-- Node4 -->
<g id="node4" class="node"><title>Node4</title>
<g id="a_node4"><a xlink:href="../../df/dcf/_state_machine_8h.html" target="_top" xlink:title="wlib/fsm/StateMachine.h">
<polygon fill="white" stroke="black" points="513.5,-336.5 513.5,-355.5 638.5,-355.5 638.5,-336.5 513.5,-336.5"/>
<text text-anchor="middle" x="576" y="-343.5" font-family="Helvetica,sans-Serif" font-size="10.00">wlib/fsm/StateMachine.h</text>
</a>
</g>
</g>
<!-- Node2&#45;&gt;Node4 -->
<g id="edge3" class="edge"><title>Node2&#45;&gt;Node4</title>
<path fill="none" stroke="midnightblue" d="M727.817,-389.699C691.581,-379.507 639.086,-364.743 606.281,-355.516"/>
<polygon fill="midnightblue" stroke="midnightblue" points="727.003,-393.105 737.577,-392.444 728.898,-386.367 727.003,-393.105"/>
</g>
<!-- Node5 -->
<g id="node5" class="node"><title>Node5</title>
<g id="a_node5"><a xlink:href="../../df/d64/_memory_8cpp.html" target="_top" xlink:title="Implementation of Memory functions. ">
<polygon fill="white" stroke="black" points="656.5,-336.5 656.5,-355.5 785.5,-355.5 785.5,-336.5 656.5,-336.5"/>
<text text-anchor="middle" x="721" y="-343.5" font-family="Helvetica,sans-Serif" font-size="10.00">wlib/memory/Memory.cpp</text>
</a>
</g>
</g>
<!-- Node2&#45;&gt;Node5 -->
<g id="edge4" class="edge"><title>Node2&#45;&gt;Node5</title>
<path fill="none" stroke="midnightblue" d="M753.579,-384.431C745.342,-374.967 735.346,-363.483 728.617,-355.751"/>
<polygon fill="midnightblue" stroke="midnightblue" points="751.034,-386.838 760.239,-392.083 756.314,-382.242 751.034,-386.838"/>
</g>
<!-- Node2&#45;&gt;Node6 -->
<g id="edge5" class="edge"><title>Node2&#45;&gt;Node6</title>
<path fill="none" stroke="midnightblue" d="M698.323,-395.555C558.557,-384.633 247.044,-360.289 126.221,-350.847"/>
<polygon fill="midnightblue" stroke="midnightblue" points="698.245,-399.059 708.488,-396.349 698.791,-392.081 698.245,-399.059"/>
</g>
<!-- Node2&#45;&gt;Node8 -->
<g id="edge7" class="edge"><title>Node2&#45;&gt;Node8</title>
<path fill="none" stroke="midnightblue" d="M803.52,-389.304C834.422,-379.129 878.473,-364.625 906.135,-355.516"/>
<polygon fill="midnightblue" stroke="midnightblue" points="802.39,-385.992 793.986,-392.444 804.579,-392.64 802.39,-385.992"/>
</g>
<!-- Node2&#45;&gt;Node9 -->
<g id="edge8" class="edge"><title>Node2&#45;&gt;Node9</title>
<path fill="none" stroke="midnightblue" d="M779.011,-383.655C783.957,-375.456 789.646,-365.418 794,-356 814.003,-312.735 861.73,-169.289 874.055,-131.949"/>
<polygon fill="midnightblue" stroke="midnightblue" points="775.954,-381.944 773.671,-392.29 781.907,-385.626 775.954,-381.944"/>
</g>
<!-- Node2&#45;&gt;Node12 -->
<g id="edge11" class="edge"><title>Node2&#45;&gt;Node12</title>
<path fill="none" stroke="midnightblue" d="M837.849,-401.329C955.544,-400.781 1187.45,-394.637 1258,-356 1350.79,-305.184 1323,-236.048 1404,-168 1430.18,-146.004 1443.66,-151.139 1472,-132 1498.39,-114.18 1526.17,-88.8448 1540.03,-75.6868"/>
<polygon fill="midnightblue" stroke="midnightblue" points="837.5,-397.83 827.512,-401.364 837.524,-404.83 837.5,-397.83"/>
</g>
<!-- Node15 -->
<g id="node15" class="node"><title>Node15</title>
<g id="a_node15"><a xlink:href="../../d8/df6/_unique_ptr_8h.html" target="_top" xlink:title="Unique pointer implementation. ">
<polygon fill="white" stroke="black" points="220,-336.5 220,-355.5 322,-355.5 322,-336.5 220,-336.5"/>
<text text-anchor="middle" x="271" y="-343.5" font-family="Helvetica,sans-Serif" font-size="10.00">wlib/stl/UniquePtr.h</text>
</a>
</g>
</g>
<!-- Node2&#45;&gt;Node15 -->
<g id="edge14" class="edge"><title>Node2&#45;&gt;Node15</title>
<path fill="none" stroke="midnightblue" d="M697.962,-394.795C611.562,-386.908 460.244,-372.339 331,-356 328.074,-355.63 325.07,-355.233 322.041,-354.82"/>
<polygon fill="midnightblue" stroke="midnightblue" points="697.895,-398.303 708.171,-395.723 698.529,-391.332 697.895,-398.303"/>
</g>
<!-- Node17 -->
<g id="node17" class="node"><title>Node17</title>
<g id="a_node17"><a xlink:href="../../db/db5/_string_8h.html" target="_top" xlink:title="wlib/strings/String.h">
<polygon fill="white" stroke="black" points="1064.5,-224.5 1064.5,-243.5 1167.5,-243.5 1167.5,-224.5 1064.5,-224.5"/>
<text text-anchor="middle" x="1116" y="-231.5" font-family="Helvetica,sans-Serif" font-size="10.00">wlib/strings/String.h</text>
</a>
</g>
</g>
<!-- Node2&#45;&gt;Node17 -->
<g id="edge16" class="edge"><title>Node2&#45;&gt;Node17</title>
<path fill="none" stroke="midnightblue" d="M788.409,-386.644C808.757,-372.689 841.189,-351.406 871,-336 948.861,-295.763 1046.51,-259.481 1091.38,-243.55"/>
<polygon fill="midnightblue" stroke="midnightblue" points="786.193,-383.921 779.964,-392.492 790.178,-389.676 786.193,-383.921"/>
</g>
<!-- Node6&#45;&gt;Node7 -->
<g id="edge6" class="edge"><title>Node6&#45;&gt;Node7</title>
<path fill="none" stroke="midnightblue" d="M83.4913,-326.786C90.5991,-305.182 101,-267.941 101,-235 101,-235 101,-235 101,-177 101,-117.385 175.959,-88.3319 225.736,-75.611"/>
<polygon fill="midnightblue" stroke="midnightblue" points="80.1616,-325.706 80.2367,-336.301 86.7849,-327.972 80.1616,-325.706"/>
</g>
<!-- Node9&#45;&gt;Node10 -->
<g id="edge9" class="edge"><title>Node9&#45;&gt;Node10</title>
<path fill="none" stroke="midnightblue" d="M940.454,-111.238C1008.38,-100.788 1114.78,-84.4184 1177.33,-74.7955"/>
<polygon fill="midnightblue" stroke="midnightblue" points="939.661,-107.819 930.309,-112.799 940.725,-114.737 939.661,-107.819"/>
</g>
<!-- Node9&#45;&gt;Node11 -->
<g id="edge10" class="edge"><title>Node9&#45;&gt;Node11</title>
<path fill="none" stroke="midnightblue" d="M890.017,-103.855C897.117,-94.5048 905.604,-83.3265 911.356,-75.7511"/>
<polygon fill="midnightblue" stroke="midnightblue" points="887.03,-102.002 883.77,-112.083 892.605,-106.235 887.03,-102.002"/>
</g>
<!-- Node13 -->
<g id="node13" class="node"><title>Node13</title>
<g id="a_node13"><a xlink:href="../../df/d87/_tree_map_8h.html" target="_top" xlink:title="Map implementation using red black tree. ">
<polygon fill="white" stroke="black" points="1500.5,-0.5 1500.5,-19.5 1597.5,-19.5 1597.5,-0.5 1500.5,-0.5"/>
<text text-anchor="middle" x="1549" y="-7.5" font-family="Helvetica,sans-Serif" font-size="10.00">wlib/stl/TreeMap.h</text>
</a>
</g>
</g>
<!-- Node12&#45;&gt;Node13 -->
<g id="edge12" class="edge"><title>Node12&#45;&gt;Node13</title>
<path fill="none" stroke="midnightblue" d="M1549,-45.8045C1549,-36.9102 1549,-26.7798 1549,-19.7511"/>
<polygon fill="midnightblue" stroke="midnightblue" points="1545.5,-46.083 1549,-56.083 1552.5,-46.083 1545.5,-46.083"/>
</g>
<!-- Node14 -->
<g id="node14" class="node"><title>Node14</title>
<g id="a_node14"><a xlink:href="../../dd/dba/_tree_set_8h.html" target="_top" xlink:title="Set implementation using red black tree. ">
<polygon fill="white" stroke="black" points="1382.5,-0.5 1382.5,-19.5 1475.5,-19.5 1475.5,-0.5 1382.5,-0.5"/>
<text text-anchor="middle" x="1429" y="-7.5" font-family="Helvetica,sans-Serif" font-size="10.00">wlib/stl/TreeSet.h</text>
</a>
</g>
</g>
<!-- Node12&#45;&gt;Node14 -->
<g id="edge13" class="edge"><title>Node12&#45;&gt;Node14</title>
<path fill="none" stroke="midnightblue" d="M1520.63,-52.2321C1498.18,-42.1312 1467.46,-28.3091 1447.93,-19.5164"/>
<polygon fill="midnightblue" stroke="midnightblue" points="1519.43,-55.5316 1529.99,-56.4435 1522.3,-49.1481 1519.43,-55.5316"/>
</g>
<!-- Node15&#45;&gt;Node16 -->
<g id="edge15" class="edge"><title>Node15&#45;&gt;Node16</title>
<path fill="none" stroke="midnightblue" d="M267.5,-326.101C265.84,-317.136 263.937,-306.858 262.621,-299.751"/>
<polygon fill="midnightblue" stroke="midnightblue" points="264.086,-326.888 269.349,-336.083 270.969,-325.613 264.086,-326.888"/>
</g>
<!-- Node18 -->
<g id="node18" class="node"><title>Node18</title>
<g id="a_node18"><a xlink:href="../../de/d6d/_bitset_8h.html" target="_top" xlink:title="Bitset is a class that provides bits manipulation methods. ">
<polygon fill="white" stroke="black" points="665,-168.5 665,-187.5 749,-187.5 749,-168.5 665,-168.5"/>
<text text-anchor="middle" x="707" y="-175.5" font-family="Helvetica,sans-Serif" font-size="10.00">wlib/stl/Bitset.h</text>
</a>
</g>
</g>
<!-- Node17&#45;&gt;Node18 -->
<g id="edge17" class="edge"><title>Node17&#45;&gt;Node18</title>
<path fill="none" stroke="midnightblue" d="M1054.26,-224.849C970.1,-213.737 821.549,-194.124 749.101,-184.559"/>
<polygon fill="midnightblue" stroke="midnightblue" points="1053.83,-228.322 1064.2,-226.161 1054.74,-221.382 1053.83,-228.322"/>
</g>
<!-- Node21 -->
<g id="node21" class="node"><title>Node21</title>
<g id="a_node21"><a xlink:href="../../d7/d0c/_comparator_8h.html" target="_top" xlink:title="Comparator implementation for basic types. ">
<polygon fill="white" stroke="black" points="1062,-112.5 1062,-131.5 1172,-131.5 1172,-112.5 1062,-112.5"/>
<text text-anchor="middle" x="1117" y="-119.5" font-family="Helvetica,sans-Serif" font-size="10.00">wlib/stl/Comparator.h</text>
</a>
</g>
</g>
<!-- Node17&#45;&gt;Node21 -->
<g id="edge20" class="edge"><title>Node17&#45;&gt;Node21</title>
<path fill="none" stroke="midnightblue" d="M1139.25,-218.683C1149.48,-210.988 1160.43,-200.502 1166,-188 1176.06,-165.408 1149.47,-143.329 1131.63,-131.619"/>
<polygon fill="midnightblue" stroke="midnightblue" points="1137.15,-215.881 1130.95,-224.474 1141.16,-221.621 1137.15,-215.881"/>
</g>
<!-- Node22 -->
<g id="node22" class="node"><title>Node22</title>
<g id="a_node22"><a xlink:href="../../d2/dc2/_equal_8h.html" target="_top" xlink:title="wlib/stl/Equal.h">
<polygon fill="white" stroke="black" points="1213.5,-168.5 1213.5,-187.5 1296.5,-187.5 1296.5,-168.5 1213.5,-168.5"/>
<text text-anchor="middle" x="1255" y="-175.5" font-family="Helvetica,sans-Serif" font-size="10.00">wlib/stl/Equal.h</text>
</a>
</g>
</g>
<!-- Node17&#45;&gt;Node22 -->
<g id="edge23" class="edge"><title>Node17&#45;&gt;Node22</title>
<path fill="none" stroke="midnightblue" d="M1147.48,-220.772C1173.59,-210.629 1210.04,-196.467 1233.08,-187.516"/>
<polygon fill="midnightblue" stroke="midnightblue" points="1146.08,-217.56 1138.02,-224.444 1148.61,-224.085 1146.08,-217.56"/>
</g>
<!-- Node26 -->
<g id="node26" class="node"><title>Node26</title>
<g id="a_node26"><a xlink:href="../../d2/dad/_hash_8h.html" target="_top" xlink:title="wlib/stl/Hash.h">
<polygon fill="white" stroke="black" points="1075,-168.5 1075,-187.5 1157,-187.5 1157,-168.5 1075,-168.5"/>
<text text-anchor="middle" x="1116" y="-175.5" font-family="Helvetica,sans-Serif" font-size="10.00">wlib/stl/Hash.h</text>
</a>
</g>
</g>
<!-- Node17&#45;&gt;Node26 -->
<g id="edge33" class="edge"><title>Node17&#45;&gt;Node26</title>
<path fill="none" stroke="midnightblue" d="M1116,-213.805C1116,-204.91 1116,-194.78 1116,-187.751"/>
<polygon fill="midnightblue" stroke="midnightblue" points="1112.5,-214.083 1116,-224.083 1119.5,-214.083 1112.5,-214.083"/>
</g>
<!-- Node27 -->
<g id="node27" class="node"><title>Node27</title>
<g id="a_node27"><a xlink:href="../../d9/dae/_string_8cpp.html" target="_top" xlink:title="wlib/strings/String.cpp">
<polygon fill="white" stroke="black" points="943.5,-168.5 943.5,-187.5 1056.5,-187.5 1056.5,-168.5 943.5,-168.5"/>
<text text-anchor="middle" x="1000" y="-175.5" font-family="Helvetica,sans-Serif" font-size="10.00">wlib/strings/String.cpp</text>
</a>
</g>
</g>
<!-- Node17&#45;&gt;Node27 -->
<g id="edge40" class="edge"><title>Node17&#45;&gt;Node27</title>
<path fill="none" stroke="midnightblue" d="M1088.28,-220.096C1066.61,-210.007 1037.1,-196.27 1018.29,-187.516"/>
<polygon fill="midnightblue" stroke="midnightblue" points="1087.08,-223.396 1097.62,-224.444 1090.03,-217.05 1087.08,-223.396"/>
</g>
<!-- Node19 -->
<g id="node19" class="node"><title>Node19</title>
<g id="a_node19"><a xlink:href="../../de/d66/_packet_constructor_8h.html" target="_top" xlink:title="wlib/comm/PacketConstructor.h">
<polygon fill="white" stroke="black" points="610.5,-112.5 610.5,-131.5 767.5,-131.5 767.5,-112.5 610.5,-112.5"/>
<text text-anchor="middle" x="689" y="-119.5" font-family="Helvetica,sans-Serif" font-size="10.00">wlib/comm/PacketConstructor.h</text>
</a>
</g>
</g>
<!-- Node18&#45;&gt;Node19 -->
<g id="edge18" class="edge"><title>Node18&#45;&gt;Node19</title>
<path fill="none" stroke="midnightblue" d="M700.799,-158.396C697.787,-149.362 694.312,-138.936 691.917,-131.751"/>
<polygon fill="midnightblue" stroke="midnightblue" points="697.545,-159.703 704.028,-168.083 704.186,-157.489 697.545,-159.703"/>
</g>
<!-- Node20 -->
<g id="node20" class="node"><title>Node20</title>
<g id="a_node20"><a xlink:href="../../d9/dde/_packet_constructor_8cpp.html" target="_top" xlink:title="Creates a packet for sending data from the slave systems to the main computer. ">
<polygon fill="white" stroke="black" points="605.5,-56.5 605.5,-75.5 772.5,-75.5 772.5,-56.5 605.5,-56.5"/>
<text text-anchor="middle" x="689" y="-63.5" font-family="Helvetica,sans-Serif" font-size="10.00">wlib/comm/PacketConstructor.cpp</text>
</a>
</g>
</g>
<!-- Node19&#45;&gt;Node20 -->
<g id="edge19" class="edge"><title>Node19&#45;&gt;Node20</title>
<path fill="none" stroke="midnightblue" d="M689,-101.805C689,-92.9102 689,-82.7798 689,-75.7511"/>
<polygon fill="midnightblue" stroke="midnightblue" points="685.5,-102.083 689,-112.083 692.5,-102.083 685.5,-102.083"/>
</g>
<!-- Node21&#45;&gt;Node7 -->
<g id="edge21" class="edge"><title>Node21&#45;&gt;Node7</title>
<path fill="none" stroke="midnightblue" d="M1051.35,-116.819C888.697,-106.462 469.524,-79.7692 321.623,-70.351"/>
<polygon fill="midnightblue" stroke="midnightblue" points="1051.49,-120.335 1061.69,-117.478 1051.93,-113.349 1051.49,-120.335"/>
</g>
<!-- Node21&#45;&gt;Node12 -->
<g id="edge22" class="edge"><title>Node21&#45;&gt;Node12</title>
<path fill="none" stroke="midnightblue" d="M1182.22,-112.848C1265.22,-102.473 1407.48,-84.6899 1488.27,-74.591"/>
<polygon fill="midnightblue" stroke="midnightblue" points="1181.64,-109.393 1172.15,-114.106 1182.51,-116.339 1181.64,-109.393"/>
</g>
<!-- Node22&#45;&gt;Node9 -->
<g id="edge32" class="edge"><title>Node22&#45;&gt;Node9</title>
<path fill="none" stroke="midnightblue" d="M1203.31,-169.616C1131.6,-159.371 1002.56,-140.938 930.101,-130.586"/>
<polygon fill="midnightblue" stroke="midnightblue" points="1203.07,-173.117 1213.47,-171.067 1204.06,-166.187 1203.07,-173.117"/>
</g>
<!-- Node22&#45;&gt;Node10 -->
<g id="edge30" class="edge"><title>Node22&#45;&gt;Node10</title>
<path fill="none" stroke="midnightblue" d="M1250.42,-158.348C1244.51,-134.254 1234.46,-93.3079 1230.11,-75.5914"/>
<polygon fill="midnightblue" stroke="midnightblue" points="1247.1,-159.491 1252.88,-168.368 1253.9,-157.822 1247.1,-159.491"/>
</g>
<!-- Node22&#45;&gt;Node11 -->
<g id="edge31" class="edge"><title>Node22&#45;&gt;Node11</title>
<path fill="none" stroke="midnightblue" d="M1241.21,-160.524C1227.56,-145.37 1205.22,-123.554 1181,-112 1111.6,-78.8922 1021.62,-69.7999 966.927,-67.4988"/>
<polygon fill="midnightblue" stroke="midnightblue" points="1238.66,-162.915 1247.87,-168.15 1243.93,-158.313 1238.66,-162.915"/>
</g>
<!-- Node22&#45;&gt;Node21 -->
<g id="edge24" class="edge"><title>Node22&#45;&gt;Node21</title>
<path fill="none" stroke="midnightblue" d="M1223.75,-164.772C1197.83,-154.629 1161.64,-140.467 1138.76,-131.516"/>
<polygon fill="midnightblue" stroke="midnightblue" points="1222.55,-168.059 1233.13,-168.444 1225.1,-161.54 1222.55,-168.059"/>
</g>
<!-- Node22&#45;&gt;Node23 -->
<g id="edge25" class="edge"><title>Node22&#45;&gt;Node23</title>
<path fill="none" stroke="midnightblue" d="M1306.99,-170.526C1358.18,-163.486 1438.33,-150.682 1506,-132 1562.93,-116.284 1627.4,-89.3377 1658.78,-75.5995"/>
<polygon fill="midnightblue" stroke="midnightblue" points="1306.27,-167.09 1296.83,-171.899 1307.21,-174.027 1306.27,-167.09"/>
</g>
<!-- Node24 -->
<g id="node24" class="node"><title>Node24</title>
<g id="a_node24"><a xlink:href="../../d2/dfc/_hash_set_8h.html" target="_top" xlink:title="wlib/stl/HashSet.h">
<polygon fill="white" stroke="black" points="1296.5,-56.5 1296.5,-75.5 1393.5,-75.5 1393.5,-56.5 1296.5,-56.5"/>
<text text-anchor="middle" x="1345" y="-63.5" font-family="Helvetica,sans-Serif" font-size="10.00">wlib/stl/HashSet.h</text>
</a>
</g>
</g>
<!-- Node22&#45;&gt;Node24 -->
<g id="edge26" class="edge"><title>Node22&#45;&gt;Node24</title>
<path fill="none" stroke="midnightblue" d="M1268.43,-160.586C1287.83,-136.871 1323.02,-93.8691 1337.97,-75.5914"/>
<polygon fill="midnightblue" stroke="midnightblue" points="1265.69,-158.413 1262.06,-168.368 1271.1,-162.845 1265.69,-158.413"/>
</g>
<!-- Node22&#45;&gt;Node25 -->
<g id="edge27" class="edge"><title>Node22&#45;&gt;Node25</title>
<path fill="none" stroke="midnightblue" d="M1306.95,-169.88C1382,-159.593 1520.05,-140.674 1595.8,-130.292"/>
<polygon fill="midnightblue" stroke="midnightblue" points="1306.22,-166.447 1296.79,-171.272 1307.17,-173.382 1306.22,-166.447"/>
</g>
<!-- Node25&#45;&gt;Node23 -->
<g id="edge28" class="edge"><title>Node25&#45;&gt;Node23</title>
<path fill="none" stroke="midnightblue" d="M1658.68,-102.983C1663.6,-93.8168 1669.36,-83.0922 1673.3,-75.7511"/>
<polygon fill="midnightblue" stroke="midnightblue" points="1655.44,-101.617 1653.79,-112.083 1661.6,-104.929 1655.44,-101.617"/>
</g>
<!-- Node25&#45;&gt;Node24 -->
<g id="edge29" class="edge"><title>Node25&#45;&gt;Node24</title>
<path fill="none" stroke="midnightblue" d="M1590.81,-110.664C1533.36,-100.459 1446.55,-85.0386 1392.94,-75.5164"/>
<polygon fill="midnightblue" stroke="midnightblue" points="1590.37,-114.141 1600.83,-112.444 1591.6,-107.248 1590.37,-114.141"/>
</g>
<!-- Node26&#45;&gt;Node9 -->
<g id="edge39" class="edge"><title>Node26&#45;&gt;Node9</title>
<path fill="none" stroke="midnightblue" d="M1068.28,-166.217C1023.11,-156.013 956.227,-140.901 914.693,-131.516"/>
<polygon fill="midnightblue" stroke="midnightblue" points="1067.6,-169.654 1078.13,-168.444 1069.15,-162.826 1067.6,-169.654"/>
</g>
<!-- Node26&#45;&gt;Node10 -->
<g id="edge37" class="edge"><title>Node26&#45;&gt;Node10</title>
<path fill="none" stroke="midnightblue" d="M1072.13,-165.421C1038.46,-154.371 1000.73,-135.882 1020,-112 1039.37,-87.9896 1121.98,-76.1554 1177.08,-70.829"/>
<polygon fill="midnightblue" stroke="midnightblue" points="1071.34,-168.839 1081.92,-168.474 1073.42,-162.157 1071.34,-168.839"/>
</g>
<!-- Node26&#45;&gt;Node11 -->
<g id="edge38" class="edge"><title>Node26&#45;&gt;Node11</title>
<path fill="none" stroke="midnightblue" d="M1082.92,-164.845C1061.83,-156.605 1034.19,-144.896 1011,-132 979.494,-114.482 945.509,-88.7944 928.688,-75.5686"/>
<polygon fill="midnightblue" stroke="midnightblue" points="1081.82,-168.17 1092.41,-168.489 1084.33,-161.636 1081.82,-168.17"/>
</g>
<!-- Node26&#45;&gt;Node23 -->
<g id="edge34" class="edge"><title>Node26&#45;&gt;Node23</title>
<path fill="none" stroke="midnightblue" d="M1167.21,-171.684C1258.81,-162.006 1443.79,-141.622 1472,-132 1488.59,-126.34 1489.81,-118.727 1506,-112 1547.05,-94.9452 1596.34,-82.8388 1631.61,-75.51"/>
<polygon fill="midnightblue" stroke="midnightblue" points="1166.63,-168.226 1157.05,-172.754 1167.37,-175.188 1166.63,-168.226"/>
</g>
<!-- Node26&#45;&gt;Node24 -->
<g id="edge35" class="edge"><title>Node26&#45;&gt;Node24</title>
<path fill="none" stroke="midnightblue" d="M1087.88,-163.792C1064.32,-150.967 1036.92,-130.743 1053,-112 1087.26,-72.0695 1235.01,-84.0337 1287,-76 1290.02,-75.5332 1293.13,-75.0522 1296.27,-74.5668"/>
<polygon fill="midnightblue" stroke="midnightblue" points="1086.46,-166.997 1096.95,-168.487 1089.67,-160.781 1086.46,-166.997"/>
</g>
<!-- Node26&#45;&gt;Node25 -->
<g id="edge36" class="edge"><title>Node26&#45;&gt;Node25</title>
<path fill="none" stroke="midnightblue" d="M1167.49,-171.724C1179.47,-170.499 1192.18,-169.202 1204,-168 1345.57,-153.603 1512.48,-136.759 1595.91,-128.349"/>
<polygon fill="midnightblue" stroke="midnightblue" points="1166.78,-168.278 1157.19,-172.778 1167.49,-175.242 1166.78,-168.278"/>
</g>
<!-- Node30&#45;&gt;Node9 -->
<g id="edge60" class="edge"><title>Node30&#45;&gt;Node9</title>
<path fill="none" stroke="midnightblue" d="M1276.7,-394.664C1239.31,-388.425 1186.98,-376.729 1145,-356 1023.38,-295.942 912.871,-167.032 884.194,-131.964"/>
<polygon fill="midnightblue" stroke="midnightblue" points="1276.41,-398.161 1286.84,-396.282 1277.51,-391.248 1276.41,-398.161"/>
</g>
<!-- Node30&#45;&gt;Node10 -->
<g id="edge58" class="edge"><title>Node30&#45;&gt;Node10</title>
<path fill="none" stroke="midnightblue" d="M1325,-382.251C1325,-360.357 1325,-323.052 1325,-291 1325,-291 1325,-291 1325,-233 1325,-164.239 1262.19,-98.6517 1237.66,-75.6546"/>
<polygon fill="midnightblue" stroke="midnightblue" points="1321.5,-382.442 1325,-392.442 1328.5,-382.442 1321.5,-382.442"/>
</g>
<!-- Node30&#45;&gt;Node11 -->
<g id="edge59" class="edge"><title>Node30&#45;&gt;Node11</title>
<path fill="none" stroke="midnightblue" d="M1276.44,-392.212C1122.96,-363.174 655.205,-264.548 601,-132 597.635,-123.772 595.173,-118.713 601,-112 618.331,-92.0347 784.979,-76.8912 869.439,-70.4294"/>
<polygon fill="midnightblue" stroke="midnightblue" points="1276.04,-395.698 1286.51,-394.103 1277.33,-388.818 1276.04,-395.698"/>
</g>
<!-- Node30&#45;&gt;Node12 -->
<g id="edge61" class="edge"><title>Node30&#45;&gt;Node12</title>
<path fill="none" stroke="midnightblue" d="M1354.67,-388.07C1388.45,-371.106 1439,-337.885 1439,-291 1439,-291 1439,-291 1439,-233 1439,-202.775 1436.03,-187.642 1459,-168 1544.66,-94.7647 1636.18,-217.158 1710,-132 1715.82,-125.283 1715.37,-119.081 1710,-112 1697.24,-95.1803 1646.97,-82.9434 1605.96,-75.5133"/>
<polygon fill="midnightblue" stroke="midnightblue" points="1353.13,-384.926 1345.64,-392.421 1356.17,-391.231 1353.13,-384.926"/>
</g>
<!-- Node30&#45;&gt;Node23 -->
<g id="edge56" class="edge"><title>Node30&#45;&gt;Node23</title>
<path fill="none" stroke="midnightblue" d="M1373.42,-399.184C1488.34,-393.559 1768,-371.592 1768,-291 1768,-291 1768,-291 1768,-233 1768,-179.105 1788.97,-157.448 1760,-112 1748.39,-93.7872 1726.71,-82.3526 1708.56,-75.569"/>
<polygon fill="midnightblue" stroke="midnightblue" points="1372.98,-395.701 1363.15,-399.664 1373.31,-402.693 1372.98,-395.701"/>
</g>
<!-- Node30&#45;&gt;Node25 -->
<g id="edge57" class="edge"><title>Node30&#45;&gt;Node25</title>
<path fill="none" stroke="midnightblue" d="M1344.52,-385.846C1367.04,-366.496 1401,-330.724 1401,-291 1401,-291 1401,-291 1401,-233 1401,-202.205 1401.6,-188.019 1425,-168 1450.21,-146.437 1538.09,-133.842 1595.99,-127.7"/>
<polygon fill="midnightblue" stroke="midnightblue" points="1342.02,-383.366 1336.54,-392.433 1346.48,-388.764 1342.02,-383.366"/>
</g>
<!-- Node31 -->
<g id="node31" class="node"><title>Node31</title>
<g id="a_node31"><a xlink:href="../../d8/dd7/_concept_8h.html" target="_top" xlink:title="Concept definitions. ">
<polygon fill="white" stroke="black" points="1154.5,-336.5 1154.5,-355.5 1249.5,-355.5 1249.5,-336.5 1154.5,-336.5"/>
<text text-anchor="middle" x="1202" y="-343.5" font-family="Helvetica,sans-Serif" font-size="10.00">wlib/stl/Concept.h</text>
</a>
</g>
</g>
<!-- Node30&#45;&gt;Node31 -->
<g id="edge52" class="edge"><title>Node30&#45;&gt;Node31</title>
<path fill="none" stroke="midnightblue" d="M1296.23,-388.368C1273.19,-378.255 1241.52,-364.349 1221.4,-355.516"/>
<polygon fill="midnightblue" stroke="midnightblue" points="1294.95,-391.628 1305.51,-392.444 1297.76,-385.219 1294.95,-391.628"/>
</g>
<!-- Node33 -->
<g id="node33" class="node"><title>Node33</title>
<g id="a_node33"><a xlink:href="../../d7/d2a/_tuple_8h.html" target="_top" xlink:title="Template oriented tuple implementation. ">
<polygon fill="white" stroke="black" points="1467.5,-168.5 1467.5,-187.5 1550.5,-187.5 1550.5,-168.5 1467.5,-168.5"/>
<text text-anchor="middle" x="1509" y="-175.5" font-family="Helvetica,sans-Serif" font-size="10.00">wlib/stl/Tuple.h</text>
</a>
</g>
</g>
<!-- Node30&#45;&gt;Node33 -->
<g id="edge62" class="edge"><title>Node30&#45;&gt;Node33</title>
<path fill="none" stroke="midnightblue" d="M1373.18,-394.759C1399.95,-388.928 1432,-377.677 1453,-356 1500.99,-306.463 1507.88,-216.06 1508.85,-187.729"/>
<polygon fill="midnightblue" stroke="midnightblue" points="1372.34,-391.358 1363.21,-396.739 1373.7,-398.224 1372.34,-391.358"/>
</g>
<!-- Node31&#45;&gt;Node7 -->
<g id="edge53" class="edge"><title>Node31&#45;&gt;Node7</title>
<path fill="none" stroke="midnightblue" d="M1161.57,-333.72C1070.91,-308.347 844.526,-244.569 656,-188 520.139,-147.233 358.39,-95.6779 295.679,-75.5741"/>
<polygon fill="midnightblue" stroke="midnightblue" points="1160.87,-337.157 1171.44,-336.48 1162.75,-330.415 1160.87,-337.157"/>
</g>
<!-- Node32 -->
<g id="node32" class="node"><title>Node32</title>
<g id="a_node32"><a xlink:href="../../de/d0b/_string_iterator_8h.html" target="_top" xlink:title="wlib/strings/StringIterator.h">
<polygon fill="white" stroke="black" points="1098,-280.5 1098,-299.5 1232,-299.5 1232,-280.5 1098,-280.5"/>
<text text-anchor="middle" x="1165" y="-287.5" font-family="Helvetica,sans-Serif" font-size="10.00">wlib/strings/StringIterator.h</text>
</a>
</g>
</g>
<!-- Node31&#45;&gt;Node32 -->
<g id="edge54" class="edge"><title>Node31&#45;&gt;Node32</title>
<path fill="none" stroke="midnightblue" d="M1190.05,-327.566C1183.69,-318.275 1176.13,-307.248 1171,-299.751"/>
<polygon fill="midnightblue" stroke="midnightblue" points="1187.35,-329.812 1195.89,-336.083 1193.13,-325.855 1187.35,-329.812"/>
</g>
<!-- Node32&#45;&gt;Node17 -->
<g id="edge55" class="edge"><title>Node32&#45;&gt;Node17</title>
<path fill="none" stroke="midnightblue" d="M1149.97,-272.431C1141.38,-262.967 1130.96,-251.483 1123.94,-243.751"/>
<polygon fill="midnightblue" stroke="midnightblue" points="1147.6,-275.029 1156.91,-280.083 1152.78,-270.325 1147.6,-275.029"/>
</g>
<!-- Node33&#45;&gt;Node10 -->
<g id="edge64" class="edge"><title>Node33&#45;&gt;Node10</title>
<path fill="none" stroke="midnightblue" d="M1470.39,-165.525C1442.73,-157.013 1404.73,-144.721 1372,-132 1325.47,-113.916 1272.32,-88.6921 1245.48,-75.6206"/>
<polygon fill="midnightblue" stroke="midnightblue" points="1469.5,-168.913 1480.08,-168.484 1471.54,-162.218 1469.5,-168.913"/>
</g>
<!-- Node33&#45;&gt;Node13 -->
<g id="edge72" class="edge"><title>Node33&#45;&gt;Node13</title>
<path fill="none" stroke="midnightblue" d="M1560.87,-175.266C1626.82,-171.845 1735.12,-161.732 1760,-132 1777.46,-111.13 1755.81,-72.1026 1737,-56 1698.25,-22.8252 1639.24,-13.1812 1597.69,-10.8206"/>
<polygon fill="midnightblue" stroke="midnightblue" points="1560.49,-171.781 1550.67,-175.76 1560.83,-178.773 1560.49,-171.781"/>
</g>
<!-- Node33&#45;&gt;Node23 -->
<g id="edge63" class="edge"><title>Node33&#45;&gt;Node23</title>
<path fill="none" stroke="midnightblue" d="M1560.51,-174.567C1622.52,-170.434 1721.18,-159.598 1744,-132 1762.03,-110.184 1724.08,-87.6426 1698.59,-75.6844"/>
<polygon fill="midnightblue" stroke="midnightblue" points="1560.28,-171.075 1550.52,-175.197 1560.72,-178.061 1560.28,-171.075"/>
</g>
<!-- Node34 -->
<g id="node34" class="node"><title>Node34</title>
<g id="a_node34"><a xlink:href="../../d9/d37/_table_8h.html" target="_top" xlink:title="wlib/stl/Table.h">
<polygon fill="white" stroke="black" points="1380.5,-112.5 1380.5,-131.5 1463.5,-131.5 1463.5,-112.5 1380.5,-112.5"/>
<text text-anchor="middle" x="1422" y="-119.5" font-family="Helvetica,sans-Serif" font-size="10.00">wlib/stl/Table.h</text>
</a>
</g>
</g>
<!-- Node33&#45;&gt;Node34 -->
<g id="edge65" class="edge"><title>Node33&#45;&gt;Node34</title>
<path fill="none" stroke="midnightblue" d="M1486.28,-162.901C1470.33,-152.999 1449.5,-140.071 1435.94,-131.655"/>
<polygon fill="midnightblue" stroke="midnightblue" points="1484.68,-166.024 1495.02,-168.324 1488.37,-160.077 1484.68,-166.024"/>
</g>
<!-- Node34&#45;&gt;Node10 -->
<g id="edge68" class="edge"><title>Node34&#45;&gt;Node10</title>
<path fill="none" stroke="midnightblue" d="M1381.4,-109.699C1344.78,-99.507 1291.74,-84.7429 1258.6,-75.5164"/>
<polygon fill="midnightblue" stroke="midnightblue" points="1380.69,-113.134 1391.26,-112.444 1382.56,-106.39 1380.69,-113.134"/>
</g>
<!-- Node34&#45;&gt;Node11 -->
<g id="edge69" class="edge"><title>Node34&#45;&gt;Node11</title>
<path fill="none" stroke="midnightblue" d="M1370.09,-115.439C1272.28,-104.958 1061.95,-82.4227 966.671,-72.2148"/>
<polygon fill="midnightblue" stroke="midnightblue" points="1370.01,-118.95 1380.33,-116.535 1370.76,-111.99 1370.01,-118.95"/>
</g>
<!-- Node34&#45;&gt;Node13 -->
<g id="edge70" class="edge"><title>Node34&#45;&gt;Node13</title>
<path fill="none" stroke="midnightblue" d="M1434.91,-104.208C1446,-90.3778 1462.88,-70.7196 1480,-56 1496.92,-41.456 1518.84,-27.9273 1533.38,-19.5772"/>
<polygon fill="midnightblue" stroke="midnightblue" points="1431.94,-102.321 1428.5,-112.344 1437.44,-106.648 1431.94,-102.321"/>
</g>
<!-- Node34&#45;&gt;Node14 -->
<g id="edge71" class="edge"><title>Node34&#45;&gt;Node14</title>
<path fill="none" stroke="midnightblue" d="M1423.19,-102.348C1424.72,-78.2538 1427.33,-37.3079 1428.45,-19.5914"/>
<polygon fill="midnightblue" stroke="midnightblue" points="1419.69,-102.166 1422.55,-112.368 1426.68,-102.611 1419.69,-102.166"/>
</g>
<!-- Node34&#45;&gt;Node23 -->
<g id="edge66" class="edge"><title>Node34&#45;&gt;Node23</title>
<path fill="none" stroke="midnightblue" d="M1472.51,-110.346C1520.89,-100.141 1592.95,-84.94 1637.63,-75.5164"/>
<polygon fill="midnightblue" stroke="midnightblue" points="1471.63,-106.955 1462.56,-112.444 1473.07,-113.804 1471.63,-106.955"/>
</g>
<!-- Node34&#45;&gt;Node24 -->
<g id="edge67" class="edge"><title>Node34&#45;&gt;Node24</title>
<path fill="none" stroke="midnightblue" d="M1401.1,-106.342C1387.09,-96.5169 1369.12,-83.9132 1357.34,-75.6545"/>
<polygon fill="midnightblue" stroke="midnightblue" points="1399.43,-109.448 1409.63,-112.324 1403.45,-103.717 1399.43,-109.448"/>
</g>
</g>
</svg>
        <g id="navigator" transform="translate(0 0)" fill="#404254">
                <rect fill="#f2f5e9" fill-opacity="0.5" stroke="#606060" stroke-width=".5" x="0" y="0" width="60" height="60"/>
                <use id="zoomplus" xlink:href="#zoomPlus" x="17" y="9" onmousedown="handleZoom(evt,'in')"/>
                <use id="zoomminus" xlink:href="#zoomMin" x="42" y="9" onmousedown="handleZoom(evt,'out')"/>
                <use id="reset" xlink:href="#resetDef" x="30" y="36" onmousedown="handleReset()"/>
                <g id="arrowUp" xlink:href="#dirArrow" transform="translate(30 24)" onmousedown="handlePan(0,-1)">
                  <use xlink:href="#rim" fill="#404040">
                        <set attributeName="fill" to="#808080" begin="arrowUp.mouseover" end="arrowUp.mouseout"/>
                  </use>
                  <path fill="none" stroke="white" stroke-width="1.5" d="M0,-3.0v7 M-2.5,-0.5L0,-3.0L2.5,-0.5"/>
                </g>
                <g id="arrowRight" xlink:href="#dirArrow" transform="rotate(90) translate(36 -43)" onmousedown="handlePan(1,0)">
                  <use xlink:href="#rim" fill="#404040">
                        <set attributeName="fill" to="#808080" begin="arrowRight.mouseover" end="arrowRight.mouseout"/>
                  </use>
                  <path fill="none" stroke="white" stroke-width="1.5" d="M0,-3.0v7 M-2.5,-0.5L0,-3.0L2.5,-0.5"/>
                </g>
                <g id="arrowDown" xlink:href="#dirArrow" transform="rotate(180) translate(-30 -48)" onmousedown="handlePan(0,1)">
                  <use xlink:href="#rim" fill="#404040">
                        <set attributeName="fill" to="#808080" begin="arrowDown.mouseover" end="arrowDown.mouseout"/>
                  </use>
                  <path fill="none" stroke="white" stroke-width="1.5" d="M0,-3.0v7 M-2.5,-0.5L0,-3.0L2.5,-0.5"/>
                </g>
                <g id="arrowLeft" xlink:href="#dirArrow" transform="rotate(270) translate(-36 17)" onmousedown="handlePan(-1,0)">
                  <use xlink:href="#rim" fill="#404040">
                        <set attributeName="fill" to="#808080" begin="arrowLeft.mouseover" end="arrowLeft.mouseout"/>
                  </use>
                  <path fill="none" stroke="white" stroke-width="1.5" d="M0,-3.0v7 M-2.5,-0.5L0,-3.0L2.5,-0.5"/>
                </g>
        </g>
        <svg viewBox="0 0 15 15" width="100%" height="30px" preserveAspectRatio="xMaxYMin meet">
         <g id="arrow_out" transform="scale(0.3 0.3)">
          <a xlink:href="_utility_8h__dep__incl_org.svg" target="_base">
           <rect id="button" ry="5" rx="5" y="6" x="6" height="38" width="38"
                fill="#f2f5e9" fill-opacity="0.5" stroke="#606060" stroke-width="1.0"/>
           <path id="arrow"
             d="M 11.500037,31.436501 C 11.940474,20.09759 22.043105,11.32322 32.158766,21.979434 L 37.068811,17.246167 C 37.068811,17.246167 37.088388,32 37.088388,32 L 22.160133,31.978069 C 22.160133,31.978069 26.997745,27.140456 26.997745,27.140456 C 18.528582,18.264221 13.291696,25.230495 11.500037,31.436501 z"
             style="fill:#404040;"/>
          </a>
         </g>
        </svg>
</svg>
