<?xml version="1.0" encoding="UTF-8" standalone="no"?>
<!DOCTYPE svg PUBLIC "-//W3C//DTD SVG 1.1//EN"
 "http://www.w3.org/Graphics/SVG/1.1/DTD/svg11.dtd">
<!-- Generated by graphviz version 2.36.0 (20140111.2315)
 -->
<!-- Title: utility/Utility.h Pages: 1 -->
<svg width="1403pt" height="476pt"
 viewBox="0.00 0.00 1403.00 476.00" xmlns="http://www.w3.org/2000/svg" xmlns:xlink="http://www.w3.org/1999/xlink">
<g id="graph0" class="graph" transform="scale(1 1) rotate(0) translate(4 472)">
<title>utility/Utility.h</title>
<polygon fill="white" stroke="none" points="-4,4 -4,-472 1399,-472 1399,4 -4,4"/>
<!-- Node1 -->
<g id="node1" class="node"><title>Node1</title>
<polygon fill="#bfbfbf" stroke="black" points="656.5,-448.5 656.5,-467.5 733.5,-467.5 733.5,-448.5 656.5,-448.5"/>
<text text-anchor="middle" x="695" y="-455.5" font-family="Helvetica,sans-Serif" font-size="10.00">utility/Utility.h</text>
</g>
<!-- Node2 -->
<g id="node2" class="node"><title>Node2</title>
<g id="a_node2"><a xlink:href="../../d4/dda/_pair_8h.html" target="_top" xlink:title="Implementation of a 2&#45;element tuple. ">
<polygon fill="white" stroke="black" points="786,-392.5 786,-411.5 842,-411.5 842,-392.5 786,-392.5"/>
<text text-anchor="middle" x="814" y="-399.5" font-family="Helvetica,sans-Serif" font-size="10.00">stl/Pair.h</text>
</a>
</g>
</g>
<!-- Node1&#45;&gt;Node2 -->
<g id="edge1" class="edge"><title>Node1&#45;&gt;Node2</title>
<path fill="none" stroke="midnightblue" d="M723.137,-444.232C745.396,-434.131 775.856,-420.309 795.232,-411.516"/>
<polygon fill="midnightblue" stroke="midnightblue" points="721.516,-441.124 713.856,-448.444 724.409,-447.498 721.516,-441.124"/>
</g>
<!-- Node10 -->
<g id="node10" class="node"><title>Node10</title>
<g id="a_node10"><a xlink:href="../../df/d03/_array_heap_8h.html" target="_top" xlink:title="Heap manipulation and implementation. ">
<polygon fill="white" stroke="black" points="90.5,-56.5 90.5,-75.5 175.5,-75.5 175.5,-56.5 90.5,-56.5"/>
<text text-anchor="middle" x="133" y="-63.5" font-family="Helvetica,sans-Serif" font-size="10.00">stl/ArrayHeap.h</text>
</a>
</g>
</g>
<!-- Node1&#45;&gt;Node10 -->
<g id="edge48" class="edge"><title>Node1&#45;&gt;Node10</title>
<path fill="none" stroke="midnightblue" d="M646.169,-453.046C504.77,-440.949 105,-401.892 105,-347 105,-347 105,-347 105,-177 105,-138.179 121.581,-93.9662 129.224,-75.649"/>
<polygon fill="midnightblue" stroke="midnightblue" points="646.029,-456.547 656.288,-453.904 646.62,-449.572 646.029,-456.547"/>
</g>
<!-- Node11 -->
<g id="node11" class="node"><title>Node11</title>
<g id="a_node11"><a xlink:href="../../d5/d08/_red_black_tree_8h.html" target="_top" xlink:title="Red black tree implementation. ">
<polygon fill="white" stroke="black" points="436.5,-56.5 436.5,-75.5 537.5,-75.5 537.5,-56.5 436.5,-56.5"/>
<text text-anchor="middle" x="487" y="-63.5" font-family="Helvetica,sans-Serif" font-size="10.00">stl/RedBlackTree.h</text>
</a>
</g>
</g>
<!-- Node1&#45;&gt;Node11 -->
<g id="edge52" class="edge"><title>Node1&#45;&gt;Node11</title>
<path fill="none" stroke="midnightblue" d="M646.381,-451.187C548.7,-436.592 330.112,-388.558 238,-244 180.712,-154.094 366.885,-96.2533 449.526,-75.5497"/>
<polygon fill="midnightblue" stroke="midnightblue" points="645.889,-454.653 656.286,-452.614 646.887,-447.724 645.889,-454.653"/>
</g>
<!-- Node15 -->
<g id="node15" class="node"><title>Node15</title>
<g id="a_node15"><a xlink:href="../../d3/dbe/_chain_map_8h.html" target="_top" xlink:title="Hasher map implementation. ">
<polygon fill="white" stroke="black" points="957.5,-112.5 957.5,-131.5 1040.5,-131.5 1040.5,-112.5 957.5,-112.5"/>
<text text-anchor="middle" x="999" y="-119.5" font-family="Helvetica,sans-Serif" font-size="10.00">stl/ChainMap.h</text>
</a>
</g>
</g>
<!-- Node1&#45;&gt;Node15 -->
<g id="edge49" class="edge"><title>Node1&#45;&gt;Node15</title>
<path fill="none" stroke="midnightblue" d="M743.87,-457C873.633,-455.692 1217,-443.147 1217,-347 1217,-347 1217,-347 1217,-289 1217,-258.775 1218.85,-244.886 1197,-224 1150.87,-179.904 1112.62,-221.006 1058,-188 1033.74,-173.339 1013.59,-145.669 1004.38,-131.633"/>
<polygon fill="midnightblue" stroke="midnightblue" points="743.779,-453.501 733.808,-457.083 743.837,-460.501 743.779,-453.501"/>
</g>
<!-- Node17 -->
<g id="node17" class="node"><title>Node17</title>
<g id="a_node17"><a xlink:href="../../d5/d7a/_open_map_8h.html" target="_top" xlink:title="Hash map implementation. ">
<polygon fill="white" stroke="black" points="1121,-112.5 1121,-131.5 1201,-131.5 1201,-112.5 1121,-112.5"/>
<text text-anchor="middle" x="1161" y="-119.5" font-family="Helvetica,sans-Serif" font-size="10.00">stl/OpenMap.h</text>
</a>
</g>
</g>
<!-- Node1&#45;&gt;Node17 -->
<g id="edge51" class="edge"><title>Node1&#45;&gt;Node17</title>
<path fill="none" stroke="midnightblue" d="M744.113,-457.705C880.686,-458.357 1255,-450.686 1255,-347 1255,-347 1255,-347 1255,-233 1255,-185.271 1203.22,-147.797 1176.52,-131.647"/>
<polygon fill="midnightblue" stroke="midnightblue" points="743.956,-454.204 733.934,-457.639 743.91,-461.204 743.956,-454.204"/>
</g>
<!-- Node24 -->
<g id="node24" class="node"><title>Node24</title>
<g id="a_node24"><a xlink:href="../../d3/de6/_memory_8h.html" target="_top" xlink:title="Memory is a class that provides dynamic fixed size memory. ">
<polygon fill="white" stroke="black" points="527,-280.5 527,-299.5 625,-299.5 625,-280.5 527,-280.5"/>
<text text-anchor="middle" x="576" y="-287.5" font-family="Helvetica,sans-Serif" font-size="10.00">memory/Memory.h</text>
</a>
</g>
</g>
<!-- Node1&#45;&gt;Node24 -->
<g id="edge34" class="edge"><title>Node1&#45;&gt;Node24</title>
<path fill="none" stroke="midnightblue" d="M682.643,-439.763C657.43,-404.592 600.858,-325.676 582.142,-299.568"/>
<polygon fill="midnightblue" stroke="midnightblue" points="679.931,-441.987 688.602,-448.075 685.62,-437.908 679.931,-441.987"/>
</g>
<!-- Node27 -->
<g id="node27" class="node"><title>Node27</title>
<g id="a_node27"><a xlink:href="../../d2/db9/_array_list_8h.html" target="_top" xlink:title="List implementation using an array. ">
<polygon fill="white" stroke="black" points="-0.5,-224.5 -0.5,-243.5 76.5,-243.5 76.5,-224.5 -0.5,-224.5"/>
<text text-anchor="middle" x="38" y="-231.5" font-family="Helvetica,sans-Serif" font-size="10.00">stl/ArrayList.h</text>
</a>
</g>
</g>
<!-- Node1&#45;&gt;Node27 -->
<g id="edge47" class="edge"><title>Node1&#45;&gt;Node27</title>
<path fill="none" stroke="midnightblue" d="M646.31,-456.495C510.37,-454.657 133.882,-446.472 91,-412 37.2489,-368.79 36.4,-273.314 37.5068,-243.841"/>
<polygon fill="midnightblue" stroke="midnightblue" points="646.39,-459.997 656.435,-456.626 646.481,-452.997 646.39,-459.997"/>
</g>
<!-- Node28 -->
<g id="node28" class="node"><title>Node28</title>
<g id="a_node28"><a xlink:href="../../de/dc6/_linked_list_8h.html" target="_top" xlink:title="stl/LinkedList.h">
<polygon fill="white" stroke="black" points="1105.5,-224.5 1105.5,-243.5 1188.5,-243.5 1188.5,-224.5 1105.5,-224.5"/>
<text text-anchor="middle" x="1147" y="-231.5" font-family="Helvetica,sans-Serif" font-size="10.00">stl/LinkedList.h</text>
</a>
</g>
</g>
<!-- Node1&#45;&gt;Node28 -->
<g id="edge50" class="edge"><title>Node1&#45;&gt;Node28</title>
<path fill="none" stroke="midnightblue" d="M744.055,-457.417C825.366,-455.553 989.178,-440.644 1091,-356 1127.67,-325.518 1141.58,-265.743 1145.62,-243.556"/>
<polygon fill="midnightblue" stroke="midnightblue" points="743.554,-453.925 733.615,-457.594 743.673,-460.924 743.554,-453.925"/>
</g>
<!-- Node30 -->
<g id="node30" class="node"><title>Node30</title>
<g id="a_node30"><a xlink:href="../../d1/d13/_shared_ptr_8h.html" target="_top" xlink:title="Shared pointer implementation. ">
<polygon fill="white" stroke="black" points="286,-168.5 286,-187.5 368,-187.5 368,-168.5 286,-168.5"/>
<text text-anchor="middle" x="327" y="-175.5" font-family="Helvetica,sans-Serif" font-size="10.00">stl/SharedPtr.h</text>
</a>
</g>
</g>
<!-- Node1&#45;&gt;Node30 -->
<g id="edge53" class="edge"><title>Node1&#45;&gt;Node30</title>
<path fill="none" stroke="midnightblue" d="M646.381,-451.187C548.7,-436.592 330.112,-388.558 238,-244 220.932,-217.214 263.421,-197.836 295.406,-187.521"/>
<polygon fill="midnightblue" stroke="midnightblue" points="645.889,-454.653 656.286,-452.614 646.887,-447.724 645.889,-454.653"/>
</g>
<!-- Node31 -->
<g id="node31" class="node"><title>Node31</title>
<g id="a_node31"><a xlink:href="../../d0/d55/_allocator_8cpp.html" target="_top" xlink:title="Implementation of Allocator. ">
<polygon fill="white" stroke="black" points="1283,-392.5 1283,-411.5 1395,-411.5 1395,-392.5 1283,-392.5"/>
<text text-anchor="middle" x="1339" y="-399.5" font-family="Helvetica,sans-Serif" font-size="10.00">memory/Allocator.cpp</text>
</a>
</g>
</g>
<!-- Node1&#45;&gt;Node31 -->
<g id="edge46" class="edge"><title>Node1&#45;&gt;Node31</title>
<path fill="none" stroke="midnightblue" d="M743.701,-454.001C842.757,-447.72 1074.78,-432.086 1269,-412 1273.51,-411.534 1278.18,-411.014 1282.86,-410.466"/>
<polygon fill="midnightblue" stroke="midnightblue" points="743.451,-450.509 733.691,-454.632 743.892,-457.495 743.451,-450.509"/>
</g>
<!-- Node3 -->
<g id="node3" class="node"><title>Node3</title>
<g id="a_node3"><a xlink:href="../../d8/dd7/_concept_8h.html" target="_top" xlink:title="Concept definitions. ">
<polygon fill="white" stroke="black" points="662.5,-336.5 662.5,-355.5 737.5,-355.5 737.5,-336.5 662.5,-336.5"/>
<text text-anchor="middle" x="700" y="-343.5" font-family="Helvetica,sans-Serif" font-size="10.00">stl/Concept.h</text>
</a>
</g>
</g>
<!-- Node2&#45;&gt;Node3 -->
<g id="edge2" class="edge"><title>Node2&#45;&gt;Node3</title>
<path fill="none" stroke="midnightblue" d="M786.758,-388.096C765.46,-378.007 736.458,-364.27 717.979,-355.516"/>
<polygon fill="midnightblue" stroke="midnightblue" points="785.401,-391.326 795.936,-392.444 788.397,-385 785.401,-391.326"/>
</g>
<!-- Node2&#45;&gt;Node11 -->
<g id="edge32" class="edge"><title>Node2&#45;&gt;Node11</title>
<path fill="none" stroke="midnightblue" d="M809.526,-382.602C798.724,-338.464 771.689,-229.778 766,-224 725.44,-182.802 692.461,-214.347 641,-188 578.956,-156.234 517.527,-97.752 495.513,-75.7112"/>
<polygon fill="midnightblue" stroke="midnightblue" points="806.129,-383.445 811.9,-392.331 812.93,-381.786 806.129,-383.445"/>
</g>
<!-- Node2&#45;&gt;Node15 -->
<g id="edge30" class="edge"><title>Node2&#45;&gt;Node15</title>
<path fill="none" stroke="midnightblue" d="M852.461,-395.813C907.195,-386.027 1001,-359.293 1001,-291 1001,-291 1001,-291 1001,-233 1001,-195.181 999.804,-150.061 999.261,-131.557"/>
<polygon fill="midnightblue" stroke="midnightblue" points="851.684,-392.395 842.401,-397.501 852.843,-399.298 851.684,-392.395"/>
</g>
<!-- Node2&#45;&gt;Node17 -->
<g id="edge31" class="edge"><title>Node2&#45;&gt;Node17</title>
<path fill="none" stroke="midnightblue" d="M852.457,-397.975C889.661,-393.531 946.373,-382.627 988,-356 1051.85,-315.155 1038.3,-273.154 1096,-224 1120.26,-203.337 1141.47,-215.241 1158,-188 1168.67,-170.423 1165.68,-144.985 1163.07,-131.748"/>
<polygon fill="midnightblue" stroke="midnightblue" points="851.604,-394.547 842.043,-399.112 852.364,-401.506 851.604,-394.547"/>
</g>
<!-- Node23 -->
<g id="node23" class="node"><title>Node23</title>
<g id="a_node23"><a xlink:href="../../d7/d2a/_tuple_8h.html" target="_top" xlink:title="Template oriented tuple implementation. ">
<polygon fill="white" stroke="black" points="813,-336.5 813,-355.5 875,-355.5 875,-336.5 813,-336.5"/>
<text text-anchor="middle" x="844" y="-343.5" font-family="Helvetica,sans-Serif" font-size="10.00">stl/Tuple.h</text>
</a>
</g>
</g>
<!-- Node2&#45;&gt;Node23 -->
<g id="edge33" class="edge"><title>Node2&#45;&gt;Node23</title>
<path fill="none" stroke="midnightblue" d="M823.847,-383.275C828.975,-374.045 835.016,-363.17 839.138,-355.751"/>
<polygon fill="midnightblue" stroke="midnightblue" points="820.751,-381.642 818.954,-392.083 826.87,-385.041 820.751,-381.642"/>
</g>
<!-- Node4 -->
<g id="node4" class="node"><title>Node4</title>
<g id="a_node4"><a xlink:href="../../de/d0b/_string_iterator_8h.html" target="_top" xlink:title="strings/StringIterator.h">
<polygon fill="white" stroke="black" points="643.5,-280.5 643.5,-299.5 756.5,-299.5 756.5,-280.5 643.5,-280.5"/>
<text text-anchor="middle" x="700" y="-287.5" font-family="Helvetica,sans-Serif" font-size="10.00">strings/StringIterator.h</text>
</a>
</g>
</g>
<!-- Node3&#45;&gt;Node4 -->
<g id="edge3" class="edge"><title>Node3&#45;&gt;Node4</title>
<path fill="none" stroke="midnightblue" d="M700,-325.805C700,-316.91 700,-306.78 700,-299.751"/>
<polygon fill="midnightblue" stroke="midnightblue" points="696.5,-326.083 700,-336.083 703.5,-326.083 696.5,-326.083"/>
</g>
<!-- Node3&#45;&gt;Node10 -->
<g id="edge29" class="edge"><title>Node3&#45;&gt;Node10</title>
<path fill="none" stroke="midnightblue" d="M652.286,-339.438C548.136,-326.534 304.436,-291.963 238,-244 175.717,-199.035 143.99,-104.752 135.424,-75.7059"/>
<polygon fill="midnightblue" stroke="midnightblue" points="651.864,-342.912 662.215,-340.654 652.715,-335.964 651.864,-342.912"/>
</g>
<!-- Node5 -->
<g id="node5" class="node"><title>Node5</title>
<g id="a_node5"><a xlink:href="../../d8/d65/_static_string_8h.html" target="_top" xlink:title="StaticString provides a String that is on stack and is of fixed size. ">
<polygon fill="white" stroke="black" points="813,-224.5 813,-243.5 921,-243.5 921,-224.5 813,-224.5"/>
<text text-anchor="middle" x="867" y="-231.5" font-family="Helvetica,sans-Serif" font-size="10.00">strings/StaticString.h</text>
</a>
</g>
</g>
<!-- Node4&#45;&gt;Node5 -->
<g id="edge4" class="edge"><title>Node4&#45;&gt;Node5</title>
<path fill="none" stroke="midnightblue" d="M736.17,-277.304C767.637,-267.129 812.494,-252.625 840.662,-243.516"/>
<polygon fill="midnightblue" stroke="midnightblue" points="734.9,-274.037 726.462,-280.444 737.053,-280.697 734.9,-274.037"/>
</g>
<!-- Node21 -->
<g id="node21" class="node"><title>Node21</title>
<g id="a_node21"><a xlink:href="../../d6/d60/_dynamic_string_8h.html" target="_top" xlink:title="DynamicString is a class that provides dynamic strings and functions for dynamic strings. ">
<polygon fill="white" stroke="black" points="635,-224.5 635,-243.5 757,-243.5 757,-224.5 635,-224.5"/>
<text text-anchor="middle" x="696" y="-231.5" font-family="Helvetica,sans-Serif" font-size="10.00">strings/DynamicString.h</text>
</a>
</g>
</g>
<!-- Node4&#45;&gt;Node21 -->
<g id="edge26" class="edge"><title>Node4&#45;&gt;Node21</title>
<path fill="none" stroke="midnightblue" d="M698.6,-270.101C697.936,-261.136 697.175,-250.858 696.648,-243.751"/>
<polygon fill="midnightblue" stroke="midnightblue" points="695.11,-270.369 699.339,-280.083 702.091,-269.852 695.11,-270.369"/>
</g>
<!-- Node6 -->
<g id="node6" class="node"><title>Node6</title>
<g id="a_node6"><a xlink:href="../../de/d6d/_bitset_8h.html" target="_top" xlink:title="Bitset is a class that provides bits manipulation methods. ">
<polygon fill="white" stroke="black" points="650,-168.5 650,-187.5 714,-187.5 714,-168.5 650,-168.5"/>
<text text-anchor="middle" x="682" y="-175.5" font-family="Helvetica,sans-Serif" font-size="10.00">stl/Bitset.h</text>
</a>
</g>
</g>
<!-- Node5&#45;&gt;Node6 -->
<g id="edge5" class="edge"><title>Node5&#45;&gt;Node6</title>
<path fill="none" stroke="midnightblue" d="M827.834,-221.568C792.935,-211.381 742.651,-196.703 711.177,-187.516"/>
<polygon fill="midnightblue" stroke="midnightblue" points="827.106,-225.001 837.686,-224.444 829.067,-218.282 827.106,-225.001"/>
</g>
<!-- Node9 -->
<g id="node9" class="node"><title>Node9</title>
<g id="a_node9"><a xlink:href="../../d7/d0c/_comparator_8h.html" target="_top" xlink:title="Comparator implementation for basic types. ">
<polygon fill="white" stroke="black" points="768.5,-112.5 768.5,-131.5 857.5,-131.5 857.5,-112.5 768.5,-112.5"/>
<text text-anchor="middle" x="813" y="-119.5" font-family="Helvetica,sans-Serif" font-size="10.00">stl/Comparator.h</text>
</a>
</g>
</g>
<!-- Node5&#45;&gt;Node9 -->
<g id="edge8" class="edge"><title>Node5&#45;&gt;Node9</title>
<path fill="none" stroke="midnightblue" d="M807.292,-221.12C789.37,-214.465 771.66,-204.106 761,-188 746.882,-166.67 777.145,-143.762 797.167,-131.656"/>
<polygon fill="midnightblue" stroke="midnightblue" points="806.632,-224.591 817.226,-224.45 808.857,-217.953 806.632,-224.591"/>
</g>
<!-- Node14 -->
<g id="node14" class="node"><title>Node14</title>
<g id="a_node14"><a xlink:href="../../d2/dc2/_equal_8h.html" target="_top" xlink:title="stl/Equal.h">
<polygon fill="white" stroke="black" points="871.5,-168.5 871.5,-187.5 934.5,-187.5 934.5,-168.5 871.5,-168.5"/>
<text text-anchor="middle" x="903" y="-175.5" font-family="Helvetica,sans-Serif" font-size="10.00">stl/Equal.h</text>
</a>
</g>
</g>
<!-- Node5&#45;&gt;Node14 -->
<g id="edge13" class="edge"><title>Node5&#45;&gt;Node14</title>
<path fill="none" stroke="midnightblue" d="M878.623,-215.566C884.817,-206.275 892.168,-195.248 897.166,-187.751"/>
<polygon fill="midnightblue" stroke="midnightblue" points="875.58,-213.821 872.945,-224.083 881.404,-217.704 875.58,-213.821"/>
</g>
<!-- Node19 -->
<g id="node19" class="node"><title>Node19</title>
<g id="a_node19"><a xlink:href="../../d2/dad/_hash_8h.html" target="_top" xlink:title="stl/Hash.h">
<polygon fill="white" stroke="black" points="1067,-168.5 1067,-187.5 1129,-187.5 1129,-168.5 1067,-168.5"/>
<text text-anchor="middle" x="1098" y="-175.5" font-family="Helvetica,sans-Serif" font-size="10.00">stl/Hash.h</text>
</a>
</g>
</g>
<!-- Node5&#45;&gt;Node19 -->
<g id="edge20" class="edge"><title>Node5&#45;&gt;Node19</title>
<path fill="none" stroke="midnightblue" d="M913.535,-222.122C959.117,-211.466 1027.31,-195.525 1066.75,-186.304"/>
<polygon fill="midnightblue" stroke="midnightblue" points="912.543,-218.759 903.603,-224.444 914.137,-225.575 912.543,-218.759"/>
</g>
<!-- Node20 -->
<g id="node20" class="node"><title>Node20</title>
<g id="a_node20"><a xlink:href="../../db/db5/_string_8h.html" target="_top" xlink:title="strings/String.h">
<polygon fill="white" stroke="black" points="770.5,-168.5 770.5,-187.5 853.5,-187.5 853.5,-168.5 770.5,-168.5"/>
<text text-anchor="middle" x="812" y="-175.5" font-family="Helvetica,sans-Serif" font-size="10.00">strings/String.h</text>
</a>
</g>
</g>
<!-- Node5&#45;&gt;Node20 -->
<g id="edge24" class="edge"><title>Node5&#45;&gt;Node20</title>
<path fill="none" stroke="midnightblue" d="M850.706,-217.002C840.959,-207.433 828.947,-195.639 820.913,-187.751"/>
<polygon fill="midnightblue" stroke="midnightblue" points="848.33,-219.575 857.918,-224.083 853.234,-214.58 848.33,-219.575"/>
</g>
<!-- Node7 -->
<g id="node7" class="node"><title>Node7</title>
<g id="a_node7"><a xlink:href="../../de/d66/_packet_constructor_8h.html" target="_top" xlink:title="comm/PacketConstructor.h">
<polygon fill="white" stroke="black" points="613.5,-112.5 613.5,-131.5 750.5,-131.5 750.5,-112.5 613.5,-112.5"/>
<text text-anchor="middle" x="682" y="-119.5" font-family="Helvetica,sans-Serif" font-size="10.00">comm/PacketConstructor.h</text>
</a>
</g>
</g>
<!-- Node6&#45;&gt;Node7 -->
<g id="edge6" class="edge"><title>Node6&#45;&gt;Node7</title>
<path fill="none" stroke="midnightblue" d="M682,-157.805C682,-148.91 682,-138.78 682,-131.751"/>
<polygon fill="midnightblue" stroke="midnightblue" points="678.5,-158.083 682,-168.083 685.5,-158.083 678.5,-158.083"/>
</g>
<!-- Node8 -->
<g id="node8" class="node"><title>Node8</title>
<g id="a_node8"><a xlink:href="../../d9/dde/_packet_constructor_8cpp.html" target="_top" xlink:title="Creates a packet for sending data from the slave systems to the main computer. ">
<polygon fill="white" stroke="black" points="608.5,-56.5 608.5,-75.5 755.5,-75.5 755.5,-56.5 608.5,-56.5"/>
<text text-anchor="middle" x="682" y="-63.5" font-family="Helvetica,sans-Serif" font-size="10.00">comm/PacketConstructor.cpp</text>
</a>
</g>
</g>
<!-- Node7&#45;&gt;Node8 -->
<g id="edge7" class="edge"><title>Node7&#45;&gt;Node8</title>
<path fill="none" stroke="midnightblue" d="M682,-101.805C682,-92.9102 682,-82.7798 682,-75.7511"/>
<polygon fill="midnightblue" stroke="midnightblue" points="678.5,-102.083 682,-112.083 685.5,-102.083 678.5,-102.083"/>
</g>
<!-- Node9&#45;&gt;Node10 -->
<g id="edge9" class="edge"><title>Node9&#45;&gt;Node10</title>
<path fill="none" stroke="midnightblue" d="M758.223,-112.025C532.759,-85.6104 275.55,-72.9454 175.636,-68.69"/>
<polygon fill="midnightblue" stroke="midnightblue" points="757.915,-115.513 768.257,-113.212 758.738,-108.561 757.915,-115.513"/>
</g>
<!-- Node9&#45;&gt;Node11 -->
<g id="edge10" class="edge"><title>Node9&#45;&gt;Node11</title>
<path fill="none" stroke="midnightblue" d="M758.327,-111.89C675.03,-98.0615 590.181,-84.0367 537.635,-75.3586"/>
<polygon fill="midnightblue" stroke="midnightblue" points="757.773,-115.346 768.212,-113.531 758.92,-108.44 757.773,-115.346"/>
</g>
<!-- Node12 -->
<g id="node12" class="node"><title>Node12</title>
<g id="a_node12"><a xlink:href="../../df/d87/_tree_map_8h.html" target="_top" xlink:title="Map implementation using red black tree. ">
<polygon fill="white" stroke="black" points="402.5,-0.5 402.5,-19.5 479.5,-19.5 479.5,-0.5 402.5,-0.5"/>
<text text-anchor="middle" x="441" y="-7.5" font-family="Helvetica,sans-Serif" font-size="10.00">stl/TreeMap.h</text>
</a>
</g>
</g>
<!-- Node11&#45;&gt;Node12 -->
<g id="edge11" class="edge"><title>Node11&#45;&gt;Node12</title>
<path fill="none" stroke="midnightblue" d="M472.886,-48.4314C464.824,-38.9673 455.041,-27.4827 448.455,-19.7511"/>
<polygon fill="midnightblue" stroke="midnightblue" points="470.255,-50.7402 479.404,-56.083 475.584,-46.2009 470.255,-50.7402"/>
</g>
<!-- Node13 -->
<g id="node13" class="node"><title>Node13</title>
<g id="a_node13"><a xlink:href="../../dd/dba/_tree_set_8h.html" target="_top" xlink:title="Set implementation using red black tree. ">
<polygon fill="white" stroke="black" points="497.5,-0.5 497.5,-19.5 570.5,-19.5 570.5,-0.5 497.5,-0.5"/>
<text text-anchor="middle" x="534" y="-7.5" font-family="Helvetica,sans-Serif" font-size="10.00">stl/TreeSet.h</text>
</a>
</g>
</g>
<!-- Node11&#45;&gt;Node13 -->
<g id="edge12" class="edge"><title>Node11&#45;&gt;Node13</title>
<path fill="none" stroke="midnightblue" d="M501.421,-48.4314C509.658,-38.9673 519.654,-27.4827 526.383,-19.7511"/>
<polygon fill="midnightblue" stroke="midnightblue" points="498.686,-46.2421 494.761,-56.083 503.966,-50.8378 498.686,-46.2421"/>
</g>
<!-- Node14&#45;&gt;Node9 -->
<g id="edge14" class="edge"><title>Node14&#45;&gt;Node9</title>
<path fill="none" stroke="midnightblue" d="M879.962,-163.177C863.401,-153.241 841.582,-140.149 827.424,-131.655"/>
<polygon fill="midnightblue" stroke="midnightblue" points="878.164,-166.18 888.54,-168.324 881.766,-160.178 878.164,-166.18"/>
</g>
<!-- Node14&#45;&gt;Node15 -->
<g id="edge15" class="edge"><title>Node14&#45;&gt;Node15</title>
<path fill="none" stroke="midnightblue" d="M927.574,-163.177C945.239,-153.241 968.513,-140.149 983.614,-131.655"/>
<polygon fill="midnightblue" stroke="midnightblue" points="925.424,-160.371 918.424,-168.324 928.856,-166.472 925.424,-160.371"/>
</g>
<!-- Node14&#45;&gt;Node17 -->
<g id="edge17" class="edge"><title>Node14&#45;&gt;Node17</title>
<path fill="none" stroke="midnightblue" d="M944.483,-168.317C992.955,-158.172 1072.62,-141.498 1120.62,-131.452"/>
<polygon fill="midnightblue" stroke="midnightblue" points="943.707,-164.904 934.636,-170.379 945.141,-171.756 943.707,-164.904"/>
</g>
<!-- Node18 -->
<g id="node18" class="node"><title>Node18</title>
<g id="a_node18"><a xlink:href="../../d0/de6/_open_set_8h.html" target="_top" xlink:title="Hash set implementation. ">
<polygon fill="white" stroke="black" points="1055.5,-56.5 1055.5,-75.5 1132.5,-75.5 1132.5,-56.5 1055.5,-56.5"/>
<text text-anchor="middle" x="1094" y="-63.5" font-family="Helvetica,sans-Serif" font-size="10.00">stl/OpenSet.h</text>
</a>
</g>
</g>
<!-- Node14&#45;&gt;Node18 -->
<g id="edge19" class="edge"><title>Node14&#45;&gt;Node18</title>
<path fill="none" stroke="midnightblue" d="M911.043,-159.382C918.607,-144.693 931.266,-124.256 948,-112 965.387,-99.2667 1019.53,-84.567 1056.76,-75.5279"/>
<polygon fill="midnightblue" stroke="midnightblue" points="907.854,-157.937 906.634,-168.461 914.151,-160.995 907.854,-157.937"/>
</g>
<!-- Node16 -->
<g id="node16" class="node"><title>Node16</title>
<g id="a_node16"><a xlink:href="../../d6/d59/_chain_set_8h.html" target="_top" xlink:title="Hash set implementation. ">
<polygon fill="white" stroke="black" points="958.5,-56.5 958.5,-75.5 1037.5,-75.5 1037.5,-56.5 958.5,-56.5"/>
<text text-anchor="middle" x="998" y="-63.5" font-family="Helvetica,sans-Serif" font-size="10.00">stl/ChainSet.h</text>
</a>
</g>
</g>
<!-- Node15&#45;&gt;Node16 -->
<g id="edge16" class="edge"><title>Node15&#45;&gt;Node16</title>
<path fill="none" stroke="midnightblue" d="M998.645,-101.805C998.48,-92.9102 998.292,-82.7798 998.162,-75.7511"/>
<polygon fill="midnightblue" stroke="midnightblue" points="995.15,-102.15 998.835,-112.083 1002.15,-102.02 995.15,-102.15"/>
</g>
<!-- Node17&#45;&gt;Node18 -->
<g id="edge18" class="edge"><title>Node17&#45;&gt;Node18</title>
<path fill="none" stroke="midnightblue" d="M1142.17,-105.82C1130.16,-96.1452 1115.03,-83.9481 1104.96,-75.8339"/>
<polygon fill="midnightblue" stroke="midnightblue" points="1140.25,-108.774 1150.24,-112.324 1144.65,-103.324 1140.25,-108.774"/>
</g>
<!-- Node19&#45;&gt;Node15 -->
<g id="edge21" class="edge"><title>Node19&#45;&gt;Node15</title>
<path fill="none" stroke="midnightblue" d="M1073.16,-163.453C1054.89,-153.483 1030.58,-140.228 1014.87,-131.655"/>
<polygon fill="midnightblue" stroke="midnightblue" points="1071.64,-166.608 1082.09,-168.324 1074.99,-160.463 1071.64,-166.608"/>
</g>
<!-- Node19&#45;&gt;Node17 -->
<g id="edge22" class="edge"><title>Node19&#45;&gt;Node17</title>
<path fill="none" stroke="midnightblue" d="M1116.04,-161.537C1127.27,-151.909 1141.32,-139.869 1150.69,-131.834"/>
<polygon fill="midnightblue" stroke="midnightblue" points="1113.44,-159.159 1108.12,-168.324 1117.99,-164.473 1113.44,-159.159"/>
</g>
<!-- Node19&#45;&gt;Node18 -->
<g id="edge23" class="edge"><title>Node19&#45;&gt;Node18</title>
<path fill="none" stroke="midnightblue" d="M1097.32,-158.348C1096.45,-134.254 1094.96,-93.3079 1094.31,-75.5914"/>
<polygon fill="midnightblue" stroke="midnightblue" points="1093.82,-158.502 1097.69,-168.368 1100.82,-158.248 1093.82,-158.502"/>
</g>
<!-- Node20&#45;&gt;Node9 -->
<g id="edge25" class="edge"><title>Node20&#45;&gt;Node9</title>
<path fill="none" stroke="midnightblue" d="M812.355,-157.805C812.52,-148.91 812.708,-138.78 812.838,-131.751"/>
<polygon fill="midnightblue" stroke="midnightblue" points="808.851,-158.02 812.165,-168.083 815.85,-158.15 808.851,-158.02"/>
</g>
<!-- Node21&#45;&gt;Node6 -->
<g id="edge27" class="edge"><title>Node21&#45;&gt;Node6</title>
<path fill="none" stroke="midnightblue" d="M691.177,-214.396C688.835,-205.362 686.132,-194.936 684.269,-187.751"/>
<polygon fill="midnightblue" stroke="midnightblue" points="687.79,-215.281 693.688,-224.083 694.566,-213.525 687.79,-215.281"/>
</g>
<!-- Node22 -->
<g id="node22" class="node"><title>Node22</title>
<g id="a_node22"><a xlink:href="../../d9/d8a/_dynamic_string_8cpp.html" target="_top" xlink:title="DynamicString is a class that provides dynamic strings and functions for dynamic strings. ">
<polygon fill="white" stroke="black" points="462,-168.5 462,-187.5 594,-187.5 594,-168.5 462,-168.5"/>
<text text-anchor="middle" x="528" y="-175.5" font-family="Helvetica,sans-Serif" font-size="10.00">strings/DynamicString.cpp</text>
</a>
</g>
</g>
<!-- Node21&#45;&gt;Node22 -->
<g id="edge28" class="edge"><title>Node21&#45;&gt;Node22</title>
<path fill="none" stroke="midnightblue" d="M659.614,-221.304C627.958,-211.129 582.832,-196.625 554.496,-187.516"/>
<polygon fill="midnightblue" stroke="midnightblue" points="658.789,-224.715 669.38,-224.444 660.931,-218.051 658.789,-224.715"/>
</g>
<!-- Node24&#45;&gt;Node11 -->
<g id="edge43" class="edge"><title>Node24&#45;&gt;Node11</title>
<path fill="none" stroke="midnightblue" d="M586.121,-271.264C592.715,-257.105 598.351,-237.474 588,-224 550.168,-174.758 490.832,-237.242 453,-188 425.881,-152.701 463.573,-96.8236 480.005,-75.5798"/>
<polygon fill="midnightblue" stroke="midnightblue" points="582.86,-269.952 581.366,-280.441 589.075,-273.172 582.86,-269.952"/>
</g>
<!-- Node24&#45;&gt;Node15 -->
<g id="edge40" class="edge"><title>Node24&#45;&gt;Node15</title>
<path fill="none" stroke="midnightblue" d="M635.188,-280.047C714.471,-271.672 877.192,-279.112 930,-244 971.684,-216.284 991.071,-154.277 996.965,-131.556"/>
<polygon fill="midnightblue" stroke="midnightblue" points="634.538,-276.6 625.031,-281.276 635.379,-283.549 634.538,-276.6"/>
</g>
<!-- Node24&#45;&gt;Node17 -->
<g id="edge42" class="edge"><title>Node24&#45;&gt;Node17</title>
<path fill="none" stroke="midnightblue" d="M635.051,-279.927C778.062,-261.518 817.605,-272.58 955,-244 996.429,-235.382 1106.26,-217.085 1137,-188 1153.08,-172.787 1158.44,-145.863 1160.19,-131.922"/>
<polygon fill="midnightblue" stroke="midnightblue" points="634.486,-276.471 625.027,-281.243 635.397,-283.411 634.486,-276.471"/>
</g>
<!-- Node24&#45;&gt;Node21 -->
<g id="edge35" class="edge"><title>Node24&#45;&gt;Node21</title>
<path fill="none" stroke="midnightblue" d="M604.373,-276.232C626.82,-266.131 657.535,-252.309 677.075,-243.516"/>
<polygon fill="midnightblue" stroke="midnightblue" points="602.697,-273.148 595.014,-280.444 605.57,-279.532 602.697,-273.148"/>
</g>
<!-- Node25 -->
<g id="node25" class="node"><title>Node25</title>
<g id="a_node25"><a xlink:href="../../df/dcf/_state_machine_8h.html" target="_top" xlink:title="fsm/StateMachine.h">
<polygon fill="white" stroke="black" points="247,-224.5 247,-243.5 351,-243.5 351,-224.5 247,-224.5"/>
<text text-anchor="middle" x="299" y="-231.5" font-family="Helvetica,sans-Serif" font-size="10.00">fsm/StateMachine.h</text>
</a>
</g>
</g>
<!-- Node24&#45;&gt;Node25 -->
<g id="edge36" class="edge"><title>Node24&#45;&gt;Node25</title>
<path fill="none" stroke="midnightblue" d="M522.003,-278.473C469.652,-268.268 391.228,-252.979 342.686,-243.516"/>
<polygon fill="midnightblue" stroke="midnightblue" points="521.624,-281.965 532.109,-280.444 522.963,-275.095 521.624,-281.965"/>
</g>
<!-- Node26 -->
<g id="node26" class="node"><title>Node26</title>
<g id="a_node26"><a xlink:href="../../df/d64/_memory_8cpp.html" target="_top" xlink:title="Implementation of Memory functions. ">
<polygon fill="white" stroke="black" points="369.5,-224.5 369.5,-243.5 478.5,-243.5 478.5,-224.5 369.5,-224.5"/>
<text text-anchor="middle" x="424" y="-231.5" font-family="Helvetica,sans-Serif" font-size="10.00">memory/Memory.cpp</text>
</a>
</g>
</g>
<!-- Node24&#45;&gt;Node26 -->
<g id="edge37" class="edge"><title>Node24&#45;&gt;Node26</title>
<path fill="none" stroke="midnightblue" d="M542.332,-277.039C513.732,-266.879 473.388,-252.546 447.972,-243.516"/>
<polygon fill="midnightblue" stroke="midnightblue" points="541.32,-280.394 551.915,-280.444 543.664,-273.798 541.32,-280.394"/>
</g>
<!-- Node24&#45;&gt;Node27 -->
<g id="edge38" class="edge"><title>Node24&#45;&gt;Node27</title>
<path fill="none" stroke="midnightblue" d="M516.811,-283.059C405.829,-271.92 169.311,-248.18 76.5086,-238.865"/>
<polygon fill="midnightblue" stroke="midnightblue" points="516.53,-286.548 526.83,-284.065 517.229,-279.583 516.53,-286.548"/>
</g>
<!-- Node24&#45;&gt;Node28 -->
<g id="edge41" class="edge"><title>Node24&#45;&gt;Node28</title>
<path fill="none" stroke="midnightblue" d="M635.14,-279.939C821.274,-257.765 870.13,-260.61 1053,-244 1070.14,-242.443 1089.04,-240.649 1105.36,-239.075"/>
<polygon fill="midnightblue" stroke="midnightblue" points="634.527,-276.487 625.015,-281.154 635.361,-283.438 634.527,-276.487"/>
</g>
<!-- Node29 -->
<g id="node29" class="node"><title>Node29</title>
<g id="a_node29"><a xlink:href="../../d8/df6/_unique_ptr_8h.html" target="_top" xlink:title="Unique pointer implementation. ">
<polygon fill="white" stroke="black" points="497,-224.5 497,-243.5 579,-243.5 579,-224.5 497,-224.5"/>
<text text-anchor="middle" x="538" y="-231.5" font-family="Helvetica,sans-Serif" font-size="10.00">stl/UniquePtr.h</text>
</a>
</g>
</g>
<!-- Node24&#45;&gt;Node29 -->
<g id="edge44" class="edge"><title>Node24&#45;&gt;Node29</title>
<path fill="none" stroke="midnightblue" d="M563.935,-271.855C557.355,-262.505 549.489,-251.327 544.158,-243.751"/>
<polygon fill="midnightblue" stroke="midnightblue" points="561.108,-273.919 569.725,-280.083 566.832,-269.891 561.108,-273.919"/>
</g>
<!-- Node27&#45;&gt;Node10 -->
<g id="edge39" class="edge"><title>Node27&#45;&gt;Node10</title>
<path fill="none" stroke="midnightblue" d="M43.9109,-214.467C52.2419,-189.848 68.9206,-145.562 91,-112 100.28,-97.8939 114.104,-84.0586 123.327,-75.5332"/>
<polygon fill="midnightblue" stroke="midnightblue" points="40.4812,-213.693 40.6812,-224.286 47.1307,-215.88 40.4812,-213.693"/>
</g>
<!-- Node29&#45;&gt;Node30 -->
<g id="edge45" class="edge"><title>Node29&#45;&gt;Node30</title>
<path fill="none" stroke="midnightblue" d="M494.858,-221.959C455.006,-211.76 396.637,-196.822 360.277,-187.516"/>
<polygon fill="midnightblue" stroke="midnightblue" points="494.011,-225.355 504.566,-224.444 495.746,-218.573 494.011,-225.355"/>
</g>
</g>
</svg>
