<?xml version="1.0" encoding="UTF-8" standalone="no"?>
<!DOCTYPE svg PUBLIC "-//W3C//DTD SVG 1.1//EN"
 "http://www.w3.org/Graphics/SVG/1.1/DTD/svg11.dtd">
<!-- Generated by graphviz version 2.36.0 (20140111.2315)
 -->
<!-- Title: utility/Utility.h Pages: 1 -->
<!--zoomable 476 -->
<svg id="main" version="1.1" xmlns="http://www.w3.org/2000/svg" xmlns:xlink="http://www.w3.org/1999/xlink" xml:space="preserve" onload="init(evt)">
<style type="text/css"><![CDATA[
.edge:hover path { stroke: red; }
.edge:hover polygon { stroke: red; fill: red; }
]]></style>
<script type="text/javascript"><![CDATA[
var edges = document.getElementsByTagName('g');
if (edges && edges.length) {
  for (var i=0;i<edges.length;i++) {
    if (edges[i].id.substr(0,4)=='edge') {
      edges[i].setAttribute('class','edge');
    }
  }
}
]]></script>
        <defs>
                <circle id="rim" cx="0" cy="0" r="7"/>
                <circle id="rim2" cx="0" cy="0" r="3.5"/>
                <g id="zoomPlus">
                        <use xlink:href="#rim" fill="#404040">
                                <set attributeName="fill" to="#808080" begin="zoomplus.mouseover" end="zoomplus.mouseout"/>
                        </use>
                        <path d="M-4,0h8M0,-4v8" fill="none" stroke="white" stroke-width="1.5" pointer-events="none"/>
                </g>
                <g id="zoomMin">
                        <use xlink:href="#rim" fill="#404040">
                                <set attributeName="fill" to="#808080" begin="zoomminus.mouseover" end="zoomminus.mouseout"/>
                        </use>
                        <path d="M-4,0h8" fill="none" stroke="white" stroke-width="1.5" pointer-events="none"/>
                </g>
                <g id="dirArrow">
                        <path fill="none" stroke="white" stroke-width="1.5" d="M0,-3.0v7 M-2.5,-0.5L0,-3.0L2.5,-0.5"/>
                </g>
               <g id="resetDef">
                       <use xlink:href="#rim2" fill="#404040">
                               <set attributeName="fill" to="#808080" begin="reset.mouseover" end="reset.mouseout"/>
                       </use>
               </g>
        </defs>

<script type="text/javascript">
var viewWidth = 1404;
var viewHeight = 476;
var sectionId = 'dynsection-1';
</script>
<script xlink:href="../../svgpan.js"/>
<svg id="graph" class="graph">
<g id="viewport">
<title>utility/Utility.h</title>
<polygon fill="white" stroke="none" points="-4,4 -4,-472 1399.92,-472 1399.92,4 -4,4"/>
<!-- Node1 -->
<g id="node1" class="node"><title>Node1</title>
<polygon fill="#bfbfbf" stroke="black" points="687.5,-448.5 687.5,-467.5 764.5,-467.5 764.5,-448.5 687.5,-448.5"/>
<text text-anchor="middle" x="726" y="-455.5" font-family="Helvetica,sans-Serif" font-size="10.00">utility/Utility.h</text>
</g>
<!-- Node2 -->
<g id="node2" class="node"><title>Node2</title>
<g id="a_node2"><a xlink:href="../../d3/de6/_memory_8h.html" target="_top" xlink:title="Memory is a class that provides dynamic fixed size memory. ">
<polygon fill="white" stroke="black" points="791,-280.5 791,-299.5 889,-299.5 889,-280.5 791,-280.5"/>
<text text-anchor="middle" x="840" y="-287.5" font-family="Helvetica,sans-Serif" font-size="10.00">memory/Memory.h</text>
</a>
</g>
</g>
<!-- Node1&#45;&gt;Node2 -->
<g id="edge1" class="edge"><title>Node1&#45;&gt;Node2</title>
<path fill="none" stroke="midnightblue" d="M743.585,-441.516C752.399,-433.257 762.892,-422.625 771,-412 800.634,-373.166 826.462,-320.28 836.04,-299.697"/>
<polygon fill="midnightblue" stroke="midnightblue" points="741.106,-439.04 736.079,-448.366 745.825,-444.21 741.106,-439.04"/>
</g>
<!-- Node5 -->
<g id="node5" class="node"><title>Node5</title>
<g id="a_node5"><a xlink:href="../../d2/db9/_array_list_8h.html" target="_top" xlink:title="List implementation using an array. ">
<polygon fill="white" stroke="black" points="66.5,-224.5 66.5,-243.5 143.5,-243.5 143.5,-224.5 66.5,-224.5"/>
<text text-anchor="middle" x="105" y="-231.5" font-family="Helvetica,sans-Serif" font-size="10.00">stl/ArrayList.h</text>
</a>
</g>
</g>
<!-- Node1&#45;&gt;Node5 -->
<g id="edge19" class="edge"><title>Node1&#45;&gt;Node5</title>
<path fill="none" stroke="midnightblue" d="M677.102,-456.243C546.721,-453.794 197.943,-444.265 158,-412 104.35,-368.664 103.432,-273.274 104.515,-243.831"/>
<polygon fill="midnightblue" stroke="midnightblue" points="677.142,-459.744 687.204,-456.427 677.269,-452.745 677.142,-459.744"/>
</g>
<!-- Node6 -->
<g id="node6" class="node"><title>Node6</title>
<g id="a_node6"><a xlink:href="../../df/d03/_array_heap_8h.html" target="_top" xlink:title="Heap manipulation and implementation. ">
<polygon fill="white" stroke="black" points="21.5,-56.5 21.5,-75.5 106.5,-75.5 106.5,-56.5 21.5,-56.5"/>
<text text-anchor="middle" x="64" y="-63.5" font-family="Helvetica,sans-Serif" font-size="10.00">stl/ArrayHeap.h</text>
</a>
</g>
</g>
<!-- Node1&#45;&gt;Node6 -->
<g id="edge44" class="edge"><title>Node1&#45;&gt;Node6</title>
<path fill="none" stroke="midnightblue" d="M677.238,-455.59C554.947,-451.685 237.743,-439.173 136,-412 71.2754,-394.714 0,-413.993 0,-347 0,-347 0,-347 0,-177 0,-134.137 36.7539,-93.0674 54.5566,-75.6885"/>
<polygon fill="midnightblue" stroke="midnightblue" points="677.319,-459.094 687.424,-455.91 677.539,-452.098 677.319,-459.094"/>
</g>
<!-- Node7 -->
<g id="node7" class="node"><title>Node7</title>
<g id="a_node7"><a xlink:href="../../d3/dbe/_chain_map_8h.html" target="_top" xlink:title="Hasher map implementation. ">
<polygon fill="white" stroke="black" points="545.5,-112.5 545.5,-131.5 628.5,-131.5 628.5,-112.5 545.5,-112.5"/>
<text text-anchor="middle" x="587" y="-119.5" font-family="Helvetica,sans-Serif" font-size="10.00">stl/ChainMap.h</text>
</a>
</g>
</g>
<!-- Node1&#45;&gt;Node7 -->
<g id="edge45" class="edge"><title>Node1&#45;&gt;Node7</title>
<path fill="none" stroke="midnightblue" d="M720.784,-438.39C715.159,-416.65 707,-379.511 707,-347 707,-347 707,-347 707,-289 707,-258.902 711.847,-250.562 726,-224 735.794,-205.619 748.91,-207.583 756,-188 759.026,-179.642 761.417,-175.048 756,-168 740.597,-147.959 673.741,-134.951 628.878,-128.306"/>
<polygon fill="midnightblue" stroke="midnightblue" points="717.459,-439.502 723.438,-448.249 724.218,-437.683 717.459,-439.502"/>
</g>
<!-- Node9 -->
<g id="node9" class="node"><title>Node9</title>
<g id="a_node9"><a xlink:href="../../de/dc6/_linked_list_8h.html" target="_top" xlink:title="stl/LinkedList.h">
<polygon fill="white" stroke="black" points="735.5,-224.5 735.5,-243.5 818.5,-243.5 818.5,-224.5 735.5,-224.5"/>
<text text-anchor="middle" x="777" y="-231.5" font-family="Helvetica,sans-Serif" font-size="10.00">stl/LinkedList.h</text>
</a>
</g>
</g>
<!-- Node1&#45;&gt;Node9 -->
<g id="edge46" class="edge"><title>Node1&#45;&gt;Node9</title>
<path fill="none" stroke="midnightblue" d="M730.297,-438.295C740.784,-392.644 767.385,-276.854 774.959,-243.884"/>
<polygon fill="midnightblue" stroke="midnightblue" points="726.827,-437.768 727.999,-448.297 733.649,-439.335 726.827,-437.768"/>
</g>
<!-- Node10 -->
<g id="node10" class="node"><title>Node10</title>
<g id="a_node10"><a xlink:href="../../d5/d7a/_open_map_8h.html" target="_top" xlink:title="Hash map implementation. ">
<polygon fill="white" stroke="black" points="208,-112.5 208,-131.5 288,-131.5 288,-112.5 208,-112.5"/>
<text text-anchor="middle" x="248" y="-119.5" font-family="Helvetica,sans-Serif" font-size="10.00">stl/OpenMap.h</text>
</a>
</g>
</g>
<!-- Node1&#45;&gt;Node10 -->
<g id="edge47" class="edge"><title>Node1&#45;&gt;Node10</title>
<path fill="none" stroke="midnightblue" d="M677.414,-457.599C542.303,-457.967 172,-449.617 172,-347 172,-347 172,-347 172,-233 172,-188.201 215.196,-148.429 236.457,-131.567"/>
<polygon fill="midnightblue" stroke="midnightblue" points="677.499,-461.098 687.484,-457.554 677.468,-454.098 677.499,-461.098"/>
</g>
<!-- Node12 -->
<g id="node12" class="node"><title>Node12</title>
<g id="a_node12"><a xlink:href="../../d5/d08/_red_black_tree_8h.html" target="_top" xlink:title="Red black tree implementation. ">
<polygon fill="white" stroke="black" points="1172.5,-56.5 1172.5,-75.5 1273.5,-75.5 1273.5,-56.5 1172.5,-56.5"/>
<text text-anchor="middle" x="1223" y="-63.5" font-family="Helvetica,sans-Serif" font-size="10.00">stl/RedBlackTree.h</text>
</a>
</g>
</g>
<!-- Node1&#45;&gt;Node12 -->
<g id="edge48" class="edge"><title>Node1&#45;&gt;Node12</title>
<path fill="none" stroke="midnightblue" d="M774.844,-456.75C917.818,-455.588 1328.34,-449.028 1375,-412 1398.68,-393.212 1395,-377.225 1395,-347 1395,-347 1395,-347 1395,-177 1395,-116.742 1319.15,-88.0068 1268.19,-75.5003"/>
<polygon fill="midnightblue" stroke="midnightblue" points="774.596,-453.251 764.623,-456.827 774.649,-460.251 774.596,-453.251"/>
</g>
<!-- Node16 -->
<g id="node16" class="node"><title>Node16</title>
<g id="a_node16"><a xlink:href="../../d1/d13/_shared_ptr_8h.html" target="_top" xlink:title="Shared pointer implementation. ">
<polygon fill="white" stroke="black" points="1182,-168.5 1182,-187.5 1264,-187.5 1264,-168.5 1182,-168.5"/>
<text text-anchor="middle" x="1223" y="-175.5" font-family="Helvetica,sans-Serif" font-size="10.00">stl/SharedPtr.h</text>
</a>
</g>
</g>
<!-- Node1&#45;&gt;Node16 -->
<g id="edge49" class="edge"><title>Node1&#45;&gt;Node16</title>
<path fill="none" stroke="midnightblue" d="M774.791,-454.411C883.229,-445.712 1143.38,-407.901 1254,-244 1266.59,-225.346 1246.15,-200.789 1232.9,-187.853"/>
<polygon fill="midnightblue" stroke="midnightblue" points="774.49,-450.924 764.781,-455.166 775.016,-457.904 774.49,-450.924"/>
</g>
<!-- Node19 -->
<g id="node19" class="node"><title>Node19</title>
<g id="a_node19"><a xlink:href="../../d0/d55/_allocator_8cpp.html" target="_top" xlink:title="Implementation of Allocator. ">
<polygon fill="white" stroke="black" points="1255,-392.5 1255,-411.5 1367,-411.5 1367,-392.5 1255,-392.5"/>
<text text-anchor="middle" x="1311" y="-399.5" font-family="Helvetica,sans-Serif" font-size="10.00">memory/Allocator.cpp</text>
</a>
</g>
</g>
<!-- Node1&#45;&gt;Node19 -->
<g id="edge18" class="edge"><title>Node1&#45;&gt;Node19</title>
<path fill="none" stroke="midnightblue" d="M774.895,-453.394C866.467,-446.494 1070.02,-430.454 1241,-412 1245.51,-411.514 1250.17,-410.98 1254.86,-410.422"/>
<polygon fill="midnightblue" stroke="midnightblue" points="774.525,-449.912 764.815,-454.151 775.049,-456.893 774.525,-449.912"/>
</g>
<!-- Node20 -->
<g id="node20" class="node"><title>Node20</title>
<g id="a_node20"><a xlink:href="../../d4/dda/_pair_8h.html" target="_top" xlink:title="Implementation of a 2&#45;element tuple. ">
<polygon fill="white" stroke="black" points="531,-392.5 531,-411.5 587,-411.5 587,-392.5 531,-392.5"/>
<text text-anchor="middle" x="559" y="-399.5" font-family="Helvetica,sans-Serif" font-size="10.00">stl/Pair.h</text>
</a>
</g>
</g>
<!-- Node1&#45;&gt;Node20 -->
<g id="edge20" class="edge"><title>Node1&#45;&gt;Node20</title>
<path fill="none" stroke="midnightblue" d="M689.83,-445.304C658.363,-435.129 613.506,-420.625 585.338,-411.516"/>
<polygon fill="midnightblue" stroke="midnightblue" points="688.947,-448.697 699.538,-448.444 691.1,-442.037 688.947,-448.697"/>
</g>
<!-- Node3 -->
<g id="node3" class="node"><title>Node3</title>
<g id="a_node3"><a xlink:href="../../df/dcf/_state_machine_8h.html" target="_top" xlink:title="fsm/StateMachine.h">
<polygon fill="white" stroke="black" points="875,-224.5 875,-243.5 979,-243.5 979,-224.5 875,-224.5"/>
<text text-anchor="middle" x="927" y="-231.5" font-family="Helvetica,sans-Serif" font-size="10.00">fsm/StateMachine.h</text>
</a>
</g>
</g>
<!-- Node2&#45;&gt;Node3 -->
<g id="edge2" class="edge"><title>Node2&#45;&gt;Node3</title>
<path fill="none" stroke="midnightblue" d="M862.716,-274.901C878.669,-264.999 899.497,-252.071 913.057,-243.655"/>
<polygon fill="midnightblue" stroke="midnightblue" points="860.629,-272.077 853.978,-280.324 864.32,-278.024 860.629,-272.077"/>
</g>
<!-- Node4 -->
<g id="node4" class="node"><title>Node4</title>
<g id="a_node4"><a xlink:href="../../df/d64/_memory_8cpp.html" target="_top" xlink:title="Implementation of Memory functions. ">
<polygon fill="white" stroke="black" points="997.5,-224.5 997.5,-243.5 1106.5,-243.5 1106.5,-224.5 997.5,-224.5"/>
<text text-anchor="middle" x="1052" y="-231.5" font-family="Helvetica,sans-Serif" font-size="10.00">memory/Memory.cpp</text>
</a>
</g>
</g>
<!-- Node2&#45;&gt;Node4 -->
<g id="edge3" class="edge"><title>Node2&#45;&gt;Node4</title>
<path fill="none" stroke="midnightblue" d="M883.346,-277.959C923.387,-267.76 982.033,-252.822 1018.57,-243.516"/>
<polygon fill="midnightblue" stroke="midnightblue" points="882.419,-274.583 873.592,-280.444 884.147,-281.367 882.419,-274.583"/>
</g>
<!-- Node2&#45;&gt;Node5 -->
<g id="edge4" class="edge"><title>Node2&#45;&gt;Node5</title>
<path fill="none" stroke="midnightblue" d="M780.86,-284.655C635.628,-273.985 264.494,-246.718 143.66,-237.84"/>
<polygon fill="midnightblue" stroke="midnightblue" points="780.69,-288.152 790.92,-285.394 781.203,-281.171 780.69,-288.152"/>
</g>
<!-- Node2&#45;&gt;Node7 -->
<g id="edge6" class="edge"><title>Node2&#45;&gt;Node7</title>
<path fill="none" stroke="midnightblue" d="M838.277,-270.329C834.608,-242.602 823.303,-191.312 789,-168 740.711,-135.183 672.335,-125.897 628.83,-123.491"/>
<polygon fill="midnightblue" stroke="midnightblue" points="834.804,-270.767 839.4,-280.313 841.761,-269.985 834.804,-270.767"/>
</g>
<!-- Node2&#45;&gt;Node9 -->
<g id="edge8" class="edge"><title>Node2&#45;&gt;Node9</title>
<path fill="none" stroke="midnightblue" d="M821.96,-273.537C810.727,-263.909 796.681,-251.869 787.306,-243.834"/>
<polygon fill="midnightblue" stroke="midnightblue" points="820.008,-276.473 829.878,-280.324 824.563,-271.159 820.008,-276.473"/>
</g>
<!-- Node2&#45;&gt;Node10 -->
<g id="edge9" class="edge"><title>Node2&#45;&gt;Node10</title>
<path fill="none" stroke="midnightblue" d="M780.552,-289.887C691.824,-289.72 520.271,-283.621 381,-244 326.705,-228.554 303.335,-231.201 267,-188 253.076,-171.444 249.352,-145.108 248.359,-131.604"/>
<polygon fill="midnightblue" stroke="midnightblue" points="780.697,-293.387 790.695,-289.88 780.693,-286.387 780.697,-293.387"/>
</g>
<!-- Node2&#45;&gt;Node12 -->
<g id="edge11" class="edge"><title>Node2&#45;&gt;Node12</title>
<path fill="none" stroke="midnightblue" d="M899.073,-285.084C969.093,-279.465 1080.62,-267.145 1115,-244 1147.7,-221.986 1203.49,-108.103 1218.93,-75.6438"/>
<polygon fill="midnightblue" stroke="midnightblue" points="898.756,-281.598 889.058,-285.864 899.3,-288.577 898.756,-281.598"/>
</g>
<!-- Node15 -->
<g id="node15" class="node"><title>Node15</title>
<g id="a_node15"><a xlink:href="../../d8/df6/_unique_ptr_8h.html" target="_top" xlink:title="Unique pointer implementation. ">
<polygon fill="white" stroke="black" points="1163,-224.5 1163,-243.5 1245,-243.5 1245,-224.5 1163,-224.5"/>
<text text-anchor="middle" x="1204" y="-231.5" font-family="Helvetica,sans-Serif" font-size="10.00">stl/UniquePtr.h</text>
</a>
</g>
</g>
<!-- Node2&#45;&gt;Node15 -->
<g id="edge14" class="edge"><title>Node2&#45;&gt;Node15</title>
<path fill="none" stroke="midnightblue" d="M899.031,-280.718C961.25,-271.915 1062.09,-257.438 1149,-244 1153.49,-243.305 1158.19,-242.562 1162.87,-241.812"/>
<polygon fill="midnightblue" stroke="midnightblue" points="898.42,-277.269 889.008,-282.134 899.4,-284.2 898.42,-277.269"/>
</g>
<!-- Node17 -->
<g id="node17" class="node"><title>Node17</title>
<g id="a_node17"><a xlink:href="../../d6/d60/_dynamic_string_8h.html" target="_top" xlink:title="DynamicString is a class that provides dynamic strings and functions for dynamic strings. ">
<polygon fill="white" stroke="black" points="557,-224.5 557,-243.5 679,-243.5 679,-224.5 557,-224.5"/>
<text text-anchor="middle" x="618" y="-231.5" font-family="Helvetica,sans-Serif" font-size="10.00">strings/DynamicString.h</text>
</a>
</g>
</g>
<!-- Node2&#45;&gt;Node17 -->
<g id="edge16" class="edge"><title>Node2&#45;&gt;Node17</title>
<path fill="none" stroke="midnightblue" d="M794.875,-278.024C752.94,-267.823 691.348,-252.841 653.012,-243.516"/>
<polygon fill="midnightblue" stroke="midnightblue" points="794.28,-281.481 804.823,-280.444 795.934,-274.679 794.28,-281.481"/>
</g>
<!-- Node5&#45;&gt;Node6 -->
<g id="edge5" class="edge"><title>Node5&#45;&gt;Node6</title>
<path fill="none" stroke="midnightblue" d="M100.29,-213.93C91.396,-177.92 72.4547,-101.231 66.1162,-75.5681"/>
<polygon fill="midnightblue" stroke="midnightblue" points="96.9999,-215.206 102.796,-224.075 103.796,-213.528 96.9999,-215.206"/>
</g>
<!-- Node8 -->
<g id="node8" class="node"><title>Node8</title>
<g id="a_node8"><a xlink:href="../../d6/d59/_chain_set_8h.html" target="_top" xlink:title="Hash set implementation. ">
<polygon fill="white" stroke="black" points="547.5,-56.5 547.5,-75.5 626.5,-75.5 626.5,-56.5 547.5,-56.5"/>
<text text-anchor="middle" x="587" y="-63.5" font-family="Helvetica,sans-Serif" font-size="10.00">stl/ChainSet.h</text>
</a>
</g>
</g>
<!-- Node7&#45;&gt;Node8 -->
<g id="edge7" class="edge"><title>Node7&#45;&gt;Node8</title>
<path fill="none" stroke="midnightblue" d="M587,-101.805C587,-92.9102 587,-82.7798 587,-75.7511"/>
<polygon fill="midnightblue" stroke="midnightblue" points="583.5,-102.083 587,-112.083 590.5,-102.083 583.5,-102.083"/>
</g>
<!-- Node11 -->
<g id="node11" class="node"><title>Node11</title>
<g id="a_node11"><a xlink:href="../../d0/de6/_open_set_8h.html" target="_top" xlink:title="Hash set implementation. ">
<polygon fill="white" stroke="black" points="277.5,-56.5 277.5,-75.5 354.5,-75.5 354.5,-56.5 277.5,-56.5"/>
<text text-anchor="middle" x="316" y="-63.5" font-family="Helvetica,sans-Serif" font-size="10.00">stl/OpenSet.h</text>
</a>
</g>
</g>
<!-- Node10&#45;&gt;Node11 -->
<g id="edge10" class="edge"><title>Node10&#45;&gt;Node11</title>
<path fill="none" stroke="midnightblue" d="M266.762,-106.101C279,-96.3824 294.559,-84.0269 304.876,-75.8339"/>
<polygon fill="midnightblue" stroke="midnightblue" points="264.58,-103.364 258.925,-112.324 268.933,-108.846 264.58,-103.364"/>
</g>
<!-- Node13 -->
<g id="node13" class="node"><title>Node13</title>
<g id="a_node13"><a xlink:href="../../df/d87/_tree_map_8h.html" target="_top" xlink:title="Map implementation using red black tree. ">
<polygon fill="white" stroke="black" points="1137.5,-0.5 1137.5,-19.5 1214.5,-19.5 1214.5,-0.5 1137.5,-0.5"/>
<text text-anchor="middle" x="1176" y="-7.5" font-family="Helvetica,sans-Serif" font-size="10.00">stl/TreeMap.h</text>
</a>
</g>
</g>
<!-- Node12&#45;&gt;Node13 -->
<g id="edge12" class="edge"><title>Node12&#45;&gt;Node13</title>
<path fill="none" stroke="midnightblue" d="M1208.58,-48.4314C1200.34,-38.9673 1190.35,-27.4827 1183.62,-19.7511"/>
<polygon fill="midnightblue" stroke="midnightblue" points="1206.03,-50.8378 1215.24,-56.083 1211.31,-46.2421 1206.03,-50.8378"/>
</g>
<!-- Node14 -->
<g id="node14" class="node"><title>Node14</title>
<g id="a_node14"><a xlink:href="../../dd/dba/_tree_set_8h.html" target="_top" xlink:title="Set implementation using red black tree. ">
<polygon fill="white" stroke="black" points="1232.5,-0.5 1232.5,-19.5 1305.5,-19.5 1305.5,-0.5 1232.5,-0.5"/>
<text text-anchor="middle" x="1269" y="-7.5" font-family="Helvetica,sans-Serif" font-size="10.00">stl/TreeSet.h</text>
</a>
</g>
</g>
<!-- Node12&#45;&gt;Node14 -->
<g id="edge13" class="edge"><title>Node12&#45;&gt;Node14</title>
<path fill="none" stroke="midnightblue" d="M1237.11,-48.4314C1245.18,-38.9673 1254.96,-27.4827 1261.55,-19.7511"/>
<polygon fill="midnightblue" stroke="midnightblue" points="1234.42,-46.2009 1230.6,-56.083 1239.75,-50.7402 1234.42,-46.2009"/>
</g>
<!-- Node15&#45;&gt;Node16 -->
<g id="edge15" class="edge"><title>Node15&#45;&gt;Node16</title>
<path fill="none" stroke="midnightblue" d="M1210.55,-214.396C1213.72,-205.362 1217.39,-194.936 1219.92,-187.751"/>
<polygon fill="midnightblue" stroke="midnightblue" points="1207.15,-213.488 1207.14,-224.083 1213.76,-215.812 1207.15,-213.488"/>
</g>
<!-- Node18 -->
<g id="node18" class="node"><title>Node18</title>
<g id="a_node18"><a xlink:href="../../d9/d8a/_dynamic_string_8cpp.html" target="_top" xlink:title="DynamicString is a class that provides dynamic strings and functions for dynamic strings. ">
<polygon fill="white" stroke="black" points="615,-168.5 615,-187.5 747,-187.5 747,-168.5 615,-168.5"/>
<text text-anchor="middle" x="681" y="-175.5" font-family="Helvetica,sans-Serif" font-size="10.00">strings/DynamicString.cpp</text>
</a>
</g>
</g>
<!-- Node17&#45;&gt;Node18 -->
<g id="edge17" class="edge"><title>Node17&#45;&gt;Node18</title>
<path fill="none" stroke="midnightblue" d="M636.04,-217.537C647.273,-207.909 661.319,-195.869 670.694,-187.834"/>
<polygon fill="midnightblue" stroke="midnightblue" points="633.437,-215.159 628.122,-224.324 637.992,-220.473 633.437,-215.159"/>
</g>
<!-- Node20&#45;&gt;Node7 -->
<g id="edge40" class="edge"><title>Node20&#45;&gt;Node7</title>
<path fill="none" stroke="midnightblue" d="M553.46,-382.656C551.292,-374.566 549.071,-364.893 548,-356 540.984,-297.754 537.252,-281.674 548,-224 554.681,-188.152 573.633,-148.634 582.421,-131.595"/>
<polygon fill="midnightblue" stroke="midnightblue" points="550.156,-383.833 556.27,-392.486 556.887,-381.909 550.156,-383.833"/>
</g>
<!-- Node20&#45;&gt;Node10 -->
<g id="edge41" class="edge"><title>Node20&#45;&gt;Node10</title>
<path fill="none" stroke="midnightblue" d="M520.591,-397.13C429.893,-386.93 210,-355.546 210,-291 210,-291 210,-291 210,-233 210,-193.399 232.275,-149.957 242.716,-131.769"/>
<polygon fill="midnightblue" stroke="midnightblue" points="520.413,-400.631 530.735,-398.243 521.177,-393.673 520.413,-400.631"/>
</g>
<!-- Node20&#45;&gt;Node12 -->
<g id="edge42" class="edge"><title>Node20&#45;&gt;Node12</title>
<path fill="none" stroke="midnightblue" d="M597.435,-400.823C750.836,-399.101 1311,-382.702 1311,-235 1311,-235 1311,-235 1311,-177 1311,-130.288 1262.01,-92.0471 1237.14,-75.6391"/>
<polygon fill="midnightblue" stroke="midnightblue" points="597.072,-397.326 587.107,-400.923 597.14,-404.326 597.072,-397.326"/>
</g>
<!-- Node21 -->
<g id="node21" class="node"><title>Node21</title>
<g id="a_node21"><a xlink:href="../../d8/dd7/_concept_8h.html" target="_top" xlink:title="Concept definitions. ">
<polygon fill="white" stroke="black" points="406.5,-336.5 406.5,-355.5 481.5,-355.5 481.5,-336.5 406.5,-336.5"/>
<text text-anchor="middle" x="444" y="-343.5" font-family="Helvetica,sans-Serif" font-size="10.00">stl/Concept.h</text>
</a>
</g>
</g>
<!-- Node20&#45;&gt;Node21 -->
<g id="edge21" class="edge"><title>Node20&#45;&gt;Node21</title>
<path fill="none" stroke="midnightblue" d="M531.519,-388.096C510.034,-378.007 480.778,-364.27 462.137,-355.516"/>
<polygon fill="midnightblue" stroke="midnightblue" points="530.238,-391.361 540.778,-392.444 533.214,-385.025 530.238,-391.361"/>
</g>
<!-- Node28 -->
<g id="node28" class="node"><title>Node28</title>
<g id="a_node28"><a xlink:href="../../d7/d2a/_tuple_8h.html" target="_top" xlink:title="Template oriented tuple implementation. ">
<polygon fill="white" stroke="black" points="557,-336.5 557,-355.5 619,-355.5 619,-336.5 557,-336.5"/>
<text text-anchor="middle" x="588" y="-343.5" font-family="Helvetica,sans-Serif" font-size="10.00">stl/Tuple.h</text>
</a>
</g>
</g>
<!-- Node20&#45;&gt;Node28 -->
<g id="edge43" class="edge"><title>Node20&#45;&gt;Node28</title>
<path fill="none" stroke="midnightblue" d="M568.676,-382.983C573.598,-373.817 579.358,-363.092 583.3,-355.751"/>
<polygon fill="midnightblue" stroke="midnightblue" points="565.437,-381.617 563.789,-392.083 571.604,-384.929 565.437,-381.617"/>
</g>
<!-- Node21&#45;&gt;Node6 -->
<g id="edge22" class="edge"><title>Node21&#45;&gt;Node6</title>
<path fill="none" stroke="midnightblue" d="M395.92,-342.119C288.424,-334.362 38,-308.413 38,-235 38,-235 38,-235 38,-177 38,-138.342 53.3966,-94.0414 60.4935,-75.675"/>
<polygon fill="midnightblue" stroke="midnightblue" points="395.95,-345.629 406.169,-342.834 396.437,-338.646 395.95,-345.629"/>
</g>
<!-- Node22 -->
<g id="node22" class="node"><title>Node22</title>
<g id="a_node22"><a xlink:href="../../de/d0b/_string_iterator_8h.html" target="_top" xlink:title="strings/StringIterator.h">
<polygon fill="white" stroke="black" points="387.5,-280.5 387.5,-299.5 500.5,-299.5 500.5,-280.5 387.5,-280.5"/>
<text text-anchor="middle" x="444" y="-287.5" font-family="Helvetica,sans-Serif" font-size="10.00">strings/StringIterator.h</text>
</a>
</g>
</g>
<!-- Node21&#45;&gt;Node22 -->
<g id="edge23" class="edge"><title>Node21&#45;&gt;Node22</title>
<path fill="none" stroke="midnightblue" d="M444,-325.805C444,-316.91 444,-306.78 444,-299.751"/>
<polygon fill="midnightblue" stroke="midnightblue" points="440.5,-326.083 444,-336.083 447.5,-326.083 440.5,-326.083"/>
</g>
<!-- Node22&#45;&gt;Node17 -->
<g id="edge39" class="edge"><title>Node22&#45;&gt;Node17</title>
<path fill="none" stroke="midnightblue" d="M481.261,-277.436C514.067,-267.255 561.083,-252.664 590.558,-243.516"/>
<polygon fill="midnightblue" stroke="midnightblue" points="480.084,-274.137 471.571,-280.444 482.159,-280.822 480.084,-274.137"/>
</g>
<!-- Node23 -->
<g id="node23" class="node"><title>Node23</title>
<g id="a_node23"><a xlink:href="../../d8/d65/_static_string_8h.html" target="_top" xlink:title="StaticString provides a String that is on stack and is of fixed size. ">
<polygon fill="white" stroke="black" points="390,-224.5 390,-243.5 498,-243.5 498,-224.5 390,-224.5"/>
<text text-anchor="middle" x="444" y="-231.5" font-family="Helvetica,sans-Serif" font-size="10.00">strings/StaticString.h</text>
</a>
</g>
</g>
<!-- Node22&#45;&gt;Node23 -->
<g id="edge24" class="edge"><title>Node22&#45;&gt;Node23</title>
<path fill="none" stroke="midnightblue" d="M444,-269.805C444,-260.91 444,-250.78 444,-243.751"/>
<polygon fill="midnightblue" stroke="midnightblue" points="440.5,-270.083 444,-280.083 447.5,-270.083 440.5,-270.083"/>
</g>
<!-- Node24 -->
<g id="node24" class="node"><title>Node24</title>
<g id="a_node24"><a xlink:href="../../d7/d0c/_comparator_8h.html" target="_top" xlink:title="Comparator implementation for basic types. ">
<polygon fill="white" stroke="black" points="434.5,-112.5 434.5,-131.5 523.5,-131.5 523.5,-112.5 434.5,-112.5"/>
<text text-anchor="middle" x="479" y="-119.5" font-family="Helvetica,sans-Serif" font-size="10.00">stl/Comparator.h</text>
</a>
</g>
</g>
<!-- Node23&#45;&gt;Node24 -->
<g id="edge25" class="edge"><title>Node23&#45;&gt;Node24</title>
<path fill="none" stroke="midnightblue" d="M487.126,-220.729C503.167,-213.84 519.713,-203.426 529,-188 541.998,-166.411 513.12,-143.603 494.059,-131.582"/>
<polygon fill="midnightblue" stroke="midnightblue" points="485.83,-217.478 477.799,-224.388 488.386,-223.994 485.83,-217.478"/>
</g>
<!-- Node25 -->
<g id="node25" class="node"><title>Node25</title>
<g id="a_node25"><a xlink:href="../../d2/dc2/_equal_8h.html" target="_top" xlink:title="stl/Equal.h">
<polygon fill="white" stroke="black" points="356.5,-168.5 356.5,-187.5 419.5,-187.5 419.5,-168.5 356.5,-168.5"/>
<text text-anchor="middle" x="388" y="-175.5" font-family="Helvetica,sans-Serif" font-size="10.00">stl/Equal.h</text>
</a>
</g>
</g>
<!-- Node23&#45;&gt;Node25 -->
<g id="edge28" class="edge"><title>Node23&#45;&gt;Node25</title>
<path fill="none" stroke="midnightblue" d="M427.67,-217.253C417.735,-207.673 405.412,-195.791 397.161,-187.834"/>
<polygon fill="midnightblue" stroke="midnightblue" points="425.375,-219.902 435.003,-224.324 430.234,-214.863 425.375,-219.902"/>
</g>
<!-- Node26 -->
<g id="node26" class="node"><title>Node26</title>
<g id="a_node26"><a xlink:href="../../d2/dad/_hash_8h.html" target="_top" xlink:title="stl/Hash.h">
<polygon fill="white" stroke="black" points="276,-168.5 276,-187.5 338,-187.5 338,-168.5 276,-168.5"/>
<text text-anchor="middle" x="307" y="-175.5" font-family="Helvetica,sans-Serif" font-size="10.00">stl/Hash.h</text>
</a>
</g>
</g>
<!-- Node23&#45;&gt;Node26 -->
<g id="edge33" class="edge"><title>Node23&#45;&gt;Node26</title>
<path fill="none" stroke="midnightblue" d="M412.977,-220.772C387.243,-210.629 351.314,-196.467 328.606,-187.516"/>
<polygon fill="midnightblue" stroke="midnightblue" points="411.705,-224.033 422.292,-224.444 414.272,-217.52 411.705,-224.033"/>
</g>
<!-- Node27 -->
<g id="node27" class="node"><title>Node27</title>
<g id="a_node27"><a xlink:href="../../db/db5/_string_8h.html" target="_top" xlink:title="strings/String.h">
<polygon fill="white" stroke="black" points="437.5,-168.5 437.5,-187.5 520.5,-187.5 520.5,-168.5 437.5,-168.5"/>
<text text-anchor="middle" x="479" y="-175.5" font-family="Helvetica,sans-Serif" font-size="10.00">strings/String.h</text>
</a>
</g>
</g>
<!-- Node23&#45;&gt;Node27 -->
<g id="edge37" class="edge"><title>Node23&#45;&gt;Node27</title>
<path fill="none" stroke="midnightblue" d="M455.3,-215.566C461.322,-206.275 468.469,-195.248 473.328,-187.751"/>
<polygon fill="midnightblue" stroke="midnightblue" points="452.281,-213.788 449.78,-224.083 458.156,-217.595 452.281,-213.788"/>
</g>
<!-- Node24&#45;&gt;Node6 -->
<g id="edge26" class="edge"><title>Node24&#45;&gt;Node6</title>
<path fill="none" stroke="midnightblue" d="M424.117,-113.859C340.401,-102.965 182.557,-82.4267 106.752,-72.5629"/>
<polygon fill="midnightblue" stroke="midnightblue" points="423.825,-117.35 434.193,-115.17 424.729,-110.409 423.825,-117.35"/>
</g>
<!-- Node24&#45;&gt;Node12 -->
<g id="edge27" class="edge"><title>Node24&#45;&gt;Node12</title>
<path fill="none" stroke="midnightblue" d="M533.745,-112.258C534.501,-112.169 535.253,-112.083 536,-112 773.285,-85.5514 1058.54,-72.9799 1172.44,-68.7322"/>
<polygon fill="midnightblue" stroke="midnightblue" points="533.228,-108.796 523.754,-113.539 534.118,-115.739 533.228,-108.796"/>
</g>
<!-- Node25&#45;&gt;Node7 -->
<g id="edge30" class="edge"><title>Node25&#45;&gt;Node7</title>
<path fill="none" stroke="midnightblue" d="M429.648,-165.699C467.206,-155.507 521.614,-140.743 555.615,-131.516"/>
<polygon fill="midnightblue" stroke="midnightblue" points="428.267,-162.447 419.532,-168.444 430.1,-169.202 428.267,-162.447"/>
</g>
<!-- Node25&#45;&gt;Node10 -->
<g id="edge31" class="edge"><title>Node25&#45;&gt;Node10</title>
<path fill="none" stroke="midnightblue" d="M356.298,-164.772C330,-154.629 293.284,-140.467 270.08,-131.516"/>
<polygon fill="midnightblue" stroke="midnightblue" points="355.227,-168.11 365.817,-168.444 357.746,-161.579 355.227,-168.11"/>
</g>
<!-- Node25&#45;&gt;Node11 -->
<g id="edge32" class="edge"><title>Node25&#45;&gt;Node11</title>
<path fill="none" stroke="midnightblue" d="M376.845,-159.957C361.241,-136.118 333.482,-93.7088 321.623,-75.5914"/>
<polygon fill="midnightblue" stroke="midnightblue" points="373.945,-161.918 382.35,-168.368 379.802,-158.085 373.945,-161.918"/>
</g>
<!-- Node25&#45;&gt;Node24 -->
<g id="edge29" class="edge"><title>Node25&#45;&gt;Node24</title>
<path fill="none" stroke="midnightblue" d="M411.294,-163.177C428.039,-153.241 450.1,-140.149 464.416,-131.655"/>
<polygon fill="midnightblue" stroke="midnightblue" points="409.434,-160.211 402.621,-168.324 413.007,-166.231 409.434,-160.211"/>
</g>
<!-- Node26&#45;&gt;Node7 -->
<g id="edge34" class="edge"><title>Node26&#45;&gt;Node7</title>
<path fill="none" stroke="midnightblue" d="M348.478,-167.749C423.238,-152.444 499.404,-138.542 545.288,-130.351"/>
<polygon fill="midnightblue" stroke="midnightblue" points="347.509,-164.375 338.42,-169.818 348.92,-171.231 347.509,-164.375"/>
</g>
<!-- Node26&#45;&gt;Node10 -->
<g id="edge35" class="edge"><title>Node26&#45;&gt;Node10</title>
<path fill="none" stroke="midnightblue" d="M290.105,-161.537C279.585,-151.909 266.431,-139.869 257.652,-131.834"/>
<polygon fill="midnightblue" stroke="midnightblue" points="287.781,-164.154 297.521,-168.324 292.507,-158.99 287.781,-164.154"/>
</g>
<!-- Node26&#45;&gt;Node11 -->
<g id="edge36" class="edge"><title>Node26&#45;&gt;Node11</title>
<path fill="none" stroke="midnightblue" d="M308.526,-158.348C310.497,-134.254 313.848,-93.3079 315.297,-75.5914"/>
<polygon fill="midnightblue" stroke="midnightblue" points="305.033,-158.116 307.706,-168.368 312.01,-158.687 305.033,-158.116"/>
</g>
<!-- Node27&#45;&gt;Node24 -->
<g id="edge38" class="edge"><title>Node27&#45;&gt;Node24</title>
<path fill="none" stroke="midnightblue" d="M479,-157.805C479,-148.91 479,-138.78 479,-131.751"/>
<polygon fill="midnightblue" stroke="midnightblue" points="475.5,-158.083 479,-168.083 482.5,-158.083 475.5,-158.083"/>
</g>
</g>
</svg>
        <g id="navigator" transform="translate(0 0)" fill="#404254">
                <rect fill="#f2f5e9" fill-opacity="0.5" stroke="#606060" stroke-width=".5" x="0" y="0" width="60" height="60"/>
                <use id="zoomplus" xlink:href="#zoomPlus" x="17" y="9" onmousedown="handleZoom(evt,'in')"/>
                <use id="zoomminus" xlink:href="#zoomMin" x="42" y="9" onmousedown="handleZoom(evt,'out')"/>
                <use id="reset" xlink:href="#resetDef" x="30" y="36" onmousedown="handleReset()"/>
                <g id="arrowUp" xlink:href="#dirArrow" transform="translate(30 24)" onmousedown="handlePan(0,-1)">
                  <use xlink:href="#rim" fill="#404040">
                        <set attributeName="fill" to="#808080" begin="arrowUp.mouseover" end="arrowUp.mouseout"/>
                  </use>
                  <path fill="none" stroke="white" stroke-width="1.5" d="M0,-3.0v7 M-2.5,-0.5L0,-3.0L2.5,-0.5"/>
                </g>
                <g id="arrowRight" xlink:href="#dirArrow" transform="rotate(90) translate(36 -43)" onmousedown="handlePan(1,0)">
                  <use xlink:href="#rim" fill="#404040">
                        <set attributeName="fill" to="#808080" begin="arrowRight.mouseover" end="arrowRight.mouseout"/>
                  </use>
                  <path fill="none" stroke="white" stroke-width="1.5" d="M0,-3.0v7 M-2.5,-0.5L0,-3.0L2.5,-0.5"/>
                </g>
                <g id="arrowDown" xlink:href="#dirArrow" transform="rotate(180) translate(-30 -48)" onmousedown="handlePan(0,1)">
                  <use xlink:href="#rim" fill="#404040">
                        <set attributeName="fill" to="#808080" begin="arrowDown.mouseover" end="arrowDown.mouseout"/>
                  </use>
                  <path fill="none" stroke="white" stroke-width="1.5" d="M0,-3.0v7 M-2.5,-0.5L0,-3.0L2.5,-0.5"/>
                </g>
                <g id="arrowLeft" xlink:href="#dirArrow" transform="rotate(270) translate(-36 17)" onmousedown="handlePan(-1,0)">
                  <use xlink:href="#rim" fill="#404040">
                        <set attributeName="fill" to="#808080" begin="arrowLeft.mouseover" end="arrowLeft.mouseout"/>
                  </use>
                  <path fill="none" stroke="white" stroke-width="1.5" d="M0,-3.0v7 M-2.5,-0.5L0,-3.0L2.5,-0.5"/>
                </g>
        </g>
        <svg viewBox="0 0 15 15" width="100%" height="30px" preserveAspectRatio="xMaxYMin meet">
         <g id="arrow_out" transform="scale(0.3 0.3)">
          <a xlink:href="_utility_8h__dep__incl_org.svg" target="_base">
           <rect id="button" ry="5" rx="5" y="6" x="6" height="38" width="38"
                fill="#f2f5e9" fill-opacity="0.5" stroke="#606060" stroke-width="1.0"/>
           <path id="arrow"
             d="M 11.500037,31.436501 C 11.940474,20.09759 22.043105,11.32322 32.158766,21.979434 L 37.068811,17.246167 C 37.068811,17.246167 37.088388,32 37.088388,32 L 22.160133,31.978069 C 22.160133,31.978069 26.997745,27.140456 26.997745,27.140456 C 18.528582,18.264221 13.291696,25.230495 11.500037,31.436501 z"
             style="fill:#404040;"/>
          </a>
         </g>
        </svg>
</svg>
