<?xml version="1.0" encoding="UTF-8" standalone="no"?>
<!DOCTYPE svg PUBLIC "-//W3C//DTD SVG 1.1//EN"
 "http://www.w3.org/Graphics/SVG/1.1/DTD/svg11.dtd">
<!-- Generated by graphviz version 2.36.0 (20140111.2315)
 -->
<!-- Title: wlp::tree_map&lt; Key, Val, Cmp &gt; Pages: 1 -->
<svg width="688pt" height="205pt"
 viewBox="0.00 0.00 688.00 205.00" xmlns="http://www.w3.org/2000/svg" xmlns:xlink="http://www.w3.org/1999/xlink">
<g id="graph0" class="graph" transform="scale(1 1) rotate(0) translate(4 201)">
<title>wlp::tree_map&lt; Key, Val, Cmp &gt;</title>
<polygon fill="white" stroke="none" points="-4,4 -4,-201 684,-201 684,4 -4,4"/>
<!-- Node1 -->
<g id="node1" class="node"><title>Node1</title>
<polygon fill="#bfbfbf" stroke="black" points="572.5,-101 572.5,-131 679.5,-131 679.5,-101 572.5,-101"/>
<text text-anchor="start" x="580.5" y="-119" font-family="Helvetica,sans-Serif" font-size="10.00">wlp::tree_map&lt; Key,</text>
<text text-anchor="middle" x="626" y="-108" font-family="Helvetica,sans-Serif" font-size="10.00"> Val, Cmp &gt;</text>
</g>
<!-- Node2 -->
<g id="node2" class="node"><title>Node2</title>
<g id="a_node2"><a xlink:href="../../d9/d40/classwlp_1_1tree.html" target="_top" xlink:title="wlp::tree\&lt; tuple\&lt; Key,\l Val \&gt;, Key, Val, MapGetKey\l\&lt; Key, Val \&gt;, MapGetVal\&lt;\l Key, Val \&gt;, Cmp \&gt;">
<polygon fill="white" stroke="black" points="354,-90 354,-142 498,-142 498,-90 354,-90"/>
<text text-anchor="start" x="362" y="-130" font-family="Helvetica,sans-Serif" font-size="10.00">wlp::tree&lt; tuple&lt; Key,</text>
<text text-anchor="start" x="362" y="-119" font-family="Helvetica,sans-Serif" font-size="10.00"> Val &gt;, Key, Val, MapGetKey</text>
<text text-anchor="start" x="362" y="-108" font-family="Helvetica,sans-Serif" font-size="10.00">&lt; Key, Val &gt;, MapGetVal&lt;</text>
<text text-anchor="middle" x="426" y="-97" font-family="Helvetica,sans-Serif" font-size="10.00"> Key, Val &gt;, Cmp &gt;</text>
</a>
</g>
</g>
<!-- Node2&#45;&gt;Node1 -->
<g id="edge1" class="edge"><title>Node2&#45;&gt;Node1</title>
<path fill="none" stroke="#9a32cd" stroke-dasharray="5,2" d="M508.374,-116C530.001,-116 552.789,-116 572.425,-116"/>
<polygon fill="#9a32cd" stroke="#9a32cd" points="508.203,-112.5 498.203,-116 508.203,-119.5 508.203,-112.5"/>
<text text-anchor="middle" x="535" y="-119" font-family="Helvetica,sans-Serif" font-size="10.00"> m_table</text>
</g>
<!-- Node3 -->
<g id="node3" class="node"><title>Node3</title>
<polygon fill="white" stroke="#bfbfbf" points="185,-177.5 185,-196.5 223,-196.5 223,-177.5 185,-177.5"/>
<text text-anchor="middle" x="204" y="-184.5" font-family="Helvetica,sans-Serif" font-size="10.00">Cmp</text>
</g>
<!-- Node3&#45;&gt;Node2 -->
<g id="edge2" class="edge"><title>Node3&#45;&gt;Node2</title>
<path fill="none" stroke="#9a32cd" stroke-dasharray="5,2" d="M233.238,-180.166C259.946,-173.486 301.032,-162.644 336,-151 344.191,-148.272 352.727,-145.209 361.13,-142.058"/>
<polygon fill="#9a32cd" stroke="#9a32cd" points="232.276,-176.799 223.41,-182.599 233.958,-183.594 232.276,-176.799"/>
<text text-anchor="middle" x="310" y="-169" font-family="Helvetica,sans-Serif" font-size="10.00"> m_cmp</text>
</g>
<!-- Node4 -->
<g id="node4" class="node"><title>Node4</title>
<polygon fill="white" stroke="#bfbfbf" points="178.5,-139.5 178.5,-158.5 229.5,-158.5 229.5,-139.5 178.5,-139.5"/>
<text text-anchor="middle" x="204" y="-146.5" font-family="Helvetica,sans-Serif" font-size="10.00">uint16_t</text>
</g>
<!-- Node4&#45;&gt;Node2 -->
<g id="edge3" class="edge"><title>Node4&#45;&gt;Node2</title>
<path fill="none" stroke="#9a32cd" stroke-dasharray="5,2" d="M239.953,-143.757C270.468,-139.18 315.711,-132.393 353.822,-126.677"/>
<polygon fill="#9a32cd" stroke="#9a32cd" points="239.179,-140.334 229.809,-145.279 240.218,-147.256 239.179,-140.334"/>
<text text-anchor="middle" x="310" y="-139" font-family="Helvetica,sans-Serif" font-size="10.00"> m_size</text>
</g>
<!-- Node5 -->
<g id="node5" class="node"><title>Node5</title>
<g id="a_node5"><a xlink:href="../../d9/d53/structwlp_1_1_red_black_tree_node.html" target="_top" xlink:title="wlp::RedBlackTreeNode\l\&lt; Element \&gt;">
<polygon fill="white" stroke="black" points="142.5,-39 142.5,-69 265.5,-69 265.5,-39 142.5,-39"/>
<text text-anchor="start" x="150.5" y="-57" font-family="Helvetica,sans-Serif" font-size="10.00">wlp::RedBlackTreeNode</text>
<text text-anchor="middle" x="204" y="-46" font-family="Helvetica,sans-Serif" font-size="10.00">&lt; Element &gt;</text>
</a>
</g>
</g>
<!-- Node5&#45;&gt;Node2 -->
<g id="edge4" class="edge"><title>Node5&#45;&gt;Node2</title>
<path fill="none" stroke="#9a32cd" stroke-dasharray="5,2" d="M267.926,-71.7337C294.782,-79.3023 326.252,-88.1712 353.943,-95.9747"/>
<polygon fill="#9a32cd" stroke="#9a32cd" points="268.83,-68.3523 258.256,-69.0085 266.932,-75.0898 268.83,-68.3523"/>
<text text-anchor="middle" x="310" y="-94" font-family="Helvetica,sans-Serif" font-size="10.00"> m_header</text>
</g>
<!-- Node5&#45;&gt;Node5 -->
<g id="edge7" class="edge"><title>Node5&#45;&gt;Node5</title>
<path fill="none" stroke="#9a32cd" stroke-dasharray="5,2" d="M185.446,-79.5975C187.981,-83.9704 194.166,-87 204,-87 220.562,-87 226.773,-78.4062 222.633,-69.2754"/>
<polygon fill="#9a32cd" stroke="#9a32cd" points="188.944,-79.2483 185.367,-69.2754 181.944,-79.3019 188.944,-79.2483"/>
<text text-anchor="middle" x="204" y="-112" font-family="Helvetica,sans-Serif" font-size="10.00"> m_left</text>
<text text-anchor="middle" x="204" y="-101" font-family="Helvetica,sans-Serif" font-size="10.00">m_parent</text>
<text text-anchor="middle" x="204" y="-90" font-family="Helvetica,sans-Serif" font-size="10.00">m_right</text>
</g>
<!-- Node6 -->
<g id="node6" class="node"><title>Node6</title>
<polygon fill="white" stroke="#bfbfbf" points="0.5,-63.5 0.5,-82.5 53.5,-82.5 53.5,-63.5 0.5,-63.5"/>
<text text-anchor="middle" x="27" y="-70.5" font-family="Helvetica,sans-Serif" font-size="10.00">Element</text>
</g>
<!-- Node6&#45;&gt;Node5 -->
<g id="edge5" class="edge"><title>Node6&#45;&gt;Node5</title>
<path fill="none" stroke="#9a32cd" stroke-dasharray="5,2" d="M63.9548,-69.0963C86.4938,-66.6492 116.124,-63.4323 142.239,-60.597"/>
<polygon fill="#9a32cd" stroke="#9a32cd" points="63.3856,-65.6375 53.8219,-70.1965 64.1412,-72.5966 63.3856,-65.6375"/>
<text text-anchor="middle" x="98" y="-71" font-family="Helvetica,sans-Serif" font-size="10.00"> m_element</text>
</g>
<!-- Node7 -->
<g id="node7" class="node"><title>Node7</title>
<polygon fill="white" stroke="#bfbfbf" points="9.5,-25.5 9.5,-44.5 44.5,-44.5 44.5,-25.5 9.5,-25.5"/>
<text text-anchor="middle" x="27" y="-32.5" font-family="Helvetica,sans-Serif" font-size="10.00">type</text>
</g>
<!-- Node7&#45;&gt;Node5 -->
<g id="edge6" class="edge"><title>Node7&#45;&gt;Node5</title>
<path fill="none" stroke="#9a32cd" stroke-dasharray="5,2" d="M54.9042,-37.921C78.1161,-40.4412 112.507,-44.175 142.306,-47.4103"/>
<polygon fill="#9a32cd" stroke="#9a32cd" points="55.0991,-34.4217 44.7797,-36.8218 54.3435,-41.3808 55.0991,-34.4217"/>
<text text-anchor="middle" x="98" y="-49" font-family="Helvetica,sans-Serif" font-size="10.00"> m_color</text>
</g>
<!-- Node8 -->
<g id="node8" class="node"><title>Node8</title>
<polygon fill="white" stroke="#bfbfbf" points="142,-0.5 142,-19.5 266,-19.5 266,-0.5 142,-0.5"/>
<text text-anchor="middle" x="204" y="-7.5" font-family="Helvetica,sans-Serif" font-size="10.00">MapGetKey&lt; Key, Val &gt;</text>
</g>
<!-- Node8&#45;&gt;Node2 -->
<g id="edge8" class="edge"><title>Node8&#45;&gt;Node2</title>
<path fill="none" stroke="#9a32cd" stroke-dasharray="5,2" d="M248.662,-22.7218C254.538,-24.6891 260.45,-26.8023 266,-29 307.982,-45.6249 352.858,-70.9482 384.193,-89.9945"/>
<polygon fill="#9a32cd" stroke="#9a32cd" points="249.467,-19.3039 238.875,-19.5598 247.315,-25.9649 249.467,-19.3039"/>
<text text-anchor="middle" x="310" y="-64" font-family="Helvetica,sans-Serif" font-size="10.00"> m_get_key</text>
</g>
</g>
</svg>
