<?xml version="1.0" encoding="UTF-8" standalone="no"?>
<!DOCTYPE svg PUBLIC "-//W3C//DTD SVG 1.1//EN"
 "http://www.w3.org/Graphics/SVG/1.1/DTD/svg11.dtd">
<!-- Generated by graphviz version 2.36.0 (20140111.2315)
 -->
<!-- Title: wlp::HashTable&lt; Element, Key, Val, GetKey, GetVal, Hasher, Equals &gt; Pages: 1 -->
<svg width="538pt" height="208pt"
 viewBox="0.00 0.00 538.00 208.00" xmlns="http://www.w3.org/2000/svg" xmlns:xlink="http://www.w3.org/1999/xlink">
<g id="graph0" class="graph" transform="scale(1 1) rotate(0) translate(4 204)">
<title>wlp::HashTable&lt; Element, Key, Val, GetKey, GetVal, Hasher, Equals &gt;</title>
<polygon fill="white" stroke="none" points="-4,4 -4,-204 534,-204 534,4 -4,4"/>
<!-- Node1 -->
<g id="node1" class="node"><title>Node1</title>
<polygon fill="#bfbfbf" stroke="black" points="150.5,-0.5 150.5,-41.5 285.5,-41.5 285.5,-0.5 150.5,-0.5"/>
<text text-anchor="start" x="158.5" y="-29.5" font-family="Helvetica,sans-Serif" font-size="10.00">wlp::HashTable&lt; Element,</text>
<text text-anchor="start" x="158.5" y="-18.5" font-family="Helvetica,sans-Serif" font-size="10.00"> Key, Val, GetKey, GetVal,</text>
<text text-anchor="middle" x="218" y="-7.5" font-family="Helvetica,sans-Serif" font-size="10.00"> Hasher, Equals &gt;</text>
</g>
<!-- Node2 -->
<g id="node2" class="node"><title>Node2</title>
<polygon fill="white" stroke="#bfbfbf" points="-0.5,-106.5 -0.5,-125.5 50.5,-125.5 50.5,-106.5 -0.5,-106.5"/>
<text text-anchor="middle" x="25" y="-113.5" font-family="Helvetica,sans-Serif" font-size="10.00">uint16_t</text>
</g>
<!-- Node2&#45;&gt;Node1 -->
<g id="edge1" class="edge"><title>Node2&#45;&gt;Node1</title>
<path fill="none" stroke="#9a32cd" stroke-dasharray="5,2" d="M28.544,-96.5015C31.8227,-84.38 37.9292,-69.1419 49,-60 64.5944,-47.1227 110.452,-37.2873 150.469,-30.852"/>
<polygon fill="#9a32cd" stroke="#9a32cd" points="25.0765,-95.9652 26.2665,-106.493 31.9015,-97.5209 25.0765,-95.9652"/>
<text text-anchor="middle" x="76" y="-74" font-family="Helvetica,sans-Serif" font-size="10.00"> m_capacity</text>
<text text-anchor="middle" x="76" y="-63" font-family="Helvetica,sans-Serif" font-size="10.00">m_size</text>
</g>
<!-- Node3 -->
<g id="node3" class="node"><title>Node3</title>
<polygon fill="white" stroke="#bfbfbf" points="77,-106.5 77,-125.5 127,-125.5 127,-106.5 77,-106.5"/>
<text text-anchor="middle" x="102" y="-113.5" font-family="Helvetica,sans-Serif" font-size="10.00">GetKey</text>
</g>
<!-- Node3&#45;&gt;Node1 -->
<g id="edge2" class="edge"><title>Node3&#45;&gt;Node1</title>
<path fill="none" stroke="#9a32cd" stroke-dasharray="5,2" d="M103.246,-96.3368C104.949,-84.5968 108.902,-69.8572 118,-60 126.818,-50.4467 138.29,-43.2766 150.306,-37.9008"/>
<polygon fill="#9a32cd" stroke="#9a32cd" points="99.7509,-96.1102 102.207,-106.416 106.714,-96.8278 99.7509,-96.1102"/>
<text text-anchor="middle" x="144" y="-68.5" font-family="Helvetica,sans-Serif" font-size="10.00"> m_get_key</text>
</g>
<!-- Node4 -->
<g id="node4" class="node"><title>Node4</title>
<polygon fill="white" stroke="#bfbfbf" points="154,-106.5 154,-125.5 200,-125.5 200,-106.5 154,-106.5"/>
<text text-anchor="middle" x="177" y="-113.5" font-family="Helvetica,sans-Serif" font-size="10.00">uint8_t</text>
</g>
<!-- Node4&#45;&gt;Node1 -->
<g id="edge3" class="edge"><title>Node4&#45;&gt;Node1</title>
<path fill="none" stroke="#9a32cd" stroke-dasharray="5,2" d="M173.833,-96.1835C172.822,-85.1838 173.032,-71.2882 178,-60 181.01,-53.1617 185.899,-46.9628 191.242,-41.6485"/>
<polygon fill="#9a32cd" stroke="#9a32cd" points="170.399,-96.9134 175.182,-106.367 177.339,-95.9946 170.399,-96.9134"/>
<text text-anchor="middle" x="207.5" y="-68.5" font-family="Helvetica,sans-Serif" font-size="10.00"> m_max_load</text>
</g>
<!-- Node5 -->
<g id="node5" class="node"><title>Node5</title>
<polygon fill="white" stroke="#bfbfbf" points="235,-106.5 235,-125.5 283,-125.5 283,-106.5 235,-106.5"/>
<text text-anchor="middle" x="259" y="-113.5" font-family="Helvetica,sans-Serif" font-size="10.00">Hasher</text>
</g>
<!-- Node5&#45;&gt;Node1 -->
<g id="edge4" class="edge"><title>Node5&#45;&gt;Node1</title>
<path fill="none" stroke="#9a32cd" stroke-dasharray="5,2" d="M252.142,-96.7577C247.979,-85.9734 242.435,-72.1023 237,-60 234.281,-53.9443 231.125,-47.4498 228.176,-41.5736"/>
<polygon fill="#9a32cd" stroke="#9a32cd" points="248.959,-98.2341 255.789,-106.333 255.5,-95.7423 248.959,-98.2341"/>
<text text-anchor="middle" x="285" y="-68.5" font-family="Helvetica,sans-Serif" font-size="10.00"> m_hash_function</text>
</g>
<!-- Node6 -->
<g id="node6" class="node"><title>Node6</title>
<g id="a_node6"><a xlink:href="../../dd/d94/structwlp_1_1_hash_table_node.html" target="_top" xlink:title="wlp::HashTableNode\l\&lt; Element \&gt;">
<polygon fill="white" stroke="black" points="303,-101 303,-131 411,-131 411,-101 303,-101"/>
<text text-anchor="start" x="311" y="-119" font-family="Helvetica,sans-Serif" font-size="10.00">wlp::HashTableNode</text>
<text text-anchor="middle" x="357" y="-108" font-family="Helvetica,sans-Serif" font-size="10.00">&lt; Element &gt;</text>
</a>
</g>
</g>
<!-- Node6&#45;&gt;Node1 -->
<g id="edge5" class="edge"><title>Node6&#45;&gt;Node1</title>
<path fill="none" stroke="#9a32cd" stroke-dasharray="5,2" d="M349.221,-91.4885C344.573,-80.608 337.66,-68.2875 328,-60 315.886,-49.6066 300.773,-42.0092 285.666,-36.4718"/>
<polygon fill="#9a32cd" stroke="#9a32cd" points="345.996,-92.8534 352.866,-100.919 352.525,-90.3296 345.996,-92.8534"/>
<text text-anchor="middle" x="371" y="-68.5" font-family="Helvetica,sans-Serif" font-size="10.00"> m_buckets</text>
</g>
<!-- Node6&#45;&gt;Node6 -->
<g id="edge7" class="edge"><title>Node6&#45;&gt;Node6</title>
<path fill="none" stroke="#9a32cd" stroke-dasharray="5,2" d="M420.964,-121.666C425.934,-120.416 429,-118.527 429,-116 429,-112.055 421.529,-109.666 411.007,-108.834"/>
<polygon fill="#9a32cd" stroke="#9a32cd" points="420.374,-118.215 411.007,-123.166 421.417,-125.137 420.374,-118.215"/>
<text text-anchor="middle" x="447" y="-113.5" font-family="Helvetica,sans-Serif" font-size="10.00"> m_next</text>
</g>
<!-- Node7 -->
<g id="node7" class="node"><title>Node7</title>
<polygon fill="white" stroke="#bfbfbf" points="330.5,-180.5 330.5,-199.5 383.5,-199.5 383.5,-180.5 330.5,-180.5"/>
<text text-anchor="middle" x="357" y="-187.5" font-family="Helvetica,sans-Serif" font-size="10.00">Element</text>
</g>
<!-- Node7&#45;&gt;Node6 -->
<g id="edge6" class="edge"><title>Node7&#45;&gt;Node6</title>
<path fill="none" stroke="#9a32cd" stroke-dasharray="5,2" d="M357,-170.085C357,-157.915 357,-142.354 357,-131.232"/>
<polygon fill="#9a32cd" stroke="#9a32cd" points="353.5,-170.458 357,-180.458 360.5,-170.458 353.5,-170.458"/>
<text text-anchor="middle" x="383" y="-153.5" font-family="Helvetica,sans-Serif" font-size="10.00"> m_element</text>
</g>
<!-- Node8 -->
<g id="node8" class="node"><title>Node8</title>
<polygon fill="white" stroke="#bfbfbf" points="483.5,-106.5 483.5,-125.5 530.5,-125.5 530.5,-106.5 483.5,-106.5"/>
<text text-anchor="middle" x="507" y="-113.5" font-family="Helvetica,sans-Serif" font-size="10.00">Equals</text>
</g>
<!-- Node8&#45;&gt;Node1 -->
<g id="edge8" class="edge"><title>Node8&#45;&gt;Node1</title>
<path fill="none" stroke="#9a32cd" stroke-dasharray="5,2" d="M484.751,-101.155C463.845,-88.7113 431.322,-70.7835 401,-60 363.854,-46.7897 320.746,-37.5592 285.703,-31.5065"/>
<polygon fill="#9a32cd" stroke="#9a32cd" points="483.122,-104.26 493.49,-106.441 486.745,-98.2702 483.122,-104.26"/>
<text text-anchor="middle" x="482.5" y="-68.5" font-family="Helvetica,sans-Serif" font-size="10.00"> m_key_equals</text>
</g>
</g>
</svg>
