<?xml version="1.0" encoding="UTF-8" standalone="no"?>
<!DOCTYPE svg PUBLIC "-//W3C//DTD SVG 1.1//EN"
 "http://www.w3.org/Graphics/SVG/1.1/DTD/svg11.dtd">
<!-- Generated by graphviz version 2.38.0 (20140413.2041)
 -->
<!-- Title: wlp::UniquePtr&lt; T[]&gt;::swap Pages: 1 -->
<svg width="575pt" height="104pt"
 viewBox="0.00 0.00 575.00 104.00" xmlns="http://www.w3.org/2000/svg" xmlns:xlink="http://www.w3.org/1999/xlink">
<g id="graph0" class="graph" transform="scale(1 1) rotate(0) translate(4 100)">
<title>wlp::UniquePtr&lt; T[]&gt;::swap</title>
<polygon fill="white" stroke="none" points="-4,4 -4,-100 571,-100 571,4 -4,4"/>
<!-- Node37 -->
<g id="node1" class="node"><title>Node37</title>
<polygon fill="#bfbfbf" stroke="black" points="0,-33 0,-63 100,-63 100,-33 0,-33"/>
<text text-anchor="start" x="8" y="-51" font-family="Helvetica,sans-Serif" font-size="10.00">wlp::UniquePtr&lt; T[]</text>
<text text-anchor="middle" x="50" y="-40" font-family="Helvetica,sans-Serif" font-size="10.00">&gt;::swap</text>
</g>
<!-- Node38 -->
<g id="node2" class="node"><title>Node38</title>
<g id="a_node2"><a xlink:href="../../df/d24/classwlp_1_1_unique_ptr.html#a3bc3cd6a7d5253b54a72d7f11f65950c" target="_top" xlink:title="wlp::UniquePtr::operator=">
<polygon fill="white" stroke="black" points="136.5,-76.5 136.5,-95.5 263.5,-95.5 263.5,-76.5 136.5,-76.5"/>
<text text-anchor="middle" x="200" y="-83.5" font-family="Helvetica,sans-Serif" font-size="10.00">wlp::UniquePtr::operator=</text>
</a>
</g>
</g>
<!-- Node37&#45;&gt;Node38 -->
<g id="edge1" class="edge"><title>Node37&#45;&gt;Node38</title>
<path fill="none" stroke="midnightblue" d="M100.282,-60.6534C116.855,-64.9088 135.297,-69.6439 151.714,-73.8589"/>
<polygon fill="midnightblue" stroke="midnightblue" points="151.082,-77.3102 161.638,-76.4072 152.823,-70.5301 151.082,-77.3102"/>
</g>
<!-- Node40 -->
<g id="node4" class="node"><title>Node40</title>
<g id="a_node4"><a xlink:href="../../d5/dca/namespacewlp.html#a14fbfebbc21b2593185c686b26a9d8fb" target="_top" xlink:title="wlp::swap">
<polygon fill="white" stroke="black" points="170.5,-38.5 170.5,-57.5 229.5,-57.5 229.5,-38.5 170.5,-38.5"/>
<text text-anchor="middle" x="200" y="-45.5" font-family="Helvetica,sans-Serif" font-size="10.00">wlp::swap</text>
</a>
</g>
</g>
<!-- Node37&#45;&gt;Node40 -->
<g id="edge3" class="edge"><title>Node37&#45;&gt;Node40</title>
<path fill="none" stroke="midnightblue" d="M100.282,-48C119.773,-48 141.85,-48 160.175,-48"/>
<polygon fill="midnightblue" stroke="midnightblue" points="160.206,-51.5001 170.206,-48 160.206,-44.5001 160.206,-51.5001"/>
</g>
<!-- Node43 -->
<g id="node7" class="node"><title>Node43</title>
<g id="a_node7"><a xlink:href="../../df/d24/classwlp_1_1_unique_ptr.html#ac39e7cdc995e53ef2d8eca44f5bf7ee0" target="_top" xlink:title="wlp::UniquePtr::UniquePtr">
<polygon fill="white" stroke="black" points="136,-0.5 136,-19.5 264,-19.5 264,-0.5 136,-0.5"/>
<text text-anchor="middle" x="200" y="-7.5" font-family="Helvetica,sans-Serif" font-size="10.00">wlp::UniquePtr::UniquePtr</text>
</a>
</g>
</g>
<!-- Node37&#45;&gt;Node43 -->
<g id="edge7" class="edge"><title>Node37&#45;&gt;Node43</title>
<path fill="none" stroke="midnightblue" d="M100.282,-35.3466C116.855,-31.0912 135.297,-26.3561 151.714,-22.1411"/>
<polygon fill="midnightblue" stroke="midnightblue" points="152.823,-25.4699 161.638,-19.5928 151.082,-18.6898 152.823,-25.4699"/>
</g>
<!-- Node39 -->
<g id="node3" class="node"><title>Node39</title>
<g id="a_node3"><a xlink:href="../../df/d24/classwlp_1_1_unique_ptr.html#ae00b309e112269490c58c5db1d32966f" target="_top" xlink:title="wlp::UniquePtr::reset">
<polygon fill="white" stroke="black" points="301,-76.5 301,-95.5 408,-95.5 408,-76.5 301,-76.5"/>
<text text-anchor="middle" x="354.5" y="-83.5" font-family="Helvetica,sans-Serif" font-size="10.00">wlp::UniquePtr::reset</text>
</a>
</g>
</g>
<!-- Node38&#45;&gt;Node39 -->
<g id="edge2" class="edge"><title>Node38&#45;&gt;Node39</title>
<path fill="none" stroke="midnightblue" d="M263.908,-86C272.754,-86 281.847,-86 290.69,-86"/>
<polygon fill="midnightblue" stroke="midnightblue" points="290.928,-89.5001 300.928,-86 290.928,-82.5001 290.928,-89.5001"/>
</g>
<!-- Node41 -->
<g id="node5" class="node"><title>Node41</title>
<g id="a_node5"><a xlink:href="../../d1/d52/classwlp_1_1_shared_ptr.html#aeb4cc93940627a04b0414bad11b4c020" target="_top" xlink:title="wlp::SharedPtr::swap">
<polygon fill="white" stroke="black" points="300,-38.5 300,-57.5 409,-57.5 409,-38.5 300,-38.5"/>
<text text-anchor="middle" x="354.5" y="-45.5" font-family="Helvetica,sans-Serif" font-size="10.00">wlp::SharedPtr::swap</text>
</a>
</g>
</g>
<!-- Node40&#45;&gt;Node41 -->
<g id="edge4" class="edge"><title>Node40&#45;&gt;Node41</title>
<path fill="none" stroke="midnightblue" d="M229.684,-42.5885C246.664,-41.4753 268.883,-41.0565 289.805,-41.332"/>
<polygon fill="midnightblue" stroke="midnightblue" points="289.879,-44.8339 299.944,-41.523 290.011,-37.8352 289.879,-44.8339"/>
</g>
<!-- Node41&#45;&gt;Node40 -->
<g id="edge6" class="edge"><title>Node41&#45;&gt;Node40</title>
<path fill="none" stroke="midnightblue" d="M299.944,-54.477C280.083,-54.9683 257.961,-54.7965 239.681,-53.9615"/>
<polygon fill="midnightblue" stroke="midnightblue" points="239.861,-50.4662 229.684,-53.4115 239.477,-57.4557 239.861,-50.4662"/>
</g>
<!-- Node42 -->
<g id="node6" class="node"><title>Node42</title>
<g id="a_node6"><a xlink:href="../../da/dbb/classwlp_1_1_shared_count.html#ad9de7cb486018b547abbf4416fb31029" target="_top" xlink:title="wlp::SharedCount::swap">
<polygon fill="white" stroke="black" points="445,-38.5 445,-57.5 567,-57.5 567,-38.5 445,-38.5"/>
<text text-anchor="middle" x="506" y="-45.5" font-family="Helvetica,sans-Serif" font-size="10.00">wlp::SharedCount::swap</text>
</a>
</g>
</g>
<!-- Node41&#45;&gt;Node42 -->
<g id="edge5" class="edge"><title>Node41&#45;&gt;Node42</title>
<path fill="none" stroke="midnightblue" d="M409.051,-48C417.421,-48 426.178,-48 434.853,-48"/>
<polygon fill="midnightblue" stroke="midnightblue" points="434.969,-51.5001 444.969,-48 434.969,-44.5001 434.969,-51.5001"/>
</g>
</g>
</svg>
