<?xml version="1.0" encoding="UTF-8" standalone="no"?>
<!DOCTYPE svg PUBLIC "-//W3C//DTD SVG 1.1//EN"
 "http://www.w3.org/Graphics/SVG/1.1/DTD/svg11.dtd">
<!-- Generated by graphviz version 2.38.0 (20140413.2041)
 -->
<!-- Title: wlp::is_null_pointer&lt; T &gt; Pages: 1 -->
<svg width="130pt" height="174pt"
 viewBox="0.00 0.00 130.00 174.00" xmlns="http://www.w3.org/2000/svg" xmlns:xlink="http://www.w3.org/1999/xlink">
<g id="graph0" class="graph" transform="scale(1 1) rotate(0) translate(4 170)">
<title>wlp::is_null_pointer&lt; T &gt;</title>
<polygon fill="white" stroke="none" points="-4,4 -4,-170 126,-170 126,4 -4,4"/>
<!-- Node3 -->
<g id="node1" class="node"><title>Node3</title>
<polygon fill="#bfbfbf" stroke="black" points="0,-0.5 0,-19.5 122,-19.5 122,-0.5 0,-0.5"/>
<text text-anchor="middle" x="61" y="-7.5" font-family="Helvetica,sans-Serif" font-size="10.00">wlp::is_null_pointer&lt; T &gt;</text>
</g>
<!-- Node4 -->
<g id="node2" class="node"><title>Node4</title>
<g id="a_node2"><a xlink:href="../../d3/d8d/structwlp_1_1integral__constant.html" target="_top" xlink:title="__is_null_pointer_helper\l\&lt; remove_cv\&lt; T \&gt;::type\l \&gt;::type">
<polygon fill="white" stroke="black" points="0.5,-57.5 0.5,-98.5 121.5,-98.5 121.5,-57.5 0.5,-57.5"/>
<text text-anchor="start" x="8.5" y="-86.5" font-family="Helvetica,sans-Serif" font-size="10.00">__is_null_pointer_helper</text>
<text text-anchor="start" x="8.5" y="-75.5" font-family="Helvetica,sans-Serif" font-size="10.00">&lt; remove_cv&lt; T &gt;::type</text>
<text text-anchor="middle" x="61" y="-64.5" font-family="Helvetica,sans-Serif" font-size="10.00"> &gt;::type</text>
</a>
</g>
</g>
<!-- Node4&#45;&gt;Node3 -->
<g id="edge1" class="edge"><title>Node4&#45;&gt;Node3</title>
<path fill="none" stroke="midnightblue" d="M61,-47.1201C61,-37.1695 61,-26.8372 61,-19.7856"/>
<polygon fill="midnightblue" stroke="midnightblue" points="57.5001,-47.1978 61,-57.1978 64.5001,-47.1979 57.5001,-47.1978"/>
</g>
<!-- Node5 -->
<g id="node3" class="node"><title>Node5</title>
<polygon fill="white" stroke="#bfbfbf" points="46.5,-146.5 46.5,-165.5 75.5,-165.5 75.5,-146.5 46.5,-146.5"/>
<text text-anchor="middle" x="61" y="-153.5" font-family="Helvetica,sans-Serif" font-size="10.00">T</text>
</g>
<!-- Node5&#45;&gt;Node4 -->
<g id="edge2" class="edge"><title>Node5&#45;&gt;Node4</title>
<path fill="none" stroke="#9a32cd" stroke-dasharray="5,2" d="M61,-136.137C61,-124.729 61,-110.207 61,-98.6584"/>
<polygon fill="#9a32cd" stroke="#9a32cd" points="57.5001,-136.282 61,-146.282 64.5001,-136.282 57.5001,-136.282"/>
<text text-anchor="middle" x="73.5" y="-120" font-family="Helvetica,sans-Serif" font-size="10.00"> value</text>
</g>
</g>
</svg>
