<?xml version="1.0" encoding="UTF-8" standalone="no"?>
<!DOCTYPE svg PUBLIC "-//W3C//DTD SVG 1.1//EN"
 "http://www.w3.org/Graphics/SVG/1.1/DTD/svg11.dtd">
<!-- Generated by graphviz version 2.36.0 (20140111.2315)
 -->
<!-- Title: wlib/stl/Comparator.h Pages: 1 -->
<svg width="514pt" height="252pt"
 viewBox="0.00 0.00 514.00 252.00" xmlns="http://www.w3.org/2000/svg" xmlns:xlink="http://www.w3.org/1999/xlink">
<g id="graph0" class="graph" transform="scale(1 1) rotate(0) translate(4 248)">
<title>wlib/stl/Comparator.h</title>
<polygon fill="white" stroke="none" points="-4,4 -4,-248 510,-248 510,4 -4,4"/>
<!-- Node1 -->
<g id="node1" class="node"><title>Node1</title>
<polygon fill="#bfbfbf" stroke="black" points="39,-224.5 39,-243.5 149,-243.5 149,-224.5 39,-224.5"/>
<text text-anchor="middle" x="94" y="-231.5" font-family="Helvetica,sans-Serif" font-size="10.00">wlib/stl/Comparator.h</text>
</g>
<!-- Node2 -->
<g id="node2" class="node"><title>Node2</title>
<polygon fill="white" stroke="#bfbfbf" points="-0.5,-56.5 -0.5,-75.5 48.5,-75.5 48.5,-56.5 -0.5,-56.5"/>
<text text-anchor="middle" x="24" y="-63.5" font-family="Helvetica,sans-Serif" font-size="10.00">string.h</text>
</g>
<!-- Node1&#45;&gt;Node2 -->
<g id="edge1" class="edge"><title>Node1&#45;&gt;Node2</title>
<path fill="none" stroke="midnightblue" d="M79.3914,-224.231C67.5646,-216.309 51.5194,-203.529 43,-188 25.0759,-155.329 22.7882,-110.686 23.1284,-85.7716"/>
<polygon fill="midnightblue" stroke="midnightblue" points="26.6337,-85.6458 23.4361,-75.5451 19.6368,-85.4352 26.6337,-85.6458"/>
</g>
<!-- Node3 -->
<g id="node3" class="node"><title>Node3</title>
<g id="a_node3"><a xlink:href="../../d2/dc2/_equal_8h.html" target="_top" xlink:title="wlib/stl/Equal.h">
<polygon fill="white" stroke="black" points="52.5,-168.5 52.5,-187.5 135.5,-187.5 135.5,-168.5 52.5,-168.5"/>
<text text-anchor="middle" x="94" y="-175.5" font-family="Helvetica,sans-Serif" font-size="10.00">wlib/stl/Equal.h</text>
</a>
</g>
</g>
<!-- Node1&#45;&gt;Node3 -->
<g id="edge2" class="edge"><title>Node1&#45;&gt;Node3</title>
<path fill="none" stroke="midnightblue" d="M94,-224.083C94,-217.006 94,-206.861 94,-197.986"/>
<polygon fill="midnightblue" stroke="midnightblue" points="97.5001,-197.751 94,-187.751 90.5001,-197.751 97.5001,-197.751"/>
</g>
<!-- Node4 -->
<g id="node4" class="node"><title>Node4</title>
<g id="a_node4"><a xlink:href="../../db/db5/_string_8h.html" target="_top" xlink:title="wlib/strings/String.h">
<polygon fill="white" stroke="black" points="112.5,-112.5 112.5,-131.5 215.5,-131.5 215.5,-112.5 112.5,-112.5"/>
<text text-anchor="middle" x="164" y="-119.5" font-family="Helvetica,sans-Serif" font-size="10.00">wlib/strings/String.h</text>
</a>
</g>
</g>
<!-- Node1&#45;&gt;Node4 -->
<g id="edge12" class="edge"><title>Node1&#45;&gt;Node4</title>
<path fill="none" stroke="midnightblue" d="M106.878,-224.481C118.194,-216.364 134.321,-203.159 144,-188 153.034,-173.85 158.203,-155.367 161.013,-141.729"/>
<polygon fill="midnightblue" stroke="midnightblue" points="164.506,-142.078 162.851,-131.614 157.619,-140.826 164.506,-142.078"/>
</g>
<!-- Node3&#45;&gt;Node2 -->
<g id="edge3" class="edge"><title>Node3&#45;&gt;Node2</title>
<path fill="none" stroke="midnightblue" d="M88.5072,-168.368C77.0063,-150.296 50.2032,-108.176 35.0138,-84.3074"/>
<polygon fill="midnightblue" stroke="midnightblue" points="37.7889,-82.149 29.4673,-75.5914 31.8832,-85.9071 37.7889,-82.149"/>
</g>
<!-- Node3&#45;&gt;Node4 -->
<g id="edge4" class="edge"><title>Node3&#45;&gt;Node4</title>
<path fill="none" stroke="midnightblue" d="M105.247,-168.324C115.797,-160.185 131.801,-147.839 144.442,-138.087"/>
<polygon fill="midnightblue" stroke="midnightblue" points="146.769,-140.713 152.549,-131.834 142.493,-135.171 146.769,-140.713"/>
</g>
<!-- Node4&#45;&gt;Node2 -->
<g id="edge11" class="edge"><title>Node4&#45;&gt;Node2</title>
<path fill="none" stroke="midnightblue" d="M141.817,-112.444C118.572,-103.478 81.8512,-89.314 55.5848,-79.1827"/>
<polygon fill="midnightblue" stroke="midnightblue" points="56.6692,-75.8497 46.0796,-75.5164 54.1501,-82.3807 56.6692,-75.8497"/>
</g>
<!-- Node5 -->
<g id="node5" class="node"><title>Node5</title>
<g id="a_node5"><a xlink:href="../../de/d0b/_string_iterator_8h.html" target="_top" xlink:title="wlib/strings/StringIterator.h">
<polygon fill="white" stroke="black" points="67,-56.5 67,-75.5 201,-75.5 201,-56.5 67,-56.5"/>
<text text-anchor="middle" x="134" y="-63.5" font-family="Helvetica,sans-Serif" font-size="10.00">wlib/strings/StringIterator.h</text>
</a>
</g>
</g>
<!-- Node4&#45;&gt;Node5 -->
<g id="edge5" class="edge"><title>Node4&#45;&gt;Node5</title>
<path fill="none" stroke="midnightblue" d="M159.046,-112.083C154.896,-104.613 148.847,-93.7244 143.733,-84.5199"/>
<polygon fill="midnightblue" stroke="midnightblue" points="146.778,-82.7929 138.862,-75.7511 140.659,-86.1924 146.778,-82.7929"/>
</g>
<!-- Node7 -->
<g id="node7" class="node"><title>Node7</title>
<polygon fill="white" stroke="#bfbfbf" points="219.5,-56.5 219.5,-75.5 334.5,-75.5 334.5,-56.5 219.5,-56.5"/>
<text text-anchor="middle" x="277" y="-63.5" font-family="Helvetica,sans-Serif" font-size="10.00">wlib/tmp/NullptrType.h</text>
</g>
<!-- Node4&#45;&gt;Node7 -->
<g id="edge7" class="edge"><title>Node4&#45;&gt;Node7</title>
<path fill="none" stroke="midnightblue" d="M181.905,-112.444C200.254,-103.675 229.005,-89.9355 250.094,-79.8579"/>
<polygon fill="midnightblue" stroke="midnightblue" points="251.665,-82.9862 259.179,-75.5164 248.647,-76.6703 251.665,-82.9862"/>
</g>
<!-- Node8 -->
<g id="node8" class="node"><title>Node8</title>
<g id="a_node8"><a xlink:href="../../de/d35/_helper_8h.html" target="_top" xlink:title="wlib/stl/Helper.h">
<polygon fill="white" stroke="black" points="352.5,-56.5 352.5,-75.5 439.5,-75.5 439.5,-56.5 352.5,-56.5"/>
<text text-anchor="middle" x="396" y="-63.5" font-family="Helvetica,sans-Serif" font-size="10.00">wlib/stl/Helper.h</text>
</a>
</g>
</g>
<!-- Node4&#45;&gt;Node8 -->
<g id="edge8" class="edge"><title>Node4&#45;&gt;Node8</title>
<path fill="none" stroke="midnightblue" d="M200.761,-112.444C241.063,-103.063 305.809,-87.9926 349.585,-77.8036"/>
<polygon fill="midnightblue" stroke="midnightblue" points="350.465,-81.1924 359.411,-75.5164 348.878,-74.3746 350.465,-81.1924"/>
</g>
<!-- Node10 -->
<g id="node10" class="node"><title>Node10</title>
<polygon fill="white" stroke="#bfbfbf" points="457.5,-56.5 457.5,-75.5 506.5,-75.5 506.5,-56.5 457.5,-56.5"/>
<text text-anchor="middle" x="482" y="-63.5" font-family="Helvetica,sans-Serif" font-size="10.00">stdint.h</text>
</g>
<!-- Node4&#45;&gt;Node10 -->
<g id="edge10" class="edge"><title>Node4&#45;&gt;Node10</title>
<path fill="none" stroke="midnightblue" d="M215.593,-114.431C270.603,-107.068 360.43,-94.0202 447.174,-75.9868"/>
<polygon fill="midnightblue" stroke="midnightblue" points="448.122,-79.364 457.187,-73.8797 446.681,-72.514 448.122,-79.364"/>
</g>
<!-- Node6 -->
<g id="node6" class="node"><title>Node6</title>
<polygon fill="white" stroke="#bfbfbf" points="108,-0.5 108,-19.5 160,-19.5 160,-0.5 108,-0.5"/>
<text text-anchor="middle" x="134" y="-7.5" font-family="Helvetica,sans-Serif" font-size="10.00">stddef.h</text>
</g>
<!-- Node5&#45;&gt;Node6 -->
<g id="edge6" class="edge"><title>Node5&#45;&gt;Node6</title>
<path fill="none" stroke="midnightblue" d="M134,-56.083C134,-49.0059 134,-38.8611 134,-29.9865"/>
<polygon fill="midnightblue" stroke="midnightblue" points="137.5,-29.751 134,-19.7511 130.5,-29.7511 137.5,-29.751"/>
</g>
<!-- Node9 -->
<g id="node9" class="node"><title>Node9</title>
<polygon fill="white" stroke="#bfbfbf" points="366,-0.5 366,-19.5 426,-19.5 426,-0.5 366,-0.5"/>
<text text-anchor="middle" x="396" y="-7.5" font-family="Helvetica,sans-Serif" font-size="10.00">wlib/utility</text>
</g>
<!-- Node8&#45;&gt;Node9 -->
<g id="edge9" class="edge"><title>Node8&#45;&gt;Node9</title>
<path fill="none" stroke="midnightblue" d="M396,-56.083C396,-49.0059 396,-38.8611 396,-29.9865"/>
<polygon fill="midnightblue" stroke="midnightblue" points="399.5,-29.751 396,-19.7511 392.5,-29.7511 399.5,-29.751"/>
</g>
</g>
</svg>
