<?xml version="1.0" encoding="UTF-8" standalone="no"?>
<!DOCTYPE svg PUBLIC "-//W3C//DTD SVG 1.1//EN"
 "http://www.w3.org/Graphics/SVG/1.1/DTD/svg11.dtd">
<!-- Generated by graphviz version 2.36.0 (20140111.2315)
 -->
<!-- Title: stl/Comparator.h Pages: 1 -->
<svg width="587pt" height="532pt"
 viewBox="0.00 0.00 587.00 532.00" xmlns="http://www.w3.org/2000/svg" xmlns:xlink="http://www.w3.org/1999/xlink">
<g id="graph0" class="graph" transform="scale(1 1) rotate(0) translate(4 528)">
<title>stl/Comparator.h</title>
<polygon fill="white" stroke="none" points="-4,4 -4,-528 583,-528 583,4 -4,4"/>
<!-- Node1 -->
<g id="node1" class="node"><title>Node1</title>
<polygon fill="#bfbfbf" stroke="black" points="45.5,-504.5 45.5,-523.5 134.5,-523.5 134.5,-504.5 45.5,-504.5"/>
<text text-anchor="middle" x="90" y="-511.5" font-family="Helvetica,sans-Serif" font-size="10.00">stl/Comparator.h</text>
</g>
<!-- Node2 -->
<g id="node2" class="node"><title>Node2</title>
<polygon fill="white" stroke="#bfbfbf" points="77.5,-280.5 77.5,-299.5 126.5,-299.5 126.5,-280.5 77.5,-280.5"/>
<text text-anchor="middle" x="102" y="-287.5" font-family="Helvetica,sans-Serif" font-size="10.00">string.h</text>
</g>
<!-- Node1&#45;&gt;Node2 -->
<g id="edge1" class="edge"><title>Node1&#45;&gt;Node2</title>
<path fill="none" stroke="midnightblue" d="M92.4127,-504.459C94.8299,-495.47 98.4129,-480.867 100,-468 107.07,-410.684 104.838,-342.138 103.151,-309.734"/>
<polygon fill="midnightblue" stroke="midnightblue" points="106.632,-309.305 102.572,-299.519 99.6434,-309.701 106.632,-309.305"/>
</g>
<!-- Node3 -->
<g id="node3" class="node"><title>Node3</title>
<g id="a_node3"><a xlink:href="../../d0/db6/_types_8h.html" target="_top" xlink:title="type definition of all the string types we will be using ">
<polygon fill="white" stroke="black" points="187,-56.5 187,-75.5 239,-75.5 239,-56.5 187,-56.5"/>
<text text-anchor="middle" x="213" y="-63.5" font-family="Helvetica,sans-Serif" font-size="10.00">Types.h</text>
</a>
</g>
</g>
<!-- Node1&#45;&gt;Node3 -->
<g id="edge2" class="edge"><title>Node1&#45;&gt;Node3</title>
<path fill="none" stroke="midnightblue" d="M68.7073,-504.492C52.8122,-497.099 31.7242,-484.908 19,-468 0.901933,-443.951 0,-433.098 0,-403 0,-403 0,-403 0,-177 0,-98.4762 115.695,-75.9479 176.55,-69.5294"/>
<polygon fill="midnightblue" stroke="midnightblue" points="177.262,-72.9774 186.882,-68.5389 176.594,-66.0093 177.262,-72.9774"/>
</g>
<!-- Node5 -->
<g id="node5" class="node"><title>Node5</title>
<g id="a_node5"><a xlink:href="../../d2/dc2/_equal_8h.html" target="_top" xlink:title="stl/Equal.h">
<polygon fill="white" stroke="black" points="28.5,-448.5 28.5,-467.5 91.5,-467.5 91.5,-448.5 28.5,-448.5"/>
<text text-anchor="middle" x="60" y="-455.5" font-family="Helvetica,sans-Serif" font-size="10.00">stl/Equal.h</text>
</a>
</g>
</g>
<!-- Node1&#45;&gt;Node5 -->
<g id="edge4" class="edge"><title>Node1&#45;&gt;Node5</title>
<path fill="none" stroke="midnightblue" d="M85.0461,-504.083C80.8959,-496.613 74.8469,-485.724 69.7333,-476.52"/>
<polygon fill="midnightblue" stroke="midnightblue" points="72.7777,-474.793 64.8617,-467.751 66.6586,-478.192 72.7777,-474.793"/>
</g>
<!-- Node6 -->
<g id="node6" class="node"><title>Node6</title>
<g id="a_node6"><a xlink:href="../../db/db5/_string_8h.html" target="_top" xlink:title="../strings/String.h">
<polygon fill="white" stroke="black" points="181,-392.5 181,-411.5 273,-411.5 273,-392.5 181,-392.5"/>
<text text-anchor="middle" x="227" y="-399.5" font-family="Helvetica,sans-Serif" font-size="10.00">../strings/String.h</text>
</a>
</g>
</g>
<!-- Node1&#45;&gt;Node6 -->
<g id="edge28" class="edge"><title>Node1&#45;&gt;Node6</title>
<path fill="none" stroke="midnightblue" d="M100.75,-504.368C123.959,-485.733 179.01,-441.532 208.151,-418.134"/>
<polygon fill="midnightblue" stroke="midnightblue" points="210.693,-420.581 216.3,-411.591 206.311,-415.123 210.693,-420.581"/>
</g>
<!-- Node4 -->
<g id="node4" class="node"><title>Node4</title>
<polygon fill="white" stroke="#bfbfbf" points="188.5,-0.5 188.5,-19.5 237.5,-19.5 237.5,-0.5 188.5,-0.5"/>
<text text-anchor="middle" x="213" y="-7.5" font-family="Helvetica,sans-Serif" font-size="10.00">stdint.h</text>
</g>
<!-- Node3&#45;&gt;Node4 -->
<g id="edge3" class="edge"><title>Node3&#45;&gt;Node4</title>
<path fill="none" stroke="midnightblue" d="M213,-56.083C213,-49.0059 213,-38.8611 213,-29.9865"/>
<polygon fill="midnightblue" stroke="midnightblue" points="216.5,-29.751 213,-19.7511 209.5,-29.7511 216.5,-29.751"/>
</g>
<!-- Node5&#45;&gt;Node2 -->
<g id="edge5" class="edge"><title>Node5&#45;&gt;Node2</title>
<path fill="none" stroke="midnightblue" d="M62.2581,-448.075C68.8693,-421.945 88.2841,-345.211 97.2998,-309.577"/>
<polygon fill="midnightblue" stroke="midnightblue" points="100.772,-310.121 99.8322,-299.568 93.9862,-308.404 100.772,-310.121"/>
</g>
<!-- Node5&#45;&gt;Node3 -->
<g id="edge6" class="edge"><title>Node5&#45;&gt;Node3</title>
<path fill="none" stroke="midnightblue" d="M57.8422,-448.223C53.4749,-429.663 44,-385.017 44,-347 44,-347 44,-347 44,-177 44,-114.085 127.288,-85.2936 176.925,-73.7215"/>
<polygon fill="midnightblue" stroke="midnightblue" points="177.953,-77.0791 186.964,-71.5074 176.445,-70.2433 177.953,-77.0791"/>
</g>
<!-- Node5&#45;&gt;Node6 -->
<g id="edge7" class="edge"><title>Node5&#45;&gt;Node6</title>
<path fill="none" stroke="midnightblue" d="M86.4616,-448.444C114.678,-439.32 159.54,-424.813 190.968,-414.651"/>
<polygon fill="midnightblue" stroke="midnightblue" points="192.224,-417.923 200.662,-411.516 190.07,-411.263 192.224,-417.923"/>
</g>
<!-- Node6&#45;&gt;Node2 -->
<g id="edge8" class="edge"><title>Node6&#45;&gt;Node2</title>
<path fill="none" stroke="midnightblue" d="M217.191,-392.368C196.107,-373.814 146.219,-329.913 119.543,-306.438"/>
<polygon fill="midnightblue" stroke="midnightblue" points="121.582,-303.57 111.763,-299.591 116.958,-308.825 121.582,-303.57"/>
</g>
<!-- Node6&#45;&gt;Node3 -->
<g id="edge20" class="edge"><title>Node6&#45;&gt;Node3</title>
<path fill="none" stroke="midnightblue" d="M273.26,-400.729C329.528,-398.786 426.247,-390.171 501,-356 542.041,-337.239 579,-336.126 579,-291 579,-291 579,-291 579,-177 579,-108.561 341.318,-78.9914 249.029,-70.0896"/>
<polygon fill="midnightblue" stroke="midnightblue" points="249.312,-66.6009 239.028,-69.1514 248.658,-73.5703 249.312,-66.6009"/>
</g>
<!-- Node7 -->
<g id="node7" class="node"><title>Node7</title>
<g id="a_node7"><a xlink:href="../../de/d0b/_string_iterator_8h.html" target="_top" xlink:title="StringIterator.h">
<polygon fill="white" stroke="black" points="286.5,-336.5 286.5,-355.5 367.5,-355.5 367.5,-336.5 286.5,-336.5"/>
<text text-anchor="middle" x="327" y="-343.5" font-family="Helvetica,sans-Serif" font-size="10.00">StringIterator.h</text>
</a>
</g>
</g>
<!-- Node6&#45;&gt;Node7 -->
<g id="edge9" class="edge"><title>Node6&#45;&gt;Node7</title>
<path fill="none" stroke="midnightblue" d="M243.067,-392.324C258.958,-383.743 283.507,-370.486 301.958,-360.522"/>
<polygon fill="midnightblue" stroke="midnightblue" points="303.837,-363.486 310.973,-355.655 300.511,-357.326 303.837,-363.486"/>
</g>
<!-- Node14 -->
<g id="node14" class="node"><title>Node14</title>
<g id="a_node14"><a xlink:href="../../da/db8/_math_8h.html" target="_top" xlink:title="../utility/Math.h">
<polygon fill="white" stroke="black" points="186,-336.5 186,-355.5 268,-355.5 268,-336.5 186,-336.5"/>
<text text-anchor="middle" x="227" y="-343.5" font-family="Helvetica,sans-Serif" font-size="10.00">../utility/Math.h</text>
</a>
</g>
</g>
<!-- Node6&#45;&gt;Node14 -->
<g id="edge21" class="edge"><title>Node6&#45;&gt;Node14</title>
<path fill="none" stroke="midnightblue" d="M227,-392.083C227,-385.006 227,-374.861 227,-365.986"/>
<polygon fill="midnightblue" stroke="midnightblue" points="230.5,-365.751 227,-355.751 223.5,-365.751 230.5,-365.751"/>
</g>
<!-- Node15 -->
<g id="node15" class="node"><title>Node15</title>
<g id="a_node15"><a xlink:href="../../d3/de6/_memory_8h.html" target="_top" xlink:title="Memory is a class that provides dynamic fixed size memory. ">
<polygon fill="white" stroke="black" points="385.5,-336.5 385.5,-355.5 492.5,-355.5 492.5,-336.5 385.5,-336.5"/>
<text text-anchor="middle" x="439" y="-343.5" font-family="Helvetica,sans-Serif" font-size="10.00">../memory/Memory.h</text>
</a>
</g>
</g>
<!-- Node6&#45;&gt;Node15 -->
<g id="edge22" class="edge"><title>Node6&#45;&gt;Node15</title>
<path fill="none" stroke="midnightblue" d="M260.592,-392.444C297.187,-383.122 355.838,-368.183 395.826,-357.997"/>
<polygon fill="midnightblue" stroke="midnightblue" points="396.739,-361.377 405.565,-355.516 395.011,-354.593 396.739,-361.377"/>
</g>
<!-- Node7&#45;&gt;Node3 -->
<g id="edge10" class="edge"><title>Node7&#45;&gt;Node3</title>
<path fill="none" stroke="midnightblue" d="M286.238,-337.561C235.376,-325.656 155,-297.03 155,-235 155,-235 155,-235 155,-177 155,-140.163 180.765,-103.565 197.95,-83.2515"/>
<polygon fill="midnightblue" stroke="midnightblue" points="200.713,-85.4097 204.69,-75.5894 195.457,-80.7864 200.713,-85.4097"/>
</g>
<!-- Node8 -->
<g id="node8" class="node"><title>Node8</title>
<g id="a_node8"><a xlink:href="../../d8/dd7/_concept_8h.html" target="_top" xlink:title="Concept definitions. ">
<polygon fill="white" stroke="black" points="261,-280.5 261,-299.5 345,-299.5 345,-280.5 261,-280.5"/>
<text text-anchor="middle" x="303" y="-287.5" font-family="Helvetica,sans-Serif" font-size="10.00">../stl/Concept.h</text>
</a>
</g>
</g>
<!-- Node7&#45;&gt;Node8 -->
<g id="edge11" class="edge"><title>Node7&#45;&gt;Node8</title>
<path fill="none" stroke="midnightblue" d="M323.037,-336.083C319.787,-328.77 315.081,-318.181 311.046,-309.103"/>
<polygon fill="midnightblue" stroke="midnightblue" points="314.149,-307.468 306.889,-299.751 307.752,-310.311 314.149,-307.468"/>
</g>
<!-- Node9 -->
<g id="node9" class="node"><title>Node9</title>
<g id="a_node9"><a xlink:href="../../d4/dda/_pair_8h.html" target="_top" xlink:title="Implementation of a 2&#45;element tuple. ">
<polygon fill="white" stroke="black" points="331,-224.5 331,-243.5 373,-243.5 373,-224.5 331,-224.5"/>
<text text-anchor="middle" x="352" y="-231.5" font-family="Helvetica,sans-Serif" font-size="10.00">Pair.h</text>
</a>
</g>
</g>
<!-- Node8&#45;&gt;Node9 -->
<g id="edge12" class="edge"><title>Node8&#45;&gt;Node9</title>
<path fill="none" stroke="midnightblue" d="M311.091,-280.083C318.155,-272.298 328.588,-260.801 337.149,-251.367"/>
<polygon fill="midnightblue" stroke="midnightblue" points="339.931,-253.509 344.059,-243.751 334.747,-248.805 339.931,-253.509"/>
</g>
<!-- Node11 -->
<g id="node11" class="node"><title>Node11</title>
<g id="a_node11"><a xlink:href="../../d2/d37/_tmp_8h.html" target="_top" xlink:title="Template helper types, structs, and metafunctions. ">
<polygon fill="white" stroke="black" points="249,-112.5 249,-131.5 293,-131.5 293,-112.5 249,-112.5"/>
<text text-anchor="middle" x="271" y="-119.5" font-family="Helvetica,sans-Serif" font-size="10.00">Tmp.h</text>
</a>
</g>
</g>
<!-- Node8&#45;&gt;Node11 -->
<g id="edge19" class="edge"><title>Node8&#45;&gt;Node11</title>
<path fill="none" stroke="midnightblue" d="M295.118,-280.23C276.948,-259.786 233.125,-209.099 226,-188 223.156,-179.578 222.598,-176.212 226,-168 230.92,-156.121 240.667,-145.743 249.834,-137.956"/>
<polygon fill="midnightblue" stroke="midnightblue" points="252.253,-140.506 257.936,-131.564 247.917,-135.01 252.253,-140.506"/>
</g>
<!-- Node12 -->
<g id="node12" class="node"><title>Node12</title>
<g id="a_node12"><a xlink:href="../../d4/dd5/_type_traits_8h.html" target="_top" xlink:title="Metafunctions for types. ">
<polygon fill="white" stroke="black" points="235.5,-168.5 235.5,-187.5 306.5,-187.5 306.5,-168.5 235.5,-168.5"/>
<text text-anchor="middle" x="271" y="-175.5" font-family="Helvetica,sans-Serif" font-size="10.00">TypeTraits.h</text>
</a>
</g>
</g>
<!-- Node8&#45;&gt;Node12 -->
<g id="edge16" class="edge"><title>Node8&#45;&gt;Node12</title>
<path fill="none" stroke="midnightblue" d="M300.489,-280.368C295.302,-262.537 283.304,-221.295 276.315,-197.272"/>
<polygon fill="midnightblue" stroke="midnightblue" points="279.653,-196.216 273.499,-187.591 272.932,-198.171 279.653,-196.216"/>
</g>
<!-- Node13 -->
<g id="node13" class="node"><title>Node13</title>
<g id="a_node13"><a xlink:href="../../d2/db4/_wlib_8h.html" target="_top" xlink:title="../Wlib.h">
<polygon fill="white" stroke="black" points="183.5,-224.5 183.5,-243.5 236.5,-243.5 236.5,-224.5 183.5,-224.5"/>
<text text-anchor="middle" x="210" y="-231.5" font-family="Helvetica,sans-Serif" font-size="10.00">../Wlib.h</text>
</a>
</g>
</g>
<!-- Node8&#45;&gt;Node13 -->
<g id="edge18" class="edge"><title>Node8&#45;&gt;Node13</title>
<path fill="none" stroke="midnightblue" d="M288.058,-280.324C273.415,-271.822 250.866,-258.729 233.762,-248.797"/>
<polygon fill="midnightblue" stroke="midnightblue" points="235.31,-245.649 224.905,-243.655 231.795,-251.703 235.31,-245.649"/>
</g>
<!-- Node10 -->
<g id="node10" class="node"><title>Node10</title>
<g id="a_node10"><a xlink:href="../../db/d2a/_utility_8h.html" target="_top" xlink:title="Various helper functions. ">
<polygon fill="white" stroke="black" points="325,-168.5 325,-187.5 411,-187.5 411,-168.5 325,-168.5"/>
<text text-anchor="middle" x="368" y="-175.5" font-family="Helvetica,sans-Serif" font-size="10.00">../utility/Utility.h</text>
</a>
</g>
</g>
<!-- Node9&#45;&gt;Node10 -->
<g id="edge13" class="edge"><title>Node9&#45;&gt;Node10</title>
<path fill="none" stroke="midnightblue" d="M354.642,-224.083C356.786,-216.849 359.879,-206.409 362.549,-197.397"/>
<polygon fill="midnightblue" stroke="midnightblue" points="365.922,-198.333 365.407,-187.751 359.21,-196.345 365.922,-198.333"/>
</g>
<!-- Node10&#45;&gt;Node11 -->
<g id="edge14" class="edge"><title>Node10&#45;&gt;Node11</title>
<path fill="none" stroke="midnightblue" d="M352.415,-168.324C337.001,-159.743 313.188,-146.486 295.29,-136.522"/>
<polygon fill="midnightblue" stroke="midnightblue" points="296.986,-133.461 286.546,-131.655 293.581,-139.577 296.986,-133.461"/>
</g>
<!-- Node11&#45;&gt;Node3 -->
<g id="edge15" class="edge"><title>Node11&#45;&gt;Node3</title>
<path fill="none" stroke="midnightblue" d="M261.681,-112.324C253.107,-104.341 240.188,-92.3128 229.812,-82.6529"/>
<polygon fill="midnightblue" stroke="midnightblue" points="232.192,-80.0865 222.488,-75.8339 227.422,-85.2098 232.192,-80.0865"/>
</g>
<!-- Node12&#45;&gt;Node11 -->
<g id="edge17" class="edge"><title>Node12&#45;&gt;Node11</title>
<path fill="none" stroke="midnightblue" d="M271,-168.083C271,-161.006 271,-150.861 271,-141.986"/>
<polygon fill="midnightblue" stroke="midnightblue" points="274.5,-141.751 271,-131.751 267.5,-141.751 274.5,-141.751"/>
</g>
<!-- Node15&#45;&gt;Node2 -->
<g id="edge23" class="edge"><title>Node15&#45;&gt;Node2</title>
<path fill="none" stroke="midnightblue" d="M385.601,-336.444C315.743,-325.25 195.324,-305.954 136.44,-296.519"/>
<polygon fill="midnightblue" stroke="midnightblue" points="136.951,-293.056 126.524,-294.93 135.844,-299.968 136.951,-293.056"/>
</g>
<!-- Node15&#45;&gt;Node3 -->
<g id="edge25" class="edge"><title>Node15&#45;&gt;Node3</title>
<path fill="none" stroke="midnightblue" d="M444.284,-336.231C454.725,-318.043 477,-274.601 477,-235 477,-235 477,-235 477,-177 477,-79.5099 321.705,-66.857 249.327,-66.254"/>
<polygon fill="midnightblue" stroke="midnightblue" points="249.282,-62.7541 239.278,-66.2438 249.275,-69.754 249.282,-62.7541"/>
</g>
<!-- Node15&#45;&gt;Node10 -->
<g id="edge24" class="edge"><title>Node15&#45;&gt;Node10</title>
<path fill="none" stroke="midnightblue" d="M435.183,-336.075C423.958,-309.832 390.902,-232.545 375.749,-197.117"/>
<polygon fill="midnightblue" stroke="midnightblue" points="378.815,-195.386 371.665,-187.568 372.379,-198.139 378.815,-195.386"/>
</g>
<!-- Node15&#45;&gt;Node11 -->
<g id="edge26" class="edge"><title>Node15&#45;&gt;Node11</title>
<path fill="none" stroke="midnightblue" d="M441.042,-336.382C447.128,-308.393 462.212,-218.915 420,-168 391.476,-133.595 337.617,-124.862 303.065,-122.991"/>
<polygon fill="midnightblue" stroke="midnightblue" points="303.136,-119.491 293.011,-122.61 302.871,-126.486 303.136,-119.491"/>
</g>
<!-- Node16 -->
<g id="node16" class="node"><title>Node16</title>
<g id="a_node16"><a xlink:href="../../d9/d8a/_new_8h.html" target="_top" xlink:title="New operators defined for Arduino boards and for other boards use the normal new. ...">
<polygon fill="white" stroke="black" points="505.5,-280.5 505.5,-299.5 550.5,-299.5 550.5,-280.5 505.5,-280.5"/>
<text text-anchor="middle" x="528" y="-287.5" font-family="Helvetica,sans-Serif" font-size="10.00">New.h</text>
</a>
</g>
</g>
<!-- Node15&#45;&gt;Node16 -->
<g id="edge27" class="edge"><title>Node15&#45;&gt;Node16</title>
<path fill="none" stroke="midnightblue" d="M453.299,-336.324C467.183,-327.9 488.492,-314.971 504.804,-305.074"/>
<polygon fill="midnightblue" stroke="midnightblue" points="507.002,-307.834 513.736,-299.655 503.371,-301.85 507.002,-307.834"/>
</g>
</g>
</svg>
