<?xml version="1.0" encoding="UTF-8" standalone="no"?>
<!DOCTYPE svg PUBLIC "-//W3C//DTD SVG 1.1//EN"
 "http://www.w3.org/Graphics/SVG/1.1/DTD/svg11.dtd">
<!-- Generated by graphviz version 2.36.0 (20140111.2315)
 -->
<!-- Title: wlp::HashTable::clear Pages: 1 -->
<svg width="312pt" height="220pt"
 viewBox="0.00 0.00 312.00 220.00" xmlns="http://www.w3.org/2000/svg" xmlns:xlink="http://www.w3.org/1999/xlink">
<g id="graph0" class="graph" transform="scale(1 1) rotate(0) translate(4 216)">
<title>wlp::HashTable::clear</title>
<polygon fill="white" stroke="none" points="-4,4 -4,-216 308,-216 308,4 -4,4"/>
<!-- Node1 -->
<g id="node1" class="node"><title>Node1</title>
<polygon fill="#bfbfbf" stroke="black" points="0,-126.5 0,-145.5 112,-145.5 112,-126.5 0,-126.5"/>
<text text-anchor="middle" x="56" y="-133.5" font-family="Helvetica,sans-Serif" font-size="10.00">wlp::HashTable::clear</text>
</g>
<!-- Node2 -->
<g id="node2" class="node"><title>Node2</title>
<g id="a_node2"><a xlink:href="../../d6/dfc/classwlp_1_1_hash_map.html#afb020fde3a36f4a7d79984bc5d32c8ab" target="_top" xlink:title="wlp::HashMap::clear">
<polygon fill="white" stroke="black" points="172.5,-192.5 172.5,-211.5 279.5,-211.5 279.5,-192.5 172.5,-192.5"/>
<text text-anchor="middle" x="226" y="-199.5" font-family="Helvetica,sans-Serif" font-size="10.00">wlp::HashMap::clear</text>
</a>
</g>
</g>
<!-- Node1&#45;&gt;Node2 -->
<g id="edge1" class="edge"><title>Node1&#45;&gt;Node2</title>
<path fill="none" stroke="midnightblue" d="M81.5713,-150.702C99.4836,-160.914 124.611,-174.214 148,-183 157.796,-186.68 168.562,-189.849 178.859,-192.487"/>
<polygon fill="midnightblue" stroke="midnightblue" points="83.3168,-147.668 72.9095,-145.683 79.8075,-153.725 83.3168,-147.668"/>
</g>
<!-- Node3 -->
<g id="node3" class="node"><title>Node3</title>
<g id="a_node3"><a xlink:href="../../d0/de4/classwlp_1_1_hash_set.html#a99e937f5436f733721b1938648bd9894" target="_top" xlink:title="wlp::HashSet::clear">
<polygon fill="white" stroke="black" points="174.5,-154.5 174.5,-173.5 277.5,-173.5 277.5,-154.5 174.5,-154.5"/>
<text text-anchor="middle" x="226" y="-161.5" font-family="Helvetica,sans-Serif" font-size="10.00">wlp::HashSet::clear</text>
</a>
</g>
</g>
<!-- Node1&#45;&gt;Node3 -->
<g id="edge2" class="edge"><title>Node1&#45;&gt;Node3</title>
<path fill="none" stroke="midnightblue" d="M122.08,-146.847C139.449,-149.741 157.955,-152.826 174.416,-155.569"/>
<polygon fill="midnightblue" stroke="midnightblue" points="122.449,-143.36 112.009,-145.168 121.298,-150.265 122.449,-143.36"/>
</g>
<!-- Node4 -->
<g id="node4" class="node"><title>Node4</title>
<g id="a_node4"><a xlink:href="../../d8/de2/classwlp_1_1_hash_table.html#af007c15bfe5faa2e425a319987207d11" target="_top" xlink:title="wlp::HashTable\&lt; Key,\l Key, Key, SetGetKey\l\&lt; Key \&gt;, SetGetVal\&lt; Key\l \&gt;, Hasher, Equals \&gt;::operator=">
<polygon fill="white" stroke="black" points="148.5,-83 148.5,-135 303.5,-135 303.5,-83 148.5,-83"/>
<text text-anchor="start" x="156.5" y="-123" font-family="Helvetica,sans-Serif" font-size="10.00">wlp::HashTable&lt; Key,</text>
<text text-anchor="start" x="156.5" y="-112" font-family="Helvetica,sans-Serif" font-size="10.00"> Key, Key, SetGetKey</text>
<text text-anchor="start" x="156.5" y="-101" font-family="Helvetica,sans-Serif" font-size="10.00">&lt; Key &gt;, SetGetVal&lt; Key</text>
<text text-anchor="middle" x="226" y="-90" font-family="Helvetica,sans-Serif" font-size="10.00"> &gt;, Hasher, Equals &gt;::operator=</text>
</a>
</g>
</g>
<!-- Node1&#45;&gt;Node4 -->
<g id="edge3" class="edge"><title>Node1&#45;&gt;Node4</title>
<path fill="none" stroke="midnightblue" d="M121.955,-125.561C130.557,-124.178 139.44,-122.751 148.217,-121.34"/>
<polygon fill="midnightblue" stroke="midnightblue" points="121.327,-122.117 112.009,-127.159 122.438,-129.028 121.327,-122.117"/>
</g>
<!-- Node5 -->
<g id="node5" class="node"><title>Node5</title>
<g id="a_node5"><a xlink:href="../../d8/de2/classwlp_1_1_hash_table.html#a6ba32af56c158fe612377d89ca211ffd" target="_top" xlink:title="wlp::HashTable\&lt; Key,\l Key, Key, SetGetKey\l\&lt; Key \&gt;, SetGetVal\&lt; Key\l \&gt;, Hasher, Equals \&gt;::\l~HashTable">
<polygon fill="white" stroke="black" points="161.5,-0.5 161.5,-63.5 290.5,-63.5 290.5,-0.5 161.5,-0.5"/>
<text text-anchor="start" x="169.5" y="-51.5" font-family="Helvetica,sans-Serif" font-size="10.00">wlp::HashTable&lt; Key,</text>
<text text-anchor="start" x="169.5" y="-40.5" font-family="Helvetica,sans-Serif" font-size="10.00"> Key, Key, SetGetKey</text>
<text text-anchor="start" x="169.5" y="-29.5" font-family="Helvetica,sans-Serif" font-size="10.00">&lt; Key &gt;, SetGetVal&lt; Key</text>
<text text-anchor="start" x="169.5" y="-18.5" font-family="Helvetica,sans-Serif" font-size="10.00"> &gt;, Hasher, Equals &gt;::</text>
<text text-anchor="middle" x="226" y="-7.5" font-family="Helvetica,sans-Serif" font-size="10.00">~HashTable</text>
</a>
</g>
</g>
<!-- Node1&#45;&gt;Node5 -->
<g id="edge4" class="edge"><title>Node1&#45;&gt;Node5</title>
<path fill="none" stroke="midnightblue" d="M78.4721,-120.485C96.6659,-107.555 123.611,-88.91 148,-74 153.716,-70.5053 159.743,-66.9712 165.803,-63.5145"/>
<polygon fill="midnightblue" stroke="midnightblue" points="76.3928,-117.669 70.2931,-126.332 80.4637,-123.364 76.3928,-117.669"/>
</g>
</g>
</svg>
