<?xml version="1.0" encoding="UTF-8" standalone="no"?>
<!DOCTYPE svg PUBLIC "-//W3C//DTD SVG 1.1//EN"
 "http://www.w3.org/Graphics/SVG/1.1/DTD/svg11.dtd">
<!-- Generated by graphviz version 2.36.0 (20140111.2315)
 -->
<!-- Title: wlp::HashTable::init_buckets Pages: 1 -->
<svg width="310pt" height="60pt"
 viewBox="0.00 0.00 310.00 60.00" xmlns="http://www.w3.org/2000/svg" xmlns:xlink="http://www.w3.org/1999/xlink">
<g id="graph0" class="graph" transform="scale(1 1) rotate(0) translate(4 56)">
<title>wlp::HashTable::init_buckets</title>
<polygon fill="white" stroke="none" points="-4,4 -4,-56 306,-56 306,4 -4,4"/>
<!-- Node1 -->
<g id="node1" class="node"><title>Node1</title>
<polygon fill="#bfbfbf" stroke="black" points="0,-11 0,-41 104,-41 104,-11 0,-11"/>
<text text-anchor="start" x="8" y="-29" font-family="Helvetica,sans-Serif" font-size="10.00">wlp::HashTable::init</text>
<text text-anchor="middle" x="52" y="-18" font-family="Helvetica,sans-Serif" font-size="10.00">_buckets</text>
</g>
<!-- Node2 -->
<g id="node2" class="node"><title>Node2</title>
<g id="a_node2"><a xlink:href="../../d8/de2/classwlp_1_1_hash_table.html#a2e4ca556b5216c61b48d838298f7bdb0" target="_top" xlink:title="wlp::HashTable\&lt; Key,\l Key, Key, SetGetKey\l\&lt; Key \&gt;, SetGetVal\&lt; Key\l \&gt;, Hasher, Equals \&gt;::HashTable">
<polygon fill="white" stroke="black" points="140.5,-0 140.5,-52 301.5,-52 301.5,-0 140.5,-0"/>
<text text-anchor="start" x="148.5" y="-40" font-family="Helvetica,sans-Serif" font-size="10.00">wlp::HashTable&lt; Key,</text>
<text text-anchor="start" x="148.5" y="-29" font-family="Helvetica,sans-Serif" font-size="10.00"> Key, Key, SetGetKey</text>
<text text-anchor="start" x="148.5" y="-18" font-family="Helvetica,sans-Serif" font-size="10.00">&lt; Key &gt;, SetGetVal&lt; Key</text>
<text text-anchor="middle" x="221" y="-7" font-family="Helvetica,sans-Serif" font-size="10.00"> &gt;, Hasher, Equals &gt;::HashTable</text>
</a>
</g>
</g>
<!-- Node1&#45;&gt;Node2 -->
<g id="edge1" class="edge"><title>Node1&#45;&gt;Node2</title>
<path fill="none" stroke="midnightblue" d="M114.213,-26C122.733,-26 131.586,-26 140.382,-26"/>
<polygon fill="midnightblue" stroke="midnightblue" points="114.013,-22.5001 104.013,-26 114.013,-29.5001 114.013,-22.5001"/>
</g>
</g>
</svg>
