<?xml version="1.0" encoding="UTF-8" standalone="no"?>
<!DOCTYPE svg PUBLIC "-//W3C//DTD SVG 1.1//EN"
 "http://www.w3.org/Graphics/SVG/1.1/DTD/svg11.dtd">
<!-- Generated by graphviz version 2.36.0 (20140111.2315)
 -->
<!-- Title: wlp::HashTable::end Pages: 1 -->
<svg width="290pt" height="213pt"
 viewBox="0.00 0.00 290.00 213.00" xmlns="http://www.w3.org/2000/svg" xmlns:xlink="http://www.w3.org/1999/xlink">
<g id="graph0" class="graph" transform="scale(1 1) rotate(0) translate(4 209)">
<title>wlp::HashTable::end</title>
<polygon fill="white" stroke="none" points="-4,4 -4,-209 286,-209 286,4 -4,4"/>
<!-- Node1 -->
<g id="node1" class="node"><title>Node1</title>
<polygon fill="#bfbfbf" stroke="black" points="0.5,-76.5 0.5,-95.5 107.5,-95.5 107.5,-76.5 0.5,-76.5"/>
<text text-anchor="middle" x="54" y="-83.5" font-family="Helvetica,sans-Serif" font-size="10.00">wlp::HashTable::end</text>
</g>
<!-- Node2 -->
<g id="node2" class="node"><title>Node2</title>
<g id="a_node2"><a xlink:href="../../d8/de2/classwlp_1_1_hash_table.html#aaf4523c14c612851a8bf6816ada758f0" target="_top" xlink:title="wlp::HashTable\&lt; Key,\l Key, Key, SetGetKey\l\&lt; Key \&gt;, SetGetVal\&lt; Key\l \&gt;, Hasher, Equals \&gt;::begin">
<polygon fill="white" stroke="black" points="144.5,-153 144.5,-205 281.5,-205 281.5,-153 144.5,-153"/>
<text text-anchor="start" x="152.5" y="-193" font-family="Helvetica,sans-Serif" font-size="10.00">wlp::HashTable&lt; Key,</text>
<text text-anchor="start" x="152.5" y="-182" font-family="Helvetica,sans-Serif" font-size="10.00"> Key, Key, SetGetKey</text>
<text text-anchor="start" x="152.5" y="-171" font-family="Helvetica,sans-Serif" font-size="10.00">&lt; Key &gt;, SetGetVal&lt; Key</text>
<text text-anchor="middle" x="213" y="-160" font-family="Helvetica,sans-Serif" font-size="10.00"> &gt;, Hasher, Equals &gt;::begin</text>
</a>
</g>
</g>
<!-- Node1&#45;&gt;Node2 -->
<g id="edge1" class="edge"><title>Node1&#45;&gt;Node2</title>
<path fill="none" stroke="midnightblue" d="M77.813,-101.349C95.6029,-113.138 121.058,-129.612 144,-143 149.653,-146.299 155.633,-149.654 161.609,-152.923"/>
<polygon fill="midnightblue" stroke="midnightblue" points="79.5255,-98.2847 69.2626,-95.6531 75.6444,-104.11 79.5255,-98.2847"/>
</g>
<!-- Node3 -->
<g id="node3" class="node"><title>Node3</title>
<g id="a_node3"><a xlink:href="../../d0/de4/classwlp_1_1_hash_set.html#a48b91d9d29997683e626d11184894145" target="_top" xlink:title="wlp::HashSet::contains">
<polygon fill="white" stroke="black" points="153.5,-114.5 153.5,-133.5 272.5,-133.5 272.5,-114.5 153.5,-114.5"/>
<text text-anchor="middle" x="213" y="-121.5" font-family="Helvetica,sans-Serif" font-size="10.00">wlp::HashSet::contains</text>
</a>
</g>
</g>
<!-- Node1&#45;&gt;Node3 -->
<g id="edge2" class="edge"><title>Node1&#45;&gt;Node3</title>
<path fill="none" stroke="midnightblue" d="M104.447,-97.968C126.448,-103.293 151.994,-109.476 172.667,-114.48"/>
<polygon fill="midnightblue" stroke="midnightblue" points="105.16,-94.5398 94.6177,-95.589 103.514,-101.343 105.16,-94.5398"/>
</g>
<!-- Node4 -->
<g id="node4" class="node"><title>Node4</title>
<g id="a_node4"><a xlink:href="../../d6/dfc/classwlp_1_1_hash_map.html#a8415519dbf81cc2000d6ce15cb6757e5" target="_top" xlink:title="wlp::HashMap::contains">
<polygon fill="white" stroke="black" points="152,-76.5 152,-95.5 274,-95.5 274,-76.5 152,-76.5"/>
<text text-anchor="middle" x="213" y="-83.5" font-family="Helvetica,sans-Serif" font-size="10.00">wlp::HashMap::contains</text>
</a>
</g>
</g>
<!-- Node1&#45;&gt;Node4 -->
<g id="edge3" class="edge"><title>Node1&#45;&gt;Node4</title>
<path fill="none" stroke="midnightblue" d="M117.855,-86C129.061,-86 140.71,-86 151.839,-86"/>
<polygon fill="midnightblue" stroke="midnightblue" points="117.716,-82.5001 107.715,-86 117.715,-89.5001 117.716,-82.5001"/>
</g>
<!-- Node5 -->
<g id="node5" class="node"><title>Node5</title>
<g id="a_node5"><a xlink:href="../../d0/de4/classwlp_1_1_hash_set.html#a35b4afecfe7f546c35095d53d38e4e60" target="_top" xlink:title="wlp::HashSet::end">
<polygon fill="white" stroke="black" points="164,-38.5 164,-57.5 262,-57.5 262,-38.5 164,-38.5"/>
<text text-anchor="middle" x="213" y="-45.5" font-family="Helvetica,sans-Serif" font-size="10.00">wlp::HashSet::end</text>
</a>
</g>
</g>
<!-- Node1&#45;&gt;Node5 -->
<g id="edge4" class="edge"><title>Node1&#45;&gt;Node5</title>
<path fill="none" stroke="midnightblue" d="M104.447,-74.032C126.448,-68.7069 151.994,-62.5238 172.667,-57.5201"/>
<polygon fill="midnightblue" stroke="midnightblue" points="103.514,-70.6567 94.6177,-76.411 105.16,-77.4602 103.514,-70.6567"/>
</g>
<!-- Node6 -->
<g id="node6" class="node"><title>Node6</title>
<g id="a_node6"><a xlink:href="../../d6/dfc/classwlp_1_1_hash_map.html#a53d1b8df98bf40e57009c89167b1f0a4" target="_top" xlink:title="wlp::HashMap::end">
<polygon fill="white" stroke="black" points="162.5,-0.5 162.5,-19.5 263.5,-19.5 263.5,-0.5 162.5,-0.5"/>
<text text-anchor="middle" x="213" y="-7.5" font-family="Helvetica,sans-Serif" font-size="10.00">wlp::HashMap::end</text>
</a>
</g>
</g>
<!-- Node1&#45;&gt;Node6 -->
<g id="edge5" class="edge"><title>Node1&#45;&gt;Node6</title>
<path fill="none" stroke="midnightblue" d="M75.5618,-70.313C92.9841,-57.6557 119.044,-40.1759 144,-29 152.278,-25.2926 161.453,-22.141 170.313,-19.5336"/>
<polygon fill="midnightblue" stroke="midnightblue" points="73.247,-67.6718 67.2901,-76.4334 77.4107,-73.2989 73.247,-67.6718"/>
</g>
</g>
</svg>
