<?xml version="1.0" encoding="UTF-8" standalone="no"?>
<!DOCTYPE svg PUBLIC "-//W3C//DTD SVG 1.1//EN"
 "http://www.w3.org/Graphics/SVG/1.1/DTD/svg11.dtd">
<!-- Generated by graphviz version 2.36.0 (20140111.2315)
 -->
<!-- Title: wlp::HashTable::size Pages: 1 -->
<svg width="258pt" height="66pt"
 viewBox="0.00 0.00 258.00 66.00" xmlns="http://www.w3.org/2000/svg" xmlns:xlink="http://www.w3.org/1999/xlink">
<g id="graph0" class="graph" transform="scale(1 1) rotate(0) translate(4 62)">
<title>wlp::HashTable::size</title>
<polygon fill="white" stroke="none" points="-4,4 -4,-62 254,-62 254,4 -4,4"/>
<!-- Node1 -->
<g id="node1" class="node"><title>Node1</title>
<polygon fill="#bfbfbf" stroke="black" points="0.5,-19.5 0.5,-38.5 109.5,-38.5 109.5,-19.5 0.5,-19.5"/>
<text text-anchor="middle" x="55" y="-26.5" font-family="Helvetica,sans-Serif" font-size="10.00">wlp::HashTable::size</text>
</g>
<!-- Node2 -->
<g id="node2" class="node"><title>Node2</title>
<g id="a_node2"><a xlink:href="../../d0/de4/classwlp_1_1_hash_set.html#a11e63abcf7da8dc188b3640547b02c67" target="_top" xlink:title="wlp::HashSet::size">
<polygon fill="white" stroke="black" points="148,-38.5 148,-57.5 248,-57.5 248,-38.5 148,-38.5"/>
<text text-anchor="middle" x="198" y="-45.5" font-family="Helvetica,sans-Serif" font-size="10.00">wlp::HashSet::size</text>
</a>
</g>
</g>
<!-- Node1&#45;&gt;Node2 -->
<g id="edge1" class="edge"><title>Node1&#45;&gt;Node2</title>
<path fill="none" stroke="midnightblue" d="M119.757,-37.5913C129.104,-38.8508 138.61,-40.1318 147.611,-41.3447"/>
<polygon fill="midnightblue" stroke="midnightblue" points="120.086,-34.1042 109.708,-36.2373 119.151,-41.0415 120.086,-34.1042"/>
</g>
<!-- Node3 -->
<g id="node3" class="node"><title>Node3</title>
<g id="a_node3"><a xlink:href="../../d6/dfc/classwlp_1_1_hash_map.html#abd6739e50106198df26611c9d5e56243" target="_top" xlink:title="wlp::HashMap::size">
<polygon fill="white" stroke="black" points="146,-0.5 146,-19.5 250,-19.5 250,-0.5 146,-0.5"/>
<text text-anchor="middle" x="198" y="-7.5" font-family="Helvetica,sans-Serif" font-size="10.00">wlp::HashMap::size</text>
</a>
</g>
</g>
<!-- Node1&#45;&gt;Node3 -->
<g id="edge2" class="edge"><title>Node1&#45;&gt;Node3</title>
<path fill="none" stroke="midnightblue" d="M119.816,-20.4006C128.508,-19.2295 137.336,-18.0399 145.765,-16.9039"/>
<polygon fill="midnightblue" stroke="midnightblue" points="119.151,-16.9585 109.708,-21.7627 120.086,-23.8958 119.151,-16.9585"/>
</g>
</g>
</svg>
