<?xml version="1.0" encoding="UTF-8" standalone="no"?>
<!DOCTYPE svg PUBLIC "-//W3C//DTD SVG 1.1//EN"
 "http://www.w3.org/Graphics/SVG/1.1/DTD/svg11.dtd">
<!-- Generated by graphviz version 2.36.0 (20140111.2315)
 -->
<!-- Title: wlp::HashTable::begin Pages: 1 -->
<svg width="268pt" height="66pt"
 viewBox="0.00 0.00 268.00 66.00" xmlns="http://www.w3.org/2000/svg" xmlns:xlink="http://www.w3.org/1999/xlink">
<g id="graph0" class="graph" transform="scale(1 1) rotate(0) translate(4 62)">
<title>wlp::HashTable::begin</title>
<polygon fill="white" stroke="none" points="-4,4 -4,-62 264,-62 264,4 -4,4"/>
<!-- Node1 -->
<g id="node1" class="node"><title>Node1</title>
<polygon fill="#bfbfbf" stroke="black" points="0,-19.5 0,-38.5 114,-38.5 114,-19.5 0,-19.5"/>
<text text-anchor="middle" x="57" y="-26.5" font-family="Helvetica,sans-Serif" font-size="10.00">wlp::HashTable::begin</text>
</g>
<!-- Node2 -->
<g id="node2" class="node"><title>Node2</title>
<g id="a_node2"><a xlink:href="../../d6/dfc/classwlp_1_1_hash_map.html#a8b39380666b7df91aeacb9dce8e1b8ff" target="_top" xlink:title="wlp::HashMap::begin">
<polygon fill="white" stroke="black" points="150.5,-38.5 150.5,-57.5 259.5,-57.5 259.5,-38.5 150.5,-38.5"/>
<text text-anchor="middle" x="205" y="-45.5" font-family="Helvetica,sans-Serif" font-size="10.00">wlp::HashMap::begin</text>
</a>
</g>
</g>
<!-- Node1&#45;&gt;Node2 -->
<g id="edge1" class="edge"><title>Node1&#45;&gt;Node2</title>
<path fill="none" stroke="midnightblue" d="M124.193,-37.6141C132.927,-38.7508 141.792,-39.9045 150.283,-41.0094"/>
<polygon fill="midnightblue" stroke="midnightblue" points="124.398,-34.1114 114.03,-36.2916 123.495,-41.0529 124.398,-34.1114"/>
</g>
<!-- Node3 -->
<g id="node3" class="node"><title>Node3</title>
<g id="a_node3"><a xlink:href="../../d0/de4/classwlp_1_1_hash_set.html#a38329f613d17df736d85c6588ba8f12a" target="_top" xlink:title="wlp::HashSet::begin">
<polygon fill="white" stroke="black" points="152.5,-0.5 152.5,-19.5 257.5,-19.5 257.5,-0.5 152.5,-0.5"/>
<text text-anchor="middle" x="205" y="-7.5" font-family="Helvetica,sans-Serif" font-size="10.00">wlp::HashSet::begin</text>
</a>
</g>
</g>
<!-- Node1&#45;&gt;Node3 -->
<g id="edge2" class="edge"><title>Node1&#45;&gt;Node3</title>
<path fill="none" stroke="midnightblue" d="M124.146,-20.3919C133.553,-19.1678 143.112,-17.9238 152.192,-16.7421"/>
<polygon fill="midnightblue" stroke="midnightblue" points="123.495,-16.9471 114.03,-21.7084 124.398,-23.8886 123.495,-16.9471"/>
</g>
</g>
</svg>
