<?xml version="1.0" encoding="UTF-8" standalone="no"?>
<!DOCTYPE svg PUBLIC "-//W3C//DTD SVG 1.1//EN"
 "http://www.w3.org/Graphics/SVG/1.1/DTD/svg11.dtd">
<!-- Generated by graphviz version 2.36.0 (20140111.2315)
 -->
<!-- Title: wlp::HashTable::empty Pages: 1 -->
<svg width="276pt" height="66pt"
 viewBox="0.00 0.00 276.00 66.00" xmlns="http://www.w3.org/2000/svg" xmlns:xlink="http://www.w3.org/1999/xlink">
<g id="graph0" class="graph" transform="scale(1 1) rotate(0) translate(4 62)">
<title>wlp::HashTable::empty</title>
<polygon fill="white" stroke="none" points="-4,4 -4,-62 272,-62 272,4 -4,4"/>
<!-- Node1 -->
<g id="node1" class="node"><title>Node1</title>
<polygon fill="#bfbfbf" stroke="black" points="0,-19.5 0,-38.5 118,-38.5 118,-19.5 0,-19.5"/>
<text text-anchor="middle" x="59" y="-26.5" font-family="Helvetica,sans-Serif" font-size="10.00">wlp::HashTable::empty</text>
</g>
<!-- Node2 -->
<g id="node2" class="node"><title>Node2</title>
<g id="a_node2"><a xlink:href="../../d0/de4/classwlp_1_1_hash_set.html#a38c4033dcc0f7a513abde3cfb98dd6b9" target="_top" xlink:title="wlp::HashSet::empty">
<polygon fill="white" stroke="black" points="156.5,-38.5 156.5,-57.5 265.5,-57.5 265.5,-38.5 156.5,-38.5"/>
<text text-anchor="middle" x="211" y="-45.5" font-family="Helvetica,sans-Serif" font-size="10.00">wlp::HashSet::empty</text>
</a>
</g>
</g>
<!-- Node1&#45;&gt;Node2 -->
<g id="edge1" class="edge"><title>Node1&#45;&gt;Node2</title>
<path fill="none" stroke="midnightblue" d="M128.496,-37.6762C137.854,-38.8615 147.348,-40.0641 156.389,-41.2093"/>
<polygon fill="midnightblue" stroke="midnightblue" points="128.784,-34.1848 118.423,-36.4003 127.904,-41.1293 128.784,-34.1848"/>
</g>
<!-- Node3 -->
<g id="node3" class="node"><title>Node3</title>
<g id="a_node3"><a xlink:href="../../d6/dfc/classwlp_1_1_hash_map.html#a48e1534f83b4572273dcefc0adb77240" target="_top" xlink:title="wlp::HashMap::empty">
<polygon fill="white" stroke="black" points="154.5,-0.5 154.5,-19.5 267.5,-19.5 267.5,-0.5 154.5,-0.5"/>
<text text-anchor="middle" x="211" y="-7.5" font-family="Helvetica,sans-Serif" font-size="10.00">wlp::HashMap::empty</text>
</a>
</g>
</g>
<!-- Node1&#45;&gt;Node3 -->
<g id="edge2" class="edge"><title>Node1&#45;&gt;Node3</title>
<path fill="none" stroke="midnightblue" d="M128.528,-20.3198C137.205,-19.2207 145.998,-18.1069 154.439,-17.0378"/>
<polygon fill="midnightblue" stroke="midnightblue" points="127.904,-16.8707 118.423,-21.5997 128.784,-23.8152 127.904,-16.8707"/>
</g>
</g>
</svg>
