<?xml version="1.0" encoding="UTF-8" standalone="no"?>
<!DOCTYPE svg PUBLIC "-//W3C//DTD SVG 1.1//EN"
 "http://www.w3.org/Graphics/SVG/1.1/DTD/svg11.dtd">
<!-- Generated by graphviz version 2.36.0 (20140111.2315)
 -->
<!-- Title: wlp::HashTable::find Pages: 1 -->
<svg width="274pt" height="180pt"
 viewBox="0.00 0.00 274.00 180.00" xmlns="http://www.w3.org/2000/svg" xmlns:xlink="http://www.w3.org/1999/xlink">
<g id="graph0" class="graph" transform="scale(1 1) rotate(0) translate(4 176)">
<title>wlp::HashTable::find</title>
<polygon fill="white" stroke="none" points="-4,4 -4,-176 270,-176 270,4 -4,4"/>
<!-- Node1 -->
<g id="node1" class="node"><title>Node1</title>
<polygon fill="#bfbfbf" stroke="black" points="0.5,-76.5 0.5,-95.5 107.5,-95.5 107.5,-76.5 0.5,-76.5"/>
<text text-anchor="middle" x="54" y="-83.5" font-family="Helvetica,sans-Serif" font-size="10.00">wlp::HashTable::find</text>
</g>
<!-- Node2 -->
<g id="node2" class="node"><title>Node2</title>
<g id="a_node2"><a xlink:href="../../d6/dfc/classwlp_1_1_hash_map.html#a82acce34f6270157fa0fb14ae19d7dde" target="_top" xlink:title="wlp::HashMap::at">
<polygon fill="white" stroke="black" points="158,-152.5 158,-171.5 252,-171.5 252,-152.5 158,-152.5"/>
<text text-anchor="middle" x="205" y="-159.5" font-family="Helvetica,sans-Serif" font-size="10.00">wlp::HashMap::at</text>
</a>
</g>
</g>
<!-- Node1&#45;&gt;Node2 -->
<g id="edge1" class="edge"><title>Node1&#45;&gt;Node2</title>
<path fill="none" stroke="midnightblue" d="M75.9645,-101.679C93.4451,-114.188 119.381,-131.465 144,-143 151.718,-146.616 160.302,-149.792 168.509,-152.461"/>
<polygon fill="midnightblue" stroke="midnightblue" points="77.7915,-98.6805 67.6457,-95.6288 73.674,-104.341 77.7915,-98.6805"/>
</g>
<!-- Node3 -->
<g id="node3" class="node"><title>Node3</title>
<g id="a_node3"><a xlink:href="../../d0/de4/classwlp_1_1_hash_set.html#a48b91d9d29997683e626d11184894145" target="_top" xlink:title="wlp::HashSet::contains">
<polygon fill="white" stroke="black" points="145.5,-114.5 145.5,-133.5 264.5,-133.5 264.5,-114.5 145.5,-114.5"/>
<text text-anchor="middle" x="205" y="-121.5" font-family="Helvetica,sans-Serif" font-size="10.00">wlp::HashSet::contains</text>
</a>
</g>
</g>
<!-- Node1&#45;&gt;Node3 -->
<g id="edge2" class="edge"><title>Node1&#45;&gt;Node3</title>
<path fill="none" stroke="midnightblue" d="M102.492,-98.1121C123.244,-103.404 147.228,-109.521 166.671,-114.48"/>
<polygon fill="midnightblue" stroke="midnightblue" points="103.154,-94.6689 92.599,-95.589 101.424,-101.452 103.154,-94.6689"/>
</g>
<!-- Node4 -->
<g id="node4" class="node"><title>Node4</title>
<g id="a_node4"><a xlink:href="../../d6/dfc/classwlp_1_1_hash_map.html#a8415519dbf81cc2000d6ce15cb6757e5" target="_top" xlink:title="wlp::HashMap::contains">
<polygon fill="white" stroke="black" points="144,-76.5 144,-95.5 266,-95.5 266,-76.5 144,-76.5"/>
<text text-anchor="middle" x="205" y="-83.5" font-family="Helvetica,sans-Serif" font-size="10.00">wlp::HashMap::contains</text>
</a>
</g>
</g>
<!-- Node1&#45;&gt;Node4 -->
<g id="edge3" class="edge"><title>Node1&#45;&gt;Node4</title>
<path fill="none" stroke="midnightblue" d="M117.589,-86C126.268,-86 135.168,-86 143.802,-86"/>
<polygon fill="midnightblue" stroke="midnightblue" points="117.532,-82.5001 107.532,-86 117.532,-89.5001 117.532,-82.5001"/>
</g>
<!-- Node5 -->
<g id="node5" class="node"><title>Node5</title>
<g id="a_node5"><a xlink:href="../../d0/de4/classwlp_1_1_hash_set.html#a615abe50e91558a17be8bd872f070de0" target="_top" xlink:title="wlp::HashSet::find">
<polygon fill="white" stroke="black" points="156,-38.5 156,-57.5 254,-57.5 254,-38.5 156,-38.5"/>
<text text-anchor="middle" x="205" y="-45.5" font-family="Helvetica,sans-Serif" font-size="10.00">wlp::HashSet::find</text>
</a>
</g>
</g>
<!-- Node1&#45;&gt;Node5 -->
<g id="edge4" class="edge"><title>Node1&#45;&gt;Node5</title>
<path fill="none" stroke="midnightblue" d="M102.492,-73.8879C123.244,-68.5956 147.228,-62.4787 166.671,-57.5201"/>
<polygon fill="midnightblue" stroke="midnightblue" points="101.424,-70.5482 92.599,-76.411 103.154,-77.3311 101.424,-70.5482"/>
</g>
<!-- Node6 -->
<g id="node6" class="node"><title>Node6</title>
<g id="a_node6"><a xlink:href="../../d6/dfc/classwlp_1_1_hash_map.html#a06b8c47e71c4af37c5e6aded2fbc6f6a" target="_top" xlink:title="wlp::HashMap::find">
<polygon fill="white" stroke="black" points="154.5,-0.5 154.5,-19.5 255.5,-19.5 255.5,-0.5 154.5,-0.5"/>
<text text-anchor="middle" x="205" y="-7.5" font-family="Helvetica,sans-Serif" font-size="10.00">wlp::HashMap::find</text>
</a>
</g>
</g>
<!-- Node1&#45;&gt;Node6 -->
<g id="edge5" class="edge"><title>Node1&#45;&gt;Node6</title>
<path fill="none" stroke="midnightblue" d="M75.9645,-70.3206C93.4451,-57.8123 119.381,-40.5348 144,-29 151.718,-25.3841 160.302,-22.2078 168.509,-19.5389"/>
<polygon fill="midnightblue" stroke="midnightblue" points="73.674,-67.6586 67.6457,-76.3712 77.7915,-73.3195 73.674,-67.6586"/>
</g>
</g>
</svg>
