<?xml version="1.0" encoding="UTF-8" standalone="no"?>
<!DOCTYPE svg PUBLIC "-//W3C//DTD SVG 1.1//EN"
 "http://www.w3.org/Graphics/SVG/1.1/DTD/svg11.dtd">
<!-- Generated by graphviz version 2.38.0 (20140413.2041)
 -->
<!-- Title: wlp::__is_integral_helper&lt; unsigned char &gt; Pages: 1 -->
<svg width="135pt" height="163pt"
 viewBox="0.00 0.00 135.00 163.00" xmlns="http://www.w3.org/2000/svg" xmlns:xlink="http://www.w3.org/1999/xlink">
<g id="graph0" class="graph" transform="scale(1 1) rotate(0) translate(4 159)">
<title>wlp::__is_integral_helper&lt; unsigned char &gt;</title>
<polygon fill="white" stroke="none" points="-4,4 -4,-159 131,-159 131,4 -4,4"/>
<!-- Node2 -->
<g id="node1" class="node"><title>Node2</title>
<polygon fill="#bfbfbf" stroke="black" points="0,-0.5 0,-30.5 127,-30.5 127,-0.5 0,-0.5"/>
<text text-anchor="start" x="8" y="-18.5" font-family="Helvetica,sans-Serif" font-size="10.00">wlp::__is_integral</text>
<text text-anchor="middle" x="63.5" y="-7.5" font-family="Helvetica,sans-Serif" font-size="10.00">_helper&lt; unsigned char &gt;</text>
</g>
<!-- Node3 -->
<g id="node2" class="node"><title>Node3</title>
<g id="a_node2"><a xlink:href="../../d3/d8d/structwlp_1_1integral__constant.html" target="_top" xlink:title="true_type">
<polygon fill="white" stroke="black" points="35,-68.5 35,-87.5 92,-87.5 92,-68.5 35,-68.5"/>
<text text-anchor="middle" x="63.5" y="-75.5" font-family="Helvetica,sans-Serif" font-size="10.00">true_type</text>
</a>
</g>
</g>
<!-- Node3&#45;&gt;Node2 -->
<g id="edge1" class="edge"><title>Node3&#45;&gt;Node2</title>
<path fill="none" stroke="midnightblue" d="M63.5,-58.2154C63.5,-49.3565 63.5,-38.9577 63.5,-30.7587"/>
<polygon fill="midnightblue" stroke="midnightblue" points="60.0001,-58.3318 63.5,-68.3318 67.0001,-58.3319 60.0001,-58.3318"/>
</g>
<!-- Node4 -->
<g id="node3" class="node"><title>Node4</title>
<polygon fill="white" stroke="#bfbfbf" points="49,-135.5 49,-154.5 78,-154.5 78,-135.5 49,-135.5"/>
<text text-anchor="middle" x="63.5" y="-142.5" font-family="Helvetica,sans-Serif" font-size="10.00">T</text>
</g>
<!-- Node4&#45;&gt;Node3 -->
<g id="edge2" class="edge"><title>Node4&#45;&gt;Node3</title>
<path fill="none" stroke="#9a32cd" stroke-dasharray="5,2" d="M63.5,-125.037C63.5,-112.67 63.5,-97.1198 63.5,-87.6273"/>
<polygon fill="#9a32cd" stroke="#9a32cd" points="60.0001,-125.234 63.5,-135.234 67.0001,-125.234 60.0001,-125.234"/>
<text text-anchor="middle" x="76" y="-109" font-family="Helvetica,sans-Serif" font-size="10.00"> value</text>
</g>
</g>
</svg>
