<?xml version="1.0" encoding="UTF-8" standalone="no"?>
<!DOCTYPE svg PUBLIC "-//W3C//DTD SVG 1.1//EN"
 "http://www.w3.org/Graphics/SVG/1.1/DTD/svg11.dtd">
<!-- Generated by graphviz version 2.36.0 (20140111.2315)
 -->
<!-- Title: wlp::is_array&lt; typename &gt; Pages: 1 -->
<svg width="140pt" height="154pt"
 viewBox="0.00 0.00 140.00 154.00" xmlns="http://www.w3.org/2000/svg" xmlns:xlink="http://www.w3.org/1999/xlink">
<g id="graph0" class="graph" transform="scale(1 1) rotate(0) translate(4 150)">
<title>wlp::is_array&lt; typename &gt;</title>
<polygon fill="white" stroke="none" points="-4,4 -4,-150 136,-150 136,4 -4,4"/>
<!-- Node1 -->
<g id="node1" class="node"><title>Node1</title>
<polygon fill="#bfbfbf" stroke="black" points="-0.5,-0.5 -0.5,-19.5 132.5,-19.5 132.5,-0.5 -0.5,-0.5"/>
<text text-anchor="middle" x="66" y="-7.5" font-family="Helvetica,sans-Serif" font-size="10.00">wlp::is_array&lt; typename &gt;</text>
</g>
<!-- Node2 -->
<g id="node2" class="node"><title>Node2</title>
<g id="a_node2"><a xlink:href="../../d3/d8d/structwlp_1_1integral__constant.html" target="_top" xlink:title="false_type">
<polygon fill="white" stroke="black" points="35,-58.5 35,-77.5 97,-77.5 97,-58.5 35,-58.5"/>
<text text-anchor="middle" x="66" y="-65.5" font-family="Helvetica,sans-Serif" font-size="10.00">false_type</text>
</a>
</g>
</g>
<!-- Node2&#45;&gt;Node1 -->
<g id="edge1" class="edge"><title>Node2&#45;&gt;Node1</title>
<path fill="none" stroke="midnightblue" d="M66,-47.953C66,-38.2875 66,-27.0312 66,-19.5052"/>
<polygon fill="midnightblue" stroke="midnightblue" points="62.5001,-48.25 66,-58.25 69.5001,-48.25 62.5001,-48.25"/>
</g>
<!-- Node3 -->
<g id="node3" class="node"><title>Node3</title>
<polygon fill="white" stroke="#bfbfbf" points="51.5,-126.5 51.5,-145.5 80.5,-145.5 80.5,-126.5 51.5,-126.5"/>
<text text-anchor="middle" x="66" y="-133.5" font-family="Helvetica,sans-Serif" font-size="10.00">T</text>
</g>
<!-- Node3&#45;&gt;Node2 -->
<g id="edge2" class="edge"><title>Node3&#45;&gt;Node2</title>
<path fill="none" stroke="#9a32cd" stroke-dasharray="5,2" d="M66,-116.041C66,-103.472 66,-87.5631 66,-77.8411"/>
<polygon fill="#9a32cd" stroke="#9a32cd" points="62.5001,-116.372 66,-126.372 69.5001,-116.372 62.5001,-116.372"/>
<text text-anchor="middle" x="79.5" y="-99.5" font-family="Helvetica,sans-Serif" font-size="10.00"> value</text>
</g>
</g>
</svg>
