<?xml version="1.0" encoding="UTF-8" standalone="no"?>
<!DOCTYPE svg PUBLIC "-//W3C//DTD SVG 1.1//EN"
 "http://www.w3.org/Graphics/SVG/1.1/DTD/svg11.dtd">
<!-- Generated by graphviz version 2.38.0 (20140413.2041)
 -->
<!-- Title: stl/ChainMap.h Pages: 1 -->
<!--zoomable 588 -->
<svg id="main" version="1.1" xmlns="http://www.w3.org/2000/svg" xmlns:xlink="http://www.w3.org/1999/xlink" xml:space="preserve" onload="init(evt)">
<style type="text/css"><![CDATA[
.edge:hover path { stroke: red; }
.edge:hover polygon { stroke: red; fill: red; }
]]></style>
<script type="text/javascript"><![CDATA[
var edges = document.getElementsByTagName('g');
if (edges && edges.length) {
  for (var i=0;i<edges.length;i++) {
    if (edges[i].id.substr(0,4)=='edge') {
      edges[i].setAttribute('class','edge');
    }
  }
}
]]></script>
        <defs>
                <circle id="rim" cx="0" cy="0" r="7"/>
                <circle id="rim2" cx="0" cy="0" r="3.5"/>
                <g id="zoomPlus">
                        <use xlink:href="#rim" fill="#404040">
                                <set attributeName="fill" to="#808080" begin="zoomplus.mouseover" end="zoomplus.mouseout"/>
                        </use>
                        <path d="M-4,0h8M0,-4v8" fill="none" stroke="white" stroke-width="1.5" pointer-events="none"/>
                </g>
                <g id="zoomMin">
                        <use xlink:href="#rim" fill="#404040">
                                <set attributeName="fill" to="#808080" begin="zoomminus.mouseover" end="zoomminus.mouseout"/>
                        </use>
                        <path d="M-4,0h8" fill="none" stroke="white" stroke-width="1.5" pointer-events="none"/>
                </g>
                <g id="dirArrow">
                        <path fill="none" stroke="white" stroke-width="1.5" d="M0,-3.0v7 M-2.5,-0.5L0,-3.0L2.5,-0.5"/>
                </g>
               <g id="resetDef">
                       <use xlink:href="#rim2" fill="#404040">
                               <set attributeName="fill" to="#808080" begin="reset.mouseover" end="reset.mouseout"/>
                       </use>
               </g>
        </defs>

<script type="text/javascript">
var viewWidth = 496;
var viewHeight = 588;
var sectionId = 'dynsection-0';
</script>
<script xlink:href="../../svgpan.js"/>
<svg id="graph" class="graph">
<g id="viewport">
<title>stl/ChainMap.h</title>
<polygon fill="white" stroke="none" points="-4,4 -4,-584 492.231,-584 492.231,4 -4,4"/>
<!-- Node0 -->
<g id="node1" class="node"><title>Node0</title>
<polygon fill="#bfbfbf" stroke="black" points="136,-560.5 136,-579.5 218,-579.5 218,-560.5 136,-560.5"/>
<text text-anchor="middle" x="177" y="-567.5" font-family="Helvetica,sans-Serif" font-size="10.00">stl/ChainMap.h</text>
</g>
<!-- Node1 -->
<g id="node2" class="node"><title>Node1</title>
<g id="a_node2"><a xlink:href="../../d2/dc2/_equal_8h.html" target="_top" xlink:title="Equal.h">
<polygon fill="white" stroke="black" points="152,-504.5 152,-523.5 202,-523.5 202,-504.5 152,-504.5"/>
<text text-anchor="middle" x="177" y="-511.5" font-family="Helvetica,sans-Serif" font-size="10.00">Equal.h</text>
</a>
</g>
</g>
<!-- Node0&#45;&gt;Node1 -->
<g id="edge1" class="edge"><title>Node0&#45;&gt;Node1</title>
<path fill="none" stroke="midnightblue" d="M177,-560.083C177,-553.006 177,-542.861 177,-533.986"/>
<polygon fill="midnightblue" stroke="midnightblue" points="180.5,-533.751 177,-523.751 173.5,-533.751 180.5,-533.751"/>
</g>
<!-- Node8 -->
<g id="node9" class="node"><title>Node8</title>
<g id="a_node9"><a xlink:href="../../d4/dda/_pair_8h.html" target="_top" xlink:title="Implementation of a 2&#45;element tuple. ">
<polygon fill="white" stroke="black" points="104,-224.5 104,-243.5 146,-243.5 146,-224.5 104,-224.5"/>
<text text-anchor="middle" x="125" y="-231.5" font-family="Helvetica,sans-Serif" font-size="10.00">Pair.h</text>
</a>
</g>
</g>
<!-- Node0&#45;&gt;Node8 -->
<g id="edge26" class="edge"><title>Node0&#45;&gt;Node8</title>
<path fill="none" stroke="midnightblue" d="M159.867,-560.409C131.051,-544.605 76,-508.001 76,-459 76,-459 76,-459 76,-345 76,-309.466 97.6,-272.627 112.118,-251.88"/>
<polygon fill="midnightblue" stroke="midnightblue" points="115.131,-253.687 118.187,-243.542 109.472,-249.568 115.131,-253.687"/>
</g>
<!-- Node9 -->
<g id="node10" class="node"><title>Node9</title>
<g id="a_node10"><a xlink:href="../../db/d2a/_utility_8h.html" target="_top" xlink:title="Various helper functions. ">
<polygon fill="white" stroke="black" points="82.5,-168.5 82.5,-187.5 167.5,-187.5 167.5,-168.5 82.5,-168.5"/>
<text text-anchor="middle" x="125" y="-175.5" font-family="Helvetica,sans-Serif" font-size="10.00">../utility/Utility.h</text>
</a>
</g>
</g>
<!-- Node0&#45;&gt;Node9 -->
<g id="edge32" class="edge"><title>Node0&#45;&gt;Node9</title>
<path fill="none" stroke="midnightblue" d="M147.861,-560.435C107.102,-546.449 38,-514.548 38,-459 38,-459 38,-459 38,-289 38,-247.4 76.7523,-212.331 102.53,-193.605"/>
<polygon fill="midnightblue" stroke="midnightblue" points="104.824,-196.272 111.022,-187.679 100.818,-190.531 104.824,-196.272"/>
</g>
<!-- Node14 -->
<g id="node15" class="node"><title>Node14</title>
<g id="a_node15"><a xlink:href="../../d2/dad/_hash_8h.html" target="_top" xlink:title="Provides hash functions for basic data types. ">
<polygon fill="white" stroke="black" points="341.5,-448.5 341.5,-467.5 388.5,-467.5 388.5,-448.5 341.5,-448.5"/>
<text text-anchor="middle" x="365" y="-455.5" font-family="Helvetica,sans-Serif" font-size="10.00">Hash.h</text>
</a>
</g>
</g>
<!-- Node0&#45;&gt;Node14 -->
<g id="edge21" class="edge"><title>Node0&#45;&gt;Node14</title>
<path fill="none" stroke="midnightblue" d="M218.009,-564.964C250.488,-559.958 295.482,-548.797 327,-524 342.376,-511.903 352.762,-491.732 358.737,-477.064"/>
<polygon fill="midnightblue" stroke="midnightblue" points="362.071,-478.142 362.316,-467.55 355.519,-475.677 362.071,-478.142"/>
</g>
<!-- Node16 -->
<g id="node17" class="node"><title>Node16</title>
<g id="a_node17"><a xlink:href="../../d3/de6/_memory_8h.html" target="_top" xlink:title="Memory is a class that provides dynamic fixed size memory. ">
<polygon fill="white" stroke="black" points="350.5,-224.5 350.5,-243.5 457.5,-243.5 457.5,-224.5 350.5,-224.5"/>
<text text-anchor="middle" x="404" y="-231.5" font-family="Helvetica,sans-Serif" font-size="10.00">../memory/Memory.h</text>
</a>
</g>
</g>
<!-- Node0&#45;&gt;Node16 -->
<g id="edge27" class="edge"><title>Node0&#45;&gt;Node16</title>
<path fill="none" stroke="midnightblue" d="M204.85,-560.478C244.638,-546.372 313,-514.117 313,-459 313,-459 313,-459 313,-401 313,-339.379 361.812,-278.978 387.937,-251.063"/>
<polygon fill="midnightblue" stroke="midnightblue" points="390.535,-253.41 394.942,-243.776 385.489,-248.559 390.535,-253.41"/>
</g>
<!-- Node2 -->
<g id="node3" class="node"><title>Node2</title>
<g id="a_node3"><a xlink:href="../../db/db5/_string_8h.html" target="_top" xlink:title="string.h">
<polygon fill="white" stroke="black" points="205.5,-448.5 205.5,-467.5 254.5,-467.5 254.5,-448.5 205.5,-448.5"/>
<text text-anchor="middle" x="230" y="-455.5" font-family="Helvetica,sans-Serif" font-size="10.00">string.h</text>
</a>
</g>
</g>
<!-- Node1&#45;&gt;Node2 -->
<g id="edge2" class="edge"><title>Node1&#45;&gt;Node2</title>
<path fill="none" stroke="midnightblue" d="M185.752,-504.083C193.47,-496.22 204.905,-484.569 214.217,-475.081"/>
<polygon fill="midnightblue" stroke="midnightblue" points="216.904,-477.34 221.411,-467.751 211.908,-472.436 216.904,-477.34"/>
</g>
<!-- Node3 -->
<g id="node4" class="node"><title>Node3</title>
<g id="a_node4"><a xlink:href="../../d8/d65/_static_string_8h.html" target="_top" xlink:title="StaticString provides a String that is on stack and is of fixed size. ">
<polygon fill="white" stroke="black" points="176,-392.5 176,-411.5 284,-411.5 284,-392.5 176,-392.5"/>
<text text-anchor="middle" x="230" y="-399.5" font-family="Helvetica,sans-Serif" font-size="10.00">strings/StaticString.h</text>
</a>
</g>
</g>
<!-- Node1&#45;&gt;Node3 -->
<g id="edge20" class="edge"><title>Node1&#45;&gt;Node3</title>
<path fill="none" stroke="midnightblue" d="M178.517,-504.215C180.964,-491.362 186.497,-466.909 196,-448 201.156,-437.741 208.723,-427.438 215.41,-419.284"/>
<polygon fill="midnightblue" stroke="midnightblue" points="218.09,-421.535 221.921,-411.657 212.766,-416.99 218.09,-421.535"/>
</g>
<!-- Node5 -->
<g id="node6" class="node"><title>Node5</title>
<g id="a_node6"><a xlink:href="../../d0/db6/_types_8h.html" target="_top" xlink:title="type definition of all the string types we will be using ">
<polygon fill="white" stroke="black" points="267,-56.5 267,-75.5 327,-75.5 327,-56.5 267,-56.5"/>
<text text-anchor="middle" x="297" y="-63.5" font-family="Helvetica,sans-Serif" font-size="10.00">../Types.h</text>
</a>
</g>
</g>
<!-- Node1&#45;&gt;Node5 -->
<g id="edge19" class="edge"><title>Node1&#45;&gt;Node5</title>
<path fill="none" stroke="midnightblue" d="M162.515,-504.474C120.243,-478.378 0,-395.007 0,-291 0,-291 0,-291 0,-177 0,-122.93 175.288,-87.0162 256.537,-73.2737"/>
<polygon fill="midnightblue" stroke="midnightblue" points="257.595,-76.6462 266.888,-71.5571 256.45,-69.7405 257.595,-76.6462"/>
</g>
<!-- Node2&#45;&gt;Node3 -->
<g id="edge3" class="edge"><title>Node2&#45;&gt;Node3</title>
<path fill="none" stroke="midnightblue" d="M224.834,-448.083C223.324,-440.927 222.894,-430.635 223.542,-421.691"/>
<polygon fill="midnightblue" stroke="midnightblue" points="227.015,-422.126 224.869,-411.751 220.077,-421.2 227.015,-422.126"/>
</g>
<!-- Node3&#45;&gt;Node2 -->
<g id="edge4" class="edge"><title>Node3&#45;&gt;Node2</title>
<path fill="none" stroke="midnightblue" d="M235.131,-411.751C236.657,-418.858 237.104,-429.136 236.472,-438.101"/>
<polygon fill="midnightblue" stroke="midnightblue" points="232.993,-437.713 235.166,-448.083 239.934,-438.622 232.993,-437.713"/>
</g>
<!-- Node4 -->
<g id="node5" class="node"><title>Node4</title>
<g id="a_node5"><a xlink:href="../../de/d0b/_string_iterator_8h.html" target="_top" xlink:title="StringIterator.h">
<polygon fill="white" stroke="black" points="190,-336.5 190,-355.5 270,-355.5 270,-336.5 190,-336.5"/>
<text text-anchor="middle" x="230" y="-343.5" font-family="Helvetica,sans-Serif" font-size="10.00">StringIterator.h</text>
</a>
</g>
</g>
<!-- Node3&#45;&gt;Node4 -->
<g id="edge5" class="edge"><title>Node3&#45;&gt;Node4</title>
<path fill="none" stroke="midnightblue" d="M230,-392.083C230,-385.006 230,-374.861 230,-365.986"/>
<polygon fill="midnightblue" stroke="midnightblue" points="233.5,-365.751 230,-355.751 226.5,-365.751 233.5,-365.751"/>
</g>
<!-- Node3&#45;&gt;Node5 -->
<g id="edge17" class="edge"><title>Node3&#45;&gt;Node5</title>
<path fill="none" stroke="midnightblue" d="M215.847,-392.406C167.604,-362.018 15.6932,-256.702 73,-168 113.692,-105.014 204.114,-80.9067 256.787,-71.9828"/>
<polygon fill="midnightblue" stroke="midnightblue" points="257.465,-75.419 266.792,-70.3934 256.367,-68.5057 257.465,-75.419"/>
</g>
<!-- Node13 -->
<g id="node14" class="node"><title>Node13</title>
<g id="a_node14"><a xlink:href="../../da/db8/_math_8h.html" target="_top" xlink:title="../utility/Math.h">
<polygon fill="white" stroke="black" points="341,-336.5 341,-355.5 423,-355.5 423,-336.5 341,-336.5"/>
<text text-anchor="middle" x="382" y="-343.5" font-family="Helvetica,sans-Serif" font-size="10.00">../utility/Math.h</text>
</a>
</g>
</g>
<!-- Node3&#45;&gt;Node13 -->
<g id="edge18" class="edge"><title>Node3&#45;&gt;Node13</title>
<path fill="none" stroke="midnightblue" d="M254.085,-392.444C279.545,-383.399 319.894,-369.064 348.459,-358.916"/>
<polygon fill="midnightblue" stroke="midnightblue" points="349.777,-362.162 358.028,-355.516 347.433,-355.566 349.777,-362.162"/>
</g>
<!-- Node4&#45;&gt;Node5 -->
<g id="edge6" class="edge"><title>Node4&#45;&gt;Node5</title>
<path fill="none" stroke="midnightblue" d="M243.638,-336.444C255.077,-328.484 270.817,-315.532 279,-300 316.685,-228.474 306.609,-127.128 300.292,-85.7201"/>
<polygon fill="midnightblue" stroke="midnightblue" points="303.722,-85.0084 298.653,-75.705 296.814,-86.1391 303.722,-85.0084"/>
</g>
<!-- Node7 -->
<g id="node8" class="node"><title>Node7</title>
<g id="a_node8"><a xlink:href="../../d8/dd7/_concept_8h.html" target="_top" xlink:title="Concept definitions. ">
<polygon fill="white" stroke="black" points="187.5,-280.5 187.5,-299.5 270.5,-299.5 270.5,-280.5 187.5,-280.5"/>
<text text-anchor="middle" x="229" y="-287.5" font-family="Helvetica,sans-Serif" font-size="10.00">../stl/Concept.h</text>
</a>
</g>
</g>
<!-- Node4&#45;&gt;Node7 -->
<g id="edge8" class="edge"><title>Node4&#45;&gt;Node7</title>
<path fill="none" stroke="midnightblue" d="M229.835,-336.083C229.704,-329.006 229.516,-318.861 229.352,-309.986"/>
<polygon fill="midnightblue" stroke="midnightblue" points="232.847,-309.685 229.162,-299.751 225.848,-309.814 232.847,-309.685"/>
</g>
<!-- Node6 -->
<g id="node7" class="node"><title>Node6</title>
<polygon fill="white" stroke="#bfbfbf" points="272.5,-0.5 272.5,-19.5 321.5,-19.5 321.5,-0.5 272.5,-0.5"/>
<text text-anchor="middle" x="297" y="-7.5" font-family="Helvetica,sans-Serif" font-size="10.00">stdint.h</text>
</g>
<!-- Node5&#45;&gt;Node6 -->
<g id="edge7" class="edge"><title>Node5&#45;&gt;Node6</title>
<path fill="none" stroke="midnightblue" d="M297,-56.083C297,-49.0059 297,-38.8611 297,-29.9865"/>
<polygon fill="midnightblue" stroke="midnightblue" points="300.5,-29.751 297,-19.7511 293.5,-29.7511 300.5,-29.751"/>
</g>
<!-- Node7&#45;&gt;Node8 -->
<g id="edge9" class="edge"><title>Node7&#45;&gt;Node8</title>
<path fill="none" stroke="midnightblue" d="M212.291,-280.324C195.688,-271.703 169.998,-258.364 150.78,-248.386"/>
<polygon fill="midnightblue" stroke="midnightblue" points="152.156,-245.156 141.668,-243.655 148.93,-251.369 152.156,-245.156"/>
</g>
<!-- Node10 -->
<g id="node11" class="node"><title>Node10</title>
<g id="a_node11"><a xlink:href="../../d2/d37/_tmp_8h.html" target="_top" xlink:title="Template helper types, structs, and metafunctions. ">
<polygon fill="white" stroke="black" points="250,-112.5 250,-131.5 294,-131.5 294,-112.5 250,-112.5"/>
<text text-anchor="middle" x="272" y="-119.5" font-family="Helvetica,sans-Serif" font-size="10.00">Tmp.h</text>
</a>
</g>
</g>
<!-- Node7&#45;&gt;Node10 -->
<g id="edge16" class="edge"><title>Node7&#45;&gt;Node10</title>
<path fill="none" stroke="midnightblue" d="M238.336,-280.371C246.714,-271.984 258.51,-258.431 264,-244 277.054,-209.687 276.036,-165.976 274.06,-141.591"/>
<polygon fill="midnightblue" stroke="midnightblue" points="277.538,-141.196 273.101,-131.575 270.57,-141.863 277.538,-141.196"/>
</g>
<!-- Node11 -->
<g id="node12" class="node"><title>Node11</title>
<g id="a_node12"><a xlink:href="../../d4/dd5/_type_traits_8h.html" target="_top" xlink:title="Metafunctions for types. ">
<polygon fill="white" stroke="black" points="186,-168.5 186,-187.5 256,-187.5 256,-168.5 186,-168.5"/>
<text text-anchor="middle" x="221" y="-175.5" font-family="Helvetica,sans-Serif" font-size="10.00">TypeTraits.h</text>
</a>
</g>
</g>
<!-- Node7&#45;&gt;Node11 -->
<g id="edge13" class="edge"><title>Node7&#45;&gt;Node11</title>
<path fill="none" stroke="midnightblue" d="M218.838,-280.185C210.092,-271.87 198.1,-258.539 193,-244 187.118,-227.231 196.818,-208.664 206.372,-195.682"/>
<polygon fill="midnightblue" stroke="midnightblue" points="209.26,-197.675 212.77,-187.678 203.792,-193.304 209.26,-197.675"/>
</g>
<!-- Node12 -->
<g id="node13" class="node"><title>Node12</title>
<g id="a_node13"><a xlink:href="../../d2/db4/_wlib_8h.html" target="_top" xlink:title="../Wlib.h">
<polygon fill="white" stroke="black" points="202.5,-224.5 202.5,-243.5 255.5,-243.5 255.5,-224.5 202.5,-224.5"/>
<text text-anchor="middle" x="229" y="-231.5" font-family="Helvetica,sans-Serif" font-size="10.00">../Wlib.h</text>
</a>
</g>
</g>
<!-- Node7&#45;&gt;Node12 -->
<g id="edge15" class="edge"><title>Node7&#45;&gt;Node12</title>
<path fill="none" stroke="midnightblue" d="M229,-280.083C229,-273.006 229,-262.861 229,-253.986"/>
<polygon fill="midnightblue" stroke="midnightblue" points="232.5,-253.751 229,-243.751 225.5,-253.751 232.5,-253.751"/>
</g>
<!-- Node8&#45;&gt;Node9 -->
<g id="edge10" class="edge"><title>Node8&#45;&gt;Node9</title>
<path fill="none" stroke="midnightblue" d="M125,-224.083C125,-217.006 125,-206.861 125,-197.986"/>
<polygon fill="midnightblue" stroke="midnightblue" points="128.5,-197.751 125,-187.751 121.5,-197.751 128.5,-197.751"/>
</g>
<!-- Node9&#45;&gt;Node10 -->
<g id="edge11" class="edge"><title>Node9&#45;&gt;Node10</title>
<path fill="none" stroke="midnightblue" d="M148.293,-168.444C173.096,-159.332 212.511,-144.853 240.169,-134.693"/>
<polygon fill="midnightblue" stroke="midnightblue" points="241.599,-137.897 249.779,-131.163 239.185,-131.326 241.599,-137.897"/>
</g>
<!-- Node10&#45;&gt;Node5 -->
<g id="edge12" class="edge"><title>Node10&#45;&gt;Node5</title>
<path fill="none" stroke="midnightblue" d="M276.128,-112.083C279.514,-104.77 284.416,-94.1814 288.619,-85.1034"/>
<polygon fill="midnightblue" stroke="midnightblue" points="291.923,-86.2962 292.949,-75.7511 285.571,-83.3553 291.923,-86.2962"/>
</g>
<!-- Node11&#45;&gt;Node10 -->
<g id="edge14" class="edge"><title>Node11&#45;&gt;Node10</title>
<path fill="none" stroke="midnightblue" d="M229.422,-168.083C236.848,-160.22 247.852,-148.569 256.812,-139.081"/>
<polygon fill="midnightblue" stroke="midnightblue" points="259.413,-141.424 263.735,-131.751 254.324,-136.618 259.413,-141.424"/>
</g>
<!-- Node14&#45;&gt;Node3 -->
<g id="edge25" class="edge"><title>Node14&#45;&gt;Node3</title>
<path fill="none" stroke="midnightblue" d="M343.609,-448.444C321.293,-439.517 286.097,-425.439 260.792,-415.317"/>
<polygon fill="midnightblue" stroke="midnightblue" points="261.876,-411.981 251.291,-411.516 259.276,-418.48 261.876,-411.981"/>
</g>
<!-- Node14&#45;&gt;Node5 -->
<g id="edge22" class="edge"><title>Node14&#45;&gt;Node5</title>
<path fill="none" stroke="midnightblue" d="M388.674,-452.817C412.305,-447.419 448.034,-435.741 469,-412 488.923,-389.44 488,-377.098 488,-347 488,-347 488,-347 488,-177 488,-108.015 393.279,-81.6393 337.245,-72.0718"/>
<polygon fill="midnightblue" stroke="midnightblue" points="337.692,-68.5988 327.265,-70.4745 336.586,-75.5109 337.692,-68.5988"/>
</g>
<!-- Node14&#45;&gt;Node13 -->
<g id="edge24" class="edge"><title>Node14&#45;&gt;Node13</title>
<path fill="none" stroke="midnightblue" d="M365.404,-448.115C366.069,-435.549 367.669,-411.895 371,-392 372.479,-383.166 374.753,-373.501 376.851,-365.4"/>
<polygon fill="midnightblue" stroke="midnightblue" points="380.283,-366.115 379.51,-355.548 373.525,-364.291 380.283,-366.115"/>
</g>
<!-- Node15 -->
<g id="node16" class="node"><title>Node15</title>
<g id="a_node16"><a xlink:href="../../d2/ddf/_wlib_config_8h.html" target="_top" xlink:title="Some basic definitions for compilers. ">
<polygon fill="white" stroke="black" points="380,-392.5 380,-411.5 460,-411.5 460,-392.5 380,-392.5"/>
<text text-anchor="middle" x="420" y="-399.5" font-family="Helvetica,sans-Serif" font-size="10.00">../WlibConfig.h</text>
</a>
</g>
</g>
<!-- Node14&#45;&gt;Node15 -->
<g id="edge23" class="edge"><title>Node14&#45;&gt;Node15</title>
<path fill="none" stroke="midnightblue" d="M374.082,-448.083C382.171,-440.141 394.195,-428.335 403.91,-418.797"/>
<polygon fill="midnightblue" stroke="midnightblue" points="406.403,-421.254 411.087,-411.751 401.499,-416.26 406.403,-421.254"/>
</g>
<!-- Node16&#45;&gt;Node5 -->
<g id="edge29" class="edge"><title>Node16&#45;&gt;Node5</title>
<path fill="none" stroke="midnightblue" d="M412.321,-224.42C423.478,-211.823 440.813,-187.685 431,-168 409.563,-124.998 360.125,-95.4812 327.666,-79.9238"/>
<polygon fill="midnightblue" stroke="midnightblue" points="328.733,-76.5614 318.187,-75.5442 325.797,-82.9159 328.733,-76.5614"/>
</g>
<!-- Node16&#45;&gt;Node9 -->
<g id="edge28" class="edge"><title>Node16&#45;&gt;Node9</title>
<path fill="none" stroke="midnightblue" d="M359.792,-224.444C310.28,-214.861 230.09,-199.34 177.448,-189.151"/>
<polygon fill="midnightblue" stroke="midnightblue" points="178.112,-185.715 167.629,-187.251 176.782,-192.587 178.112,-185.715"/>
</g>
<!-- Node16&#45;&gt;Node10 -->
<g id="edge30" class="edge"><title>Node16&#45;&gt;Node10</title>
<path fill="none" stroke="midnightblue" d="M393.642,-224.368C371.28,-205.733 318.239,-161.532 290.161,-138.134"/>
<polygon fill="midnightblue" stroke="midnightblue" points="292.233,-135.305 282.31,-131.591 287.751,-140.682 292.233,-135.305"/>
</g>
<!-- Node17 -->
<g id="node18" class="node"><title>Node17</title>
<polygon fill="white" stroke="#bfbfbf" points="388,-168.5 388,-187.5 422,-187.5 422,-168.5 388,-168.5"/>
<text text-anchor="middle" x="405" y="-175.5" font-family="Helvetica,sans-Serif" font-size="10.00">new</text>
</g>
<!-- Node16&#45;&gt;Node17 -->
<g id="edge31" class="edge"><title>Node16&#45;&gt;Node17</title>
<path fill="none" stroke="midnightblue" d="M404.165,-224.083C404.296,-217.006 404.484,-206.861 404.648,-197.986"/>
<polygon fill="midnightblue" stroke="midnightblue" points="408.152,-197.814 404.838,-187.751 401.153,-197.685 408.152,-197.814"/>
</g>
</g>
</svg>
        <g id="navigator" transform="translate(0 0)" fill="#404254">
                <rect fill="#f2f5e9" fill-opacity="0.5" stroke="#606060" stroke-width=".5" x="0" y="0" width="60" height="60"/>
                <use id="zoomplus" xlink:href="#zoomPlus" x="17" y="9" onmousedown="handleZoom(evt,'in')"/>
                <use id="zoomminus" xlink:href="#zoomMin" x="42" y="9" onmousedown="handleZoom(evt,'out')"/>
                <use id="reset" xlink:href="#resetDef" x="30" y="36" onmousedown="handleReset()"/>
                <g id="arrowUp" xlink:href="#dirArrow" transform="translate(30 24)" onmousedown="handlePan(0,-1)">
                  <use xlink:href="#rim" fill="#404040">
                        <set attributeName="fill" to="#808080" begin="arrowUp.mouseover" end="arrowUp.mouseout"/>
                  </use>
                  <path fill="none" stroke="white" stroke-width="1.5" d="M0,-3.0v7 M-2.5,-0.5L0,-3.0L2.5,-0.5"/>
                </g>
                <g id="arrowRight" xlink:href="#dirArrow" transform="rotate(90) translate(36 -43)" onmousedown="handlePan(1,0)">
                  <use xlink:href="#rim" fill="#404040">
                        <set attributeName="fill" to="#808080" begin="arrowRight.mouseover" end="arrowRight.mouseout"/>
                  </use>
                  <path fill="none" stroke="white" stroke-width="1.5" d="M0,-3.0v7 M-2.5,-0.5L0,-3.0L2.5,-0.5"/>
                </g>
                <g id="arrowDown" xlink:href="#dirArrow" transform="rotate(180) translate(-30 -48)" onmousedown="handlePan(0,1)">
                  <use xlink:href="#rim" fill="#404040">
                        <set attributeName="fill" to="#808080" begin="arrowDown.mouseover" end="arrowDown.mouseout"/>
                  </use>
                  <path fill="none" stroke="white" stroke-width="1.5" d="M0,-3.0v7 M-2.5,-0.5L0,-3.0L2.5,-0.5"/>
                </g>
                <g id="arrowLeft" xlink:href="#dirArrow" transform="rotate(270) translate(-36 17)" onmousedown="handlePan(-1,0)">
                  <use xlink:href="#rim" fill="#404040">
                        <set attributeName="fill" to="#808080" begin="arrowLeft.mouseover" end="arrowLeft.mouseout"/>
                  </use>
                  <path fill="none" stroke="white" stroke-width="1.5" d="M0,-3.0v7 M-2.5,-0.5L0,-3.0L2.5,-0.5"/>
                </g>
        </g>
        <svg viewBox="0 0 15 15" width="100%" height="30px" preserveAspectRatio="xMaxYMin meet">
         <g id="arrow_out" transform="scale(0.3 0.3)">
          <a xlink:href="_chain_map_8h__incl_org.svg" target="_base">
           <rect id="button" ry="5" rx="5" y="6" x="6" height="38" width="38"
                fill="#f2f5e9" fill-opacity="0.5" stroke="#606060" stroke-width="1.0"/>
           <path id="arrow"
             d="M 11.500037,31.436501 C 11.940474,20.09759 22.043105,11.32322 32.158766,21.979434 L 37.068811,17.246167 C 37.068811,17.246167 37.088388,32 37.088388,32 L 22.160133,31.978069 C 22.160133,31.978069 26.997745,27.140456 26.997745,27.140456 C 18.528582,18.264221 13.291696,25.230495 11.500037,31.436501 z"
             style="fill:#404040;"/>
          </a>
         </g>
        </svg>
</svg>
