<?xml version="1.0" encoding="UTF-8" standalone="no"?>
<!DOCTYPE svg PUBLIC "-//W3C//DTD SVG 1.1//EN"
 "http://www.w3.org/Graphics/SVG/1.1/DTD/svg11.dtd">
<!-- Generated by graphviz version 2.38.0 (20140413.2041)
 -->
<!-- Title: wlp::Tuple&lt; Types &gt; Pages: 1 -->
<svg width="144pt" height="106pt"
 viewBox="0.00 0.00 144.00 106.00" xmlns="http://www.w3.org/2000/svg" xmlns:xlink="http://www.w3.org/1999/xlink">
<g id="graph0" class="graph" transform="scale(1 1) rotate(0) translate(4 102)">
<title>wlp::Tuple&lt; Types &gt;</title>
<polygon fill="white" stroke="none" points="-4,4 -4,-102 140,-102 140,4 -4,4"/>
<!-- Node2 -->
<g id="node1" class="node"><title>Node2</title>
<polygon fill="#bfbfbf" stroke="black" points="16,-0.5 16,-19.5 120,-19.5 120,-0.5 16,-0.5"/>
<text text-anchor="middle" x="68" y="-7.5" font-family="Helvetica,sans-Serif" font-size="10.00">wlp::Tuple&lt; Types &gt;</text>
</g>
<!-- Node3 -->
<g id="node2" class="node"><title>Node3</title>
<g id="a_node2"><a xlink:href="../../d1/d00/structwlp_1_1_tuple_impl.html" target="_top" xlink:title="wlp::TupleImpl\&lt; MakeIndex\lSequence\&lt; sizeof...(Types)\l\&gt;::type, Types... \&gt;">
<polygon fill="white" stroke="black" points="0,-56.5 0,-97.5 136,-97.5 136,-56.5 0,-56.5"/>
<text text-anchor="start" x="8" y="-85.5" font-family="Helvetica,sans-Serif" font-size="10.00">wlp::TupleImpl&lt; MakeIndex</text>
<text text-anchor="start" x="8" y="-74.5" font-family="Helvetica,sans-Serif" font-size="10.00">Sequence&lt; sizeof...(Types)</text>
<text text-anchor="middle" x="68" y="-63.5" font-family="Helvetica,sans-Serif" font-size="10.00">&gt;::type, Types... &gt;</text>
</a>
</g>
</g>
<!-- Node3&#45;&gt;Node2 -->
<g id="edge1" class="edge"><title>Node3&#45;&gt;Node2</title>
<path fill="none" stroke="midnightblue" d="M68,-46.2632C68,-36.5592 68,-26.5242 68,-19.6525"/>
<polygon fill="midnightblue" stroke="midnightblue" points="64.5001,-46.4978 68,-56.4979 71.5001,-46.4979 64.5001,-46.4978"/>
</g>
</g>
</svg>
