<?xml version="1.0" encoding="UTF-8" standalone="no"?>
<!DOCTYPE svg PUBLIC "-//W3C//DTD SVG 1.1//EN"
 "http://www.w3.org/Graphics/SVG/1.1/DTD/svg11.dtd">
<!-- Generated by graphviz version 2.36.0 (20140111.2315)
 -->
<!-- Title: wlp::hash_set&lt; Key, Hasher, Equals &gt; Pages: 1 -->
<!--zoomable 259 -->
<svg id="main" version="1.1" xmlns="http://www.w3.org/2000/svg" xmlns:xlink="http://www.w3.org/1999/xlink" xml:space="preserve" onload="init(evt)">
<style type="text/css"><![CDATA[
.edge:hover path { stroke: red; }
.edge:hover polygon { stroke: red; fill: red; }
]]></style>
<script type="text/javascript"><![CDATA[
var edges = document.getElementsByTagName('g');
if (edges && edges.length) {
  for (var i=0;i<edges.length;i++) {
    if (edges[i].id.substr(0,4)=='edge') {
      edges[i].setAttribute('class','edge');
    }
  }
}
]]></script>
        <defs>
                <circle id="rim" cx="0" cy="0" r="7"/>
                <circle id="rim2" cx="0" cy="0" r="3.5"/>
                <g id="zoomPlus">
                        <use xlink:href="#rim" fill="#404040">
                                <set attributeName="fill" to="#808080" begin="zoomplus.mouseover" end="zoomplus.mouseout"/>
                        </use>
                        <path d="M-4,0h8M0,-4v8" fill="none" stroke="white" stroke-width="1.5" pointer-events="none"/>
                </g>
                <g id="zoomMin">
                        <use xlink:href="#rim" fill="#404040">
                                <set attributeName="fill" to="#808080" begin="zoomminus.mouseover" end="zoomminus.mouseout"/>
                        </use>
                        <path d="M-4,0h8" fill="none" stroke="white" stroke-width="1.5" pointer-events="none"/>
                </g>
                <g id="dirArrow">
                        <path fill="none" stroke="white" stroke-width="1.5" d="M0,-3.0v7 M-2.5,-0.5L0,-3.0L2.5,-0.5"/>
                </g>
               <g id="resetDef">
                       <use xlink:href="#rim2" fill="#404040">
                               <set attributeName="fill" to="#808080" begin="reset.mouseover" end="reset.mouseout"/>
                       </use>
               </g>
        </defs>

<script type="text/javascript">
var viewWidth = 684;
var viewHeight = 259;
var sectionId = 'dynsection-0';
</script>
<script xlink:href="../../svgpan.js"/>
<svg id="graph" class="graph">
<g id="viewport">
<title>wlp::hash_set&lt; Key, Hasher, Equals &gt;</title>
<polygon fill="white" stroke="none" points="-4,4 -4,-255 680,-255 680,4 -4,4"/>
<!-- Node1 -->
<g id="node1" class="node"><title>Node1</title>
<polygon fill="#bfbfbf" stroke="black" points="568.5,-131 568.5,-161 675.5,-161 675.5,-131 568.5,-131"/>
<text text-anchor="start" x="576.5" y="-149" font-family="Helvetica,sans-Serif" font-size="10.00">wlp::hash_set&lt; Key,</text>
<text text-anchor="middle" x="622" y="-138" font-family="Helvetica,sans-Serif" font-size="10.00"> Hasher, Equals &gt;</text>
</g>
<!-- Node2 -->
<g id="node2" class="node"><title>Node2</title>
<g id="a_node2"><a xlink:href="../../dc/d42/classwlp_1_1hash__table.html" target="_top" xlink:title="wlp::hash_table\&lt; Key,\l Key, Key, SetGetKey\l\&lt; Key \&gt;, SetGetVal\&lt; Key\l \&gt;, Hasher, Equals \&gt;">
<polygon fill="white" stroke="black" points="364.5,-120 364.5,-172 493.5,-172 493.5,-120 364.5,-120"/>
<text text-anchor="start" x="372.5" y="-160" font-family="Helvetica,sans-Serif" font-size="10.00">wlp::hash_table&lt; Key,</text>
<text text-anchor="start" x="372.5" y="-149" font-family="Helvetica,sans-Serif" font-size="10.00"> Key, Key, SetGetKey</text>
<text text-anchor="start" x="372.5" y="-138" font-family="Helvetica,sans-Serif" font-size="10.00">&lt; Key &gt;, SetGetVal&lt; Key</text>
<text text-anchor="middle" x="429" y="-127" font-family="Helvetica,sans-Serif" font-size="10.00"> &gt;, Hasher, Equals &gt;</text>
</a>
</g>
</g>
<!-- Node2&#45;&gt;Node1 -->
<g id="edge1" class="edge"><title>Node2&#45;&gt;Node1</title>
<path fill="none" stroke="#9a32cd" stroke-dasharray="5,2" d="M503.726,-146C525.328,-146 548.499,-146 568.493,-146"/>
<polygon fill="#9a32cd" stroke="#9a32cd" points="503.6,-142.5 493.6,-146 503.6,-149.5 503.6,-142.5"/>
<text text-anchor="middle" x="531" y="-149" font-family="Helvetica,sans-Serif" font-size="10.00"> m_table</text>
</g>
<!-- Node3 -->
<g id="node3" class="node"><title>Node3</title>
<polygon fill="white" stroke="#bfbfbf" points="170.5,-231.5 170.5,-250.5 221.5,-250.5 221.5,-231.5 170.5,-231.5"/>
<text text-anchor="middle" x="196" y="-238.5" font-family="Helvetica,sans-Serif" font-size="10.00">uint16_t</text>
</g>
<!-- Node3&#45;&gt;Node2 -->
<g id="edge2" class="edge"><title>Node3&#45;&gt;Node2</title>
<path fill="none" stroke="#9a32cd" stroke-dasharray="5,2" d="M231.597,-236.517C262.621,-231.608 308.843,-222.058 346,-205 364.489,-196.512 383.059,-183.602 397.84,-172.021"/>
<polygon fill="#9a32cd" stroke="#9a32cd" points="231.06,-233.059 221.693,-238.009 232.103,-239.981 231.06,-233.059"/>
<text text-anchor="middle" x="307" y="-243" font-family="Helvetica,sans-Serif" font-size="10.00"> m_capacity</text>
<text text-anchor="middle" x="307" y="-232" font-family="Helvetica,sans-Serif" font-size="10.00">m_size</text>
</g>
<!-- Node4 -->
<g id="node4" class="node"><title>Node4</title>
<polygon fill="white" stroke="#bfbfbf" points="146,-193.5 146,-212.5 246,-212.5 246,-193.5 146,-193.5"/>
<text text-anchor="middle" x="196" y="-200.5" font-family="Helvetica,sans-Serif" font-size="10.00">SetGetKey&lt; Key &gt;</text>
</g>
<!-- Node4&#45;&gt;Node2 -->
<g id="edge3" class="edge"><title>Node4&#45;&gt;Node2</title>
<path fill="none" stroke="#9a32cd" stroke-dasharray="5,2" d="M255.92,-193.45C283.482,-188.494 316.632,-181.833 346,-174 351.959,-172.411 358.113,-170.612 364.246,-168.712"/>
<polygon fill="#9a32cd" stroke="#9a32cd" points="255.273,-190.01 246.035,-195.197 256.492,-196.903 255.273,-190.01"/>
<text text-anchor="middle" x="307" y="-193" font-family="Helvetica,sans-Serif" font-size="10.00"> m_get_key</text>
</g>
<!-- Node5 -->
<g id="node5" class="node"><title>Node5</title>
<polygon fill="white" stroke="#bfbfbf" points="172,-155.5 172,-174.5 220,-174.5 220,-155.5 172,-155.5"/>
<text text-anchor="middle" x="196" y="-162.5" font-family="Helvetica,sans-Serif" font-size="10.00">Hasher</text>
</g>
<!-- Node5&#45;&gt;Node2 -->
<g id="edge4" class="edge"><title>Node5&#45;&gt;Node2</title>
<path fill="none" stroke="#9a32cd" stroke-dasharray="5,2" d="M230.54,-162.241C265.386,-159.375 320.765,-154.82 364.019,-151.263"/>
<polygon fill="#9a32cd" stroke="#9a32cd" points="230.1,-158.766 220.421,-163.074 230.674,-165.742 230.1,-158.766"/>
<text text-anchor="middle" x="307" y="-162" font-family="Helvetica,sans-Serif" font-size="10.00"> m_hash_function</text>
</g>
<!-- Node6 -->
<g id="node6" class="node"><title>Node6</title>
<polygon fill="white" stroke="#bfbfbf" points="173,-117.5 173,-136.5 219,-136.5 219,-117.5 173,-117.5"/>
<text text-anchor="middle" x="196" y="-124.5" font-family="Helvetica,sans-Serif" font-size="10.00">uint8_t</text>
</g>
<!-- Node6&#45;&gt;Node2 -->
<g id="edge5" class="edge"><title>Node6&#45;&gt;Node2</title>
<path fill="none" stroke="#9a32cd" stroke-dasharray="5,2" d="M229.576,-129.578C259.765,-131.979 305.92,-135.675 346,-139 351.98,-139.496 358.206,-140.018 364.434,-140.543"/>
<polygon fill="#9a32cd" stroke="#9a32cd" points="229.463,-126.058 219.217,-128.756 228.909,-133.036 229.463,-126.058"/>
<text text-anchor="middle" x="307" y="-142" font-family="Helvetica,sans-Serif" font-size="10.00"> m_max_load</text>
</g>
<!-- Node7 -->
<g id="node7" class="node"><title>Node7</title>
<g id="a_node7"><a xlink:href="../../dd/d94/structwlp_1_1_hash_table_node.html" target="_top" xlink:title="wlp::HashTableNode\l\&lt; Element \&gt;">
<polygon fill="white" stroke="black" points="142,-39 142,-69 250,-69 250,-39 142,-39"/>
<text text-anchor="start" x="150" y="-57" font-family="Helvetica,sans-Serif" font-size="10.00">wlp::HashTableNode</text>
<text text-anchor="middle" x="196" y="-46" font-family="Helvetica,sans-Serif" font-size="10.00">&lt; Element &gt;</text>
</a>
</g>
</g>
<!-- Node7&#45;&gt;Node2 -->
<g id="edge6" class="edge"><title>Node7&#45;&gt;Node2</title>
<path fill="none" stroke="#9a32cd" stroke-dasharray="5,2" d="M244.303,-72.8394C278.956,-86.6404 326.368,-105.523 364.344,-120.648"/>
<polygon fill="#9a32cd" stroke="#9a32cd" points="245.472,-69.5374 234.886,-69.0889 242.882,-76.0406 245.472,-69.5374"/>
<text text-anchor="middle" x="307" y="-114" font-family="Helvetica,sans-Serif" font-size="10.00"> m_buckets</text>
</g>
<!-- Node7&#45;&gt;Node7 -->
<g id="edge8" class="edge"><title>Node7&#45;&gt;Node7</title>
<path fill="none" stroke="#9a32cd" stroke-dasharray="5,2" d="M178.846,-79.5975C181.19,-83.9704 186.908,-87 196,-87 211.312,-87 217.055,-78.4062 213.227,-69.2754"/>
<polygon fill="#9a32cd" stroke="#9a32cd" points="182.344,-79.2504 178.773,-69.2754 175.344,-79.2999 182.344,-79.2504"/>
<text text-anchor="middle" x="196" y="-90" font-family="Helvetica,sans-Serif" font-size="10.00"> m_next</text>
</g>
<!-- Node8 -->
<g id="node8" class="node"><title>Node8</title>
<polygon fill="white" stroke="#bfbfbf" points="0.5,-44.5 0.5,-63.5 53.5,-63.5 53.5,-44.5 0.5,-44.5"/>
<text text-anchor="middle" x="27" y="-51.5" font-family="Helvetica,sans-Serif" font-size="10.00">Element</text>
</g>
<!-- Node8&#45;&gt;Node7 -->
<g id="edge7" class="edge"><title>Node8&#45;&gt;Node7</title>
<path fill="none" stroke="#9a32cd" stroke-dasharray="5,2" d="M63.9563,-54C86.698,-54 116.496,-54 141.931,-54"/>
<polygon fill="#9a32cd" stroke="#9a32cd" points="63.7278,-50.5001 53.7278,-54 63.7277,-57.5001 63.7278,-50.5001"/>
<text text-anchor="middle" x="98" y="-57" font-family="Helvetica,sans-Serif" font-size="10.00"> m_element</text>
</g>
<!-- Node9 -->
<g id="node9" class="node"><title>Node9</title>
<polygon fill="white" stroke="#bfbfbf" points="172.5,-0.5 172.5,-19.5 219.5,-19.5 219.5,-0.5 172.5,-0.5"/>
<text text-anchor="middle" x="196" y="-7.5" font-family="Helvetica,sans-Serif" font-size="10.00">Equals</text>
</g>
<!-- Node9&#45;&gt;Node2 -->
<g id="edge9" class="edge"><title>Node9&#45;&gt;Node2</title>
<path fill="none" stroke="#9a32cd" stroke-dasharray="5,2" d="M229.262,-21.2718C236.131,-23.7536 243.325,-26.4147 250,-29 293.103,-45.6933 307.195,-43.8869 346,-69 367.969,-83.2177 389.406,-103.648 404.849,-119.892"/>
<polygon fill="#9a32cd" stroke="#9a32cd" points="230.124,-17.8629 219.529,-17.7934 227.768,-24.4546 230.124,-17.8629"/>
<text text-anchor="middle" x="307" y="-72" font-family="Helvetica,sans-Serif" font-size="10.00"> m_key_equals</text>
</g>
</g>
</svg>
        <g id="navigator" transform="translate(0 0)" fill="#404254">
                <rect fill="#f2f5e9" fill-opacity="0.5" stroke="#606060" stroke-width=".5" x="0" y="0" width="60" height="60"/>
                <use id="zoomplus" xlink:href="#zoomPlus" x="17" y="9" onmousedown="handleZoom(evt,'in')"/>
                <use id="zoomminus" xlink:href="#zoomMin" x="42" y="9" onmousedown="handleZoom(evt,'out')"/>
                <use id="reset" xlink:href="#resetDef" x="30" y="36" onmousedown="handleReset()"/>
                <g id="arrowUp" xlink:href="#dirArrow" transform="translate(30 24)" onmousedown="handlePan(0,-1)">
                  <use xlink:href="#rim" fill="#404040">
                        <set attributeName="fill" to="#808080" begin="arrowUp.mouseover" end="arrowUp.mouseout"/>
                  </use>
                  <path fill="none" stroke="white" stroke-width="1.5" d="M0,-3.0v7 M-2.5,-0.5L0,-3.0L2.5,-0.5"/>
                </g>
                <g id="arrowRight" xlink:href="#dirArrow" transform="rotate(90) translate(36 -43)" onmousedown="handlePan(1,0)">
                  <use xlink:href="#rim" fill="#404040">
                        <set attributeName="fill" to="#808080" begin="arrowRight.mouseover" end="arrowRight.mouseout"/>
                  </use>
                  <path fill="none" stroke="white" stroke-width="1.5" d="M0,-3.0v7 M-2.5,-0.5L0,-3.0L2.5,-0.5"/>
                </g>
                <g id="arrowDown" xlink:href="#dirArrow" transform="rotate(180) translate(-30 -48)" onmousedown="handlePan(0,1)">
                  <use xlink:href="#rim" fill="#404040">
                        <set attributeName="fill" to="#808080" begin="arrowDown.mouseover" end="arrowDown.mouseout"/>
                  </use>
                  <path fill="none" stroke="white" stroke-width="1.5" d="M0,-3.0v7 M-2.5,-0.5L0,-3.0L2.5,-0.5"/>
                </g>
                <g id="arrowLeft" xlink:href="#dirArrow" transform="rotate(270) translate(-36 17)" onmousedown="handlePan(-1,0)">
                  <use xlink:href="#rim" fill="#404040">
                        <set attributeName="fill" to="#808080" begin="arrowLeft.mouseover" end="arrowLeft.mouseout"/>
                  </use>
                  <path fill="none" stroke="white" stroke-width="1.5" d="M0,-3.0v7 M-2.5,-0.5L0,-3.0L2.5,-0.5"/>
                </g>
        </g>
        <svg viewBox="0 0 15 15" width="100%" height="30px" preserveAspectRatio="xMaxYMin meet">
         <g id="arrow_out" transform="scale(0.3 0.3)">
          <a xlink:href="classwlp_1_1hash__set__coll__graph_org.svg" target="_base">
           <rect id="button" ry="5" rx="5" y="6" x="6" height="38" width="38"
                fill="#f2f5e9" fill-opacity="0.5" stroke="#606060" stroke-width="1.0"/>
           <path id="arrow"
             d="M 11.500037,31.436501 C 11.940474,20.09759 22.043105,11.32322 32.158766,21.979434 L 37.068811,17.246167 C 37.068811,17.246167 37.088388,32 37.088388,32 L 22.160133,31.978069 C 22.160133,31.978069 26.997745,27.140456 26.997745,27.140456 C 18.528582,18.264221 13.291696,25.230495 11.500037,31.436501 z"
             style="fill:#404040;"/>
          </a>
         </g>
        </svg>
</svg>
