<?xml version="1.0" encoding="UTF-8" standalone="no"?>
<!DOCTYPE svg PUBLIC "-//W3C//DTD SVG 1.1//EN"
 "http://www.w3.org/Graphics/SVG/1.1/DTD/svg11.dtd">
<!-- Generated by graphviz version 2.36.0 (20140111.2315)
 -->
<!-- Title: wlib/strings/StringIterator.h Pages: 1 -->
<svg width="293pt" height="364pt"
 viewBox="0.00 0.00 293.00 364.00" xmlns="http://www.w3.org/2000/svg" xmlns:xlink="http://www.w3.org/1999/xlink">
<g id="graph0" class="graph" transform="scale(1 1) rotate(0) translate(4 360)">
<title>wlib/strings/StringIterator.h</title>
<polygon fill="white" stroke="none" points="-4,4 -4,-360 289,-360 289,4 -4,4"/>
<!-- Node1 -->
<g id="node1" class="node"><title>Node1</title>
<polygon fill="#bfbfbf" stroke="black" points="10,-336.5 10,-355.5 144,-355.5 144,-336.5 10,-336.5"/>
<text text-anchor="middle" x="77" y="-343.5" font-family="Helvetica,sans-Serif" font-size="10.00">wlib/strings/StringIterator.h</text>
</g>
<!-- Node2 -->
<g id="node2" class="node"><title>Node2</title>
<g id="a_node2"><a xlink:href="../../d0/db6/_types_8h.html" target="_top" xlink:title="type definition of all the string types we will be using ">
<polygon fill="white" stroke="black" points="2,-56.5 2,-75.5 74,-75.5 74,-56.5 2,-56.5"/>
<text text-anchor="middle" x="38" y="-63.5" font-family="Helvetica,sans-Serif" font-size="10.00">wlib/Types.h</text>
</a>
</g>
</g>
<!-- Node1&#45;&gt;Node2 -->
<g id="edge1" class="edge"><title>Node1&#45;&gt;Node2</title>
<path fill="none" stroke="midnightblue" d="M65.3054,-336.468C43.7648,-319.665 0,-279.99 0,-235 0,-235 0,-235 0,-177 0,-142.813 16.6005,-105.764 27.8573,-84.5707"/>
<polygon fill="midnightblue" stroke="midnightblue" points="30.9473,-86.2151 32.7163,-75.769 24.8191,-82.832 30.9473,-86.2151"/>
</g>
<!-- Node4 -->
<g id="node4" class="node"><title>Node4</title>
<g id="a_node4"><a xlink:href="../../d8/dd7/_concept_8h.html" target="_top" xlink:title="Concept definitions. ">
<polygon fill="white" stroke="black" points="106.5,-280.5 106.5,-299.5 201.5,-299.5 201.5,-280.5 106.5,-280.5"/>
<text text-anchor="middle" x="154" y="-287.5" font-family="Helvetica,sans-Serif" font-size="10.00">wlib/stl/Concept.h</text>
</a>
</g>
</g>
<!-- Node1&#45;&gt;Node4 -->
<g id="edge3" class="edge"><title>Node1&#45;&gt;Node4</title>
<path fill="none" stroke="midnightblue" d="M89.3714,-336.324C101.158,-328.058 119.132,-315.453 133.136,-305.632"/>
<polygon fill="midnightblue" stroke="midnightblue" points="135.482,-308.262 141.659,-299.655 131.462,-302.531 135.482,-308.262"/>
</g>
<!-- Node3 -->
<g id="node3" class="node"><title>Node3</title>
<polygon fill="white" stroke="#bfbfbf" points="13.5,-0.5 13.5,-19.5 62.5,-19.5 62.5,-0.5 13.5,-0.5"/>
<text text-anchor="middle" x="38" y="-7.5" font-family="Helvetica,sans-Serif" font-size="10.00">stdint.h</text>
</g>
<!-- Node2&#45;&gt;Node3 -->
<g id="edge2" class="edge"><title>Node2&#45;&gt;Node3</title>
<path fill="none" stroke="midnightblue" d="M38,-56.083C38,-49.0059 38,-38.8611 38,-29.9865"/>
<polygon fill="midnightblue" stroke="midnightblue" points="41.5001,-29.751 38,-19.7511 34.5001,-29.7511 41.5001,-29.751"/>
</g>
<!-- Node5 -->
<g id="node5" class="node"><title>Node5</title>
<g id="a_node5"><a xlink:href="../../d4/dda/_pair_8h.html" target="_top" xlink:title="Implementation of a 2&#45;element tuple. ">
<polygon fill="white" stroke="black" points="70,-224.5 70,-243.5 112,-243.5 112,-224.5 70,-224.5"/>
<text text-anchor="middle" x="91" y="-231.5" font-family="Helvetica,sans-Serif" font-size="10.00">Pair.h</text>
</a>
</g>
</g>
<!-- Node4&#45;&gt;Node5 -->
<g id="edge4" class="edge"><title>Node4&#45;&gt;Node5</title>
<path fill="none" stroke="midnightblue" d="M143.878,-280.324C134.474,-272.263 120.256,-260.077 108.931,-250.369"/>
<polygon fill="midnightblue" stroke="midnightblue" points="111.177,-247.684 101.306,-243.834 106.621,-252.999 111.177,-247.684"/>
</g>
<!-- Node7 -->
<g id="node7" class="node"><title>Node7</title>
<g id="a_node7"><a xlink:href="../../d2/d37/_tmp_8h.html" target="_top" xlink:title="Template helper types, structs, and metafunctions. ">
<polygon fill="white" stroke="black" points="93,-112.5 93,-131.5 137,-131.5 137,-112.5 93,-112.5"/>
<text text-anchor="middle" x="115" y="-119.5" font-family="Helvetica,sans-Serif" font-size="10.00">Tmp.h</text>
</a>
</g>
</g>
<!-- Node4&#45;&gt;Node7 -->
<g id="edge11" class="edge"><title>Node4&#45;&gt;Node7</title>
<path fill="none" stroke="midnightblue" d="M153.274,-280.337C151.441,-260.258 145.895,-209.11 134,-168 131.348,-158.836 127.358,-149.035 123.717,-140.928"/>
<polygon fill="midnightblue" stroke="midnightblue" points="126.827,-139.316 119.421,-131.74 120.486,-142.281 126.827,-139.316"/>
</g>
<!-- Node8 -->
<g id="node8" class="node"><title>Node8</title>
<g id="a_node8"><a xlink:href="../../d4/dd5/_type_traits_8h.html" target="_top" xlink:title="Metafunctions for types. ">
<polygon fill="white" stroke="black" points="182.5,-168.5 182.5,-187.5 253.5,-187.5 253.5,-168.5 182.5,-168.5"/>
<text text-anchor="middle" x="218" y="-175.5" font-family="Helvetica,sans-Serif" font-size="10.00">TypeTraits.h</text>
</a>
</g>
</g>
<!-- Node4&#45;&gt;Node8 -->
<g id="edge8" class="edge"><title>Node4&#45;&gt;Node8</title>
<path fill="none" stroke="midnightblue" d="M159.022,-280.368C169.537,-262.296 194.043,-220.176 207.93,-196.307"/>
<polygon fill="midnightblue" stroke="midnightblue" points="210.998,-197.995 213.001,-187.591 204.947,-194.475 210.998,-197.995"/>
</g>
<!-- Node9 -->
<g id="node9" class="node"><title>Node9</title>
<g id="a_node9"><a xlink:href="../../d2/db4/_wlib_8h.html" target="_top" xlink:title="wlib/Wlib.h">
<polygon fill="white" stroke="black" points="220.5,-224.5 220.5,-243.5 285.5,-243.5 285.5,-224.5 220.5,-224.5"/>
<text text-anchor="middle" x="253" y="-231.5" font-family="Helvetica,sans-Serif" font-size="10.00">wlib/Wlib.h</text>
</a>
</g>
</g>
<!-- Node4&#45;&gt;Node9 -->
<g id="edge10" class="edge"><title>Node4&#45;&gt;Node9</title>
<path fill="none" stroke="midnightblue" d="M169.906,-280.324C185.638,-271.743 209.942,-258.486 228.209,-248.522"/>
<polygon fill="midnightblue" stroke="midnightblue" points="230.03,-251.516 237.133,-243.655 226.678,-245.37 230.03,-251.516"/>
</g>
<!-- Node6 -->
<g id="node6" class="node"><title>Node6</title>
<g id="a_node6"><a xlink:href="../../db/d2a/_utility_8h.html" target="_top" xlink:title="Various helper functions. ">
<polygon fill="white" stroke="black" points="28.5,-168.5 28.5,-187.5 125.5,-187.5 125.5,-168.5 28.5,-168.5"/>
<text text-anchor="middle" x="77" y="-175.5" font-family="Helvetica,sans-Serif" font-size="10.00">wlib/utility/Utility.h</text>
</a>
</g>
</g>
<!-- Node5&#45;&gt;Node6 -->
<g id="edge5" class="edge"><title>Node5&#45;&gt;Node6</title>
<path fill="none" stroke="midnightblue" d="M88.6882,-224.083C86.833,-216.927 84.1647,-206.635 81.8458,-197.691"/>
<polygon fill="midnightblue" stroke="midnightblue" points="85.1665,-196.553 79.2688,-187.751 78.3905,-198.309 85.1665,-196.553"/>
</g>
<!-- Node6&#45;&gt;Node7 -->
<g id="edge6" class="edge"><title>Node6&#45;&gt;Node7</title>
<path fill="none" stroke="midnightblue" d="M83.2749,-168.083C88.6425,-160.455 96.5176,-149.264 103.079,-139.941"/>
<polygon fill="midnightblue" stroke="midnightblue" points="105.949,-141.943 108.842,-131.751 100.225,-137.915 105.949,-141.943"/>
</g>
<!-- Node7&#45;&gt;Node2 -->
<g id="edge7" class="edge"><title>Node7&#45;&gt;Node2</title>
<path fill="none" stroke="midnightblue" d="M102.629,-112.324C90.8415,-104.058 72.8677,-91.4527 58.8645,-81.6322"/>
<polygon fill="midnightblue" stroke="midnightblue" points="60.5376,-78.5307 50.3407,-75.6545 56.5184,-84.2619 60.5376,-78.5307"/>
</g>
<!-- Node8&#45;&gt;Node7 -->
<g id="edge9" class="edge"><title>Node8&#45;&gt;Node7</title>
<path fill="none" stroke="midnightblue" d="M201.451,-168.324C185.008,-159.703 159.565,-146.364 140.532,-136.386"/>
<polygon fill="midnightblue" stroke="midnightblue" points="141.989,-133.198 131.508,-131.655 138.739,-139.398 141.989,-133.198"/>
</g>
</g>
</svg>
