<?xml version="1.0" encoding="UTF-8" standalone="no"?>
<!DOCTYPE svg PUBLIC "-//W3C//DTD SVG 1.1//EN"
 "http://www.w3.org/Graphics/SVG/1.1/DTD/svg11.dtd">
<!-- Generated by graphviz version 2.36.0 (20140111.2315)
 -->
<!-- Title: wlib/strings/StringIterator.h Pages: 1 -->
<svg width="357pt" height="364pt"
 viewBox="0.00 0.00 357.00 364.00" xmlns="http://www.w3.org/2000/svg" xmlns:xlink="http://www.w3.org/1999/xlink">
<g id="graph0" class="graph" transform="scale(1 1) rotate(0) translate(4 360)">
<title>wlib/strings/StringIterator.h</title>
<polygon fill="white" stroke="none" points="-4,4 -4,-360 353,-360 353,4 -4,4"/>
<!-- Node1 -->
<g id="node1" class="node"><title>Node1</title>
<polygon fill="#bfbfbf" stroke="black" points="8,-336.5 8,-355.5 142,-355.5 142,-336.5 8,-336.5"/>
<text text-anchor="middle" x="75" y="-343.5" font-family="Helvetica,sans-Serif" font-size="10.00">wlib/strings/StringIterator.h</text>
</g>
<!-- Node2 -->
<g id="node2" class="node"><title>Node2</title>
<g id="a_node2"><a xlink:href="../../d0/db6/_types_8h.html" target="_top" xlink:title="type definition of all the string types we will be using ">
<polygon fill="white" stroke="black" points="36,-56.5 36,-75.5 108,-75.5 108,-56.5 36,-56.5"/>
<text text-anchor="middle" x="72" y="-63.5" font-family="Helvetica,sans-Serif" font-size="10.00">wlib/Types.h</text>
</a>
</g>
</g>
<!-- Node1&#45;&gt;Node2 -->
<g id="edge1" class="edge"><title>Node1&#45;&gt;Node2</title>
<path fill="none" stroke="midnightblue" d="M63.6091,-336.398C42.6281,-319.477 0,-279.61 0,-235 0,-235 0,-235 0,-177 0,-137.939 32.1765,-101.944 53.5094,-82.3723"/>
<polygon fill="midnightblue" stroke="midnightblue" points="55.8839,-84.9449 61.0647,-75.7031 51.2514,-79.6969 55.8839,-84.9449"/>
</g>
<!-- Node4 -->
<g id="node4" class="node"><title>Node4</title>
<g id="a_node4"><a xlink:href="../../d8/dd7/_concept_8h.html" target="_top" xlink:title="Concept definitions. ">
<polygon fill="white" stroke="black" points="102.5,-280.5 102.5,-299.5 197.5,-299.5 197.5,-280.5 102.5,-280.5"/>
<text text-anchor="middle" x="150" y="-287.5" font-family="Helvetica,sans-Serif" font-size="10.00">wlib/stl/Concept.h</text>
</a>
</g>
</g>
<!-- Node1&#45;&gt;Node4 -->
<g id="edge3" class="edge"><title>Node1&#45;&gt;Node4</title>
<path fill="none" stroke="midnightblue" d="M87.05,-336.324C98.4631,-328.107 115.831,-315.602 129.435,-305.807"/>
<polygon fill="midnightblue" stroke="midnightblue" points="131.66,-308.517 137.731,-299.834 127.57,-302.837 131.66,-308.517"/>
</g>
<!-- Node3 -->
<g id="node3" class="node"><title>Node3</title>
<polygon fill="white" stroke="#bfbfbf" points="47.5,-0.5 47.5,-19.5 96.5,-19.5 96.5,-0.5 47.5,-0.5"/>
<text text-anchor="middle" x="72" y="-7.5" font-family="Helvetica,sans-Serif" font-size="10.00">stdint.h</text>
</g>
<!-- Node2&#45;&gt;Node3 -->
<g id="edge2" class="edge"><title>Node2&#45;&gt;Node3</title>
<path fill="none" stroke="midnightblue" d="M72,-56.083C72,-49.0059 72,-38.8611 72,-29.9865"/>
<polygon fill="midnightblue" stroke="midnightblue" points="75.5001,-29.751 72,-19.7511 68.5001,-29.7511 75.5001,-29.751"/>
</g>
<!-- Node5 -->
<g id="node5" class="node"><title>Node5</title>
<g id="a_node5"><a xlink:href="../../d2/db4/_wlib_8h.html" target="_top" xlink:title="wlib/Wlib.h">
<polygon fill="white" stroke="black" points="28.5,-224.5 28.5,-243.5 93.5,-243.5 93.5,-224.5 28.5,-224.5"/>
<text text-anchor="middle" x="61" y="-231.5" font-family="Helvetica,sans-Serif" font-size="10.00">wlib/Wlib.h</text>
</a>
</g>
</g>
<!-- Node4&#45;&gt;Node5 -->
<g id="edge4" class="edge"><title>Node4&#45;&gt;Node5</title>
<path fill="none" stroke="midnightblue" d="M135.701,-280.324C121.817,-271.9 100.508,-258.971 84.1963,-249.074"/>
<polygon fill="midnightblue" stroke="midnightblue" points="85.6289,-245.85 75.2639,-243.655 81.9978,-251.834 85.6289,-245.85"/>
</g>
<!-- Node6 -->
<g id="node6" class="node"><title>Node6</title>
<g id="a_node6"><a xlink:href="../../d4/dda/_pair_8h.html" target="_top" xlink:title="Implementation of a 2&#45;element tuple. ">
<polygon fill="white" stroke="black" points="112,-224.5 112,-243.5 188,-243.5 188,-224.5 112,-224.5"/>
<text text-anchor="middle" x="150" y="-231.5" font-family="Helvetica,sans-Serif" font-size="10.00">wlib/stl/Pair.h</text>
</a>
</g>
</g>
<!-- Node4&#45;&gt;Node6 -->
<g id="edge5" class="edge"><title>Node4&#45;&gt;Node6</title>
<path fill="none" stroke="midnightblue" d="M150,-280.083C150,-273.006 150,-262.861 150,-253.986"/>
<polygon fill="midnightblue" stroke="midnightblue" points="153.5,-253.751 150,-243.751 146.5,-253.751 153.5,-253.751"/>
</g>
<!-- Node8 -->
<g id="node8" class="node"><title>Node8</title>
<g id="a_node8"><a xlink:href="../../d2/d37/_tmp_8h.html" target="_top" xlink:title="Template helper types, structs, and metafunctions. ">
<polygon fill="white" stroke="black" points="140,-112.5 140,-131.5 220,-131.5 220,-112.5 140,-112.5"/>
<text text-anchor="middle" x="180" y="-119.5" font-family="Helvetica,sans-Serif" font-size="10.00">wlib/util/Tmp.h</text>
</a>
</g>
</g>
<!-- Node4&#45;&gt;Node8 -->
<g id="edge11" class="edge"><title>Node4&#45;&gt;Node8</title>
<path fill="none" stroke="midnightblue" d="M164.078,-280.259C175.353,-272.355 190.346,-259.584 197,-244 211.658,-209.672 198.134,-165.368 188.245,-141.021"/>
<polygon fill="midnightblue" stroke="midnightblue" points="191.366,-139.42 184.196,-131.62 184.937,-142.189 191.366,-139.42"/>
</g>
<!-- Node9 -->
<g id="node9" class="node"><title>Node9</title>
<g id="a_node9"><a xlink:href="../../d4/dd5/_type_traits_8h.html" target="_top" xlink:title="Metafunctions for types. ">
<polygon fill="white" stroke="black" points="244.5,-168.5 244.5,-187.5 349.5,-187.5 349.5,-168.5 244.5,-168.5"/>
<text text-anchor="middle" x="297" y="-175.5" font-family="Helvetica,sans-Serif" font-size="10.00">wlib/stl/TypeTraits.h</text>
</a>
</g>
</g>
<!-- Node4&#45;&gt;Node9 -->
<g id="edge9" class="edge"><title>Node4&#45;&gt;Node9</title>
<path fill="none" stroke="midnightblue" d="M168.289,-280.414C185.055,-272.156 210.208,-258.777 230,-244 249.757,-229.249 269.695,-209.074 282.621,-195.131"/>
<polygon fill="midnightblue" stroke="midnightblue" points="285.216,-197.479 289.366,-187.73 280.043,-192.763 285.216,-197.479"/>
</g>
<!-- Node7 -->
<g id="node7" class="node"><title>Node7</title>
<g id="a_node7"><a xlink:href="../../db/d2a/_utility_8h.html" target="_top" xlink:title="Various helper functions. ">
<polygon fill="white" stroke="black" points="102,-168.5 102,-187.5 188,-187.5 188,-168.5 102,-168.5"/>
<text text-anchor="middle" x="145" y="-175.5" font-family="Helvetica,sans-Serif" font-size="10.00">wlib/util/Utility.h</text>
</a>
</g>
</g>
<!-- Node6&#45;&gt;Node7 -->
<g id="edge6" class="edge"><title>Node6&#45;&gt;Node7</title>
<path fill="none" stroke="midnightblue" d="M149.174,-224.083C148.519,-217.006 147.58,-206.861 146.758,-197.986"/>
<polygon fill="midnightblue" stroke="midnightblue" points="150.217,-197.386 145.81,-187.751 143.247,-198.031 150.217,-197.386"/>
</g>
<!-- Node7&#45;&gt;Node8 -->
<g id="edge7" class="edge"><title>Node7&#45;&gt;Node8</title>
<path fill="none" stroke="midnightblue" d="M150.78,-168.083C155.672,-160.534 162.827,-149.495 168.833,-140.23"/>
<polygon fill="midnightblue" stroke="midnightblue" points="171.826,-142.046 174.328,-131.751 165.952,-138.239 171.826,-142.046"/>
</g>
<!-- Node8&#45;&gt;Node2 -->
<g id="edge8" class="edge"><title>Node8&#45;&gt;Node2</title>
<path fill="none" stroke="midnightblue" d="M162.648,-112.324C145.328,-103.664 118.485,-90.2424 98.4981,-80.249"/>
<polygon fill="midnightblue" stroke="midnightblue" points="99.8186,-76.9962 89.309,-75.6545 96.688,-83.2572 99.8186,-76.9962"/>
</g>
<!-- Node9&#45;&gt;Node8 -->
<g id="edge10" class="edge"><title>Node9&#45;&gt;Node8</title>
<path fill="none" stroke="midnightblue" d="M278.461,-168.444C259.377,-159.636 229.425,-145.812 207.564,-135.722"/>
<polygon fill="midnightblue" stroke="midnightblue" points="208.999,-132.529 198.452,-131.516 206.065,-138.885 208.999,-132.529"/>
</g>
</g>
</svg>
