<?xml version="1.0" encoding="UTF-8" standalone="no"?>
<!DOCTYPE svg PUBLIC "-//W3C//DTD SVG 1.1//EN"
 "http://www.w3.org/Graphics/SVG/1.1/DTD/svg11.dtd">
<!-- Generated by graphviz version 2.36.0 (20140111.2315)
 -->
<!-- Title: wlib/memory/Memory.cpp Pages: 1 -->
<svg width="669pt" height="308pt"
 viewBox="0.00 0.00 669.00 308.00" xmlns="http://www.w3.org/2000/svg" xmlns:xlink="http://www.w3.org/1999/xlink">
<g id="graph0" class="graph" transform="scale(1 1) rotate(0) translate(4 304)">
<title>wlib/memory/Memory.cpp</title>
<polygon fill="white" stroke="none" points="-4,4 -4,-304 665,-304 665,4 -4,4"/>
<!-- Node1 -->
<g id="node1" class="node"><title>Node1</title>
<polygon fill="#bfbfbf" stroke="black" points="296.5,-280.5 296.5,-299.5 425.5,-299.5 425.5,-280.5 296.5,-280.5"/>
<text text-anchor="middle" x="361" y="-287.5" font-family="Helvetica,sans-Serif" font-size="10.00">wlib/memory/Memory.cpp</text>
</g>
<!-- Node2 -->
<g id="node2" class="node"><title>Node2</title>
<polygon fill="white" stroke="#bfbfbf" points="-0.5,-168.5 -0.5,-187.5 48.5,-187.5 48.5,-168.5 -0.5,-168.5"/>
<text text-anchor="middle" x="24" y="-175.5" font-family="Helvetica,sans-Serif" font-size="10.00">string.h</text>
</g>
<!-- Node1&#45;&gt;Node2 -->
<g id="edge1" class="edge"><title>Node1&#45;&gt;Node2</title>
<path fill="none" stroke="midnightblue" d="M296.43,-282.978C248.641,-276.996 182.635,-265.486 128,-244 95.8955,-231.374 62.7701,-208.693 42.7761,-193.743"/>
<polygon fill="midnightblue" stroke="midnightblue" points="44.8836,-190.948 34.8084,-187.671 40.6407,-196.516 44.8836,-190.948"/>
</g>
<!-- Node3 -->
<g id="node3" class="node"><title>Node3</title>
<g id="a_node3"><a xlink:href="../../d3/de6/_memory_8h.html" target="_top" xlink:title="Memory is a class that provides dynamic fixed size memory. ">
<polygon fill="white" stroke="black" points="137,-224.5 137,-243.5 197,-243.5 197,-224.5 137,-224.5"/>
<text text-anchor="middle" x="167" y="-231.5" font-family="Helvetica,sans-Serif" font-size="10.00">Memory.h</text>
</a>
</g>
</g>
<!-- Node1&#45;&gt;Node3 -->
<g id="edge2" class="edge"><title>Node1&#45;&gt;Node3</title>
<path fill="none" stroke="midnightblue" d="M330.26,-280.444C296.958,-271.174 243.697,-256.349 207.12,-246.168"/>
<polygon fill="midnightblue" stroke="midnightblue" points="207.849,-242.737 197.277,-243.428 205.972,-249.481 207.849,-242.737"/>
</g>
<!-- Node9 -->
<g id="node9" class="node"><title>Node9</title>
<g id="a_node9"><a xlink:href="../../de/d41/_static_allocator_pool_8h.html" target="_top" xlink:title="Template class to create static memory pools. ">
<polygon fill="white" stroke="black" points="241,-224.5 241,-243.5 349,-243.5 349,-224.5 241,-224.5"/>
<text text-anchor="middle" x="295" y="-231.5" font-family="Helvetica,sans-Serif" font-size="10.00">StaticAllocatorPool.h</text>
</a>
</g>
</g>
<!-- Node1&#45;&gt;Node9 -->
<g id="edge11" class="edge"><title>Node1&#45;&gt;Node9</title>
<path fill="none" stroke="midnightblue" d="M350.396,-280.324C340.544,-272.263 325.649,-260.077 313.785,-250.369"/>
<polygon fill="midnightblue" stroke="midnightblue" points="315.753,-247.457 305.797,-243.834 311.32,-252.875 315.753,-247.457"/>
</g>
<!-- Node11 -->
<g id="node11" class="node"><title>Node11</title>
<g id="a_node11"><a xlink:href="../../de/dbd/_dynamic_allocator_pool_8h.html" target="_top" xlink:title="Template class to create Dynamic memory pools. ">
<polygon fill="white" stroke="black" points="367,-224.5 367,-243.5 489,-243.5 489,-224.5 367,-224.5"/>
<text text-anchor="middle" x="428" y="-231.5" font-family="Helvetica,sans-Serif" font-size="10.00">DynamicAllocatorPool.h</text>
</a>
</g>
</g>
<!-- Node1&#45;&gt;Node11 -->
<g id="edge14" class="edge"><title>Node1&#45;&gt;Node11</title>
<path fill="none" stroke="midnightblue" d="M371.765,-280.324C381.766,-272.263 396.887,-260.077 408.93,-250.369"/>
<polygon fill="midnightblue" stroke="midnightblue" points="411.45,-252.834 417.039,-243.834 407.057,-247.384 411.45,-252.834"/>
</g>
<!-- Node12 -->
<g id="node12" class="node"><title>Node12</title>
<g id="a_node12"><a xlink:href="../../d2/db4/_wlib_8h.html" target="_top" xlink:title="../Wlib.h">
<polygon fill="white" stroke="black" points="507.5,-224.5 507.5,-243.5 560.5,-243.5 560.5,-224.5 507.5,-224.5"/>
<text text-anchor="middle" x="534" y="-231.5" font-family="Helvetica,sans-Serif" font-size="10.00">../Wlib.h</text>
</a>
</g>
</g>
<!-- Node1&#45;&gt;Node12 -->
<g id="edge16" class="edge"><title>Node1&#45;&gt;Node12</title>
<path fill="none" stroke="midnightblue" d="M388.412,-280.444C417.942,-271.226 465.07,-256.516 497.669,-246.34"/>
<polygon fill="midnightblue" stroke="midnightblue" points="498.781,-249.66 507.284,-243.339 496.696,-242.978 498.781,-249.66"/>
</g>
<!-- Node13 -->
<g id="node13" class="node"><title>Node13</title>
<g id="a_node13"><a xlink:href="../../da/db8/_math_8h.html" target="_top" xlink:title="../utility/Math.h">
<polygon fill="white" stroke="black" points="579,-224.5 579,-243.5 661,-243.5 661,-224.5 579,-224.5"/>
<text text-anchor="middle" x="620" y="-231.5" font-family="Helvetica,sans-Serif" font-size="10.00">../utility/Math.h</text>
</a>
</g>
</g>
<!-- Node1&#45;&gt;Node13 -->
<g id="edge17" class="edge"><title>Node1&#45;&gt;Node13</title>
<path fill="none" stroke="midnightblue" d="M402.039,-280.444C447.316,-271.004 520.227,-255.802 569.106,-245.611"/>
<polygon fill="midnightblue" stroke="midnightblue" points="570.078,-248.984 579.153,-243.516 568.649,-242.131 570.078,-248.984"/>
</g>
<!-- Node3&#45;&gt;Node2 -->
<g id="edge3" class="edge"><title>Node3&#45;&gt;Node2</title>
<path fill="none" stroke="midnightblue" d="M144.341,-224.444C120.598,-215.478 83.0909,-201.314 56.2616,-191.183"/>
<polygon fill="midnightblue" stroke="midnightblue" points="57.1445,-187.775 46.5528,-187.516 54.6715,-194.324 57.1445,-187.775"/>
</g>
<!-- Node4 -->
<g id="node4" class="node"><title>Node4</title>
<g id="a_node4"><a xlink:href="../../d0/db6/_types_8h.html" target="_top" xlink:title="type definition of all the string types we will be using ">
<polygon fill="white" stroke="black" points="156,-56.5 156,-75.5 228,-75.5 228,-56.5 156,-56.5"/>
<text text-anchor="middle" x="192" y="-63.5" font-family="Helvetica,sans-Serif" font-size="10.00">wlib/Types.h</text>
</a>
</g>
</g>
<!-- Node3&#45;&gt;Node4 -->
<g id="edge4" class="edge"><title>Node3&#45;&gt;Node4</title>
<path fill="none" stroke="midnightblue" d="M141.839,-224.378C125.581,-217.343 105.707,-205.645 96,-188 91.7155,-180.212 93.2377,-176.449 96,-168 108.521,-129.704 145.382,-98.4889 169.613,-81.35"/>
<polygon fill="midnightblue" stroke="midnightblue" points="171.62,-84.2179 177.901,-75.6855 167.67,-78.4388 171.62,-84.2179"/>
</g>
<!-- Node6 -->
<g id="node6" class="node"><title>Node6</title>
<g id="a_node6"><a xlink:href="../../db/d2a/_utility_8h.html" target="_top" xlink:title="Various helper functions. ">
<polygon fill="white" stroke="black" points="105.5,-168.5 105.5,-187.5 202.5,-187.5 202.5,-168.5 105.5,-168.5"/>
<text text-anchor="middle" x="154" y="-175.5" font-family="Helvetica,sans-Serif" font-size="10.00">wlib/utility/Utility.h</text>
</a>
</g>
</g>
<!-- Node3&#45;&gt;Node6 -->
<g id="edge6" class="edge"><title>Node3&#45;&gt;Node6</title>
<path fill="none" stroke="midnightblue" d="M164.853,-224.083C163.131,-216.927 160.653,-206.635 158.5,-197.691"/>
<polygon fill="midnightblue" stroke="midnightblue" points="161.85,-196.654 156.107,-187.751 155.045,-198.293 161.85,-196.654"/>
</g>
<!-- Node7 -->
<g id="node7" class="node"><title>Node7</title>
<g id="a_node7"><a xlink:href="../../d2/d37/_tmp_8h.html" target="_top" xlink:title="Template helper types, structs, and metafunctions. ">
<polygon fill="white" stroke="black" points="146.5,-112.5 146.5,-131.5 237.5,-131.5 237.5,-112.5 146.5,-112.5"/>
<text text-anchor="middle" x="192" y="-119.5" font-family="Helvetica,sans-Serif" font-size="10.00">wlib/utility/Tmp.h</text>
</a>
</g>
</g>
<!-- Node3&#45;&gt;Node7 -->
<g id="edge9" class="edge"><title>Node3&#45;&gt;Node7</title>
<path fill="none" stroke="midnightblue" d="M179.781,-224.369C190.394,-216.36 204.731,-203.379 211,-188 217.428,-172.231 210.5,-153.498 203.271,-140.203"/>
<polygon fill="midnightblue" stroke="midnightblue" points="206.271,-138.398 198.142,-131.603 200.259,-141.984 206.271,-138.398"/>
</g>
<!-- Node8 -->
<g id="node8" class="node"><title>Node8</title>
<g id="a_node8"><a xlink:href="../../d9/d8a/_new_8h.html" target="_top" xlink:title="New operators defined for Arduino boards and for other boards use the normal new. ...">
<polygon fill="white" stroke="black" points="259,-168.5 259,-187.5 363,-187.5 363,-168.5 259,-168.5"/>
<text text-anchor="middle" x="311" y="-175.5" font-family="Helvetica,sans-Serif" font-size="10.00">wlib/memory/New.h</text>
</a>
</g>
</g>
<!-- Node3&#45;&gt;Node8 -->
<g id="edge10" class="edge"><title>Node3&#45;&gt;Node8</title>
<path fill="none" stroke="midnightblue" d="M189.817,-224.444C213.832,-215.438 251.829,-201.189 278.869,-191.049"/>
<polygon fill="midnightblue" stroke="midnightblue" points="280.155,-194.305 288.29,-187.516 277.697,-187.751 280.155,-194.305"/>
</g>
<!-- Node5 -->
<g id="node5" class="node"><title>Node5</title>
<polygon fill="white" stroke="#bfbfbf" points="167.5,-0.5 167.5,-19.5 216.5,-19.5 216.5,-0.5 167.5,-0.5"/>
<text text-anchor="middle" x="192" y="-7.5" font-family="Helvetica,sans-Serif" font-size="10.00">stdint.h</text>
</g>
<!-- Node4&#45;&gt;Node5 -->
<g id="edge5" class="edge"><title>Node4&#45;&gt;Node5</title>
<path fill="none" stroke="midnightblue" d="M192,-56.083C192,-49.0059 192,-38.8611 192,-29.9865"/>
<polygon fill="midnightblue" stroke="midnightblue" points="195.5,-29.751 192,-19.7511 188.5,-29.7511 195.5,-29.751"/>
</g>
<!-- Node6&#45;&gt;Node7 -->
<g id="edge7" class="edge"><title>Node6&#45;&gt;Node7</title>
<path fill="none" stroke="midnightblue" d="M160.275,-168.083C165.642,-160.455 173.518,-149.264 180.079,-139.941"/>
<polygon fill="midnightblue" stroke="midnightblue" points="182.949,-141.943 185.842,-131.751 177.225,-137.915 182.949,-141.943"/>
</g>
<!-- Node7&#45;&gt;Node4 -->
<g id="edge8" class="edge"><title>Node7&#45;&gt;Node4</title>
<path fill="none" stroke="midnightblue" d="M192,-112.083C192,-105.006 192,-94.8611 192,-85.9865"/>
<polygon fill="midnightblue" stroke="midnightblue" points="195.5,-85.751 192,-75.7511 188.5,-85.7511 195.5,-85.751"/>
</g>
<!-- Node10 -->
<g id="node10" class="node"><title>Node10</title>
<g id="a_node10"><a xlink:href="../../df/d4d/_allocator_8h.html" target="_top" xlink:title="Allocator is a memory management library where allocations are always of fixed size. ">
<polygon fill="white" stroke="black" points="381,-168.5 381,-187.5 503,-187.5 503,-168.5 381,-168.5"/>
<text text-anchor="middle" x="442" y="-175.5" font-family="Helvetica,sans-Serif" font-size="10.00">wlib/memory/Allocator.h</text>
</a>
</g>
</g>
<!-- Node9&#45;&gt;Node10 -->
<g id="edge12" class="edge"><title>Node9&#45;&gt;Node10</title>
<path fill="none" stroke="midnightblue" d="M318.293,-224.444C342.807,-215.438 381.596,-201.189 409.2,-191.049"/>
<polygon fill="midnightblue" stroke="midnightblue" points="410.637,-194.25 418.816,-187.516 408.223,-187.679 410.637,-194.25"/>
</g>
<!-- Node10&#45;&gt;Node4 -->
<g id="edge13" class="edge"><title>Node10&#45;&gt;Node4</title>
<path fill="none" stroke="midnightblue" d="M422.383,-168.368C378.479,-149.051 272.135,-102.259 220.746,-79.6481"/>
<polygon fill="midnightblue" stroke="midnightblue" points="222.089,-76.4153 211.526,-75.5914 219.27,-82.8225 222.089,-76.4153"/>
</g>
<!-- Node11&#45;&gt;Node10 -->
<g id="edge15" class="edge"><title>Node11&#45;&gt;Node10</title>
<path fill="none" stroke="midnightblue" d="M430.312,-224.083C432.167,-216.927 434.835,-206.635 437.154,-197.691"/>
<polygon fill="midnightblue" stroke="midnightblue" points="440.609,-198.309 439.731,-187.751 433.834,-196.553 440.609,-198.309"/>
</g>
</g>
</svg>
