<?xml version="1.0" encoding="UTF-8" standalone="no"?>
<!DOCTYPE svg PUBLIC "-//W3C//DTD SVG 1.1//EN"
 "http://www.w3.org/Graphics/SVG/1.1/DTD/svg11.dtd">
<!-- Generated by graphviz version 2.36.0 (20140111.2315)
 -->
<!-- Title: memory/New.cpp Pages: 1 -->
<svg width="119pt" height="84pt"
 viewBox="0.00 0.00 119.00 84.00" xmlns="http://www.w3.org/2000/svg" xmlns:xlink="http://www.w3.org/1999/xlink">
<g id="graph0" class="graph" transform="scale(1 1) rotate(0) translate(4 80)">
<title>memory/New.cpp</title>
<polygon fill="white" stroke="none" points="-4,4 -4,-80 115,-80 115,4 -4,4"/>
<!-- Node1 -->
<g id="node1" class="node"><title>Node1</title>
<polygon fill="#bfbfbf" stroke="black" points="9,-56.5 9,-75.5 103,-75.5 103,-56.5 9,-56.5"/>
<text text-anchor="middle" x="56" y="-63.5" font-family="Helvetica,sans-Serif" font-size="10.00">memory/New.cpp</text>
</g>
<!-- Node2 -->
<g id="node2" class="node"><title>Node2</title>
<polygon fill="white" stroke="#bfbfbf" points="0,-0.5 0,-19.5 48,-19.5 48,-0.5 0,-0.5"/>
<text text-anchor="middle" x="24" y="-7.5" font-family="Helvetica,sans-Serif" font-size="10.00">stdlib.h</text>
</g>
<!-- Node1&#45;&gt;Node2 -->
<g id="edge1" class="edge"><title>Node1&#45;&gt;Node2</title>
<path fill="none" stroke="midnightblue" d="M50.7159,-56.083C46.289,-48.6127 39.8367,-37.7244 34.3821,-28.5199"/>
<polygon fill="midnightblue" stroke="midnightblue" points="37.2949,-26.5697 29.1858,-19.7511 31.2729,-30.1383 37.2949,-26.5697"/>
</g>
<!-- Node3 -->
<g id="node3" class="node"><title>Node3</title>
<g id="a_node3"><a xlink:href="../../d9/d8a/_new_8h.html" target="_top" xlink:title="New operators defined for Arduino boards and for other boards use the normal new. ...">
<polygon fill="white" stroke="black" points="66.5,-0.5 66.5,-19.5 111.5,-19.5 111.5,-0.5 66.5,-0.5"/>
<text text-anchor="middle" x="89" y="-7.5" font-family="Helvetica,sans-Serif" font-size="10.00">New.h</text>
</a>
</g>
</g>
<!-- Node1&#45;&gt;Node3 -->
<g id="edge2" class="edge"><title>Node1&#45;&gt;Node3</title>
<path fill="none" stroke="midnightblue" d="M61.4493,-56.083C66.0145,-48.6127 72.6684,-37.7244 78.2934,-28.5199"/>
<polygon fill="midnightblue" stroke="midnightblue" points="81.4241,-30.109 83.6521,-19.7511 75.4511,-26.4588 81.4241,-30.109"/>
</g>
</g>
</svg>
